the_entertainer = {
    "header": {
        "keySignatures": [
            {"key": "C", "scale": "major", "ticks": 0},
            {"key": "F", "scale": "major", "ticks": 81600},
            {"key": "F", "scale": "major", "ticks": 96960},
            {"key": "C", "scale": "major", "ticks": 112320},
            {"key": "C", "scale": "major", "ticks": 114240},
            {"key": "C", "scale": "major", "ticks": 0},
            {"key": "F", "scale": "major", "ticks": 81600},
            {"key": "F", "scale": "major", "ticks": 96960},
            {"key": "C", "scale": "major", "ticks": 112320},
            {"key": "C", "scale": "major", "ticks": 114240},
        ],
        "meta": [],
        "name": "",
        "ppq": 480,
        "tempos": [{"bpm": 72.00002880001152, "ticks": 0}],
        "timeSignatures": [{"ticks": 0, "timeSignature": [2, 4], "measures": 0}],
    },
    "tracks": [
        {
            "channel": 0,
            "controlChanges": {
                "7": [
                    {
                        "number": 7,
                        "ticks": 2,
                        "time": 0.003472220833333333,
                        "value": 0.7874015748031497,
                    }
                ],
                "10": [
                    {
                        "number": 10,
                        "ticks": 4,
                        "time": 0.006944441666666666,
                        "value": 0.5039370078740157,
                    }
                ],
                "91": [
                    {
                        "number": 91,
                        "ticks": 6,
                        "time": 0.0104166625,
                        "value": 0.23622047244094488,
                    }
                ],
                "93": [
                    {
                        "number": 93,
                        "ticks": 8,
                        "time": 0.013888883333333333,
                        "value": 0.23622047244094488,
                    }
                ],
            },
            "pitchBends": [],
            "instrument": {
                "family": "piano",
                "number": 0,
                "name": "acoustic grand piano",
            },
            "name": "",
            "notes": [
                {
                    "duration": 0.20659713958333334,
                    "durationTicks": 119,
                    "midi": 86,
                    "name": "D6",
                    "ticks": 0,
                    "time": 0,
                    "velocity": 0.7559055118110236,
                },
                {
                    "duration": 0.20659713958333334,
                    "durationTicks": 119,
                    "midi": 74,
                    "name": "D5",
                    "ticks": 0,
                    "time": 0,
                    "velocity": 0.7559055118110236,
                },
                {
                    "duration": 0.20659713958333334,
                    "durationTicks": 119,
                    "midi": 88,
                    "name": "E6",
                    "ticks": 120,
                    "time": 0.20833325,
                    "velocity": 0.7559055118110236,
                },
                {
                    "duration": 0.20659713958333334,
                    "durationTicks": 119,
                    "midi": 76,
                    "name": "E5",
                    "ticks": 120,
                    "time": 0.20833325,
                    "velocity": 0.7559055118110236,
                },
                {
                    "duration": 0.2065971395833333,
                    "durationTicks": 119,
                    "midi": 84,
                    "name": "C6",
                    "ticks": 240,
                    "time": 0.4166665,
                    "velocity": 0.7559055118110236,
                },
                {
                    "duration": 0.2065971395833333,
                    "durationTicks": 119,
                    "midi": 72,
                    "name": "C5",
                    "ticks": 240,
                    "time": 0.4166665,
                    "velocity": 0.7559055118110236,
                },
                {
                    "duration": 0.20659713958333337,
                    "durationTicks": 119,
                    "midi": 81,
                    "name": "A5",
                    "ticks": 360,
                    "time": 0.62499975,
                    "velocity": 0.7559055118110236,
                },
                {
                    "duration": 0.41493038958333317,
                    "durationTicks": 239,
                    "midi": 69,
                    "name": "A4",
                    "ticks": 360,
                    "time": 0.62499975,
                    "velocity": 0.7559055118110236,
                },
                {
                    "duration": 0.20659713958333314,
                    "durationTicks": 119,
                    "midi": 81,
                    "name": "A5",
                    "ticks": 480,
                    "time": 0.833333,
                    "velocity": 0.7559055118110236,
                },
                {
                    "duration": 0.20659713958333326,
                    "durationTicks": 119,
                    "midi": 83,
                    "name": "B5",
                    "ticks": 600,
                    "time": 1.04166625,
                    "velocity": 0.7559055118110236,
                },
                {
                    "duration": 0.20659713958333326,
                    "durationTicks": 119,
                    "midi": 71,
                    "name": "B4",
                    "ticks": 600,
                    "time": 1.04166625,
                    "velocity": 0.7559055118110236,
                },
                {
                    "duration": 0.4149303895833334,
                    "durationTicks": 239,
                    "midi": 79,
                    "name": "G5",
                    "ticks": 720,
                    "time": 1.2499995,
                    "velocity": 0.7559055118110236,
                },
                {
                    "duration": 0.4149303895833334,
                    "durationTicks": 239,
                    "midi": 67,
                    "name": "G4",
                    "ticks": 720,
                    "time": 1.2499995,
                    "velocity": 0.7559055118110236,
                },
                {
                    "duration": 0.20659713958333348,
                    "durationTicks": 119,
                    "midi": 74,
                    "name": "D5",
                    "ticks": 960,
                    "time": 1.666666,
                    "velocity": 0.7559055118110236,
                },
                {
                    "duration": 0.20659713958333348,
                    "durationTicks": 119,
                    "midi": 76,
                    "name": "E5",
                    "ticks": 1080,
                    "time": 1.87499925,
                    "velocity": 0.7559055118110236,
                },
                {
                    "duration": 0.20659713958333326,
                    "durationTicks": 119,
                    "midi": 72,
                    "name": "C5",
                    "ticks": 1200,
                    "time": 2.0833325,
                    "velocity": 0.7559055118110236,
                },
                {
                    "duration": 0.4149303895833336,
                    "durationTicks": 239,
                    "midi": 69,
                    "name": "A4",
                    "ticks": 1320,
                    "time": 2.29166575,
                    "velocity": 0.7559055118110236,
                },
                {
                    "duration": 0.2065971395833337,
                    "durationTicks": 119,
                    "midi": 71,
                    "name": "B4",
                    "ticks": 1560,
                    "time": 2.7083322499999998,
                    "velocity": 0.7559055118110236,
                },
                {
                    "duration": 0.41493038958333317,
                    "durationTicks": 239,
                    "midi": 67,
                    "name": "G4",
                    "ticks": 1680,
                    "time": 2.9166655,
                    "velocity": 0.7559055118110236,
                },
                {
                    "duration": 0.20659713958333326,
                    "durationTicks": 119,
                    "midi": 62,
                    "name": "D4",
                    "ticks": 1920,
                    "time": 3.333332,
                    "velocity": 0.7559055118110236,
                },
                {
                    "duration": 0.2065971395833337,
                    "durationTicks": 119,
                    "midi": 64,
                    "name": "E4",
                    "ticks": 2040,
                    "time": 3.54166525,
                    "velocity": 0.7559055118110236,
                },
                {
                    "duration": 0.2065971395833337,
                    "durationTicks": 119,
                    "midi": 60,
                    "name": "C4",
                    "ticks": 2160,
                    "time": 3.7499985,
                    "velocity": 0.7559055118110236,
                },
                {
                    "duration": 0.2065971395833328,
                    "durationTicks": 119,
                    "midi": 57,
                    "name": "A3",
                    "ticks": 2280,
                    "time": 3.95833175,
                    "velocity": 0.7559055118110236,
                },
                {
                    "duration": 0.2065971395833337,
                    "durationTicks": 119,
                    "midi": 57,
                    "name": "A3",
                    "ticks": 2400,
                    "time": 4.166665,
                    "velocity": 0.7559055118110236,
                },
                {
                    "duration": 0.2065971395833337,
                    "durationTicks": 119,
                    "midi": 59,
                    "name": "B3",
                    "ticks": 2520,
                    "time": 4.37499825,
                    "velocity": 0.7559055118110236,
                },
                {
                    "duration": 0.2065971395833337,
                    "durationTicks": 119,
                    "midi": 57,
                    "name": "A3",
                    "ticks": 2640,
                    "time": 4.5833315,
                    "velocity": 0.7559055118110236,
                },
                {
                    "duration": 0.2065971395833337,
                    "durationTicks": 119,
                    "midi": 56,
                    "name": "G#3",
                    "ticks": 2760,
                    "time": 4.79166475,
                    "velocity": 0.7559055118110236,
                },
                {
                    "duration": 0.4149303895833336,
                    "durationTicks": 239,
                    "midi": 55,
                    "name": "G3",
                    "ticks": 2880,
                    "time": 4.999998,
                    "velocity": 0.7559055118110236,
                },
                {
                    "duration": 0.4149303895833327,
                    "durationTicks": 239,
                    "midi": 79,
                    "name": "G5",
                    "ticks": 3360,
                    "time": 5.833331,
                    "velocity": 0.7559055118110236,
                },
                {
                    "duration": 0.4149303895833327,
                    "durationTicks": 239,
                    "midi": 74,
                    "name": "D5",
                    "ticks": 3360,
                    "time": 5.833331,
                    "velocity": 0.7559055118110236,
                },
                {
                    "duration": 0.4149303895833327,
                    "durationTicks": 239,
                    "midi": 71,
                    "name": "B4",
                    "ticks": 3360,
                    "time": 5.833331,
                    "velocity": 0.7559055118110236,
                },
                {
                    "duration": 0.4149303895833327,
                    "durationTicks": 239,
                    "midi": 67,
                    "name": "G4",
                    "ticks": 3360,
                    "time": 5.833331,
                    "velocity": 0.7559055118110236,
                },
                {
                    "duration": 0.2065971395833337,
                    "durationTicks": 119,
                    "midi": 62,
                    "name": "D4",
                    "ticks": 3600,
                    "time": 6.2499975,
                    "velocity": 0.7559055118110236,
                },
                {
                    "duration": 0.2065971395833337,
                    "durationTicks": 119,
                    "midi": 63,
                    "name": "D#4",
                    "ticks": 3720,
                    "time": 6.45833075,
                    "velocity": 0.7559055118110236,
                },
                {
                    "duration": 0.2065971395833337,
                    "durationTicks": 119,
                    "midi": 64,
                    "name": "E4",
                    "ticks": 3840,
                    "time": 6.666664,
                    "velocity": 0.3858267716535433,
                },
                {
                    "duration": 0.4149303895833336,
                    "durationTicks": 239,
                    "midi": 72,
                    "name": "C5",
                    "ticks": 3960,
                    "time": 6.87499725,
                    "velocity": 0.3858267716535433,
                },
                {
                    "duration": 0.2065971395833337,
                    "durationTicks": 119,
                    "midi": 64,
                    "name": "E4",
                    "ticks": 4200,
                    "time": 7.29166375,
                    "velocity": 0.3858267716535433,
                },
                {
                    "duration": 0.4149303895833336,
                    "durationTicks": 239,
                    "midi": 72,
                    "name": "C5",
                    "ticks": 4320,
                    "time": 7.499997,
                    "velocity": 0.3858267716535433,
                },
                {
                    "duration": 0.2065971395833337,
                    "durationTicks": 119,
                    "midi": 64,
                    "name": "E4",
                    "ticks": 4560,
                    "time": 7.9166635,
                    "velocity": 0.3858267716535433,
                },
                {
                    "duration": 1.2482633895833342,
                    "durationTicks": 719,
                    "midi": 72,
                    "name": "C5",
                    "ticks": 4680,
                    "time": 8.12499675,
                    "velocity": 0.3858267716535433,
                },
                {
                    "duration": 0.20659713958333192,
                    "durationTicks": 119,
                    "midi": 84,
                    "name": "C6",
                    "ticks": 5400,
                    "time": 9.37499625,
                    "velocity": 0.3858267716535433,
                },
                {
                    "duration": 0.20659713958333192,
                    "durationTicks": 119,
                    "midi": 76,
                    "name": "E5",
                    "ticks": 5400,
                    "time": 9.37499625,
                    "velocity": 0.3858267716535433,
                },
                {
                    "duration": 0.20659713958333192,
                    "durationTicks": 119,
                    "midi": 72,
                    "name": "C5",
                    "ticks": 5400,
                    "time": 9.37499625,
                    "velocity": 0.3858267716535433,
                },
                {
                    "duration": 0.2065971395833337,
                    "durationTicks": 119,
                    "midi": 86,
                    "name": "D6",
                    "ticks": 5520,
                    "time": 9.5833295,
                    "velocity": 0.3858267716535433,
                },
                {
                    "duration": 0.2065971395833337,
                    "durationTicks": 119,
                    "midi": 77,
                    "name": "F5",
                    "ticks": 5520,
                    "time": 9.5833295,
                    "velocity": 0.3858267716535433,
                },
                {
                    "duration": 0.2065971395833337,
                    "durationTicks": 119,
                    "midi": 74,
                    "name": "D5",
                    "ticks": 5520,
                    "time": 9.5833295,
                    "velocity": 0.3858267716535433,
                },
                {
                    "duration": 0.2065971395833337,
                    "durationTicks": 119,
                    "midi": 87,
                    "name": "D#6",
                    "ticks": 5640,
                    "time": 9.79166275,
                    "velocity": 0.3858267716535433,
                },
                {
                    "duration": 0.2065971395833337,
                    "durationTicks": 119,
                    "midi": 78,
                    "name": "F#5",
                    "ticks": 5640,
                    "time": 9.79166275,
                    "velocity": 0.3858267716535433,
                },
                {
                    "duration": 0.2065971395833337,
                    "durationTicks": 119,
                    "midi": 75,
                    "name": "D#5",
                    "ticks": 5640,
                    "time": 9.79166275,
                    "velocity": 0.3858267716535433,
                },
                {
                    "duration": 0.2065971395833337,
                    "durationTicks": 119,
                    "midi": 88,
                    "name": "E6",
                    "ticks": 5760,
                    "time": 9.999996,
                    "velocity": 0.3858267716535433,
                },
                {
                    "duration": 0.2065971395833337,
                    "durationTicks": 119,
                    "midi": 79,
                    "name": "G5",
                    "ticks": 5760,
                    "time": 9.999996,
                    "velocity": 0.3858267716535433,
                },
                {
                    "duration": 0.2065971395833337,
                    "durationTicks": 119,
                    "midi": 76,
                    "name": "E5",
                    "ticks": 5760,
                    "time": 9.999996,
                    "velocity": 0.3858267716535433,
                },
                {
                    "duration": 0.2065971395833337,
                    "durationTicks": 119,
                    "midi": 84,
                    "name": "C6",
                    "ticks": 5880,
                    "time": 10.20832925,
                    "velocity": 0.3858267716535433,
                },
                {
                    "duration": 0.2065971395833337,
                    "durationTicks": 119,
                    "midi": 76,
                    "name": "E5",
                    "ticks": 5880,
                    "time": 10.20832925,
                    "velocity": 0.3858267716535433,
                },
                {
                    "duration": 0.2065971395833337,
                    "durationTicks": 119,
                    "midi": 72,
                    "name": "C5",
                    "ticks": 5880,
                    "time": 10.20832925,
                    "velocity": 0.3858267716535433,
                },
                {
                    "duration": 0.2065971395833337,
                    "durationTicks": 119,
                    "midi": 77,
                    "name": "F5",
                    "ticks": 6000,
                    "time": 10.4166625,
                    "velocity": 0.3858267716535433,
                },
                {
                    "duration": 0.2065971395833337,
                    "durationTicks": 119,
                    "midi": 74,
                    "name": "D5",
                    "ticks": 6000,
                    "time": 10.4166625,
                    "velocity": 0.3858267716535433,
                },
                {
                    "duration": 0.4149303895833327,
                    "durationTicks": 239,
                    "midi": 79,
                    "name": "G5",
                    "ticks": 6120,
                    "time": 10.62499575,
                    "velocity": 0.3858267716535433,
                },
                {
                    "duration": 0.4149303895833327,
                    "durationTicks": 239,
                    "midi": 76,
                    "name": "E5",
                    "ticks": 6120,
                    "time": 10.62499575,
                    "velocity": 0.3858267716535433,
                },
                {
                    "duration": 0.2065971395833337,
                    "durationTicks": 119,
                    "midi": 74,
                    "name": "D5",
                    "ticks": 6360,
                    "time": 11.04166225,
                    "velocity": 0.3858267716535433,
                },
                {
                    "duration": 0.2065971395833337,
                    "durationTicks": 119,
                    "midi": 71,
                    "name": "B4",
                    "ticks": 6360,
                    "time": 11.04166225,
                    "velocity": 0.3858267716535433,
                },
                {
                    "duration": 0.4149303895833327,
                    "durationTicks": 239,
                    "midi": 77,
                    "name": "F5",
                    "ticks": 6480,
                    "time": 11.2499955,
                    "velocity": 0.3858267716535433,
                },
                {
                    "duration": 0.4149303895833327,
                    "durationTicks": 239,
                    "midi": 74,
                    "name": "D5",
                    "ticks": 6480,
                    "time": 11.2499955,
                    "velocity": 0.3858267716535433,
                },
                {
                    "duration": 1.2482633895833324,
                    "durationTicks": 719,
                    "midi": 84,
                    "name": "C6",
                    "ticks": 6720,
                    "time": 11.666662,
                    "velocity": 0.3858267716535433,
                },
                {
                    "duration": 1.2482633895833324,
                    "durationTicks": 719,
                    "midi": 76,
                    "name": "E5",
                    "ticks": 6720,
                    "time": 11.666662,
                    "velocity": 0.3858267716535433,
                },
                {
                    "duration": 1.2482633895833324,
                    "durationTicks": 719,
                    "midi": 72,
                    "name": "C5",
                    "ticks": 6720,
                    "time": 11.666662,
                    "velocity": 0.3858267716535433,
                },
                {
                    "duration": 0.2065971395833337,
                    "durationTicks": 119,
                    "midi": 62,
                    "name": "D4",
                    "ticks": 7440,
                    "time": 12.9166615,
                    "velocity": 0.3858267716535433,
                },
                {
                    "duration": 0.2065971395833337,
                    "durationTicks": 119,
                    "midi": 63,
                    "name": "D#4",
                    "ticks": 7560,
                    "time": 13.124994749999999,
                    "velocity": 0.3858267716535433,
                },
                {
                    "duration": 0.20659713958333192,
                    "durationTicks": 119,
                    "midi": 64,
                    "name": "E4",
                    "ticks": 7680,
                    "time": 13.333328,
                    "velocity": 0.3858267716535433,
                },
                {
                    "duration": 0.41493038958333095,
                    "durationTicks": 239,
                    "midi": 72,
                    "name": "C5",
                    "ticks": 7800,
                    "time": 13.54166125,
                    "velocity": 0.3858267716535433,
                },
                {
                    "duration": 0.20659713958333192,
                    "durationTicks": 119,
                    "midi": 64,
                    "name": "E4",
                    "ticks": 8040,
                    "time": 13.95832775,
                    "velocity": 0.3858267716535433,
                },
                {
                    "duration": 0.4149303895833327,
                    "durationTicks": 239,
                    "midi": 72,
                    "name": "C5",
                    "ticks": 8160,
                    "time": 14.166661,
                    "velocity": 0.3858267716535433,
                },
                {
                    "duration": 0.20659713958333192,
                    "durationTicks": 119,
                    "midi": 64,
                    "name": "E4",
                    "ticks": 8400,
                    "time": 14.5833275,
                    "velocity": 0.3858267716535433,
                },
                {
                    "duration": 1.4565966395833332,
                    "durationTicks": 839,
                    "midi": 72,
                    "name": "C5",
                    "ticks": 8520,
                    "time": 14.79166075,
                    "velocity": 0.3858267716535433,
                },
                {
                    "duration": 0.2065971395833337,
                    "durationTicks": 119,
                    "midi": 81,
                    "name": "A5",
                    "ticks": 9360,
                    "time": 16.2499935,
                    "velocity": 0.3858267716535433,
                },
                {
                    "duration": 0.2065971395833337,
                    "durationTicks": 119,
                    "midi": 72,
                    "name": "C5",
                    "ticks": 9360,
                    "time": 16.2499935,
                    "velocity": 0.3858267716535433,
                },
                {
                    "duration": 0.2065971395833337,
                    "durationTicks": 119,
                    "midi": 69,
                    "name": "A4",
                    "ticks": 9360,
                    "time": 16.2499935,
                    "velocity": 0.3858267716535433,
                },
                {
                    "duration": 0.20659713958333015,
                    "durationTicks": 119,
                    "midi": 79,
                    "name": "G5",
                    "ticks": 9480,
                    "time": 16.45832675,
                    "velocity": 0.3858267716535433,
                },
                {
                    "duration": 0.20659713958333015,
                    "durationTicks": 119,
                    "midi": 72,
                    "name": "C5",
                    "ticks": 9480,
                    "time": 16.45832675,
                    "velocity": 0.3858267716535433,
                },
                {
                    "duration": 0.20659713958333015,
                    "durationTicks": 119,
                    "midi": 67,
                    "name": "G4",
                    "ticks": 9480,
                    "time": 16.45832675,
                    "velocity": 0.3858267716535433,
                },
                {
                    "duration": 0.20659713958333015,
                    "durationTicks": 119,
                    "midi": 78,
                    "name": "F#5",
                    "ticks": 9600,
                    "time": 16.66666,
                    "velocity": 0.3858267716535433,
                },
                {
                    "duration": 0.20659713958333015,
                    "durationTicks": 119,
                    "midi": 72,
                    "name": "C5",
                    "ticks": 9600,
                    "time": 16.66666,
                    "velocity": 0.3858267716535433,
                },
                {
                    "duration": 0.20659713958333015,
                    "durationTicks": 119,
                    "midi": 66,
                    "name": "F#4",
                    "ticks": 9600,
                    "time": 16.66666,
                    "velocity": 0.3858267716535433,
                },
                {
                    "duration": 0.2065971395833337,
                    "durationTicks": 119,
                    "midi": 81,
                    "name": "A5",
                    "ticks": 9720,
                    "time": 16.87499325,
                    "velocity": 0.3858267716535433,
                },
                {
                    "duration": 0.2065971395833337,
                    "durationTicks": 119,
                    "midi": 69,
                    "name": "A4",
                    "ticks": 9720,
                    "time": 16.87499325,
                    "velocity": 0.3858267716535433,
                },
                {
                    "duration": 0.2065971395833337,
                    "durationTicks": 119,
                    "midi": 84,
                    "name": "C6",
                    "ticks": 9840,
                    "time": 17.0833265,
                    "velocity": 0.3858267716535433,
                },
                {
                    "duration": 0.2065971395833337,
                    "durationTicks": 119,
                    "midi": 72,
                    "name": "C5",
                    "ticks": 9840,
                    "time": 17.0833265,
                    "velocity": 0.3858267716535433,
                },
                {
                    "duration": 0.4149303895833292,
                    "durationTicks": 239,
                    "midi": 88,
                    "name": "E6",
                    "ticks": 9960,
                    "time": 17.29165975,
                    "velocity": 0.3858267716535433,
                },
                {
                    "duration": 0.4149303895833292,
                    "durationTicks": 239,
                    "midi": 76,
                    "name": "E5",
                    "ticks": 9960,
                    "time": 17.29165975,
                    "velocity": 0.3858267716535433,
                },
                {
                    "duration": 0.2065971395833337,
                    "durationTicks": 119,
                    "midi": 86,
                    "name": "D6",
                    "ticks": 10200,
                    "time": 17.70832625,
                    "velocity": 0.3858267716535433,
                },
                {
                    "duration": 0.2065971395833337,
                    "durationTicks": 119,
                    "midi": 74,
                    "name": "D5",
                    "ticks": 10200,
                    "time": 17.70832625,
                    "velocity": 0.3858267716535433,
                },
                {
                    "duration": 0.20659713958333015,
                    "durationTicks": 119,
                    "midi": 84,
                    "name": "C6",
                    "ticks": 10320,
                    "time": 17.9166595,
                    "velocity": 0.3858267716535433,
                },
                {
                    "duration": 0.20659713958333015,
                    "durationTicks": 119,
                    "midi": 72,
                    "name": "C5",
                    "ticks": 10320,
                    "time": 17.9166595,
                    "velocity": 0.3858267716535433,
                },
                {
                    "duration": 0.20659713958333015,
                    "durationTicks": 119,
                    "midi": 81,
                    "name": "A5",
                    "ticks": 10440,
                    "time": 18.12499275,
                    "velocity": 0.3858267716535433,
                },
                {
                    "duration": 0.20659713958333015,
                    "durationTicks": 119,
                    "midi": 69,
                    "name": "A4",
                    "ticks": 10440,
                    "time": 18.12499275,
                    "velocity": 0.3858267716535433,
                },
                {
                    "duration": 1.2482633895833324,
                    "durationTicks": 719,
                    "midi": 86,
                    "name": "D6",
                    "ticks": 10560,
                    "time": 18.333326,
                    "velocity": 0.3858267716535433,
                },
                {
                    "duration": 1.2482633895833324,
                    "durationTicks": 719,
                    "midi": 77,
                    "name": "F5",
                    "ticks": 10560,
                    "time": 18.333326,
                    "velocity": 0.3858267716535433,
                },
                {
                    "duration": 1.2482633895833324,
                    "durationTicks": 719,
                    "midi": 74,
                    "name": "D5",
                    "ticks": 10560,
                    "time": 18.333326,
                    "velocity": 0.3858267716535433,
                },
                {
                    "duration": 0.20659713958333015,
                    "durationTicks": 119,
                    "midi": 62,
                    "name": "D4",
                    "ticks": 11280,
                    "time": 19.5833255,
                    "velocity": 0.3858267716535433,
                },
                {
                    "duration": 0.20659713958333015,
                    "durationTicks": 119,
                    "midi": 63,
                    "name": "D#4",
                    "ticks": 11400,
                    "time": 19.79165875,
                    "velocity": 0.3858267716535433,
                },
                {
                    "duration": 0.2065971395833337,
                    "durationTicks": 119,
                    "midi": 64,
                    "name": "E4",
                    "ticks": 11520,
                    "time": 19.999992,
                    "velocity": 0.3858267716535433,
                },
                {
                    "duration": 0.4149303895833292,
                    "durationTicks": 239,
                    "midi": 72,
                    "name": "C5",
                    "ticks": 11640,
                    "time": 20.20832525,
                    "velocity": 0.3858267716535433,
                },
                {
                    "duration": 0.2065971395833337,
                    "durationTicks": 119,
                    "midi": 64,
                    "name": "E4",
                    "ticks": 11880,
                    "time": 20.62499175,
                    "velocity": 0.3858267716535433,
                },
                {
                    "duration": 0.4149303895833327,
                    "durationTicks": 239,
                    "midi": 72,
                    "name": "C5",
                    "ticks": 12000,
                    "time": 20.833325,
                    "velocity": 0.3858267716535433,
                },
                {
                    "duration": 0.20659713958333015,
                    "durationTicks": 119,
                    "midi": 64,
                    "name": "E4",
                    "ticks": 12240,
                    "time": 21.2499915,
                    "velocity": 0.3858267716535433,
                },
                {
                    "duration": 1.2482633895833324,
                    "durationTicks": 719,
                    "midi": 72,
                    "name": "C5",
                    "ticks": 12360,
                    "time": 21.45832475,
                    "velocity": 0.3858267716535433,
                },
                {
                    "duration": 0.20659713958333015,
                    "durationTicks": 119,
                    "midi": 84,
                    "name": "C6",
                    "ticks": 13080,
                    "time": 22.70832425,
                    "velocity": 0.3858267716535433,
                },
                {
                    "duration": 0.20659713958333015,
                    "durationTicks": 119,
                    "midi": 76,
                    "name": "E5",
                    "ticks": 13080,
                    "time": 22.70832425,
                    "velocity": 0.3858267716535433,
                },
                {
                    "duration": 0.20659713958333015,
                    "durationTicks": 119,
                    "midi": 72,
                    "name": "C5",
                    "ticks": 13080,
                    "time": 22.70832425,
                    "velocity": 0.3858267716535433,
                },
                {
                    "duration": 0.2065971395833337,
                    "durationTicks": 119,
                    "midi": 86,
                    "name": "D6",
                    "ticks": 13200,
                    "time": 22.9166575,
                    "velocity": 0.3858267716535433,
                },
                {
                    "duration": 0.2065971395833337,
                    "durationTicks": 119,
                    "midi": 77,
                    "name": "F5",
                    "ticks": 13200,
                    "time": 22.9166575,
                    "velocity": 0.3858267716535433,
                },
                {
                    "duration": 0.2065971395833337,
                    "durationTicks": 119,
                    "midi": 74,
                    "name": "D5",
                    "ticks": 13200,
                    "time": 22.9166575,
                    "velocity": 0.3858267716535433,
                },
                {
                    "duration": 0.2065971395833337,
                    "durationTicks": 119,
                    "midi": 87,
                    "name": "D#6",
                    "ticks": 13320,
                    "time": 23.12499075,
                    "velocity": 0.3858267716535433,
                },
                {
                    "duration": 0.2065971395833337,
                    "durationTicks": 119,
                    "midi": 78,
                    "name": "F#5",
                    "ticks": 13320,
                    "time": 23.12499075,
                    "velocity": 0.3858267716535433,
                },
                {
                    "duration": 0.2065971395833337,
                    "durationTicks": 119,
                    "midi": 75,
                    "name": "D#5",
                    "ticks": 13320,
                    "time": 23.12499075,
                    "velocity": 0.3858267716535433,
                },
                {
                    "duration": 0.20659713958333015,
                    "durationTicks": 119,
                    "midi": 88,
                    "name": "E6",
                    "ticks": 13440,
                    "time": 23.333324,
                    "velocity": 0.3858267716535433,
                },
                {
                    "duration": 0.20659713958333015,
                    "durationTicks": 119,
                    "midi": 79,
                    "name": "G5",
                    "ticks": 13440,
                    "time": 23.333324,
                    "velocity": 0.3858267716535433,
                },
                {
                    "duration": 0.20659713958333015,
                    "durationTicks": 119,
                    "midi": 76,
                    "name": "E5",
                    "ticks": 13440,
                    "time": 23.333324,
                    "velocity": 0.3858267716535433,
                },
                {
                    "duration": 0.20659713958333015,
                    "durationTicks": 119,
                    "midi": 84,
                    "name": "C6",
                    "ticks": 13560,
                    "time": 23.54165725,
                    "velocity": 0.3858267716535433,
                },
                {
                    "duration": 0.20659713958333015,
                    "durationTicks": 119,
                    "midi": 76,
                    "name": "E5",
                    "ticks": 13560,
                    "time": 23.54165725,
                    "velocity": 0.3858267716535433,
                },
                {
                    "duration": 0.20659713958333015,
                    "durationTicks": 119,
                    "midi": 72,
                    "name": "C5",
                    "ticks": 13560,
                    "time": 23.54165725,
                    "velocity": 0.3858267716535433,
                },
                {
                    "duration": 0.2065971395833337,
                    "durationTicks": 119,
                    "midi": 77,
                    "name": "F5",
                    "ticks": 13680,
                    "time": 23.7499905,
                    "velocity": 0.3858267716535433,
                },
                {
                    "duration": 0.2065971395833337,
                    "durationTicks": 119,
                    "midi": 74,
                    "name": "D5",
                    "ticks": 13680,
                    "time": 23.7499905,
                    "velocity": 0.3858267716535433,
                },
                {
                    "duration": 0.4149303895833327,
                    "durationTicks": 239,
                    "midi": 79,
                    "name": "G5",
                    "ticks": 13800,
                    "time": 23.958323749999998,
                    "velocity": 0.3858267716535433,
                },
                {
                    "duration": 0.4149303895833327,
                    "durationTicks": 239,
                    "midi": 76,
                    "name": "E5",
                    "ticks": 13800,
                    "time": 23.958323749999998,
                    "velocity": 0.3858267716535433,
                },
                {
                    "duration": 0.20659713958333015,
                    "durationTicks": 119,
                    "midi": 74,
                    "name": "D5",
                    "ticks": 14040,
                    "time": 24.37499025,
                    "velocity": 0.3858267716535433,
                },
                {
                    "duration": 0.20659713958333015,
                    "durationTicks": 119,
                    "midi": 71,
                    "name": "B4",
                    "ticks": 14040,
                    "time": 24.37499025,
                    "velocity": 0.3858267716535433,
                },
                {
                    "duration": 0.4149303895833327,
                    "durationTicks": 239,
                    "midi": 77,
                    "name": "F5",
                    "ticks": 14160,
                    "time": 24.5833235,
                    "velocity": 0.3858267716535433,
                },
                {
                    "duration": 0.4149303895833327,
                    "durationTicks": 239,
                    "midi": 74,
                    "name": "D5",
                    "ticks": 14160,
                    "time": 24.5833235,
                    "velocity": 0.3858267716535433,
                },
                {
                    "duration": 1.2482633895833324,
                    "durationTicks": 719,
                    "midi": 84,
                    "name": "C6",
                    "ticks": 14400,
                    "time": 24.99999,
                    "velocity": 0.3858267716535433,
                },
                {
                    "duration": 1.2482633895833324,
                    "durationTicks": 719,
                    "midi": 76,
                    "name": "E5",
                    "ticks": 14400,
                    "time": 24.99999,
                    "velocity": 0.3858267716535433,
                },
                {
                    "duration": 1.2482633895833324,
                    "durationTicks": 719,
                    "midi": 72,
                    "name": "C5",
                    "ticks": 14400,
                    "time": 24.99999,
                    "velocity": 0.3858267716535433,
                },
                {
                    "duration": 0.2065971395833337,
                    "durationTicks": 119,
                    "midi": 84,
                    "name": "C6",
                    "ticks": 15120,
                    "time": 26.249989499999998,
                    "velocity": 0.3858267716535433,
                },
                {
                    "duration": 0.2065971395833337,
                    "durationTicks": 119,
                    "midi": 72,
                    "name": "C5",
                    "ticks": 15120,
                    "time": 26.249989499999998,
                    "velocity": 0.3858267716535433,
                },
                {
                    "duration": 0.20659713958333015,
                    "durationTicks": 119,
                    "midi": 86,
                    "name": "D6",
                    "ticks": 15240,
                    "time": 26.45832275,
                    "velocity": 0.3858267716535433,
                },
                {
                    "duration": 0.20659713958333015,
                    "durationTicks": 119,
                    "midi": 74,
                    "name": "D5",
                    "ticks": 15240,
                    "time": 26.45832275,
                    "velocity": 0.3858267716535433,
                },
                {
                    "duration": 0.2065971395833337,
                    "durationTicks": 119,
                    "midi": 88,
                    "name": "E6",
                    "ticks": 15360,
                    "time": 26.666656,
                    "velocity": 0.3858267716535433,
                },
                {
                    "duration": 0.2065971395833337,
                    "durationTicks": 119,
                    "midi": 76,
                    "name": "E5",
                    "ticks": 15360,
                    "time": 26.666656,
                    "velocity": 0.3858267716535433,
                },
                {
                    "duration": 0.20659713958333725,
                    "durationTicks": 119,
                    "midi": 84,
                    "name": "C6",
                    "ticks": 15480,
                    "time": 26.87498925,
                    "velocity": 0.3858267716535433,
                },
                {
                    "duration": 0.20659713958333725,
                    "durationTicks": 119,
                    "midi": 72,
                    "name": "C5",
                    "ticks": 15480,
                    "time": 26.87498925,
                    "velocity": 0.3858267716535433,
                },
                {
                    "duration": 0.2065971395833337,
                    "durationTicks": 119,
                    "midi": 86,
                    "name": "D6",
                    "ticks": 15600,
                    "time": 27.0833225,
                    "velocity": 0.3858267716535433,
                },
                {
                    "duration": 0.2065971395833337,
                    "durationTicks": 119,
                    "midi": 74,
                    "name": "D5",
                    "ticks": 15600,
                    "time": 27.0833225,
                    "velocity": 0.3858267716535433,
                },
                {
                    "duration": 0.4149303895833327,
                    "durationTicks": 239,
                    "midi": 88,
                    "name": "E6",
                    "ticks": 15720,
                    "time": 27.29165575,
                    "velocity": 0.3858267716535433,
                },
                {
                    "duration": 0.4149303895833327,
                    "durationTicks": 239,
                    "midi": 76,
                    "name": "E5",
                    "ticks": 15720,
                    "time": 27.29165575,
                    "velocity": 0.3858267716535433,
                },
                {
                    "duration": 0.20659713958333725,
                    "durationTicks": 119,
                    "midi": 84,
                    "name": "C6",
                    "ticks": 15960,
                    "time": 27.70832225,
                    "velocity": 0.3858267716535433,
                },
                {
                    "duration": 0.20659713958333725,
                    "durationTicks": 119,
                    "midi": 72,
                    "name": "C5",
                    "ticks": 15960,
                    "time": 27.70832225,
                    "velocity": 0.3858267716535433,
                },
                {
                    "duration": 0.2065971395833337,
                    "durationTicks": 119,
                    "midi": 86,
                    "name": "D6",
                    "ticks": 16080,
                    "time": 27.9166555,
                    "velocity": 0.3858267716535433,
                },
                {
                    "duration": 0.2065971395833337,
                    "durationTicks": 119,
                    "midi": 74,
                    "name": "D5",
                    "ticks": 16080,
                    "time": 27.9166555,
                    "velocity": 0.3858267716535433,
                },
                {
                    "duration": 0.2065971395833337,
                    "durationTicks": 119,
                    "midi": 84,
                    "name": "C6",
                    "ticks": 16200,
                    "time": 28.12498875,
                    "velocity": 0.3858267716535433,
                },
                {
                    "duration": 0.2065971395833337,
                    "durationTicks": 119,
                    "midi": 72,
                    "name": "C5",
                    "ticks": 16200,
                    "time": 28.12498875,
                    "velocity": 0.3858267716535433,
                },
                {
                    "duration": 0.20659713958333725,
                    "durationTicks": 119,
                    "midi": 88,
                    "name": "E6",
                    "ticks": 16320,
                    "time": 28.333322,
                    "velocity": 0.3858267716535433,
                },
                {
                    "duration": 0.20659713958333725,
                    "durationTicks": 119,
                    "midi": 76,
                    "name": "E5",
                    "ticks": 16320,
                    "time": 28.333322,
                    "velocity": 0.3858267716535433,
                },
                {
                    "duration": 0.20659713958333725,
                    "durationTicks": 119,
                    "midi": 84,
                    "name": "C6",
                    "ticks": 16440,
                    "time": 28.541655249999998,
                    "velocity": 0.3858267716535433,
                },
                {
                    "duration": 0.20659713958333725,
                    "durationTicks": 119,
                    "midi": 72,
                    "name": "C5",
                    "ticks": 16440,
                    "time": 28.541655249999998,
                    "velocity": 0.3858267716535433,
                },
                {
                    "duration": 0.2065971395833337,
                    "durationTicks": 119,
                    "midi": 86,
                    "name": "D6",
                    "ticks": 16560,
                    "time": 28.7499885,
                    "velocity": 0.3858267716535433,
                },
                {
                    "duration": 0.2065971395833337,
                    "durationTicks": 119,
                    "midi": 74,
                    "name": "D5",
                    "ticks": 16560,
                    "time": 28.7499885,
                    "velocity": 0.3858267716535433,
                },
                {
                    "duration": 0.4149303895833363,
                    "durationTicks": 239,
                    "midi": 88,
                    "name": "E6",
                    "ticks": 16680,
                    "time": 28.95832175,
                    "velocity": 0.3858267716535433,
                },
                {
                    "duration": 0.4149303895833363,
                    "durationTicks": 239,
                    "midi": 76,
                    "name": "E5",
                    "ticks": 16680,
                    "time": 28.95832175,
                    "velocity": 0.3858267716535433,
                },
                {
                    "duration": 0.2065971395833337,
                    "durationTicks": 119,
                    "midi": 84,
                    "name": "C6",
                    "ticks": 16920,
                    "time": 29.37498825,
                    "velocity": 0.3858267716535433,
                },
                {
                    "duration": 0.2065971395833337,
                    "durationTicks": 119,
                    "midi": 72,
                    "name": "C5",
                    "ticks": 16920,
                    "time": 29.37498825,
                    "velocity": 0.3858267716535433,
                },
                {
                    "duration": 0.2065971395833337,
                    "durationTicks": 119,
                    "midi": 86,
                    "name": "D6",
                    "ticks": 17040,
                    "time": 29.5833215,
                    "velocity": 0.3858267716535433,
                },
                {
                    "duration": 0.2065971395833337,
                    "durationTicks": 119,
                    "midi": 74,
                    "name": "D5",
                    "ticks": 17040,
                    "time": 29.5833215,
                    "velocity": 0.3858267716535433,
                },
                {
                    "duration": 0.2065971395833337,
                    "durationTicks": 119,
                    "midi": 84,
                    "name": "C6",
                    "ticks": 17160,
                    "time": 29.79165475,
                    "velocity": 0.3858267716535433,
                },
                {
                    "duration": 0.2065971395833337,
                    "durationTicks": 119,
                    "midi": 72,
                    "name": "C5",
                    "ticks": 17160,
                    "time": 29.79165475,
                    "velocity": 0.3858267716535433,
                },
                {
                    "duration": 0.20659713958333725,
                    "durationTicks": 119,
                    "midi": 88,
                    "name": "E6",
                    "ticks": 17280,
                    "time": 29.999988,
                    "velocity": 0.3858267716535433,
                },
                {
                    "duration": 0.20659713958333725,
                    "durationTicks": 119,
                    "midi": 76,
                    "name": "E5",
                    "ticks": 17280,
                    "time": 29.999988,
                    "velocity": 0.3858267716535433,
                },
                {
                    "duration": 0.2065971395833337,
                    "durationTicks": 119,
                    "midi": 84,
                    "name": "C6",
                    "ticks": 17400,
                    "time": 30.20832125,
                    "velocity": 0.3858267716535433,
                },
                {
                    "duration": 0.2065971395833337,
                    "durationTicks": 119,
                    "midi": 72,
                    "name": "C5",
                    "ticks": 17400,
                    "time": 30.20832125,
                    "velocity": 0.3858267716535433,
                },
                {
                    "duration": 0.2065971395833337,
                    "durationTicks": 119,
                    "midi": 86,
                    "name": "D6",
                    "ticks": 17520,
                    "time": 30.4166545,
                    "velocity": 0.3858267716535433,
                },
                {
                    "duration": 0.2065971395833337,
                    "durationTicks": 119,
                    "midi": 74,
                    "name": "D5",
                    "ticks": 17520,
                    "time": 30.4166545,
                    "velocity": 0.3858267716535433,
                },
                {
                    "duration": 0.4149303895833363,
                    "durationTicks": 239,
                    "midi": 88,
                    "name": "E6",
                    "ticks": 17640,
                    "time": 30.62498775,
                    "velocity": 0.3858267716535433,
                },
                {
                    "duration": 0.4149303895833363,
                    "durationTicks": 239,
                    "midi": 76,
                    "name": "E5",
                    "ticks": 17640,
                    "time": 30.62498775,
                    "velocity": 0.3858267716535433,
                },
                {
                    "duration": 0.2065971395833337,
                    "durationTicks": 119,
                    "midi": 83,
                    "name": "B5",
                    "ticks": 17880,
                    "time": 31.04165425,
                    "velocity": 0.3858267716535433,
                },
                {
                    "duration": 0.2065971395833337,
                    "durationTicks": 119,
                    "midi": 71,
                    "name": "B4",
                    "ticks": 17880,
                    "time": 31.04165425,
                    "velocity": 0.3858267716535433,
                },
                {
                    "duration": 0.4149303895833363,
                    "durationTicks": 239,
                    "midi": 86,
                    "name": "D6",
                    "ticks": 18000,
                    "time": 31.2499875,
                    "velocity": 0.3858267716535433,
                },
                {
                    "duration": 0.4149303895833363,
                    "durationTicks": 239,
                    "midi": 74,
                    "name": "D5",
                    "ticks": 18000,
                    "time": 31.2499875,
                    "velocity": 0.3858267716535433,
                },
                {
                    "duration": 1.248263389583336,
                    "durationTicks": 719,
                    "midi": 84,
                    "name": "C6",
                    "ticks": 18240,
                    "time": 31.666654,
                    "velocity": 0.3858267716535433,
                },
                {
                    "duration": 1.248263389583336,
                    "durationTicks": 719,
                    "midi": 76,
                    "name": "E5",
                    "ticks": 18240,
                    "time": 31.666654,
                    "velocity": 0.3858267716535433,
                },
                {
                    "duration": 1.248263389583336,
                    "durationTicks": 719,
                    "midi": 72,
                    "name": "C5",
                    "ticks": 18240,
                    "time": 31.666654,
                    "velocity": 0.3858267716535433,
                },
                {
                    "duration": 0.20659713958333015,
                    "durationTicks": 119,
                    "midi": 62,
                    "name": "D4",
                    "ticks": 18960,
                    "time": 32.9166535,
                    "velocity": 0.3858267716535433,
                },
                {
                    "duration": 0.20659713958333725,
                    "durationTicks": 119,
                    "midi": 63,
                    "name": "D#4",
                    "ticks": 19080,
                    "time": 33.12498675,
                    "velocity": 0.3858267716535433,
                },
                {
                    "duration": 0.20659713958333725,
                    "durationTicks": 119,
                    "midi": 64,
                    "name": "E4",
                    "ticks": 19200,
                    "time": 33.33332,
                    "velocity": 0.3858267716535433,
                },
                {
                    "duration": 0.4149303895833327,
                    "durationTicks": 239,
                    "midi": 72,
                    "name": "C5",
                    "ticks": 19320,
                    "time": 33.54165325,
                    "velocity": 0.3858267716535433,
                },
                {
                    "duration": 0.20659713958333015,
                    "durationTicks": 119,
                    "midi": 64,
                    "name": "E4",
                    "ticks": 19560,
                    "time": 33.95831975,
                    "velocity": 0.3858267716535433,
                },
                {
                    "duration": 0.41493038958333983,
                    "durationTicks": 239,
                    "midi": 72,
                    "name": "C5",
                    "ticks": 19680,
                    "time": 34.166653,
                    "velocity": 0.3858267716535433,
                },
                {
                    "duration": 0.20659713958333015,
                    "durationTicks": 119,
                    "midi": 64,
                    "name": "E4",
                    "ticks": 19920,
                    "time": 34.5833195,
                    "velocity": 0.3858267716535433,
                },
                {
                    "duration": 1.248263389583336,
                    "durationTicks": 719,
                    "midi": 72,
                    "name": "C5",
                    "ticks": 20040,
                    "time": 34.79165275,
                    "velocity": 0.3858267716535433,
                },
                {
                    "duration": 0.20659713958333725,
                    "durationTicks": 119,
                    "midi": 84,
                    "name": "C6",
                    "ticks": 20760,
                    "time": 36.04165225,
                    "velocity": 0.3858267716535433,
                },
                {
                    "duration": 0.20659713958333725,
                    "durationTicks": 119,
                    "midi": 76,
                    "name": "E5",
                    "ticks": 20760,
                    "time": 36.04165225,
                    "velocity": 0.3858267716535433,
                },
                {
                    "duration": 0.20659713958333725,
                    "durationTicks": 119,
                    "midi": 72,
                    "name": "C5",
                    "ticks": 20760,
                    "time": 36.04165225,
                    "velocity": 0.3858267716535433,
                },
                {
                    "duration": 0.20659713958333015,
                    "durationTicks": 119,
                    "midi": 86,
                    "name": "D6",
                    "ticks": 20880,
                    "time": 36.2499855,
                    "velocity": 0.3858267716535433,
                },
                {
                    "duration": 0.20659713958333015,
                    "durationTicks": 119,
                    "midi": 77,
                    "name": "F5",
                    "ticks": 20880,
                    "time": 36.2499855,
                    "velocity": 0.3858267716535433,
                },
                {
                    "duration": 0.20659713958333015,
                    "durationTicks": 119,
                    "midi": 74,
                    "name": "D5",
                    "ticks": 20880,
                    "time": 36.2499855,
                    "velocity": 0.3858267716535433,
                },
                {
                    "duration": 0.20659713958333725,
                    "durationTicks": 119,
                    "midi": 87,
                    "name": "D#6",
                    "ticks": 21000,
                    "time": 36.45831875,
                    "velocity": 0.3858267716535433,
                },
                {
                    "duration": 0.20659713958333725,
                    "durationTicks": 119,
                    "midi": 78,
                    "name": "F#5",
                    "ticks": 21000,
                    "time": 36.45831875,
                    "velocity": 0.3858267716535433,
                },
                {
                    "duration": 0.20659713958333725,
                    "durationTicks": 119,
                    "midi": 75,
                    "name": "D#5",
                    "ticks": 21000,
                    "time": 36.45831875,
                    "velocity": 0.3858267716535433,
                },
                {
                    "duration": 0.20659713958333725,
                    "durationTicks": 119,
                    "midi": 88,
                    "name": "E6",
                    "ticks": 21120,
                    "time": 36.666652,
                    "velocity": 0.3858267716535433,
                },
                {
                    "duration": 0.20659713958333725,
                    "durationTicks": 119,
                    "midi": 79,
                    "name": "G5",
                    "ticks": 21120,
                    "time": 36.666652,
                    "velocity": 0.3858267716535433,
                },
                {
                    "duration": 0.20659713958333725,
                    "durationTicks": 119,
                    "midi": 76,
                    "name": "E5",
                    "ticks": 21120,
                    "time": 36.666652,
                    "velocity": 0.3858267716535433,
                },
                {
                    "duration": 0.20659713958333015,
                    "durationTicks": 119,
                    "midi": 84,
                    "name": "C6",
                    "ticks": 21240,
                    "time": 36.87498525,
                    "velocity": 0.3858267716535433,
                },
                {
                    "duration": 0.20659713958333015,
                    "durationTicks": 119,
                    "midi": 76,
                    "name": "E5",
                    "ticks": 21240,
                    "time": 36.87498525,
                    "velocity": 0.3858267716535433,
                },
                {
                    "duration": 0.20659713958333015,
                    "durationTicks": 119,
                    "midi": 72,
                    "name": "C5",
                    "ticks": 21240,
                    "time": 36.87498525,
                    "velocity": 0.3858267716535433,
                },
                {
                    "duration": 0.20659713958333725,
                    "durationTicks": 119,
                    "midi": 77,
                    "name": "F5",
                    "ticks": 21360,
                    "time": 37.0833185,
                    "velocity": 0.3858267716535433,
                },
                {
                    "duration": 0.20659713958333725,
                    "durationTicks": 119,
                    "midi": 74,
                    "name": "D5",
                    "ticks": 21360,
                    "time": 37.0833185,
                    "velocity": 0.3858267716535433,
                },
                {
                    "duration": 0.4149303895833327,
                    "durationTicks": 239,
                    "midi": 79,
                    "name": "G5",
                    "ticks": 21480,
                    "time": 37.29165175,
                    "velocity": 0.3858267716535433,
                },
                {
                    "duration": 0.4149303895833327,
                    "durationTicks": 239,
                    "midi": 76,
                    "name": "E5",
                    "ticks": 21480,
                    "time": 37.29165175,
                    "velocity": 0.3858267716535433,
                },
                {
                    "duration": 0.20659713958333725,
                    "durationTicks": 119,
                    "midi": 74,
                    "name": "D5",
                    "ticks": 21720,
                    "time": 37.70831825,
                    "velocity": 0.3858267716535433,
                },
                {
                    "duration": 0.20659713958333725,
                    "durationTicks": 119,
                    "midi": 71,
                    "name": "B4",
                    "ticks": 21720,
                    "time": 37.70831825,
                    "velocity": 0.3858267716535433,
                },
                {
                    "duration": 0.4149303895833327,
                    "durationTicks": 239,
                    "midi": 77,
                    "name": "F5",
                    "ticks": 21840,
                    "time": 37.9166515,
                    "velocity": 0.3858267716535433,
                },
                {
                    "duration": 0.4149303895833327,
                    "durationTicks": 239,
                    "midi": 74,
                    "name": "D5",
                    "ticks": 21840,
                    "time": 37.9166515,
                    "velocity": 0.3858267716535433,
                },
                {
                    "duration": 1.248263389583336,
                    "durationTicks": 719,
                    "midi": 84,
                    "name": "C6",
                    "ticks": 22080,
                    "time": 38.333318,
                    "velocity": 0.3858267716535433,
                },
                {
                    "duration": 1.248263389583336,
                    "durationTicks": 719,
                    "midi": 76,
                    "name": "E5",
                    "ticks": 22080,
                    "time": 38.333318,
                    "velocity": 0.3858267716535433,
                },
                {
                    "duration": 1.248263389583336,
                    "durationTicks": 719,
                    "midi": 72,
                    "name": "C5",
                    "ticks": 22080,
                    "time": 38.333318,
                    "velocity": 0.3858267716535433,
                },
                {
                    "duration": 0.20659713958333725,
                    "durationTicks": 119,
                    "midi": 62,
                    "name": "D4",
                    "ticks": 22800,
                    "time": 39.5833175,
                    "velocity": 0.3858267716535433,
                },
                {
                    "duration": 0.20659713958333015,
                    "durationTicks": 119,
                    "midi": 63,
                    "name": "D#4",
                    "ticks": 22920,
                    "time": 39.79165075,
                    "velocity": 0.3858267716535433,
                },
                {
                    "duration": 0.20659713958333725,
                    "durationTicks": 119,
                    "midi": 64,
                    "name": "E4",
                    "ticks": 23040,
                    "time": 39.999984,
                    "velocity": 0.3858267716535433,
                },
                {
                    "duration": 0.4149303895833327,
                    "durationTicks": 239,
                    "midi": 72,
                    "name": "C5",
                    "ticks": 23160,
                    "time": 40.20831725,
                    "velocity": 0.3858267716535433,
                },
                {
                    "duration": 0.20659713958333725,
                    "durationTicks": 119,
                    "midi": 64,
                    "name": "E4",
                    "ticks": 23400,
                    "time": 40.62498375,
                    "velocity": 0.3858267716535433,
                },
                {
                    "duration": 0.4149303895833327,
                    "durationTicks": 239,
                    "midi": 72,
                    "name": "C5",
                    "ticks": 23520,
                    "time": 40.833317,
                    "velocity": 0.3858267716535433,
                },
                {
                    "duration": 0.20659713958333725,
                    "durationTicks": 119,
                    "midi": 64,
                    "name": "E4",
                    "ticks": 23760,
                    "time": 41.2499835,
                    "velocity": 0.3858267716535433,
                },
                {
                    "duration": 1.4565966395833314,
                    "durationTicks": 839,
                    "midi": 72,
                    "name": "C5",
                    "ticks": 23880,
                    "time": 41.45831675,
                    "velocity": 0.3858267716535433,
                },
                {
                    "duration": 0.20659713958333725,
                    "durationTicks": 119,
                    "midi": 81,
                    "name": "A5",
                    "ticks": 24720,
                    "time": 42.9166495,
                    "velocity": 0.3858267716535433,
                },
                {
                    "duration": 0.20659713958333725,
                    "durationTicks": 119,
                    "midi": 72,
                    "name": "C5",
                    "ticks": 24720,
                    "time": 42.9166495,
                    "velocity": 0.3858267716535433,
                },
                {
                    "duration": 0.20659713958333725,
                    "durationTicks": 119,
                    "midi": 69,
                    "name": "A4",
                    "ticks": 24720,
                    "time": 42.9166495,
                    "velocity": 0.3858267716535433,
                },
                {
                    "duration": 0.20659713958333015,
                    "durationTicks": 119,
                    "midi": 79,
                    "name": "G5",
                    "ticks": 24840,
                    "time": 43.12498275,
                    "velocity": 0.3858267716535433,
                },
                {
                    "duration": 0.20659713958333015,
                    "durationTicks": 119,
                    "midi": 72,
                    "name": "C5",
                    "ticks": 24840,
                    "time": 43.12498275,
                    "velocity": 0.3858267716535433,
                },
                {
                    "duration": 0.20659713958333015,
                    "durationTicks": 119,
                    "midi": 67,
                    "name": "G4",
                    "ticks": 24840,
                    "time": 43.12498275,
                    "velocity": 0.3858267716535433,
                },
                {
                    "duration": 0.20659713958333725,
                    "durationTicks": 119,
                    "midi": 78,
                    "name": "F#5",
                    "ticks": 24960,
                    "time": 43.333315999999996,
                    "velocity": 0.3858267716535433,
                },
                {
                    "duration": 0.20659713958333725,
                    "durationTicks": 119,
                    "midi": 72,
                    "name": "C5",
                    "ticks": 24960,
                    "time": 43.333315999999996,
                    "velocity": 0.3858267716535433,
                },
                {
                    "duration": 0.20659713958333725,
                    "durationTicks": 119,
                    "midi": 66,
                    "name": "F#4",
                    "ticks": 24960,
                    "time": 43.333315999999996,
                    "velocity": 0.3858267716535433,
                },
                {
                    "duration": 0.20659713958333725,
                    "durationTicks": 119,
                    "midi": 81,
                    "name": "A5",
                    "ticks": 25080,
                    "time": 43.54164925,
                    "velocity": 0.3858267716535433,
                },
                {
                    "duration": 0.20659713958333725,
                    "durationTicks": 119,
                    "midi": 69,
                    "name": "A4",
                    "ticks": 25080,
                    "time": 43.54164925,
                    "velocity": 0.3858267716535433,
                },
                {
                    "duration": 0.20659713958333015,
                    "durationTicks": 119,
                    "midi": 84,
                    "name": "C6",
                    "ticks": 25200,
                    "time": 43.7499825,
                    "velocity": 0.3858267716535433,
                },
                {
                    "duration": 0.20659713958333015,
                    "durationTicks": 119,
                    "midi": 72,
                    "name": "C5",
                    "ticks": 25200,
                    "time": 43.7499825,
                    "velocity": 0.3858267716535433,
                },
                {
                    "duration": 0.41493038958333983,
                    "durationTicks": 239,
                    "midi": 88,
                    "name": "E6",
                    "ticks": 25320,
                    "time": 43.95831575,
                    "velocity": 0.3858267716535433,
                },
                {
                    "duration": 0.41493038958333983,
                    "durationTicks": 239,
                    "midi": 76,
                    "name": "E5",
                    "ticks": 25320,
                    "time": 43.95831575,
                    "velocity": 0.3858267716535433,
                },
                {
                    "duration": 0.20659713958333015,
                    "durationTicks": 119,
                    "midi": 86,
                    "name": "D6",
                    "ticks": 25560,
                    "time": 44.37498225,
                    "velocity": 0.3858267716535433,
                },
                {
                    "duration": 0.20659713958333015,
                    "durationTicks": 119,
                    "midi": 74,
                    "name": "D5",
                    "ticks": 25560,
                    "time": 44.37498225,
                    "velocity": 0.3858267716535433,
                },
                {
                    "duration": 0.20659713958333725,
                    "durationTicks": 119,
                    "midi": 84,
                    "name": "C6",
                    "ticks": 25680,
                    "time": 44.5833155,
                    "velocity": 0.3858267716535433,
                },
                {
                    "duration": 0.20659713958333725,
                    "durationTicks": 119,
                    "midi": 72,
                    "name": "C5",
                    "ticks": 25680,
                    "time": 44.5833155,
                    "velocity": 0.3858267716535433,
                },
                {
                    "duration": 0.20659713958333725,
                    "durationTicks": 119,
                    "midi": 81,
                    "name": "A5",
                    "ticks": 25800,
                    "time": 44.79164875,
                    "velocity": 0.3858267716535433,
                },
                {
                    "duration": 0.20659713958333725,
                    "durationTicks": 119,
                    "midi": 69,
                    "name": "A4",
                    "ticks": 25800,
                    "time": 44.79164875,
                    "velocity": 0.3858267716535433,
                },
                {
                    "duration": 1.2482633895833288,
                    "durationTicks": 719,
                    "midi": 86,
                    "name": "D6",
                    "ticks": 25920,
                    "time": 44.999982,
                    "velocity": 0.3858267716535433,
                },
                {
                    "duration": 1.2482633895833288,
                    "durationTicks": 719,
                    "midi": 77,
                    "name": "F5",
                    "ticks": 25920,
                    "time": 44.999982,
                    "velocity": 0.3858267716535433,
                },
                {
                    "duration": 1.2482633895833288,
                    "durationTicks": 719,
                    "midi": 74,
                    "name": "D5",
                    "ticks": 25920,
                    "time": 44.999982,
                    "velocity": 0.3858267716535433,
                },
                {
                    "duration": 0.20659713958333725,
                    "durationTicks": 119,
                    "midi": 62,
                    "name": "D4",
                    "ticks": 26640,
                    "time": 46.2499815,
                    "velocity": 0.3858267716535433,
                },
                {
                    "duration": 0.20659713958333725,
                    "durationTicks": 119,
                    "midi": 63,
                    "name": "D#4",
                    "ticks": 26760,
                    "time": 46.45831475,
                    "velocity": 0.3858267716535433,
                },
                {
                    "duration": 0.20659713958333015,
                    "durationTicks": 119,
                    "midi": 64,
                    "name": "E4",
                    "ticks": 26880,
                    "time": 46.666648,
                    "velocity": 0.3858267716535433,
                },
                {
                    "duration": 0.41493038958333983,
                    "durationTicks": 239,
                    "midi": 72,
                    "name": "C5",
                    "ticks": 27000,
                    "time": 46.87498125,
                    "velocity": 0.3858267716535433,
                },
                {
                    "duration": 0.20659713958333015,
                    "durationTicks": 119,
                    "midi": 64,
                    "name": "E4",
                    "ticks": 27240,
                    "time": 47.29164775,
                    "velocity": 0.3858267716535433,
                },
                {
                    "duration": 0.4149303895833327,
                    "durationTicks": 239,
                    "midi": 72,
                    "name": "C5",
                    "ticks": 27360,
                    "time": 47.499981,
                    "velocity": 0.3858267716535433,
                },
                {
                    "duration": 0.20659713958333725,
                    "durationTicks": 119,
                    "midi": 64,
                    "name": "E4",
                    "ticks": 27600,
                    "time": 47.916647499999996,
                    "velocity": 0.3858267716535433,
                },
                {
                    "duration": 1.248263389583336,
                    "durationTicks": 719,
                    "midi": 72,
                    "name": "C5",
                    "ticks": 27720,
                    "time": 48.12498075,
                    "velocity": 0.3858267716535433,
                },
                {
                    "duration": 0.20659713958333725,
                    "durationTicks": 119,
                    "midi": 84,
                    "name": "C6",
                    "ticks": 28440,
                    "time": 49.37498025,
                    "velocity": 0.3858267716535433,
                },
                {
                    "duration": 0.20659713958333725,
                    "durationTicks": 119,
                    "midi": 76,
                    "name": "E5",
                    "ticks": 28440,
                    "time": 49.37498025,
                    "velocity": 0.3858267716535433,
                },
                {
                    "duration": 0.20659713958333725,
                    "durationTicks": 119,
                    "midi": 72,
                    "name": "C5",
                    "ticks": 28440,
                    "time": 49.37498025,
                    "velocity": 0.3858267716535433,
                },
                {
                    "duration": 0.20659713958333015,
                    "durationTicks": 119,
                    "midi": 86,
                    "name": "D6",
                    "ticks": 28560,
                    "time": 49.5833135,
                    "velocity": 0.3858267716535433,
                },
                {
                    "duration": 0.20659713958333015,
                    "durationTicks": 119,
                    "midi": 77,
                    "name": "F5",
                    "ticks": 28560,
                    "time": 49.5833135,
                    "velocity": 0.3858267716535433,
                },
                {
                    "duration": 0.20659713958333015,
                    "durationTicks": 119,
                    "midi": 74,
                    "name": "D5",
                    "ticks": 28560,
                    "time": 49.5833135,
                    "velocity": 0.3858267716535433,
                },
                {
                    "duration": 0.20659713958333725,
                    "durationTicks": 119,
                    "midi": 87,
                    "name": "D#6",
                    "ticks": 28680,
                    "time": 49.79164675,
                    "velocity": 0.3858267716535433,
                },
                {
                    "duration": 0.20659713958333725,
                    "durationTicks": 119,
                    "midi": 78,
                    "name": "F#5",
                    "ticks": 28680,
                    "time": 49.79164675,
                    "velocity": 0.3858267716535433,
                },
                {
                    "duration": 0.20659713958333725,
                    "durationTicks": 119,
                    "midi": 75,
                    "name": "D#5",
                    "ticks": 28680,
                    "time": 49.79164675,
                    "velocity": 0.3858267716535433,
                },
                {
                    "duration": 0.20659713958333015,
                    "durationTicks": 119,
                    "midi": 88,
                    "name": "E6",
                    "ticks": 28800,
                    "time": 49.99998,
                    "velocity": 0.3858267716535433,
                },
                {
                    "duration": 0.20659713958333015,
                    "durationTicks": 119,
                    "midi": 79,
                    "name": "G5",
                    "ticks": 28800,
                    "time": 49.99998,
                    "velocity": 0.3858267716535433,
                },
                {
                    "duration": 0.20659713958333015,
                    "durationTicks": 119,
                    "midi": 76,
                    "name": "E5",
                    "ticks": 28800,
                    "time": 49.99998,
                    "velocity": 0.3858267716535433,
                },
                {
                    "duration": 0.20659713958333725,
                    "durationTicks": 119,
                    "midi": 84,
                    "name": "C6",
                    "ticks": 28920,
                    "time": 50.208313249999996,
                    "velocity": 0.3858267716535433,
                },
                {
                    "duration": 0.20659713958333725,
                    "durationTicks": 119,
                    "midi": 76,
                    "name": "E5",
                    "ticks": 28920,
                    "time": 50.208313249999996,
                    "velocity": 0.3858267716535433,
                },
                {
                    "duration": 0.20659713958333725,
                    "durationTicks": 119,
                    "midi": 72,
                    "name": "C5",
                    "ticks": 28920,
                    "time": 50.208313249999996,
                    "velocity": 0.3858267716535433,
                },
                {
                    "duration": 0.20659713958333725,
                    "durationTicks": 119,
                    "midi": 77,
                    "name": "F5",
                    "ticks": 29040,
                    "time": 50.4166465,
                    "velocity": 0.3858267716535433,
                },
                {
                    "duration": 0.20659713958333725,
                    "durationTicks": 119,
                    "midi": 74,
                    "name": "D5",
                    "ticks": 29040,
                    "time": 50.4166465,
                    "velocity": 0.3858267716535433,
                },
                {
                    "duration": 0.4149303895833327,
                    "durationTicks": 239,
                    "midi": 79,
                    "name": "G5",
                    "ticks": 29160,
                    "time": 50.62497975,
                    "velocity": 0.3858267716535433,
                },
                {
                    "duration": 0.4149303895833327,
                    "durationTicks": 239,
                    "midi": 76,
                    "name": "E5",
                    "ticks": 29160,
                    "time": 50.62497975,
                    "velocity": 0.3858267716535433,
                },
                {
                    "duration": 0.20659713958333725,
                    "durationTicks": 119,
                    "midi": 74,
                    "name": "D5",
                    "ticks": 29400,
                    "time": 51.04164625,
                    "velocity": 0.3858267716535433,
                },
                {
                    "duration": 0.20659713958333725,
                    "durationTicks": 119,
                    "midi": 71,
                    "name": "B4",
                    "ticks": 29400,
                    "time": 51.04164625,
                    "velocity": 0.3858267716535433,
                },
                {
                    "duration": 0.4149303895833327,
                    "durationTicks": 239,
                    "midi": 77,
                    "name": "F5",
                    "ticks": 29520,
                    "time": 51.2499795,
                    "velocity": 0.3858267716535433,
                },
                {
                    "duration": 0.4149303895833327,
                    "durationTicks": 239,
                    "midi": 74,
                    "name": "D5",
                    "ticks": 29520,
                    "time": 51.2499795,
                    "velocity": 0.3858267716535433,
                },
                {
                    "duration": 1.248263389583336,
                    "durationTicks": 719,
                    "midi": 84,
                    "name": "C6",
                    "ticks": 29760,
                    "time": 51.666646,
                    "velocity": 0.3858267716535433,
                },
                {
                    "duration": 1.248263389583336,
                    "durationTicks": 719,
                    "midi": 76,
                    "name": "E5",
                    "ticks": 29760,
                    "time": 51.666646,
                    "velocity": 0.3858267716535433,
                },
                {
                    "duration": 1.248263389583336,
                    "durationTicks": 719,
                    "midi": 72,
                    "name": "C5",
                    "ticks": 29760,
                    "time": 51.666646,
                    "velocity": 0.3858267716535433,
                },
                {
                    "duration": 0.20659713958333015,
                    "durationTicks": 119,
                    "midi": 84,
                    "name": "C6",
                    "ticks": 30480,
                    "time": 52.9166455,
                    "velocity": 0.3858267716535433,
                },
                {
                    "duration": 0.20659713958333015,
                    "durationTicks": 119,
                    "midi": 72,
                    "name": "C5",
                    "ticks": 30480,
                    "time": 52.9166455,
                    "velocity": 0.3858267716535433,
                },
                {
                    "duration": 0.20659713958333725,
                    "durationTicks": 119,
                    "midi": 86,
                    "name": "D6",
                    "ticks": 30600,
                    "time": 53.12497875,
                    "velocity": 0.3858267716535433,
                },
                {
                    "duration": 0.20659713958333725,
                    "durationTicks": 119,
                    "midi": 74,
                    "name": "D5",
                    "ticks": 30600,
                    "time": 53.12497875,
                    "velocity": 0.3858267716535433,
                },
                {
                    "duration": 0.20659713958333725,
                    "durationTicks": 119,
                    "midi": 88,
                    "name": "E6",
                    "ticks": 30720,
                    "time": 53.333312,
                    "velocity": 0.3858267716535433,
                },
                {
                    "duration": 0.20659713958333725,
                    "durationTicks": 119,
                    "midi": 76,
                    "name": "E5",
                    "ticks": 30720,
                    "time": 53.333312,
                    "velocity": 0.3858267716535433,
                },
                {
                    "duration": 0.20659713958333015,
                    "durationTicks": 119,
                    "midi": 84,
                    "name": "C6",
                    "ticks": 30840,
                    "time": 53.54164525,
                    "velocity": 0.3858267716535433,
                },
                {
                    "duration": 0.20659713958333015,
                    "durationTicks": 119,
                    "midi": 72,
                    "name": "C5",
                    "ticks": 30840,
                    "time": 53.54164525,
                    "velocity": 0.3858267716535433,
                },
                {
                    "duration": 0.20659713958333725,
                    "durationTicks": 119,
                    "midi": 86,
                    "name": "D6",
                    "ticks": 30960,
                    "time": 53.7499785,
                    "velocity": 0.3858267716535433,
                },
                {
                    "duration": 0.20659713958333725,
                    "durationTicks": 119,
                    "midi": 74,
                    "name": "D5",
                    "ticks": 30960,
                    "time": 53.7499785,
                    "velocity": 0.3858267716535433,
                },
                {
                    "duration": 0.4149303895833327,
                    "durationTicks": 239,
                    "midi": 88,
                    "name": "E6",
                    "ticks": 31080,
                    "time": 53.95831175,
                    "velocity": 0.3858267716535433,
                },
                {
                    "duration": 0.4149303895833327,
                    "durationTicks": 239,
                    "midi": 76,
                    "name": "E5",
                    "ticks": 31080,
                    "time": 53.95831175,
                    "velocity": 0.3858267716535433,
                },
                {
                    "duration": 0.20659713958333725,
                    "durationTicks": 119,
                    "midi": 84,
                    "name": "C6",
                    "ticks": 31320,
                    "time": 54.37497825,
                    "velocity": 0.3858267716535433,
                },
                {
                    "duration": 0.20659713958333725,
                    "durationTicks": 119,
                    "midi": 72,
                    "name": "C5",
                    "ticks": 31320,
                    "time": 54.37497825,
                    "velocity": 0.3858267716535433,
                },
                {
                    "duration": 0.20659713958333015,
                    "durationTicks": 119,
                    "midi": 86,
                    "name": "D6",
                    "ticks": 31440,
                    "time": 54.5833115,
                    "velocity": 0.3858267716535433,
                },
                {
                    "duration": 0.20659713958333015,
                    "durationTicks": 119,
                    "midi": 74,
                    "name": "D5",
                    "ticks": 31440,
                    "time": 54.5833115,
                    "velocity": 0.3858267716535433,
                },
                {
                    "duration": 0.20659713958333725,
                    "durationTicks": 119,
                    "midi": 84,
                    "name": "C6",
                    "ticks": 31560,
                    "time": 54.791644749999996,
                    "velocity": 0.3858267716535433,
                },
                {
                    "duration": 0.20659713958333725,
                    "durationTicks": 119,
                    "midi": 72,
                    "name": "C5",
                    "ticks": 31560,
                    "time": 54.791644749999996,
                    "velocity": 0.3858267716535433,
                },
                {
                    "duration": 0.20659713958333725,
                    "durationTicks": 119,
                    "midi": 88,
                    "name": "E6",
                    "ticks": 31680,
                    "time": 54.999978,
                    "velocity": 0.3858267716535433,
                },
                {
                    "duration": 0.20659713958333725,
                    "durationTicks": 119,
                    "midi": 76,
                    "name": "E5",
                    "ticks": 31680,
                    "time": 54.999978,
                    "velocity": 0.3858267716535433,
                },
                {
                    "duration": 0.20659713958333015,
                    "durationTicks": 119,
                    "midi": 84,
                    "name": "C6",
                    "ticks": 31800,
                    "time": 55.20831125,
                    "velocity": 0.3858267716535433,
                },
                {
                    "duration": 0.20659713958333015,
                    "durationTicks": 119,
                    "midi": 72,
                    "name": "C5",
                    "ticks": 31800,
                    "time": 55.20831125,
                    "velocity": 0.3858267716535433,
                },
                {
                    "duration": 0.20659713958333725,
                    "durationTicks": 119,
                    "midi": 86,
                    "name": "D6",
                    "ticks": 31920,
                    "time": 55.4166445,
                    "velocity": 0.3858267716535433,
                },
                {
                    "duration": 0.20659713958333725,
                    "durationTicks": 119,
                    "midi": 74,
                    "name": "D5",
                    "ticks": 31920,
                    "time": 55.4166445,
                    "velocity": 0.3858267716535433,
                },
                {
                    "duration": 0.4149303895833327,
                    "durationTicks": 239,
                    "midi": 88,
                    "name": "E6",
                    "ticks": 32040,
                    "time": 55.62497775,
                    "velocity": 0.3858267716535433,
                },
                {
                    "duration": 0.4149303895833327,
                    "durationTicks": 239,
                    "midi": 76,
                    "name": "E5",
                    "ticks": 32040,
                    "time": 55.62497775,
                    "velocity": 0.3858267716535433,
                },
                {
                    "duration": 0.20659713958333725,
                    "durationTicks": 119,
                    "midi": 84,
                    "name": "C6",
                    "ticks": 32280,
                    "time": 56.04164425,
                    "velocity": 0.3858267716535433,
                },
                {
                    "duration": 0.20659713958333725,
                    "durationTicks": 119,
                    "midi": 72,
                    "name": "C5",
                    "ticks": 32280,
                    "time": 56.04164425,
                    "velocity": 0.3858267716535433,
                },
                {
                    "duration": 0.20659713958333725,
                    "durationTicks": 119,
                    "midi": 86,
                    "name": "D6",
                    "ticks": 32400,
                    "time": 56.2499775,
                    "velocity": 0.3858267716535433,
                },
                {
                    "duration": 0.20659713958333725,
                    "durationTicks": 119,
                    "midi": 74,
                    "name": "D5",
                    "ticks": 32400,
                    "time": 56.2499775,
                    "velocity": 0.3858267716535433,
                },
                {
                    "duration": 0.20659713958333015,
                    "durationTicks": 119,
                    "midi": 84,
                    "name": "C6",
                    "ticks": 32520,
                    "time": 56.45831075,
                    "velocity": 0.3858267716535433,
                },
                {
                    "duration": 0.20659713958333015,
                    "durationTicks": 119,
                    "midi": 72,
                    "name": "C5",
                    "ticks": 32520,
                    "time": 56.45831075,
                    "velocity": 0.3858267716535433,
                },
                {
                    "duration": 0.20659713958333725,
                    "durationTicks": 119,
                    "midi": 88,
                    "name": "E6",
                    "ticks": 32640,
                    "time": 56.666644,
                    "velocity": 0.3858267716535433,
                },
                {
                    "duration": 0.20659713958333725,
                    "durationTicks": 119,
                    "midi": 76,
                    "name": "E5",
                    "ticks": 32640,
                    "time": 56.666644,
                    "velocity": 0.3858267716535433,
                },
                {
                    "duration": 0.20659713958333015,
                    "durationTicks": 119,
                    "midi": 84,
                    "name": "C6",
                    "ticks": 32760,
                    "time": 56.87497725,
                    "velocity": 0.3858267716535433,
                },
                {
                    "duration": 0.20659713958333015,
                    "durationTicks": 119,
                    "midi": 72,
                    "name": "C5",
                    "ticks": 32760,
                    "time": 56.87497725,
                    "velocity": 0.3858267716535433,
                },
                {
                    "duration": 0.20659713958333725,
                    "durationTicks": 119,
                    "midi": 86,
                    "name": "D6",
                    "ticks": 32880,
                    "time": 57.083310499999996,
                    "velocity": 0.3858267716535433,
                },
                {
                    "duration": 0.20659713958333725,
                    "durationTicks": 119,
                    "midi": 74,
                    "name": "D5",
                    "ticks": 32880,
                    "time": 57.083310499999996,
                    "velocity": 0.3858267716535433,
                },
                {
                    "duration": 0.4149303895833327,
                    "durationTicks": 239,
                    "midi": 88,
                    "name": "E6",
                    "ticks": 33000,
                    "time": 57.29164375,
                    "velocity": 0.3858267716535433,
                },
                {
                    "duration": 0.4149303895833327,
                    "durationTicks": 239,
                    "midi": 76,
                    "name": "E5",
                    "ticks": 33000,
                    "time": 57.29164375,
                    "velocity": 0.3858267716535433,
                },
                {
                    "duration": 0.20659713958333725,
                    "durationTicks": 119,
                    "midi": 83,
                    "name": "B5",
                    "ticks": 33240,
                    "time": 57.70831025,
                    "velocity": 0.3858267716535433,
                },
                {
                    "duration": 0.20659713958333725,
                    "durationTicks": 119,
                    "midi": 71,
                    "name": "B4",
                    "ticks": 33240,
                    "time": 57.70831025,
                    "velocity": 0.3858267716535433,
                },
                {
                    "duration": 0.4149303895833327,
                    "durationTicks": 239,
                    "midi": 86,
                    "name": "D6",
                    "ticks": 33360,
                    "time": 57.9166435,
                    "velocity": 0.3858267716535433,
                },
                {
                    "duration": 0.4149303895833327,
                    "durationTicks": 239,
                    "midi": 74,
                    "name": "D5",
                    "ticks": 33360,
                    "time": 57.9166435,
                    "velocity": 0.3858267716535433,
                },
                {
                    "duration": 1.248263389583336,
                    "durationTicks": 719,
                    "midi": 84,
                    "name": "C6",
                    "ticks": 33600,
                    "time": 58.33331,
                    "velocity": 0.3858267716535433,
                },
                {
                    "duration": 1.248263389583336,
                    "durationTicks": 719,
                    "midi": 76,
                    "name": "E5",
                    "ticks": 33600,
                    "time": 58.33331,
                    "velocity": 0.3858267716535433,
                },
                {
                    "duration": 1.248263389583336,
                    "durationTicks": 719,
                    "midi": 72,
                    "name": "C5",
                    "ticks": 33600,
                    "time": 58.33331,
                    "velocity": 0.3858267716535433,
                },
                {
                    "duration": 0.20659713958333725,
                    "durationTicks": 119,
                    "midi": 62,
                    "name": "D4",
                    "ticks": 34320,
                    "time": 59.5833095,
                    "velocity": 0.3858267716535433,
                },
                {
                    "duration": 0.20659713958333015,
                    "durationTicks": 119,
                    "midi": 63,
                    "name": "D#4",
                    "ticks": 34440,
                    "time": 59.79164275,
                    "velocity": 0.3858267716535433,
                },
                {
                    "duration": 1.0399301395833405,
                    "durationTicks": 599,
                    "midi": 84,
                    "name": "C6",
                    "ticks": 34560,
                    "time": 59.999976,
                    "velocity": 0.3858267716535433,
                },
                {
                    "duration": 1.0399301395833405,
                    "durationTicks": 599,
                    "midi": 76,
                    "name": "E5",
                    "ticks": 34560,
                    "time": 59.999976,
                    "velocity": 0.3858267716535433,
                },
                {
                    "duration": 1.0399301395833405,
                    "durationTicks": 599,
                    "midi": 72,
                    "name": "C5",
                    "ticks": 34560,
                    "time": 59.999976,
                    "velocity": 0.3858267716535433,
                },
                {
                    "duration": 0.20659713958333015,
                    "durationTicks": 119,
                    "midi": 76,
                    "name": "E5",
                    "ticks": 35160,
                    "time": 61.04164225,
                    "velocity": 0.3858267716535433,
                },
                {
                    "duration": 0.20659713958333015,
                    "durationTicks": 119,
                    "midi": 72,
                    "name": "C5",
                    "ticks": 35160,
                    "time": 61.04164225,
                    "velocity": 0.3858267716535433,
                },
                {
                    "duration": 0.20659713958333015,
                    "durationTicks": 119,
                    "midi": 64,
                    "name": "E4",
                    "ticks": 35160,
                    "time": 61.04164225,
                    "velocity": 0.3858267716535433,
                },
                {
                    "duration": 0.20659713958333725,
                    "durationTicks": 119,
                    "midi": 77,
                    "name": "F5",
                    "ticks": 35280,
                    "time": 61.2499755,
                    "velocity": 0.3858267716535433,
                },
                {
                    "duration": 0.20659713958333725,
                    "durationTicks": 119,
                    "midi": 74,
                    "name": "D5",
                    "ticks": 35280,
                    "time": 61.2499755,
                    "velocity": 0.3858267716535433,
                },
                {
                    "duration": 0.20659713958333725,
                    "durationTicks": 119,
                    "midi": 65,
                    "name": "F4",
                    "ticks": 35280,
                    "time": 61.2499755,
                    "velocity": 0.3858267716535433,
                },
                {
                    "duration": 0.20659713958333725,
                    "durationTicks": 119,
                    "midi": 78,
                    "name": "F#5",
                    "ticks": 35400,
                    "time": 61.45830875,
                    "velocity": 0.3858267716535433,
                },
                {
                    "duration": 0.20659713958333725,
                    "durationTicks": 119,
                    "midi": 75,
                    "name": "D#5",
                    "ticks": 35400,
                    "time": 61.45830875,
                    "velocity": 0.3858267716535433,
                },
                {
                    "duration": 0.20659713958333725,
                    "durationTicks": 119,
                    "midi": 66,
                    "name": "F#4",
                    "ticks": 35400,
                    "time": 61.45830875,
                    "velocity": 0.3858267716535433,
                },
                {
                    "duration": 0.41493038958333983,
                    "durationTicks": 239,
                    "midi": 79,
                    "name": "G5",
                    "ticks": 35520,
                    "time": 61.666641999999996,
                    "velocity": 0.7559055118110236,
                },
                {
                    "duration": 0.41493038958333983,
                    "durationTicks": 239,
                    "midi": 76,
                    "name": "E5",
                    "ticks": 35520,
                    "time": 61.666641999999996,
                    "velocity": 0.7559055118110236,
                },
                {
                    "duration": 0.41493038958333983,
                    "durationTicks": 239,
                    "midi": 67,
                    "name": "G4",
                    "ticks": 35520,
                    "time": 61.666641999999996,
                    "velocity": 0.7559055118110236,
                },
                {
                    "duration": 0.20659713958333015,
                    "durationTicks": 119,
                    "midi": 81,
                    "name": "A5",
                    "ticks": 35760,
                    "time": 62.0833085,
                    "velocity": 0.7559055118110236,
                },
                {
                    "duration": 0.20659713958333015,
                    "durationTicks": 119,
                    "midi": 76,
                    "name": "E5",
                    "ticks": 35760,
                    "time": 62.0833085,
                    "velocity": 0.7559055118110236,
                },
                {
                    "duration": 0.20659713958333015,
                    "durationTicks": 119,
                    "midi": 69,
                    "name": "A4",
                    "ticks": 35760,
                    "time": 62.0833085,
                    "velocity": 0.7559055118110236,
                },
                {
                    "duration": 0.41493038958333983,
                    "durationTicks": 239,
                    "midi": 79,
                    "name": "G5",
                    "ticks": 35880,
                    "time": 62.29164175,
                    "velocity": 0.7559055118110236,
                },
                {
                    "duration": 0.41493038958333983,
                    "durationTicks": 239,
                    "midi": 76,
                    "name": "E5",
                    "ticks": 35880,
                    "time": 62.29164175,
                    "velocity": 0.7559055118110236,
                },
                {
                    "duration": 0.41493038958333983,
                    "durationTicks": 239,
                    "midi": 67,
                    "name": "G4",
                    "ticks": 35880,
                    "time": 62.29164175,
                    "velocity": 0.7559055118110236,
                },
                {
                    "duration": 0.20659713958333015,
                    "durationTicks": 119,
                    "midi": 76,
                    "name": "E5",
                    "ticks": 36120,
                    "time": 62.70830825,
                    "velocity": 0.7559055118110236,
                },
                {
                    "duration": 0.20659713958333015,
                    "durationTicks": 119,
                    "midi": 72,
                    "name": "C5",
                    "ticks": 36120,
                    "time": 62.70830825,
                    "velocity": 0.7559055118110236,
                },
                {
                    "duration": 0.20659713958333015,
                    "durationTicks": 119,
                    "midi": 64,
                    "name": "E4",
                    "ticks": 36120,
                    "time": 62.70830825,
                    "velocity": 0.7559055118110236,
                },
                {
                    "duration": 0.20659713958333725,
                    "durationTicks": 119,
                    "midi": 89,
                    "name": "F6",
                    "ticks": 36240,
                    "time": 62.9166415,
                    "velocity": 0.7559055118110236,
                },
                {
                    "duration": 0.20659713958333725,
                    "durationTicks": 119,
                    "midi": 86,
                    "name": "D6",
                    "ticks": 36240,
                    "time": 62.9166415,
                    "velocity": 0.7559055118110236,
                },
                {
                    "duration": 0.20659713958333725,
                    "durationTicks": 119,
                    "midi": 77,
                    "name": "F5",
                    "ticks": 36240,
                    "time": 62.9166415,
                    "velocity": 0.7559055118110236,
                },
                {
                    "duration": 0.20659713958333725,
                    "durationTicks": 119,
                    "midi": 90,
                    "name": "F#6",
                    "ticks": 36360,
                    "time": 63.12497475,
                    "velocity": 0.7559055118110236,
                },
                {
                    "duration": 0.20659713958333725,
                    "durationTicks": 119,
                    "midi": 87,
                    "name": "D#6",
                    "ticks": 36360,
                    "time": 63.12497475,
                    "velocity": 0.7559055118110236,
                },
                {
                    "duration": 0.20659713958333725,
                    "durationTicks": 119,
                    "midi": 78,
                    "name": "F#5",
                    "ticks": 36360,
                    "time": 63.12497475,
                    "velocity": 0.7559055118110236,
                },
                {
                    "duration": 0.4149303895833327,
                    "durationTicks": 239,
                    "midi": 79,
                    "name": "G5",
                    "ticks": 36480,
                    "time": 63.333308,
                    "velocity": 0.7559055118110236,
                },
                {
                    "duration": 0.4149303895833327,
                    "durationTicks": 239,
                    "midi": 76,
                    "name": "E5",
                    "ticks": 36480,
                    "time": 63.333308,
                    "velocity": 0.7559055118110236,
                },
                {
                    "duration": 0.4149303895833327,
                    "durationTicks": 239,
                    "midi": 67,
                    "name": "G4",
                    "ticks": 36480,
                    "time": 63.333308,
                    "velocity": 0.7559055118110236,
                },
                {
                    "duration": 0.20659713958333725,
                    "durationTicks": 119,
                    "midi": 81,
                    "name": "A5",
                    "ticks": 36720,
                    "time": 63.7499745,
                    "velocity": 0.7559055118110236,
                },
                {
                    "duration": 0.20659713958333725,
                    "durationTicks": 119,
                    "midi": 76,
                    "name": "E5",
                    "ticks": 36720,
                    "time": 63.7499745,
                    "velocity": 0.7559055118110236,
                },
                {
                    "duration": 0.20659713958333725,
                    "durationTicks": 119,
                    "midi": 69,
                    "name": "A4",
                    "ticks": 36720,
                    "time": 63.7499745,
                    "velocity": 0.7559055118110236,
                },
                {
                    "duration": 0.41493038958333983,
                    "durationTicks": 239,
                    "midi": 79,
                    "name": "G5",
                    "ticks": 36840,
                    "time": 63.958307749999996,
                    "velocity": 0.7559055118110236,
                },
                {
                    "duration": 0.41493038958333983,
                    "durationTicks": 239,
                    "midi": 76,
                    "name": "E5",
                    "ticks": 36840,
                    "time": 63.958307749999996,
                    "velocity": 0.7559055118110236,
                },
                {
                    "duration": 0.41493038958333983,
                    "durationTicks": 239,
                    "midi": 67,
                    "name": "G4",
                    "ticks": 36840,
                    "time": 63.958307749999996,
                    "velocity": 0.7559055118110236,
                },
                {
                    "duration": 0.20659713958333725,
                    "durationTicks": 119,
                    "midi": 76,
                    "name": "E5",
                    "ticks": 37080,
                    "time": 64.37497425,
                    "velocity": 0.7559055118110236,
                },
                {
                    "duration": 0.20659713958333725,
                    "durationTicks": 119,
                    "midi": 72,
                    "name": "C5",
                    "ticks": 37200,
                    "time": 64.5833075,
                    "velocity": 0.7559055118110236,
                },
                {
                    "duration": 0.20659713958333725,
                    "durationTicks": 119,
                    "midi": 67,
                    "name": "G4",
                    "ticks": 37320,
                    "time": 64.79164075,
                    "velocity": 0.7559055118110236,
                },
                {
                    "duration": 0.20659713958333725,
                    "durationTicks": 119,
                    "midi": 69,
                    "name": "A4",
                    "ticks": 37440,
                    "time": 64.999974,
                    "velocity": 0.7559055118110236,
                },
                {
                    "duration": 0.20659713958332304,
                    "durationTicks": 119,
                    "midi": 71,
                    "name": "B4",
                    "ticks": 37560,
                    "time": 65.20830725,
                    "velocity": 0.7559055118110236,
                },
                {
                    "duration": 0.20659713958333725,
                    "durationTicks": 119,
                    "midi": 72,
                    "name": "C5",
                    "ticks": 37680,
                    "time": 65.4166405,
                    "velocity": 0.7559055118110236,
                },
                {
                    "duration": 0.20659713958333725,
                    "durationTicks": 119,
                    "midi": 74,
                    "name": "D5",
                    "ticks": 37800,
                    "time": 65.62497375,
                    "velocity": 0.7559055118110236,
                },
                {
                    "duration": 0.20659713958332304,
                    "durationTicks": 119,
                    "midi": 76,
                    "name": "E5",
                    "ticks": 37920,
                    "time": 65.833307,
                    "velocity": 0.7559055118110236,
                },
                {
                    "duration": 0.20659713958333725,
                    "durationTicks": 119,
                    "midi": 74,
                    "name": "D5",
                    "ticks": 38040,
                    "time": 66.04164025,
                    "velocity": 0.7559055118110236,
                },
                {
                    "duration": 0.20659713958333725,
                    "durationTicks": 119,
                    "midi": 72,
                    "name": "C5",
                    "ticks": 38160,
                    "time": 66.2499735,
                    "velocity": 0.7559055118110236,
                },
                {
                    "duration": 0.20659713958332304,
                    "durationTicks": 119,
                    "midi": 74,
                    "name": "D5",
                    "ticks": 38280,
                    "time": 66.45830675,
                    "velocity": 0.7559055118110236,
                },
                {
                    "duration": 0.20659713958333725,
                    "durationTicks": 119,
                    "midi": 67,
                    "name": "G4",
                    "ticks": 38400,
                    "time": 66.66664,
                    "velocity": 0.7559055118110236,
                },
                {
                    "duration": 0.20659713958333725,
                    "durationTicks": 119,
                    "midi": 76,
                    "name": "E5",
                    "ticks": 38520,
                    "time": 66.87497325,
                    "velocity": 0.7559055118110236,
                },
                {
                    "duration": 0.20659713958332304,
                    "durationTicks": 119,
                    "midi": 77,
                    "name": "F5",
                    "ticks": 38640,
                    "time": 67.0833065,
                    "velocity": 0.7559055118110236,
                },
                {
                    "duration": 0.20659713958333725,
                    "durationTicks": 119,
                    "midi": 79,
                    "name": "G5",
                    "ticks": 38760,
                    "time": 67.29163975,
                    "velocity": 0.7559055118110236,
                },
                {
                    "duration": 0.20659713958333725,
                    "durationTicks": 119,
                    "midi": 81,
                    "name": "A5",
                    "ticks": 38880,
                    "time": 67.499973,
                    "velocity": 0.7559055118110236,
                },
                {
                    "duration": 0.20659713958333725,
                    "durationTicks": 119,
                    "midi": 79,
                    "name": "G5",
                    "ticks": 39000,
                    "time": 67.70830624999999,
                    "velocity": 0.7559055118110236,
                },
                {
                    "duration": 0.20659713958333725,
                    "durationTicks": 119,
                    "midi": 76,
                    "name": "E5",
                    "ticks": 39120,
                    "time": 67.9166395,
                    "velocity": 0.7559055118110236,
                },
                {
                    "duration": 0.20659713958333725,
                    "durationTicks": 119,
                    "midi": 77,
                    "name": "F5",
                    "ticks": 39240,
                    "time": 68.12497275,
                    "velocity": 0.7559055118110236,
                },
                {
                    "duration": 0.41493038958334694,
                    "durationTicks": 239,
                    "midi": 79,
                    "name": "G5",
                    "ticks": 39360,
                    "time": 68.333306,
                    "velocity": 0.7559055118110236,
                },
                {
                    "duration": 0.41493038958334694,
                    "durationTicks": 239,
                    "midi": 76,
                    "name": "E5",
                    "ticks": 39360,
                    "time": 68.333306,
                    "velocity": 0.7559055118110236,
                },
                {
                    "duration": 0.41493038958334694,
                    "durationTicks": 239,
                    "midi": 67,
                    "name": "G4",
                    "ticks": 39360,
                    "time": 68.333306,
                    "velocity": 0.7559055118110236,
                },
                {
                    "duration": 0.20659713958333725,
                    "durationTicks": 119,
                    "midi": 81,
                    "name": "A5",
                    "ticks": 39600,
                    "time": 68.7499725,
                    "velocity": 0.7559055118110236,
                },
                {
                    "duration": 0.20659713958333725,
                    "durationTicks": 119,
                    "midi": 76,
                    "name": "E5",
                    "ticks": 39600,
                    "time": 68.7499725,
                    "velocity": 0.7559055118110236,
                },
                {
                    "duration": 0.20659713958333725,
                    "durationTicks": 119,
                    "midi": 69,
                    "name": "A4",
                    "ticks": 39600,
                    "time": 68.7499725,
                    "velocity": 0.7559055118110236,
                },
                {
                    "duration": 0.41493038958334694,
                    "durationTicks": 239,
                    "midi": 79,
                    "name": "G5",
                    "ticks": 39720,
                    "time": 68.95830575,
                    "velocity": 0.7559055118110236,
                },
                {
                    "duration": 0.41493038958334694,
                    "durationTicks": 239,
                    "midi": 76,
                    "name": "E5",
                    "ticks": 39720,
                    "time": 68.95830575,
                    "velocity": 0.7559055118110236,
                },
                {
                    "duration": 0.41493038958334694,
                    "durationTicks": 239,
                    "midi": 67,
                    "name": "G4",
                    "ticks": 39720,
                    "time": 68.95830575,
                    "velocity": 0.7559055118110236,
                },
                {
                    "duration": 0.20659713958333725,
                    "durationTicks": 119,
                    "midi": 76,
                    "name": "E5",
                    "ticks": 39960,
                    "time": 69.37497225,
                    "velocity": 0.7559055118110236,
                },
                {
                    "duration": 0.20659713958333725,
                    "durationTicks": 119,
                    "midi": 72,
                    "name": "C5",
                    "ticks": 39960,
                    "time": 69.37497225,
                    "velocity": 0.7559055118110236,
                },
                {
                    "duration": 0.20659713958333725,
                    "durationTicks": 119,
                    "midi": 64,
                    "name": "E4",
                    "ticks": 39960,
                    "time": 69.37497225,
                    "velocity": 0.7559055118110236,
                },
                {
                    "duration": 0.20659713958333725,
                    "durationTicks": 119,
                    "midi": 77,
                    "name": "F5",
                    "ticks": 40080,
                    "time": 69.5833055,
                    "velocity": 0.7559055118110236,
                },
                {
                    "duration": 0.20659713958333725,
                    "durationTicks": 119,
                    "midi": 74,
                    "name": "D5",
                    "ticks": 40080,
                    "time": 69.5833055,
                    "velocity": 0.7559055118110236,
                },
                {
                    "duration": 0.20659713958333725,
                    "durationTicks": 119,
                    "midi": 65,
                    "name": "F4",
                    "ticks": 40080,
                    "time": 69.5833055,
                    "velocity": 0.7559055118110236,
                },
                {
                    "duration": 0.20659713958332304,
                    "durationTicks": 119,
                    "midi": 78,
                    "name": "F#5",
                    "ticks": 40200,
                    "time": 69.79163875,
                    "velocity": 0.7559055118110236,
                },
                {
                    "duration": 0.20659713958332304,
                    "durationTicks": 119,
                    "midi": 75,
                    "name": "D#5",
                    "ticks": 40200,
                    "time": 69.79163875,
                    "velocity": 0.7559055118110236,
                },
                {
                    "duration": 0.20659713958332304,
                    "durationTicks": 119,
                    "midi": 66,
                    "name": "F#4",
                    "ticks": 40200,
                    "time": 69.79163875,
                    "velocity": 0.7559055118110236,
                },
                {
                    "duration": 0.4149303895833327,
                    "durationTicks": 239,
                    "midi": 79,
                    "name": "G5",
                    "ticks": 40320,
                    "time": 69.999972,
                    "velocity": 0.7559055118110236,
                },
                {
                    "duration": 0.4149303895833327,
                    "durationTicks": 239,
                    "midi": 76,
                    "name": "E5",
                    "ticks": 40320,
                    "time": 69.999972,
                    "velocity": 0.7559055118110236,
                },
                {
                    "duration": 0.4149303895833327,
                    "durationTicks": 239,
                    "midi": 67,
                    "name": "G4",
                    "ticks": 40320,
                    "time": 69.999972,
                    "velocity": 0.7559055118110236,
                },
                {
                    "duration": 0.20659713958332304,
                    "durationTicks": 119,
                    "midi": 81,
                    "name": "A5",
                    "ticks": 40560,
                    "time": 70.4166385,
                    "velocity": 0.7559055118110236,
                },
                {
                    "duration": 0.20659713958332304,
                    "durationTicks": 119,
                    "midi": 76,
                    "name": "E5",
                    "ticks": 40560,
                    "time": 70.4166385,
                    "velocity": 0.7559055118110236,
                },
                {
                    "duration": 0.20659713958332304,
                    "durationTicks": 119,
                    "midi": 69,
                    "name": "A4",
                    "ticks": 40560,
                    "time": 70.4166385,
                    "velocity": 0.7559055118110236,
                },
                {
                    "duration": 0.4149303895833327,
                    "durationTicks": 239,
                    "midi": 79,
                    "name": "G5",
                    "ticks": 40680,
                    "time": 70.62497175,
                    "velocity": 0.7559055118110236,
                },
                {
                    "duration": 0.4149303895833327,
                    "durationTicks": 239,
                    "midi": 76,
                    "name": "E5",
                    "ticks": 40680,
                    "time": 70.62497175,
                    "velocity": 0.7559055118110236,
                },
                {
                    "duration": 0.4149303895833327,
                    "durationTicks": 239,
                    "midi": 67,
                    "name": "G4",
                    "ticks": 40680,
                    "time": 70.62497175,
                    "velocity": 0.7559055118110236,
                },
                {
                    "duration": 0.20659713958332304,
                    "durationTicks": 119,
                    "midi": 79,
                    "name": "G5",
                    "ticks": 40920,
                    "time": 71.04163825,
                    "velocity": 0.7559055118110236,
                },
                {
                    "duration": 0.20659713958333725,
                    "durationTicks": 119,
                    "midi": 81,
                    "name": "A5",
                    "ticks": 41040,
                    "time": 71.2499715,
                    "velocity": 0.7559055118110236,
                },
                {
                    "duration": 0.20659713958333725,
                    "durationTicks": 119,
                    "midi": 82,
                    "name": "A#5",
                    "ticks": 41160,
                    "time": 71.45830475,
                    "velocity": 0.7559055118110236,
                },
                {
                    "duration": 0.20659713958332304,
                    "durationTicks": 119,
                    "midi": 83,
                    "name": "B5",
                    "ticks": 41280,
                    "time": 71.666638,
                    "velocity": 0.7559055118110236,
                },
                {
                    "duration": 0.20659713958332304,
                    "durationTicks": 119,
                    "midi": 79,
                    "name": "G5",
                    "ticks": 41280,
                    "time": 71.666638,
                    "velocity": 0.7559055118110236,
                },
                {
                    "duration": 0.20659713958332304,
                    "durationTicks": 119,
                    "midi": 74,
                    "name": "D5",
                    "ticks": 41280,
                    "time": 71.666638,
                    "velocity": 0.7559055118110236,
                },
                {
                    "duration": 0.4149303895833327,
                    "durationTicks": 239,
                    "midi": 83,
                    "name": "B5",
                    "ticks": 41400,
                    "time": 71.87497125,
                    "velocity": 0.7559055118110236,
                },
                {
                    "duration": 0.4149303895833327,
                    "durationTicks": 239,
                    "midi": 79,
                    "name": "G5",
                    "ticks": 41400,
                    "time": 71.87497125,
                    "velocity": 0.7559055118110236,
                },
                {
                    "duration": 0.4149303895833327,
                    "durationTicks": 239,
                    "midi": 74,
                    "name": "D5",
                    "ticks": 41400,
                    "time": 71.87497125,
                    "velocity": 0.7559055118110236,
                },
                {
                    "duration": 0.41493038958334694,
                    "durationTicks": 239,
                    "midi": 83,
                    "name": "B5",
                    "ticks": 41640,
                    "time": 72.29163774999999,
                    "velocity": 0.7559055118110236,
                },
                {
                    "duration": 0.41493038958334694,
                    "durationTicks": 239,
                    "midi": 78,
                    "name": "F#5",
                    "ticks": 41640,
                    "time": 72.29163774999999,
                    "velocity": 0.7559055118110236,
                },
                {
                    "duration": 0.41493038958334694,
                    "durationTicks": 239,
                    "midi": 72,
                    "name": "C5",
                    "ticks": 41640,
                    "time": 72.29163774999999,
                    "velocity": 0.7559055118110236,
                },
                {
                    "duration": 0.20659713958333725,
                    "durationTicks": 119,
                    "midi": 81,
                    "name": "A5",
                    "ticks": 41880,
                    "time": 72.70830425,
                    "velocity": 0.7559055118110236,
                },
                {
                    "duration": 0.20659713958333725,
                    "durationTicks": 119,
                    "midi": 77,
                    "name": "F5",
                    "ticks": 42000,
                    "time": 72.9166375,
                    "velocity": 0.7559055118110236,
                },
                {
                    "duration": 0.20659713958333725,
                    "durationTicks": 119,
                    "midi": 72,
                    "name": "C5",
                    "ticks": 42000,
                    "time": 72.9166375,
                    "velocity": 0.7559055118110236,
                },
                {
                    "duration": 0.20659713958333725,
                    "durationTicks": 119,
                    "midi": 74,
                    "name": "D5",
                    "ticks": 42120,
                    "time": 73.12497075,
                    "velocity": 0.7559055118110236,
                },
                {
                    "duration": 1.0399301395833334,
                    "durationTicks": 599,
                    "midi": 79,
                    "name": "G5",
                    "ticks": 42240,
                    "time": 73.333304,
                    "velocity": 0.7559055118110236,
                },
                {
                    "duration": 1.0399301395833334,
                    "durationTicks": 599,
                    "midi": 71,
                    "name": "B4",
                    "ticks": 42240,
                    "time": 73.333304,
                    "velocity": 0.7559055118110236,
                },
                {
                    "duration": 0.20659713958332304,
                    "durationTicks": 119,
                    "midi": 76,
                    "name": "E5",
                    "ticks": 42840,
                    "time": 74.37497025,
                    "velocity": 0.7559055118110236,
                },
                {
                    "duration": 0.20659713958332304,
                    "durationTicks": 119,
                    "midi": 72,
                    "name": "C5",
                    "ticks": 42840,
                    "time": 74.37497025,
                    "velocity": 0.7559055118110236,
                },
                {
                    "duration": 0.20659713958332304,
                    "durationTicks": 119,
                    "midi": 64,
                    "name": "E4",
                    "ticks": 42840,
                    "time": 74.37497025,
                    "velocity": 0.7559055118110236,
                },
                {
                    "duration": 0.20659713958333725,
                    "durationTicks": 119,
                    "midi": 77,
                    "name": "F5",
                    "ticks": 42960,
                    "time": 74.5833035,
                    "velocity": 0.7559055118110236,
                },
                {
                    "duration": 0.20659713958333725,
                    "durationTicks": 119,
                    "midi": 74,
                    "name": "D5",
                    "ticks": 42960,
                    "time": 74.5833035,
                    "velocity": 0.7559055118110236,
                },
                {
                    "duration": 0.20659713958333725,
                    "durationTicks": 119,
                    "midi": 65,
                    "name": "F4",
                    "ticks": 42960,
                    "time": 74.5833035,
                    "velocity": 0.7559055118110236,
                },
                {
                    "duration": 0.20659713958333725,
                    "durationTicks": 119,
                    "midi": 78,
                    "name": "F#5",
                    "ticks": 43080,
                    "time": 74.79163675,
                    "velocity": 0.7559055118110236,
                },
                {
                    "duration": 0.20659713958333725,
                    "durationTicks": 119,
                    "midi": 75,
                    "name": "D#5",
                    "ticks": 43080,
                    "time": 74.79163675,
                    "velocity": 0.7559055118110236,
                },
                {
                    "duration": 0.20659713958333725,
                    "durationTicks": 119,
                    "midi": 66,
                    "name": "F#4",
                    "ticks": 43080,
                    "time": 74.79163675,
                    "velocity": 0.7559055118110236,
                },
                {
                    "duration": 0.4149303895833327,
                    "durationTicks": 239,
                    "midi": 79,
                    "name": "G5",
                    "ticks": 43200,
                    "time": 74.99997,
                    "velocity": 0.3858267716535433,
                },
                {
                    "duration": 0.4149303895833327,
                    "durationTicks": 239,
                    "midi": 76,
                    "name": "E5",
                    "ticks": 43200,
                    "time": 74.99997,
                    "velocity": 0.3858267716535433,
                },
                {
                    "duration": 0.4149303895833327,
                    "durationTicks": 239,
                    "midi": 67,
                    "name": "G4",
                    "ticks": 43200,
                    "time": 74.99997,
                    "velocity": 0.3858267716535433,
                },
                {
                    "duration": 0.20659713958333725,
                    "durationTicks": 119,
                    "midi": 81,
                    "name": "A5",
                    "ticks": 43440,
                    "time": 75.4166365,
                    "velocity": 0.3858267716535433,
                },
                {
                    "duration": 0.20659713958333725,
                    "durationTicks": 119,
                    "midi": 76,
                    "name": "E5",
                    "ticks": 43440,
                    "time": 75.4166365,
                    "velocity": 0.3858267716535433,
                },
                {
                    "duration": 0.20659713958333725,
                    "durationTicks": 119,
                    "midi": 69,
                    "name": "A4",
                    "ticks": 43440,
                    "time": 75.4166365,
                    "velocity": 0.3858267716535433,
                },
                {
                    "duration": 0.4149303895833327,
                    "durationTicks": 239,
                    "midi": 79,
                    "name": "G5",
                    "ticks": 43560,
                    "time": 75.62496975,
                    "velocity": 0.3858267716535433,
                },
                {
                    "duration": 0.4149303895833327,
                    "durationTicks": 239,
                    "midi": 76,
                    "name": "E5",
                    "ticks": 43560,
                    "time": 75.62496975,
                    "velocity": 0.3858267716535433,
                },
                {
                    "duration": 0.4149303895833327,
                    "durationTicks": 239,
                    "midi": 67,
                    "name": "G4",
                    "ticks": 43560,
                    "time": 75.62496975,
                    "velocity": 0.3858267716535433,
                },
                {
                    "duration": 0.20659713958333725,
                    "durationTicks": 119,
                    "midi": 76,
                    "name": "E5",
                    "ticks": 43800,
                    "time": 76.04163625,
                    "velocity": 0.3858267716535433,
                },
                {
                    "duration": 0.20659713958333725,
                    "durationTicks": 119,
                    "midi": 72,
                    "name": "C5",
                    "ticks": 43800,
                    "time": 76.04163625,
                    "velocity": 0.3858267716535433,
                },
                {
                    "duration": 0.20659713958333725,
                    "durationTicks": 119,
                    "midi": 64,
                    "name": "E4",
                    "ticks": 43800,
                    "time": 76.04163625,
                    "velocity": 0.3858267716535433,
                },
                {
                    "duration": 0.20659713958332304,
                    "durationTicks": 119,
                    "midi": 77,
                    "name": "F5",
                    "ticks": 43920,
                    "time": 76.2499695,
                    "velocity": 0.3858267716535433,
                },
                {
                    "duration": 0.20659713958332304,
                    "durationTicks": 119,
                    "midi": 74,
                    "name": "D5",
                    "ticks": 43920,
                    "time": 76.2499695,
                    "velocity": 0.3858267716535433,
                },
                {
                    "duration": 0.20659713958332304,
                    "durationTicks": 119,
                    "midi": 65,
                    "name": "F4",
                    "ticks": 43920,
                    "time": 76.2499695,
                    "velocity": 0.3858267716535433,
                },
                {
                    "duration": 0.20659713958333725,
                    "durationTicks": 119,
                    "midi": 78,
                    "name": "F#5",
                    "ticks": 44040,
                    "time": 76.45830275,
                    "velocity": 0.3858267716535433,
                },
                {
                    "duration": 0.20659713958333725,
                    "durationTicks": 119,
                    "midi": 75,
                    "name": "D#5",
                    "ticks": 44040,
                    "time": 76.45830275,
                    "velocity": 0.3858267716535433,
                },
                {
                    "duration": 0.20659713958333725,
                    "durationTicks": 119,
                    "midi": 66,
                    "name": "F#4",
                    "ticks": 44040,
                    "time": 76.45830275,
                    "velocity": 0.3858267716535433,
                },
                {
                    "duration": 0.4149303895833327,
                    "durationTicks": 239,
                    "midi": 79,
                    "name": "G5",
                    "ticks": 44160,
                    "time": 76.666636,
                    "velocity": 0.3858267716535433,
                },
                {
                    "duration": 0.4149303895833327,
                    "durationTicks": 239,
                    "midi": 76,
                    "name": "E5",
                    "ticks": 44160,
                    "time": 76.666636,
                    "velocity": 0.3858267716535433,
                },
                {
                    "duration": 0.4149303895833327,
                    "durationTicks": 239,
                    "midi": 67,
                    "name": "G4",
                    "ticks": 44160,
                    "time": 76.666636,
                    "velocity": 0.3858267716535433,
                },
                {
                    "duration": 0.20659713958333725,
                    "durationTicks": 119,
                    "midi": 81,
                    "name": "A5",
                    "ticks": 44400,
                    "time": 77.0833025,
                    "velocity": 0.3858267716535433,
                },
                {
                    "duration": 0.20659713958333725,
                    "durationTicks": 119,
                    "midi": 76,
                    "name": "E5",
                    "ticks": 44400,
                    "time": 77.0833025,
                    "velocity": 0.3858267716535433,
                },
                {
                    "duration": 0.20659713958333725,
                    "durationTicks": 119,
                    "midi": 69,
                    "name": "A4",
                    "ticks": 44400,
                    "time": 77.0833025,
                    "velocity": 0.3858267716535433,
                },
                {
                    "duration": 0.4149303895833327,
                    "durationTicks": 239,
                    "midi": 79,
                    "name": "G5",
                    "ticks": 44520,
                    "time": 77.29163575,
                    "velocity": 0.3858267716535433,
                },
                {
                    "duration": 0.4149303895833327,
                    "durationTicks": 239,
                    "midi": 76,
                    "name": "E5",
                    "ticks": 44520,
                    "time": 77.29163575,
                    "velocity": 0.3858267716535433,
                },
                {
                    "duration": 0.4149303895833327,
                    "durationTicks": 239,
                    "midi": 67,
                    "name": "G4",
                    "ticks": 44520,
                    "time": 77.29163575,
                    "velocity": 0.3858267716535433,
                },
                {
                    "duration": 0.20659713958333725,
                    "durationTicks": 119,
                    "midi": 76,
                    "name": "E5",
                    "ticks": 44760,
                    "time": 77.70830225,
                    "velocity": 0.3858267716535433,
                },
                {
                    "duration": 0.20659713958333725,
                    "durationTicks": 119,
                    "midi": 72,
                    "name": "C5",
                    "ticks": 44880,
                    "time": 77.9166355,
                    "velocity": 0.3858267716535433,
                },
                {
                    "duration": 0.20659713958333725,
                    "durationTicks": 119,
                    "midi": 67,
                    "name": "G4",
                    "ticks": 45000,
                    "time": 78.12496875,
                    "velocity": 0.3858267716535433,
                },
                {
                    "duration": 0.20659713958333725,
                    "durationTicks": 119,
                    "midi": 69,
                    "name": "A4",
                    "ticks": 45120,
                    "time": 78.333302,
                    "velocity": 0.3858267716535433,
                },
                {
                    "duration": 0.20659713958333725,
                    "durationTicks": 119,
                    "midi": 71,
                    "name": "B4",
                    "ticks": 45240,
                    "time": 78.54163525,
                    "velocity": 0.3858267716535433,
                },
                {
                    "duration": 0.20659713958333725,
                    "durationTicks": 119,
                    "midi": 72,
                    "name": "C5",
                    "ticks": 45360,
                    "time": 78.7499685,
                    "velocity": 0.3858267716535433,
                },
                {
                    "duration": 0.20659713958332304,
                    "durationTicks": 119,
                    "midi": 74,
                    "name": "D5",
                    "ticks": 45480,
                    "time": 78.95830175,
                    "velocity": 0.3858267716535433,
                },
                {
                    "duration": 0.20659713958333725,
                    "durationTicks": 119,
                    "midi": 76,
                    "name": "E5",
                    "ticks": 45600,
                    "time": 79.166635,
                    "velocity": 0.3858267716535433,
                },
                {
                    "duration": 0.20659713958333725,
                    "durationTicks": 119,
                    "midi": 74,
                    "name": "D5",
                    "ticks": 45720,
                    "time": 79.37496825,
                    "velocity": 0.3858267716535433,
                },
                {
                    "duration": 0.20659713958332304,
                    "durationTicks": 119,
                    "midi": 72,
                    "name": "C5",
                    "ticks": 45840,
                    "time": 79.5833015,
                    "velocity": 0.3858267716535433,
                },
                {
                    "duration": 0.20659713958333725,
                    "durationTicks": 119,
                    "midi": 74,
                    "name": "D5",
                    "ticks": 45960,
                    "time": 79.79163475,
                    "velocity": 0.3858267716535433,
                },
                {
                    "duration": 1.0399301395833334,
                    "durationTicks": 599,
                    "midi": 72,
                    "name": "C5",
                    "ticks": 46080,
                    "time": 79.999968,
                    "velocity": 0.3858267716535433,
                },
                {
                    "duration": 0.20659713958333725,
                    "durationTicks": 119,
                    "midi": 67,
                    "name": "G4",
                    "ticks": 46680,
                    "time": 81.04163425,
                    "velocity": 0.3858267716535433,
                },
                {
                    "duration": 0.20659713958333725,
                    "durationTicks": 119,
                    "midi": 66,
                    "name": "F#4",
                    "ticks": 46800,
                    "time": 81.2499675,
                    "velocity": 0.3858267716535433,
                },
                {
                    "duration": 0.20659713958333725,
                    "durationTicks": 119,
                    "midi": 67,
                    "name": "G4",
                    "ticks": 46920,
                    "time": 81.45830074999999,
                    "velocity": 0.3858267716535433,
                },
                {
                    "duration": 0.4149303895833327,
                    "durationTicks": 239,
                    "midi": 72,
                    "name": "C5",
                    "ticks": 47040,
                    "time": 81.666634,
                    "velocity": 0.3858267716535433,
                },
                {
                    "duration": 0.20659713958333725,
                    "durationTicks": 119,
                    "midi": 69,
                    "name": "A4",
                    "ticks": 47280,
                    "time": 82.08330049999999,
                    "velocity": 0.3858267716535433,
                },
                {
                    "duration": 0.4149303895833327,
                    "durationTicks": 239,
                    "midi": 72,
                    "name": "C5",
                    "ticks": 47400,
                    "time": 82.29163375,
                    "velocity": 0.3858267716535433,
                },
                {
                    "duration": 0.20659713958333725,
                    "durationTicks": 119,
                    "midi": 69,
                    "name": "A4",
                    "ticks": 47640,
                    "time": 82.70830025,
                    "velocity": 0.3858267716535433,
                },
                {
                    "duration": 0.20659713958333725,
                    "durationTicks": 119,
                    "midi": 72,
                    "name": "C5",
                    "ticks": 47760,
                    "time": 82.9166335,
                    "velocity": 0.3858267716535433,
                },
                {
                    "duration": 0.20659713958333725,
                    "durationTicks": 119,
                    "midi": 69,
                    "name": "A4",
                    "ticks": 47880,
                    "time": 83.12496675,
                    "velocity": 0.3858267716535433,
                },
                {
                    "duration": 0.20659713958333725,
                    "durationTicks": 119,
                    "midi": 67,
                    "name": "G4",
                    "ticks": 48000,
                    "time": 83.3333,
                    "velocity": 0.3858267716535433,
                },
                {
                    "duration": 0.20659713958332304,
                    "durationTicks": 119,
                    "midi": 72,
                    "name": "C5",
                    "ticks": 48120,
                    "time": 83.54163325,
                    "velocity": 0.3858267716535433,
                },
                {
                    "duration": 0.20659713958333725,
                    "durationTicks": 119,
                    "midi": 76,
                    "name": "E5",
                    "ticks": 48240,
                    "time": 83.7499665,
                    "velocity": 0.3858267716535433,
                },
                {
                    "duration": 0.4149303895833327,
                    "durationTicks": 239,
                    "midi": 79,
                    "name": "G5",
                    "ticks": 48360,
                    "time": 83.95829975,
                    "velocity": 0.3858267716535433,
                },
                {
                    "duration": 0.20659713958333725,
                    "durationTicks": 119,
                    "midi": 76,
                    "name": "E5",
                    "ticks": 48600,
                    "time": 84.37496625,
                    "velocity": 0.3858267716535433,
                },
                {
                    "duration": 0.20659713958333725,
                    "durationTicks": 119,
                    "midi": 72,
                    "name": "C5",
                    "ticks": 48720,
                    "time": 84.5832995,
                    "velocity": 0.3858267716535433,
                },
                {
                    "duration": 0.20659713958332304,
                    "durationTicks": 119,
                    "midi": 67,
                    "name": "G4",
                    "ticks": 48840,
                    "time": 84.79163275,
                    "velocity": 0.3858267716535433,
                },
                {
                    "duration": 0.4149303895833327,
                    "durationTicks": 239,
                    "midi": 69,
                    "name": "A4",
                    "ticks": 48960,
                    "time": 84.999966,
                    "velocity": 0.3858267716535433,
                },
                {
                    "duration": 0.4149303895833327,
                    "durationTicks": 239,
                    "midi": 66,
                    "name": "F#4",
                    "ticks": 48960,
                    "time": 84.999966,
                    "velocity": 0.3858267716535433,
                },
                {
                    "duration": 0.4149303895833327,
                    "durationTicks": 239,
                    "midi": 72,
                    "name": "C5",
                    "ticks": 49200,
                    "time": 85.4166325,
                    "velocity": 0.3858267716535433,
                },
                {
                    "duration": 0.4149303895833327,
                    "durationTicks": 239,
                    "midi": 65,
                    "name": "F4",
                    "ticks": 49200,
                    "time": 85.4166325,
                    "velocity": 0.3858267716535433,
                },
                {
                    "duration": 0.20659713958333725,
                    "durationTicks": 119,
                    "midi": 76,
                    "name": "E5",
                    "ticks": 49440,
                    "time": 85.833299,
                    "velocity": 0.3858267716535433,
                },
                {
                    "duration": 0.20659713958333725,
                    "durationTicks": 119,
                    "midi": 65,
                    "name": "F4",
                    "ticks": 49440,
                    "time": 85.833299,
                    "velocity": 0.3858267716535433,
                },
                {
                    "duration": 0.41493038958334694,
                    "durationTicks": 239,
                    "midi": 74,
                    "name": "D5",
                    "ticks": 49560,
                    "time": 86.04163224999999,
                    "velocity": 0.3858267716535433,
                },
                {
                    "duration": 0.41493038958334694,
                    "durationTicks": 239,
                    "midi": 65,
                    "name": "F4",
                    "ticks": 49560,
                    "time": 86.04163224999999,
                    "velocity": 0.3858267716535433,
                },
                {
                    "duration": 0.20659713958333725,
                    "durationTicks": 119,
                    "midi": 72,
                    "name": "C5",
                    "ticks": 49800,
                    "time": 86.45829875,
                    "velocity": 0.3858267716535433,
                },
                {
                    "duration": 0.20659713958333725,
                    "durationTicks": 119,
                    "midi": 64,
                    "name": "E4",
                    "ticks": 49800,
                    "time": 86.45829875,
                    "velocity": 0.3858267716535433,
                },
                {
                    "duration": 0.8315968895833379,
                    "durationTicks": 479,
                    "midi": 72,
                    "name": "C5",
                    "ticks": 49920,
                    "time": 86.66663199999999,
                    "velocity": 0.3858267716535433,
                },
                {
                    "duration": 0.8315968895833379,
                    "durationTicks": 479,
                    "midi": 64,
                    "name": "E4",
                    "ticks": 49920,
                    "time": 86.66663199999999,
                    "velocity": 0.3858267716535433,
                },
                {
                    "duration": 0.20659713958333725,
                    "durationTicks": 119,
                    "midi": 72,
                    "name": "C5",
                    "ticks": 50400,
                    "time": 87.499965,
                    "velocity": 0.3858267716535433,
                },
                {
                    "duration": 0.20659713958333725,
                    "durationTicks": 119,
                    "midi": 64,
                    "name": "E4",
                    "ticks": 50400,
                    "time": 87.499965,
                    "velocity": 0.3858267716535433,
                },
                {
                    "duration": 0.20659713958333725,
                    "durationTicks": 119,
                    "midi": 76,
                    "name": "E5",
                    "ticks": 50520,
                    "time": 87.70829825,
                    "velocity": 0.3858267716535433,
                },
                {
                    "duration": 0.20659713958333725,
                    "durationTicks": 119,
                    "midi": 72,
                    "name": "C5",
                    "ticks": 50520,
                    "time": 87.70829825,
                    "velocity": 0.3858267716535433,
                },
                {
                    "duration": 0.20659713958333725,
                    "durationTicks": 119,
                    "midi": 64,
                    "name": "E4",
                    "ticks": 50520,
                    "time": 87.70829825,
                    "velocity": 0.3858267716535433,
                },
                {
                    "duration": 0.20659713958333725,
                    "durationTicks": 119,
                    "midi": 89,
                    "name": "F6",
                    "ticks": 50640,
                    "time": 87.9166315,
                    "velocity": 0.3858267716535433,
                },
                {
                    "duration": 0.20659713958333725,
                    "durationTicks": 119,
                    "midi": 86,
                    "name": "D6",
                    "ticks": 50640,
                    "time": 87.9166315,
                    "velocity": 0.3858267716535433,
                },
                {
                    "duration": 0.20659713958333725,
                    "durationTicks": 119,
                    "midi": 77,
                    "name": "F5",
                    "ticks": 50640,
                    "time": 87.9166315,
                    "velocity": 0.3858267716535433,
                },
                {
                    "duration": 0.20659713958333725,
                    "durationTicks": 119,
                    "midi": 90,
                    "name": "F#6",
                    "ticks": 50760,
                    "time": 88.12496475,
                    "velocity": 0.3858267716535433,
                },
                {
                    "duration": 0.20659713958333725,
                    "durationTicks": 119,
                    "midi": 87,
                    "name": "D#6",
                    "ticks": 50760,
                    "time": 88.12496475,
                    "velocity": 0.3858267716535433,
                },
                {
                    "duration": 0.20659713958333725,
                    "durationTicks": 119,
                    "midi": 78,
                    "name": "F#5",
                    "ticks": 50760,
                    "time": 88.12496475,
                    "velocity": 0.3858267716535433,
                },
                {
                    "duration": 0.4149303895833327,
                    "durationTicks": 239,
                    "midi": 79,
                    "name": "G5",
                    "ticks": 50880,
                    "time": 88.333298,
                    "velocity": 0.7559055118110236,
                },
                {
                    "duration": 0.4149303895833327,
                    "durationTicks": 239,
                    "midi": 76,
                    "name": "E5",
                    "ticks": 50880,
                    "time": 88.333298,
                    "velocity": 0.7559055118110236,
                },
                {
                    "duration": 0.4149303895833327,
                    "durationTicks": 239,
                    "midi": 67,
                    "name": "G4",
                    "ticks": 50880,
                    "time": 88.333298,
                    "velocity": 0.7559055118110236,
                },
                {
                    "duration": 0.20659713958332304,
                    "durationTicks": 119,
                    "midi": 81,
                    "name": "A5",
                    "ticks": 51120,
                    "time": 88.7499645,
                    "velocity": 0.7559055118110236,
                },
                {
                    "duration": 0.20659713958332304,
                    "durationTicks": 119,
                    "midi": 76,
                    "name": "E5",
                    "ticks": 51120,
                    "time": 88.7499645,
                    "velocity": 0.7559055118110236,
                },
                {
                    "duration": 0.20659713958332304,
                    "durationTicks": 119,
                    "midi": 69,
                    "name": "A4",
                    "ticks": 51120,
                    "time": 88.7499645,
                    "velocity": 0.7559055118110236,
                },
                {
                    "duration": 0.4149303895833327,
                    "durationTicks": 239,
                    "midi": 79,
                    "name": "G5",
                    "ticks": 51240,
                    "time": 88.95829775,
                    "velocity": 0.7559055118110236,
                },
                {
                    "duration": 0.4149303895833327,
                    "durationTicks": 239,
                    "midi": 76,
                    "name": "E5",
                    "ticks": 51240,
                    "time": 88.95829775,
                    "velocity": 0.7559055118110236,
                },
                {
                    "duration": 0.4149303895833327,
                    "durationTicks": 239,
                    "midi": 67,
                    "name": "G4",
                    "ticks": 51240,
                    "time": 88.95829775,
                    "velocity": 0.7559055118110236,
                },
                {
                    "duration": 0.20659713958332304,
                    "durationTicks": 119,
                    "midi": 76,
                    "name": "E5",
                    "ticks": 51480,
                    "time": 89.37496425,
                    "velocity": 0.7559055118110236,
                },
                {
                    "duration": 0.20659713958332304,
                    "durationTicks": 119,
                    "midi": 72,
                    "name": "C5",
                    "ticks": 51480,
                    "time": 89.37496425,
                    "velocity": 0.7559055118110236,
                },
                {
                    "duration": 0.20659713958332304,
                    "durationTicks": 119,
                    "midi": 64,
                    "name": "E4",
                    "ticks": 51480,
                    "time": 89.37496425,
                    "velocity": 0.7559055118110236,
                },
                {
                    "duration": 0.20659713958333725,
                    "durationTicks": 119,
                    "midi": 89,
                    "name": "F6",
                    "ticks": 51600,
                    "time": 89.5832975,
                    "velocity": 0.7559055118110236,
                },
                {
                    "duration": 0.20659713958333725,
                    "durationTicks": 119,
                    "midi": 86,
                    "name": "D6",
                    "ticks": 51600,
                    "time": 89.5832975,
                    "velocity": 0.7559055118110236,
                },
                {
                    "duration": 0.20659713958333725,
                    "durationTicks": 119,
                    "midi": 77,
                    "name": "F5",
                    "ticks": 51600,
                    "time": 89.5832975,
                    "velocity": 0.7559055118110236,
                },
                {
                    "duration": 0.20659713958333725,
                    "durationTicks": 119,
                    "midi": 90,
                    "name": "F#6",
                    "ticks": 51720,
                    "time": 89.79163075,
                    "velocity": 0.7559055118110236,
                },
                {
                    "duration": 0.20659713958333725,
                    "durationTicks": 119,
                    "midi": 87,
                    "name": "D#6",
                    "ticks": 51720,
                    "time": 89.79163075,
                    "velocity": 0.7559055118110236,
                },
                {
                    "duration": 0.20659713958333725,
                    "durationTicks": 119,
                    "midi": 78,
                    "name": "F#5",
                    "ticks": 51720,
                    "time": 89.79163075,
                    "velocity": 0.7559055118110236,
                },
                {
                    "duration": 0.4149303895833327,
                    "durationTicks": 239,
                    "midi": 79,
                    "name": "G5",
                    "ticks": 51840,
                    "time": 89.999964,
                    "velocity": 0.7559055118110236,
                },
                {
                    "duration": 0.4149303895833327,
                    "durationTicks": 239,
                    "midi": 76,
                    "name": "E5",
                    "ticks": 51840,
                    "time": 89.999964,
                    "velocity": 0.7559055118110236,
                },
                {
                    "duration": 0.4149303895833327,
                    "durationTicks": 239,
                    "midi": 67,
                    "name": "G4",
                    "ticks": 51840,
                    "time": 89.999964,
                    "velocity": 0.7559055118110236,
                },
                {
                    "duration": 0.20659713958333725,
                    "durationTicks": 119,
                    "midi": 81,
                    "name": "A5",
                    "ticks": 52080,
                    "time": 90.4166305,
                    "velocity": 0.7559055118110236,
                },
                {
                    "duration": 0.20659713958333725,
                    "durationTicks": 119,
                    "midi": 76,
                    "name": "E5",
                    "ticks": 52080,
                    "time": 90.4166305,
                    "velocity": 0.7559055118110236,
                },
                {
                    "duration": 0.20659713958333725,
                    "durationTicks": 119,
                    "midi": 69,
                    "name": "A4",
                    "ticks": 52080,
                    "time": 90.4166305,
                    "velocity": 0.7559055118110236,
                },
                {
                    "duration": 0.41493038958334694,
                    "durationTicks": 239,
                    "midi": 79,
                    "name": "G5",
                    "ticks": 52200,
                    "time": 90.62496374999999,
                    "velocity": 0.7559055118110236,
                },
                {
                    "duration": 0.41493038958334694,
                    "durationTicks": 239,
                    "midi": 76,
                    "name": "E5",
                    "ticks": 52200,
                    "time": 90.62496374999999,
                    "velocity": 0.7559055118110236,
                },
                {
                    "duration": 0.41493038958334694,
                    "durationTicks": 239,
                    "midi": 67,
                    "name": "G4",
                    "ticks": 52200,
                    "time": 90.62496374999999,
                    "velocity": 0.7559055118110236,
                },
                {
                    "duration": 0.20659713958333725,
                    "durationTicks": 119,
                    "midi": 76,
                    "name": "E5",
                    "ticks": 52440,
                    "time": 91.04163025,
                    "velocity": 0.7559055118110236,
                },
                {
                    "duration": 0.20659713958333725,
                    "durationTicks": 119,
                    "midi": 72,
                    "name": "C5",
                    "ticks": 52560,
                    "time": 91.24996349999999,
                    "velocity": 0.7559055118110236,
                },
                {
                    "duration": 0.20659713958333725,
                    "durationTicks": 119,
                    "midi": 67,
                    "name": "G4",
                    "ticks": 52680,
                    "time": 91.45829675,
                    "velocity": 0.7559055118110236,
                },
                {
                    "duration": 0.20659713958333725,
                    "durationTicks": 119,
                    "midi": 69,
                    "name": "A4",
                    "ticks": 52800,
                    "time": 91.66663,
                    "velocity": 0.7559055118110236,
                },
                {
                    "duration": 0.20659713958333725,
                    "durationTicks": 119,
                    "midi": 71,
                    "name": "B4",
                    "ticks": 52920,
                    "time": 91.87496325,
                    "velocity": 0.7559055118110236,
                },
                {
                    "duration": 0.20659713958333725,
                    "durationTicks": 119,
                    "midi": 72,
                    "name": "C5",
                    "ticks": 53040,
                    "time": 92.0832965,
                    "velocity": 0.7559055118110236,
                },
                {
                    "duration": 0.20659713958333725,
                    "durationTicks": 119,
                    "midi": 74,
                    "name": "D5",
                    "ticks": 53160,
                    "time": 92.29162975,
                    "velocity": 0.7559055118110236,
                },
                {
                    "duration": 0.20659713958333725,
                    "durationTicks": 119,
                    "midi": 76,
                    "name": "E5",
                    "ticks": 53280,
                    "time": 92.499963,
                    "velocity": 0.7559055118110236,
                },
                {
                    "duration": 0.20659713958333725,
                    "durationTicks": 119,
                    "midi": 74,
                    "name": "D5",
                    "ticks": 53400,
                    "time": 92.70829625,
                    "velocity": 0.7559055118110236,
                },
                {
                    "duration": 0.20659713958333725,
                    "durationTicks": 119,
                    "midi": 72,
                    "name": "C5",
                    "ticks": 53520,
                    "time": 92.9166295,
                    "velocity": 0.7559055118110236,
                },
                {
                    "duration": 0.20659713958333725,
                    "durationTicks": 119,
                    "midi": 74,
                    "name": "D5",
                    "ticks": 53640,
                    "time": 93.12496275,
                    "velocity": 0.7559055118110236,
                },
                {
                    "duration": 0.20659713958332304,
                    "durationTicks": 119,
                    "midi": 67,
                    "name": "G4",
                    "ticks": 53760,
                    "time": 93.333296,
                    "velocity": 0.7559055118110236,
                },
                {
                    "duration": 0.20659713958333725,
                    "durationTicks": 119,
                    "midi": 76,
                    "name": "E5",
                    "ticks": 53880,
                    "time": 93.54162925,
                    "velocity": 0.7559055118110236,
                },
                {
                    "duration": 0.20659713958333725,
                    "durationTicks": 119,
                    "midi": 77,
                    "name": "F5",
                    "ticks": 54000,
                    "time": 93.7499625,
                    "velocity": 0.7559055118110236,
                },
                {
                    "duration": 0.20659713958332304,
                    "durationTicks": 119,
                    "midi": 79,
                    "name": "G5",
                    "ticks": 54120,
                    "time": 93.95829575,
                    "velocity": 0.7559055118110236,
                },
                {
                    "duration": 0.20659713958333725,
                    "durationTicks": 119,
                    "midi": 81,
                    "name": "A5",
                    "ticks": 54240,
                    "time": 94.166629,
                    "velocity": 0.7559055118110236,
                },
                {
                    "duration": 0.20659713958333725,
                    "durationTicks": 119,
                    "midi": 79,
                    "name": "G5",
                    "ticks": 54360,
                    "time": 94.37496225,
                    "velocity": 0.7559055118110236,
                },
                {
                    "duration": 0.20659713958332304,
                    "durationTicks": 119,
                    "midi": 76,
                    "name": "E5",
                    "ticks": 54480,
                    "time": 94.5832955,
                    "velocity": 0.7559055118110236,
                },
                {
                    "duration": 0.20659713958333725,
                    "durationTicks": 119,
                    "midi": 77,
                    "name": "F5",
                    "ticks": 54600,
                    "time": 94.79162875,
                    "velocity": 0.7559055118110236,
                },
                {
                    "duration": 0.4149303895833327,
                    "durationTicks": 239,
                    "midi": 79,
                    "name": "G5",
                    "ticks": 54720,
                    "time": 94.999962,
                    "velocity": 0.7559055118110236,
                },
                {
                    "duration": 0.4149303895833327,
                    "durationTicks": 239,
                    "midi": 76,
                    "name": "E5",
                    "ticks": 54720,
                    "time": 94.999962,
                    "velocity": 0.7559055118110236,
                },
                {
                    "duration": 0.4149303895833327,
                    "durationTicks": 239,
                    "midi": 67,
                    "name": "G4",
                    "ticks": 54720,
                    "time": 94.999962,
                    "velocity": 0.7559055118110236,
                },
                {
                    "duration": 0.20659713958333725,
                    "durationTicks": 119,
                    "midi": 81,
                    "name": "A5",
                    "ticks": 54960,
                    "time": 95.4166285,
                    "velocity": 0.7559055118110236,
                },
                {
                    "duration": 0.20659713958333725,
                    "durationTicks": 119,
                    "midi": 76,
                    "name": "E5",
                    "ticks": 54960,
                    "time": 95.4166285,
                    "velocity": 0.7559055118110236,
                },
                {
                    "duration": 0.20659713958333725,
                    "durationTicks": 119,
                    "midi": 69,
                    "name": "A4",
                    "ticks": 54960,
                    "time": 95.4166285,
                    "velocity": 0.7559055118110236,
                },
                {
                    "duration": 0.4149303895833327,
                    "durationTicks": 239,
                    "midi": 79,
                    "name": "G5",
                    "ticks": 55080,
                    "time": 95.62496175,
                    "velocity": 0.7559055118110236,
                },
                {
                    "duration": 0.4149303895833327,
                    "durationTicks": 239,
                    "midi": 76,
                    "name": "E5",
                    "ticks": 55080,
                    "time": 95.62496175,
                    "velocity": 0.7559055118110236,
                },
                {
                    "duration": 0.4149303895833327,
                    "durationTicks": 239,
                    "midi": 67,
                    "name": "G4",
                    "ticks": 55080,
                    "time": 95.62496175,
                    "velocity": 0.7559055118110236,
                },
                {
                    "duration": 0.20659713958333725,
                    "durationTicks": 119,
                    "midi": 76,
                    "name": "E5",
                    "ticks": 55320,
                    "time": 96.04162825,
                    "velocity": 0.7559055118110236,
                },
                {
                    "duration": 0.20659713958333725,
                    "durationTicks": 119,
                    "midi": 72,
                    "name": "C5",
                    "ticks": 55320,
                    "time": 96.04162825,
                    "velocity": 0.7559055118110236,
                },
                {
                    "duration": 0.20659713958333725,
                    "durationTicks": 119,
                    "midi": 64,
                    "name": "E4",
                    "ticks": 55320,
                    "time": 96.04162825,
                    "velocity": 0.7559055118110236,
                },
                {
                    "duration": 0.20659713958333725,
                    "durationTicks": 119,
                    "midi": 77,
                    "name": "F5",
                    "ticks": 55440,
                    "time": 96.2499615,
                    "velocity": 0.7559055118110236,
                },
                {
                    "duration": 0.20659713958333725,
                    "durationTicks": 119,
                    "midi": 74,
                    "name": "D5",
                    "ticks": 55440,
                    "time": 96.2499615,
                    "velocity": 0.7559055118110236,
                },
                {
                    "duration": 0.20659713958333725,
                    "durationTicks": 119,
                    "midi": 65,
                    "name": "F4",
                    "ticks": 55440,
                    "time": 96.2499615,
                    "velocity": 0.7559055118110236,
                },
                {
                    "duration": 0.20659713958333725,
                    "durationTicks": 119,
                    "midi": 78,
                    "name": "F#5",
                    "ticks": 55560,
                    "time": 96.45829475,
                    "velocity": 0.7559055118110236,
                },
                {
                    "duration": 0.20659713958333725,
                    "durationTicks": 119,
                    "midi": 75,
                    "name": "D#5",
                    "ticks": 55560,
                    "time": 96.45829475,
                    "velocity": 0.7559055118110236,
                },
                {
                    "duration": 0.20659713958333725,
                    "durationTicks": 119,
                    "midi": 66,
                    "name": "F#4",
                    "ticks": 55560,
                    "time": 96.45829475,
                    "velocity": 0.7559055118110236,
                },
                {
                    "duration": 0.4149303895833327,
                    "durationTicks": 239,
                    "midi": 79,
                    "name": "G5",
                    "ticks": 55680,
                    "time": 96.666628,
                    "velocity": 0.7559055118110236,
                },
                {
                    "duration": 0.4149303895833327,
                    "durationTicks": 239,
                    "midi": 76,
                    "name": "E5",
                    "ticks": 55680,
                    "time": 96.666628,
                    "velocity": 0.7559055118110236,
                },
                {
                    "duration": 0.4149303895833327,
                    "durationTicks": 239,
                    "midi": 67,
                    "name": "G4",
                    "ticks": 55680,
                    "time": 96.666628,
                    "velocity": 0.7559055118110236,
                },
                {
                    "duration": 0.20659713958333725,
                    "durationTicks": 119,
                    "midi": 81,
                    "name": "A5",
                    "ticks": 55920,
                    "time": 97.0832945,
                    "velocity": 0.7559055118110236,
                },
                {
                    "duration": 0.20659713958333725,
                    "durationTicks": 119,
                    "midi": 76,
                    "name": "E5",
                    "ticks": 55920,
                    "time": 97.0832945,
                    "velocity": 0.7559055118110236,
                },
                {
                    "duration": 0.20659713958333725,
                    "durationTicks": 119,
                    "midi": 69,
                    "name": "A4",
                    "ticks": 55920,
                    "time": 97.0832945,
                    "velocity": 0.7559055118110236,
                },
                {
                    "duration": 0.4149303895833327,
                    "durationTicks": 239,
                    "midi": 79,
                    "name": "G5",
                    "ticks": 56040,
                    "time": 97.29162775,
                    "velocity": 0.7559055118110236,
                },
                {
                    "duration": 0.4149303895833327,
                    "durationTicks": 239,
                    "midi": 76,
                    "name": "E5",
                    "ticks": 56040,
                    "time": 97.29162775,
                    "velocity": 0.7559055118110236,
                },
                {
                    "duration": 0.4149303895833327,
                    "durationTicks": 239,
                    "midi": 67,
                    "name": "G4",
                    "ticks": 56040,
                    "time": 97.29162775,
                    "velocity": 0.7559055118110236,
                },
                {
                    "duration": 0.20659713958333725,
                    "durationTicks": 119,
                    "midi": 79,
                    "name": "G5",
                    "ticks": 56280,
                    "time": 97.70829425,
                    "velocity": 0.7559055118110236,
                },
                {
                    "duration": 0.20659713958332304,
                    "durationTicks": 119,
                    "midi": 81,
                    "name": "A5",
                    "ticks": 56400,
                    "time": 97.9166275,
                    "velocity": 0.7559055118110236,
                },
                {
                    "duration": 0.20659713958333725,
                    "durationTicks": 119,
                    "midi": 82,
                    "name": "A#5",
                    "ticks": 56520,
                    "time": 98.12496075,
                    "velocity": 0.7559055118110236,
                },
                {
                    "duration": 0.20659713958333725,
                    "durationTicks": 119,
                    "midi": 83,
                    "name": "B5",
                    "ticks": 56640,
                    "time": 98.333294,
                    "velocity": 0.7559055118110236,
                },
                {
                    "duration": 0.20659713958333725,
                    "durationTicks": 119,
                    "midi": 79,
                    "name": "G5",
                    "ticks": 56640,
                    "time": 98.333294,
                    "velocity": 0.7559055118110236,
                },
                {
                    "duration": 0.20659713958333725,
                    "durationTicks": 119,
                    "midi": 74,
                    "name": "D5",
                    "ticks": 56640,
                    "time": 98.333294,
                    "velocity": 0.7559055118110236,
                },
                {
                    "duration": 0.4149303895833327,
                    "durationTicks": 239,
                    "midi": 83,
                    "name": "B5",
                    "ticks": 56760,
                    "time": 98.54162725,
                    "velocity": 0.7559055118110236,
                },
                {
                    "duration": 0.4149303895833327,
                    "durationTicks": 239,
                    "midi": 79,
                    "name": "G5",
                    "ticks": 56760,
                    "time": 98.54162725,
                    "velocity": 0.7559055118110236,
                },
                {
                    "duration": 0.4149303895833327,
                    "durationTicks": 239,
                    "midi": 74,
                    "name": "D5",
                    "ticks": 56760,
                    "time": 98.54162725,
                    "velocity": 0.7559055118110236,
                },
                {
                    "duration": 0.4149303895833327,
                    "durationTicks": 239,
                    "midi": 83,
                    "name": "B5",
                    "ticks": 57000,
                    "time": 98.95829375,
                    "velocity": 0.7559055118110236,
                },
                {
                    "duration": 0.4149303895833327,
                    "durationTicks": 239,
                    "midi": 78,
                    "name": "F#5",
                    "ticks": 57000,
                    "time": 98.95829375,
                    "velocity": 0.7559055118110236,
                },
                {
                    "duration": 0.4149303895833327,
                    "durationTicks": 239,
                    "midi": 72,
                    "name": "C5",
                    "ticks": 57000,
                    "time": 98.95829375,
                    "velocity": 0.7559055118110236,
                },
                {
                    "duration": 0.20659713958333725,
                    "durationTicks": 119,
                    "midi": 81,
                    "name": "A5",
                    "ticks": 57240,
                    "time": 99.37496025,
                    "velocity": 0.7559055118110236,
                },
                {
                    "duration": 0.20659713958333725,
                    "durationTicks": 119,
                    "midi": 77,
                    "name": "F5",
                    "ticks": 57360,
                    "time": 99.5832935,
                    "velocity": 0.7559055118110236,
                },
                {
                    "duration": 0.20659713958333725,
                    "durationTicks": 119,
                    "midi": 72,
                    "name": "C5",
                    "ticks": 57360,
                    "time": 99.5832935,
                    "velocity": 0.7559055118110236,
                },
                {
                    "duration": 0.20659713958333725,
                    "durationTicks": 119,
                    "midi": 74,
                    "name": "D5",
                    "ticks": 57480,
                    "time": 99.79162674999999,
                    "velocity": 0.7559055118110236,
                },
                {
                    "duration": 1.0399301395833334,
                    "durationTicks": 599,
                    "midi": 79,
                    "name": "G5",
                    "ticks": 57600,
                    "time": 99.99996,
                    "velocity": 0.7559055118110236,
                },
                {
                    "duration": 1.0399301395833334,
                    "durationTicks": 599,
                    "midi": 71,
                    "name": "B4",
                    "ticks": 57600,
                    "time": 99.99996,
                    "velocity": 0.7559055118110236,
                },
                {
                    "duration": 0.20659713958333725,
                    "durationTicks": 119,
                    "midi": 76,
                    "name": "E5",
                    "ticks": 58200,
                    "time": 101.04162625,
                    "velocity": 0.7559055118110236,
                },
                {
                    "duration": 0.20659713958333725,
                    "durationTicks": 119,
                    "midi": 72,
                    "name": "C5",
                    "ticks": 58200,
                    "time": 101.04162625,
                    "velocity": 0.7559055118110236,
                },
                {
                    "duration": 0.20659713958333725,
                    "durationTicks": 119,
                    "midi": 64,
                    "name": "E4",
                    "ticks": 58200,
                    "time": 101.04162625,
                    "velocity": 0.7559055118110236,
                },
                {
                    "duration": 0.20659713958333725,
                    "durationTicks": 119,
                    "midi": 77,
                    "name": "F5",
                    "ticks": 58320,
                    "time": 101.2499595,
                    "velocity": 0.7559055118110236,
                },
                {
                    "duration": 0.20659713958333725,
                    "durationTicks": 119,
                    "midi": 74,
                    "name": "D5",
                    "ticks": 58320,
                    "time": 101.2499595,
                    "velocity": 0.7559055118110236,
                },
                {
                    "duration": 0.20659713958333725,
                    "durationTicks": 119,
                    "midi": 65,
                    "name": "F4",
                    "ticks": 58320,
                    "time": 101.2499595,
                    "velocity": 0.7559055118110236,
                },
                {
                    "duration": 0.20659713958333725,
                    "durationTicks": 119,
                    "midi": 78,
                    "name": "F#5",
                    "ticks": 58440,
                    "time": 101.45829275,
                    "velocity": 0.7559055118110236,
                },
                {
                    "duration": 0.20659713958333725,
                    "durationTicks": 119,
                    "midi": 75,
                    "name": "D#5",
                    "ticks": 58440,
                    "time": 101.45829275,
                    "velocity": 0.7559055118110236,
                },
                {
                    "duration": 0.20659713958333725,
                    "durationTicks": 119,
                    "midi": 66,
                    "name": "F#4",
                    "ticks": 58440,
                    "time": 101.45829275,
                    "velocity": 0.7559055118110236,
                },
                {
                    "duration": 0.41493038958334694,
                    "durationTicks": 239,
                    "midi": 79,
                    "name": "G5",
                    "ticks": 58560,
                    "time": 101.666626,
                    "velocity": 0.3858267716535433,
                },
                {
                    "duration": 0.41493038958334694,
                    "durationTicks": 239,
                    "midi": 76,
                    "name": "E5",
                    "ticks": 58560,
                    "time": 101.666626,
                    "velocity": 0.3858267716535433,
                },
                {
                    "duration": 0.41493038958334694,
                    "durationTicks": 239,
                    "midi": 67,
                    "name": "G4",
                    "ticks": 58560,
                    "time": 101.666626,
                    "velocity": 0.3858267716535433,
                },
                {
                    "duration": 0.20659713958333725,
                    "durationTicks": 119,
                    "midi": 81,
                    "name": "A5",
                    "ticks": 58800,
                    "time": 102.0832925,
                    "velocity": 0.3858267716535433,
                },
                {
                    "duration": 0.20659713958333725,
                    "durationTicks": 119,
                    "midi": 76,
                    "name": "E5",
                    "ticks": 58800,
                    "time": 102.0832925,
                    "velocity": 0.3858267716535433,
                },
                {
                    "duration": 0.20659713958333725,
                    "durationTicks": 119,
                    "midi": 69,
                    "name": "A4",
                    "ticks": 58800,
                    "time": 102.0832925,
                    "velocity": 0.3858267716535433,
                },
                {
                    "duration": 0.4149303895833327,
                    "durationTicks": 239,
                    "midi": 79,
                    "name": "G5",
                    "ticks": 58920,
                    "time": 102.29162575,
                    "velocity": 0.3858267716535433,
                },
                {
                    "duration": 0.4149303895833327,
                    "durationTicks": 239,
                    "midi": 76,
                    "name": "E5",
                    "ticks": 58920,
                    "time": 102.29162575,
                    "velocity": 0.3858267716535433,
                },
                {
                    "duration": 0.4149303895833327,
                    "durationTicks": 239,
                    "midi": 67,
                    "name": "G4",
                    "ticks": 58920,
                    "time": 102.29162575,
                    "velocity": 0.3858267716535433,
                },
                {
                    "duration": 0.20659713958333725,
                    "durationTicks": 119,
                    "midi": 76,
                    "name": "E5",
                    "ticks": 59160,
                    "time": 102.70829225,
                    "velocity": 0.3858267716535433,
                },
                {
                    "duration": 0.20659713958333725,
                    "durationTicks": 119,
                    "midi": 72,
                    "name": "C5",
                    "ticks": 59160,
                    "time": 102.70829225,
                    "velocity": 0.3858267716535433,
                },
                {
                    "duration": 0.20659713958333725,
                    "durationTicks": 119,
                    "midi": 64,
                    "name": "E4",
                    "ticks": 59160,
                    "time": 102.70829225,
                    "velocity": 0.3858267716535433,
                },
                {
                    "duration": 0.20659713958333725,
                    "durationTicks": 119,
                    "midi": 77,
                    "name": "F5",
                    "ticks": 59280,
                    "time": 102.9166255,
                    "velocity": 0.3858267716535433,
                },
                {
                    "duration": 0.20659713958333725,
                    "durationTicks": 119,
                    "midi": 74,
                    "name": "D5",
                    "ticks": 59280,
                    "time": 102.9166255,
                    "velocity": 0.3858267716535433,
                },
                {
                    "duration": 0.20659713958333725,
                    "durationTicks": 119,
                    "midi": 65,
                    "name": "F4",
                    "ticks": 59280,
                    "time": 102.9166255,
                    "velocity": 0.3858267716535433,
                },
                {
                    "duration": 0.20659713958332304,
                    "durationTicks": 119,
                    "midi": 78,
                    "name": "F#5",
                    "ticks": 59400,
                    "time": 103.12495875,
                    "velocity": 0.3858267716535433,
                },
                {
                    "duration": 0.20659713958332304,
                    "durationTicks": 119,
                    "midi": 75,
                    "name": "D#5",
                    "ticks": 59400,
                    "time": 103.12495875,
                    "velocity": 0.3858267716535433,
                },
                {
                    "duration": 0.20659713958332304,
                    "durationTicks": 119,
                    "midi": 66,
                    "name": "F#4",
                    "ticks": 59400,
                    "time": 103.12495875,
                    "velocity": 0.3858267716535433,
                },
                {
                    "duration": 0.4149303895833327,
                    "durationTicks": 239,
                    "midi": 79,
                    "name": "G5",
                    "ticks": 59520,
                    "time": 103.333292,
                    "velocity": 0.3858267716535433,
                },
                {
                    "duration": 0.4149303895833327,
                    "durationTicks": 239,
                    "midi": 76,
                    "name": "E5",
                    "ticks": 59520,
                    "time": 103.333292,
                    "velocity": 0.3858267716535433,
                },
                {
                    "duration": 0.4149303895833327,
                    "durationTicks": 239,
                    "midi": 67,
                    "name": "G4",
                    "ticks": 59520,
                    "time": 103.333292,
                    "velocity": 0.3858267716535433,
                },
                {
                    "duration": 0.20659713958332304,
                    "durationTicks": 119,
                    "midi": 81,
                    "name": "A5",
                    "ticks": 59760,
                    "time": 103.7499585,
                    "velocity": 0.3858267716535433,
                },
                {
                    "duration": 0.20659713958332304,
                    "durationTicks": 119,
                    "midi": 76,
                    "name": "E5",
                    "ticks": 59760,
                    "time": 103.7499585,
                    "velocity": 0.3858267716535433,
                },
                {
                    "duration": 0.20659713958332304,
                    "durationTicks": 119,
                    "midi": 69,
                    "name": "A4",
                    "ticks": 59760,
                    "time": 103.7499585,
                    "velocity": 0.3858267716535433,
                },
                {
                    "duration": 0.4149303895833327,
                    "durationTicks": 239,
                    "midi": 79,
                    "name": "G5",
                    "ticks": 59880,
                    "time": 103.95829175,
                    "velocity": 0.3858267716535433,
                },
                {
                    "duration": 0.4149303895833327,
                    "durationTicks": 239,
                    "midi": 76,
                    "name": "E5",
                    "ticks": 59880,
                    "time": 103.95829175,
                    "velocity": 0.3858267716535433,
                },
                {
                    "duration": 0.4149303895833327,
                    "durationTicks": 239,
                    "midi": 67,
                    "name": "G4",
                    "ticks": 59880,
                    "time": 103.95829175,
                    "velocity": 0.3858267716535433,
                },
                {
                    "duration": 0.20659713958333725,
                    "durationTicks": 119,
                    "midi": 76,
                    "name": "E5",
                    "ticks": 60120,
                    "time": 104.37495824999999,
                    "velocity": 0.3858267716535433,
                },
                {
                    "duration": 0.20659713958333725,
                    "durationTicks": 119,
                    "midi": 72,
                    "name": "C5",
                    "ticks": 60240,
                    "time": 104.5832915,
                    "velocity": 0.3858267716535433,
                },
                {
                    "duration": 0.20659713958333725,
                    "durationTicks": 119,
                    "midi": 67,
                    "name": "G4",
                    "ticks": 60360,
                    "time": 104.79162475,
                    "velocity": 0.3858267716535433,
                },
                {
                    "duration": 0.20659713958333725,
                    "durationTicks": 119,
                    "midi": 69,
                    "name": "A4",
                    "ticks": 60480,
                    "time": 104.99995799999999,
                    "velocity": 0.3858267716535433,
                },
                {
                    "duration": 0.20659713958333725,
                    "durationTicks": 119,
                    "midi": 71,
                    "name": "B4",
                    "ticks": 60600,
                    "time": 105.20829125,
                    "velocity": 0.3858267716535433,
                },
                {
                    "duration": 0.20659713958333725,
                    "durationTicks": 119,
                    "midi": 72,
                    "name": "C5",
                    "ticks": 60720,
                    "time": 105.4166245,
                    "velocity": 0.3858267716535433,
                },
                {
                    "duration": 0.20659713958333725,
                    "durationTicks": 119,
                    "midi": 74,
                    "name": "D5",
                    "ticks": 60840,
                    "time": 105.62495775,
                    "velocity": 0.3858267716535433,
                },
                {
                    "duration": 0.20659713958333725,
                    "durationTicks": 119,
                    "midi": 76,
                    "name": "E5",
                    "ticks": 60960,
                    "time": 105.833291,
                    "velocity": 0.3858267716535433,
                },
                {
                    "duration": 0.20659713958333725,
                    "durationTicks": 119,
                    "midi": 74,
                    "name": "D5",
                    "ticks": 61080,
                    "time": 106.04162425,
                    "velocity": 0.3858267716535433,
                },
                {
                    "duration": 0.20659713958333725,
                    "durationTicks": 119,
                    "midi": 72,
                    "name": "C5",
                    "ticks": 61200,
                    "time": 106.2499575,
                    "velocity": 0.3858267716535433,
                },
                {
                    "duration": 0.20659713958333725,
                    "durationTicks": 119,
                    "midi": 74,
                    "name": "D5",
                    "ticks": 61320,
                    "time": 106.45829075,
                    "velocity": 0.3858267716535433,
                },
                {
                    "duration": 1.0399301395833334,
                    "durationTicks": 599,
                    "midi": 72,
                    "name": "C5",
                    "ticks": 61440,
                    "time": 106.666624,
                    "velocity": 0.3858267716535433,
                },
                {
                    "duration": 0.20659713958332304,
                    "durationTicks": 119,
                    "midi": 67,
                    "name": "G4",
                    "ticks": 62040,
                    "time": 107.70829025,
                    "velocity": 0.3858267716535433,
                },
                {
                    "duration": 0.20659713958333725,
                    "durationTicks": 119,
                    "midi": 66,
                    "name": "F#4",
                    "ticks": 62160,
                    "time": 107.9166235,
                    "velocity": 0.3858267716535433,
                },
                {
                    "duration": 0.20659713958333725,
                    "durationTicks": 119,
                    "midi": 67,
                    "name": "G4",
                    "ticks": 62280,
                    "time": 108.12495675,
                    "velocity": 0.3858267716535433,
                },
                {
                    "duration": 0.4149303895833327,
                    "durationTicks": 239,
                    "midi": 72,
                    "name": "C5",
                    "ticks": 62400,
                    "time": 108.33329,
                    "velocity": 0.3858267716535433,
                },
                {
                    "duration": 0.20659713958333725,
                    "durationTicks": 119,
                    "midi": 69,
                    "name": "A4",
                    "ticks": 62640,
                    "time": 108.7499565,
                    "velocity": 0.3858267716535433,
                },
                {
                    "duration": 0.4149303895833327,
                    "durationTicks": 239,
                    "midi": 72,
                    "name": "C5",
                    "ticks": 62760,
                    "time": 108.95828975,
                    "velocity": 0.3858267716535433,
                },
                {
                    "duration": 0.20659713958333725,
                    "durationTicks": 119,
                    "midi": 69,
                    "name": "A4",
                    "ticks": 63000,
                    "time": 109.37495625,
                    "velocity": 0.3858267716535433,
                },
                {
                    "duration": 0.20659713958333725,
                    "durationTicks": 119,
                    "midi": 72,
                    "name": "C5",
                    "ticks": 63120,
                    "time": 109.58328949999999,
                    "velocity": 0.3858267716535433,
                },
                {
                    "duration": 0.20659713958333725,
                    "durationTicks": 119,
                    "midi": 69,
                    "name": "A4",
                    "ticks": 63240,
                    "time": 109.79162275,
                    "velocity": 0.3858267716535433,
                },
                {
                    "duration": 0.20659713958333725,
                    "durationTicks": 119,
                    "midi": 67,
                    "name": "G4",
                    "ticks": 63360,
                    "time": 109.999956,
                    "velocity": 0.3858267716535433,
                },
                {
                    "duration": 0.20659713958333725,
                    "durationTicks": 119,
                    "midi": 72,
                    "name": "C5",
                    "ticks": 63480,
                    "time": 110.20828924999999,
                    "velocity": 0.3858267716535433,
                },
                {
                    "duration": 0.20659713958333725,
                    "durationTicks": 119,
                    "midi": 76,
                    "name": "E5",
                    "ticks": 63600,
                    "time": 110.4166225,
                    "velocity": 0.3858267716535433,
                },
                {
                    "duration": 0.4149303895833327,
                    "durationTicks": 239,
                    "midi": 79,
                    "name": "G5",
                    "ticks": 63720,
                    "time": 110.62495575,
                    "velocity": 0.3858267716535433,
                },
                {
                    "duration": 0.20659713958333725,
                    "durationTicks": 119,
                    "midi": 76,
                    "name": "E5",
                    "ticks": 63960,
                    "time": 111.04162225,
                    "velocity": 0.3858267716535433,
                },
                {
                    "duration": 0.20659713958333725,
                    "durationTicks": 119,
                    "midi": 72,
                    "name": "C5",
                    "ticks": 64080,
                    "time": 111.2499555,
                    "velocity": 0.3858267716535433,
                },
                {
                    "duration": 0.20659713958333725,
                    "durationTicks": 119,
                    "midi": 67,
                    "name": "G4",
                    "ticks": 64200,
                    "time": 111.45828875,
                    "velocity": 0.3858267716535433,
                },
                {
                    "duration": 0.4149303895833327,
                    "durationTicks": 239,
                    "midi": 69,
                    "name": "A4",
                    "ticks": 64320,
                    "time": 111.666622,
                    "velocity": 0.3858267716535433,
                },
                {
                    "duration": 0.4149303895833327,
                    "durationTicks": 239,
                    "midi": 66,
                    "name": "F#4",
                    "ticks": 64320,
                    "time": 111.666622,
                    "velocity": 0.3858267716535433,
                },
                {
                    "duration": 0.4149303895833327,
                    "durationTicks": 239,
                    "midi": 72,
                    "name": "C5",
                    "ticks": 64560,
                    "time": 112.0832885,
                    "velocity": 0.3858267716535433,
                },
                {
                    "duration": 0.4149303895833327,
                    "durationTicks": 239,
                    "midi": 65,
                    "name": "F4",
                    "ticks": 64560,
                    "time": 112.0832885,
                    "velocity": 0.3858267716535433,
                },
                {
                    "duration": 0.20659713958333725,
                    "durationTicks": 119,
                    "midi": 76,
                    "name": "E5",
                    "ticks": 64800,
                    "time": 112.499955,
                    "velocity": 0.3858267716535433,
                },
                {
                    "duration": 0.20659713958333725,
                    "durationTicks": 119,
                    "midi": 65,
                    "name": "F4",
                    "ticks": 64800,
                    "time": 112.499955,
                    "velocity": 0.3858267716535433,
                },
                {
                    "duration": 0.4149303895833327,
                    "durationTicks": 239,
                    "midi": 74,
                    "name": "D5",
                    "ticks": 64920,
                    "time": 112.70828825,
                    "velocity": 0.3858267716535433,
                },
                {
                    "duration": 0.4149303895833327,
                    "durationTicks": 239,
                    "midi": 65,
                    "name": "F4",
                    "ticks": 64920,
                    "time": 112.70828825,
                    "velocity": 0.3858267716535433,
                },
                {
                    "duration": 0.20659713958333725,
                    "durationTicks": 119,
                    "midi": 72,
                    "name": "C5",
                    "ticks": 65160,
                    "time": 113.12495475,
                    "velocity": 0.3858267716535433,
                },
                {
                    "duration": 0.20659713958333725,
                    "durationTicks": 119,
                    "midi": 64,
                    "name": "E4",
                    "ticks": 65160,
                    "time": 113.12495475,
                    "velocity": 0.3858267716535433,
                },
                {
                    "duration": 1.248263389583343,
                    "durationTicks": 719,
                    "midi": 72,
                    "name": "C5",
                    "ticks": 65280,
                    "time": 113.333288,
                    "velocity": 0.3858267716535433,
                },
                {
                    "duration": 1.248263389583343,
                    "durationTicks": 719,
                    "midi": 64,
                    "name": "E4",
                    "ticks": 65280,
                    "time": 113.333288,
                    "velocity": 0.3858267716535433,
                },
                {
                    "duration": 0.20659713958333725,
                    "durationTicks": 119,
                    "midi": 74,
                    "name": "D5",
                    "ticks": 66000,
                    "time": 114.5832875,
                    "velocity": 0.3858267716535433,
                },
                {
                    "duration": 0.20659713958333725,
                    "durationTicks": 119,
                    "midi": 75,
                    "name": "D#5",
                    "ticks": 66120,
                    "time": 114.79162074999999,
                    "velocity": 0.3858267716535433,
                },
                {
                    "duration": 0.20659713958333725,
                    "durationTicks": 119,
                    "midi": 64,
                    "name": "E4",
                    "ticks": 66240,
                    "time": 114.999954,
                    "velocity": 0.3858267716535433,
                },
                {
                    "duration": 0.4149303895833327,
                    "durationTicks": 239,
                    "midi": 72,
                    "name": "C5",
                    "ticks": 66360,
                    "time": 115.20828725,
                    "velocity": 0.3858267716535433,
                },
                {
                    "duration": 0.20659713958333725,
                    "durationTicks": 119,
                    "midi": 64,
                    "name": "E4",
                    "ticks": 66600,
                    "time": 115.62495375,
                    "velocity": 0.3858267716535433,
                },
                {
                    "duration": 0.4149303895833327,
                    "durationTicks": 239,
                    "midi": 72,
                    "name": "C5",
                    "ticks": 66720,
                    "time": 115.833287,
                    "velocity": 0.3858267716535433,
                },
                {
                    "duration": 0.20659713958332304,
                    "durationTicks": 119,
                    "midi": 64,
                    "name": "E4",
                    "ticks": 66960,
                    "time": 116.2499535,
                    "velocity": 0.3858267716535433,
                },
                {
                    "duration": 1.2482633895833288,
                    "durationTicks": 719,
                    "midi": 72,
                    "name": "C5",
                    "ticks": 67080,
                    "time": 116.45828675,
                    "velocity": 0.3858267716535433,
                },
                {
                    "duration": 0.20659713958333725,
                    "durationTicks": 119,
                    "midi": 84,
                    "name": "C6",
                    "ticks": 67800,
                    "time": 117.70828625,
                    "velocity": 0.3858267716535433,
                },
                {
                    "duration": 0.20659713958333725,
                    "durationTicks": 119,
                    "midi": 76,
                    "name": "E5",
                    "ticks": 67800,
                    "time": 117.70828625,
                    "velocity": 0.3858267716535433,
                },
                {
                    "duration": 0.20659713958333725,
                    "durationTicks": 119,
                    "midi": 72,
                    "name": "C5",
                    "ticks": 67800,
                    "time": 117.70828625,
                    "velocity": 0.3858267716535433,
                },
                {
                    "duration": 0.20659713958333725,
                    "durationTicks": 119,
                    "midi": 86,
                    "name": "D6",
                    "ticks": 67920,
                    "time": 117.9166195,
                    "velocity": 0.3858267716535433,
                },
                {
                    "duration": 0.20659713958333725,
                    "durationTicks": 119,
                    "midi": 77,
                    "name": "F5",
                    "ticks": 67920,
                    "time": 117.9166195,
                    "velocity": 0.3858267716535433,
                },
                {
                    "duration": 0.20659713958333725,
                    "durationTicks": 119,
                    "midi": 74,
                    "name": "D5",
                    "ticks": 67920,
                    "time": 117.9166195,
                    "velocity": 0.3858267716535433,
                },
                {
                    "duration": 0.20659713958332304,
                    "durationTicks": 119,
                    "midi": 87,
                    "name": "D#6",
                    "ticks": 68040,
                    "time": 118.12495275,
                    "velocity": 0.3858267716535433,
                },
                {
                    "duration": 0.20659713958332304,
                    "durationTicks": 119,
                    "midi": 78,
                    "name": "F#5",
                    "ticks": 68040,
                    "time": 118.12495275,
                    "velocity": 0.3858267716535433,
                },
                {
                    "duration": 0.20659713958332304,
                    "durationTicks": 119,
                    "midi": 75,
                    "name": "D#5",
                    "ticks": 68040,
                    "time": 118.12495275,
                    "velocity": 0.3858267716535433,
                },
                {
                    "duration": 0.20659713958333725,
                    "durationTicks": 119,
                    "midi": 88,
                    "name": "E6",
                    "ticks": 68160,
                    "time": 118.333286,
                    "velocity": 0.3858267716535433,
                },
                {
                    "duration": 0.20659713958333725,
                    "durationTicks": 119,
                    "midi": 79,
                    "name": "G5",
                    "ticks": 68160,
                    "time": 118.333286,
                    "velocity": 0.3858267716535433,
                },
                {
                    "duration": 0.20659713958333725,
                    "durationTicks": 119,
                    "midi": 76,
                    "name": "E5",
                    "ticks": 68160,
                    "time": 118.333286,
                    "velocity": 0.3858267716535433,
                },
                {
                    "duration": 0.20659713958333725,
                    "durationTicks": 119,
                    "midi": 84,
                    "name": "C6",
                    "ticks": 68280,
                    "time": 118.54161925,
                    "velocity": 0.3858267716535433,
                },
                {
                    "duration": 0.20659713958333725,
                    "durationTicks": 119,
                    "midi": 76,
                    "name": "E5",
                    "ticks": 68280,
                    "time": 118.54161925,
                    "velocity": 0.3858267716535433,
                },
                {
                    "duration": 0.20659713958333725,
                    "durationTicks": 119,
                    "midi": 72,
                    "name": "C5",
                    "ticks": 68280,
                    "time": 118.54161925,
                    "velocity": 0.3858267716535433,
                },
                {
                    "duration": 0.20659713958333725,
                    "durationTicks": 119,
                    "midi": 77,
                    "name": "F5",
                    "ticks": 68400,
                    "time": 118.74995249999999,
                    "velocity": 0.3858267716535433,
                },
                {
                    "duration": 0.20659713958333725,
                    "durationTicks": 119,
                    "midi": 74,
                    "name": "D5",
                    "ticks": 68400,
                    "time": 118.74995249999999,
                    "velocity": 0.3858267716535433,
                },
                {
                    "duration": 0.4149303895833327,
                    "durationTicks": 239,
                    "midi": 79,
                    "name": "G5",
                    "ticks": 68520,
                    "time": 118.95828575,
                    "velocity": 0.3858267716535433,
                },
                {
                    "duration": 0.4149303895833327,
                    "durationTicks": 239,
                    "midi": 76,
                    "name": "E5",
                    "ticks": 68520,
                    "time": 118.95828575,
                    "velocity": 0.3858267716535433,
                },
                {
                    "duration": 0.20659713958333725,
                    "durationTicks": 119,
                    "midi": 74,
                    "name": "D5",
                    "ticks": 68760,
                    "time": 119.37495224999999,
                    "velocity": 0.3858267716535433,
                },
                {
                    "duration": 0.20659713958333725,
                    "durationTicks": 119,
                    "midi": 71,
                    "name": "B4",
                    "ticks": 68760,
                    "time": 119.37495224999999,
                    "velocity": 0.3858267716535433,
                },
                {
                    "duration": 0.4149303895833327,
                    "durationTicks": 239,
                    "midi": 77,
                    "name": "F5",
                    "ticks": 68880,
                    "time": 119.5832855,
                    "velocity": 0.3858267716535433,
                },
                {
                    "duration": 0.4149303895833327,
                    "durationTicks": 239,
                    "midi": 74,
                    "name": "D5",
                    "ticks": 68880,
                    "time": 119.5832855,
                    "velocity": 0.3858267716535433,
                },
                {
                    "duration": 1.248263389583343,
                    "durationTicks": 719,
                    "midi": 84,
                    "name": "C6",
                    "ticks": 69120,
                    "time": 119.999952,
                    "velocity": 0.3858267716535433,
                },
                {
                    "duration": 1.248263389583343,
                    "durationTicks": 719,
                    "midi": 76,
                    "name": "E5",
                    "ticks": 69120,
                    "time": 119.999952,
                    "velocity": 0.3858267716535433,
                },
                {
                    "duration": 1.248263389583343,
                    "durationTicks": 719,
                    "midi": 72,
                    "name": "C5",
                    "ticks": 69120,
                    "time": 119.999952,
                    "velocity": 0.3858267716535433,
                },
                {
                    "duration": 0.20659713958333725,
                    "durationTicks": 119,
                    "midi": 62,
                    "name": "D4",
                    "ticks": 69840,
                    "time": 121.2499515,
                    "velocity": 0.3858267716535433,
                },
                {
                    "duration": 0.20659713958332304,
                    "durationTicks": 119,
                    "midi": 63,
                    "name": "D#4",
                    "ticks": 69960,
                    "time": 121.45828475,
                    "velocity": 0.3858267716535433,
                },
                {
                    "duration": 0.20659713958333725,
                    "durationTicks": 119,
                    "midi": 64,
                    "name": "E4",
                    "ticks": 70080,
                    "time": 121.666618,
                    "velocity": 0.3858267716535433,
                },
                {
                    "duration": 0.4149303895833327,
                    "durationTicks": 239,
                    "midi": 72,
                    "name": "C5",
                    "ticks": 70200,
                    "time": 121.87495125,
                    "velocity": 0.3858267716535433,
                },
                {
                    "duration": 0.20659713958333725,
                    "durationTicks": 119,
                    "midi": 64,
                    "name": "E4",
                    "ticks": 70440,
                    "time": 122.29161775,
                    "velocity": 0.3858267716535433,
                },
                {
                    "duration": 0.4149303895833327,
                    "durationTicks": 239,
                    "midi": 72,
                    "name": "C5",
                    "ticks": 70560,
                    "time": 122.499951,
                    "velocity": 0.3858267716535433,
                },
                {
                    "duration": 0.20659713958333725,
                    "durationTicks": 119,
                    "midi": 64,
                    "name": "E4",
                    "ticks": 70800,
                    "time": 122.9166175,
                    "velocity": 0.3858267716535433,
                },
                {
                    "duration": 1.4565966395833385,
                    "durationTicks": 839,
                    "midi": 72,
                    "name": "C5",
                    "ticks": 70920,
                    "time": 123.12495075,
                    "velocity": 0.3858267716535433,
                },
                {
                    "duration": 0.20659713958333725,
                    "durationTicks": 119,
                    "midi": 81,
                    "name": "A5",
                    "ticks": 71760,
                    "time": 124.5832835,
                    "velocity": 0.3858267716535433,
                },
                {
                    "duration": 0.20659713958333725,
                    "durationTicks": 119,
                    "midi": 72,
                    "name": "C5",
                    "ticks": 71760,
                    "time": 124.5832835,
                    "velocity": 0.3858267716535433,
                },
                {
                    "duration": 0.20659713958333725,
                    "durationTicks": 119,
                    "midi": 69,
                    "name": "A4",
                    "ticks": 71760,
                    "time": 124.5832835,
                    "velocity": 0.3858267716535433,
                },
                {
                    "duration": 0.20659713958333725,
                    "durationTicks": 119,
                    "midi": 79,
                    "name": "G5",
                    "ticks": 71880,
                    "time": 124.79161675,
                    "velocity": 0.3858267716535433,
                },
                {
                    "duration": 0.20659713958333725,
                    "durationTicks": 119,
                    "midi": 72,
                    "name": "C5",
                    "ticks": 71880,
                    "time": 124.79161675,
                    "velocity": 0.3858267716535433,
                },
                {
                    "duration": 0.20659713958333725,
                    "durationTicks": 119,
                    "midi": 67,
                    "name": "G4",
                    "ticks": 71880,
                    "time": 124.79161675,
                    "velocity": 0.3858267716535433,
                },
                {
                    "duration": 0.20659713958333725,
                    "durationTicks": 119,
                    "midi": 78,
                    "name": "F#5",
                    "ticks": 72000,
                    "time": 124.99995,
                    "velocity": 0.3858267716535433,
                },
                {
                    "duration": 0.20659713958333725,
                    "durationTicks": 119,
                    "midi": 72,
                    "name": "C5",
                    "ticks": 72000,
                    "time": 124.99995,
                    "velocity": 0.3858267716535433,
                },
                {
                    "duration": 0.20659713958333725,
                    "durationTicks": 119,
                    "midi": 66,
                    "name": "F#4",
                    "ticks": 72000,
                    "time": 124.99995,
                    "velocity": 0.3858267716535433,
                },
                {
                    "duration": 0.20659713958333725,
                    "durationTicks": 119,
                    "midi": 81,
                    "name": "A5",
                    "ticks": 72120,
                    "time": 125.20828325,
                    "velocity": 0.3858267716535433,
                },
                {
                    "duration": 0.20659713958333725,
                    "durationTicks": 119,
                    "midi": 69,
                    "name": "A4",
                    "ticks": 72120,
                    "time": 125.20828325,
                    "velocity": 0.3858267716535433,
                },
                {
                    "duration": 0.20659713958332304,
                    "durationTicks": 119,
                    "midi": 84,
                    "name": "C6",
                    "ticks": 72240,
                    "time": 125.4166165,
                    "velocity": 0.3858267716535433,
                },
                {
                    "duration": 0.20659713958332304,
                    "durationTicks": 119,
                    "midi": 72,
                    "name": "C5",
                    "ticks": 72240,
                    "time": 125.4166165,
                    "velocity": 0.3858267716535433,
                },
                {
                    "duration": 0.4149303895833327,
                    "durationTicks": 239,
                    "midi": 88,
                    "name": "E6",
                    "ticks": 72360,
                    "time": 125.62494975,
                    "velocity": 0.3858267716535433,
                },
                {
                    "duration": 0.4149303895833327,
                    "durationTicks": 239,
                    "midi": 76,
                    "name": "E5",
                    "ticks": 72360,
                    "time": 125.62494975,
                    "velocity": 0.3858267716535433,
                },
                {
                    "duration": 0.20659713958332304,
                    "durationTicks": 119,
                    "midi": 86,
                    "name": "D6",
                    "ticks": 72600,
                    "time": 126.04161625,
                    "velocity": 0.3858267716535433,
                },
                {
                    "duration": 0.20659713958332304,
                    "durationTicks": 119,
                    "midi": 74,
                    "name": "D5",
                    "ticks": 72600,
                    "time": 126.04161625,
                    "velocity": 0.3858267716535433,
                },
                {
                    "duration": 0.20659713958333725,
                    "durationTicks": 119,
                    "midi": 84,
                    "name": "C6",
                    "ticks": 72720,
                    "time": 126.2499495,
                    "velocity": 0.3858267716535433,
                },
                {
                    "duration": 0.20659713958333725,
                    "durationTicks": 119,
                    "midi": 72,
                    "name": "C5",
                    "ticks": 72720,
                    "time": 126.2499495,
                    "velocity": 0.3858267716535433,
                },
                {
                    "duration": 0.20659713958333725,
                    "durationTicks": 119,
                    "midi": 81,
                    "name": "A5",
                    "ticks": 72840,
                    "time": 126.45828275,
                    "velocity": 0.3858267716535433,
                },
                {
                    "duration": 0.20659713958333725,
                    "durationTicks": 119,
                    "midi": 69,
                    "name": "A4",
                    "ticks": 72840,
                    "time": 126.45828275,
                    "velocity": 0.3858267716535433,
                },
                {
                    "duration": 1.2482633895833288,
                    "durationTicks": 719,
                    "midi": 86,
                    "name": "D6",
                    "ticks": 72960,
                    "time": 126.666616,
                    "velocity": 0.3858267716535433,
                },
                {
                    "duration": 1.2482633895833288,
                    "durationTicks": 719,
                    "midi": 77,
                    "name": "F5",
                    "ticks": 72960,
                    "time": 126.666616,
                    "velocity": 0.3858267716535433,
                },
                {
                    "duration": 1.2482633895833288,
                    "durationTicks": 719,
                    "midi": 74,
                    "name": "D5",
                    "ticks": 72960,
                    "time": 126.666616,
                    "velocity": 0.3858267716535433,
                },
                {
                    "duration": 0.20659713958333725,
                    "durationTicks": 119,
                    "midi": 62,
                    "name": "D4",
                    "ticks": 73680,
                    "time": 127.91661549999999,
                    "velocity": 0.3858267716535433,
                },
                {
                    "duration": 0.20659713958335146,
                    "durationTicks": 119,
                    "midi": 63,
                    "name": "D#4",
                    "ticks": 73800,
                    "time": 128.12494875,
                    "velocity": 0.3858267716535433,
                },
                {
                    "duration": 0.20659713958332304,
                    "durationTicks": 119,
                    "midi": 64,
                    "name": "E4",
                    "ticks": 73920,
                    "time": 128.333282,
                    "velocity": 0.3858267716535433,
                },
                {
                    "duration": 0.4149303895833327,
                    "durationTicks": 239,
                    "midi": 72,
                    "name": "C5",
                    "ticks": 74040,
                    "time": 128.54161525,
                    "velocity": 0.3858267716535433,
                },
                {
                    "duration": 0.20659713958332304,
                    "durationTicks": 119,
                    "midi": 64,
                    "name": "E4",
                    "ticks": 74280,
                    "time": 128.95828175,
                    "velocity": 0.3858267716535433,
                },
                {
                    "duration": 0.4149303895833327,
                    "durationTicks": 239,
                    "midi": 72,
                    "name": "C5",
                    "ticks": 74400,
                    "time": 129.166615,
                    "velocity": 0.3858267716535433,
                },
                {
                    "duration": 0.20659713958332304,
                    "durationTicks": 119,
                    "midi": 64,
                    "name": "E4",
                    "ticks": 74640,
                    "time": 129.5832815,
                    "velocity": 0.3858267716535433,
                },
                {
                    "duration": 1.2482633895833146,
                    "durationTicks": 719,
                    "midi": 72,
                    "name": "C5",
                    "ticks": 74760,
                    "time": 129.79161475,
                    "velocity": 0.3858267716535433,
                },
                {
                    "duration": 0.20659713958332304,
                    "durationTicks": 119,
                    "midi": 84,
                    "name": "C6",
                    "ticks": 75480,
                    "time": 131.04161425,
                    "velocity": 0.3858267716535433,
                },
                {
                    "duration": 0.20659713958332304,
                    "durationTicks": 119,
                    "midi": 76,
                    "name": "E5",
                    "ticks": 75480,
                    "time": 131.04161425,
                    "velocity": 0.3858267716535433,
                },
                {
                    "duration": 0.20659713958332304,
                    "durationTicks": 119,
                    "midi": 72,
                    "name": "C5",
                    "ticks": 75480,
                    "time": 131.04161425,
                    "velocity": 0.3858267716535433,
                },
                {
                    "duration": 0.20659713958335146,
                    "durationTicks": 119,
                    "midi": 86,
                    "name": "D6",
                    "ticks": 75600,
                    "time": 131.2499475,
                    "velocity": 0.3858267716535433,
                },
                {
                    "duration": 0.20659713958335146,
                    "durationTicks": 119,
                    "midi": 77,
                    "name": "F5",
                    "ticks": 75600,
                    "time": 131.2499475,
                    "velocity": 0.3858267716535433,
                },
                {
                    "duration": 0.20659713958335146,
                    "durationTicks": 119,
                    "midi": 74,
                    "name": "D5",
                    "ticks": 75600,
                    "time": 131.2499475,
                    "velocity": 0.3858267716535433,
                },
                {
                    "duration": 0.20659713958332304,
                    "durationTicks": 119,
                    "midi": 87,
                    "name": "D#6",
                    "ticks": 75720,
                    "time": 131.45828075,
                    "velocity": 0.3858267716535433,
                },
                {
                    "duration": 0.20659713958332304,
                    "durationTicks": 119,
                    "midi": 78,
                    "name": "F#5",
                    "ticks": 75720,
                    "time": 131.45828075,
                    "velocity": 0.3858267716535433,
                },
                {
                    "duration": 0.20659713958332304,
                    "durationTicks": 119,
                    "midi": 75,
                    "name": "D#5",
                    "ticks": 75720,
                    "time": 131.45828075,
                    "velocity": 0.3858267716535433,
                },
                {
                    "duration": 0.20659713958332304,
                    "durationTicks": 119,
                    "midi": 88,
                    "name": "E6",
                    "ticks": 75840,
                    "time": 131.666614,
                    "velocity": 0.3858267716535433,
                },
                {
                    "duration": 0.20659713958332304,
                    "durationTicks": 119,
                    "midi": 79,
                    "name": "G5",
                    "ticks": 75840,
                    "time": 131.666614,
                    "velocity": 0.3858267716535433,
                },
                {
                    "duration": 0.20659713958332304,
                    "durationTicks": 119,
                    "midi": 76,
                    "name": "E5",
                    "ticks": 75840,
                    "time": 131.666614,
                    "velocity": 0.3858267716535433,
                },
                {
                    "duration": 0.20659713958335146,
                    "durationTicks": 119,
                    "midi": 84,
                    "name": "C6",
                    "ticks": 75960,
                    "time": 131.87494725,
                    "velocity": 0.3858267716535433,
                },
                {
                    "duration": 0.20659713958335146,
                    "durationTicks": 119,
                    "midi": 76,
                    "name": "E5",
                    "ticks": 75960,
                    "time": 131.87494725,
                    "velocity": 0.3858267716535433,
                },
                {
                    "duration": 0.20659713958335146,
                    "durationTicks": 119,
                    "midi": 72,
                    "name": "C5",
                    "ticks": 75960,
                    "time": 131.87494725,
                    "velocity": 0.3858267716535433,
                },
                {
                    "duration": 0.20659713958332304,
                    "durationTicks": 119,
                    "midi": 77,
                    "name": "F5",
                    "ticks": 76080,
                    "time": 132.0832805,
                    "velocity": 0.3858267716535433,
                },
                {
                    "duration": 0.20659713958332304,
                    "durationTicks": 119,
                    "midi": 74,
                    "name": "D5",
                    "ticks": 76080,
                    "time": 132.0832805,
                    "velocity": 0.3858267716535433,
                },
                {
                    "duration": 0.4149303895833327,
                    "durationTicks": 239,
                    "midi": 79,
                    "name": "G5",
                    "ticks": 76200,
                    "time": 132.29161375,
                    "velocity": 0.3858267716535433,
                },
                {
                    "duration": 0.4149303895833327,
                    "durationTicks": 239,
                    "midi": 76,
                    "name": "E5",
                    "ticks": 76200,
                    "time": 132.29161375,
                    "velocity": 0.3858267716535433,
                },
                {
                    "duration": 0.20659713958332304,
                    "durationTicks": 119,
                    "midi": 74,
                    "name": "D5",
                    "ticks": 76440,
                    "time": 132.70828025,
                    "velocity": 0.3858267716535433,
                },
                {
                    "duration": 0.20659713958332304,
                    "durationTicks": 119,
                    "midi": 71,
                    "name": "B4",
                    "ticks": 76440,
                    "time": 132.70828025,
                    "velocity": 0.3858267716535433,
                },
                {
                    "duration": 0.4149303895833327,
                    "durationTicks": 239,
                    "midi": 77,
                    "name": "F5",
                    "ticks": 76560,
                    "time": 132.9166135,
                    "velocity": 0.3858267716535433,
                },
                {
                    "duration": 0.4149303895833327,
                    "durationTicks": 239,
                    "midi": 74,
                    "name": "D5",
                    "ticks": 76560,
                    "time": 132.9166135,
                    "velocity": 0.3858267716535433,
                },
                {
                    "duration": 1.248263389583343,
                    "durationTicks": 719,
                    "midi": 84,
                    "name": "C6",
                    "ticks": 76800,
                    "time": 133.33328,
                    "velocity": 0.3858267716535433,
                },
                {
                    "duration": 1.248263389583343,
                    "durationTicks": 719,
                    "midi": 76,
                    "name": "E5",
                    "ticks": 76800,
                    "time": 133.33328,
                    "velocity": 0.3858267716535433,
                },
                {
                    "duration": 1.248263389583343,
                    "durationTicks": 719,
                    "midi": 72,
                    "name": "C5",
                    "ticks": 76800,
                    "time": 133.33328,
                    "velocity": 0.3858267716535433,
                },
                {
                    "duration": 0.20659713958332304,
                    "durationTicks": 119,
                    "midi": 84,
                    "name": "C6",
                    "ticks": 77520,
                    "time": 134.5832795,
                    "velocity": 0.3858267716535433,
                },
                {
                    "duration": 0.20659713958332304,
                    "durationTicks": 119,
                    "midi": 72,
                    "name": "C5",
                    "ticks": 77520,
                    "time": 134.5832795,
                    "velocity": 0.3858267716535433,
                },
                {
                    "duration": 0.20659713958335146,
                    "durationTicks": 119,
                    "midi": 86,
                    "name": "D6",
                    "ticks": 77640,
                    "time": 134.79161274999998,
                    "velocity": 0.3858267716535433,
                },
                {
                    "duration": 0.20659713958335146,
                    "durationTicks": 119,
                    "midi": 74,
                    "name": "D5",
                    "ticks": 77640,
                    "time": 134.79161274999998,
                    "velocity": 0.3858267716535433,
                },
                {
                    "duration": 0.20659713958335146,
                    "durationTicks": 119,
                    "midi": 88,
                    "name": "E6",
                    "ticks": 77760,
                    "time": 134.999946,
                    "velocity": 0.3858267716535433,
                },
                {
                    "duration": 0.20659713958335146,
                    "durationTicks": 119,
                    "midi": 76,
                    "name": "E5",
                    "ticks": 77760,
                    "time": 134.999946,
                    "velocity": 0.3858267716535433,
                },
                {
                    "duration": 0.20659713958332304,
                    "durationTicks": 119,
                    "midi": 84,
                    "name": "C6",
                    "ticks": 77880,
                    "time": 135.20827925,
                    "velocity": 0.3858267716535433,
                },
                {
                    "duration": 0.20659713958332304,
                    "durationTicks": 119,
                    "midi": 72,
                    "name": "C5",
                    "ticks": 77880,
                    "time": 135.20827925,
                    "velocity": 0.3858267716535433,
                },
                {
                    "duration": 0.20659713958335146,
                    "durationTicks": 119,
                    "midi": 86,
                    "name": "D6",
                    "ticks": 78000,
                    "time": 135.41661249999999,
                    "velocity": 0.3858267716535433,
                },
                {
                    "duration": 0.20659713958335146,
                    "durationTicks": 119,
                    "midi": 74,
                    "name": "D5",
                    "ticks": 78000,
                    "time": 135.41661249999999,
                    "velocity": 0.3858267716535433,
                },
                {
                    "duration": 0.4149303895833327,
                    "durationTicks": 239,
                    "midi": 88,
                    "name": "E6",
                    "ticks": 78120,
                    "time": 135.62494575,
                    "velocity": 0.3858267716535433,
                },
                {
                    "duration": 0.4149303895833327,
                    "durationTicks": 239,
                    "midi": 76,
                    "name": "E5",
                    "ticks": 78120,
                    "time": 135.62494575,
                    "velocity": 0.3858267716535433,
                },
                {
                    "duration": 0.20659713958335146,
                    "durationTicks": 119,
                    "midi": 84,
                    "name": "C6",
                    "ticks": 78360,
                    "time": 136.04161225,
                    "velocity": 0.3858267716535433,
                },
                {
                    "duration": 0.20659713958335146,
                    "durationTicks": 119,
                    "midi": 72,
                    "name": "C5",
                    "ticks": 78360,
                    "time": 136.04161225,
                    "velocity": 0.3858267716535433,
                },
                {
                    "duration": 0.20659713958335146,
                    "durationTicks": 119,
                    "midi": 86,
                    "name": "D6",
                    "ticks": 78480,
                    "time": 136.2499455,
                    "velocity": 0.3858267716535433,
                },
                {
                    "duration": 0.20659713958335146,
                    "durationTicks": 119,
                    "midi": 74,
                    "name": "D5",
                    "ticks": 78480,
                    "time": 136.2499455,
                    "velocity": 0.3858267716535433,
                },
                {
                    "duration": 0.20659713958332304,
                    "durationTicks": 119,
                    "midi": 84,
                    "name": "C6",
                    "ticks": 78600,
                    "time": 136.45827875,
                    "velocity": 0.3858267716535433,
                },
                {
                    "duration": 0.20659713958332304,
                    "durationTicks": 119,
                    "midi": 72,
                    "name": "C5",
                    "ticks": 78600,
                    "time": 136.45827875,
                    "velocity": 0.3858267716535433,
                },
                {
                    "duration": 0.20659713958335146,
                    "durationTicks": 119,
                    "midi": 88,
                    "name": "E6",
                    "ticks": 78720,
                    "time": 136.666612,
                    "velocity": 0.3858267716535433,
                },
                {
                    "duration": 0.20659713958335146,
                    "durationTicks": 119,
                    "midi": 76,
                    "name": "E5",
                    "ticks": 78720,
                    "time": 136.666612,
                    "velocity": 0.3858267716535433,
                },
                {
                    "duration": 0.20659713958332304,
                    "durationTicks": 119,
                    "midi": 84,
                    "name": "C6",
                    "ticks": 78840,
                    "time": 136.87494525,
                    "velocity": 0.3858267716535433,
                },
                {
                    "duration": 0.20659713958332304,
                    "durationTicks": 119,
                    "midi": 72,
                    "name": "C5",
                    "ticks": 78840,
                    "time": 136.87494525,
                    "velocity": 0.3858267716535433,
                },
                {
                    "duration": 0.20659713958332304,
                    "durationTicks": 119,
                    "midi": 86,
                    "name": "D6",
                    "ticks": 78960,
                    "time": 137.0832785,
                    "velocity": 0.3858267716535433,
                },
                {
                    "duration": 0.20659713958332304,
                    "durationTicks": 119,
                    "midi": 74,
                    "name": "D5",
                    "ticks": 78960,
                    "time": 137.0832785,
                    "velocity": 0.3858267716535433,
                },
                {
                    "duration": 0.4149303895833327,
                    "durationTicks": 239,
                    "midi": 88,
                    "name": "E6",
                    "ticks": 79080,
                    "time": 137.29161175,
                    "velocity": 0.3858267716535433,
                },
                {
                    "duration": 0.4149303895833327,
                    "durationTicks": 239,
                    "midi": 76,
                    "name": "E5",
                    "ticks": 79080,
                    "time": 137.29161175,
                    "velocity": 0.3858267716535433,
                },
                {
                    "duration": 0.20659713958332304,
                    "durationTicks": 119,
                    "midi": 84,
                    "name": "C6",
                    "ticks": 79320,
                    "time": 137.70827825,
                    "velocity": 0.3858267716535433,
                },
                {
                    "duration": 0.20659713958332304,
                    "durationTicks": 119,
                    "midi": 72,
                    "name": "C5",
                    "ticks": 79320,
                    "time": 137.70827825,
                    "velocity": 0.3858267716535433,
                },
                {
                    "duration": 0.20659713958335146,
                    "durationTicks": 119,
                    "midi": 86,
                    "name": "D6",
                    "ticks": 79440,
                    "time": 137.9166115,
                    "velocity": 0.3858267716535433,
                },
                {
                    "duration": 0.20659713958335146,
                    "durationTicks": 119,
                    "midi": 74,
                    "name": "D5",
                    "ticks": 79440,
                    "time": 137.9166115,
                    "velocity": 0.3858267716535433,
                },
                {
                    "duration": 0.20659713958332304,
                    "durationTicks": 119,
                    "midi": 84,
                    "name": "C6",
                    "ticks": 79560,
                    "time": 138.12494475,
                    "velocity": 0.3858267716535433,
                },
                {
                    "duration": 0.20659713958332304,
                    "durationTicks": 119,
                    "midi": 72,
                    "name": "C5",
                    "ticks": 79560,
                    "time": 138.12494475,
                    "velocity": 0.3858267716535433,
                },
                {
                    "duration": 0.20659713958332304,
                    "durationTicks": 119,
                    "midi": 88,
                    "name": "E6",
                    "ticks": 79680,
                    "time": 138.333278,
                    "velocity": 0.3858267716535433,
                },
                {
                    "duration": 0.20659713958332304,
                    "durationTicks": 119,
                    "midi": 76,
                    "name": "E5",
                    "ticks": 79680,
                    "time": 138.333278,
                    "velocity": 0.3858267716535433,
                },
                {
                    "duration": 0.20659713958335146,
                    "durationTicks": 119,
                    "midi": 84,
                    "name": "C6",
                    "ticks": 79800,
                    "time": 138.54161125,
                    "velocity": 0.3858267716535433,
                },
                {
                    "duration": 0.20659713958335146,
                    "durationTicks": 119,
                    "midi": 72,
                    "name": "C5",
                    "ticks": 79800,
                    "time": 138.54161125,
                    "velocity": 0.3858267716535433,
                },
                {
                    "duration": 0.20659713958332304,
                    "durationTicks": 119,
                    "midi": 86,
                    "name": "D6",
                    "ticks": 79920,
                    "time": 138.7499445,
                    "velocity": 0.3858267716535433,
                },
                {
                    "duration": 0.20659713958332304,
                    "durationTicks": 119,
                    "midi": 74,
                    "name": "D5",
                    "ticks": 79920,
                    "time": 138.7499445,
                    "velocity": 0.3858267716535433,
                },
                {
                    "duration": 0.4149303895833327,
                    "durationTicks": 239,
                    "midi": 88,
                    "name": "E6",
                    "ticks": 80040,
                    "time": 138.95827775,
                    "velocity": 0.3858267716535433,
                },
                {
                    "duration": 0.4149303895833327,
                    "durationTicks": 239,
                    "midi": 76,
                    "name": "E5",
                    "ticks": 80040,
                    "time": 138.95827775,
                    "velocity": 0.3858267716535433,
                },
                {
                    "duration": 0.20659713958332304,
                    "durationTicks": 119,
                    "midi": 83,
                    "name": "B5",
                    "ticks": 80280,
                    "time": 139.37494425,
                    "velocity": 0.3858267716535433,
                },
                {
                    "duration": 0.20659713958332304,
                    "durationTicks": 119,
                    "midi": 71,
                    "name": "B4",
                    "ticks": 80280,
                    "time": 139.37494425,
                    "velocity": 0.3858267716535433,
                },
                {
                    "duration": 0.4149303895833327,
                    "durationTicks": 239,
                    "midi": 86,
                    "name": "D6",
                    "ticks": 80400,
                    "time": 139.5832775,
                    "velocity": 0.3858267716535433,
                },
                {
                    "duration": 0.4149303895833327,
                    "durationTicks": 239,
                    "midi": 74,
                    "name": "D5",
                    "ticks": 80400,
                    "time": 139.5832775,
                    "velocity": 0.3858267716535433,
                },
                {
                    "duration": 0.8315968895833237,
                    "durationTicks": 479,
                    "midi": 84,
                    "name": "C6",
                    "ticks": 80640,
                    "time": 139.999944,
                    "velocity": 0.3858267716535433,
                },
                {
                    "duration": 0.8315968895833237,
                    "durationTicks": 479,
                    "midi": 76,
                    "name": "E5",
                    "ticks": 80640,
                    "time": 139.999944,
                    "velocity": 0.3858267716535433,
                },
                {
                    "duration": 0.8315968895833237,
                    "durationTicks": 479,
                    "midi": 72,
                    "name": "C5",
                    "ticks": 80640,
                    "time": 139.999944,
                    "velocity": 0.3858267716535433,
                },
                {
                    "duration": 0.4149303895833327,
                    "durationTicks": 239,
                    "midi": 84,
                    "name": "C6",
                    "ticks": 81120,
                    "time": 140.833277,
                    "velocity": 0.3858267716535433,
                },
                {
                    "duration": 0.4149303895833327,
                    "durationTicks": 239,
                    "midi": 76,
                    "name": "E5",
                    "ticks": 81120,
                    "time": 140.833277,
                    "velocity": 0.3858267716535433,
                },
                {
                    "duration": 0.4149303895833327,
                    "durationTicks": 239,
                    "midi": 72,
                    "name": "C5",
                    "ticks": 81120,
                    "time": 140.833277,
                    "velocity": 0.3858267716535433,
                },
                {
                    "duration": 0.20659713958335146,
                    "durationTicks": 119,
                    "midi": 81,
                    "name": "A5",
                    "ticks": 81600,
                    "time": 141.66661,
                    "velocity": 0.7559055118110236,
                },
                {
                    "duration": 0.20659713958335146,
                    "durationTicks": 119,
                    "midi": 77,
                    "name": "F5",
                    "ticks": 81600,
                    "time": 141.66661,
                    "velocity": 0.7559055118110236,
                },
                {
                    "duration": 0.20659713958332304,
                    "durationTicks": 119,
                    "midi": 80,
                    "name": "G#5",
                    "ticks": 81720,
                    "time": 141.87494325,
                    "velocity": 0.7559055118110236,
                },
                {
                    "duration": 0.4149303895833327,
                    "durationTicks": 239,
                    "midi": 81,
                    "name": "A5",
                    "ticks": 81840,
                    "time": 142.0832765,
                    "velocity": 0.7559055118110236,
                },
                {
                    "duration": 0.4149303895833327,
                    "durationTicks": 239,
                    "midi": 77,
                    "name": "F5",
                    "ticks": 81840,
                    "time": 142.0832765,
                    "velocity": 0.7559055118110236,
                },
                {
                    "duration": 0.4149303895833327,
                    "durationTicks": 239,
                    "midi": 81,
                    "name": "A5",
                    "ticks": 82080,
                    "time": 142.499943,
                    "velocity": 0.7559055118110236,
                },
                {
                    "duration": 0.4149303895833327,
                    "durationTicks": 239,
                    "midi": 77,
                    "name": "F5",
                    "ticks": 82080,
                    "time": 142.499943,
                    "velocity": 0.7559055118110236,
                },
                {
                    "duration": 0.4149303895833327,
                    "durationTicks": 239,
                    "midi": 84,
                    "name": "C6",
                    "ticks": 82320,
                    "time": 142.9166095,
                    "velocity": 0.7559055118110236,
                },
                {
                    "duration": 0.4149303895833327,
                    "durationTicks": 239,
                    "midi": 81,
                    "name": "A5",
                    "ticks": 82320,
                    "time": 142.9166095,
                    "velocity": 0.7559055118110236,
                },
                {
                    "duration": 0.4149303895833327,
                    "durationTicks": 239,
                    "midi": 77,
                    "name": "F5",
                    "ticks": 82320,
                    "time": 142.9166095,
                    "velocity": 0.7559055118110236,
                },
                {
                    "duration": 1.664929889583334,
                    "durationTicks": 959,
                    "midi": 86,
                    "name": "D6",
                    "ticks": 82560,
                    "time": 143.333276,
                    "velocity": 0.7559055118110236,
                },
                {
                    "duration": 1.664929889583334,
                    "durationTicks": 959,
                    "midi": 82,
                    "name": "A#5",
                    "ticks": 82560,
                    "time": 143.333276,
                    "velocity": 0.7559055118110236,
                },
                {
                    "duration": 1.664929889583334,
                    "durationTicks": 959,
                    "midi": 77,
                    "name": "F5",
                    "ticks": 82560,
                    "time": 143.333276,
                    "velocity": 0.7559055118110236,
                },
                {
                    "duration": 0.20659713958332304,
                    "durationTicks": 119,
                    "midi": 70,
                    "name": "A#4",
                    "ticks": 82800,
                    "time": 143.7499425,
                    "velocity": 0.7559055118110236,
                },
                {
                    "duration": 0.20659713958335146,
                    "durationTicks": 119,
                    "midi": 69,
                    "name": "A4",
                    "ticks": 82920,
                    "time": 143.95827574999998,
                    "velocity": 0.7559055118110236,
                },
                {
                    "duration": 0.20659713958335146,
                    "durationTicks": 119,
                    "midi": 70,
                    "name": "A#4",
                    "ticks": 83040,
                    "time": 144.166609,
                    "velocity": 0.7559055118110236,
                },
                {
                    "duration": 0.20659713958332304,
                    "durationTicks": 119,
                    "midi": 72,
                    "name": "C5",
                    "ticks": 83160,
                    "time": 144.37494225,
                    "velocity": 0.7559055118110236,
                },
                {
                    "duration": 0.41493038958336115,
                    "durationTicks": 239,
                    "midi": 74,
                    "name": "D5",
                    "ticks": 83280,
                    "time": 144.58327549999998,
                    "velocity": 0.7559055118110236,
                },
                {
                    "duration": 0.20659713958332304,
                    "durationTicks": 119,
                    "midi": 77,
                    "name": "F5",
                    "ticks": 83520,
                    "time": 144.999942,
                    "velocity": 0.7559055118110236,
                },
                {
                    "duration": 0.20659713958332304,
                    "durationTicks": 119,
                    "midi": 74,
                    "name": "D5",
                    "ticks": 83520,
                    "time": 144.999942,
                    "velocity": 0.7559055118110236,
                },
                {
                    "duration": 0.20659713958335146,
                    "durationTicks": 119,
                    "midi": 76,
                    "name": "E5",
                    "ticks": 83640,
                    "time": 145.20827524999999,
                    "velocity": 0.7559055118110236,
                },
                {
                    "duration": 0.8315968895833521,
                    "durationTicks": 479,
                    "midi": 77,
                    "name": "F5",
                    "ticks": 83760,
                    "time": 145.4166085,
                    "velocity": 0.7559055118110236,
                },
                {
                    "duration": 0.8315968895833521,
                    "durationTicks": 479,
                    "midi": 74,
                    "name": "D5",
                    "ticks": 83760,
                    "time": 145.4166085,
                    "velocity": 0.7559055118110236,
                },
                {
                    "duration": 0.4149303895833327,
                    "durationTicks": 239,
                    "midi": 81,
                    "name": "A5",
                    "ticks": 84240,
                    "time": 146.2499415,
                    "velocity": 0.7559055118110236,
                },
                {
                    "duration": 0.4149303895833327,
                    "durationTicks": 239,
                    "midi": 77,
                    "name": "F5",
                    "ticks": 84240,
                    "time": 146.2499415,
                    "velocity": 0.7559055118110236,
                },
                {
                    "duration": 0.4149303895833327,
                    "durationTicks": 239,
                    "midi": 74,
                    "name": "D5",
                    "ticks": 84240,
                    "time": 146.2499415,
                    "velocity": 0.7559055118110236,
                },
                {
                    "duration": 0.8315968895833237,
                    "durationTicks": 479,
                    "midi": 82,
                    "name": "A#5",
                    "ticks": 84480,
                    "time": 146.666608,
                    "velocity": 0.7559055118110236,
                },
                {
                    "duration": 0.8315968895833237,
                    "durationTicks": 479,
                    "midi": 79,
                    "name": "G5",
                    "ticks": 84480,
                    "time": 146.666608,
                    "velocity": 0.7559055118110236,
                },
                {
                    "duration": 0.8315968895833237,
                    "durationTicks": 479,
                    "midi": 74,
                    "name": "D5",
                    "ticks": 84480,
                    "time": 146.666608,
                    "velocity": 0.7559055118110236,
                },
                {
                    "duration": 0.20659713958335146,
                    "durationTicks": 119,
                    "midi": 67,
                    "name": "G4",
                    "ticks": 84720,
                    "time": 147.0832745,
                    "velocity": 0.7559055118110236,
                },
                {
                    "duration": 0.20659713958332304,
                    "durationTicks": 119,
                    "midi": 66,
                    "name": "F#4",
                    "ticks": 84840,
                    "time": 147.29160775,
                    "velocity": 0.7559055118110236,
                },
                {
                    "duration": 0.20659713958332304,
                    "durationTicks": 119,
                    "midi": 67,
                    "name": "G4",
                    "ticks": 84960,
                    "time": 147.499941,
                    "velocity": 0.7559055118110236,
                },
                {
                    "duration": 0.623263639583314,
                    "durationTicks": 359,
                    "midi": 82,
                    "name": "A#5",
                    "ticks": 84960,
                    "time": 147.499941,
                    "velocity": 0.7559055118110236,
                },
                {
                    "duration": 0.623263639583314,
                    "durationTicks": 359,
                    "midi": 79,
                    "name": "G5",
                    "ticks": 84960,
                    "time": 147.499941,
                    "velocity": 0.7559055118110236,
                },
                {
                    "duration": 0.623263639583314,
                    "durationTicks": 359,
                    "midi": 74,
                    "name": "D5",
                    "ticks": 84960,
                    "time": 147.499941,
                    "velocity": 0.7559055118110236,
                },
                {
                    "duration": 0.20659713958335146,
                    "durationTicks": 119,
                    "midi": 69,
                    "name": "A4",
                    "ticks": 85080,
                    "time": 147.70827425,
                    "velocity": 0.7559055118110236,
                },
                {
                    "duration": 0.4149303895833327,
                    "durationTicks": 239,
                    "midi": 70,
                    "name": "A#4",
                    "ticks": 85200,
                    "time": 147.9166075,
                    "velocity": 0.7559055118110236,
                },
                {
                    "duration": 0.20659713958332304,
                    "durationTicks": 119,
                    "midi": 79,
                    "name": "G5",
                    "ticks": 85320,
                    "time": 148.12494075,
                    "velocity": 0.7559055118110236,
                },
                {
                    "duration": 0.4149303895833327,
                    "durationTicks": 239,
                    "midi": 74,
                    "name": "D5",
                    "ticks": 85440,
                    "time": 148.333274,
                    "velocity": 0.7559055118110236,
                },
                {
                    "duration": 0.20659713958332304,
                    "durationTicks": 119,
                    "midi": 79,
                    "name": "G5",
                    "ticks": 85680,
                    "time": 148.7499405,
                    "velocity": 0.7559055118110236,
                },
                {
                    "duration": 0.4149303895833327,
                    "durationTicks": 239,
                    "midi": 74,
                    "name": "D5",
                    "ticks": 85800,
                    "time": 148.95827375,
                    "velocity": 0.7559055118110236,
                },
                {
                    "duration": 0.20659713958332304,
                    "durationTicks": 119,
                    "midi": 79,
                    "name": "G5",
                    "ticks": 86040,
                    "time": 149.37494025,
                    "velocity": 0.7559055118110236,
                },
                {
                    "duration": 0.4149303895833327,
                    "durationTicks": 239,
                    "midi": 74,
                    "name": "D5",
                    "ticks": 86160,
                    "time": 149.5832735,
                    "velocity": 0.7559055118110236,
                },
                {
                    "duration": 0.8315968895833237,
                    "durationTicks": 479,
                    "midi": 72,
                    "name": "C5",
                    "ticks": 86400,
                    "time": 149.99994,
                    "velocity": 0.7559055118110236,
                },
                {
                    "duration": 0.8315968895833521,
                    "durationTicks": 479,
                    "midi": 77,
                    "name": "F5",
                    "ticks": 86880,
                    "time": 150.833273,
                    "velocity": 0.7559055118110236,
                },
                {
                    "duration": 0.20659713958332304,
                    "durationTicks": 119,
                    "midi": 76,
                    "name": "E5",
                    "ticks": 87360,
                    "time": 151.666606,
                    "velocity": 0.7559055118110236,
                },
                {
                    "duration": 0.20659713958332304,
                    "durationTicks": 119,
                    "midi": 80,
                    "name": "G#5",
                    "ticks": 87480,
                    "time": 151.87493925,
                    "velocity": 0.7559055118110236,
                },
                {
                    "duration": 0.20659713958335146,
                    "durationTicks": 119,
                    "midi": 83,
                    "name": "B5",
                    "ticks": 87600,
                    "time": 152.0832725,
                    "velocity": 0.7559055118110236,
                },
                {
                    "duration": 0.4149303895833327,
                    "durationTicks": 239,
                    "midi": 88,
                    "name": "E6",
                    "ticks": 87720,
                    "time": 152.29160575,
                    "velocity": 0.7559055118110236,
                },
                {
                    "duration": 0.20659713958335146,
                    "durationTicks": 119,
                    "midi": 86,
                    "name": "D6",
                    "ticks": 87960,
                    "time": 152.70827225,
                    "velocity": 0.7559055118110236,
                },
                {
                    "duration": 0.20659713958332304,
                    "durationTicks": 119,
                    "midi": 82,
                    "name": "A#5",
                    "ticks": 88080,
                    "time": 152.9166055,
                    "velocity": 0.7559055118110236,
                },
                {
                    "duration": 0.20659713958335146,
                    "durationTicks": 119,
                    "midi": 84,
                    "name": "C6",
                    "ticks": 88200,
                    "time": 153.12493874999998,
                    "velocity": 0.7559055118110236,
                },
                {
                    "duration": 0.8315968895833521,
                    "durationTicks": 479,
                    "midi": 81,
                    "name": "A5",
                    "ticks": 88320,
                    "time": 153.333272,
                    "velocity": 0.7559055118110236,
                },
                {
                    "duration": 0.8315968895833237,
                    "durationTicks": 479,
                    "midi": 82,
                    "name": "A#5",
                    "ticks": 88800,
                    "time": 154.166605,
                    "velocity": 0.7559055118110236,
                },
                {
                    "duration": 0.20659713958335146,
                    "durationTicks": 119,
                    "midi": 81,
                    "name": "A5",
                    "ticks": 89280,
                    "time": 154.999938,
                    "velocity": 0.7559055118110236,
                },
                {
                    "duration": 0.20659713958335146,
                    "durationTicks": 119,
                    "midi": 77,
                    "name": "F5",
                    "ticks": 89280,
                    "time": 154.999938,
                    "velocity": 0.7559055118110236,
                },
                {
                    "duration": 0.20659713958335146,
                    "durationTicks": 119,
                    "midi": 80,
                    "name": "G#5",
                    "ticks": 89400,
                    "time": 155.20827125,
                    "velocity": 0.7559055118110236,
                },
                {
                    "duration": 0.8315968895833237,
                    "durationTicks": 479,
                    "midi": 81,
                    "name": "A5",
                    "ticks": 89520,
                    "time": 155.4166045,
                    "velocity": 0.7559055118110236,
                },
                {
                    "duration": 0.8315968895833237,
                    "durationTicks": 479,
                    "midi": 77,
                    "name": "F5",
                    "ticks": 89520,
                    "time": 155.4166045,
                    "velocity": 0.7559055118110236,
                },
                {
                    "duration": 0.4149303895833327,
                    "durationTicks": 239,
                    "midi": 84,
                    "name": "C6",
                    "ticks": 90000,
                    "time": 156.2499375,
                    "velocity": 0.7559055118110236,
                },
                {
                    "duration": 0.4149303895833327,
                    "durationTicks": 239,
                    "midi": 81,
                    "name": "A5",
                    "ticks": 90000,
                    "time": 156.2499375,
                    "velocity": 0.7559055118110236,
                },
                {
                    "duration": 0.4149303895833327,
                    "durationTicks": 239,
                    "midi": 77,
                    "name": "F5",
                    "ticks": 90000,
                    "time": 156.2499375,
                    "velocity": 0.7559055118110236,
                },
                {
                    "duration": 1.664929889583334,
                    "durationTicks": 959,
                    "midi": 86,
                    "name": "D6",
                    "ticks": 90240,
                    "time": 156.666604,
                    "velocity": 0.7559055118110236,
                },
                {
                    "duration": 1.664929889583334,
                    "durationTicks": 959,
                    "midi": 82,
                    "name": "A#5",
                    "ticks": 90240,
                    "time": 156.666604,
                    "velocity": 0.7559055118110236,
                },
                {
                    "duration": 1.664929889583334,
                    "durationTicks": 959,
                    "midi": 77,
                    "name": "F5",
                    "ticks": 90240,
                    "time": 156.666604,
                    "velocity": 0.7559055118110236,
                },
                {
                    "duration": 0.20659713958332304,
                    "durationTicks": 119,
                    "midi": 70,
                    "name": "A#4",
                    "ticks": 90480,
                    "time": 157.0832705,
                    "velocity": 0.7559055118110236,
                },
                {
                    "duration": 0.20659713958332304,
                    "durationTicks": 119,
                    "midi": 69,
                    "name": "A4",
                    "ticks": 90600,
                    "time": 157.29160375,
                    "velocity": 0.7559055118110236,
                },
                {
                    "duration": 0.20659713958335146,
                    "durationTicks": 119,
                    "midi": 70,
                    "name": "A#4",
                    "ticks": 90720,
                    "time": 157.499937,
                    "velocity": 0.7559055118110236,
                },
                {
                    "duration": 0.20659713958332304,
                    "durationTicks": 119,
                    "midi": 72,
                    "name": "C5",
                    "ticks": 90840,
                    "time": 157.70827025,
                    "velocity": 0.7559055118110236,
                },
                {
                    "duration": 0.4149303895833327,
                    "durationTicks": 239,
                    "midi": 74,
                    "name": "D5",
                    "ticks": 90960,
                    "time": 157.9166035,
                    "velocity": 0.7559055118110236,
                },
                {
                    "duration": 0.20659713958332304,
                    "durationTicks": 119,
                    "midi": 77,
                    "name": "F5",
                    "ticks": 91200,
                    "time": 158.33327,
                    "velocity": 0.7559055118110236,
                },
                {
                    "duration": 0.20659713958332304,
                    "durationTicks": 119,
                    "midi": 74,
                    "name": "D5",
                    "ticks": 91200,
                    "time": 158.33327,
                    "velocity": 0.7559055118110236,
                },
                {
                    "duration": 0.20659713958332304,
                    "durationTicks": 119,
                    "midi": 76,
                    "name": "E5",
                    "ticks": 91320,
                    "time": 158.54160325,
                    "velocity": 0.7559055118110236,
                },
                {
                    "duration": 0.8315968895833521,
                    "durationTicks": 479,
                    "midi": 77,
                    "name": "F5",
                    "ticks": 91440,
                    "time": 158.7499365,
                    "velocity": 0.7559055118110236,
                },
                {
                    "duration": 0.8315968895833521,
                    "durationTicks": 479,
                    "midi": 74,
                    "name": "D5",
                    "ticks": 91440,
                    "time": 158.7499365,
                    "velocity": 0.7559055118110236,
                },
                {
                    "duration": 0.4149303895833327,
                    "durationTicks": 239,
                    "midi": 81,
                    "name": "A5",
                    "ticks": 91920,
                    "time": 159.5832695,
                    "velocity": 0.7559055118110236,
                },
                {
                    "duration": 0.4149303895833327,
                    "durationTicks": 239,
                    "midi": 77,
                    "name": "F5",
                    "ticks": 91920,
                    "time": 159.5832695,
                    "velocity": 0.7559055118110236,
                },
                {
                    "duration": 0.4149303895833327,
                    "durationTicks": 239,
                    "midi": 74,
                    "name": "D5",
                    "ticks": 91920,
                    "time": 159.5832695,
                    "velocity": 0.7559055118110236,
                },
                {
                    "duration": 1.4565966395833527,
                    "durationTicks": 839,
                    "midi": 82,
                    "name": "A#5",
                    "ticks": 92160,
                    "time": 159.999936,
                    "velocity": 0.7559055118110236,
                },
                {
                    "duration": 1.4565966395833527,
                    "durationTicks": 839,
                    "midi": 79,
                    "name": "G5",
                    "ticks": 92160,
                    "time": 159.999936,
                    "velocity": 0.7559055118110236,
                },
                {
                    "duration": 1.4565966395833527,
                    "durationTicks": 839,
                    "midi": 74,
                    "name": "D5",
                    "ticks": 92160,
                    "time": 159.999936,
                    "velocity": 0.7559055118110236,
                },
                {
                    "duration": 0.20659713958332304,
                    "durationTicks": 119,
                    "midi": 79,
                    "name": "G5",
                    "ticks": 93000,
                    "time": 161.45826875,
                    "velocity": 0.7559055118110236,
                },
                {
                    "duration": 0.4149303895833327,
                    "durationTicks": 239,
                    "midi": 74,
                    "name": "D5",
                    "ticks": 93120,
                    "time": 161.666602,
                    "velocity": 0.7559055118110236,
                },
                {
                    "duration": 0.20659713958332304,
                    "durationTicks": 119,
                    "midi": 79,
                    "name": "G5",
                    "ticks": 93360,
                    "time": 162.0832685,
                    "velocity": 0.7559055118110236,
                },
                {
                    "duration": 0.4149303895833327,
                    "durationTicks": 239,
                    "midi": 74,
                    "name": "D5",
                    "ticks": 93480,
                    "time": 162.29160175,
                    "velocity": 0.7559055118110236,
                },
                {
                    "duration": 0.20659713958332304,
                    "durationTicks": 119,
                    "midi": 79,
                    "name": "G5",
                    "ticks": 93720,
                    "time": 162.70826825,
                    "velocity": 0.7559055118110236,
                },
                {
                    "duration": 0.41493038958336115,
                    "durationTicks": 239,
                    "midi": 74,
                    "name": "D5",
                    "ticks": 93840,
                    "time": 162.91660149999998,
                    "velocity": 0.7559055118110236,
                },
                {
                    "duration": 0.8315968895833237,
                    "durationTicks": 479,
                    "midi": 72,
                    "name": "C5",
                    "ticks": 94080,
                    "time": 163.333268,
                    "velocity": 0.7559055118110236,
                },
                {
                    "duration": 0.6232636395833424,
                    "durationTicks": 359,
                    "midi": 77,
                    "name": "F5",
                    "ticks": 94560,
                    "time": 164.16660099999999,
                    "velocity": 0.7559055118110236,
                },
                {
                    "duration": 0.6232636395833424,
                    "durationTicks": 359,
                    "midi": 70,
                    "name": "A#4",
                    "ticks": 94560,
                    "time": 164.16660099999999,
                    "velocity": 0.7559055118110236,
                },
                {
                    "duration": 0.6232636395833424,
                    "durationTicks": 359,
                    "midi": 67,
                    "name": "G4",
                    "ticks": 94560,
                    "time": 164.16660099999999,
                    "velocity": 0.7559055118110236,
                },
                {
                    "duration": 0.20659713958335146,
                    "durationTicks": 119,
                    "midi": 77,
                    "name": "F5",
                    "ticks": 94920,
                    "time": 164.79160075,
                    "velocity": 0.7559055118110236,
                },
                {
                    "duration": 0.20659713958332304,
                    "durationTicks": 119,
                    "midi": 81,
                    "name": "A5",
                    "ticks": 95040,
                    "time": 164.999934,
                    "velocity": 0.7559055118110236,
                },
                {
                    "duration": 0.20659713958332304,
                    "durationTicks": 119,
                    "midi": 72,
                    "name": "C5",
                    "ticks": 95040,
                    "time": 164.999934,
                    "velocity": 0.7559055118110236,
                },
                {
                    "duration": 0.20659713958332304,
                    "durationTicks": 119,
                    "midi": 69,
                    "name": "A4",
                    "ticks": 95040,
                    "time": 164.999934,
                    "velocity": 0.7559055118110236,
                },
                {
                    "duration": 0.4149303895833327,
                    "durationTicks": 239,
                    "midi": 84,
                    "name": "C6",
                    "ticks": 95160,
                    "time": 165.20826725,
                    "velocity": 0.7559055118110236,
                },
                {
                    "duration": 0.4149303895833327,
                    "durationTicks": 239,
                    "midi": 72,
                    "name": "C5",
                    "ticks": 95160,
                    "time": 165.20826725,
                    "velocity": 0.7559055118110236,
                },
                {
                    "duration": 0.4149303895833327,
                    "durationTicks": 239,
                    "midi": 79,
                    "name": "G5",
                    "ticks": 95400,
                    "time": 165.62493375,
                    "velocity": 0.7559055118110236,
                },
                {
                    "duration": 0.4149303895833327,
                    "durationTicks": 239,
                    "midi": 70,
                    "name": "A#4",
                    "ticks": 95400,
                    "time": 165.62493375,
                    "velocity": 0.7559055118110236,
                },
                {
                    "duration": 0.20659713958335146,
                    "durationTicks": 119,
                    "midi": 72,
                    "name": "C5",
                    "ticks": 95640,
                    "time": 166.04160025,
                    "velocity": 0.7559055118110236,
                },
                {
                    "duration": 0.20659713958332304,
                    "durationTicks": 119,
                    "midi": 74,
                    "name": "D5",
                    "ticks": 95760,
                    "time": 166.2499335,
                    "velocity": 0.7559055118110236,
                },
                {
                    "duration": 0.20659713958332304,
                    "durationTicks": 119,
                    "midi": 70,
                    "name": "A#4",
                    "ticks": 95760,
                    "time": 166.2499335,
                    "velocity": 0.7559055118110236,
                },
                {
                    "duration": 0.20659713958332304,
                    "durationTicks": 119,
                    "midi": 76,
                    "name": "E5",
                    "ticks": 95880,
                    "time": 166.45826675,
                    "velocity": 0.7559055118110236,
                },
                {
                    "duration": 0.4149303895833327,
                    "durationTicks": 239,
                    "midi": 77,
                    "name": "F5",
                    "ticks": 96000,
                    "time": 166.6666,
                    "velocity": 0.7559055118110236,
                },
                {
                    "duration": 0.4149303895833327,
                    "durationTicks": 239,
                    "midi": 69,
                    "name": "A4",
                    "ticks": 96000,
                    "time": 166.6666,
                    "velocity": 0.7559055118110236,
                },
                {
                    "duration": 0.20659713958332304,
                    "durationTicks": 119,
                    "midi": 71,
                    "name": "B4",
                    "ticks": 96240,
                    "time": 167.0832665,
                    "velocity": 0.7559055118110236,
                },
                {
                    "duration": 0.20659713958335146,
                    "durationTicks": 119,
                    "midi": 72,
                    "name": "C5",
                    "ticks": 96360,
                    "time": 167.29159975,
                    "velocity": 0.7559055118110236,
                },
                {
                    "duration": 0.20659713958332304,
                    "durationTicks": 119,
                    "midi": 74,
                    "name": "D5",
                    "ticks": 96480,
                    "time": 167.499933,
                    "velocity": 0.7559055118110236,
                },
                {
                    "duration": 0.20659713958332304,
                    "durationTicks": 119,
                    "midi": 76,
                    "name": "E5",
                    "ticks": 96600,
                    "time": 167.70826625,
                    "velocity": 0.7559055118110236,
                },
                {
                    "duration": 0.20659713958335146,
                    "durationTicks": 119,
                    "midi": 77,
                    "name": "F5",
                    "ticks": 96720,
                    "time": 167.9165995,
                    "velocity": 0.7559055118110236,
                },
                {
                    "duration": 0.20659713958332304,
                    "durationTicks": 119,
                    "midi": 79,
                    "name": "G5",
                    "ticks": 96840,
                    "time": 168.12493275,
                    "velocity": 0.7559055118110236,
                },
                {
                    "duration": 0.20659713958332304,
                    "durationTicks": 119,
                    "midi": 81,
                    "name": "A5",
                    "ticks": 96960,
                    "time": 168.333266,
                    "velocity": 0.7559055118110236,
                },
                {
                    "duration": 0.20659713958332304,
                    "durationTicks": 119,
                    "midi": 77,
                    "name": "F5",
                    "ticks": 96960,
                    "time": 168.333266,
                    "velocity": 0.7559055118110236,
                },
                {
                    "duration": 0.20659713958335146,
                    "durationTicks": 119,
                    "midi": 80,
                    "name": "G#5",
                    "ticks": 97080,
                    "time": 168.54159925,
                    "velocity": 0.7559055118110236,
                },
                {
                    "duration": 0.4149303895833327,
                    "durationTicks": 239,
                    "midi": 81,
                    "name": "A5",
                    "ticks": 97200,
                    "time": 168.7499325,
                    "velocity": 0.7559055118110236,
                },
                {
                    "duration": 0.4149303895833327,
                    "durationTicks": 239,
                    "midi": 77,
                    "name": "F5",
                    "ticks": 97200,
                    "time": 168.7499325,
                    "velocity": 0.7559055118110236,
                },
                {
                    "duration": 0.4149303895833327,
                    "durationTicks": 239,
                    "midi": 81,
                    "name": "A5",
                    "ticks": 97440,
                    "time": 169.166599,
                    "velocity": 0.7559055118110236,
                },
                {
                    "duration": 0.4149303895833327,
                    "durationTicks": 239,
                    "midi": 77,
                    "name": "F5",
                    "ticks": 97440,
                    "time": 169.166599,
                    "velocity": 0.7559055118110236,
                },
                {
                    "duration": 0.4149303895833327,
                    "durationTicks": 239,
                    "midi": 84,
                    "name": "C6",
                    "ticks": 97680,
                    "time": 169.5832655,
                    "velocity": 0.7559055118110236,
                },
                {
                    "duration": 0.4149303895833327,
                    "durationTicks": 239,
                    "midi": 81,
                    "name": "A5",
                    "ticks": 97680,
                    "time": 169.5832655,
                    "velocity": 0.7559055118110236,
                },
                {
                    "duration": 0.4149303895833327,
                    "durationTicks": 239,
                    "midi": 77,
                    "name": "F5",
                    "ticks": 97680,
                    "time": 169.5832655,
                    "velocity": 0.7559055118110236,
                },
                {
                    "duration": 1.664929889583334,
                    "durationTicks": 959,
                    "midi": 86,
                    "name": "D6",
                    "ticks": 97920,
                    "time": 169.999932,
                    "velocity": 0.7559055118110236,
                },
                {
                    "duration": 1.664929889583334,
                    "durationTicks": 959,
                    "midi": 82,
                    "name": "A#5",
                    "ticks": 97920,
                    "time": 169.999932,
                    "velocity": 0.7559055118110236,
                },
                {
                    "duration": 1.664929889583334,
                    "durationTicks": 959,
                    "midi": 77,
                    "name": "F5",
                    "ticks": 97920,
                    "time": 169.999932,
                    "velocity": 0.7559055118110236,
                },
                {
                    "duration": 0.20659713958335146,
                    "durationTicks": 119,
                    "midi": 70,
                    "name": "A#4",
                    "ticks": 98160,
                    "time": 170.4165985,
                    "velocity": 0.7559055118110236,
                },
                {
                    "duration": 0.20659713958332304,
                    "durationTicks": 119,
                    "midi": 69,
                    "name": "A4",
                    "ticks": 98280,
                    "time": 170.62493175,
                    "velocity": 0.7559055118110236,
                },
                {
                    "duration": 0.20659713958332304,
                    "durationTicks": 119,
                    "midi": 70,
                    "name": "A#4",
                    "ticks": 98400,
                    "time": 170.833265,
                    "velocity": 0.7559055118110236,
                },
                {
                    "duration": 0.20659713958335146,
                    "durationTicks": 119,
                    "midi": 72,
                    "name": "C5",
                    "ticks": 98520,
                    "time": 171.04159825,
                    "velocity": 0.7559055118110236,
                },
                {
                    "duration": 0.4149303895833327,
                    "durationTicks": 239,
                    "midi": 74,
                    "name": "D5",
                    "ticks": 98640,
                    "time": 171.2499315,
                    "velocity": 0.7559055118110236,
                },
                {
                    "duration": 0.20659713958335146,
                    "durationTicks": 119,
                    "midi": 77,
                    "name": "F5",
                    "ticks": 98880,
                    "time": 171.666598,
                    "velocity": 0.7559055118110236,
                },
                {
                    "duration": 0.20659713958335146,
                    "durationTicks": 119,
                    "midi": 74,
                    "name": "D5",
                    "ticks": 98880,
                    "time": 171.666598,
                    "velocity": 0.7559055118110236,
                },
                {
                    "duration": 0.20659713958332304,
                    "durationTicks": 119,
                    "midi": 76,
                    "name": "E5",
                    "ticks": 99000,
                    "time": 171.87493125,
                    "velocity": 0.7559055118110236,
                },
                {
                    "duration": 0.8315968895833521,
                    "durationTicks": 479,
                    "midi": 77,
                    "name": "F5",
                    "ticks": 99120,
                    "time": 172.08326449999998,
                    "velocity": 0.7559055118110236,
                },
                {
                    "duration": 0.8315968895833521,
                    "durationTicks": 479,
                    "midi": 74,
                    "name": "D5",
                    "ticks": 99120,
                    "time": 172.08326449999998,
                    "velocity": 0.7559055118110236,
                },
                {
                    "duration": 0.4149303895833327,
                    "durationTicks": 239,
                    "midi": 81,
                    "name": "A5",
                    "ticks": 99600,
                    "time": 172.9165975,
                    "velocity": 0.7559055118110236,
                },
                {
                    "duration": 0.4149303895833327,
                    "durationTicks": 239,
                    "midi": 77,
                    "name": "F5",
                    "ticks": 99600,
                    "time": 172.9165975,
                    "velocity": 0.7559055118110236,
                },
                {
                    "duration": 0.4149303895833327,
                    "durationTicks": 239,
                    "midi": 74,
                    "name": "D5",
                    "ticks": 99600,
                    "time": 172.9165975,
                    "velocity": 0.7559055118110236,
                },
                {
                    "duration": 0.8315968895833521,
                    "durationTicks": 479,
                    "midi": 82,
                    "name": "A#5",
                    "ticks": 99840,
                    "time": 173.33326399999999,
                    "velocity": 0.7559055118110236,
                },
                {
                    "duration": 0.8315968895833521,
                    "durationTicks": 479,
                    "midi": 79,
                    "name": "G5",
                    "ticks": 99840,
                    "time": 173.33326399999999,
                    "velocity": 0.7559055118110236,
                },
                {
                    "duration": 0.8315968895833521,
                    "durationTicks": 479,
                    "midi": 74,
                    "name": "D5",
                    "ticks": 99840,
                    "time": 173.33326399999999,
                    "velocity": 0.7559055118110236,
                },
                {
                    "duration": 0.20659713958332304,
                    "durationTicks": 119,
                    "midi": 67,
                    "name": "G4",
                    "ticks": 100080,
                    "time": 173.7499305,
                    "velocity": 0.7559055118110236,
                },
                {
                    "duration": 0.20659713958335146,
                    "durationTicks": 119,
                    "midi": 66,
                    "name": "F#4",
                    "ticks": 100200,
                    "time": 173.95826375,
                    "velocity": 0.7559055118110236,
                },
                {
                    "duration": 0.20659713958332304,
                    "durationTicks": 119,
                    "midi": 67,
                    "name": "G4",
                    "ticks": 100320,
                    "time": 174.166597,
                    "velocity": 0.7559055118110236,
                },
                {
                    "duration": 0.6232636395833424,
                    "durationTicks": 359,
                    "midi": 82,
                    "name": "A#5",
                    "ticks": 100320,
                    "time": 174.166597,
                    "velocity": 0.7559055118110236,
                },
                {
                    "duration": 0.6232636395833424,
                    "durationTicks": 359,
                    "midi": 79,
                    "name": "G5",
                    "ticks": 100320,
                    "time": 174.166597,
                    "velocity": 0.7559055118110236,
                },
                {
                    "duration": 0.6232636395833424,
                    "durationTicks": 359,
                    "midi": 74,
                    "name": "D5",
                    "ticks": 100320,
                    "time": 174.166597,
                    "velocity": 0.7559055118110236,
                },
                {
                    "duration": 0.20659713958332304,
                    "durationTicks": 119,
                    "midi": 69,
                    "name": "A4",
                    "ticks": 100440,
                    "time": 174.37493025,
                    "velocity": 0.7559055118110236,
                },
                {
                    "duration": 0.4149303895833327,
                    "durationTicks": 239,
                    "midi": 70,
                    "name": "A#4",
                    "ticks": 100560,
                    "time": 174.5832635,
                    "velocity": 0.7559055118110236,
                },
                {
                    "duration": 0.20659713958332304,
                    "durationTicks": 119,
                    "midi": 79,
                    "name": "G5",
                    "ticks": 100680,
                    "time": 174.79159675,
                    "velocity": 0.7559055118110236,
                },
                {
                    "duration": 0.4149303895833327,
                    "durationTicks": 239,
                    "midi": 74,
                    "name": "D5",
                    "ticks": 100800,
                    "time": 174.99993,
                    "velocity": 0.7559055118110236,
                },
                {
                    "duration": 0.20659713958332304,
                    "durationTicks": 119,
                    "midi": 79,
                    "name": "G5",
                    "ticks": 101040,
                    "time": 175.4165965,
                    "velocity": 0.7559055118110236,
                },
                {
                    "duration": 0.4149303895833327,
                    "durationTicks": 239,
                    "midi": 74,
                    "name": "D5",
                    "ticks": 101160,
                    "time": 175.62492975,
                    "velocity": 0.7559055118110236,
                },
                {
                    "duration": 0.20659713958332304,
                    "durationTicks": 119,
                    "midi": 79,
                    "name": "G5",
                    "ticks": 101400,
                    "time": 176.04159625,
                    "velocity": 0.7559055118110236,
                },
                {
                    "duration": 0.4149303895833327,
                    "durationTicks": 239,
                    "midi": 74,
                    "name": "D5",
                    "ticks": 101520,
                    "time": 176.2499295,
                    "velocity": 0.7559055118110236,
                },
                {
                    "duration": 0.8315968895833237,
                    "durationTicks": 479,
                    "midi": 72,
                    "name": "C5",
                    "ticks": 101760,
                    "time": 176.666596,
                    "velocity": 0.7559055118110236,
                },
                {
                    "duration": 0.8315968895833237,
                    "durationTicks": 479,
                    "midi": 77,
                    "name": "F5",
                    "ticks": 102240,
                    "time": 177.499929,
                    "velocity": 0.7559055118110236,
                },
                {
                    "duration": 0.20659713958335146,
                    "durationTicks": 119,
                    "midi": 76,
                    "name": "E5",
                    "ticks": 102720,
                    "time": 178.333262,
                    "velocity": 0.7559055118110236,
                },
                {
                    "duration": 0.20659713958332304,
                    "durationTicks": 119,
                    "midi": 80,
                    "name": "G#5",
                    "ticks": 102840,
                    "time": 178.54159525,
                    "velocity": 0.7559055118110236,
                },
                {
                    "duration": 0.20659713958332304,
                    "durationTicks": 119,
                    "midi": 83,
                    "name": "B5",
                    "ticks": 102960,
                    "time": 178.7499285,
                    "velocity": 0.7559055118110236,
                },
                {
                    "duration": 0.4149303895833327,
                    "durationTicks": 239,
                    "midi": 88,
                    "name": "E6",
                    "ticks": 103080,
                    "time": 178.95826175,
                    "velocity": 0.7559055118110236,
                },
                {
                    "duration": 0.20659713958332304,
                    "durationTicks": 119,
                    "midi": 86,
                    "name": "D6",
                    "ticks": 103320,
                    "time": 179.37492825,
                    "velocity": 0.7559055118110236,
                },
                {
                    "duration": 0.20659713958335146,
                    "durationTicks": 119,
                    "midi": 82,
                    "name": "A#5",
                    "ticks": 103440,
                    "time": 179.5832615,
                    "velocity": 0.7559055118110236,
                },
                {
                    "duration": 0.20659713958332304,
                    "durationTicks": 119,
                    "midi": 84,
                    "name": "C6",
                    "ticks": 103560,
                    "time": 179.79159475,
                    "velocity": 0.7559055118110236,
                },
                {
                    "duration": 0.8315968895833237,
                    "durationTicks": 479,
                    "midi": 81,
                    "name": "A5",
                    "ticks": 103680,
                    "time": 179.999928,
                    "velocity": 0.7559055118110236,
                },
                {
                    "duration": 0.8315968895833521,
                    "durationTicks": 479,
                    "midi": 82,
                    "name": "A#5",
                    "ticks": 104160,
                    "time": 180.833261,
                    "velocity": 0.7559055118110236,
                },
                {
                    "duration": 0.20659713958332304,
                    "durationTicks": 119,
                    "midi": 81,
                    "name": "A5",
                    "ticks": 104640,
                    "time": 181.666594,
                    "velocity": 0.7559055118110236,
                },
                {
                    "duration": 0.20659713958332304,
                    "durationTicks": 119,
                    "midi": 77,
                    "name": "F5",
                    "ticks": 104640,
                    "time": 181.666594,
                    "velocity": 0.7559055118110236,
                },
                {
                    "duration": 0.20659713958335146,
                    "durationTicks": 119,
                    "midi": 80,
                    "name": "G#5",
                    "ticks": 104760,
                    "time": 181.87492724999998,
                    "velocity": 0.7559055118110236,
                },
                {
                    "duration": 0.8315968895833521,
                    "durationTicks": 479,
                    "midi": 81,
                    "name": "A5",
                    "ticks": 104880,
                    "time": 182.0832605,
                    "velocity": 0.7559055118110236,
                },
                {
                    "duration": 0.8315968895833521,
                    "durationTicks": 479,
                    "midi": 77,
                    "name": "F5",
                    "ticks": 104880,
                    "time": 182.0832605,
                    "velocity": 0.7559055118110236,
                },
                {
                    "duration": 0.4149303895833327,
                    "durationTicks": 239,
                    "midi": 84,
                    "name": "C6",
                    "ticks": 105360,
                    "time": 182.9165935,
                    "velocity": 0.7559055118110236,
                },
                {
                    "duration": 0.4149303895833327,
                    "durationTicks": 239,
                    "midi": 81,
                    "name": "A5",
                    "ticks": 105360,
                    "time": 182.9165935,
                    "velocity": 0.7559055118110236,
                },
                {
                    "duration": 0.4149303895833327,
                    "durationTicks": 239,
                    "midi": 77,
                    "name": "F5",
                    "ticks": 105360,
                    "time": 182.9165935,
                    "velocity": 0.7559055118110236,
                },
                {
                    "duration": 1.664929889583334,
                    "durationTicks": 959,
                    "midi": 86,
                    "name": "D6",
                    "ticks": 105600,
                    "time": 183.33326,
                    "velocity": 0.7559055118110236,
                },
                {
                    "duration": 1.664929889583334,
                    "durationTicks": 959,
                    "midi": 82,
                    "name": "A#5",
                    "ticks": 105600,
                    "time": 183.33326,
                    "velocity": 0.7559055118110236,
                },
                {
                    "duration": 1.664929889583334,
                    "durationTicks": 959,
                    "midi": 77,
                    "name": "F5",
                    "ticks": 105600,
                    "time": 183.33326,
                    "velocity": 0.7559055118110236,
                },
                {
                    "duration": 0.20659713958335146,
                    "durationTicks": 119,
                    "midi": 70,
                    "name": "A#4",
                    "ticks": 105840,
                    "time": 183.7499265,
                    "velocity": 0.7559055118110236,
                },
                {
                    "duration": 0.20659713958332304,
                    "durationTicks": 119,
                    "midi": 69,
                    "name": "A4",
                    "ticks": 105960,
                    "time": 183.95825975,
                    "velocity": 0.7559055118110236,
                },
                {
                    "duration": 0.20659713958332304,
                    "durationTicks": 119,
                    "midi": 70,
                    "name": "A#4",
                    "ticks": 106080,
                    "time": 184.166593,
                    "velocity": 0.7559055118110236,
                },
                {
                    "duration": 0.20659713958335146,
                    "durationTicks": 119,
                    "midi": 72,
                    "name": "C5",
                    "ticks": 106200,
                    "time": 184.37492625,
                    "velocity": 0.7559055118110236,
                },
                {
                    "duration": 0.4149303895833327,
                    "durationTicks": 239,
                    "midi": 74,
                    "name": "D5",
                    "ticks": 106320,
                    "time": 184.5832595,
                    "velocity": 0.7559055118110236,
                },
                {
                    "duration": 0.20659713958335146,
                    "durationTicks": 119,
                    "midi": 77,
                    "name": "F5",
                    "ticks": 106560,
                    "time": 184.999926,
                    "velocity": 0.7559055118110236,
                },
                {
                    "duration": 0.20659713958335146,
                    "durationTicks": 119,
                    "midi": 74,
                    "name": "D5",
                    "ticks": 106560,
                    "time": 184.999926,
                    "velocity": 0.7559055118110236,
                },
                {
                    "duration": 0.20659713958332304,
                    "durationTicks": 119,
                    "midi": 76,
                    "name": "E5",
                    "ticks": 106680,
                    "time": 185.20825925,
                    "velocity": 0.7559055118110236,
                },
                {
                    "duration": 0.8315968895833237,
                    "durationTicks": 479,
                    "midi": 77,
                    "name": "F5",
                    "ticks": 106800,
                    "time": 185.4165925,
                    "velocity": 0.7559055118110236,
                },
                {
                    "duration": 0.8315968895833237,
                    "durationTicks": 479,
                    "midi": 74,
                    "name": "D5",
                    "ticks": 106800,
                    "time": 185.4165925,
                    "velocity": 0.7559055118110236,
                },
                {
                    "duration": 0.4149303895833327,
                    "durationTicks": 239,
                    "midi": 81,
                    "name": "A5",
                    "ticks": 107280,
                    "time": 186.2499255,
                    "velocity": 0.7559055118110236,
                },
                {
                    "duration": 0.4149303895833327,
                    "durationTicks": 239,
                    "midi": 77,
                    "name": "F5",
                    "ticks": 107280,
                    "time": 186.2499255,
                    "velocity": 0.7559055118110236,
                },
                {
                    "duration": 0.4149303895833327,
                    "durationTicks": 239,
                    "midi": 74,
                    "name": "D5",
                    "ticks": 107280,
                    "time": 186.2499255,
                    "velocity": 0.7559055118110236,
                },
                {
                    "duration": 1.4565966395833243,
                    "durationTicks": 839,
                    "midi": 82,
                    "name": "A#5",
                    "ticks": 107520,
                    "time": 186.666592,
                    "velocity": 0.7559055118110236,
                },
                {
                    "duration": 1.4565966395833243,
                    "durationTicks": 839,
                    "midi": 79,
                    "name": "G5",
                    "ticks": 107520,
                    "time": 186.666592,
                    "velocity": 0.7559055118110236,
                },
                {
                    "duration": 1.4565966395833243,
                    "durationTicks": 839,
                    "midi": 74,
                    "name": "D5",
                    "ticks": 107520,
                    "time": 186.666592,
                    "velocity": 0.7559055118110236,
                },
                {
                    "duration": 0.20659713958335146,
                    "durationTicks": 119,
                    "midi": 79,
                    "name": "G5",
                    "ticks": 108360,
                    "time": 188.12492475,
                    "velocity": 0.7559055118110236,
                },
                {
                    "duration": 0.4149303895833327,
                    "durationTicks": 239,
                    "midi": 74,
                    "name": "D5",
                    "ticks": 108480,
                    "time": 188.333258,
                    "velocity": 0.7559055118110236,
                },
                {
                    "duration": 0.20659713958335146,
                    "durationTicks": 119,
                    "midi": 79,
                    "name": "G5",
                    "ticks": 108720,
                    "time": 188.7499245,
                    "velocity": 0.7559055118110236,
                },
                {
                    "duration": 0.4149303895833327,
                    "durationTicks": 239,
                    "midi": 74,
                    "name": "D5",
                    "ticks": 108840,
                    "time": 188.95825775,
                    "velocity": 0.7559055118110236,
                },
                {
                    "duration": 0.20659713958335146,
                    "durationTicks": 119,
                    "midi": 79,
                    "name": "G5",
                    "ticks": 109080,
                    "time": 189.37492425,
                    "velocity": 0.7559055118110236,
                },
                {
                    "duration": 0.4149303895833327,
                    "durationTicks": 239,
                    "midi": 74,
                    "name": "D5",
                    "ticks": 109200,
                    "time": 189.5832575,
                    "velocity": 0.7559055118110236,
                },
                {
                    "duration": 0.8315968895833521,
                    "durationTicks": 479,
                    "midi": 72,
                    "name": "C5",
                    "ticks": 109440,
                    "time": 189.999924,
                    "velocity": 0.7559055118110236,
                },
                {
                    "duration": 0.6232636395833424,
                    "durationTicks": 359,
                    "midi": 77,
                    "name": "F5",
                    "ticks": 109920,
                    "time": 190.833257,
                    "velocity": 0.7559055118110236,
                },
                {
                    "duration": 0.6232636395833424,
                    "durationTicks": 359,
                    "midi": 70,
                    "name": "A#4",
                    "ticks": 109920,
                    "time": 190.833257,
                    "velocity": 0.7559055118110236,
                },
                {
                    "duration": 0.6232636395833424,
                    "durationTicks": 359,
                    "midi": 67,
                    "name": "G4",
                    "ticks": 109920,
                    "time": 190.833257,
                    "velocity": 0.7559055118110236,
                },
                {
                    "duration": 0.20659713958332304,
                    "durationTicks": 119,
                    "midi": 77,
                    "name": "F5",
                    "ticks": 110280,
                    "time": 191.45825675,
                    "velocity": 0.7559055118110236,
                },
                {
                    "duration": 0.20659713958335146,
                    "durationTicks": 119,
                    "midi": 81,
                    "name": "A5",
                    "ticks": 110400,
                    "time": 191.66658999999999,
                    "velocity": 0.7559055118110236,
                },
                {
                    "duration": 0.20659713958335146,
                    "durationTicks": 119,
                    "midi": 72,
                    "name": "C5",
                    "ticks": 110400,
                    "time": 191.66658999999999,
                    "velocity": 0.7559055118110236,
                },
                {
                    "duration": 0.20659713958335146,
                    "durationTicks": 119,
                    "midi": 69,
                    "name": "A4",
                    "ticks": 110400,
                    "time": 191.66658999999999,
                    "velocity": 0.7559055118110236,
                },
                {
                    "duration": 0.4149303895833327,
                    "durationTicks": 239,
                    "midi": 84,
                    "name": "C6",
                    "ticks": 110520,
                    "time": 191.87492325,
                    "velocity": 0.7559055118110236,
                },
                {
                    "duration": 0.4149303895833327,
                    "durationTicks": 239,
                    "midi": 72,
                    "name": "C5",
                    "ticks": 110520,
                    "time": 191.87492325,
                    "velocity": 0.7559055118110236,
                },
                {
                    "duration": 0.4149303895833327,
                    "durationTicks": 239,
                    "midi": 79,
                    "name": "G5",
                    "ticks": 110760,
                    "time": 192.29158974999999,
                    "velocity": 0.7559055118110236,
                },
                {
                    "duration": 0.4149303895833327,
                    "durationTicks": 239,
                    "midi": 70,
                    "name": "A#4",
                    "ticks": 110760,
                    "time": 192.29158974999999,
                    "velocity": 0.7559055118110236,
                },
                {
                    "duration": 0.20659713958332304,
                    "durationTicks": 119,
                    "midi": 72,
                    "name": "C5",
                    "ticks": 111000,
                    "time": 192.70825625,
                    "velocity": 0.7559055118110236,
                },
                {
                    "duration": 0.20659713958335146,
                    "durationTicks": 119,
                    "midi": 74,
                    "name": "D5",
                    "ticks": 111120,
                    "time": 192.9165895,
                    "velocity": 0.7559055118110236,
                },
                {
                    "duration": 0.20659713958335146,
                    "durationTicks": 119,
                    "midi": 70,
                    "name": "A#4",
                    "ticks": 111120,
                    "time": 192.9165895,
                    "velocity": 0.7559055118110236,
                },
                {
                    "duration": 0.20659713958332304,
                    "durationTicks": 119,
                    "midi": 76,
                    "name": "E5",
                    "ticks": 111240,
                    "time": 193.12492275,
                    "velocity": 0.7559055118110236,
                },
                {
                    "duration": 0.4149303895833327,
                    "durationTicks": 239,
                    "midi": 77,
                    "name": "F5",
                    "ticks": 111360,
                    "time": 193.333256,
                    "velocity": 0.7559055118110236,
                },
                {
                    "duration": 0.4149303895833327,
                    "durationTicks": 239,
                    "midi": 69,
                    "name": "A4",
                    "ticks": 111360,
                    "time": 193.333256,
                    "velocity": 0.7559055118110236,
                },
                {
                    "duration": 0.4149303895833327,
                    "durationTicks": 239,
                    "midi": 89,
                    "name": "F6",
                    "ticks": 111840,
                    "time": 194.166589,
                    "velocity": 0.7559055118110236,
                },
                {
                    "duration": 0.4149303895833327,
                    "durationTicks": 239,
                    "midi": 84,
                    "name": "C6",
                    "ticks": 111840,
                    "time": 194.166589,
                    "velocity": 0.7559055118110236,
                },
                {
                    "duration": 0.4149303895833327,
                    "durationTicks": 239,
                    "midi": 81,
                    "name": "A5",
                    "ticks": 111840,
                    "time": 194.166589,
                    "velocity": 0.7559055118110236,
                },
                {
                    "duration": 0.4149303895833327,
                    "durationTicks": 239,
                    "midi": 77,
                    "name": "F5",
                    "ticks": 111840,
                    "time": 194.166589,
                    "velocity": 0.7559055118110236,
                },
                {
                    "duration": 0.4149303895833327,
                    "durationTicks": 239,
                    "midi": 72,
                    "name": "C5",
                    "ticks": 112320,
                    "time": 194.999922,
                    "velocity": 0.7559055118110236,
                },
                {
                    "duration": 0.20659713958335146,
                    "durationTicks": 119,
                    "midi": 69,
                    "name": "A4",
                    "ticks": 112560,
                    "time": 195.4165885,
                    "velocity": 0.7559055118110236,
                },
                {
                    "duration": 0.4149303895833327,
                    "durationTicks": 239,
                    "midi": 72,
                    "name": "C5",
                    "ticks": 112680,
                    "time": 195.62492175,
                    "velocity": 0.7559055118110236,
                },
                {
                    "duration": 0.20659713958335146,
                    "durationTicks": 119,
                    "midi": 69,
                    "name": "A4",
                    "ticks": 112920,
                    "time": 196.04158825,
                    "velocity": 0.7559055118110236,
                },
                {
                    "duration": 0.20659713958332304,
                    "durationTicks": 119,
                    "midi": 72,
                    "name": "C5",
                    "ticks": 113040,
                    "time": 196.2499215,
                    "velocity": 0.7559055118110236,
                },
                {
                    "duration": 0.20659713958332304,
                    "durationTicks": 119,
                    "midi": 69,
                    "name": "A4",
                    "ticks": 113160,
                    "time": 196.45825475,
                    "velocity": 0.7559055118110236,
                },
                {
                    "duration": 0.20659713958335146,
                    "durationTicks": 119,
                    "midi": 67,
                    "name": "G4",
                    "ticks": 113280,
                    "time": 196.666588,
                    "velocity": 0.7559055118110236,
                },
                {
                    "duration": 0.20659713958332304,
                    "durationTicks": 119,
                    "midi": 72,
                    "name": "C5",
                    "ticks": 113400,
                    "time": 196.87492125,
                    "velocity": 0.7559055118110236,
                },
                {
                    "duration": 0.20659713958332304,
                    "durationTicks": 119,
                    "midi": 76,
                    "name": "E5",
                    "ticks": 113520,
                    "time": 197.0832545,
                    "velocity": 0.7559055118110236,
                },
                {
                    "duration": 0.4149303895833327,
                    "durationTicks": 239,
                    "midi": 79,
                    "name": "G5",
                    "ticks": 113640,
                    "time": 197.29158775,
                    "velocity": 0.7559055118110236,
                },
                {
                    "duration": 0.20659713958332304,
                    "durationTicks": 119,
                    "midi": 76,
                    "name": "E5",
                    "ticks": 113880,
                    "time": 197.70825425,
                    "velocity": 0.7559055118110236,
                },
                {
                    "duration": 0.20659713958335146,
                    "durationTicks": 119,
                    "midi": 72,
                    "name": "C5",
                    "ticks": 114000,
                    "time": 197.9165875,
                    "velocity": 0.7559055118110236,
                },
                {
                    "duration": 0.20659713958332304,
                    "durationTicks": 119,
                    "midi": 67,
                    "name": "G4",
                    "ticks": 114120,
                    "time": 198.12492075,
                    "velocity": 0.7559055118110236,
                },
                {
                    "duration": 0.4149303895833327,
                    "durationTicks": 239,
                    "midi": 69,
                    "name": "A4",
                    "ticks": 114240,
                    "time": 198.333254,
                    "velocity": 0.7559055118110236,
                },
                {
                    "duration": 0.4149303895833327,
                    "durationTicks": 239,
                    "midi": 66,
                    "name": "F#4",
                    "ticks": 114240,
                    "time": 198.333254,
                    "velocity": 0.7559055118110236,
                },
                {
                    "duration": 0.4149303895833327,
                    "durationTicks": 239,
                    "midi": 72,
                    "name": "C5",
                    "ticks": 114480,
                    "time": 198.7499205,
                    "velocity": 0.7559055118110236,
                },
                {
                    "duration": 0.4149303895833327,
                    "durationTicks": 239,
                    "midi": 66,
                    "name": "F#4",
                    "ticks": 114480,
                    "time": 198.7499205,
                    "velocity": 0.7559055118110236,
                },
                {
                    "duration": 0.20659713958335146,
                    "durationTicks": 119,
                    "midi": 76,
                    "name": "E5",
                    "ticks": 114720,
                    "time": 199.166587,
                    "velocity": 0.7559055118110236,
                },
                {
                    "duration": 0.20659713958335146,
                    "durationTicks": 119,
                    "midi": 65,
                    "name": "F4",
                    "ticks": 114720,
                    "time": 199.166587,
                    "velocity": 0.7559055118110236,
                },
                {
                    "duration": 0.4149303895833327,
                    "durationTicks": 239,
                    "midi": 74,
                    "name": "D5",
                    "ticks": 114840,
                    "time": 199.37492025,
                    "velocity": 0.7559055118110236,
                },
                {
                    "duration": 0.4149303895833327,
                    "durationTicks": 239,
                    "midi": 65,
                    "name": "F4",
                    "ticks": 114840,
                    "time": 199.37492025,
                    "velocity": 0.7559055118110236,
                },
                {
                    "duration": 0.20659713958335146,
                    "durationTicks": 119,
                    "midi": 72,
                    "name": "C5",
                    "ticks": 115080,
                    "time": 199.79158675,
                    "velocity": 0.7559055118110236,
                },
                {
                    "duration": 0.20659713958335146,
                    "durationTicks": 119,
                    "midi": 65,
                    "name": "F4",
                    "ticks": 115080,
                    "time": 199.79158675,
                    "velocity": 0.7559055118110236,
                },
                {
                    "duration": 0.8315968895833237,
                    "durationTicks": 479,
                    "midi": 72,
                    "name": "C5",
                    "ticks": 115200,
                    "time": 199.99992,
                    "velocity": 0.7559055118110236,
                },
                {
                    "duration": 0.8315968895833237,
                    "durationTicks": 479,
                    "midi": 64,
                    "name": "E4",
                    "ticks": 115200,
                    "time": 199.99992,
                    "velocity": 0.7559055118110236,
                },
                {
                    "duration": 0.41493038958336115,
                    "durationTicks": 239,
                    "midi": 84,
                    "name": "C6",
                    "ticks": 115680,
                    "time": 200.83325299999998,
                    "velocity": 0.7559055118110236,
                },
                {
                    "duration": 0.41493038958336115,
                    "durationTicks": 239,
                    "midi": 79,
                    "name": "G5",
                    "ticks": 115680,
                    "time": 200.83325299999998,
                    "velocity": 0.7559055118110236,
                },
                {
                    "duration": 0.41493038958336115,
                    "durationTicks": 239,
                    "midi": 76,
                    "name": "E5",
                    "ticks": 115680,
                    "time": 200.83325299999998,
                    "velocity": 0.7559055118110236,
                },
                {
                    "duration": 0.41493038958336115,
                    "durationTicks": 239,
                    "midi": 72,
                    "name": "C5",
                    "ticks": 115680,
                    "time": 200.83325299999998,
                    "velocity": 0.7559055118110236,
                },
                {
                    "duration": 0.4149303895833327,
                    "durationTicks": 239,
                    "midi": 65,
                    "name": "F4",
                    "ticks": 116160,
                    "time": 201.666586,
                    "velocity": 0.7559055118110236,
                },
                {
                    "duration": 0.4149303895833327,
                    "durationTicks": 239,
                    "midi": 62,
                    "name": "D4",
                    "ticks": 116160,
                    "time": 201.666586,
                    "velocity": 0.7559055118110236,
                },
                {
                    "duration": 0.20659713958335146,
                    "durationTicks": 119,
                    "midi": 64,
                    "name": "E4",
                    "ticks": 116400,
                    "time": 202.0832525,
                    "velocity": 0.7559055118110236,
                },
                {
                    "duration": 0.20659713958335146,
                    "durationTicks": 119,
                    "midi": 61,
                    "name": "C#4",
                    "ticks": 116400,
                    "time": 202.0832525,
                    "velocity": 0.7559055118110236,
                },
                {
                    "duration": 0.20659713958332304,
                    "durationTicks": 119,
                    "midi": 65,
                    "name": "F4",
                    "ticks": 116520,
                    "time": 202.29158575,
                    "velocity": 0.7559055118110236,
                },
                {
                    "duration": 0.20659713958332304,
                    "durationTicks": 119,
                    "midi": 62,
                    "name": "D4",
                    "ticks": 116520,
                    "time": 202.29158575,
                    "velocity": 0.7559055118110236,
                },
                {
                    "duration": 0.20659713958332304,
                    "durationTicks": 119,
                    "midi": 65,
                    "name": "F4",
                    "ticks": 116640,
                    "time": 202.499919,
                    "velocity": 0.7559055118110236,
                },
                {
                    "duration": 0.20659713958332304,
                    "durationTicks": 119,
                    "midi": 62,
                    "name": "D4",
                    "ticks": 116640,
                    "time": 202.499919,
                    "velocity": 0.7559055118110236,
                },
                {
                    "duration": 0.20659713958335146,
                    "durationTicks": 119,
                    "midi": 64,
                    "name": "E4",
                    "ticks": 116760,
                    "time": 202.70825225,
                    "velocity": 0.7559055118110236,
                },
                {
                    "duration": 0.20659713958335146,
                    "durationTicks": 119,
                    "midi": 61,
                    "name": "C#4",
                    "ticks": 116760,
                    "time": 202.70825225,
                    "velocity": 0.7559055118110236,
                },
                {
                    "duration": 0.4149303895833327,
                    "durationTicks": 239,
                    "midi": 65,
                    "name": "F4",
                    "ticks": 116880,
                    "time": 202.9165855,
                    "velocity": 0.7559055118110236,
                },
                {
                    "duration": 0.4149303895833327,
                    "durationTicks": 239,
                    "midi": 62,
                    "name": "D4",
                    "ticks": 116880,
                    "time": 202.9165855,
                    "velocity": 0.7559055118110236,
                },
                {
                    "duration": 0.20659713958332304,
                    "durationTicks": 119,
                    "midi": 69,
                    "name": "A4",
                    "ticks": 117240,
                    "time": 203.54158525,
                    "velocity": 0.7559055118110236,
                },
                {
                    "duration": 0.20659713958332304,
                    "durationTicks": 119,
                    "midi": 74,
                    "name": "D5",
                    "ticks": 117360,
                    "time": 203.7499185,
                    "velocity": 0.7559055118110236,
                },
                {
                    "duration": 0.20659713958332304,
                    "durationTicks": 119,
                    "midi": 65,
                    "name": "F4",
                    "ticks": 117360,
                    "time": 203.7499185,
                    "velocity": 0.7559055118110236,
                },
                {
                    "duration": 0.20659713958335146,
                    "durationTicks": 119,
                    "midi": 69,
                    "name": "A4",
                    "ticks": 117480,
                    "time": 203.95825175,
                    "velocity": 0.7559055118110236,
                },
                {
                    "duration": 0.20659713958332304,
                    "durationTicks": 119,
                    "midi": 72,
                    "name": "C5",
                    "ticks": 117600,
                    "time": 204.166585,
                    "velocity": 0.7559055118110236,
                },
                {
                    "duration": 0.20659713958332304,
                    "durationTicks": 119,
                    "midi": 74,
                    "name": "D5",
                    "ticks": 117720,
                    "time": 204.37491825,
                    "velocity": 0.7559055118110236,
                },
                {
                    "duration": 0.20659713958335146,
                    "durationTicks": 119,
                    "midi": 72,
                    "name": "C5",
                    "ticks": 117840,
                    "time": 204.5832515,
                    "velocity": 0.7559055118110236,
                },
                {
                    "duration": 0.20659713958332304,
                    "durationTicks": 119,
                    "midi": 69,
                    "name": "A4",
                    "ticks": 117960,
                    "time": 204.79158475,
                    "velocity": 0.7559055118110236,
                },
                {
                    "duration": 0.4149303895833327,
                    "durationTicks": 239,
                    "midi": 67,
                    "name": "G4",
                    "ticks": 118080,
                    "time": 204.999918,
                    "velocity": 0.7559055118110236,
                },
                {
                    "duration": 0.4149303895833327,
                    "durationTicks": 239,
                    "midi": 64,
                    "name": "E4",
                    "ticks": 118080,
                    "time": 204.999918,
                    "velocity": 0.7559055118110236,
                },
                {
                    "duration": 0.20659713958332304,
                    "durationTicks": 119,
                    "midi": 66,
                    "name": "F#4",
                    "ticks": 118320,
                    "time": 205.4165845,
                    "velocity": 0.7559055118110236,
                },
                {
                    "duration": 0.20659713958332304,
                    "durationTicks": 119,
                    "midi": 63,
                    "name": "D#4",
                    "ticks": 118320,
                    "time": 205.4165845,
                    "velocity": 0.7559055118110236,
                },
                {
                    "duration": 0.4149303895833327,
                    "durationTicks": 239,
                    "midi": 67,
                    "name": "G4",
                    "ticks": 118440,
                    "time": 205.62491775,
                    "velocity": 0.7559055118110236,
                },
                {
                    "duration": 0.4149303895833327,
                    "durationTicks": 239,
                    "midi": 64,
                    "name": "E4",
                    "ticks": 118440,
                    "time": 205.62491775,
                    "velocity": 0.7559055118110236,
                },
                {
                    "duration": 0.20659713958332304,
                    "durationTicks": 119,
                    "midi": 66,
                    "name": "F#4",
                    "ticks": 118680,
                    "time": 206.04158425,
                    "velocity": 0.7559055118110236,
                },
                {
                    "duration": 0.20659713958332304,
                    "durationTicks": 119,
                    "midi": 63,
                    "name": "D#4",
                    "ticks": 118680,
                    "time": 206.04158425,
                    "velocity": 0.7559055118110236,
                },
                {
                    "duration": 0.4149303895833327,
                    "durationTicks": 239,
                    "midi": 67,
                    "name": "G4",
                    "ticks": 118800,
                    "time": 206.2499175,
                    "velocity": 0.7559055118110236,
                },
                {
                    "duration": 0.4149303895833327,
                    "durationTicks": 239,
                    "midi": 64,
                    "name": "E4",
                    "ticks": 118800,
                    "time": 206.2499175,
                    "velocity": 0.7559055118110236,
                },
                {
                    "duration": 0.20659713958332304,
                    "durationTicks": 119,
                    "midi": 72,
                    "name": "C5",
                    "ticks": 119160,
                    "time": 206.87491725,
                    "velocity": 0.7559055118110236,
                },
                {
                    "duration": 0.20659713958335146,
                    "durationTicks": 119,
                    "midi": 76,
                    "name": "E5",
                    "ticks": 119280,
                    "time": 207.0832505,
                    "velocity": 0.7559055118110236,
                },
                {
                    "duration": 0.20659713958335146,
                    "durationTicks": 119,
                    "midi": 67,
                    "name": "G4",
                    "ticks": 119280,
                    "time": 207.0832505,
                    "velocity": 0.7559055118110236,
                },
                {
                    "duration": 0.20659713958332304,
                    "durationTicks": 119,
                    "midi": 72,
                    "name": "C5",
                    "ticks": 119400,
                    "time": 207.29158375,
                    "velocity": 0.7559055118110236,
                },
                {
                    "duration": 0.20659713958332304,
                    "durationTicks": 119,
                    "midi": 74,
                    "name": "D5",
                    "ticks": 119520,
                    "time": 207.499917,
                    "velocity": 0.7559055118110236,
                },
                {
                    "duration": 0.20659713958335146,
                    "durationTicks": 119,
                    "midi": 76,
                    "name": "E5",
                    "ticks": 119640,
                    "time": 207.70825025,
                    "velocity": 0.7559055118110236,
                },
                {
                    "duration": 0.20659713958332304,
                    "durationTicks": 119,
                    "midi": 74,
                    "name": "D5",
                    "ticks": 119760,
                    "time": 207.9165835,
                    "velocity": 0.7559055118110236,
                },
                {
                    "duration": 0.20659713958332304,
                    "durationTicks": 119,
                    "midi": 72,
                    "name": "C5",
                    "ticks": 119880,
                    "time": 208.12491675,
                    "velocity": 0.7559055118110236,
                },
                {
                    "duration": 0.4149303895833327,
                    "durationTicks": 239,
                    "midi": 74,
                    "name": "D5",
                    "ticks": 120000,
                    "time": 208.33325,
                    "velocity": 0.7559055118110236,
                },
                {
                    "duration": 0.4149303895833327,
                    "durationTicks": 239,
                    "midi": 71,
                    "name": "B4",
                    "ticks": 120000,
                    "time": 208.33325,
                    "velocity": 0.7559055118110236,
                },
                {
                    "duration": 0.20659713958335146,
                    "durationTicks": 119,
                    "midi": 73,
                    "name": "C#5",
                    "ticks": 120240,
                    "time": 208.74991649999998,
                    "velocity": 0.7559055118110236,
                },
                {
                    "duration": 0.20659713958335146,
                    "durationTicks": 119,
                    "midi": 70,
                    "name": "A#4",
                    "ticks": 120240,
                    "time": 208.74991649999998,
                    "velocity": 0.7559055118110236,
                },
                {
                    "duration": 0.20659713958335146,
                    "durationTicks": 119,
                    "midi": 74,
                    "name": "D5",
                    "ticks": 120360,
                    "time": 208.95824975,
                    "velocity": 0.7559055118110236,
                },
                {
                    "duration": 0.20659713958335146,
                    "durationTicks": 119,
                    "midi": 71,
                    "name": "B4",
                    "ticks": 120360,
                    "time": 208.95824975,
                    "velocity": 0.7559055118110236,
                },
                {
                    "duration": 0.20659713958332304,
                    "durationTicks": 119,
                    "midi": 74,
                    "name": "D5",
                    "ticks": 120480,
                    "time": 209.166583,
                    "velocity": 0.7559055118110236,
                },
                {
                    "duration": 0.20659713958332304,
                    "durationTicks": 119,
                    "midi": 71,
                    "name": "B4",
                    "ticks": 120480,
                    "time": 209.166583,
                    "velocity": 0.7559055118110236,
                },
                {
                    "duration": 0.20659713958335146,
                    "durationTicks": 119,
                    "midi": 73,
                    "name": "C#5",
                    "ticks": 120600,
                    "time": 209.37491624999998,
                    "velocity": 0.7559055118110236,
                },
                {
                    "duration": 0.20659713958335146,
                    "durationTicks": 119,
                    "midi": 70,
                    "name": "A#4",
                    "ticks": 120600,
                    "time": 209.37491624999998,
                    "velocity": 0.7559055118110236,
                },
                {
                    "duration": 0.4149303895833327,
                    "durationTicks": 239,
                    "midi": 74,
                    "name": "D5",
                    "ticks": 120720,
                    "time": 209.5832495,
                    "velocity": 0.7559055118110236,
                },
                {
                    "duration": 0.4149303895833327,
                    "durationTicks": 239,
                    "midi": 71,
                    "name": "B4",
                    "ticks": 120720,
                    "time": 209.5832495,
                    "velocity": 0.7559055118110236,
                },
                {
                    "duration": 0.20659713958335146,
                    "durationTicks": 119,
                    "midi": 77,
                    "name": "F5",
                    "ticks": 121080,
                    "time": 210.20824925,
                    "velocity": 0.7559055118110236,
                },
                {
                    "duration": 0.20659713958332304,
                    "durationTicks": 119,
                    "midi": 81,
                    "name": "A5",
                    "ticks": 121200,
                    "time": 210.4165825,
                    "velocity": 0.7559055118110236,
                },
                {
                    "duration": 0.20659713958332304,
                    "durationTicks": 119,
                    "midi": 71,
                    "name": "B4",
                    "ticks": 121200,
                    "time": 210.4165825,
                    "velocity": 0.7559055118110236,
                },
                {
                    "duration": 0.20659713958335146,
                    "durationTicks": 119,
                    "midi": 77,
                    "name": "F5",
                    "ticks": 121320,
                    "time": 210.62491574999999,
                    "velocity": 0.7559055118110236,
                },
                {
                    "duration": 0.20659713958335146,
                    "durationTicks": 119,
                    "midi": 79,
                    "name": "G5",
                    "ticks": 121440,
                    "time": 210.833249,
                    "velocity": 0.7559055118110236,
                },
                {
                    "duration": 0.20659713958332304,
                    "durationTicks": 119,
                    "midi": 81,
                    "name": "A5",
                    "ticks": 121560,
                    "time": 211.04158225,
                    "velocity": 0.7559055118110236,
                },
                {
                    "duration": 0.20659713958335146,
                    "durationTicks": 119,
                    "midi": 79,
                    "name": "G5",
                    "ticks": 121680,
                    "time": 211.2499155,
                    "velocity": 0.7559055118110236,
                },
                {
                    "duration": 0.20659713958332304,
                    "durationTicks": 119,
                    "midi": 77,
                    "name": "F5",
                    "ticks": 121800,
                    "time": 211.45824875,
                    "velocity": 0.7559055118110236,
                },
                {
                    "duration": 0.20659713958332304,
                    "durationTicks": 119,
                    "midi": 84,
                    "name": "C6",
                    "ticks": 121920,
                    "time": 211.666582,
                    "velocity": 0.7559055118110236,
                },
                {
                    "duration": 0.20659713958332304,
                    "durationTicks": 119,
                    "midi": 72,
                    "name": "C5",
                    "ticks": 121920,
                    "time": 211.666582,
                    "velocity": 0.7559055118110236,
                },
                {
                    "duration": 0.20659713958335146,
                    "durationTicks": 119,
                    "midi": 84,
                    "name": "C6",
                    "ticks": 122040,
                    "time": 211.87491525,
                    "velocity": 0.7559055118110236,
                },
                {
                    "duration": 0.20659713958335146,
                    "durationTicks": 119,
                    "midi": 72,
                    "name": "C5",
                    "ticks": 122040,
                    "time": 211.87491525,
                    "velocity": 0.7559055118110236,
                },
                {
                    "duration": 0.8315968895833237,
                    "durationTicks": 479,
                    "midi": 84,
                    "name": "C6",
                    "ticks": 122160,
                    "time": 212.0832485,
                    "velocity": 0.7559055118110236,
                },
                {
                    "duration": 0.8315968895833237,
                    "durationTicks": 479,
                    "midi": 72,
                    "name": "C5",
                    "ticks": 122160,
                    "time": 212.0832485,
                    "velocity": 0.7559055118110236,
                },
                {
                    "duration": 0.4149303895833327,
                    "durationTicks": 239,
                    "midi": 81,
                    "name": "A5",
                    "ticks": 122640,
                    "time": 212.9165815,
                    "velocity": 0.7559055118110236,
                },
                {
                    "duration": 0.4149303895833327,
                    "durationTicks": 239,
                    "midi": 72,
                    "name": "C5",
                    "ticks": 122640,
                    "time": 212.9165815,
                    "velocity": 0.7559055118110236,
                },
                {
                    "duration": 0.4149303895833043,
                    "durationTicks": 239,
                    "midi": 79,
                    "name": "G5",
                    "ticks": 122880,
                    "time": 213.333248,
                    "velocity": 0.7559055118110236,
                },
                {
                    "duration": 0.4149303895833043,
                    "durationTicks": 239,
                    "midi": 72,
                    "name": "C5",
                    "ticks": 122880,
                    "time": 213.333248,
                    "velocity": 0.7559055118110236,
                },
                {
                    "duration": 0.20659713958332304,
                    "durationTicks": 119,
                    "midi": 67,
                    "name": "G4",
                    "ticks": 123120,
                    "time": 213.7499145,
                    "velocity": 0.7559055118110236,
                },
                {
                    "duration": 0.20659713958332304,
                    "durationTicks": 119,
                    "midi": 64,
                    "name": "E4",
                    "ticks": 123120,
                    "time": 213.7499145,
                    "velocity": 0.7559055118110236,
                },
                {
                    "duration": 0.20659713958332304,
                    "durationTicks": 119,
                    "midi": 67,
                    "name": "G4",
                    "ticks": 123240,
                    "time": 213.95824775,
                    "velocity": 0.7559055118110236,
                },
                {
                    "duration": 0.20659713958332304,
                    "durationTicks": 119,
                    "midi": 64,
                    "name": "E4",
                    "ticks": 123240,
                    "time": 213.95824775,
                    "velocity": 0.7559055118110236,
                },
                {
                    "duration": 0.4149303895833043,
                    "durationTicks": 239,
                    "midi": 67,
                    "name": "G4",
                    "ticks": 123360,
                    "time": 214.166581,
                    "velocity": 0.7559055118110236,
                },
                {
                    "duration": 0.4149303895833043,
                    "durationTicks": 239,
                    "midi": 64,
                    "name": "E4",
                    "ticks": 123360,
                    "time": 214.166581,
                    "velocity": 0.7559055118110236,
                },
                {
                    "duration": 0.4149303895833043,
                    "durationTicks": 239,
                    "midi": 67,
                    "name": "G4",
                    "ticks": 123600,
                    "time": 214.5832475,
                    "velocity": 0.7559055118110236,
                },
                {
                    "duration": 0.4149303895833043,
                    "durationTicks": 239,
                    "midi": 64,
                    "name": "E4",
                    "ticks": 123600,
                    "time": 214.5832475,
                    "velocity": 0.7559055118110236,
                },
                {
                    "duration": 0.4149303895833327,
                    "durationTicks": 239,
                    "midi": 65,
                    "name": "F4",
                    "ticks": 123840,
                    "time": 214.999914,
                    "velocity": 0.7559055118110236,
                },
                {
                    "duration": 0.4149303895833327,
                    "durationTicks": 239,
                    "midi": 62,
                    "name": "D4",
                    "ticks": 123840,
                    "time": 214.999914,
                    "velocity": 0.7559055118110236,
                },
                {
                    "duration": 0.20659713958329462,
                    "durationTicks": 119,
                    "midi": 64,
                    "name": "E4",
                    "ticks": 124080,
                    "time": 215.4165805,
                    "velocity": 0.7559055118110236,
                },
                {
                    "duration": 0.20659713958329462,
                    "durationTicks": 119,
                    "midi": 60,
                    "name": "C4",
                    "ticks": 124080,
                    "time": 215.4165805,
                    "velocity": 0.7559055118110236,
                },
                {
                    "duration": 0.4149303895833043,
                    "durationTicks": 239,
                    "midi": 65,
                    "name": "F4",
                    "ticks": 124200,
                    "time": 215.62491375,
                    "velocity": 0.7559055118110236,
                },
                {
                    "duration": 0.4149303895833043,
                    "durationTicks": 239,
                    "midi": 62,
                    "name": "D4",
                    "ticks": 124200,
                    "time": 215.62491375,
                    "velocity": 0.7559055118110236,
                },
                {
                    "duration": 0.20659713958329462,
                    "durationTicks": 119,
                    "midi": 64,
                    "name": "E4",
                    "ticks": 124440,
                    "time": 216.04158025,
                    "velocity": 0.7559055118110236,
                },
                {
                    "duration": 0.20659713958329462,
                    "durationTicks": 119,
                    "midi": 60,
                    "name": "C4",
                    "ticks": 124440,
                    "time": 216.04158025,
                    "velocity": 0.7559055118110236,
                },
                {
                    "duration": 0.4149303895833043,
                    "durationTicks": 239,
                    "midi": 65,
                    "name": "F4",
                    "ticks": 124560,
                    "time": 216.2499135,
                    "velocity": 0.7559055118110236,
                },
                {
                    "duration": 0.4149303895833043,
                    "durationTicks": 239,
                    "midi": 62,
                    "name": "D4",
                    "ticks": 124560,
                    "time": 216.2499135,
                    "velocity": 0.7559055118110236,
                },
                {
                    "duration": 0.20659713958332304,
                    "durationTicks": 119,
                    "midi": 69,
                    "name": "A4",
                    "ticks": 124920,
                    "time": 216.87491325,
                    "velocity": 0.7559055118110236,
                },
                {
                    "duration": 0.20659713958329462,
                    "durationTicks": 119,
                    "midi": 74,
                    "name": "D5",
                    "ticks": 125040,
                    "time": 217.0832465,
                    "velocity": 0.7559055118110236,
                },
                {
                    "duration": 0.20659713958329462,
                    "durationTicks": 119,
                    "midi": 65,
                    "name": "F4",
                    "ticks": 125040,
                    "time": 217.0832465,
                    "velocity": 0.7559055118110236,
                },
                {
                    "duration": 0.20659713958329462,
                    "durationTicks": 119,
                    "midi": 69,
                    "name": "A4",
                    "ticks": 125160,
                    "time": 217.29157975,
                    "velocity": 0.7559055118110236,
                },
                {
                    "duration": 0.20659713958332304,
                    "durationTicks": 119,
                    "midi": 72,
                    "name": "C5",
                    "ticks": 125280,
                    "time": 217.499913,
                    "velocity": 0.7559055118110236,
                },
                {
                    "duration": 0.20659713958329462,
                    "durationTicks": 119,
                    "midi": 74,
                    "name": "D5",
                    "ticks": 125400,
                    "time": 217.70824625,
                    "velocity": 0.7559055118110236,
                },
                {
                    "duration": 0.20659713958329462,
                    "durationTicks": 119,
                    "midi": 72,
                    "name": "C5",
                    "ticks": 125520,
                    "time": 217.9165795,
                    "velocity": 0.7559055118110236,
                },
                {
                    "duration": 0.20659713958332304,
                    "durationTicks": 119,
                    "midi": 69,
                    "name": "A4",
                    "ticks": 125640,
                    "time": 218.12491275,
                    "velocity": 0.7559055118110236,
                },
                {
                    "duration": 0.4149303895833043,
                    "durationTicks": 239,
                    "midi": 67,
                    "name": "G4",
                    "ticks": 125760,
                    "time": 218.333246,
                    "velocity": 0.7559055118110236,
                },
                {
                    "duration": 0.4149303895833043,
                    "durationTicks": 239,
                    "midi": 64,
                    "name": "E4",
                    "ticks": 125760,
                    "time": 218.333246,
                    "velocity": 0.7559055118110236,
                },
                {
                    "duration": 0.20659713958332304,
                    "durationTicks": 119,
                    "midi": 66,
                    "name": "F#4",
                    "ticks": 126000,
                    "time": 218.7499125,
                    "velocity": 0.7559055118110236,
                },
                {
                    "duration": 0.20659713958332304,
                    "durationTicks": 119,
                    "midi": 63,
                    "name": "D#4",
                    "ticks": 126000,
                    "time": 218.7499125,
                    "velocity": 0.7559055118110236,
                },
                {
                    "duration": 0.4149303895833043,
                    "durationTicks": 239,
                    "midi": 67,
                    "name": "G4",
                    "ticks": 126120,
                    "time": 218.95824575,
                    "velocity": 0.7559055118110236,
                },
                {
                    "duration": 0.20659713958329462,
                    "durationTicks": 119,
                    "midi": 64,
                    "name": "E4",
                    "ticks": 126120,
                    "time": 218.95824575,
                    "velocity": 0.7559055118110236,
                },
                {
                    "duration": 0.20659713958332304,
                    "durationTicks": 119,
                    "midi": 64,
                    "name": "E4",
                    "ticks": 126240,
                    "time": 219.16657899999998,
                    "velocity": 0.7559055118110236,
                },
                {
                    "duration": 0.20659713958332304,
                    "durationTicks": 119,
                    "midi": 66,
                    "name": "F#4",
                    "ticks": 126360,
                    "time": 219.37491225,
                    "velocity": 0.7559055118110236,
                },
                {
                    "duration": 0.20659713958332304,
                    "durationTicks": 119,
                    "midi": 63,
                    "name": "D#4",
                    "ticks": 126360,
                    "time": 219.37491225,
                    "velocity": 0.7559055118110236,
                },
                {
                    "duration": 0.4149303895833043,
                    "durationTicks": 239,
                    "midi": 67,
                    "name": "G4",
                    "ticks": 126480,
                    "time": 219.5832455,
                    "velocity": 0.7559055118110236,
                },
                {
                    "duration": 0.4149303895833043,
                    "durationTicks": 239,
                    "midi": 64,
                    "name": "E4",
                    "ticks": 126480,
                    "time": 219.5832455,
                    "velocity": 0.7559055118110236,
                },
                {
                    "duration": 0.20659713958329462,
                    "durationTicks": 119,
                    "midi": 72,
                    "name": "C5",
                    "ticks": 126840,
                    "time": 220.20824525,
                    "velocity": 0.7559055118110236,
                },
                {
                    "duration": 0.20659713958332304,
                    "durationTicks": 119,
                    "midi": 76,
                    "name": "E5",
                    "ticks": 126960,
                    "time": 220.41657849999999,
                    "velocity": 0.7559055118110236,
                },
                {
                    "duration": 0.20659713958332304,
                    "durationTicks": 119,
                    "midi": 67,
                    "name": "G4",
                    "ticks": 126960,
                    "time": 220.41657849999999,
                    "velocity": 0.7559055118110236,
                },
                {
                    "duration": 0.20659713958332304,
                    "durationTicks": 119,
                    "midi": 72,
                    "name": "C5",
                    "ticks": 127080,
                    "time": 220.62491175,
                    "velocity": 0.7559055118110236,
                },
                {
                    "duration": 0.20659713958329462,
                    "durationTicks": 119,
                    "midi": 74,
                    "name": "D5",
                    "ticks": 127200,
                    "time": 220.833245,
                    "velocity": 0.7559055118110236,
                },
                {
                    "duration": 0.20659713958332304,
                    "durationTicks": 119,
                    "midi": 76,
                    "name": "E5",
                    "ticks": 127320,
                    "time": 221.04157825,
                    "velocity": 0.7559055118110236,
                },
                {
                    "duration": 0.20659713958332304,
                    "durationTicks": 119,
                    "midi": 74,
                    "name": "D5",
                    "ticks": 127440,
                    "time": 221.2499115,
                    "velocity": 0.7559055118110236,
                },
                {
                    "duration": 0.20659713958329462,
                    "durationTicks": 119,
                    "midi": 72,
                    "name": "C5",
                    "ticks": 127560,
                    "time": 221.45824475,
                    "velocity": 0.7559055118110236,
                },
                {
                    "duration": 0.20659713958332304,
                    "durationTicks": 119,
                    "midi": 69,
                    "name": "A4",
                    "ticks": 127680,
                    "time": 221.666578,
                    "velocity": 0.7559055118110236,
                },
                {
                    "duration": 0.20659713958332304,
                    "durationTicks": 119,
                    "midi": 68,
                    "name": "G#4",
                    "ticks": 127800,
                    "time": 221.87491125,
                    "velocity": 0.7559055118110236,
                },
                {
                    "duration": 0.20659713958329462,
                    "durationTicks": 119,
                    "midi": 69,
                    "name": "A4",
                    "ticks": 127920,
                    "time": 222.0832445,
                    "velocity": 0.7559055118110236,
                },
                {
                    "duration": 0.4149303895833327,
                    "durationTicks": 239,
                    "midi": 79,
                    "name": "G5",
                    "ticks": 128040,
                    "time": 222.29157775,
                    "velocity": 0.7559055118110236,
                },
                {
                    "duration": 0.4149303895833327,
                    "durationTicks": 239,
                    "midi": 69,
                    "name": "A4",
                    "ticks": 128040,
                    "time": 222.29157775,
                    "velocity": 0.7559055118110236,
                },
                {
                    "duration": 0.4149303895833043,
                    "durationTicks": 239,
                    "midi": 77,
                    "name": "F5",
                    "ticks": 128280,
                    "time": 222.70824425,
                    "velocity": 0.7559055118110236,
                },
                {
                    "duration": 0.4149303895833043,
                    "durationTicks": 239,
                    "midi": 69,
                    "name": "A4",
                    "ticks": 128280,
                    "time": 222.70824425,
                    "velocity": 0.7559055118110236,
                },
                {
                    "duration": 0.20659713958332304,
                    "durationTicks": 119,
                    "midi": 72,
                    "name": "C5",
                    "ticks": 128520,
                    "time": 223.12491075,
                    "velocity": 0.7559055118110236,
                },
                {
                    "duration": 0.20659713958332304,
                    "durationTicks": 119,
                    "midi": 69,
                    "name": "A4",
                    "ticks": 128520,
                    "time": 223.12491075,
                    "velocity": 0.7559055118110236,
                },
                {
                    "duration": 0.20659713958329462,
                    "durationTicks": 119,
                    "midi": 76,
                    "name": "E5",
                    "ticks": 128640,
                    "time": 223.333244,
                    "velocity": 0.7559055118110236,
                },
                {
                    "duration": 0.20659713958329462,
                    "durationTicks": 119,
                    "midi": 67,
                    "name": "G4",
                    "ticks": 128640,
                    "time": 223.333244,
                    "velocity": 0.7559055118110236,
                },
                {
                    "duration": 0.20659713958332304,
                    "durationTicks": 119,
                    "midi": 75,
                    "name": "D#5",
                    "ticks": 128760,
                    "time": 223.54157725,
                    "velocity": 0.7559055118110236,
                },
                {
                    "duration": 0.20659713958332304,
                    "durationTicks": 119,
                    "midi": 76,
                    "name": "E5",
                    "ticks": 128880,
                    "time": 223.7499105,
                    "velocity": 0.7559055118110236,
                },
                {
                    "duration": 0.20659713958329462,
                    "durationTicks": 119,
                    "midi": 81,
                    "name": "A5",
                    "ticks": 129000,
                    "time": 223.95824375,
                    "velocity": 0.7559055118110236,
                },
                {
                    "duration": 0.20659713958332304,
                    "durationTicks": 119,
                    "midi": 81,
                    "name": "A5",
                    "ticks": 129120,
                    "time": 224.166577,
                    "velocity": 0.7559055118110236,
                },
                {
                    "duration": 0.20659713958332304,
                    "durationTicks": 119,
                    "midi": 84,
                    "name": "C6",
                    "ticks": 129240,
                    "time": 224.37491025,
                    "velocity": 0.7559055118110236,
                },
                {
                    "duration": 0.20659713958329462,
                    "durationTicks": 119,
                    "midi": 79,
                    "name": "G5",
                    "ticks": 129360,
                    "time": 224.5832435,
                    "velocity": 0.7559055118110236,
                },
                {
                    "duration": 0.20659713958332304,
                    "durationTicks": 119,
                    "midi": 76,
                    "name": "E5",
                    "ticks": 129480,
                    "time": 224.79157675,
                    "velocity": 0.7559055118110236,
                },
                {
                    "duration": 0.4149303895833043,
                    "durationTicks": 239,
                    "midi": 72,
                    "name": "C5",
                    "ticks": 129600,
                    "time": 224.99991,
                    "velocity": 0.7559055118110236,
                },
                {
                    "duration": 0.4149303895833043,
                    "durationTicks": 239,
                    "midi": 66,
                    "name": "F#4",
                    "ticks": 129600,
                    "time": 224.99991,
                    "velocity": 0.7559055118110236,
                },
                {
                    "duration": 0.4149303895833043,
                    "durationTicks": 239,
                    "midi": 72,
                    "name": "C5",
                    "ticks": 129840,
                    "time": 225.4165765,
                    "velocity": 0.7559055118110236,
                },
                {
                    "duration": 0.4149303895833043,
                    "durationTicks": 239,
                    "midi": 66,
                    "name": "F#4",
                    "ticks": 129840,
                    "time": 225.4165765,
                    "velocity": 0.7559055118110236,
                },
                {
                    "duration": 0.20659713958329462,
                    "durationTicks": 119,
                    "midi": 76,
                    "name": "E5",
                    "ticks": 130080,
                    "time": 225.833243,
                    "velocity": 0.7559055118110236,
                },
                {
                    "duration": 0.20659713958329462,
                    "durationTicks": 119,
                    "midi": 71,
                    "name": "B4",
                    "ticks": 130080,
                    "time": 225.833243,
                    "velocity": 0.7559055118110236,
                },
                {
                    "duration": 0.20659713958329462,
                    "durationTicks": 119,
                    "midi": 65,
                    "name": "F4",
                    "ticks": 130080,
                    "time": 225.833243,
                    "velocity": 0.7559055118110236,
                },
                {
                    "duration": 0.4149303895833043,
                    "durationTicks": 239,
                    "midi": 74,
                    "name": "D5",
                    "ticks": 130200,
                    "time": 226.04157625,
                    "velocity": 0.7559055118110236,
                },
                {
                    "duration": 0.4149303895833043,
                    "durationTicks": 239,
                    "midi": 71,
                    "name": "B4",
                    "ticks": 130200,
                    "time": 226.04157625,
                    "velocity": 0.7559055118110236,
                },
                {
                    "duration": 0.4149303895833043,
                    "durationTicks": 239,
                    "midi": 65,
                    "name": "F4",
                    "ticks": 130200,
                    "time": 226.04157625,
                    "velocity": 0.7559055118110236,
                },
                {
                    "duration": 0.6232636395832856,
                    "durationTicks": 359,
                    "midi": 72,
                    "name": "C5",
                    "ticks": 130440,
                    "time": 226.45824275,
                    "velocity": 0.7559055118110236,
                },
                {
                    "duration": 0.6232636395832856,
                    "durationTicks": 359,
                    "midi": 67,
                    "name": "G4",
                    "ticks": 130440,
                    "time": 226.45824275,
                    "velocity": 0.7559055118110236,
                },
                {
                    "duration": 0.6232636395832856,
                    "durationTicks": 359,
                    "midi": 64,
                    "name": "E4",
                    "ticks": 130440,
                    "time": 226.45824275,
                    "velocity": 0.7559055118110236,
                },
                {
                    "duration": 0.20659713958329462,
                    "durationTicks": 119,
                    "midi": 67,
                    "name": "G4",
                    "ticks": 130800,
                    "time": 227.0832425,
                    "velocity": 0.7559055118110236,
                },
                {
                    "duration": 0.20659713958329462,
                    "durationTicks": 119,
                    "midi": 64,
                    "name": "E4",
                    "ticks": 130800,
                    "time": 227.0832425,
                    "velocity": 0.7559055118110236,
                },
                {
                    "duration": 0.20659713958332304,
                    "durationTicks": 119,
                    "midi": 67,
                    "name": "G4",
                    "ticks": 130920,
                    "time": 227.29157575,
                    "velocity": 0.7559055118110236,
                },
                {
                    "duration": 0.20659713958332304,
                    "durationTicks": 119,
                    "midi": 64,
                    "name": "E4",
                    "ticks": 130920,
                    "time": 227.29157575,
                    "velocity": 0.7559055118110236,
                },
                {
                    "duration": 0.4149303895833043,
                    "durationTicks": 239,
                    "midi": 67,
                    "name": "G4",
                    "ticks": 131040,
                    "time": 227.499909,
                    "velocity": 0.7559055118110236,
                },
                {
                    "duration": 0.4149303895833043,
                    "durationTicks": 239,
                    "midi": 64,
                    "name": "E4",
                    "ticks": 131040,
                    "time": 227.499909,
                    "velocity": 0.7559055118110236,
                },
                {
                    "duration": 0.4149303895833043,
                    "durationTicks": 239,
                    "midi": 67,
                    "name": "G4",
                    "ticks": 131280,
                    "time": 227.9165755,
                    "velocity": 0.7559055118110236,
                },
                {
                    "duration": 0.4149303895833043,
                    "durationTicks": 239,
                    "midi": 64,
                    "name": "E4",
                    "ticks": 131280,
                    "time": 227.9165755,
                    "velocity": 0.7559055118110236,
                },
                {
                    "duration": 0.4149303895833327,
                    "durationTicks": 239,
                    "midi": 65,
                    "name": "F4",
                    "ticks": 131520,
                    "time": 228.33324199999998,
                    "velocity": 0.7559055118110236,
                },
                {
                    "duration": 0.4149303895833327,
                    "durationTicks": 239,
                    "midi": 62,
                    "name": "D4",
                    "ticks": 131520,
                    "time": 228.33324199999998,
                    "velocity": 0.7559055118110236,
                },
                {
                    "duration": 0.20659713958329462,
                    "durationTicks": 119,
                    "midi": 64,
                    "name": "E4",
                    "ticks": 131760,
                    "time": 228.7499085,
                    "velocity": 0.7559055118110236,
                },
                {
                    "duration": 0.20659713958329462,
                    "durationTicks": 119,
                    "midi": 61,
                    "name": "C#4",
                    "ticks": 131760,
                    "time": 228.7499085,
                    "velocity": 0.7559055118110236,
                },
                {
                    "duration": 0.20659713958332304,
                    "durationTicks": 119,
                    "midi": 65,
                    "name": "F4",
                    "ticks": 131880,
                    "time": 228.95824174999998,
                    "velocity": 0.7559055118110236,
                },
                {
                    "duration": 0.20659713958332304,
                    "durationTicks": 119,
                    "midi": 62,
                    "name": "D4",
                    "ticks": 131880,
                    "time": 228.95824174999998,
                    "velocity": 0.7559055118110236,
                },
                {
                    "duration": 0.20659713958332304,
                    "durationTicks": 119,
                    "midi": 65,
                    "name": "F4",
                    "ticks": 132000,
                    "time": 229.166575,
                    "velocity": 0.7559055118110236,
                },
                {
                    "duration": 0.20659713958332304,
                    "durationTicks": 119,
                    "midi": 62,
                    "name": "D4",
                    "ticks": 132000,
                    "time": 229.166575,
                    "velocity": 0.7559055118110236,
                },
                {
                    "duration": 0.20659713958329462,
                    "durationTicks": 119,
                    "midi": 64,
                    "name": "E4",
                    "ticks": 132120,
                    "time": 229.37490825,
                    "velocity": 0.7559055118110236,
                },
                {
                    "duration": 0.20659713958329462,
                    "durationTicks": 119,
                    "midi": 61,
                    "name": "C#4",
                    "ticks": 132120,
                    "time": 229.37490825,
                    "velocity": 0.7559055118110236,
                },
                {
                    "duration": 0.4149303895833327,
                    "durationTicks": 239,
                    "midi": 65,
                    "name": "F4",
                    "ticks": 132240,
                    "time": 229.58324149999999,
                    "velocity": 0.7559055118110236,
                },
                {
                    "duration": 0.4149303895833327,
                    "durationTicks": 239,
                    "midi": 62,
                    "name": "D4",
                    "ticks": 132240,
                    "time": 229.58324149999999,
                    "velocity": 0.7559055118110236,
                },
                {
                    "duration": 0.20659713958332304,
                    "durationTicks": 119,
                    "midi": 69,
                    "name": "A4",
                    "ticks": 132600,
                    "time": 230.20824125,
                    "velocity": 0.7559055118110236,
                },
                {
                    "duration": 0.20659713958332304,
                    "durationTicks": 119,
                    "midi": 74,
                    "name": "D5",
                    "ticks": 132720,
                    "time": 230.4165745,
                    "velocity": 0.7559055118110236,
                },
                {
                    "duration": 0.20659713958332304,
                    "durationTicks": 119,
                    "midi": 65,
                    "name": "F4",
                    "ticks": 132720,
                    "time": 230.4165745,
                    "velocity": 0.7559055118110236,
                },
                {
                    "duration": 0.20659713958329462,
                    "durationTicks": 119,
                    "midi": 69,
                    "name": "A4",
                    "ticks": 132840,
                    "time": 230.62490775,
                    "velocity": 0.7559055118110236,
                },
                {
                    "duration": 0.20659713958332304,
                    "durationTicks": 119,
                    "midi": 72,
                    "name": "C5",
                    "ticks": 132960,
                    "time": 230.833241,
                    "velocity": 0.7559055118110236,
                },
                {
                    "duration": 0.20659713958332304,
                    "durationTicks": 119,
                    "midi": 74,
                    "name": "D5",
                    "ticks": 133080,
                    "time": 231.04157425,
                    "velocity": 0.7559055118110236,
                },
                {
                    "duration": 0.20659713958329462,
                    "durationTicks": 119,
                    "midi": 72,
                    "name": "C5",
                    "ticks": 133200,
                    "time": 231.2499075,
                    "velocity": 0.7559055118110236,
                },
                {
                    "duration": 0.20659713958332304,
                    "durationTicks": 119,
                    "midi": 69,
                    "name": "A4",
                    "ticks": 133320,
                    "time": 231.45824075,
                    "velocity": 0.7559055118110236,
                },
                {
                    "duration": 0.4149303895833043,
                    "durationTicks": 239,
                    "midi": 67,
                    "name": "G4",
                    "ticks": 133440,
                    "time": 231.666574,
                    "velocity": 0.7559055118110236,
                },
                {
                    "duration": 0.4149303895833043,
                    "durationTicks": 239,
                    "midi": 64,
                    "name": "E4",
                    "ticks": 133440,
                    "time": 231.666574,
                    "velocity": 0.7559055118110236,
                },
                {
                    "duration": 0.20659713958332304,
                    "durationTicks": 119,
                    "midi": 66,
                    "name": "F#4",
                    "ticks": 133680,
                    "time": 232.0832405,
                    "velocity": 0.7559055118110236,
                },
                {
                    "duration": 0.20659713958332304,
                    "durationTicks": 119,
                    "midi": 63,
                    "name": "D#4",
                    "ticks": 133680,
                    "time": 232.0832405,
                    "velocity": 0.7559055118110236,
                },
                {
                    "duration": 0.4149303895833043,
                    "durationTicks": 239,
                    "midi": 67,
                    "name": "G4",
                    "ticks": 133800,
                    "time": 232.29157375,
                    "velocity": 0.7559055118110236,
                },
                {
                    "duration": 0.4149303895833043,
                    "durationTicks": 239,
                    "midi": 64,
                    "name": "E4",
                    "ticks": 133800,
                    "time": 232.29157375,
                    "velocity": 0.7559055118110236,
                },
                {
                    "duration": 0.20659713958332304,
                    "durationTicks": 119,
                    "midi": 66,
                    "name": "F#4",
                    "ticks": 134040,
                    "time": 232.70824025,
                    "velocity": 0.7559055118110236,
                },
                {
                    "duration": 0.20659713958332304,
                    "durationTicks": 119,
                    "midi": 63,
                    "name": "D#4",
                    "ticks": 134040,
                    "time": 232.70824025,
                    "velocity": 0.7559055118110236,
                },
                {
                    "duration": 0.4149303895833043,
                    "durationTicks": 239,
                    "midi": 67,
                    "name": "G4",
                    "ticks": 134160,
                    "time": 232.9165735,
                    "velocity": 0.7559055118110236,
                },
                {
                    "duration": 0.4149303895833043,
                    "durationTicks": 239,
                    "midi": 64,
                    "name": "E4",
                    "ticks": 134160,
                    "time": 232.9165735,
                    "velocity": 0.7559055118110236,
                },
                {
                    "duration": 0.20659713958332304,
                    "durationTicks": 119,
                    "midi": 72,
                    "name": "C5",
                    "ticks": 134520,
                    "time": 233.54157325,
                    "velocity": 0.7559055118110236,
                },
                {
                    "duration": 0.20659713958329462,
                    "durationTicks": 119,
                    "midi": 76,
                    "name": "E5",
                    "ticks": 134640,
                    "time": 233.7499065,
                    "velocity": 0.7559055118110236,
                },
                {
                    "duration": 0.20659713958329462,
                    "durationTicks": 119,
                    "midi": 67,
                    "name": "G4",
                    "ticks": 134640,
                    "time": 233.7499065,
                    "velocity": 0.7559055118110236,
                },
                {
                    "duration": 0.20659713958332304,
                    "durationTicks": 119,
                    "midi": 72,
                    "name": "C5",
                    "ticks": 134760,
                    "time": 233.95823975,
                    "velocity": 0.7559055118110236,
                },
                {
                    "duration": 0.20659713958332304,
                    "durationTicks": 119,
                    "midi": 74,
                    "name": "D5",
                    "ticks": 134880,
                    "time": 234.166573,
                    "velocity": 0.7559055118110236,
                },
                {
                    "duration": 0.20659713958329462,
                    "durationTicks": 119,
                    "midi": 76,
                    "name": "E5",
                    "ticks": 135000,
                    "time": 234.37490625,
                    "velocity": 0.7559055118110236,
                },
                {
                    "duration": 0.20659713958332304,
                    "durationTicks": 119,
                    "midi": 74,
                    "name": "D5",
                    "ticks": 135120,
                    "time": 234.5832395,
                    "velocity": 0.7559055118110236,
                },
                {
                    "duration": 0.20659713958329462,
                    "durationTicks": 119,
                    "midi": 72,
                    "name": "C5",
                    "ticks": 135240,
                    "time": 234.79157275,
                    "velocity": 0.7559055118110236,
                },
                {
                    "duration": 0.4149303895833043,
                    "durationTicks": 239,
                    "midi": 74,
                    "name": "D5",
                    "ticks": 135360,
                    "time": 234.999906,
                    "velocity": 0.7559055118110236,
                },
                {
                    "duration": 0.4149303895833043,
                    "durationTicks": 239,
                    "midi": 71,
                    "name": "B4",
                    "ticks": 135360,
                    "time": 234.999906,
                    "velocity": 0.7559055118110236,
                },
                {
                    "duration": 0.20659713958329462,
                    "durationTicks": 119,
                    "midi": 73,
                    "name": "C#5",
                    "ticks": 135600,
                    "time": 235.4165725,
                    "velocity": 0.7559055118110236,
                },
                {
                    "duration": 0.20659713958329462,
                    "durationTicks": 119,
                    "midi": 70,
                    "name": "A#4",
                    "ticks": 135600,
                    "time": 235.4165725,
                    "velocity": 0.7559055118110236,
                },
                {
                    "duration": 0.20659713958329462,
                    "durationTicks": 119,
                    "midi": 74,
                    "name": "D5",
                    "ticks": 135720,
                    "time": 235.62490575,
                    "velocity": 0.7559055118110236,
                },
                {
                    "duration": 0.20659713958329462,
                    "durationTicks": 119,
                    "midi": 71,
                    "name": "B4",
                    "ticks": 135720,
                    "time": 235.62490575,
                    "velocity": 0.7559055118110236,
                },
                {
                    "duration": 0.20659713958332304,
                    "durationTicks": 119,
                    "midi": 74,
                    "name": "D5",
                    "ticks": 135840,
                    "time": 235.833239,
                    "velocity": 0.7559055118110236,
                },
                {
                    "duration": 0.20659713958332304,
                    "durationTicks": 119,
                    "midi": 71,
                    "name": "B4",
                    "ticks": 135840,
                    "time": 235.833239,
                    "velocity": 0.7559055118110236,
                },
                {
                    "duration": 0.20659713958329462,
                    "durationTicks": 119,
                    "midi": 73,
                    "name": "C#5",
                    "ticks": 135960,
                    "time": 236.04157225,
                    "velocity": 0.7559055118110236,
                },
                {
                    "duration": 0.20659713958329462,
                    "durationTicks": 119,
                    "midi": 70,
                    "name": "A#4",
                    "ticks": 135960,
                    "time": 236.04157225,
                    "velocity": 0.7559055118110236,
                },
                {
                    "duration": 0.4149303895833043,
                    "durationTicks": 239,
                    "midi": 74,
                    "name": "D5",
                    "ticks": 136080,
                    "time": 236.2499055,
                    "velocity": 0.7559055118110236,
                },
                {
                    "duration": 0.4149303895833043,
                    "durationTicks": 239,
                    "midi": 71,
                    "name": "B4",
                    "ticks": 136080,
                    "time": 236.2499055,
                    "velocity": 0.7559055118110236,
                },
                {
                    "duration": 0.20659713958332304,
                    "durationTicks": 119,
                    "midi": 77,
                    "name": "F5",
                    "ticks": 136440,
                    "time": 236.87490524999998,
                    "velocity": 0.7559055118110236,
                },
                {
                    "duration": 0.20659713958332304,
                    "durationTicks": 119,
                    "midi": 81,
                    "name": "A5",
                    "ticks": 136560,
                    "time": 237.0832385,
                    "velocity": 0.7559055118110236,
                },
                {
                    "duration": 0.20659713958332304,
                    "durationTicks": 119,
                    "midi": 71,
                    "name": "B4",
                    "ticks": 136560,
                    "time": 237.0832385,
                    "velocity": 0.7559055118110236,
                },
                {
                    "duration": 0.20659713958329462,
                    "durationTicks": 119,
                    "midi": 77,
                    "name": "F5",
                    "ticks": 136680,
                    "time": 237.29157175,
                    "velocity": 0.7559055118110236,
                },
                {
                    "duration": 0.20659713958332304,
                    "durationTicks": 119,
                    "midi": 79,
                    "name": "G5",
                    "ticks": 136800,
                    "time": 237.49990499999998,
                    "velocity": 0.7559055118110236,
                },
                {
                    "duration": 0.20659713958332304,
                    "durationTicks": 119,
                    "midi": 81,
                    "name": "A5",
                    "ticks": 136920,
                    "time": 237.70823825,
                    "velocity": 0.7559055118110236,
                },
                {
                    "duration": 0.20659713958329462,
                    "durationTicks": 119,
                    "midi": 79,
                    "name": "G5",
                    "ticks": 137040,
                    "time": 237.9165715,
                    "velocity": 0.7559055118110236,
                },
                {
                    "duration": 0.20659713958332304,
                    "durationTicks": 119,
                    "midi": 77,
                    "name": "F5",
                    "ticks": 137160,
                    "time": 238.12490474999998,
                    "velocity": 0.7559055118110236,
                },
                {
                    "duration": 0.20659713958332304,
                    "durationTicks": 119,
                    "midi": 84,
                    "name": "C6",
                    "ticks": 137280,
                    "time": 238.333238,
                    "velocity": 0.7559055118110236,
                },
                {
                    "duration": 0.20659713958332304,
                    "durationTicks": 119,
                    "midi": 72,
                    "name": "C5",
                    "ticks": 137280,
                    "time": 238.333238,
                    "velocity": 0.7559055118110236,
                },
                {
                    "duration": 0.20659713958329462,
                    "durationTicks": 119,
                    "midi": 84,
                    "name": "C6",
                    "ticks": 137400,
                    "time": 238.54157125,
                    "velocity": 0.7559055118110236,
                },
                {
                    "duration": 0.20659713958329462,
                    "durationTicks": 119,
                    "midi": 72,
                    "name": "C5",
                    "ticks": 137400,
                    "time": 238.54157125,
                    "velocity": 0.7559055118110236,
                },
                {
                    "duration": 0.8315968895833237,
                    "durationTicks": 479,
                    "midi": 84,
                    "name": "C6",
                    "ticks": 137520,
                    "time": 238.74990449999999,
                    "velocity": 0.7559055118110236,
                },
                {
                    "duration": 0.8315968895833237,
                    "durationTicks": 479,
                    "midi": 72,
                    "name": "C5",
                    "ticks": 137520,
                    "time": 238.74990449999999,
                    "velocity": 0.7559055118110236,
                },
                {
                    "duration": 0.4149303895833043,
                    "durationTicks": 239,
                    "midi": 81,
                    "name": "A5",
                    "ticks": 138000,
                    "time": 239.5832375,
                    "velocity": 0.7559055118110236,
                },
                {
                    "duration": 0.4149303895833043,
                    "durationTicks": 239,
                    "midi": 72,
                    "name": "C5",
                    "ticks": 138000,
                    "time": 239.5832375,
                    "velocity": 0.7559055118110236,
                },
                {
                    "duration": 0.4149303895833327,
                    "durationTicks": 239,
                    "midi": 79,
                    "name": "G5",
                    "ticks": 138240,
                    "time": 239.999904,
                    "velocity": 0.7559055118110236,
                },
                {
                    "duration": 0.4149303895833327,
                    "durationTicks": 239,
                    "midi": 72,
                    "name": "C5",
                    "ticks": 138240,
                    "time": 239.999904,
                    "velocity": 0.7559055118110236,
                },
                {
                    "duration": 0.20659713958329462,
                    "durationTicks": 119,
                    "midi": 67,
                    "name": "G4",
                    "ticks": 138480,
                    "time": 240.4165705,
                    "velocity": 0.7559055118110236,
                },
                {
                    "duration": 0.20659713958329462,
                    "durationTicks": 119,
                    "midi": 64,
                    "name": "E4",
                    "ticks": 138480,
                    "time": 240.4165705,
                    "velocity": 0.7559055118110236,
                },
                {
                    "duration": 0.20659713958332304,
                    "durationTicks": 119,
                    "midi": 67,
                    "name": "G4",
                    "ticks": 138600,
                    "time": 240.62490375,
                    "velocity": 0.7559055118110236,
                },
                {
                    "duration": 0.20659713958332304,
                    "durationTicks": 119,
                    "midi": 64,
                    "name": "E4",
                    "ticks": 138600,
                    "time": 240.62490375,
                    "velocity": 0.7559055118110236,
                },
                {
                    "duration": 0.4149303895833043,
                    "durationTicks": 239,
                    "midi": 67,
                    "name": "G4",
                    "ticks": 138720,
                    "time": 240.833237,
                    "velocity": 0.7559055118110236,
                },
                {
                    "duration": 0.4149303895833043,
                    "durationTicks": 239,
                    "midi": 64,
                    "name": "E4",
                    "ticks": 138720,
                    "time": 240.833237,
                    "velocity": 0.7559055118110236,
                },
                {
                    "duration": 0.4149303895833327,
                    "durationTicks": 239,
                    "midi": 67,
                    "name": "G4",
                    "ticks": 138960,
                    "time": 241.2499035,
                    "velocity": 0.7559055118110236,
                },
                {
                    "duration": 0.4149303895833327,
                    "durationTicks": 239,
                    "midi": 64,
                    "name": "E4",
                    "ticks": 138960,
                    "time": 241.2499035,
                    "velocity": 0.7559055118110236,
                },
                {
                    "duration": 0.4149303895833043,
                    "durationTicks": 239,
                    "midi": 65,
                    "name": "F4",
                    "ticks": 139200,
                    "time": 241.66657,
                    "velocity": 0.7559055118110236,
                },
                {
                    "duration": 0.4149303895833043,
                    "durationTicks": 239,
                    "midi": 62,
                    "name": "D4",
                    "ticks": 139200,
                    "time": 241.66657,
                    "velocity": 0.7559055118110236,
                },
                {
                    "duration": 0.20659713958332304,
                    "durationTicks": 119,
                    "midi": 64,
                    "name": "E4",
                    "ticks": 139440,
                    "time": 242.0832365,
                    "velocity": 0.7559055118110236,
                },
                {
                    "duration": 0.20659713958332304,
                    "durationTicks": 119,
                    "midi": 60,
                    "name": "C4",
                    "ticks": 139440,
                    "time": 242.0832365,
                    "velocity": 0.7559055118110236,
                },
                {
                    "duration": 0.4149303895833043,
                    "durationTicks": 239,
                    "midi": 65,
                    "name": "F4",
                    "ticks": 139560,
                    "time": 242.29156975,
                    "velocity": 0.7559055118110236,
                },
                {
                    "duration": 0.4149303895833043,
                    "durationTicks": 239,
                    "midi": 62,
                    "name": "D4",
                    "ticks": 139560,
                    "time": 242.29156975,
                    "velocity": 0.7559055118110236,
                },
                {
                    "duration": 0.20659713958332304,
                    "durationTicks": 119,
                    "midi": 64,
                    "name": "E4",
                    "ticks": 139800,
                    "time": 242.70823625,
                    "velocity": 0.7559055118110236,
                },
                {
                    "duration": 0.20659713958332304,
                    "durationTicks": 119,
                    "midi": 60,
                    "name": "C4",
                    "ticks": 139800,
                    "time": 242.70823625,
                    "velocity": 0.7559055118110236,
                },
                {
                    "duration": 0.4149303895833043,
                    "durationTicks": 239,
                    "midi": 65,
                    "name": "F4",
                    "ticks": 139920,
                    "time": 242.9165695,
                    "velocity": 0.7559055118110236,
                },
                {
                    "duration": 0.4149303895833043,
                    "durationTicks": 239,
                    "midi": 62,
                    "name": "D4",
                    "ticks": 139920,
                    "time": 242.9165695,
                    "velocity": 0.7559055118110236,
                },
                {
                    "duration": 0.20659713958329462,
                    "durationTicks": 119,
                    "midi": 69,
                    "name": "A4",
                    "ticks": 140280,
                    "time": 243.54156925,
                    "velocity": 0.7559055118110236,
                },
                {
                    "duration": 0.20659713958332304,
                    "durationTicks": 119,
                    "midi": 74,
                    "name": "D5",
                    "ticks": 140400,
                    "time": 243.7499025,
                    "velocity": 0.7559055118110236,
                },
                {
                    "duration": 0.20659713958332304,
                    "durationTicks": 119,
                    "midi": 65,
                    "name": "F4",
                    "ticks": 140400,
                    "time": 243.7499025,
                    "velocity": 0.7559055118110236,
                },
                {
                    "duration": 0.20659713958329462,
                    "durationTicks": 119,
                    "midi": 69,
                    "name": "A4",
                    "ticks": 140520,
                    "time": 243.95823575,
                    "velocity": 0.7559055118110236,
                },
                {
                    "duration": 0.20659713958329462,
                    "durationTicks": 119,
                    "midi": 72,
                    "name": "C5",
                    "ticks": 140640,
                    "time": 244.166569,
                    "velocity": 0.7559055118110236,
                },
                {
                    "duration": 0.20659713958332304,
                    "durationTicks": 119,
                    "midi": 74,
                    "name": "D5",
                    "ticks": 140760,
                    "time": 244.37490225,
                    "velocity": 0.7559055118110236,
                },
                {
                    "duration": 0.20659713958329462,
                    "durationTicks": 119,
                    "midi": 72,
                    "name": "C5",
                    "ticks": 140880,
                    "time": 244.5832355,
                    "velocity": 0.7559055118110236,
                },
                {
                    "duration": 0.20659713958329462,
                    "durationTicks": 119,
                    "midi": 69,
                    "name": "A4",
                    "ticks": 141000,
                    "time": 244.79156875,
                    "velocity": 0.7559055118110236,
                },
                {
                    "duration": 0.4149303895833043,
                    "durationTicks": 239,
                    "midi": 67,
                    "name": "G4",
                    "ticks": 141120,
                    "time": 244.999902,
                    "velocity": 0.7559055118110236,
                },
                {
                    "duration": 0.4149303895833043,
                    "durationTicks": 239,
                    "midi": 64,
                    "name": "E4",
                    "ticks": 141120,
                    "time": 244.999902,
                    "velocity": 0.7559055118110236,
                },
                {
                    "duration": 0.20659713958329462,
                    "durationTicks": 119,
                    "midi": 66,
                    "name": "F#4",
                    "ticks": 141360,
                    "time": 245.4165685,
                    "velocity": 0.7559055118110236,
                },
                {
                    "duration": 0.20659713958329462,
                    "durationTicks": 119,
                    "midi": 63,
                    "name": "D#4",
                    "ticks": 141360,
                    "time": 245.4165685,
                    "velocity": 0.7559055118110236,
                },
                {
                    "duration": 0.4149303895833043,
                    "durationTicks": 239,
                    "midi": 67,
                    "name": "G4",
                    "ticks": 141480,
                    "time": 245.62490175,
                    "velocity": 0.7559055118110236,
                },
                {
                    "duration": 0.20659713958332304,
                    "durationTicks": 119,
                    "midi": 64,
                    "name": "E4",
                    "ticks": 141480,
                    "time": 245.62490175,
                    "velocity": 0.7559055118110236,
                },
                {
                    "duration": 0.20659713958329462,
                    "durationTicks": 119,
                    "midi": 64,
                    "name": "E4",
                    "ticks": 141600,
                    "time": 245.833235,
                    "velocity": 0.7559055118110236,
                },
                {
                    "duration": 0.20659713958332304,
                    "durationTicks": 119,
                    "midi": 66,
                    "name": "F#4",
                    "ticks": 141720,
                    "time": 246.04156824999998,
                    "velocity": 0.7559055118110236,
                },
                {
                    "duration": 0.20659713958332304,
                    "durationTicks": 119,
                    "midi": 63,
                    "name": "D#4",
                    "ticks": 141720,
                    "time": 246.04156824999998,
                    "velocity": 0.7559055118110236,
                },
                {
                    "duration": 0.4149303895833043,
                    "durationTicks": 239,
                    "midi": 67,
                    "name": "G4",
                    "ticks": 141840,
                    "time": 246.2499015,
                    "velocity": 0.7559055118110236,
                },
                {
                    "duration": 0.4149303895833043,
                    "durationTicks": 239,
                    "midi": 64,
                    "name": "E4",
                    "ticks": 141840,
                    "time": 246.2499015,
                    "velocity": 0.7559055118110236,
                },
                {
                    "duration": 0.20659713958332304,
                    "durationTicks": 119,
                    "midi": 72,
                    "name": "C5",
                    "ticks": 142200,
                    "time": 246.87490125,
                    "velocity": 0.7559055118110236,
                },
                {
                    "duration": 0.20659713958329462,
                    "durationTicks": 119,
                    "midi": 76,
                    "name": "E5",
                    "ticks": 142320,
                    "time": 247.0832345,
                    "velocity": 0.7559055118110236,
                },
                {
                    "duration": 0.20659713958329462,
                    "durationTicks": 119,
                    "midi": 67,
                    "name": "G4",
                    "ticks": 142320,
                    "time": 247.0832345,
                    "velocity": 0.7559055118110236,
                },
                {
                    "duration": 0.20659713958332304,
                    "durationTicks": 119,
                    "midi": 72,
                    "name": "C5",
                    "ticks": 142440,
                    "time": 247.29156774999998,
                    "velocity": 0.7559055118110236,
                },
                {
                    "duration": 0.20659713958332304,
                    "durationTicks": 119,
                    "midi": 74,
                    "name": "D5",
                    "ticks": 142560,
                    "time": 247.499901,
                    "velocity": 0.7559055118110236,
                },
                {
                    "duration": 0.20659713958329462,
                    "durationTicks": 119,
                    "midi": 76,
                    "name": "E5",
                    "ticks": 142680,
                    "time": 247.70823425,
                    "velocity": 0.7559055118110236,
                },
                {
                    "duration": 0.20659713958332304,
                    "durationTicks": 119,
                    "midi": 74,
                    "name": "D5",
                    "ticks": 142800,
                    "time": 247.91656749999999,
                    "velocity": 0.7559055118110236,
                },
                {
                    "duration": 0.20659713958332304,
                    "durationTicks": 119,
                    "midi": 72,
                    "name": "C5",
                    "ticks": 142920,
                    "time": 248.12490075,
                    "velocity": 0.7559055118110236,
                },
                {
                    "duration": 0.20659713958329462,
                    "durationTicks": 119,
                    "midi": 69,
                    "name": "A4",
                    "ticks": 143040,
                    "time": 248.333234,
                    "velocity": 0.7559055118110236,
                },
                {
                    "duration": 0.20659713958332304,
                    "durationTicks": 119,
                    "midi": 68,
                    "name": "G#4",
                    "ticks": 143160,
                    "time": 248.54156724999999,
                    "velocity": 0.7559055118110236,
                },
                {
                    "duration": 0.20659713958332304,
                    "durationTicks": 119,
                    "midi": 69,
                    "name": "A4",
                    "ticks": 143280,
                    "time": 248.7499005,
                    "velocity": 0.7559055118110236,
                },
                {
                    "duration": 0.4149303895833043,
                    "durationTicks": 239,
                    "midi": 79,
                    "name": "G5",
                    "ticks": 143400,
                    "time": 248.95823375,
                    "velocity": 0.7559055118110236,
                },
                {
                    "duration": 0.4149303895833043,
                    "durationTicks": 239,
                    "midi": 69,
                    "name": "A4",
                    "ticks": 143400,
                    "time": 248.95823375,
                    "velocity": 0.7559055118110236,
                },
                {
                    "duration": 0.4149303895833043,
                    "durationTicks": 239,
                    "midi": 77,
                    "name": "F5",
                    "ticks": 143640,
                    "time": 249.37490025,
                    "velocity": 0.7559055118110236,
                },
                {
                    "duration": 0.4149303895833043,
                    "durationTicks": 239,
                    "midi": 69,
                    "name": "A4",
                    "ticks": 143640,
                    "time": 249.37490025,
                    "velocity": 0.7559055118110236,
                },
                {
                    "duration": 0.20659713958332304,
                    "durationTicks": 119,
                    "midi": 72,
                    "name": "C5",
                    "ticks": 143880,
                    "time": 249.79156675,
                    "velocity": 0.7559055118110236,
                },
                {
                    "duration": 0.20659713958332304,
                    "durationTicks": 119,
                    "midi": 69,
                    "name": "A4",
                    "ticks": 143880,
                    "time": 249.79156675,
                    "velocity": 0.7559055118110236,
                },
                {
                    "duration": 0.20659713958332304,
                    "durationTicks": 119,
                    "midi": 76,
                    "name": "E5",
                    "ticks": 144000,
                    "time": 249.9999,
                    "velocity": 0.7559055118110236,
                },
                {
                    "duration": 0.20659713958332304,
                    "durationTicks": 119,
                    "midi": 67,
                    "name": "G4",
                    "ticks": 144000,
                    "time": 249.9999,
                    "velocity": 0.7559055118110236,
                },
                {
                    "duration": 0.20659713958329462,
                    "durationTicks": 119,
                    "midi": 75,
                    "name": "D#5",
                    "ticks": 144120,
                    "time": 250.20823325,
                    "velocity": 0.7559055118110236,
                },
                {
                    "duration": 0.20659713958332304,
                    "durationTicks": 119,
                    "midi": 76,
                    "name": "E5",
                    "ticks": 144240,
                    "time": 250.4165665,
                    "velocity": 0.7559055118110236,
                },
                {
                    "duration": 0.20659713958332304,
                    "durationTicks": 119,
                    "midi": 81,
                    "name": "A5",
                    "ticks": 144360,
                    "time": 250.62489975,
                    "velocity": 0.7559055118110236,
                },
                {
                    "duration": 0.20659713958329462,
                    "durationTicks": 119,
                    "midi": 81,
                    "name": "A5",
                    "ticks": 144480,
                    "time": 250.833233,
                    "velocity": 0.7559055118110236,
                },
                {
                    "duration": 0.20659713958332304,
                    "durationTicks": 119,
                    "midi": 84,
                    "name": "C6",
                    "ticks": 144600,
                    "time": 251.04156625,
                    "velocity": 0.7559055118110236,
                },
                {
                    "duration": 0.20659713958332304,
                    "durationTicks": 119,
                    "midi": 79,
                    "name": "G5",
                    "ticks": 144720,
                    "time": 251.2498995,
                    "velocity": 0.7559055118110236,
                },
                {
                    "duration": 0.20659713958329462,
                    "durationTicks": 119,
                    "midi": 76,
                    "name": "E5",
                    "ticks": 144840,
                    "time": 251.45823275,
                    "velocity": 0.7559055118110236,
                },
                {
                    "duration": 0.4149303895833327,
                    "durationTicks": 239,
                    "midi": 72,
                    "name": "C5",
                    "ticks": 144960,
                    "time": 251.666566,
                    "velocity": 0.7559055118110236,
                },
                {
                    "duration": 0.4149303895833327,
                    "durationTicks": 239,
                    "midi": 66,
                    "name": "F#4",
                    "ticks": 144960,
                    "time": 251.666566,
                    "velocity": 0.7559055118110236,
                },
                {
                    "duration": 0.4149303895833043,
                    "durationTicks": 239,
                    "midi": 72,
                    "name": "C5",
                    "ticks": 145200,
                    "time": 252.0832325,
                    "velocity": 0.7559055118110236,
                },
                {
                    "duration": 0.4149303895833043,
                    "durationTicks": 239,
                    "midi": 66,
                    "name": "F#4",
                    "ticks": 145200,
                    "time": 252.0832325,
                    "velocity": 0.7559055118110236,
                },
                {
                    "duration": 0.20659713958332304,
                    "durationTicks": 119,
                    "midi": 76,
                    "name": "E5",
                    "ticks": 145440,
                    "time": 252.499899,
                    "velocity": 0.7559055118110236,
                },
                {
                    "duration": 0.20659713958332304,
                    "durationTicks": 119,
                    "midi": 71,
                    "name": "B4",
                    "ticks": 145440,
                    "time": 252.499899,
                    "velocity": 0.7559055118110236,
                },
                {
                    "duration": 0.20659713958332304,
                    "durationTicks": 119,
                    "midi": 65,
                    "name": "F4",
                    "ticks": 145440,
                    "time": 252.499899,
                    "velocity": 0.7559055118110236,
                },
                {
                    "duration": 0.4149303895833043,
                    "durationTicks": 239,
                    "midi": 74,
                    "name": "D5",
                    "ticks": 145560,
                    "time": 252.70823225,
                    "velocity": 0.7559055118110236,
                },
                {
                    "duration": 0.4149303895833043,
                    "durationTicks": 239,
                    "midi": 71,
                    "name": "B4",
                    "ticks": 145560,
                    "time": 252.70823225,
                    "velocity": 0.7559055118110236,
                },
                {
                    "duration": 0.4149303895833043,
                    "durationTicks": 239,
                    "midi": 65,
                    "name": "F4",
                    "ticks": 145560,
                    "time": 252.70823225,
                    "velocity": 0.7559055118110236,
                },
                {
                    "duration": 0.623263639583314,
                    "durationTicks": 359,
                    "midi": 72,
                    "name": "C5",
                    "ticks": 145800,
                    "time": 253.12489875,
                    "velocity": 0.7559055118110236,
                },
                {
                    "duration": 0.623263639583314,
                    "durationTicks": 359,
                    "midi": 67,
                    "name": "G4",
                    "ticks": 145800,
                    "time": 253.12489875,
                    "velocity": 0.7559055118110236,
                },
                {
                    "duration": 0.623263639583314,
                    "durationTicks": 359,
                    "midi": 64,
                    "name": "E4",
                    "ticks": 145800,
                    "time": 253.12489875,
                    "velocity": 0.7559055118110236,
                },
                {
                    "duration": 0.8315968895832953,
                    "durationTicks": 479,
                    "midi": 72,
                    "name": "C5",
                    "ticks": 145920,
                    "time": 253.333232,
                    "velocity": 0.7559055118110236,
                },
                {
                    "duration": 0.8315968895832953,
                    "durationTicks": 479,
                    "midi": 67,
                    "name": "G4",
                    "ticks": 145920,
                    "time": 253.333232,
                    "velocity": 0.7559055118110236,
                },
                {
                    "duration": 0.8315968895832953,
                    "durationTicks": 479,
                    "midi": 64,
                    "name": "E4",
                    "ticks": 145920,
                    "time": 253.333232,
                    "velocity": 0.7559055118110236,
                },
                {
                    "duration": 0.4149303895833043,
                    "durationTicks": 239,
                    "midi": 84,
                    "name": "C6",
                    "ticks": 146400,
                    "time": 254.166565,
                    "velocity": 0.7559055118110236,
                },
                {
                    "duration": 0.4149303895833043,
                    "durationTicks": 239,
                    "midi": 79,
                    "name": "G5",
                    "ticks": 146400,
                    "time": 254.166565,
                    "velocity": 0.7559055118110236,
                },
                {
                    "duration": 0.4149303895833043,
                    "durationTicks": 239,
                    "midi": 76,
                    "name": "E5",
                    "ticks": 146400,
                    "time": 254.166565,
                    "velocity": 0.7559055118110236,
                },
                {
                    "duration": 0.4149303895833043,
                    "durationTicks": 239,
                    "midi": 72,
                    "name": "C5",
                    "ticks": 146400,
                    "time": 254.166565,
                    "velocity": 0.7559055118110236,
                },
            ],
            "endOfTrackTicks": 146640,
        },
        {
            "channel": 0,
            "controlChanges": {},
            "pitchBends": [],
            "instrument": {
                "family": "piano",
                "number": 0,
                "name": "acoustic grand piano",
            },
            "name": "",
            "notes": [
                {
                    "duration": 0.20659713958333348,
                    "durationTicks": 119,
                    "midi": 62,
                    "name": "D4",
                    "ticks": 960,
                    "time": 1.666666,
                    "velocity": 0.7559055118110236,
                },
                {
                    "duration": 0.20659713958333348,
                    "durationTicks": 119,
                    "midi": 64,
                    "name": "E4",
                    "ticks": 1080,
                    "time": 1.87499925,
                    "velocity": 0.7559055118110236,
                },
                {
                    "duration": 0.20659713958333326,
                    "durationTicks": 119,
                    "midi": 60,
                    "name": "C4",
                    "ticks": 1200,
                    "time": 2.0833325,
                    "velocity": 0.7559055118110236,
                },
                {
                    "duration": 0.4149303895833336,
                    "durationTicks": 239,
                    "midi": 57,
                    "name": "A3",
                    "ticks": 1320,
                    "time": 2.29166575,
                    "velocity": 0.7559055118110236,
                },
                {
                    "duration": 0.2065971395833337,
                    "durationTicks": 119,
                    "midi": 59,
                    "name": "B3",
                    "ticks": 1560,
                    "time": 2.7083322499999998,
                    "velocity": 0.7559055118110236,
                },
                {
                    "duration": 0.41493038958333317,
                    "durationTicks": 239,
                    "midi": 55,
                    "name": "G3",
                    "ticks": 1680,
                    "time": 2.9166655,
                    "velocity": 0.7559055118110236,
                },
                {
                    "duration": 0.20659713958333326,
                    "durationTicks": 119,
                    "midi": 50,
                    "name": "D3",
                    "ticks": 1920,
                    "time": 3.333332,
                    "velocity": 0.7559055118110236,
                },
                {
                    "duration": 0.2065971395833337,
                    "durationTicks": 119,
                    "midi": 52,
                    "name": "E3",
                    "ticks": 2040,
                    "time": 3.54166525,
                    "velocity": 0.7559055118110236,
                },
                {
                    "duration": 0.2065971395833337,
                    "durationTicks": 119,
                    "midi": 48,
                    "name": "C3",
                    "ticks": 2160,
                    "time": 3.7499985,
                    "velocity": 0.7559055118110236,
                },
                {
                    "duration": 0.2065971395833328,
                    "durationTicks": 119,
                    "midi": 45,
                    "name": "A2",
                    "ticks": 2280,
                    "time": 3.95833175,
                    "velocity": 0.7559055118110236,
                },
                {
                    "duration": 0.2065971395833337,
                    "durationTicks": 119,
                    "midi": 45,
                    "name": "A2",
                    "ticks": 2400,
                    "time": 4.166665,
                    "velocity": 0.7559055118110236,
                },
                {
                    "duration": 0.2065971395833337,
                    "durationTicks": 119,
                    "midi": 47,
                    "name": "B2",
                    "ticks": 2520,
                    "time": 4.37499825,
                    "velocity": 0.7559055118110236,
                },
                {
                    "duration": 0.2065971395833337,
                    "durationTicks": 119,
                    "midi": 45,
                    "name": "A2",
                    "ticks": 2640,
                    "time": 4.5833315,
                    "velocity": 0.7559055118110236,
                },
                {
                    "duration": 0.2065971395833337,
                    "durationTicks": 119,
                    "midi": 44,
                    "name": "G#2",
                    "ticks": 2760,
                    "time": 4.79166475,
                    "velocity": 0.7559055118110236,
                },
                {
                    "duration": 0.4149303895833336,
                    "durationTicks": 239,
                    "midi": 43,
                    "name": "G2",
                    "ticks": 2880,
                    "time": 4.999998,
                    "velocity": 0.7559055118110236,
                },
                {
                    "duration": 0.4149303895833327,
                    "durationTicks": 239,
                    "midi": 43,
                    "name": "G2",
                    "ticks": 3360,
                    "time": 5.833331,
                    "velocity": 0.7559055118110236,
                },
                {
                    "duration": 0.4149303895833327,
                    "durationTicks": 239,
                    "midi": 31,
                    "name": "G1",
                    "ticks": 3360,
                    "time": 5.833331,
                    "velocity": 0.7559055118110236,
                },
                {
                    "duration": 0.4149303895833336,
                    "durationTicks": 239,
                    "midi": 59,
                    "name": "B3",
                    "ticks": 3600,
                    "time": 6.2499975,
                    "velocity": 0.7559055118110236,
                },
                {
                    "duration": 0.4149303895833336,
                    "durationTicks": 239,
                    "midi": 55,
                    "name": "G3",
                    "ticks": 3600,
                    "time": 6.2499975,
                    "velocity": 0.7559055118110236,
                },
                {
                    "duration": 0.4149303895833336,
                    "durationTicks": 239,
                    "midi": 48,
                    "name": "C3",
                    "ticks": 3840,
                    "time": 6.666664,
                    "velocity": 0.3858267716535433,
                },
                {
                    "duration": 0.4149303895833336,
                    "durationTicks": 239,
                    "midi": 60,
                    "name": "C4",
                    "ticks": 4080,
                    "time": 7.0833305,
                    "velocity": 0.3858267716535433,
                },
                {
                    "duration": 0.4149303895833336,
                    "durationTicks": 239,
                    "midi": 55,
                    "name": "G3",
                    "ticks": 4080,
                    "time": 7.0833305,
                    "velocity": 0.3858267716535433,
                },
                {
                    "duration": 0.4149303895833336,
                    "durationTicks": 239,
                    "midi": 52,
                    "name": "E3",
                    "ticks": 4080,
                    "time": 7.0833305,
                    "velocity": 0.3858267716535433,
                },
                {
                    "duration": 0.4149303895833336,
                    "durationTicks": 239,
                    "midi": 55,
                    "name": "G3",
                    "ticks": 4320,
                    "time": 7.499997,
                    "velocity": 0.3858267716535433,
                },
                {
                    "duration": 0.4149303895833336,
                    "durationTicks": 239,
                    "midi": 43,
                    "name": "G2",
                    "ticks": 4320,
                    "time": 7.499997,
                    "velocity": 0.3858267716535433,
                },
                {
                    "duration": 0.4149303895833327,
                    "durationTicks": 239,
                    "midi": 60,
                    "name": "C4",
                    "ticks": 4560,
                    "time": 7.9166635,
                    "velocity": 0.3858267716535433,
                },
                {
                    "duration": 0.4149303895833327,
                    "durationTicks": 239,
                    "midi": 58,
                    "name": "A#3",
                    "ticks": 4560,
                    "time": 7.9166635,
                    "velocity": 0.3858267716535433,
                },
                {
                    "duration": 0.4149303895833327,
                    "durationTicks": 239,
                    "midi": 55,
                    "name": "G3",
                    "ticks": 4560,
                    "time": 7.9166635,
                    "velocity": 0.3858267716535433,
                },
                {
                    "duration": 0.4149303895833327,
                    "durationTicks": 239,
                    "midi": 53,
                    "name": "F3",
                    "ticks": 4800,
                    "time": 8.33333,
                    "velocity": 0.3858267716535433,
                },
                {
                    "duration": 0.4149303895833327,
                    "durationTicks": 239,
                    "midi": 41,
                    "name": "F2",
                    "ticks": 4800,
                    "time": 8.33333,
                    "velocity": 0.3858267716535433,
                },
                {
                    "duration": 0.4149303895833327,
                    "durationTicks": 239,
                    "midi": 60,
                    "name": "C4",
                    "ticks": 5040,
                    "time": 8.7499965,
                    "velocity": 0.3858267716535433,
                },
                {
                    "duration": 0.4149303895833327,
                    "durationTicks": 239,
                    "midi": 57,
                    "name": "A3",
                    "ticks": 5040,
                    "time": 8.7499965,
                    "velocity": 0.3858267716535433,
                },
                {
                    "duration": 0.4149303895833327,
                    "durationTicks": 239,
                    "midi": 52,
                    "name": "E3",
                    "ticks": 5280,
                    "time": 9.166663,
                    "velocity": 0.3858267716535433,
                },
                {
                    "duration": 0.4149303895833327,
                    "durationTicks": 239,
                    "midi": 40,
                    "name": "E2",
                    "ticks": 5280,
                    "time": 9.166663,
                    "velocity": 0.3858267716535433,
                },
                {
                    "duration": 0.4149303895833345,
                    "durationTicks": 239,
                    "midi": 60,
                    "name": "C4",
                    "ticks": 5520,
                    "time": 9.5833295,
                    "velocity": 0.3858267716535433,
                },
                {
                    "duration": 0.4149303895833345,
                    "durationTicks": 239,
                    "midi": 55,
                    "name": "G3",
                    "ticks": 5520,
                    "time": 9.5833295,
                    "velocity": 0.3858267716535433,
                },
                {
                    "duration": 0.4149303895833345,
                    "durationTicks": 239,
                    "midi": 43,
                    "name": "G2",
                    "ticks": 5760,
                    "time": 9.999996,
                    "velocity": 0.3858267716535433,
                },
                {
                    "duration": 0.4149303895833345,
                    "durationTicks": 239,
                    "midi": 60,
                    "name": "C4",
                    "ticks": 6000,
                    "time": 10.4166625,
                    "velocity": 0.3858267716535433,
                },
                {
                    "duration": 0.4149303895833345,
                    "durationTicks": 239,
                    "midi": 55,
                    "name": "G3",
                    "ticks": 6000,
                    "time": 10.4166625,
                    "velocity": 0.3858267716535433,
                },
                {
                    "duration": 0.4149303895833345,
                    "durationTicks": 239,
                    "midi": 52,
                    "name": "E3",
                    "ticks": 6000,
                    "time": 10.4166625,
                    "velocity": 0.3858267716535433,
                },
                {
                    "duration": 0.4149303895833345,
                    "durationTicks": 239,
                    "midi": 43,
                    "name": "G2",
                    "ticks": 6240,
                    "time": 10.833328999999999,
                    "velocity": 0.3858267716535433,
                },
                {
                    "duration": 0.4149303895833327,
                    "durationTicks": 239,
                    "midi": 59,
                    "name": "B3",
                    "ticks": 6480,
                    "time": 11.2499955,
                    "velocity": 0.3858267716535433,
                },
                {
                    "duration": 0.4149303895833327,
                    "durationTicks": 239,
                    "midi": 55,
                    "name": "G3",
                    "ticks": 6480,
                    "time": 11.2499955,
                    "velocity": 0.3858267716535433,
                },
                {
                    "duration": 0.4149303895833327,
                    "durationTicks": 239,
                    "midi": 53,
                    "name": "F3",
                    "ticks": 6480,
                    "time": 11.2499955,
                    "velocity": 0.3858267716535433,
                },
                {
                    "duration": 0.4149303895833327,
                    "durationTicks": 239,
                    "midi": 48,
                    "name": "C3",
                    "ticks": 6720,
                    "time": 11.666662,
                    "velocity": 0.3858267716535433,
                },
                {
                    "duration": 0.4149303895833327,
                    "durationTicks": 239,
                    "midi": 60,
                    "name": "C4",
                    "ticks": 6960,
                    "time": 12.0833285,
                    "velocity": 0.3858267716535433,
                },
                {
                    "duration": 0.4149303895833327,
                    "durationTicks": 239,
                    "midi": 55,
                    "name": "G3",
                    "ticks": 6960,
                    "time": 12.0833285,
                    "velocity": 0.3858267716535433,
                },
                {
                    "duration": 0.4149303895833327,
                    "durationTicks": 239,
                    "midi": 52,
                    "name": "E3",
                    "ticks": 6960,
                    "time": 12.0833285,
                    "velocity": 0.3858267716535433,
                },
                {
                    "duration": 0.4149303895833327,
                    "durationTicks": 239,
                    "midi": 60,
                    "name": "C4",
                    "ticks": 7200,
                    "time": 12.499995,
                    "velocity": 0.3858267716535433,
                },
                {
                    "duration": 0.4149303895833327,
                    "durationTicks": 239,
                    "midi": 55,
                    "name": "G3",
                    "ticks": 7200,
                    "time": 12.499995,
                    "velocity": 0.3858267716535433,
                },
                {
                    "duration": 0.4149303895833327,
                    "durationTicks": 239,
                    "midi": 52,
                    "name": "E3",
                    "ticks": 7200,
                    "time": 12.499995,
                    "velocity": 0.3858267716535433,
                },
                {
                    "duration": 0.4149303895833327,
                    "durationTicks": 239,
                    "midi": 59,
                    "name": "B3",
                    "ticks": 7440,
                    "time": 12.9166615,
                    "velocity": 0.3858267716535433,
                },
                {
                    "duration": 0.4149303895833327,
                    "durationTicks": 239,
                    "midi": 55,
                    "name": "G3",
                    "ticks": 7440,
                    "time": 12.9166615,
                    "velocity": 0.3858267716535433,
                },
                {
                    "duration": 0.4149303895833327,
                    "durationTicks": 239,
                    "midi": 48,
                    "name": "C3",
                    "ticks": 7680,
                    "time": 13.333328,
                    "velocity": 0.3858267716535433,
                },
                {
                    "duration": 0.4149303895833327,
                    "durationTicks": 239,
                    "midi": 60,
                    "name": "C4",
                    "ticks": 7920,
                    "time": 13.7499945,
                    "velocity": 0.3858267716535433,
                },
                {
                    "duration": 0.4149303895833327,
                    "durationTicks": 239,
                    "midi": 55,
                    "name": "G3",
                    "ticks": 7920,
                    "time": 13.7499945,
                    "velocity": 0.3858267716535433,
                },
                {
                    "duration": 0.4149303895833327,
                    "durationTicks": 239,
                    "midi": 52,
                    "name": "E3",
                    "ticks": 7920,
                    "time": 13.7499945,
                    "velocity": 0.3858267716535433,
                },
                {
                    "duration": 0.4149303895833327,
                    "durationTicks": 239,
                    "midi": 55,
                    "name": "G3",
                    "ticks": 8160,
                    "time": 14.166661,
                    "velocity": 0.3858267716535433,
                },
                {
                    "duration": 0.4149303895833327,
                    "durationTicks": 239,
                    "midi": 43,
                    "name": "G2",
                    "ticks": 8160,
                    "time": 14.166661,
                    "velocity": 0.3858267716535433,
                },
                {
                    "duration": 0.4149303895833327,
                    "durationTicks": 239,
                    "midi": 60,
                    "name": "C4",
                    "ticks": 8400,
                    "time": 14.5833275,
                    "velocity": 0.3858267716535433,
                },
                {
                    "duration": 0.4149303895833327,
                    "durationTicks": 239,
                    "midi": 58,
                    "name": "A#3",
                    "ticks": 8400,
                    "time": 14.5833275,
                    "velocity": 0.3858267716535433,
                },
                {
                    "duration": 0.4149303895833327,
                    "durationTicks": 239,
                    "midi": 55,
                    "name": "G3",
                    "ticks": 8400,
                    "time": 14.5833275,
                    "velocity": 0.3858267716535433,
                },
                {
                    "duration": 0.4149303895833327,
                    "durationTicks": 239,
                    "midi": 53,
                    "name": "F3",
                    "ticks": 8640,
                    "time": 14.999994,
                    "velocity": 0.3858267716535433,
                },
                {
                    "duration": 0.4149303895833327,
                    "durationTicks": 239,
                    "midi": 41,
                    "name": "F2",
                    "ticks": 8640,
                    "time": 14.999994,
                    "velocity": 0.3858267716535433,
                },
                {
                    "duration": 0.4149303895833327,
                    "durationTicks": 239,
                    "midi": 60,
                    "name": "C4",
                    "ticks": 8880,
                    "time": 15.416660499999999,
                    "velocity": 0.3858267716535433,
                },
                {
                    "duration": 0.4149303895833327,
                    "durationTicks": 239,
                    "midi": 57,
                    "name": "A3",
                    "ticks": 8880,
                    "time": 15.416660499999999,
                    "velocity": 0.3858267716535433,
                },
                {
                    "duration": 0.4149303895833327,
                    "durationTicks": 239,
                    "midi": 52,
                    "name": "E3",
                    "ticks": 9120,
                    "time": 15.833327,
                    "velocity": 0.3858267716535433,
                },
                {
                    "duration": 0.4149303895833327,
                    "durationTicks": 239,
                    "midi": 40,
                    "name": "E2",
                    "ticks": 9120,
                    "time": 15.833327,
                    "velocity": 0.3858267716535433,
                },
                {
                    "duration": 0.4149303895833327,
                    "durationTicks": 239,
                    "midi": 51,
                    "name": "D#3",
                    "ticks": 9360,
                    "time": 16.2499935,
                    "velocity": 0.3858267716535433,
                },
                {
                    "duration": 0.4149303895833327,
                    "durationTicks": 239,
                    "midi": 39,
                    "name": "D#2",
                    "ticks": 9360,
                    "time": 16.2499935,
                    "velocity": 0.3858267716535433,
                },
                {
                    "duration": 0.4149303895833327,
                    "durationTicks": 239,
                    "midi": 50,
                    "name": "D3",
                    "ticks": 9600,
                    "time": 16.66666,
                    "velocity": 0.3858267716535433,
                },
                {
                    "duration": 0.4149303895833327,
                    "durationTicks": 239,
                    "midi": 38,
                    "name": "D2",
                    "ticks": 9600,
                    "time": 16.66666,
                    "velocity": 0.3858267716535433,
                },
                {
                    "duration": 0.4149303895833327,
                    "durationTicks": 239,
                    "midi": 60,
                    "name": "C4",
                    "ticks": 9840,
                    "time": 17.0833265,
                    "velocity": 0.3858267716535433,
                },
                {
                    "duration": 0.4149303895833327,
                    "durationTicks": 239,
                    "midi": 54,
                    "name": "F#3",
                    "ticks": 9840,
                    "time": 17.0833265,
                    "velocity": 0.3858267716535433,
                },
                {
                    "duration": 0.4149303895833327,
                    "durationTicks": 239,
                    "midi": 50,
                    "name": "D3",
                    "ticks": 9840,
                    "time": 17.0833265,
                    "velocity": 0.3858267716535433,
                },
                {
                    "duration": 0.4149303895833327,
                    "durationTicks": 239,
                    "midi": 50,
                    "name": "D3",
                    "ticks": 10080,
                    "time": 17.499993,
                    "velocity": 0.3858267716535433,
                },
                {
                    "duration": 0.4149303895833292,
                    "durationTicks": 239,
                    "midi": 60,
                    "name": "C4",
                    "ticks": 10320,
                    "time": 17.9166595,
                    "velocity": 0.3858267716535433,
                },
                {
                    "duration": 0.4149303895833292,
                    "durationTicks": 239,
                    "midi": 57,
                    "name": "A3",
                    "ticks": 10320,
                    "time": 17.9166595,
                    "velocity": 0.3858267716535433,
                },
                {
                    "duration": 0.4149303895833292,
                    "durationTicks": 239,
                    "midi": 54,
                    "name": "F#3",
                    "ticks": 10320,
                    "time": 17.9166595,
                    "velocity": 0.3858267716535433,
                },
                {
                    "duration": 0.4149303895833327,
                    "durationTicks": 239,
                    "midi": 59,
                    "name": "B3",
                    "ticks": 10560,
                    "time": 18.333326,
                    "velocity": 0.3858267716535433,
                },
                {
                    "duration": 0.4149303895833327,
                    "durationTicks": 239,
                    "midi": 55,
                    "name": "G3",
                    "ticks": 10560,
                    "time": 18.333326,
                    "velocity": 0.3858267716535433,
                },
                {
                    "duration": 0.4149303895833292,
                    "durationTicks": 239,
                    "midi": 55,
                    "name": "G3",
                    "ticks": 10800,
                    "time": 18.7499925,
                    "velocity": 0.3858267716535433,
                },
                {
                    "duration": 0.4149303895833292,
                    "durationTicks": 239,
                    "midi": 43,
                    "name": "G2",
                    "ticks": 10800,
                    "time": 18.7499925,
                    "velocity": 0.3858267716535433,
                },
                {
                    "duration": 0.4149303895833327,
                    "durationTicks": 239,
                    "midi": 57,
                    "name": "A3",
                    "ticks": 11040,
                    "time": 19.166659,
                    "velocity": 0.3858267716535433,
                },
                {
                    "duration": 0.4149303895833327,
                    "durationTicks": 239,
                    "midi": 45,
                    "name": "A2",
                    "ticks": 11040,
                    "time": 19.166659,
                    "velocity": 0.3858267716535433,
                },
                {
                    "duration": 0.4149303895833292,
                    "durationTicks": 239,
                    "midi": 59,
                    "name": "B3",
                    "ticks": 11280,
                    "time": 19.5833255,
                    "velocity": 0.3858267716535433,
                },
                {
                    "duration": 0.4149303895833292,
                    "durationTicks": 239,
                    "midi": 47,
                    "name": "B2",
                    "ticks": 11280,
                    "time": 19.5833255,
                    "velocity": 0.3858267716535433,
                },
                {
                    "duration": 0.4149303895833327,
                    "durationTicks": 239,
                    "midi": 48,
                    "name": "C3",
                    "ticks": 11520,
                    "time": 19.999992,
                    "velocity": 0.3858267716535433,
                },
                {
                    "duration": 0.4149303895833327,
                    "durationTicks": 239,
                    "midi": 60,
                    "name": "C4",
                    "ticks": 11760,
                    "time": 20.4166585,
                    "velocity": 0.3858267716535433,
                },
                {
                    "duration": 0.4149303895833327,
                    "durationTicks": 239,
                    "midi": 55,
                    "name": "G3",
                    "ticks": 11760,
                    "time": 20.4166585,
                    "velocity": 0.3858267716535433,
                },
                {
                    "duration": 0.4149303895833327,
                    "durationTicks": 239,
                    "midi": 52,
                    "name": "E3",
                    "ticks": 11760,
                    "time": 20.4166585,
                    "velocity": 0.3858267716535433,
                },
                {
                    "duration": 0.4149303895833327,
                    "durationTicks": 239,
                    "midi": 55,
                    "name": "G3",
                    "ticks": 12000,
                    "time": 20.833325,
                    "velocity": 0.3858267716535433,
                },
                {
                    "duration": 0.4149303895833327,
                    "durationTicks": 239,
                    "midi": 43,
                    "name": "G2",
                    "ticks": 12000,
                    "time": 20.833325,
                    "velocity": 0.3858267716535433,
                },
                {
                    "duration": 0.4149303895833327,
                    "durationTicks": 239,
                    "midi": 60,
                    "name": "C4",
                    "ticks": 12240,
                    "time": 21.2499915,
                    "velocity": 0.3858267716535433,
                },
                {
                    "duration": 0.4149303895833327,
                    "durationTicks": 239,
                    "midi": 58,
                    "name": "A#3",
                    "ticks": 12240,
                    "time": 21.2499915,
                    "velocity": 0.3858267716535433,
                },
                {
                    "duration": 0.4149303895833327,
                    "durationTicks": 239,
                    "midi": 55,
                    "name": "G3",
                    "ticks": 12240,
                    "time": 21.2499915,
                    "velocity": 0.3858267716535433,
                },
                {
                    "duration": 0.4149303895833327,
                    "durationTicks": 239,
                    "midi": 53,
                    "name": "F3",
                    "ticks": 12480,
                    "time": 21.666657999999998,
                    "velocity": 0.3858267716535433,
                },
                {
                    "duration": 0.4149303895833327,
                    "durationTicks": 239,
                    "midi": 41,
                    "name": "F2",
                    "ticks": 12480,
                    "time": 21.666657999999998,
                    "velocity": 0.3858267716535433,
                },
                {
                    "duration": 0.4149303895833327,
                    "durationTicks": 239,
                    "midi": 60,
                    "name": "C4",
                    "ticks": 12720,
                    "time": 22.0833245,
                    "velocity": 0.3858267716535433,
                },
                {
                    "duration": 0.4149303895833327,
                    "durationTicks": 239,
                    "midi": 57,
                    "name": "A3",
                    "ticks": 12720,
                    "time": 22.0833245,
                    "velocity": 0.3858267716535433,
                },
                {
                    "duration": 0.4149303895833292,
                    "durationTicks": 239,
                    "midi": 52,
                    "name": "E3",
                    "ticks": 12960,
                    "time": 22.499991,
                    "velocity": 0.3858267716535433,
                },
                {
                    "duration": 0.4149303895833292,
                    "durationTicks": 239,
                    "midi": 40,
                    "name": "E2",
                    "ticks": 12960,
                    "time": 22.499991,
                    "velocity": 0.3858267716535433,
                },
                {
                    "duration": 0.4149303895833327,
                    "durationTicks": 239,
                    "midi": 60,
                    "name": "C4",
                    "ticks": 13200,
                    "time": 22.9166575,
                    "velocity": 0.3858267716535433,
                },
                {
                    "duration": 0.4149303895833327,
                    "durationTicks": 239,
                    "midi": 55,
                    "name": "G3",
                    "ticks": 13200,
                    "time": 22.9166575,
                    "velocity": 0.3858267716535433,
                },
                {
                    "duration": 0.4149303895833292,
                    "durationTicks": 239,
                    "midi": 43,
                    "name": "G2",
                    "ticks": 13440,
                    "time": 23.333324,
                    "velocity": 0.3858267716535433,
                },
                {
                    "duration": 0.4149303895833327,
                    "durationTicks": 239,
                    "midi": 60,
                    "name": "C4",
                    "ticks": 13680,
                    "time": 23.7499905,
                    "velocity": 0.3858267716535433,
                },
                {
                    "duration": 0.4149303895833327,
                    "durationTicks": 239,
                    "midi": 55,
                    "name": "G3",
                    "ticks": 13680,
                    "time": 23.7499905,
                    "velocity": 0.3858267716535433,
                },
                {
                    "duration": 0.4149303895833327,
                    "durationTicks": 239,
                    "midi": 52,
                    "name": "E3",
                    "ticks": 13680,
                    "time": 23.7499905,
                    "velocity": 0.3858267716535433,
                },
                {
                    "duration": 0.4149303895833292,
                    "durationTicks": 239,
                    "midi": 43,
                    "name": "G2",
                    "ticks": 13920,
                    "time": 24.166657,
                    "velocity": 0.3858267716535433,
                },
                {
                    "duration": 0.4149303895833327,
                    "durationTicks": 239,
                    "midi": 59,
                    "name": "B3",
                    "ticks": 14160,
                    "time": 24.5833235,
                    "velocity": 0.3858267716535433,
                },
                {
                    "duration": 0.4149303895833327,
                    "durationTicks": 239,
                    "midi": 55,
                    "name": "G3",
                    "ticks": 14160,
                    "time": 24.5833235,
                    "velocity": 0.3858267716535433,
                },
                {
                    "duration": 0.4149303895833327,
                    "durationTicks": 239,
                    "midi": 53,
                    "name": "F3",
                    "ticks": 14160,
                    "time": 24.5833235,
                    "velocity": 0.3858267716535433,
                },
                {
                    "duration": 0.4149303895833327,
                    "durationTicks": 239,
                    "midi": 48,
                    "name": "C3",
                    "ticks": 14400,
                    "time": 24.99999,
                    "velocity": 0.3858267716535433,
                },
                {
                    "duration": 0.4149303895833327,
                    "durationTicks": 239,
                    "midi": 60,
                    "name": "C4",
                    "ticks": 14640,
                    "time": 25.4166565,
                    "velocity": 0.3858267716535433,
                },
                {
                    "duration": 0.4149303895833327,
                    "durationTicks": 239,
                    "midi": 55,
                    "name": "G3",
                    "ticks": 14640,
                    "time": 25.4166565,
                    "velocity": 0.3858267716535433,
                },
                {
                    "duration": 0.4149303895833327,
                    "durationTicks": 239,
                    "midi": 52,
                    "name": "E3",
                    "ticks": 14640,
                    "time": 25.4166565,
                    "velocity": 0.3858267716535433,
                },
                {
                    "duration": 0.4149303895833327,
                    "durationTicks": 239,
                    "midi": 64,
                    "name": "E4",
                    "ticks": 14880,
                    "time": 25.833323,
                    "velocity": 0.3858267716535433,
                },
                {
                    "duration": 0.4149303895833327,
                    "durationTicks": 239,
                    "midi": 60,
                    "name": "C4",
                    "ticks": 14880,
                    "time": 25.833323,
                    "velocity": 0.3858267716535433,
                },
                {
                    "duration": 0.4149303895833327,
                    "durationTicks": 239,
                    "midi": 55,
                    "name": "G3",
                    "ticks": 14880,
                    "time": 25.833323,
                    "velocity": 0.3858267716535433,
                },
                {
                    "duration": 0.4149303895833363,
                    "durationTicks": 239,
                    "midi": 60,
                    "name": "C4",
                    "ticks": 15360,
                    "time": 26.666656,
                    "velocity": 0.3858267716535433,
                },
                {
                    "duration": 0.4149303895833363,
                    "durationTicks": 239,
                    "midi": 48,
                    "name": "C3",
                    "ticks": 15360,
                    "time": 26.666656,
                    "velocity": 0.3858267716535433,
                },
                {
                    "duration": 0.4149303895833327,
                    "durationTicks": 239,
                    "midi": 64,
                    "name": "E4",
                    "ticks": 15600,
                    "time": 27.0833225,
                    "velocity": 0.3858267716535433,
                },
                {
                    "duration": 0.4149303895833327,
                    "durationTicks": 239,
                    "midi": 60,
                    "name": "C4",
                    "ticks": 15600,
                    "time": 27.0833225,
                    "velocity": 0.3858267716535433,
                },
                {
                    "duration": 0.4149303895833327,
                    "durationTicks": 239,
                    "midi": 55,
                    "name": "G3",
                    "ticks": 15600,
                    "time": 27.0833225,
                    "velocity": 0.3858267716535433,
                },
                {
                    "duration": 0.4149303895833363,
                    "durationTicks": 239,
                    "midi": 58,
                    "name": "A#3",
                    "ticks": 15840,
                    "time": 27.499989,
                    "velocity": 0.3858267716535433,
                },
                {
                    "duration": 0.4149303895833363,
                    "durationTicks": 239,
                    "midi": 46,
                    "name": "A#2",
                    "ticks": 15840,
                    "time": 27.499989,
                    "velocity": 0.3858267716535433,
                },
                {
                    "duration": 0.4149303895833327,
                    "durationTicks": 239,
                    "midi": 64,
                    "name": "E4",
                    "ticks": 16080,
                    "time": 27.9166555,
                    "velocity": 0.3858267716535433,
                },
                {
                    "duration": 0.4149303895833327,
                    "durationTicks": 239,
                    "midi": 60,
                    "name": "C4",
                    "ticks": 16080,
                    "time": 27.9166555,
                    "velocity": 0.3858267716535433,
                },
                {
                    "duration": 0.4149303895833327,
                    "durationTicks": 239,
                    "midi": 55,
                    "name": "G3",
                    "ticks": 16080,
                    "time": 27.9166555,
                    "velocity": 0.3858267716535433,
                },
                {
                    "duration": 0.4149303895833363,
                    "durationTicks": 239,
                    "midi": 57,
                    "name": "A3",
                    "ticks": 16320,
                    "time": 28.333322,
                    "velocity": 0.3858267716535433,
                },
                {
                    "duration": 0.4149303895833363,
                    "durationTicks": 239,
                    "midi": 45,
                    "name": "A2",
                    "ticks": 16320,
                    "time": 28.333322,
                    "velocity": 0.3858267716535433,
                },
                {
                    "duration": 0.4149303895833327,
                    "durationTicks": 239,
                    "midi": 65,
                    "name": "F4",
                    "ticks": 16560,
                    "time": 28.7499885,
                    "velocity": 0.3858267716535433,
                },
                {
                    "duration": 0.4149303895833327,
                    "durationTicks": 239,
                    "midi": 60,
                    "name": "C4",
                    "ticks": 16560,
                    "time": 28.7499885,
                    "velocity": 0.3858267716535433,
                },
                {
                    "duration": 0.4149303895833327,
                    "durationTicks": 239,
                    "midi": 57,
                    "name": "A3",
                    "ticks": 16560,
                    "time": 28.7499885,
                    "velocity": 0.3858267716535433,
                },
                {
                    "duration": 0.4149303895833363,
                    "durationTicks": 239,
                    "midi": 56,
                    "name": "G#3",
                    "ticks": 16800,
                    "time": 29.166655,
                    "velocity": 0.3858267716535433,
                },
                {
                    "duration": 0.4149303895833363,
                    "durationTicks": 239,
                    "midi": 44,
                    "name": "G#2",
                    "ticks": 16800,
                    "time": 29.166655,
                    "velocity": 0.3858267716535433,
                },
                {
                    "duration": 0.4149303895833327,
                    "durationTicks": 239,
                    "midi": 65,
                    "name": "F4",
                    "ticks": 17040,
                    "time": 29.5833215,
                    "velocity": 0.3858267716535433,
                },
                {
                    "duration": 0.4149303895833327,
                    "durationTicks": 239,
                    "midi": 60,
                    "name": "C4",
                    "ticks": 17040,
                    "time": 29.5833215,
                    "velocity": 0.3858267716535433,
                },
                {
                    "duration": 0.4149303895833327,
                    "durationTicks": 239,
                    "midi": 56,
                    "name": "G#3",
                    "ticks": 17040,
                    "time": 29.5833215,
                    "velocity": 0.3858267716535433,
                },
                {
                    "duration": 0.4149303895833363,
                    "durationTicks": 239,
                    "midi": 55,
                    "name": "G3",
                    "ticks": 17280,
                    "time": 29.999988,
                    "velocity": 0.3858267716535433,
                },
                {
                    "duration": 0.4149303895833363,
                    "durationTicks": 239,
                    "midi": 43,
                    "name": "G2",
                    "ticks": 17280,
                    "time": 29.999988,
                    "velocity": 0.3858267716535433,
                },
                {
                    "duration": 0.4149303895833363,
                    "durationTicks": 239,
                    "midi": 64,
                    "name": "E4",
                    "ticks": 17520,
                    "time": 30.4166545,
                    "velocity": 0.3858267716535433,
                },
                {
                    "duration": 0.4149303895833363,
                    "durationTicks": 239,
                    "midi": 60,
                    "name": "C4",
                    "ticks": 17520,
                    "time": 30.4166545,
                    "velocity": 0.3858267716535433,
                },
                {
                    "duration": 0.4149303895833363,
                    "durationTicks": 239,
                    "midi": 55,
                    "name": "G3",
                    "ticks": 17520,
                    "time": 30.4166545,
                    "velocity": 0.3858267716535433,
                },
                {
                    "duration": 0.4149303895833363,
                    "durationTicks": 239,
                    "midi": 43,
                    "name": "G2",
                    "ticks": 17760,
                    "time": 30.833320999999998,
                    "velocity": 0.3858267716535433,
                },
                {
                    "duration": 0.4149303895833363,
                    "durationTicks": 239,
                    "midi": 59,
                    "name": "B3",
                    "ticks": 18000,
                    "time": 31.2499875,
                    "velocity": 0.3858267716535433,
                },
                {
                    "duration": 0.4149303895833363,
                    "durationTicks": 239,
                    "midi": 55,
                    "name": "G3",
                    "ticks": 18000,
                    "time": 31.2499875,
                    "velocity": 0.3858267716535433,
                },
                {
                    "duration": 0.4149303895833327,
                    "durationTicks": 239,
                    "midi": 60,
                    "name": "C4",
                    "ticks": 18240,
                    "time": 31.666654,
                    "velocity": 0.3858267716535433,
                },
                {
                    "duration": 0.4149303895833327,
                    "durationTicks": 239,
                    "midi": 55,
                    "name": "G3",
                    "ticks": 18240,
                    "time": 31.666654,
                    "velocity": 0.3858267716535433,
                },
                {
                    "duration": 0.4149303895833327,
                    "durationTicks": 239,
                    "midi": 48,
                    "name": "C3",
                    "ticks": 18240,
                    "time": 31.666654,
                    "velocity": 0.3858267716535433,
                },
                {
                    "duration": 0.4149303895833327,
                    "durationTicks": 239,
                    "midi": 55,
                    "name": "G3",
                    "ticks": 18480,
                    "time": 32.0833205,
                    "velocity": 0.3858267716535433,
                },
                {
                    "duration": 0.4149303895833327,
                    "durationTicks": 239,
                    "midi": 43,
                    "name": "G2",
                    "ticks": 18480,
                    "time": 32.0833205,
                    "velocity": 0.3858267716535433,
                },
                {
                    "duration": 0.41493038958333983,
                    "durationTicks": 239,
                    "midi": 57,
                    "name": "A3",
                    "ticks": 18720,
                    "time": 32.499987,
                    "velocity": 0.3858267716535433,
                },
                {
                    "duration": 0.41493038958333983,
                    "durationTicks": 239,
                    "midi": 45,
                    "name": "A2",
                    "ticks": 18720,
                    "time": 32.499987,
                    "velocity": 0.3858267716535433,
                },
                {
                    "duration": 0.4149303895833327,
                    "durationTicks": 239,
                    "midi": 59,
                    "name": "B3",
                    "ticks": 18960,
                    "time": 32.9166535,
                    "velocity": 0.3858267716535433,
                },
                {
                    "duration": 0.4149303895833327,
                    "durationTicks": 239,
                    "midi": 47,
                    "name": "B2",
                    "ticks": 18960,
                    "time": 32.9166535,
                    "velocity": 0.3858267716535433,
                },
                {
                    "duration": 0.4149303895833327,
                    "durationTicks": 239,
                    "midi": 48,
                    "name": "C3",
                    "ticks": 19200,
                    "time": 33.33332,
                    "velocity": 0.3858267716535433,
                },
                {
                    "duration": 0.4149303895833327,
                    "durationTicks": 239,
                    "midi": 60,
                    "name": "C4",
                    "ticks": 19440,
                    "time": 33.7499865,
                    "velocity": 0.3858267716535433,
                },
                {
                    "duration": 0.4149303895833327,
                    "durationTicks": 239,
                    "midi": 55,
                    "name": "G3",
                    "ticks": 19440,
                    "time": 33.7499865,
                    "velocity": 0.3858267716535433,
                },
                {
                    "duration": 0.4149303895833327,
                    "durationTicks": 239,
                    "midi": 52,
                    "name": "E3",
                    "ticks": 19440,
                    "time": 33.7499865,
                    "velocity": 0.3858267716535433,
                },
                {
                    "duration": 0.41493038958333983,
                    "durationTicks": 239,
                    "midi": 55,
                    "name": "G3",
                    "ticks": 19680,
                    "time": 34.166653,
                    "velocity": 0.3858267716535433,
                },
                {
                    "duration": 0.41493038958333983,
                    "durationTicks": 239,
                    "midi": 43,
                    "name": "G2",
                    "ticks": 19680,
                    "time": 34.166653,
                    "velocity": 0.3858267716535433,
                },
                {
                    "duration": 0.4149303895833327,
                    "durationTicks": 239,
                    "midi": 60,
                    "name": "C4",
                    "ticks": 19920,
                    "time": 34.5833195,
                    "velocity": 0.3858267716535433,
                },
                {
                    "duration": 0.4149303895833327,
                    "durationTicks": 239,
                    "midi": 58,
                    "name": "A#3",
                    "ticks": 19920,
                    "time": 34.5833195,
                    "velocity": 0.3858267716535433,
                },
                {
                    "duration": 0.4149303895833327,
                    "durationTicks": 239,
                    "midi": 55,
                    "name": "G3",
                    "ticks": 19920,
                    "time": 34.5833195,
                    "velocity": 0.3858267716535433,
                },
                {
                    "duration": 0.4149303895833327,
                    "durationTicks": 239,
                    "midi": 53,
                    "name": "F3",
                    "ticks": 20160,
                    "time": 34.999986,
                    "velocity": 0.3858267716535433,
                },
                {
                    "duration": 0.4149303895833327,
                    "durationTicks": 239,
                    "midi": 41,
                    "name": "F2",
                    "ticks": 20160,
                    "time": 34.999986,
                    "velocity": 0.3858267716535433,
                },
                {
                    "duration": 0.41493038958333983,
                    "durationTicks": 239,
                    "midi": 60,
                    "name": "C4",
                    "ticks": 20400,
                    "time": 35.4166525,
                    "velocity": 0.3858267716535433,
                },
                {
                    "duration": 0.41493038958333983,
                    "durationTicks": 239,
                    "midi": 57,
                    "name": "A3",
                    "ticks": 20400,
                    "time": 35.4166525,
                    "velocity": 0.3858267716535433,
                },
                {
                    "duration": 0.4149303895833327,
                    "durationTicks": 239,
                    "midi": 52,
                    "name": "E3",
                    "ticks": 20640,
                    "time": 35.833319,
                    "velocity": 0.3858267716535433,
                },
                {
                    "duration": 0.4149303895833327,
                    "durationTicks": 239,
                    "midi": 40,
                    "name": "E2",
                    "ticks": 20640,
                    "time": 35.833319,
                    "velocity": 0.3858267716535433,
                },
                {
                    "duration": 0.4149303895833327,
                    "durationTicks": 239,
                    "midi": 60,
                    "name": "C4",
                    "ticks": 20880,
                    "time": 36.2499855,
                    "velocity": 0.3858267716535433,
                },
                {
                    "duration": 0.4149303895833327,
                    "durationTicks": 239,
                    "midi": 55,
                    "name": "G3",
                    "ticks": 20880,
                    "time": 36.2499855,
                    "velocity": 0.3858267716535433,
                },
                {
                    "duration": 0.4149303895833327,
                    "durationTicks": 239,
                    "midi": 43,
                    "name": "G2",
                    "ticks": 21120,
                    "time": 36.666652,
                    "velocity": 0.3858267716535433,
                },
                {
                    "duration": 0.41493038958333983,
                    "durationTicks": 239,
                    "midi": 60,
                    "name": "C4",
                    "ticks": 21360,
                    "time": 37.0833185,
                    "velocity": 0.3858267716535433,
                },
                {
                    "duration": 0.41493038958333983,
                    "durationTicks": 239,
                    "midi": 55,
                    "name": "G3",
                    "ticks": 21360,
                    "time": 37.0833185,
                    "velocity": 0.3858267716535433,
                },
                {
                    "duration": 0.41493038958333983,
                    "durationTicks": 239,
                    "midi": 52,
                    "name": "E3",
                    "ticks": 21360,
                    "time": 37.0833185,
                    "velocity": 0.3858267716535433,
                },
                {
                    "duration": 0.4149303895833327,
                    "durationTicks": 239,
                    "midi": 43,
                    "name": "G2",
                    "ticks": 21600,
                    "time": 37.499985,
                    "velocity": 0.3858267716535433,
                },
                {
                    "duration": 0.4149303895833327,
                    "durationTicks": 239,
                    "midi": 59,
                    "name": "B3",
                    "ticks": 21840,
                    "time": 37.9166515,
                    "velocity": 0.3858267716535433,
                },
                {
                    "duration": 0.4149303895833327,
                    "durationTicks": 239,
                    "midi": 55,
                    "name": "G3",
                    "ticks": 21840,
                    "time": 37.9166515,
                    "velocity": 0.3858267716535433,
                },
                {
                    "duration": 0.4149303895833327,
                    "durationTicks": 239,
                    "midi": 53,
                    "name": "F3",
                    "ticks": 21840,
                    "time": 37.9166515,
                    "velocity": 0.3858267716535433,
                },
                {
                    "duration": 0.4149303895833327,
                    "durationTicks": 239,
                    "midi": 48,
                    "name": "C3",
                    "ticks": 22080,
                    "time": 38.333318,
                    "velocity": 0.3858267716535433,
                },
                {
                    "duration": 0.41493038958333983,
                    "durationTicks": 239,
                    "midi": 60,
                    "name": "C4",
                    "ticks": 22320,
                    "time": 38.7499845,
                    "velocity": 0.3858267716535433,
                },
                {
                    "duration": 0.41493038958333983,
                    "durationTicks": 239,
                    "midi": 55,
                    "name": "G3",
                    "ticks": 22320,
                    "time": 38.7499845,
                    "velocity": 0.3858267716535433,
                },
                {
                    "duration": 0.41493038958333983,
                    "durationTicks": 239,
                    "midi": 52,
                    "name": "E3",
                    "ticks": 22320,
                    "time": 38.7499845,
                    "velocity": 0.3858267716535433,
                },
                {
                    "duration": 0.4149303895833327,
                    "durationTicks": 239,
                    "midi": 60,
                    "name": "C4",
                    "ticks": 22560,
                    "time": 39.166651,
                    "velocity": 0.3858267716535433,
                },
                {
                    "duration": 0.4149303895833327,
                    "durationTicks": 239,
                    "midi": 55,
                    "name": "G3",
                    "ticks": 22560,
                    "time": 39.166651,
                    "velocity": 0.3858267716535433,
                },
                {
                    "duration": 0.4149303895833327,
                    "durationTicks": 239,
                    "midi": 52,
                    "name": "E3",
                    "ticks": 22560,
                    "time": 39.166651,
                    "velocity": 0.3858267716535433,
                },
                {
                    "duration": 0.4149303895833327,
                    "durationTicks": 239,
                    "midi": 59,
                    "name": "B3",
                    "ticks": 22800,
                    "time": 39.5833175,
                    "velocity": 0.3858267716535433,
                },
                {
                    "duration": 0.4149303895833327,
                    "durationTicks": 239,
                    "midi": 55,
                    "name": "G3",
                    "ticks": 22800,
                    "time": 39.5833175,
                    "velocity": 0.3858267716535433,
                },
                {
                    "duration": 0.41493038958333983,
                    "durationTicks": 239,
                    "midi": 48,
                    "name": "C3",
                    "ticks": 23040,
                    "time": 39.999984,
                    "velocity": 0.3858267716535433,
                },
                {
                    "duration": 0.4149303895833327,
                    "durationTicks": 239,
                    "midi": 60,
                    "name": "C4",
                    "ticks": 23280,
                    "time": 40.4166505,
                    "velocity": 0.3858267716535433,
                },
                {
                    "duration": 0.4149303895833327,
                    "durationTicks": 239,
                    "midi": 55,
                    "name": "G3",
                    "ticks": 23280,
                    "time": 40.4166505,
                    "velocity": 0.3858267716535433,
                },
                {
                    "duration": 0.4149303895833327,
                    "durationTicks": 239,
                    "midi": 52,
                    "name": "E3",
                    "ticks": 23280,
                    "time": 40.4166505,
                    "velocity": 0.3858267716535433,
                },
                {
                    "duration": 0.4149303895833327,
                    "durationTicks": 239,
                    "midi": 55,
                    "name": "G3",
                    "ticks": 23520,
                    "time": 40.833317,
                    "velocity": 0.3858267716535433,
                },
                {
                    "duration": 0.4149303895833327,
                    "durationTicks": 239,
                    "midi": 43,
                    "name": "G2",
                    "ticks": 23520,
                    "time": 40.833317,
                    "velocity": 0.3858267716535433,
                },
                {
                    "duration": 0.4149303895833327,
                    "durationTicks": 239,
                    "midi": 60,
                    "name": "C4",
                    "ticks": 23760,
                    "time": 41.2499835,
                    "velocity": 0.3858267716535433,
                },
                {
                    "duration": 0.4149303895833327,
                    "durationTicks": 239,
                    "midi": 58,
                    "name": "A#3",
                    "ticks": 23760,
                    "time": 41.2499835,
                    "velocity": 0.3858267716535433,
                },
                {
                    "duration": 0.4149303895833327,
                    "durationTicks": 239,
                    "midi": 55,
                    "name": "G3",
                    "ticks": 23760,
                    "time": 41.2499835,
                    "velocity": 0.3858267716535433,
                },
                {
                    "duration": 0.41493038958333983,
                    "durationTicks": 239,
                    "midi": 53,
                    "name": "F3",
                    "ticks": 24000,
                    "time": 41.66665,
                    "velocity": 0.3858267716535433,
                },
                {
                    "duration": 0.41493038958333983,
                    "durationTicks": 239,
                    "midi": 41,
                    "name": "F2",
                    "ticks": 24000,
                    "time": 41.66665,
                    "velocity": 0.3858267716535433,
                },
                {
                    "duration": 0.4149303895833327,
                    "durationTicks": 239,
                    "midi": 60,
                    "name": "C4",
                    "ticks": 24240,
                    "time": 42.0833165,
                    "velocity": 0.3858267716535433,
                },
                {
                    "duration": 0.4149303895833327,
                    "durationTicks": 239,
                    "midi": 57,
                    "name": "A3",
                    "ticks": 24240,
                    "time": 42.0833165,
                    "velocity": 0.3858267716535433,
                },
                {
                    "duration": 0.4149303895833327,
                    "durationTicks": 239,
                    "midi": 52,
                    "name": "E3",
                    "ticks": 24480,
                    "time": 42.499983,
                    "velocity": 0.3858267716535433,
                },
                {
                    "duration": 0.4149303895833327,
                    "durationTicks": 239,
                    "midi": 40,
                    "name": "E2",
                    "ticks": 24480,
                    "time": 42.499983,
                    "velocity": 0.3858267716535433,
                },
                {
                    "duration": 0.4149303895833327,
                    "durationTicks": 239,
                    "midi": 51,
                    "name": "D#3",
                    "ticks": 24720,
                    "time": 42.9166495,
                    "velocity": 0.3858267716535433,
                },
                {
                    "duration": 0.4149303895833327,
                    "durationTicks": 239,
                    "midi": 39,
                    "name": "D#2",
                    "ticks": 24720,
                    "time": 42.9166495,
                    "velocity": 0.3858267716535433,
                },
                {
                    "duration": 0.41493038958333983,
                    "durationTicks": 239,
                    "midi": 50,
                    "name": "D3",
                    "ticks": 24960,
                    "time": 43.333315999999996,
                    "velocity": 0.3858267716535433,
                },
                {
                    "duration": 0.41493038958333983,
                    "durationTicks": 239,
                    "midi": 38,
                    "name": "D2",
                    "ticks": 24960,
                    "time": 43.333315999999996,
                    "velocity": 0.3858267716535433,
                },
                {
                    "duration": 0.4149303895833327,
                    "durationTicks": 239,
                    "midi": 60,
                    "name": "C4",
                    "ticks": 25200,
                    "time": 43.7499825,
                    "velocity": 0.3858267716535433,
                },
                {
                    "duration": 0.4149303895833327,
                    "durationTicks": 239,
                    "midi": 54,
                    "name": "F#3",
                    "ticks": 25200,
                    "time": 43.7499825,
                    "velocity": 0.3858267716535433,
                },
                {
                    "duration": 0.4149303895833327,
                    "durationTicks": 239,
                    "midi": 50,
                    "name": "D3",
                    "ticks": 25200,
                    "time": 43.7499825,
                    "velocity": 0.3858267716535433,
                },
                {
                    "duration": 0.4149303895833327,
                    "durationTicks": 239,
                    "midi": 50,
                    "name": "D3",
                    "ticks": 25440,
                    "time": 44.166649,
                    "velocity": 0.3858267716535433,
                },
                {
                    "duration": 0.41493038958333983,
                    "durationTicks": 239,
                    "midi": 60,
                    "name": "C4",
                    "ticks": 25680,
                    "time": 44.5833155,
                    "velocity": 0.3858267716535433,
                },
                {
                    "duration": 0.41493038958333983,
                    "durationTicks": 239,
                    "midi": 57,
                    "name": "A3",
                    "ticks": 25680,
                    "time": 44.5833155,
                    "velocity": 0.3858267716535433,
                },
                {
                    "duration": 0.41493038958333983,
                    "durationTicks": 239,
                    "midi": 54,
                    "name": "F#3",
                    "ticks": 25680,
                    "time": 44.5833155,
                    "velocity": 0.3858267716535433,
                },
                {
                    "duration": 0.4149303895833327,
                    "durationTicks": 239,
                    "midi": 59,
                    "name": "B3",
                    "ticks": 25920,
                    "time": 44.999982,
                    "velocity": 0.3858267716535433,
                },
                {
                    "duration": 0.4149303895833327,
                    "durationTicks": 239,
                    "midi": 55,
                    "name": "G3",
                    "ticks": 25920,
                    "time": 44.999982,
                    "velocity": 0.3858267716535433,
                },
                {
                    "duration": 0.4149303895833327,
                    "durationTicks": 239,
                    "midi": 55,
                    "name": "G3",
                    "ticks": 26160,
                    "time": 45.4166485,
                    "velocity": 0.3858267716535433,
                },
                {
                    "duration": 0.4149303895833327,
                    "durationTicks": 239,
                    "midi": 43,
                    "name": "G2",
                    "ticks": 26160,
                    "time": 45.4166485,
                    "velocity": 0.3858267716535433,
                },
                {
                    "duration": 0.4149303895833327,
                    "durationTicks": 239,
                    "midi": 57,
                    "name": "A3",
                    "ticks": 26400,
                    "time": 45.833315,
                    "velocity": 0.3858267716535433,
                },
                {
                    "duration": 0.4149303895833327,
                    "durationTicks": 239,
                    "midi": 45,
                    "name": "A2",
                    "ticks": 26400,
                    "time": 45.833315,
                    "velocity": 0.3858267716535433,
                },
                {
                    "duration": 0.41493038958333983,
                    "durationTicks": 239,
                    "midi": 59,
                    "name": "B3",
                    "ticks": 26640,
                    "time": 46.2499815,
                    "velocity": 0.3858267716535433,
                },
                {
                    "duration": 0.41493038958333983,
                    "durationTicks": 239,
                    "midi": 47,
                    "name": "B2",
                    "ticks": 26640,
                    "time": 46.2499815,
                    "velocity": 0.3858267716535433,
                },
                {
                    "duration": 0.4149303895833327,
                    "durationTicks": 239,
                    "midi": 48,
                    "name": "C3",
                    "ticks": 26880,
                    "time": 46.666648,
                    "velocity": 0.3858267716535433,
                },
                {
                    "duration": 0.4149303895833327,
                    "durationTicks": 239,
                    "midi": 60,
                    "name": "C4",
                    "ticks": 27120,
                    "time": 47.0833145,
                    "velocity": 0.3858267716535433,
                },
                {
                    "duration": 0.4149303895833327,
                    "durationTicks": 239,
                    "midi": 55,
                    "name": "G3",
                    "ticks": 27120,
                    "time": 47.0833145,
                    "velocity": 0.3858267716535433,
                },
                {
                    "duration": 0.4149303895833327,
                    "durationTicks": 239,
                    "midi": 52,
                    "name": "E3",
                    "ticks": 27120,
                    "time": 47.0833145,
                    "velocity": 0.3858267716535433,
                },
                {
                    "duration": 0.4149303895833327,
                    "durationTicks": 239,
                    "midi": 55,
                    "name": "G3",
                    "ticks": 27360,
                    "time": 47.499981,
                    "velocity": 0.3858267716535433,
                },
                {
                    "duration": 0.4149303895833327,
                    "durationTicks": 239,
                    "midi": 43,
                    "name": "G2",
                    "ticks": 27360,
                    "time": 47.499981,
                    "velocity": 0.3858267716535433,
                },
                {
                    "duration": 0.41493038958333983,
                    "durationTicks": 239,
                    "midi": 60,
                    "name": "C4",
                    "ticks": 27600,
                    "time": 47.916647499999996,
                    "velocity": 0.3858267716535433,
                },
                {
                    "duration": 0.41493038958333983,
                    "durationTicks": 239,
                    "midi": 58,
                    "name": "A#3",
                    "ticks": 27600,
                    "time": 47.916647499999996,
                    "velocity": 0.3858267716535433,
                },
                {
                    "duration": 0.41493038958333983,
                    "durationTicks": 239,
                    "midi": 55,
                    "name": "G3",
                    "ticks": 27600,
                    "time": 47.916647499999996,
                    "velocity": 0.3858267716535433,
                },
                {
                    "duration": 0.4149303895833327,
                    "durationTicks": 239,
                    "midi": 53,
                    "name": "F3",
                    "ticks": 27840,
                    "time": 48.333314,
                    "velocity": 0.3858267716535433,
                },
                {
                    "duration": 0.4149303895833327,
                    "durationTicks": 239,
                    "midi": 41,
                    "name": "F2",
                    "ticks": 27840,
                    "time": 48.333314,
                    "velocity": 0.3858267716535433,
                },
                {
                    "duration": 0.4149303895833327,
                    "durationTicks": 239,
                    "midi": 60,
                    "name": "C4",
                    "ticks": 28080,
                    "time": 48.7499805,
                    "velocity": 0.3858267716535433,
                },
                {
                    "duration": 0.4149303895833327,
                    "durationTicks": 239,
                    "midi": 57,
                    "name": "A3",
                    "ticks": 28080,
                    "time": 48.7499805,
                    "velocity": 0.3858267716535433,
                },
                {
                    "duration": 0.41493038958333983,
                    "durationTicks": 239,
                    "midi": 52,
                    "name": "E3",
                    "ticks": 28320,
                    "time": 49.166647,
                    "velocity": 0.3858267716535433,
                },
                {
                    "duration": 0.41493038958333983,
                    "durationTicks": 239,
                    "midi": 40,
                    "name": "E2",
                    "ticks": 28320,
                    "time": 49.166647,
                    "velocity": 0.3858267716535433,
                },
                {
                    "duration": 0.4149303895833327,
                    "durationTicks": 239,
                    "midi": 60,
                    "name": "C4",
                    "ticks": 28560,
                    "time": 49.5833135,
                    "velocity": 0.3858267716535433,
                },
                {
                    "duration": 0.4149303895833327,
                    "durationTicks": 239,
                    "midi": 55,
                    "name": "G3",
                    "ticks": 28560,
                    "time": 49.5833135,
                    "velocity": 0.3858267716535433,
                },
                {
                    "duration": 0.4149303895833327,
                    "durationTicks": 239,
                    "midi": 43,
                    "name": "G2",
                    "ticks": 28800,
                    "time": 49.99998,
                    "velocity": 0.3858267716535433,
                },
                {
                    "duration": 0.4149303895833327,
                    "durationTicks": 239,
                    "midi": 60,
                    "name": "C4",
                    "ticks": 29040,
                    "time": 50.4166465,
                    "velocity": 0.3858267716535433,
                },
                {
                    "duration": 0.4149303895833327,
                    "durationTicks": 239,
                    "midi": 55,
                    "name": "G3",
                    "ticks": 29040,
                    "time": 50.4166465,
                    "velocity": 0.3858267716535433,
                },
                {
                    "duration": 0.4149303895833327,
                    "durationTicks": 239,
                    "midi": 52,
                    "name": "E3",
                    "ticks": 29040,
                    "time": 50.4166465,
                    "velocity": 0.3858267716535433,
                },
                {
                    "duration": 0.41493038958333983,
                    "durationTicks": 239,
                    "midi": 43,
                    "name": "G2",
                    "ticks": 29280,
                    "time": 50.833313,
                    "velocity": 0.3858267716535433,
                },
                {
                    "duration": 0.4149303895833327,
                    "durationTicks": 239,
                    "midi": 59,
                    "name": "B3",
                    "ticks": 29520,
                    "time": 51.2499795,
                    "velocity": 0.3858267716535433,
                },
                {
                    "duration": 0.4149303895833327,
                    "durationTicks": 239,
                    "midi": 55,
                    "name": "G3",
                    "ticks": 29520,
                    "time": 51.2499795,
                    "velocity": 0.3858267716535433,
                },
                {
                    "duration": 0.4149303895833327,
                    "durationTicks": 239,
                    "midi": 53,
                    "name": "F3",
                    "ticks": 29520,
                    "time": 51.2499795,
                    "velocity": 0.3858267716535433,
                },
                {
                    "duration": 0.4149303895833327,
                    "durationTicks": 239,
                    "midi": 48,
                    "name": "C3",
                    "ticks": 29760,
                    "time": 51.666646,
                    "velocity": 0.3858267716535433,
                },
                {
                    "duration": 0.4149303895833327,
                    "durationTicks": 239,
                    "midi": 60,
                    "name": "C4",
                    "ticks": 30000,
                    "time": 52.0833125,
                    "velocity": 0.3858267716535433,
                },
                {
                    "duration": 0.4149303895833327,
                    "durationTicks": 239,
                    "midi": 55,
                    "name": "G3",
                    "ticks": 30000,
                    "time": 52.0833125,
                    "velocity": 0.3858267716535433,
                },
                {
                    "duration": 0.4149303895833327,
                    "durationTicks": 239,
                    "midi": 52,
                    "name": "E3",
                    "ticks": 30000,
                    "time": 52.0833125,
                    "velocity": 0.3858267716535433,
                },
                {
                    "duration": 0.41493038958333983,
                    "durationTicks": 239,
                    "midi": 64,
                    "name": "E4",
                    "ticks": 30240,
                    "time": 52.499978999999996,
                    "velocity": 0.3858267716535433,
                },
                {
                    "duration": 0.41493038958333983,
                    "durationTicks": 239,
                    "midi": 60,
                    "name": "C4",
                    "ticks": 30240,
                    "time": 52.499978999999996,
                    "velocity": 0.3858267716535433,
                },
                {
                    "duration": 0.41493038958333983,
                    "durationTicks": 239,
                    "midi": 55,
                    "name": "G3",
                    "ticks": 30240,
                    "time": 52.499978999999996,
                    "velocity": 0.3858267716535433,
                },
                {
                    "duration": 0.4149303895833327,
                    "durationTicks": 239,
                    "midi": 60,
                    "name": "C4",
                    "ticks": 30720,
                    "time": 53.333312,
                    "velocity": 0.3858267716535433,
                },
                {
                    "duration": 0.4149303895833327,
                    "durationTicks": 239,
                    "midi": 48,
                    "name": "C3",
                    "ticks": 30720,
                    "time": 53.333312,
                    "velocity": 0.3858267716535433,
                },
                {
                    "duration": 0.41493038958333983,
                    "durationTicks": 239,
                    "midi": 64,
                    "name": "E4",
                    "ticks": 30960,
                    "time": 53.7499785,
                    "velocity": 0.3858267716535433,
                },
                {
                    "duration": 0.41493038958333983,
                    "durationTicks": 239,
                    "midi": 60,
                    "name": "C4",
                    "ticks": 30960,
                    "time": 53.7499785,
                    "velocity": 0.3858267716535433,
                },
                {
                    "duration": 0.41493038958333983,
                    "durationTicks": 239,
                    "midi": 55,
                    "name": "G3",
                    "ticks": 30960,
                    "time": 53.7499785,
                    "velocity": 0.3858267716535433,
                },
                {
                    "duration": 0.4149303895833327,
                    "durationTicks": 239,
                    "midi": 58,
                    "name": "A#3",
                    "ticks": 31200,
                    "time": 54.166645,
                    "velocity": 0.3858267716535433,
                },
                {
                    "duration": 0.4149303895833327,
                    "durationTicks": 239,
                    "midi": 46,
                    "name": "A#2",
                    "ticks": 31200,
                    "time": 54.166645,
                    "velocity": 0.3858267716535433,
                },
                {
                    "duration": 0.4149303895833327,
                    "durationTicks": 239,
                    "midi": 64,
                    "name": "E4",
                    "ticks": 31440,
                    "time": 54.5833115,
                    "velocity": 0.3858267716535433,
                },
                {
                    "duration": 0.4149303895833327,
                    "durationTicks": 239,
                    "midi": 60,
                    "name": "C4",
                    "ticks": 31440,
                    "time": 54.5833115,
                    "velocity": 0.3858267716535433,
                },
                {
                    "duration": 0.4149303895833327,
                    "durationTicks": 239,
                    "midi": 55,
                    "name": "G3",
                    "ticks": 31440,
                    "time": 54.5833115,
                    "velocity": 0.3858267716535433,
                },
                {
                    "duration": 0.4149303895833327,
                    "durationTicks": 239,
                    "midi": 57,
                    "name": "A3",
                    "ticks": 31680,
                    "time": 54.999978,
                    "velocity": 0.3858267716535433,
                },
                {
                    "duration": 0.4149303895833327,
                    "durationTicks": 239,
                    "midi": 45,
                    "name": "A2",
                    "ticks": 31680,
                    "time": 54.999978,
                    "velocity": 0.3858267716535433,
                },
                {
                    "duration": 0.41493038958333983,
                    "durationTicks": 239,
                    "midi": 65,
                    "name": "F4",
                    "ticks": 31920,
                    "time": 55.4166445,
                    "velocity": 0.3858267716535433,
                },
                {
                    "duration": 0.41493038958333983,
                    "durationTicks": 239,
                    "midi": 60,
                    "name": "C4",
                    "ticks": 31920,
                    "time": 55.4166445,
                    "velocity": 0.3858267716535433,
                },
                {
                    "duration": 0.41493038958333983,
                    "durationTicks": 239,
                    "midi": 57,
                    "name": "A3",
                    "ticks": 31920,
                    "time": 55.4166445,
                    "velocity": 0.3858267716535433,
                },
                {
                    "duration": 0.4149303895833327,
                    "durationTicks": 239,
                    "midi": 56,
                    "name": "G#3",
                    "ticks": 32160,
                    "time": 55.833311,
                    "velocity": 0.3858267716535433,
                },
                {
                    "duration": 0.4149303895833327,
                    "durationTicks": 239,
                    "midi": 44,
                    "name": "G#2",
                    "ticks": 32160,
                    "time": 55.833311,
                    "velocity": 0.3858267716535433,
                },
                {
                    "duration": 0.4149303895833327,
                    "durationTicks": 239,
                    "midi": 65,
                    "name": "F4",
                    "ticks": 32400,
                    "time": 56.2499775,
                    "velocity": 0.3858267716535433,
                },
                {
                    "duration": 0.4149303895833327,
                    "durationTicks": 239,
                    "midi": 60,
                    "name": "C4",
                    "ticks": 32400,
                    "time": 56.2499775,
                    "velocity": 0.3858267716535433,
                },
                {
                    "duration": 0.4149303895833327,
                    "durationTicks": 239,
                    "midi": 56,
                    "name": "G#3",
                    "ticks": 32400,
                    "time": 56.2499775,
                    "velocity": 0.3858267716535433,
                },
                {
                    "duration": 0.4149303895833327,
                    "durationTicks": 239,
                    "midi": 55,
                    "name": "G3",
                    "ticks": 32640,
                    "time": 56.666644,
                    "velocity": 0.3858267716535433,
                },
                {
                    "duration": 0.4149303895833327,
                    "durationTicks": 239,
                    "midi": 43,
                    "name": "G2",
                    "ticks": 32640,
                    "time": 56.666644,
                    "velocity": 0.3858267716535433,
                },
                {
                    "duration": 0.41493038958333983,
                    "durationTicks": 239,
                    "midi": 64,
                    "name": "E4",
                    "ticks": 32880,
                    "time": 57.083310499999996,
                    "velocity": 0.3858267716535433,
                },
                {
                    "duration": 0.41493038958333983,
                    "durationTicks": 239,
                    "midi": 60,
                    "name": "C4",
                    "ticks": 32880,
                    "time": 57.083310499999996,
                    "velocity": 0.3858267716535433,
                },
                {
                    "duration": 0.41493038958333983,
                    "durationTicks": 239,
                    "midi": 55,
                    "name": "G3",
                    "ticks": 32880,
                    "time": 57.083310499999996,
                    "velocity": 0.3858267716535433,
                },
                {
                    "duration": 0.4149303895833327,
                    "durationTicks": 239,
                    "midi": 43,
                    "name": "G2",
                    "ticks": 33120,
                    "time": 57.499977,
                    "velocity": 0.3858267716535433,
                },
                {
                    "duration": 0.4149303895833327,
                    "durationTicks": 239,
                    "midi": 59,
                    "name": "B3",
                    "ticks": 33360,
                    "time": 57.9166435,
                    "velocity": 0.3858267716535433,
                },
                {
                    "duration": 0.4149303895833327,
                    "durationTicks": 239,
                    "midi": 55,
                    "name": "G3",
                    "ticks": 33360,
                    "time": 57.9166435,
                    "velocity": 0.3858267716535433,
                },
                {
                    "duration": 0.41493038958333983,
                    "durationTicks": 239,
                    "midi": 60,
                    "name": "C4",
                    "ticks": 33600,
                    "time": 58.33331,
                    "velocity": 0.3858267716535433,
                },
                {
                    "duration": 0.41493038958333983,
                    "durationTicks": 239,
                    "midi": 55,
                    "name": "G3",
                    "ticks": 33600,
                    "time": 58.33331,
                    "velocity": 0.3858267716535433,
                },
                {
                    "duration": 0.41493038958333983,
                    "durationTicks": 239,
                    "midi": 48,
                    "name": "C3",
                    "ticks": 33600,
                    "time": 58.33331,
                    "velocity": 0.3858267716535433,
                },
                {
                    "duration": 0.4149303895833327,
                    "durationTicks": 239,
                    "midi": 55,
                    "name": "G3",
                    "ticks": 33840,
                    "time": 58.7499765,
                    "velocity": 0.3858267716535433,
                },
                {
                    "duration": 0.4149303895833327,
                    "durationTicks": 239,
                    "midi": 43,
                    "name": "G2",
                    "ticks": 33840,
                    "time": 58.7499765,
                    "velocity": 0.3858267716535433,
                },
                {
                    "duration": 0.4149303895833327,
                    "durationTicks": 239,
                    "midi": 57,
                    "name": "A3",
                    "ticks": 34080,
                    "time": 59.166643,
                    "velocity": 0.3858267716535433,
                },
                {
                    "duration": 0.4149303895833327,
                    "durationTicks": 239,
                    "midi": 45,
                    "name": "A2",
                    "ticks": 34080,
                    "time": 59.166643,
                    "velocity": 0.3858267716535433,
                },
                {
                    "duration": 0.4149303895833327,
                    "durationTicks": 239,
                    "midi": 59,
                    "name": "B3",
                    "ticks": 34320,
                    "time": 59.5833095,
                    "velocity": 0.3858267716535433,
                },
                {
                    "duration": 0.4149303895833327,
                    "durationTicks": 239,
                    "midi": 47,
                    "name": "B2",
                    "ticks": 34320,
                    "time": 59.5833095,
                    "velocity": 0.3858267716535433,
                },
                {
                    "duration": 0.41493038958333983,
                    "durationTicks": 239,
                    "midi": 60,
                    "name": "C4",
                    "ticks": 34560,
                    "time": 59.999976,
                    "velocity": 0.3858267716535433,
                },
                {
                    "duration": 0.41493038958333983,
                    "durationTicks": 239,
                    "midi": 55,
                    "name": "G3",
                    "ticks": 34560,
                    "time": 59.999976,
                    "velocity": 0.3858267716535433,
                },
                {
                    "duration": 0.41493038958333983,
                    "durationTicks": 239,
                    "midi": 48,
                    "name": "C3",
                    "ticks": 34560,
                    "time": 59.999976,
                    "velocity": 0.3858267716535433,
                },
                {
                    "duration": 0.4149303895833327,
                    "durationTicks": 239,
                    "midi": 55,
                    "name": "G3",
                    "ticks": 34800,
                    "time": 60.4166425,
                    "velocity": 0.3858267716535433,
                },
                {
                    "duration": 0.4149303895833327,
                    "durationTicks": 239,
                    "midi": 43,
                    "name": "G2",
                    "ticks": 34800,
                    "time": 60.4166425,
                    "velocity": 0.3858267716535433,
                },
                {
                    "duration": 0.4149303895833327,
                    "durationTicks": 239,
                    "midi": 48,
                    "name": "C3",
                    "ticks": 35040,
                    "time": 60.833309,
                    "velocity": 0.3858267716535433,
                },
                {
                    "duration": 0.4149303895833327,
                    "durationTicks": 239,
                    "midi": 36,
                    "name": "C2",
                    "ticks": 35040,
                    "time": 60.833309,
                    "velocity": 0.3858267716535433,
                },
                {
                    "duration": 0.41493038958333983,
                    "durationTicks": 239,
                    "midi": 48,
                    "name": "C3",
                    "ticks": 35520,
                    "time": 61.666641999999996,
                    "velocity": 0.7559055118110236,
                },
                {
                    "duration": 0.41493038958333983,
                    "durationTicks": 239,
                    "midi": 36,
                    "name": "C2",
                    "ticks": 35520,
                    "time": 61.666641999999996,
                    "velocity": 0.7559055118110236,
                },
                {
                    "duration": 0.4149303895833327,
                    "durationTicks": 239,
                    "midi": 64,
                    "name": "E4",
                    "ticks": 35760,
                    "time": 62.0833085,
                    "velocity": 0.7559055118110236,
                },
                {
                    "duration": 0.4149303895833327,
                    "durationTicks": 239,
                    "midi": 60,
                    "name": "C4",
                    "ticks": 35760,
                    "time": 62.0833085,
                    "velocity": 0.7559055118110236,
                },
                {
                    "duration": 0.4149303895833327,
                    "durationTicks": 239,
                    "midi": 55,
                    "name": "G3",
                    "ticks": 35760,
                    "time": 62.0833085,
                    "velocity": 0.7559055118110236,
                },
                {
                    "duration": 0.4149303895833327,
                    "durationTicks": 239,
                    "midi": 43,
                    "name": "G2",
                    "ticks": 36000,
                    "time": 62.499975,
                    "velocity": 0.7559055118110236,
                },
                {
                    "duration": 0.41493038958333983,
                    "durationTicks": 239,
                    "midi": 64,
                    "name": "E4",
                    "ticks": 36240,
                    "time": 62.9166415,
                    "velocity": 0.7559055118110236,
                },
                {
                    "duration": 0.41493038958333983,
                    "durationTicks": 239,
                    "midi": 60,
                    "name": "C4",
                    "ticks": 36240,
                    "time": 62.9166415,
                    "velocity": 0.7559055118110236,
                },
                {
                    "duration": 0.41493038958333983,
                    "durationTicks": 239,
                    "midi": 55,
                    "name": "G3",
                    "ticks": 36240,
                    "time": 62.9166415,
                    "velocity": 0.7559055118110236,
                },
                {
                    "duration": 0.4149303895833327,
                    "durationTicks": 239,
                    "midi": 52,
                    "name": "E3",
                    "ticks": 36480,
                    "time": 63.333308,
                    "velocity": 0.7559055118110236,
                },
                {
                    "duration": 0.41493038958333983,
                    "durationTicks": 239,
                    "midi": 64,
                    "name": "E4",
                    "ticks": 36720,
                    "time": 63.7499745,
                    "velocity": 0.7559055118110236,
                },
                {
                    "duration": 0.41493038958333983,
                    "durationTicks": 239,
                    "midi": 60,
                    "name": "C4",
                    "ticks": 36720,
                    "time": 63.7499745,
                    "velocity": 0.7559055118110236,
                },
                {
                    "duration": 0.41493038958333983,
                    "durationTicks": 239,
                    "midi": 55,
                    "name": "G3",
                    "ticks": 36720,
                    "time": 63.7499745,
                    "velocity": 0.7559055118110236,
                },
                {
                    "duration": 0.4149303895833327,
                    "durationTicks": 239,
                    "midi": 43,
                    "name": "G2",
                    "ticks": 36960,
                    "time": 64.166641,
                    "velocity": 0.7559055118110236,
                },
                {
                    "duration": 0.4149303895833327,
                    "durationTicks": 239,
                    "midi": 64,
                    "name": "E4",
                    "ticks": 37200,
                    "time": 64.5833075,
                    "velocity": 0.7559055118110236,
                },
                {
                    "duration": 0.4149303895833327,
                    "durationTicks": 239,
                    "midi": 60,
                    "name": "C4",
                    "ticks": 37200,
                    "time": 64.5833075,
                    "velocity": 0.7559055118110236,
                },
                {
                    "duration": 0.4149303895833327,
                    "durationTicks": 239,
                    "midi": 55,
                    "name": "G3",
                    "ticks": 37200,
                    "time": 64.5833075,
                    "velocity": 0.7559055118110236,
                },
                {
                    "duration": 0.4149303895833327,
                    "durationTicks": 239,
                    "midi": 41,
                    "name": "F2",
                    "ticks": 37440,
                    "time": 64.999974,
                    "velocity": 0.7559055118110236,
                },
                {
                    "duration": 0.4149303895833327,
                    "durationTicks": 239,
                    "midi": 65,
                    "name": "F4",
                    "ticks": 37680,
                    "time": 65.4166405,
                    "velocity": 0.7559055118110236,
                },
                {
                    "duration": 0.4149303895833327,
                    "durationTicks": 239,
                    "midi": 60,
                    "name": "C4",
                    "ticks": 37680,
                    "time": 65.4166405,
                    "velocity": 0.7559055118110236,
                },
                {
                    "duration": 0.4149303895833327,
                    "durationTicks": 239,
                    "midi": 57,
                    "name": "A3",
                    "ticks": 37680,
                    "time": 65.4166405,
                    "velocity": 0.7559055118110236,
                },
                {
                    "duration": 0.4149303895833327,
                    "durationTicks": 239,
                    "midi": 53,
                    "name": "F3",
                    "ticks": 37920,
                    "time": 65.833307,
                    "velocity": 0.7559055118110236,
                },
                {
                    "duration": 0.4149303895833327,
                    "durationTicks": 239,
                    "midi": 65,
                    "name": "F4",
                    "ticks": 38160,
                    "time": 66.2499735,
                    "velocity": 0.7559055118110236,
                },
                {
                    "duration": 0.4149303895833327,
                    "durationTicks": 239,
                    "midi": 60,
                    "name": "C4",
                    "ticks": 38160,
                    "time": 66.2499735,
                    "velocity": 0.7559055118110236,
                },
                {
                    "duration": 0.4149303895833327,
                    "durationTicks": 239,
                    "midi": 56,
                    "name": "G#3",
                    "ticks": 38160,
                    "time": 66.2499735,
                    "velocity": 0.7559055118110236,
                },
                {
                    "duration": 0.4149303895833327,
                    "durationTicks": 239,
                    "midi": 52,
                    "name": "E3",
                    "ticks": 38400,
                    "time": 66.66664,
                    "velocity": 0.7559055118110236,
                },
                {
                    "duration": 0.4149303895833327,
                    "durationTicks": 239,
                    "midi": 64,
                    "name": "E4",
                    "ticks": 38640,
                    "time": 67.0833065,
                    "velocity": 0.7559055118110236,
                },
                {
                    "duration": 0.4149303895833327,
                    "durationTicks": 239,
                    "midi": 60,
                    "name": "C4",
                    "ticks": 38640,
                    "time": 67.0833065,
                    "velocity": 0.7559055118110236,
                },
                {
                    "duration": 0.4149303895833327,
                    "durationTicks": 239,
                    "midi": 55,
                    "name": "G3",
                    "ticks": 38640,
                    "time": 67.0833065,
                    "velocity": 0.7559055118110236,
                },
                {
                    "duration": 0.4149303895833327,
                    "durationTicks": 239,
                    "midi": 43,
                    "name": "G2",
                    "ticks": 38880,
                    "time": 67.499973,
                    "velocity": 0.7559055118110236,
                },
                {
                    "duration": 0.4149303895833327,
                    "durationTicks": 239,
                    "midi": 64,
                    "name": "E4",
                    "ticks": 39120,
                    "time": 67.9166395,
                    "velocity": 0.7559055118110236,
                },
                {
                    "duration": 0.4149303895833327,
                    "durationTicks": 239,
                    "midi": 60,
                    "name": "C4",
                    "ticks": 39120,
                    "time": 67.9166395,
                    "velocity": 0.7559055118110236,
                },
                {
                    "duration": 0.4149303895833327,
                    "durationTicks": 239,
                    "midi": 55,
                    "name": "G3",
                    "ticks": 39120,
                    "time": 67.9166395,
                    "velocity": 0.7559055118110236,
                },
                {
                    "duration": 0.41493038958334694,
                    "durationTicks": 239,
                    "midi": 48,
                    "name": "C3",
                    "ticks": 39360,
                    "time": 68.333306,
                    "velocity": 0.7559055118110236,
                },
                {
                    "duration": 0.4149303895833327,
                    "durationTicks": 239,
                    "midi": 64,
                    "name": "E4",
                    "ticks": 39600,
                    "time": 68.7499725,
                    "velocity": 0.7559055118110236,
                },
                {
                    "duration": 0.4149303895833327,
                    "durationTicks": 239,
                    "midi": 60,
                    "name": "C4",
                    "ticks": 39600,
                    "time": 68.7499725,
                    "velocity": 0.7559055118110236,
                },
                {
                    "duration": 0.4149303895833327,
                    "durationTicks": 239,
                    "midi": 55,
                    "name": "G3",
                    "ticks": 39600,
                    "time": 68.7499725,
                    "velocity": 0.7559055118110236,
                },
                {
                    "duration": 0.4149303895833327,
                    "durationTicks": 239,
                    "midi": 43,
                    "name": "G2",
                    "ticks": 39840,
                    "time": 69.166639,
                    "velocity": 0.7559055118110236,
                },
                {
                    "duration": 0.4149303895833327,
                    "durationTicks": 239,
                    "midi": 64,
                    "name": "E4",
                    "ticks": 40080,
                    "time": 69.5833055,
                    "velocity": 0.7559055118110236,
                },
                {
                    "duration": 0.4149303895833327,
                    "durationTicks": 239,
                    "midi": 60,
                    "name": "C4",
                    "ticks": 40080,
                    "time": 69.5833055,
                    "velocity": 0.7559055118110236,
                },
                {
                    "duration": 0.4149303895833327,
                    "durationTicks": 239,
                    "midi": 55,
                    "name": "G3",
                    "ticks": 40080,
                    "time": 69.5833055,
                    "velocity": 0.7559055118110236,
                },
                {
                    "duration": 0.4149303895833327,
                    "durationTicks": 239,
                    "midi": 52,
                    "name": "E3",
                    "ticks": 40320,
                    "time": 69.999972,
                    "velocity": 0.7559055118110236,
                },
                {
                    "duration": 0.4149303895833327,
                    "durationTicks": 239,
                    "midi": 64,
                    "name": "E4",
                    "ticks": 40560,
                    "time": 70.4166385,
                    "velocity": 0.7559055118110236,
                },
                {
                    "duration": 0.4149303895833327,
                    "durationTicks": 239,
                    "midi": 60,
                    "name": "C4",
                    "ticks": 40560,
                    "time": 70.4166385,
                    "velocity": 0.7559055118110236,
                },
                {
                    "duration": 0.4149303895833327,
                    "durationTicks": 239,
                    "midi": 55,
                    "name": "G3",
                    "ticks": 40560,
                    "time": 70.4166385,
                    "velocity": 0.7559055118110236,
                },
                {
                    "duration": 0.4149303895833327,
                    "durationTicks": 239,
                    "midi": 52,
                    "name": "E3",
                    "ticks": 40800,
                    "time": 70.833305,
                    "velocity": 0.7559055118110236,
                },
                {
                    "duration": 0.4149303895833327,
                    "durationTicks": 239,
                    "midi": 51,
                    "name": "D#3",
                    "ticks": 41040,
                    "time": 71.2499715,
                    "velocity": 0.7559055118110236,
                },
                {
                    "duration": 0.4149303895833327,
                    "durationTicks": 239,
                    "midi": 50,
                    "name": "D3",
                    "ticks": 41280,
                    "time": 71.666638,
                    "velocity": 0.7559055118110236,
                },
                {
                    "duration": 0.4149303895833327,
                    "durationTicks": 239,
                    "midi": 62,
                    "name": "D4",
                    "ticks": 41520,
                    "time": 72.0833045,
                    "velocity": 0.7559055118110236,
                },
                {
                    "duration": 0.4149303895833327,
                    "durationTicks": 239,
                    "midi": 59,
                    "name": "B3",
                    "ticks": 41520,
                    "time": 72.0833045,
                    "velocity": 0.7559055118110236,
                },
                {
                    "duration": 0.4149303895833327,
                    "durationTicks": 239,
                    "midi": 55,
                    "name": "G3",
                    "ticks": 41520,
                    "time": 72.0833045,
                    "velocity": 0.7559055118110236,
                },
                {
                    "duration": 0.4149303895833327,
                    "durationTicks": 239,
                    "midi": 50,
                    "name": "D3",
                    "ticks": 41760,
                    "time": 72.499971,
                    "velocity": 0.7559055118110236,
                },
                {
                    "duration": 0.41493038958334694,
                    "durationTicks": 239,
                    "midi": 62,
                    "name": "D4",
                    "ticks": 42000,
                    "time": 72.9166375,
                    "velocity": 0.7559055118110236,
                },
                {
                    "duration": 0.41493038958334694,
                    "durationTicks": 239,
                    "midi": 60,
                    "name": "C4",
                    "ticks": 42000,
                    "time": 72.9166375,
                    "velocity": 0.7559055118110236,
                },
                {
                    "duration": 0.41493038958334694,
                    "durationTicks": 239,
                    "midi": 57,
                    "name": "A3",
                    "ticks": 42000,
                    "time": 72.9166375,
                    "velocity": 0.7559055118110236,
                },
                {
                    "duration": 0.4149303895833327,
                    "durationTicks": 239,
                    "midi": 62,
                    "name": "D4",
                    "ticks": 42240,
                    "time": 73.333304,
                    "velocity": 0.7559055118110236,
                },
                {
                    "duration": 0.4149303895833327,
                    "durationTicks": 239,
                    "midi": 59,
                    "name": "B3",
                    "ticks": 42240,
                    "time": 73.333304,
                    "velocity": 0.7559055118110236,
                },
                {
                    "duration": 0.4149303895833327,
                    "durationTicks": 239,
                    "midi": 55,
                    "name": "G3",
                    "ticks": 42240,
                    "time": 73.333304,
                    "velocity": 0.7559055118110236,
                },
                {
                    "duration": 0.4149303895833327,
                    "durationTicks": 239,
                    "midi": 53,
                    "name": "F3",
                    "ticks": 42480,
                    "time": 73.7499705,
                    "velocity": 0.7559055118110236,
                },
                {
                    "duration": 0.4149303895833327,
                    "durationTicks": 239,
                    "midi": 41,
                    "name": "F2",
                    "ticks": 42480,
                    "time": 73.7499705,
                    "velocity": 0.7559055118110236,
                },
                {
                    "duration": 0.4149303895833327,
                    "durationTicks": 239,
                    "midi": 52,
                    "name": "E3",
                    "ticks": 42720,
                    "time": 74.166637,
                    "velocity": 0.7559055118110236,
                },
                {
                    "duration": 0.4149303895833327,
                    "durationTicks": 239,
                    "midi": 40,
                    "name": "E2",
                    "ticks": 42720,
                    "time": 74.166637,
                    "velocity": 0.7559055118110236,
                },
                {
                    "duration": 0.4149303895833327,
                    "durationTicks": 239,
                    "midi": 50,
                    "name": "D3",
                    "ticks": 42960,
                    "time": 74.5833035,
                    "velocity": 0.7559055118110236,
                },
                {
                    "duration": 0.4149303895833327,
                    "durationTicks": 239,
                    "midi": 38,
                    "name": "D2",
                    "ticks": 42960,
                    "time": 74.5833035,
                    "velocity": 0.7559055118110236,
                },
                {
                    "duration": 0.4149303895833327,
                    "durationTicks": 239,
                    "midi": 48,
                    "name": "C3",
                    "ticks": 43200,
                    "time": 74.99997,
                    "velocity": 0.3858267716535433,
                },
                {
                    "duration": 0.4149303895833327,
                    "durationTicks": 239,
                    "midi": 36,
                    "name": "C2",
                    "ticks": 43200,
                    "time": 74.99997,
                    "velocity": 0.3858267716535433,
                },
                {
                    "duration": 0.4149303895833327,
                    "durationTicks": 239,
                    "midi": 64,
                    "name": "E4",
                    "ticks": 43440,
                    "time": 75.4166365,
                    "velocity": 0.3858267716535433,
                },
                {
                    "duration": 0.4149303895833327,
                    "durationTicks": 239,
                    "midi": 60,
                    "name": "C4",
                    "ticks": 43440,
                    "time": 75.4166365,
                    "velocity": 0.3858267716535433,
                },
                {
                    "duration": 0.4149303895833327,
                    "durationTicks": 239,
                    "midi": 55,
                    "name": "G3",
                    "ticks": 43440,
                    "time": 75.4166365,
                    "velocity": 0.3858267716535433,
                },
                {
                    "duration": 0.4149303895833327,
                    "durationTicks": 239,
                    "midi": 43,
                    "name": "G2",
                    "ticks": 43680,
                    "time": 75.833303,
                    "velocity": 0.3858267716535433,
                },
                {
                    "duration": 0.4149303895833327,
                    "durationTicks": 239,
                    "midi": 64,
                    "name": "E4",
                    "ticks": 43920,
                    "time": 76.2499695,
                    "velocity": 0.3858267716535433,
                },
                {
                    "duration": 0.4149303895833327,
                    "durationTicks": 239,
                    "midi": 60,
                    "name": "C4",
                    "ticks": 43920,
                    "time": 76.2499695,
                    "velocity": 0.3858267716535433,
                },
                {
                    "duration": 0.4149303895833327,
                    "durationTicks": 239,
                    "midi": 55,
                    "name": "G3",
                    "ticks": 43920,
                    "time": 76.2499695,
                    "velocity": 0.3858267716535433,
                },
                {
                    "duration": 0.4149303895833327,
                    "durationTicks": 239,
                    "midi": 52,
                    "name": "E3",
                    "ticks": 44160,
                    "time": 76.666636,
                    "velocity": 0.3858267716535433,
                },
                {
                    "duration": 0.4149303895833327,
                    "durationTicks": 239,
                    "midi": 64,
                    "name": "E4",
                    "ticks": 44400,
                    "time": 77.0833025,
                    "velocity": 0.3858267716535433,
                },
                {
                    "duration": 0.4149303895833327,
                    "durationTicks": 239,
                    "midi": 60,
                    "name": "C4",
                    "ticks": 44400,
                    "time": 77.0833025,
                    "velocity": 0.3858267716535433,
                },
                {
                    "duration": 0.4149303895833327,
                    "durationTicks": 239,
                    "midi": 55,
                    "name": "G3",
                    "ticks": 44400,
                    "time": 77.0833025,
                    "velocity": 0.3858267716535433,
                },
                {
                    "duration": 0.41493038958334694,
                    "durationTicks": 239,
                    "midi": 43,
                    "name": "G2",
                    "ticks": 44640,
                    "time": 77.499969,
                    "velocity": 0.3858267716535433,
                },
                {
                    "duration": 0.4149303895833327,
                    "durationTicks": 239,
                    "midi": 64,
                    "name": "E4",
                    "ticks": 44880,
                    "time": 77.9166355,
                    "velocity": 0.3858267716535433,
                },
                {
                    "duration": 0.4149303895833327,
                    "durationTicks": 239,
                    "midi": 60,
                    "name": "C4",
                    "ticks": 44880,
                    "time": 77.9166355,
                    "velocity": 0.3858267716535433,
                },
                {
                    "duration": 0.4149303895833327,
                    "durationTicks": 239,
                    "midi": 55,
                    "name": "G3",
                    "ticks": 44880,
                    "time": 77.9166355,
                    "velocity": 0.3858267716535433,
                },
                {
                    "duration": 0.4149303895833327,
                    "durationTicks": 239,
                    "midi": 41,
                    "name": "F2",
                    "ticks": 45120,
                    "time": 78.333302,
                    "velocity": 0.3858267716535433,
                },
                {
                    "duration": 0.4149303895833327,
                    "durationTicks": 239,
                    "midi": 65,
                    "name": "F4",
                    "ticks": 45360,
                    "time": 78.7499685,
                    "velocity": 0.3858267716535433,
                },
                {
                    "duration": 0.4149303895833327,
                    "durationTicks": 239,
                    "midi": 60,
                    "name": "C4",
                    "ticks": 45360,
                    "time": 78.7499685,
                    "velocity": 0.3858267716535433,
                },
                {
                    "duration": 0.4149303895833327,
                    "durationTicks": 239,
                    "midi": 57,
                    "name": "A3",
                    "ticks": 45360,
                    "time": 78.7499685,
                    "velocity": 0.3858267716535433,
                },
                {
                    "duration": 0.4149303895833327,
                    "durationTicks": 239,
                    "midi": 53,
                    "name": "F3",
                    "ticks": 45600,
                    "time": 79.166635,
                    "velocity": 0.3858267716535433,
                },
                {
                    "duration": 0.4149303895833327,
                    "durationTicks": 239,
                    "midi": 65,
                    "name": "F4",
                    "ticks": 45840,
                    "time": 79.5833015,
                    "velocity": 0.3858267716535433,
                },
                {
                    "duration": 0.4149303895833327,
                    "durationTicks": 239,
                    "midi": 60,
                    "name": "C4",
                    "ticks": 45840,
                    "time": 79.5833015,
                    "velocity": 0.3858267716535433,
                },
                {
                    "duration": 0.4149303895833327,
                    "durationTicks": 239,
                    "midi": 56,
                    "name": "G#3",
                    "ticks": 45840,
                    "time": 79.5833015,
                    "velocity": 0.3858267716535433,
                },
                {
                    "duration": 0.4149303895833327,
                    "durationTicks": 239,
                    "midi": 52,
                    "name": "E3",
                    "ticks": 46080,
                    "time": 79.999968,
                    "velocity": 0.3858267716535433,
                },
                {
                    "duration": 0.4149303895833327,
                    "durationTicks": 239,
                    "midi": 64,
                    "name": "E4",
                    "ticks": 46320,
                    "time": 80.4166345,
                    "velocity": 0.3858267716535433,
                },
                {
                    "duration": 0.4149303895833327,
                    "durationTicks": 239,
                    "midi": 60,
                    "name": "C4",
                    "ticks": 46320,
                    "time": 80.4166345,
                    "velocity": 0.3858267716535433,
                },
                {
                    "duration": 0.4149303895833327,
                    "durationTicks": 239,
                    "midi": 55,
                    "name": "G3",
                    "ticks": 46320,
                    "time": 80.4166345,
                    "velocity": 0.3858267716535433,
                },
                {
                    "duration": 0.4149303895833327,
                    "durationTicks": 239,
                    "midi": 48,
                    "name": "C3",
                    "ticks": 46560,
                    "time": 80.833301,
                    "velocity": 0.3858267716535433,
                },
                {
                    "duration": 0.4149303895833327,
                    "durationTicks": 239,
                    "midi": 64,
                    "name": "E4",
                    "ticks": 46800,
                    "time": 81.2499675,
                    "velocity": 0.3858267716535433,
                },
                {
                    "duration": 0.4149303895833327,
                    "durationTicks": 239,
                    "midi": 60,
                    "name": "C4",
                    "ticks": 46800,
                    "time": 81.2499675,
                    "velocity": 0.3858267716535433,
                },
                {
                    "duration": 0.4149303895833327,
                    "durationTicks": 239,
                    "midi": 58,
                    "name": "A#3",
                    "ticks": 46800,
                    "time": 81.2499675,
                    "velocity": 0.3858267716535433,
                },
                {
                    "duration": 0.4149303895833327,
                    "durationTicks": 239,
                    "midi": 65,
                    "name": "F4",
                    "ticks": 47040,
                    "time": 81.666634,
                    "velocity": 0.3858267716535433,
                },
                {
                    "duration": 0.4149303895833327,
                    "durationTicks": 239,
                    "midi": 60,
                    "name": "C4",
                    "ticks": 47040,
                    "time": 81.666634,
                    "velocity": 0.3858267716535433,
                },
                {
                    "duration": 0.4149303895833327,
                    "durationTicks": 239,
                    "midi": 57,
                    "name": "A3",
                    "ticks": 47040,
                    "time": 81.666634,
                    "velocity": 0.3858267716535433,
                },
                {
                    "duration": 0.4149303895833327,
                    "durationTicks": 239,
                    "midi": 53,
                    "name": "F3",
                    "ticks": 47040,
                    "time": 81.666634,
                    "velocity": 0.3858267716535433,
                },
                {
                    "duration": 0.41493038958334694,
                    "durationTicks": 239,
                    "midi": 65,
                    "name": "F4",
                    "ticks": 47280,
                    "time": 82.08330049999999,
                    "velocity": 0.3858267716535433,
                },
                {
                    "duration": 0.41493038958334694,
                    "durationTicks": 239,
                    "midi": 60,
                    "name": "C4",
                    "ticks": 47280,
                    "time": 82.08330049999999,
                    "velocity": 0.3858267716535433,
                },
                {
                    "duration": 0.41493038958334694,
                    "durationTicks": 239,
                    "midi": 57,
                    "name": "A3",
                    "ticks": 47280,
                    "time": 82.08330049999999,
                    "velocity": 0.3858267716535433,
                },
                {
                    "duration": 0.41493038958334694,
                    "durationTicks": 239,
                    "midi": 53,
                    "name": "F3",
                    "ticks": 47280,
                    "time": 82.08330049999999,
                    "velocity": 0.3858267716535433,
                },
                {
                    "duration": 0.4149303895833327,
                    "durationTicks": 239,
                    "midi": 63,
                    "name": "D#4",
                    "ticks": 47520,
                    "time": 82.499967,
                    "velocity": 0.3858267716535433,
                },
                {
                    "duration": 0.4149303895833327,
                    "durationTicks": 239,
                    "midi": 60,
                    "name": "C4",
                    "ticks": 47520,
                    "time": 82.499967,
                    "velocity": 0.3858267716535433,
                },
                {
                    "duration": 0.4149303895833327,
                    "durationTicks": 239,
                    "midi": 57,
                    "name": "A3",
                    "ticks": 47520,
                    "time": 82.499967,
                    "velocity": 0.3858267716535433,
                },
                {
                    "duration": 0.4149303895833327,
                    "durationTicks": 239,
                    "midi": 54,
                    "name": "F#3",
                    "ticks": 47520,
                    "time": 82.499967,
                    "velocity": 0.3858267716535433,
                },
                {
                    "duration": 0.4149303895833327,
                    "durationTicks": 239,
                    "midi": 63,
                    "name": "D#4",
                    "ticks": 47760,
                    "time": 82.9166335,
                    "velocity": 0.3858267716535433,
                },
                {
                    "duration": 0.4149303895833327,
                    "durationTicks": 239,
                    "midi": 60,
                    "name": "C4",
                    "ticks": 47760,
                    "time": 82.9166335,
                    "velocity": 0.3858267716535433,
                },
                {
                    "duration": 0.4149303895833327,
                    "durationTicks": 239,
                    "midi": 57,
                    "name": "A3",
                    "ticks": 47760,
                    "time": 82.9166335,
                    "velocity": 0.3858267716535433,
                },
                {
                    "duration": 0.4149303895833327,
                    "durationTicks": 239,
                    "midi": 54,
                    "name": "F#3",
                    "ticks": 47760,
                    "time": 82.9166335,
                    "velocity": 0.3858267716535433,
                },
                {
                    "duration": 0.4149303895833327,
                    "durationTicks": 239,
                    "midi": 64,
                    "name": "E4",
                    "ticks": 48000,
                    "time": 83.3333,
                    "velocity": 0.3858267716535433,
                },
                {
                    "duration": 0.4149303895833327,
                    "durationTicks": 239,
                    "midi": 60,
                    "name": "C4",
                    "ticks": 48000,
                    "time": 83.3333,
                    "velocity": 0.3858267716535433,
                },
                {
                    "duration": 0.4149303895833327,
                    "durationTicks": 239,
                    "midi": 55,
                    "name": "G3",
                    "ticks": 48000,
                    "time": 83.3333,
                    "velocity": 0.3858267716535433,
                },
                {
                    "duration": 0.4149303895833327,
                    "durationTicks": 239,
                    "midi": 64,
                    "name": "E4",
                    "ticks": 48240,
                    "time": 83.7499665,
                    "velocity": 0.3858267716535433,
                },
                {
                    "duration": 0.4149303895833327,
                    "durationTicks": 239,
                    "midi": 60,
                    "name": "C4",
                    "ticks": 48240,
                    "time": 83.7499665,
                    "velocity": 0.3858267716535433,
                },
                {
                    "duration": 0.4149303895833327,
                    "durationTicks": 239,
                    "midi": 55,
                    "name": "G3",
                    "ticks": 48240,
                    "time": 83.7499665,
                    "velocity": 0.3858267716535433,
                },
                {
                    "duration": 0.4149303895833327,
                    "durationTicks": 239,
                    "midi": 64,
                    "name": "E4",
                    "ticks": 48480,
                    "time": 84.166633,
                    "velocity": 0.3858267716535433,
                },
                {
                    "duration": 0.4149303895833327,
                    "durationTicks": 239,
                    "midi": 60,
                    "name": "C4",
                    "ticks": 48480,
                    "time": 84.166633,
                    "velocity": 0.3858267716535433,
                },
                {
                    "duration": 0.4149303895833327,
                    "durationTicks": 239,
                    "midi": 55,
                    "name": "G3",
                    "ticks": 48480,
                    "time": 84.166633,
                    "velocity": 0.3858267716535433,
                },
                {
                    "duration": 0.4149303895833327,
                    "durationTicks": 239,
                    "midi": 64,
                    "name": "E4",
                    "ticks": 48720,
                    "time": 84.5832995,
                    "velocity": 0.3858267716535433,
                },
                {
                    "duration": 0.4149303895833327,
                    "durationTicks": 239,
                    "midi": 60,
                    "name": "C4",
                    "ticks": 48720,
                    "time": 84.5832995,
                    "velocity": 0.3858267716535433,
                },
                {
                    "duration": 0.4149303895833327,
                    "durationTicks": 239,
                    "midi": 55,
                    "name": "G3",
                    "ticks": 48720,
                    "time": 84.5832995,
                    "velocity": 0.3858267716535433,
                },
                {
                    "duration": 0.4149303895833327,
                    "durationTicks": 239,
                    "midi": 60,
                    "name": "C4",
                    "ticks": 48960,
                    "time": 84.999966,
                    "velocity": 0.3858267716535433,
                },
                {
                    "duration": 0.4149303895833327,
                    "durationTicks": 239,
                    "midi": 50,
                    "name": "D3",
                    "ticks": 48960,
                    "time": 84.999966,
                    "velocity": 0.3858267716535433,
                },
                {
                    "duration": 0.4149303895833327,
                    "durationTicks": 239,
                    "midi": 57,
                    "name": "A3",
                    "ticks": 49200,
                    "time": 85.4166325,
                    "velocity": 0.3858267716535433,
                },
                {
                    "duration": 0.4149303895833327,
                    "durationTicks": 239,
                    "midi": 50,
                    "name": "D3",
                    "ticks": 49200,
                    "time": 85.4166325,
                    "velocity": 0.3858267716535433,
                },
                {
                    "duration": 0.4149303895833327,
                    "durationTicks": 239,
                    "midi": 59,
                    "name": "B3",
                    "ticks": 49440,
                    "time": 85.833299,
                    "velocity": 0.3858267716535433,
                },
                {
                    "duration": 0.4149303895833327,
                    "durationTicks": 239,
                    "midi": 55,
                    "name": "G3",
                    "ticks": 49440,
                    "time": 85.833299,
                    "velocity": 0.3858267716535433,
                },
                {
                    "duration": 0.4149303895833327,
                    "durationTicks": 239,
                    "midi": 59,
                    "name": "B3",
                    "ticks": 49680,
                    "time": 86.2499655,
                    "velocity": 0.3858267716535433,
                },
                {
                    "duration": 0.4149303895833327,
                    "durationTicks": 239,
                    "midi": 55,
                    "name": "G3",
                    "ticks": 49680,
                    "time": 86.2499655,
                    "velocity": 0.3858267716535433,
                },
                {
                    "duration": 0.41493038958334694,
                    "durationTicks": 239,
                    "midi": 60,
                    "name": "C4",
                    "ticks": 49920,
                    "time": 86.66663199999999,
                    "velocity": 0.3858267716535433,
                },
                {
                    "duration": 0.41493038958334694,
                    "durationTicks": 239,
                    "midi": 48,
                    "name": "C3",
                    "ticks": 49920,
                    "time": 86.66663199999999,
                    "velocity": 0.3858267716535433,
                },
                {
                    "duration": 0.4149303895833327,
                    "durationTicks": 239,
                    "midi": 55,
                    "name": "G3",
                    "ticks": 50160,
                    "time": 87.0832985,
                    "velocity": 0.3858267716535433,
                },
                {
                    "duration": 0.4149303895833327,
                    "durationTicks": 239,
                    "midi": 43,
                    "name": "G2",
                    "ticks": 50160,
                    "time": 87.0832985,
                    "velocity": 0.3858267716535433,
                },
                {
                    "duration": 0.4149303895833327,
                    "durationTicks": 239,
                    "midi": 52,
                    "name": "E3",
                    "ticks": 50400,
                    "time": 87.499965,
                    "velocity": 0.3858267716535433,
                },
                {
                    "duration": 0.4149303895833327,
                    "durationTicks": 239,
                    "midi": 40,
                    "name": "E2",
                    "ticks": 50400,
                    "time": 87.499965,
                    "velocity": 0.3858267716535433,
                },
                {
                    "duration": 0.41493038958334694,
                    "durationTicks": 239,
                    "midi": 50,
                    "name": "D3",
                    "ticks": 50640,
                    "time": 87.9166315,
                    "velocity": 0.3858267716535433,
                },
                {
                    "duration": 0.41493038958334694,
                    "durationTicks": 239,
                    "midi": 38,
                    "name": "D2",
                    "ticks": 50640,
                    "time": 87.9166315,
                    "velocity": 0.3858267716535433,
                },
                {
                    "duration": 0.4149303895833327,
                    "durationTicks": 239,
                    "midi": 48,
                    "name": "C3",
                    "ticks": 50880,
                    "time": 88.333298,
                    "velocity": 0.7559055118110236,
                },
                {
                    "duration": 0.4149303895833327,
                    "durationTicks": 239,
                    "midi": 36,
                    "name": "C2",
                    "ticks": 50880,
                    "time": 88.333298,
                    "velocity": 0.7559055118110236,
                },
                {
                    "duration": 0.4149303895833327,
                    "durationTicks": 239,
                    "midi": 64,
                    "name": "E4",
                    "ticks": 51120,
                    "time": 88.7499645,
                    "velocity": 0.7559055118110236,
                },
                {
                    "duration": 0.4149303895833327,
                    "durationTicks": 239,
                    "midi": 60,
                    "name": "C4",
                    "ticks": 51120,
                    "time": 88.7499645,
                    "velocity": 0.7559055118110236,
                },
                {
                    "duration": 0.4149303895833327,
                    "durationTicks": 239,
                    "midi": 55,
                    "name": "G3",
                    "ticks": 51120,
                    "time": 88.7499645,
                    "velocity": 0.7559055118110236,
                },
                {
                    "duration": 0.4149303895833327,
                    "durationTicks": 239,
                    "midi": 43,
                    "name": "G2",
                    "ticks": 51360,
                    "time": 89.166631,
                    "velocity": 0.7559055118110236,
                },
                {
                    "duration": 0.4149303895833327,
                    "durationTicks": 239,
                    "midi": 64,
                    "name": "E4",
                    "ticks": 51600,
                    "time": 89.5832975,
                    "velocity": 0.7559055118110236,
                },
                {
                    "duration": 0.4149303895833327,
                    "durationTicks": 239,
                    "midi": 60,
                    "name": "C4",
                    "ticks": 51600,
                    "time": 89.5832975,
                    "velocity": 0.7559055118110236,
                },
                {
                    "duration": 0.4149303895833327,
                    "durationTicks": 239,
                    "midi": 55,
                    "name": "G3",
                    "ticks": 51600,
                    "time": 89.5832975,
                    "velocity": 0.7559055118110236,
                },
                {
                    "duration": 0.4149303895833327,
                    "durationTicks": 239,
                    "midi": 52,
                    "name": "E3",
                    "ticks": 51840,
                    "time": 89.999964,
                    "velocity": 0.7559055118110236,
                },
                {
                    "duration": 0.4149303895833327,
                    "durationTicks": 239,
                    "midi": 64,
                    "name": "E4",
                    "ticks": 52080,
                    "time": 90.4166305,
                    "velocity": 0.7559055118110236,
                },
                {
                    "duration": 0.4149303895833327,
                    "durationTicks": 239,
                    "midi": 60,
                    "name": "C4",
                    "ticks": 52080,
                    "time": 90.4166305,
                    "velocity": 0.7559055118110236,
                },
                {
                    "duration": 0.4149303895833327,
                    "durationTicks": 239,
                    "midi": 55,
                    "name": "G3",
                    "ticks": 52080,
                    "time": 90.4166305,
                    "velocity": 0.7559055118110236,
                },
                {
                    "duration": 0.4149303895833327,
                    "durationTicks": 239,
                    "midi": 43,
                    "name": "G2",
                    "ticks": 52320,
                    "time": 90.833297,
                    "velocity": 0.7559055118110236,
                },
                {
                    "duration": 0.41493038958334694,
                    "durationTicks": 239,
                    "midi": 64,
                    "name": "E4",
                    "ticks": 52560,
                    "time": 91.24996349999999,
                    "velocity": 0.7559055118110236,
                },
                {
                    "duration": 0.41493038958334694,
                    "durationTicks": 239,
                    "midi": 60,
                    "name": "C4",
                    "ticks": 52560,
                    "time": 91.24996349999999,
                    "velocity": 0.7559055118110236,
                },
                {
                    "duration": 0.41493038958334694,
                    "durationTicks": 239,
                    "midi": 55,
                    "name": "G3",
                    "ticks": 52560,
                    "time": 91.24996349999999,
                    "velocity": 0.7559055118110236,
                },
                {
                    "duration": 0.4149303895833327,
                    "durationTicks": 239,
                    "midi": 41,
                    "name": "F2",
                    "ticks": 52800,
                    "time": 91.66663,
                    "velocity": 0.7559055118110236,
                },
                {
                    "duration": 0.4149303895833327,
                    "durationTicks": 239,
                    "midi": 65,
                    "name": "F4",
                    "ticks": 53040,
                    "time": 92.0832965,
                    "velocity": 0.7559055118110236,
                },
                {
                    "duration": 0.4149303895833327,
                    "durationTicks": 239,
                    "midi": 60,
                    "name": "C4",
                    "ticks": 53040,
                    "time": 92.0832965,
                    "velocity": 0.7559055118110236,
                },
                {
                    "duration": 0.4149303895833327,
                    "durationTicks": 239,
                    "midi": 57,
                    "name": "A3",
                    "ticks": 53040,
                    "time": 92.0832965,
                    "velocity": 0.7559055118110236,
                },
                {
                    "duration": 0.41493038958334694,
                    "durationTicks": 239,
                    "midi": 53,
                    "name": "F3",
                    "ticks": 53280,
                    "time": 92.499963,
                    "velocity": 0.7559055118110236,
                },
                {
                    "duration": 0.4149303895833327,
                    "durationTicks": 239,
                    "midi": 65,
                    "name": "F4",
                    "ticks": 53520,
                    "time": 92.9166295,
                    "velocity": 0.7559055118110236,
                },
                {
                    "duration": 0.4149303895833327,
                    "durationTicks": 239,
                    "midi": 60,
                    "name": "C4",
                    "ticks": 53520,
                    "time": 92.9166295,
                    "velocity": 0.7559055118110236,
                },
                {
                    "duration": 0.4149303895833327,
                    "durationTicks": 239,
                    "midi": 56,
                    "name": "G#3",
                    "ticks": 53520,
                    "time": 92.9166295,
                    "velocity": 0.7559055118110236,
                },
                {
                    "duration": 0.4149303895833327,
                    "durationTicks": 239,
                    "midi": 52,
                    "name": "E3",
                    "ticks": 53760,
                    "time": 93.333296,
                    "velocity": 0.7559055118110236,
                },
                {
                    "duration": 0.4149303895833327,
                    "durationTicks": 239,
                    "midi": 64,
                    "name": "E4",
                    "ticks": 54000,
                    "time": 93.7499625,
                    "velocity": 0.7559055118110236,
                },
                {
                    "duration": 0.4149303895833327,
                    "durationTicks": 239,
                    "midi": 60,
                    "name": "C4",
                    "ticks": 54000,
                    "time": 93.7499625,
                    "velocity": 0.7559055118110236,
                },
                {
                    "duration": 0.4149303895833327,
                    "durationTicks": 239,
                    "midi": 55,
                    "name": "G3",
                    "ticks": 54000,
                    "time": 93.7499625,
                    "velocity": 0.7559055118110236,
                },
                {
                    "duration": 0.4149303895833327,
                    "durationTicks": 239,
                    "midi": 43,
                    "name": "G2",
                    "ticks": 54240,
                    "time": 94.166629,
                    "velocity": 0.7559055118110236,
                },
                {
                    "duration": 0.4149303895833327,
                    "durationTicks": 239,
                    "midi": 64,
                    "name": "E4",
                    "ticks": 54480,
                    "time": 94.5832955,
                    "velocity": 0.7559055118110236,
                },
                {
                    "duration": 0.4149303895833327,
                    "durationTicks": 239,
                    "midi": 60,
                    "name": "C4",
                    "ticks": 54480,
                    "time": 94.5832955,
                    "velocity": 0.7559055118110236,
                },
                {
                    "duration": 0.4149303895833327,
                    "durationTicks": 239,
                    "midi": 55,
                    "name": "G3",
                    "ticks": 54480,
                    "time": 94.5832955,
                    "velocity": 0.7559055118110236,
                },
                {
                    "duration": 0.4149303895833327,
                    "durationTicks": 239,
                    "midi": 48,
                    "name": "C3",
                    "ticks": 54720,
                    "time": 94.999962,
                    "velocity": 0.7559055118110236,
                },
                {
                    "duration": 0.4149303895833327,
                    "durationTicks": 239,
                    "midi": 64,
                    "name": "E4",
                    "ticks": 54960,
                    "time": 95.4166285,
                    "velocity": 0.7559055118110236,
                },
                {
                    "duration": 0.4149303895833327,
                    "durationTicks": 239,
                    "midi": 60,
                    "name": "C4",
                    "ticks": 54960,
                    "time": 95.4166285,
                    "velocity": 0.7559055118110236,
                },
                {
                    "duration": 0.4149303895833327,
                    "durationTicks": 239,
                    "midi": 55,
                    "name": "G3",
                    "ticks": 54960,
                    "time": 95.4166285,
                    "velocity": 0.7559055118110236,
                },
                {
                    "duration": 0.41493038958334694,
                    "durationTicks": 239,
                    "midi": 43,
                    "name": "G2",
                    "ticks": 55200,
                    "time": 95.83329499999999,
                    "velocity": 0.7559055118110236,
                },
                {
                    "duration": 0.4149303895833327,
                    "durationTicks": 239,
                    "midi": 64,
                    "name": "E4",
                    "ticks": 55440,
                    "time": 96.2499615,
                    "velocity": 0.7559055118110236,
                },
                {
                    "duration": 0.4149303895833327,
                    "durationTicks": 239,
                    "midi": 60,
                    "name": "C4",
                    "ticks": 55440,
                    "time": 96.2499615,
                    "velocity": 0.7559055118110236,
                },
                {
                    "duration": 0.4149303895833327,
                    "durationTicks": 239,
                    "midi": 55,
                    "name": "G3",
                    "ticks": 55440,
                    "time": 96.2499615,
                    "velocity": 0.7559055118110236,
                },
                {
                    "duration": 0.4149303895833327,
                    "durationTicks": 239,
                    "midi": 52,
                    "name": "E3",
                    "ticks": 55680,
                    "time": 96.666628,
                    "velocity": 0.7559055118110236,
                },
                {
                    "duration": 0.41493038958334694,
                    "durationTicks": 239,
                    "midi": 64,
                    "name": "E4",
                    "ticks": 55920,
                    "time": 97.0832945,
                    "velocity": 0.7559055118110236,
                },
                {
                    "duration": 0.41493038958334694,
                    "durationTicks": 239,
                    "midi": 60,
                    "name": "C4",
                    "ticks": 55920,
                    "time": 97.0832945,
                    "velocity": 0.7559055118110236,
                },
                {
                    "duration": 0.41493038958334694,
                    "durationTicks": 239,
                    "midi": 55,
                    "name": "G3",
                    "ticks": 55920,
                    "time": 97.0832945,
                    "velocity": 0.7559055118110236,
                },
                {
                    "duration": 0.4149303895833327,
                    "durationTicks": 239,
                    "midi": 52,
                    "name": "E3",
                    "ticks": 56160,
                    "time": 97.499961,
                    "velocity": 0.7559055118110236,
                },
                {
                    "duration": 0.4149303895833327,
                    "durationTicks": 239,
                    "midi": 51,
                    "name": "D#3",
                    "ticks": 56400,
                    "time": 97.9166275,
                    "velocity": 0.7559055118110236,
                },
                {
                    "duration": 0.4149303895833327,
                    "durationTicks": 239,
                    "midi": 50,
                    "name": "D3",
                    "ticks": 56640,
                    "time": 98.333294,
                    "velocity": 0.7559055118110236,
                },
                {
                    "duration": 0.4149303895833327,
                    "durationTicks": 239,
                    "midi": 62,
                    "name": "D4",
                    "ticks": 56880,
                    "time": 98.7499605,
                    "velocity": 0.7559055118110236,
                },
                {
                    "duration": 0.4149303895833327,
                    "durationTicks": 239,
                    "midi": 59,
                    "name": "B3",
                    "ticks": 56880,
                    "time": 98.7499605,
                    "velocity": 0.7559055118110236,
                },
                {
                    "duration": 0.4149303895833327,
                    "durationTicks": 239,
                    "midi": 55,
                    "name": "G3",
                    "ticks": 56880,
                    "time": 98.7499605,
                    "velocity": 0.7559055118110236,
                },
                {
                    "duration": 0.4149303895833327,
                    "durationTicks": 239,
                    "midi": 50,
                    "name": "D3",
                    "ticks": 57120,
                    "time": 99.166627,
                    "velocity": 0.7559055118110236,
                },
                {
                    "duration": 0.4149303895833327,
                    "durationTicks": 239,
                    "midi": 62,
                    "name": "D4",
                    "ticks": 57360,
                    "time": 99.5832935,
                    "velocity": 0.7559055118110236,
                },
                {
                    "duration": 0.4149303895833327,
                    "durationTicks": 239,
                    "midi": 60,
                    "name": "C4",
                    "ticks": 57360,
                    "time": 99.5832935,
                    "velocity": 0.7559055118110236,
                },
                {
                    "duration": 0.4149303895833327,
                    "durationTicks": 239,
                    "midi": 57,
                    "name": "A3",
                    "ticks": 57360,
                    "time": 99.5832935,
                    "velocity": 0.7559055118110236,
                },
                {
                    "duration": 0.4149303895833327,
                    "durationTicks": 239,
                    "midi": 62,
                    "name": "D4",
                    "ticks": 57600,
                    "time": 99.99996,
                    "velocity": 0.7559055118110236,
                },
                {
                    "duration": 0.4149303895833327,
                    "durationTicks": 239,
                    "midi": 59,
                    "name": "B3",
                    "ticks": 57600,
                    "time": 99.99996,
                    "velocity": 0.7559055118110236,
                },
                {
                    "duration": 0.4149303895833327,
                    "durationTicks": 239,
                    "midi": 55,
                    "name": "G3",
                    "ticks": 57600,
                    "time": 99.99996,
                    "velocity": 0.7559055118110236,
                },
                {
                    "duration": 0.41493038958334694,
                    "durationTicks": 239,
                    "midi": 53,
                    "name": "F3",
                    "ticks": 57840,
                    "time": 100.41662649999999,
                    "velocity": 0.7559055118110236,
                },
                {
                    "duration": 0.41493038958334694,
                    "durationTicks": 239,
                    "midi": 41,
                    "name": "F2",
                    "ticks": 57840,
                    "time": 100.41662649999999,
                    "velocity": 0.7559055118110236,
                },
                {
                    "duration": 0.4149303895833327,
                    "durationTicks": 239,
                    "midi": 52,
                    "name": "E3",
                    "ticks": 58080,
                    "time": 100.833293,
                    "velocity": 0.7559055118110236,
                },
                {
                    "duration": 0.4149303895833327,
                    "durationTicks": 239,
                    "midi": 40,
                    "name": "E2",
                    "ticks": 58080,
                    "time": 100.833293,
                    "velocity": 0.7559055118110236,
                },
                {
                    "duration": 0.4149303895833327,
                    "durationTicks": 239,
                    "midi": 50,
                    "name": "D3",
                    "ticks": 58320,
                    "time": 101.2499595,
                    "velocity": 0.7559055118110236,
                },
                {
                    "duration": 0.4149303895833327,
                    "durationTicks": 239,
                    "midi": 38,
                    "name": "D2",
                    "ticks": 58320,
                    "time": 101.2499595,
                    "velocity": 0.7559055118110236,
                },
                {
                    "duration": 0.41493038958334694,
                    "durationTicks": 239,
                    "midi": 48,
                    "name": "C3",
                    "ticks": 58560,
                    "time": 101.666626,
                    "velocity": 0.3858267716535433,
                },
                {
                    "duration": 0.41493038958334694,
                    "durationTicks": 239,
                    "midi": 36,
                    "name": "C2",
                    "ticks": 58560,
                    "time": 101.666626,
                    "velocity": 0.3858267716535433,
                },
                {
                    "duration": 0.4149303895833327,
                    "durationTicks": 239,
                    "midi": 64,
                    "name": "E4",
                    "ticks": 58800,
                    "time": 102.0832925,
                    "velocity": 0.3858267716535433,
                },
                {
                    "duration": 0.4149303895833327,
                    "durationTicks": 239,
                    "midi": 60,
                    "name": "C4",
                    "ticks": 58800,
                    "time": 102.0832925,
                    "velocity": 0.3858267716535433,
                },
                {
                    "duration": 0.4149303895833327,
                    "durationTicks": 239,
                    "midi": 55,
                    "name": "G3",
                    "ticks": 58800,
                    "time": 102.0832925,
                    "velocity": 0.3858267716535433,
                },
                {
                    "duration": 0.4149303895833327,
                    "durationTicks": 239,
                    "midi": 43,
                    "name": "G2",
                    "ticks": 59040,
                    "time": 102.499959,
                    "velocity": 0.3858267716535433,
                },
                {
                    "duration": 0.4149303895833327,
                    "durationTicks": 239,
                    "midi": 64,
                    "name": "E4",
                    "ticks": 59280,
                    "time": 102.9166255,
                    "velocity": 0.3858267716535433,
                },
                {
                    "duration": 0.4149303895833327,
                    "durationTicks": 239,
                    "midi": 60,
                    "name": "C4",
                    "ticks": 59280,
                    "time": 102.9166255,
                    "velocity": 0.3858267716535433,
                },
                {
                    "duration": 0.4149303895833327,
                    "durationTicks": 239,
                    "midi": 55,
                    "name": "G3",
                    "ticks": 59280,
                    "time": 102.9166255,
                    "velocity": 0.3858267716535433,
                },
                {
                    "duration": 0.4149303895833327,
                    "durationTicks": 239,
                    "midi": 52,
                    "name": "E3",
                    "ticks": 59520,
                    "time": 103.333292,
                    "velocity": 0.3858267716535433,
                },
                {
                    "duration": 0.4149303895833327,
                    "durationTicks": 239,
                    "midi": 64,
                    "name": "E4",
                    "ticks": 59760,
                    "time": 103.7499585,
                    "velocity": 0.3858267716535433,
                },
                {
                    "duration": 0.4149303895833327,
                    "durationTicks": 239,
                    "midi": 60,
                    "name": "C4",
                    "ticks": 59760,
                    "time": 103.7499585,
                    "velocity": 0.3858267716535433,
                },
                {
                    "duration": 0.4149303895833327,
                    "durationTicks": 239,
                    "midi": 55,
                    "name": "G3",
                    "ticks": 59760,
                    "time": 103.7499585,
                    "velocity": 0.3858267716535433,
                },
                {
                    "duration": 0.4149303895833327,
                    "durationTicks": 239,
                    "midi": 43,
                    "name": "G2",
                    "ticks": 60000,
                    "time": 104.166625,
                    "velocity": 0.3858267716535433,
                },
                {
                    "duration": 0.4149303895833327,
                    "durationTicks": 239,
                    "midi": 64,
                    "name": "E4",
                    "ticks": 60240,
                    "time": 104.5832915,
                    "velocity": 0.3858267716535433,
                },
                {
                    "duration": 0.4149303895833327,
                    "durationTicks": 239,
                    "midi": 60,
                    "name": "C4",
                    "ticks": 60240,
                    "time": 104.5832915,
                    "velocity": 0.3858267716535433,
                },
                {
                    "duration": 0.4149303895833327,
                    "durationTicks": 239,
                    "midi": 55,
                    "name": "G3",
                    "ticks": 60240,
                    "time": 104.5832915,
                    "velocity": 0.3858267716535433,
                },
                {
                    "duration": 0.41493038958334694,
                    "durationTicks": 239,
                    "midi": 41,
                    "name": "F2",
                    "ticks": 60480,
                    "time": 104.99995799999999,
                    "velocity": 0.3858267716535433,
                },
                {
                    "duration": 0.4149303895833327,
                    "durationTicks": 239,
                    "midi": 65,
                    "name": "F4",
                    "ticks": 60720,
                    "time": 105.4166245,
                    "velocity": 0.3858267716535433,
                },
                {
                    "duration": 0.4149303895833327,
                    "durationTicks": 239,
                    "midi": 60,
                    "name": "C4",
                    "ticks": 60720,
                    "time": 105.4166245,
                    "velocity": 0.3858267716535433,
                },
                {
                    "duration": 0.4149303895833327,
                    "durationTicks": 239,
                    "midi": 57,
                    "name": "A3",
                    "ticks": 60720,
                    "time": 105.4166245,
                    "velocity": 0.3858267716535433,
                },
                {
                    "duration": 0.4149303895833327,
                    "durationTicks": 239,
                    "midi": 53,
                    "name": "F3",
                    "ticks": 60960,
                    "time": 105.833291,
                    "velocity": 0.3858267716535433,
                },
                {
                    "duration": 0.41493038958334694,
                    "durationTicks": 239,
                    "midi": 65,
                    "name": "F4",
                    "ticks": 61200,
                    "time": 106.2499575,
                    "velocity": 0.3858267716535433,
                },
                {
                    "duration": 0.41493038958334694,
                    "durationTicks": 239,
                    "midi": 60,
                    "name": "C4",
                    "ticks": 61200,
                    "time": 106.2499575,
                    "velocity": 0.3858267716535433,
                },
                {
                    "duration": 0.41493038958334694,
                    "durationTicks": 239,
                    "midi": 56,
                    "name": "G#3",
                    "ticks": 61200,
                    "time": 106.2499575,
                    "velocity": 0.3858267716535433,
                },
                {
                    "duration": 0.4149303895833327,
                    "durationTicks": 239,
                    "midi": 52,
                    "name": "E3",
                    "ticks": 61440,
                    "time": 106.666624,
                    "velocity": 0.3858267716535433,
                },
                {
                    "duration": 0.4149303895833327,
                    "durationTicks": 239,
                    "midi": 64,
                    "name": "E4",
                    "ticks": 61680,
                    "time": 107.0832905,
                    "velocity": 0.3858267716535433,
                },
                {
                    "duration": 0.4149303895833327,
                    "durationTicks": 239,
                    "midi": 60,
                    "name": "C4",
                    "ticks": 61680,
                    "time": 107.0832905,
                    "velocity": 0.3858267716535433,
                },
                {
                    "duration": 0.4149303895833327,
                    "durationTicks": 239,
                    "midi": 55,
                    "name": "G3",
                    "ticks": 61680,
                    "time": 107.0832905,
                    "velocity": 0.3858267716535433,
                },
                {
                    "duration": 0.4149303895833327,
                    "durationTicks": 239,
                    "midi": 48,
                    "name": "C3",
                    "ticks": 61920,
                    "time": 107.499957,
                    "velocity": 0.3858267716535433,
                },
                {
                    "duration": 0.4149303895833327,
                    "durationTicks": 239,
                    "midi": 64,
                    "name": "E4",
                    "ticks": 62160,
                    "time": 107.9166235,
                    "velocity": 0.3858267716535433,
                },
                {
                    "duration": 0.4149303895833327,
                    "durationTicks": 239,
                    "midi": 60,
                    "name": "C4",
                    "ticks": 62160,
                    "time": 107.9166235,
                    "velocity": 0.3858267716535433,
                },
                {
                    "duration": 0.4149303895833327,
                    "durationTicks": 239,
                    "midi": 58,
                    "name": "A#3",
                    "ticks": 62160,
                    "time": 107.9166235,
                    "velocity": 0.3858267716535433,
                },
                {
                    "duration": 0.4149303895833327,
                    "durationTicks": 239,
                    "midi": 65,
                    "name": "F4",
                    "ticks": 62400,
                    "time": 108.33329,
                    "velocity": 0.3858267716535433,
                },
                {
                    "duration": 0.4149303895833327,
                    "durationTicks": 239,
                    "midi": 60,
                    "name": "C4",
                    "ticks": 62400,
                    "time": 108.33329,
                    "velocity": 0.3858267716535433,
                },
                {
                    "duration": 0.4149303895833327,
                    "durationTicks": 239,
                    "midi": 57,
                    "name": "A3",
                    "ticks": 62400,
                    "time": 108.33329,
                    "velocity": 0.3858267716535433,
                },
                {
                    "duration": 0.4149303895833327,
                    "durationTicks": 239,
                    "midi": 53,
                    "name": "F3",
                    "ticks": 62400,
                    "time": 108.33329,
                    "velocity": 0.3858267716535433,
                },
                {
                    "duration": 0.4149303895833327,
                    "durationTicks": 239,
                    "midi": 65,
                    "name": "F4",
                    "ticks": 62640,
                    "time": 108.7499565,
                    "velocity": 0.3858267716535433,
                },
                {
                    "duration": 0.4149303895833327,
                    "durationTicks": 239,
                    "midi": 60,
                    "name": "C4",
                    "ticks": 62640,
                    "time": 108.7499565,
                    "velocity": 0.3858267716535433,
                },
                {
                    "duration": 0.4149303895833327,
                    "durationTicks": 239,
                    "midi": 57,
                    "name": "A3",
                    "ticks": 62640,
                    "time": 108.7499565,
                    "velocity": 0.3858267716535433,
                },
                {
                    "duration": 0.4149303895833327,
                    "durationTicks": 239,
                    "midi": 53,
                    "name": "F3",
                    "ticks": 62640,
                    "time": 108.7499565,
                    "velocity": 0.3858267716535433,
                },
                {
                    "duration": 0.4149303895833327,
                    "durationTicks": 239,
                    "midi": 63,
                    "name": "D#4",
                    "ticks": 62880,
                    "time": 109.166623,
                    "velocity": 0.3858267716535433,
                },
                {
                    "duration": 0.4149303895833327,
                    "durationTicks": 239,
                    "midi": 60,
                    "name": "C4",
                    "ticks": 62880,
                    "time": 109.166623,
                    "velocity": 0.3858267716535433,
                },
                {
                    "duration": 0.4149303895833327,
                    "durationTicks": 239,
                    "midi": 57,
                    "name": "A3",
                    "ticks": 62880,
                    "time": 109.166623,
                    "velocity": 0.3858267716535433,
                },
                {
                    "duration": 0.4149303895833327,
                    "durationTicks": 239,
                    "midi": 54,
                    "name": "F#3",
                    "ticks": 62880,
                    "time": 109.166623,
                    "velocity": 0.3858267716535433,
                },
                {
                    "duration": 0.41493038958334694,
                    "durationTicks": 239,
                    "midi": 63,
                    "name": "D#4",
                    "ticks": 63120,
                    "time": 109.58328949999999,
                    "velocity": 0.3858267716535433,
                },
                {
                    "duration": 0.41493038958334694,
                    "durationTicks": 239,
                    "midi": 60,
                    "name": "C4",
                    "ticks": 63120,
                    "time": 109.58328949999999,
                    "velocity": 0.3858267716535433,
                },
                {
                    "duration": 0.41493038958334694,
                    "durationTicks": 239,
                    "midi": 57,
                    "name": "A3",
                    "ticks": 63120,
                    "time": 109.58328949999999,
                    "velocity": 0.3858267716535433,
                },
                {
                    "duration": 0.41493038958334694,
                    "durationTicks": 239,
                    "midi": 54,
                    "name": "F#3",
                    "ticks": 63120,
                    "time": 109.58328949999999,
                    "velocity": 0.3858267716535433,
                },
                {
                    "duration": 0.4149303895833327,
                    "durationTicks": 239,
                    "midi": 64,
                    "name": "E4",
                    "ticks": 63360,
                    "time": 109.999956,
                    "velocity": 0.3858267716535433,
                },
                {
                    "duration": 0.4149303895833327,
                    "durationTicks": 239,
                    "midi": 60,
                    "name": "C4",
                    "ticks": 63360,
                    "time": 109.999956,
                    "velocity": 0.3858267716535433,
                },
                {
                    "duration": 0.4149303895833327,
                    "durationTicks": 239,
                    "midi": 55,
                    "name": "G3",
                    "ticks": 63360,
                    "time": 109.999956,
                    "velocity": 0.3858267716535433,
                },
                {
                    "duration": 0.4149303895833327,
                    "durationTicks": 239,
                    "midi": 64,
                    "name": "E4",
                    "ticks": 63600,
                    "time": 110.4166225,
                    "velocity": 0.3858267716535433,
                },
                {
                    "duration": 0.4149303895833327,
                    "durationTicks": 239,
                    "midi": 60,
                    "name": "C4",
                    "ticks": 63600,
                    "time": 110.4166225,
                    "velocity": 0.3858267716535433,
                },
                {
                    "duration": 0.4149303895833327,
                    "durationTicks": 239,
                    "midi": 55,
                    "name": "G3",
                    "ticks": 63600,
                    "time": 110.4166225,
                    "velocity": 0.3858267716535433,
                },
                {
                    "duration": 0.41493038958334694,
                    "durationTicks": 239,
                    "midi": 64,
                    "name": "E4",
                    "ticks": 63840,
                    "time": 110.833289,
                    "velocity": 0.3858267716535433,
                },
                {
                    "duration": 0.41493038958334694,
                    "durationTicks": 239,
                    "midi": 60,
                    "name": "C4",
                    "ticks": 63840,
                    "time": 110.833289,
                    "velocity": 0.3858267716535433,
                },
                {
                    "duration": 0.41493038958334694,
                    "durationTicks": 239,
                    "midi": 55,
                    "name": "G3",
                    "ticks": 63840,
                    "time": 110.833289,
                    "velocity": 0.3858267716535433,
                },
                {
                    "duration": 0.4149303895833327,
                    "durationTicks": 239,
                    "midi": 64,
                    "name": "E4",
                    "ticks": 64080,
                    "time": 111.2499555,
                    "velocity": 0.3858267716535433,
                },
                {
                    "duration": 0.4149303895833327,
                    "durationTicks": 239,
                    "midi": 60,
                    "name": "C4",
                    "ticks": 64080,
                    "time": 111.2499555,
                    "velocity": 0.3858267716535433,
                },
                {
                    "duration": 0.4149303895833327,
                    "durationTicks": 239,
                    "midi": 55,
                    "name": "G3",
                    "ticks": 64080,
                    "time": 111.2499555,
                    "velocity": 0.3858267716535433,
                },
                {
                    "duration": 0.4149303895833327,
                    "durationTicks": 239,
                    "midi": 60,
                    "name": "C4",
                    "ticks": 64320,
                    "time": 111.666622,
                    "velocity": 0.3858267716535433,
                },
                {
                    "duration": 0.4149303895833327,
                    "durationTicks": 239,
                    "midi": 50,
                    "name": "D3",
                    "ticks": 64320,
                    "time": 111.666622,
                    "velocity": 0.3858267716535433,
                },
                {
                    "duration": 0.4149303895833327,
                    "durationTicks": 239,
                    "midi": 57,
                    "name": "A3",
                    "ticks": 64560,
                    "time": 112.0832885,
                    "velocity": 0.3858267716535433,
                },
                {
                    "duration": 0.4149303895833327,
                    "durationTicks": 239,
                    "midi": 50,
                    "name": "D3",
                    "ticks": 64560,
                    "time": 112.0832885,
                    "velocity": 0.3858267716535433,
                },
                {
                    "duration": 0.4149303895833327,
                    "durationTicks": 239,
                    "midi": 59,
                    "name": "B3",
                    "ticks": 64800,
                    "time": 112.499955,
                    "velocity": 0.3858267716535433,
                },
                {
                    "duration": 0.4149303895833327,
                    "durationTicks": 239,
                    "midi": 55,
                    "name": "G3",
                    "ticks": 64800,
                    "time": 112.499955,
                    "velocity": 0.3858267716535433,
                },
                {
                    "duration": 0.4149303895833327,
                    "durationTicks": 239,
                    "midi": 59,
                    "name": "B3",
                    "ticks": 65040,
                    "time": 112.9166215,
                    "velocity": 0.3858267716535433,
                },
                {
                    "duration": 0.4149303895833327,
                    "durationTicks": 239,
                    "midi": 55,
                    "name": "G3",
                    "ticks": 65040,
                    "time": 112.9166215,
                    "velocity": 0.3858267716535433,
                },
                {
                    "duration": 0.4149303895833327,
                    "durationTicks": 239,
                    "midi": 60,
                    "name": "C4",
                    "ticks": 65280,
                    "time": 113.333288,
                    "velocity": 0.3858267716535433,
                },
                {
                    "duration": 0.4149303895833327,
                    "durationTicks": 239,
                    "midi": 48,
                    "name": "C3",
                    "ticks": 65280,
                    "time": 113.333288,
                    "velocity": 0.3858267716535433,
                },
                {
                    "duration": 0.4149303895833327,
                    "durationTicks": 239,
                    "midi": 55,
                    "name": "G3",
                    "ticks": 65520,
                    "time": 113.7499545,
                    "velocity": 0.3858267716535433,
                },
                {
                    "duration": 0.4149303895833327,
                    "durationTicks": 239,
                    "midi": 43,
                    "name": "G2",
                    "ticks": 65520,
                    "time": 113.7499545,
                    "velocity": 0.3858267716535433,
                },
                {
                    "duration": 0.41493038958334694,
                    "durationTicks": 239,
                    "midi": 48,
                    "name": "C3",
                    "ticks": 65760,
                    "time": 114.16662099999999,
                    "velocity": 0.3858267716535433,
                },
                {
                    "duration": 0.41493038958334694,
                    "durationTicks": 239,
                    "midi": 36,
                    "name": "C2",
                    "ticks": 65760,
                    "time": 114.16662099999999,
                    "velocity": 0.3858267716535433,
                },
                {
                    "duration": 0.4149303895833327,
                    "durationTicks": 239,
                    "midi": 48,
                    "name": "C3",
                    "ticks": 66240,
                    "time": 114.999954,
                    "velocity": 0.3858267716535433,
                },
                {
                    "duration": 0.41493038958334694,
                    "durationTicks": 239,
                    "midi": 60,
                    "name": "C4",
                    "ticks": 66480,
                    "time": 115.4166205,
                    "velocity": 0.3858267716535433,
                },
                {
                    "duration": 0.41493038958334694,
                    "durationTicks": 239,
                    "midi": 55,
                    "name": "G3",
                    "ticks": 66480,
                    "time": 115.4166205,
                    "velocity": 0.3858267716535433,
                },
                {
                    "duration": 0.41493038958334694,
                    "durationTicks": 239,
                    "midi": 52,
                    "name": "E3",
                    "ticks": 66480,
                    "time": 115.4166205,
                    "velocity": 0.3858267716535433,
                },
                {
                    "duration": 0.4149303895833327,
                    "durationTicks": 239,
                    "midi": 55,
                    "name": "G3",
                    "ticks": 66720,
                    "time": 115.833287,
                    "velocity": 0.3858267716535433,
                },
                {
                    "duration": 0.4149303895833327,
                    "durationTicks": 239,
                    "midi": 43,
                    "name": "G2",
                    "ticks": 66720,
                    "time": 115.833287,
                    "velocity": 0.3858267716535433,
                },
                {
                    "duration": 0.4149303895833327,
                    "durationTicks": 239,
                    "midi": 60,
                    "name": "C4",
                    "ticks": 66960,
                    "time": 116.2499535,
                    "velocity": 0.3858267716535433,
                },
                {
                    "duration": 0.4149303895833327,
                    "durationTicks": 239,
                    "midi": 58,
                    "name": "A#3",
                    "ticks": 66960,
                    "time": 116.2499535,
                    "velocity": 0.3858267716535433,
                },
                {
                    "duration": 0.4149303895833327,
                    "durationTicks": 239,
                    "midi": 55,
                    "name": "G3",
                    "ticks": 66960,
                    "time": 116.2499535,
                    "velocity": 0.3858267716535433,
                },
                {
                    "duration": 0.4149303895833327,
                    "durationTicks": 239,
                    "midi": 53,
                    "name": "F3",
                    "ticks": 67200,
                    "time": 116.66662,
                    "velocity": 0.3858267716535433,
                },
                {
                    "duration": 0.4149303895833327,
                    "durationTicks": 239,
                    "midi": 41,
                    "name": "F2",
                    "ticks": 67200,
                    "time": 116.66662,
                    "velocity": 0.3858267716535433,
                },
                {
                    "duration": 0.4149303895833327,
                    "durationTicks": 239,
                    "midi": 60,
                    "name": "C4",
                    "ticks": 67440,
                    "time": 117.0832865,
                    "velocity": 0.3858267716535433,
                },
                {
                    "duration": 0.4149303895833327,
                    "durationTicks": 239,
                    "midi": 57,
                    "name": "A3",
                    "ticks": 67440,
                    "time": 117.0832865,
                    "velocity": 0.3858267716535433,
                },
                {
                    "duration": 0.4149303895833327,
                    "durationTicks": 239,
                    "midi": 52,
                    "name": "E3",
                    "ticks": 67680,
                    "time": 117.499953,
                    "velocity": 0.3858267716535433,
                },
                {
                    "duration": 0.4149303895833327,
                    "durationTicks": 239,
                    "midi": 40,
                    "name": "E2",
                    "ticks": 67680,
                    "time": 117.499953,
                    "velocity": 0.3858267716535433,
                },
                {
                    "duration": 0.4149303895833327,
                    "durationTicks": 239,
                    "midi": 60,
                    "name": "C4",
                    "ticks": 67920,
                    "time": 117.9166195,
                    "velocity": 0.3858267716535433,
                },
                {
                    "duration": 0.4149303895833327,
                    "durationTicks": 239,
                    "midi": 55,
                    "name": "G3",
                    "ticks": 67920,
                    "time": 117.9166195,
                    "velocity": 0.3858267716535433,
                },
                {
                    "duration": 0.4149303895833327,
                    "durationTicks": 239,
                    "midi": 43,
                    "name": "G2",
                    "ticks": 68160,
                    "time": 118.333286,
                    "velocity": 0.3858267716535433,
                },
                {
                    "duration": 0.41493038958334694,
                    "durationTicks": 239,
                    "midi": 60,
                    "name": "C4",
                    "ticks": 68400,
                    "time": 118.74995249999999,
                    "velocity": 0.3858267716535433,
                },
                {
                    "duration": 0.41493038958334694,
                    "durationTicks": 239,
                    "midi": 55,
                    "name": "G3",
                    "ticks": 68400,
                    "time": 118.74995249999999,
                    "velocity": 0.3858267716535433,
                },
                {
                    "duration": 0.41493038958334694,
                    "durationTicks": 239,
                    "midi": 52,
                    "name": "E3",
                    "ticks": 68400,
                    "time": 118.74995249999999,
                    "velocity": 0.3858267716535433,
                },
                {
                    "duration": 0.4149303895833327,
                    "durationTicks": 239,
                    "midi": 43,
                    "name": "G2",
                    "ticks": 68640,
                    "time": 119.166619,
                    "velocity": 0.3858267716535433,
                },
                {
                    "duration": 0.4149303895833327,
                    "durationTicks": 239,
                    "midi": 59,
                    "name": "B3",
                    "ticks": 68880,
                    "time": 119.5832855,
                    "velocity": 0.3858267716535433,
                },
                {
                    "duration": 0.4149303895833327,
                    "durationTicks": 239,
                    "midi": 55,
                    "name": "G3",
                    "ticks": 68880,
                    "time": 119.5832855,
                    "velocity": 0.3858267716535433,
                },
                {
                    "duration": 0.4149303895833327,
                    "durationTicks": 239,
                    "midi": 53,
                    "name": "F3",
                    "ticks": 68880,
                    "time": 119.5832855,
                    "velocity": 0.3858267716535433,
                },
                {
                    "duration": 0.41493038958334694,
                    "durationTicks": 239,
                    "midi": 48,
                    "name": "C3",
                    "ticks": 69120,
                    "time": 119.999952,
                    "velocity": 0.3858267716535433,
                },
                {
                    "duration": 0.4149303895833327,
                    "durationTicks": 239,
                    "midi": 60,
                    "name": "C4",
                    "ticks": 69360,
                    "time": 120.4166185,
                    "velocity": 0.3858267716535433,
                },
                {
                    "duration": 0.4149303895833327,
                    "durationTicks": 239,
                    "midi": 55,
                    "name": "G3",
                    "ticks": 69360,
                    "time": 120.4166185,
                    "velocity": 0.3858267716535433,
                },
                {
                    "duration": 0.4149303895833327,
                    "durationTicks": 239,
                    "midi": 52,
                    "name": "E3",
                    "ticks": 69360,
                    "time": 120.4166185,
                    "velocity": 0.3858267716535433,
                },
                {
                    "duration": 0.4149303895833327,
                    "durationTicks": 239,
                    "midi": 60,
                    "name": "C4",
                    "ticks": 69600,
                    "time": 120.833285,
                    "velocity": 0.3858267716535433,
                },
                {
                    "duration": 0.4149303895833327,
                    "durationTicks": 239,
                    "midi": 55,
                    "name": "G3",
                    "ticks": 69600,
                    "time": 120.833285,
                    "velocity": 0.3858267716535433,
                },
                {
                    "duration": 0.4149303895833327,
                    "durationTicks": 239,
                    "midi": 52,
                    "name": "E3",
                    "ticks": 69600,
                    "time": 120.833285,
                    "velocity": 0.3858267716535433,
                },
                {
                    "duration": 0.4149303895833327,
                    "durationTicks": 239,
                    "midi": 59,
                    "name": "B3",
                    "ticks": 69840,
                    "time": 121.2499515,
                    "velocity": 0.3858267716535433,
                },
                {
                    "duration": 0.4149303895833327,
                    "durationTicks": 239,
                    "midi": 55,
                    "name": "G3",
                    "ticks": 69840,
                    "time": 121.2499515,
                    "velocity": 0.3858267716535433,
                },
                {
                    "duration": 0.4149303895833327,
                    "durationTicks": 239,
                    "midi": 48,
                    "name": "C3",
                    "ticks": 70080,
                    "time": 121.666618,
                    "velocity": 0.3858267716535433,
                },
                {
                    "duration": 0.4149303895833327,
                    "durationTicks": 239,
                    "midi": 60,
                    "name": "C4",
                    "ticks": 70320,
                    "time": 122.0832845,
                    "velocity": 0.3858267716535433,
                },
                {
                    "duration": 0.4149303895833327,
                    "durationTicks": 239,
                    "midi": 55,
                    "name": "G3",
                    "ticks": 70320,
                    "time": 122.0832845,
                    "velocity": 0.3858267716535433,
                },
                {
                    "duration": 0.4149303895833327,
                    "durationTicks": 239,
                    "midi": 52,
                    "name": "E3",
                    "ticks": 70320,
                    "time": 122.0832845,
                    "velocity": 0.3858267716535433,
                },
                {
                    "duration": 0.4149303895833327,
                    "durationTicks": 239,
                    "midi": 55,
                    "name": "G3",
                    "ticks": 70560,
                    "time": 122.499951,
                    "velocity": 0.3858267716535433,
                },
                {
                    "duration": 0.4149303895833327,
                    "durationTicks": 239,
                    "midi": 43,
                    "name": "G2",
                    "ticks": 70560,
                    "time": 122.499951,
                    "velocity": 0.3858267716535433,
                },
                {
                    "duration": 0.4149303895833327,
                    "durationTicks": 239,
                    "midi": 60,
                    "name": "C4",
                    "ticks": 70800,
                    "time": 122.9166175,
                    "velocity": 0.3858267716535433,
                },
                {
                    "duration": 0.4149303895833327,
                    "durationTicks": 239,
                    "midi": 58,
                    "name": "A#3",
                    "ticks": 70800,
                    "time": 122.9166175,
                    "velocity": 0.3858267716535433,
                },
                {
                    "duration": 0.4149303895833327,
                    "durationTicks": 239,
                    "midi": 55,
                    "name": "G3",
                    "ticks": 70800,
                    "time": 122.9166175,
                    "velocity": 0.3858267716535433,
                },
                {
                    "duration": 0.41493038958334694,
                    "durationTicks": 239,
                    "midi": 53,
                    "name": "F3",
                    "ticks": 71040,
                    "time": 123.33328399999999,
                    "velocity": 0.3858267716535433,
                },
                {
                    "duration": 0.41493038958334694,
                    "durationTicks": 239,
                    "midi": 41,
                    "name": "F2",
                    "ticks": 71040,
                    "time": 123.33328399999999,
                    "velocity": 0.3858267716535433,
                },
                {
                    "duration": 0.4149303895833327,
                    "durationTicks": 239,
                    "midi": 60,
                    "name": "C4",
                    "ticks": 71280,
                    "time": 123.7499505,
                    "velocity": 0.3858267716535433,
                },
                {
                    "duration": 0.4149303895833327,
                    "durationTicks": 239,
                    "midi": 57,
                    "name": "A3",
                    "ticks": 71280,
                    "time": 123.7499505,
                    "velocity": 0.3858267716535433,
                },
                {
                    "duration": 0.4149303895833327,
                    "durationTicks": 239,
                    "midi": 52,
                    "name": "E3",
                    "ticks": 71520,
                    "time": 124.166617,
                    "velocity": 0.3858267716535433,
                },
                {
                    "duration": 0.4149303895833327,
                    "durationTicks": 239,
                    "midi": 40,
                    "name": "E2",
                    "ticks": 71520,
                    "time": 124.166617,
                    "velocity": 0.3858267716535433,
                },
                {
                    "duration": 0.41493038958334694,
                    "durationTicks": 239,
                    "midi": 51,
                    "name": "D#3",
                    "ticks": 71760,
                    "time": 124.5832835,
                    "velocity": 0.3858267716535433,
                },
                {
                    "duration": 0.41493038958334694,
                    "durationTicks": 239,
                    "midi": 39,
                    "name": "D#2",
                    "ticks": 71760,
                    "time": 124.5832835,
                    "velocity": 0.3858267716535433,
                },
                {
                    "duration": 0.4149303895833327,
                    "durationTicks": 239,
                    "midi": 50,
                    "name": "D3",
                    "ticks": 72000,
                    "time": 124.99995,
                    "velocity": 0.3858267716535433,
                },
                {
                    "duration": 0.4149303895833327,
                    "durationTicks": 239,
                    "midi": 38,
                    "name": "D2",
                    "ticks": 72000,
                    "time": 124.99995,
                    "velocity": 0.3858267716535433,
                },
                {
                    "duration": 0.4149303895833327,
                    "durationTicks": 239,
                    "midi": 60,
                    "name": "C4",
                    "ticks": 72240,
                    "time": 125.4166165,
                    "velocity": 0.3858267716535433,
                },
                {
                    "duration": 0.4149303895833327,
                    "durationTicks": 239,
                    "midi": 54,
                    "name": "F#3",
                    "ticks": 72240,
                    "time": 125.4166165,
                    "velocity": 0.3858267716535433,
                },
                {
                    "duration": 0.4149303895833327,
                    "durationTicks": 239,
                    "midi": 50,
                    "name": "D3",
                    "ticks": 72240,
                    "time": 125.4166165,
                    "velocity": 0.3858267716535433,
                },
                {
                    "duration": 0.4149303895833327,
                    "durationTicks": 239,
                    "midi": 50,
                    "name": "D3",
                    "ticks": 72480,
                    "time": 125.833283,
                    "velocity": 0.3858267716535433,
                },
                {
                    "duration": 0.4149303895833327,
                    "durationTicks": 239,
                    "midi": 60,
                    "name": "C4",
                    "ticks": 72720,
                    "time": 126.2499495,
                    "velocity": 0.3858267716535433,
                },
                {
                    "duration": 0.4149303895833327,
                    "durationTicks": 239,
                    "midi": 57,
                    "name": "A3",
                    "ticks": 72720,
                    "time": 126.2499495,
                    "velocity": 0.3858267716535433,
                },
                {
                    "duration": 0.4149303895833327,
                    "durationTicks": 239,
                    "midi": 54,
                    "name": "F#3",
                    "ticks": 72720,
                    "time": 126.2499495,
                    "velocity": 0.3858267716535433,
                },
                {
                    "duration": 0.4149303895833327,
                    "durationTicks": 239,
                    "midi": 59,
                    "name": "B3",
                    "ticks": 72960,
                    "time": 126.666616,
                    "velocity": 0.3858267716535433,
                },
                {
                    "duration": 0.4149303895833327,
                    "durationTicks": 239,
                    "midi": 55,
                    "name": "G3",
                    "ticks": 72960,
                    "time": 126.666616,
                    "velocity": 0.3858267716535433,
                },
                {
                    "duration": 0.4149303895833327,
                    "durationTicks": 239,
                    "midi": 55,
                    "name": "G3",
                    "ticks": 73200,
                    "time": 127.0832825,
                    "velocity": 0.3858267716535433,
                },
                {
                    "duration": 0.4149303895833327,
                    "durationTicks": 239,
                    "midi": 43,
                    "name": "G2",
                    "ticks": 73200,
                    "time": 127.0832825,
                    "velocity": 0.3858267716535433,
                },
                {
                    "duration": 0.4149303895833327,
                    "durationTicks": 239,
                    "midi": 57,
                    "name": "A3",
                    "ticks": 73440,
                    "time": 127.499949,
                    "velocity": 0.3858267716535433,
                },
                {
                    "duration": 0.4149303895833327,
                    "durationTicks": 239,
                    "midi": 45,
                    "name": "A2",
                    "ticks": 73440,
                    "time": 127.499949,
                    "velocity": 0.3858267716535433,
                },
                {
                    "duration": 0.41493038958334694,
                    "durationTicks": 239,
                    "midi": 59,
                    "name": "B3",
                    "ticks": 73680,
                    "time": 127.91661549999999,
                    "velocity": 0.3858267716535433,
                },
                {
                    "duration": 0.41493038958334694,
                    "durationTicks": 239,
                    "midi": 47,
                    "name": "B2",
                    "ticks": 73680,
                    "time": 127.91661549999999,
                    "velocity": 0.3858267716535433,
                },
                {
                    "duration": 0.4149303895833327,
                    "durationTicks": 239,
                    "midi": 48,
                    "name": "C3",
                    "ticks": 73920,
                    "time": 128.333282,
                    "velocity": 0.3858267716535433,
                },
                {
                    "duration": 0.4149303895833327,
                    "durationTicks": 239,
                    "midi": 60,
                    "name": "C4",
                    "ticks": 74160,
                    "time": 128.7499485,
                    "velocity": 0.3858267716535433,
                },
                {
                    "duration": 0.4149303895833327,
                    "durationTicks": 239,
                    "midi": 55,
                    "name": "G3",
                    "ticks": 74160,
                    "time": 128.7499485,
                    "velocity": 0.3858267716535433,
                },
                {
                    "duration": 0.4149303895833327,
                    "durationTicks": 239,
                    "midi": 52,
                    "name": "E3",
                    "ticks": 74160,
                    "time": 128.7499485,
                    "velocity": 0.3858267716535433,
                },
                {
                    "duration": 0.4149303895833327,
                    "durationTicks": 239,
                    "midi": 55,
                    "name": "G3",
                    "ticks": 74400,
                    "time": 129.166615,
                    "velocity": 0.3858267716535433,
                },
                {
                    "duration": 0.4149303895833327,
                    "durationTicks": 239,
                    "midi": 43,
                    "name": "G2",
                    "ticks": 74400,
                    "time": 129.166615,
                    "velocity": 0.3858267716535433,
                },
                {
                    "duration": 0.4149303895833327,
                    "durationTicks": 239,
                    "midi": 60,
                    "name": "C4",
                    "ticks": 74640,
                    "time": 129.5832815,
                    "velocity": 0.3858267716535433,
                },
                {
                    "duration": 0.4149303895833327,
                    "durationTicks": 239,
                    "midi": 58,
                    "name": "A#3",
                    "ticks": 74640,
                    "time": 129.5832815,
                    "velocity": 0.3858267716535433,
                },
                {
                    "duration": 0.4149303895833327,
                    "durationTicks": 239,
                    "midi": 55,
                    "name": "G3",
                    "ticks": 74640,
                    "time": 129.5832815,
                    "velocity": 0.3858267716535433,
                },
                {
                    "duration": 0.4149303895833327,
                    "durationTicks": 239,
                    "midi": 53,
                    "name": "F3",
                    "ticks": 74880,
                    "time": 129.999948,
                    "velocity": 0.3858267716535433,
                },
                {
                    "duration": 0.4149303895833327,
                    "durationTicks": 239,
                    "midi": 41,
                    "name": "F2",
                    "ticks": 74880,
                    "time": 129.999948,
                    "velocity": 0.3858267716535433,
                },
                {
                    "duration": 0.4149303895833327,
                    "durationTicks": 239,
                    "midi": 60,
                    "name": "C4",
                    "ticks": 75120,
                    "time": 130.4166145,
                    "velocity": 0.3858267716535433,
                },
                {
                    "duration": 0.4149303895833327,
                    "durationTicks": 239,
                    "midi": 57,
                    "name": "A3",
                    "ticks": 75120,
                    "time": 130.4166145,
                    "velocity": 0.3858267716535433,
                },
                {
                    "duration": 0.4149303895833327,
                    "durationTicks": 239,
                    "midi": 52,
                    "name": "E3",
                    "ticks": 75360,
                    "time": 130.833281,
                    "velocity": 0.3858267716535433,
                },
                {
                    "duration": 0.4149303895833327,
                    "durationTicks": 239,
                    "midi": 40,
                    "name": "E2",
                    "ticks": 75360,
                    "time": 130.833281,
                    "velocity": 0.3858267716535433,
                },
                {
                    "duration": 0.4149303895833327,
                    "durationTicks": 239,
                    "midi": 60,
                    "name": "C4",
                    "ticks": 75600,
                    "time": 131.2499475,
                    "velocity": 0.3858267716535433,
                },
                {
                    "duration": 0.4149303895833327,
                    "durationTicks": 239,
                    "midi": 55,
                    "name": "G3",
                    "ticks": 75600,
                    "time": 131.2499475,
                    "velocity": 0.3858267716535433,
                },
                {
                    "duration": 0.4149303895833327,
                    "durationTicks": 239,
                    "midi": 43,
                    "name": "G2",
                    "ticks": 75840,
                    "time": 131.666614,
                    "velocity": 0.3858267716535433,
                },
                {
                    "duration": 0.4149303895833327,
                    "durationTicks": 239,
                    "midi": 60,
                    "name": "C4",
                    "ticks": 76080,
                    "time": 132.0832805,
                    "velocity": 0.3858267716535433,
                },
                {
                    "duration": 0.4149303895833327,
                    "durationTicks": 239,
                    "midi": 55,
                    "name": "G3",
                    "ticks": 76080,
                    "time": 132.0832805,
                    "velocity": 0.3858267716535433,
                },
                {
                    "duration": 0.4149303895833327,
                    "durationTicks": 239,
                    "midi": 52,
                    "name": "E3",
                    "ticks": 76080,
                    "time": 132.0832805,
                    "velocity": 0.3858267716535433,
                },
                {
                    "duration": 0.4149303895833327,
                    "durationTicks": 239,
                    "midi": 43,
                    "name": "G2",
                    "ticks": 76320,
                    "time": 132.499947,
                    "velocity": 0.3858267716535433,
                },
                {
                    "duration": 0.4149303895833327,
                    "durationTicks": 239,
                    "midi": 59,
                    "name": "B3",
                    "ticks": 76560,
                    "time": 132.9166135,
                    "velocity": 0.3858267716535433,
                },
                {
                    "duration": 0.4149303895833327,
                    "durationTicks": 239,
                    "midi": 55,
                    "name": "G3",
                    "ticks": 76560,
                    "time": 132.9166135,
                    "velocity": 0.3858267716535433,
                },
                {
                    "duration": 0.4149303895833327,
                    "durationTicks": 239,
                    "midi": 53,
                    "name": "F3",
                    "ticks": 76560,
                    "time": 132.9166135,
                    "velocity": 0.3858267716535433,
                },
                {
                    "duration": 0.4149303895833327,
                    "durationTicks": 239,
                    "midi": 48,
                    "name": "C3",
                    "ticks": 76800,
                    "time": 133.33328,
                    "velocity": 0.3858267716535433,
                },
                {
                    "duration": 0.4149303895833327,
                    "durationTicks": 239,
                    "midi": 60,
                    "name": "C4",
                    "ticks": 77040,
                    "time": 133.7499465,
                    "velocity": 0.3858267716535433,
                },
                {
                    "duration": 0.4149303895833327,
                    "durationTicks": 239,
                    "midi": 55,
                    "name": "G3",
                    "ticks": 77040,
                    "time": 133.7499465,
                    "velocity": 0.3858267716535433,
                },
                {
                    "duration": 0.4149303895833327,
                    "durationTicks": 239,
                    "midi": 52,
                    "name": "E3",
                    "ticks": 77040,
                    "time": 133.7499465,
                    "velocity": 0.3858267716535433,
                },
                {
                    "duration": 0.4149303895833327,
                    "durationTicks": 239,
                    "midi": 64,
                    "name": "E4",
                    "ticks": 77280,
                    "time": 134.166613,
                    "velocity": 0.3858267716535433,
                },
                {
                    "duration": 0.4149303895833327,
                    "durationTicks": 239,
                    "midi": 60,
                    "name": "C4",
                    "ticks": 77280,
                    "time": 134.166613,
                    "velocity": 0.3858267716535433,
                },
                {
                    "duration": 0.4149303895833327,
                    "durationTicks": 239,
                    "midi": 55,
                    "name": "G3",
                    "ticks": 77280,
                    "time": 134.166613,
                    "velocity": 0.3858267716535433,
                },
                {
                    "duration": 0.4149303895833327,
                    "durationTicks": 239,
                    "midi": 60,
                    "name": "C4",
                    "ticks": 77760,
                    "time": 134.999946,
                    "velocity": 0.3858267716535433,
                },
                {
                    "duration": 0.4149303895833327,
                    "durationTicks": 239,
                    "midi": 48,
                    "name": "C3",
                    "ticks": 77760,
                    "time": 134.999946,
                    "velocity": 0.3858267716535433,
                },
                {
                    "duration": 0.41493038958336115,
                    "durationTicks": 239,
                    "midi": 64,
                    "name": "E4",
                    "ticks": 78000,
                    "time": 135.41661249999999,
                    "velocity": 0.3858267716535433,
                },
                {
                    "duration": 0.41493038958336115,
                    "durationTicks": 239,
                    "midi": 60,
                    "name": "C4",
                    "ticks": 78000,
                    "time": 135.41661249999999,
                    "velocity": 0.3858267716535433,
                },
                {
                    "duration": 0.41493038958336115,
                    "durationTicks": 239,
                    "midi": 55,
                    "name": "G3",
                    "ticks": 78000,
                    "time": 135.41661249999999,
                    "velocity": 0.3858267716535433,
                },
                {
                    "duration": 0.4149303895833327,
                    "durationTicks": 239,
                    "midi": 58,
                    "name": "A#3",
                    "ticks": 78240,
                    "time": 135.833279,
                    "velocity": 0.3858267716535433,
                },
                {
                    "duration": 0.4149303895833327,
                    "durationTicks": 239,
                    "midi": 46,
                    "name": "A#2",
                    "ticks": 78240,
                    "time": 135.833279,
                    "velocity": 0.3858267716535433,
                },
                {
                    "duration": 0.4149303895833327,
                    "durationTicks": 239,
                    "midi": 64,
                    "name": "E4",
                    "ticks": 78480,
                    "time": 136.2499455,
                    "velocity": 0.3858267716535433,
                },
                {
                    "duration": 0.4149303895833327,
                    "durationTicks": 239,
                    "midi": 60,
                    "name": "C4",
                    "ticks": 78480,
                    "time": 136.2499455,
                    "velocity": 0.3858267716535433,
                },
                {
                    "duration": 0.4149303895833327,
                    "durationTicks": 239,
                    "midi": 55,
                    "name": "G3",
                    "ticks": 78480,
                    "time": 136.2499455,
                    "velocity": 0.3858267716535433,
                },
                {
                    "duration": 0.4149303895833327,
                    "durationTicks": 239,
                    "midi": 57,
                    "name": "A3",
                    "ticks": 78720,
                    "time": 136.666612,
                    "velocity": 0.3858267716535433,
                },
                {
                    "duration": 0.4149303895833327,
                    "durationTicks": 239,
                    "midi": 45,
                    "name": "A2",
                    "ticks": 78720,
                    "time": 136.666612,
                    "velocity": 0.3858267716535433,
                },
                {
                    "duration": 0.4149303895833327,
                    "durationTicks": 239,
                    "midi": 65,
                    "name": "F4",
                    "ticks": 78960,
                    "time": 137.0832785,
                    "velocity": 0.3858267716535433,
                },
                {
                    "duration": 0.4149303895833327,
                    "durationTicks": 239,
                    "midi": 60,
                    "name": "C4",
                    "ticks": 78960,
                    "time": 137.0832785,
                    "velocity": 0.3858267716535433,
                },
                {
                    "duration": 0.4149303895833327,
                    "durationTicks": 239,
                    "midi": 57,
                    "name": "A3",
                    "ticks": 78960,
                    "time": 137.0832785,
                    "velocity": 0.3858267716535433,
                },
                {
                    "duration": 0.4149303895833327,
                    "durationTicks": 239,
                    "midi": 56,
                    "name": "G#3",
                    "ticks": 79200,
                    "time": 137.499945,
                    "velocity": 0.3858267716535433,
                },
                {
                    "duration": 0.4149303895833327,
                    "durationTicks": 239,
                    "midi": 44,
                    "name": "G#2",
                    "ticks": 79200,
                    "time": 137.499945,
                    "velocity": 0.3858267716535433,
                },
                {
                    "duration": 0.4149303895833327,
                    "durationTicks": 239,
                    "midi": 65,
                    "name": "F4",
                    "ticks": 79440,
                    "time": 137.9166115,
                    "velocity": 0.3858267716535433,
                },
                {
                    "duration": 0.4149303895833327,
                    "durationTicks": 239,
                    "midi": 60,
                    "name": "C4",
                    "ticks": 79440,
                    "time": 137.9166115,
                    "velocity": 0.3858267716535433,
                },
                {
                    "duration": 0.4149303895833327,
                    "durationTicks": 239,
                    "midi": 56,
                    "name": "G#3",
                    "ticks": 79440,
                    "time": 137.9166115,
                    "velocity": 0.3858267716535433,
                },
                {
                    "duration": 0.4149303895833327,
                    "durationTicks": 239,
                    "midi": 55,
                    "name": "G3",
                    "ticks": 79680,
                    "time": 138.333278,
                    "velocity": 0.3858267716535433,
                },
                {
                    "duration": 0.4149303895833327,
                    "durationTicks": 239,
                    "midi": 43,
                    "name": "G2",
                    "ticks": 79680,
                    "time": 138.333278,
                    "velocity": 0.3858267716535433,
                },
                {
                    "duration": 0.4149303895833327,
                    "durationTicks": 239,
                    "midi": 64,
                    "name": "E4",
                    "ticks": 79920,
                    "time": 138.7499445,
                    "velocity": 0.3858267716535433,
                },
                {
                    "duration": 0.4149303895833327,
                    "durationTicks": 239,
                    "midi": 60,
                    "name": "C4",
                    "ticks": 79920,
                    "time": 138.7499445,
                    "velocity": 0.3858267716535433,
                },
                {
                    "duration": 0.4149303895833327,
                    "durationTicks": 239,
                    "midi": 55,
                    "name": "G3",
                    "ticks": 79920,
                    "time": 138.7499445,
                    "velocity": 0.3858267716535433,
                },
                {
                    "duration": 0.4149303895833327,
                    "durationTicks": 239,
                    "midi": 43,
                    "name": "G2",
                    "ticks": 80160,
                    "time": 139.166611,
                    "velocity": 0.3858267716535433,
                },
                {
                    "duration": 0.4149303895833327,
                    "durationTicks": 239,
                    "midi": 59,
                    "name": "B3",
                    "ticks": 80400,
                    "time": 139.5832775,
                    "velocity": 0.3858267716535433,
                },
                {
                    "duration": 0.4149303895833327,
                    "durationTicks": 239,
                    "midi": 55,
                    "name": "G3",
                    "ticks": 80400,
                    "time": 139.5832775,
                    "velocity": 0.3858267716535433,
                },
                {
                    "duration": 0.4149303895833327,
                    "durationTicks": 239,
                    "midi": 60,
                    "name": "C4",
                    "ticks": 80640,
                    "time": 139.999944,
                    "velocity": 0.3858267716535433,
                },
                {
                    "duration": 0.4149303895833327,
                    "durationTicks": 239,
                    "midi": 55,
                    "name": "G3",
                    "ticks": 80640,
                    "time": 139.999944,
                    "velocity": 0.3858267716535433,
                },
                {
                    "duration": 0.4149303895833327,
                    "durationTicks": 239,
                    "midi": 48,
                    "name": "C3",
                    "ticks": 80640,
                    "time": 139.999944,
                    "velocity": 0.3858267716535433,
                },
                {
                    "duration": 0.4149303895833327,
                    "durationTicks": 239,
                    "midi": 55,
                    "name": "G3",
                    "ticks": 80880,
                    "time": 140.4166105,
                    "velocity": 0.3858267716535433,
                },
                {
                    "duration": 0.4149303895833327,
                    "durationTicks": 239,
                    "midi": 43,
                    "name": "G2",
                    "ticks": 80880,
                    "time": 140.4166105,
                    "velocity": 0.3858267716535433,
                },
                {
                    "duration": 0.4149303895833327,
                    "durationTicks": 239,
                    "midi": 48,
                    "name": "C3",
                    "ticks": 81120,
                    "time": 140.833277,
                    "velocity": 0.3858267716535433,
                },
                {
                    "duration": 0.4149303895833327,
                    "durationTicks": 239,
                    "midi": 36,
                    "name": "C2",
                    "ticks": 81120,
                    "time": 140.833277,
                    "velocity": 0.3858267716535433,
                },
                {
                    "duration": 0.4149303895833327,
                    "durationTicks": 239,
                    "midi": 41,
                    "name": "F2",
                    "ticks": 81600,
                    "time": 141.66661,
                    "velocity": 0.7559055118110236,
                },
                {
                    "duration": 0.4149303895833327,
                    "durationTicks": 239,
                    "midi": 65,
                    "name": "F4",
                    "ticks": 81840,
                    "time": 142.0832765,
                    "velocity": 0.7559055118110236,
                },
                {
                    "duration": 0.4149303895833327,
                    "durationTicks": 239,
                    "midi": 60,
                    "name": "C4",
                    "ticks": 81840,
                    "time": 142.0832765,
                    "velocity": 0.7559055118110236,
                },
                {
                    "duration": 0.4149303895833327,
                    "durationTicks": 239,
                    "midi": 57,
                    "name": "A3",
                    "ticks": 81840,
                    "time": 142.0832765,
                    "velocity": 0.7559055118110236,
                },
                {
                    "duration": 0.4149303895833327,
                    "durationTicks": 239,
                    "midi": 48,
                    "name": "C3",
                    "ticks": 82080,
                    "time": 142.499943,
                    "velocity": 0.7559055118110236,
                },
                {
                    "duration": 0.4149303895833327,
                    "durationTicks": 239,
                    "midi": 65,
                    "name": "F4",
                    "ticks": 82320,
                    "time": 142.9166095,
                    "velocity": 0.7559055118110236,
                },
                {
                    "duration": 0.4149303895833327,
                    "durationTicks": 239,
                    "midi": 60,
                    "name": "C4",
                    "ticks": 82320,
                    "time": 142.9166095,
                    "velocity": 0.7559055118110236,
                },
                {
                    "duration": 0.4149303895833327,
                    "durationTicks": 239,
                    "midi": 57,
                    "name": "A3",
                    "ticks": 82320,
                    "time": 142.9166095,
                    "velocity": 0.7559055118110236,
                },
                {
                    "duration": 0.4149303895833327,
                    "durationTicks": 239,
                    "midi": 46,
                    "name": "A#2",
                    "ticks": 82560,
                    "time": 143.333276,
                    "velocity": 0.7559055118110236,
                },
                {
                    "duration": 0.4149303895833327,
                    "durationTicks": 239,
                    "midi": 65,
                    "name": "F4",
                    "ticks": 82800,
                    "time": 143.7499425,
                    "velocity": 0.7559055118110236,
                },
                {
                    "duration": 0.4149303895833327,
                    "durationTicks": 239,
                    "midi": 62,
                    "name": "D4",
                    "ticks": 82800,
                    "time": 143.7499425,
                    "velocity": 0.7559055118110236,
                },
                {
                    "duration": 0.4149303895833327,
                    "durationTicks": 239,
                    "midi": 58,
                    "name": "A#3",
                    "ticks": 82800,
                    "time": 143.7499425,
                    "velocity": 0.7559055118110236,
                },
                {
                    "duration": 0.4149303895833327,
                    "durationTicks": 239,
                    "midi": 53,
                    "name": "F3",
                    "ticks": 83040,
                    "time": 144.166609,
                    "velocity": 0.7559055118110236,
                },
                {
                    "duration": 0.41493038958336115,
                    "durationTicks": 239,
                    "midi": 65,
                    "name": "F4",
                    "ticks": 83280,
                    "time": 144.58327549999998,
                    "velocity": 0.7559055118110236,
                },
                {
                    "duration": 0.41493038958336115,
                    "durationTicks": 239,
                    "midi": 62,
                    "name": "D4",
                    "ticks": 83280,
                    "time": 144.58327549999998,
                    "velocity": 0.7559055118110236,
                },
                {
                    "duration": 0.41493038958336115,
                    "durationTicks": 239,
                    "midi": 58,
                    "name": "A#3",
                    "ticks": 83280,
                    "time": 144.58327549999998,
                    "velocity": 0.7559055118110236,
                },
                {
                    "duration": 0.4149303895833327,
                    "durationTicks": 239,
                    "midi": 38,
                    "name": "D2",
                    "ticks": 83520,
                    "time": 144.999942,
                    "velocity": 0.7559055118110236,
                },
                {
                    "duration": 0.4149303895833327,
                    "durationTicks": 239,
                    "midi": 65,
                    "name": "F4",
                    "ticks": 83760,
                    "time": 145.4166085,
                    "velocity": 0.7559055118110236,
                },
                {
                    "duration": 0.4149303895833327,
                    "durationTicks": 239,
                    "midi": 62,
                    "name": "D4",
                    "ticks": 83760,
                    "time": 145.4166085,
                    "velocity": 0.7559055118110236,
                },
                {
                    "duration": 0.4149303895833327,
                    "durationTicks": 239,
                    "midi": 57,
                    "name": "A3",
                    "ticks": 83760,
                    "time": 145.4166085,
                    "velocity": 0.7559055118110236,
                },
                {
                    "duration": 0.41493038958336115,
                    "durationTicks": 239,
                    "midi": 45,
                    "name": "A2",
                    "ticks": 84000,
                    "time": 145.833275,
                    "velocity": 0.7559055118110236,
                },
                {
                    "duration": 0.4149303895833327,
                    "durationTicks": 239,
                    "midi": 65,
                    "name": "F4",
                    "ticks": 84240,
                    "time": 146.2499415,
                    "velocity": 0.7559055118110236,
                },
                {
                    "duration": 0.4149303895833327,
                    "durationTicks": 239,
                    "midi": 62,
                    "name": "D4",
                    "ticks": 84240,
                    "time": 146.2499415,
                    "velocity": 0.7559055118110236,
                },
                {
                    "duration": 0.4149303895833327,
                    "durationTicks": 239,
                    "midi": 57,
                    "name": "A3",
                    "ticks": 84240,
                    "time": 146.2499415,
                    "velocity": 0.7559055118110236,
                },
                {
                    "duration": 0.4149303895833327,
                    "durationTicks": 239,
                    "midi": 43,
                    "name": "G2",
                    "ticks": 84480,
                    "time": 146.666608,
                    "velocity": 0.7559055118110236,
                },
                {
                    "duration": 0.4149303895833327,
                    "durationTicks": 239,
                    "midi": 62,
                    "name": "D4",
                    "ticks": 84720,
                    "time": 147.0832745,
                    "velocity": 0.7559055118110236,
                },
                {
                    "duration": 0.4149303895833327,
                    "durationTicks": 239,
                    "midi": 58,
                    "name": "A#3",
                    "ticks": 84720,
                    "time": 147.0832745,
                    "velocity": 0.7559055118110236,
                },
                {
                    "duration": 0.4149303895833327,
                    "durationTicks": 239,
                    "midi": 50,
                    "name": "D3",
                    "ticks": 84960,
                    "time": 147.499941,
                    "velocity": 0.7559055118110236,
                },
                {
                    "duration": 0.4149303895833327,
                    "durationTicks": 239,
                    "midi": 62,
                    "name": "D4",
                    "ticks": 85200,
                    "time": 147.9166075,
                    "velocity": 0.7559055118110236,
                },
                {
                    "duration": 0.4149303895833327,
                    "durationTicks": 239,
                    "midi": 58,
                    "name": "A#3",
                    "ticks": 85200,
                    "time": 147.9166075,
                    "velocity": 0.7559055118110236,
                },
                {
                    "duration": 0.4149303895833327,
                    "durationTicks": 239,
                    "midi": 58,
                    "name": "A#3",
                    "ticks": 85440,
                    "time": 148.333274,
                    "velocity": 0.7559055118110236,
                },
                {
                    "duration": 0.4149303895833327,
                    "durationTicks": 239,
                    "midi": 46,
                    "name": "A#2",
                    "ticks": 85440,
                    "time": 148.333274,
                    "velocity": 0.7559055118110236,
                },
                {
                    "duration": 0.4149303895833327,
                    "durationTicks": 239,
                    "midi": 62,
                    "name": "D4",
                    "ticks": 85680,
                    "time": 148.7499405,
                    "velocity": 0.7559055118110236,
                },
                {
                    "duration": 0.4149303895833327,
                    "durationTicks": 239,
                    "midi": 58,
                    "name": "A#3",
                    "ticks": 85680,
                    "time": 148.7499405,
                    "velocity": 0.7559055118110236,
                },
                {
                    "duration": 0.4149303895833327,
                    "durationTicks": 239,
                    "midi": 55,
                    "name": "G3",
                    "ticks": 85920,
                    "time": 149.166607,
                    "velocity": 0.7559055118110236,
                },
                {
                    "duration": 0.4149303895833327,
                    "durationTicks": 239,
                    "midi": 43,
                    "name": "G2",
                    "ticks": 85920,
                    "time": 149.166607,
                    "velocity": 0.7559055118110236,
                },
                {
                    "duration": 0.4149303895833327,
                    "durationTicks": 239,
                    "midi": 56,
                    "name": "G#3",
                    "ticks": 86160,
                    "time": 149.5832735,
                    "velocity": 0.7559055118110236,
                },
                {
                    "duration": 0.4149303895833327,
                    "durationTicks": 239,
                    "midi": 44,
                    "name": "G#2",
                    "ticks": 86160,
                    "time": 149.5832735,
                    "velocity": 0.7559055118110236,
                },
                {
                    "duration": 0.4149303895833327,
                    "durationTicks": 239,
                    "midi": 57,
                    "name": "A3",
                    "ticks": 86400,
                    "time": 149.99994,
                    "velocity": 0.7559055118110236,
                },
                {
                    "duration": 0.4149303895833327,
                    "durationTicks": 239,
                    "midi": 43,
                    "name": "G2",
                    "ticks": 86400,
                    "time": 149.99994,
                    "velocity": 0.7559055118110236,
                },
                {
                    "duration": 0.4149303895833327,
                    "durationTicks": 239,
                    "midi": 65,
                    "name": "F4",
                    "ticks": 86640,
                    "time": 150.4166065,
                    "velocity": 0.7559055118110236,
                },
                {
                    "duration": 0.4149303895833327,
                    "durationTicks": 239,
                    "midi": 60,
                    "name": "C4",
                    "ticks": 86640,
                    "time": 150.4166065,
                    "velocity": 0.7559055118110236,
                },
                {
                    "duration": 0.4149303895833327,
                    "durationTicks": 239,
                    "midi": 57,
                    "name": "A3",
                    "ticks": 86640,
                    "time": 150.4166065,
                    "velocity": 0.7559055118110236,
                },
                {
                    "duration": 0.4149303895833327,
                    "durationTicks": 239,
                    "midi": 50,
                    "name": "D3",
                    "ticks": 86880,
                    "time": 150.833273,
                    "velocity": 0.7559055118110236,
                },
                {
                    "duration": 0.4149303895833327,
                    "durationTicks": 239,
                    "midi": 65,
                    "name": "F4",
                    "ticks": 87120,
                    "time": 151.2499395,
                    "velocity": 0.7559055118110236,
                },
                {
                    "duration": 0.4149303895833327,
                    "durationTicks": 239,
                    "midi": 60,
                    "name": "C4",
                    "ticks": 87120,
                    "time": 151.2499395,
                    "velocity": 0.7559055118110236,
                },
                {
                    "duration": 0.4149303895833327,
                    "durationTicks": 239,
                    "midi": 57,
                    "name": "A3",
                    "ticks": 87120,
                    "time": 151.2499395,
                    "velocity": 0.7559055118110236,
                },
                {
                    "duration": 0.4149303895833327,
                    "durationTicks": 239,
                    "midi": 52,
                    "name": "E3",
                    "ticks": 87360,
                    "time": 151.666606,
                    "velocity": 0.7559055118110236,
                },
                {
                    "duration": 0.4149303895833327,
                    "durationTicks": 239,
                    "midi": 64,
                    "name": "E4",
                    "ticks": 87600,
                    "time": 152.0832725,
                    "velocity": 0.7559055118110236,
                },
                {
                    "duration": 0.4149303895833327,
                    "durationTicks": 239,
                    "midi": 62,
                    "name": "D4",
                    "ticks": 87600,
                    "time": 152.0832725,
                    "velocity": 0.7559055118110236,
                },
                {
                    "duration": 0.4149303895833327,
                    "durationTicks": 239,
                    "midi": 58,
                    "name": "A#3",
                    "ticks": 87600,
                    "time": 152.0832725,
                    "velocity": 0.7559055118110236,
                },
                {
                    "duration": 0.4149303895833327,
                    "durationTicks": 239,
                    "midi": 53,
                    "name": "F3",
                    "ticks": 87840,
                    "time": 152.499939,
                    "velocity": 0.7559055118110236,
                },
                {
                    "duration": 0.4149303895833327,
                    "durationTicks": 239,
                    "midi": 64,
                    "name": "E4",
                    "ticks": 88080,
                    "time": 152.9166055,
                    "velocity": 0.7559055118110236,
                },
                {
                    "duration": 0.4149303895833327,
                    "durationTicks": 239,
                    "midi": 62,
                    "name": "D4",
                    "ticks": 88080,
                    "time": 152.9166055,
                    "velocity": 0.7559055118110236,
                },
                {
                    "duration": 0.4149303895833327,
                    "durationTicks": 239,
                    "midi": 58,
                    "name": "A#3",
                    "ticks": 88080,
                    "time": 152.9166055,
                    "velocity": 0.7559055118110236,
                },
                {
                    "duration": 0.8315968895833521,
                    "durationTicks": 479,
                    "midi": 64,
                    "name": "E4",
                    "ticks": 88320,
                    "time": 153.333272,
                    "velocity": 0.7559055118110236,
                },
                {
                    "duration": 0.8315968895833521,
                    "durationTicks": 479,
                    "midi": 60,
                    "name": "C4",
                    "ticks": 88320,
                    "time": 153.333272,
                    "velocity": 0.7559055118110236,
                },
                {
                    "duration": 0.8315968895833521,
                    "durationTicks": 479,
                    "midi": 57,
                    "name": "A3",
                    "ticks": 88320,
                    "time": 153.333272,
                    "velocity": 0.7559055118110236,
                },
                {
                    "duration": 0.4149303895833327,
                    "durationTicks": 239,
                    "midi": 55,
                    "name": "G3",
                    "ticks": 88800,
                    "time": 154.166605,
                    "velocity": 0.7559055118110236,
                },
                {
                    "duration": 0.8315968895833237,
                    "durationTicks": 479,
                    "midi": 64,
                    "name": "E4",
                    "ticks": 88800,
                    "time": 154.166605,
                    "velocity": 0.7559055118110236,
                },
                {
                    "duration": 0.8315968895833237,
                    "durationTicks": 479,
                    "midi": 60,
                    "name": "C4",
                    "ticks": 88800,
                    "time": 154.166605,
                    "velocity": 0.7559055118110236,
                },
                {
                    "duration": 0.4149303895833327,
                    "durationTicks": 239,
                    "midi": 48,
                    "name": "C3",
                    "ticks": 89040,
                    "time": 154.5832715,
                    "velocity": 0.7559055118110236,
                },
                {
                    "duration": 0.41493038958336115,
                    "durationTicks": 239,
                    "midi": 41,
                    "name": "F2",
                    "ticks": 89280,
                    "time": 154.999938,
                    "velocity": 0.7559055118110236,
                },
                {
                    "duration": 0.4149303895833327,
                    "durationTicks": 239,
                    "midi": 65,
                    "name": "F4",
                    "ticks": 89520,
                    "time": 155.4166045,
                    "velocity": 0.7559055118110236,
                },
                {
                    "duration": 0.4149303895833327,
                    "durationTicks": 239,
                    "midi": 60,
                    "name": "C4",
                    "ticks": 89520,
                    "time": 155.4166045,
                    "velocity": 0.7559055118110236,
                },
                {
                    "duration": 0.4149303895833327,
                    "durationTicks": 239,
                    "midi": 57,
                    "name": "A3",
                    "ticks": 89520,
                    "time": 155.4166045,
                    "velocity": 0.7559055118110236,
                },
                {
                    "duration": 0.4149303895833327,
                    "durationTicks": 239,
                    "midi": 48,
                    "name": "C3",
                    "ticks": 89760,
                    "time": 155.833271,
                    "velocity": 0.7559055118110236,
                },
                {
                    "duration": 0.4149303895833327,
                    "durationTicks": 239,
                    "midi": 65,
                    "name": "F4",
                    "ticks": 90000,
                    "time": 156.2499375,
                    "velocity": 0.7559055118110236,
                },
                {
                    "duration": 0.4149303895833327,
                    "durationTicks": 239,
                    "midi": 60,
                    "name": "C4",
                    "ticks": 90000,
                    "time": 156.2499375,
                    "velocity": 0.7559055118110236,
                },
                {
                    "duration": 0.4149303895833327,
                    "durationTicks": 239,
                    "midi": 57,
                    "name": "A3",
                    "ticks": 90000,
                    "time": 156.2499375,
                    "velocity": 0.7559055118110236,
                },
                {
                    "duration": 0.4149303895833327,
                    "durationTicks": 239,
                    "midi": 46,
                    "name": "A#2",
                    "ticks": 90240,
                    "time": 156.666604,
                    "velocity": 0.7559055118110236,
                },
                {
                    "duration": 0.4149303895833327,
                    "durationTicks": 239,
                    "midi": 65,
                    "name": "F4",
                    "ticks": 90480,
                    "time": 157.0832705,
                    "velocity": 0.7559055118110236,
                },
                {
                    "duration": 0.4149303895833327,
                    "durationTicks": 239,
                    "midi": 62,
                    "name": "D4",
                    "ticks": 90480,
                    "time": 157.0832705,
                    "velocity": 0.7559055118110236,
                },
                {
                    "duration": 0.4149303895833327,
                    "durationTicks": 239,
                    "midi": 58,
                    "name": "A#3",
                    "ticks": 90480,
                    "time": 157.0832705,
                    "velocity": 0.7559055118110236,
                },
                {
                    "duration": 0.4149303895833327,
                    "durationTicks": 239,
                    "midi": 53,
                    "name": "F3",
                    "ticks": 90720,
                    "time": 157.499937,
                    "velocity": 0.7559055118110236,
                },
                {
                    "duration": 0.4149303895833327,
                    "durationTicks": 239,
                    "midi": 65,
                    "name": "F4",
                    "ticks": 90960,
                    "time": 157.9166035,
                    "velocity": 0.7559055118110236,
                },
                {
                    "duration": 0.4149303895833327,
                    "durationTicks": 239,
                    "midi": 62,
                    "name": "D4",
                    "ticks": 90960,
                    "time": 157.9166035,
                    "velocity": 0.7559055118110236,
                },
                {
                    "duration": 0.4149303895833327,
                    "durationTicks": 239,
                    "midi": 58,
                    "name": "A#3",
                    "ticks": 90960,
                    "time": 157.9166035,
                    "velocity": 0.7559055118110236,
                },
                {
                    "duration": 0.4149303895833327,
                    "durationTicks": 239,
                    "midi": 38,
                    "name": "D2",
                    "ticks": 91200,
                    "time": 158.33327,
                    "velocity": 0.7559055118110236,
                },
                {
                    "duration": 0.4149303895833327,
                    "durationTicks": 239,
                    "midi": 65,
                    "name": "F4",
                    "ticks": 91440,
                    "time": 158.7499365,
                    "velocity": 0.7559055118110236,
                },
                {
                    "duration": 0.4149303895833327,
                    "durationTicks": 239,
                    "midi": 62,
                    "name": "D4",
                    "ticks": 91440,
                    "time": 158.7499365,
                    "velocity": 0.7559055118110236,
                },
                {
                    "duration": 0.4149303895833327,
                    "durationTicks": 239,
                    "midi": 57,
                    "name": "A3",
                    "ticks": 91440,
                    "time": 158.7499365,
                    "velocity": 0.7559055118110236,
                },
                {
                    "duration": 0.4149303895833327,
                    "durationTicks": 239,
                    "midi": 45,
                    "name": "A2",
                    "ticks": 91680,
                    "time": 159.166603,
                    "velocity": 0.7559055118110236,
                },
                {
                    "duration": 0.4149303895833327,
                    "durationTicks": 239,
                    "midi": 65,
                    "name": "F4",
                    "ticks": 91920,
                    "time": 159.5832695,
                    "velocity": 0.7559055118110236,
                },
                {
                    "duration": 0.4149303895833327,
                    "durationTicks": 239,
                    "midi": 62,
                    "name": "D4",
                    "ticks": 91920,
                    "time": 159.5832695,
                    "velocity": 0.7559055118110236,
                },
                {
                    "duration": 0.4149303895833327,
                    "durationTicks": 239,
                    "midi": 57,
                    "name": "A3",
                    "ticks": 91920,
                    "time": 159.5832695,
                    "velocity": 0.7559055118110236,
                },
                {
                    "duration": 0.4149303895833327,
                    "durationTicks": 239,
                    "midi": 43,
                    "name": "G2",
                    "ticks": 92160,
                    "time": 159.999936,
                    "velocity": 0.7559055118110236,
                },
                {
                    "duration": 0.4149303895833327,
                    "durationTicks": 239,
                    "midi": 62,
                    "name": "D4",
                    "ticks": 92400,
                    "time": 160.4166025,
                    "velocity": 0.7559055118110236,
                },
                {
                    "duration": 0.4149303895833327,
                    "durationTicks": 239,
                    "midi": 58,
                    "name": "A#3",
                    "ticks": 92400,
                    "time": 160.4166025,
                    "velocity": 0.7559055118110236,
                },
                {
                    "duration": 0.4149303895833327,
                    "durationTicks": 239,
                    "midi": 50,
                    "name": "D3",
                    "ticks": 92640,
                    "time": 160.833269,
                    "velocity": 0.7559055118110236,
                },
                {
                    "duration": 0.4149303895833327,
                    "durationTicks": 239,
                    "midi": 62,
                    "name": "D4",
                    "ticks": 92880,
                    "time": 161.2499355,
                    "velocity": 0.7559055118110236,
                },
                {
                    "duration": 0.4149303895833327,
                    "durationTicks": 239,
                    "midi": 58,
                    "name": "A#3",
                    "ticks": 92880,
                    "time": 161.2499355,
                    "velocity": 0.7559055118110236,
                },
                {
                    "duration": 0.4149303895833327,
                    "durationTicks": 239,
                    "midi": 58,
                    "name": "A#3",
                    "ticks": 93120,
                    "time": 161.666602,
                    "velocity": 0.7559055118110236,
                },
                {
                    "duration": 0.4149303895833327,
                    "durationTicks": 239,
                    "midi": 46,
                    "name": "A#2",
                    "ticks": 93120,
                    "time": 161.666602,
                    "velocity": 0.7559055118110236,
                },
                {
                    "duration": 0.4149303895833327,
                    "durationTicks": 239,
                    "midi": 62,
                    "name": "D4",
                    "ticks": 93360,
                    "time": 162.0832685,
                    "velocity": 0.7559055118110236,
                },
                {
                    "duration": 0.4149303895833327,
                    "durationTicks": 239,
                    "midi": 58,
                    "name": "A#3",
                    "ticks": 93360,
                    "time": 162.0832685,
                    "velocity": 0.7559055118110236,
                },
                {
                    "duration": 0.4149303895833327,
                    "durationTicks": 239,
                    "midi": 55,
                    "name": "G3",
                    "ticks": 93600,
                    "time": 162.499935,
                    "velocity": 0.7559055118110236,
                },
                {
                    "duration": 0.4149303895833327,
                    "durationTicks": 239,
                    "midi": 43,
                    "name": "G2",
                    "ticks": 93600,
                    "time": 162.499935,
                    "velocity": 0.7559055118110236,
                },
                {
                    "duration": 0.41493038958336115,
                    "durationTicks": 239,
                    "midi": 56,
                    "name": "G#3",
                    "ticks": 93840,
                    "time": 162.91660149999998,
                    "velocity": 0.7559055118110236,
                },
                {
                    "duration": 0.41493038958336115,
                    "durationTicks": 239,
                    "midi": 44,
                    "name": "G#2",
                    "ticks": 93840,
                    "time": 162.91660149999998,
                    "velocity": 0.7559055118110236,
                },
                {
                    "duration": 0.20659713958332304,
                    "durationTicks": 119,
                    "midi": 57,
                    "name": "A3",
                    "ticks": 94080,
                    "time": 163.333268,
                    "velocity": 0.7559055118110236,
                },
                {
                    "duration": 0.20659713958332304,
                    "durationTicks": 119,
                    "midi": 45,
                    "name": "A2",
                    "ticks": 94080,
                    "time": 163.333268,
                    "velocity": 0.7559055118110236,
                },
                {
                    "duration": 0.20659713958335146,
                    "durationTicks": 119,
                    "midi": 53,
                    "name": "F3",
                    "ticks": 94200,
                    "time": 163.54160124999999,
                    "velocity": 0.7559055118110236,
                },
                {
                    "duration": 0.20659713958335146,
                    "durationTicks": 119,
                    "midi": 41,
                    "name": "F2",
                    "ticks": 94200,
                    "time": 163.54160124999999,
                    "velocity": 0.7559055118110236,
                },
                {
                    "duration": 0.20659713958335146,
                    "durationTicks": 119,
                    "midi": 52,
                    "name": "E3",
                    "ticks": 94320,
                    "time": 163.7499345,
                    "velocity": 0.7559055118110236,
                },
                {
                    "duration": 0.20659713958335146,
                    "durationTicks": 119,
                    "midi": 40,
                    "name": "E2",
                    "ticks": 94320,
                    "time": 163.7499345,
                    "velocity": 0.7559055118110236,
                },
                {
                    "duration": 0.20659713958332304,
                    "durationTicks": 119,
                    "midi": 50,
                    "name": "D3",
                    "ticks": 94440,
                    "time": 163.95826775,
                    "velocity": 0.7559055118110236,
                },
                {
                    "duration": 0.20659713958332304,
                    "durationTicks": 119,
                    "midi": 38,
                    "name": "D2",
                    "ticks": 94440,
                    "time": 163.95826775,
                    "velocity": 0.7559055118110236,
                },
                {
                    "duration": 0.8315968895833521,
                    "durationTicks": 479,
                    "midi": 49,
                    "name": "C#3",
                    "ticks": 94560,
                    "time": 164.16660099999999,
                    "velocity": 0.7559055118110236,
                },
                {
                    "duration": 0.8315968895833521,
                    "durationTicks": 479,
                    "midi": 37,
                    "name": "C#2",
                    "ticks": 94560,
                    "time": 164.16660099999999,
                    "velocity": 0.7559055118110236,
                },
                {
                    "duration": 0.4149303895833327,
                    "durationTicks": 239,
                    "midi": 48,
                    "name": "C3",
                    "ticks": 95040,
                    "time": 164.999934,
                    "velocity": 0.7559055118110236,
                },
                {
                    "duration": 0.4149303895833327,
                    "durationTicks": 239,
                    "midi": 36,
                    "name": "C2",
                    "ticks": 95040,
                    "time": 164.999934,
                    "velocity": 0.7559055118110236,
                },
                {
                    "duration": 0.4149303895833327,
                    "durationTicks": 239,
                    "midi": 65,
                    "name": "F4",
                    "ticks": 95280,
                    "time": 165.4166005,
                    "velocity": 0.7559055118110236,
                },
                {
                    "duration": 0.4149303895833327,
                    "durationTicks": 239,
                    "midi": 60,
                    "name": "C4",
                    "ticks": 95280,
                    "time": 165.4166005,
                    "velocity": 0.7559055118110236,
                },
                {
                    "duration": 0.4149303895833327,
                    "durationTicks": 239,
                    "midi": 57,
                    "name": "A3",
                    "ticks": 95280,
                    "time": 165.4166005,
                    "velocity": 0.7559055118110236,
                },
                {
                    "duration": 0.4149303895833327,
                    "durationTicks": 239,
                    "midi": 60,
                    "name": "C4",
                    "ticks": 95520,
                    "time": 165.833267,
                    "velocity": 0.7559055118110236,
                },
                {
                    "duration": 0.4149303895833327,
                    "durationTicks": 239,
                    "midi": 48,
                    "name": "C3",
                    "ticks": 95520,
                    "time": 165.833267,
                    "velocity": 0.7559055118110236,
                },
                {
                    "duration": 0.4149303895833327,
                    "durationTicks": 239,
                    "midi": 48,
                    "name": "C3",
                    "ticks": 95760,
                    "time": 166.2499335,
                    "velocity": 0.7559055118110236,
                },
                {
                    "duration": 0.4149303895833327,
                    "durationTicks": 239,
                    "midi": 36,
                    "name": "C2",
                    "ticks": 95760,
                    "time": 166.2499335,
                    "velocity": 0.7559055118110236,
                },
                {
                    "duration": 0.4149303895833327,
                    "durationTicks": 239,
                    "midi": 53,
                    "name": "F3",
                    "ticks": 96000,
                    "time": 166.6666,
                    "velocity": 0.7559055118110236,
                },
                {
                    "duration": 0.4149303895833327,
                    "durationTicks": 239,
                    "midi": 41,
                    "name": "F2",
                    "ticks": 96000,
                    "time": 166.6666,
                    "velocity": 0.7559055118110236,
                },
                {
                    "duration": 0.4149303895833327,
                    "durationTicks": 239,
                    "midi": 41,
                    "name": "F2",
                    "ticks": 96960,
                    "time": 168.333266,
                    "velocity": 0.7559055118110236,
                },
                {
                    "duration": 0.4149303895833327,
                    "durationTicks": 239,
                    "midi": 65,
                    "name": "F4",
                    "ticks": 97200,
                    "time": 168.7499325,
                    "velocity": 0.7559055118110236,
                },
                {
                    "duration": 0.4149303895833327,
                    "durationTicks": 239,
                    "midi": 60,
                    "name": "C4",
                    "ticks": 97200,
                    "time": 168.7499325,
                    "velocity": 0.7559055118110236,
                },
                {
                    "duration": 0.4149303895833327,
                    "durationTicks": 239,
                    "midi": 57,
                    "name": "A3",
                    "ticks": 97200,
                    "time": 168.7499325,
                    "velocity": 0.7559055118110236,
                },
                {
                    "duration": 0.4149303895833327,
                    "durationTicks": 239,
                    "midi": 48,
                    "name": "C3",
                    "ticks": 97440,
                    "time": 169.166599,
                    "velocity": 0.7559055118110236,
                },
                {
                    "duration": 0.4149303895833327,
                    "durationTicks": 239,
                    "midi": 65,
                    "name": "F4",
                    "ticks": 97680,
                    "time": 169.5832655,
                    "velocity": 0.7559055118110236,
                },
                {
                    "duration": 0.4149303895833327,
                    "durationTicks": 239,
                    "midi": 60,
                    "name": "C4",
                    "ticks": 97680,
                    "time": 169.5832655,
                    "velocity": 0.7559055118110236,
                },
                {
                    "duration": 0.4149303895833327,
                    "durationTicks": 239,
                    "midi": 57,
                    "name": "A3",
                    "ticks": 97680,
                    "time": 169.5832655,
                    "velocity": 0.7559055118110236,
                },
                {
                    "duration": 0.4149303895833327,
                    "durationTicks": 239,
                    "midi": 46,
                    "name": "A#2",
                    "ticks": 97920,
                    "time": 169.999932,
                    "velocity": 0.7559055118110236,
                },
                {
                    "duration": 0.4149303895833327,
                    "durationTicks": 239,
                    "midi": 65,
                    "name": "F4",
                    "ticks": 98160,
                    "time": 170.4165985,
                    "velocity": 0.7559055118110236,
                },
                {
                    "duration": 0.4149303895833327,
                    "durationTicks": 239,
                    "midi": 62,
                    "name": "D4",
                    "ticks": 98160,
                    "time": 170.4165985,
                    "velocity": 0.7559055118110236,
                },
                {
                    "duration": 0.4149303895833327,
                    "durationTicks": 239,
                    "midi": 58,
                    "name": "A#3",
                    "ticks": 98160,
                    "time": 170.4165985,
                    "velocity": 0.7559055118110236,
                },
                {
                    "duration": 0.4149303895833327,
                    "durationTicks": 239,
                    "midi": 53,
                    "name": "F3",
                    "ticks": 98400,
                    "time": 170.833265,
                    "velocity": 0.7559055118110236,
                },
                {
                    "duration": 0.4149303895833327,
                    "durationTicks": 239,
                    "midi": 65,
                    "name": "F4",
                    "ticks": 98640,
                    "time": 171.2499315,
                    "velocity": 0.7559055118110236,
                },
                {
                    "duration": 0.4149303895833327,
                    "durationTicks": 239,
                    "midi": 62,
                    "name": "D4",
                    "ticks": 98640,
                    "time": 171.2499315,
                    "velocity": 0.7559055118110236,
                },
                {
                    "duration": 0.4149303895833327,
                    "durationTicks": 239,
                    "midi": 58,
                    "name": "A#3",
                    "ticks": 98640,
                    "time": 171.2499315,
                    "velocity": 0.7559055118110236,
                },
                {
                    "duration": 0.4149303895833327,
                    "durationTicks": 239,
                    "midi": 38,
                    "name": "D2",
                    "ticks": 98880,
                    "time": 171.666598,
                    "velocity": 0.7559055118110236,
                },
                {
                    "duration": 0.41493038958336115,
                    "durationTicks": 239,
                    "midi": 65,
                    "name": "F4",
                    "ticks": 99120,
                    "time": 172.08326449999998,
                    "velocity": 0.7559055118110236,
                },
                {
                    "duration": 0.41493038958336115,
                    "durationTicks": 239,
                    "midi": 62,
                    "name": "D4",
                    "ticks": 99120,
                    "time": 172.08326449999998,
                    "velocity": 0.7559055118110236,
                },
                {
                    "duration": 0.41493038958336115,
                    "durationTicks": 239,
                    "midi": 57,
                    "name": "A3",
                    "ticks": 99120,
                    "time": 172.08326449999998,
                    "velocity": 0.7559055118110236,
                },
                {
                    "duration": 0.4149303895833327,
                    "durationTicks": 239,
                    "midi": 45,
                    "name": "A2",
                    "ticks": 99360,
                    "time": 172.499931,
                    "velocity": 0.7559055118110236,
                },
                {
                    "duration": 0.4149303895833327,
                    "durationTicks": 239,
                    "midi": 65,
                    "name": "F4",
                    "ticks": 99600,
                    "time": 172.9165975,
                    "velocity": 0.7559055118110236,
                },
                {
                    "duration": 0.4149303895833327,
                    "durationTicks": 239,
                    "midi": 62,
                    "name": "D4",
                    "ticks": 99600,
                    "time": 172.9165975,
                    "velocity": 0.7559055118110236,
                },
                {
                    "duration": 0.4149303895833327,
                    "durationTicks": 239,
                    "midi": 57,
                    "name": "A3",
                    "ticks": 99600,
                    "time": 172.9165975,
                    "velocity": 0.7559055118110236,
                },
                {
                    "duration": 0.41493038958336115,
                    "durationTicks": 239,
                    "midi": 43,
                    "name": "G2",
                    "ticks": 99840,
                    "time": 173.33326399999999,
                    "velocity": 0.7559055118110236,
                },
                {
                    "duration": 0.4149303895833327,
                    "durationTicks": 239,
                    "midi": 62,
                    "name": "D4",
                    "ticks": 100080,
                    "time": 173.7499305,
                    "velocity": 0.7559055118110236,
                },
                {
                    "duration": 0.4149303895833327,
                    "durationTicks": 239,
                    "midi": 58,
                    "name": "A#3",
                    "ticks": 100080,
                    "time": 173.7499305,
                    "velocity": 0.7559055118110236,
                },
                {
                    "duration": 0.4149303895833327,
                    "durationTicks": 239,
                    "midi": 50,
                    "name": "D3",
                    "ticks": 100320,
                    "time": 174.166597,
                    "velocity": 0.7559055118110236,
                },
                {
                    "duration": 0.4149303895833327,
                    "durationTicks": 239,
                    "midi": 62,
                    "name": "D4",
                    "ticks": 100560,
                    "time": 174.5832635,
                    "velocity": 0.7559055118110236,
                },
                {
                    "duration": 0.4149303895833327,
                    "durationTicks": 239,
                    "midi": 58,
                    "name": "A#3",
                    "ticks": 100560,
                    "time": 174.5832635,
                    "velocity": 0.7559055118110236,
                },
                {
                    "duration": 0.4149303895833327,
                    "durationTicks": 239,
                    "midi": 58,
                    "name": "A#3",
                    "ticks": 100800,
                    "time": 174.99993,
                    "velocity": 0.7559055118110236,
                },
                {
                    "duration": 0.4149303895833327,
                    "durationTicks": 239,
                    "midi": 46,
                    "name": "A#2",
                    "ticks": 100800,
                    "time": 174.99993,
                    "velocity": 0.7559055118110236,
                },
                {
                    "duration": 0.4149303895833327,
                    "durationTicks": 239,
                    "midi": 62,
                    "name": "D4",
                    "ticks": 101040,
                    "time": 175.4165965,
                    "velocity": 0.7559055118110236,
                },
                {
                    "duration": 0.4149303895833327,
                    "durationTicks": 239,
                    "midi": 58,
                    "name": "A#3",
                    "ticks": 101040,
                    "time": 175.4165965,
                    "velocity": 0.7559055118110236,
                },
                {
                    "duration": 0.4149303895833327,
                    "durationTicks": 239,
                    "midi": 55,
                    "name": "G3",
                    "ticks": 101280,
                    "time": 175.833263,
                    "velocity": 0.7559055118110236,
                },
                {
                    "duration": 0.4149303895833327,
                    "durationTicks": 239,
                    "midi": 43,
                    "name": "G2",
                    "ticks": 101280,
                    "time": 175.833263,
                    "velocity": 0.7559055118110236,
                },
                {
                    "duration": 0.4149303895833327,
                    "durationTicks": 239,
                    "midi": 56,
                    "name": "G#3",
                    "ticks": 101520,
                    "time": 176.2499295,
                    "velocity": 0.7559055118110236,
                },
                {
                    "duration": 0.4149303895833327,
                    "durationTicks": 239,
                    "midi": 44,
                    "name": "G#2",
                    "ticks": 101520,
                    "time": 176.2499295,
                    "velocity": 0.7559055118110236,
                },
                {
                    "duration": 0.4149303895833327,
                    "durationTicks": 239,
                    "midi": 57,
                    "name": "A3",
                    "ticks": 101760,
                    "time": 176.666596,
                    "velocity": 0.7559055118110236,
                },
                {
                    "duration": 0.4149303895833327,
                    "durationTicks": 239,
                    "midi": 43,
                    "name": "G2",
                    "ticks": 101760,
                    "time": 176.666596,
                    "velocity": 0.7559055118110236,
                },
                {
                    "duration": 0.4149303895833327,
                    "durationTicks": 239,
                    "midi": 65,
                    "name": "F4",
                    "ticks": 102000,
                    "time": 177.0832625,
                    "velocity": 0.7559055118110236,
                },
                {
                    "duration": 0.4149303895833327,
                    "durationTicks": 239,
                    "midi": 60,
                    "name": "C4",
                    "ticks": 102000,
                    "time": 177.0832625,
                    "velocity": 0.7559055118110236,
                },
                {
                    "duration": 0.4149303895833327,
                    "durationTicks": 239,
                    "midi": 57,
                    "name": "A3",
                    "ticks": 102000,
                    "time": 177.0832625,
                    "velocity": 0.7559055118110236,
                },
                {
                    "duration": 0.4149303895833327,
                    "durationTicks": 239,
                    "midi": 50,
                    "name": "D3",
                    "ticks": 102240,
                    "time": 177.499929,
                    "velocity": 0.7559055118110236,
                },
                {
                    "duration": 0.4149303895833327,
                    "durationTicks": 239,
                    "midi": 65,
                    "name": "F4",
                    "ticks": 102480,
                    "time": 177.9165955,
                    "velocity": 0.7559055118110236,
                },
                {
                    "duration": 0.4149303895833327,
                    "durationTicks": 239,
                    "midi": 60,
                    "name": "C4",
                    "ticks": 102480,
                    "time": 177.9165955,
                    "velocity": 0.7559055118110236,
                },
                {
                    "duration": 0.4149303895833327,
                    "durationTicks": 239,
                    "midi": 57,
                    "name": "A3",
                    "ticks": 102480,
                    "time": 177.9165955,
                    "velocity": 0.7559055118110236,
                },
                {
                    "duration": 0.4149303895833327,
                    "durationTicks": 239,
                    "midi": 52,
                    "name": "E3",
                    "ticks": 102720,
                    "time": 178.333262,
                    "velocity": 0.7559055118110236,
                },
                {
                    "duration": 0.4149303895833327,
                    "durationTicks": 239,
                    "midi": 64,
                    "name": "E4",
                    "ticks": 102960,
                    "time": 178.7499285,
                    "velocity": 0.7559055118110236,
                },
                {
                    "duration": 0.4149303895833327,
                    "durationTicks": 239,
                    "midi": 62,
                    "name": "D4",
                    "ticks": 102960,
                    "time": 178.7499285,
                    "velocity": 0.7559055118110236,
                },
                {
                    "duration": 0.4149303895833327,
                    "durationTicks": 239,
                    "midi": 58,
                    "name": "A#3",
                    "ticks": 102960,
                    "time": 178.7499285,
                    "velocity": 0.7559055118110236,
                },
                {
                    "duration": 0.4149303895833327,
                    "durationTicks": 239,
                    "midi": 53,
                    "name": "F3",
                    "ticks": 103200,
                    "time": 179.166595,
                    "velocity": 0.7559055118110236,
                },
                {
                    "duration": 0.4149303895833327,
                    "durationTicks": 239,
                    "midi": 64,
                    "name": "E4",
                    "ticks": 103440,
                    "time": 179.5832615,
                    "velocity": 0.7559055118110236,
                },
                {
                    "duration": 0.4149303895833327,
                    "durationTicks": 239,
                    "midi": 62,
                    "name": "D4",
                    "ticks": 103440,
                    "time": 179.5832615,
                    "velocity": 0.7559055118110236,
                },
                {
                    "duration": 0.4149303895833327,
                    "durationTicks": 239,
                    "midi": 58,
                    "name": "A#3",
                    "ticks": 103440,
                    "time": 179.5832615,
                    "velocity": 0.7559055118110236,
                },
                {
                    "duration": 0.8315968895833237,
                    "durationTicks": 479,
                    "midi": 64,
                    "name": "E4",
                    "ticks": 103680,
                    "time": 179.999928,
                    "velocity": 0.7559055118110236,
                },
                {
                    "duration": 0.8315968895833237,
                    "durationTicks": 479,
                    "midi": 60,
                    "name": "C4",
                    "ticks": 103680,
                    "time": 179.999928,
                    "velocity": 0.7559055118110236,
                },
                {
                    "duration": 0.8315968895833237,
                    "durationTicks": 479,
                    "midi": 57,
                    "name": "A3",
                    "ticks": 103680,
                    "time": 179.999928,
                    "velocity": 0.7559055118110236,
                },
                {
                    "duration": 0.4149303895833327,
                    "durationTicks": 239,
                    "midi": 55,
                    "name": "G3",
                    "ticks": 104160,
                    "time": 180.833261,
                    "velocity": 0.7559055118110236,
                },
                {
                    "duration": 0.8315968895833521,
                    "durationTicks": 479,
                    "midi": 64,
                    "name": "E4",
                    "ticks": 104160,
                    "time": 180.833261,
                    "velocity": 0.7559055118110236,
                },
                {
                    "duration": 0.8315968895833521,
                    "durationTicks": 479,
                    "midi": 60,
                    "name": "C4",
                    "ticks": 104160,
                    "time": 180.833261,
                    "velocity": 0.7559055118110236,
                },
                {
                    "duration": 0.41493038958336115,
                    "durationTicks": 239,
                    "midi": 48,
                    "name": "C3",
                    "ticks": 104400,
                    "time": 181.24992749999998,
                    "velocity": 0.7559055118110236,
                },
                {
                    "duration": 0.4149303895833327,
                    "durationTicks": 239,
                    "midi": 41,
                    "name": "F2",
                    "ticks": 104640,
                    "time": 181.666594,
                    "velocity": 0.7559055118110236,
                },
                {
                    "duration": 0.4149303895833327,
                    "durationTicks": 239,
                    "midi": 65,
                    "name": "F4",
                    "ticks": 104880,
                    "time": 182.0832605,
                    "velocity": 0.7559055118110236,
                },
                {
                    "duration": 0.4149303895833327,
                    "durationTicks": 239,
                    "midi": 60,
                    "name": "C4",
                    "ticks": 104880,
                    "time": 182.0832605,
                    "velocity": 0.7559055118110236,
                },
                {
                    "duration": 0.4149303895833327,
                    "durationTicks": 239,
                    "midi": 57,
                    "name": "A3",
                    "ticks": 104880,
                    "time": 182.0832605,
                    "velocity": 0.7559055118110236,
                },
                {
                    "duration": 0.41493038958336115,
                    "durationTicks": 239,
                    "midi": 48,
                    "name": "C3",
                    "ticks": 105120,
                    "time": 182.49992699999999,
                    "velocity": 0.7559055118110236,
                },
                {
                    "duration": 0.4149303895833327,
                    "durationTicks": 239,
                    "midi": 65,
                    "name": "F4",
                    "ticks": 105360,
                    "time": 182.9165935,
                    "velocity": 0.7559055118110236,
                },
                {
                    "duration": 0.4149303895833327,
                    "durationTicks": 239,
                    "midi": 60,
                    "name": "C4",
                    "ticks": 105360,
                    "time": 182.9165935,
                    "velocity": 0.7559055118110236,
                },
                {
                    "duration": 0.4149303895833327,
                    "durationTicks": 239,
                    "midi": 57,
                    "name": "A3",
                    "ticks": 105360,
                    "time": 182.9165935,
                    "velocity": 0.7559055118110236,
                },
                {
                    "duration": 0.4149303895833327,
                    "durationTicks": 239,
                    "midi": 46,
                    "name": "A#2",
                    "ticks": 105600,
                    "time": 183.33326,
                    "velocity": 0.7559055118110236,
                },
                {
                    "duration": 0.4149303895833327,
                    "durationTicks": 239,
                    "midi": 65,
                    "name": "F4",
                    "ticks": 105840,
                    "time": 183.7499265,
                    "velocity": 0.7559055118110236,
                },
                {
                    "duration": 0.4149303895833327,
                    "durationTicks": 239,
                    "midi": 62,
                    "name": "D4",
                    "ticks": 105840,
                    "time": 183.7499265,
                    "velocity": 0.7559055118110236,
                },
                {
                    "duration": 0.4149303895833327,
                    "durationTicks": 239,
                    "midi": 58,
                    "name": "A#3",
                    "ticks": 105840,
                    "time": 183.7499265,
                    "velocity": 0.7559055118110236,
                },
                {
                    "duration": 0.4149303895833327,
                    "durationTicks": 239,
                    "midi": 53,
                    "name": "F3",
                    "ticks": 106080,
                    "time": 184.166593,
                    "velocity": 0.7559055118110236,
                },
                {
                    "duration": 0.4149303895833327,
                    "durationTicks": 239,
                    "midi": 65,
                    "name": "F4",
                    "ticks": 106320,
                    "time": 184.5832595,
                    "velocity": 0.7559055118110236,
                },
                {
                    "duration": 0.4149303895833327,
                    "durationTicks": 239,
                    "midi": 62,
                    "name": "D4",
                    "ticks": 106320,
                    "time": 184.5832595,
                    "velocity": 0.7559055118110236,
                },
                {
                    "duration": 0.4149303895833327,
                    "durationTicks": 239,
                    "midi": 58,
                    "name": "A#3",
                    "ticks": 106320,
                    "time": 184.5832595,
                    "velocity": 0.7559055118110236,
                },
                {
                    "duration": 0.4149303895833327,
                    "durationTicks": 239,
                    "midi": 38,
                    "name": "D2",
                    "ticks": 106560,
                    "time": 184.999926,
                    "velocity": 0.7559055118110236,
                },
                {
                    "duration": 0.4149303895833327,
                    "durationTicks": 239,
                    "midi": 65,
                    "name": "F4",
                    "ticks": 106800,
                    "time": 185.4165925,
                    "velocity": 0.7559055118110236,
                },
                {
                    "duration": 0.4149303895833327,
                    "durationTicks": 239,
                    "midi": 62,
                    "name": "D4",
                    "ticks": 106800,
                    "time": 185.4165925,
                    "velocity": 0.7559055118110236,
                },
                {
                    "duration": 0.4149303895833327,
                    "durationTicks": 239,
                    "midi": 57,
                    "name": "A3",
                    "ticks": 106800,
                    "time": 185.4165925,
                    "velocity": 0.7559055118110236,
                },
                {
                    "duration": 0.4149303895833327,
                    "durationTicks": 239,
                    "midi": 45,
                    "name": "A2",
                    "ticks": 107040,
                    "time": 185.833259,
                    "velocity": 0.7559055118110236,
                },
                {
                    "duration": 0.4149303895833327,
                    "durationTicks": 239,
                    "midi": 65,
                    "name": "F4",
                    "ticks": 107280,
                    "time": 186.2499255,
                    "velocity": 0.7559055118110236,
                },
                {
                    "duration": 0.4149303895833327,
                    "durationTicks": 239,
                    "midi": 62,
                    "name": "D4",
                    "ticks": 107280,
                    "time": 186.2499255,
                    "velocity": 0.7559055118110236,
                },
                {
                    "duration": 0.4149303895833327,
                    "durationTicks": 239,
                    "midi": 57,
                    "name": "A3",
                    "ticks": 107280,
                    "time": 186.2499255,
                    "velocity": 0.7559055118110236,
                },
                {
                    "duration": 0.4149303895833327,
                    "durationTicks": 239,
                    "midi": 43,
                    "name": "G2",
                    "ticks": 107520,
                    "time": 186.666592,
                    "velocity": 0.7559055118110236,
                },
                {
                    "duration": 0.4149303895833327,
                    "durationTicks": 239,
                    "midi": 62,
                    "name": "D4",
                    "ticks": 107760,
                    "time": 187.0832585,
                    "velocity": 0.7559055118110236,
                },
                {
                    "duration": 0.4149303895833327,
                    "durationTicks": 239,
                    "midi": 58,
                    "name": "A#3",
                    "ticks": 107760,
                    "time": 187.0832585,
                    "velocity": 0.7559055118110236,
                },
                {
                    "duration": 0.4149303895833327,
                    "durationTicks": 239,
                    "midi": 50,
                    "name": "D3",
                    "ticks": 108000,
                    "time": 187.499925,
                    "velocity": 0.7559055118110236,
                },
                {
                    "duration": 0.4149303895833327,
                    "durationTicks": 239,
                    "midi": 62,
                    "name": "D4",
                    "ticks": 108240,
                    "time": 187.9165915,
                    "velocity": 0.7559055118110236,
                },
                {
                    "duration": 0.4149303895833327,
                    "durationTicks": 239,
                    "midi": 58,
                    "name": "A#3",
                    "ticks": 108240,
                    "time": 187.9165915,
                    "velocity": 0.7559055118110236,
                },
                {
                    "duration": 0.4149303895833327,
                    "durationTicks": 239,
                    "midi": 58,
                    "name": "A#3",
                    "ticks": 108480,
                    "time": 188.333258,
                    "velocity": 0.7559055118110236,
                },
                {
                    "duration": 0.4149303895833327,
                    "durationTicks": 239,
                    "midi": 46,
                    "name": "A#2",
                    "ticks": 108480,
                    "time": 188.333258,
                    "velocity": 0.7559055118110236,
                },
                {
                    "duration": 0.4149303895833327,
                    "durationTicks": 239,
                    "midi": 62,
                    "name": "D4",
                    "ticks": 108720,
                    "time": 188.7499245,
                    "velocity": 0.7559055118110236,
                },
                {
                    "duration": 0.4149303895833327,
                    "durationTicks": 239,
                    "midi": 58,
                    "name": "A#3",
                    "ticks": 108720,
                    "time": 188.7499245,
                    "velocity": 0.7559055118110236,
                },
                {
                    "duration": 0.4149303895833327,
                    "durationTicks": 239,
                    "midi": 55,
                    "name": "G3",
                    "ticks": 108960,
                    "time": 189.166591,
                    "velocity": 0.7559055118110236,
                },
                {
                    "duration": 0.4149303895833327,
                    "durationTicks": 239,
                    "midi": 43,
                    "name": "G2",
                    "ticks": 108960,
                    "time": 189.166591,
                    "velocity": 0.7559055118110236,
                },
                {
                    "duration": 0.4149303895833327,
                    "durationTicks": 239,
                    "midi": 56,
                    "name": "G#3",
                    "ticks": 109200,
                    "time": 189.5832575,
                    "velocity": 0.7559055118110236,
                },
                {
                    "duration": 0.4149303895833327,
                    "durationTicks": 239,
                    "midi": 44,
                    "name": "G#2",
                    "ticks": 109200,
                    "time": 189.5832575,
                    "velocity": 0.7559055118110236,
                },
                {
                    "duration": 0.20659713958335146,
                    "durationTicks": 119,
                    "midi": 57,
                    "name": "A3",
                    "ticks": 109440,
                    "time": 189.999924,
                    "velocity": 0.7559055118110236,
                },
                {
                    "duration": 0.20659713958335146,
                    "durationTicks": 119,
                    "midi": 45,
                    "name": "A2",
                    "ticks": 109440,
                    "time": 189.999924,
                    "velocity": 0.7559055118110236,
                },
                {
                    "duration": 0.20659713958332304,
                    "durationTicks": 119,
                    "midi": 53,
                    "name": "F3",
                    "ticks": 109560,
                    "time": 190.20825725,
                    "velocity": 0.7559055118110236,
                },
                {
                    "duration": 0.20659713958332304,
                    "durationTicks": 119,
                    "midi": 41,
                    "name": "F2",
                    "ticks": 109560,
                    "time": 190.20825725,
                    "velocity": 0.7559055118110236,
                },
                {
                    "duration": 0.20659713958335146,
                    "durationTicks": 119,
                    "midi": 52,
                    "name": "E3",
                    "ticks": 109680,
                    "time": 190.41659049999998,
                    "velocity": 0.7559055118110236,
                },
                {
                    "duration": 0.20659713958335146,
                    "durationTicks": 119,
                    "midi": 40,
                    "name": "E2",
                    "ticks": 109680,
                    "time": 190.41659049999998,
                    "velocity": 0.7559055118110236,
                },
                {
                    "duration": 0.20659713958335146,
                    "durationTicks": 119,
                    "midi": 50,
                    "name": "D3",
                    "ticks": 109800,
                    "time": 190.62492375,
                    "velocity": 0.7559055118110236,
                },
                {
                    "duration": 0.20659713958335146,
                    "durationTicks": 119,
                    "midi": 38,
                    "name": "D2",
                    "ticks": 109800,
                    "time": 190.62492375,
                    "velocity": 0.7559055118110236,
                },
                {
                    "duration": 0.8315968895833237,
                    "durationTicks": 479,
                    "midi": 49,
                    "name": "C#3",
                    "ticks": 109920,
                    "time": 190.833257,
                    "velocity": 0.7559055118110236,
                },
                {
                    "duration": 0.8315968895833237,
                    "durationTicks": 479,
                    "midi": 37,
                    "name": "C#2",
                    "ticks": 109920,
                    "time": 190.833257,
                    "velocity": 0.7559055118110236,
                },
                {
                    "duration": 0.41493038958336115,
                    "durationTicks": 239,
                    "midi": 48,
                    "name": "C3",
                    "ticks": 110400,
                    "time": 191.66658999999999,
                    "velocity": 0.7559055118110236,
                },
                {
                    "duration": 0.41493038958336115,
                    "durationTicks": 239,
                    "midi": 36,
                    "name": "C2",
                    "ticks": 110400,
                    "time": 191.66658999999999,
                    "velocity": 0.7559055118110236,
                },
                {
                    "duration": 0.4149303895833327,
                    "durationTicks": 239,
                    "midi": 65,
                    "name": "F4",
                    "ticks": 110640,
                    "time": 192.0832565,
                    "velocity": 0.7559055118110236,
                },
                {
                    "duration": 0.4149303895833327,
                    "durationTicks": 239,
                    "midi": 60,
                    "name": "C4",
                    "ticks": 110640,
                    "time": 192.0832565,
                    "velocity": 0.7559055118110236,
                },
                {
                    "duration": 0.4149303895833327,
                    "durationTicks": 239,
                    "midi": 57,
                    "name": "A3",
                    "ticks": 110640,
                    "time": 192.0832565,
                    "velocity": 0.7559055118110236,
                },
                {
                    "duration": 0.4149303895833327,
                    "durationTicks": 239,
                    "midi": 60,
                    "name": "C4",
                    "ticks": 110880,
                    "time": 192.499923,
                    "velocity": 0.7559055118110236,
                },
                {
                    "duration": 0.4149303895833327,
                    "durationTicks": 239,
                    "midi": 48,
                    "name": "C3",
                    "ticks": 110880,
                    "time": 192.499923,
                    "velocity": 0.7559055118110236,
                },
                {
                    "duration": 0.4149303895833327,
                    "durationTicks": 239,
                    "midi": 48,
                    "name": "C3",
                    "ticks": 111120,
                    "time": 192.9165895,
                    "velocity": 0.7559055118110236,
                },
                {
                    "duration": 0.4149303895833327,
                    "durationTicks": 239,
                    "midi": 36,
                    "name": "C2",
                    "ticks": 111120,
                    "time": 192.9165895,
                    "velocity": 0.7559055118110236,
                },
                {
                    "duration": 0.4149303895833327,
                    "durationTicks": 239,
                    "midi": 53,
                    "name": "F3",
                    "ticks": 111360,
                    "time": 193.333256,
                    "velocity": 0.7559055118110236,
                },
                {
                    "duration": 0.4149303895833327,
                    "durationTicks": 239,
                    "midi": 41,
                    "name": "F2",
                    "ticks": 111360,
                    "time": 193.333256,
                    "velocity": 0.7559055118110236,
                },
                {
                    "duration": 0.4149303895833327,
                    "durationTicks": 239,
                    "midi": 41,
                    "name": "F2",
                    "ticks": 111840,
                    "time": 194.166589,
                    "velocity": 0.7559055118110236,
                },
                {
                    "duration": 0.4149303895833327,
                    "durationTicks": 239,
                    "midi": 29,
                    "name": "F1",
                    "ticks": 111840,
                    "time": 194.166589,
                    "velocity": 0.7559055118110236,
                },
                {
                    "duration": 0.4149303895833327,
                    "durationTicks": 239,
                    "midi": 65,
                    "name": "F4",
                    "ticks": 112320,
                    "time": 194.999922,
                    "velocity": 0.7559055118110236,
                },
                {
                    "duration": 0.4149303895833327,
                    "durationTicks": 239,
                    "midi": 60,
                    "name": "C4",
                    "ticks": 112320,
                    "time": 194.999922,
                    "velocity": 0.7559055118110236,
                },
                {
                    "duration": 0.4149303895833327,
                    "durationTicks": 239,
                    "midi": 57,
                    "name": "A3",
                    "ticks": 112320,
                    "time": 194.999922,
                    "velocity": 0.7559055118110236,
                },
                {
                    "duration": 0.4149303895833327,
                    "durationTicks": 239,
                    "midi": 53,
                    "name": "F3",
                    "ticks": 112320,
                    "time": 194.999922,
                    "velocity": 0.7559055118110236,
                },
                {
                    "duration": 0.4149303895833327,
                    "durationTicks": 239,
                    "midi": 65,
                    "name": "F4",
                    "ticks": 112560,
                    "time": 195.4165885,
                    "velocity": 0.7559055118110236,
                },
                {
                    "duration": 0.4149303895833327,
                    "durationTicks": 239,
                    "midi": 60,
                    "name": "C4",
                    "ticks": 112560,
                    "time": 195.4165885,
                    "velocity": 0.7559055118110236,
                },
                {
                    "duration": 0.4149303895833327,
                    "durationTicks": 239,
                    "midi": 57,
                    "name": "A3",
                    "ticks": 112560,
                    "time": 195.4165885,
                    "velocity": 0.7559055118110236,
                },
                {
                    "duration": 0.4149303895833327,
                    "durationTicks": 239,
                    "midi": 53,
                    "name": "F3",
                    "ticks": 112560,
                    "time": 195.4165885,
                    "velocity": 0.7559055118110236,
                },
                {
                    "duration": 0.4149303895833327,
                    "durationTicks": 239,
                    "midi": 63,
                    "name": "D#4",
                    "ticks": 112800,
                    "time": 195.833255,
                    "velocity": 0.7559055118110236,
                },
                {
                    "duration": 0.4149303895833327,
                    "durationTicks": 239,
                    "midi": 60,
                    "name": "C4",
                    "ticks": 112800,
                    "time": 195.833255,
                    "velocity": 0.7559055118110236,
                },
                {
                    "duration": 0.4149303895833327,
                    "durationTicks": 239,
                    "midi": 57,
                    "name": "A3",
                    "ticks": 112800,
                    "time": 195.833255,
                    "velocity": 0.7559055118110236,
                },
                {
                    "duration": 0.4149303895833327,
                    "durationTicks": 239,
                    "midi": 54,
                    "name": "F#3",
                    "ticks": 112800,
                    "time": 195.833255,
                    "velocity": 0.7559055118110236,
                },
                {
                    "duration": 0.4149303895833327,
                    "durationTicks": 239,
                    "midi": 63,
                    "name": "D#4",
                    "ticks": 113040,
                    "time": 196.2499215,
                    "velocity": 0.7559055118110236,
                },
                {
                    "duration": 0.4149303895833327,
                    "durationTicks": 239,
                    "midi": 60,
                    "name": "C4",
                    "ticks": 113040,
                    "time": 196.2499215,
                    "velocity": 0.7559055118110236,
                },
                {
                    "duration": 0.4149303895833327,
                    "durationTicks": 239,
                    "midi": 57,
                    "name": "A3",
                    "ticks": 113040,
                    "time": 196.2499215,
                    "velocity": 0.7559055118110236,
                },
                {
                    "duration": 0.4149303895833327,
                    "durationTicks": 239,
                    "midi": 54,
                    "name": "F#3",
                    "ticks": 113040,
                    "time": 196.2499215,
                    "velocity": 0.7559055118110236,
                },
                {
                    "duration": 0.4149303895833327,
                    "durationTicks": 239,
                    "midi": 64,
                    "name": "E4",
                    "ticks": 113280,
                    "time": 196.666588,
                    "velocity": 0.7559055118110236,
                },
                {
                    "duration": 0.4149303895833327,
                    "durationTicks": 239,
                    "midi": 60,
                    "name": "C4",
                    "ticks": 113280,
                    "time": 196.666588,
                    "velocity": 0.7559055118110236,
                },
                {
                    "duration": 0.4149303895833327,
                    "durationTicks": 239,
                    "midi": 55,
                    "name": "G3",
                    "ticks": 113280,
                    "time": 196.666588,
                    "velocity": 0.7559055118110236,
                },
                {
                    "duration": 0.4149303895833327,
                    "durationTicks": 239,
                    "midi": 64,
                    "name": "E4",
                    "ticks": 113520,
                    "time": 197.0832545,
                    "velocity": 0.7559055118110236,
                },
                {
                    "duration": 0.4149303895833327,
                    "durationTicks": 239,
                    "midi": 60,
                    "name": "C4",
                    "ticks": 113520,
                    "time": 197.0832545,
                    "velocity": 0.7559055118110236,
                },
                {
                    "duration": 0.4149303895833327,
                    "durationTicks": 239,
                    "midi": 55,
                    "name": "G3",
                    "ticks": 113520,
                    "time": 197.0832545,
                    "velocity": 0.7559055118110236,
                },
                {
                    "duration": 0.4149303895833327,
                    "durationTicks": 239,
                    "midi": 64,
                    "name": "E4",
                    "ticks": 113760,
                    "time": 197.499921,
                    "velocity": 0.7559055118110236,
                },
                {
                    "duration": 0.4149303895833327,
                    "durationTicks": 239,
                    "midi": 60,
                    "name": "C4",
                    "ticks": 113760,
                    "time": 197.499921,
                    "velocity": 0.7559055118110236,
                },
                {
                    "duration": 0.4149303895833327,
                    "durationTicks": 239,
                    "midi": 55,
                    "name": "G3",
                    "ticks": 113760,
                    "time": 197.499921,
                    "velocity": 0.7559055118110236,
                },
                {
                    "duration": 0.4149303895833327,
                    "durationTicks": 239,
                    "midi": 64,
                    "name": "E4",
                    "ticks": 114000,
                    "time": 197.9165875,
                    "velocity": 0.7559055118110236,
                },
                {
                    "duration": 0.4149303895833327,
                    "durationTicks": 239,
                    "midi": 60,
                    "name": "C4",
                    "ticks": 114000,
                    "time": 197.9165875,
                    "velocity": 0.7559055118110236,
                },
                {
                    "duration": 0.4149303895833327,
                    "durationTicks": 239,
                    "midi": 55,
                    "name": "G3",
                    "ticks": 114000,
                    "time": 197.9165875,
                    "velocity": 0.7559055118110236,
                },
                {
                    "duration": 0.4149303895833327,
                    "durationTicks": 239,
                    "midi": 60,
                    "name": "C4",
                    "ticks": 114240,
                    "time": 198.333254,
                    "velocity": 0.7559055118110236,
                },
                {
                    "duration": 0.4149303895833327,
                    "durationTicks": 239,
                    "midi": 50,
                    "name": "D3",
                    "ticks": 114240,
                    "time": 198.333254,
                    "velocity": 0.7559055118110236,
                },
                {
                    "duration": 0.4149303895833327,
                    "durationTicks": 239,
                    "midi": 57,
                    "name": "A3",
                    "ticks": 114480,
                    "time": 198.7499205,
                    "velocity": 0.7559055118110236,
                },
                {
                    "duration": 0.4149303895833327,
                    "durationTicks": 239,
                    "midi": 50,
                    "name": "D3",
                    "ticks": 114480,
                    "time": 198.7499205,
                    "velocity": 0.7559055118110236,
                },
                {
                    "duration": 0.4149303895833327,
                    "durationTicks": 239,
                    "midi": 59,
                    "name": "B3",
                    "ticks": 114720,
                    "time": 199.166587,
                    "velocity": 0.7559055118110236,
                },
                {
                    "duration": 0.4149303895833327,
                    "durationTicks": 239,
                    "midi": 55,
                    "name": "G3",
                    "ticks": 114720,
                    "time": 199.166587,
                    "velocity": 0.7559055118110236,
                },
                {
                    "duration": 0.41493038958336115,
                    "durationTicks": 239,
                    "midi": 59,
                    "name": "B3",
                    "ticks": 114960,
                    "time": 199.58325349999998,
                    "velocity": 0.7559055118110236,
                },
                {
                    "duration": 0.41493038958336115,
                    "durationTicks": 239,
                    "midi": 55,
                    "name": "G3",
                    "ticks": 114960,
                    "time": 199.58325349999998,
                    "velocity": 0.7559055118110236,
                },
                {
                    "duration": 0.8315968895833237,
                    "durationTicks": 479,
                    "midi": 60,
                    "name": "C4",
                    "ticks": 115200,
                    "time": 199.99992,
                    "velocity": 0.7559055118110236,
                },
                {
                    "duration": 0.8315968895833237,
                    "durationTicks": 479,
                    "midi": 48,
                    "name": "C3",
                    "ticks": 115200,
                    "time": 199.99992,
                    "velocity": 0.7559055118110236,
                },
                {
                    "duration": 0.41493038958336115,
                    "durationTicks": 239,
                    "midi": 48,
                    "name": "C3",
                    "ticks": 115680,
                    "time": 200.83325299999998,
                    "velocity": 0.7559055118110236,
                },
                {
                    "duration": 0.41493038958336115,
                    "durationTicks": 239,
                    "midi": 36,
                    "name": "C2",
                    "ticks": 115680,
                    "time": 200.83325299999998,
                    "velocity": 0.7559055118110236,
                },
                {
                    "duration": 0.4149303895833327,
                    "durationTicks": 239,
                    "midi": 41,
                    "name": "F2",
                    "ticks": 116160,
                    "time": 201.666586,
                    "velocity": 0.7559055118110236,
                },
                {
                    "duration": 0.4149303895833327,
                    "durationTicks": 239,
                    "midi": 57,
                    "name": "A3",
                    "ticks": 116400,
                    "time": 202.0832525,
                    "velocity": 0.7559055118110236,
                },
                {
                    "duration": 0.4149303895833327,
                    "durationTicks": 239,
                    "midi": 53,
                    "name": "F3",
                    "ticks": 116400,
                    "time": 202.0832525,
                    "velocity": 0.7559055118110236,
                },
                {
                    "duration": 0.4149303895833327,
                    "durationTicks": 239,
                    "midi": 45,
                    "name": "A2",
                    "ticks": 116640,
                    "time": 202.499919,
                    "velocity": 0.7559055118110236,
                },
                {
                    "duration": 0.4149303895833327,
                    "durationTicks": 239,
                    "midi": 57,
                    "name": "A3",
                    "ticks": 116880,
                    "time": 202.9165855,
                    "velocity": 0.7559055118110236,
                },
                {
                    "duration": 0.4149303895833327,
                    "durationTicks": 239,
                    "midi": 53,
                    "name": "F3",
                    "ticks": 116880,
                    "time": 202.9165855,
                    "velocity": 0.7559055118110236,
                },
                {
                    "duration": 0.4149303895833327,
                    "durationTicks": 239,
                    "midi": 41,
                    "name": "F2",
                    "ticks": 117120,
                    "time": 203.333252,
                    "velocity": 0.7559055118110236,
                },
                {
                    "duration": 0.4149303895833327,
                    "durationTicks": 239,
                    "midi": 57,
                    "name": "A3",
                    "ticks": 117360,
                    "time": 203.7499185,
                    "velocity": 0.7559055118110236,
                },
                {
                    "duration": 0.4149303895833327,
                    "durationTicks": 239,
                    "midi": 53,
                    "name": "F3",
                    "ticks": 117360,
                    "time": 203.7499185,
                    "velocity": 0.7559055118110236,
                },
                {
                    "duration": 0.4149303895833327,
                    "durationTicks": 239,
                    "midi": 45,
                    "name": "A2",
                    "ticks": 117600,
                    "time": 204.166585,
                    "velocity": 0.7559055118110236,
                },
                {
                    "duration": 0.4149303895833327,
                    "durationTicks": 239,
                    "midi": 57,
                    "name": "A3",
                    "ticks": 117840,
                    "time": 204.5832515,
                    "velocity": 0.7559055118110236,
                },
                {
                    "duration": 0.4149303895833327,
                    "durationTicks": 239,
                    "midi": 53,
                    "name": "F3",
                    "ticks": 117840,
                    "time": 204.5832515,
                    "velocity": 0.7559055118110236,
                },
                {
                    "duration": 0.4149303895833327,
                    "durationTicks": 239,
                    "midi": 48,
                    "name": "C3",
                    "ticks": 118080,
                    "time": 204.999918,
                    "velocity": 0.7559055118110236,
                },
                {
                    "duration": 0.4149303895833327,
                    "durationTicks": 239,
                    "midi": 60,
                    "name": "C4",
                    "ticks": 118320,
                    "time": 205.4165845,
                    "velocity": 0.7559055118110236,
                },
                {
                    "duration": 0.4149303895833327,
                    "durationTicks": 239,
                    "midi": 55,
                    "name": "G3",
                    "ticks": 118320,
                    "time": 205.4165845,
                    "velocity": 0.7559055118110236,
                },
                {
                    "duration": 0.4149303895833327,
                    "durationTicks": 239,
                    "midi": 52,
                    "name": "E3",
                    "ticks": 118320,
                    "time": 205.4165845,
                    "velocity": 0.7559055118110236,
                },
                {
                    "duration": 0.4149303895833327,
                    "durationTicks": 239,
                    "midi": 43,
                    "name": "G2",
                    "ticks": 118560,
                    "time": 205.833251,
                    "velocity": 0.7559055118110236,
                },
                {
                    "duration": 0.4149303895833327,
                    "durationTicks": 239,
                    "midi": 60,
                    "name": "C4",
                    "ticks": 118800,
                    "time": 206.2499175,
                    "velocity": 0.7559055118110236,
                },
                {
                    "duration": 0.4149303895833327,
                    "durationTicks": 239,
                    "midi": 55,
                    "name": "G3",
                    "ticks": 118800,
                    "time": 206.2499175,
                    "velocity": 0.7559055118110236,
                },
                {
                    "duration": 0.4149303895833327,
                    "durationTicks": 239,
                    "midi": 52,
                    "name": "E3",
                    "ticks": 118800,
                    "time": 206.2499175,
                    "velocity": 0.7559055118110236,
                },
                {
                    "duration": 0.4149303895833327,
                    "durationTicks": 239,
                    "midi": 48,
                    "name": "C3",
                    "ticks": 119040,
                    "time": 206.666584,
                    "velocity": 0.7559055118110236,
                },
                {
                    "duration": 0.4149303895833327,
                    "durationTicks": 239,
                    "midi": 60,
                    "name": "C4",
                    "ticks": 119280,
                    "time": 207.0832505,
                    "velocity": 0.7559055118110236,
                },
                {
                    "duration": 0.4149303895833327,
                    "durationTicks": 239,
                    "midi": 55,
                    "name": "G3",
                    "ticks": 119280,
                    "time": 207.0832505,
                    "velocity": 0.7559055118110236,
                },
                {
                    "duration": 0.4149303895833327,
                    "durationTicks": 239,
                    "midi": 52,
                    "name": "E3",
                    "ticks": 119280,
                    "time": 207.0832505,
                    "velocity": 0.7559055118110236,
                },
                {
                    "duration": 0.4149303895833327,
                    "durationTicks": 239,
                    "midi": 43,
                    "name": "G2",
                    "ticks": 119520,
                    "time": 207.499917,
                    "velocity": 0.7559055118110236,
                },
                {
                    "duration": 0.4149303895833327,
                    "durationTicks": 239,
                    "midi": 60,
                    "name": "C4",
                    "ticks": 119760,
                    "time": 207.9165835,
                    "velocity": 0.7559055118110236,
                },
                {
                    "duration": 0.4149303895833327,
                    "durationTicks": 239,
                    "midi": 55,
                    "name": "G3",
                    "ticks": 119760,
                    "time": 207.9165835,
                    "velocity": 0.7559055118110236,
                },
                {
                    "duration": 0.4149303895833327,
                    "durationTicks": 239,
                    "midi": 52,
                    "name": "E3",
                    "ticks": 119760,
                    "time": 207.9165835,
                    "velocity": 0.7559055118110236,
                },
                {
                    "duration": 0.4149303895833327,
                    "durationTicks": 239,
                    "midi": 43,
                    "name": "G2",
                    "ticks": 120000,
                    "time": 208.33325,
                    "velocity": 0.7559055118110236,
                },
                {
                    "duration": 0.41493038958336115,
                    "durationTicks": 239,
                    "midi": 59,
                    "name": "B3",
                    "ticks": 120240,
                    "time": 208.74991649999998,
                    "velocity": 0.7559055118110236,
                },
                {
                    "duration": 0.41493038958336115,
                    "durationTicks": 239,
                    "midi": 55,
                    "name": "G3",
                    "ticks": 120240,
                    "time": 208.74991649999998,
                    "velocity": 0.7559055118110236,
                },
                {
                    "duration": 0.41493038958336115,
                    "durationTicks": 239,
                    "midi": 53,
                    "name": "F3",
                    "ticks": 120240,
                    "time": 208.74991649999998,
                    "velocity": 0.7559055118110236,
                },
                {
                    "duration": 0.4149303895833327,
                    "durationTicks": 239,
                    "midi": 47,
                    "name": "B2",
                    "ticks": 120480,
                    "time": 209.166583,
                    "velocity": 0.7559055118110236,
                },
                {
                    "duration": 0.4149303895833327,
                    "durationTicks": 239,
                    "midi": 59,
                    "name": "B3",
                    "ticks": 120720,
                    "time": 209.5832495,
                    "velocity": 0.7559055118110236,
                },
                {
                    "duration": 0.4149303895833327,
                    "durationTicks": 239,
                    "midi": 55,
                    "name": "G3",
                    "ticks": 120720,
                    "time": 209.5832495,
                    "velocity": 0.7559055118110236,
                },
                {
                    "duration": 0.4149303895833327,
                    "durationTicks": 239,
                    "midi": 53,
                    "name": "F3",
                    "ticks": 120720,
                    "time": 209.5832495,
                    "velocity": 0.7559055118110236,
                },
                {
                    "duration": 0.41493038958336115,
                    "durationTicks": 239,
                    "midi": 43,
                    "name": "G2",
                    "ticks": 120960,
                    "time": 209.99991599999998,
                    "velocity": 0.7559055118110236,
                },
                {
                    "duration": 0.4149303895833327,
                    "durationTicks": 239,
                    "midi": 59,
                    "name": "B3",
                    "ticks": 121200,
                    "time": 210.4165825,
                    "velocity": 0.7559055118110236,
                },
                {
                    "duration": 0.4149303895833327,
                    "durationTicks": 239,
                    "midi": 55,
                    "name": "G3",
                    "ticks": 121200,
                    "time": 210.4165825,
                    "velocity": 0.7559055118110236,
                },
                {
                    "duration": 0.4149303895833327,
                    "durationTicks": 239,
                    "midi": 53,
                    "name": "F3",
                    "ticks": 121200,
                    "time": 210.4165825,
                    "velocity": 0.7559055118110236,
                },
                {
                    "duration": 0.4149303895833327,
                    "durationTicks": 239,
                    "midi": 50,
                    "name": "D3",
                    "ticks": 121440,
                    "time": 210.833249,
                    "velocity": 0.7559055118110236,
                },
                {
                    "duration": 0.4149303895833327,
                    "durationTicks": 239,
                    "midi": 59,
                    "name": "B3",
                    "ticks": 121680,
                    "time": 211.2499155,
                    "velocity": 0.7559055118110236,
                },
                {
                    "duration": 0.4149303895833327,
                    "durationTicks": 239,
                    "midi": 55,
                    "name": "G3",
                    "ticks": 121680,
                    "time": 211.2499155,
                    "velocity": 0.7559055118110236,
                },
                {
                    "duration": 0.4149303895833327,
                    "durationTicks": 239,
                    "midi": 53,
                    "name": "F3",
                    "ticks": 121680,
                    "time": 211.2499155,
                    "velocity": 0.7559055118110236,
                },
                {
                    "duration": 0.4149303895833327,
                    "durationTicks": 239,
                    "midi": 60,
                    "name": "C4",
                    "ticks": 121920,
                    "time": 211.666582,
                    "velocity": 0.7559055118110236,
                },
                {
                    "duration": 0.4149303895833327,
                    "durationTicks": 239,
                    "midi": 53,
                    "name": "F3",
                    "ticks": 121920,
                    "time": 211.666582,
                    "velocity": 0.7559055118110236,
                },
                {
                    "duration": 0.4149303895833327,
                    "durationTicks": 239,
                    "midi": 50,
                    "name": "D3",
                    "ticks": 121920,
                    "time": 211.666582,
                    "velocity": 0.7559055118110236,
                },
                {
                    "duration": 0.8315968895833237,
                    "durationTicks": 479,
                    "midi": 60,
                    "name": "C4",
                    "ticks": 122160,
                    "time": 212.0832485,
                    "velocity": 0.7559055118110236,
                },
                {
                    "duration": 0.8315968895833237,
                    "durationTicks": 479,
                    "midi": 53,
                    "name": "F3",
                    "ticks": 122160,
                    "time": 212.0832485,
                    "velocity": 0.7559055118110236,
                },
                {
                    "duration": 0.8315968895833237,
                    "durationTicks": 479,
                    "midi": 50,
                    "name": "D3",
                    "ticks": 122160,
                    "time": 212.0832485,
                    "velocity": 0.7559055118110236,
                },
                {
                    "duration": 0.4149303895833327,
                    "durationTicks": 239,
                    "midi": 60,
                    "name": "C4",
                    "ticks": 122640,
                    "time": 212.9165815,
                    "velocity": 0.7559055118110236,
                },
                {
                    "duration": 0.4149303895833327,
                    "durationTicks": 239,
                    "midi": 53,
                    "name": "F3",
                    "ticks": 122640,
                    "time": 212.9165815,
                    "velocity": 0.7559055118110236,
                },
                {
                    "duration": 0.4149303895833327,
                    "durationTicks": 239,
                    "midi": 50,
                    "name": "D3",
                    "ticks": 122640,
                    "time": 212.9165815,
                    "velocity": 0.7559055118110236,
                },
                {
                    "duration": 0.4149303895833043,
                    "durationTicks": 239,
                    "midi": 60,
                    "name": "C4",
                    "ticks": 122880,
                    "time": 213.333248,
                    "velocity": 0.7559055118110236,
                },
                {
                    "duration": 0.4149303895833043,
                    "durationTicks": 239,
                    "midi": 55,
                    "name": "G3",
                    "ticks": 122880,
                    "time": 213.333248,
                    "velocity": 0.7559055118110236,
                },
                {
                    "duration": 0.4149303895833043,
                    "durationTicks": 239,
                    "midi": 52,
                    "name": "E3",
                    "ticks": 122880,
                    "time": 213.333248,
                    "velocity": 0.7559055118110236,
                },
                {
                    "duration": 0.4149303895833327,
                    "durationTicks": 239,
                    "midi": 41,
                    "name": "F2",
                    "ticks": 123840,
                    "time": 214.999914,
                    "velocity": 0.7559055118110236,
                },
                {
                    "duration": 0.4149303895833043,
                    "durationTicks": 239,
                    "midi": 57,
                    "name": "A3",
                    "ticks": 124080,
                    "time": 215.4165805,
                    "velocity": 0.7559055118110236,
                },
                {
                    "duration": 0.4149303895833043,
                    "durationTicks": 239,
                    "midi": 53,
                    "name": "F3",
                    "ticks": 124080,
                    "time": 215.4165805,
                    "velocity": 0.7559055118110236,
                },
                {
                    "duration": 0.4149303895833043,
                    "durationTicks": 239,
                    "midi": 45,
                    "name": "A2",
                    "ticks": 124320,
                    "time": 215.833247,
                    "velocity": 0.7559055118110236,
                },
                {
                    "duration": 0.4149303895833043,
                    "durationTicks": 239,
                    "midi": 57,
                    "name": "A3",
                    "ticks": 124560,
                    "time": 216.2499135,
                    "velocity": 0.7559055118110236,
                },
                {
                    "duration": 0.4149303895833043,
                    "durationTicks": 239,
                    "midi": 53,
                    "name": "F3",
                    "ticks": 124560,
                    "time": 216.2499135,
                    "velocity": 0.7559055118110236,
                },
                {
                    "duration": 0.4149303895833043,
                    "durationTicks": 239,
                    "midi": 41,
                    "name": "F2",
                    "ticks": 124800,
                    "time": 216.66658,
                    "velocity": 0.7559055118110236,
                },
                {
                    "duration": 0.4149303895833043,
                    "durationTicks": 239,
                    "midi": 57,
                    "name": "A3",
                    "ticks": 125040,
                    "time": 217.0832465,
                    "velocity": 0.7559055118110236,
                },
                {
                    "duration": 0.4149303895833043,
                    "durationTicks": 239,
                    "midi": 53,
                    "name": "F3",
                    "ticks": 125040,
                    "time": 217.0832465,
                    "velocity": 0.7559055118110236,
                },
                {
                    "duration": 0.4149303895833043,
                    "durationTicks": 239,
                    "midi": 45,
                    "name": "A2",
                    "ticks": 125280,
                    "time": 217.499913,
                    "velocity": 0.7559055118110236,
                },
                {
                    "duration": 0.4149303895833043,
                    "durationTicks": 239,
                    "midi": 57,
                    "name": "A3",
                    "ticks": 125520,
                    "time": 217.9165795,
                    "velocity": 0.7559055118110236,
                },
                {
                    "duration": 0.4149303895833043,
                    "durationTicks": 239,
                    "midi": 53,
                    "name": "F3",
                    "ticks": 125520,
                    "time": 217.9165795,
                    "velocity": 0.7559055118110236,
                },
                {
                    "duration": 0.4149303895833043,
                    "durationTicks": 239,
                    "midi": 48,
                    "name": "C3",
                    "ticks": 125760,
                    "time": 218.333246,
                    "velocity": 0.7559055118110236,
                },
                {
                    "duration": 0.4149303895833043,
                    "durationTicks": 239,
                    "midi": 60,
                    "name": "C4",
                    "ticks": 126000,
                    "time": 218.7499125,
                    "velocity": 0.7559055118110236,
                },
                {
                    "duration": 0.4149303895833043,
                    "durationTicks": 239,
                    "midi": 55,
                    "name": "G3",
                    "ticks": 126000,
                    "time": 218.7499125,
                    "velocity": 0.7559055118110236,
                },
                {
                    "duration": 0.4149303895833043,
                    "durationTicks": 239,
                    "midi": 52,
                    "name": "E3",
                    "ticks": 126000,
                    "time": 218.7499125,
                    "velocity": 0.7559055118110236,
                },
                {
                    "duration": 0.4149303895833327,
                    "durationTicks": 239,
                    "midi": 43,
                    "name": "G2",
                    "ticks": 126240,
                    "time": 219.16657899999998,
                    "velocity": 0.7559055118110236,
                },
                {
                    "duration": 0.4149303895833043,
                    "durationTicks": 239,
                    "midi": 60,
                    "name": "C4",
                    "ticks": 126480,
                    "time": 219.5832455,
                    "velocity": 0.7559055118110236,
                },
                {
                    "duration": 0.4149303895833043,
                    "durationTicks": 239,
                    "midi": 55,
                    "name": "G3",
                    "ticks": 126480,
                    "time": 219.5832455,
                    "velocity": 0.7559055118110236,
                },
                {
                    "duration": 0.4149303895833043,
                    "durationTicks": 239,
                    "midi": 52,
                    "name": "E3",
                    "ticks": 126480,
                    "time": 219.5832455,
                    "velocity": 0.7559055118110236,
                },
                {
                    "duration": 0.4149303895833043,
                    "durationTicks": 239,
                    "midi": 48,
                    "name": "C3",
                    "ticks": 126720,
                    "time": 219.999912,
                    "velocity": 0.7559055118110236,
                },
                {
                    "duration": 0.4149303895833327,
                    "durationTicks": 239,
                    "midi": 60,
                    "name": "C4",
                    "ticks": 126960,
                    "time": 220.41657849999999,
                    "velocity": 0.7559055118110236,
                },
                {
                    "duration": 0.4149303895833327,
                    "durationTicks": 239,
                    "midi": 55,
                    "name": "G3",
                    "ticks": 126960,
                    "time": 220.41657849999999,
                    "velocity": 0.7559055118110236,
                },
                {
                    "duration": 0.4149303895833327,
                    "durationTicks": 239,
                    "midi": 52,
                    "name": "E3",
                    "ticks": 126960,
                    "time": 220.41657849999999,
                    "velocity": 0.7559055118110236,
                },
                {
                    "duration": 0.4149303895833043,
                    "durationTicks": 239,
                    "midi": 43,
                    "name": "G2",
                    "ticks": 127200,
                    "time": 220.833245,
                    "velocity": 0.7559055118110236,
                },
                {
                    "duration": 0.4149303895833043,
                    "durationTicks": 239,
                    "midi": 60,
                    "name": "C4",
                    "ticks": 127440,
                    "time": 221.2499115,
                    "velocity": 0.7559055118110236,
                },
                {
                    "duration": 0.4149303895833043,
                    "durationTicks": 239,
                    "midi": 55,
                    "name": "G3",
                    "ticks": 127440,
                    "time": 221.2499115,
                    "velocity": 0.7559055118110236,
                },
                {
                    "duration": 0.4149303895833043,
                    "durationTicks": 239,
                    "midi": 52,
                    "name": "E3",
                    "ticks": 127440,
                    "time": 221.2499115,
                    "velocity": 0.7559055118110236,
                },
                {
                    "duration": 0.4149303895833327,
                    "durationTicks": 239,
                    "midi": 53,
                    "name": "F3",
                    "ticks": 127680,
                    "time": 221.666578,
                    "velocity": 0.7559055118110236,
                },
                {
                    "duration": 0.4149303895833327,
                    "durationTicks": 239,
                    "midi": 41,
                    "name": "F2",
                    "ticks": 127680,
                    "time": 221.666578,
                    "velocity": 0.7559055118110236,
                },
                {
                    "duration": 0.4149303895833043,
                    "durationTicks": 239,
                    "midi": 50,
                    "name": "D3",
                    "ticks": 127920,
                    "time": 222.0832445,
                    "velocity": 0.7559055118110236,
                },
                {
                    "duration": 0.4149303895833043,
                    "durationTicks": 239,
                    "midi": 38,
                    "name": "D2",
                    "ticks": 127920,
                    "time": 222.0832445,
                    "velocity": 0.7559055118110236,
                },
                {
                    "duration": 0.4149303895833043,
                    "durationTicks": 239,
                    "midi": 52,
                    "name": "E3",
                    "ticks": 128160,
                    "time": 222.499911,
                    "velocity": 0.7559055118110236,
                },
                {
                    "duration": 0.4149303895833043,
                    "durationTicks": 239,
                    "midi": 40,
                    "name": "E2",
                    "ticks": 128160,
                    "time": 222.499911,
                    "velocity": 0.7559055118110236,
                },
                {
                    "duration": 0.4149303895833327,
                    "durationTicks": 239,
                    "midi": 53,
                    "name": "F3",
                    "ticks": 128400,
                    "time": 222.9165775,
                    "velocity": 0.7559055118110236,
                },
                {
                    "duration": 0.4149303895833327,
                    "durationTicks": 239,
                    "midi": 41,
                    "name": "F2",
                    "ticks": 128400,
                    "time": 222.9165775,
                    "velocity": 0.7559055118110236,
                },
                {
                    "duration": 0.4149303895833043,
                    "durationTicks": 239,
                    "midi": 55,
                    "name": "G3",
                    "ticks": 128640,
                    "time": 223.333244,
                    "velocity": 0.7559055118110236,
                },
                {
                    "duration": 0.4149303895833043,
                    "durationTicks": 239,
                    "midi": 43,
                    "name": "G2",
                    "ticks": 128640,
                    "time": 223.333244,
                    "velocity": 0.7559055118110236,
                },
                {
                    "duration": 0.4149303895833043,
                    "durationTicks": 239,
                    "midi": 64,
                    "name": "E4",
                    "ticks": 128880,
                    "time": 223.7499105,
                    "velocity": 0.7559055118110236,
                },
                {
                    "duration": 0.4149303895833043,
                    "durationTicks": 239,
                    "midi": 60,
                    "name": "C4",
                    "ticks": 128880,
                    "time": 223.7499105,
                    "velocity": 0.7559055118110236,
                },
                {
                    "duration": 0.4149303895833043,
                    "durationTicks": 239,
                    "midi": 55,
                    "name": "G3",
                    "ticks": 128880,
                    "time": 223.7499105,
                    "velocity": 0.7559055118110236,
                },
                {
                    "duration": 0.4149303895833327,
                    "durationTicks": 239,
                    "midi": 63,
                    "name": "D#4",
                    "ticks": 129120,
                    "time": 224.166577,
                    "velocity": 0.7559055118110236,
                },
                {
                    "duration": 0.4149303895833327,
                    "durationTicks": 239,
                    "midi": 60,
                    "name": "C4",
                    "ticks": 129120,
                    "time": 224.166577,
                    "velocity": 0.7559055118110236,
                },
                {
                    "duration": 0.4149303895833327,
                    "durationTicks": 239,
                    "midi": 54,
                    "name": "F#3",
                    "ticks": 129120,
                    "time": 224.166577,
                    "velocity": 0.7559055118110236,
                },
                {
                    "duration": 0.4149303895833043,
                    "durationTicks": 239,
                    "midi": 64,
                    "name": "E4",
                    "ticks": 129360,
                    "time": 224.5832435,
                    "velocity": 0.7559055118110236,
                },
                {
                    "duration": 0.4149303895833043,
                    "durationTicks": 239,
                    "midi": 60,
                    "name": "C4",
                    "ticks": 129360,
                    "time": 224.5832435,
                    "velocity": 0.7559055118110236,
                },
                {
                    "duration": 0.4149303895833043,
                    "durationTicks": 239,
                    "midi": 55,
                    "name": "G3",
                    "ticks": 129360,
                    "time": 224.5832435,
                    "velocity": 0.7559055118110236,
                },
                {
                    "duration": 0.4149303895833043,
                    "durationTicks": 239,
                    "midi": 57,
                    "name": "A3",
                    "ticks": 129600,
                    "time": 224.99991,
                    "velocity": 0.7559055118110236,
                },
                {
                    "duration": 0.4149303895833043,
                    "durationTicks": 239,
                    "midi": 45,
                    "name": "A2",
                    "ticks": 129600,
                    "time": 224.99991,
                    "velocity": 0.7559055118110236,
                },
                {
                    "duration": 0.4149303895833043,
                    "durationTicks": 239,
                    "midi": 50,
                    "name": "D3",
                    "ticks": 129840,
                    "time": 225.4165765,
                    "velocity": 0.7559055118110236,
                },
                {
                    "duration": 0.4149303895833043,
                    "durationTicks": 239,
                    "midi": 38,
                    "name": "D2",
                    "ticks": 129840,
                    "time": 225.4165765,
                    "velocity": 0.7559055118110236,
                },
                {
                    "duration": 0.4149303895833043,
                    "durationTicks": 239,
                    "midi": 55,
                    "name": "G3",
                    "ticks": 130080,
                    "time": 225.833243,
                    "velocity": 0.7559055118110236,
                },
                {
                    "duration": 0.4149303895833043,
                    "durationTicks": 239,
                    "midi": 43,
                    "name": "G2",
                    "ticks": 130080,
                    "time": 225.833243,
                    "velocity": 0.7559055118110236,
                },
                {
                    "duration": 0.4149303895833043,
                    "durationTicks": 239,
                    "midi": 59,
                    "name": "B3",
                    "ticks": 130320,
                    "time": 226.2499095,
                    "velocity": 0.7559055118110236,
                },
                {
                    "duration": 0.4149303895833043,
                    "durationTicks": 239,
                    "midi": 47,
                    "name": "B2",
                    "ticks": 130320,
                    "time": 226.2499095,
                    "velocity": 0.7559055118110236,
                },
                {
                    "duration": 0.4149303895833043,
                    "durationTicks": 239,
                    "midi": 60,
                    "name": "C4",
                    "ticks": 130560,
                    "time": 226.666576,
                    "velocity": 0.7559055118110236,
                },
                {
                    "duration": 0.4149303895833043,
                    "durationTicks": 239,
                    "midi": 48,
                    "name": "C3",
                    "ticks": 130560,
                    "time": 226.666576,
                    "velocity": 0.7559055118110236,
                },
                {
                    "duration": 0.4149303895833327,
                    "durationTicks": 239,
                    "midi": 41,
                    "name": "F2",
                    "ticks": 131520,
                    "time": 228.33324199999998,
                    "velocity": 0.7559055118110236,
                },
                {
                    "duration": 0.4149303895833043,
                    "durationTicks": 239,
                    "midi": 57,
                    "name": "A3",
                    "ticks": 131760,
                    "time": 228.7499085,
                    "velocity": 0.7559055118110236,
                },
                {
                    "duration": 0.4149303895833043,
                    "durationTicks": 239,
                    "midi": 53,
                    "name": "F3",
                    "ticks": 131760,
                    "time": 228.7499085,
                    "velocity": 0.7559055118110236,
                },
                {
                    "duration": 0.4149303895833043,
                    "durationTicks": 239,
                    "midi": 45,
                    "name": "A2",
                    "ticks": 132000,
                    "time": 229.166575,
                    "velocity": 0.7559055118110236,
                },
                {
                    "duration": 0.4149303895833327,
                    "durationTicks": 239,
                    "midi": 57,
                    "name": "A3",
                    "ticks": 132240,
                    "time": 229.58324149999999,
                    "velocity": 0.7559055118110236,
                },
                {
                    "duration": 0.4149303895833327,
                    "durationTicks": 239,
                    "midi": 53,
                    "name": "F3",
                    "ticks": 132240,
                    "time": 229.58324149999999,
                    "velocity": 0.7559055118110236,
                },
                {
                    "duration": 0.4149303895833043,
                    "durationTicks": 239,
                    "midi": 41,
                    "name": "F2",
                    "ticks": 132480,
                    "time": 229.999908,
                    "velocity": 0.7559055118110236,
                },
                {
                    "duration": 0.4149303895833043,
                    "durationTicks": 239,
                    "midi": 57,
                    "name": "A3",
                    "ticks": 132720,
                    "time": 230.4165745,
                    "velocity": 0.7559055118110236,
                },
                {
                    "duration": 0.4149303895833043,
                    "durationTicks": 239,
                    "midi": 53,
                    "name": "F3",
                    "ticks": 132720,
                    "time": 230.4165745,
                    "velocity": 0.7559055118110236,
                },
                {
                    "duration": 0.4149303895833327,
                    "durationTicks": 239,
                    "midi": 45,
                    "name": "A2",
                    "ticks": 132960,
                    "time": 230.833241,
                    "velocity": 0.7559055118110236,
                },
                {
                    "duration": 0.4149303895833043,
                    "durationTicks": 239,
                    "midi": 57,
                    "name": "A3",
                    "ticks": 133200,
                    "time": 231.2499075,
                    "velocity": 0.7559055118110236,
                },
                {
                    "duration": 0.4149303895833043,
                    "durationTicks": 239,
                    "midi": 53,
                    "name": "F3",
                    "ticks": 133200,
                    "time": 231.2499075,
                    "velocity": 0.7559055118110236,
                },
                {
                    "duration": 0.4149303895833043,
                    "durationTicks": 239,
                    "midi": 48,
                    "name": "C3",
                    "ticks": 133440,
                    "time": 231.666574,
                    "velocity": 0.7559055118110236,
                },
                {
                    "duration": 0.4149303895833327,
                    "durationTicks": 239,
                    "midi": 60,
                    "name": "C4",
                    "ticks": 133680,
                    "time": 232.0832405,
                    "velocity": 0.7559055118110236,
                },
                {
                    "duration": 0.4149303895833327,
                    "durationTicks": 239,
                    "midi": 55,
                    "name": "G3",
                    "ticks": 133680,
                    "time": 232.0832405,
                    "velocity": 0.7559055118110236,
                },
                {
                    "duration": 0.4149303895833327,
                    "durationTicks": 239,
                    "midi": 52,
                    "name": "E3",
                    "ticks": 133680,
                    "time": 232.0832405,
                    "velocity": 0.7559055118110236,
                },
                {
                    "duration": 0.4149303895833043,
                    "durationTicks": 239,
                    "midi": 43,
                    "name": "G2",
                    "ticks": 133920,
                    "time": 232.499907,
                    "velocity": 0.7559055118110236,
                },
                {
                    "duration": 0.4149303895833043,
                    "durationTicks": 239,
                    "midi": 60,
                    "name": "C4",
                    "ticks": 134160,
                    "time": 232.9165735,
                    "velocity": 0.7559055118110236,
                },
                {
                    "duration": 0.4149303895833043,
                    "durationTicks": 239,
                    "midi": 55,
                    "name": "G3",
                    "ticks": 134160,
                    "time": 232.9165735,
                    "velocity": 0.7559055118110236,
                },
                {
                    "duration": 0.4149303895833043,
                    "durationTicks": 239,
                    "midi": 52,
                    "name": "E3",
                    "ticks": 134160,
                    "time": 232.9165735,
                    "velocity": 0.7559055118110236,
                },
                {
                    "duration": 0.4149303895833327,
                    "durationTicks": 239,
                    "midi": 48,
                    "name": "C3",
                    "ticks": 134400,
                    "time": 233.33324,
                    "velocity": 0.7559055118110236,
                },
                {
                    "duration": 0.4149303895833043,
                    "durationTicks": 239,
                    "midi": 60,
                    "name": "C4",
                    "ticks": 134640,
                    "time": 233.7499065,
                    "velocity": 0.7559055118110236,
                },
                {
                    "duration": 0.4149303895833043,
                    "durationTicks": 239,
                    "midi": 55,
                    "name": "G3",
                    "ticks": 134640,
                    "time": 233.7499065,
                    "velocity": 0.7559055118110236,
                },
                {
                    "duration": 0.4149303895833043,
                    "durationTicks": 239,
                    "midi": 52,
                    "name": "E3",
                    "ticks": 134640,
                    "time": 233.7499065,
                    "velocity": 0.7559055118110236,
                },
                {
                    "duration": 0.4149303895833043,
                    "durationTicks": 239,
                    "midi": 43,
                    "name": "G2",
                    "ticks": 134880,
                    "time": 234.166573,
                    "velocity": 0.7559055118110236,
                },
                {
                    "duration": 0.4149303895833043,
                    "durationTicks": 239,
                    "midi": 60,
                    "name": "C4",
                    "ticks": 135120,
                    "time": 234.5832395,
                    "velocity": 0.7559055118110236,
                },
                {
                    "duration": 0.4149303895833043,
                    "durationTicks": 239,
                    "midi": 55,
                    "name": "G3",
                    "ticks": 135120,
                    "time": 234.5832395,
                    "velocity": 0.7559055118110236,
                },
                {
                    "duration": 0.4149303895833043,
                    "durationTicks": 239,
                    "midi": 52,
                    "name": "E3",
                    "ticks": 135120,
                    "time": 234.5832395,
                    "velocity": 0.7559055118110236,
                },
                {
                    "duration": 0.4149303895833043,
                    "durationTicks": 239,
                    "midi": 43,
                    "name": "G2",
                    "ticks": 135360,
                    "time": 234.999906,
                    "velocity": 0.7559055118110236,
                },
                {
                    "duration": 0.4149303895833043,
                    "durationTicks": 239,
                    "midi": 59,
                    "name": "B3",
                    "ticks": 135600,
                    "time": 235.4165725,
                    "velocity": 0.7559055118110236,
                },
                {
                    "duration": 0.4149303895833043,
                    "durationTicks": 239,
                    "midi": 55,
                    "name": "G3",
                    "ticks": 135600,
                    "time": 235.4165725,
                    "velocity": 0.7559055118110236,
                },
                {
                    "duration": 0.4149303895833043,
                    "durationTicks": 239,
                    "midi": 53,
                    "name": "F3",
                    "ticks": 135600,
                    "time": 235.4165725,
                    "velocity": 0.7559055118110236,
                },
                {
                    "duration": 0.4149303895833043,
                    "durationTicks": 239,
                    "midi": 47,
                    "name": "B2",
                    "ticks": 135840,
                    "time": 235.833239,
                    "velocity": 0.7559055118110236,
                },
                {
                    "duration": 0.4149303895833043,
                    "durationTicks": 239,
                    "midi": 59,
                    "name": "B3",
                    "ticks": 136080,
                    "time": 236.2499055,
                    "velocity": 0.7559055118110236,
                },
                {
                    "duration": 0.4149303895833043,
                    "durationTicks": 239,
                    "midi": 55,
                    "name": "G3",
                    "ticks": 136080,
                    "time": 236.2499055,
                    "velocity": 0.7559055118110236,
                },
                {
                    "duration": 0.4149303895833043,
                    "durationTicks": 239,
                    "midi": 53,
                    "name": "F3",
                    "ticks": 136080,
                    "time": 236.2499055,
                    "velocity": 0.7559055118110236,
                },
                {
                    "duration": 0.4149303895833043,
                    "durationTicks": 239,
                    "midi": 43,
                    "name": "G2",
                    "ticks": 136320,
                    "time": 236.666572,
                    "velocity": 0.7559055118110236,
                },
                {
                    "duration": 0.4149303895833043,
                    "durationTicks": 239,
                    "midi": 59,
                    "name": "B3",
                    "ticks": 136560,
                    "time": 237.0832385,
                    "velocity": 0.7559055118110236,
                },
                {
                    "duration": 0.4149303895833043,
                    "durationTicks": 239,
                    "midi": 55,
                    "name": "G3",
                    "ticks": 136560,
                    "time": 237.0832385,
                    "velocity": 0.7559055118110236,
                },
                {
                    "duration": 0.4149303895833043,
                    "durationTicks": 239,
                    "midi": 53,
                    "name": "F3",
                    "ticks": 136560,
                    "time": 237.0832385,
                    "velocity": 0.7559055118110236,
                },
                {
                    "duration": 0.4149303895833327,
                    "durationTicks": 239,
                    "midi": 50,
                    "name": "D3",
                    "ticks": 136800,
                    "time": 237.49990499999998,
                    "velocity": 0.7559055118110236,
                },
                {
                    "duration": 0.4149303895833043,
                    "durationTicks": 239,
                    "midi": 59,
                    "name": "B3",
                    "ticks": 137040,
                    "time": 237.9165715,
                    "velocity": 0.7559055118110236,
                },
                {
                    "duration": 0.4149303895833043,
                    "durationTicks": 239,
                    "midi": 55,
                    "name": "G3",
                    "ticks": 137040,
                    "time": 237.9165715,
                    "velocity": 0.7559055118110236,
                },
                {
                    "duration": 0.4149303895833043,
                    "durationTicks": 239,
                    "midi": 53,
                    "name": "F3",
                    "ticks": 137040,
                    "time": 237.9165715,
                    "velocity": 0.7559055118110236,
                },
                {
                    "duration": 0.4149303895833043,
                    "durationTicks": 239,
                    "midi": 60,
                    "name": "C4",
                    "ticks": 137280,
                    "time": 238.333238,
                    "velocity": 0.7559055118110236,
                },
                {
                    "duration": 0.4149303895833043,
                    "durationTicks": 239,
                    "midi": 53,
                    "name": "F3",
                    "ticks": 137280,
                    "time": 238.333238,
                    "velocity": 0.7559055118110236,
                },
                {
                    "duration": 0.4149303895833043,
                    "durationTicks": 239,
                    "midi": 50,
                    "name": "D3",
                    "ticks": 137280,
                    "time": 238.333238,
                    "velocity": 0.7559055118110236,
                },
                {
                    "duration": 0.8315968895833237,
                    "durationTicks": 479,
                    "midi": 60,
                    "name": "C4",
                    "ticks": 137520,
                    "time": 238.74990449999999,
                    "velocity": 0.7559055118110236,
                },
                {
                    "duration": 0.8315968895833237,
                    "durationTicks": 479,
                    "midi": 53,
                    "name": "F3",
                    "ticks": 137520,
                    "time": 238.74990449999999,
                    "velocity": 0.7559055118110236,
                },
                {
                    "duration": 0.8315968895833237,
                    "durationTicks": 479,
                    "midi": 50,
                    "name": "D3",
                    "ticks": 137520,
                    "time": 238.74990449999999,
                    "velocity": 0.7559055118110236,
                },
                {
                    "duration": 0.4149303895833043,
                    "durationTicks": 239,
                    "midi": 60,
                    "name": "C4",
                    "ticks": 138000,
                    "time": 239.5832375,
                    "velocity": 0.7559055118110236,
                },
                {
                    "duration": 0.4149303895833043,
                    "durationTicks": 239,
                    "midi": 53,
                    "name": "F3",
                    "ticks": 138000,
                    "time": 239.5832375,
                    "velocity": 0.7559055118110236,
                },
                {
                    "duration": 0.4149303895833043,
                    "durationTicks": 239,
                    "midi": 50,
                    "name": "D3",
                    "ticks": 138000,
                    "time": 239.5832375,
                    "velocity": 0.7559055118110236,
                },
                {
                    "duration": 0.4149303895833327,
                    "durationTicks": 239,
                    "midi": 60,
                    "name": "C4",
                    "ticks": 138240,
                    "time": 239.999904,
                    "velocity": 0.7559055118110236,
                },
                {
                    "duration": 0.4149303895833327,
                    "durationTicks": 239,
                    "midi": 55,
                    "name": "G3",
                    "ticks": 138240,
                    "time": 239.999904,
                    "velocity": 0.7559055118110236,
                },
                {
                    "duration": 0.4149303895833327,
                    "durationTicks": 239,
                    "midi": 52,
                    "name": "E3",
                    "ticks": 138240,
                    "time": 239.999904,
                    "velocity": 0.7559055118110236,
                },
                {
                    "duration": 0.4149303895833043,
                    "durationTicks": 239,
                    "midi": 41,
                    "name": "F2",
                    "ticks": 139200,
                    "time": 241.66657,
                    "velocity": 0.7559055118110236,
                },
                {
                    "duration": 0.4149303895833043,
                    "durationTicks": 239,
                    "midi": 57,
                    "name": "A3",
                    "ticks": 139440,
                    "time": 242.0832365,
                    "velocity": 0.7559055118110236,
                },
                {
                    "duration": 0.4149303895833043,
                    "durationTicks": 239,
                    "midi": 53,
                    "name": "F3",
                    "ticks": 139440,
                    "time": 242.0832365,
                    "velocity": 0.7559055118110236,
                },
                {
                    "duration": 0.4149303895833327,
                    "durationTicks": 239,
                    "midi": 45,
                    "name": "A2",
                    "ticks": 139680,
                    "time": 242.499903,
                    "velocity": 0.7559055118110236,
                },
                {
                    "duration": 0.4149303895833043,
                    "durationTicks": 239,
                    "midi": 57,
                    "name": "A3",
                    "ticks": 139920,
                    "time": 242.9165695,
                    "velocity": 0.7559055118110236,
                },
                {
                    "duration": 0.4149303895833043,
                    "durationTicks": 239,
                    "midi": 53,
                    "name": "F3",
                    "ticks": 139920,
                    "time": 242.9165695,
                    "velocity": 0.7559055118110236,
                },
                {
                    "duration": 0.4149303895833043,
                    "durationTicks": 239,
                    "midi": 41,
                    "name": "F2",
                    "ticks": 140160,
                    "time": 243.333236,
                    "velocity": 0.7559055118110236,
                },
                {
                    "duration": 0.4149303895833043,
                    "durationTicks": 239,
                    "midi": 57,
                    "name": "A3",
                    "ticks": 140400,
                    "time": 243.7499025,
                    "velocity": 0.7559055118110236,
                },
                {
                    "duration": 0.4149303895833043,
                    "durationTicks": 239,
                    "midi": 53,
                    "name": "F3",
                    "ticks": 140400,
                    "time": 243.7499025,
                    "velocity": 0.7559055118110236,
                },
                {
                    "duration": 0.4149303895833043,
                    "durationTicks": 239,
                    "midi": 45,
                    "name": "A2",
                    "ticks": 140640,
                    "time": 244.166569,
                    "velocity": 0.7559055118110236,
                },
                {
                    "duration": 0.4149303895833043,
                    "durationTicks": 239,
                    "midi": 57,
                    "name": "A3",
                    "ticks": 140880,
                    "time": 244.5832355,
                    "velocity": 0.7559055118110236,
                },
                {
                    "duration": 0.4149303895833043,
                    "durationTicks": 239,
                    "midi": 53,
                    "name": "F3",
                    "ticks": 140880,
                    "time": 244.5832355,
                    "velocity": 0.7559055118110236,
                },
                {
                    "duration": 0.4149303895833043,
                    "durationTicks": 239,
                    "midi": 48,
                    "name": "C3",
                    "ticks": 141120,
                    "time": 244.999902,
                    "velocity": 0.7559055118110236,
                },
                {
                    "duration": 0.4149303895833043,
                    "durationTicks": 239,
                    "midi": 60,
                    "name": "C4",
                    "ticks": 141360,
                    "time": 245.4165685,
                    "velocity": 0.7559055118110236,
                },
                {
                    "duration": 0.4149303895833043,
                    "durationTicks": 239,
                    "midi": 55,
                    "name": "G3",
                    "ticks": 141360,
                    "time": 245.4165685,
                    "velocity": 0.7559055118110236,
                },
                {
                    "duration": 0.4149303895833043,
                    "durationTicks": 239,
                    "midi": 52,
                    "name": "E3",
                    "ticks": 141360,
                    "time": 245.4165685,
                    "velocity": 0.7559055118110236,
                },
                {
                    "duration": 0.4149303895833043,
                    "durationTicks": 239,
                    "midi": 43,
                    "name": "G2",
                    "ticks": 141600,
                    "time": 245.833235,
                    "velocity": 0.7559055118110236,
                },
                {
                    "duration": 0.4149303895833043,
                    "durationTicks": 239,
                    "midi": 60,
                    "name": "C4",
                    "ticks": 141840,
                    "time": 246.2499015,
                    "velocity": 0.7559055118110236,
                },
                {
                    "duration": 0.4149303895833043,
                    "durationTicks": 239,
                    "midi": 55,
                    "name": "G3",
                    "ticks": 141840,
                    "time": 246.2499015,
                    "velocity": 0.7559055118110236,
                },
                {
                    "duration": 0.4149303895833043,
                    "durationTicks": 239,
                    "midi": 52,
                    "name": "E3",
                    "ticks": 141840,
                    "time": 246.2499015,
                    "velocity": 0.7559055118110236,
                },
                {
                    "duration": 0.4149303895833327,
                    "durationTicks": 239,
                    "midi": 48,
                    "name": "C3",
                    "ticks": 142080,
                    "time": 246.66656799999998,
                    "velocity": 0.7559055118110236,
                },
                {
                    "duration": 0.4149303895833043,
                    "durationTicks": 239,
                    "midi": 60,
                    "name": "C4",
                    "ticks": 142320,
                    "time": 247.0832345,
                    "velocity": 0.7559055118110236,
                },
                {
                    "duration": 0.4149303895833043,
                    "durationTicks": 239,
                    "midi": 55,
                    "name": "G3",
                    "ticks": 142320,
                    "time": 247.0832345,
                    "velocity": 0.7559055118110236,
                },
                {
                    "duration": 0.4149303895833043,
                    "durationTicks": 239,
                    "midi": 52,
                    "name": "E3",
                    "ticks": 142320,
                    "time": 247.0832345,
                    "velocity": 0.7559055118110236,
                },
                {
                    "duration": 0.4149303895833043,
                    "durationTicks": 239,
                    "midi": 43,
                    "name": "G2",
                    "ticks": 142560,
                    "time": 247.499901,
                    "velocity": 0.7559055118110236,
                },
                {
                    "duration": 0.4149303895833327,
                    "durationTicks": 239,
                    "midi": 60,
                    "name": "C4",
                    "ticks": 142800,
                    "time": 247.91656749999999,
                    "velocity": 0.7559055118110236,
                },
                {
                    "duration": 0.4149303895833327,
                    "durationTicks": 239,
                    "midi": 55,
                    "name": "G3",
                    "ticks": 142800,
                    "time": 247.91656749999999,
                    "velocity": 0.7559055118110236,
                },
                {
                    "duration": 0.4149303895833327,
                    "durationTicks": 239,
                    "midi": 52,
                    "name": "E3",
                    "ticks": 142800,
                    "time": 247.91656749999999,
                    "velocity": 0.7559055118110236,
                },
                {
                    "duration": 0.4149303895833043,
                    "durationTicks": 239,
                    "midi": 53,
                    "name": "F3",
                    "ticks": 143040,
                    "time": 248.333234,
                    "velocity": 0.7559055118110236,
                },
                {
                    "duration": 0.4149303895833043,
                    "durationTicks": 239,
                    "midi": 41,
                    "name": "F2",
                    "ticks": 143040,
                    "time": 248.333234,
                    "velocity": 0.7559055118110236,
                },
                {
                    "duration": 0.4149303895833043,
                    "durationTicks": 239,
                    "midi": 50,
                    "name": "D3",
                    "ticks": 143280,
                    "time": 248.7499005,
                    "velocity": 0.7559055118110236,
                },
                {
                    "duration": 0.4149303895833043,
                    "durationTicks": 239,
                    "midi": 38,
                    "name": "D2",
                    "ticks": 143280,
                    "time": 248.7499005,
                    "velocity": 0.7559055118110236,
                },
                {
                    "duration": 0.4149303895833327,
                    "durationTicks": 239,
                    "midi": 52,
                    "name": "E3",
                    "ticks": 143520,
                    "time": 249.166567,
                    "velocity": 0.7559055118110236,
                },
                {
                    "duration": 0.4149303895833327,
                    "durationTicks": 239,
                    "midi": 40,
                    "name": "E2",
                    "ticks": 143520,
                    "time": 249.166567,
                    "velocity": 0.7559055118110236,
                },
                {
                    "duration": 0.4149303895833043,
                    "durationTicks": 239,
                    "midi": 53,
                    "name": "F3",
                    "ticks": 143760,
                    "time": 249.5832335,
                    "velocity": 0.7559055118110236,
                },
                {
                    "duration": 0.4149303895833043,
                    "durationTicks": 239,
                    "midi": 41,
                    "name": "F2",
                    "ticks": 143760,
                    "time": 249.5832335,
                    "velocity": 0.7559055118110236,
                },
                {
                    "duration": 0.4149303895833043,
                    "durationTicks": 239,
                    "midi": 55,
                    "name": "G3",
                    "ticks": 144000,
                    "time": 249.9999,
                    "velocity": 0.7559055118110236,
                },
                {
                    "duration": 0.4149303895833043,
                    "durationTicks": 239,
                    "midi": 43,
                    "name": "G2",
                    "ticks": 144000,
                    "time": 249.9999,
                    "velocity": 0.7559055118110236,
                },
                {
                    "duration": 0.4149303895833327,
                    "durationTicks": 239,
                    "midi": 64,
                    "name": "E4",
                    "ticks": 144240,
                    "time": 250.4165665,
                    "velocity": 0.7559055118110236,
                },
                {
                    "duration": 0.4149303895833327,
                    "durationTicks": 239,
                    "midi": 60,
                    "name": "C4",
                    "ticks": 144240,
                    "time": 250.4165665,
                    "velocity": 0.7559055118110236,
                },
                {
                    "duration": 0.4149303895833327,
                    "durationTicks": 239,
                    "midi": 55,
                    "name": "G3",
                    "ticks": 144240,
                    "time": 250.4165665,
                    "velocity": 0.7559055118110236,
                },
                {
                    "duration": 0.4149303895833043,
                    "durationTicks": 239,
                    "midi": 63,
                    "name": "D#4",
                    "ticks": 144480,
                    "time": 250.833233,
                    "velocity": 0.7559055118110236,
                },
                {
                    "duration": 0.4149303895833043,
                    "durationTicks": 239,
                    "midi": 60,
                    "name": "C4",
                    "ticks": 144480,
                    "time": 250.833233,
                    "velocity": 0.7559055118110236,
                },
                {
                    "duration": 0.4149303895833043,
                    "durationTicks": 239,
                    "midi": 54,
                    "name": "F#3",
                    "ticks": 144480,
                    "time": 250.833233,
                    "velocity": 0.7559055118110236,
                },
                {
                    "duration": 0.4149303895833043,
                    "durationTicks": 239,
                    "midi": 64,
                    "name": "E4",
                    "ticks": 144720,
                    "time": 251.2498995,
                    "velocity": 0.7559055118110236,
                },
                {
                    "duration": 0.4149303895833043,
                    "durationTicks": 239,
                    "midi": 60,
                    "name": "C4",
                    "ticks": 144720,
                    "time": 251.2498995,
                    "velocity": 0.7559055118110236,
                },
                {
                    "duration": 0.4149303895833043,
                    "durationTicks": 239,
                    "midi": 55,
                    "name": "G3",
                    "ticks": 144720,
                    "time": 251.2498995,
                    "velocity": 0.7559055118110236,
                },
                {
                    "duration": 0.4149303895833327,
                    "durationTicks": 239,
                    "midi": 57,
                    "name": "A3",
                    "ticks": 144960,
                    "time": 251.666566,
                    "velocity": 0.7559055118110236,
                },
                {
                    "duration": 0.4149303895833327,
                    "durationTicks": 239,
                    "midi": 45,
                    "name": "A2",
                    "ticks": 144960,
                    "time": 251.666566,
                    "velocity": 0.7559055118110236,
                },
                {
                    "duration": 0.4149303895833043,
                    "durationTicks": 239,
                    "midi": 50,
                    "name": "D3",
                    "ticks": 145200,
                    "time": 252.0832325,
                    "velocity": 0.7559055118110236,
                },
                {
                    "duration": 0.4149303895833043,
                    "durationTicks": 239,
                    "midi": 38,
                    "name": "D2",
                    "ticks": 145200,
                    "time": 252.0832325,
                    "velocity": 0.7559055118110236,
                },
                {
                    "duration": 0.4149303895833043,
                    "durationTicks": 239,
                    "midi": 55,
                    "name": "G3",
                    "ticks": 145440,
                    "time": 252.499899,
                    "velocity": 0.7559055118110236,
                },
                {
                    "duration": 0.4149303895833043,
                    "durationTicks": 239,
                    "midi": 43,
                    "name": "G2",
                    "ticks": 145440,
                    "time": 252.499899,
                    "velocity": 0.7559055118110236,
                },
                {
                    "duration": 0.4149303895833043,
                    "durationTicks": 239,
                    "midi": 59,
                    "name": "B3",
                    "ticks": 145680,
                    "time": 252.9165655,
                    "velocity": 0.7559055118110236,
                },
                {
                    "duration": 0.4149303895833043,
                    "durationTicks": 239,
                    "midi": 47,
                    "name": "B2",
                    "ticks": 145680,
                    "time": 252.9165655,
                    "velocity": 0.7559055118110236,
                },
                {
                    "duration": 0.4149303895833043,
                    "durationTicks": 239,
                    "midi": 60,
                    "name": "C4",
                    "ticks": 145920,
                    "time": 253.333232,
                    "velocity": 0.7559055118110236,
                },
                {
                    "duration": 0.4149303895833043,
                    "durationTicks": 239,
                    "midi": 48,
                    "name": "C3",
                    "ticks": 145920,
                    "time": 253.333232,
                    "velocity": 0.7559055118110236,
                },
                {
                    "duration": 0.4149303895833043,
                    "durationTicks": 239,
                    "midi": 55,
                    "name": "G3",
                    "ticks": 146160,
                    "time": 253.7498985,
                    "velocity": 0.7559055118110236,
                },
                {
                    "duration": 0.4149303895833043,
                    "durationTicks": 239,
                    "midi": 43,
                    "name": "G2",
                    "ticks": 146160,
                    "time": 253.7498985,
                    "velocity": 0.7559055118110236,
                },
                {
                    "duration": 0.4149303895833043,
                    "durationTicks": 239,
                    "midi": 48,
                    "name": "C3",
                    "ticks": 146400,
                    "time": 254.166565,
                    "velocity": 0.7559055118110236,
                },
                {
                    "duration": 0.4149303895833043,
                    "durationTicks": 239,
                    "midi": 36,
                    "name": "C2",
                    "ticks": 146400,
                    "time": 254.166565,
                    "velocity": 0.7559055118110236,
                },
            ],
            "endOfTrackTicks": 146640,
        },
    ],
}
