bach_format0 = {
    "header": {
        "keySignatures": [],
        "meta": [],
        "name": "Piano right\u0000",
        "ppq": 96,
        "tempos": [],
        "timeSignatures": [
            {"ticks": 0, "timeSignature": [4, 4], "measures": 0},
            {"ticks": 0, "timeSignature": [4, 4], "measures": 0},
        ],
    },
    "tracks": [
        {
            "channel": 0,
            "controlChanges": {
                "7": [
                    {"number": 7, "ticks": 0, "time": 0, "value": 0.7874015748031497}
                ],
                "10": [
                    {"number": 10, "ticks": 0, "time": 0, "value": 0.5039370078740157}
                ],
                "91": [
                    {"number": 91, "ticks": 0, "time": 0, "value": 1},
                    {"number": 91, "ticks": 384, "time": 2, "value": 1},
                    {"number": 91, "ticks": 384, "time": 2, "value": 1},
                    {"number": 91, "ticks": 768, "time": 4, "value": 1},
                    {"number": 91, "ticks": 768, "time": 4, "value": 1},
                    {"number": 91, "ticks": 1152, "time": 6, "value": 1},
                    {"number": 91, "ticks": 1152, "time": 6, "value": 1},
                    {"number": 91, "ticks": 1536, "time": 8, "value": 1},
                    {"number": 91, "ticks": 1536, "time": 8, "value": 1},
                    {"number": 91, "ticks": 1920, "time": 10, "value": 1},
                    {"number": 91, "ticks": 1920, "time": 10, "value": 1},
                    {"number": 91, "ticks": 2304, "time": 12, "value": 1},
                    {"number": 91, "ticks": 2304, "time": 12, "value": 1},
                    {"number": 91, "ticks": 2688, "time": 14, "value": 1},
                    {"number": 91, "ticks": 2688, "time": 14, "value": 1},
                    {"number": 91, "ticks": 3072, "time": 16, "value": 1},
                    {"number": 91, "ticks": 3072, "time": 16, "value": 1},
                    {"number": 91, "ticks": 3456, "time": 18, "value": 1},
                    {"number": 91, "ticks": 3456, "time": 18, "value": 1},
                    {"number": 91, "ticks": 3840, "time": 20, "value": 1},
                    {"number": 91, "ticks": 3840, "time": 20, "value": 1},
                    {"number": 91, "ticks": 4224, "time": 22, "value": 1},
                    {"number": 91, "ticks": 4224, "time": 22, "value": 1},
                    {"number": 91, "ticks": 4608, "time": 24, "value": 1},
                    {"number": 91, "ticks": 4608, "time": 24, "value": 1},
                    {"number": 91, "ticks": 4992, "time": 26, "value": 1},
                    {"number": 91, "ticks": 4992, "time": 26, "value": 1},
                    {"number": 91, "ticks": 5376, "time": 28, "value": 1},
                    {"number": 91, "ticks": 5376, "time": 28, "value": 1},
                    {"number": 91, "ticks": 5760, "time": 30, "value": 1},
                    {"number": 91, "ticks": 5760, "time": 30, "value": 1},
                    {"number": 91, "ticks": 6144, "time": 32, "value": 1},
                    {"number": 91, "ticks": 6144, "time": 32, "value": 1},
                    {"number": 91, "ticks": 6528, "time": 34, "value": 1},
                    {"number": 91, "ticks": 6528, "time": 34, "value": 1},
                    {"number": 91, "ticks": 6912, "time": 36, "value": 1},
                    {"number": 91, "ticks": 6912, "time": 36, "value": 1},
                    {"number": 91, "ticks": 7296, "time": 38, "value": 1},
                    {"number": 91, "ticks": 7296, "time": 38, "value": 1},
                    {"number": 91, "ticks": 7680, "time": 40, "value": 1},
                    {"number": 91, "ticks": 7680, "time": 40, "value": 1},
                    {"number": 91, "ticks": 8064, "time": 42, "value": 1},
                    {"number": 91, "ticks": 8064, "time": 42, "value": 1},
                    {"number": 91, "ticks": 8448, "time": 44, "value": 1},
                    {"number": 91, "ticks": 8448, "time": 44, "value": 1},
                    {"number": 91, "ticks": 8832, "time": 46, "value": 1},
                    {"number": 91, "ticks": 8832, "time": 46, "value": 1},
                    {"number": 91, "ticks": 9216, "time": 48, "value": 1},
                    {"number": 91, "ticks": 9216, "time": 48, "value": 1},
                    {"number": 91, "ticks": 9600, "time": 50, "value": 1},
                    {"number": 91, "ticks": 9600, "time": 50, "value": 1},
                    {"number": 91, "ticks": 9984, "time": 52, "value": 1},
                    {"number": 91, "ticks": 9984, "time": 52, "value": 1},
                    {"number": 91, "ticks": 10368, "time": 54, "value": 1},
                    {"number": 91, "ticks": 10368, "time": 54, "value": 1},
                    {"number": 91, "ticks": 10752, "time": 56, "value": 1},
                    {"number": 91, "ticks": 10752, "time": 56, "value": 1},
                    {"number": 91, "ticks": 11136, "time": 58, "value": 1},
                    {"number": 91, "ticks": 11136, "time": 58, "value": 1},
                    {"number": 91, "ticks": 11520, "time": 60, "value": 1},
                    {"number": 91, "ticks": 11520, "time": 60, "value": 1},
                    {"number": 91, "ticks": 11904, "time": 62, "value": 1},
                    {"number": 91, "ticks": 11904, "time": 62, "value": 1},
                ],
            },
            "pitchBends": [],
            "instrument": {
                "family": "piano",
                "number": 0,
                "name": "acoustic grand piano",
            },
            "name": "Piano right\u0000",
            "notes": [
                {
                    "duration": 0.125,
                    "durationTicks": 24,
                    "midi": 67,
                    "name": "G4",
                    "ticks": 48,
                    "time": 0.25,
                    "velocity": 0.4409448818897638,
                },
                {
                    "duration": 0.125,
                    "durationTicks": 24,
                    "midi": 72,
                    "name": "C5",
                    "ticks": 72,
                    "time": 0.375,
                    "velocity": 0.47244094488188976,
                },
                {
                    "duration": 0.109375,
                    "durationTicks": 21,
                    "midi": 76,
                    "name": "E5",
                    "ticks": 96,
                    "time": 0.5,
                    "velocity": 0.49606299212598426,
                },
                {
                    "duration": 0.125,
                    "durationTicks": 24,
                    "midi": 67,
                    "name": "G4",
                    "ticks": 120,
                    "time": 0.625,
                    "velocity": 0.3937007874015748,
                },
                {
                    "duration": 0.125,
                    "durationTicks": 24,
                    "midi": 72,
                    "name": "C5",
                    "ticks": 144,
                    "time": 0.75,
                    "velocity": 0.3700787401574803,
                },
                {
                    "duration": 0.125,
                    "durationTicks": 24,
                    "midi": 76,
                    "name": "E5",
                    "ticks": 168,
                    "time": 0.875,
                    "velocity": 0.3700787401574803,
                },
                {
                    "duration": 0.125,
                    "durationTicks": 24,
                    "midi": 67,
                    "name": "G4",
                    "ticks": 240,
                    "time": 1.25,
                    "velocity": 0.4409448818897638,
                },
                {
                    "duration": 0.125,
                    "durationTicks": 24,
                    "midi": 72,
                    "name": "C5",
                    "ticks": 264,
                    "time": 1.375,
                    "velocity": 0.47244094488188976,
                },
                {
                    "duration": 0.109375,
                    "durationTicks": 21,
                    "midi": 76,
                    "name": "E5",
                    "ticks": 288,
                    "time": 1.5,
                    "velocity": 0.4881889763779528,
                },
                {
                    "duration": 0.125,
                    "durationTicks": 24,
                    "midi": 67,
                    "name": "G4",
                    "ticks": 312,
                    "time": 1.625,
                    "velocity": 0.3937007874015748,
                },
                {
                    "duration": 0.125,
                    "durationTicks": 24,
                    "midi": 72,
                    "name": "C5",
                    "ticks": 336,
                    "time": 1.75,
                    "velocity": 0.3779527559055118,
                },
                {
                    "duration": 0.125,
                    "durationTicks": 24,
                    "midi": 76,
                    "name": "E5",
                    "ticks": 360,
                    "time": 1.875,
                    "velocity": 0.3779527559055118,
                },
                {
                    "duration": 0.125,
                    "durationTicks": 24,
                    "midi": 69,
                    "name": "A4",
                    "ticks": 432,
                    "time": 2.25,
                    "velocity": 0.4409448818897638,
                },
                {
                    "duration": 0.125,
                    "durationTicks": 24,
                    "midi": 74,
                    "name": "D5",
                    "ticks": 456,
                    "time": 2.375,
                    "velocity": 0.47244094488188976,
                },
                {
                    "duration": 0.109375,
                    "durationTicks": 21,
                    "midi": 77,
                    "name": "F5",
                    "ticks": 480,
                    "time": 2.5,
                    "velocity": 0.5118110236220472,
                },
                {
                    "duration": 0.125,
                    "durationTicks": 24,
                    "midi": 69,
                    "name": "A4",
                    "ticks": 504,
                    "time": 2.625,
                    "velocity": 0.4015748031496063,
                },
                {
                    "duration": 0.125,
                    "durationTicks": 24,
                    "midi": 74,
                    "name": "D5",
                    "ticks": 528,
                    "time": 2.75,
                    "velocity": 0.3937007874015748,
                },
                {
                    "duration": 0.125,
                    "durationTicks": 24,
                    "midi": 77,
                    "name": "F5",
                    "ticks": 552,
                    "time": 2.875,
                    "velocity": 0.3937007874015748,
                },
                {
                    "duration": 0.125,
                    "durationTicks": 24,
                    "midi": 69,
                    "name": "A4",
                    "ticks": 624,
                    "time": 3.25,
                    "velocity": 0.4566929133858268,
                },
                {
                    "duration": 0.125,
                    "durationTicks": 24,
                    "midi": 74,
                    "name": "D5",
                    "ticks": 648,
                    "time": 3.375,
                    "velocity": 0.47244094488188976,
                },
                {
                    "duration": 0.109375,
                    "durationTicks": 21,
                    "midi": 77,
                    "name": "F5",
                    "ticks": 672,
                    "time": 3.5,
                    "velocity": 0.5118110236220472,
                },
                {
                    "duration": 0.125,
                    "durationTicks": 24,
                    "midi": 69,
                    "name": "A4",
                    "ticks": 696,
                    "time": 3.625,
                    "velocity": 0.4094488188976378,
                },
                {
                    "duration": 0.125,
                    "durationTicks": 24,
                    "midi": 74,
                    "name": "D5",
                    "ticks": 720,
                    "time": 3.75,
                    "velocity": 0.3937007874015748,
                },
                {
                    "duration": 0.125,
                    "durationTicks": 24,
                    "midi": 77,
                    "name": "F5",
                    "ticks": 744,
                    "time": 3.875,
                    "velocity": 0.3937007874015748,
                },
                {
                    "duration": 0.125,
                    "durationTicks": 24,
                    "midi": 67,
                    "name": "G4",
                    "ticks": 816,
                    "time": 4.25,
                    "velocity": 0.4409448818897638,
                },
                {
                    "duration": 0.125,
                    "durationTicks": 24,
                    "midi": 74,
                    "name": "D5",
                    "ticks": 840,
                    "time": 4.375,
                    "velocity": 0.47244094488188976,
                },
                {
                    "duration": 0.109375,
                    "durationTicks": 21,
                    "midi": 77,
                    "name": "F5",
                    "ticks": 864,
                    "time": 4.5,
                    "velocity": 0.5118110236220472,
                },
                {
                    "duration": 0.125,
                    "durationTicks": 24,
                    "midi": 67,
                    "name": "G4",
                    "ticks": 888,
                    "time": 4.625,
                    "velocity": 0.4015748031496063,
                },
                {
                    "duration": 0.125,
                    "durationTicks": 24,
                    "midi": 74,
                    "name": "D5",
                    "ticks": 912,
                    "time": 4.75,
                    "velocity": 0.3937007874015748,
                },
                {
                    "duration": 0.125,
                    "durationTicks": 24,
                    "midi": 77,
                    "name": "F5",
                    "ticks": 936,
                    "time": 4.875,
                    "velocity": 0.3937007874015748,
                },
                {
                    "duration": 0.125,
                    "durationTicks": 24,
                    "midi": 67,
                    "name": "G4",
                    "ticks": 1008,
                    "time": 5.25,
                    "velocity": 0.4409448818897638,
                },
                {
                    "duration": 0.125,
                    "durationTicks": 24,
                    "midi": 74,
                    "name": "D5",
                    "ticks": 1032,
                    "time": 5.375,
                    "velocity": 0.47244094488188976,
                },
                {
                    "duration": 0.109375,
                    "durationTicks": 21,
                    "midi": 77,
                    "name": "F5",
                    "ticks": 1056,
                    "time": 5.5,
                    "velocity": 0.5118110236220472,
                },
                {
                    "duration": 0.125,
                    "durationTicks": 24,
                    "midi": 67,
                    "name": "G4",
                    "ticks": 1080,
                    "time": 5.625,
                    "velocity": 0.4094488188976378,
                },
                {
                    "duration": 0.125,
                    "durationTicks": 24,
                    "midi": 74,
                    "name": "D5",
                    "ticks": 1104,
                    "time": 5.75,
                    "velocity": 0.3937007874015748,
                },
                {
                    "duration": 0.125,
                    "durationTicks": 24,
                    "midi": 77,
                    "name": "F5",
                    "ticks": 1128,
                    "time": 5.875,
                    "velocity": 0.3937007874015748,
                },
                {
                    "duration": 0.125,
                    "durationTicks": 24,
                    "midi": 67,
                    "name": "G4",
                    "ticks": 1200,
                    "time": 6.25,
                    "velocity": 0.41732283464566927,
                },
                {
                    "duration": 0.125,
                    "durationTicks": 24,
                    "midi": 72,
                    "name": "C5",
                    "ticks": 1224,
                    "time": 6.375,
                    "velocity": 0.4330708661417323,
                },
                {
                    "duration": 0.109375,
                    "durationTicks": 21,
                    "midi": 76,
                    "name": "E5",
                    "ticks": 1248,
                    "time": 6.5,
                    "velocity": 0.47244094488188976,
                },
                {
                    "duration": 0.125,
                    "durationTicks": 24,
                    "midi": 67,
                    "name": "G4",
                    "ticks": 1272,
                    "time": 6.625,
                    "velocity": 0.3937007874015748,
                },
                {
                    "duration": 0.125,
                    "durationTicks": 24,
                    "midi": 72,
                    "name": "C5",
                    "ticks": 1296,
                    "time": 6.75,
                    "velocity": 0.3700787401574803,
                },
                {
                    "duration": 0.125,
                    "durationTicks": 24,
                    "midi": 76,
                    "name": "E5",
                    "ticks": 1320,
                    "time": 6.875,
                    "velocity": 0.3700787401574803,
                },
                {
                    "duration": 0.125,
                    "durationTicks": 24,
                    "midi": 67,
                    "name": "G4",
                    "ticks": 1392,
                    "time": 7.25,
                    "velocity": 0.4330708661417323,
                },
                {
                    "duration": 0.125,
                    "durationTicks": 24,
                    "midi": 72,
                    "name": "C5",
                    "ticks": 1416,
                    "time": 7.375,
                    "velocity": 0.44881889763779526,
                },
                {
                    "duration": 0.109375,
                    "durationTicks": 21,
                    "midi": 76,
                    "name": "E5",
                    "ticks": 1440,
                    "time": 7.5,
                    "velocity": 0.48031496062992124,
                },
                {
                    "duration": 0.125,
                    "durationTicks": 24,
                    "midi": 67,
                    "name": "G4",
                    "ticks": 1464,
                    "time": 7.625,
                    "velocity": 0.3937007874015748,
                },
                {
                    "duration": 0.125,
                    "durationTicks": 24,
                    "midi": 72,
                    "name": "C5",
                    "ticks": 1488,
                    "time": 7.75,
                    "velocity": 0.3779527559055118,
                },
                {
                    "duration": 0.125,
                    "durationTicks": 24,
                    "midi": 76,
                    "name": "E5",
                    "ticks": 1512,
                    "time": 7.875,
                    "velocity": 0.3779527559055118,
                },
                {
                    "duration": 0.125,
                    "durationTicks": 24,
                    "midi": 69,
                    "name": "A4",
                    "ticks": 1584,
                    "time": 8.25,
                    "velocity": 0.48031496062992124,
                },
                {
                    "duration": 0.125,
                    "durationTicks": 24,
                    "midi": 76,
                    "name": "E5",
                    "ticks": 1608,
                    "time": 8.375,
                    "velocity": 0.5196850393700787,
                },
                {
                    "duration": 0.109375,
                    "durationTicks": 21,
                    "midi": 81,
                    "name": "A5",
                    "ticks": 1632,
                    "time": 8.5,
                    "velocity": 0.5511811023622047,
                },
                {
                    "duration": 0.125,
                    "durationTicks": 24,
                    "midi": 69,
                    "name": "A4",
                    "ticks": 1656,
                    "time": 8.625,
                    "velocity": 0.4330708661417323,
                },
                {
                    "duration": 0.125,
                    "durationTicks": 24,
                    "midi": 76,
                    "name": "E5",
                    "ticks": 1680,
                    "time": 8.75,
                    "velocity": 0.4015748031496063,
                },
                {
                    "duration": 0.125,
                    "durationTicks": 24,
                    "midi": 81,
                    "name": "A5",
                    "ticks": 1704,
                    "time": 8.875,
                    "velocity": 0.4015748031496063,
                },
                {
                    "duration": 0.125,
                    "durationTicks": 24,
                    "midi": 69,
                    "name": "A4",
                    "ticks": 1776,
                    "time": 9.25,
                    "velocity": 0.48031496062992124,
                },
                {
                    "duration": 0.125,
                    "durationTicks": 24,
                    "midi": 76,
                    "name": "E5",
                    "ticks": 1800,
                    "time": 9.375,
                    "velocity": 0.5118110236220472,
                },
                {
                    "duration": 0.109375,
                    "durationTicks": 21,
                    "midi": 81,
                    "name": "A5",
                    "ticks": 1824,
                    "time": 9.5,
                    "velocity": 0.5354330708661418,
                },
                {
                    "duration": 0.125,
                    "durationTicks": 24,
                    "midi": 69,
                    "name": "A4",
                    "ticks": 1848,
                    "time": 9.625,
                    "velocity": 0.4330708661417323,
                },
                {
                    "duration": 0.125,
                    "durationTicks": 24,
                    "midi": 76,
                    "name": "E5",
                    "ticks": 1872,
                    "time": 9.75,
                    "velocity": 0.4094488188976378,
                },
                {
                    "duration": 0.125,
                    "durationTicks": 24,
                    "midi": 81,
                    "name": "A5",
                    "ticks": 1896,
                    "time": 9.875,
                    "velocity": 0.4094488188976378,
                },
                {
                    "duration": 0.125,
                    "durationTicks": 24,
                    "midi": 66,
                    "name": "F#4",
                    "ticks": 1968,
                    "time": 10.25,
                    "velocity": 0.4409448818897638,
                },
                {
                    "duration": 0.125,
                    "durationTicks": 24,
                    "midi": 69,
                    "name": "A4",
                    "ticks": 1992,
                    "time": 10.375,
                    "velocity": 0.47244094488188976,
                },
                {
                    "duration": 0.109375,
                    "durationTicks": 21,
                    "midi": 74,
                    "name": "D5",
                    "ticks": 2016,
                    "time": 10.5,
                    "velocity": 0.49606299212598426,
                },
                {
                    "duration": 0.125,
                    "durationTicks": 24,
                    "midi": 66,
                    "name": "F#4",
                    "ticks": 2040,
                    "time": 10.625,
                    "velocity": 0.3937007874015748,
                },
                {
                    "duration": 0.125,
                    "durationTicks": 24,
                    "midi": 69,
                    "name": "A4",
                    "ticks": 2064,
                    "time": 10.75,
                    "velocity": 0.3700787401574803,
                },
                {
                    "duration": 0.125,
                    "durationTicks": 24,
                    "midi": 74,
                    "name": "D5",
                    "ticks": 2088,
                    "time": 10.875,
                    "velocity": 0.3700787401574803,
                },
                {
                    "duration": 0.125,
                    "durationTicks": 24,
                    "midi": 66,
                    "name": "F#4",
                    "ticks": 2160,
                    "time": 11.25,
                    "velocity": 0.4409448818897638,
                },
                {
                    "duration": 0.125,
                    "durationTicks": 24,
                    "midi": 69,
                    "name": "A4",
                    "ticks": 2184,
                    "time": 11.375,
                    "velocity": 0.47244094488188976,
                },
                {
                    "duration": 0.109375,
                    "durationTicks": 21,
                    "midi": 74,
                    "name": "D5",
                    "ticks": 2208,
                    "time": 11.5,
                    "velocity": 0.4881889763779528,
                },
                {
                    "duration": 0.125,
                    "durationTicks": 24,
                    "midi": 66,
                    "name": "F#4",
                    "ticks": 2232,
                    "time": 11.625,
                    "velocity": 0.3937007874015748,
                },
                {
                    "duration": 0.125,
                    "durationTicks": 24,
                    "midi": 69,
                    "name": "A4",
                    "ticks": 2256,
                    "time": 11.75,
                    "velocity": 0.3779527559055118,
                },
                {
                    "duration": 0.125,
                    "durationTicks": 24,
                    "midi": 74,
                    "name": "D5",
                    "ticks": 2280,
                    "time": 11.875,
                    "velocity": 0.3779527559055118,
                },
                {
                    "duration": 0.125,
                    "durationTicks": 24,
                    "midi": 67,
                    "name": "G4",
                    "ticks": 2352,
                    "time": 12.25,
                    "velocity": 0.4566929133858268,
                },
                {
                    "duration": 0.125,
                    "durationTicks": 24,
                    "midi": 74,
                    "name": "D5",
                    "ticks": 2376,
                    "time": 12.375,
                    "velocity": 0.49606299212598426,
                },
                {
                    "duration": 0.109375,
                    "durationTicks": 21,
                    "midi": 79,
                    "name": "G5",
                    "ticks": 2400,
                    "time": 12.5,
                    "velocity": 0.5196850393700787,
                },
                {
                    "duration": 0.125,
                    "durationTicks": 24,
                    "midi": 67,
                    "name": "G4",
                    "ticks": 2424,
                    "time": 12.625,
                    "velocity": 0.4015748031496063,
                },
                {
                    "duration": 0.125,
                    "durationTicks": 24,
                    "midi": 74,
                    "name": "D5",
                    "ticks": 2448,
                    "time": 12.75,
                    "velocity": 0.3937007874015748,
                },
                {
                    "duration": 0.125,
                    "durationTicks": 24,
                    "midi": 79,
                    "name": "G5",
                    "ticks": 2472,
                    "time": 12.875,
                    "velocity": 0.3937007874015748,
                },
                {
                    "duration": 0.125,
                    "durationTicks": 24,
                    "midi": 67,
                    "name": "G4",
                    "ticks": 2544,
                    "time": 13.25,
                    "velocity": 0.4566929133858268,
                },
                {
                    "duration": 0.125,
                    "durationTicks": 24,
                    "midi": 74,
                    "name": "D5",
                    "ticks": 2568,
                    "time": 13.375,
                    "velocity": 0.4881889763779528,
                },
                {
                    "duration": 0.109375,
                    "durationTicks": 21,
                    "midi": 79,
                    "name": "G5",
                    "ticks": 2592,
                    "time": 13.5,
                    "velocity": 0.5118110236220472,
                },
                {
                    "duration": 0.125,
                    "durationTicks": 24,
                    "midi": 67,
                    "name": "G4",
                    "ticks": 2616,
                    "time": 13.625,
                    "velocity": 0.4094488188976378,
                },
                {
                    "duration": 0.125,
                    "durationTicks": 24,
                    "midi": 74,
                    "name": "D5",
                    "ticks": 2640,
                    "time": 13.75,
                    "velocity": 0.3937007874015748,
                },
                {
                    "duration": 0.125,
                    "durationTicks": 24,
                    "midi": 79,
                    "name": "G5",
                    "ticks": 2664,
                    "time": 13.875,
                    "velocity": 0.3937007874015748,
                },
                {
                    "duration": 0.125,
                    "durationTicks": 24,
                    "midi": 64,
                    "name": "E4",
                    "ticks": 2736,
                    "time": 14.25,
                    "velocity": 0.4409448818897638,
                },
                {
                    "duration": 0.125,
                    "durationTicks": 24,
                    "midi": 67,
                    "name": "G4",
                    "ticks": 2760,
                    "time": 14.375,
                    "velocity": 0.47244094488188976,
                },
                {
                    "duration": 0.109375,
                    "durationTicks": 21,
                    "midi": 72,
                    "name": "C5",
                    "ticks": 2784,
                    "time": 14.5,
                    "velocity": 0.49606299212598426,
                },
                {
                    "duration": 0.125,
                    "durationTicks": 24,
                    "midi": 64,
                    "name": "E4",
                    "ticks": 2808,
                    "time": 14.625,
                    "velocity": 0.3937007874015748,
                },
                {
                    "duration": 0.125,
                    "durationTicks": 24,
                    "midi": 67,
                    "name": "G4",
                    "ticks": 2832,
                    "time": 14.75,
                    "velocity": 0.3700787401574803,
                },
                {
                    "duration": 0.125,
                    "durationTicks": 24,
                    "midi": 72,
                    "name": "C5",
                    "ticks": 2856,
                    "time": 14.875,
                    "velocity": 0.3700787401574803,
                },
                {
                    "duration": 0.125,
                    "durationTicks": 24,
                    "midi": 64,
                    "name": "E4",
                    "ticks": 2928,
                    "time": 15.25,
                    "velocity": 0.4409448818897638,
                },
                {
                    "duration": 0.125,
                    "durationTicks": 24,
                    "midi": 67,
                    "name": "G4",
                    "ticks": 2952,
                    "time": 15.375,
                    "velocity": 0.47244094488188976,
                },
                {
                    "duration": 0.109375,
                    "durationTicks": 21,
                    "midi": 72,
                    "name": "C5",
                    "ticks": 2976,
                    "time": 15.5,
                    "velocity": 0.4881889763779528,
                },
                {
                    "duration": 0.125,
                    "durationTicks": 24,
                    "midi": 64,
                    "name": "E4",
                    "ticks": 3000,
                    "time": 15.625,
                    "velocity": 0.3937007874015748,
                },
                {
                    "duration": 0.125,
                    "durationTicks": 24,
                    "midi": 67,
                    "name": "G4",
                    "ticks": 3024,
                    "time": 15.75,
                    "velocity": 0.3779527559055118,
                },
                {
                    "duration": 0.125,
                    "durationTicks": 24,
                    "midi": 72,
                    "name": "C5",
                    "ticks": 3048,
                    "time": 15.875,
                    "velocity": 0.3779527559055118,
                },
                {
                    "duration": 0.125,
                    "durationTicks": 24,
                    "midi": 64,
                    "name": "E4",
                    "ticks": 3120,
                    "time": 16.25,
                    "velocity": 0.4409448818897638,
                },
                {
                    "duration": 0.125,
                    "durationTicks": 24,
                    "midi": 67,
                    "name": "G4",
                    "ticks": 3144,
                    "time": 16.375,
                    "velocity": 0.47244094488188976,
                },
                {
                    "duration": 0.109375,
                    "durationTicks": 21,
                    "midi": 72,
                    "name": "C5",
                    "ticks": 3168,
                    "time": 16.5,
                    "velocity": 0.49606299212598426,
                },
                {
                    "duration": 0.125,
                    "durationTicks": 24,
                    "midi": 64,
                    "name": "E4",
                    "ticks": 3192,
                    "time": 16.625,
                    "velocity": 0.3937007874015748,
                },
                {
                    "duration": 0.125,
                    "durationTicks": 24,
                    "midi": 67,
                    "name": "G4",
                    "ticks": 3216,
                    "time": 16.75,
                    "velocity": 0.3700787401574803,
                },
                {
                    "duration": 0.125,
                    "durationTicks": 24,
                    "midi": 72,
                    "name": "C5",
                    "ticks": 3240,
                    "time": 16.875,
                    "velocity": 0.3700787401574803,
                },
                {
                    "duration": 0.125,
                    "durationTicks": 24,
                    "midi": 64,
                    "name": "E4",
                    "ticks": 3312,
                    "time": 17.25,
                    "velocity": 0.4409448818897638,
                },
                {
                    "duration": 0.125,
                    "durationTicks": 24,
                    "midi": 67,
                    "name": "G4",
                    "ticks": 3336,
                    "time": 17.375,
                    "velocity": 0.47244094488188976,
                },
                {
                    "duration": 0.109375,
                    "durationTicks": 21,
                    "midi": 72,
                    "name": "C5",
                    "ticks": 3360,
                    "time": 17.5,
                    "velocity": 0.4881889763779528,
                },
                {
                    "duration": 0.125,
                    "durationTicks": 24,
                    "midi": 64,
                    "name": "E4",
                    "ticks": 3384,
                    "time": 17.625,
                    "velocity": 0.3937007874015748,
                },
                {
                    "duration": 0.125,
                    "durationTicks": 24,
                    "midi": 67,
                    "name": "G4",
                    "ticks": 3408,
                    "time": 17.75,
                    "velocity": 0.3779527559055118,
                },
                {
                    "duration": 0.125,
                    "durationTicks": 24,
                    "midi": 72,
                    "name": "C5",
                    "ticks": 3432,
                    "time": 17.875,
                    "velocity": 0.3779527559055118,
                },
                {
                    "duration": 0.125,
                    "durationTicks": 24,
                    "midi": 62,
                    "name": "D4",
                    "ticks": 3504,
                    "time": 18.25,
                    "velocity": 0.4409448818897638,
                },
                {
                    "duration": 0.125,
                    "durationTicks": 24,
                    "midi": 66,
                    "name": "F#4",
                    "ticks": 3528,
                    "time": 18.375,
                    "velocity": 0.47244094488188976,
                },
                {
                    "duration": 0.109375,
                    "durationTicks": 21,
                    "midi": 72,
                    "name": "C5",
                    "ticks": 3552,
                    "time": 18.5,
                    "velocity": 0.49606299212598426,
                },
                {
                    "duration": 0.125,
                    "durationTicks": 24,
                    "midi": 62,
                    "name": "D4",
                    "ticks": 3576,
                    "time": 18.625,
                    "velocity": 0.3937007874015748,
                },
                {
                    "duration": 0.125,
                    "durationTicks": 24,
                    "midi": 66,
                    "name": "F#4",
                    "ticks": 3600,
                    "time": 18.75,
                    "velocity": 0.3700787401574803,
                },
                {
                    "duration": 0.125,
                    "durationTicks": 24,
                    "midi": 72,
                    "name": "C5",
                    "ticks": 3624,
                    "time": 18.875,
                    "velocity": 0.3700787401574803,
                },
                {
                    "duration": 0.125,
                    "durationTicks": 24,
                    "midi": 62,
                    "name": "D4",
                    "ticks": 3696,
                    "time": 19.25,
                    "velocity": 0.4409448818897638,
                },
                {
                    "duration": 0.125,
                    "durationTicks": 24,
                    "midi": 66,
                    "name": "F#4",
                    "ticks": 3720,
                    "time": 19.375,
                    "velocity": 0.47244094488188976,
                },
                {
                    "duration": 0.109375,
                    "durationTicks": 21,
                    "midi": 72,
                    "name": "C5",
                    "ticks": 3744,
                    "time": 19.5,
                    "velocity": 0.4881889763779528,
                },
                {
                    "duration": 0.125,
                    "durationTicks": 24,
                    "midi": 62,
                    "name": "D4",
                    "ticks": 3768,
                    "time": 19.625,
                    "velocity": 0.3937007874015748,
                },
                {
                    "duration": 0.125,
                    "durationTicks": 24,
                    "midi": 66,
                    "name": "F#4",
                    "ticks": 3792,
                    "time": 19.75,
                    "velocity": 0.3779527559055118,
                },
                {
                    "duration": 0.125,
                    "durationTicks": 24,
                    "midi": 72,
                    "name": "C5",
                    "ticks": 3816,
                    "time": 19.875,
                    "velocity": 0.3779527559055118,
                },
                {
                    "duration": 0.125,
                    "durationTicks": 24,
                    "midi": 62,
                    "name": "D4",
                    "ticks": 3888,
                    "time": 20.25,
                    "velocity": 0.41732283464566927,
                },
                {
                    "duration": 0.125,
                    "durationTicks": 24,
                    "midi": 67,
                    "name": "G4",
                    "ticks": 3912,
                    "time": 20.375,
                    "velocity": 0.4409448818897638,
                },
                {
                    "duration": 0.109375,
                    "durationTicks": 21,
                    "midi": 71,
                    "name": "B4",
                    "ticks": 3936,
                    "time": 20.5,
                    "velocity": 0.47244094488188976,
                },
                {
                    "duration": 0.125,
                    "durationTicks": 24,
                    "midi": 62,
                    "name": "D4",
                    "ticks": 3960,
                    "time": 20.625,
                    "velocity": 0.36220472440944884,
                },
                {
                    "duration": 0.125,
                    "durationTicks": 24,
                    "midi": 67,
                    "name": "G4",
                    "ticks": 3984,
                    "time": 20.75,
                    "velocity": 0.3543307086614173,
                },
                {
                    "duration": 0.125,
                    "durationTicks": 24,
                    "midi": 71,
                    "name": "B4",
                    "ticks": 4008,
                    "time": 20.875,
                    "velocity": 0.3543307086614173,
                },
                {
                    "duration": 0.125,
                    "durationTicks": 24,
                    "midi": 62,
                    "name": "D4",
                    "ticks": 4080,
                    "time": 21.25,
                    "velocity": 0.41732283464566927,
                },
                {
                    "duration": 0.125,
                    "durationTicks": 24,
                    "midi": 67,
                    "name": "G4",
                    "ticks": 4104,
                    "time": 21.375,
                    "velocity": 0.4409448818897638,
                },
                {
                    "duration": 0.109375,
                    "durationTicks": 21,
                    "midi": 71,
                    "name": "B4",
                    "ticks": 4128,
                    "time": 21.5,
                    "velocity": 0.4566929133858268,
                },
                {
                    "duration": 0.125,
                    "durationTicks": 24,
                    "midi": 62,
                    "name": "D4",
                    "ticks": 4152,
                    "time": 21.625,
                    "velocity": 0.3700787401574803,
                },
                {
                    "duration": 0.125,
                    "durationTicks": 24,
                    "midi": 67,
                    "name": "G4",
                    "ticks": 4176,
                    "time": 21.75,
                    "velocity": 0.3543307086614173,
                },
                {
                    "duration": 0.125,
                    "durationTicks": 24,
                    "midi": 71,
                    "name": "B4",
                    "ticks": 4200,
                    "time": 21.875,
                    "velocity": 0.3543307086614173,
                },
                {
                    "duration": 0.125,
                    "durationTicks": 24,
                    "midi": 64,
                    "name": "E4",
                    "ticks": 4272,
                    "time": 22.25,
                    "velocity": 0.41732283464566927,
                },
                {
                    "duration": 0.125,
                    "durationTicks": 24,
                    "midi": 67,
                    "name": "G4",
                    "ticks": 4296,
                    "time": 22.375,
                    "velocity": 0.4409448818897638,
                },
                {
                    "duration": 0.109375,
                    "durationTicks": 21,
                    "midi": 73,
                    "name": "C#5",
                    "ticks": 4320,
                    "time": 22.5,
                    "velocity": 0.47244094488188976,
                },
                {
                    "duration": 0.125,
                    "durationTicks": 24,
                    "midi": 64,
                    "name": "E4",
                    "ticks": 4344,
                    "time": 22.625,
                    "velocity": 0.36220472440944884,
                },
                {
                    "duration": 0.125,
                    "durationTicks": 24,
                    "midi": 67,
                    "name": "G4",
                    "ticks": 4368,
                    "time": 22.75,
                    "velocity": 0.3543307086614173,
                },
                {
                    "duration": 0.125,
                    "durationTicks": 24,
                    "midi": 73,
                    "name": "C#5",
                    "ticks": 4392,
                    "time": 22.875,
                    "velocity": 0.3543307086614173,
                },
                {
                    "duration": 0.125,
                    "durationTicks": 24,
                    "midi": 64,
                    "name": "E4",
                    "ticks": 4464,
                    "time": 23.25,
                    "velocity": 0.41732283464566927,
                },
                {
                    "duration": 0.125,
                    "durationTicks": 24,
                    "midi": 67,
                    "name": "G4",
                    "ticks": 4488,
                    "time": 23.375,
                    "velocity": 0.4409448818897638,
                },
                {
                    "duration": 0.109375,
                    "durationTicks": 21,
                    "midi": 73,
                    "name": "C#5",
                    "ticks": 4512,
                    "time": 23.5,
                    "velocity": 0.4566929133858268,
                },
                {
                    "duration": 0.125,
                    "durationTicks": 24,
                    "midi": 64,
                    "name": "E4",
                    "ticks": 4536,
                    "time": 23.625,
                    "velocity": 0.3700787401574803,
                },
                {
                    "duration": 0.125,
                    "durationTicks": 24,
                    "midi": 67,
                    "name": "G4",
                    "ticks": 4560,
                    "time": 23.75,
                    "velocity": 0.3543307086614173,
                },
                {
                    "duration": 0.125,
                    "durationTicks": 24,
                    "midi": 73,
                    "name": "C#5",
                    "ticks": 4584,
                    "time": 23.875,
                    "velocity": 0.3543307086614173,
                },
                {
                    "duration": 0.125,
                    "durationTicks": 24,
                    "midi": 62,
                    "name": "D4",
                    "ticks": 4656,
                    "time": 24.25,
                    "velocity": 0.4409448818897638,
                },
                {
                    "duration": 0.125,
                    "durationTicks": 24,
                    "midi": 69,
                    "name": "A4",
                    "ticks": 4680,
                    "time": 24.375,
                    "velocity": 0.47244094488188976,
                },
                {
                    "duration": 0.109375,
                    "durationTicks": 21,
                    "midi": 74,
                    "name": "D5",
                    "ticks": 4704,
                    "time": 24.5,
                    "velocity": 0.49606299212598426,
                },
                {
                    "duration": 0.125,
                    "durationTicks": 24,
                    "midi": 62,
                    "name": "D4",
                    "ticks": 4728,
                    "time": 24.625,
                    "velocity": 0.3937007874015748,
                },
                {
                    "duration": 0.125,
                    "durationTicks": 24,
                    "midi": 69,
                    "name": "A4",
                    "ticks": 4752,
                    "time": 24.75,
                    "velocity": 0.3700787401574803,
                },
                {
                    "duration": 0.125,
                    "durationTicks": 24,
                    "midi": 74,
                    "name": "D5",
                    "ticks": 4776,
                    "time": 24.875,
                    "velocity": 0.3700787401574803,
                },
                {
                    "duration": 0.125,
                    "durationTicks": 24,
                    "midi": 62,
                    "name": "D4",
                    "ticks": 4848,
                    "time": 25.25,
                    "velocity": 0.4409448818897638,
                },
                {
                    "duration": 0.125,
                    "durationTicks": 24,
                    "midi": 69,
                    "name": "A4",
                    "ticks": 4872,
                    "time": 25.375,
                    "velocity": 0.47244094488188976,
                },
                {
                    "duration": 0.109375,
                    "durationTicks": 21,
                    "midi": 74,
                    "name": "D5",
                    "ticks": 4896,
                    "time": 25.5,
                    "velocity": 0.4881889763779528,
                },
                {
                    "duration": 0.125,
                    "durationTicks": 24,
                    "midi": 62,
                    "name": "D4",
                    "ticks": 4920,
                    "time": 25.625,
                    "velocity": 0.3937007874015748,
                },
                {
                    "duration": 0.125,
                    "durationTicks": 24,
                    "midi": 69,
                    "name": "A4",
                    "ticks": 4944,
                    "time": 25.75,
                    "velocity": 0.3779527559055118,
                },
                {
                    "duration": 0.125,
                    "durationTicks": 24,
                    "midi": 74,
                    "name": "D5",
                    "ticks": 4968,
                    "time": 25.875,
                    "velocity": 0.3779527559055118,
                },
                {
                    "duration": 0.125,
                    "durationTicks": 24,
                    "midi": 62,
                    "name": "D4",
                    "ticks": 5040,
                    "time": 26.25,
                    "velocity": 0.41732283464566927,
                },
                {
                    "duration": 0.125,
                    "durationTicks": 24,
                    "midi": 65,
                    "name": "F4",
                    "ticks": 5064,
                    "time": 26.375,
                    "velocity": 0.4409448818897638,
                },
                {
                    "duration": 0.109375,
                    "durationTicks": 21,
                    "midi": 71,
                    "name": "B4",
                    "ticks": 5088,
                    "time": 26.5,
                    "velocity": 0.47244094488188976,
                },
                {
                    "duration": 0.125,
                    "durationTicks": 24,
                    "midi": 62,
                    "name": "D4",
                    "ticks": 5112,
                    "time": 26.625,
                    "velocity": 0.36220472440944884,
                },
                {
                    "duration": 0.125,
                    "durationTicks": 24,
                    "midi": 65,
                    "name": "F4",
                    "ticks": 5136,
                    "time": 26.75,
                    "velocity": 0.3543307086614173,
                },
                {
                    "duration": 0.125,
                    "durationTicks": 24,
                    "midi": 71,
                    "name": "B4",
                    "ticks": 5160,
                    "time": 26.875,
                    "velocity": 0.3543307086614173,
                },
                {
                    "duration": 0.125,
                    "durationTicks": 24,
                    "midi": 62,
                    "name": "D4",
                    "ticks": 5232,
                    "time": 27.25,
                    "velocity": 0.41732283464566927,
                },
                {
                    "duration": 0.125,
                    "durationTicks": 24,
                    "midi": 65,
                    "name": "F4",
                    "ticks": 5256,
                    "time": 27.375,
                    "velocity": 0.4409448818897638,
                },
                {
                    "duration": 0.109375,
                    "durationTicks": 21,
                    "midi": 71,
                    "name": "B4",
                    "ticks": 5280,
                    "time": 27.5,
                    "velocity": 0.4566929133858268,
                },
                {
                    "duration": 0.125,
                    "durationTicks": 24,
                    "midi": 62,
                    "name": "D4",
                    "ticks": 5304,
                    "time": 27.625,
                    "velocity": 0.3700787401574803,
                },
                {
                    "duration": 0.125,
                    "durationTicks": 24,
                    "midi": 65,
                    "name": "F4",
                    "ticks": 5328,
                    "time": 27.75,
                    "velocity": 0.3543307086614173,
                },
                {
                    "duration": 0.125,
                    "durationTicks": 24,
                    "midi": 71,
                    "name": "B4",
                    "ticks": 5352,
                    "time": 27.875,
                    "velocity": 0.3543307086614173,
                },
                {
                    "duration": 0.125,
                    "durationTicks": 24,
                    "midi": 60,
                    "name": "C4",
                    "ticks": 5424,
                    "time": 28.25,
                    "velocity": 0.41732283464566927,
                },
                {
                    "duration": 0.125,
                    "durationTicks": 24,
                    "midi": 67,
                    "name": "G4",
                    "ticks": 5448,
                    "time": 28.375,
                    "velocity": 0.4409448818897638,
                },
                {
                    "duration": 0.109375,
                    "durationTicks": 21,
                    "midi": 72,
                    "name": "C5",
                    "ticks": 5472,
                    "time": 28.5,
                    "velocity": 0.47244094488188976,
                },
                {
                    "duration": 0.125,
                    "durationTicks": 24,
                    "midi": 60,
                    "name": "C4",
                    "ticks": 5496,
                    "time": 28.625,
                    "velocity": 0.36220472440944884,
                },
                {
                    "duration": 0.125,
                    "durationTicks": 24,
                    "midi": 67,
                    "name": "G4",
                    "ticks": 5520,
                    "time": 28.75,
                    "velocity": 0.3543307086614173,
                },
                {
                    "duration": 0.125,
                    "durationTicks": 24,
                    "midi": 72,
                    "name": "C5",
                    "ticks": 5544,
                    "time": 28.875,
                    "velocity": 0.3543307086614173,
                },
                {
                    "duration": 0.125,
                    "durationTicks": 24,
                    "midi": 60,
                    "name": "C4",
                    "ticks": 5616,
                    "time": 29.25,
                    "velocity": 0.41732283464566927,
                },
                {
                    "duration": 0.125,
                    "durationTicks": 24,
                    "midi": 67,
                    "name": "G4",
                    "ticks": 5640,
                    "time": 29.375,
                    "velocity": 0.4409448818897638,
                },
                {
                    "duration": 0.109375,
                    "durationTicks": 21,
                    "midi": 72,
                    "name": "C5",
                    "ticks": 5664,
                    "time": 29.5,
                    "velocity": 0.4566929133858268,
                },
                {
                    "duration": 0.125,
                    "durationTicks": 24,
                    "midi": 60,
                    "name": "C4",
                    "ticks": 5688,
                    "time": 29.625,
                    "velocity": 0.3700787401574803,
                },
                {
                    "duration": 0.125,
                    "durationTicks": 24,
                    "midi": 67,
                    "name": "G4",
                    "ticks": 5712,
                    "time": 29.75,
                    "velocity": 0.3543307086614173,
                },
                {
                    "duration": 0.125,
                    "durationTicks": 24,
                    "midi": 72,
                    "name": "C5",
                    "ticks": 5736,
                    "time": 29.875,
                    "velocity": 0.3543307086614173,
                },
                {
                    "duration": 0.125,
                    "durationTicks": 24,
                    "midi": 57,
                    "name": "A3",
                    "ticks": 5808,
                    "time": 30.25,
                    "velocity": 0.3937007874015748,
                },
                {
                    "duration": 0.125,
                    "durationTicks": 24,
                    "midi": 60,
                    "name": "C4",
                    "ticks": 5832,
                    "time": 30.375,
                    "velocity": 0.41732283464566927,
                },
                {
                    "duration": 0.109375,
                    "durationTicks": 21,
                    "midi": 65,
                    "name": "F4",
                    "ticks": 5856,
                    "time": 30.5,
                    "velocity": 0.4409448818897638,
                },
                {
                    "duration": 0.125,
                    "durationTicks": 24,
                    "midi": 57,
                    "name": "A3",
                    "ticks": 5880,
                    "time": 30.625,
                    "velocity": 0.3543307086614173,
                },
                {
                    "duration": 0.125,
                    "durationTicks": 24,
                    "midi": 60,
                    "name": "C4",
                    "ticks": 5904,
                    "time": 30.75,
                    "velocity": 0.33070866141732286,
                },
                {
                    "duration": 0.125,
                    "durationTicks": 24,
                    "midi": 65,
                    "name": "F4",
                    "ticks": 5928,
                    "time": 30.875,
                    "velocity": 0.33070866141732286,
                },
                {
                    "duration": 0.125,
                    "durationTicks": 24,
                    "midi": 57,
                    "name": "A3",
                    "ticks": 6000,
                    "time": 31.25,
                    "velocity": 0.3937007874015748,
                },
                {
                    "duration": 0.125,
                    "durationTicks": 24,
                    "midi": 60,
                    "name": "C4",
                    "ticks": 6024,
                    "time": 31.375,
                    "velocity": 0.41732283464566927,
                },
                {
                    "duration": 0.109375,
                    "durationTicks": 21,
                    "midi": 65,
                    "name": "F4",
                    "ticks": 6048,
                    "time": 31.5,
                    "velocity": 0.4330708661417323,
                },
                {
                    "duration": 0.125,
                    "durationTicks": 24,
                    "midi": 57,
                    "name": "A3",
                    "ticks": 6072,
                    "time": 31.625,
                    "velocity": 0.3543307086614173,
                },
                {
                    "duration": 0.125,
                    "durationTicks": 24,
                    "midi": 60,
                    "name": "C4",
                    "ticks": 6096,
                    "time": 31.75,
                    "velocity": 0.33858267716535434,
                },
                {
                    "duration": 0.125,
                    "durationTicks": 24,
                    "midi": 65,
                    "name": "F4",
                    "ticks": 6120,
                    "time": 31.875,
                    "velocity": 0.33858267716535434,
                },
                {
                    "duration": 0.125,
                    "durationTicks": 24,
                    "midi": 57,
                    "name": "A3",
                    "ticks": 6192,
                    "time": 32.25,
                    "velocity": 0.3937007874015748,
                },
                {
                    "duration": 0.125,
                    "durationTicks": 24,
                    "midi": 60,
                    "name": "C4",
                    "ticks": 6216,
                    "time": 32.375,
                    "velocity": 0.41732283464566927,
                },
                {
                    "duration": 0.109375,
                    "durationTicks": 21,
                    "midi": 65,
                    "name": "F4",
                    "ticks": 6240,
                    "time": 32.5,
                    "velocity": 0.4409448818897638,
                },
                {
                    "duration": 0.125,
                    "durationTicks": 24,
                    "midi": 57,
                    "name": "A3",
                    "ticks": 6264,
                    "time": 32.625,
                    "velocity": 0.3543307086614173,
                },
                {
                    "duration": 0.125,
                    "durationTicks": 24,
                    "midi": 60,
                    "name": "C4",
                    "ticks": 6288,
                    "time": 32.75,
                    "velocity": 0.33070866141732286,
                },
                {
                    "duration": 0.125,
                    "durationTicks": 24,
                    "midi": 65,
                    "name": "F4",
                    "ticks": 6312,
                    "time": 32.875,
                    "velocity": 0.33070866141732286,
                },
                {
                    "duration": 0.125,
                    "durationTicks": 24,
                    "midi": 57,
                    "name": "A3",
                    "ticks": 6384,
                    "time": 33.25,
                    "velocity": 0.3937007874015748,
                },
                {
                    "duration": 0.125,
                    "durationTicks": 24,
                    "midi": 60,
                    "name": "C4",
                    "ticks": 6408,
                    "time": 33.375,
                    "velocity": 0.41732283464566927,
                },
                {
                    "duration": 0.109375,
                    "durationTicks": 21,
                    "midi": 65,
                    "name": "F4",
                    "ticks": 6432,
                    "time": 33.5,
                    "velocity": 0.4330708661417323,
                },
                {
                    "duration": 0.125,
                    "durationTicks": 24,
                    "midi": 57,
                    "name": "A3",
                    "ticks": 6456,
                    "time": 33.625,
                    "velocity": 0.3543307086614173,
                },
                {
                    "duration": 0.125,
                    "durationTicks": 24,
                    "midi": 60,
                    "name": "C4",
                    "ticks": 6480,
                    "time": 33.75,
                    "velocity": 0.33858267716535434,
                },
                {
                    "duration": 0.125,
                    "durationTicks": 24,
                    "midi": 65,
                    "name": "F4",
                    "ticks": 6504,
                    "time": 33.875,
                    "velocity": 0.33858267716535434,
                },
                {
                    "duration": 0.125,
                    "durationTicks": 24,
                    "midi": 55,
                    "name": "G3",
                    "ticks": 6576,
                    "time": 34.25,
                    "velocity": 0.3937007874015748,
                },
                {
                    "duration": 0.125,
                    "durationTicks": 24,
                    "midi": 59,
                    "name": "B3",
                    "ticks": 6600,
                    "time": 34.375,
                    "velocity": 0.41732283464566927,
                },
                {
                    "duration": 0.109375,
                    "durationTicks": 21,
                    "midi": 65,
                    "name": "F4",
                    "ticks": 6624,
                    "time": 34.5,
                    "velocity": 0.4409448818897638,
                },
                {
                    "duration": 0.125,
                    "durationTicks": 24,
                    "midi": 55,
                    "name": "G3",
                    "ticks": 6648,
                    "time": 34.625,
                    "velocity": 0.3543307086614173,
                },
                {
                    "duration": 0.125,
                    "durationTicks": 24,
                    "midi": 59,
                    "name": "B3",
                    "ticks": 6672,
                    "time": 34.75,
                    "velocity": 0.33070866141732286,
                },
                {
                    "duration": 0.125,
                    "durationTicks": 24,
                    "midi": 65,
                    "name": "F4",
                    "ticks": 6696,
                    "time": 34.875,
                    "velocity": 0.33070866141732286,
                },
                {
                    "duration": 0.125,
                    "durationTicks": 24,
                    "midi": 55,
                    "name": "G3",
                    "ticks": 6768,
                    "time": 35.25,
                    "velocity": 0.3937007874015748,
                },
                {
                    "duration": 0.125,
                    "durationTicks": 24,
                    "midi": 59,
                    "name": "B3",
                    "ticks": 6792,
                    "time": 35.375,
                    "velocity": 0.41732283464566927,
                },
                {
                    "duration": 0.109375,
                    "durationTicks": 21,
                    "midi": 65,
                    "name": "F4",
                    "ticks": 6816,
                    "time": 35.5,
                    "velocity": 0.4330708661417323,
                },
                {
                    "duration": 0.125,
                    "durationTicks": 24,
                    "midi": 55,
                    "name": "G3",
                    "ticks": 6840,
                    "time": 35.625,
                    "velocity": 0.3543307086614173,
                },
                {
                    "duration": 0.125,
                    "durationTicks": 24,
                    "midi": 59,
                    "name": "B3",
                    "ticks": 6864,
                    "time": 35.75,
                    "velocity": 0.33858267716535434,
                },
                {
                    "duration": 0.125,
                    "durationTicks": 24,
                    "midi": 65,
                    "name": "F4",
                    "ticks": 6888,
                    "time": 35.875,
                    "velocity": 0.33858267716535434,
                },
                {
                    "duration": 0.125,
                    "durationTicks": 24,
                    "midi": 55,
                    "name": "G3",
                    "ticks": 6960,
                    "time": 36.25,
                    "velocity": 0.3937007874015748,
                },
                {
                    "duration": 0.125,
                    "durationTicks": 24,
                    "midi": 60,
                    "name": "C4",
                    "ticks": 6984,
                    "time": 36.375,
                    "velocity": 0.41732283464566927,
                },
                {
                    "duration": 0.109375,
                    "durationTicks": 21,
                    "midi": 64,
                    "name": "E4",
                    "ticks": 7008,
                    "time": 36.5,
                    "velocity": 0.4409448818897638,
                },
                {
                    "duration": 0.125,
                    "durationTicks": 24,
                    "midi": 55,
                    "name": "G3",
                    "ticks": 7032,
                    "time": 36.625,
                    "velocity": 0.3543307086614173,
                },
                {
                    "duration": 0.125,
                    "durationTicks": 24,
                    "midi": 60,
                    "name": "C4",
                    "ticks": 7056,
                    "time": 36.75,
                    "velocity": 0.33070866141732286,
                },
                {
                    "duration": 0.125,
                    "durationTicks": 24,
                    "midi": 64,
                    "name": "E4",
                    "ticks": 7080,
                    "time": 36.875,
                    "velocity": 0.33070866141732286,
                },
                {
                    "duration": 0.125,
                    "durationTicks": 24,
                    "midi": 55,
                    "name": "G3",
                    "ticks": 7152,
                    "time": 37.25,
                    "velocity": 0.3937007874015748,
                },
                {
                    "duration": 0.125,
                    "durationTicks": 24,
                    "midi": 60,
                    "name": "C4",
                    "ticks": 7176,
                    "time": 37.375,
                    "velocity": 0.41732283464566927,
                },
                {
                    "duration": 0.109375,
                    "durationTicks": 21,
                    "midi": 64,
                    "name": "E4",
                    "ticks": 7200,
                    "time": 37.5,
                    "velocity": 0.4330708661417323,
                },
                {
                    "duration": 0.125,
                    "durationTicks": 24,
                    "midi": 55,
                    "name": "G3",
                    "ticks": 7224,
                    "time": 37.625,
                    "velocity": 0.3543307086614173,
                },
                {
                    "duration": 0.125,
                    "durationTicks": 24,
                    "midi": 60,
                    "name": "C4",
                    "ticks": 7248,
                    "time": 37.75,
                    "velocity": 0.33858267716535434,
                },
                {
                    "duration": 0.125,
                    "durationTicks": 24,
                    "midi": 64,
                    "name": "E4",
                    "ticks": 7272,
                    "time": 37.875,
                    "velocity": 0.33858267716535434,
                },
                {
                    "duration": 0.125,
                    "durationTicks": 24,
                    "midi": 58,
                    "name": "A#3",
                    "ticks": 7344,
                    "time": 38.25,
                    "velocity": 0.3700787401574803,
                },
                {
                    "duration": 0.125,
                    "durationTicks": 24,
                    "midi": 60,
                    "name": "C4",
                    "ticks": 7368,
                    "time": 38.375,
                    "velocity": 0.3937007874015748,
                },
                {
                    "duration": 0.109375,
                    "durationTicks": 21,
                    "midi": 64,
                    "name": "E4",
                    "ticks": 7392,
                    "time": 38.5,
                    "velocity": 0.41732283464566927,
                },
                {
                    "duration": 0.125,
                    "durationTicks": 24,
                    "midi": 58,
                    "name": "A#3",
                    "ticks": 7416,
                    "time": 38.625,
                    "velocity": 0.3228346456692913,
                },
                {
                    "duration": 0.125,
                    "durationTicks": 24,
                    "midi": 60,
                    "name": "C4",
                    "ticks": 7440,
                    "time": 38.75,
                    "velocity": 0.31496062992125984,
                },
                {
                    "duration": 0.125,
                    "durationTicks": 24,
                    "midi": 64,
                    "name": "E4",
                    "ticks": 7464,
                    "time": 38.875,
                    "velocity": 0.31496062992125984,
                },
                {
                    "duration": 0.125,
                    "durationTicks": 24,
                    "midi": 58,
                    "name": "A#3",
                    "ticks": 7536,
                    "time": 39.25,
                    "velocity": 0.3700787401574803,
                },
                {
                    "duration": 0.125,
                    "durationTicks": 24,
                    "midi": 60,
                    "name": "C4",
                    "ticks": 7560,
                    "time": 39.375,
                    "velocity": 0.3937007874015748,
                },
                {
                    "duration": 0.109375,
                    "durationTicks": 21,
                    "midi": 64,
                    "name": "E4",
                    "ticks": 7584,
                    "time": 39.5,
                    "velocity": 0.4094488188976378,
                },
                {
                    "duration": 0.125,
                    "durationTicks": 24,
                    "midi": 58,
                    "name": "A#3",
                    "ticks": 7608,
                    "time": 39.625,
                    "velocity": 0.33070866141732286,
                },
                {
                    "duration": 0.125,
                    "durationTicks": 24,
                    "midi": 60,
                    "name": "C4",
                    "ticks": 7632,
                    "time": 39.75,
                    "velocity": 0.31496062992125984,
                },
                {
                    "duration": 0.125,
                    "durationTicks": 24,
                    "midi": 64,
                    "name": "E4",
                    "ticks": 7656,
                    "time": 39.875,
                    "velocity": 0.31496062992125984,
                },
                {
                    "duration": 0.125,
                    "durationTicks": 24,
                    "midi": 57,
                    "name": "A3",
                    "ticks": 7728,
                    "time": 40.25,
                    "velocity": 0.3700787401574803,
                },
                {
                    "duration": 0.125,
                    "durationTicks": 24,
                    "midi": 60,
                    "name": "C4",
                    "ticks": 7752,
                    "time": 40.375,
                    "velocity": 0.3937007874015748,
                },
                {
                    "duration": 0.109375,
                    "durationTicks": 21,
                    "midi": 64,
                    "name": "E4",
                    "ticks": 7776,
                    "time": 40.5,
                    "velocity": 0.41732283464566927,
                },
                {
                    "duration": 0.125,
                    "durationTicks": 24,
                    "midi": 57,
                    "name": "A3",
                    "ticks": 7800,
                    "time": 40.625,
                    "velocity": 0.3228346456692913,
                },
                {
                    "duration": 0.125,
                    "durationTicks": 24,
                    "midi": 60,
                    "name": "C4",
                    "ticks": 7824,
                    "time": 40.75,
                    "velocity": 0.31496062992125984,
                },
                {
                    "duration": 0.125,
                    "durationTicks": 24,
                    "midi": 64,
                    "name": "E4",
                    "ticks": 7848,
                    "time": 40.875,
                    "velocity": 0.31496062992125984,
                },
                {
                    "duration": 0.125,
                    "durationTicks": 24,
                    "midi": 57,
                    "name": "A3",
                    "ticks": 7920,
                    "time": 41.25,
                    "velocity": 0.3700787401574803,
                },
                {
                    "duration": 0.125,
                    "durationTicks": 24,
                    "midi": 60,
                    "name": "C4",
                    "ticks": 7944,
                    "time": 41.375,
                    "velocity": 0.3937007874015748,
                },
                {
                    "duration": 0.109375,
                    "durationTicks": 21,
                    "midi": 64,
                    "name": "E4",
                    "ticks": 7968,
                    "time": 41.5,
                    "velocity": 0.4094488188976378,
                },
                {
                    "duration": 0.125,
                    "durationTicks": 24,
                    "midi": 57,
                    "name": "A3",
                    "ticks": 7992,
                    "time": 41.625,
                    "velocity": 0.33070866141732286,
                },
                {
                    "duration": 0.125,
                    "durationTicks": 24,
                    "midi": 60,
                    "name": "C4",
                    "ticks": 8016,
                    "time": 41.75,
                    "velocity": 0.31496062992125984,
                },
                {
                    "duration": 0.125,
                    "durationTicks": 24,
                    "midi": 64,
                    "name": "E4",
                    "ticks": 8040,
                    "time": 41.875,
                    "velocity": 0.31496062992125984,
                },
                {
                    "duration": 0.125,
                    "durationTicks": 24,
                    "midi": 57,
                    "name": "A3",
                    "ticks": 8112,
                    "time": 42.25,
                    "velocity": 0.3937007874015748,
                },
                {
                    "duration": 0.125,
                    "durationTicks": 24,
                    "midi": 60,
                    "name": "C4",
                    "ticks": 8136,
                    "time": 42.375,
                    "velocity": 0.41732283464566927,
                },
                {
                    "duration": 0.109375,
                    "durationTicks": 21,
                    "midi": 63,
                    "name": "D#4",
                    "ticks": 8160,
                    "time": 42.5,
                    "velocity": 0.4409448818897638,
                },
                {
                    "duration": 0.125,
                    "durationTicks": 24,
                    "midi": 57,
                    "name": "A3",
                    "ticks": 8184,
                    "time": 42.625,
                    "velocity": 0.3543307086614173,
                },
                {
                    "duration": 0.125,
                    "durationTicks": 24,
                    "midi": 60,
                    "name": "C4",
                    "ticks": 8208,
                    "time": 42.75,
                    "velocity": 0.33070866141732286,
                },
                {
                    "duration": 0.125,
                    "durationTicks": 24,
                    "midi": 63,
                    "name": "D#4",
                    "ticks": 8232,
                    "time": 42.875,
                    "velocity": 0.33070866141732286,
                },
                {
                    "duration": 0.125,
                    "durationTicks": 24,
                    "midi": 57,
                    "name": "A3",
                    "ticks": 8304,
                    "time": 43.25,
                    "velocity": 0.3937007874015748,
                },
                {
                    "duration": 0.125,
                    "durationTicks": 24,
                    "midi": 60,
                    "name": "C4",
                    "ticks": 8328,
                    "time": 43.375,
                    "velocity": 0.41732283464566927,
                },
                {
                    "duration": 0.109375,
                    "durationTicks": 21,
                    "midi": 63,
                    "name": "D#4",
                    "ticks": 8352,
                    "time": 43.5,
                    "velocity": 0.4330708661417323,
                },
                {
                    "duration": 0.125,
                    "durationTicks": 24,
                    "midi": 57,
                    "name": "A3",
                    "ticks": 8376,
                    "time": 43.625,
                    "velocity": 0.3543307086614173,
                },
                {
                    "duration": 0.125,
                    "durationTicks": 24,
                    "midi": 60,
                    "name": "C4",
                    "ticks": 8400,
                    "time": 43.75,
                    "velocity": 0.33858267716535434,
                },
                {
                    "duration": 0.125,
                    "durationTicks": 24,
                    "midi": 63,
                    "name": "D#4",
                    "ticks": 8424,
                    "time": 43.875,
                    "velocity": 0.33858267716535434,
                },
                {
                    "duration": 0.125,
                    "durationTicks": 24,
                    "midi": 59,
                    "name": "B3",
                    "ticks": 8496,
                    "time": 44.25,
                    "velocity": 0.3700787401574803,
                },
                {
                    "duration": 0.125,
                    "durationTicks": 24,
                    "midi": 60,
                    "name": "C4",
                    "ticks": 8520,
                    "time": 44.375,
                    "velocity": 0.3937007874015748,
                },
                {
                    "duration": 0.109375,
                    "durationTicks": 21,
                    "midi": 62,
                    "name": "D4",
                    "ticks": 8544,
                    "time": 44.5,
                    "velocity": 0.41732283464566927,
                },
                {
                    "duration": 0.125,
                    "durationTicks": 24,
                    "midi": 59,
                    "name": "B3",
                    "ticks": 8568,
                    "time": 44.625,
                    "velocity": 0.3228346456692913,
                },
                {
                    "duration": 0.125,
                    "durationTicks": 24,
                    "midi": 60,
                    "name": "C4",
                    "ticks": 8592,
                    "time": 44.75,
                    "velocity": 0.31496062992125984,
                },
                {
                    "duration": 0.125,
                    "durationTicks": 24,
                    "midi": 62,
                    "name": "D4",
                    "ticks": 8616,
                    "time": 44.875,
                    "velocity": 0.31496062992125984,
                },
                {
                    "duration": 0.125,
                    "durationTicks": 24,
                    "midi": 59,
                    "name": "B3",
                    "ticks": 8688,
                    "time": 45.25,
                    "velocity": 0.3700787401574803,
                },
                {
                    "duration": 0.125,
                    "durationTicks": 24,
                    "midi": 60,
                    "name": "C4",
                    "ticks": 8712,
                    "time": 45.375,
                    "velocity": 0.3937007874015748,
                },
                {
                    "duration": 0.109375,
                    "durationTicks": 21,
                    "midi": 62,
                    "name": "D4",
                    "ticks": 8736,
                    "time": 45.5,
                    "velocity": 0.4094488188976378,
                },
                {
                    "duration": 0.125,
                    "durationTicks": 24,
                    "midi": 59,
                    "name": "B3",
                    "ticks": 8760,
                    "time": 45.625,
                    "velocity": 0.33070866141732286,
                },
                {
                    "duration": 0.125,
                    "durationTicks": 24,
                    "midi": 60,
                    "name": "C4",
                    "ticks": 8784,
                    "time": 45.75,
                    "velocity": 0.31496062992125984,
                },
                {
                    "duration": 0.125,
                    "durationTicks": 24,
                    "midi": 62,
                    "name": "D4",
                    "ticks": 8808,
                    "time": 45.875,
                    "velocity": 0.31496062992125984,
                },
                {
                    "duration": 0.125,
                    "durationTicks": 24,
                    "midi": 55,
                    "name": "G3",
                    "ticks": 8880,
                    "time": 46.25,
                    "velocity": 0.3937007874015748,
                },
                {
                    "duration": 0.125,
                    "durationTicks": 24,
                    "midi": 59,
                    "name": "B3",
                    "ticks": 8904,
                    "time": 46.375,
                    "velocity": 0.41732283464566927,
                },
                {
                    "duration": 0.109375,
                    "durationTicks": 21,
                    "midi": 62,
                    "name": "D4",
                    "ticks": 8928,
                    "time": 46.5,
                    "velocity": 0.4409448818897638,
                },
                {
                    "duration": 0.125,
                    "durationTicks": 24,
                    "midi": 55,
                    "name": "G3",
                    "ticks": 8952,
                    "time": 46.625,
                    "velocity": 0.3543307086614173,
                },
                {
                    "duration": 0.125,
                    "durationTicks": 24,
                    "midi": 59,
                    "name": "B3",
                    "ticks": 8976,
                    "time": 46.75,
                    "velocity": 0.33070866141732286,
                },
                {
                    "duration": 0.125,
                    "durationTicks": 24,
                    "midi": 62,
                    "name": "D4",
                    "ticks": 9000,
                    "time": 46.875,
                    "velocity": 0.33070866141732286,
                },
                {
                    "duration": 0.125,
                    "durationTicks": 24,
                    "midi": 55,
                    "name": "G3",
                    "ticks": 9072,
                    "time": 47.25,
                    "velocity": 0.3937007874015748,
                },
                {
                    "duration": 0.125,
                    "durationTicks": 24,
                    "midi": 59,
                    "name": "B3",
                    "ticks": 9096,
                    "time": 47.375,
                    "velocity": 0.41732283464566927,
                },
                {
                    "duration": 0.109375,
                    "durationTicks": 21,
                    "midi": 62,
                    "name": "D4",
                    "ticks": 9120,
                    "time": 47.5,
                    "velocity": 0.4330708661417323,
                },
                {
                    "duration": 0.125,
                    "durationTicks": 24,
                    "midi": 55,
                    "name": "G3",
                    "ticks": 9144,
                    "time": 47.625,
                    "velocity": 0.3543307086614173,
                },
                {
                    "duration": 0.125,
                    "durationTicks": 24,
                    "midi": 59,
                    "name": "B3",
                    "ticks": 9168,
                    "time": 47.75,
                    "velocity": 0.33858267716535434,
                },
                {
                    "duration": 0.125,
                    "durationTicks": 24,
                    "midi": 62,
                    "name": "D4",
                    "ticks": 9192,
                    "time": 47.875,
                    "velocity": 0.33858267716535434,
                },
                {
                    "duration": 0.125,
                    "durationTicks": 24,
                    "midi": 55,
                    "name": "G3",
                    "ticks": 9264,
                    "time": 48.25,
                    "velocity": 0.3937007874015748,
                },
                {
                    "duration": 0.125,
                    "durationTicks": 24,
                    "midi": 60,
                    "name": "C4",
                    "ticks": 9288,
                    "time": 48.375,
                    "velocity": 0.41732283464566927,
                },
                {
                    "duration": 0.109375,
                    "durationTicks": 21,
                    "midi": 64,
                    "name": "E4",
                    "ticks": 9312,
                    "time": 48.5,
                    "velocity": 0.4409448818897638,
                },
                {
                    "duration": 0.125,
                    "durationTicks": 24,
                    "midi": 55,
                    "name": "G3",
                    "ticks": 9336,
                    "time": 48.625,
                    "velocity": 0.3543307086614173,
                },
                {
                    "duration": 0.125,
                    "durationTicks": 24,
                    "midi": 60,
                    "name": "C4",
                    "ticks": 9360,
                    "time": 48.75,
                    "velocity": 0.33070866141732286,
                },
                {
                    "duration": 0.125,
                    "durationTicks": 24,
                    "midi": 64,
                    "name": "E4",
                    "ticks": 9384,
                    "time": 48.875,
                    "velocity": 0.33070866141732286,
                },
                {
                    "duration": 0.125,
                    "durationTicks": 24,
                    "midi": 55,
                    "name": "G3",
                    "ticks": 9456,
                    "time": 49.25,
                    "velocity": 0.3937007874015748,
                },
                {
                    "duration": 0.125,
                    "durationTicks": 24,
                    "midi": 60,
                    "name": "C4",
                    "ticks": 9480,
                    "time": 49.375,
                    "velocity": 0.41732283464566927,
                },
                {
                    "duration": 0.109375,
                    "durationTicks": 21,
                    "midi": 64,
                    "name": "E4",
                    "ticks": 9504,
                    "time": 49.5,
                    "velocity": 0.4330708661417323,
                },
                {
                    "duration": 0.125,
                    "durationTicks": 24,
                    "midi": 55,
                    "name": "G3",
                    "ticks": 9528,
                    "time": 49.625,
                    "velocity": 0.3543307086614173,
                },
                {
                    "duration": 0.125,
                    "durationTicks": 24,
                    "midi": 60,
                    "name": "C4",
                    "ticks": 9552,
                    "time": 49.75,
                    "velocity": 0.33858267716535434,
                },
                {
                    "duration": 0.125,
                    "durationTicks": 24,
                    "midi": 64,
                    "name": "E4",
                    "ticks": 9576,
                    "time": 49.875,
                    "velocity": 0.33858267716535434,
                },
                {
                    "duration": 0.125,
                    "durationTicks": 24,
                    "midi": 55,
                    "name": "G3",
                    "ticks": 9648,
                    "time": 50.25,
                    "velocity": 0.41732283464566927,
                },
                {
                    "duration": 0.125,
                    "durationTicks": 24,
                    "midi": 60,
                    "name": "C4",
                    "ticks": 9672,
                    "time": 50.375,
                    "velocity": 0.4409448818897638,
                },
                {
                    "duration": 0.109375,
                    "durationTicks": 21,
                    "midi": 65,
                    "name": "F4",
                    "ticks": 9696,
                    "time": 50.5,
                    "velocity": 0.47244094488188976,
                },
                {
                    "duration": 0.125,
                    "durationTicks": 24,
                    "midi": 55,
                    "name": "G3",
                    "ticks": 9720,
                    "time": 50.625,
                    "velocity": 0.36220472440944884,
                },
                {
                    "duration": 0.125,
                    "durationTicks": 24,
                    "midi": 60,
                    "name": "C4",
                    "ticks": 9744,
                    "time": 50.75,
                    "velocity": 0.3543307086614173,
                },
                {
                    "duration": 0.125,
                    "durationTicks": 24,
                    "midi": 65,
                    "name": "F4",
                    "ticks": 9768,
                    "time": 50.875,
                    "velocity": 0.3543307086614173,
                },
                {
                    "duration": 0.125,
                    "durationTicks": 24,
                    "midi": 55,
                    "name": "G3",
                    "ticks": 9840,
                    "time": 51.25,
                    "velocity": 0.41732283464566927,
                },
                {
                    "duration": 0.125,
                    "durationTicks": 24,
                    "midi": 60,
                    "name": "C4",
                    "ticks": 9864,
                    "time": 51.375,
                    "velocity": 0.4409448818897638,
                },
                {
                    "duration": 0.109375,
                    "durationTicks": 21,
                    "midi": 65,
                    "name": "F4",
                    "ticks": 9888,
                    "time": 51.5,
                    "velocity": 0.4566929133858268,
                },
                {
                    "duration": 0.125,
                    "durationTicks": 24,
                    "midi": 55,
                    "name": "G3",
                    "ticks": 9912,
                    "time": 51.625,
                    "velocity": 0.3700787401574803,
                },
                {
                    "duration": 0.125,
                    "durationTicks": 24,
                    "midi": 60,
                    "name": "C4",
                    "ticks": 9936,
                    "time": 51.75,
                    "velocity": 0.3543307086614173,
                },
                {
                    "duration": 0.125,
                    "durationTicks": 24,
                    "midi": 65,
                    "name": "F4",
                    "ticks": 9960,
                    "time": 51.875,
                    "velocity": 0.3543307086614173,
                },
                {
                    "duration": 0.125,
                    "durationTicks": 24,
                    "midi": 55,
                    "name": "G3",
                    "ticks": 10032,
                    "time": 52.25,
                    "velocity": 0.41732283464566927,
                },
                {
                    "duration": 0.125,
                    "durationTicks": 24,
                    "midi": 59,
                    "name": "B3",
                    "ticks": 10056,
                    "time": 52.375,
                    "velocity": 0.4409448818897638,
                },
                {
                    "duration": 0.109375,
                    "durationTicks": 21,
                    "midi": 65,
                    "name": "F4",
                    "ticks": 10080,
                    "time": 52.5,
                    "velocity": 0.47244094488188976,
                },
                {
                    "duration": 0.125,
                    "durationTicks": 24,
                    "midi": 55,
                    "name": "G3",
                    "ticks": 10104,
                    "time": 52.625,
                    "velocity": 0.36220472440944884,
                },
                {
                    "duration": 0.125,
                    "durationTicks": 24,
                    "midi": 59,
                    "name": "B3",
                    "ticks": 10128,
                    "time": 52.75,
                    "velocity": 0.3543307086614173,
                },
                {
                    "duration": 0.125,
                    "durationTicks": 24,
                    "midi": 65,
                    "name": "F4",
                    "ticks": 10152,
                    "time": 52.875,
                    "velocity": 0.3543307086614173,
                },
                {
                    "duration": 0.125,
                    "durationTicks": 24,
                    "midi": 55,
                    "name": "G3",
                    "ticks": 10224,
                    "time": 53.25,
                    "velocity": 0.41732283464566927,
                },
                {
                    "duration": 0.125,
                    "durationTicks": 24,
                    "midi": 59,
                    "name": "B3",
                    "ticks": 10248,
                    "time": 53.375,
                    "velocity": 0.4409448818897638,
                },
                {
                    "duration": 0.109375,
                    "durationTicks": 21,
                    "midi": 65,
                    "name": "F4",
                    "ticks": 10272,
                    "time": 53.5,
                    "velocity": 0.4566929133858268,
                },
                {
                    "duration": 0.125,
                    "durationTicks": 24,
                    "midi": 55,
                    "name": "G3",
                    "ticks": 10296,
                    "time": 53.625,
                    "velocity": 0.3700787401574803,
                },
                {
                    "duration": 0.125,
                    "durationTicks": 24,
                    "midi": 59,
                    "name": "B3",
                    "ticks": 10320,
                    "time": 53.75,
                    "velocity": 0.3543307086614173,
                },
                {
                    "duration": 0.125,
                    "durationTicks": 24,
                    "midi": 65,
                    "name": "F4",
                    "ticks": 10344,
                    "time": 53.875,
                    "velocity": 0.3543307086614173,
                },
                {
                    "duration": 0.125,
                    "durationTicks": 24,
                    "midi": 57,
                    "name": "A3",
                    "ticks": 10416,
                    "time": 54.25,
                    "velocity": 0.4409448818897638,
                },
                {
                    "duration": 0.125,
                    "durationTicks": 24,
                    "midi": 60,
                    "name": "C4",
                    "ticks": 10440,
                    "time": 54.375,
                    "velocity": 0.47244094488188976,
                },
                {
                    "duration": 0.109375,
                    "durationTicks": 21,
                    "midi": 66,
                    "name": "F#4",
                    "ticks": 10464,
                    "time": 54.5,
                    "velocity": 0.49606299212598426,
                },
                {
                    "duration": 0.125,
                    "durationTicks": 24,
                    "midi": 57,
                    "name": "A3",
                    "ticks": 10488,
                    "time": 54.625,
                    "velocity": 0.3937007874015748,
                },
                {
                    "duration": 0.125,
                    "durationTicks": 24,
                    "midi": 60,
                    "name": "C4",
                    "ticks": 10512,
                    "time": 54.75,
                    "velocity": 0.3700787401574803,
                },
                {
                    "duration": 0.125,
                    "durationTicks": 24,
                    "midi": 66,
                    "name": "F#4",
                    "ticks": 10536,
                    "time": 54.875,
                    "velocity": 0.3700787401574803,
                },
                {
                    "duration": 0.125,
                    "durationTicks": 24,
                    "midi": 57,
                    "name": "A3",
                    "ticks": 10608,
                    "time": 55.25,
                    "velocity": 0.4409448818897638,
                },
                {
                    "duration": 0.125,
                    "durationTicks": 24,
                    "midi": 60,
                    "name": "C4",
                    "ticks": 10632,
                    "time": 55.375,
                    "velocity": 0.47244094488188976,
                },
                {
                    "duration": 0.109375,
                    "durationTicks": 21,
                    "midi": 66,
                    "name": "F#4",
                    "ticks": 10656,
                    "time": 55.5,
                    "velocity": 0.4881889763779528,
                },
                {
                    "duration": 0.125,
                    "durationTicks": 24,
                    "midi": 57,
                    "name": "A3",
                    "ticks": 10680,
                    "time": 55.625,
                    "velocity": 0.3937007874015748,
                },
                {
                    "duration": 0.125,
                    "durationTicks": 24,
                    "midi": 60,
                    "name": "C4",
                    "ticks": 10704,
                    "time": 55.75,
                    "velocity": 0.3779527559055118,
                },
                {
                    "duration": 0.125,
                    "durationTicks": 24,
                    "midi": 66,
                    "name": "F#4",
                    "ticks": 10728,
                    "time": 55.875,
                    "velocity": 0.3779527559055118,
                },
                {
                    "duration": 0.125,
                    "durationTicks": 24,
                    "midi": 55,
                    "name": "G3",
                    "ticks": 10800,
                    "time": 56.25,
                    "velocity": 0.4566929133858268,
                },
                {
                    "duration": 0.125,
                    "durationTicks": 24,
                    "midi": 60,
                    "name": "C4",
                    "ticks": 10824,
                    "time": 56.375,
                    "velocity": 0.49606299212598426,
                },
                {
                    "duration": 0.109375,
                    "durationTicks": 21,
                    "midi": 67,
                    "name": "G4",
                    "ticks": 10848,
                    "time": 56.5,
                    "velocity": 0.5196850393700787,
                },
                {
                    "duration": 0.125,
                    "durationTicks": 24,
                    "midi": 55,
                    "name": "G3",
                    "ticks": 10872,
                    "time": 56.625,
                    "velocity": 0.4015748031496063,
                },
                {
                    "duration": 0.125,
                    "durationTicks": 24,
                    "midi": 60,
                    "name": "C4",
                    "ticks": 10896,
                    "time": 56.75,
                    "velocity": 0.3937007874015748,
                },
                {
                    "duration": 0.125,
                    "durationTicks": 24,
                    "midi": 67,
                    "name": "G4",
                    "ticks": 10920,
                    "time": 56.875,
                    "velocity": 0.3937007874015748,
                },
                {
                    "duration": 0.125,
                    "durationTicks": 24,
                    "midi": 55,
                    "name": "G3",
                    "ticks": 10992,
                    "time": 57.25,
                    "velocity": 0.4566929133858268,
                },
                {
                    "duration": 0.125,
                    "durationTicks": 24,
                    "midi": 60,
                    "name": "C4",
                    "ticks": 11016,
                    "time": 57.375,
                    "velocity": 0.4881889763779528,
                },
                {
                    "duration": 0.109375,
                    "durationTicks": 21,
                    "midi": 67,
                    "name": "G4",
                    "ticks": 11040,
                    "time": 57.5,
                    "velocity": 0.5118110236220472,
                },
                {
                    "duration": 0.125,
                    "durationTicks": 24,
                    "midi": 55,
                    "name": "G3",
                    "ticks": 11064,
                    "time": 57.625,
                    "velocity": 0.4094488188976378,
                },
                {
                    "duration": 0.125,
                    "durationTicks": 24,
                    "midi": 60,
                    "name": "C4",
                    "ticks": 11088,
                    "time": 57.75,
                    "velocity": 0.3937007874015748,
                },
                {
                    "duration": 0.125,
                    "durationTicks": 24,
                    "midi": 67,
                    "name": "G4",
                    "ticks": 11112,
                    "time": 57.875,
                    "velocity": 0.3937007874015748,
                },
                {
                    "duration": 0.125,
                    "durationTicks": 24,
                    "midi": 55,
                    "name": "G3",
                    "ticks": 11184,
                    "time": 58.25,
                    "velocity": 0.3937007874015748,
                },
                {
                    "duration": 0.125,
                    "durationTicks": 24,
                    "midi": 60,
                    "name": "C4",
                    "ticks": 11208,
                    "time": 58.375,
                    "velocity": 0.41732283464566927,
                },
                {
                    "duration": 0.109375,
                    "durationTicks": 21,
                    "midi": 65,
                    "name": "F4",
                    "ticks": 11232,
                    "time": 58.5,
                    "velocity": 0.4409448818897638,
                },
                {
                    "duration": 0.125,
                    "durationTicks": 24,
                    "midi": 55,
                    "name": "G3",
                    "ticks": 11256,
                    "time": 58.625,
                    "velocity": 0.3543307086614173,
                },
                {
                    "duration": 0.125,
                    "durationTicks": 24,
                    "midi": 60,
                    "name": "C4",
                    "ticks": 11280,
                    "time": 58.75,
                    "velocity": 0.33070866141732286,
                },
                {
                    "duration": 0.125,
                    "durationTicks": 24,
                    "midi": 65,
                    "name": "F4",
                    "ticks": 11304,
                    "time": 58.875,
                    "velocity": 0.33070866141732286,
                },
                {
                    "duration": 0.125,
                    "durationTicks": 24,
                    "midi": 55,
                    "name": "G3",
                    "ticks": 11376,
                    "time": 59.25,
                    "velocity": 0.3937007874015748,
                },
                {
                    "duration": 0.125,
                    "durationTicks": 24,
                    "midi": 60,
                    "name": "C4",
                    "ticks": 11400,
                    "time": 59.375,
                    "velocity": 0.41732283464566927,
                },
                {
                    "duration": 0.109375,
                    "durationTicks": 21,
                    "midi": 65,
                    "name": "F4",
                    "ticks": 11424,
                    "time": 59.5,
                    "velocity": 0.4330708661417323,
                },
                {
                    "duration": 0.125,
                    "durationTicks": 24,
                    "midi": 55,
                    "name": "G3",
                    "ticks": 11448,
                    "time": 59.625,
                    "velocity": 0.3543307086614173,
                },
                {
                    "duration": 0.125,
                    "durationTicks": 24,
                    "midi": 60,
                    "name": "C4",
                    "ticks": 11472,
                    "time": 59.75,
                    "velocity": 0.33858267716535434,
                },
                {
                    "duration": 0.125,
                    "durationTicks": 24,
                    "midi": 65,
                    "name": "F4",
                    "ticks": 11496,
                    "time": 59.875,
                    "velocity": 0.33858267716535434,
                },
                {
                    "duration": 0.125,
                    "durationTicks": 24,
                    "midi": 55,
                    "name": "G3",
                    "ticks": 11568,
                    "time": 60.25,
                    "velocity": 0.3937007874015748,
                },
                {
                    "duration": 0.125,
                    "durationTicks": 24,
                    "midi": 59,
                    "name": "B3",
                    "ticks": 11592,
                    "time": 60.375,
                    "velocity": 0.41732283464566927,
                },
                {
                    "duration": 0.109375,
                    "durationTicks": 21,
                    "midi": 65,
                    "name": "F4",
                    "ticks": 11616,
                    "time": 60.5,
                    "velocity": 0.4409448818897638,
                },
                {
                    "duration": 0.125,
                    "durationTicks": 24,
                    "midi": 55,
                    "name": "G3",
                    "ticks": 11640,
                    "time": 60.625,
                    "velocity": 0.3543307086614173,
                },
                {
                    "duration": 0.125,
                    "durationTicks": 24,
                    "midi": 59,
                    "name": "B3",
                    "ticks": 11664,
                    "time": 60.75,
                    "velocity": 0.33070866141732286,
                },
                {
                    "duration": 0.125,
                    "durationTicks": 24,
                    "midi": 65,
                    "name": "F4",
                    "ticks": 11688,
                    "time": 60.875,
                    "velocity": 0.33070866141732286,
                },
                {
                    "duration": 0.125,
                    "durationTicks": 24,
                    "midi": 55,
                    "name": "G3",
                    "ticks": 11760,
                    "time": 61.25,
                    "velocity": 0.3937007874015748,
                },
                {
                    "duration": 0.125,
                    "durationTicks": 24,
                    "midi": 59,
                    "name": "B3",
                    "ticks": 11784,
                    "time": 61.375,
                    "velocity": 0.41732283464566927,
                },
                {
                    "duration": 0.109375,
                    "durationTicks": 21,
                    "midi": 65,
                    "name": "F4",
                    "ticks": 11808,
                    "time": 61.5,
                    "velocity": 0.4330708661417323,
                },
                {
                    "duration": 0.125,
                    "durationTicks": 24,
                    "midi": 55,
                    "name": "G3",
                    "ticks": 11832,
                    "time": 61.625,
                    "velocity": 0.3543307086614173,
                },
                {
                    "duration": 0.125,
                    "durationTicks": 24,
                    "midi": 59,
                    "name": "B3",
                    "ticks": 11856,
                    "time": 61.75,
                    "velocity": 0.33858267716535434,
                },
                {
                    "duration": 0.125,
                    "durationTicks": 24,
                    "midi": 65,
                    "name": "F4",
                    "ticks": 11880,
                    "time": 61.875,
                    "velocity": 0.33858267716535434,
                },
                {
                    "duration": 0.125,
                    "durationTicks": 24,
                    "midi": 55,
                    "name": "G3",
                    "ticks": 11952,
                    "time": 62.25,
                    "velocity": 0.41732283464566927,
                },
                {
                    "duration": 0.125,
                    "durationTicks": 24,
                    "midi": 58,
                    "name": "A#3",
                    "ticks": 11976,
                    "time": 62.375,
                    "velocity": 0.4409448818897638,
                },
                {
                    "duration": 0.109375,
                    "durationTicks": 21,
                    "midi": 64,
                    "name": "E4",
                    "ticks": 12000,
                    "time": 62.5,
                    "velocity": 0.47244094488188976,
                },
                {
                    "duration": 0.125,
                    "durationTicks": 24,
                    "midi": 55,
                    "name": "G3",
                    "ticks": 12024,
                    "time": 62.625,
                    "velocity": 0.36220472440944884,
                },
                {
                    "duration": 0.125,
                    "durationTicks": 24,
                    "midi": 58,
                    "name": "A#3",
                    "ticks": 12048,
                    "time": 62.75,
                    "velocity": 0.3543307086614173,
                },
                {
                    "duration": 0.125,
                    "durationTicks": 24,
                    "midi": 64,
                    "name": "E4",
                    "ticks": 12072,
                    "time": 62.875,
                    "velocity": 0.3543307086614173,
                },
                {
                    "duration": 0.125,
                    "durationTicks": 24,
                    "midi": 55,
                    "name": "G3",
                    "ticks": 12144,
                    "time": 63.25,
                    "velocity": 0.41732283464566927,
                },
                {
                    "duration": 0.125,
                    "durationTicks": 24,
                    "midi": 58,
                    "name": "A#3",
                    "ticks": 12168,
                    "time": 63.375,
                    "velocity": 0.4409448818897638,
                },
                {
                    "duration": 0.109375,
                    "durationTicks": 21,
                    "midi": 64,
                    "name": "E4",
                    "ticks": 12192,
                    "time": 63.5,
                    "velocity": 0.4566929133858268,
                },
                {
                    "duration": 0.125,
                    "durationTicks": 24,
                    "midi": 55,
                    "name": "G3",
                    "ticks": 12216,
                    "time": 63.625,
                    "velocity": 0.3700787401574803,
                },
                {
                    "duration": 0.125,
                    "durationTicks": 24,
                    "midi": 58,
                    "name": "A#3",
                    "ticks": 12240,
                    "time": 63.75,
                    "velocity": 0.3543307086614173,
                },
                {
                    "duration": 0.125,
                    "durationTicks": 24,
                    "midi": 64,
                    "name": "E4",
                    "ticks": 12264,
                    "time": 63.875,
                    "velocity": 0.3543307086614173,
                },
                {
                    "duration": 0.125,
                    "durationTicks": 24,
                    "midi": 53,
                    "name": "F3",
                    "ticks": 12336,
                    "time": 64.25,
                    "velocity": 0.3937007874015748,
                },
                {
                    "duration": 0.125,
                    "durationTicks": 24,
                    "midi": 57,
                    "name": "A3",
                    "ticks": 12360,
                    "time": 64.375,
                    "velocity": 0.41732283464566927,
                },
                {
                    "duration": 0.125,
                    "durationTicks": 24,
                    "midi": 60,
                    "name": "C4",
                    "ticks": 12384,
                    "time": 64.5,
                    "velocity": 0.4330708661417323,
                },
                {
                    "duration": 0.125,
                    "durationTicks": 24,
                    "midi": 65,
                    "name": "F4",
                    "ticks": 12408,
                    "time": 64.625,
                    "velocity": 0.41732283464566927,
                },
                {
                    "duration": 0.125,
                    "durationTicks": 24,
                    "midi": 60,
                    "name": "C4",
                    "ticks": 12432,
                    "time": 64.75,
                    "velocity": 0.41732283464566927,
                },
                {
                    "duration": 0.125,
                    "durationTicks": 24,
                    "midi": 57,
                    "name": "A3",
                    "ticks": 12456,
                    "time": 64.875,
                    "velocity": 0.41732283464566927,
                },
                {
                    "duration": 0.125,
                    "durationTicks": 24,
                    "midi": 60,
                    "name": "C4",
                    "ticks": 12480,
                    "time": 65,
                    "velocity": 0.4330708661417323,
                },
                {
                    "duration": 0.125,
                    "durationTicks": 24,
                    "midi": 57,
                    "name": "A3",
                    "ticks": 12504,
                    "time": 65.125,
                    "velocity": 0.3937007874015748,
                },
                {
                    "duration": 0.125,
                    "durationTicks": 24,
                    "midi": 53,
                    "name": "F3",
                    "ticks": 12528,
                    "time": 65.25,
                    "velocity": 0.3700787401574803,
                },
                {
                    "duration": 0.125,
                    "durationTicks": 24,
                    "midi": 57,
                    "name": "A3",
                    "ticks": 12552,
                    "time": 65.375,
                    "velocity": 0.36220472440944884,
                },
                {
                    "duration": 0.125,
                    "durationTicks": 24,
                    "midi": 53,
                    "name": "F3",
                    "ticks": 12576,
                    "time": 65.5,
                    "velocity": 0.36220472440944884,
                },
                {
                    "duration": 0.125,
                    "durationTicks": 24,
                    "midi": 50,
                    "name": "D3",
                    "ticks": 12600,
                    "time": 65.625,
                    "velocity": 0.33070866141732286,
                },
                {
                    "duration": 0.125,
                    "durationTicks": 24,
                    "midi": 53,
                    "name": "F3",
                    "ticks": 12624,
                    "time": 65.75,
                    "velocity": 0.33858267716535434,
                },
                {
                    "duration": 0.125,
                    "durationTicks": 24,
                    "midi": 50,
                    "name": "D3",
                    "ticks": 12648,
                    "time": 65.875,
                    "velocity": 0.2992125984251969,
                },
                {
                    "duration": 0.125,
                    "durationTicks": 24,
                    "midi": 67,
                    "name": "G4",
                    "ticks": 12720,
                    "time": 66.25,
                    "velocity": 0.3937007874015748,
                },
                {
                    "duration": 0.125,
                    "durationTicks": 24,
                    "midi": 71,
                    "name": "B4",
                    "ticks": 12744,
                    "time": 66.375,
                    "velocity": 0.41732283464566927,
                },
                {
                    "duration": 0.125,
                    "durationTicks": 24,
                    "midi": 74,
                    "name": "D5",
                    "ticks": 12768,
                    "time": 66.5,
                    "velocity": 0.4330708661417323,
                },
                {
                    "duration": 0.125,
                    "durationTicks": 24,
                    "midi": 77,
                    "name": "F5",
                    "ticks": 12792,
                    "time": 66.625,
                    "velocity": 0.47244094488188976,
                },
                {
                    "duration": 0.125,
                    "durationTicks": 24,
                    "midi": 74,
                    "name": "D5",
                    "ticks": 12816,
                    "time": 66.75,
                    "velocity": 0.4330708661417323,
                },
                {
                    "duration": 0.125,
                    "durationTicks": 24,
                    "midi": 71,
                    "name": "B4",
                    "ticks": 12840,
                    "time": 66.875,
                    "velocity": 0.41732283464566927,
                },
                {
                    "duration": 0.125,
                    "durationTicks": 24,
                    "midi": 74,
                    "name": "D5",
                    "ticks": 12864,
                    "time": 67,
                    "velocity": 0.4409448818897638,
                },
                {
                    "duration": 0.125,
                    "durationTicks": 24,
                    "midi": 71,
                    "name": "B4",
                    "ticks": 12888,
                    "time": 67.125,
                    "velocity": 0.41732283464566927,
                },
                {
                    "duration": 0.125,
                    "durationTicks": 24,
                    "midi": 67,
                    "name": "G4",
                    "ticks": 12912,
                    "time": 67.25,
                    "velocity": 0.4409448818897638,
                },
                {
                    "duration": 0.125,
                    "durationTicks": 24,
                    "midi": 71,
                    "name": "B4",
                    "ticks": 12936,
                    "time": 67.375,
                    "velocity": 0.41732283464566927,
                },
                {
                    "duration": 0.125,
                    "durationTicks": 24,
                    "midi": 62,
                    "name": "D4",
                    "ticks": 12960,
                    "time": 67.5,
                    "velocity": 0.4330708661417323,
                },
                {
                    "duration": 0.125,
                    "durationTicks": 24,
                    "midi": 65,
                    "name": "F4",
                    "ticks": 12984,
                    "time": 67.625,
                    "velocity": 0.3937007874015748,
                },
                {
                    "duration": 0.125,
                    "durationTicks": 24,
                    "midi": 64,
                    "name": "E4",
                    "ticks": 13008,
                    "time": 67.75,
                    "velocity": 0.3937007874015748,
                },
                {
                    "duration": 0.125,
                    "durationTicks": 24,
                    "midi": 62,
                    "name": "D4",
                    "ticks": 13032,
                    "time": 67.875,
                    "velocity": 0.3937007874015748,
                },
                {
                    "duration": 1.5,
                    "durationTicks": 288,
                    "midi": 64,
                    "name": "E4",
                    "ticks": 13056,
                    "time": 68,
                    "velocity": 0.3937007874015748,
                },
                {
                    "duration": 1.5,
                    "durationTicks": 288,
                    "midi": 67,
                    "name": "G4",
                    "ticks": 13056,
                    "time": 68,
                    "velocity": 0.3937007874015748,
                },
                {
                    "duration": 1.5,
                    "durationTicks": 288,
                    "midi": 72,
                    "name": "C5",
                    "ticks": 13056,
                    "time": 68,
                    "velocity": 0.3937007874015748,
                },
            ],
            "endOfTrackTicks": 13344,
        }
    ],
}
