beat = {
    "header": {
        "keySignatures": [{"key": "C", "scale": "major", "ticks": 0}],
        "meta": [],
        "name": "untitled",
        "ppq": 120,
        "tempos": [{"bpm": 100, "ticks": 0}],
        "timeSignatures": [{"ticks": 0, "timeSignature": [4, 4], "measures": 0}],
    },
    "tracks": [
        {
            "channel": 9,
            "controlChanges": {},
            "pitchBends": [],
            "instrument": {"family": "drums", "number": 0, "name": "standard kit"},
            "name": "Track 1",
            "notes": [
                {
                    "duration": 0.049999999999999996,
                    "durationTicks": 10,
                    "midi": 35,
                    "name": "B1",
                    "ticks": 0,
                    "time": 0,
                    "velocity": 1,
                },
                {
                    "duration": 0.049999999999999996,
                    "durationTicks": 10,
                    "midi": 42,
                    "name": "F#2",
                    "ticks": 0,
                    "time": 0,
                    "velocity": 0.7559055118110236,
                },
                {
                    "duration": 0.04999999999999999,
                    "durationTicks": 10,
                    "midi": 42,
                    "name": "F#2",
                    "ticks": 30,
                    "time": 0.15,
                    "velocity": 0.30708661417322836,
                },
                {
                    "duration": 0.050000000000000044,
                    "durationTicks": 10,
                    "midi": 42,
                    "name": "F#2",
                    "ticks": 60,
                    "time": 0.3,
                    "velocity": 0.5590551181102362,
                },
                {
                    "duration": 0.050000000000000044,
                    "durationTicks": 10,
                    "midi": 42,
                    "name": "F#2",
                    "ticks": 90,
                    "time": 0.44999999999999996,
                    "velocity": 0.30708661417322836,
                },
                {
                    "duration": 0.04999999999999993,
                    "durationTicks": 10,
                    "midi": 75,
                    "name": "D#5",
                    "ticks": 120,
                    "time": 0.6,
                    "velocity": 0.8267716535433071,
                },
                {
                    "duration": 0.04999999999999993,
                    "durationTicks": 10,
                    "midi": 37,
                    "name": "C#2",
                    "ticks": 120,
                    "time": 0.6,
                    "velocity": 1,
                },
                {
                    "duration": 0.04999999999999993,
                    "durationTicks": 10,
                    "midi": 42,
                    "name": "F#2",
                    "ticks": 120,
                    "time": 0.6,
                    "velocity": 0.6850393700787402,
                },
                {
                    "duration": 0.04999999999999993,
                    "durationTicks": 10,
                    "midi": 42,
                    "name": "F#2",
                    "ticks": 150,
                    "time": 0.75,
                    "velocity": 0.30708661417322836,
                },
                {
                    "duration": 0.050000000000000044,
                    "durationTicks": 10,
                    "midi": 35,
                    "name": "B1",
                    "ticks": 180,
                    "time": 0.8999999999999999,
                    "velocity": 0.7480314960629921,
                },
                {
                    "duration": 0.050000000000000044,
                    "durationTicks": 10,
                    "midi": 42,
                    "name": "F#2",
                    "ticks": 180,
                    "time": 0.8999999999999999,
                    "velocity": 0.5590551181102362,
                },
                {
                    "duration": 0.04999999999999982,
                    "durationTicks": 10,
                    "midi": 42,
                    "name": "F#2",
                    "ticks": 210,
                    "time": 1.05,
                    "velocity": 0.30708661417322836,
                },
                {
                    "duration": 0.050000000000000044,
                    "durationTicks": 10,
                    "midi": 35,
                    "name": "B1",
                    "ticks": 240,
                    "time": 1.2,
                    "velocity": 1,
                },
                {
                    "duration": 0.050000000000000044,
                    "durationTicks": 10,
                    "midi": 42,
                    "name": "F#2",
                    "ticks": 240,
                    "time": 1.2,
                    "velocity": 0.8110236220472441,
                },
                {
                    "duration": 0.050000000000000266,
                    "durationTicks": 10,
                    "midi": 42,
                    "name": "F#2",
                    "ticks": 270,
                    "time": 1.3499999999999999,
                    "velocity": 0.30708661417322836,
                },
                {
                    "duration": 0.050000000000000044,
                    "durationTicks": 10,
                    "midi": 42,
                    "name": "F#2",
                    "ticks": 300,
                    "time": 1.5,
                    "velocity": 0.5590551181102362,
                },
                {
                    "duration": 0.050000000000000044,
                    "durationTicks": 10,
                    "midi": 62,
                    "name": "D4",
                    "ticks": 330,
                    "time": 1.65,
                    "velocity": 0.5039370078740157,
                },
                {
                    "duration": 0.050000000000000044,
                    "durationTicks": 10,
                    "midi": 42,
                    "name": "F#2",
                    "ticks": 330,
                    "time": 1.65,
                    "velocity": 0.30708661417322836,
                },
                {
                    "duration": 0.050000000000000266,
                    "durationTicks": 10,
                    "midi": 62,
                    "name": "D4",
                    "ticks": 360,
                    "time": 1.7999999999999998,
                    "velocity": 1,
                },
                {
                    "duration": 0.050000000000000266,
                    "durationTicks": 10,
                    "midi": 37,
                    "name": "C#2",
                    "ticks": 360,
                    "time": 1.7999999999999998,
                    "velocity": 1,
                },
                {
                    "duration": 0.050000000000000266,
                    "durationTicks": 10,
                    "midi": 42,
                    "name": "F#2",
                    "ticks": 360,
                    "time": 1.7999999999999998,
                    "velocity": 0.6850393700787402,
                },
                {
                    "duration": 0.050000000000000044,
                    "durationTicks": 10,
                    "midi": 42,
                    "name": "F#2",
                    "ticks": 390,
                    "time": 1.95,
                    "velocity": 0.30708661417322836,
                },
                {
                    "duration": 0.04999999999999982,
                    "durationTicks": 10,
                    "midi": 42,
                    "name": "F#2",
                    "ticks": 420,
                    "time": 2.1,
                    "velocity": 0.5590551181102362,
                },
                {
                    "duration": 0.04999999999999982,
                    "durationTicks": 10,
                    "midi": 46,
                    "name": "A#2",
                    "ticks": 450,
                    "time": 2.25,
                    "velocity": 0.4330708661417323,
                },
                {
                    "duration": 0.04999999999999982,
                    "durationTicks": 10,
                    "midi": 35,
                    "name": "B1",
                    "ticks": 480,
                    "time": 2.4,
                    "velocity": 1,
                },
                {
                    "duration": 0.04999999999999982,
                    "durationTicks": 10,
                    "midi": 42,
                    "name": "F#2",
                    "ticks": 480,
                    "time": 2.4,
                    "velocity": 0.7559055118110236,
                },
                {
                    "duration": 0.04999999999999982,
                    "durationTicks": 10,
                    "midi": 42,
                    "name": "F#2",
                    "ticks": 510,
                    "time": 2.55,
                    "velocity": 0.30708661417322836,
                },
                {
                    "duration": 0.04999999999999982,
                    "durationTicks": 10,
                    "midi": 42,
                    "name": "F#2",
                    "ticks": 540,
                    "time": 2.6999999999999997,
                    "velocity": 0.5590551181102362,
                },
                {
                    "duration": 0.04999999999999982,
                    "durationTicks": 10,
                    "midi": 42,
                    "name": "F#2",
                    "ticks": 570,
                    "time": 2.85,
                    "velocity": 0.30708661417322836,
                },
                {
                    "duration": 0.04999999999999982,
                    "durationTicks": 10,
                    "midi": 75,
                    "name": "D#5",
                    "ticks": 600,
                    "time": 3,
                    "velocity": 0.8267716535433071,
                },
                {
                    "duration": 0.04999999999999982,
                    "durationTicks": 10,
                    "midi": 37,
                    "name": "C#2",
                    "ticks": 600,
                    "time": 3,
                    "velocity": 1,
                },
                {
                    "duration": 0.04999999999999982,
                    "durationTicks": 10,
                    "midi": 42,
                    "name": "F#2",
                    "ticks": 600,
                    "time": 3,
                    "velocity": 0.6850393700787402,
                },
                {
                    "duration": 0.04999999999999982,
                    "durationTicks": 10,
                    "midi": 42,
                    "name": "F#2",
                    "ticks": 630,
                    "time": 3.15,
                    "velocity": 0.30708661417322836,
                },
                {
                    "duration": 0.04999999999999982,
                    "durationTicks": 10,
                    "midi": 35,
                    "name": "B1",
                    "ticks": 660,
                    "time": 3.3,
                    "velocity": 0.7480314960629921,
                },
                {
                    "duration": 0.04999999999999982,
                    "durationTicks": 10,
                    "midi": 42,
                    "name": "F#2",
                    "ticks": 660,
                    "time": 3.3,
                    "velocity": 0.5590551181102362,
                },
                {
                    "duration": 0.04999999999999982,
                    "durationTicks": 10,
                    "midi": 42,
                    "name": "F#2",
                    "ticks": 690,
                    "time": 3.4499999999999997,
                    "velocity": 0.30708661417322836,
                },
                {
                    "duration": 0.04999999999999982,
                    "durationTicks": 10,
                    "midi": 35,
                    "name": "B1",
                    "ticks": 720,
                    "time": 3.5999999999999996,
                    "velocity": 1,
                },
                {
                    "duration": 0.04999999999999982,
                    "durationTicks": 10,
                    "midi": 42,
                    "name": "F#2",
                    "ticks": 720,
                    "time": 3.5999999999999996,
                    "velocity": 0.8110236220472441,
                },
                {
                    "duration": 0.04999999999999982,
                    "durationTicks": 10,
                    "midi": 42,
                    "name": "F#2",
                    "ticks": 750,
                    "time": 3.75,
                    "velocity": 0.30708661417322836,
                },
                {
                    "duration": 0.04999999999999982,
                    "durationTicks": 10,
                    "midi": 42,
                    "name": "F#2",
                    "ticks": 780,
                    "time": 3.9,
                    "velocity": 0.5590551181102362,
                },
                {
                    "duration": 0.04999999999999982,
                    "durationTicks": 10,
                    "midi": 69,
                    "name": "A4",
                    "ticks": 810,
                    "time": 4.05,
                    "velocity": 0.3700787401574803,
                },
                {
                    "duration": 0.04999999999999982,
                    "durationTicks": 10,
                    "midi": 42,
                    "name": "F#2",
                    "ticks": 810,
                    "time": 4.05,
                    "velocity": 0.30708661417322836,
                },
                {
                    "duration": 0.04999999999999982,
                    "durationTicks": 10,
                    "midi": 69,
                    "name": "A4",
                    "ticks": 840,
                    "time": 4.2,
                    "velocity": 0.6220472440944882,
                },
                {
                    "duration": 0.04999999999999982,
                    "durationTicks": 10,
                    "midi": 37,
                    "name": "C#2",
                    "ticks": 840,
                    "time": 4.2,
                    "velocity": 1,
                },
                {
                    "duration": 0.04999999999999982,
                    "durationTicks": 10,
                    "midi": 42,
                    "name": "F#2",
                    "ticks": 840,
                    "time": 4.2,
                    "velocity": 0.6850393700787402,
                },
                {
                    "duration": 0.04999999999999982,
                    "durationTicks": 10,
                    "midi": 42,
                    "name": "F#2",
                    "ticks": 870,
                    "time": 4.35,
                    "velocity": 0.30708661417322836,
                },
                {
                    "duration": 0.04999999999999982,
                    "durationTicks": 10,
                    "midi": 42,
                    "name": "F#2",
                    "ticks": 900,
                    "time": 4.5,
                    "velocity": 0.5590551181102362,
                },
                {
                    "duration": 0.04999999999999982,
                    "durationTicks": 10,
                    "midi": 42,
                    "name": "F#2",
                    "ticks": 930,
                    "time": 4.6499999999999995,
                    "velocity": 0.30708661417322836,
                },
                {
                    "duration": 0.05000000000000071,
                    "durationTicks": 10,
                    "midi": 35,
                    "name": "B1",
                    "ticks": 960,
                    "time": 4.8,
                    "velocity": 1,
                },
                {
                    "duration": 0.05000000000000071,
                    "durationTicks": 10,
                    "midi": 42,
                    "name": "F#2",
                    "ticks": 960,
                    "time": 4.8,
                    "velocity": 0.7559055118110236,
                },
                {
                    "duration": 0.04999999999999982,
                    "durationTicks": 10,
                    "midi": 42,
                    "name": "F#2",
                    "ticks": 990,
                    "time": 4.95,
                    "velocity": 0.30708661417322836,
                },
                {
                    "duration": 0.05000000000000071,
                    "durationTicks": 10,
                    "midi": 42,
                    "name": "F#2",
                    "ticks": 1020,
                    "time": 5.1,
                    "velocity": 0.5590551181102362,
                },
                {
                    "duration": 0.04999999999999982,
                    "durationTicks": 10,
                    "midi": 42,
                    "name": "F#2",
                    "ticks": 1050,
                    "time": 5.25,
                    "velocity": 0.30708661417322836,
                },
                {
                    "duration": 0.05000000000000071,
                    "durationTicks": 10,
                    "midi": 75,
                    "name": "D#5",
                    "ticks": 1080,
                    "time": 5.3999999999999995,
                    "velocity": 0.8267716535433071,
                },
                {
                    "duration": 0.05000000000000071,
                    "durationTicks": 10,
                    "midi": 37,
                    "name": "C#2",
                    "ticks": 1080,
                    "time": 5.3999999999999995,
                    "velocity": 1,
                },
                {
                    "duration": 0.05000000000000071,
                    "durationTicks": 10,
                    "midi": 42,
                    "name": "F#2",
                    "ticks": 1080,
                    "time": 5.3999999999999995,
                    "velocity": 0.6850393700787402,
                },
                {
                    "duration": 0.05000000000000071,
                    "durationTicks": 10,
                    "midi": 42,
                    "name": "F#2",
                    "ticks": 1110,
                    "time": 5.55,
                    "velocity": 0.30708661417322836,
                },
                {
                    "duration": 0.04999999999999982,
                    "durationTicks": 10,
                    "midi": 35,
                    "name": "B1",
                    "ticks": 1140,
                    "time": 5.7,
                    "velocity": 0.7480314960629921,
                },
                {
                    "duration": 0.04999999999999982,
                    "durationTicks": 10,
                    "midi": 42,
                    "name": "F#2",
                    "ticks": 1140,
                    "time": 5.7,
                    "velocity": 0.5590551181102362,
                },
                {
                    "duration": 0.05000000000000071,
                    "durationTicks": 10,
                    "midi": 42,
                    "name": "F#2",
                    "ticks": 1170,
                    "time": 5.85,
                    "velocity": 0.30708661417322836,
                },
                {
                    "duration": 0.04999999999999982,
                    "durationTicks": 10,
                    "midi": 35,
                    "name": "B1",
                    "ticks": 1200,
                    "time": 6,
                    "velocity": 1,
                },
                {
                    "duration": 0.04999999999999982,
                    "durationTicks": 10,
                    "midi": 42,
                    "name": "F#2",
                    "ticks": 1200,
                    "time": 6,
                    "velocity": 0.8110236220472441,
                },
                {
                    "duration": 0.05000000000000071,
                    "durationTicks": 10,
                    "midi": 42,
                    "name": "F#2",
                    "ticks": 1230,
                    "time": 6.1499999999999995,
                    "velocity": 0.30708661417322836,
                },
                {
                    "duration": 0.05000000000000071,
                    "durationTicks": 10,
                    "midi": 42,
                    "name": "F#2",
                    "ticks": 1260,
                    "time": 6.3,
                    "velocity": 0.5590551181102362,
                },
                {
                    "duration": 0.04999999999999982,
                    "durationTicks": 10,
                    "midi": 62,
                    "name": "D4",
                    "ticks": 1290,
                    "time": 6.45,
                    "velocity": 0.5039370078740157,
                },
                {
                    "duration": 0.04999999999999982,
                    "durationTicks": 10,
                    "midi": 42,
                    "name": "F#2",
                    "ticks": 1290,
                    "time": 6.45,
                    "velocity": 0.30708661417322836,
                },
                {
                    "duration": 0.05000000000000071,
                    "durationTicks": 10,
                    "midi": 62,
                    "name": "D4",
                    "ticks": 1320,
                    "time": 6.6,
                    "velocity": 1,
                },
                {
                    "duration": 0.05000000000000071,
                    "durationTicks": 10,
                    "midi": 37,
                    "name": "C#2",
                    "ticks": 1320,
                    "time": 6.6,
                    "velocity": 1,
                },
                {
                    "duration": 0.05000000000000071,
                    "durationTicks": 10,
                    "midi": 42,
                    "name": "F#2",
                    "ticks": 1320,
                    "time": 6.6,
                    "velocity": 0.6850393700787402,
                },
                {
                    "duration": 0.04999999999999982,
                    "durationTicks": 10,
                    "midi": 42,
                    "name": "F#2",
                    "ticks": 1350,
                    "time": 6.75,
                    "velocity": 0.30708661417322836,
                },
                {
                    "duration": 0.05000000000000071,
                    "durationTicks": 10,
                    "midi": 42,
                    "name": "F#2",
                    "ticks": 1380,
                    "time": 6.8999999999999995,
                    "velocity": 0.5590551181102362,
                },
                {
                    "duration": 0.05000000000000071,
                    "durationTicks": 10,
                    "midi": 46,
                    "name": "A#2",
                    "ticks": 1410,
                    "time": 7.05,
                    "velocity": 0.4330708661417323,
                },
                {
                    "duration": 0.05000000000000071,
                    "durationTicks": 10,
                    "midi": 35,
                    "name": "B1",
                    "ticks": 1440,
                    "time": 7.199999999999999,
                    "velocity": 1,
                },
                {
                    "duration": 0.05000000000000071,
                    "durationTicks": 10,
                    "midi": 42,
                    "name": "F#2",
                    "ticks": 1440,
                    "time": 7.199999999999999,
                    "velocity": 0.7559055118110236,
                },
                {
                    "duration": 0.05000000000000071,
                    "durationTicks": 10,
                    "midi": 42,
                    "name": "F#2",
                    "ticks": 1470,
                    "time": 7.35,
                    "velocity": 0.30708661417322836,
                },
                {
                    "duration": 0.04999999999999982,
                    "durationTicks": 10,
                    "midi": 42,
                    "name": "F#2",
                    "ticks": 1500,
                    "time": 7.5,
                    "velocity": 0.5590551181102362,
                },
                {
                    "duration": 0.05000000000000071,
                    "durationTicks": 10,
                    "midi": 46,
                    "name": "A#2",
                    "ticks": 1530,
                    "time": 7.6499999999999995,
                    "velocity": 0.4330708661417323,
                },
                {
                    "duration": 0.04999999999999982,
                    "durationTicks": 10,
                    "midi": 55,
                    "name": "G3",
                    "ticks": 1560,
                    "time": 7.8,
                    "velocity": 0.49606299212598426,
                },
                {
                    "duration": 0.04999999999999982,
                    "durationTicks": 10,
                    "midi": 40,
                    "name": "E2",
                    "ticks": 1560,
                    "time": 7.8,
                    "velocity": 0.8740157480314961,
                },
                {
                    "duration": 0.04999999999999982,
                    "durationTicks": 10,
                    "midi": 42,
                    "name": "F#2",
                    "ticks": 1560,
                    "time": 7.8,
                    "velocity": 0.6850393700787402,
                },
                {
                    "duration": 0.05000000000000071,
                    "durationTicks": 10,
                    "midi": 44,
                    "name": "G#2",
                    "ticks": 1590,
                    "time": 7.949999999999999,
                    "velocity": 0.6299212598425197,
                },
                {
                    "duration": 0.05000000000000071,
                    "durationTicks": 10,
                    "midi": 44,
                    "name": "G#2",
                    "ticks": 1620,
                    "time": 8.1,
                    "velocity": 0.7874015748031497,
                },
                {
                    "duration": 0.05000000000000071,
                    "durationTicks": 10,
                    "midi": 40,
                    "name": "E2",
                    "ticks": 1650,
                    "time": 8.25,
                    "velocity": 0.3700787401574803,
                },
                {
                    "duration": 0.049999999999998934,
                    "durationTicks": 10,
                    "midi": 46,
                    "name": "A#2",
                    "ticks": 1680,
                    "time": 8.4,
                    "velocity": 0.5590551181102362,
                },
                {
                    "duration": 0.049999999999998934,
                    "durationTicks": 10,
                    "midi": 35,
                    "name": "B1",
                    "ticks": 1680,
                    "time": 8.4,
                    "velocity": 1,
                },
                {
                    "duration": 0.049999999999998934,
                    "durationTicks": 10,
                    "midi": 48,
                    "name": "C3",
                    "ticks": 1705,
                    "time": 8.525,
                    "velocity": 0.30708661417322836,
                },
                {
                    "duration": 0.05000000000000071,
                    "durationTicks": 10,
                    "midi": 48,
                    "name": "C3",
                    "ticks": 1710,
                    "time": 8.549999999999999,
                    "velocity": 0.7480314960629921,
                },
                {
                    "duration": 0.05000000000000071,
                    "durationTicks": 10,
                    "midi": 47,
                    "name": "B2",
                    "ticks": 1740,
                    "time": 8.7,
                    "velocity": 0.4330708661417323,
                },
                {
                    "duration": 0.05000000000000071,
                    "durationTicks": 10,
                    "midi": 35,
                    "name": "B1",
                    "ticks": 1770,
                    "time": 8.85,
                    "velocity": 0.937007874015748,
                },
                {
                    "duration": 0.05000000000000071,
                    "durationTicks": 10,
                    "midi": 45,
                    "name": "A2",
                    "ticks": 1800,
                    "time": 9,
                    "velocity": 0.6850393700787402,
                },
                {
                    "duration": 0.049999999999998934,
                    "durationTicks": 10,
                    "midi": 43,
                    "name": "G2",
                    "ticks": 1830,
                    "time": 9.15,
                    "velocity": 0.4330708661417323,
                },
                {
                    "duration": 0.05000000000000071,
                    "durationTicks": 10,
                    "midi": 41,
                    "name": "F2",
                    "ticks": 1860,
                    "time": 9.299999999999999,
                    "velocity": 0.6220472440944882,
                },
                {
                    "duration": 0.05000000000000071,
                    "durationTicks": 10,
                    "midi": 35,
                    "name": "B1",
                    "ticks": 1890,
                    "time": 9.45,
                    "velocity": 0.937007874015748,
                },
                {
                    "duration": 0.05000000000000071,
                    "durationTicks": 10,
                    "midi": 57,
                    "name": "A3",
                    "ticks": 1915,
                    "time": 9.575,
                    "velocity": 0.5590551181102362,
                },
                {
                    "duration": 0.049999999999998934,
                    "durationTicks": 10,
                    "midi": 35,
                    "name": "B1",
                    "ticks": 1920,
                    "time": 9.6,
                    "velocity": 1,
                },
                {
                    "duration": 0.049999999999998934,
                    "durationTicks": 10,
                    "midi": 42,
                    "name": "F#2",
                    "ticks": 1920,
                    "time": 9.6,
                    "velocity": 0.7559055118110236,
                },
                {
                    "duration": 0.049999999999998934,
                    "durationTicks": 10,
                    "midi": 42,
                    "name": "F#2",
                    "ticks": 1950,
                    "time": 9.75,
                    "velocity": 0.30708661417322836,
                },
                {
                    "duration": 0.049999999999998934,
                    "durationTicks": 10,
                    "midi": 42,
                    "name": "F#2",
                    "ticks": 1980,
                    "time": 9.9,
                    "velocity": 0.5590551181102362,
                },
                {
                    "duration": 0.05000000000000071,
                    "durationTicks": 10,
                    "midi": 42,
                    "name": "F#2",
                    "ticks": 2010,
                    "time": 10.049999999999999,
                    "velocity": 0.30708661417322836,
                },
                {
                    "duration": 0.049999999999998934,
                    "durationTicks": 10,
                    "midi": 75,
                    "name": "D#5",
                    "ticks": 2040,
                    "time": 10.2,
                    "velocity": 0.8267716535433071,
                },
                {
                    "duration": 0.049999999999998934,
                    "durationTicks": 10,
                    "midi": 37,
                    "name": "C#2",
                    "ticks": 2040,
                    "time": 10.2,
                    "velocity": 1,
                },
                {
                    "duration": 0.049999999999998934,
                    "durationTicks": 10,
                    "midi": 42,
                    "name": "F#2",
                    "ticks": 2040,
                    "time": 10.2,
                    "velocity": 0.6850393700787402,
                },
                {
                    "duration": 0.049999999999998934,
                    "durationTicks": 10,
                    "midi": 42,
                    "name": "F#2",
                    "ticks": 2070,
                    "time": 10.35,
                    "velocity": 0.30708661417322836,
                },
                {
                    "duration": 0.049999999999998934,
                    "durationTicks": 10,
                    "midi": 35,
                    "name": "B1",
                    "ticks": 2100,
                    "time": 10.5,
                    "velocity": 0.7480314960629921,
                },
                {
                    "duration": 0.049999999999998934,
                    "durationTicks": 10,
                    "midi": 42,
                    "name": "F#2",
                    "ticks": 2100,
                    "time": 10.5,
                    "velocity": 0.5590551181102362,
                },
                {
                    "duration": 0.049999999999998934,
                    "durationTicks": 10,
                    "midi": 42,
                    "name": "F#2",
                    "ticks": 2130,
                    "time": 10.65,
                    "velocity": 0.30708661417322836,
                },
                {
                    "duration": 0.05000000000000071,
                    "durationTicks": 10,
                    "midi": 35,
                    "name": "B1",
                    "ticks": 2160,
                    "time": 10.799999999999999,
                    "velocity": 1,
                },
                {
                    "duration": 0.05000000000000071,
                    "durationTicks": 10,
                    "midi": 42,
                    "name": "F#2",
                    "ticks": 2160,
                    "time": 10.799999999999999,
                    "velocity": 0.8110236220472441,
                },
                {
                    "duration": 0.049999999999998934,
                    "durationTicks": 10,
                    "midi": 42,
                    "name": "F#2",
                    "ticks": 2190,
                    "time": 10.95,
                    "velocity": 0.30708661417322836,
                },
                {
                    "duration": 0.049999999999998934,
                    "durationTicks": 10,
                    "midi": 42,
                    "name": "F#2",
                    "ticks": 2220,
                    "time": 11.1,
                    "velocity": 0.5590551181102362,
                },
                {
                    "duration": 0.049999999999998934,
                    "durationTicks": 10,
                    "midi": 62,
                    "name": "D4",
                    "ticks": 2250,
                    "time": 11.25,
                    "velocity": 0.5039370078740157,
                },
                {
                    "duration": 0.049999999999998934,
                    "durationTicks": 10,
                    "midi": 42,
                    "name": "F#2",
                    "ticks": 2250,
                    "time": 11.25,
                    "velocity": 0.30708661417322836,
                },
                {
                    "duration": 0.049999999999998934,
                    "durationTicks": 10,
                    "midi": 62,
                    "name": "D4",
                    "ticks": 2280,
                    "time": 11.4,
                    "velocity": 1,
                },
                {
                    "duration": 0.049999999999998934,
                    "durationTicks": 10,
                    "midi": 37,
                    "name": "C#2",
                    "ticks": 2280,
                    "time": 11.4,
                    "velocity": 1,
                },
                {
                    "duration": 0.049999999999998934,
                    "durationTicks": 10,
                    "midi": 42,
                    "name": "F#2",
                    "ticks": 2280,
                    "time": 11.4,
                    "velocity": 0.6850393700787402,
                },
                {
                    "duration": 0.05000000000000071,
                    "durationTicks": 10,
                    "midi": 42,
                    "name": "F#2",
                    "ticks": 2310,
                    "time": 11.549999999999999,
                    "velocity": 0.30708661417322836,
                },
                {
                    "duration": 0.049999999999998934,
                    "durationTicks": 10,
                    "midi": 42,
                    "name": "F#2",
                    "ticks": 2340,
                    "time": 11.7,
                    "velocity": 0.5590551181102362,
                },
                {
                    "duration": 0.049999999999998934,
                    "durationTicks": 10,
                    "midi": 46,
                    "name": "A#2",
                    "ticks": 2370,
                    "time": 11.85,
                    "velocity": 0.4330708661417323,
                },
                {
                    "duration": 0.049999999999998934,
                    "durationTicks": 10,
                    "midi": 35,
                    "name": "B1",
                    "ticks": 2400,
                    "time": 12,
                    "velocity": 1,
                },
                {
                    "duration": 0.049999999999998934,
                    "durationTicks": 10,
                    "midi": 42,
                    "name": "F#2",
                    "ticks": 2400,
                    "time": 12,
                    "velocity": 0.7559055118110236,
                },
                {
                    "duration": 0.049999999999998934,
                    "durationTicks": 10,
                    "midi": 42,
                    "name": "F#2",
                    "ticks": 2430,
                    "time": 12.15,
                    "velocity": 0.30708661417322836,
                },
                {
                    "duration": 0.05000000000000071,
                    "durationTicks": 10,
                    "midi": 42,
                    "name": "F#2",
                    "ticks": 2460,
                    "time": 12.299999999999999,
                    "velocity": 0.5590551181102362,
                },
                {
                    "duration": 0.049999999999998934,
                    "durationTicks": 10,
                    "midi": 42,
                    "name": "F#2",
                    "ticks": 2490,
                    "time": 12.45,
                    "velocity": 0.30708661417322836,
                },
                {
                    "duration": 0.049999999999998934,
                    "durationTicks": 10,
                    "midi": 75,
                    "name": "D#5",
                    "ticks": 2520,
                    "time": 12.6,
                    "velocity": 0.8267716535433071,
                },
                {
                    "duration": 0.049999999999998934,
                    "durationTicks": 10,
                    "midi": 37,
                    "name": "C#2",
                    "ticks": 2520,
                    "time": 12.6,
                    "velocity": 1,
                },
                {
                    "duration": 0.049999999999998934,
                    "durationTicks": 10,
                    "midi": 42,
                    "name": "F#2",
                    "ticks": 2520,
                    "time": 12.6,
                    "velocity": 0.6850393700787402,
                },
                {
                    "duration": 0.049999999999998934,
                    "durationTicks": 10,
                    "midi": 42,
                    "name": "F#2",
                    "ticks": 2550,
                    "time": 12.75,
                    "velocity": 0.30708661417322836,
                },
                {
                    "duration": 0.049999999999998934,
                    "durationTicks": 10,
                    "midi": 35,
                    "name": "B1",
                    "ticks": 2580,
                    "time": 12.9,
                    "velocity": 0.7480314960629921,
                },
                {
                    "duration": 0.049999999999998934,
                    "durationTicks": 10,
                    "midi": 42,
                    "name": "F#2",
                    "ticks": 2580,
                    "time": 12.9,
                    "velocity": 0.5590551181102362,
                },
                {
                    "duration": 0.05000000000000071,
                    "durationTicks": 10,
                    "midi": 42,
                    "name": "F#2",
                    "ticks": 2610,
                    "time": 13.049999999999999,
                    "velocity": 0.30708661417322836,
                },
                {
                    "duration": 0.049999999999998934,
                    "durationTicks": 10,
                    "midi": 35,
                    "name": "B1",
                    "ticks": 2640,
                    "time": 13.2,
                    "velocity": 1,
                },
                {
                    "duration": 0.049999999999998934,
                    "durationTicks": 10,
                    "midi": 42,
                    "name": "F#2",
                    "ticks": 2640,
                    "time": 13.2,
                    "velocity": 0.8110236220472441,
                },
                {
                    "duration": 0.049999999999998934,
                    "durationTicks": 10,
                    "midi": 42,
                    "name": "F#2",
                    "ticks": 2670,
                    "time": 13.35,
                    "velocity": 0.30708661417322836,
                },
                {
                    "duration": 0.049999999999998934,
                    "durationTicks": 10,
                    "midi": 42,
                    "name": "F#2",
                    "ticks": 2700,
                    "time": 13.5,
                    "velocity": 0.5590551181102362,
                },
                {
                    "duration": 0.049999999999998934,
                    "durationTicks": 10,
                    "midi": 69,
                    "name": "A4",
                    "ticks": 2730,
                    "time": 13.65,
                    "velocity": 0.3700787401574803,
                },
                {
                    "duration": 0.049999999999998934,
                    "durationTicks": 10,
                    "midi": 42,
                    "name": "F#2",
                    "ticks": 2730,
                    "time": 13.65,
                    "velocity": 0.30708661417322836,
                },
                {
                    "duration": 0.05000000000000071,
                    "durationTicks": 10,
                    "midi": 69,
                    "name": "A4",
                    "ticks": 2760,
                    "time": 13.799999999999999,
                    "velocity": 0.6220472440944882,
                },
                {
                    "duration": 0.05000000000000071,
                    "durationTicks": 10,
                    "midi": 37,
                    "name": "C#2",
                    "ticks": 2760,
                    "time": 13.799999999999999,
                    "velocity": 1,
                },
                {
                    "duration": 0.05000000000000071,
                    "durationTicks": 10,
                    "midi": 42,
                    "name": "F#2",
                    "ticks": 2760,
                    "time": 13.799999999999999,
                    "velocity": 0.6850393700787402,
                },
                {
                    "duration": 0.049999999999998934,
                    "durationTicks": 10,
                    "midi": 42,
                    "name": "F#2",
                    "ticks": 2790,
                    "time": 13.95,
                    "velocity": 0.30708661417322836,
                },
                {
                    "duration": 0.049999999999998934,
                    "durationTicks": 10,
                    "midi": 42,
                    "name": "F#2",
                    "ticks": 2820,
                    "time": 14.1,
                    "velocity": 0.5590551181102362,
                },
                {
                    "duration": 0.049999999999998934,
                    "durationTicks": 10,
                    "midi": 42,
                    "name": "F#2",
                    "ticks": 2850,
                    "time": 14.25,
                    "velocity": 0.30708661417322836,
                },
                {
                    "duration": 0.05000000000000071,
                    "durationTicks": 10,
                    "midi": 35,
                    "name": "B1",
                    "ticks": 2880,
                    "time": 14.399999999999999,
                    "velocity": 1,
                },
                {
                    "duration": 0.05000000000000071,
                    "durationTicks": 10,
                    "midi": 42,
                    "name": "F#2",
                    "ticks": 2880,
                    "time": 14.399999999999999,
                    "velocity": 0.7559055118110236,
                },
                {
                    "duration": 0.049999999999998934,
                    "durationTicks": 10,
                    "midi": 42,
                    "name": "F#2",
                    "ticks": 2910,
                    "time": 14.549999999999999,
                    "velocity": 0.30708661417322836,
                },
                {
                    "duration": 0.049999999999998934,
                    "durationTicks": 10,
                    "midi": 42,
                    "name": "F#2",
                    "ticks": 2940,
                    "time": 14.7,
                    "velocity": 0.5590551181102362,
                },
                {
                    "duration": 0.049999999999998934,
                    "durationTicks": 10,
                    "midi": 42,
                    "name": "F#2",
                    "ticks": 2970,
                    "time": 14.85,
                    "velocity": 0.30708661417322836,
                },
                {
                    "duration": 0.049999999999998934,
                    "durationTicks": 10,
                    "midi": 75,
                    "name": "D#5",
                    "ticks": 3000,
                    "time": 15,
                    "velocity": 0.8267716535433071,
                },
                {
                    "duration": 0.049999999999998934,
                    "durationTicks": 10,
                    "midi": 37,
                    "name": "C#2",
                    "ticks": 3000,
                    "time": 15,
                    "velocity": 1,
                },
                {
                    "duration": 0.049999999999998934,
                    "durationTicks": 10,
                    "midi": 42,
                    "name": "F#2",
                    "ticks": 3000,
                    "time": 15,
                    "velocity": 0.6850393700787402,
                },
                {
                    "duration": 0.05000000000000071,
                    "durationTicks": 10,
                    "midi": 42,
                    "name": "F#2",
                    "ticks": 3030,
                    "time": 15.149999999999999,
                    "velocity": 0.30708661417322836,
                },
                {
                    "duration": 0.049999999999998934,
                    "durationTicks": 10,
                    "midi": 35,
                    "name": "B1",
                    "ticks": 3060,
                    "time": 15.299999999999999,
                    "velocity": 0.7480314960629921,
                },
                {
                    "duration": 0.049999999999998934,
                    "durationTicks": 10,
                    "midi": 42,
                    "name": "F#2",
                    "ticks": 3060,
                    "time": 15.299999999999999,
                    "velocity": 0.5590551181102362,
                },
                {
                    "duration": 0.049999999999998934,
                    "durationTicks": 10,
                    "midi": 42,
                    "name": "F#2",
                    "ticks": 3090,
                    "time": 15.45,
                    "velocity": 0.30708661417322836,
                },
                {
                    "duration": 0.049999999999998934,
                    "durationTicks": 10,
                    "midi": 35,
                    "name": "B1",
                    "ticks": 3120,
                    "time": 15.6,
                    "velocity": 1,
                },
                {
                    "duration": 0.049999999999998934,
                    "durationTicks": 10,
                    "midi": 42,
                    "name": "F#2",
                    "ticks": 3120,
                    "time": 15.6,
                    "velocity": 0.8110236220472441,
                },
                {
                    "duration": 0.049999999999998934,
                    "durationTicks": 10,
                    "midi": 42,
                    "name": "F#2",
                    "ticks": 3150,
                    "time": 15.75,
                    "velocity": 0.30708661417322836,
                },
                {
                    "duration": 0.05000000000000071,
                    "durationTicks": 10,
                    "midi": 42,
                    "name": "F#2",
                    "ticks": 3180,
                    "time": 15.899999999999999,
                    "velocity": 0.5590551181102362,
                },
                {
                    "duration": 0.04999999999999716,
                    "durationTicks": 10,
                    "midi": 62,
                    "name": "D4",
                    "ticks": 3210,
                    "time": 16.05,
                    "velocity": 0.5039370078740157,
                },
                {
                    "duration": 0.04999999999999716,
                    "durationTicks": 10,
                    "midi": 42,
                    "name": "F#2",
                    "ticks": 3210,
                    "time": 16.05,
                    "velocity": 0.30708661417322836,
                },
                {
                    "duration": 0.05000000000000071,
                    "durationTicks": 10,
                    "midi": 62,
                    "name": "D4",
                    "ticks": 3240,
                    "time": 16.2,
                    "velocity": 1,
                },
                {
                    "duration": 0.05000000000000071,
                    "durationTicks": 10,
                    "midi": 37,
                    "name": "C#2",
                    "ticks": 3240,
                    "time": 16.2,
                    "velocity": 1,
                },
                {
                    "duration": 0.05000000000000071,
                    "durationTicks": 10,
                    "midi": 42,
                    "name": "F#2",
                    "ticks": 3240,
                    "time": 16.2,
                    "velocity": 0.6850393700787402,
                },
                {
                    "duration": 0.05000000000000071,
                    "durationTicks": 10,
                    "midi": 42,
                    "name": "F#2",
                    "ticks": 3270,
                    "time": 16.349999999999998,
                    "velocity": 0.30708661417322836,
                },
                {
                    "duration": 0.04999999999999716,
                    "durationTicks": 10,
                    "midi": 42,
                    "name": "F#2",
                    "ticks": 3300,
                    "time": 16.5,
                    "velocity": 0.5590551181102362,
                },
                {
                    "duration": 0.05000000000000071,
                    "durationTicks": 10,
                    "midi": 46,
                    "name": "A#2",
                    "ticks": 3330,
                    "time": 16.65,
                    "velocity": 0.4330708661417323,
                },
                {
                    "duration": 0.04999999999999716,
                    "durationTicks": 10,
                    "midi": 35,
                    "name": "B1",
                    "ticks": 3360,
                    "time": 16.8,
                    "velocity": 1,
                },
                {
                    "duration": 0.04999999999999716,
                    "durationTicks": 10,
                    "midi": 42,
                    "name": "F#2",
                    "ticks": 3360,
                    "time": 16.8,
                    "velocity": 0.7559055118110236,
                },
                {
                    "duration": 0.05000000000000071,
                    "durationTicks": 10,
                    "midi": 42,
                    "name": "F#2",
                    "ticks": 3390,
                    "time": 16.95,
                    "velocity": 0.30708661417322836,
                },
                {
                    "duration": 0.05000000000000071,
                    "durationTicks": 10,
                    "midi": 42,
                    "name": "F#2",
                    "ticks": 3420,
                    "time": 17.099999999999998,
                    "velocity": 0.5590551181102362,
                },
                {
                    "duration": 0.04999999999999716,
                    "durationTicks": 10,
                    "midi": 46,
                    "name": "A#2",
                    "ticks": 3450,
                    "time": 17.25,
                    "velocity": 0.4330708661417323,
                },
                {
                    "duration": 0.05000000000000071,
                    "durationTicks": 10,
                    "midi": 55,
                    "name": "G3",
                    "ticks": 3480,
                    "time": 17.4,
                    "velocity": 0.49606299212598426,
                },
                {
                    "duration": 0.05000000000000071,
                    "durationTicks": 10,
                    "midi": 40,
                    "name": "E2",
                    "ticks": 3480,
                    "time": 17.4,
                    "velocity": 0.8740157480314961,
                },
                {
                    "duration": 0.05000000000000071,
                    "durationTicks": 10,
                    "midi": 42,
                    "name": "F#2",
                    "ticks": 3480,
                    "time": 17.4,
                    "velocity": 0.6850393700787402,
                },
                {
                    "duration": 0.04999999999999716,
                    "durationTicks": 10,
                    "midi": 44,
                    "name": "G#2",
                    "ticks": 3510,
                    "time": 17.55,
                    "velocity": 0.6299212598425197,
                },
                {
                    "duration": 0.05000000000000071,
                    "durationTicks": 10,
                    "midi": 44,
                    "name": "G#2",
                    "ticks": 3540,
                    "time": 17.7,
                    "velocity": 0.7874015748031497,
                },
                {
                    "duration": 0.05000000000000071,
                    "durationTicks": 10,
                    "midi": 40,
                    "name": "E2",
                    "ticks": 3570,
                    "time": 17.849999999999998,
                    "velocity": 0.3700787401574803,
                },
                {
                    "duration": 0.04999999999999716,
                    "durationTicks": 10,
                    "midi": 46,
                    "name": "A#2",
                    "ticks": 3600,
                    "time": 18,
                    "velocity": 0.5590551181102362,
                },
                {
                    "duration": 0.04999999999999716,
                    "durationTicks": 10,
                    "midi": 35,
                    "name": "B1",
                    "ticks": 3600,
                    "time": 18,
                    "velocity": 1,
                },
                {
                    "duration": 0.05000000000000071,
                    "durationTicks": 10,
                    "midi": 48,
                    "name": "C3",
                    "ticks": 3625,
                    "time": 18.125,
                    "velocity": 0.30708661417322836,
                },
                {
                    "duration": 0.05000000000000071,
                    "durationTicks": 10,
                    "midi": 48,
                    "name": "C3",
                    "ticks": 3630,
                    "time": 18.15,
                    "velocity": 0.7480314960629921,
                },
                {
                    "duration": 0.04999999999999716,
                    "durationTicks": 10,
                    "midi": 47,
                    "name": "B2",
                    "ticks": 3660,
                    "time": 18.3,
                    "velocity": 0.4330708661417323,
                },
                {
                    "duration": 0.05000000000000071,
                    "durationTicks": 10,
                    "midi": 35,
                    "name": "B1",
                    "ticks": 3690,
                    "time": 18.45,
                    "velocity": 0.937007874015748,
                },
                {
                    "duration": 0.05000000000000071,
                    "durationTicks": 10,
                    "midi": 45,
                    "name": "A2",
                    "ticks": 3720,
                    "time": 18.599999999999998,
                    "velocity": 0.6850393700787402,
                },
                {
                    "duration": 0.04999999999999716,
                    "durationTicks": 10,
                    "midi": 43,
                    "name": "G2",
                    "ticks": 3750,
                    "time": 18.75,
                    "velocity": 0.4330708661417323,
                },
                {
                    "duration": 0.05000000000000071,
                    "durationTicks": 10,
                    "midi": 41,
                    "name": "F2",
                    "ticks": 3780,
                    "time": 18.9,
                    "velocity": 0.6220472440944882,
                },
                {
                    "duration": 0.04999999999999716,
                    "durationTicks": 10,
                    "midi": 35,
                    "name": "B1",
                    "ticks": 3810,
                    "time": 19.05,
                    "velocity": 0.937007874015748,
                },
                {
                    "duration": 0.05000000000000071,
                    "durationTicks": 10,
                    "midi": 57,
                    "name": "A3",
                    "ticks": 3835,
                    "time": 19.174999999999997,
                    "velocity": 0.5590551181102362,
                },
                {
                    "duration": 0.05000000000000071,
                    "durationTicks": 10,
                    "midi": 35,
                    "name": "B1",
                    "ticks": 3840,
                    "time": 19.2,
                    "velocity": 1,
                },
                {
                    "duration": 0.05000000000000071,
                    "durationTicks": 10,
                    "midi": 42,
                    "name": "F#2",
                    "ticks": 3840,
                    "time": 19.2,
                    "velocity": 0.8110236220472441,
                },
                {
                    "duration": 0.05000000000000426,
                    "durationTicks": 10,
                    "midi": 42,
                    "name": "F#2",
                    "ticks": 3870,
                    "time": 19.349999999999998,
                    "velocity": 0.30708661417322836,
                },
                {
                    "duration": 0.05000000000000071,
                    "durationTicks": 10,
                    "midi": 42,
                    "name": "F#2",
                    "ticks": 3900,
                    "time": 19.5,
                    "velocity": 0.5590551181102362,
                },
                {
                    "duration": 0.05000000000000071,
                    "durationTicks": 10,
                    "midi": 35,
                    "name": "B1",
                    "ticks": 3930,
                    "time": 19.65,
                    "velocity": 0.8740157480314961,
                },
                {
                    "duration": 0.05000000000000071,
                    "durationTicks": 10,
                    "midi": 42,
                    "name": "F#2",
                    "ticks": 3930,
                    "time": 19.65,
                    "velocity": 0.30708661417322836,
                },
                {
                    "duration": 0.05000000000000071,
                    "durationTicks": 10,
                    "midi": 40,
                    "name": "E2",
                    "ticks": 3960,
                    "time": 19.8,
                    "velocity": 1,
                },
                {
                    "duration": 0.05000000000000071,
                    "durationTicks": 10,
                    "midi": 42,
                    "name": "F#2",
                    "ticks": 3960,
                    "time": 19.8,
                    "velocity": 0.6850393700787402,
                },
                {
                    "duration": 0.05000000000000071,
                    "durationTicks": 10,
                    "midi": 42,
                    "name": "F#2",
                    "ticks": 3990,
                    "time": 19.95,
                    "velocity": 0.30708661417322836,
                },
                {
                    "duration": 0.05000000000000426,
                    "durationTicks": 10,
                    "midi": 35,
                    "name": "B1",
                    "ticks": 4020,
                    "time": 20.099999999999998,
                    "velocity": 0.8740157480314961,
                },
                {
                    "duration": 0.05000000000000426,
                    "durationTicks": 10,
                    "midi": 42,
                    "name": "F#2",
                    "ticks": 4020,
                    "time": 20.099999999999998,
                    "velocity": 0.5590551181102362,
                },
                {
                    "duration": 0.05000000000000071,
                    "durationTicks": 10,
                    "midi": 42,
                    "name": "F#2",
                    "ticks": 4050,
                    "time": 20.25,
                    "velocity": 0.30708661417322836,
                },
                {
                    "duration": 0.05000000000000071,
                    "durationTicks": 10,
                    "midi": 35,
                    "name": "B1",
                    "ticks": 4080,
                    "time": 20.4,
                    "velocity": 1,
                },
                {
                    "duration": 0.05000000000000071,
                    "durationTicks": 10,
                    "midi": 42,
                    "name": "F#2",
                    "ticks": 4080,
                    "time": 20.4,
                    "velocity": 0.8110236220472441,
                },
                {
                    "duration": 0.05000000000000071,
                    "durationTicks": 10,
                    "midi": 42,
                    "name": "F#2",
                    "ticks": 4110,
                    "time": 20.55,
                    "velocity": 0.30708661417322836,
                },
                {
                    "duration": 0.05000000000000071,
                    "durationTicks": 10,
                    "midi": 42,
                    "name": "F#2",
                    "ticks": 4140,
                    "time": 20.7,
                    "velocity": 0.5590551181102362,
                },
                {
                    "duration": 0.05000000000000426,
                    "durationTicks": 10,
                    "midi": 42,
                    "name": "F#2",
                    "ticks": 4170,
                    "time": 20.849999999999998,
                    "velocity": 0.30708661417322836,
                },
                {
                    "duration": 0.05000000000000071,
                    "durationTicks": 10,
                    "midi": 40,
                    "name": "E2",
                    "ticks": 4200,
                    "time": 21,
                    "velocity": 1,
                },
                {
                    "duration": 0.05000000000000071,
                    "durationTicks": 10,
                    "midi": 42,
                    "name": "F#2",
                    "ticks": 4200,
                    "time": 21,
                    "velocity": 0.6850393700787402,
                },
                {
                    "duration": 0.05000000000000071,
                    "durationTicks": 10,
                    "midi": 41,
                    "name": "F2",
                    "ticks": 4205,
                    "time": 21.025,
                    "velocity": 0.6850393700787402,
                },
                {
                    "duration": 0.05000000000000071,
                    "durationTicks": 10,
                    "midi": 42,
                    "name": "F#2",
                    "ticks": 4230,
                    "time": 21.15,
                    "velocity": 0.30708661417322836,
                },
                {
                    "duration": 0.05000000000000071,
                    "durationTicks": 10,
                    "midi": 42,
                    "name": "F#2",
                    "ticks": 4260,
                    "time": 21.3,
                    "velocity": 0.5590551181102362,
                },
                {
                    "duration": 0.05000000000000071,
                    "durationTicks": 10,
                    "midi": 40,
                    "name": "E2",
                    "ticks": 4290,
                    "time": 21.45,
                    "velocity": 0.6377952755905512,
                },
                {
                    "duration": 0.05000000000000071,
                    "durationTicks": 10,
                    "midi": 46,
                    "name": "A#2",
                    "ticks": 4290,
                    "time": 21.45,
                    "velocity": 0.49606299212598426,
                },
                {
                    "duration": 0.05000000000000426,
                    "durationTicks": 10,
                    "midi": 35,
                    "name": "B1",
                    "ticks": 4320,
                    "time": 21.599999999999998,
                    "velocity": 1,
                },
                {
                    "duration": 0.05000000000000426,
                    "durationTicks": 10,
                    "midi": 42,
                    "name": "F#2",
                    "ticks": 4320,
                    "time": 21.599999999999998,
                    "velocity": 0.8110236220472441,
                },
                {
                    "duration": 0.05000000000000071,
                    "durationTicks": 10,
                    "midi": 42,
                    "name": "F#2",
                    "ticks": 4350,
                    "time": 21.75,
                    "velocity": 0.30708661417322836,
                },
                {
                    "duration": 0.05000000000000071,
                    "durationTicks": 10,
                    "midi": 42,
                    "name": "F#2",
                    "ticks": 4380,
                    "time": 21.9,
                    "velocity": 0.5590551181102362,
                },
                {
                    "duration": 0.05000000000000071,
                    "durationTicks": 10,
                    "midi": 69,
                    "name": "A4",
                    "ticks": 4410,
                    "time": 22.05,
                    "velocity": 0.4330708661417323,
                },
                {
                    "duration": 0.05000000000000071,
                    "durationTicks": 10,
                    "midi": 42,
                    "name": "F#2",
                    "ticks": 4410,
                    "time": 22.05,
                    "velocity": 0.30708661417322836,
                },
                {
                    "duration": 0.05000000000000071,
                    "durationTicks": 10,
                    "midi": 40,
                    "name": "E2",
                    "ticks": 4440,
                    "time": 22.2,
                    "velocity": 1,
                },
                {
                    "duration": 0.05000000000000071,
                    "durationTicks": 10,
                    "midi": 42,
                    "name": "F#2",
                    "ticks": 4440,
                    "time": 22.2,
                    "velocity": 0.6850393700787402,
                },
                {
                    "duration": 0.05000000000000426,
                    "durationTicks": 10,
                    "midi": 42,
                    "name": "F#2",
                    "ticks": 4470,
                    "time": 22.349999999999998,
                    "velocity": 0.30708661417322836,
                },
                {
                    "duration": 0.05000000000000071,
                    "durationTicks": 10,
                    "midi": 69,
                    "name": "A4",
                    "ticks": 4500,
                    "time": 22.5,
                    "velocity": 0.5590551181102362,
                },
                {
                    "duration": 0.05000000000000071,
                    "durationTicks": 10,
                    "midi": 35,
                    "name": "B1",
                    "ticks": 4500,
                    "time": 22.5,
                    "velocity": 1,
                },
                {
                    "duration": 0.05000000000000071,
                    "durationTicks": 10,
                    "midi": 42,
                    "name": "F#2",
                    "ticks": 4500,
                    "time": 22.5,
                    "velocity": 0.5590551181102362,
                },
                {
                    "duration": 0.05000000000000071,
                    "durationTicks": 10,
                    "midi": 42,
                    "name": "F#2",
                    "ticks": 4530,
                    "time": 22.65,
                    "velocity": 0.30708661417322836,
                },
                {
                    "duration": 0.05000000000000071,
                    "durationTicks": 10,
                    "midi": 35,
                    "name": "B1",
                    "ticks": 4560,
                    "time": 22.8,
                    "velocity": 1,
                },
                {
                    "duration": 0.05000000000000071,
                    "durationTicks": 10,
                    "midi": 42,
                    "name": "F#2",
                    "ticks": 4560,
                    "time": 22.8,
                    "velocity": 0.8110236220472441,
                },
                {
                    "duration": 0.05000000000000071,
                    "durationTicks": 10,
                    "midi": 35,
                    "name": "B1",
                    "ticks": 4590,
                    "time": 22.95,
                    "velocity": 1,
                },
                {
                    "duration": 0.05000000000000071,
                    "durationTicks": 10,
                    "midi": 42,
                    "name": "F#2",
                    "ticks": 4590,
                    "time": 22.95,
                    "velocity": 0.30708661417322836,
                },
                {
                    "duration": 0.05000000000000426,
                    "durationTicks": 10,
                    "midi": 42,
                    "name": "F#2",
                    "ticks": 4620,
                    "time": 23.099999999999998,
                    "velocity": 0.5590551181102362,
                },
                {
                    "duration": 0.05000000000000071,
                    "durationTicks": 10,
                    "midi": 46,
                    "name": "A#2",
                    "ticks": 4650,
                    "time": 23.25,
                    "velocity": 0.3700787401574803,
                },
                {
                    "duration": 0.05000000000000071,
                    "durationTicks": 10,
                    "midi": 75,
                    "name": "D#5",
                    "ticks": 4680,
                    "time": 23.4,
                    "velocity": 1,
                },
                {
                    "duration": 0.05000000000000071,
                    "durationTicks": 10,
                    "midi": 40,
                    "name": "E2",
                    "ticks": 4680,
                    "time": 23.4,
                    "velocity": 1,
                },
                {
                    "duration": 0.05000000000000071,
                    "durationTicks": 10,
                    "midi": 42,
                    "name": "F#2",
                    "ticks": 4680,
                    "time": 23.4,
                    "velocity": 0.6850393700787402,
                },
                {
                    "duration": 0.05000000000000071,
                    "durationTicks": 10,
                    "midi": 42,
                    "name": "F#2",
                    "ticks": 4710,
                    "time": 23.55,
                    "velocity": 0.30708661417322836,
                },
                {
                    "duration": 0.05000000000000071,
                    "durationTicks": 10,
                    "midi": 42,
                    "name": "F#2",
                    "ticks": 4740,
                    "time": 23.7,
                    "velocity": 0.5590551181102362,
                },
                {
                    "duration": 0.05000000000000426,
                    "durationTicks": 10,
                    "midi": 40,
                    "name": "E2",
                    "ticks": 4770,
                    "time": 23.849999999999998,
                    "velocity": 0.5590551181102362,
                },
                {
                    "duration": 0.05000000000000426,
                    "durationTicks": 10,
                    "midi": 42,
                    "name": "F#2",
                    "ticks": 4770,
                    "time": 23.849999999999998,
                    "velocity": 0.30708661417322836,
                },
                {
                    "duration": 0.05000000000000071,
                    "durationTicks": 10,
                    "midi": 35,
                    "name": "B1",
                    "ticks": 4800,
                    "time": 24,
                    "velocity": 1,
                },
                {
                    "duration": 0.05000000000000071,
                    "durationTicks": 10,
                    "midi": 42,
                    "name": "F#2",
                    "ticks": 4800,
                    "time": 24,
                    "velocity": 0.8110236220472441,
                },
                {
                    "duration": 0.05000000000000071,
                    "durationTicks": 10,
                    "midi": 42,
                    "name": "F#2",
                    "ticks": 4830,
                    "time": 24.15,
                    "velocity": 0.30708661417322836,
                },
                {
                    "duration": 0.05000000000000071,
                    "durationTicks": 10,
                    "midi": 42,
                    "name": "F#2",
                    "ticks": 4860,
                    "time": 24.3,
                    "velocity": 0.5590551181102362,
                },
                {
                    "duration": 0.05000000000000071,
                    "durationTicks": 10,
                    "midi": 35,
                    "name": "B1",
                    "ticks": 4890,
                    "time": 24.45,
                    "velocity": 0.8740157480314961,
                },
                {
                    "duration": 0.05000000000000071,
                    "durationTicks": 10,
                    "midi": 42,
                    "name": "F#2",
                    "ticks": 4890,
                    "time": 24.45,
                    "velocity": 0.30708661417322836,
                },
                {
                    "duration": 0.05000000000000426,
                    "durationTicks": 10,
                    "midi": 40,
                    "name": "E2",
                    "ticks": 4920,
                    "time": 24.599999999999998,
                    "velocity": 1,
                },
                {
                    "duration": 0.05000000000000426,
                    "durationTicks": 10,
                    "midi": 42,
                    "name": "F#2",
                    "ticks": 4920,
                    "time": 24.599999999999998,
                    "velocity": 0.6850393700787402,
                },
                {
                    "duration": 0.05000000000000071,
                    "durationTicks": 10,
                    "midi": 42,
                    "name": "F#2",
                    "ticks": 4950,
                    "time": 24.75,
                    "velocity": 0.30708661417322836,
                },
                {
                    "duration": 0.05000000000000071,
                    "durationTicks": 10,
                    "midi": 35,
                    "name": "B1",
                    "ticks": 4980,
                    "time": 24.9,
                    "velocity": 0.8740157480314961,
                },
                {
                    "duration": 0.05000000000000071,
                    "durationTicks": 10,
                    "midi": 42,
                    "name": "F#2",
                    "ticks": 4980,
                    "time": 24.9,
                    "velocity": 0.5590551181102362,
                },
                {
                    "duration": 0.05000000000000071,
                    "durationTicks": 10,
                    "midi": 42,
                    "name": "F#2",
                    "ticks": 5010,
                    "time": 25.05,
                    "velocity": 0.30708661417322836,
                },
                {
                    "duration": 0.05000000000000071,
                    "durationTicks": 10,
                    "midi": 35,
                    "name": "B1",
                    "ticks": 5040,
                    "time": 25.2,
                    "velocity": 1,
                },
                {
                    "duration": 0.05000000000000071,
                    "durationTicks": 10,
                    "midi": 42,
                    "name": "F#2",
                    "ticks": 5040,
                    "time": 25.2,
                    "velocity": 0.8110236220472441,
                },
                {
                    "duration": 0.05000000000000426,
                    "durationTicks": 10,
                    "midi": 42,
                    "name": "F#2",
                    "ticks": 5070,
                    "time": 25.349999999999998,
                    "velocity": 0.30708661417322836,
                },
                {
                    "duration": 0.05000000000000071,
                    "durationTicks": 10,
                    "midi": 42,
                    "name": "F#2",
                    "ticks": 5100,
                    "time": 25.5,
                    "velocity": 0.5590551181102362,
                },
                {
                    "duration": 0.05000000000000071,
                    "durationTicks": 10,
                    "midi": 42,
                    "name": "F#2",
                    "ticks": 5130,
                    "time": 25.65,
                    "velocity": 0.30708661417322836,
                },
                {
                    "duration": 0.05000000000000071,
                    "durationTicks": 10,
                    "midi": 40,
                    "name": "E2",
                    "ticks": 5160,
                    "time": 25.8,
                    "velocity": 1,
                },
                {
                    "duration": 0.05000000000000071,
                    "durationTicks": 10,
                    "midi": 42,
                    "name": "F#2",
                    "ticks": 5160,
                    "time": 25.8,
                    "velocity": 0.6850393700787402,
                },
                {
                    "duration": 0.05000000000000071,
                    "durationTicks": 10,
                    "midi": 41,
                    "name": "F2",
                    "ticks": 5165,
                    "time": 25.825,
                    "velocity": 0.6850393700787402,
                },
                {
                    "duration": 0.05000000000000071,
                    "durationTicks": 10,
                    "midi": 42,
                    "name": "F#2",
                    "ticks": 5190,
                    "time": 25.95,
                    "velocity": 0.30708661417322836,
                },
                {
                    "duration": 0.05000000000000426,
                    "durationTicks": 10,
                    "midi": 42,
                    "name": "F#2",
                    "ticks": 5220,
                    "time": 26.099999999999998,
                    "velocity": 0.5590551181102362,
                },
                {
                    "duration": 0.05000000000000071,
                    "durationTicks": 10,
                    "midi": 40,
                    "name": "E2",
                    "ticks": 5250,
                    "time": 26.25,
                    "velocity": 0.6377952755905512,
                },
                {
                    "duration": 0.05000000000000071,
                    "durationTicks": 10,
                    "midi": 46,
                    "name": "A#2",
                    "ticks": 5250,
                    "time": 26.25,
                    "velocity": 0.49606299212598426,
                },
                {
                    "duration": 0.05000000000000071,
                    "durationTicks": 10,
                    "midi": 35,
                    "name": "B1",
                    "ticks": 5280,
                    "time": 26.4,
                    "velocity": 1,
                },
                {
                    "duration": 0.05000000000000071,
                    "durationTicks": 10,
                    "midi": 42,
                    "name": "F#2",
                    "ticks": 5280,
                    "time": 26.4,
                    "velocity": 0.8110236220472441,
                },
                {
                    "duration": 0.05000000000000071,
                    "durationTicks": 10,
                    "midi": 42,
                    "name": "F#2",
                    "ticks": 5310,
                    "time": 26.55,
                    "velocity": 0.30708661417322836,
                },
                {
                    "duration": 0.05000000000000071,
                    "durationTicks": 10,
                    "midi": 42,
                    "name": "F#2",
                    "ticks": 5340,
                    "time": 26.7,
                    "velocity": 0.5590551181102362,
                },
                {
                    "duration": 0.05000000000000426,
                    "durationTicks": 10,
                    "midi": 69,
                    "name": "A4",
                    "ticks": 5370,
                    "time": 26.849999999999998,
                    "velocity": 0.4330708661417323,
                },
                {
                    "duration": 0.05000000000000426,
                    "durationTicks": 10,
                    "midi": 42,
                    "name": "F#2",
                    "ticks": 5370,
                    "time": 26.849999999999998,
                    "velocity": 0.30708661417322836,
                },
                {
                    "duration": 0.05000000000000071,
                    "durationTicks": 10,
                    "midi": 40,
                    "name": "E2",
                    "ticks": 5400,
                    "time": 27,
                    "velocity": 1,
                },
                {
                    "duration": 0.05000000000000071,
                    "durationTicks": 10,
                    "midi": 42,
                    "name": "F#2",
                    "ticks": 5400,
                    "time": 27,
                    "velocity": 0.6850393700787402,
                },
                {
                    "duration": 0.05000000000000071,
                    "durationTicks": 10,
                    "midi": 42,
                    "name": "F#2",
                    "ticks": 5430,
                    "time": 27.15,
                    "velocity": 0.30708661417322836,
                },
                {
                    "duration": 0.05000000000000071,
                    "durationTicks": 10,
                    "midi": 69,
                    "name": "A4",
                    "ticks": 5460,
                    "time": 27.3,
                    "velocity": 0.5590551181102362,
                },
                {
                    "duration": 0.05000000000000071,
                    "durationTicks": 10,
                    "midi": 35,
                    "name": "B1",
                    "ticks": 5460,
                    "time": 27.3,
                    "velocity": 1,
                },
                {
                    "duration": 0.05000000000000071,
                    "durationTicks": 10,
                    "midi": 42,
                    "name": "F#2",
                    "ticks": 5460,
                    "time": 27.3,
                    "velocity": 0.5590551181102362,
                },
                {
                    "duration": 0.05000000000000071,
                    "durationTicks": 10,
                    "midi": 42,
                    "name": "F#2",
                    "ticks": 5490,
                    "time": 27.45,
                    "velocity": 0.30708661417322836,
                },
                {
                    "duration": 0.05000000000000426,
                    "durationTicks": 10,
                    "midi": 35,
                    "name": "B1",
                    "ticks": 5520,
                    "time": 27.599999999999998,
                    "velocity": 1,
                },
                {
                    "duration": 0.05000000000000426,
                    "durationTicks": 10,
                    "midi": 42,
                    "name": "F#2",
                    "ticks": 5520,
                    "time": 27.599999999999998,
                    "velocity": 0.8110236220472441,
                },
                {
                    "duration": 0.05000000000000426,
                    "durationTicks": 10,
                    "midi": 49,
                    "name": "C#3",
                    "ticks": 5520,
                    "time": 27.599999999999998,
                    "velocity": 0.6850393700787402,
                },
                {
                    "duration": 0.05000000000000071,
                    "durationTicks": 10,
                    "midi": 50,
                    "name": "D3",
                    "ticks": 5550,
                    "time": 27.75,
                    "velocity": 0.7480314960629921,
                },
                {
                    "duration": 0.05000000000000071,
                    "durationTicks": 10,
                    "midi": 48,
                    "name": "C3",
                    "ticks": 5580,
                    "time": 27.9,
                    "velocity": 0.7480314960629921,
                },
                {
                    "duration": 0.04999999999999716,
                    "durationTicks": 10,
                    "midi": 45,
                    "name": "A2",
                    "ticks": 5605,
                    "time": 28.025000000000002,
                    "velocity": 0.30708661417322836,
                },
                {
                    "duration": 0.05000000000000071,
                    "durationTicks": 10,
                    "midi": 43,
                    "name": "G2",
                    "ticks": 5610,
                    "time": 28.05,
                    "velocity": 0.7480314960629921,
                },
                {
                    "duration": 0.05000000000000071,
                    "durationTicks": 10,
                    "midi": 45,
                    "name": "A2",
                    "ticks": 5660,
                    "time": 28.299999999999997,
                    "velocity": 0.30708661417322836,
                },
                {
                    "duration": 0.05000000000000426,
                    "durationTicks": 10,
                    "midi": 45,
                    "name": "A2",
                    "ticks": 5670,
                    "time": 28.349999999999998,
                    "velocity": 0.7480314960629921,
                },
                {
                    "duration": 0.05000000000000071,
                    "durationTicks": 10,
                    "midi": 43,
                    "name": "G2",
                    "ticks": 5700,
                    "time": 28.5,
                    "velocity": 0.6220472440944882,
                },
                {
                    "duration": 0.05000000000000071,
                    "durationTicks": 10,
                    "midi": 41,
                    "name": "F2",
                    "ticks": 5730,
                    "time": 28.65,
                    "velocity": 0.6850393700787402,
                },
                {
                    "duration": 0.049999999999993605,
                    "durationTicks": 10,
                    "midi": 55,
                    "name": "G3",
                    "ticks": 5755,
                    "time": 28.775000000000002,
                    "velocity": 0.6850393700787402,
                },
                {
                    "duration": 0.05000000000000426,
                    "durationTicks": 10,
                    "midi": 35,
                    "name": "B1",
                    "ticks": 5760,
                    "time": 28.799999999999997,
                    "velocity": 1,
                },
                {
                    "duration": 0.05000000000000426,
                    "durationTicks": 10,
                    "midi": 42,
                    "name": "F#2",
                    "ticks": 5760,
                    "time": 28.799999999999997,
                    "velocity": 0.8110236220472441,
                },
                {
                    "duration": 0.05000000000000071,
                    "durationTicks": 10,
                    "midi": 42,
                    "name": "F#2",
                    "ticks": 5790,
                    "time": 28.95,
                    "velocity": 0.30708661417322836,
                },
                {
                    "duration": 0.05000000000000071,
                    "durationTicks": 10,
                    "midi": 42,
                    "name": "F#2",
                    "ticks": 5820,
                    "time": 29.099999999999998,
                    "velocity": 0.5590551181102362,
                },
                {
                    "duration": 0.05000000000000071,
                    "durationTicks": 10,
                    "midi": 35,
                    "name": "B1",
                    "ticks": 5850,
                    "time": 29.25,
                    "velocity": 0.8740157480314961,
                },
                {
                    "duration": 0.05000000000000071,
                    "durationTicks": 10,
                    "midi": 42,
                    "name": "F#2",
                    "ticks": 5850,
                    "time": 29.25,
                    "velocity": 0.30708661417322836,
                },
                {
                    "duration": 0.05000000000000071,
                    "durationTicks": 10,
                    "midi": 40,
                    "name": "E2",
                    "ticks": 5880,
                    "time": 29.4,
                    "velocity": 1,
                },
                {
                    "duration": 0.05000000000000071,
                    "durationTicks": 10,
                    "midi": 42,
                    "name": "F#2",
                    "ticks": 5880,
                    "time": 29.4,
                    "velocity": 0.6850393700787402,
                },
                {
                    "duration": 0.05000000000000426,
                    "durationTicks": 10,
                    "midi": 42,
                    "name": "F#2",
                    "ticks": 5910,
                    "time": 29.549999999999997,
                    "velocity": 0.30708661417322836,
                },
                {
                    "duration": 0.05000000000000071,
                    "durationTicks": 10,
                    "midi": 35,
                    "name": "B1",
                    "ticks": 5940,
                    "time": 29.7,
                    "velocity": 0.8740157480314961,
                },
                {
                    "duration": 0.05000000000000071,
                    "durationTicks": 10,
                    "midi": 42,
                    "name": "F#2",
                    "ticks": 5940,
                    "time": 29.7,
                    "velocity": 0.5590551181102362,
                },
                {
                    "duration": 0.05000000000000071,
                    "durationTicks": 10,
                    "midi": 42,
                    "name": "F#2",
                    "ticks": 5970,
                    "time": 29.849999999999998,
                    "velocity": 0.30708661417322836,
                },
                {
                    "duration": 0.05000000000000071,
                    "durationTicks": 10,
                    "midi": 35,
                    "name": "B1",
                    "ticks": 6000,
                    "time": 30,
                    "velocity": 1,
                },
                {
                    "duration": 0.05000000000000071,
                    "durationTicks": 10,
                    "midi": 42,
                    "name": "F#2",
                    "ticks": 6000,
                    "time": 30,
                    "velocity": 0.8110236220472441,
                },
                {
                    "duration": 0.05000000000000071,
                    "durationTicks": 10,
                    "midi": 42,
                    "name": "F#2",
                    "ticks": 6030,
                    "time": 30.15,
                    "velocity": 0.30708661417322836,
                },
                {
                    "duration": 0.05000000000000426,
                    "durationTicks": 10,
                    "midi": 42,
                    "name": "F#2",
                    "ticks": 6060,
                    "time": 30.299999999999997,
                    "velocity": 0.5590551181102362,
                },
                {
                    "duration": 0.05000000000000071,
                    "durationTicks": 10,
                    "midi": 42,
                    "name": "F#2",
                    "ticks": 6090,
                    "time": 30.45,
                    "velocity": 0.30708661417322836,
                },
                {
                    "duration": 0.05000000000000071,
                    "durationTicks": 10,
                    "midi": 40,
                    "name": "E2",
                    "ticks": 6120,
                    "time": 30.599999999999998,
                    "velocity": 1,
                },
                {
                    "duration": 0.05000000000000071,
                    "durationTicks": 10,
                    "midi": 42,
                    "name": "F#2",
                    "ticks": 6120,
                    "time": 30.599999999999998,
                    "velocity": 0.6850393700787402,
                },
                {
                    "duration": 0.05000000000000071,
                    "durationTicks": 10,
                    "midi": 41,
                    "name": "F2",
                    "ticks": 6125,
                    "time": 30.624999999999996,
                    "velocity": 0.6850393700787402,
                },
                {
                    "duration": 0.05000000000000071,
                    "durationTicks": 10,
                    "midi": 42,
                    "name": "F#2",
                    "ticks": 6150,
                    "time": 30.75,
                    "velocity": 0.30708661417322836,
                },
                {
                    "duration": 0.05000000000000071,
                    "durationTicks": 10,
                    "midi": 42,
                    "name": "F#2",
                    "ticks": 6180,
                    "time": 30.9,
                    "velocity": 0.5590551181102362,
                },
                {
                    "duration": 0.05000000000000426,
                    "durationTicks": 10,
                    "midi": 40,
                    "name": "E2",
                    "ticks": 6210,
                    "time": 31.049999999999997,
                    "velocity": 0.6377952755905512,
                },
                {
                    "duration": 0.05000000000000426,
                    "durationTicks": 10,
                    "midi": 46,
                    "name": "A#2",
                    "ticks": 6210,
                    "time": 31.049999999999997,
                    "velocity": 0.49606299212598426,
                },
                {
                    "duration": 0.05000000000000071,
                    "durationTicks": 10,
                    "midi": 35,
                    "name": "B1",
                    "ticks": 6240,
                    "time": 31.2,
                    "velocity": 1,
                },
                {
                    "duration": 0.05000000000000071,
                    "durationTicks": 10,
                    "midi": 42,
                    "name": "F#2",
                    "ticks": 6240,
                    "time": 31.2,
                    "velocity": 0.8110236220472441,
                },
                {
                    "duration": 0.05000000000000071,
                    "durationTicks": 10,
                    "midi": 42,
                    "name": "F#2",
                    "ticks": 6270,
                    "time": 31.349999999999998,
                    "velocity": 0.30708661417322836,
                },
                {
                    "duration": 0.05000000000000071,
                    "durationTicks": 10,
                    "midi": 42,
                    "name": "F#2",
                    "ticks": 6300,
                    "time": 31.5,
                    "velocity": 0.5590551181102362,
                },
                {
                    "duration": 0.05000000000000071,
                    "durationTicks": 10,
                    "midi": 69,
                    "name": "A4",
                    "ticks": 6330,
                    "time": 31.65,
                    "velocity": 0.4330708661417323,
                },
                {
                    "duration": 0.05000000000000071,
                    "durationTicks": 10,
                    "midi": 42,
                    "name": "F#2",
                    "ticks": 6330,
                    "time": 31.65,
                    "velocity": 0.30708661417322836,
                },
                {
                    "duration": 0.05000000000000426,
                    "durationTicks": 10,
                    "midi": 40,
                    "name": "E2",
                    "ticks": 6360,
                    "time": 31.799999999999997,
                    "velocity": 1,
                },
                {
                    "duration": 0.05000000000000426,
                    "durationTicks": 10,
                    "midi": 42,
                    "name": "F#2",
                    "ticks": 6360,
                    "time": 31.799999999999997,
                    "velocity": 0.6850393700787402,
                },
                {
                    "duration": 0.05000000000000071,
                    "durationTicks": 10,
                    "midi": 42,
                    "name": "F#2",
                    "ticks": 6390,
                    "time": 31.95,
                    "velocity": 0.30708661417322836,
                },
                {
                    "duration": 0.04999999999999716,
                    "durationTicks": 10,
                    "midi": 69,
                    "name": "A4",
                    "ticks": 6420,
                    "time": 32.1,
                    "velocity": 0.5590551181102362,
                },
                {
                    "duration": 0.04999999999999716,
                    "durationTicks": 10,
                    "midi": 35,
                    "name": "B1",
                    "ticks": 6420,
                    "time": 32.1,
                    "velocity": 1,
                },
                {
                    "duration": 0.04999999999999716,
                    "durationTicks": 10,
                    "midi": 42,
                    "name": "F#2",
                    "ticks": 6420,
                    "time": 32.1,
                    "velocity": 0.5590551181102362,
                },
                {
                    "duration": 0.04999999999999716,
                    "durationTicks": 10,
                    "midi": 42,
                    "name": "F#2",
                    "ticks": 6450,
                    "time": 32.25,
                    "velocity": 0.30708661417322836,
                },
                {
                    "duration": 0.05000000000000426,
                    "durationTicks": 10,
                    "midi": 35,
                    "name": "B1",
                    "ticks": 6480,
                    "time": 32.4,
                    "velocity": 1,
                },
                {
                    "duration": 0.05000000000000426,
                    "durationTicks": 10,
                    "midi": 42,
                    "name": "F#2",
                    "ticks": 6480,
                    "time": 32.4,
                    "velocity": 0.8110236220472441,
                },
                {
                    "duration": 0.05000000000000426,
                    "durationTicks": 10,
                    "midi": 35,
                    "name": "B1",
                    "ticks": 6510,
                    "time": 32.55,
                    "velocity": 1,
                },
                {
                    "duration": 0.05000000000000426,
                    "durationTicks": 10,
                    "midi": 42,
                    "name": "F#2",
                    "ticks": 6510,
                    "time": 32.55,
                    "velocity": 0.30708661417322836,
                },
                {
                    "duration": 0.05000000000000426,
                    "durationTicks": 10,
                    "midi": 42,
                    "name": "F#2",
                    "ticks": 6540,
                    "time": 32.699999999999996,
                    "velocity": 0.5590551181102362,
                },
                {
                    "duration": 0.04999999999999716,
                    "durationTicks": 10,
                    "midi": 46,
                    "name": "A#2",
                    "ticks": 6570,
                    "time": 32.85,
                    "velocity": 0.3700787401574803,
                },
                {
                    "duration": 0.04999999999999716,
                    "durationTicks": 10,
                    "midi": 75,
                    "name": "D#5",
                    "ticks": 6600,
                    "time": 33,
                    "velocity": 1,
                },
                {
                    "duration": 0.04999999999999716,
                    "durationTicks": 10,
                    "midi": 40,
                    "name": "E2",
                    "ticks": 6600,
                    "time": 33,
                    "velocity": 1,
                },
                {
                    "duration": 0.04999999999999716,
                    "durationTicks": 10,
                    "midi": 42,
                    "name": "F#2",
                    "ticks": 6600,
                    "time": 33,
                    "velocity": 0.6850393700787402,
                },
                {
                    "duration": 0.05000000000000426,
                    "durationTicks": 10,
                    "midi": 42,
                    "name": "F#2",
                    "ticks": 6630,
                    "time": 33.15,
                    "velocity": 0.30708661417322836,
                },
                {
                    "duration": 0.05000000000000426,
                    "durationTicks": 10,
                    "midi": 42,
                    "name": "F#2",
                    "ticks": 6660,
                    "time": 33.3,
                    "velocity": 0.5590551181102362,
                },
                {
                    "duration": 0.05000000000000426,
                    "durationTicks": 10,
                    "midi": 40,
                    "name": "E2",
                    "ticks": 6690,
                    "time": 33.449999999999996,
                    "velocity": 0.5590551181102362,
                },
                {
                    "duration": 0.05000000000000426,
                    "durationTicks": 10,
                    "midi": 42,
                    "name": "F#2",
                    "ticks": 6690,
                    "time": 33.449999999999996,
                    "velocity": 0.30708661417322836,
                },
                {
                    "duration": 0.04999999999999716,
                    "durationTicks": 10,
                    "midi": 35,
                    "name": "B1",
                    "ticks": 6720,
                    "time": 33.6,
                    "velocity": 1,
                },
                {
                    "duration": 0.04999999999999716,
                    "durationTicks": 10,
                    "midi": 42,
                    "name": "F#2",
                    "ticks": 6720,
                    "time": 33.6,
                    "velocity": 0.8110236220472441,
                },
                {
                    "duration": 0.04999999999999716,
                    "durationTicks": 10,
                    "midi": 42,
                    "name": "F#2",
                    "ticks": 6750,
                    "time": 33.75,
                    "velocity": 0.30708661417322836,
                },
                {
                    "duration": 0.05000000000000426,
                    "durationTicks": 10,
                    "midi": 42,
                    "name": "F#2",
                    "ticks": 6780,
                    "time": 33.9,
                    "velocity": 0.5590551181102362,
                },
                {
                    "duration": 0.05000000000000426,
                    "durationTicks": 10,
                    "midi": 35,
                    "name": "B1",
                    "ticks": 6810,
                    "time": 34.05,
                    "velocity": 0.8740157480314961,
                },
                {
                    "duration": 0.05000000000000426,
                    "durationTicks": 10,
                    "midi": 42,
                    "name": "F#2",
                    "ticks": 6810,
                    "time": 34.05,
                    "velocity": 0.30708661417322836,
                },
                {
                    "duration": 0.05000000000000426,
                    "durationTicks": 10,
                    "midi": 40,
                    "name": "E2",
                    "ticks": 6840,
                    "time": 34.199999999999996,
                    "velocity": 1,
                },
                {
                    "duration": 0.05000000000000426,
                    "durationTicks": 10,
                    "midi": 42,
                    "name": "F#2",
                    "ticks": 6840,
                    "time": 34.199999999999996,
                    "velocity": 0.6850393700787402,
                },
                {
                    "duration": 0.04999999999999716,
                    "durationTicks": 10,
                    "midi": 42,
                    "name": "F#2",
                    "ticks": 6870,
                    "time": 34.35,
                    "velocity": 0.30708661417322836,
                },
                {
                    "duration": 0.04999999999999716,
                    "durationTicks": 10,
                    "midi": 35,
                    "name": "B1",
                    "ticks": 6900,
                    "time": 34.5,
                    "velocity": 0.8740157480314961,
                },
                {
                    "duration": 0.04999999999999716,
                    "durationTicks": 10,
                    "midi": 42,
                    "name": "F#2",
                    "ticks": 6900,
                    "time": 34.5,
                    "velocity": 0.5590551181102362,
                },
                {
                    "duration": 0.05000000000000426,
                    "durationTicks": 10,
                    "midi": 42,
                    "name": "F#2",
                    "ticks": 6930,
                    "time": 34.65,
                    "velocity": 0.30708661417322836,
                },
                {
                    "duration": 0.05000000000000426,
                    "durationTicks": 10,
                    "midi": 35,
                    "name": "B1",
                    "ticks": 6960,
                    "time": 34.8,
                    "velocity": 1,
                },
                {
                    "duration": 0.05000000000000426,
                    "durationTicks": 10,
                    "midi": 42,
                    "name": "F#2",
                    "ticks": 6960,
                    "time": 34.8,
                    "velocity": 0.8110236220472441,
                },
                {
                    "duration": 0.05000000000000426,
                    "durationTicks": 10,
                    "midi": 42,
                    "name": "F#2",
                    "ticks": 6990,
                    "time": 34.949999999999996,
                    "velocity": 0.30708661417322836,
                },
                {
                    "duration": 0.04999999999999716,
                    "durationTicks": 10,
                    "midi": 42,
                    "name": "F#2",
                    "ticks": 7020,
                    "time": 35.1,
                    "velocity": 0.5590551181102362,
                },
                {
                    "duration": 0.04999999999999716,
                    "durationTicks": 10,
                    "midi": 42,
                    "name": "F#2",
                    "ticks": 7050,
                    "time": 35.25,
                    "velocity": 0.30708661417322836,
                },
                {
                    "duration": 0.05000000000000426,
                    "durationTicks": 10,
                    "midi": 40,
                    "name": "E2",
                    "ticks": 7080,
                    "time": 35.4,
                    "velocity": 1,
                },
                {
                    "duration": 0.05000000000000426,
                    "durationTicks": 10,
                    "midi": 42,
                    "name": "F#2",
                    "ticks": 7080,
                    "time": 35.4,
                    "velocity": 0.6850393700787402,
                },
                {
                    "duration": 0.05000000000000426,
                    "durationTicks": 10,
                    "midi": 41,
                    "name": "F2",
                    "ticks": 7085,
                    "time": 35.425,
                    "velocity": 0.6850393700787402,
                },
                {
                    "duration": 0.05000000000000426,
                    "durationTicks": 10,
                    "midi": 42,
                    "name": "F#2",
                    "ticks": 7110,
                    "time": 35.55,
                    "velocity": 0.30708661417322836,
                },
                {
                    "duration": 0.05000000000000426,
                    "durationTicks": 10,
                    "midi": 42,
                    "name": "F#2",
                    "ticks": 7140,
                    "time": 35.699999999999996,
                    "velocity": 0.5590551181102362,
                },
                {
                    "duration": 0.04999999999999716,
                    "durationTicks": 10,
                    "midi": 40,
                    "name": "E2",
                    "ticks": 7170,
                    "time": 35.85,
                    "velocity": 0.6377952755905512,
                },
                {
                    "duration": 0.04999999999999716,
                    "durationTicks": 10,
                    "midi": 46,
                    "name": "A#2",
                    "ticks": 7170,
                    "time": 35.85,
                    "velocity": 0.49606299212598426,
                },
                {
                    "duration": 0.04999999999999716,
                    "durationTicks": 10,
                    "midi": 35,
                    "name": "B1",
                    "ticks": 7200,
                    "time": 36,
                    "velocity": 1,
                },
                {
                    "duration": 0.04999999999999716,
                    "durationTicks": 10,
                    "midi": 42,
                    "name": "F#2",
                    "ticks": 7200,
                    "time": 36,
                    "velocity": 0.8110236220472441,
                },
                {
                    "duration": 0.05000000000000426,
                    "durationTicks": 10,
                    "midi": 42,
                    "name": "F#2",
                    "ticks": 7230,
                    "time": 36.15,
                    "velocity": 0.30708661417322836,
                },
                {
                    "duration": 0.05000000000000426,
                    "durationTicks": 10,
                    "midi": 42,
                    "name": "F#2",
                    "ticks": 7260,
                    "time": 36.3,
                    "velocity": 0.5590551181102362,
                },
                {
                    "duration": 0.05000000000000426,
                    "durationTicks": 10,
                    "midi": 35,
                    "name": "B1",
                    "ticks": 7290,
                    "time": 36.449999999999996,
                    "velocity": 0.8740157480314961,
                },
                {
                    "duration": 0.05000000000000426,
                    "durationTicks": 10,
                    "midi": 42,
                    "name": "F#2",
                    "ticks": 7290,
                    "time": 36.449999999999996,
                    "velocity": 0.30708661417322836,
                },
                {
                    "duration": 0.04999999999999716,
                    "durationTicks": 10,
                    "midi": 40,
                    "name": "E2",
                    "ticks": 7320,
                    "time": 36.6,
                    "velocity": 1,
                },
                {
                    "duration": 0.04999999999999716,
                    "durationTicks": 10,
                    "midi": 42,
                    "name": "F#2",
                    "ticks": 7320,
                    "time": 36.6,
                    "velocity": 0.6850393700787402,
                },
                {
                    "duration": 0.04999999999999716,
                    "durationTicks": 10,
                    "midi": 51,
                    "name": "D#3",
                    "ticks": 7350,
                    "time": 36.75,
                    "velocity": 0.30708661417322836,
                },
                {
                    "duration": 0.04999999999999716,
                    "durationTicks": 10,
                    "midi": 42,
                    "name": "F#2",
                    "ticks": 7350,
                    "time": 36.75,
                    "velocity": 0.30708661417322836,
                },
                {
                    "duration": 0.05000000000000426,
                    "durationTicks": 10,
                    "midi": 59,
                    "name": "B3",
                    "ticks": 7380,
                    "time": 36.9,
                    "velocity": 0.49606299212598426,
                },
                {
                    "duration": 0.05000000000000426,
                    "durationTicks": 10,
                    "midi": 35,
                    "name": "B1",
                    "ticks": 7380,
                    "time": 36.9,
                    "velocity": 0.8740157480314961,
                },
                {
                    "duration": 0.05000000000000426,
                    "durationTicks": 10,
                    "midi": 42,
                    "name": "F#2",
                    "ticks": 7380,
                    "time": 36.9,
                    "velocity": 0.5590551181102362,
                },
                {
                    "duration": 0.05000000000000426,
                    "durationTicks": 10,
                    "midi": 42,
                    "name": "F#2",
                    "ticks": 7410,
                    "time": 37.05,
                    "velocity": 0.30708661417322836,
                },
                {
                    "duration": 0.05000000000000426,
                    "durationTicks": 10,
                    "midi": 35,
                    "name": "B1",
                    "ticks": 7440,
                    "time": 37.199999999999996,
                    "velocity": 1,
                },
                {
                    "duration": 0.05000000000000426,
                    "durationTicks": 10,
                    "midi": 42,
                    "name": "F#2",
                    "ticks": 7440,
                    "time": 37.199999999999996,
                    "velocity": 0.8110236220472441,
                },
                {
                    "duration": 0.05000000000000426,
                    "durationTicks": 10,
                    "midi": 49,
                    "name": "C#3",
                    "ticks": 7440,
                    "time": 37.199999999999996,
                    "velocity": 0.6850393700787402,
                },
                {
                    "duration": 0.04999999999999716,
                    "durationTicks": 10,
                    "midi": 50,
                    "name": "D3",
                    "ticks": 7470,
                    "time": 37.35,
                    "velocity": 0.7480314960629921,
                },
                {
                    "duration": 0.04999999999999716,
                    "durationTicks": 10,
                    "midi": 48,
                    "name": "C3",
                    "ticks": 7500,
                    "time": 37.5,
                    "velocity": 0.7480314960629921,
                },
                {
                    "duration": 0.04999999999999716,
                    "durationTicks": 10,
                    "midi": 45,
                    "name": "A2",
                    "ticks": 7525,
                    "time": 37.625,
                    "velocity": 0.30708661417322836,
                },
                {
                    "duration": 0.05000000000000426,
                    "durationTicks": 10,
                    "midi": 43,
                    "name": "G2",
                    "ticks": 7530,
                    "time": 37.65,
                    "velocity": 0.7480314960629921,
                },
                {
                    "duration": 0.04999999999999716,
                    "durationTicks": 10,
                    "midi": 45,
                    "name": "A2",
                    "ticks": 7580,
                    "time": 37.9,
                    "velocity": 0.30708661417322836,
                },
                {
                    "duration": 0.05000000000000426,
                    "durationTicks": 10,
                    "midi": 45,
                    "name": "A2",
                    "ticks": 7590,
                    "time": 37.949999999999996,
                    "velocity": 0.7480314960629921,
                },
                {
                    "duration": 0.04999999999999716,
                    "durationTicks": 10,
                    "midi": 43,
                    "name": "G2",
                    "ticks": 7620,
                    "time": 38.1,
                    "velocity": 0.6220472440944882,
                },
                {
                    "duration": 0.04999999999999716,
                    "durationTicks": 10,
                    "midi": 41,
                    "name": "F2",
                    "ticks": 7650,
                    "time": 38.25,
                    "velocity": 0.6850393700787402,
                },
                {
                    "duration": 0.05000000000000426,
                    "durationTicks": 10,
                    "midi": 55,
                    "name": "G3",
                    "ticks": 7675,
                    "time": 38.375,
                    "velocity": 0.6850393700787402,
                },
                {
                    "duration": 0.04999999999999716,
                    "durationTicks": 10,
                    "midi": 35,
                    "name": "B1",
                    "ticks": 7680,
                    "time": 38.4,
                    "velocity": 1,
                },
                {
                    "duration": 0.04999999999999716,
                    "durationTicks": 10,
                    "midi": 42,
                    "name": "F#2",
                    "ticks": 7680,
                    "time": 38.4,
                    "velocity": 0.7559055118110236,
                },
                {
                    "duration": 0.04999999999999716,
                    "durationTicks": 10,
                    "midi": 42,
                    "name": "F#2",
                    "ticks": 7710,
                    "time": 38.55,
                    "velocity": 0.30708661417322836,
                },
            ],
            "endOfTrackTicks": 7720,
        }
    ],
}
