symphony_7_2_singletrack = {
    "header": {
        "keySignatures": [],
        "meta": [],
        "name": "symphony_7_2",
        "ppq": 960,
        "tempos": [
            {"bpm": 72.00002880001152, "ticks": 0},
            {"bpm": 61.99999586666694, "ticks": 528000},
            {"bpm": 54.00000540000054, "ticks": 529920},
        ],
        "timeSignatures": [{"ticks": 0, "timeSignature": [2, 4], "measures": 0}],
    },
    "tracks": [
        {
            "channel": 0,
            "controlChanges": {
                "7": [
                    {"number": 7, "ticks": 0, "time": 0, "value": 0.5984251968503937}
                ],
                "10": [
                    {"number": 10, "ticks": 0, "time": 0, "value": 0.5511811023622047}
                ],
                "64": [{"number": 64, "ticks": 0, "time": 0, "value": 0}],
                "91": [
                    {"number": 91, "ticks": 0, "time": 0, "value": 0.4094488188976378}
                ],
                "121": [{"number": 121, "ticks": 0, "time": 0, "value": 0}],
            },
            "pitchBends": [],
            "instrument": {"family": "pipe", "number": 73, "name": "flute"},
            "name": "symphony_7_2",
            "notes": [
                {
                    "duration": 0.8333329999999961,
                    "durationTicks": 960,
                    "midi": 80,
                    "name": "G#5",
                    "ticks": 139200,
                    "time": 120.833285,
                    "velocity": 0.6220472440944882,
                },
                {
                    "duration": 0.8333329999999961,
                    "durationTicks": 960,
                    "midi": 81,
                    "name": "A5",
                    "ticks": 141120,
                    "time": 122.499951,
                    "velocity": 0.6614173228346457,
                },
                {
                    "duration": 0.8333330000000103,
                    "durationTicks": 960,
                    "midi": 76,
                    "name": "E5",
                    "ticks": 142080,
                    "time": 123.33328399999999,
                    "velocity": 1,
                },
                {
                    "duration": 0.8333330000000103,
                    "durationTicks": 960,
                    "midi": 88,
                    "name": "E6",
                    "ticks": 142080,
                    "time": 123.33328399999999,
                    "velocity": 1,
                },
                {
                    "duration": 0.24739573437499018,
                    "durationTicks": 285,
                    "midi": 76,
                    "name": "E5",
                    "ticks": 143040,
                    "time": 124.166617,
                    "velocity": 0.8976377952755905,
                },
                {
                    "duration": 0.24739573437499018,
                    "durationTicks": 285,
                    "midi": 88,
                    "name": "E6",
                    "ticks": 143040,
                    "time": 124.166617,
                    "velocity": 0.8976377952755905,
                },
                {
                    "duration": 0.2473957343750044,
                    "durationTicks": 285,
                    "midi": 76,
                    "name": "E5",
                    "ticks": 143520,
                    "time": 124.5832835,
                    "velocity": 0.8740157480314961,
                },
                {
                    "duration": 0.2473957343750044,
                    "durationTicks": 285,
                    "midi": 88,
                    "name": "E6",
                    "ticks": 143520,
                    "time": 124.5832835,
                    "velocity": 0.8740157480314961,
                },
                {
                    "duration": 0.49739563437501033,
                    "durationTicks": 573,
                    "midi": 76,
                    "name": "E5",
                    "ticks": 144000,
                    "time": 124.99995,
                    "velocity": 0.8976377952755905,
                },
                {
                    "duration": 0.49739563437501033,
                    "durationTicks": 573,
                    "midi": 88,
                    "name": "E6",
                    "ticks": 144000,
                    "time": 124.99995,
                    "velocity": 0.8976377952755905,
                },
                {
                    "duration": 0.4713539781250091,
                    "durationTicks": 543,
                    "midi": 76,
                    "name": "E5",
                    "ticks": 144960,
                    "time": 125.833283,
                    "velocity": 0.9133858267716536,
                },
                {
                    "duration": 0.4713539781250091,
                    "durationTicks": 543,
                    "midi": 88,
                    "name": "E6",
                    "ticks": 144960,
                    "time": 125.833283,
                    "velocity": 0.9133858267716536,
                },
                {
                    "duration": 0.8333329999999961,
                    "durationTicks": 960,
                    "midi": 76,
                    "name": "E5",
                    "ticks": 145920,
                    "time": 126.666616,
                    "velocity": 0.8503937007874016,
                },
                {
                    "duration": 0.8333329999999961,
                    "durationTicks": 960,
                    "midi": 88,
                    "name": "E6",
                    "ticks": 145920,
                    "time": 126.666616,
                    "velocity": 0.8503937007874016,
                },
                {
                    "duration": 0.2473957343750044,
                    "durationTicks": 285,
                    "midi": 76,
                    "name": "E5",
                    "ticks": 146880,
                    "time": 127.499949,
                    "velocity": 0.8818897637795275,
                },
                {
                    "duration": 0.2473957343750044,
                    "durationTicks": 285,
                    "midi": 88,
                    "name": "E6",
                    "ticks": 146880,
                    "time": 127.499949,
                    "velocity": 0.8818897637795275,
                },
                {
                    "duration": 0.2473957343750186,
                    "durationTicks": 285,
                    "midi": 76,
                    "name": "E5",
                    "ticks": 147360,
                    "time": 127.91661549999999,
                    "velocity": 0.889763779527559,
                },
                {
                    "duration": 0.2473957343750186,
                    "durationTicks": 285,
                    "midi": 88,
                    "name": "E6",
                    "ticks": 147360,
                    "time": 127.91661549999999,
                    "velocity": 0.889763779527559,
                },
                {
                    "duration": 0.49739563437501033,
                    "durationTicks": 573,
                    "midi": 76,
                    "name": "E5",
                    "ticks": 147840,
                    "time": 128.333282,
                    "velocity": 0.8818897637795275,
                },
                {
                    "duration": 0.49739563437501033,
                    "durationTicks": 573,
                    "midi": 88,
                    "name": "E6",
                    "ticks": 147840,
                    "time": 128.333282,
                    "velocity": 0.8818897637795275,
                },
                {
                    "duration": 0.4713539781249949,
                    "durationTicks": 543,
                    "midi": 76,
                    "name": "E5",
                    "ticks": 148800,
                    "time": 129.166615,
                    "velocity": 0.9133858267716536,
                },
                {
                    "duration": 0.4713539781249949,
                    "durationTicks": 543,
                    "midi": 88,
                    "name": "E6",
                    "ticks": 148800,
                    "time": 129.166615,
                    "velocity": 0.9133858267716536,
                },
                {
                    "duration": 0.8333330000000103,
                    "durationTicks": 960,
                    "midi": 76,
                    "name": "E5",
                    "ticks": 149760,
                    "time": 129.999948,
                    "velocity": 0.84251968503937,
                },
                {
                    "duration": 0.8333330000000103,
                    "durationTicks": 960,
                    "midi": 88,
                    "name": "E6",
                    "ticks": 149760,
                    "time": 129.999948,
                    "velocity": 0.84251968503937,
                },
                {
                    "duration": 0.2473957343750044,
                    "durationTicks": 285,
                    "midi": 76,
                    "name": "E5",
                    "ticks": 150720,
                    "time": 130.833281,
                    "velocity": 0.8740157480314961,
                },
                {
                    "duration": 0.2473957343750044,
                    "durationTicks": 285,
                    "midi": 88,
                    "name": "E6",
                    "ticks": 150720,
                    "time": 130.833281,
                    "velocity": 0.8740157480314961,
                },
                {
                    "duration": 0.2473957343750044,
                    "durationTicks": 285,
                    "midi": 78,
                    "name": "F#5",
                    "ticks": 151200,
                    "time": 131.2499475,
                    "velocity": 0.968503937007874,
                },
                {
                    "duration": 0.2473957343750044,
                    "durationTicks": 285,
                    "midi": 90,
                    "name": "F#6",
                    "ticks": 151200,
                    "time": 131.2499475,
                    "velocity": 0.968503937007874,
                },
                {
                    "duration": 0.49739563437501033,
                    "durationTicks": 573,
                    "midi": 79,
                    "name": "G5",
                    "ticks": 151680,
                    "time": 131.666614,
                    "velocity": 0.9448818897637795,
                },
                {
                    "duration": 0.49739563437501033,
                    "durationTicks": 573,
                    "midi": 91,
                    "name": "G6",
                    "ticks": 151680,
                    "time": 131.666614,
                    "velocity": 0.9448818897637795,
                },
                {
                    "duration": 0.47135397812502333,
                    "durationTicks": 543,
                    "midi": 79,
                    "name": "G5",
                    "ticks": 152640,
                    "time": 132.499947,
                    "velocity": 0.8661417322834646,
                },
                {
                    "duration": 0.47135397812502333,
                    "durationTicks": 543,
                    "midi": 91,
                    "name": "G6",
                    "ticks": 152640,
                    "time": 132.499947,
                    "velocity": 0.8661417322834646,
                },
                {
                    "duration": 0.8333330000000103,
                    "durationTicks": 960,
                    "midi": 79,
                    "name": "G5",
                    "ticks": 153600,
                    "time": 133.33328,
                    "velocity": 0.8976377952755905,
                },
                {
                    "duration": 0.8333330000000103,
                    "durationTicks": 960,
                    "midi": 91,
                    "name": "G6",
                    "ticks": 153600,
                    "time": 133.33328,
                    "velocity": 0.8976377952755905,
                },
                {
                    "duration": 0.24739573437497597,
                    "durationTicks": 285,
                    "midi": 79,
                    "name": "G5",
                    "ticks": 154560,
                    "time": 134.166613,
                    "velocity": 0.8818897637795275,
                },
                {
                    "duration": 0.24739573437497597,
                    "durationTicks": 285,
                    "midi": 91,
                    "name": "G6",
                    "ticks": 154560,
                    "time": 134.166613,
                    "velocity": 0.8818897637795275,
                },
                {
                    "duration": 0.2473957343750044,
                    "durationTicks": 285,
                    "midi": 79,
                    "name": "G5",
                    "ticks": 155040,
                    "time": 134.5832795,
                    "velocity": 0.8818897637795275,
                },
                {
                    "duration": 0.2473957343750044,
                    "durationTicks": 285,
                    "midi": 91,
                    "name": "G6",
                    "ticks": 155040,
                    "time": 134.5832795,
                    "velocity": 0.8818897637795275,
                },
                {
                    "duration": 0.8333330000000103,
                    "durationTicks": 960,
                    "midi": 79,
                    "name": "G5",
                    "ticks": 155520,
                    "time": 134.999946,
                    "velocity": 0.8661417322834646,
                },
                {
                    "duration": 0.8333330000000103,
                    "durationTicks": 960,
                    "midi": 91,
                    "name": "G6",
                    "ticks": 155520,
                    "time": 134.999946,
                    "velocity": 0.8661417322834646,
                },
                {
                    "duration": 0.8333330000000103,
                    "durationTicks": 960,
                    "midi": 79,
                    "name": "G5",
                    "ticks": 157440,
                    "time": 136.666612,
                    "velocity": 0.7874015748031497,
                },
                {
                    "duration": 0.41666649999999095,
                    "durationTicks": 480,
                    "midi": 79,
                    "name": "G5",
                    "ticks": 158400,
                    "time": 137.499945,
                    "velocity": 0.8740157480314961,
                },
                {
                    "duration": 0.41666650000001937,
                    "durationTicks": 480,
                    "midi": 81,
                    "name": "A5",
                    "ticks": 158880,
                    "time": 137.9166115,
                    "velocity": 0.905511811023622,
                },
                {
                    "duration": 0.49739563437501033,
                    "durationTicks": 573,
                    "midi": 83,
                    "name": "B5",
                    "ticks": 159360,
                    "time": 138.333278,
                    "velocity": 0.937007874015748,
                },
                {
                    "duration": 0.4453123218750079,
                    "durationTicks": 513,
                    "midi": 83,
                    "name": "B5",
                    "ticks": 160320,
                    "time": 139.166611,
                    "velocity": 0.8818897637795275,
                },
                {
                    "duration": 0.8333330000000103,
                    "durationTicks": 960,
                    "midi": 78,
                    "name": "F#5",
                    "ticks": 161280,
                    "time": 139.999944,
                    "velocity": 1,
                },
                {
                    "duration": 0.8333330000000103,
                    "durationTicks": 960,
                    "midi": 90,
                    "name": "F#6",
                    "ticks": 161280,
                    "time": 139.999944,
                    "velocity": 1,
                },
                {
                    "duration": 0.24739573437497597,
                    "durationTicks": 285,
                    "midi": 78,
                    "name": "F#5",
                    "ticks": 162240,
                    "time": 140.833277,
                    "velocity": 0.8976377952755905,
                },
                {
                    "duration": 0.24739573437497597,
                    "durationTicks": 285,
                    "midi": 90,
                    "name": "F#6",
                    "ticks": 162240,
                    "time": 140.833277,
                    "velocity": 0.8976377952755905,
                },
                {
                    "duration": 0.2473957343750044,
                    "durationTicks": 285,
                    "midi": 80,
                    "name": "G#5",
                    "ticks": 162720,
                    "time": 141.2499435,
                    "velocity": 0.9212598425196851,
                },
                {
                    "duration": 0.2473957343750044,
                    "durationTicks": 285,
                    "midi": 92,
                    "name": "G#6",
                    "ticks": 162720,
                    "time": 141.2499435,
                    "velocity": 0.9212598425196851,
                },
                {
                    "duration": 0.49739563437501033,
                    "durationTicks": 573,
                    "midi": 81,
                    "name": "A5",
                    "ticks": 163200,
                    "time": 141.66661,
                    "velocity": 0.9212598425196851,
                },
                {
                    "duration": 0.49739563437501033,
                    "durationTicks": 573,
                    "midi": 93,
                    "name": "A6",
                    "ticks": 163200,
                    "time": 141.66661,
                    "velocity": 0.9212598425196851,
                },
                {
                    "duration": 0.4713539781249949,
                    "durationTicks": 543,
                    "midi": 81,
                    "name": "A5",
                    "ticks": 164160,
                    "time": 142.499943,
                    "velocity": 0.8818897637795275,
                },
                {
                    "duration": 0.4713539781249949,
                    "durationTicks": 543,
                    "midi": 93,
                    "name": "A6",
                    "ticks": 164160,
                    "time": 142.499943,
                    "velocity": 0.8818897637795275,
                },
                {
                    "duration": 0.8333329999999819,
                    "durationTicks": 960,
                    "midi": 76,
                    "name": "E5",
                    "ticks": 165120,
                    "time": 143.333276,
                    "velocity": 0.7874015748031497,
                },
                {
                    "duration": 0.8333329999999819,
                    "durationTicks": 960,
                    "midi": 88,
                    "name": "E6",
                    "ticks": 165120,
                    "time": 143.333276,
                    "velocity": 0.7874015748031497,
                },
                {
                    "duration": 0.2473957343750044,
                    "durationTicks": 285,
                    "midi": 76,
                    "name": "E5",
                    "ticks": 166080,
                    "time": 144.166609,
                    "velocity": 0.84251968503937,
                },
                {
                    "duration": 0.2473957343750044,
                    "durationTicks": 285,
                    "midi": 88,
                    "name": "E6",
                    "ticks": 166080,
                    "time": 144.166609,
                    "velocity": 0.84251968503937,
                },
                {
                    "duration": 0.2473957343750044,
                    "durationTicks": 285,
                    "midi": 76,
                    "name": "E5",
                    "ticks": 166560,
                    "time": 144.58327549999998,
                    "velocity": 0.8661417322834646,
                },
                {
                    "duration": 0.2473957343750044,
                    "durationTicks": 285,
                    "midi": 88,
                    "name": "E6",
                    "ticks": 166560,
                    "time": 144.58327549999998,
                    "velocity": 0.8661417322834646,
                },
                {
                    "duration": 0.49739563437501033,
                    "durationTicks": 573,
                    "midi": 76,
                    "name": "E5",
                    "ticks": 167040,
                    "time": 144.999942,
                    "velocity": 0.889763779527559,
                },
                {
                    "duration": 0.49739563437501033,
                    "durationTicks": 573,
                    "midi": 88,
                    "name": "E6",
                    "ticks": 167040,
                    "time": 144.999942,
                    "velocity": 0.889763779527559,
                },
                {
                    "duration": 0.47135397812502333,
                    "durationTicks": 543,
                    "midi": 76,
                    "name": "E5",
                    "ticks": 168000,
                    "time": 145.833275,
                    "velocity": 0.9291338582677166,
                },
                {
                    "duration": 0.47135397812502333,
                    "durationTicks": 543,
                    "midi": 88,
                    "name": "E6",
                    "ticks": 168000,
                    "time": 145.833275,
                    "velocity": 0.9291338582677166,
                },
                {
                    "duration": 0.8333330000000103,
                    "durationTicks": 960,
                    "midi": 76,
                    "name": "E5",
                    "ticks": 168960,
                    "time": 146.666608,
                    "velocity": 0.9133858267716536,
                },
                {
                    "duration": 0.8333330000000103,
                    "durationTicks": 960,
                    "midi": 88,
                    "name": "E6",
                    "ticks": 168960,
                    "time": 146.666608,
                    "velocity": 0.9133858267716536,
                },
                {
                    "duration": 0.2473957343750044,
                    "durationTicks": 285,
                    "midi": 78,
                    "name": "F#5",
                    "ticks": 169920,
                    "time": 147.499941,
                    "velocity": 0.952755905511811,
                },
                {
                    "duration": 0.2473957343750044,
                    "durationTicks": 285,
                    "midi": 90,
                    "name": "F#6",
                    "ticks": 169920,
                    "time": 147.499941,
                    "velocity": 0.952755905511811,
                },
                {
                    "duration": 0.2473957343750044,
                    "durationTicks": 285,
                    "midi": 80,
                    "name": "G#5",
                    "ticks": 170400,
                    "time": 147.9166075,
                    "velocity": 0.952755905511811,
                },
                {
                    "duration": 0.2473957343750044,
                    "durationTicks": 285,
                    "midi": 92,
                    "name": "G#6",
                    "ticks": 170400,
                    "time": 147.9166075,
                    "velocity": 0.952755905511811,
                },
                {
                    "duration": 0.8333330000000103,
                    "durationTicks": 960,
                    "midi": 81,
                    "name": "A5",
                    "ticks": 170880,
                    "time": 148.333274,
                    "velocity": 0.952755905511811,
                },
                {
                    "duration": 0.8333330000000103,
                    "durationTicks": 960,
                    "midi": 93,
                    "name": "A6",
                    "ticks": 170880,
                    "time": 148.333274,
                    "velocity": 0.952755905511811,
                },
                {
                    "duration": 0.8333330000000103,
                    "durationTicks": 960,
                    "midi": 78,
                    "name": "F#5",
                    "ticks": 176640,
                    "time": 153.333272,
                    "velocity": 0.7322834645669292,
                },
                {
                    "duration": 0.8333330000000103,
                    "durationTicks": 960,
                    "midi": 90,
                    "name": "F#6",
                    "ticks": 176640,
                    "time": 153.333272,
                    "velocity": 0.7322834645669292,
                },
                {
                    "duration": 0.2473957343750044,
                    "durationTicks": 285,
                    "midi": 78,
                    "name": "F#5",
                    "ticks": 177600,
                    "time": 154.166605,
                    "velocity": 0.7637795275590551,
                },
                {
                    "duration": 0.2473957343750044,
                    "durationTicks": 285,
                    "midi": 90,
                    "name": "F#6",
                    "ticks": 177600,
                    "time": 154.166605,
                    "velocity": 0.7637795275590551,
                },
                {
                    "duration": 0.2473957343750044,
                    "durationTicks": 285,
                    "midi": 80,
                    "name": "G#5",
                    "ticks": 178080,
                    "time": 154.5832715,
                    "velocity": 0.7637795275590551,
                },
                {
                    "duration": 0.2473957343750044,
                    "durationTicks": 285,
                    "midi": 92,
                    "name": "G#6",
                    "ticks": 178080,
                    "time": 154.5832715,
                    "velocity": 0.7637795275590551,
                },
                {
                    "duration": 0.49739563437501033,
                    "durationTicks": 573,
                    "midi": 81,
                    "name": "A5",
                    "ticks": 178560,
                    "time": 154.999938,
                    "velocity": 0.7244094488188977,
                },
                {
                    "duration": 0.49739563437501033,
                    "durationTicks": 573,
                    "midi": 93,
                    "name": "A6",
                    "ticks": 178560,
                    "time": 154.999938,
                    "velocity": 0.7244094488188977,
                },
                {
                    "duration": 0.47135397812502333,
                    "durationTicks": 543,
                    "midi": 81,
                    "name": "A5",
                    "ticks": 179520,
                    "time": 155.833271,
                    "velocity": 0.6062992125984252,
                },
                {
                    "duration": 0.47135397812502333,
                    "durationTicks": 543,
                    "midi": 93,
                    "name": "A6",
                    "ticks": 179520,
                    "time": 155.833271,
                    "velocity": 0.6062992125984252,
                },
                {
                    "duration": 0.8333329999999819,
                    "durationTicks": 960,
                    "midi": 76,
                    "name": "E5",
                    "ticks": 180480,
                    "time": 156.666604,
                    "velocity": 0.4015748031496063,
                },
                {
                    "duration": 0.8333329999999819,
                    "durationTicks": 960,
                    "midi": 88,
                    "name": "E6",
                    "ticks": 180480,
                    "time": 156.666604,
                    "velocity": 0.4015748031496063,
                },
                {
                    "duration": 0.2473957343750044,
                    "durationTicks": 285,
                    "midi": 76,
                    "name": "E5",
                    "ticks": 181440,
                    "time": 157.499937,
                    "velocity": 0.4645669291338583,
                },
                {
                    "duration": 0.2473957343750044,
                    "durationTicks": 285,
                    "midi": 88,
                    "name": "E6",
                    "ticks": 181440,
                    "time": 157.499937,
                    "velocity": 0.4645669291338583,
                },
                {
                    "duration": 0.2473957343750044,
                    "durationTicks": 285,
                    "midi": 76,
                    "name": "E5",
                    "ticks": 181920,
                    "time": 157.9166035,
                    "velocity": 0.4409448818897638,
                },
                {
                    "duration": 0.2473957343750044,
                    "durationTicks": 285,
                    "midi": 88,
                    "name": "E6",
                    "ticks": 181920,
                    "time": 157.9166035,
                    "velocity": 0.4409448818897638,
                },
                {
                    "duration": 0.49739563437501033,
                    "durationTicks": 573,
                    "midi": 76,
                    "name": "E5",
                    "ticks": 182400,
                    "time": 158.33327,
                    "velocity": 0.4251968503937008,
                },
                {
                    "duration": 0.49739563437501033,
                    "durationTicks": 573,
                    "midi": 88,
                    "name": "E6",
                    "ticks": 182400,
                    "time": 158.33327,
                    "velocity": 0.4251968503937008,
                },
                {
                    "duration": 0.4713539781249949,
                    "durationTicks": 543,
                    "midi": 76,
                    "name": "E5",
                    "ticks": 183360,
                    "time": 159.166603,
                    "velocity": 0.4251968503937008,
                },
                {
                    "duration": 0.4713539781249949,
                    "durationTicks": 543,
                    "midi": 88,
                    "name": "E6",
                    "ticks": 183360,
                    "time": 159.166603,
                    "velocity": 0.4251968503937008,
                },
                {
                    "duration": 0.8333330000000103,
                    "durationTicks": 960,
                    "midi": 76,
                    "name": "E5",
                    "ticks": 184320,
                    "time": 159.999936,
                    "velocity": 0.4409448818897638,
                },
                {
                    "duration": 0.8333330000000103,
                    "durationTicks": 960,
                    "midi": 88,
                    "name": "E6",
                    "ticks": 184320,
                    "time": 159.999936,
                    "velocity": 0.4409448818897638,
                },
                {
                    "duration": 0.2473957343750044,
                    "durationTicks": 285,
                    "midi": 78,
                    "name": "F#5",
                    "ticks": 185280,
                    "time": 160.833269,
                    "velocity": 0.4251968503937008,
                },
                {
                    "duration": 0.2473957343750044,
                    "durationTicks": 285,
                    "midi": 90,
                    "name": "F#6",
                    "ticks": 185280,
                    "time": 160.833269,
                    "velocity": 0.4251968503937008,
                },
                {
                    "duration": 0.2473957343750044,
                    "durationTicks": 285,
                    "midi": 80,
                    "name": "G#5",
                    "ticks": 185760,
                    "time": 161.2499355,
                    "velocity": 0.3937007874015748,
                },
                {
                    "duration": 0.2473957343750044,
                    "durationTicks": 285,
                    "midi": 92,
                    "name": "G#6",
                    "ticks": 185760,
                    "time": 161.2499355,
                    "velocity": 0.3937007874015748,
                },
                {
                    "duration": 0.8333329999999819,
                    "durationTicks": 960,
                    "midi": 81,
                    "name": "A5",
                    "ticks": 186240,
                    "time": 161.666602,
                    "velocity": 0.3779527559055118,
                },
                {
                    "duration": 0.8333329999999819,
                    "durationTicks": 960,
                    "midi": 93,
                    "name": "A6",
                    "ticks": 186240,
                    "time": 161.666602,
                    "velocity": 0.3779527559055118,
                },
                {
                    "duration": 3.333332000000013,
                    "durationTicks": 3840,
                    "midi": 88,
                    "name": "E6",
                    "ticks": 210240,
                    "time": 182.49992699999999,
                    "velocity": 0.33858267716535434,
                },
                {
                    "duration": 3.333332000000013,
                    "durationTicks": 3840,
                    "midi": 91,
                    "name": "G6",
                    "ticks": 210240,
                    "time": 182.49992699999999,
                    "velocity": 0.33858267716535434,
                },
                {
                    "duration": 1.6987840427083256,
                    "durationTicks": 1957,
                    "midi": 86,
                    "name": "D6",
                    "ticks": 214080,
                    "time": 185.833259,
                    "velocity": 0.5826771653543307,
                },
                {
                    "duration": 1.6987840427083256,
                    "durationTicks": 1957,
                    "midi": 90,
                    "name": "F#6",
                    "ticks": 214080,
                    "time": 185.833259,
                    "velocity": 0.5826771653543307,
                },
                {
                    "duration": 0.7907982947916707,
                    "durationTicks": 911,
                    "midi": 85,
                    "name": "C#6",
                    "ticks": 216000,
                    "time": 187.499925,
                    "velocity": 0.44881889763779526,
                },
                {
                    "duration": 0.7907982947916707,
                    "durationTicks": 911,
                    "midi": 88,
                    "name": "E6",
                    "ticks": 216000,
                    "time": 187.499925,
                    "velocity": 0.44881889763779526,
                },
                {
                    "duration": 0.8489579937500196,
                    "durationTicks": 978,
                    "midi": 83,
                    "name": "B5",
                    "ticks": 216960,
                    "time": 188.333258,
                    "velocity": 0.41732283464566927,
                },
                {
                    "duration": 0.8489579937500196,
                    "durationTicks": 978,
                    "midi": 86,
                    "name": "D6",
                    "ticks": 216960,
                    "time": 188.333258,
                    "velocity": 0.41732283464566927,
                },
                {
                    "duration": 0.8489579937499911,
                    "durationTicks": 978,
                    "midi": 81,
                    "name": "A5",
                    "ticks": 217920,
                    "time": 189.166591,
                    "velocity": 0.4251968503937008,
                },
                {
                    "duration": 0.8489579937499911,
                    "durationTicks": 978,
                    "midi": 85,
                    "name": "C#6",
                    "ticks": 217920,
                    "time": 189.166591,
                    "velocity": 0.4251968503937008,
                },
                {
                    "duration": 0.8489579937500196,
                    "durationTicks": 978,
                    "midi": 80,
                    "name": "G#5",
                    "ticks": 218880,
                    "time": 189.999924,
                    "velocity": 0.3858267716535433,
                },
                {
                    "duration": 0.8489579937500196,
                    "durationTicks": 978,
                    "midi": 83,
                    "name": "B5",
                    "ticks": 218880,
                    "time": 189.999924,
                    "velocity": 0.3858267716535433,
                },
                {
                    "duration": 0.8489579937499911,
                    "durationTicks": 978,
                    "midi": 78,
                    "name": "F#5",
                    "ticks": 219840,
                    "time": 190.833257,
                    "velocity": 0.4251968503937008,
                },
                {
                    "duration": 0.8489579937499911,
                    "durationTicks": 978,
                    "midi": 87,
                    "name": "D#6",
                    "ticks": 219840,
                    "time": 190.833257,
                    "velocity": 0.4251968503937008,
                },
                {
                    "duration": 0.7907982947916707,
                    "durationTicks": 911,
                    "midi": 76,
                    "name": "E5",
                    "ticks": 220800,
                    "time": 191.66658999999999,
                    "velocity": 0.4251968503937008,
                },
                {
                    "duration": 0.7907982947916707,
                    "durationTicks": 911,
                    "midi": 88,
                    "name": "E6",
                    "ticks": 220800,
                    "time": 191.66658999999999,
                    "velocity": 0.4251968503937008,
                },
                {
                    "duration": 1.9427075562499851,
                    "durationTicks": 2238,
                    "midi": 88,
                    "name": "E6",
                    "ticks": 257280,
                    "time": 223.333244,
                    "velocity": 0.7874015748031497,
                },
                {
                    "duration": 0.2803818322916811,
                    "durationTicks": 323,
                    "midi": 89,
                    "name": "F6",
                    "ticks": 259518,
                    "time": 225.27595155625,
                    "velocity": 0.7559055118110236,
                },
                {
                    "duration": 0.28298599791668266,
                    "durationTicks": 326,
                    "midi": 88,
                    "name": "E6",
                    "ticks": 259837,
                    "time": 225.55286116770833,
                    "velocity": 0.7165354330708661,
                },
                {
                    "duration": 0.2795137770833378,
                    "durationTicks": 322,
                    "midi": 91,
                    "name": "G6",
                    "ticks": 260160,
                    "time": 225.833243,
                    "velocity": 0.7559055118110236,
                },
                {
                    "duration": 0.2803818322916527,
                    "durationTicks": 323,
                    "midi": 89,
                    "name": "F6",
                    "ticks": 260478,
                    "time": 226.10928455625,
                    "velocity": 0.6062992125984252,
                },
                {
                    "duration": 0.26388878333332855,
                    "durationTicks": 304,
                    "midi": 81,
                    "name": "A5",
                    "ticks": 260797,
                    "time": 226.38619416770834,
                    "velocity": 0.5433070866141733,
                },
                {
                    "duration": 0.8489579937500196,
                    "durationTicks": 978,
                    "midi": 84,
                    "name": "C6",
                    "ticks": 261120,
                    "time": 226.666576,
                    "velocity": 0.3937007874015748,
                },
                {
                    "duration": 0.42274288645833735,
                    "durationTicks": 487,
                    "midi": 88,
                    "name": "E6",
                    "ticks": 262080,
                    "time": 227.499909,
                    "velocity": 0.7165354330708661,
                },
                {
                    "duration": 0.3932290093750055,
                    "durationTicks": 453,
                    "midi": 86,
                    "name": "D6",
                    "ticks": 262560,
                    "time": 227.9165755,
                    "velocity": 0.6535433070866141,
                },
                {
                    "duration": 0.8333330000000103,
                    "durationTicks": 960,
                    "midi": 84,
                    "name": "C6",
                    "ticks": 263040,
                    "time": 228.33324199999998,
                    "velocity": 0.5826771653543307,
                },
                {
                    "duration": 1.2499995000000013,
                    "durationTicks": 1440,
                    "midi": 89,
                    "name": "F6",
                    "ticks": 264960,
                    "time": 229.999908,
                    "velocity": 0.5748031496062992,
                },
                {
                    "duration": 0.41666649999999095,
                    "durationTicks": 480,
                    "midi": 89,
                    "name": "F6",
                    "ticks": 266400,
                    "time": 231.2499075,
                    "velocity": 0.6299212598425197,
                },
                {
                    "duration": 0.2795137770833378,
                    "durationTicks": 322,
                    "midi": 89,
                    "name": "F6",
                    "ticks": 266880,
                    "time": 231.666574,
                    "velocity": 0.6299212598425197,
                },
                {
                    "duration": 0.2604165624999837,
                    "durationTicks": 300,
                    "midi": 88,
                    "name": "E6",
                    "ticks": 267198,
                    "time": 231.94261555625002,
                    "velocity": 0.5826771653543307,
                },
                {
                    "duration": 0.1657985447916701,
                    "durationTicks": 191,
                    "midi": 86,
                    "name": "D6",
                    "ticks": 267517,
                    "time": 232.21952516770833,
                    "velocity": 0.5984251968503937,
                },
                {
                    "duration": 0.1657985447916701,
                    "durationTicks": 191,
                    "midi": 84,
                    "name": "C6",
                    "ticks": 267840,
                    "time": 232.499907,
                    "velocity": 0.5826771653543307,
                },
                {
                    "duration": 0.166666599999985,
                    "durationTicks": 192,
                    "midi": 83,
                    "name": "B5",
                    "ticks": 268158,
                    "time": 232.77594855625,
                    "velocity": 0.5905511811023622,
                },
                {
                    "duration": 0.1657985447916701,
                    "durationTicks": 191,
                    "midi": 81,
                    "name": "A5",
                    "ticks": 268477,
                    "time": 233.05285816770834,
                    "velocity": 0.5826771653543307,
                },
                {
                    "duration": 0.8489579937500196,
                    "durationTicks": 978,
                    "midi": 79,
                    "name": "G5",
                    "ticks": 268800,
                    "time": 233.33324,
                    "velocity": 0.5905511811023622,
                },
                {
                    "duration": 0.3932290093750055,
                    "durationTicks": 453,
                    "midi": 81,
                    "name": "A5",
                    "ticks": 269760,
                    "time": 234.166573,
                    "velocity": 0.6141732283464567,
                },
                {
                    "duration": 0.2473957343750044,
                    "durationTicks": 285,
                    "midi": 83,
                    "name": "B5",
                    "ticks": 270240,
                    "time": 234.5832395,
                    "velocity": 0.6299212598425197,
                },
                {
                    "duration": 1.1093745562500033,
                    "durationTicks": 1278,
                    "midi": 84,
                    "name": "C6",
                    "ticks": 270720,
                    "time": 234.999906,
                    "velocity": 0.6299212598425197,
                },
                {
                    "duration": 0.2803818322916527,
                    "durationTicks": 323,
                    "midi": 86,
                    "name": "D6",
                    "ticks": 271998,
                    "time": 236.10928055625,
                    "velocity": 0.6614173228346457,
                },
                {
                    "duration": 0.26388878333332855,
                    "durationTicks": 304,
                    "midi": 88,
                    "name": "E6",
                    "ticks": 272317,
                    "time": 236.38619016770835,
                    "velocity": 0.7322834645669292,
                },
                {
                    "duration": 1.2499995000000013,
                    "durationTicks": 1440,
                    "midi": 89,
                    "name": "F6",
                    "ticks": 272640,
                    "time": 236.666572,
                    "velocity": 0.7086614173228346,
                },
                {
                    "duration": 0.41666649999999095,
                    "durationTicks": 480,
                    "midi": 89,
                    "name": "F6",
                    "ticks": 274080,
                    "time": 237.9165715,
                    "velocity": 0.6771653543307087,
                },
                {
                    "duration": 0.1657985447916701,
                    "durationTicks": 191,
                    "midi": 89,
                    "name": "F6",
                    "ticks": 274560,
                    "time": 238.333238,
                    "velocity": 0.7401574803149606,
                },
                {
                    "duration": 0.166666599999985,
                    "durationTicks": 192,
                    "midi": 88,
                    "name": "E6",
                    "ticks": 274878,
                    "time": 238.60927955625002,
                    "velocity": 0.6929133858267716,
                },
                {
                    "duration": 0.1657985447916701,
                    "durationTicks": 191,
                    "midi": 86,
                    "name": "D6",
                    "ticks": 275197,
                    "time": 238.88618916770832,
                    "velocity": 0.6850393700787402,
                },
                {
                    "duration": 0.1657985447916701,
                    "durationTicks": 191,
                    "midi": 84,
                    "name": "C6",
                    "ticks": 275520,
                    "time": 239.166571,
                    "velocity": 0.8031496062992126,
                },
                {
                    "duration": 0.16666660000001343,
                    "durationTicks": 192,
                    "midi": 83,
                    "name": "B5",
                    "ticks": 275838,
                    "time": 239.44261255625,
                    "velocity": 0.7086614173228346,
                },
                {
                    "duration": 0.1657985447916701,
                    "durationTicks": 191,
                    "midi": 81,
                    "name": "A5",
                    "ticks": 276157,
                    "time": 239.71952216770833,
                    "velocity": 0.6850393700787402,
                },
                {
                    "duration": 0.41666650000001937,
                    "durationTicks": 480,
                    "midi": 79,
                    "name": "G5",
                    "ticks": 276480,
                    "time": 239.999904,
                    "velocity": 0.7244094488188977,
                },
                {
                    "duration": 0.2473957343750044,
                    "durationTicks": 285,
                    "midi": 76,
                    "name": "E5",
                    "ticks": 285120,
                    "time": 247.499901,
                    "velocity": 0.8188976377952756,
                },
                {
                    "duration": 0.2473957343750044,
                    "durationTicks": 285,
                    "midi": 88,
                    "name": "E6",
                    "ticks": 285120,
                    "time": 247.499901,
                    "velocity": 0.8188976377952756,
                },
                {
                    "duration": 0.2473957343750044,
                    "durationTicks": 285,
                    "midi": 76,
                    "name": "E5",
                    "ticks": 285600,
                    "time": 247.91656749999999,
                    "velocity": 0.8661417322834646,
                },
                {
                    "duration": 0.2473957343750044,
                    "durationTicks": 285,
                    "midi": 88,
                    "name": "E6",
                    "ticks": 285600,
                    "time": 247.91656749999999,
                    "velocity": 0.8661417322834646,
                },
                {
                    "duration": 1.6987840427083256,
                    "durationTicks": 1957,
                    "midi": 84,
                    "name": "C6",
                    "ticks": 286080,
                    "time": 248.333234,
                    "velocity": 0.3543307086614173,
                },
                {
                    "duration": 1.5520827125000096,
                    "durationTicks": 1788,
                    "midi": 83,
                    "name": "B5",
                    "ticks": 288000,
                    "time": 249.9999,
                    "velocity": 0.3779527559055118,
                },
                {
                    "duration": 0.17881937291667782,
                    "durationTicks": 206,
                    "midi": 83,
                    "name": "B5",
                    "ticks": 289920,
                    "time": 251.666566,
                    "velocity": 0.4251968503937008,
                },
                {
                    "duration": 0.17881937291667782,
                    "durationTicks": 206,
                    "midi": 84,
                    "name": "C6",
                    "ticks": 290126,
                    "time": 251.84538537291667,
                    "velocity": 0.4251968503937008,
                },
                {
                    "duration": 1.0512148572916544,
                    "durationTicks": 1211,
                    "midi": 86,
                    "name": "D6",
                    "ticks": 290332,
                    "time": 252.02420474583334,
                    "velocity": 0.4251968503937008,
                },
                {
                    "duration": 0.27690961145830784,
                    "durationTicks": 319,
                    "midi": 84,
                    "name": "C6",
                    "ticks": 291198,
                    "time": 252.77594055625002,
                    "velocity": 0.3543307086614173,
                },
                {
                    "duration": 0.2803818322916811,
                    "durationTicks": 323,
                    "midi": 83,
                    "name": "B5",
                    "ticks": 291517,
                    "time": 253.05285016770833,
                    "velocity": 0.3543307086614173,
                },
                {
                    "duration": 0.42274288645833735,
                    "durationTicks": 487,
                    "midi": 83,
                    "name": "B5",
                    "ticks": 291840,
                    "time": 253.333232,
                    "velocity": 0.4015748031496063,
                },
                {
                    "duration": 0.3932290093750055,
                    "durationTicks": 453,
                    "midi": 84,
                    "name": "C6",
                    "ticks": 292320,
                    "time": 253.7498985,
                    "velocity": 0.4330708661417323,
                },
                {
                    "duration": 0.8333330000000103,
                    "durationTicks": 960,
                    "midi": 84,
                    "name": "C6",
                    "ticks": 292800,
                    "time": 254.166565,
                    "velocity": 0.3937007874015748,
                },
                {
                    "duration": 1.2725689354166718,
                    "durationTicks": 1466,
                    "midi": 84,
                    "name": "C6",
                    "ticks": 293760,
                    "time": 254.999898,
                    "velocity": 0.4015748031496063,
                },
                {
                    "duration": 0.3932290093750339,
                    "durationTicks": 453,
                    "midi": 86,
                    "name": "D6",
                    "ticks": 295200,
                    "time": 256.2498975,
                    "velocity": 0.4330708661417323,
                },
                {
                    "duration": 0.4227428864583658,
                    "durationTicks": 487,
                    "midi": 87,
                    "name": "D#6",
                    "ticks": 295680,
                    "time": 256.666564,
                    "velocity": 0.4094488188976378,
                },
                {
                    "duration": 0.39322900937497707,
                    "durationTicks": 453,
                    "midi": 88,
                    "name": "E6",
                    "ticks": 296160,
                    "time": 257.0832305,
                    "velocity": 0.4251968503937008,
                },
                {
                    "duration": 0.2473957343750044,
                    "durationTicks": 285,
                    "midi": 88,
                    "name": "E6",
                    "ticks": 296640,
                    "time": 257.499897,
                    "velocity": 0.3858267716535433,
                },
                {
                    "duration": 0.2473957343750044,
                    "durationTicks": 285,
                    "midi": 88,
                    "name": "E6",
                    "ticks": 297120,
                    "time": 257.9165635,
                    "velocity": 0.3464566929133858,
                },
                {
                    "duration": 0.17881937291667782,
                    "durationTicks": 206,
                    "midi": 86,
                    "name": "D6",
                    "ticks": 297600,
                    "time": 258.33323,
                    "velocity": 0.4094488188976378,
                },
                {
                    "duration": 0.17881937291662098,
                    "durationTicks": 206,
                    "midi": 88,
                    "name": "E6",
                    "ticks": 297806,
                    "time": 258.5120493729167,
                    "velocity": 0.4094488188976378,
                },
                {
                    "duration": 1.0512148572917113,
                    "durationTicks": 1211,
                    "midi": 89,
                    "name": "F6",
                    "ticks": 298012,
                    "time": 258.6908687458333,
                    "velocity": 0.4094488188976378,
                },
                {
                    "duration": 0.27690961145833626,
                    "durationTicks": 319,
                    "midi": 88,
                    "name": "E6",
                    "ticks": 298878,
                    "time": 259.44260455625,
                    "velocity": 0.3779527559055118,
                },
                {
                    "duration": 0.2803818322916527,
                    "durationTicks": 323,
                    "midi": 86,
                    "name": "D6",
                    "ticks": 299197,
                    "time": 259.7195141677083,
                    "velocity": 0.3543307086614173,
                },
                {
                    "duration": 0.4227428864583658,
                    "durationTicks": 487,
                    "midi": 86,
                    "name": "D6",
                    "ticks": 299520,
                    "time": 259.999896,
                    "velocity": 0.3858267716535433,
                },
                {
                    "duration": 0.3932290093750339,
                    "durationTicks": 453,
                    "midi": 88,
                    "name": "E6",
                    "ticks": 300000,
                    "time": 260.4165625,
                    "velocity": 0.3543307086614173,
                },
                {
                    "duration": 0.8333329999999819,
                    "durationTicks": 960,
                    "midi": 88,
                    "name": "E6",
                    "ticks": 300480,
                    "time": 260.833229,
                    "velocity": 0.3858267716535433,
                },
                {
                    "duration": 1.2725689354166434,
                    "durationTicks": 1466,
                    "midi": 88,
                    "name": "E6",
                    "ticks": 301440,
                    "time": 261.666562,
                    "velocity": 0.3779527559055118,
                },
                {
                    "duration": 0.42274288645830893,
                    "durationTicks": 487,
                    "midi": 90,
                    "name": "F#6",
                    "ticks": 302880,
                    "time": 262.9165615,
                    "velocity": 0.3937007874015748,
                },
                {
                    "duration": 0.8489579937499911,
                    "durationTicks": 978,
                    "midi": 88,
                    "name": "E6",
                    "ticks": 303360,
                    "time": 263.333228,
                    "velocity": 0.4330708661417323,
                },
                {
                    "duration": 0.39322900937497707,
                    "durationTicks": 453,
                    "midi": 87,
                    "name": "D#6",
                    "ticks": 304320,
                    "time": 264.166561,
                    "velocity": 0.4015748031496063,
                },
                {
                    "duration": 1.2725689354167002,
                    "durationTicks": 1466,
                    "midi": 86,
                    "name": "D6",
                    "ticks": 305280,
                    "time": 264.999894,
                    "velocity": 0.31496062992125984,
                },
                {
                    "duration": 0.4227428864583658,
                    "durationTicks": 487,
                    "midi": 88,
                    "name": "E6",
                    "ticks": 306720,
                    "time": 266.2498935,
                    "velocity": 0.3464566929133858,
                },
                {
                    "duration": 0.42274288645830893,
                    "durationTicks": 487,
                    "midi": 86,
                    "name": "D6",
                    "ticks": 307200,
                    "time": 266.66656,
                    "velocity": 0.3779527559055118,
                },
                {
                    "duration": 0.42274288645830893,
                    "durationTicks": 487,
                    "midi": 85,
                    "name": "C#6",
                    "ticks": 307680,
                    "time": 267.0832265,
                    "velocity": 0.3543307086614173,
                },
                {
                    "duration": 0.3932290093750339,
                    "durationTicks": 453,
                    "midi": 84,
                    "name": "C6",
                    "ticks": 308160,
                    "time": 267.499893,
                    "velocity": 0.33070866141732286,
                },
                {
                    "duration": 1.6987840427083256,
                    "durationTicks": 1957,
                    "midi": 84,
                    "name": "C6",
                    "ticks": 309120,
                    "time": 268.333226,
                    "velocity": 0.33070866141732286,
                },
                {
                    "duration": 0.8489579937499911,
                    "durationTicks": 978,
                    "midi": 83,
                    "name": "B5",
                    "ticks": 311040,
                    "time": 269.999892,
                    "velocity": 0.33070866141732286,
                },
                {
                    "duration": 0.7187497125000277,
                    "durationTicks": 828,
                    "midi": 84,
                    "name": "C6",
                    "ticks": 312000,
                    "time": 270.83322499999997,
                    "velocity": 0.4251968503937008,
                },
                {
                    "duration": 0.17881937291667782,
                    "durationTicks": 206,
                    "midi": 83,
                    "name": "B5",
                    "ticks": 312960,
                    "time": 271.666558,
                    "velocity": 0.3543307086614173,
                },
                {
                    "duration": 0.17881937291667782,
                    "durationTicks": 206,
                    "midi": 84,
                    "name": "C6",
                    "ticks": 313166,
                    "time": 271.8453773729167,
                    "velocity": 0.3543307086614173,
                },
                {
                    "duration": 1.0512148572916544,
                    "durationTicks": 1211,
                    "midi": 86,
                    "name": "D6",
                    "ticks": 313372,
                    "time": 272.02419674583336,
                    "velocity": 0.3543307086614173,
                },
                {
                    "duration": 0.27690961145833626,
                    "durationTicks": 319,
                    "midi": 84,
                    "name": "C6",
                    "ticks": 314238,
                    "time": 272.77593255625,
                    "velocity": 0.3543307086614173,
                },
                {
                    "duration": 0.2803818322916527,
                    "durationTicks": 323,
                    "midi": 83,
                    "name": "B5",
                    "ticks": 314557,
                    "time": 273.0528421677083,
                    "velocity": 0.3228346456692913,
                },
                {
                    "duration": 0.16579854479169853,
                    "durationTicks": 191,
                    "midi": 81,
                    "name": "A5",
                    "ticks": 314880,
                    "time": 273.333224,
                    "velocity": 0.3779527559055118,
                },
                {
                    "duration": 0.2803818322916527,
                    "durationTicks": 323,
                    "midi": 81,
                    "name": "A5",
                    "ticks": 315198,
                    "time": 273.60926555625,
                    "velocity": 0.3700787401574803,
                },
                {
                    "duration": 0.2638887833333001,
                    "durationTicks": 304,
                    "midi": 83,
                    "name": "B5",
                    "ticks": 315517,
                    "time": 273.88617516770836,
                    "velocity": 0.3700787401574803,
                },
                {
                    "duration": 0.1657985447916417,
                    "durationTicks": 191,
                    "midi": 84,
                    "name": "C6",
                    "ticks": 315840,
                    "time": 274.166557,
                    "velocity": 0.4251968503937008,
                },
                {
                    "duration": 0.2803818322916527,
                    "durationTicks": 323,
                    "midi": 84,
                    "name": "C6",
                    "ticks": 316158,
                    "time": 274.44259855625,
                    "velocity": 0.3779527559055118,
                },
                {
                    "duration": 0.28298599791668266,
                    "durationTicks": 326,
                    "midi": 86,
                    "name": "D6",
                    "ticks": 316477,
                    "time": 274.71950816770834,
                    "velocity": 0.3779527559055118,
                },
                {
                    "duration": 1.20746479479169,
                    "durationTicks": 1391,
                    "midi": 88,
                    "name": "E6",
                    "ticks": 316800,
                    "time": 274.99989,
                    "velocity": 0.4094488188976378,
                },
                {
                    "duration": 0.4227428864583658,
                    "durationTicks": 487,
                    "midi": 90,
                    "name": "F#6",
                    "ticks": 318240,
                    "time": 276.2498895,
                    "velocity": 0.3779527559055118,
                },
                {
                    "duration": 0.8489579937499911,
                    "durationTicks": 978,
                    "midi": 88,
                    "name": "E6",
                    "ticks": 318720,
                    "time": 276.666556,
                    "velocity": 0.3543307086614173,
                },
                {
                    "duration": 0.3932290093750339,
                    "durationTicks": 453,
                    "midi": 87,
                    "name": "D#6",
                    "ticks": 319680,
                    "time": 277.499889,
                    "velocity": 0.3228346456692913,
                },
                {
                    "duration": 0.2795137770833662,
                    "durationTicks": 322,
                    "midi": 86,
                    "name": "D6",
                    "ticks": 320640,
                    "time": 278.333222,
                    "velocity": 0.33070866141732286,
                },
                {
                    "duration": 0.2803818322916527,
                    "durationTicks": 323,
                    "midi": 83,
                    "name": "B5",
                    "ticks": 320958,
                    "time": 278.60926355625,
                    "velocity": 0.2992125984251969,
                },
                {
                    "duration": 0.2829859979166258,
                    "durationTicks": 326,
                    "midi": 85,
                    "name": "C#6",
                    "ticks": 321277,
                    "time": 278.88617316770836,
                    "velocity": 0.41732283464566927,
                },
                {
                    "duration": 0.2795137770833094,
                    "durationTicks": 322,
                    "midi": 86,
                    "name": "D6",
                    "ticks": 321600,
                    "time": 279.166555,
                    "velocity": 0.44881889763779526,
                },
                {
                    "duration": 0.2803818322916527,
                    "durationTicks": 323,
                    "midi": 88,
                    "name": "E6",
                    "ticks": 321918,
                    "time": 279.44259655625,
                    "velocity": 0.3779527559055118,
                },
                {
                    "duration": 0.2638887833333001,
                    "durationTicks": 304,
                    "midi": 86,
                    "name": "D6",
                    "ticks": 322237,
                    "time": 279.71950616770835,
                    "velocity": 0.3464566929133858,
                },
                {
                    "duration": 0.4227428864583658,
                    "durationTicks": 487,
                    "midi": 86,
                    "name": "D6",
                    "ticks": 322560,
                    "time": 279.999888,
                    "velocity": 0.3779527559055118,
                },
                {
                    "duration": 0.42274288645830893,
                    "durationTicks": 487,
                    "midi": 85,
                    "name": "C#6",
                    "ticks": 323040,
                    "time": 280.4165545,
                    "velocity": 0.3228346456692913,
                },
                {
                    "duration": 0.3932290093750339,
                    "durationTicks": 453,
                    "midi": 84,
                    "name": "C6",
                    "ticks": 323520,
                    "time": 280.833221,
                    "velocity": 0.3543307086614173,
                },
                {
                    "duration": 1.6987840427083256,
                    "durationTicks": 1957,
                    "midi": 84,
                    "name": "C6",
                    "ticks": 324480,
                    "time": 281.666554,
                    "velocity": 0.33858267716535434,
                },
                {
                    "duration": 0.848957993750048,
                    "durationTicks": 978,
                    "midi": 83,
                    "name": "B5",
                    "ticks": 326400,
                    "time": 283.33322,
                    "velocity": 0.31496062992125984,
                },
                {
                    "duration": 0.7187497124999709,
                    "durationTicks": 828,
                    "midi": 84,
                    "name": "C6",
                    "ticks": 327360,
                    "time": 284.166553,
                    "velocity": 0.3779527559055118,
                },
                {
                    "duration": 0.17881937291667782,
                    "durationTicks": 206,
                    "midi": 83,
                    "name": "B5",
                    "ticks": 328320,
                    "time": 284.999886,
                    "velocity": 0.41732283464566927,
                },
                {
                    "duration": 0.17881937291667782,
                    "durationTicks": 206,
                    "midi": 84,
                    "name": "C6",
                    "ticks": 328526,
                    "time": 285.1787053729167,
                    "velocity": 0.41732283464566927,
                },
                {
                    "duration": 1.0512148572916544,
                    "durationTicks": 1211,
                    "midi": 86,
                    "name": "D6",
                    "ticks": 328732,
                    "time": 285.35752474583336,
                    "velocity": 0.41732283464566927,
                },
                {
                    "duration": 0.27690961145833626,
                    "durationTicks": 319,
                    "midi": 84,
                    "name": "C6",
                    "ticks": 329598,
                    "time": 286.10926055625,
                    "velocity": 0.3858267716535433,
                },
                {
                    "duration": 0.28038183229170954,
                    "durationTicks": 323,
                    "midi": 83,
                    "name": "B5",
                    "ticks": 329917,
                    "time": 286.3861701677083,
                    "velocity": 0.36220472440944884,
                },
                {
                    "duration": 0.8333329999999819,
                    "durationTicks": 960,
                    "midi": 81,
                    "name": "A5",
                    "ticks": 330240,
                    "time": 286.666552,
                    "velocity": 0.3700787401574803,
                },
                {
                    "duration": 1.1093745562500317,
                    "durationTicks": 1278,
                    "midi": 81,
                    "name": "A5",
                    "ticks": 332160,
                    "time": 288.333218,
                    "velocity": 0.33858267716535434,
                },
                {
                    "duration": 0.2803818322916527,
                    "durationTicks": 323,
                    "midi": 83,
                    "name": "B5",
                    "ticks": 333438,
                    "time": 289.44259255625,
                    "velocity": 0.36220472440944884,
                },
                {
                    "duration": 0.2638887833333001,
                    "durationTicks": 304,
                    "midi": 85,
                    "name": "C#6",
                    "ticks": 333757,
                    "time": 289.71950216770836,
                    "velocity": 0.36220472440944884,
                },
                {
                    "duration": 0.42274288645830893,
                    "durationTicks": 487,
                    "midi": 85,
                    "name": "C#6",
                    "ticks": 334080,
                    "time": 289.999884,
                    "velocity": 0.3543307086614173,
                },
                {
                    "duration": 0.3932290093750339,
                    "durationTicks": 453,
                    "midi": 86,
                    "name": "D6",
                    "ticks": 334560,
                    "time": 290.41655049999997,
                    "velocity": 0.33070866141732286,
                },
                {
                    "duration": 0.8333329999999819,
                    "durationTicks": 960,
                    "midi": 86,
                    "name": "D6",
                    "ticks": 335040,
                    "time": 290.833217,
                    "velocity": 0.3937007874015748,
                },
                {
                    "duration": 1.1093745562500317,
                    "durationTicks": 1278,
                    "midi": 86,
                    "name": "D6",
                    "ticks": 336000,
                    "time": 291.66655,
                    "velocity": 0.3858267716535433,
                },
                {
                    "duration": 0.2803818322916527,
                    "durationTicks": 323,
                    "midi": 88,
                    "name": "E6",
                    "ticks": 337278,
                    "time": 292.77592455625,
                    "velocity": 0.3700787401574803,
                },
                {
                    "duration": 0.2638887833333001,
                    "durationTicks": 304,
                    "midi": 89,
                    "name": "F6",
                    "ticks": 337597,
                    "time": 293.05283416770834,
                    "velocity": 0.4094488188976378,
                },
                {
                    "duration": 0.4227428864583658,
                    "durationTicks": 487,
                    "midi": 89,
                    "name": "F6",
                    "ticks": 337920,
                    "time": 293.333216,
                    "velocity": 0.3937007874015748,
                },
                {
                    "duration": 0.39322900937497707,
                    "durationTicks": 453,
                    "midi": 88,
                    "name": "E6",
                    "ticks": 338400,
                    "time": 293.7498825,
                    "velocity": 0.3464566929133858,
                },
                {
                    "duration": 0.8333330000000387,
                    "durationTicks": 960,
                    "midi": 88,
                    "name": "E6",
                    "ticks": 338880,
                    "time": 294.166549,
                    "velocity": 0.36220472440944884,
                },
                {
                    "duration": 0.27604155624999294,
                    "durationTicks": 318,
                    "midi": 81,
                    "name": "A5",
                    "ticks": 339840,
                    "time": 294.999882,
                    "velocity": 0.3858267716535433,
                },
                {
                    "duration": 0.27690961145833626,
                    "durationTicks": 319,
                    "midi": 81,
                    "name": "A5",
                    "ticks": 340158,
                    "time": 295.27592355625,
                    "velocity": 0.3779527559055118,
                },
                {
                    "duration": 0.2803818322916527,
                    "durationTicks": 323,
                    "midi": 81,
                    "name": "A5",
                    "ticks": 340477,
                    "time": 295.55283316770834,
                    "velocity": 0.4409448818897638,
                },
                {
                    "duration": 0.2795137770833662,
                    "durationTicks": 322,
                    "midi": 81,
                    "name": "A5",
                    "ticks": 340800,
                    "time": 295.833215,
                    "velocity": 0.3937007874015748,
                },
                {
                    "duration": 0.2803818322916527,
                    "durationTicks": 323,
                    "midi": 83,
                    "name": "B5",
                    "ticks": 341118,
                    "time": 296.10925655625,
                    "velocity": 0.4645669291338583,
                },
                {
                    "duration": 0.26388878333335697,
                    "durationTicks": 304,
                    "midi": 85,
                    "name": "C#6",
                    "ticks": 341437,
                    "time": 296.3861661677083,
                    "velocity": 0.48031496062992124,
                },
                {
                    "duration": 0.2795137770833662,
                    "durationTicks": 322,
                    "midi": 85,
                    "name": "C#6",
                    "ticks": 341760,
                    "time": 296.666548,
                    "velocity": 0.4881889763779528,
                },
                {
                    "duration": 0.2604165624999837,
                    "durationTicks": 300,
                    "midi": 86,
                    "name": "D6",
                    "ticks": 342078,
                    "time": 296.94258955625,
                    "velocity": 0.5118110236220472,
                },
                {
                    "duration": 0.1657985447916417,
                    "durationTicks": 191,
                    "midi": 86,
                    "name": "D6",
                    "ticks": 342397,
                    "time": 297.21949916770836,
                    "velocity": 0.49606299212598426,
                },
                {
                    "duration": 0.8333329999999819,
                    "durationTicks": 960,
                    "midi": 86,
                    "name": "D6",
                    "ticks": 342720,
                    "time": 297.499881,
                    "velocity": 0.5433070866141733,
                },
                {
                    "duration": 0.27604155624999294,
                    "durationTicks": 318,
                    "midi": 86,
                    "name": "D6",
                    "ticks": 343680,
                    "time": 298.333214,
                    "velocity": 0.5590551181102362,
                },
                {
                    "duration": 0.27690961145833626,
                    "durationTicks": 319,
                    "midi": 86,
                    "name": "D6",
                    "ticks": 343998,
                    "time": 298.60925555625,
                    "velocity": 0.5511811023622047,
                },
                {
                    "duration": 0.2803818322916527,
                    "durationTicks": 323,
                    "midi": 86,
                    "name": "D6",
                    "ticks": 344317,
                    "time": 298.8861651677083,
                    "velocity": 0.5984251968503937,
                },
                {
                    "duration": 0.2795137770833662,
                    "durationTicks": 322,
                    "midi": 86,
                    "name": "D6",
                    "ticks": 344640,
                    "time": 299.166547,
                    "velocity": 0.6062992125984252,
                },
                {
                    "duration": 0.2803818322916527,
                    "durationTicks": 323,
                    "midi": 88,
                    "name": "E6",
                    "ticks": 344958,
                    "time": 299.44258855625003,
                    "velocity": 0.6377952755905512,
                },
                {
                    "duration": 0.26388878333335697,
                    "durationTicks": 304,
                    "midi": 89,
                    "name": "F6",
                    "ticks": 345277,
                    "time": 299.7194981677083,
                    "velocity": 0.6535433070866141,
                },
                {
                    "duration": 0.2795137770833094,
                    "durationTicks": 322,
                    "midi": 89,
                    "name": "F6",
                    "ticks": 345600,
                    "time": 299.99988,
                    "velocity": 0.5748031496062992,
                },
                {
                    "duration": 0.2604165624999837,
                    "durationTicks": 300,
                    "midi": 88,
                    "name": "E6",
                    "ticks": 345918,
                    "time": 300.27592155625,
                    "velocity": 0.5590551181102362,
                },
                {
                    "duration": 0.1657985447916417,
                    "durationTicks": 191,
                    "midi": 88,
                    "name": "E6",
                    "ticks": 346237,
                    "time": 300.55283116770835,
                    "velocity": 0.5590551181102362,
                },
                {
                    "duration": 0.2795137770833662,
                    "durationTicks": 322,
                    "midi": 88,
                    "name": "E6",
                    "ticks": 347520,
                    "time": 301.666546,
                    "velocity": 0.5196850393700787,
                },
                {
                    "duration": 0.2604165624999837,
                    "durationTicks": 300,
                    "midi": 89,
                    "name": "F6",
                    "ticks": 347838,
                    "time": 301.94258755625003,
                    "velocity": 0.5669291338582677,
                },
                {
                    "duration": 0.16579854479169853,
                    "durationTicks": 191,
                    "midi": 89,
                    "name": "F6",
                    "ticks": 348157,
                    "time": 302.2194971677083,
                    "velocity": 0.49606299212598426,
                },
                {
                    "duration": 0.2795137770833094,
                    "durationTicks": 322,
                    "midi": 89,
                    "name": "F6",
                    "ticks": 349440,
                    "time": 303.333212,
                    "velocity": 0.3700787401574803,
                },
                {
                    "duration": 0.2604165624999837,
                    "durationTicks": 300,
                    "midi": 88,
                    "name": "E6",
                    "ticks": 349758,
                    "time": 303.60925355625,
                    "velocity": 0.33070866141732286,
                },
                {
                    "duration": 0.2803818322916527,
                    "durationTicks": 323,
                    "midi": 88,
                    "name": "E6",
                    "ticks": 350077,
                    "time": 303.88616316770833,
                    "velocity": 0.3779527559055118,
                },
                {
                    "duration": 0.8333329999999819,
                    "durationTicks": 960,
                    "midi": 80,
                    "name": "G#5",
                    "ticks": 401280,
                    "time": 348.333194,
                    "velocity": 0.33070866141732286,
                },
                {
                    "duration": 0.2473957343750044,
                    "durationTicks": 285,
                    "midi": 80,
                    "name": "G#5",
                    "ticks": 402240,
                    "time": 349.166527,
                    "velocity": 0.41732283464566927,
                },
                {
                    "duration": 0.2473957343750044,
                    "durationTicks": 285,
                    "midi": 81,
                    "name": "A5",
                    "ticks": 402720,
                    "time": 349.5831935,
                    "velocity": 0.48031496062992124,
                },
                {
                    "duration": 0.8333329999999819,
                    "durationTicks": 960,
                    "midi": 83,
                    "name": "B5",
                    "ticks": 403200,
                    "time": 349.99986,
                    "velocity": 0.5039370078740157,
                },
                {
                    "duration": 0.2473957343750044,
                    "durationTicks": 285,
                    "midi": 83,
                    "name": "B5",
                    "ticks": 404160,
                    "time": 350.833193,
                    "velocity": 0.5590551181102362,
                },
                {
                    "duration": 0.2473957343750044,
                    "durationTicks": 285,
                    "midi": 84,
                    "name": "C6",
                    "ticks": 404640,
                    "time": 351.2498595,
                    "velocity": 0.6220472440944882,
                },
                {
                    "duration": 0.8333330000000387,
                    "durationTicks": 960,
                    "midi": 86,
                    "name": "D6",
                    "ticks": 405120,
                    "time": 351.666526,
                    "velocity": 0.6535433070866141,
                },
                {
                    "duration": 0.2473957343750044,
                    "durationTicks": 285,
                    "midi": 86,
                    "name": "D6",
                    "ticks": 406080,
                    "time": 352.499859,
                    "velocity": 0.7322834645669292,
                },
                {
                    "duration": 0.2473957343750044,
                    "durationTicks": 285,
                    "midi": 88,
                    "name": "E6",
                    "ticks": 406560,
                    "time": 352.9165255,
                    "velocity": 0.8110236220472441,
                },
                {
                    "duration": 0.4227428864583658,
                    "durationTicks": 487,
                    "midi": 89,
                    "name": "F6",
                    "ticks": 407040,
                    "time": 353.333192,
                    "velocity": 0.8031496062992126,
                },
                {
                    "duration": 0.2109374156249828,
                    "durationTicks": 243,
                    "midi": 88,
                    "name": "E6",
                    "ticks": 407520,
                    "time": 353.7498585,
                    "velocity": 0.7716535433070866,
                },
                {
                    "duration": 0.21093741562503965,
                    "durationTicks": 243,
                    "midi": 87,
                    "name": "D#6",
                    "ticks": 407760,
                    "time": 353.95819174999997,
                    "velocity": 0.7795275590551181,
                },
                {
                    "duration": 0.1953124218750304,
                    "durationTicks": 225,
                    "midi": 88,
                    "name": "E6",
                    "ticks": 408000,
                    "time": 354.166525,
                    "velocity": 0.8740157480314961,
                },
                {
                    "duration": 0.12326383958333054,
                    "durationTicks": 142,
                    "midi": 76,
                    "name": "E5",
                    "ticks": 408240,
                    "time": 354.37485825,
                    "velocity": 0.6062992125984252,
                },
                {
                    "duration": 0.12326383958333054,
                    "durationTicks": 142,
                    "midi": 78,
                    "name": "F#5",
                    "ticks": 408480,
                    "time": 354.5831915,
                    "velocity": 0.8740157480314961,
                },
                {
                    "duration": 0.12326383958333054,
                    "durationTicks": 142,
                    "midi": 80,
                    "name": "G#5",
                    "ticks": 408720,
                    "time": 354.79152475,
                    "velocity": 0.905511811023622,
                },
                {
                    "duration": 0.12326383958333054,
                    "durationTicks": 142,
                    "midi": 81,
                    "name": "A5",
                    "ticks": 408960,
                    "time": 354.999858,
                    "velocity": 0.937007874015748,
                },
                {
                    "duration": 0.12326383958338738,
                    "durationTicks": 142,
                    "midi": 83,
                    "name": "B5",
                    "ticks": 409200,
                    "time": 355.20819124999997,
                    "velocity": 0.905511811023622,
                },
                {
                    "duration": 0.12326383958333054,
                    "durationTicks": 142,
                    "midi": 84,
                    "name": "C6",
                    "ticks": 409440,
                    "time": 355.4165245,
                    "velocity": 0.937007874015748,
                },
                {
                    "duration": 0.12326383958333054,
                    "durationTicks": 142,
                    "midi": 83,
                    "name": "B5",
                    "ticks": 409680,
                    "time": 355.62485775,
                    "velocity": 0.8661417322834646,
                },
                {
                    "duration": 0.12326383958333054,
                    "durationTicks": 142,
                    "midi": 81,
                    "name": "A5",
                    "ticks": 409920,
                    "time": 355.833191,
                    "velocity": 0.8031496062992126,
                },
                {
                    "duration": 0.12326383958333054,
                    "durationTicks": 142,
                    "midi": 84,
                    "name": "C6",
                    "ticks": 410160,
                    "time": 356.04152425,
                    "velocity": 0.952755905511811,
                },
                {
                    "duration": 0.12326383958333054,
                    "durationTicks": 142,
                    "midi": 83,
                    "name": "B5",
                    "ticks": 410400,
                    "time": 356.2498575,
                    "velocity": 0.8031496062992126,
                },
                {
                    "duration": 0.12326383958338738,
                    "durationTicks": 142,
                    "midi": 81,
                    "name": "A5",
                    "ticks": 410640,
                    "time": 356.45819074999997,
                    "velocity": 0.7874015748031497,
                },
                {
                    "duration": 0.12326383958333054,
                    "durationTicks": 142,
                    "midi": 76,
                    "name": "E5",
                    "ticks": 410880,
                    "time": 356.666524,
                    "velocity": 0.7165354330708661,
                },
                {
                    "duration": 0.12326383958333054,
                    "durationTicks": 142,
                    "midi": 78,
                    "name": "F#5",
                    "ticks": 411120,
                    "time": 356.87485725,
                    "velocity": 0.8976377952755905,
                },
                {
                    "duration": 0.12326383958333054,
                    "durationTicks": 142,
                    "midi": 80,
                    "name": "G#5",
                    "ticks": 411360,
                    "time": 357.0831905,
                    "velocity": 0.9133858267716536,
                },
                {
                    "duration": 0.12326383958333054,
                    "durationTicks": 142,
                    "midi": 81,
                    "name": "A5",
                    "ticks": 411600,
                    "time": 357.29152375,
                    "velocity": 0.9763779527559056,
                },
                {
                    "duration": 0.12326383958333054,
                    "durationTicks": 142,
                    "midi": 83,
                    "name": "B5",
                    "ticks": 411840,
                    "time": 357.499857,
                    "velocity": 0.9291338582677166,
                },
                {
                    "duration": 0.12326383958338738,
                    "durationTicks": 142,
                    "midi": 84,
                    "name": "C6",
                    "ticks": 412080,
                    "time": 357.70819025,
                    "velocity": 0.9212598425196851,
                },
                {
                    "duration": 0.12326383958333054,
                    "durationTicks": 142,
                    "midi": 86,
                    "name": "D6",
                    "ticks": 412320,
                    "time": 357.9165235,
                    "velocity": 0.952755905511811,
                },
                {
                    "duration": 0.12326383958333054,
                    "durationTicks": 142,
                    "midi": 88,
                    "name": "E6",
                    "ticks": 412560,
                    "time": 358.12485675,
                    "velocity": 0.9448818897637795,
                },
                {
                    "duration": 0.12326383958333054,
                    "durationTicks": 142,
                    "midi": 86,
                    "name": "D6",
                    "ticks": 412800,
                    "time": 358.33319,
                    "velocity": 1,
                },
                {
                    "duration": 0.12326383958333054,
                    "durationTicks": 142,
                    "midi": 83,
                    "name": "B5",
                    "ticks": 413040,
                    "time": 358.54152325,
                    "velocity": 0.8503937007874016,
                },
                {
                    "duration": 0.12326383958333054,
                    "durationTicks": 142,
                    "midi": 84,
                    "name": "C6",
                    "ticks": 413280,
                    "time": 358.7498565,
                    "velocity": 0.9133858267716536,
                },
                {
                    "duration": 0.12326383958338738,
                    "durationTicks": 142,
                    "midi": 86,
                    "name": "D6",
                    "ticks": 413520,
                    "time": 358.95818975,
                    "velocity": 0.9606299212598425,
                },
                {
                    "duration": 0.12326383958333054,
                    "durationTicks": 142,
                    "midi": 88,
                    "name": "E6",
                    "ticks": 413760,
                    "time": 359.166523,
                    "velocity": 0.952755905511811,
                },
                {
                    "duration": 0.12326383958333054,
                    "durationTicks": 142,
                    "midi": 86,
                    "name": "D6",
                    "ticks": 414000,
                    "time": 359.37485625,
                    "velocity": 0.8346456692913385,
                },
                {
                    "duration": 0.12326383958333054,
                    "durationTicks": 142,
                    "midi": 84,
                    "name": "C6",
                    "ticks": 414240,
                    "time": 359.5831895,
                    "velocity": 0.7874015748031497,
                },
                {
                    "duration": 0.12326383958333054,
                    "durationTicks": 142,
                    "midi": 83,
                    "name": "B5",
                    "ticks": 414480,
                    "time": 359.79152275,
                    "velocity": 0.8267716535433071,
                },
                {
                    "duration": 0.12326383958333054,
                    "durationTicks": 142,
                    "midi": 84,
                    "name": "C6",
                    "ticks": 414720,
                    "time": 359.999856,
                    "velocity": 0.7795275590551181,
                },
                {
                    "duration": 0.12326383958338738,
                    "durationTicks": 142,
                    "midi": 83,
                    "name": "B5",
                    "ticks": 414960,
                    "time": 360.20818925,
                    "velocity": 0.84251968503937,
                },
                {
                    "duration": 0.12326383958333054,
                    "durationTicks": 142,
                    "midi": 84,
                    "name": "C6",
                    "ticks": 415200,
                    "time": 360.4165225,
                    "velocity": 0.937007874015748,
                },
                {
                    "duration": 0.12326383958333054,
                    "durationTicks": 142,
                    "midi": 86,
                    "name": "D6",
                    "ticks": 415440,
                    "time": 360.62485575,
                    "velocity": 0.937007874015748,
                },
                {
                    "duration": 0.12326383958333054,
                    "durationTicks": 142,
                    "midi": 88,
                    "name": "E6",
                    "ticks": 415680,
                    "time": 360.833189,
                    "velocity": 0.9606299212598425,
                },
                {
                    "duration": 0.12326383958333054,
                    "durationTicks": 142,
                    "midi": 76,
                    "name": "E5",
                    "ticks": 415920,
                    "time": 361.04152225,
                    "velocity": 0.6692913385826772,
                },
                {
                    "duration": 0.12326383958333054,
                    "durationTicks": 142,
                    "midi": 78,
                    "name": "F#5",
                    "ticks": 416160,
                    "time": 361.2498555,
                    "velocity": 0.889763779527559,
                },
                {
                    "duration": 0.12326383958333054,
                    "durationTicks": 142,
                    "midi": 80,
                    "name": "G#5",
                    "ticks": 416400,
                    "time": 361.45818875,
                    "velocity": 0.9291338582677166,
                },
                {
                    "duration": 0.12326383958333054,
                    "durationTicks": 142,
                    "midi": 81,
                    "name": "A5",
                    "ticks": 416640,
                    "time": 361.666522,
                    "velocity": 0.8031496062992126,
                },
                {
                    "duration": 0.12326383958333054,
                    "durationTicks": 142,
                    "midi": 83,
                    "name": "B5",
                    "ticks": 416880,
                    "time": 361.87485525,
                    "velocity": 0.9291338582677166,
                },
                {
                    "duration": 0.12326383958333054,
                    "durationTicks": 142,
                    "midi": 84,
                    "name": "C6",
                    "ticks": 417120,
                    "time": 362.0831885,
                    "velocity": 0.9291338582677166,
                },
                {
                    "duration": 0.12326383958333054,
                    "durationTicks": 142,
                    "midi": 83,
                    "name": "B5",
                    "ticks": 417360,
                    "time": 362.29152175,
                    "velocity": 0.8582677165354331,
                },
                {
                    "duration": 0.12326383958338738,
                    "durationTicks": 142,
                    "midi": 81,
                    "name": "A5",
                    "ticks": 417600,
                    "time": 362.49985499999997,
                    "velocity": 0.7952755905511811,
                },
                {
                    "duration": 0.12326383958333054,
                    "durationTicks": 142,
                    "midi": 84,
                    "name": "C6",
                    "ticks": 417840,
                    "time": 362.70818825,
                    "velocity": 0.9212598425196851,
                },
                {
                    "duration": 0.12326383958333054,
                    "durationTicks": 142,
                    "midi": 83,
                    "name": "B5",
                    "ticks": 418080,
                    "time": 362.9165215,
                    "velocity": 0.8346456692913385,
                },
                {
                    "duration": 0.12326383958333054,
                    "durationTicks": 142,
                    "midi": 81,
                    "name": "A5",
                    "ticks": 418320,
                    "time": 363.12485475,
                    "velocity": 0.8031496062992126,
                },
                {
                    "duration": 0.12326383958333054,
                    "durationTicks": 142,
                    "midi": 76,
                    "name": "E5",
                    "ticks": 418560,
                    "time": 363.333188,
                    "velocity": 0.7559055118110236,
                },
                {
                    "duration": 0.12326383958333054,
                    "durationTicks": 142,
                    "midi": 78,
                    "name": "F#5",
                    "ticks": 418800,
                    "time": 363.54152125,
                    "velocity": 0.905511811023622,
                },
                {
                    "duration": 0.12326383958338738,
                    "durationTicks": 142,
                    "midi": 80,
                    "name": "G#5",
                    "ticks": 419040,
                    "time": 363.74985449999997,
                    "velocity": 0.9133858267716536,
                },
                {
                    "duration": 0.12326383958333054,
                    "durationTicks": 142,
                    "midi": 81,
                    "name": "A5",
                    "ticks": 419280,
                    "time": 363.95818775,
                    "velocity": 0.968503937007874,
                },
                {
                    "duration": 0.12326383958333054,
                    "durationTicks": 142,
                    "midi": 83,
                    "name": "B5",
                    "ticks": 419520,
                    "time": 364.166521,
                    "velocity": 0.937007874015748,
                },
                {
                    "duration": 0.12326383958333054,
                    "durationTicks": 142,
                    "midi": 84,
                    "name": "C6",
                    "ticks": 419760,
                    "time": 364.37485425,
                    "velocity": 0.9291338582677166,
                },
                {
                    "duration": 0.12326383958333054,
                    "durationTicks": 142,
                    "midi": 86,
                    "name": "D6",
                    "ticks": 420000,
                    "time": 364.5831875,
                    "velocity": 0.9133858267716536,
                },
                {
                    "duration": 0.12326383958333054,
                    "durationTicks": 142,
                    "midi": 88,
                    "name": "E6",
                    "ticks": 420240,
                    "time": 364.79152075,
                    "velocity": 0.9448818897637795,
                },
                {
                    "duration": 0.12326383958338738,
                    "durationTicks": 142,
                    "midi": 86,
                    "name": "D6",
                    "ticks": 420480,
                    "time": 364.99985399999997,
                    "velocity": 0.8267716535433071,
                },
                {
                    "duration": 0.12326383958333054,
                    "durationTicks": 142,
                    "midi": 83,
                    "name": "B5",
                    "ticks": 420720,
                    "time": 365.20818725,
                    "velocity": 0.8110236220472441,
                },
                {
                    "duration": 0.12326383958333054,
                    "durationTicks": 142,
                    "midi": 84,
                    "name": "C6",
                    "ticks": 420960,
                    "time": 365.4165205,
                    "velocity": 0.9291338582677166,
                },
                {
                    "duration": 0.12326383958333054,
                    "durationTicks": 142,
                    "midi": 86,
                    "name": "D6",
                    "ticks": 421200,
                    "time": 365.62485375,
                    "velocity": 0.9291338582677166,
                },
                {
                    "duration": 0.12326383958333054,
                    "durationTicks": 142,
                    "midi": 88,
                    "name": "E6",
                    "ticks": 421440,
                    "time": 365.833187,
                    "velocity": 0.984251968503937,
                },
                {
                    "duration": 0.12326383958333054,
                    "durationTicks": 142,
                    "midi": 86,
                    "name": "D6",
                    "ticks": 421680,
                    "time": 366.04152025,
                    "velocity": 0.8346456692913385,
                },
                {
                    "duration": 0.12326383958338738,
                    "durationTicks": 142,
                    "midi": 84,
                    "name": "C6",
                    "ticks": 421920,
                    "time": 366.2498535,
                    "velocity": 0.8346456692913385,
                },
                {
                    "duration": 0.12326383958333054,
                    "durationTicks": 142,
                    "midi": 83,
                    "name": "B5",
                    "ticks": 422160,
                    "time": 366.45818675,
                    "velocity": 0.8503937007874016,
                },
                {
                    "duration": 0.8333329999999819,
                    "durationTicks": 960,
                    "midi": 81,
                    "name": "A5",
                    "ticks": 422400,
                    "time": 366.66652,
                    "velocity": 0.7874015748031497,
                },
                {
                    "duration": 3.3984361406249946,
                    "durationTicks": 3915,
                    "midi": 88,
                    "name": "E6",
                    "ticks": 446400,
                    "time": 387.499845,
                    "velocity": 0.3543307086614173,
                },
                {
                    "duration": 3.3984361406249946,
                    "durationTicks": 3915,
                    "midi": 91,
                    "name": "G6",
                    "ticks": 446400,
                    "time": 387.499845,
                    "velocity": 0.3543307086614173,
                },
                {
                    "duration": 1.6987840427083825,
                    "durationTicks": 1957,
                    "midi": 86,
                    "name": "D6",
                    "ticks": 450240,
                    "time": 390.833177,
                    "velocity": 0.4881889763779528,
                },
                {
                    "duration": 1.6987840427083825,
                    "durationTicks": 1957,
                    "midi": 90,
                    "name": "F#6",
                    "ticks": 450240,
                    "time": 390.833177,
                    "velocity": 0.4881889763779528,
                },
                {
                    "duration": 0.8489579937499911,
                    "durationTicks": 978,
                    "midi": 85,
                    "name": "C#6",
                    "ticks": 452160,
                    "time": 392.499843,
                    "velocity": 0.5590551181102362,
                },
                {
                    "duration": 0.8489579937499911,
                    "durationTicks": 978,
                    "midi": 88,
                    "name": "E6",
                    "ticks": 452160,
                    "time": 392.499843,
                    "velocity": 0.5590551181102362,
                },
                {
                    "duration": 0.848957993750048,
                    "durationTicks": 978,
                    "midi": 78,
                    "name": "F#5",
                    "ticks": 453120,
                    "time": 393.333176,
                    "velocity": 0.47244094488188976,
                },
                {
                    "duration": 0.848957993750048,
                    "durationTicks": 978,
                    "midi": 86,
                    "name": "D6",
                    "ticks": 453120,
                    "time": 393.333176,
                    "velocity": 0.47244094488188976,
                },
                {
                    "duration": 0.8489579937499911,
                    "durationTicks": 978,
                    "midi": 76,
                    "name": "E5",
                    "ticks": 454080,
                    "time": 394.166509,
                    "velocity": 0.4645669291338583,
                },
                {
                    "duration": 0.8489579937499911,
                    "durationTicks": 978,
                    "midi": 85,
                    "name": "C#6",
                    "ticks": 454080,
                    "time": 394.166509,
                    "velocity": 0.4645669291338583,
                },
                {
                    "duration": 0.8489579937499911,
                    "durationTicks": 978,
                    "midi": 78,
                    "name": "F#5",
                    "ticks": 455040,
                    "time": 394.999842,
                    "velocity": 0.4881889763779528,
                },
                {
                    "duration": 0.8489579937499911,
                    "durationTicks": 978,
                    "midi": 86,
                    "name": "D6",
                    "ticks": 455040,
                    "time": 394.999842,
                    "velocity": 0.4881889763779528,
                },
                {
                    "duration": 0.848957993750048,
                    "durationTicks": 978,
                    "midi": 80,
                    "name": "G#5",
                    "ticks": 456000,
                    "time": 395.833175,
                    "velocity": 0.5039370078740157,
                },
                {
                    "duration": 0.848957993750048,
                    "durationTicks": 978,
                    "midi": 88,
                    "name": "E6",
                    "ticks": 456000,
                    "time": 395.833175,
                    "velocity": 0.5039370078740157,
                },
                {
                    "duration": 1.5815965895833415,
                    "durationTicks": 1822,
                    "midi": 81,
                    "name": "A5",
                    "ticks": 456960,
                    "time": 396.666508,
                    "velocity": 0.49606299212598426,
                },
                {
                    "duration": 1.5815965895833415,
                    "durationTicks": 1822,
                    "midi": 85,
                    "name": "C#6",
                    "ticks": 456960,
                    "time": 396.666508,
                    "velocity": 0.49606299212598426,
                },
                {
                    "duration": 0.8489579937499911,
                    "durationTicks": 978,
                    "midi": 78,
                    "name": "F#5",
                    "ticks": 458880,
                    "time": 398.333174,
                    "velocity": 0.4881889763779528,
                },
                {
                    "duration": 0.8489579937499911,
                    "durationTicks": 978,
                    "midi": 86,
                    "name": "D6",
                    "ticks": 458880,
                    "time": 398.333174,
                    "velocity": 0.4881889763779528,
                },
                {
                    "duration": 0.848957993750048,
                    "durationTicks": 978,
                    "midi": 80,
                    "name": "G#5",
                    "ticks": 459840,
                    "time": 399.16650699999997,
                    "velocity": 0.5433070866141733,
                },
                {
                    "duration": 0.848957993750048,
                    "durationTicks": 978,
                    "midi": 88,
                    "name": "E6",
                    "ticks": 459840,
                    "time": 399.16650699999997,
                    "velocity": 0.5433070866141733,
                },
                {
                    "duration": 1.5815965895833415,
                    "durationTicks": 1822,
                    "midi": 81,
                    "name": "A5",
                    "ticks": 460800,
                    "time": 399.99984,
                    "velocity": 0.41732283464566927,
                },
                {
                    "duration": 1.5815965895833415,
                    "durationTicks": 1822,
                    "midi": 85,
                    "name": "C#6",
                    "ticks": 460800,
                    "time": 399.99984,
                    "velocity": 0.41732283464566927,
                },
                {
                    "duration": 0.848957993750048,
                    "durationTicks": 978,
                    "midi": 78,
                    "name": "F#5",
                    "ticks": 462720,
                    "time": 401.66650599999997,
                    "velocity": 0.4566929133858268,
                },
                {
                    "duration": 0.848957993750048,
                    "durationTicks": 978,
                    "midi": 86,
                    "name": "D6",
                    "ticks": 462720,
                    "time": 401.66650599999997,
                    "velocity": 0.4566929133858268,
                },
                {
                    "duration": 0.7907982947916707,
                    "durationTicks": 911,
                    "midi": 80,
                    "name": "G#5",
                    "ticks": 463680,
                    "time": 402.499839,
                    "velocity": 0.4881889763779528,
                },
                {
                    "duration": 0.7907982947916707,
                    "durationTicks": 911,
                    "midi": 88,
                    "name": "E6",
                    "ticks": 463680,
                    "time": 402.499839,
                    "velocity": 0.4881889763779528,
                },
                {
                    "duration": 0.8333329999999819,
                    "durationTicks": 960,
                    "midi": 81,
                    "name": "A5",
                    "ticks": 464640,
                    "time": 403.333172,
                    "velocity": 0.2047244094488189,
                },
                {
                    "duration": 0.2473957343750044,
                    "durationTicks": 285,
                    "midi": 81,
                    "name": "A5",
                    "ticks": 465600,
                    "time": 404.166505,
                    "velocity": 0.2755905511811024,
                },
                {
                    "duration": 0.2343749062500251,
                    "durationTicks": 270,
                    "midi": 81,
                    "name": "A5",
                    "ticks": 466080,
                    "time": 404.5831715,
                    "velocity": 0.23622047244094488,
                },
                {
                    "duration": 0.4973956343749819,
                    "durationTicks": 573,
                    "midi": 81,
                    "name": "A5",
                    "ticks": 466560,
                    "time": 404.999838,
                    "velocity": 0.28346456692913385,
                },
                {
                    "duration": 0.47135397812502333,
                    "durationTicks": 543,
                    "midi": 81,
                    "name": "A5",
                    "ticks": 467520,
                    "time": 405.833171,
                    "velocity": 0.31496062992125984,
                },
                {
                    "duration": 0.8333330000000387,
                    "durationTicks": 960,
                    "midi": 81,
                    "name": "A5",
                    "ticks": 468480,
                    "time": 406.666504,
                    "velocity": 0.2677165354330709,
                },
                {
                    "duration": 0.2473957343750044,
                    "durationTicks": 285,
                    "midi": 81,
                    "name": "A5",
                    "ticks": 469440,
                    "time": 407.499837,
                    "velocity": 0.29133858267716534,
                },
                {
                    "duration": 0.2343749062500251,
                    "durationTicks": 270,
                    "midi": 81,
                    "name": "A5",
                    "ticks": 469920,
                    "time": 407.9165035,
                    "velocity": 0.2755905511811024,
                },
                {
                    "duration": 0.4973956343749819,
                    "durationTicks": 573,
                    "midi": 81,
                    "name": "A5",
                    "ticks": 470400,
                    "time": 408.33317,
                    "velocity": 0.29133858267716534,
                },
                {
                    "duration": 0.47135397812502333,
                    "durationTicks": 543,
                    "midi": 81,
                    "name": "A5",
                    "ticks": 471360,
                    "time": 409.166503,
                    "velocity": 0.25196850393700787,
                },
                {
                    "duration": 0.8333329999999819,
                    "durationTicks": 960,
                    "midi": 74,
                    "name": "D5",
                    "ticks": 472320,
                    "time": 409.999836,
                    "velocity": 0.8976377952755905,
                },
                {
                    "duration": 0.8333329999999819,
                    "durationTicks": 960,
                    "midi": 83,
                    "name": "B5",
                    "ticks": 472320,
                    "time": 409.999836,
                    "velocity": 0.8976377952755905,
                },
                {
                    "duration": 0.2473957343750044,
                    "durationTicks": 285,
                    "midi": 72,
                    "name": "C5",
                    "ticks": 473280,
                    "time": 410.833169,
                    "velocity": 0.84251968503937,
                },
                {
                    "duration": 0.2473957343750044,
                    "durationTicks": 285,
                    "midi": 81,
                    "name": "A5",
                    "ticks": 473280,
                    "time": 410.833169,
                    "velocity": 0.84251968503937,
                },
                {
                    "duration": 0.2473957343750044,
                    "durationTicks": 285,
                    "midi": 74,
                    "name": "D5",
                    "ticks": 473760,
                    "time": 411.2498355,
                    "velocity": 0.8976377952755905,
                },
                {
                    "duration": 0.2473957343750044,
                    "durationTicks": 285,
                    "midi": 83,
                    "name": "B5",
                    "ticks": 473760,
                    "time": 411.2498355,
                    "velocity": 0.8976377952755905,
                },
                {
                    "duration": 0.41666650000001937,
                    "durationTicks": 480,
                    "midi": 76,
                    "name": "E5",
                    "ticks": 474240,
                    "time": 411.666502,
                    "velocity": 0.9291338582677166,
                },
                {
                    "duration": 0.41666650000001937,
                    "durationTicks": 480,
                    "midi": 84,
                    "name": "C6",
                    "ticks": 474240,
                    "time": 411.666502,
                    "velocity": 0.9291338582677166,
                },
                {
                    "duration": 0.8333329999999819,
                    "durationTicks": 960,
                    "midi": 74,
                    "name": "D5",
                    "ticks": 480000,
                    "time": 416.6665,
                    "velocity": 0.8031496062992126,
                },
                {
                    "duration": 0.8333329999999819,
                    "durationTicks": 960,
                    "midi": 83,
                    "name": "B5",
                    "ticks": 480000,
                    "time": 416.6665,
                    "velocity": 0.8031496062992126,
                },
                {
                    "duration": 0.2473957343750044,
                    "durationTicks": 285,
                    "midi": 72,
                    "name": "C5",
                    "ticks": 480960,
                    "time": 417.49983299999997,
                    "velocity": 0.8346456692913385,
                },
                {
                    "duration": 0.2473957343750044,
                    "durationTicks": 285,
                    "midi": 81,
                    "name": "A5",
                    "ticks": 480960,
                    "time": 417.49983299999997,
                    "velocity": 0.8346456692913385,
                },
                {
                    "duration": 0.2473957343750044,
                    "durationTicks": 285,
                    "midi": 74,
                    "name": "D5",
                    "ticks": 481440,
                    "time": 417.9164995,
                    "velocity": 0.905511811023622,
                },
                {
                    "duration": 0.2473957343750044,
                    "durationTicks": 285,
                    "midi": 83,
                    "name": "B5",
                    "ticks": 481440,
                    "time": 417.9164995,
                    "velocity": 0.905511811023622,
                },
                {
                    "duration": 0.4166664999999625,
                    "durationTicks": 480,
                    "midi": 76,
                    "name": "E5",
                    "ticks": 481920,
                    "time": 418.333166,
                    "velocity": 0.9133858267716536,
                },
                {
                    "duration": 0.4166664999999625,
                    "durationTicks": 480,
                    "midi": 84,
                    "name": "C6",
                    "ticks": 481920,
                    "time": 418.333166,
                    "velocity": 0.9133858267716536,
                },
                {
                    "duration": 0.8333329999999819,
                    "durationTicks": 960,
                    "midi": 83,
                    "name": "B5",
                    "ticks": 485760,
                    "time": 421.666498,
                    "velocity": 0.3779527559055118,
                },
                {
                    "duration": 0.2473957343750044,
                    "durationTicks": 285,
                    "midi": 81,
                    "name": "A5",
                    "ticks": 486720,
                    "time": 422.499831,
                    "velocity": 0.33858267716535434,
                },
                {
                    "duration": 0.41666650000001937,
                    "durationTicks": 480,
                    "midi": 88,
                    "name": "E6",
                    "ticks": 487200,
                    "time": 422.9164975,
                    "velocity": 0.3464566929133858,
                },
                {
                    "duration": 0.2473957343750044,
                    "durationTicks": 285,
                    "midi": 83,
                    "name": "B5",
                    "ticks": 487200,
                    "time": 422.9164975,
                    "velocity": 0.3937007874015748,
                },
                {
                    "duration": 0.8333329999999819,
                    "durationTicks": 960,
                    "midi": 84,
                    "name": "C6",
                    "ticks": 487680,
                    "time": 423.333164,
                    "velocity": 0.2440944881889764,
                },
                {
                    "duration": 0.8333329999999819,
                    "durationTicks": 960,
                    "midi": 88,
                    "name": "E6",
                    "ticks": 487680,
                    "time": 423.333164,
                    "velocity": 0.2440944881889764,
                },
                {
                    "duration": 0.2473957343750044,
                    "durationTicks": 285,
                    "midi": 84,
                    "name": "C6",
                    "ticks": 488640,
                    "time": 424.166497,
                    "velocity": 0.28346456692913385,
                },
                {
                    "duration": 0.2473957343750044,
                    "durationTicks": 285,
                    "midi": 88,
                    "name": "E6",
                    "ticks": 488640,
                    "time": 424.166497,
                    "velocity": 0.28346456692913385,
                },
                {
                    "duration": 0.23437490624996826,
                    "durationTicks": 270,
                    "midi": 84,
                    "name": "C6",
                    "ticks": 489120,
                    "time": 424.5831635,
                    "velocity": 0.2677165354330709,
                },
                {
                    "duration": 0.23437490624996826,
                    "durationTicks": 270,
                    "midi": 88,
                    "name": "E6",
                    "ticks": 489120,
                    "time": 424.5831635,
                    "velocity": 0.2677165354330709,
                },
                {
                    "duration": 0.49739563437503875,
                    "durationTicks": 573,
                    "midi": 83,
                    "name": "B5",
                    "ticks": 489600,
                    "time": 424.99983,
                    "velocity": 0.2677165354330709,
                },
                {
                    "duration": 0.49739563437503875,
                    "durationTicks": 573,
                    "midi": 88,
                    "name": "E6",
                    "ticks": 489600,
                    "time": 424.99983,
                    "velocity": 0.2677165354330709,
                },
                {
                    "duration": 0.4713539781249665,
                    "durationTicks": 543,
                    "midi": 83,
                    "name": "B5",
                    "ticks": 490560,
                    "time": 425.833163,
                    "velocity": 0.28346456692913385,
                },
                {
                    "duration": 0.4713539781249665,
                    "durationTicks": 543,
                    "midi": 88,
                    "name": "E6",
                    "ticks": 490560,
                    "time": 425.833163,
                    "velocity": 0.28346456692913385,
                },
                {
                    "duration": 0.8333329999999819,
                    "durationTicks": 960,
                    "midi": 88,
                    "name": "E6",
                    "ticks": 503040,
                    "time": 436.666492,
                    "velocity": 0.29133858267716534,
                },
                {
                    "duration": 0.2473957343750044,
                    "durationTicks": 285,
                    "midi": 88,
                    "name": "E6",
                    "ticks": 504000,
                    "time": 437.499825,
                    "velocity": 0.25196850393700787,
                },
                {
                    "duration": 0.23437490624996826,
                    "durationTicks": 270,
                    "midi": 88,
                    "name": "E6",
                    "ticks": 504480,
                    "time": 437.9164915,
                    "velocity": 0.31496062992125984,
                },
                {
                    "duration": 0.5078122968750449,
                    "durationTicks": 585,
                    "midi": 87,
                    "name": "D#6",
                    "ticks": 504960,
                    "time": 438.33315799999997,
                    "velocity": 0.2755905511811024,
                },
                {
                    "duration": 0.4713539781249665,
                    "durationTicks": 543,
                    "midi": 86,
                    "name": "D6",
                    "ticks": 505920,
                    "time": 439.166491,
                    "velocity": 0.25984251968503935,
                },
            ],
            "endOfTrackTicks": 532320,
        },
        {
            "channel": 12,
            "controlChanges": {
                "7": [
                    {"number": 7, "ticks": 0, "time": 0, "value": 0.7165354330708661},
                    {
                        "number": 7,
                        "ticks": 347850,
                        "time": 301.95300421875,
                        "value": 0.7165354330708661,
                    },
                    {
                        "number": 7,
                        "ticks": 526080,
                        "time": 456.66648399999997,
                        "value": 0.7165354330708661,
                    },
                ],
                "10": [
                    {"number": 10, "ticks": 0, "time": 0, "value": 0.8740157480314961},
                    {
                        "number": 10,
                        "ticks": 347850,
                        "time": 301.95300421875,
                        "value": 0.8740157480314961,
                    },
                    {
                        "number": 10,
                        "ticks": 526080,
                        "time": 456.66648399999997,
                        "value": 0.8740157480314961,
                    },
                ],
                "64": [{"number": 64, "ticks": 0, "time": 0, "value": 0}],
                "91": [
                    {"number": 91, "ticks": 0, "time": 0, "value": 0.4330708661417323},
                    {
                        "number": 91,
                        "ticks": 347850,
                        "time": 301.95300421875,
                        "value": 0.4645669291338583,
                    },
                    {
                        "number": 91,
                        "ticks": 526080,
                        "time": 456.66648399999997,
                        "value": 0.4645669291338583,
                    },
                ],
                "121": [{"number": 121, "ticks": 0, "time": 0, "value": 0}],
            },
            "pitchBends": [],
            "instrument": {
                "family": "ensemble",
                "number": 48,
                "name": "string ensemble 1",
            },
            "name": "",
            "notes": [
                {
                    "duration": 0.8333330000000032,
                    "durationTicks": 960,
                    "midi": 64,
                    "name": "E4",
                    "ticks": 49920,
                    "time": 43.333315999999996,
                    "velocity": 0.3228346456692913,
                },
                {
                    "duration": 0.2473957343749973,
                    "durationTicks": 285,
                    "midi": 64,
                    "name": "E4",
                    "ticks": 50880,
                    "time": 44.166649,
                    "velocity": 0.2204724409448819,
                },
                {
                    "duration": 0.2473957343750044,
                    "durationTicks": 285,
                    "midi": 64,
                    "name": "E4",
                    "ticks": 51360,
                    "time": 44.5833155,
                    "velocity": 0.29133858267716534,
                },
                {
                    "duration": 0.4973956343749961,
                    "durationTicks": 573,
                    "midi": 64,
                    "name": "E4",
                    "ticks": 51840,
                    "time": 44.999982,
                    "velocity": 0.2755905511811024,
                },
                {
                    "duration": 0.4713539781249949,
                    "durationTicks": 543,
                    "midi": 64,
                    "name": "E4",
                    "ticks": 52800,
                    "time": 45.833315,
                    "velocity": 0.2992125984251969,
                },
                {
                    "duration": 0.8333329999999961,
                    "durationTicks": 960,
                    "midi": 64,
                    "name": "E4",
                    "ticks": 53760,
                    "time": 46.666648,
                    "velocity": 0.29133858267716534,
                },
                {
                    "duration": 0.2473957343750044,
                    "durationTicks": 285,
                    "midi": 64,
                    "name": "E4",
                    "ticks": 54720,
                    "time": 47.499981,
                    "velocity": 0.28346456692913385,
                },
                {
                    "duration": 0.2473957343750044,
                    "durationTicks": 285,
                    "midi": 64,
                    "name": "E4",
                    "ticks": 55200,
                    "time": 47.916647499999996,
                    "velocity": 0.29133858267716534,
                },
                {
                    "duration": 0.4973956343749961,
                    "durationTicks": 573,
                    "midi": 64,
                    "name": "E4",
                    "ticks": 55680,
                    "time": 48.333314,
                    "velocity": 0.2755905511811024,
                },
                {
                    "duration": 0.471353978125002,
                    "durationTicks": 543,
                    "midi": 64,
                    "name": "E4",
                    "ticks": 56640,
                    "time": 49.166647,
                    "velocity": 0.28346456692913385,
                },
                {
                    "duration": 0.8333329999999961,
                    "durationTicks": 960,
                    "midi": 64,
                    "name": "E4",
                    "ticks": 57600,
                    "time": 49.99998,
                    "velocity": 0.3228346456692913,
                },
                {
                    "duration": 0.2473957343750044,
                    "durationTicks": 285,
                    "midi": 64,
                    "name": "E4",
                    "ticks": 58560,
                    "time": 50.833313,
                    "velocity": 0.2755905511811024,
                },
                {
                    "duration": 0.2473957343749973,
                    "durationTicks": 285,
                    "midi": 66,
                    "name": "F#4",
                    "ticks": 59040,
                    "time": 51.2499795,
                    "velocity": 0.31496062992125984,
                },
                {
                    "duration": 0.4973956343749961,
                    "durationTicks": 573,
                    "midi": 67,
                    "name": "G4",
                    "ticks": 59520,
                    "time": 51.666646,
                    "velocity": 0.2440944881889764,
                },
                {
                    "duration": 0.471353978125002,
                    "durationTicks": 543,
                    "midi": 67,
                    "name": "G4",
                    "ticks": 60480,
                    "time": 52.499978999999996,
                    "velocity": 0.2677165354330709,
                },
                {
                    "duration": 0.8333330000000032,
                    "durationTicks": 960,
                    "midi": 67,
                    "name": "G4",
                    "ticks": 61440,
                    "time": 53.333312,
                    "velocity": 0.25984251968503935,
                },
                {
                    "duration": 0.2473957343749973,
                    "durationTicks": 285,
                    "midi": 67,
                    "name": "G4",
                    "ticks": 62400,
                    "time": 54.166645,
                    "velocity": 0.2440944881889764,
                },
                {
                    "duration": 0.2473957343749973,
                    "durationTicks": 285,
                    "midi": 67,
                    "name": "G4",
                    "ticks": 62880,
                    "time": 54.5833115,
                    "velocity": 0.28346456692913385,
                },
                {
                    "duration": 0.8333330000000032,
                    "durationTicks": 960,
                    "midi": 67,
                    "name": "G4",
                    "ticks": 63360,
                    "time": 54.999978,
                    "velocity": 0.2992125984251969,
                },
                {
                    "duration": 0.8333330000000032,
                    "durationTicks": 960,
                    "midi": 67,
                    "name": "G4",
                    "ticks": 65280,
                    "time": 56.666644,
                    "velocity": 0.25196850393700787,
                },
                {
                    "duration": 0.2473957343749973,
                    "durationTicks": 285,
                    "midi": 67,
                    "name": "G4",
                    "ticks": 66240,
                    "time": 57.499977,
                    "velocity": 0.2992125984251969,
                },
                {
                    "duration": 0.2473957343749973,
                    "durationTicks": 285,
                    "midi": 69,
                    "name": "A4",
                    "ticks": 66720,
                    "time": 57.9166435,
                    "velocity": 0.29133858267716534,
                },
                {
                    "duration": 0.4973956343749961,
                    "durationTicks": 573,
                    "midi": 71,
                    "name": "B4",
                    "ticks": 67200,
                    "time": 58.33331,
                    "velocity": 0.30708661417322836,
                },
                {
                    "duration": 0.4713539781249949,
                    "durationTicks": 543,
                    "midi": 71,
                    "name": "B4",
                    "ticks": 68160,
                    "time": 59.166643,
                    "velocity": 0.29133858267716534,
                },
                {
                    "duration": 0.8333330000000032,
                    "durationTicks": 960,
                    "midi": 66,
                    "name": "F#4",
                    "ticks": 69120,
                    "time": 59.999976,
                    "velocity": 0.2283464566929134,
                },
                {
                    "duration": 0.2473957343749973,
                    "durationTicks": 285,
                    "midi": 66,
                    "name": "F#4",
                    "ticks": 70080,
                    "time": 60.833309,
                    "velocity": 0.28346456692913385,
                },
                {
                    "duration": 0.2473957343750044,
                    "durationTicks": 285,
                    "midi": 68,
                    "name": "G#4",
                    "ticks": 70560,
                    "time": 61.2499755,
                    "velocity": 0.2992125984251969,
                },
                {
                    "duration": 0.4973956343750032,
                    "durationTicks": 573,
                    "midi": 69,
                    "name": "A4",
                    "ticks": 71040,
                    "time": 61.666641999999996,
                    "velocity": 0.29133858267716534,
                },
                {
                    "duration": 0.4713539781249949,
                    "durationTicks": 543,
                    "midi": 69,
                    "name": "A4",
                    "ticks": 72000,
                    "time": 62.499975,
                    "velocity": 0.29133858267716534,
                },
                {
                    "duration": 0.8333329999999961,
                    "durationTicks": 960,
                    "midi": 64,
                    "name": "E4",
                    "ticks": 72960,
                    "time": 63.333308,
                    "velocity": 0.2204724409448819,
                },
                {
                    "duration": 0.2473957343750044,
                    "durationTicks": 285,
                    "midi": 64,
                    "name": "E4",
                    "ticks": 73920,
                    "time": 64.166641,
                    "velocity": 0.29133858267716534,
                },
                {
                    "duration": 0.24739573437499018,
                    "durationTicks": 285,
                    "midi": 64,
                    "name": "E4",
                    "ticks": 74400,
                    "time": 64.5833075,
                    "velocity": 0.28346456692913385,
                },
                {
                    "duration": 0.4973956343749961,
                    "durationTicks": 573,
                    "midi": 64,
                    "name": "E4",
                    "ticks": 74880,
                    "time": 64.999974,
                    "velocity": 0.28346456692913385,
                },
                {
                    "duration": 0.4713539781249949,
                    "durationTicks": 543,
                    "midi": 64,
                    "name": "E4",
                    "ticks": 75840,
                    "time": 65.833307,
                    "velocity": 0.2755905511811024,
                },
                {
                    "duration": 0.8333329999999961,
                    "durationTicks": 960,
                    "midi": 64,
                    "name": "E4",
                    "ticks": 76800,
                    "time": 66.66664,
                    "velocity": 0.28346456692913385,
                },
                {
                    "duration": 0.2473957343750044,
                    "durationTicks": 285,
                    "midi": 66,
                    "name": "F#4",
                    "ticks": 77760,
                    "time": 67.499973,
                    "velocity": 0.2755905511811024,
                },
                {
                    "duration": 0.24739573437499018,
                    "durationTicks": 285,
                    "midi": 68,
                    "name": "G#4",
                    "ticks": 78240,
                    "time": 67.9166395,
                    "velocity": 0.31496062992125984,
                },
                {
                    "duration": 0.8333330000000103,
                    "durationTicks": 960,
                    "midi": 69,
                    "name": "A4",
                    "ticks": 78720,
                    "time": 68.333306,
                    "velocity": 0.31496062992125984,
                },
                {
                    "duration": 0.8333329999999961,
                    "durationTicks": 960,
                    "midi": 67,
                    "name": "G4",
                    "ticks": 80640,
                    "time": 69.999972,
                    "velocity": 0.25984251968503935,
                },
                {
                    "duration": 0.2473957343750044,
                    "durationTicks": 285,
                    "midi": 67,
                    "name": "G4",
                    "ticks": 81600,
                    "time": 70.833305,
                    "velocity": 0.2755905511811024,
                },
                {
                    "duration": 0.2473957343750044,
                    "durationTicks": 285,
                    "midi": 69,
                    "name": "A4",
                    "ticks": 82080,
                    "time": 71.2499715,
                    "velocity": 0.28346456692913385,
                },
                {
                    "duration": 0.4973956343749961,
                    "durationTicks": 573,
                    "midi": 71,
                    "name": "B4",
                    "ticks": 82560,
                    "time": 71.666638,
                    "velocity": 0.31496062992125984,
                },
                {
                    "duration": 0.4713539781249949,
                    "durationTicks": 543,
                    "midi": 71,
                    "name": "B4",
                    "ticks": 83520,
                    "time": 72.499971,
                    "velocity": 0.29133858267716534,
                },
                {
                    "duration": 0.8333329999999961,
                    "durationTicks": 960,
                    "midi": 66,
                    "name": "F#4",
                    "ticks": 84480,
                    "time": 73.333304,
                    "velocity": 0.23622047244094488,
                },
                {
                    "duration": 0.2473957343750044,
                    "durationTicks": 285,
                    "midi": 66,
                    "name": "F#4",
                    "ticks": 85440,
                    "time": 74.166637,
                    "velocity": 0.23622047244094488,
                },
                {
                    "duration": 0.2473957343750044,
                    "durationTicks": 285,
                    "midi": 68,
                    "name": "G#4",
                    "ticks": 85920,
                    "time": 74.5833035,
                    "velocity": 0.2992125984251969,
                },
                {
                    "duration": 0.4973956343749961,
                    "durationTicks": 573,
                    "midi": 69,
                    "name": "A4",
                    "ticks": 86400,
                    "time": 74.99997,
                    "velocity": 0.29133858267716534,
                },
                {
                    "duration": 0.4713539781249949,
                    "durationTicks": 543,
                    "midi": 69,
                    "name": "A4",
                    "ticks": 87360,
                    "time": 75.833303,
                    "velocity": 0.2283464566929134,
                },
                {
                    "duration": 0.8333329999999961,
                    "durationTicks": 960,
                    "midi": 64,
                    "name": "E4",
                    "ticks": 88320,
                    "time": 76.666636,
                    "velocity": 0.2440944881889764,
                },
                {
                    "duration": 0.2473957343750044,
                    "durationTicks": 285,
                    "midi": 64,
                    "name": "E4",
                    "ticks": 89280,
                    "time": 77.499969,
                    "velocity": 0.2755905511811024,
                },
                {
                    "duration": 0.2473957343750044,
                    "durationTicks": 285,
                    "midi": 64,
                    "name": "E4",
                    "ticks": 89760,
                    "time": 77.9166355,
                    "velocity": 0.28346456692913385,
                },
                {
                    "duration": 0.4973956343749961,
                    "durationTicks": 573,
                    "midi": 64,
                    "name": "E4",
                    "ticks": 90240,
                    "time": 78.333302,
                    "velocity": 0.29133858267716534,
                },
                {
                    "duration": 0.4713539781249949,
                    "durationTicks": 543,
                    "midi": 64,
                    "name": "E4",
                    "ticks": 91200,
                    "time": 79.166635,
                    "velocity": 0.2755905511811024,
                },
                {
                    "duration": 0.8333330000000103,
                    "durationTicks": 960,
                    "midi": 64,
                    "name": "E4",
                    "ticks": 92160,
                    "time": 79.999968,
                    "velocity": 0.28346456692913385,
                },
                {
                    "duration": 0.24739573437499018,
                    "durationTicks": 285,
                    "midi": 66,
                    "name": "F#4",
                    "ticks": 93120,
                    "time": 80.833301,
                    "velocity": 0.2677165354330709,
                },
                {
                    "duration": 0.2473957343750044,
                    "durationTicks": 285,
                    "midi": 68,
                    "name": "G#4",
                    "ticks": 93600,
                    "time": 81.2499675,
                    "velocity": 0.28346456692913385,
                },
                {
                    "duration": 0.8333329999999961,
                    "durationTicks": 960,
                    "midi": 69,
                    "name": "A4",
                    "ticks": 94080,
                    "time": 81.666634,
                    "velocity": 0.29133858267716534,
                },
                {
                    "duration": 1.6987840427083256,
                    "durationTicks": 1957,
                    "midi": 72,
                    "name": "C5",
                    "ticks": 96000,
                    "time": 83.3333,
                    "velocity": 0.3858267716535433,
                },
                {
                    "duration": 1.5651035406250031,
                    "durationTicks": 1803,
                    "midi": 71,
                    "name": "B4",
                    "ticks": 97920,
                    "time": 84.999966,
                    "velocity": 0.3858267716535433,
                },
                {
                    "duration": 0.20833325000000968,
                    "durationTicks": 240,
                    "midi": 71,
                    "name": "B4",
                    "ticks": 99840,
                    "time": 86.66663199999999,
                    "velocity": 0.4645669291338583,
                },
                {
                    "duration": 0.20833324999999547,
                    "durationTicks": 240,
                    "midi": 72,
                    "name": "C5",
                    "ticks": 100080,
                    "time": 86.87496525,
                    "velocity": 0.4645669291338583,
                },
                {
                    "duration": 0.8333329999999961,
                    "durationTicks": 960,
                    "midi": 74,
                    "name": "D5",
                    "ticks": 100320,
                    "time": 87.0832985,
                    "velocity": 0.4645669291338583,
                },
                {
                    "duration": 0.21093741562499702,
                    "durationTicks": 243,
                    "midi": 72,
                    "name": "C5",
                    "ticks": 101280,
                    "time": 87.9166315,
                    "velocity": 0.4409448818897638,
                },
                {
                    "duration": 0.19531242187500197,
                    "durationTicks": 225,
                    "midi": 71,
                    "name": "B4",
                    "ticks": 101520,
                    "time": 88.12496475,
                    "velocity": 0.3464566929133858,
                },
                {
                    "duration": 0.42274288645832314,
                    "durationTicks": 487,
                    "midi": 71,
                    "name": "B4",
                    "ticks": 101760,
                    "time": 88.333298,
                    "velocity": 0.3937007874015748,
                },
                {
                    "duration": 0.3932290093749913,
                    "durationTicks": 453,
                    "midi": 72,
                    "name": "C5",
                    "ticks": 102240,
                    "time": 88.7499645,
                    "velocity": 0.3779527559055118,
                },
                {
                    "duration": 0.8333330000000103,
                    "durationTicks": 960,
                    "midi": 72,
                    "name": "C5",
                    "ticks": 102720,
                    "time": 89.166631,
                    "velocity": 0.4409448818897638,
                },
                {
                    "duration": 1.249999499999987,
                    "durationTicks": 1440,
                    "midi": 72,
                    "name": "C5",
                    "ticks": 103680,
                    "time": 89.999964,
                    "velocity": 0.3858267716535433,
                },
                {
                    "duration": 0.21093741562499702,
                    "durationTicks": 243,
                    "midi": 72,
                    "name": "C5",
                    "ticks": 105120,
                    "time": 91.24996349999999,
                    "velocity": 0.4645669291338583,
                },
                {
                    "duration": 0.19531242187500197,
                    "durationTicks": 225,
                    "midi": 74,
                    "name": "D5",
                    "ticks": 105360,
                    "time": 91.45829675,
                    "velocity": 0.49606299212598426,
                },
                {
                    "duration": 0.42274288645832314,
                    "durationTicks": 487,
                    "midi": 75,
                    "name": "D#5",
                    "ticks": 105600,
                    "time": 91.66663,
                    "velocity": 0.47244094488188976,
                },
                {
                    "duration": 0.3932290093749913,
                    "durationTicks": 453,
                    "midi": 76,
                    "name": "E5",
                    "ticks": 106080,
                    "time": 92.0832965,
                    "velocity": 0.5196850393700787,
                },
                {
                    "duration": 0.2473957343750044,
                    "durationTicks": 285,
                    "midi": 76,
                    "name": "E5",
                    "ticks": 106560,
                    "time": 92.499963,
                    "velocity": 0.41732283464566927,
                },
                {
                    "duration": 0.2473957343750044,
                    "durationTicks": 285,
                    "midi": 76,
                    "name": "E5",
                    "ticks": 107040,
                    "time": 92.9166295,
                    "velocity": 0.4566929133858268,
                },
                {
                    "duration": 0.19531242187498776,
                    "durationTicks": 225,
                    "midi": 74,
                    "name": "D5",
                    "ticks": 107520,
                    "time": 93.333296,
                    "velocity": 0.41732283464566927,
                },
                {
                    "duration": 0.19531242187500197,
                    "durationTicks": 225,
                    "midi": 76,
                    "name": "E5",
                    "ticks": 107745,
                    "time": 93.52860842187499,
                    "velocity": 0.41732283464566927,
                },
                {
                    "duration": 0.8593746562500115,
                    "durationTicks": 990,
                    "midi": 77,
                    "name": "F5",
                    "ticks": 107970,
                    "time": 93.72392084375,
                    "velocity": 0.41732283464566927,
                },
                {
                    "duration": 0.21093741562499702,
                    "durationTicks": 243,
                    "midi": 76,
                    "name": "E5",
                    "ticks": 108960,
                    "time": 94.5832955,
                    "velocity": 0.3937007874015748,
                },
                {
                    "duration": 0.19531242187500197,
                    "durationTicks": 225,
                    "midi": 74,
                    "name": "D5",
                    "ticks": 109200,
                    "time": 94.79162875,
                    "velocity": 0.3858267716535433,
                },
                {
                    "duration": 0.42274288645832314,
                    "durationTicks": 487,
                    "midi": 74,
                    "name": "D5",
                    "ticks": 109440,
                    "time": 94.999962,
                    "velocity": 0.4015748031496063,
                },
                {
                    "duration": 0.3932290093749913,
                    "durationTicks": 453,
                    "midi": 76,
                    "name": "E5",
                    "ticks": 109920,
                    "time": 95.4166285,
                    "velocity": 0.4015748031496063,
                },
                {
                    "duration": 0.8333330000000103,
                    "durationTicks": 960,
                    "midi": 76,
                    "name": "E5",
                    "ticks": 110400,
                    "time": 95.83329499999999,
                    "velocity": 0.4094488188976378,
                },
                {
                    "duration": 1.6987840427083256,
                    "durationTicks": 1957,
                    "midi": 76,
                    "name": "E5",
                    "ticks": 111360,
                    "time": 96.666628,
                    "velocity": 0.41732283464566927,
                },
                {
                    "duration": 1.5815965895833273,
                    "durationTicks": 1822,
                    "midi": 75,
                    "name": "D#5",
                    "ticks": 113280,
                    "time": 98.333294,
                    "velocity": 0.41732283464566927,
                },
                {
                    "duration": 0.42274288645832314,
                    "durationTicks": 487,
                    "midi": 74,
                    "name": "D5",
                    "ticks": 115200,
                    "time": 99.99996,
                    "velocity": 0.4015748031496063,
                },
                {
                    "duration": 0.21093741562499702,
                    "durationTicks": 243,
                    "midi": 71,
                    "name": "B4",
                    "ticks": 115680,
                    "time": 100.41662649999999,
                    "velocity": 0.3543307086614173,
                },
                {
                    "duration": 0.21093741562499702,
                    "durationTicks": 243,
                    "midi": 73,
                    "name": "C#5",
                    "ticks": 115920,
                    "time": 100.62495975,
                    "velocity": 0.4251968503937008,
                },
                {
                    "duration": 0.42274288645832314,
                    "durationTicks": 487,
                    "midi": 74,
                    "name": "D5",
                    "ticks": 116160,
                    "time": 100.833293,
                    "velocity": 0.41732283464566927,
                },
                {
                    "duration": 0.21093741562499702,
                    "durationTicks": 243,
                    "midi": 76,
                    "name": "E5",
                    "ticks": 116640,
                    "time": 101.2499595,
                    "velocity": 0.4566929133858268,
                },
                {
                    "duration": 0.19531242187500197,
                    "durationTicks": 225,
                    "midi": 74,
                    "name": "D5",
                    "ticks": 116880,
                    "time": 101.45829275,
                    "velocity": 0.4330708661417323,
                },
                {
                    "duration": 0.42274288645833735,
                    "durationTicks": 487,
                    "midi": 74,
                    "name": "D5",
                    "ticks": 117120,
                    "time": 101.666626,
                    "velocity": 0.3858267716535433,
                },
                {
                    "duration": 0.3932290093749913,
                    "durationTicks": 453,
                    "midi": 73,
                    "name": "C#5",
                    "ticks": 117600,
                    "time": 102.0832925,
                    "velocity": 0.36220472440944884,
                },
                {
                    "duration": 0.8333329999999961,
                    "durationTicks": 960,
                    "midi": 72,
                    "name": "C5",
                    "ticks": 118080,
                    "time": 102.499959,
                    "velocity": 0.3858267716535433,
                },
                {
                    "duration": 1.6987840427083256,
                    "durationTicks": 1957,
                    "midi": 72,
                    "name": "C5",
                    "ticks": 119040,
                    "time": 103.333292,
                    "velocity": 0.3937007874015748,
                },
                {
                    "duration": 0.8489579937500054,
                    "durationTicks": 978,
                    "midi": 71,
                    "name": "B4",
                    "ticks": 120960,
                    "time": 104.99995799999999,
                    "velocity": 0.3858267716535433,
                },
                {
                    "duration": 0.7447913687500005,
                    "durationTicks": 858,
                    "midi": 72,
                    "name": "C5",
                    "ticks": 121920,
                    "time": 105.833291,
                    "velocity": 0.4094488188976378,
                },
                {
                    "duration": 0.19531242187500197,
                    "durationTicks": 225,
                    "midi": 71,
                    "name": "B4",
                    "ticks": 122880,
                    "time": 106.666624,
                    "velocity": 0.4330708661417323,
                },
                {
                    "duration": 0.19531242187500197,
                    "durationTicks": 225,
                    "midi": 72,
                    "name": "C5",
                    "ticks": 123105,
                    "time": 106.861936421875,
                    "velocity": 0.4330708661417323,
                },
                {
                    "duration": 0.8593746562499973,
                    "durationTicks": 990,
                    "midi": 74,
                    "name": "D5",
                    "ticks": 123330,
                    "time": 107.05724884375,
                    "velocity": 0.4330708661417323,
                },
                {
                    "duration": 0.21093741562501123,
                    "durationTicks": 243,
                    "midi": 72,
                    "name": "C5",
                    "ticks": 124320,
                    "time": 107.9166235,
                    "velocity": 0.41732283464566927,
                },
                {
                    "duration": 0.19531242187500197,
                    "durationTicks": 225,
                    "midi": 71,
                    "name": "B4",
                    "ticks": 124560,
                    "time": 108.12495675,
                    "velocity": 0.4015748031496063,
                },
                {
                    "duration": 0.41666649999999095,
                    "durationTicks": 480,
                    "midi": 69,
                    "name": "A4",
                    "ticks": 124800,
                    "time": 108.33329,
                    "velocity": 0.3779527559055118,
                },
                {
                    "duration": 0.21093741562501123,
                    "durationTicks": 243,
                    "midi": 69,
                    "name": "A4",
                    "ticks": 125280,
                    "time": 108.7499565,
                    "velocity": 0.41732283464566927,
                },
                {
                    "duration": 0.19531242187498776,
                    "durationTicks": 225,
                    "midi": 71,
                    "name": "B4",
                    "ticks": 125520,
                    "time": 108.95828975,
                    "velocity": 0.4251968503937008,
                },
                {
                    "duration": 0.2473957343750044,
                    "durationTicks": 285,
                    "midi": 72,
                    "name": "C5",
                    "ticks": 125760,
                    "time": 109.166623,
                    "velocity": 0.44881889763779526,
                },
                {
                    "duration": 0.21093741562501123,
                    "durationTicks": 243,
                    "midi": 72,
                    "name": "C5",
                    "ticks": 126240,
                    "time": 109.58328949999999,
                    "velocity": 0.47244094488188976,
                },
                {
                    "duration": 0.19531242187500197,
                    "durationTicks": 225,
                    "midi": 74,
                    "name": "D5",
                    "ticks": 126480,
                    "time": 109.79162275,
                    "velocity": 0.4881889763779528,
                },
                {
                    "duration": 1.6987840427083398,
                    "durationTicks": 1957,
                    "midi": 76,
                    "name": "E5",
                    "ticks": 126720,
                    "time": 109.999956,
                    "velocity": 0.8188976377952756,
                },
                {
                    "duration": 1.5815965895833415,
                    "durationTicks": 1822,
                    "midi": 75,
                    "name": "D#5",
                    "ticks": 128640,
                    "time": 111.666622,
                    "velocity": 0.8031496062992126,
                },
                {
                    "duration": 0.42274288645833735,
                    "durationTicks": 487,
                    "midi": 74,
                    "name": "D5",
                    "ticks": 130560,
                    "time": 113.333288,
                    "velocity": 0.7480314960629921,
                },
                {
                    "duration": 0.21093741562501123,
                    "durationTicks": 243,
                    "midi": 71,
                    "name": "B4",
                    "ticks": 131040,
                    "time": 113.7499545,
                    "velocity": 0.6929133858267716,
                },
                {
                    "duration": 0.21093741562501123,
                    "durationTicks": 243,
                    "midi": 73,
                    "name": "C#5",
                    "ticks": 131280,
                    "time": 113.95828775,
                    "velocity": 0.889763779527559,
                },
                {
                    "duration": 0.42274288645835156,
                    "durationTicks": 487,
                    "midi": 74,
                    "name": "D5",
                    "ticks": 131520,
                    "time": 114.16662099999999,
                    "velocity": 0.905511811023622,
                },
                {
                    "duration": 0.21093741562501123,
                    "durationTicks": 243,
                    "midi": 76,
                    "name": "E5",
                    "ticks": 132000,
                    "time": 114.5832875,
                    "velocity": 0.8976377952755905,
                },
                {
                    "duration": 0.19531242187500197,
                    "durationTicks": 225,
                    "midi": 74,
                    "name": "D5",
                    "ticks": 132240,
                    "time": 114.79162074999999,
                    "velocity": 0.8503937007874016,
                },
                {
                    "duration": 0.42274288645833735,
                    "durationTicks": 487,
                    "midi": 74,
                    "name": "D5",
                    "ticks": 132480,
                    "time": 114.999954,
                    "velocity": 0.8503937007874016,
                },
                {
                    "duration": 0.3932290093750197,
                    "durationTicks": 453,
                    "midi": 73,
                    "name": "C#5",
                    "ticks": 132960,
                    "time": 115.4166205,
                    "velocity": 0.8031496062992126,
                },
                {
                    "duration": 0.8333329999999961,
                    "durationTicks": 960,
                    "midi": 72,
                    "name": "C5",
                    "ticks": 133440,
                    "time": 115.833287,
                    "velocity": 0.7637795275590551,
                },
                {
                    "duration": 1.6987840427083398,
                    "durationTicks": 1957,
                    "midi": 72,
                    "name": "C5",
                    "ticks": 134400,
                    "time": 116.66662,
                    "velocity": 0.8346456692913385,
                },
                {
                    "duration": 0.8489579937500054,
                    "durationTicks": 978,
                    "midi": 71,
                    "name": "B4",
                    "ticks": 136320,
                    "time": 118.333286,
                    "velocity": 0.8031496062992126,
                },
                {
                    "duration": 0.7447913687500147,
                    "durationTicks": 858,
                    "midi": 72,
                    "name": "C5",
                    "ticks": 137280,
                    "time": 119.166619,
                    "velocity": 0.8582677165354331,
                },
                {
                    "duration": 0.19531242187500197,
                    "durationTicks": 225,
                    "midi": 71,
                    "name": "B4",
                    "ticks": 138240,
                    "time": 119.999952,
                    "velocity": 0.84251968503937,
                },
                {
                    "duration": 0.19531242187500197,
                    "durationTicks": 225,
                    "midi": 72,
                    "name": "C5",
                    "ticks": 138465,
                    "time": 120.195264421875,
                    "velocity": 0.84251968503937,
                },
                {
                    "duration": 0.8593746562499973,
                    "durationTicks": 990,
                    "midi": 74,
                    "name": "D5",
                    "ticks": 138690,
                    "time": 120.39057684375,
                    "velocity": 0.84251968503937,
                },
                {
                    "duration": 0.21093741562501123,
                    "durationTicks": 243,
                    "midi": 72,
                    "name": "C5",
                    "ticks": 139680,
                    "time": 121.2499515,
                    "velocity": 0.8346456692913385,
                },
                {
                    "duration": 0.19531242187498776,
                    "durationTicks": 225,
                    "midi": 71,
                    "name": "B4",
                    "ticks": 139920,
                    "time": 121.45828475,
                    "velocity": 0.7952755905511811,
                },
                {
                    "duration": 0.8333329999999961,
                    "durationTicks": 960,
                    "midi": 69,
                    "name": "A4",
                    "ticks": 140160,
                    "time": 121.666618,
                    "velocity": 0.7874015748031497,
                },
                {
                    "duration": 0.42274288645833735,
                    "durationTicks": 487,
                    "midi": 69,
                    "name": "A4",
                    "ticks": 142560,
                    "time": 123.7499505,
                    "velocity": 0.8110236220472441,
                },
                {
                    "duration": 0.42274288645833735,
                    "durationTicks": 487,
                    "midi": 72,
                    "name": "C5",
                    "ticks": 143040,
                    "time": 124.166617,
                    "velocity": 0.8188976377952756,
                },
                {
                    "duration": 0.3932290093750197,
                    "durationTicks": 453,
                    "midi": 64,
                    "name": "E4",
                    "ticks": 143520,
                    "time": 124.5832835,
                    "velocity": 0.6535433070866141,
                },
                {
                    "duration": 0.42274288645833735,
                    "durationTicks": 487,
                    "midi": 71,
                    "name": "B4",
                    "ticks": 144480,
                    "time": 125.4166165,
                    "velocity": 0.6771653543307087,
                },
                {
                    "duration": 0.42274288645833735,
                    "durationTicks": 487,
                    "midi": 74,
                    "name": "D5",
                    "ticks": 144960,
                    "time": 125.833283,
                    "velocity": 0.7637795275590551,
                },
                {
                    "duration": 0.3932290093750055,
                    "durationTicks": 453,
                    "midi": 64,
                    "name": "E4",
                    "ticks": 145440,
                    "time": 126.2499495,
                    "velocity": 0.5748031496062992,
                },
                {
                    "duration": 0.42274288645833735,
                    "durationTicks": 487,
                    "midi": 71,
                    "name": "B4",
                    "ticks": 146400,
                    "time": 127.0832825,
                    "velocity": 0.6771653543307087,
                },
                {
                    "duration": 0.42274288645833735,
                    "durationTicks": 487,
                    "midi": 74,
                    "name": "D5",
                    "ticks": 146880,
                    "time": 127.499949,
                    "velocity": 0.7165354330708661,
                },
                {
                    "duration": 0.3932290093750197,
                    "durationTicks": 453,
                    "midi": 68,
                    "name": "G#4",
                    "ticks": 147360,
                    "time": 127.91661549999999,
                    "velocity": 0.6220472440944882,
                },
                {
                    "duration": 0.42274288645833735,
                    "durationTicks": 487,
                    "midi": 72,
                    "name": "C5",
                    "ticks": 148320,
                    "time": 128.7499485,
                    "velocity": 0.6692913385826772,
                },
                {
                    "duration": 0.42274288645833735,
                    "durationTicks": 487,
                    "midi": 76,
                    "name": "E5",
                    "ticks": 148800,
                    "time": 129.166615,
                    "velocity": 0.7007874015748031,
                },
                {
                    "duration": 0.3932290093750055,
                    "durationTicks": 453,
                    "midi": 69,
                    "name": "A4",
                    "ticks": 149280,
                    "time": 129.5832815,
                    "velocity": 0.6062992125984252,
                },
                {
                    "duration": 0.42274288645833735,
                    "durationTicks": 487,
                    "midi": 69,
                    "name": "A4",
                    "ticks": 150240,
                    "time": 130.4166145,
                    "velocity": 0.6929133858267716,
                },
                {
                    "duration": 0.42274288645833735,
                    "durationTicks": 487,
                    "midi": 72,
                    "name": "C5",
                    "ticks": 150720,
                    "time": 130.833281,
                    "velocity": 0.7322834645669292,
                },
                {
                    "duration": 0.3932290093750055,
                    "durationTicks": 453,
                    "midi": 60,
                    "name": "C4",
                    "ticks": 151200,
                    "time": 131.2499475,
                    "velocity": 0.5433070866141733,
                },
                {
                    "duration": 0.42274288645833735,
                    "durationTicks": 487,
                    "midi": 72,
                    "name": "C5",
                    "ticks": 152160,
                    "time": 132.0832805,
                    "velocity": 0.6535433070866141,
                },
                {
                    "duration": 0.42274288645833735,
                    "durationTicks": 487,
                    "midi": 76,
                    "name": "E5",
                    "ticks": 152640,
                    "time": 132.499947,
                    "velocity": 0.7244094488188977,
                },
                {
                    "duration": 0.3932290093750055,
                    "durationTicks": 453,
                    "midi": 64,
                    "name": "E4",
                    "ticks": 153120,
                    "time": 132.9166135,
                    "velocity": 0.5984251968503937,
                },
                {
                    "duration": 0.42274288645833735,
                    "durationTicks": 487,
                    "midi": 71,
                    "name": "B4",
                    "ticks": 154080,
                    "time": 133.7499465,
                    "velocity": 0.7165354330708661,
                },
                {
                    "duration": 0.42274288645833735,
                    "durationTicks": 487,
                    "midi": 74,
                    "name": "D5",
                    "ticks": 154560,
                    "time": 134.166613,
                    "velocity": 0.7559055118110236,
                },
                {
                    "duration": 0.3932290093750055,
                    "durationTicks": 453,
                    "midi": 67,
                    "name": "G4",
                    "ticks": 155040,
                    "time": 134.5832795,
                    "velocity": 0.6062992125984252,
                },
                {
                    "duration": 0.4227428864583658,
                    "durationTicks": 487,
                    "midi": 72,
                    "name": "C5",
                    "ticks": 156000,
                    "time": 135.41661249999999,
                    "velocity": 0.6614173228346457,
                },
                {
                    "duration": 0.42274288645833735,
                    "durationTicks": 487,
                    "midi": 76,
                    "name": "E5",
                    "ticks": 156480,
                    "time": 135.833279,
                    "velocity": 0.7322834645669292,
                },
                {
                    "duration": 0.3932290093750055,
                    "durationTicks": 453,
                    "midi": 67,
                    "name": "G4",
                    "ticks": 156960,
                    "time": 136.2499455,
                    "velocity": 0.6062992125984252,
                },
                {
                    "duration": 0.42274288645833735,
                    "durationTicks": 487,
                    "midi": 72,
                    "name": "C5",
                    "ticks": 157920,
                    "time": 137.0832785,
                    "velocity": 0.6771653543307087,
                },
                {
                    "duration": 0.42274288645833735,
                    "durationTicks": 487,
                    "midi": 76,
                    "name": "E5",
                    "ticks": 158400,
                    "time": 137.499945,
                    "velocity": 0.7716535433070866,
                },
                {
                    "duration": 0.3932290093750339,
                    "durationTicks": 453,
                    "midi": 64,
                    "name": "E4",
                    "ticks": 158880,
                    "time": 137.9166115,
                    "velocity": 0.5511811023622047,
                },
                {
                    "duration": 0.42274288645833735,
                    "durationTicks": 487,
                    "midi": 75,
                    "name": "D#5",
                    "ticks": 159840,
                    "time": 138.7499445,
                    "velocity": 0.6929133858267716,
                },
                {
                    "duration": 0.42274288645833735,
                    "durationTicks": 487,
                    "midi": 83,
                    "name": "B5",
                    "ticks": 160320,
                    "time": 139.166611,
                    "velocity": 0.8188976377952756,
                },
                {
                    "duration": 0.3932290093750055,
                    "durationTicks": 453,
                    "midi": 71,
                    "name": "B4",
                    "ticks": 160800,
                    "time": 139.5832775,
                    "velocity": 0.5984251968503937,
                },
                {
                    "duration": 0.42274288645833735,
                    "durationTicks": 487,
                    "midi": 71,
                    "name": "B4",
                    "ticks": 161760,
                    "time": 140.4166105,
                    "velocity": 0.6929133858267716,
                },
                {
                    "duration": 0.42274288645833735,
                    "durationTicks": 487,
                    "midi": 74,
                    "name": "D5",
                    "ticks": 162240,
                    "time": 140.833277,
                    "velocity": 0.7559055118110236,
                },
                {
                    "duration": 0.3932290093750055,
                    "durationTicks": 453,
                    "midi": 62,
                    "name": "D4",
                    "ticks": 162720,
                    "time": 141.2499435,
                    "velocity": 0.5511811023622047,
                },
                {
                    "duration": 0.42274288645833735,
                    "durationTicks": 487,
                    "midi": 73,
                    "name": "C#5",
                    "ticks": 163680,
                    "time": 142.0832765,
                    "velocity": 0.7086614173228346,
                },
                {
                    "duration": 0.42274288645833735,
                    "durationTicks": 487,
                    "midi": 81,
                    "name": "A5",
                    "ticks": 164160,
                    "time": 142.499943,
                    "velocity": 0.8110236220472441,
                },
                {
                    "duration": 0.3932290093750055,
                    "durationTicks": 453,
                    "midi": 69,
                    "name": "A4",
                    "ticks": 164640,
                    "time": 142.9166095,
                    "velocity": 0.5826771653543307,
                },
                {
                    "duration": 0.42274288645833735,
                    "durationTicks": 487,
                    "midi": 72,
                    "name": "C5",
                    "ticks": 165600,
                    "time": 143.7499425,
                    "velocity": 0.6692913385826772,
                },
                {
                    "duration": 0.42274288645833735,
                    "durationTicks": 487,
                    "midi": 76,
                    "name": "E5",
                    "ticks": 166080,
                    "time": 144.166609,
                    "velocity": 0.7716535433070866,
                },
                {
                    "duration": 0.3932290093750339,
                    "durationTicks": 453,
                    "midi": 64,
                    "name": "E4",
                    "ticks": 166560,
                    "time": 144.58327549999998,
                    "velocity": 0.5590551181102362,
                },
                {
                    "duration": 0.42274288645833735,
                    "durationTicks": 487,
                    "midi": 71,
                    "name": "B4",
                    "ticks": 167520,
                    "time": 145.4166085,
                    "velocity": 0.6692913385826772,
                },
                {
                    "duration": 0.4227428864583658,
                    "durationTicks": 487,
                    "midi": 76,
                    "name": "E5",
                    "ticks": 168000,
                    "time": 145.833275,
                    "velocity": 0.7874015748031497,
                },
                {
                    "duration": 0.3932290093750055,
                    "durationTicks": 453,
                    "midi": 64,
                    "name": "E4",
                    "ticks": 168480,
                    "time": 146.2499415,
                    "velocity": 0.5984251968503937,
                },
                {
                    "duration": 0.42274288645833735,
                    "durationTicks": 487,
                    "midi": 71,
                    "name": "B4",
                    "ticks": 169440,
                    "time": 147.0832745,
                    "velocity": 0.7007874015748031,
                },
                {
                    "duration": 0.42274288645833735,
                    "durationTicks": 487,
                    "midi": 76,
                    "name": "E5",
                    "ticks": 169920,
                    "time": 147.499941,
                    "velocity": 0.7795275590551181,
                },
                {
                    "duration": 0.3932290093750055,
                    "durationTicks": 453,
                    "midi": 64,
                    "name": "E4",
                    "ticks": 170400,
                    "time": 147.9166075,
                    "velocity": 0.5354330708661418,
                },
                {
                    "duration": 0.42274288645833735,
                    "durationTicks": 487,
                    "midi": 72,
                    "name": "C5",
                    "ticks": 171360,
                    "time": 148.7499405,
                    "velocity": 0.6929133858267716,
                },
                {
                    "duration": 0.42274288645833735,
                    "durationTicks": 487,
                    "midi": 76,
                    "name": "E5",
                    "ticks": 171840,
                    "time": 149.166607,
                    "velocity": 0.7874015748031497,
                },
                {
                    "duration": 0.3932290093750055,
                    "durationTicks": 453,
                    "midi": 64,
                    "name": "E4",
                    "ticks": 172320,
                    "time": 149.5832735,
                    "velocity": 0.5118110236220472,
                },
                {
                    "duration": 0.42274288645833735,
                    "durationTicks": 487,
                    "midi": 72,
                    "name": "C5",
                    "ticks": 173280,
                    "time": 150.4166065,
                    "velocity": 0.6141732283464567,
                },
                {
                    "duration": 0.42274288645833735,
                    "durationTicks": 487,
                    "midi": 76,
                    "name": "E5",
                    "ticks": 173760,
                    "time": 150.833273,
                    "velocity": 0.7874015748031497,
                },
                {
                    "duration": 0.3932290093750055,
                    "durationTicks": 453,
                    "midi": 64,
                    "name": "E4",
                    "ticks": 174240,
                    "time": 151.2499395,
                    "velocity": 0.4566929133858268,
                },
                {
                    "duration": 0.42274288645833735,
                    "durationTicks": 487,
                    "midi": 75,
                    "name": "D#5",
                    "ticks": 175200,
                    "time": 152.0832725,
                    "velocity": 0.5826771653543307,
                },
                {
                    "duration": 0.42274288645833735,
                    "durationTicks": 487,
                    "midi": 83,
                    "name": "B5",
                    "ticks": 175680,
                    "time": 152.499939,
                    "velocity": 0.7480314960629921,
                },
                {
                    "duration": 0.3932290093750055,
                    "durationTicks": 453,
                    "midi": 71,
                    "name": "B4",
                    "ticks": 176160,
                    "time": 152.9166055,
                    "velocity": 0.49606299212598426,
                },
                {
                    "duration": 0.4227428864583658,
                    "durationTicks": 487,
                    "midi": 71,
                    "name": "B4",
                    "ticks": 177120,
                    "time": 153.74993849999998,
                    "velocity": 0.49606299212598426,
                },
                {
                    "duration": 0.42274288645833735,
                    "durationTicks": 487,
                    "midi": 74,
                    "name": "D5",
                    "ticks": 177600,
                    "time": 154.166605,
                    "velocity": 0.6220472440944882,
                },
                {
                    "duration": 0.3932290093750055,
                    "durationTicks": 453,
                    "midi": 62,
                    "name": "D4",
                    "ticks": 178080,
                    "time": 154.5832715,
                    "velocity": 0.4094488188976378,
                },
                {
                    "duration": 0.42274288645833735,
                    "durationTicks": 487,
                    "midi": 73,
                    "name": "C#5",
                    "ticks": 179040,
                    "time": 155.4166045,
                    "velocity": 0.47244094488188976,
                },
                {
                    "duration": 0.42274288645833735,
                    "durationTicks": 487,
                    "midi": 81,
                    "name": "A5",
                    "ticks": 179520,
                    "time": 155.833271,
                    "velocity": 0.6614173228346457,
                },
                {
                    "duration": 0.3932290093750339,
                    "durationTicks": 453,
                    "midi": 69,
                    "name": "A4",
                    "ticks": 180000,
                    "time": 156.2499375,
                    "velocity": 0.36220472440944884,
                },
                {
                    "duration": 0.42274288645833735,
                    "durationTicks": 487,
                    "midi": 72,
                    "name": "C5",
                    "ticks": 180960,
                    "time": 157.0832705,
                    "velocity": 0.4015748031496063,
                },
                {
                    "duration": 0.42274288645833735,
                    "durationTicks": 487,
                    "midi": 76,
                    "name": "E5",
                    "ticks": 181440,
                    "time": 157.499937,
                    "velocity": 0.4330708661417323,
                },
                {
                    "duration": 0.3932290093750055,
                    "durationTicks": 453,
                    "midi": 64,
                    "name": "E4",
                    "ticks": 181920,
                    "time": 157.9166035,
                    "velocity": 0.3228346456692913,
                },
                {
                    "duration": 0.42274288645833735,
                    "durationTicks": 487,
                    "midi": 71,
                    "name": "B4",
                    "ticks": 182880,
                    "time": 158.7499365,
                    "velocity": 0.41732283464566927,
                },
                {
                    "duration": 0.42274288645833735,
                    "durationTicks": 487,
                    "midi": 76,
                    "name": "E5",
                    "ticks": 183360,
                    "time": 159.166603,
                    "velocity": 0.4881889763779528,
                },
                {
                    "duration": 0.3932290093750055,
                    "durationTicks": 453,
                    "midi": 64,
                    "name": "E4",
                    "ticks": 183840,
                    "time": 159.5832695,
                    "velocity": 0.3464566929133858,
                },
                {
                    "duration": 0.42274288645833735,
                    "durationTicks": 487,
                    "midi": 71,
                    "name": "B4",
                    "ticks": 184800,
                    "time": 160.4166025,
                    "velocity": 0.4015748031496063,
                },
                {
                    "duration": 0.42274288645833735,
                    "durationTicks": 487,
                    "midi": 76,
                    "name": "E5",
                    "ticks": 185280,
                    "time": 160.833269,
                    "velocity": 0.4409448818897638,
                },
                {
                    "duration": 0.3932290093750055,
                    "durationTicks": 453,
                    "midi": 64,
                    "name": "E4",
                    "ticks": 185760,
                    "time": 161.2499355,
                    "velocity": 0.3779527559055118,
                },
                {
                    "duration": 0.3932290093750055,
                    "durationTicks": 453,
                    "midi": 74,
                    "name": "D5",
                    "ticks": 185760,
                    "time": 161.2499355,
                    "velocity": 0.3779527559055118,
                },
                {
                    "duration": 0.8333329999999819,
                    "durationTicks": 960,
                    "midi": 64,
                    "name": "E4",
                    "ticks": 186240,
                    "time": 161.666602,
                    "velocity": 0.3700787401574803,
                },
                {
                    "duration": 0.8333329999999819,
                    "durationTicks": 960,
                    "midi": 72,
                    "name": "C5",
                    "ticks": 186240,
                    "time": 161.666602,
                    "velocity": 0.3700787401574803,
                },
                {
                    "duration": 0.19531242187500197,
                    "durationTicks": 225,
                    "midi": 59,
                    "name": "B3",
                    "ticks": 192000,
                    "time": 166.6666,
                    "velocity": 0.4251968503937008,
                },
                {
                    "duration": 0.19531242187500197,
                    "durationTicks": 225,
                    "midi": 60,
                    "name": "C4",
                    "ticks": 192225,
                    "time": 166.861912421875,
                    "velocity": 0.4251968503937008,
                },
                {
                    "duration": 0.8593746562499973,
                    "durationTicks": 990,
                    "midi": 62,
                    "name": "D4",
                    "ticks": 192450,
                    "time": 167.05722484375,
                    "velocity": 0.4251968503937008,
                },
                {
                    "duration": 0.21093741562501123,
                    "durationTicks": 243,
                    "midi": 60,
                    "name": "C4",
                    "ticks": 193440,
                    "time": 167.9165995,
                    "velocity": 0.41732283464566927,
                },
                {
                    "duration": 0.19531242187500197,
                    "durationTicks": 225,
                    "midi": 59,
                    "name": "B3",
                    "ticks": 193680,
                    "time": 168.12493275,
                    "velocity": 0.3858267716535433,
                },
                {
                    "duration": 3.3333319999999844,
                    "durationTicks": 3840,
                    "midi": 57,
                    "name": "A3",
                    "ticks": 193920,
                    "time": 168.333266,
                    "velocity": 0.3937007874015748,
                },
                {
                    "duration": 2.4999990000000025,
                    "durationTicks": 2880,
                    "midi": 59,
                    "name": "B3",
                    "ticks": 197760,
                    "time": 171.666598,
                    "velocity": 0.3858267716535433,
                },
                {
                    "duration": 0.8489579937500196,
                    "durationTicks": 978,
                    "midi": 57,
                    "name": "A3",
                    "ticks": 200640,
                    "time": 174.166597,
                    "velocity": 0.4409448818897638,
                },
                {
                    "duration": 0.8489579937499911,
                    "durationTicks": 978,
                    "midi": 56,
                    "name": "G#3",
                    "ticks": 201600,
                    "time": 174.99993,
                    "velocity": 0.4881889763779528,
                },
                {
                    "duration": 0.7907982947916707,
                    "durationTicks": 911,
                    "midi": 57,
                    "name": "A3",
                    "ticks": 202560,
                    "time": 175.833263,
                    "velocity": 0.5354330708661418,
                },
                {
                    "duration": 0.8489579937500196,
                    "durationTicks": 978,
                    "midi": 57,
                    "name": "A3",
                    "ticks": 203520,
                    "time": 176.666596,
                    "velocity": 0.5433070866141733,
                },
                {
                    "duration": 0.8489579937499911,
                    "durationTicks": 978,
                    "midi": 55,
                    "name": "G3",
                    "ticks": 204480,
                    "time": 177.499929,
                    "velocity": 0.5984251968503937,
                },
                {
                    "duration": 0.8489579937500196,
                    "durationTicks": 978,
                    "midi": 57,
                    "name": "A3",
                    "ticks": 205440,
                    "time": 178.333262,
                    "velocity": 0.6377952755905512,
                },
                {
                    "duration": 0.7907982947916707,
                    "durationTicks": 911,
                    "midi": 59,
                    "name": "B3",
                    "ticks": 206400,
                    "time": 179.166595,
                    "velocity": 0.5669291338582677,
                },
                {
                    "duration": 0.8489579937499911,
                    "durationTicks": 978,
                    "midi": 59,
                    "name": "B3",
                    "ticks": 207360,
                    "time": 179.999928,
                    "velocity": 0.5039370078740157,
                },
                {
                    "duration": 0.42274288645833735,
                    "durationTicks": 487,
                    "midi": 57,
                    "name": "A3",
                    "ticks": 208320,
                    "time": 180.833261,
                    "velocity": 0.4330708661417323,
                },
                {
                    "duration": 0.3932290093750339,
                    "durationTicks": 453,
                    "midi": 55,
                    "name": "G3",
                    "ticks": 208800,
                    "time": 181.24992749999998,
                    "velocity": 0.49606299212598426,
                },
                {
                    "duration": 0.3932290093750339,
                    "durationTicks": 453,
                    "midi": 67,
                    "name": "G4",
                    "ticks": 208800,
                    "time": 181.24992749999998,
                    "velocity": 0.49606299212598426,
                },
                {
                    "duration": 0.8333329999999819,
                    "durationTicks": 960,
                    "midi": 55,
                    "name": "G3",
                    "ticks": 209280,
                    "time": 181.666594,
                    "velocity": 0.3779527559055118,
                },
                {
                    "duration": 0.8333329999999819,
                    "durationTicks": 960,
                    "midi": 67,
                    "name": "G4",
                    "ticks": 209280,
                    "time": 181.666594,
                    "velocity": 0.3779527559055118,
                },
                {
                    "duration": 2.916665500000022,
                    "durationTicks": 3360,
                    "midi": 55,
                    "name": "G3",
                    "ticks": 210240,
                    "time": 182.49992699999999,
                    "velocity": 0.36220472440944884,
                },
                {
                    "duration": 2.916665500000022,
                    "durationTicks": 3360,
                    "midi": 67,
                    "name": "G4",
                    "ticks": 210240,
                    "time": 182.49992699999999,
                    "velocity": 0.36220472440944884,
                },
                {
                    "duration": 0.41666649999999095,
                    "durationTicks": 480,
                    "midi": 57,
                    "name": "A3",
                    "ticks": 213600,
                    "time": 185.4165925,
                    "velocity": 0.5196850393700787,
                },
                {
                    "duration": 0.41666649999999095,
                    "durationTicks": 480,
                    "midi": 67,
                    "name": "G4",
                    "ticks": 213600,
                    "time": 185.4165925,
                    "velocity": 0.5196850393700787,
                },
                {
                    "duration": 1.6666659999999922,
                    "durationTicks": 1920,
                    "midi": 57,
                    "name": "A3",
                    "ticks": 214080,
                    "time": 185.833259,
                    "velocity": 0.5118110236220472,
                },
                {
                    "duration": 1.6666659999999922,
                    "durationTicks": 1920,
                    "midi": 66,
                    "name": "F#4",
                    "ticks": 214080,
                    "time": 185.833259,
                    "velocity": 0.5118110236220472,
                },
                {
                    "duration": 0.8333330000000103,
                    "durationTicks": 960,
                    "midi": 57,
                    "name": "A3",
                    "ticks": 216000,
                    "time": 187.499925,
                    "velocity": 0.5590551181102362,
                },
                {
                    "duration": 0.42274288645833735,
                    "durationTicks": 487,
                    "midi": 57,
                    "name": "A3",
                    "ticks": 216960,
                    "time": 188.333258,
                    "velocity": 0.5275590551181102,
                },
                {
                    "duration": 0.42274288645833735,
                    "durationTicks": 487,
                    "midi": 59,
                    "name": "B3",
                    "ticks": 217440,
                    "time": 188.7499245,
                    "velocity": 0.5275590551181102,
                },
                {
                    "duration": 0.3932290093750055,
                    "durationTicks": 453,
                    "midi": 61,
                    "name": "C#4",
                    "ticks": 217920,
                    "time": 189.166591,
                    "velocity": 0.4409448818897638,
                },
                {
                    "duration": 0.42274288645833735,
                    "durationTicks": 487,
                    "midi": 61,
                    "name": "C#4",
                    "ticks": 218400,
                    "time": 189.5832575,
                    "velocity": 0.4645669291338583,
                },
                {
                    "duration": 0.42274288645833735,
                    "durationTicks": 487,
                    "midi": 56,
                    "name": "G#3",
                    "ticks": 218880,
                    "time": 189.999924,
                    "velocity": 0.4409448818897638,
                },
                {
                    "duration": 0.3932290093750339,
                    "durationTicks": 453,
                    "midi": 59,
                    "name": "B3",
                    "ticks": 219360,
                    "time": 190.41659049999998,
                    "velocity": 0.44881889763779526,
                },
                {
                    "duration": 0.42274288645833735,
                    "durationTicks": 487,
                    "midi": 59,
                    "name": "B3",
                    "ticks": 219840,
                    "time": 190.833257,
                    "velocity": 0.3700787401574803,
                },
                {
                    "duration": 0.42274288645833735,
                    "durationTicks": 487,
                    "midi": 57,
                    "name": "A3",
                    "ticks": 220320,
                    "time": 191.2499235,
                    "velocity": 0.36220472440944884,
                },
                {
                    "duration": 0.7907982947916707,
                    "durationTicks": 911,
                    "midi": 56,
                    "name": "G#3",
                    "ticks": 220800,
                    "time": 191.66658999999999,
                    "velocity": 0.3700787401574803,
                },
                {
                    "duration": 2.54861009166666,
                    "durationTicks": 2936,
                    "midi": 59,
                    "name": "B3",
                    "ticks": 221760,
                    "time": 192.499923,
                    "velocity": 0.3464566929133858,
                },
                {
                    "duration": 0.8489579937500196,
                    "durationTicks": 978,
                    "midi": 68,
                    "name": "G#4",
                    "ticks": 221760,
                    "time": 192.499923,
                    "velocity": 0.3464566929133858,
                },
                {
                    "duration": 1.5815965895833415,
                    "durationTicks": 1822,
                    "midi": 69,
                    "name": "A4",
                    "ticks": 222720,
                    "time": 193.333256,
                    "velocity": 0.3779527559055118,
                },
                {
                    "duration": 3.3984361406249946,
                    "durationTicks": 3915,
                    "midi": 59,
                    "name": "B3",
                    "ticks": 224640,
                    "time": 194.999922,
                    "velocity": 0.33858267716535434,
                },
                {
                    "duration": 1.6987840427083256,
                    "durationTicks": 1957,
                    "midi": 68,
                    "name": "G#4",
                    "ticks": 224640,
                    "time": 194.999922,
                    "velocity": 0.33858267716535434,
                },
                {
                    "duration": 1.5815965895833415,
                    "durationTicks": 1822,
                    "midi": 69,
                    "name": "A4",
                    "ticks": 226560,
                    "time": 196.666588,
                    "velocity": 0.2992125984251969,
                },
                {
                    "duration": 3.3984361406249946,
                    "durationTicks": 3915,
                    "midi": 59,
                    "name": "B3",
                    "ticks": 228480,
                    "time": 198.333254,
                    "velocity": 0.2283464566929134,
                },
                {
                    "duration": 1.6987840427083256,
                    "durationTicks": 1957,
                    "midi": 68,
                    "name": "G#4",
                    "ticks": 228480,
                    "time": 198.333254,
                    "velocity": 0.2283464566929134,
                },
                {
                    "duration": 1.5815965895833415,
                    "durationTicks": 1822,
                    "midi": 69,
                    "name": "A4",
                    "ticks": 230400,
                    "time": 199.99992,
                    "velocity": 0.25196850393700787,
                },
                {
                    "duration": 0.8489579937500196,
                    "durationTicks": 978,
                    "midi": 59,
                    "name": "B3",
                    "ticks": 232320,
                    "time": 201.666586,
                    "velocity": 0.2204724409448819,
                },
                {
                    "duration": 0.8489579937500196,
                    "durationTicks": 978,
                    "midi": 68,
                    "name": "G#4",
                    "ticks": 232320,
                    "time": 201.666586,
                    "velocity": 0.2204724409448819,
                },
                {
                    "duration": 0.7907982947916707,
                    "durationTicks": 911,
                    "midi": 56,
                    "name": "G#3",
                    "ticks": 233280,
                    "time": 202.499919,
                    "velocity": 0.2204724409448819,
                },
                {
                    "duration": 1.698784042708354,
                    "durationTicks": 1957,
                    "midi": 55,
                    "name": "G3",
                    "ticks": 234240,
                    "time": 203.333252,
                    "velocity": 0.2992125984251969,
                },
                {
                    "duration": 1.5815965895833415,
                    "durationTicks": 1822,
                    "midi": 56,
                    "name": "G#3",
                    "ticks": 236160,
                    "time": 204.999918,
                    "velocity": 0.3779527559055118,
                },
                {
                    "duration": 1.6987840427083256,
                    "durationTicks": 1957,
                    "midi": 55,
                    "name": "G3",
                    "ticks": 238080,
                    "time": 206.666584,
                    "velocity": 0.44881889763779526,
                },
                {
                    "duration": 1.5815965895833415,
                    "durationTicks": 1822,
                    "midi": 56,
                    "name": "G#3",
                    "ticks": 240000,
                    "time": 208.33325,
                    "velocity": 0.5826771653543307,
                },
                {
                    "duration": 0.8489579937500196,
                    "durationTicks": 978,
                    "midi": 55,
                    "name": "G3",
                    "ticks": 241920,
                    "time": 209.99991599999998,
                    "velocity": 0.5748031496062992,
                },
                {
                    "duration": 0.8489579937500196,
                    "durationTicks": 978,
                    "midi": 67,
                    "name": "G4",
                    "ticks": 242880,
                    "time": 210.833249,
                    "velocity": 0.7007874015748031,
                },
                {
                    "duration": 0.3932290093750055,
                    "durationTicks": 453,
                    "midi": 66,
                    "name": "F#4",
                    "ticks": 243840,
                    "time": 211.666582,
                    "velocity": 0.5905511811023622,
                },
                {
                    "duration": 0.42274288645833735,
                    "durationTicks": 487,
                    "midi": 66,
                    "name": "F#4",
                    "ticks": 244320,
                    "time": 212.0832485,
                    "velocity": 0.5275590551181102,
                },
                {
                    "duration": 0.42274288645833735,
                    "durationTicks": 487,
                    "midi": 62,
                    "name": "D4",
                    "ticks": 244800,
                    "time": 212.499915,
                    "velocity": 0.4409448818897638,
                },
                {
                    "duration": 0.3932290093750055,
                    "durationTicks": 453,
                    "midi": 66,
                    "name": "F#4",
                    "ticks": 245280,
                    "time": 212.9165815,
                    "velocity": 0.5590551181102362,
                },
                {
                    "duration": 0.42274288645833735,
                    "durationTicks": 487,
                    "midi": 61,
                    "name": "C#4",
                    "ticks": 245760,
                    "time": 213.333248,
                    "velocity": 0.3464566929133858,
                },
                {
                    "duration": 0.3932290093750055,
                    "durationTicks": 453,
                    "midi": 64,
                    "name": "E4",
                    "ticks": 246240,
                    "time": 213.7499145,
                    "velocity": 0.3779527559055118,
                },
                {
                    "duration": 0.42274288645833735,
                    "durationTicks": 487,
                    "midi": 64,
                    "name": "E4",
                    "ticks": 246720,
                    "time": 214.166581,
                    "velocity": 0.4015748031496063,
                },
                {
                    "duration": 0.42274288645833735,
                    "durationTicks": 487,
                    "midi": 62,
                    "name": "D4",
                    "ticks": 247200,
                    "time": 214.5832475,
                    "velocity": 0.3700787401574803,
                },
                {
                    "duration": 0.3932290093750055,
                    "durationTicks": 453,
                    "midi": 61,
                    "name": "C#4",
                    "ticks": 247680,
                    "time": 214.999914,
                    "velocity": 0.3779527559055118,
                },
                {
                    "duration": 0.42274288645833735,
                    "durationTicks": 487,
                    "midi": 61,
                    "name": "C#4",
                    "ticks": 248160,
                    "time": 215.4165805,
                    "velocity": 0.41732283464566927,
                },
                {
                    "duration": 0.2795137770833378,
                    "durationTicks": 322,
                    "midi": 62,
                    "name": "D4",
                    "ticks": 248640,
                    "time": 215.833247,
                    "velocity": 0.4881889763779528,
                },
                {
                    "duration": 0.2803818322916811,
                    "durationTicks": 323,
                    "midi": 63,
                    "name": "D#4",
                    "ticks": 248958,
                    "time": 216.10928855625,
                    "velocity": 0.48031496062992124,
                },
                {
                    "duration": 0.26388878333332855,
                    "durationTicks": 304,
                    "midi": 64,
                    "name": "E4",
                    "ticks": 249277,
                    "time": 216.38619816770833,
                    "velocity": 0.47244094488188976,
                },
                {
                    "duration": 1.6987840427083256,
                    "durationTicks": 1957,
                    "midi": 55,
                    "name": "G3",
                    "ticks": 249600,
                    "time": 216.66658,
                    "velocity": 0.4094488188976378,
                },
                {
                    "duration": 1.5815965895833415,
                    "durationTicks": 1822,
                    "midi": 56,
                    "name": "G#3",
                    "ticks": 251520,
                    "time": 218.333246,
                    "velocity": 0.5118110236220472,
                },
                {
                    "duration": 1.698784042708354,
                    "durationTicks": 1957,
                    "midi": 55,
                    "name": "G3",
                    "ticks": 253440,
                    "time": 219.999912,
                    "velocity": 0.5354330708661418,
                },
                {
                    "duration": 1.5815965895833415,
                    "durationTicks": 1822,
                    "midi": 56,
                    "name": "G#3",
                    "ticks": 255360,
                    "time": 221.666578,
                    "velocity": 0.6299212598425197,
                },
                {
                    "duration": 0.8489579937499911,
                    "durationTicks": 978,
                    "midi": 55,
                    "name": "G3",
                    "ticks": 257280,
                    "time": 223.333244,
                    "velocity": 0.3543307086614173,
                },
                {
                    "duration": 0.8489579937500196,
                    "durationTicks": 978,
                    "midi": 67,
                    "name": "G4",
                    "ticks": 258240,
                    "time": 224.166577,
                    "velocity": 0.4566929133858268,
                },
                {
                    "duration": 0.3932290093750055,
                    "durationTicks": 453,
                    "midi": 69,
                    "name": "A4",
                    "ticks": 259200,
                    "time": 224.99991,
                    "velocity": 0.4409448818897638,
                },
                {
                    "duration": 0.42274288645833735,
                    "durationTicks": 487,
                    "midi": 57,
                    "name": "A3",
                    "ticks": 259680,
                    "time": 225.4165765,
                    "velocity": 0.41732283464566927,
                },
                {
                    "duration": 0.42274288645833735,
                    "durationTicks": 487,
                    "midi": 65,
                    "name": "F4",
                    "ticks": 260160,
                    "time": 225.833243,
                    "velocity": 0.5511811023622047,
                },
                {
                    "duration": 0.3932290093750055,
                    "durationTicks": 453,
                    "midi": 69,
                    "name": "A4",
                    "ticks": 260640,
                    "time": 226.2499095,
                    "velocity": 0.5748031496062992,
                },
                {
                    "duration": 0.42274288645833735,
                    "durationTicks": 487,
                    "midi": 64,
                    "name": "E4",
                    "ticks": 261120,
                    "time": 226.666576,
                    "velocity": 0.36220472440944884,
                },
                {
                    "duration": 0.3932290093750055,
                    "durationTicks": 453,
                    "midi": 67,
                    "name": "G4",
                    "ticks": 261600,
                    "time": 227.0832425,
                    "velocity": 0.3543307086614173,
                },
                {
                    "duration": 0.42274288645833735,
                    "durationTicks": 487,
                    "midi": 67,
                    "name": "G4",
                    "ticks": 262080,
                    "time": 227.499909,
                    "velocity": 0.3937007874015748,
                },
                {
                    "duration": 0.3932290093750055,
                    "durationTicks": 453,
                    "midi": 59,
                    "name": "B3",
                    "ticks": 262560,
                    "time": 227.9165755,
                    "velocity": 0.33070866141732286,
                },
                {
                    "duration": 0.8333330000000103,
                    "durationTicks": 960,
                    "midi": 60,
                    "name": "C4",
                    "ticks": 263040,
                    "time": 228.33324199999998,
                    "velocity": 0.41732283464566927,
                },
                {
                    "duration": 4.247394134375014,
                    "durationTicks": 4893,
                    "midi": 55,
                    "name": "G3",
                    "ticks": 264000,
                    "time": 229.166575,
                    "velocity": 0.4330708661417323,
                },
                {
                    "duration": 0.8489579937500196,
                    "durationTicks": 978,
                    "midi": 64,
                    "name": "E4",
                    "ticks": 264000,
                    "time": 229.166575,
                    "velocity": 0.4330708661417323,
                },
                {
                    "duration": 1.5815965895833415,
                    "durationTicks": 1822,
                    "midi": 65,
                    "name": "F4",
                    "ticks": 264960,
                    "time": 229.999908,
                    "velocity": 0.4645669291338583,
                },
                {
                    "duration": 1.5815965895833415,
                    "durationTicks": 1822,
                    "midi": 64,
                    "name": "E4",
                    "ticks": 266880,
                    "time": 231.666574,
                    "velocity": 0.4330708661417323,
                },
                {
                    "duration": 5.097220183333349,
                    "durationTicks": 5872,
                    "midi": 55,
                    "name": "G3",
                    "ticks": 268800,
                    "time": 233.33324,
                    "velocity": 0.48031496062992124,
                },
                {
                    "duration": 1.698784042708354,
                    "durationTicks": 1957,
                    "midi": 65,
                    "name": "F4",
                    "ticks": 268800,
                    "time": 233.33324,
                    "velocity": 0.48031496062992124,
                },
                {
                    "duration": 1.6987840427083256,
                    "durationTicks": 1957,
                    "midi": 64,
                    "name": "E4",
                    "ticks": 270720,
                    "time": 234.999906,
                    "velocity": 0.3464566929133858,
                },
                {
                    "duration": 1.5815965895833415,
                    "durationTicks": 1822,
                    "midi": 65,
                    "name": "F4",
                    "ticks": 272640,
                    "time": 236.666572,
                    "velocity": 0.3543307086614173,
                },
                {
                    "duration": 0.2803818322916527,
                    "durationTicks": 323,
                    "midi": 69,
                    "name": "A4",
                    "ticks": 276157,
                    "time": 239.71952216770833,
                    "velocity": 0.6614173228346457,
                },
                {
                    "duration": 0.1657985447916701,
                    "durationTicks": 191,
                    "midi": 67,
                    "name": "G4",
                    "ticks": 276480,
                    "time": 239.999904,
                    "velocity": 0.7244094488188977,
                },
                {
                    "duration": 0.166666599999985,
                    "durationTicks": 192,
                    "midi": 65,
                    "name": "F4",
                    "ticks": 276798,
                    "time": 240.27594555625,
                    "velocity": 0.6929133858267716,
                },
                {
                    "duration": 0.1657985447916701,
                    "durationTicks": 191,
                    "midi": 64,
                    "name": "E4",
                    "ticks": 277117,
                    "time": 240.55285516770834,
                    "velocity": 0.7559055118110236,
                },
                {
                    "duration": 0.1657985447916701,
                    "durationTicks": 191,
                    "midi": 62,
                    "name": "D4",
                    "ticks": 277440,
                    "time": 240.833237,
                    "velocity": 0.8188976377952756,
                },
                {
                    "duration": 0.166666599999985,
                    "durationTicks": 192,
                    "midi": 60,
                    "name": "C4",
                    "ticks": 277758,
                    "time": 241.10927855625002,
                    "velocity": 0.6929133858267716,
                },
                {
                    "duration": 0.1657985447916701,
                    "durationTicks": 191,
                    "midi": 59,
                    "name": "B3",
                    "ticks": 278077,
                    "time": 241.38618816770833,
                    "velocity": 0.7322834645669292,
                },
                {
                    "duration": 0.1657985447916701,
                    "durationTicks": 191,
                    "midi": 57,
                    "name": "A3",
                    "ticks": 278400,
                    "time": 241.66657,
                    "velocity": 0.7244094488188977,
                },
                {
                    "duration": 0.166666599999985,
                    "durationTicks": 192,
                    "midi": 67,
                    "name": "G4",
                    "ticks": 278718,
                    "time": 241.94261155625,
                    "velocity": 0.9448818897637795,
                },
                {
                    "duration": 0.1657985447916701,
                    "durationTicks": 191,
                    "midi": 65,
                    "name": "F4",
                    "ticks": 279037,
                    "time": 242.21952116770834,
                    "velocity": 0.7165354330708661,
                },
                {
                    "duration": 0.1657985447916701,
                    "durationTicks": 191,
                    "midi": 64,
                    "name": "E4",
                    "ticks": 279360,
                    "time": 242.499903,
                    "velocity": 0.7322834645669292,
                },
                {
                    "duration": 0.166666599999985,
                    "durationTicks": 192,
                    "midi": 62,
                    "name": "D4",
                    "ticks": 279678,
                    "time": 242.77594455625,
                    "velocity": 0.7007874015748031,
                },
                {
                    "duration": 0.1657985447916701,
                    "durationTicks": 191,
                    "midi": 60,
                    "name": "C4",
                    "ticks": 279997,
                    "time": 243.05285416770835,
                    "velocity": 0.7007874015748031,
                },
                {
                    "duration": 0.27604155625002136,
                    "durationTicks": 318,
                    "midi": 59,
                    "name": "B3",
                    "ticks": 280320,
                    "time": 243.333236,
                    "velocity": 0.7244094488188977,
                },
                {
                    "duration": 0.2473957343750044,
                    "durationTicks": 285,
                    "midi": 59,
                    "name": "B3",
                    "ticks": 283200,
                    "time": 245.833235,
                    "velocity": 0.8188976377952756,
                },
                {
                    "duration": 0.2473957343750044,
                    "durationTicks": 285,
                    "midi": 59,
                    "name": "B3",
                    "ticks": 283680,
                    "time": 246.2499015,
                    "velocity": 0.8661417322834646,
                },
                {
                    "duration": 0.24739573437494755,
                    "durationTicks": 285,
                    "midi": 62,
                    "name": "D4",
                    "ticks": 348480,
                    "time": 302.499879,
                    "velocity": 0.5196850393700787,
                },
                {
                    "duration": 0.24739573437494755,
                    "durationTicks": 285,
                    "midi": 65,
                    "name": "F4",
                    "ticks": 348480,
                    "time": 302.499879,
                    "velocity": 0.5196850393700787,
                },
                {
                    "duration": 0.2473957343750044,
                    "durationTicks": 285,
                    "midi": 74,
                    "name": "D5",
                    "ticks": 348960,
                    "time": 302.9165455,
                    "velocity": 0.49606299212598426,
                },
                {
                    "duration": 0.12326383958333054,
                    "durationTicks": 142,
                    "midi": 72,
                    "name": "C5",
                    "ticks": 349440,
                    "time": 303.333212,
                    "velocity": 0.2755905511811024,
                },
                {
                    "duration": 0.12326383958333054,
                    "durationTicks": 142,
                    "midi": 74,
                    "name": "D5",
                    "ticks": 349680,
                    "time": 303.54154525,
                    "velocity": 0.30708661417322836,
                },
                {
                    "duration": 0.12326383958333054,
                    "durationTicks": 142,
                    "midi": 76,
                    "name": "E5",
                    "ticks": 349920,
                    "time": 303.7498785,
                    "velocity": 0.31496062992125984,
                },
                {
                    "duration": 0.12326383958338738,
                    "durationTicks": 142,
                    "midi": 74,
                    "name": "D5",
                    "ticks": 350160,
                    "time": 303.95821175,
                    "velocity": 0.25984251968503935,
                },
                {
                    "duration": 0.12326383958333054,
                    "durationTicks": 142,
                    "midi": 72,
                    "name": "C5",
                    "ticks": 350400,
                    "time": 304.166545,
                    "velocity": 0.2677165354330709,
                },
                {
                    "duration": 0.12326383958333054,
                    "durationTicks": 142,
                    "midi": 74,
                    "name": "D5",
                    "ticks": 350640,
                    "time": 304.37487825,
                    "velocity": 0.29133858267716534,
                },
                {
                    "duration": 0.12326383958333054,
                    "durationTicks": 142,
                    "midi": 72,
                    "name": "C5",
                    "ticks": 350880,
                    "time": 304.5832115,
                    "velocity": 0.2677165354330709,
                },
                {
                    "duration": 0.12326383958333054,
                    "durationTicks": 142,
                    "midi": 71,
                    "name": "B4",
                    "ticks": 351120,
                    "time": 304.79154475,
                    "velocity": 0.2283464566929134,
                },
                {
                    "duration": 0.12326383958333054,
                    "durationTicks": 142,
                    "midi": 69,
                    "name": "A4",
                    "ticks": 351360,
                    "time": 304.999878,
                    "velocity": 0.28346456692913385,
                },
                {
                    "duration": 0.12326383958338738,
                    "durationTicks": 142,
                    "midi": 71,
                    "name": "B4",
                    "ticks": 351600,
                    "time": 305.20821125,
                    "velocity": 0.2992125984251969,
                },
                {
                    "duration": 0.12326383958333054,
                    "durationTicks": 142,
                    "midi": 72,
                    "name": "C5",
                    "ticks": 351840,
                    "time": 305.4165445,
                    "velocity": 0.2992125984251969,
                },
                {
                    "duration": 0.12326383958333054,
                    "durationTicks": 142,
                    "midi": 74,
                    "name": "D5",
                    "ticks": 352080,
                    "time": 305.62487775,
                    "velocity": 0.2755905511811024,
                },
                {
                    "duration": 0.12326383958333054,
                    "durationTicks": 142,
                    "midi": 76,
                    "name": "E5",
                    "ticks": 352320,
                    "time": 305.833211,
                    "velocity": 0.31496062992125984,
                },
                {
                    "duration": 0.12326383958333054,
                    "durationTicks": 142,
                    "midi": 78,
                    "name": "F#5",
                    "ticks": 352560,
                    "time": 306.04154425,
                    "velocity": 0.30708661417322836,
                },
                {
                    "duration": 0.12326383958338738,
                    "durationTicks": 142,
                    "midi": 80,
                    "name": "G#5",
                    "ticks": 352800,
                    "time": 306.24987749999997,
                    "velocity": 0.3464566929133858,
                },
                {
                    "duration": 0.12326383958333054,
                    "durationTicks": 142,
                    "midi": 81,
                    "name": "A5",
                    "ticks": 353040,
                    "time": 306.45821075,
                    "velocity": 0.29133858267716534,
                },
                {
                    "duration": 0.12326383958333054,
                    "durationTicks": 142,
                    "midi": 80,
                    "name": "G#5",
                    "ticks": 353280,
                    "time": 306.666544,
                    "velocity": 0.2677165354330709,
                },
                {
                    "duration": 0.12326383958333054,
                    "durationTicks": 142,
                    "midi": 76,
                    "name": "E5",
                    "ticks": 353520,
                    "time": 306.87487725,
                    "velocity": 0.25984251968503935,
                },
                {
                    "duration": 0.12326383958333054,
                    "durationTicks": 142,
                    "midi": 78,
                    "name": "F#5",
                    "ticks": 353760,
                    "time": 307.0832105,
                    "velocity": 0.30708661417322836,
                },
                {
                    "duration": 0.12326383958333054,
                    "durationTicks": 142,
                    "midi": 80,
                    "name": "G#5",
                    "ticks": 354000,
                    "time": 307.29154375,
                    "velocity": 0.29133858267716534,
                },
                {
                    "duration": 0.12326383958338738,
                    "durationTicks": 142,
                    "midi": 81,
                    "name": "A5",
                    "ticks": 354240,
                    "time": 307.49987699999997,
                    "velocity": 0.28346456692913385,
                },
                {
                    "duration": 0.12326383958333054,
                    "durationTicks": 142,
                    "midi": 83,
                    "name": "B5",
                    "ticks": 354480,
                    "time": 307.70821025,
                    "velocity": 0.33070866141732286,
                },
                {
                    "duration": 0.12326383958333054,
                    "durationTicks": 142,
                    "midi": 81,
                    "name": "A5",
                    "ticks": 354720,
                    "time": 307.9165435,
                    "velocity": 0.28346456692913385,
                },
                {
                    "duration": 0.12326383958333054,
                    "durationTicks": 142,
                    "midi": 79,
                    "name": "G5",
                    "ticks": 354960,
                    "time": 308.12487675,
                    "velocity": 0.2677165354330709,
                },
                {
                    "duration": 0.12326383958333054,
                    "durationTicks": 142,
                    "midi": 78,
                    "name": "F#5",
                    "ticks": 355200,
                    "time": 308.33321,
                    "velocity": 0.29133858267716534,
                },
                {
                    "duration": 0.12326383958333054,
                    "durationTicks": 142,
                    "midi": 78,
                    "name": "F#5",
                    "ticks": 355440,
                    "time": 308.54154325,
                    "velocity": 0.2755905511811024,
                },
                {
                    "duration": 0.12326383958338738,
                    "durationTicks": 142,
                    "midi": 79,
                    "name": "G5",
                    "ticks": 355680,
                    "time": 308.74987649999997,
                    "velocity": 0.2677165354330709,
                },
                {
                    "duration": 0.12326383958333054,
                    "durationTicks": 142,
                    "midi": 81,
                    "name": "A5",
                    "ticks": 355920,
                    "time": 308.95820975,
                    "velocity": 0.2992125984251969,
                },
                {
                    "duration": 0.12326383958333054,
                    "durationTicks": 142,
                    "midi": 83,
                    "name": "B5",
                    "ticks": 356160,
                    "time": 309.166543,
                    "velocity": 0.29133858267716534,
                },
                {
                    "duration": 0.12326383958333054,
                    "durationTicks": 142,
                    "midi": 71,
                    "name": "B4",
                    "ticks": 356400,
                    "time": 309.37487625,
                    "velocity": 0.1889763779527559,
                },
                {
                    "duration": 0.12326383958333054,
                    "durationTicks": 142,
                    "midi": 73,
                    "name": "C#5",
                    "ticks": 356640,
                    "time": 309.5832095,
                    "velocity": 0.2677165354330709,
                },
                {
                    "duration": 0.12326383958333054,
                    "durationTicks": 142,
                    "midi": 75,
                    "name": "D#5",
                    "ticks": 356880,
                    "time": 309.79154275,
                    "velocity": 0.31496062992125984,
                },
                {
                    "duration": 0.8333330000000387,
                    "durationTicks": 960,
                    "midi": 76,
                    "name": "E5",
                    "ticks": 357120,
                    "time": 309.999876,
                    "velocity": 0.29133858267716534,
                },
                {
                    "duration": 0.2473957343750044,
                    "durationTicks": 285,
                    "midi": 76,
                    "name": "E5",
                    "ticks": 358080,
                    "time": 310.833209,
                    "velocity": 0.2677165354330709,
                },
                {
                    "duration": 0.2473957343750044,
                    "durationTicks": 285,
                    "midi": 78,
                    "name": "F#5",
                    "ticks": 358560,
                    "time": 311.2498755,
                    "velocity": 0.30708661417322836,
                },
                {
                    "duration": 0.49739563437503875,
                    "durationTicks": 573,
                    "midi": 79,
                    "name": "G5",
                    "ticks": 359040,
                    "time": 311.666542,
                    "velocity": 0.25196850393700787,
                },
                {
                    "duration": 0.47135397812502333,
                    "durationTicks": 543,
                    "midi": 79,
                    "name": "G5",
                    "ticks": 360000,
                    "time": 312.499875,
                    "velocity": 0.29133858267716534,
                },
                {
                    "duration": 0.8333329999999819,
                    "durationTicks": 960,
                    "midi": 78,
                    "name": "F#5",
                    "ticks": 360960,
                    "time": 313.333208,
                    "velocity": 0.25984251968503935,
                },
                {
                    "duration": 0.2473957343750044,
                    "durationTicks": 285,
                    "midi": 78,
                    "name": "F#5",
                    "ticks": 361920,
                    "time": 314.166541,
                    "velocity": 0.2992125984251969,
                },
                {
                    "duration": 0.2473957343750044,
                    "durationTicks": 285,
                    "midi": 80,
                    "name": "G#5",
                    "ticks": 362400,
                    "time": 314.5832075,
                    "velocity": 0.3228346456692913,
                },
                {
                    "duration": 0.2473957343750044,
                    "durationTicks": 285,
                    "midi": 81,
                    "name": "A5",
                    "ticks": 362880,
                    "time": 314.999874,
                    "velocity": 0.33858267716535434,
                },
                {
                    "duration": 0.2473957343750044,
                    "durationTicks": 285,
                    "midi": 77,
                    "name": "F5",
                    "ticks": 363360,
                    "time": 315.4165405,
                    "velocity": 0.2440944881889764,
                },
                {
                    "duration": 0.2473957343750044,
                    "durationTicks": 285,
                    "midi": 76,
                    "name": "E5",
                    "ticks": 363840,
                    "time": 315.833207,
                    "velocity": 0.25196850393700787,
                },
                {
                    "duration": 0.8333330000000387,
                    "durationTicks": 960,
                    "midi": 74,
                    "name": "D5",
                    "ticks": 364320,
                    "time": 316.2498735,
                    "velocity": 0.2677165354330709,
                },
                {
                    "duration": 0.8333329999999819,
                    "durationTicks": 960,
                    "midi": 72,
                    "name": "C5",
                    "ticks": 365280,
                    "time": 317.0832065,
                    "velocity": 0.2283464566929134,
                },
                {
                    "duration": 0.8333329999999819,
                    "durationTicks": 960,
                    "midi": 76,
                    "name": "E5",
                    "ticks": 366240,
                    "time": 317.9165395,
                    "velocity": 0.29133858267716534,
                },
                {
                    "duration": 0.8333330000000387,
                    "durationTicks": 960,
                    "midi": 69,
                    "name": "A4",
                    "ticks": 367200,
                    "time": 318.7498725,
                    "velocity": 0.2204724409448819,
                },
                {
                    "duration": 0.8333329999999819,
                    "durationTicks": 960,
                    "midi": 76,
                    "name": "E5",
                    "ticks": 368160,
                    "time": 319.5832055,
                    "velocity": 0.33070866141732286,
                },
                {
                    "duration": 0.8333329999999819,
                    "durationTicks": 960,
                    "midi": 74,
                    "name": "D5",
                    "ticks": 369120,
                    "time": 320.4165385,
                    "velocity": 0.2440944881889764,
                },
                {
                    "duration": 0.41666650000001937,
                    "durationTicks": 480,
                    "midi": 76,
                    "name": "E5",
                    "ticks": 370080,
                    "time": 321.2498715,
                    "velocity": 0.36220472440944884,
                },
                {
                    "duration": 0.2473957343750044,
                    "durationTicks": 285,
                    "midi": 78,
                    "name": "F#5",
                    "ticks": 370560,
                    "time": 321.666538,
                    "velocity": 0.2755905511811024,
                },
                {
                    "duration": 0.24739573437494755,
                    "durationTicks": 285,
                    "midi": 76,
                    "name": "E5",
                    "ticks": 371040,
                    "time": 322.0832045,
                    "velocity": 0.29133858267716534,
                },
                {
                    "duration": 0.12326383958333054,
                    "durationTicks": 142,
                    "midi": 75,
                    "name": "D#5",
                    "ticks": 371520,
                    "time": 322.499871,
                    "velocity": 0.25984251968503935,
                },
                {
                    "duration": 0.12326383958333054,
                    "durationTicks": 142,
                    "midi": 75,
                    "name": "D#5",
                    "ticks": 371760,
                    "time": 322.70820425,
                    "velocity": 0.2755905511811024,
                },
                {
                    "duration": 0.12326383958333054,
                    "durationTicks": 142,
                    "midi": 76,
                    "name": "E5",
                    "ticks": 372000,
                    "time": 322.9165375,
                    "velocity": 0.28346456692913385,
                },
                {
                    "duration": 0.12326383958333054,
                    "durationTicks": 142,
                    "midi": 78,
                    "name": "F#5",
                    "ticks": 372240,
                    "time": 323.12487075,
                    "velocity": 0.29133858267716534,
                },
                {
                    "duration": 0.8333329999999819,
                    "durationTicks": 960,
                    "midi": 79,
                    "name": "G5",
                    "ticks": 372480,
                    "time": 323.333204,
                    "velocity": 0.2992125984251969,
                },
                {
                    "duration": 0.12326383958333054,
                    "durationTicks": 142,
                    "midi": 73,
                    "name": "C#5",
                    "ticks": 381360,
                    "time": 331.04153425,
                    "velocity": 0.2677165354330709,
                },
                {
                    "duration": 0.12326383958333054,
                    "durationTicks": 142,
                    "midi": 74,
                    "name": "D5",
                    "ticks": 381600,
                    "time": 331.2498675,
                    "velocity": 0.2440944881889764,
                },
                {
                    "duration": 0.12326383958333054,
                    "durationTicks": 142,
                    "midi": 76,
                    "name": "E5",
                    "ticks": 381840,
                    "time": 331.45820075,
                    "velocity": 0.3228346456692913,
                },
                {
                    "duration": 0.8333329999999819,
                    "durationTicks": 960,
                    "midi": 74,
                    "name": "D5",
                    "ticks": 382080,
                    "time": 331.666534,
                    "velocity": 0.25984251968503935,
                },
                {
                    "duration": 0.12326383958338738,
                    "durationTicks": 142,
                    "midi": 71,
                    "name": "B4",
                    "ticks": 385200,
                    "time": 334.37486624999997,
                    "velocity": 0.29133858267716534,
                },
                {
                    "duration": 0.12326383958333054,
                    "durationTicks": 142,
                    "midi": 72,
                    "name": "C5",
                    "ticks": 385440,
                    "time": 334.5831995,
                    "velocity": 0.30708661417322836,
                },
                {
                    "duration": 0.12326383958333054,
                    "durationTicks": 142,
                    "midi": 74,
                    "name": "D5",
                    "ticks": 385680,
                    "time": 334.79153275,
                    "velocity": 0.28346456692913385,
                },
                {
                    "duration": 0.12326383958333054,
                    "durationTicks": 142,
                    "midi": 76,
                    "name": "E5",
                    "ticks": 385920,
                    "time": 334.999866,
                    "velocity": 0.3228346456692913,
                },
                {
                    "duration": 0.12326383958333054,
                    "durationTicks": 142,
                    "midi": 77,
                    "name": "F5",
                    "ticks": 386160,
                    "time": 335.20819925,
                    "velocity": 0.2992125984251969,
                },
                {
                    "duration": 0.12326383958333054,
                    "durationTicks": 142,
                    "midi": 79,
                    "name": "G5",
                    "ticks": 386400,
                    "time": 335.4165325,
                    "velocity": 0.2992125984251969,
                },
                {
                    "duration": 0.12326383958338738,
                    "durationTicks": 142,
                    "midi": 77,
                    "name": "F5",
                    "ticks": 386640,
                    "time": 335.62486574999997,
                    "velocity": 0.28346456692913385,
                },
                {
                    "duration": 0.12326383958333054,
                    "durationTicks": 142,
                    "midi": 76,
                    "name": "E5",
                    "ticks": 386880,
                    "time": 335.833199,
                    "velocity": 0.25984251968503935,
                },
                {
                    "duration": 0.12326383958333054,
                    "durationTicks": 142,
                    "midi": 77,
                    "name": "F5",
                    "ticks": 387120,
                    "time": 336.04153225,
                    "velocity": 0.29133858267716534,
                },
                {
                    "duration": 0.12326383958333054,
                    "durationTicks": 142,
                    "midi": 76,
                    "name": "E5",
                    "ticks": 387360,
                    "time": 336.2498655,
                    "velocity": 0.2755905511811024,
                },
                {
                    "duration": 0.12326383958333054,
                    "durationTicks": 142,
                    "midi": 74,
                    "name": "D5",
                    "ticks": 387600,
                    "time": 336.45819875,
                    "velocity": 0.25196850393700787,
                },
                {
                    "duration": 0.12326383958333054,
                    "durationTicks": 142,
                    "midi": 72,
                    "name": "C5",
                    "ticks": 387840,
                    "time": 336.666532,
                    "velocity": 0.23622047244094488,
                },
                {
                    "duration": 0.12326383958338738,
                    "durationTicks": 142,
                    "midi": 74,
                    "name": "D5",
                    "ticks": 388080,
                    "time": 336.87486524999997,
                    "velocity": 0.2755905511811024,
                },
                {
                    "duration": 0.12326383958333054,
                    "durationTicks": 142,
                    "midi": 76,
                    "name": "E5",
                    "ticks": 388320,
                    "time": 337.0831985,
                    "velocity": 0.30708661417322836,
                },
                {
                    "duration": 0.12326383958333054,
                    "durationTicks": 142,
                    "midi": 77,
                    "name": "F5",
                    "ticks": 388560,
                    "time": 337.29153175,
                    "velocity": 0.2677165354330709,
                },
                {
                    "duration": 0.12326383958333054,
                    "durationTicks": 142,
                    "midi": 79,
                    "name": "G5",
                    "ticks": 388800,
                    "time": 337.499865,
                    "velocity": 0.30708661417322836,
                },
                {
                    "duration": 0.12326383958333054,
                    "durationTicks": 142,
                    "midi": 81,
                    "name": "A5",
                    "ticks": 389040,
                    "time": 337.70819825,
                    "velocity": 0.30708661417322836,
                },
                {
                    "duration": 0.12326383958333054,
                    "durationTicks": 142,
                    "midi": 83,
                    "name": "B5",
                    "ticks": 389280,
                    "time": 337.9165315,
                    "velocity": 0.3228346456692913,
                },
                {
                    "duration": 0.12326383958338738,
                    "durationTicks": 142,
                    "midi": 84,
                    "name": "C6",
                    "ticks": 389520,
                    "time": 338.12486475,
                    "velocity": 0.29133858267716534,
                },
                {
                    "duration": 0.8333330000000387,
                    "durationTicks": 960,
                    "midi": 78,
                    "name": "F#5",
                    "ticks": 389760,
                    "time": 338.333198,
                    "velocity": 0.2677165354330709,
                },
                {
                    "duration": 0.24739573437494755,
                    "durationTicks": 285,
                    "midi": 78,
                    "name": "F#5",
                    "ticks": 390720,
                    "time": 339.166531,
                    "velocity": 0.2992125984251969,
                },
                {
                    "duration": 0.2473957343750044,
                    "durationTicks": 285,
                    "midi": 80,
                    "name": "G#5",
                    "ticks": 391200,
                    "time": 339.5831975,
                    "velocity": 0.2755905511811024,
                },
                {
                    "duration": 0.8333329999999819,
                    "durationTicks": 960,
                    "midi": 81,
                    "name": "A5",
                    "ticks": 391680,
                    "time": 339.999864,
                    "velocity": 0.33858267716535434,
                },
                {
                    "duration": 1.2499995000000013,
                    "durationTicks": 1440,
                    "midi": 81,
                    "name": "A5",
                    "ticks": 392640,
                    "time": 340.833197,
                    "velocity": 0.30708661417322836,
                },
                {
                    "duration": 0.8333330000000387,
                    "durationTicks": 960,
                    "midi": 79,
                    "name": "G5",
                    "ticks": 394080,
                    "time": 342.0831965,
                    "velocity": 0.25196850393700787,
                },
                {
                    "duration": 0.8333329999999819,
                    "durationTicks": 960,
                    "midi": 79,
                    "name": "G5",
                    "ticks": 395040,
                    "time": 342.9165295,
                    "velocity": 0.29133858267716534,
                },
                {
                    "duration": 0.8333329999999819,
                    "durationTicks": 960,
                    "midi": 77,
                    "name": "F5",
                    "ticks": 396000,
                    "time": 343.7498625,
                    "velocity": 0.28346456692913385,
                },
                {
                    "duration": 0.41666650000001937,
                    "durationTicks": 480,
                    "midi": 77,
                    "name": "F5",
                    "ticks": 396960,
                    "time": 344.5831955,
                    "velocity": 0.2992125984251969,
                },
                {
                    "duration": 0.12326383958333054,
                    "durationTicks": 142,
                    "midi": 79,
                    "name": "G5",
                    "ticks": 397440,
                    "time": 344.999862,
                    "velocity": 0.2992125984251969,
                },
                {
                    "duration": 0.12326383958333054,
                    "durationTicks": 142,
                    "midi": 67,
                    "name": "G4",
                    "ticks": 397680,
                    "time": 345.20819525,
                    "velocity": 0.1889763779527559,
                },
                {
                    "duration": 0.12326383958338738,
                    "durationTicks": 142,
                    "midi": 64,
                    "name": "E4",
                    "ticks": 397920,
                    "time": 345.41652849999997,
                    "velocity": 0.2047244094488189,
                },
                {
                    "duration": 0.12326383958333054,
                    "durationTicks": 142,
                    "midi": 62,
                    "name": "D4",
                    "ticks": 398160,
                    "time": 345.62486175,
                    "velocity": 0.25196850393700787,
                },
                {
                    "duration": 0.12326383958333054,
                    "durationTicks": 142,
                    "midi": 61,
                    "name": "C#4",
                    "ticks": 398400,
                    "time": 345.833195,
                    "velocity": 0.25196850393700787,
                },
                {
                    "duration": 0.12326383958333054,
                    "durationTicks": 142,
                    "midi": 64,
                    "name": "E4",
                    "ticks": 398640,
                    "time": 346.04152825,
                    "velocity": 0.3228346456692913,
                },
                {
                    "duration": 0.12326383958333054,
                    "durationTicks": 142,
                    "midi": 69,
                    "name": "A4",
                    "ticks": 398880,
                    "time": 346.2498615,
                    "velocity": 0.28346456692913385,
                },
                {
                    "duration": 0.12326383958333054,
                    "durationTicks": 142,
                    "midi": 67,
                    "name": "G4",
                    "ticks": 399120,
                    "time": 346.45819475,
                    "velocity": 0.23622047244094488,
                },
                {
                    "duration": 0.12326383958338738,
                    "durationTicks": 142,
                    "midi": 65,
                    "name": "F4",
                    "ticks": 399360,
                    "time": 346.66652799999997,
                    "velocity": 0.2677165354330709,
                },
                {
                    "duration": 0.12326383958333054,
                    "durationTicks": 142,
                    "midi": 67,
                    "name": "G4",
                    "ticks": 399600,
                    "time": 346.87486125,
                    "velocity": 0.30708661417322836,
                },
                {
                    "duration": 0.12326383958333054,
                    "durationTicks": 142,
                    "midi": 69,
                    "name": "A4",
                    "ticks": 399840,
                    "time": 347.0831945,
                    "velocity": 0.30708661417322836,
                },
                {
                    "duration": 0.12326383958333054,
                    "durationTicks": 142,
                    "midi": 71,
                    "name": "B4",
                    "ticks": 400080,
                    "time": 347.29152775,
                    "velocity": 0.29133858267716534,
                },
                {
                    "duration": 0.12326383958333054,
                    "durationTicks": 142,
                    "midi": 73,
                    "name": "C#5",
                    "ticks": 400320,
                    "time": 347.499861,
                    "velocity": 0.30708661417322836,
                },
                {
                    "duration": 0.12326383958333054,
                    "durationTicks": 142,
                    "midi": 74,
                    "name": "D5",
                    "ticks": 400560,
                    "time": 347.70819425,
                    "velocity": 0.33070866141732286,
                },
                {
                    "duration": 0.12326383958338738,
                    "durationTicks": 142,
                    "midi": 76,
                    "name": "E5",
                    "ticks": 400800,
                    "time": 347.9165275,
                    "velocity": 0.31496062992125984,
                },
                {
                    "duration": 0.12326383958333054,
                    "durationTicks": 142,
                    "midi": 77,
                    "name": "F5",
                    "ticks": 401040,
                    "time": 348.12486075,
                    "velocity": 0.31496062992125984,
                },
                {
                    "duration": 0.12326383958333054,
                    "durationTicks": 142,
                    "midi": 77,
                    "name": "F5",
                    "ticks": 401280,
                    "time": 348.333194,
                    "velocity": 0.2992125984251969,
                },
                {
                    "duration": 0.12326383958333054,
                    "durationTicks": 142,
                    "midi": 56,
                    "name": "G#3",
                    "ticks": 401520,
                    "time": 348.54152725,
                    "velocity": 0.23622047244094488,
                },
                {
                    "duration": 0.12326383958333054,
                    "durationTicks": 142,
                    "midi": 65,
                    "name": "F4",
                    "ticks": 401520,
                    "time": 348.54152725,
                    "velocity": 0.23622047244094488,
                },
                {
                    "duration": 0.12326383958333054,
                    "durationTicks": 142,
                    "midi": 56,
                    "name": "G#3",
                    "ticks": 401760,
                    "time": 348.7498605,
                    "velocity": 0.31496062992125984,
                },
                {
                    "duration": 0.12326383958333054,
                    "durationTicks": 142,
                    "midi": 65,
                    "name": "F4",
                    "ticks": 401760,
                    "time": 348.7498605,
                    "velocity": 0.31496062992125984,
                },
                {
                    "duration": 0.12326383958333054,
                    "durationTicks": 142,
                    "midi": 56,
                    "name": "G#3",
                    "ticks": 402000,
                    "time": 348.95819375,
                    "velocity": 0.2992125984251969,
                },
                {
                    "duration": 0.12326383958333054,
                    "durationTicks": 142,
                    "midi": 65,
                    "name": "F4",
                    "ticks": 402000,
                    "time": 348.95819375,
                    "velocity": 0.2992125984251969,
                },
                {
                    "duration": 0.12326383958338738,
                    "durationTicks": 142,
                    "midi": 56,
                    "name": "G#3",
                    "ticks": 402240,
                    "time": 349.166527,
                    "velocity": 0.31496062992125984,
                },
                {
                    "duration": 0.12326383958338738,
                    "durationTicks": 142,
                    "midi": 65,
                    "name": "F4",
                    "ticks": 402240,
                    "time": 349.166527,
                    "velocity": 0.31496062992125984,
                },
                {
                    "duration": 0.12326383958333054,
                    "durationTicks": 142,
                    "midi": 56,
                    "name": "G#3",
                    "ticks": 402480,
                    "time": 349.37486025,
                    "velocity": 0.3700787401574803,
                },
                {
                    "duration": 0.12326383958333054,
                    "durationTicks": 142,
                    "midi": 65,
                    "name": "F4",
                    "ticks": 402480,
                    "time": 349.37486025,
                    "velocity": 0.3700787401574803,
                },
                {
                    "duration": 0.12326383958333054,
                    "durationTicks": 142,
                    "midi": 56,
                    "name": "G#3",
                    "ticks": 402720,
                    "time": 349.5831935,
                    "velocity": 0.3700787401574803,
                },
                {
                    "duration": 0.12326383958333054,
                    "durationTicks": 142,
                    "midi": 65,
                    "name": "F4",
                    "ticks": 402720,
                    "time": 349.5831935,
                    "velocity": 0.3700787401574803,
                },
                {
                    "duration": 0.12326383958333054,
                    "durationTicks": 142,
                    "midi": 56,
                    "name": "G#3",
                    "ticks": 402960,
                    "time": 349.79152675,
                    "velocity": 0.4015748031496063,
                },
                {
                    "duration": 0.12326383958333054,
                    "durationTicks": 142,
                    "midi": 65,
                    "name": "F4",
                    "ticks": 402960,
                    "time": 349.79152675,
                    "velocity": 0.4015748031496063,
                },
                {
                    "duration": 0.12326383958333054,
                    "durationTicks": 142,
                    "midi": 56,
                    "name": "G#3",
                    "ticks": 403200,
                    "time": 349.99986,
                    "velocity": 0.4015748031496063,
                },
                {
                    "duration": 0.12326383958333054,
                    "durationTicks": 142,
                    "midi": 65,
                    "name": "F4",
                    "ticks": 403200,
                    "time": 349.99986,
                    "velocity": 0.4015748031496063,
                },
                {
                    "duration": 0.12326383958333054,
                    "durationTicks": 142,
                    "midi": 56,
                    "name": "G#3",
                    "ticks": 403440,
                    "time": 350.20819325,
                    "velocity": 0.41732283464566927,
                },
                {
                    "duration": 0.12326383958333054,
                    "durationTicks": 142,
                    "midi": 65,
                    "name": "F4",
                    "ticks": 403440,
                    "time": 350.20819325,
                    "velocity": 0.41732283464566927,
                },
                {
                    "duration": 0.12326383958338738,
                    "durationTicks": 142,
                    "midi": 56,
                    "name": "G#3",
                    "ticks": 403680,
                    "time": 350.4165265,
                    "velocity": 0.4881889763779528,
                },
                {
                    "duration": 0.12326383958338738,
                    "durationTicks": 142,
                    "midi": 65,
                    "name": "F4",
                    "ticks": 403680,
                    "time": 350.4165265,
                    "velocity": 0.4881889763779528,
                },
                {
                    "duration": 0.12326383958333054,
                    "durationTicks": 142,
                    "midi": 56,
                    "name": "G#3",
                    "ticks": 403920,
                    "time": 350.62485975,
                    "velocity": 0.4409448818897638,
                },
                {
                    "duration": 0.12326383958333054,
                    "durationTicks": 142,
                    "midi": 65,
                    "name": "F4",
                    "ticks": 403920,
                    "time": 350.62485975,
                    "velocity": 0.4409448818897638,
                },
                {
                    "duration": 0.12326383958333054,
                    "durationTicks": 142,
                    "midi": 56,
                    "name": "G#3",
                    "ticks": 404160,
                    "time": 350.833193,
                    "velocity": 0.5118110236220472,
                },
                {
                    "duration": 0.12326383958333054,
                    "durationTicks": 142,
                    "midi": 65,
                    "name": "F4",
                    "ticks": 404160,
                    "time": 350.833193,
                    "velocity": 0.5118110236220472,
                },
                {
                    "duration": 0.12326383958333054,
                    "durationTicks": 142,
                    "midi": 56,
                    "name": "G#3",
                    "ticks": 404400,
                    "time": 351.04152625,
                    "velocity": 0.5590551181102362,
                },
                {
                    "duration": 0.12326383958333054,
                    "durationTicks": 142,
                    "midi": 65,
                    "name": "F4",
                    "ticks": 404400,
                    "time": 351.04152625,
                    "velocity": 0.5590551181102362,
                },
                {
                    "duration": 0.12326383958333054,
                    "durationTicks": 142,
                    "midi": 56,
                    "name": "G#3",
                    "ticks": 404640,
                    "time": 351.2498595,
                    "velocity": 0.5511811023622047,
                },
                {
                    "duration": 0.12326383958333054,
                    "durationTicks": 142,
                    "midi": 65,
                    "name": "F4",
                    "ticks": 404640,
                    "time": 351.2498595,
                    "velocity": 0.5511811023622047,
                },
                {
                    "duration": 0.12326383958333054,
                    "durationTicks": 142,
                    "midi": 56,
                    "name": "G#3",
                    "ticks": 404880,
                    "time": 351.45819275,
                    "velocity": 0.5826771653543307,
                },
                {
                    "duration": 0.12326383958333054,
                    "durationTicks": 142,
                    "midi": 65,
                    "name": "F4",
                    "ticks": 404880,
                    "time": 351.45819275,
                    "velocity": 0.5826771653543307,
                },
                {
                    "duration": 0.12326383958338738,
                    "durationTicks": 142,
                    "midi": 56,
                    "name": "G#3",
                    "ticks": 405120,
                    "time": 351.666526,
                    "velocity": 0.5590551181102362,
                },
                {
                    "duration": 0.12326383958338738,
                    "durationTicks": 142,
                    "midi": 65,
                    "name": "F4",
                    "ticks": 405120,
                    "time": 351.666526,
                    "velocity": 0.5590551181102362,
                },
                {
                    "duration": 0.12326383958333054,
                    "durationTicks": 142,
                    "midi": 56,
                    "name": "G#3",
                    "ticks": 405360,
                    "time": 351.87485925,
                    "velocity": 0.5905511811023622,
                },
                {
                    "duration": 0.12326383958333054,
                    "durationTicks": 142,
                    "midi": 65,
                    "name": "F4",
                    "ticks": 405360,
                    "time": 351.87485925,
                    "velocity": 0.5905511811023622,
                },
                {
                    "duration": 0.12326383958333054,
                    "durationTicks": 142,
                    "midi": 56,
                    "name": "G#3",
                    "ticks": 405600,
                    "time": 352.0831925,
                    "velocity": 0.6299212598425197,
                },
                {
                    "duration": 0.12326383958333054,
                    "durationTicks": 142,
                    "midi": 65,
                    "name": "F4",
                    "ticks": 405600,
                    "time": 352.0831925,
                    "velocity": 0.6299212598425197,
                },
                {
                    "duration": 0.12326383958333054,
                    "durationTicks": 142,
                    "midi": 56,
                    "name": "G#3",
                    "ticks": 405840,
                    "time": 352.29152575,
                    "velocity": 0.6456692913385826,
                },
                {
                    "duration": 0.12326383958333054,
                    "durationTicks": 142,
                    "midi": 65,
                    "name": "F4",
                    "ticks": 405840,
                    "time": 352.29152575,
                    "velocity": 0.6456692913385826,
                },
                {
                    "duration": 0.12326383958333054,
                    "durationTicks": 142,
                    "midi": 56,
                    "name": "G#3",
                    "ticks": 406080,
                    "time": 352.499859,
                    "velocity": 0.6692913385826772,
                },
                {
                    "duration": 0.12326383958333054,
                    "durationTicks": 142,
                    "midi": 65,
                    "name": "F4",
                    "ticks": 406080,
                    "time": 352.499859,
                    "velocity": 0.6692913385826772,
                },
                {
                    "duration": 0.12326383958338738,
                    "durationTicks": 142,
                    "midi": 56,
                    "name": "G#3",
                    "ticks": 406320,
                    "time": 352.70819224999997,
                    "velocity": 0.7165354330708661,
                },
                {
                    "duration": 0.12326383958338738,
                    "durationTicks": 142,
                    "midi": 65,
                    "name": "F4",
                    "ticks": 406320,
                    "time": 352.70819224999997,
                    "velocity": 0.7165354330708661,
                },
                {
                    "duration": 0.12326383958333054,
                    "durationTicks": 142,
                    "midi": 56,
                    "name": "G#3",
                    "ticks": 406560,
                    "time": 352.9165255,
                    "velocity": 0.7007874015748031,
                },
                {
                    "duration": 0.12326383958333054,
                    "durationTicks": 142,
                    "midi": 65,
                    "name": "F4",
                    "ticks": 406560,
                    "time": 352.9165255,
                    "velocity": 0.7007874015748031,
                },
                {
                    "duration": 0.12326383958333054,
                    "durationTicks": 142,
                    "midi": 56,
                    "name": "G#3",
                    "ticks": 406800,
                    "time": 353.12485875,
                    "velocity": 0.7086614173228346,
                },
                {
                    "duration": 0.12326383958333054,
                    "durationTicks": 142,
                    "midi": 65,
                    "name": "F4",
                    "ticks": 406800,
                    "time": 353.12485875,
                    "velocity": 0.7086614173228346,
                },
                {
                    "duration": 0.12326383958333054,
                    "durationTicks": 142,
                    "midi": 56,
                    "name": "G#3",
                    "ticks": 407040,
                    "time": 353.333192,
                    "velocity": 0.7952755905511811,
                },
                {
                    "duration": 0.12326383958333054,
                    "durationTicks": 142,
                    "midi": 65,
                    "name": "F4",
                    "ticks": 407040,
                    "time": 353.333192,
                    "velocity": 0.7952755905511811,
                },
                {
                    "duration": 0.12326383958333054,
                    "durationTicks": 142,
                    "midi": 71,
                    "name": "B4",
                    "ticks": 407280,
                    "time": 353.54152525,
                    "velocity": 0.8661417322834646,
                },
                {
                    "duration": 0.12326383958333054,
                    "durationTicks": 142,
                    "midi": 71,
                    "name": "B4",
                    "ticks": 407520,
                    "time": 353.7498585,
                    "velocity": 0.8031496062992126,
                },
                {
                    "duration": 0.12326383958338738,
                    "durationTicks": 142,
                    "midi": 71,
                    "name": "B4",
                    "ticks": 407760,
                    "time": 353.95819174999997,
                    "velocity": 0.8031496062992126,
                },
                {
                    "duration": 0.12326383958333054,
                    "durationTicks": 142,
                    "midi": 71,
                    "name": "B4",
                    "ticks": 408000,
                    "time": 354.166525,
                    "velocity": 0.8188976377952756,
                },
                {
                    "duration": 0.12326383958333054,
                    "durationTicks": 142,
                    "midi": 71,
                    "name": "B4",
                    "ticks": 408240,
                    "time": 354.37485825,
                    "velocity": 0.84251968503937,
                },
                {
                    "duration": 0.12326383958333054,
                    "durationTicks": 142,
                    "midi": 76,
                    "name": "E5",
                    "ticks": 408480,
                    "time": 354.5831915,
                    "velocity": 0.984251968503937,
                },
                {
                    "duration": 0.12326383958333054,
                    "durationTicks": 142,
                    "midi": 74,
                    "name": "D5",
                    "ticks": 408720,
                    "time": 354.79152475,
                    "velocity": 0.8661417322834646,
                },
                {
                    "duration": 0.8333329999999819,
                    "durationTicks": 960,
                    "midi": 64,
                    "name": "E4",
                    "ticks": 408960,
                    "time": 354.999858,
                    "velocity": 0.8503937007874016,
                },
                {
                    "duration": 0.8333329999999819,
                    "durationTicks": 960,
                    "midi": 72,
                    "name": "C5",
                    "ticks": 408960,
                    "time": 354.999858,
                    "velocity": 0.8503937007874016,
                },
                {
                    "duration": 0.2473957343750044,
                    "durationTicks": 285,
                    "midi": 64,
                    "name": "E4",
                    "ticks": 409920,
                    "time": 355.833191,
                    "velocity": 0.8661417322834646,
                },
                {
                    "duration": 0.2473957343750044,
                    "durationTicks": 285,
                    "midi": 72,
                    "name": "C5",
                    "ticks": 409920,
                    "time": 355.833191,
                    "velocity": 0.8661417322834646,
                },
                {
                    "duration": 0.2473957343750044,
                    "durationTicks": 285,
                    "midi": 64,
                    "name": "E4",
                    "ticks": 410400,
                    "time": 356.2498575,
                    "velocity": 0.8818897637795275,
                },
                {
                    "duration": 0.2473957343750044,
                    "durationTicks": 285,
                    "midi": 72,
                    "name": "C5",
                    "ticks": 410400,
                    "time": 356.2498575,
                    "velocity": 0.8818897637795275,
                },
                {
                    "duration": 0.49739563437503875,
                    "durationTicks": 573,
                    "midi": 64,
                    "name": "E4",
                    "ticks": 410880,
                    "time": 356.666524,
                    "velocity": 0.8188976377952756,
                },
                {
                    "duration": 0.49739563437503875,
                    "durationTicks": 573,
                    "midi": 71,
                    "name": "B4",
                    "ticks": 410880,
                    "time": 356.666524,
                    "velocity": 0.8188976377952756,
                },
                {
                    "duration": 0.4713539781249665,
                    "durationTicks": 543,
                    "midi": 64,
                    "name": "E4",
                    "ticks": 411840,
                    "time": 357.499857,
                    "velocity": 0.8582677165354331,
                },
                {
                    "duration": 0.4713539781249665,
                    "durationTicks": 543,
                    "midi": 71,
                    "name": "B4",
                    "ticks": 411840,
                    "time": 357.499857,
                    "velocity": 0.8582677165354331,
                },
                {
                    "duration": 0.8333329999999819,
                    "durationTicks": 960,
                    "midi": 71,
                    "name": "B4",
                    "ticks": 412800,
                    "time": 358.33319,
                    "velocity": 1,
                },
                {
                    "duration": 0.8333329999999819,
                    "durationTicks": 960,
                    "midi": 80,
                    "name": "G#5",
                    "ticks": 412800,
                    "time": 358.33319,
                    "velocity": 1,
                },
                {
                    "duration": 0.2473957343750044,
                    "durationTicks": 285,
                    "midi": 71,
                    "name": "B4",
                    "ticks": 413760,
                    "time": 359.166523,
                    "velocity": 0.8976377952755905,
                },
                {
                    "duration": 0.2473957343750044,
                    "durationTicks": 285,
                    "midi": 80,
                    "name": "G#5",
                    "ticks": 413760,
                    "time": 359.166523,
                    "velocity": 0.8976377952755905,
                },
                {
                    "duration": 0.2473957343750044,
                    "durationTicks": 285,
                    "midi": 71,
                    "name": "B4",
                    "ticks": 414240,
                    "time": 359.5831895,
                    "velocity": 0.889763779527559,
                },
                {
                    "duration": 0.2473957343750044,
                    "durationTicks": 285,
                    "midi": 80,
                    "name": "G#5",
                    "ticks": 414240,
                    "time": 359.5831895,
                    "velocity": 0.889763779527559,
                },
                {
                    "duration": 0.4973956343749819,
                    "durationTicks": 573,
                    "midi": 72,
                    "name": "C5",
                    "ticks": 414720,
                    "time": 359.999856,
                    "velocity": 0.9606299212598425,
                },
                {
                    "duration": 0.4973956343749819,
                    "durationTicks": 573,
                    "midi": 81,
                    "name": "A5",
                    "ticks": 414720,
                    "time": 359.999856,
                    "velocity": 0.9606299212598425,
                },
                {
                    "duration": 0.47135397812502333,
                    "durationTicks": 543,
                    "midi": 72,
                    "name": "C5",
                    "ticks": 415680,
                    "time": 360.833189,
                    "velocity": 0.9133858267716536,
                },
                {
                    "duration": 0.47135397812502333,
                    "durationTicks": 543,
                    "midi": 81,
                    "name": "A5",
                    "ticks": 415680,
                    "time": 360.833189,
                    "velocity": 0.9133858267716536,
                },
                {
                    "duration": 0.8333329999999819,
                    "durationTicks": 960,
                    "midi": 72,
                    "name": "C5",
                    "ticks": 416640,
                    "time": 361.666522,
                    "velocity": 0.889763779527559,
                },
                {
                    "duration": 0.8333329999999819,
                    "durationTicks": 960,
                    "midi": 81,
                    "name": "A5",
                    "ticks": 416640,
                    "time": 361.666522,
                    "velocity": 0.889763779527559,
                },
                {
                    "duration": 0.2473957343750044,
                    "durationTicks": 285,
                    "midi": 72,
                    "name": "C5",
                    "ticks": 417600,
                    "time": 362.49985499999997,
                    "velocity": 0.8661417322834646,
                },
                {
                    "duration": 0.2473957343750044,
                    "durationTicks": 285,
                    "midi": 81,
                    "name": "A5",
                    "ticks": 417600,
                    "time": 362.49985499999997,
                    "velocity": 0.8661417322834646,
                },
                {
                    "duration": 0.2473957343750044,
                    "durationTicks": 285,
                    "midi": 72,
                    "name": "C5",
                    "ticks": 418080,
                    "time": 362.9165215,
                    "velocity": 0.8346456692913385,
                },
                {
                    "duration": 0.2473957343750044,
                    "durationTicks": 285,
                    "midi": 81,
                    "name": "A5",
                    "ticks": 418080,
                    "time": 362.9165215,
                    "velocity": 0.8346456692913385,
                },
                {
                    "duration": 0.5078122968749881,
                    "durationTicks": 585,
                    "midi": 74,
                    "name": "D5",
                    "ticks": 418560,
                    "time": 363.333188,
                    "velocity": 0.9763779527559056,
                },
                {
                    "duration": 0.5078122968749881,
                    "durationTicks": 585,
                    "midi": 83,
                    "name": "B5",
                    "ticks": 418560,
                    "time": 363.333188,
                    "velocity": 0.9763779527559056,
                },
                {
                    "duration": 0.47135397812502333,
                    "durationTicks": 543,
                    "midi": 72,
                    "name": "C5",
                    "ticks": 419520,
                    "time": 364.166521,
                    "velocity": 0.7952755905511811,
                },
                {
                    "duration": 0.47135397812502333,
                    "durationTicks": 543,
                    "midi": 81,
                    "name": "A5",
                    "ticks": 419520,
                    "time": 364.166521,
                    "velocity": 0.7952755905511811,
                },
                {
                    "duration": 0.8333330000000387,
                    "durationTicks": 960,
                    "midi": 71,
                    "name": "B4",
                    "ticks": 420480,
                    "time": 364.99985399999997,
                    "velocity": 0.8267716535433071,
                },
                {
                    "duration": 0.8333330000000387,
                    "durationTicks": 960,
                    "midi": 80,
                    "name": "G#5",
                    "ticks": 420480,
                    "time": 364.99985399999997,
                    "velocity": 0.8267716535433071,
                },
                {
                    "duration": 0.2473957343750044,
                    "durationTicks": 285,
                    "midi": 69,
                    "name": "A4",
                    "ticks": 421440,
                    "time": 365.833187,
                    "velocity": 0.8188976377952756,
                },
                {
                    "duration": 0.2473957343750044,
                    "durationTicks": 285,
                    "midi": 78,
                    "name": "F#5",
                    "ticks": 421440,
                    "time": 365.833187,
                    "velocity": 0.8188976377952756,
                },
                {
                    "duration": 0.2473957343750044,
                    "durationTicks": 285,
                    "midi": 71,
                    "name": "B4",
                    "ticks": 421920,
                    "time": 366.2498535,
                    "velocity": 0.8976377952755905,
                },
                {
                    "duration": 0.2473957343750044,
                    "durationTicks": 285,
                    "midi": 80,
                    "name": "G#5",
                    "ticks": 421920,
                    "time": 366.2498535,
                    "velocity": 0.8976377952755905,
                },
                {
                    "duration": 0.8333329999999819,
                    "durationTicks": 960,
                    "midi": 72,
                    "name": "C5",
                    "ticks": 422400,
                    "time": 366.66652,
                    "velocity": 0.8976377952755905,
                },
                {
                    "duration": 0.8333329999999819,
                    "durationTicks": 960,
                    "midi": 81,
                    "name": "A5",
                    "ticks": 422400,
                    "time": 366.66652,
                    "velocity": 0.8976377952755905,
                },
                {
                    "duration": 0.12326383958333054,
                    "durationTicks": 142,
                    "midi": 62,
                    "name": "D4",
                    "ticks": 428160,
                    "time": 371.666518,
                    "velocity": 0.30708661417322836,
                },
                {
                    "duration": 0.12326383958333054,
                    "durationTicks": 142,
                    "midi": 59,
                    "name": "B3",
                    "ticks": 428400,
                    "time": 371.87485125,
                    "velocity": 0.33858267716535434,
                },
                {
                    "duration": 0.12326383958333054,
                    "durationTicks": 142,
                    "midi": 61,
                    "name": "C#4",
                    "ticks": 428640,
                    "time": 372.0831845,
                    "velocity": 0.41732283464566927,
                },
                {
                    "duration": 0.12326383958338738,
                    "durationTicks": 142,
                    "midi": 62,
                    "name": "D4",
                    "ticks": 428880,
                    "time": 372.29151774999997,
                    "velocity": 0.4015748031496063,
                },
                {
                    "duration": 0.12326383958333054,
                    "durationTicks": 142,
                    "midi": 64,
                    "name": "E4",
                    "ticks": 429120,
                    "time": 372.499851,
                    "velocity": 0.3700787401574803,
                },
                {
                    "duration": 0.12326383958333054,
                    "durationTicks": 142,
                    "midi": 62,
                    "name": "D4",
                    "ticks": 429360,
                    "time": 372.70818425,
                    "velocity": 0.3700787401574803,
                },
                {
                    "duration": 0.12326383958333054,
                    "durationTicks": 142,
                    "midi": 61,
                    "name": "C#4",
                    "ticks": 429600,
                    "time": 372.9165175,
                    "velocity": 0.30708661417322836,
                },
                {
                    "duration": 0.12326383958333054,
                    "durationTicks": 142,
                    "midi": 59,
                    "name": "B3",
                    "ticks": 429840,
                    "time": 373.12485075,
                    "velocity": 0.3700787401574803,
                },
                {
                    "duration": 3.3333319999999844,
                    "durationTicks": 3840,
                    "midi": 57,
                    "name": "A3",
                    "ticks": 430080,
                    "time": 373.333184,
                    "velocity": 0.3858267716535433,
                },
                {
                    "duration": 2.4999990000000025,
                    "durationTicks": 2880,
                    "midi": 59,
                    "name": "B3",
                    "ticks": 433920,
                    "time": 376.666516,
                    "velocity": 0.4094488188976378,
                },
                {
                    "duration": 0.8489579937499911,
                    "durationTicks": 978,
                    "midi": 57,
                    "name": "A3",
                    "ticks": 436800,
                    "time": 379.166515,
                    "velocity": 0.48031496062992124,
                },
                {
                    "duration": 0.8489579937499911,
                    "durationTicks": 978,
                    "midi": 56,
                    "name": "G#3",
                    "ticks": 437760,
                    "time": 379.999848,
                    "velocity": 0.48031496062992124,
                },
                {
                    "duration": 0.7907982947916707,
                    "durationTicks": 911,
                    "midi": 57,
                    "name": "A3",
                    "ticks": 438720,
                    "time": 380.83318099999997,
                    "velocity": 0.5511811023622047,
                },
                {
                    "duration": 0.8489579937499911,
                    "durationTicks": 978,
                    "midi": 57,
                    "name": "A3",
                    "ticks": 439680,
                    "time": 381.666514,
                    "velocity": 0.5748031496062992,
                },
                {
                    "duration": 0.8489579937499911,
                    "durationTicks": 978,
                    "midi": 55,
                    "name": "G3",
                    "ticks": 440640,
                    "time": 382.499847,
                    "velocity": 0.48031496062992124,
                },
                {
                    "duration": 0.848957993750048,
                    "durationTicks": 978,
                    "midi": 57,
                    "name": "A3",
                    "ticks": 441600,
                    "time": 383.33317999999997,
                    "velocity": 0.5118110236220472,
                },
                {
                    "duration": 0.7907982947916707,
                    "durationTicks": 911,
                    "midi": 59,
                    "name": "B3",
                    "ticks": 442560,
                    "time": 384.166513,
                    "velocity": 0.5354330708661418,
                },
                {
                    "duration": 0.8489579937499911,
                    "durationTicks": 978,
                    "midi": 59,
                    "name": "B3",
                    "ticks": 443520,
                    "time": 384.999846,
                    "velocity": 0.5118110236220472,
                },
                {
                    "duration": 0.4227428864583658,
                    "durationTicks": 487,
                    "midi": 57,
                    "name": "A3",
                    "ticks": 444480,
                    "time": 385.833179,
                    "velocity": 0.5118110236220472,
                },
                {
                    "duration": 0.3932290093750339,
                    "durationTicks": 453,
                    "midi": 55,
                    "name": "G3",
                    "ticks": 444960,
                    "time": 386.2498455,
                    "velocity": 0.6535433070866141,
                },
                {
                    "duration": 0.3932290093750339,
                    "durationTicks": 453,
                    "midi": 67,
                    "name": "G4",
                    "ticks": 444960,
                    "time": 386.2498455,
                    "velocity": 0.6535433070866141,
                },
                {
                    "duration": 0.8333329999999819,
                    "durationTicks": 960,
                    "midi": 55,
                    "name": "G3",
                    "ticks": 445440,
                    "time": 386.666512,
                    "velocity": 0.4251968503937008,
                },
                {
                    "duration": 0.8333329999999819,
                    "durationTicks": 960,
                    "midi": 67,
                    "name": "G4",
                    "ticks": 445440,
                    "time": 386.666512,
                    "velocity": 0.4251968503937008,
                },
                {
                    "duration": 2.916665500000022,
                    "durationTicks": 3360,
                    "midi": 55,
                    "name": "G3",
                    "ticks": 446400,
                    "time": 387.499845,
                    "velocity": 0.4566929133858268,
                },
                {
                    "duration": 2.916665500000022,
                    "durationTicks": 3360,
                    "midi": 67,
                    "name": "G4",
                    "ticks": 446400,
                    "time": 387.499845,
                    "velocity": 0.4566929133858268,
                },
                {
                    "duration": 0.4166664999999625,
                    "durationTicks": 480,
                    "midi": 57,
                    "name": "A3",
                    "ticks": 449760,
                    "time": 390.4165105,
                    "velocity": 0.6062992125984252,
                },
                {
                    "duration": 0.4166664999999625,
                    "durationTicks": 480,
                    "midi": 67,
                    "name": "G4",
                    "ticks": 449760,
                    "time": 390.4165105,
                    "velocity": 0.6062992125984252,
                },
                {
                    "duration": 1.6666660000000206,
                    "durationTicks": 1920,
                    "midi": 57,
                    "name": "A3",
                    "ticks": 450240,
                    "time": 390.833177,
                    "velocity": 0.5905511811023622,
                },
                {
                    "duration": 1.6666660000000206,
                    "durationTicks": 1920,
                    "midi": 66,
                    "name": "F#4",
                    "ticks": 450240,
                    "time": 390.833177,
                    "velocity": 0.5905511811023622,
                },
                {
                    "duration": 0.8333329999999819,
                    "durationTicks": 960,
                    "midi": 57,
                    "name": "A3",
                    "ticks": 452160,
                    "time": 392.499843,
                    "velocity": 0.6456692913385826,
                },
                {
                    "duration": 0.848957993750048,
                    "durationTicks": 978,
                    "midi": 57,
                    "name": "A3",
                    "ticks": 453120,
                    "time": 393.333176,
                    "velocity": 0.4566929133858268,
                },
                {
                    "duration": 0.8489579937499911,
                    "durationTicks": 978,
                    "midi": 55,
                    "name": "G3",
                    "ticks": 454080,
                    "time": 394.166509,
                    "velocity": 0.4645669291338583,
                },
                {
                    "duration": 0.8489579937499911,
                    "durationTicks": 978,
                    "midi": 57,
                    "name": "A3",
                    "ticks": 455040,
                    "time": 394.999842,
                    "velocity": 0.4881889763779528,
                },
                {
                    "duration": 0.7907982947916707,
                    "durationTicks": 911,
                    "midi": 59,
                    "name": "B3",
                    "ticks": 456000,
                    "time": 395.833175,
                    "velocity": 0.4881889763779528,
                },
                {
                    "duration": 1.2725689354166434,
                    "durationTicks": 1466,
                    "midi": 57,
                    "name": "A3",
                    "ticks": 456960,
                    "time": 396.666508,
                    "velocity": 0.48031496062992124,
                },
                {
                    "duration": 0.42274288645830893,
                    "durationTicks": 487,
                    "midi": 55,
                    "name": "G3",
                    "ticks": 458400,
                    "time": 397.9165075,
                    "velocity": 0.44881889763779526,
                },
                {
                    "duration": 0.8489579937499911,
                    "durationTicks": 978,
                    "midi": 57,
                    "name": "A3",
                    "ticks": 458880,
                    "time": 398.333174,
                    "velocity": 0.4566929133858268,
                },
                {
                    "duration": 0.7907982947916707,
                    "durationTicks": 911,
                    "midi": 59,
                    "name": "B3",
                    "ticks": 459840,
                    "time": 399.16650699999997,
                    "velocity": 0.47244094488188976,
                },
                {
                    "duration": 1.2725689354166434,
                    "durationTicks": 1466,
                    "midi": 57,
                    "name": "A3",
                    "ticks": 460800,
                    "time": 399.99984,
                    "velocity": 0.4566929133858268,
                },
                {
                    "duration": 0.42274288645830893,
                    "durationTicks": 487,
                    "midi": 55,
                    "name": "G3",
                    "ticks": 462240,
                    "time": 401.2498395,
                    "velocity": 0.41732283464566927,
                },
                {
                    "duration": 0.848957993750048,
                    "durationTicks": 978,
                    "midi": 57,
                    "name": "A3",
                    "ticks": 462720,
                    "time": 401.66650599999997,
                    "velocity": 0.4645669291338583,
                },
                {
                    "duration": 0.7907982947916707,
                    "durationTicks": 911,
                    "midi": 59,
                    "name": "B3",
                    "ticks": 463680,
                    "time": 402.499839,
                    "velocity": 0.4881889763779528,
                },
                {
                    "duration": 1.6987840427083256,
                    "durationTicks": 1957,
                    "midi": 61,
                    "name": "C#4",
                    "ticks": 464640,
                    "time": 403.333172,
                    "velocity": 0.2755905511811024,
                },
                {
                    "duration": 1.6987840427083256,
                    "durationTicks": 1957,
                    "midi": 62,
                    "name": "D4",
                    "ticks": 466560,
                    "time": 404.999838,
                    "velocity": 0.28346456692913385,
                },
                {
                    "duration": 1.6987840427083825,
                    "durationTicks": 1957,
                    "midi": 61,
                    "name": "C#4",
                    "ticks": 468480,
                    "time": 406.666504,
                    "velocity": 0.28346456692913385,
                },
                {
                    "duration": 1.5815965895833415,
                    "durationTicks": 1822,
                    "midi": 62,
                    "name": "D4",
                    "ticks": 470400,
                    "time": 408.33317,
                    "velocity": 0.28346456692913385,
                },
                {
                    "duration": 0.4166664999999625,
                    "durationTicks": 480,
                    "midi": 62,
                    "name": "D4",
                    "ticks": 472320,
                    "time": 409.999836,
                    "velocity": 0.905511811023622,
                },
                {
                    "duration": 0.41666650000001937,
                    "durationTicks": 480,
                    "midi": 62,
                    "name": "D4",
                    "ticks": 473280,
                    "time": 410.833169,
                    "velocity": 0.8188976377952756,
                },
                {
                    "duration": 0.33854153125002995,
                    "durationTicks": 390,
                    "midi": 71,
                    "name": "B4",
                    "ticks": 473370,
                    "time": 410.91129396875,
                    "velocity": 0.8188976377952756,
                },
                {
                    "duration": 0.2604165625000405,
                    "durationTicks": 300,
                    "midi": 79,
                    "name": "G5",
                    "ticks": 473460,
                    "time": 410.9894189375,
                    "velocity": 0.8188976377952756,
                },
                {
                    "duration": 0.8333330000000387,
                    "durationTicks": 960,
                    "midi": 64,
                    "name": "E4",
                    "ticks": 474240,
                    "time": 411.666502,
                    "velocity": 0.7952755905511811,
                },
                {
                    "duration": 0.8333330000000387,
                    "durationTicks": 960,
                    "midi": 72,
                    "name": "C5",
                    "ticks": 474240,
                    "time": 411.666502,
                    "velocity": 0.7952755905511811,
                },
                {
                    "duration": 0.8333330000000387,
                    "durationTicks": 960,
                    "midi": 76,
                    "name": "E5",
                    "ticks": 474240,
                    "time": 411.666502,
                    "velocity": 0.7952755905511811,
                },
                {
                    "duration": 0.8333329999999819,
                    "durationTicks": 960,
                    "midi": 62,
                    "name": "D4",
                    "ticks": 476160,
                    "time": 413.333168,
                    "velocity": 0.33858267716535434,
                },
                {
                    "duration": 0.2473957343750044,
                    "durationTicks": 285,
                    "midi": 62,
                    "name": "D4",
                    "ticks": 477120,
                    "time": 414.166501,
                    "velocity": 0.3700787401574803,
                },
                {
                    "duration": 0.2473957343750044,
                    "durationTicks": 285,
                    "midi": 62,
                    "name": "D4",
                    "ticks": 477600,
                    "time": 414.5831675,
                    "velocity": 0.3858267716535433,
                },
                {
                    "duration": 0.4166664999999625,
                    "durationTicks": 480,
                    "midi": 60,
                    "name": "C4",
                    "ticks": 478080,
                    "time": 414.999834,
                    "velocity": 0.36220472440944884,
                },
                {
                    "duration": 0.41666650000001937,
                    "durationTicks": 480,
                    "midi": 62,
                    "name": "D4",
                    "ticks": 480000,
                    "time": 416.6665,
                    "velocity": 0.7874015748031497,
                },
                {
                    "duration": 0.41666650000001937,
                    "durationTicks": 480,
                    "midi": 71,
                    "name": "B4",
                    "ticks": 480000,
                    "time": 416.6665,
                    "velocity": 0.7874015748031497,
                },
                {
                    "duration": 0.41666650000001937,
                    "durationTicks": 480,
                    "midi": 62,
                    "name": "D4",
                    "ticks": 480960,
                    "time": 417.49983299999997,
                    "velocity": 0.7874015748031497,
                },
                {
                    "duration": 0.3385415312499731,
                    "durationTicks": 390,
                    "midi": 71,
                    "name": "B4",
                    "ticks": 481050,
                    "time": 417.57795796875,
                    "velocity": 0.7874015748031497,
                },
                {
                    "duration": 0.2604165624999837,
                    "durationTicks": 300,
                    "midi": 79,
                    "name": "G5",
                    "ticks": 481140,
                    "time": 417.6560829375,
                    "velocity": 0.7874015748031497,
                },
                {
                    "duration": 0.8333329999999819,
                    "durationTicks": 960,
                    "midi": 64,
                    "name": "E4",
                    "ticks": 481920,
                    "time": 418.333166,
                    "velocity": 0.8188976377952756,
                },
                {
                    "duration": 0.8333329999999819,
                    "durationTicks": 960,
                    "midi": 72,
                    "name": "C5",
                    "ticks": 481920,
                    "time": 418.333166,
                    "velocity": 0.8188976377952756,
                },
                {
                    "duration": 0.8333329999999819,
                    "durationTicks": 960,
                    "midi": 76,
                    "name": "E5",
                    "ticks": 481920,
                    "time": 418.333166,
                    "velocity": 0.8188976377952756,
                },
                {
                    "duration": 0.8333330000000387,
                    "durationTicks": 960,
                    "midi": 62,
                    "name": "D4",
                    "ticks": 483840,
                    "time": 419.99983199999997,
                    "velocity": 0.36220472440944884,
                },
                {
                    "duration": 0.2473957343750044,
                    "durationTicks": 285,
                    "midi": 62,
                    "name": "D4",
                    "ticks": 484800,
                    "time": 420.833165,
                    "velocity": 0.41732283464566927,
                },
                {
                    "duration": 0.2473957343750044,
                    "durationTicks": 285,
                    "midi": 62,
                    "name": "D4",
                    "ticks": 485280,
                    "time": 421.24983149999997,
                    "velocity": 0.3858267716535433,
                },
                {
                    "duration": 0.8333330000000387,
                    "durationTicks": 960,
                    "midi": 64,
                    "name": "E4",
                    "ticks": 526080,
                    "time": 456.66648399999997,
                    "velocity": 0.4251968503937008,
                },
                {
                    "duration": 0.2473957343750044,
                    "durationTicks": 285,
                    "midi": 66,
                    "name": "F#4",
                    "ticks": 527040,
                    "time": 457.499817,
                    "velocity": 0.5275590551181102,
                },
                {
                    "duration": 0.2473957343750044,
                    "durationTicks": 285,
                    "midi": 68,
                    "name": "G#4",
                    "ticks": 527520,
                    "time": 457.91648349999997,
                    "velocity": 0.5433070866141733,
                },
                {
                    "duration": 0.967741999999987,
                    "durationTicks": 960,
                    "midi": 57,
                    "name": "A3",
                    "ticks": 528000,
                    "time": 458.33315,
                    "velocity": 0.8188976377952756,
                },
                {
                    "duration": 0.967741999999987,
                    "durationTicks": 960,
                    "midi": 69,
                    "name": "A4",
                    "ticks": 528000,
                    "time": 458.33315,
                    "velocity": 0.8188976377952756,
                },
            ],
        },
        {
            "channel": 11,
            "controlChanges": {
                "7": [
                    {"number": 7, "ticks": 0, "time": 0, "value": 0.6614173228346457},
                    {
                        "number": 7,
                        "ticks": 278718,
                        "time": 241.94261155625,
                        "value": 0.6614173228346457,
                    },
                    {
                        "number": 7,
                        "ticks": 364800,
                        "time": 316.66654,
                        "value": 0.6614173228346457,
                    },
                    {
                        "number": 7,
                        "ticks": 464640,
                        "time": 403.333172,
                        "value": 0.6614173228346457,
                    },
                    {
                        "number": 7,
                        "ticks": 528000,
                        "time": 458.33315,
                        "value": 0.6614173228346457,
                    },
                ],
                "10": [
                    {"number": 10, "ticks": 0, "time": 0, "value": 0.8267716535433071},
                    {
                        "number": 10,
                        "ticks": 278718,
                        "time": 241.94261155625,
                        "value": 0.8267716535433071,
                    },
                    {
                        "number": 10,
                        "ticks": 364800,
                        "time": 316.66654,
                        "value": 0.8267716535433071,
                    },
                    {
                        "number": 10,
                        "ticks": 464640,
                        "time": 403.333172,
                        "value": 0.8267716535433071,
                    },
                    {
                        "number": 10,
                        "ticks": 528000,
                        "time": 458.33315,
                        "value": 0.8267716535433071,
                    },
                ],
                "64": [{"number": 64, "ticks": 0, "time": 0, "value": 0}],
                "91": [
                    {"number": 91, "ticks": 0, "time": 0, "value": 0.5669291338582677},
                    {
                        "number": 91,
                        "ticks": 278718,
                        "time": 241.94261155625,
                        "value": 0.4645669291338583,
                    },
                    {
                        "number": 91,
                        "ticks": 364800,
                        "time": 316.66654,
                        "value": 0.4645669291338583,
                    },
                    {
                        "number": 91,
                        "ticks": 464640,
                        "time": 403.333172,
                        "value": 0.4645669291338583,
                    },
                    {
                        "number": 91,
                        "ticks": 528000,
                        "time": 458.33315,
                        "value": 0.4645669291338583,
                    },
                ],
                "121": [{"number": 121, "ticks": 0, "time": 0, "value": 0}],
            },
            "pitchBends": [],
            "instrument": {
                "family": "ensemble",
                "number": 48,
                "name": "string ensemble 1",
            },
            "name": "",
            "notes": [
                {
                    "duration": 0.8333330000000001,
                    "durationTicks": 960,
                    "midi": 33,
                    "name": "A1",
                    "ticks": 3840,
                    "time": 3.333332,
                    "velocity": 0.31496062992125984,
                },
                {
                    "duration": 0.24739573437499995,
                    "durationTicks": 285,
                    "midi": 33,
                    "name": "A1",
                    "ticks": 4800,
                    "time": 4.166665,
                    "velocity": 0.3779527559055118,
                },
                {
                    "duration": 0.24739573437499995,
                    "durationTicks": 285,
                    "midi": 33,
                    "name": "A1",
                    "ticks": 5280,
                    "time": 4.5833315,
                    "velocity": 0.3779527559055118,
                },
                {
                    "duration": 0.4973956343749997,
                    "durationTicks": 573,
                    "midi": 32,
                    "name": "G#1",
                    "ticks": 5760,
                    "time": 4.999998,
                    "velocity": 0.3700787401574803,
                },
                {
                    "duration": 0.47135397812499935,
                    "durationTicks": 543,
                    "midi": 32,
                    "name": "G#1",
                    "ticks": 6720,
                    "time": 5.833331,
                    "velocity": 0.3779527559055118,
                },
                {
                    "duration": 0.8333329999999997,
                    "durationTicks": 960,
                    "midi": 28,
                    "name": "E1",
                    "ticks": 7680,
                    "time": 6.666664,
                    "velocity": 0.36220472440944884,
                },
                {
                    "duration": 0.24739573437499995,
                    "durationTicks": 285,
                    "midi": 28,
                    "name": "E1",
                    "ticks": 8640,
                    "time": 7.499997,
                    "velocity": 0.3858267716535433,
                },
                {
                    "duration": 0.24739573437499907,
                    "durationTicks": 285,
                    "midi": 28,
                    "name": "E1",
                    "ticks": 9120,
                    "time": 7.9166635,
                    "velocity": 0.3858267716535433,
                },
                {
                    "duration": 0.4973956343749997,
                    "durationTicks": 573,
                    "midi": 33,
                    "name": "A1",
                    "ticks": 9600,
                    "time": 8.33333,
                    "velocity": 0.3937007874015748,
                },
                {
                    "duration": 0.47135397812500024,
                    "durationTicks": 543,
                    "midi": 33,
                    "name": "A1",
                    "ticks": 10560,
                    "time": 9.166663,
                    "velocity": 0.4015748031496063,
                },
                {
                    "duration": 0.8333329999999997,
                    "durationTicks": 960,
                    "midi": 33,
                    "name": "A1",
                    "ticks": 11520,
                    "time": 9.999996,
                    "velocity": 0.36220472440944884,
                },
                {
                    "duration": 0.24739573437500084,
                    "durationTicks": 285,
                    "midi": 33,
                    "name": "A1",
                    "ticks": 12480,
                    "time": 10.833328999999999,
                    "velocity": 0.36220472440944884,
                },
                {
                    "duration": 0.24739573437499907,
                    "durationTicks": 285,
                    "midi": 33,
                    "name": "A1",
                    "ticks": 12960,
                    "time": 11.2499955,
                    "velocity": 0.3858267716535433,
                },
                {
                    "duration": 0.4973956343749997,
                    "durationTicks": 573,
                    "midi": 31,
                    "name": "G1",
                    "ticks": 13440,
                    "time": 11.666662,
                    "velocity": 0.3858267716535433,
                },
                {
                    "duration": 0.47135397812500024,
                    "durationTicks": 543,
                    "midi": 31,
                    "name": "G1",
                    "ticks": 14400,
                    "time": 12.499995,
                    "velocity": 0.3700787401574803,
                },
                {
                    "duration": 0.8333329999999997,
                    "durationTicks": 960,
                    "midi": 31,
                    "name": "G1",
                    "ticks": 15360,
                    "time": 13.333328,
                    "velocity": 0.3700787401574803,
                },
                {
                    "duration": 0.24739573437500084,
                    "durationTicks": 285,
                    "midi": 31,
                    "name": "G1",
                    "ticks": 16320,
                    "time": 14.166661,
                    "velocity": 0.4251968503937008,
                },
                {
                    "duration": 0.24739573437500084,
                    "durationTicks": 285,
                    "midi": 31,
                    "name": "G1",
                    "ticks": 16800,
                    "time": 14.5833275,
                    "velocity": 0.3464566929133858,
                },
                {
                    "duration": 0.8333330000000014,
                    "durationTicks": 960,
                    "midi": 36,
                    "name": "C2",
                    "ticks": 17280,
                    "time": 14.999994,
                    "velocity": 0.4015748031496063,
                },
                {
                    "duration": 0.8333329999999997,
                    "durationTicks": 960,
                    "midi": 36,
                    "name": "C2",
                    "ticks": 19200,
                    "time": 16.66666,
                    "velocity": 0.36220472440944884,
                },
                {
                    "duration": 0.24739573437500084,
                    "durationTicks": 285,
                    "midi": 36,
                    "name": "C2",
                    "ticks": 20160,
                    "time": 17.499993,
                    "velocity": 0.3543307086614173,
                },
                {
                    "duration": 0.2473957343749973,
                    "durationTicks": 285,
                    "midi": 36,
                    "name": "C2",
                    "ticks": 20640,
                    "time": 17.9166595,
                    "velocity": 0.4015748031496063,
                },
                {
                    "duration": 0.4973956343749997,
                    "durationTicks": 573,
                    "midi": 35,
                    "name": "B1",
                    "ticks": 21120,
                    "time": 18.333326,
                    "velocity": 0.3858267716535433,
                },
                {
                    "duration": 0.471353978125002,
                    "durationTicks": 543,
                    "midi": 35,
                    "name": "B1",
                    "ticks": 22080,
                    "time": 19.166659,
                    "velocity": 0.3858267716535433,
                },
                {
                    "duration": 0.8333329999999997,
                    "durationTicks": 960,
                    "midi": 35,
                    "name": "B1",
                    "ticks": 23040,
                    "time": 19.999992,
                    "velocity": 0.3858267716535433,
                },
                {
                    "duration": 0.24739573437500084,
                    "durationTicks": 285,
                    "midi": 35,
                    "name": "B1",
                    "ticks": 24000,
                    "time": 20.833325,
                    "velocity": 0.3937007874015748,
                },
                {
                    "duration": 0.24739573437500084,
                    "durationTicks": 285,
                    "midi": 35,
                    "name": "B1",
                    "ticks": 24480,
                    "time": 21.2499915,
                    "velocity": 0.3937007874015748,
                },
                {
                    "duration": 0.4973956343750032,
                    "durationTicks": 573,
                    "midi": 33,
                    "name": "A1",
                    "ticks": 24960,
                    "time": 21.666657999999998,
                    "velocity": 0.36220472440944884,
                },
                {
                    "duration": 0.47135397812499846,
                    "durationTicks": 543,
                    "midi": 33,
                    "name": "A1",
                    "ticks": 25920,
                    "time": 22.499991,
                    "velocity": 0.3937007874015748,
                },
                {
                    "duration": 0.8333329999999997,
                    "durationTicks": 960,
                    "midi": 33,
                    "name": "A1",
                    "ticks": 26880,
                    "time": 23.333324,
                    "velocity": 0.36220472440944884,
                },
                {
                    "duration": 0.2473957343749973,
                    "durationTicks": 285,
                    "midi": 33,
                    "name": "A1",
                    "ticks": 27840,
                    "time": 24.166657,
                    "velocity": 0.3543307086614173,
                },
                {
                    "duration": 0.24739573437500084,
                    "durationTicks": 285,
                    "midi": 33,
                    "name": "A1",
                    "ticks": 28320,
                    "time": 24.5833235,
                    "velocity": 0.3937007874015748,
                },
                {
                    "duration": 0.5078122968749987,
                    "durationTicks": 585,
                    "midi": 32,
                    "name": "G#1",
                    "ticks": 28800,
                    "time": 24.99999,
                    "velocity": 0.3543307086614173,
                },
                {
                    "duration": 0.471353978125002,
                    "durationTicks": 543,
                    "midi": 33,
                    "name": "A1",
                    "ticks": 29760,
                    "time": 25.833323,
                    "velocity": 0.3858267716535433,
                },
                {
                    "duration": 0.8333329999999997,
                    "durationTicks": 960,
                    "midi": 28,
                    "name": "E1",
                    "ticks": 30720,
                    "time": 26.666656,
                    "velocity": 0.3228346456692913,
                },
                {
                    "duration": 0.24739573437500084,
                    "durationTicks": 285,
                    "midi": 28,
                    "name": "E1",
                    "ticks": 31680,
                    "time": 27.499989,
                    "velocity": 0.3700787401574803,
                },
                {
                    "duration": 0.2473957343749973,
                    "durationTicks": 285,
                    "midi": 28,
                    "name": "E1",
                    "ticks": 32160,
                    "time": 27.9166555,
                    "velocity": 0.3858267716535433,
                },
                {
                    "duration": 0.8333329999999997,
                    "durationTicks": 960,
                    "midi": 33,
                    "name": "A1",
                    "ticks": 32640,
                    "time": 28.333322,
                    "velocity": 0.3858267716535433,
                },
                {
                    "duration": 0.8333329999999997,
                    "durationTicks": 960,
                    "midi": 36,
                    "name": "C2",
                    "ticks": 34560,
                    "time": 29.999988,
                    "velocity": 0.29133858267716534,
                },
                {
                    "duration": 0.24739573437500084,
                    "durationTicks": 285,
                    "midi": 36,
                    "name": "C2",
                    "ticks": 35520,
                    "time": 30.833320999999998,
                    "velocity": 0.29133858267716534,
                },
                {
                    "duration": 0.24739573437500084,
                    "durationTicks": 285,
                    "midi": 36,
                    "name": "C2",
                    "ticks": 36000,
                    "time": 31.2499875,
                    "velocity": 0.2677165354330709,
                },
                {
                    "duration": 0.4973956343749961,
                    "durationTicks": 573,
                    "midi": 35,
                    "name": "B1",
                    "ticks": 36480,
                    "time": 31.666654,
                    "velocity": 0.28346456692913385,
                },
                {
                    "duration": 0.471353978125002,
                    "durationTicks": 543,
                    "midi": 35,
                    "name": "B1",
                    "ticks": 37440,
                    "time": 32.499987,
                    "velocity": 0.25984251968503935,
                },
                {
                    "duration": 0.8333329999999961,
                    "durationTicks": 960,
                    "midi": 35,
                    "name": "B1",
                    "ticks": 38400,
                    "time": 33.33332,
                    "velocity": 0.25984251968503935,
                },
                {
                    "duration": 0.2473957343750044,
                    "durationTicks": 285,
                    "midi": 35,
                    "name": "B1",
                    "ticks": 39360,
                    "time": 34.166653,
                    "velocity": 0.2755905511811024,
                },
                {
                    "duration": 0.2473957343749973,
                    "durationTicks": 285,
                    "midi": 35,
                    "name": "B1",
                    "ticks": 39840,
                    "time": 34.5833195,
                    "velocity": 0.29133858267716534,
                },
                {
                    "duration": 0.4973956343749961,
                    "durationTicks": 573,
                    "midi": 33,
                    "name": "A1",
                    "ticks": 40320,
                    "time": 34.999986,
                    "velocity": 0.2677165354330709,
                },
                {
                    "duration": 0.4713539781249949,
                    "durationTicks": 543,
                    "midi": 33,
                    "name": "A1",
                    "ticks": 41280,
                    "time": 35.833319,
                    "velocity": 0.28346456692913385,
                },
                {
                    "duration": 0.8333330000000032,
                    "durationTicks": 960,
                    "midi": 33,
                    "name": "A1",
                    "ticks": 42240,
                    "time": 36.666652,
                    "velocity": 0.2677165354330709,
                },
                {
                    "duration": 0.2473957343749973,
                    "durationTicks": 285,
                    "midi": 33,
                    "name": "A1",
                    "ticks": 43200,
                    "time": 37.499985,
                    "velocity": 0.28346456692913385,
                },
                {
                    "duration": 0.2473957343749973,
                    "durationTicks": 285,
                    "midi": 33,
                    "name": "A1",
                    "ticks": 43680,
                    "time": 37.9166515,
                    "velocity": 0.2992125984251969,
                },
                {
                    "duration": 0.5078122968750023,
                    "durationTicks": 585,
                    "midi": 32,
                    "name": "G#1",
                    "ticks": 44160,
                    "time": 38.333318,
                    "velocity": 0.2677165354330709,
                },
                {
                    "duration": 0.4713539781249949,
                    "durationTicks": 543,
                    "midi": 33,
                    "name": "A1",
                    "ticks": 45120,
                    "time": 39.166651,
                    "velocity": 0.2992125984251969,
                },
                {
                    "duration": 0.8333330000000032,
                    "durationTicks": 960,
                    "midi": 28,
                    "name": "E1",
                    "ticks": 46080,
                    "time": 39.999984,
                    "velocity": 0.25984251968503935,
                },
                {
                    "duration": 0.2473957343749973,
                    "durationTicks": 285,
                    "midi": 28,
                    "name": "E1",
                    "ticks": 47040,
                    "time": 40.833317,
                    "velocity": 0.29133858267716534,
                },
                {
                    "duration": 0.2473957343749973,
                    "durationTicks": 285,
                    "midi": 28,
                    "name": "E1",
                    "ticks": 47520,
                    "time": 41.2499835,
                    "velocity": 0.2677165354330709,
                },
                {
                    "duration": 0.8333330000000032,
                    "durationTicks": 960,
                    "midi": 33,
                    "name": "A1",
                    "ticks": 48000,
                    "time": 41.66665,
                    "velocity": 0.30708661417322836,
                },
                {
                    "duration": 0.2473957343749973,
                    "durationTicks": 285,
                    "midi": 33,
                    "name": "A1",
                    "ticks": 50880,
                    "time": 44.166649,
                    "velocity": 0.2440944881889764,
                },
                {
                    "duration": 0.2473957343750044,
                    "durationTicks": 285,
                    "midi": 33,
                    "name": "A1",
                    "ticks": 51360,
                    "time": 44.5833155,
                    "velocity": 0.2755905511811024,
                },
                {
                    "duration": 0.2473957343749973,
                    "durationTicks": 285,
                    "midi": 32,
                    "name": "G#1",
                    "ticks": 51840,
                    "time": 44.999982,
                    "velocity": 0.2755905511811024,
                },
                {
                    "duration": 0.2473957343749973,
                    "durationTicks": 285,
                    "midi": 44,
                    "name": "G#2",
                    "ticks": 52800,
                    "time": 45.833315,
                    "velocity": 0.2283464566929134,
                },
                {
                    "duration": 0.2473957343750044,
                    "durationTicks": 285,
                    "midi": 28,
                    "name": "E1",
                    "ticks": 54720,
                    "time": 47.499981,
                    "velocity": 0.23622047244094488,
                },
                {
                    "duration": 0.2473957343750044,
                    "durationTicks": 285,
                    "midi": 28,
                    "name": "E1",
                    "ticks": 55200,
                    "time": 47.916647499999996,
                    "velocity": 0.29133858267716534,
                },
                {
                    "duration": 0.2473957343749973,
                    "durationTicks": 285,
                    "midi": 33,
                    "name": "A1",
                    "ticks": 55680,
                    "time": 48.333314,
                    "velocity": 0.2755905511811024,
                },
                {
                    "duration": 0.2473957343750044,
                    "durationTicks": 285,
                    "midi": 45,
                    "name": "A2",
                    "ticks": 56640,
                    "time": 49.166647,
                    "velocity": 0.2283464566929134,
                },
                {
                    "duration": 0.2473957343750044,
                    "durationTicks": 285,
                    "midi": 33,
                    "name": "A1",
                    "ticks": 58560,
                    "time": 50.833313,
                    "velocity": 0.25196850393700787,
                },
                {
                    "duration": 0.2473957343749973,
                    "durationTicks": 285,
                    "midi": 33,
                    "name": "A1",
                    "ticks": 59040,
                    "time": 51.2499795,
                    "velocity": 0.25984251968503935,
                },
                {
                    "duration": 0.2473957343749973,
                    "durationTicks": 285,
                    "midi": 31,
                    "name": "G1",
                    "ticks": 59520,
                    "time": 51.666646,
                    "velocity": 0.25196850393700787,
                },
                {
                    "duration": 0.2473957343750044,
                    "durationTicks": 285,
                    "midi": 43,
                    "name": "G2",
                    "ticks": 60480,
                    "time": 52.499978999999996,
                    "velocity": 0.28346456692913385,
                },
                {
                    "duration": 0.2473957343749973,
                    "durationTicks": 285,
                    "midi": 43,
                    "name": "G2",
                    "ticks": 62400,
                    "time": 54.166645,
                    "velocity": 0.2755905511811024,
                },
                {
                    "duration": 0.2473957343749973,
                    "durationTicks": 285,
                    "midi": 43,
                    "name": "G2",
                    "ticks": 62880,
                    "time": 54.5833115,
                    "velocity": 0.28346456692913385,
                },
                {
                    "duration": 0.2473957343749973,
                    "durationTicks": 285,
                    "midi": 36,
                    "name": "C2",
                    "ticks": 63360,
                    "time": 54.999978,
                    "velocity": 0.28346456692913385,
                },
                {
                    "duration": 0.2473957343749973,
                    "durationTicks": 285,
                    "midi": 48,
                    "name": "C3",
                    "ticks": 64320,
                    "time": 55.833311,
                    "velocity": 0.25196850393700787,
                },
                {
                    "duration": 0.2473957343749973,
                    "durationTicks": 285,
                    "midi": 36,
                    "name": "C2",
                    "ticks": 66240,
                    "time": 57.499977,
                    "velocity": 0.25984251968503935,
                },
                {
                    "duration": 0.2473957343749973,
                    "durationTicks": 285,
                    "midi": 36,
                    "name": "C2",
                    "ticks": 66720,
                    "time": 57.9166435,
                    "velocity": 0.28346456692913385,
                },
                {
                    "duration": 0.2473957343750044,
                    "durationTicks": 285,
                    "midi": 35,
                    "name": "B1",
                    "ticks": 67200,
                    "time": 58.33331,
                    "velocity": 0.2755905511811024,
                },
                {
                    "duration": 0.2473957343749973,
                    "durationTicks": 285,
                    "midi": 47,
                    "name": "B2",
                    "ticks": 68160,
                    "time": 59.166643,
                    "velocity": 0.2440944881889764,
                },
                {
                    "duration": 0.2473957343749973,
                    "durationTicks": 285,
                    "midi": 40,
                    "name": "E2",
                    "ticks": 70080,
                    "time": 60.833309,
                    "velocity": 0.2204724409448819,
                },
                {
                    "duration": 0.2473957343750044,
                    "durationTicks": 285,
                    "midi": 40,
                    "name": "E2",
                    "ticks": 70560,
                    "time": 61.2499755,
                    "velocity": 0.29133858267716534,
                },
                {
                    "duration": 0.2473957343750044,
                    "durationTicks": 285,
                    "midi": 33,
                    "name": "A1",
                    "ticks": 71040,
                    "time": 61.666641999999996,
                    "velocity": 0.25984251968503935,
                },
                {
                    "duration": 0.2473957343749973,
                    "durationTicks": 285,
                    "midi": 45,
                    "name": "A2",
                    "ticks": 72000,
                    "time": 62.499975,
                    "velocity": 0.28346456692913385,
                },
                {
                    "duration": 0.2473957343750044,
                    "durationTicks": 285,
                    "midi": 33,
                    "name": "A1",
                    "ticks": 73920,
                    "time": 64.166641,
                    "velocity": 0.2125984251968504,
                },
                {
                    "duration": 0.24739573437499018,
                    "durationTicks": 285,
                    "midi": 33,
                    "name": "A1",
                    "ticks": 74400,
                    "time": 64.5833075,
                    "velocity": 0.2440944881889764,
                },
                {
                    "duration": 0.2473957343750044,
                    "durationTicks": 285,
                    "midi": 32,
                    "name": "G#1",
                    "ticks": 74880,
                    "time": 64.999974,
                    "velocity": 0.2755905511811024,
                },
                {
                    "duration": 0.24739573437499018,
                    "durationTicks": 285,
                    "midi": 33,
                    "name": "A1",
                    "ticks": 75840,
                    "time": 65.833307,
                    "velocity": 0.25984251968503935,
                },
                {
                    "duration": 0.2473957343750044,
                    "durationTicks": 285,
                    "midi": 28,
                    "name": "E1",
                    "ticks": 77760,
                    "time": 67.499973,
                    "velocity": 0.25984251968503935,
                },
                {
                    "duration": 0.24739573437499018,
                    "durationTicks": 285,
                    "midi": 28,
                    "name": "E1",
                    "ticks": 78240,
                    "time": 67.9166395,
                    "velocity": 0.2677165354330709,
                },
                {
                    "duration": 0.2473957343750044,
                    "durationTicks": 285,
                    "midi": 33,
                    "name": "A1",
                    "ticks": 78720,
                    "time": 68.333306,
                    "velocity": 0.30708661417322836,
                },
                {
                    "duration": 0.24739573437499018,
                    "durationTicks": 285,
                    "midi": 45,
                    "name": "A2",
                    "ticks": 79680,
                    "time": 69.166639,
                    "velocity": 0.25984251968503935,
                },
                {
                    "duration": 0.2473957343750044,
                    "durationTicks": 285,
                    "midi": 36,
                    "name": "C2",
                    "ticks": 81600,
                    "time": 70.833305,
                    "velocity": 0.2677165354330709,
                },
                {
                    "duration": 0.2473957343750044,
                    "durationTicks": 285,
                    "midi": 36,
                    "name": "C2",
                    "ticks": 82080,
                    "time": 71.2499715,
                    "velocity": 0.2755905511811024,
                },
                {
                    "duration": 0.24739573437499018,
                    "durationTicks": 285,
                    "midi": 35,
                    "name": "B1",
                    "ticks": 82560,
                    "time": 71.666638,
                    "velocity": 0.25984251968503935,
                },
                {
                    "duration": 0.24739573437499018,
                    "durationTicks": 285,
                    "midi": 47,
                    "name": "B2",
                    "ticks": 83520,
                    "time": 72.499971,
                    "velocity": 0.2204724409448819,
                },
                {
                    "duration": 0.2473957343750044,
                    "durationTicks": 285,
                    "midi": 40,
                    "name": "E2",
                    "ticks": 85440,
                    "time": 74.166637,
                    "velocity": 0.2204724409448819,
                },
                {
                    "duration": 0.2473957343750044,
                    "durationTicks": 285,
                    "midi": 40,
                    "name": "E2",
                    "ticks": 85920,
                    "time": 74.5833035,
                    "velocity": 0.25984251968503935,
                },
                {
                    "duration": 0.24739573437499018,
                    "durationTicks": 285,
                    "midi": 33,
                    "name": "A1",
                    "ticks": 86400,
                    "time": 74.99997,
                    "velocity": 0.25984251968503935,
                },
                {
                    "duration": 0.2473957343750044,
                    "durationTicks": 285,
                    "midi": 45,
                    "name": "A2",
                    "ticks": 87360,
                    "time": 75.833303,
                    "velocity": 0.25984251968503935,
                },
                {
                    "duration": 0.2473957343750044,
                    "durationTicks": 285,
                    "midi": 33,
                    "name": "A1",
                    "ticks": 89280,
                    "time": 77.499969,
                    "velocity": 0.23622047244094488,
                },
                {
                    "duration": 0.2473957343750044,
                    "durationTicks": 285,
                    "midi": 33,
                    "name": "A1",
                    "ticks": 89760,
                    "time": 77.9166355,
                    "velocity": 0.31496062992125984,
                },
                {
                    "duration": 0.24739573437499018,
                    "durationTicks": 285,
                    "midi": 32,
                    "name": "G#1",
                    "ticks": 90240,
                    "time": 78.333302,
                    "velocity": 0.2677165354330709,
                },
                {
                    "duration": 0.2473957343750044,
                    "durationTicks": 285,
                    "midi": 33,
                    "name": "A1",
                    "ticks": 91200,
                    "time": 79.166635,
                    "velocity": 0.2283464566929134,
                },
                {
                    "duration": 0.24739573437499018,
                    "durationTicks": 285,
                    "midi": 28,
                    "name": "E1",
                    "ticks": 93120,
                    "time": 80.833301,
                    "velocity": 0.2440944881889764,
                },
                {
                    "duration": 0.2473957343750044,
                    "durationTicks": 285,
                    "midi": 28,
                    "name": "E1",
                    "ticks": 93600,
                    "time": 81.2499675,
                    "velocity": 0.28346456692913385,
                },
                {
                    "duration": 0.24739573437499018,
                    "durationTicks": 285,
                    "midi": 33,
                    "name": "A1",
                    "ticks": 94080,
                    "time": 81.666634,
                    "velocity": 0.29133858267716534,
                },
                {
                    "duration": 0.2473957343750044,
                    "durationTicks": 285,
                    "midi": 45,
                    "name": "A2",
                    "ticks": 95040,
                    "time": 82.499967,
                    "velocity": 0.2125984251968504,
                },
                {
                    "duration": 0.8333330000000103,
                    "durationTicks": 960,
                    "midi": 33,
                    "name": "A1",
                    "ticks": 96000,
                    "time": 83.3333,
                    "velocity": 0.36220472440944884,
                },
                {
                    "duration": 0.41666650000000516,
                    "durationTicks": 480,
                    "midi": 45,
                    "name": "A2",
                    "ticks": 97440,
                    "time": 84.5832995,
                    "velocity": 0.3700787401574803,
                },
                {
                    "duration": 0.8333329999999961,
                    "durationTicks": 960,
                    "midi": 32,
                    "name": "G#1",
                    "ticks": 97920,
                    "time": 84.999966,
                    "velocity": 0.30708661417322836,
                },
                {
                    "duration": 0.41666649999999095,
                    "durationTicks": 480,
                    "midi": 44,
                    "name": "G#2",
                    "ticks": 99360,
                    "time": 86.2499655,
                    "velocity": 0.36220472440944884,
                },
                {
                    "duration": 0.8333330000000103,
                    "durationTicks": 960,
                    "midi": 28,
                    "name": "E1",
                    "ticks": 99840,
                    "time": 86.66663199999999,
                    "velocity": 0.3543307086614173,
                },
                {
                    "duration": 0.41666650000000516,
                    "durationTicks": 480,
                    "midi": 40,
                    "name": "E2",
                    "ticks": 101280,
                    "time": 87.9166315,
                    "velocity": 0.3543307086614173,
                },
                {
                    "duration": 0.8333329999999961,
                    "durationTicks": 960,
                    "midi": 33,
                    "name": "A1",
                    "ticks": 101760,
                    "time": 88.333298,
                    "velocity": 0.4251968503937008,
                },
                {
                    "duration": 0.41666650000000516,
                    "durationTicks": 480,
                    "midi": 45,
                    "name": "A2",
                    "ticks": 103200,
                    "time": 89.5832975,
                    "velocity": 0.41732283464566927,
                },
                {
                    "duration": 0.8333329999999961,
                    "durationTicks": 960,
                    "midi": 33,
                    "name": "A1",
                    "ticks": 103680,
                    "time": 89.999964,
                    "velocity": 0.4015748031496063,
                },
                {
                    "duration": 0.41666650000000516,
                    "durationTicks": 480,
                    "midi": 45,
                    "name": "A2",
                    "ticks": 105120,
                    "time": 91.24996349999999,
                    "velocity": 0.4409448818897638,
                },
                {
                    "duration": 0.8333329999999961,
                    "durationTicks": 960,
                    "midi": 31,
                    "name": "G1",
                    "ticks": 105600,
                    "time": 91.66663,
                    "velocity": 0.4015748031496063,
                },
                {
                    "duration": 0.41666650000000516,
                    "durationTicks": 480,
                    "midi": 43,
                    "name": "G2",
                    "ticks": 107040,
                    "time": 92.9166295,
                    "velocity": 0.4645669291338583,
                },
                {
                    "duration": 0.8333329999999961,
                    "durationTicks": 960,
                    "midi": 31,
                    "name": "G1",
                    "ticks": 107520,
                    "time": 93.333296,
                    "velocity": 0.4330708661417323,
                },
                {
                    "duration": 0.41666649999999095,
                    "durationTicks": 480,
                    "midi": 43,
                    "name": "G2",
                    "ticks": 108960,
                    "time": 94.5832955,
                    "velocity": 0.47244094488188976,
                },
                {
                    "duration": 0.8333329999999961,
                    "durationTicks": 960,
                    "midi": 36,
                    "name": "C2",
                    "ticks": 109440,
                    "time": 94.999962,
                    "velocity": 0.4881889763779528,
                },
                {
                    "duration": 0.41666650000000516,
                    "durationTicks": 480,
                    "midi": 48,
                    "name": "C3",
                    "ticks": 110880,
                    "time": 96.2499615,
                    "velocity": 0.49606299212598426,
                },
                {
                    "duration": 0.8333329999999961,
                    "durationTicks": 960,
                    "midi": 36,
                    "name": "C2",
                    "ticks": 111360,
                    "time": 96.666628,
                    "velocity": 0.48031496062992124,
                },
                {
                    "duration": 0.41666649999999095,
                    "durationTicks": 480,
                    "midi": 48,
                    "name": "C3",
                    "ticks": 112800,
                    "time": 97.9166275,
                    "velocity": 0.5433070866141733,
                },
                {
                    "duration": 0.8333330000000103,
                    "durationTicks": 960,
                    "midi": 35,
                    "name": "B1",
                    "ticks": 113280,
                    "time": 98.333294,
                    "velocity": 0.48031496062992124,
                },
                {
                    "duration": 0.41666650000000516,
                    "durationTicks": 480,
                    "midi": 47,
                    "name": "B2",
                    "ticks": 114720,
                    "time": 99.5832935,
                    "velocity": 0.5275590551181102,
                },
                {
                    "duration": 0.8333329999999961,
                    "durationTicks": 960,
                    "midi": 35,
                    "name": "B1",
                    "ticks": 115200,
                    "time": 99.99996,
                    "velocity": 0.5118110236220472,
                },
                {
                    "duration": 0.41666649999999095,
                    "durationTicks": 480,
                    "midi": 47,
                    "name": "B2",
                    "ticks": 116640,
                    "time": 101.2499595,
                    "velocity": 0.5669291338582677,
                },
                {
                    "duration": 0.8333330000000103,
                    "durationTicks": 960,
                    "midi": 33,
                    "name": "A1",
                    "ticks": 117120,
                    "time": 101.666626,
                    "velocity": 0.5748031496062992,
                },
                {
                    "duration": 0.41666650000000516,
                    "durationTicks": 480,
                    "midi": 45,
                    "name": "A2",
                    "ticks": 118560,
                    "time": 102.9166255,
                    "velocity": 0.5748031496062992,
                },
                {
                    "duration": 0.8333329999999961,
                    "durationTicks": 960,
                    "midi": 33,
                    "name": "A1",
                    "ticks": 119040,
                    "time": 103.333292,
                    "velocity": 0.5354330708661418,
                },
                {
                    "duration": 0.41666649999999095,
                    "durationTicks": 480,
                    "midi": 45,
                    "name": "A2",
                    "ticks": 120480,
                    "time": 104.5832915,
                    "velocity": 0.5669291338582677,
                },
                {
                    "duration": 0.8333330000000103,
                    "durationTicks": 960,
                    "midi": 32,
                    "name": "G#1",
                    "ticks": 120960,
                    "time": 104.99995799999999,
                    "velocity": 0.5590551181102362,
                },
                {
                    "duration": 0.41666650000000516,
                    "durationTicks": 480,
                    "midi": 33,
                    "name": "A1",
                    "ticks": 122400,
                    "time": 106.2499575,
                    "velocity": 0.6220472440944882,
                },
                {
                    "duration": 0.8333329999999961,
                    "durationTicks": 960,
                    "midi": 28,
                    "name": "E1",
                    "ticks": 122880,
                    "time": 106.666624,
                    "velocity": 0.6771653543307087,
                },
                {
                    "duration": 0.41666650000000516,
                    "durationTicks": 480,
                    "midi": 40,
                    "name": "E2",
                    "ticks": 124320,
                    "time": 107.9166235,
                    "velocity": 0.6456692913385826,
                },
                {
                    "duration": 0.8333329999999961,
                    "durationTicks": 960,
                    "midi": 33,
                    "name": "A1",
                    "ticks": 124800,
                    "time": 108.33329,
                    "velocity": 0.6535433070866141,
                },
                {
                    "duration": 0.41666650000000516,
                    "durationTicks": 480,
                    "midi": 45,
                    "name": "A2",
                    "ticks": 126240,
                    "time": 109.58328949999999,
                    "velocity": 0.6614173228346457,
                },
                {
                    "duration": 0.8333329999999961,
                    "durationTicks": 960,
                    "midi": 36,
                    "name": "C2",
                    "ticks": 126720,
                    "time": 109.999956,
                    "velocity": 0.6377952755905512,
                },
                {
                    "duration": 0.41666650000000516,
                    "durationTicks": 480,
                    "midi": 48,
                    "name": "C3",
                    "ticks": 128160,
                    "time": 111.2499555,
                    "velocity": 0.6850393700787402,
                },
                {
                    "duration": 0.8333329999999961,
                    "durationTicks": 960,
                    "midi": 35,
                    "name": "B1",
                    "ticks": 128640,
                    "time": 111.666622,
                    "velocity": 0.6692913385826772,
                },
                {
                    "duration": 0.41666649999999095,
                    "durationTicks": 480,
                    "midi": 47,
                    "name": "B2",
                    "ticks": 130080,
                    "time": 112.9166215,
                    "velocity": 0.6929133858267716,
                },
                {
                    "duration": 0.8333329999999961,
                    "durationTicks": 960,
                    "midi": 35,
                    "name": "B1",
                    "ticks": 130560,
                    "time": 113.333288,
                    "velocity": 0.7165354330708661,
                },
                {
                    "duration": 0.41666650000000516,
                    "durationTicks": 480,
                    "midi": 47,
                    "name": "B2",
                    "ticks": 132000,
                    "time": 114.5832875,
                    "velocity": 0.7559055118110236,
                },
                {
                    "duration": 0.8333329999999961,
                    "durationTicks": 960,
                    "midi": 33,
                    "name": "A1",
                    "ticks": 132480,
                    "time": 114.999954,
                    "velocity": 0.7007874015748031,
                },
                {
                    "duration": 0.41666649999999095,
                    "durationTicks": 480,
                    "midi": 45,
                    "name": "A2",
                    "ticks": 133920,
                    "time": 116.2499535,
                    "velocity": 0.7165354330708661,
                },
                {
                    "duration": 0.8333330000000103,
                    "durationTicks": 960,
                    "midi": 33,
                    "name": "A1",
                    "ticks": 134400,
                    "time": 116.66662,
                    "velocity": 0.7401574803149606,
                },
                {
                    "duration": 0.41666650000000516,
                    "durationTicks": 480,
                    "midi": 45,
                    "name": "A2",
                    "ticks": 135840,
                    "time": 117.9166195,
                    "velocity": 0.7637795275590551,
                },
                {
                    "duration": 0.8333329999999961,
                    "durationTicks": 960,
                    "midi": 32,
                    "name": "G#1",
                    "ticks": 136320,
                    "time": 118.333286,
                    "velocity": 0.7244094488188977,
                },
                {
                    "duration": 0.41666649999999095,
                    "durationTicks": 480,
                    "midi": 33,
                    "name": "A1",
                    "ticks": 137760,
                    "time": 119.5832855,
                    "velocity": 0.7086614173228346,
                },
                {
                    "duration": 0.8333330000000103,
                    "durationTicks": 960,
                    "midi": 28,
                    "name": "E1",
                    "ticks": 138240,
                    "time": 119.999952,
                    "velocity": 0.7322834645669292,
                },
                {
                    "duration": 0.41666650000000516,
                    "durationTicks": 480,
                    "midi": 40,
                    "name": "E2",
                    "ticks": 139680,
                    "time": 121.2499515,
                    "velocity": 0.7637795275590551,
                },
                {
                    "duration": 0.8333329999999961,
                    "durationTicks": 960,
                    "midi": 33,
                    "name": "A1",
                    "ticks": 140160,
                    "time": 121.666618,
                    "velocity": 0.7559055118110236,
                },
                {
                    "duration": 0.41666649999999095,
                    "durationTicks": 480,
                    "midi": 45,
                    "name": "A2",
                    "ticks": 141600,
                    "time": 122.9166175,
                    "velocity": 0.7795275590551181,
                },
                {
                    "duration": 0.8333330000000103,
                    "durationTicks": 960,
                    "midi": 33,
                    "name": "A1",
                    "ticks": 142080,
                    "time": 123.33328399999999,
                    "velocity": 0.7244094488188977,
                },
                {
                    "duration": 0.166666599999985,
                    "durationTicks": 192,
                    "midi": 33,
                    "name": "A1",
                    "ticks": 143358,
                    "time": 124.44265855625001,
                    "velocity": 0.8188976377952756,
                },
                {
                    "duration": 0.1657985447916701,
                    "durationTicks": 191,
                    "midi": 45,
                    "name": "A2",
                    "ticks": 143677,
                    "time": 124.71956816770833,
                    "velocity": 1,
                },
                {
                    "duration": 0.8333329999999961,
                    "durationTicks": 960,
                    "midi": 32,
                    "name": "G#1",
                    "ticks": 144000,
                    "time": 124.99995,
                    "velocity": 0.7322834645669292,
                },
                {
                    "duration": 0.16666659999999922,
                    "durationTicks": 192,
                    "midi": 32,
                    "name": "G#1",
                    "ticks": 145278,
                    "time": 126.10932455625,
                    "velocity": 0.7874015748031497,
                },
                {
                    "duration": 0.1657985447916701,
                    "durationTicks": 191,
                    "midi": 44,
                    "name": "G#2",
                    "ticks": 145597,
                    "time": 126.38623416770834,
                    "velocity": 0.9763779527559056,
                },
                {
                    "duration": 0.8333329999999961,
                    "durationTicks": 960,
                    "midi": 28,
                    "name": "E1",
                    "ticks": 145920,
                    "time": 126.666616,
                    "velocity": 0.7795275590551181,
                },
                {
                    "duration": 0.166666599999985,
                    "durationTicks": 192,
                    "midi": 28,
                    "name": "E1",
                    "ticks": 147198,
                    "time": 127.77599055625001,
                    "velocity": 0.8031496062992126,
                },
                {
                    "duration": 0.1657985447916701,
                    "durationTicks": 191,
                    "midi": 40,
                    "name": "E2",
                    "ticks": 147517,
                    "time": 128.05290016770834,
                    "velocity": 0.9921259842519685,
                },
                {
                    "duration": 0.8333330000000103,
                    "durationTicks": 960,
                    "midi": 33,
                    "name": "A1",
                    "ticks": 147840,
                    "time": 128.333282,
                    "velocity": 0.8267716535433071,
                },
                {
                    "duration": 0.166666599999985,
                    "durationTicks": 192,
                    "midi": 33,
                    "name": "A1",
                    "ticks": 149118,
                    "time": 129.44265655625,
                    "velocity": 0.7795275590551181,
                },
                {
                    "duration": 0.1657985447916701,
                    "durationTicks": 191,
                    "midi": 45,
                    "name": "A2",
                    "ticks": 149437,
                    "time": 129.71956616770834,
                    "velocity": 0.968503937007874,
                },
                {
                    "duration": 0.8333330000000103,
                    "durationTicks": 960,
                    "midi": 33,
                    "name": "A1",
                    "ticks": 149760,
                    "time": 129.999948,
                    "velocity": 0.7401574803149606,
                },
                {
                    "duration": 0.166666599999985,
                    "durationTicks": 192,
                    "midi": 33,
                    "name": "A1",
                    "ticks": 151038,
                    "time": 131.10932255625002,
                    "velocity": 0.7952755905511811,
                },
                {
                    "duration": 0.1657985447916701,
                    "durationTicks": 191,
                    "midi": 45,
                    "name": "A2",
                    "ticks": 151357,
                    "time": 131.38623216770833,
                    "velocity": 0.9921259842519685,
                },
                {
                    "duration": 0.8333329999999819,
                    "durationTicks": 960,
                    "midi": 31,
                    "name": "G1",
                    "ticks": 151680,
                    "time": 131.666614,
                    "velocity": 0.7795275590551181,
                },
                {
                    "duration": 0.166666599999985,
                    "durationTicks": 192,
                    "midi": 31,
                    "name": "G1",
                    "ticks": 152958,
                    "time": 132.77598855625,
                    "velocity": 0.7716535433070866,
                },
                {
                    "duration": 0.1657985447916701,
                    "durationTicks": 191,
                    "midi": 43,
                    "name": "G2",
                    "ticks": 153277,
                    "time": 133.05289816770835,
                    "velocity": 0.9763779527559056,
                },
                {
                    "duration": 0.8333330000000103,
                    "durationTicks": 960,
                    "midi": 31,
                    "name": "G1",
                    "ticks": 153600,
                    "time": 133.33328,
                    "velocity": 0.7716535433070866,
                },
                {
                    "duration": 0.166666599999985,
                    "durationTicks": 192,
                    "midi": 31,
                    "name": "G1",
                    "ticks": 154878,
                    "time": 134.44265455625,
                    "velocity": 0.7952755905511811,
                },
                {
                    "duration": 0.1657985447916701,
                    "durationTicks": 191,
                    "midi": 43,
                    "name": "G2",
                    "ticks": 155197,
                    "time": 134.71956416770834,
                    "velocity": 1,
                },
                {
                    "duration": 0.8333330000000103,
                    "durationTicks": 960,
                    "midi": 36,
                    "name": "C2",
                    "ticks": 155520,
                    "time": 134.999946,
                    "velocity": 0.8110236220472441,
                },
                {
                    "duration": 0.16666660000001343,
                    "durationTicks": 192,
                    "midi": 36,
                    "name": "C2",
                    "ticks": 156798,
                    "time": 136.10932055625,
                    "velocity": 0.7952755905511811,
                },
                {
                    "duration": 0.1657985447916701,
                    "durationTicks": 191,
                    "midi": 48,
                    "name": "C3",
                    "ticks": 157117,
                    "time": 136.38623016770833,
                    "velocity": 0.9921259842519685,
                },
                {
                    "duration": 0.8333330000000103,
                    "durationTicks": 960,
                    "midi": 36,
                    "name": "C2",
                    "ticks": 157440,
                    "time": 136.666612,
                    "velocity": 0.7795275590551181,
                },
                {
                    "duration": 0.166666599999985,
                    "durationTicks": 192,
                    "midi": 36,
                    "name": "C2",
                    "ticks": 158718,
                    "time": 137.77598655625002,
                    "velocity": 0.7795275590551181,
                },
                {
                    "duration": 0.1657985447916701,
                    "durationTicks": 191,
                    "midi": 48,
                    "name": "C3",
                    "ticks": 159037,
                    "time": 138.05289616770833,
                    "velocity": 0.968503937007874,
                },
                {
                    "duration": 0.8333329999999819,
                    "durationTicks": 960,
                    "midi": 35,
                    "name": "B1",
                    "ticks": 159360,
                    "time": 138.333278,
                    "velocity": 0.7716535433070866,
                },
                {
                    "duration": 0.166666599999985,
                    "durationTicks": 192,
                    "midi": 35,
                    "name": "B1",
                    "ticks": 160638,
                    "time": 139.44265255625,
                    "velocity": 0.8110236220472441,
                },
                {
                    "duration": 0.1657985447916701,
                    "durationTicks": 191,
                    "midi": 47,
                    "name": "B2",
                    "ticks": 160957,
                    "time": 139.71956216770835,
                    "velocity": 0.9921259842519685,
                },
                {
                    "duration": 0.8333330000000103,
                    "durationTicks": 960,
                    "midi": 35,
                    "name": "B1",
                    "ticks": 161280,
                    "time": 139.999944,
                    "velocity": 0.7637795275590551,
                },
                {
                    "duration": 0.166666599999985,
                    "durationTicks": 192,
                    "midi": 35,
                    "name": "B1",
                    "ticks": 162558,
                    "time": 141.10931855625,
                    "velocity": 0.8031496062992126,
                },
                {
                    "duration": 0.1657985447916701,
                    "durationTicks": 191,
                    "midi": 47,
                    "name": "B2",
                    "ticks": 162877,
                    "time": 141.38622816770834,
                    "velocity": 0.984251968503937,
                },
                {
                    "duration": 0.8333330000000103,
                    "durationTicks": 960,
                    "midi": 33,
                    "name": "A1",
                    "ticks": 163200,
                    "time": 141.66661,
                    "velocity": 0.7637795275590551,
                },
                {
                    "duration": 0.16666660000001343,
                    "durationTicks": 192,
                    "midi": 33,
                    "name": "A1",
                    "ticks": 164478,
                    "time": 142.77598455625,
                    "velocity": 0.7480314960629921,
                },
                {
                    "duration": 0.1657985447916701,
                    "durationTicks": 191,
                    "midi": 45,
                    "name": "A2",
                    "ticks": 164797,
                    "time": 143.05289416770833,
                    "velocity": 0.984251968503937,
                },
                {
                    "duration": 0.8333329999999819,
                    "durationTicks": 960,
                    "midi": 33,
                    "name": "A1",
                    "ticks": 165120,
                    "time": 143.333276,
                    "velocity": 0.7401574803149606,
                },
                {
                    "duration": 0.166666599999985,
                    "durationTicks": 192,
                    "midi": 33,
                    "name": "A1",
                    "ticks": 166398,
                    "time": 144.44265055625002,
                    "velocity": 0.7559055118110236,
                },
                {
                    "duration": 0.1657985447916701,
                    "durationTicks": 191,
                    "midi": 45,
                    "name": "A2",
                    "ticks": 166717,
                    "time": 144.71956016770835,
                    "velocity": 1,
                },
                {
                    "duration": 0.8333329999999819,
                    "durationTicks": 960,
                    "midi": 32,
                    "name": "G#1",
                    "ticks": 167040,
                    "time": 144.999942,
                    "velocity": 0.7637795275590551,
                },
                {
                    "duration": 0.166666599999985,
                    "durationTicks": 192,
                    "midi": 33,
                    "name": "A1",
                    "ticks": 168318,
                    "time": 146.10931655625,
                    "velocity": 0.8031496062992126,
                },
                {
                    "duration": 0.1657985447916701,
                    "durationTicks": 191,
                    "midi": 45,
                    "name": "A2",
                    "ticks": 168637,
                    "time": 146.38622616770834,
                    "velocity": 0.968503937007874,
                },
                {
                    "duration": 0.8333330000000103,
                    "durationTicks": 960,
                    "midi": 28,
                    "name": "E1",
                    "ticks": 168960,
                    "time": 146.666608,
                    "velocity": 0.7559055118110236,
                },
                {
                    "duration": 0.166666599999985,
                    "durationTicks": 192,
                    "midi": 28,
                    "name": "E1",
                    "ticks": 170238,
                    "time": 147.77598255625,
                    "velocity": 0.7952755905511811,
                },
                {
                    "duration": 0.1657985447916701,
                    "durationTicks": 191,
                    "midi": 40,
                    "name": "E2",
                    "ticks": 170557,
                    "time": 148.05289216770834,
                    "velocity": 0.9606299212598425,
                },
                {
                    "duration": 0.8333330000000103,
                    "durationTicks": 960,
                    "midi": 33,
                    "name": "A1",
                    "ticks": 170880,
                    "time": 148.333274,
                    "velocity": 0.8031496062992126,
                },
                {
                    "duration": 0.166666599999985,
                    "durationTicks": 192,
                    "midi": 33,
                    "name": "A1",
                    "ticks": 172158,
                    "time": 149.44264855625002,
                    "velocity": 0.7637795275590551,
                },
                {
                    "duration": 0.1657985447916701,
                    "durationTicks": 191,
                    "midi": 35,
                    "name": "B1",
                    "ticks": 172477,
                    "time": 149.71955816770833,
                    "velocity": 0.8818897637795275,
                },
                {
                    "duration": 0.8333329999999819,
                    "durationTicks": 960,
                    "midi": 36,
                    "name": "C2",
                    "ticks": 172800,
                    "time": 149.99994,
                    "velocity": 0.8346456692913385,
                },
                {
                    "duration": 0.166666599999985,
                    "durationTicks": 192,
                    "midi": 36,
                    "name": "C2",
                    "ticks": 174078,
                    "time": 151.10931455625,
                    "velocity": 0.7401574803149606,
                },
                {
                    "duration": 0.1657985447916701,
                    "durationTicks": 191,
                    "midi": 48,
                    "name": "C3",
                    "ticks": 174397,
                    "time": 151.38622416770835,
                    "velocity": 0.8110236220472441,
                },
                {
                    "duration": 0.8333330000000103,
                    "durationTicks": 960,
                    "midi": 35,
                    "name": "B1",
                    "ticks": 174720,
                    "time": 151.666606,
                    "velocity": 0.6456692913385826,
                },
                {
                    "duration": 0.166666599999985,
                    "durationTicks": 192,
                    "midi": 35,
                    "name": "B1",
                    "ticks": 175998,
                    "time": 152.77598055625,
                    "velocity": 0.6377952755905512,
                },
                {
                    "duration": 0.1657985447916701,
                    "durationTicks": 191,
                    "midi": 47,
                    "name": "B2",
                    "ticks": 176317,
                    "time": 153.05289016770834,
                    "velocity": 0.7401574803149606,
                },
                {
                    "duration": 0.8333330000000103,
                    "durationTicks": 960,
                    "midi": 35,
                    "name": "B1",
                    "ticks": 176640,
                    "time": 153.333272,
                    "velocity": 0.5511811023622047,
                },
                {
                    "duration": 0.16666660000001343,
                    "durationTicks": 192,
                    "midi": 35,
                    "name": "B1",
                    "ticks": 177918,
                    "time": 154.44264655625,
                    "velocity": 0.5433070866141733,
                },
                {
                    "duration": 0.1657985447916701,
                    "durationTicks": 191,
                    "midi": 47,
                    "name": "B2",
                    "ticks": 178237,
                    "time": 154.71955616770833,
                    "velocity": 0.6299212598425197,
                },
                {
                    "duration": 0.8333330000000103,
                    "durationTicks": 960,
                    "midi": 33,
                    "name": "A1",
                    "ticks": 178560,
                    "time": 154.999938,
                    "velocity": 0.48031496062992124,
                },
                {
                    "duration": 0.166666599999985,
                    "durationTicks": 192,
                    "midi": 33,
                    "name": "A1",
                    "ticks": 179838,
                    "time": 156.10931255625002,
                    "velocity": 0.47244094488188976,
                },
                {
                    "duration": 0.1657985447916701,
                    "durationTicks": 191,
                    "midi": 45,
                    "name": "A2",
                    "ticks": 180157,
                    "time": 156.38622216770833,
                    "velocity": 0.5669291338582677,
                },
                {
                    "duration": 0.8333329999999819,
                    "durationTicks": 960,
                    "midi": 33,
                    "name": "A1",
                    "ticks": 180480,
                    "time": 156.666604,
                    "velocity": 0.41732283464566927,
                },
                {
                    "duration": 0.166666599999985,
                    "durationTicks": 192,
                    "midi": 33,
                    "name": "A1",
                    "ticks": 181758,
                    "time": 157.77597855625,
                    "velocity": 0.4094488188976378,
                },
                {
                    "duration": 0.1657985447916701,
                    "durationTicks": 191,
                    "midi": 45,
                    "name": "A2",
                    "ticks": 182077,
                    "time": 158.05288816770835,
                    "velocity": 0.5196850393700787,
                },
                {
                    "duration": 0.8333330000000103,
                    "durationTicks": 960,
                    "midi": 32,
                    "name": "G#1",
                    "ticks": 182400,
                    "time": 158.33327,
                    "velocity": 0.3858267716535433,
                },
                {
                    "duration": 0.166666599999985,
                    "durationTicks": 192,
                    "midi": 33,
                    "name": "A1",
                    "ticks": 183678,
                    "time": 159.44264455625,
                    "velocity": 0.3858267716535433,
                },
                {
                    "duration": 0.1657985447916701,
                    "durationTicks": 191,
                    "midi": 45,
                    "name": "A2",
                    "ticks": 183997,
                    "time": 159.71955416770834,
                    "velocity": 0.4566929133858268,
                },
                {
                    "duration": 0.8333330000000103,
                    "durationTicks": 960,
                    "midi": 28,
                    "name": "E1",
                    "ticks": 184320,
                    "time": 159.999936,
                    "velocity": 0.3464566929133858,
                },
                {
                    "duration": 0.16666660000001343,
                    "durationTicks": 192,
                    "midi": 28,
                    "name": "E1",
                    "ticks": 185598,
                    "time": 161.10931055625,
                    "velocity": 0.3464566929133858,
                },
                {
                    "duration": 0.1657985447916701,
                    "durationTicks": 191,
                    "midi": 40,
                    "name": "E2",
                    "ticks": 185917,
                    "time": 161.38622016770833,
                    "velocity": 0.4251968503937008,
                },
                {
                    "duration": 0.8333329999999819,
                    "durationTicks": 960,
                    "midi": 33,
                    "name": "A1",
                    "ticks": 186240,
                    "time": 161.666602,
                    "velocity": 0.3464566929133858,
                },
                {
                    "duration": 192.499923,
                    "durationTicks": 221760,
                    "midi": 28,
                    "name": "E1",
                    "ticks": 192000,
                    "time": 166.6666,
                    "velocity": 0.3543307086614173,
                },
                {
                    "duration": 0.1657985447916701,
                    "durationTicks": 191,
                    "midi": 48,
                    "name": "C3",
                    "ticks": 279997,
                    "time": 243.05285416770835,
                    "velocity": 0.7007874015748031,
                },
                {
                    "duration": 0.1657985447916701,
                    "durationTicks": 191,
                    "midi": 47,
                    "name": "B2",
                    "ticks": 280320,
                    "time": 243.333236,
                    "velocity": 0.7322834645669292,
                },
                {
                    "duration": 0.166666599999985,
                    "durationTicks": 192,
                    "midi": 45,
                    "name": "A2",
                    "ticks": 280638,
                    "time": 243.60927755625002,
                    "velocity": 0.7165354330708661,
                },
                {
                    "duration": 0.1657985447916701,
                    "durationTicks": 191,
                    "midi": 43,
                    "name": "G2",
                    "ticks": 280957,
                    "time": 243.88618716770833,
                    "velocity": 0.6929133858267716,
                },
                {
                    "duration": 0.1657985447916701,
                    "durationTicks": 191,
                    "midi": 41,
                    "name": "F2",
                    "ticks": 281280,
                    "time": 244.166569,
                    "velocity": 0.7480314960629921,
                },
                {
                    "duration": 0.166666599999985,
                    "durationTicks": 192,
                    "midi": 40,
                    "name": "E2",
                    "ticks": 281598,
                    "time": 244.44261055625,
                    "velocity": 0.7559055118110236,
                },
                {
                    "duration": 0.1657985447916701,
                    "durationTicks": 191,
                    "midi": 38,
                    "name": "D2",
                    "ticks": 281917,
                    "time": 244.71952016770834,
                    "velocity": 0.7559055118110236,
                },
                {
                    "duration": 0.1657985447916701,
                    "durationTicks": 191,
                    "midi": 36,
                    "name": "C2",
                    "ticks": 282240,
                    "time": 244.999902,
                    "velocity": 0.7716535433070866,
                },
                {
                    "duration": 0.166666599999985,
                    "durationTicks": 192,
                    "midi": 35,
                    "name": "B1",
                    "ticks": 282558,
                    "time": 245.27594355625,
                    "velocity": 0.7559055118110236,
                },
                {
                    "duration": 0.1657985447916701,
                    "durationTicks": 191,
                    "midi": 33,
                    "name": "A1",
                    "ticks": 282877,
                    "time": 245.55285316770835,
                    "velocity": 0.84251968503937,
                },
                {
                    "duration": 0.2473957343750044,
                    "durationTicks": 285,
                    "midi": 32,
                    "name": "G#1",
                    "ticks": 283200,
                    "time": 245.833235,
                    "velocity": 0.8582677165354331,
                },
                {
                    "duration": 0.2473957343750044,
                    "durationTicks": 285,
                    "midi": 32,
                    "name": "G#1",
                    "ticks": 283680,
                    "time": 246.2499015,
                    "velocity": 0.8740157480314961,
                },
                {
                    "duration": 0.8333329999999819,
                    "durationTicks": 960,
                    "midi": 45,
                    "name": "A2",
                    "ticks": 364800,
                    "time": 316.66654,
                    "velocity": 0.2992125984251969,
                },
                {
                    "duration": 0.2473957343750044,
                    "durationTicks": 285,
                    "midi": 45,
                    "name": "A2",
                    "ticks": 365760,
                    "time": 317.499873,
                    "velocity": 0.25196850393700787,
                },
                {
                    "duration": 0.2473957343750044,
                    "durationTicks": 285,
                    "midi": 47,
                    "name": "B2",
                    "ticks": 366240,
                    "time": 317.9165395,
                    "velocity": 0.2755905511811024,
                },
                {
                    "duration": 0.4973956343749819,
                    "durationTicks": 573,
                    "midi": 48,
                    "name": "C3",
                    "ticks": 366720,
                    "time": 318.333206,
                    "velocity": 0.25196850393700787,
                },
                {
                    "duration": 0.47135397812502333,
                    "durationTicks": 543,
                    "midi": 48,
                    "name": "C3",
                    "ticks": 367680,
                    "time": 319.166539,
                    "velocity": 0.28346456692913385,
                },
                {
                    "duration": 0.8333330000000387,
                    "durationTicks": 960,
                    "midi": 47,
                    "name": "B2",
                    "ticks": 368640,
                    "time": 319.999872,
                    "velocity": 0.2755905511811024,
                },
                {
                    "duration": 0.24739573437494755,
                    "durationTicks": 285,
                    "midi": 47,
                    "name": "B2",
                    "ticks": 369600,
                    "time": 320.833205,
                    "velocity": 0.2677165354330709,
                },
                {
                    "duration": 0.2473957343750044,
                    "durationTicks": 285,
                    "midi": 49,
                    "name": "C#3",
                    "ticks": 370080,
                    "time": 321.2498715,
                    "velocity": 0.29133858267716534,
                },
                {
                    "duration": 0.2473957343750044,
                    "durationTicks": 285,
                    "midi": 50,
                    "name": "D3",
                    "ticks": 370560,
                    "time": 321.666538,
                    "velocity": 0.2992125984251969,
                },
                {
                    "duration": 0.24739573437494755,
                    "durationTicks": 285,
                    "midi": 48,
                    "name": "C3",
                    "ticks": 371040,
                    "time": 322.0832045,
                    "velocity": 0.25196850393700787,
                },
                {
                    "duration": 0.2473957343750044,
                    "durationTicks": 285,
                    "midi": 47,
                    "name": "B2",
                    "ticks": 371520,
                    "time": 322.499871,
                    "velocity": 0.25984251968503935,
                },
                {
                    "duration": 0.2473957343750044,
                    "durationTicks": 285,
                    "midi": 45,
                    "name": "A2",
                    "ticks": 372000,
                    "time": 322.9165375,
                    "velocity": 0.2440944881889764,
                },
                {
                    "duration": 0.12326383958333054,
                    "durationTicks": 142,
                    "midi": 43,
                    "name": "G2",
                    "ticks": 372480,
                    "time": 323.333204,
                    "velocity": 0.28346456692913385,
                },
                {
                    "duration": 0.12326383958338738,
                    "durationTicks": 142,
                    "midi": 45,
                    "name": "A2",
                    "ticks": 372720,
                    "time": 323.54153725,
                    "velocity": 0.29133858267716534,
                },
                {
                    "duration": 0.12326383958333054,
                    "durationTicks": 142,
                    "midi": 47,
                    "name": "B2",
                    "ticks": 372960,
                    "time": 323.7498705,
                    "velocity": 0.2992125984251969,
                },
                {
                    "duration": 0.12326383958333054,
                    "durationTicks": 142,
                    "midi": 45,
                    "name": "A2",
                    "ticks": 373200,
                    "time": 323.95820375,
                    "velocity": 0.23622047244094488,
                },
                {
                    "duration": 0.12326383958333054,
                    "durationTicks": 142,
                    "midi": 43,
                    "name": "G2",
                    "ticks": 373440,
                    "time": 324.166537,
                    "velocity": 0.2755905511811024,
                },
                {
                    "duration": 0.12326383958333054,
                    "durationTicks": 142,
                    "midi": 45,
                    "name": "A2",
                    "ticks": 373680,
                    "time": 324.37487025,
                    "velocity": 0.31496062992125984,
                },
                {
                    "duration": 0.12326383958333054,
                    "durationTicks": 142,
                    "midi": 43,
                    "name": "G2",
                    "ticks": 373920,
                    "time": 324.5832035,
                    "velocity": 0.2992125984251969,
                },
                {
                    "duration": 0.12326383958333054,
                    "durationTicks": 142,
                    "midi": 42,
                    "name": "F#2",
                    "ticks": 374160,
                    "time": 324.79153675,
                    "velocity": 0.25196850393700787,
                },
                {
                    "duration": 0.12326383958333054,
                    "durationTicks": 142,
                    "midi": 40,
                    "name": "E2",
                    "ticks": 374400,
                    "time": 324.99987,
                    "velocity": 0.28346456692913385,
                },
                {
                    "duration": 0.12326383958333054,
                    "durationTicks": 142,
                    "midi": 42,
                    "name": "F#2",
                    "ticks": 374640,
                    "time": 325.20820325,
                    "velocity": 0.25196850393700787,
                },
                {
                    "duration": 0.12326383958333054,
                    "durationTicks": 142,
                    "midi": 43,
                    "name": "G2",
                    "ticks": 374880,
                    "time": 325.4165365,
                    "velocity": 0.2992125984251969,
                },
                {
                    "duration": 0.12326383958333054,
                    "durationTicks": 142,
                    "midi": 45,
                    "name": "A2",
                    "ticks": 375120,
                    "time": 325.62486975,
                    "velocity": 0.29133858267716534,
                },
                {
                    "duration": 0.12326383958338738,
                    "durationTicks": 142,
                    "midi": 47,
                    "name": "B2",
                    "ticks": 375360,
                    "time": 325.83320299999997,
                    "velocity": 0.2992125984251969,
                },
                {
                    "duration": 0.12326383958333054,
                    "durationTicks": 142,
                    "midi": 49,
                    "name": "C#3",
                    "ticks": 375600,
                    "time": 326.04153625,
                    "velocity": 0.28346456692913385,
                },
                {
                    "duration": 0.12326383958333054,
                    "durationTicks": 142,
                    "midi": 51,
                    "name": "D#3",
                    "ticks": 375840,
                    "time": 326.2498695,
                    "velocity": 0.28346456692913385,
                },
                {
                    "duration": 0.12326383958333054,
                    "durationTicks": 142,
                    "midi": 52,
                    "name": "E3",
                    "ticks": 376080,
                    "time": 326.45820275,
                    "velocity": 0.3228346456692913,
                },
                {
                    "duration": 0.12326383958333054,
                    "durationTicks": 142,
                    "midi": 52,
                    "name": "E3",
                    "ticks": 376320,
                    "time": 326.666536,
                    "velocity": 0.29133858267716534,
                },
                {
                    "duration": 0.12326383958333054,
                    "durationTicks": 142,
                    "midi": 45,
                    "name": "A2",
                    "ticks": 376560,
                    "time": 326.87486925,
                    "velocity": 0.2440944881889764,
                },
                {
                    "duration": 0.12326383958338738,
                    "durationTicks": 142,
                    "midi": 47,
                    "name": "B2",
                    "ticks": 376800,
                    "time": 327.08320249999997,
                    "velocity": 0.2755905511811024,
                },
                {
                    "duration": 0.12326383958333054,
                    "durationTicks": 142,
                    "midi": 49,
                    "name": "C#3",
                    "ticks": 377040,
                    "time": 327.29153575,
                    "velocity": 0.28346456692913385,
                },
                {
                    "duration": 0.12326383958333054,
                    "durationTicks": 142,
                    "midi": 50,
                    "name": "D3",
                    "ticks": 377280,
                    "time": 327.499869,
                    "velocity": 0.3228346456692913,
                },
                {
                    "duration": 0.12326383958333054,
                    "durationTicks": 142,
                    "midi": 47,
                    "name": "B2",
                    "ticks": 377520,
                    "time": 327.70820225,
                    "velocity": 0.25196850393700787,
                },
                {
                    "duration": 0.12326383958333054,
                    "durationTicks": 142,
                    "midi": 52,
                    "name": "E3",
                    "ticks": 377760,
                    "time": 327.9165355,
                    "velocity": 0.28346456692913385,
                },
                {
                    "duration": 0.12326383958333054,
                    "durationTicks": 142,
                    "midi": 50,
                    "name": "D3",
                    "ticks": 378000,
                    "time": 328.12486875,
                    "velocity": 0.28346456692913385,
                },
                {
                    "duration": 0.12326383958338738,
                    "durationTicks": 142,
                    "midi": 48,
                    "name": "C3",
                    "ticks": 378240,
                    "time": 328.33320199999997,
                    "velocity": 0.28346456692913385,
                },
                {
                    "duration": 0.12326383958333054,
                    "durationTicks": 142,
                    "midi": 47,
                    "name": "B2",
                    "ticks": 378480,
                    "time": 328.54153525,
                    "velocity": 0.23622047244094488,
                },
                {
                    "duration": 0.12326383958333054,
                    "durationTicks": 142,
                    "midi": 48,
                    "name": "C3",
                    "ticks": 378720,
                    "time": 328.7498685,
                    "velocity": 0.28346456692913385,
                },
                {
                    "duration": 0.12326383958333054,
                    "durationTicks": 142,
                    "midi": 50,
                    "name": "D3",
                    "ticks": 378960,
                    "time": 328.95820175,
                    "velocity": 0.29133858267716534,
                },
                {
                    "duration": 0.12326383958333054,
                    "durationTicks": 142,
                    "midi": 52,
                    "name": "E3",
                    "ticks": 379200,
                    "time": 329.166535,
                    "velocity": 0.2992125984251969,
                },
                {
                    "duration": 0.12326383958333054,
                    "durationTicks": 142,
                    "midi": 40,
                    "name": "E2",
                    "ticks": 379440,
                    "time": 329.37486825,
                    "velocity": 0.2283464566929134,
                },
                {
                    "duration": 0.12326383958338738,
                    "durationTicks": 142,
                    "midi": 42,
                    "name": "F#2",
                    "ticks": 379680,
                    "time": 329.5832015,
                    "velocity": 0.28346456692913385,
                },
                {
                    "duration": 0.12326383958333054,
                    "durationTicks": 142,
                    "midi": 44,
                    "name": "G#2",
                    "ticks": 379920,
                    "time": 329.79153475,
                    "velocity": 0.30708661417322836,
                },
                {
                    "duration": 0.2473957343750044,
                    "durationTicks": 285,
                    "midi": 45,
                    "name": "A2",
                    "ticks": 380160,
                    "time": 329.999868,
                    "velocity": 0.25984251968503935,
                },
                {
                    "duration": 0.2473957343750044,
                    "durationTicks": 285,
                    "midi": 43,
                    "name": "G2",
                    "ticks": 380640,
                    "time": 330.4165345,
                    "velocity": 0.25984251968503935,
                },
                {
                    "duration": 0.2473957343750044,
                    "durationTicks": 285,
                    "midi": 42,
                    "name": "F#2",
                    "ticks": 381120,
                    "time": 330.833201,
                    "velocity": 0.29133858267716534,
                },
                {
                    "duration": 0.2473957343750044,
                    "durationTicks": 285,
                    "midi": 40,
                    "name": "E2",
                    "ticks": 381600,
                    "time": 331.2498675,
                    "velocity": 0.2204724409448819,
                },
                {
                    "duration": 0.12326383958333054,
                    "durationTicks": 142,
                    "midi": 42,
                    "name": "F#2",
                    "ticks": 382080,
                    "time": 331.666534,
                    "velocity": 0.3464566929133858,
                },
                {
                    "duration": 0.12326383958333054,
                    "durationTicks": 142,
                    "midi": 42,
                    "name": "F#2",
                    "ticks": 382320,
                    "time": 331.87486725,
                    "velocity": 0.29133858267716534,
                },
                {
                    "duration": 0.12326383958338738,
                    "durationTicks": 142,
                    "midi": 43,
                    "name": "G2",
                    "ticks": 382560,
                    "time": 332.0832005,
                    "velocity": 0.28346456692913385,
                },
                {
                    "duration": 0.12326383958333054,
                    "durationTicks": 142,
                    "midi": 45,
                    "name": "A2",
                    "ticks": 382800,
                    "time": 332.29153375,
                    "velocity": 0.31496062992125984,
                },
                {
                    "duration": 0.12326383958333054,
                    "durationTicks": 142,
                    "midi": 38,
                    "name": "D2",
                    "ticks": 383040,
                    "time": 332.499867,
                    "velocity": 0.2204724409448819,
                },
                {
                    "duration": 0.12326383958333054,
                    "durationTicks": 142,
                    "midi": 38,
                    "name": "D2",
                    "ticks": 383280,
                    "time": 332.70820025,
                    "velocity": 0.2992125984251969,
                },
                {
                    "duration": 0.12326383958333054,
                    "durationTicks": 142,
                    "midi": 40,
                    "name": "E2",
                    "ticks": 383520,
                    "time": 332.9165335,
                    "velocity": 0.30708661417322836,
                },
                {
                    "duration": 0.12326383958333054,
                    "durationTicks": 142,
                    "midi": 42,
                    "name": "F#2",
                    "ticks": 383760,
                    "time": 333.12486675,
                    "velocity": 0.2755905511811024,
                },
                {
                    "duration": 0.2473957343750044,
                    "durationTicks": 285,
                    "midi": 43,
                    "name": "G2",
                    "ticks": 384000,
                    "time": 333.3332,
                    "velocity": 0.2677165354330709,
                },
                {
                    "duration": 0.2473957343750044,
                    "durationTicks": 285,
                    "midi": 41,
                    "name": "F2",
                    "ticks": 384480,
                    "time": 333.7498665,
                    "velocity": 0.25196850393700787,
                },
                {
                    "duration": 0.2473957343750044,
                    "durationTicks": 285,
                    "midi": 40,
                    "name": "E2",
                    "ticks": 384960,
                    "time": 334.166533,
                    "velocity": 0.2677165354330709,
                },
                {
                    "duration": 0.8333330000000387,
                    "durationTicks": 960,
                    "midi": 38,
                    "name": "D2",
                    "ticks": 385440,
                    "time": 334.5831995,
                    "velocity": 0.2677165354330709,
                },
                {
                    "duration": 0.8333329999999819,
                    "durationTicks": 960,
                    "midi": 36,
                    "name": "C2",
                    "ticks": 386400,
                    "time": 335.4165325,
                    "velocity": 0.2440944881889764,
                },
                {
                    "duration": 0.8333329999999819,
                    "durationTicks": 960,
                    "midi": 43,
                    "name": "G2",
                    "ticks": 387360,
                    "time": 336.2498655,
                    "velocity": 0.31496062992125984,
                },
                {
                    "duration": 0.8333330000000387,
                    "durationTicks": 960,
                    "midi": 36,
                    "name": "C2",
                    "ticks": 388320,
                    "time": 337.0831985,
                    "velocity": 0.25196850393700787,
                },
                {
                    "duration": 0.4166664999999625,
                    "durationTicks": 480,
                    "midi": 48,
                    "name": "C3",
                    "ticks": 389280,
                    "time": 337.9165315,
                    "velocity": 0.2992125984251969,
                },
                {
                    "duration": 0.8333329999999819,
                    "durationTicks": 960,
                    "midi": 50,
                    "name": "D3",
                    "ticks": 393600,
                    "time": 341.66653,
                    "velocity": 0.29133858267716534,
                },
                {
                    "duration": 0.2473957343750044,
                    "durationTicks": 285,
                    "midi": 50,
                    "name": "D3",
                    "ticks": 394560,
                    "time": 342.499863,
                    "velocity": 0.25984251968503935,
                },
                {
                    "duration": 0.24739573437494755,
                    "durationTicks": 285,
                    "midi": 52,
                    "name": "E3",
                    "ticks": 395040,
                    "time": 342.9165295,
                    "velocity": 0.30708661417322836,
                },
                {
                    "duration": 0.49739563437503875,
                    "durationTicks": 573,
                    "midi": 53,
                    "name": "F3",
                    "ticks": 395520,
                    "time": 343.333196,
                    "velocity": 0.2755905511811024,
                },
                {
                    "duration": 0.47135397812502333,
                    "durationTicks": 543,
                    "midi": 53,
                    "name": "F3",
                    "ticks": 396480,
                    "time": 344.16652899999997,
                    "velocity": 0.33070866141732286,
                },
                {
                    "duration": 0.12326383958333054,
                    "durationTicks": 142,
                    "midi": 41,
                    "name": "F2",
                    "ticks": 397440,
                    "time": 344.999862,
                    "velocity": 0.2677165354330709,
                },
                {
                    "duration": 0.12326383958333054,
                    "durationTicks": 142,
                    "midi": 40,
                    "name": "E2",
                    "ticks": 397680,
                    "time": 345.20819525,
                    "velocity": 0.25196850393700787,
                },
                {
                    "duration": 0.12326383958338738,
                    "durationTicks": 142,
                    "midi": 43,
                    "name": "G2",
                    "ticks": 397920,
                    "time": 345.41652849999997,
                    "velocity": 0.28346456692913385,
                },
                {
                    "duration": 0.12326383958333054,
                    "durationTicks": 142,
                    "midi": 41,
                    "name": "F2",
                    "ticks": 398160,
                    "time": 345.62486175,
                    "velocity": 0.2992125984251969,
                },
                {
                    "duration": 0.12326383958333054,
                    "durationTicks": 142,
                    "midi": 40,
                    "name": "E2",
                    "ticks": 398400,
                    "time": 345.833195,
                    "velocity": 0.28346456692913385,
                },
                {
                    "duration": 0.12326383958333054,
                    "durationTicks": 142,
                    "midi": 43,
                    "name": "G2",
                    "ticks": 398640,
                    "time": 346.04152825,
                    "velocity": 0.2755905511811024,
                },
                {
                    "duration": 0.12326383958333054,
                    "durationTicks": 142,
                    "midi": 41,
                    "name": "F2",
                    "ticks": 398880,
                    "time": 346.2498615,
                    "velocity": 0.25196850393700787,
                },
                {
                    "duration": 0.12326383958333054,
                    "durationTicks": 142,
                    "midi": 40,
                    "name": "E2",
                    "ticks": 399120,
                    "time": 346.45819475,
                    "velocity": 0.28346456692913385,
                },
                {
                    "duration": 0.12326383958338738,
                    "durationTicks": 142,
                    "midi": 38,
                    "name": "D2",
                    "ticks": 399360,
                    "time": 346.66652799999997,
                    "velocity": 0.2440944881889764,
                },
                {
                    "duration": 0.12326383958333054,
                    "durationTicks": 142,
                    "midi": 40,
                    "name": "E2",
                    "ticks": 399600,
                    "time": 346.87486125,
                    "velocity": 0.3228346456692913,
                },
                {
                    "duration": 0.12326383958333054,
                    "durationTicks": 142,
                    "midi": 41,
                    "name": "F2",
                    "ticks": 399840,
                    "time": 347.0831945,
                    "velocity": 0.31496062992125984,
                },
                {
                    "duration": 0.12326383958333054,
                    "durationTicks": 142,
                    "midi": 43,
                    "name": "G2",
                    "ticks": 400080,
                    "time": 347.29152775,
                    "velocity": 0.30708661417322836,
                },
                {
                    "duration": 0.12326383958333054,
                    "durationTicks": 142,
                    "midi": 45,
                    "name": "A2",
                    "ticks": 400320,
                    "time": 347.499861,
                    "velocity": 0.28346456692913385,
                },
                {
                    "duration": 0.12326383958333054,
                    "durationTicks": 142,
                    "midi": 47,
                    "name": "B2",
                    "ticks": 400560,
                    "time": 347.70819425,
                    "velocity": 0.2755905511811024,
                },
                {
                    "duration": 0.12326383958338738,
                    "durationTicks": 142,
                    "midi": 49,
                    "name": "C#3",
                    "ticks": 400800,
                    "time": 347.9165275,
                    "velocity": 0.2677165354330709,
                },
                {
                    "duration": 0.12326383958333054,
                    "durationTicks": 142,
                    "midi": 50,
                    "name": "D3",
                    "ticks": 401040,
                    "time": 348.12486075,
                    "velocity": 0.29133858267716534,
                },
                {
                    "duration": 0.12326383958333054,
                    "durationTicks": 142,
                    "midi": 50,
                    "name": "D3",
                    "ticks": 401280,
                    "time": 348.333194,
                    "velocity": 0.31496062992125984,
                },
                {
                    "duration": 0.12326383958333054,
                    "durationTicks": 142,
                    "midi": 38,
                    "name": "D2",
                    "ticks": 401520,
                    "time": 348.54152725,
                    "velocity": 0.25196850393700787,
                },
                {
                    "duration": 0.12326383958333054,
                    "durationTicks": 142,
                    "midi": 38,
                    "name": "D2",
                    "ticks": 401760,
                    "time": 348.7498605,
                    "velocity": 0.30708661417322836,
                },
                {
                    "duration": 0.12326383958333054,
                    "durationTicks": 142,
                    "midi": 38,
                    "name": "D2",
                    "ticks": 402000,
                    "time": 348.95819375,
                    "velocity": 0.29133858267716534,
                },
                {
                    "duration": 0.12326383958338738,
                    "durationTicks": 142,
                    "midi": 38,
                    "name": "D2",
                    "ticks": 402240,
                    "time": 349.166527,
                    "velocity": 0.3543307086614173,
                },
                {
                    "duration": 0.12326383958333054,
                    "durationTicks": 142,
                    "midi": 38,
                    "name": "D2",
                    "ticks": 402480,
                    "time": 349.37486025,
                    "velocity": 0.3543307086614173,
                },
                {
                    "duration": 0.12326383958333054,
                    "durationTicks": 142,
                    "midi": 38,
                    "name": "D2",
                    "ticks": 402720,
                    "time": 349.5831935,
                    "velocity": 0.4251968503937008,
                },
                {
                    "duration": 0.12326383958333054,
                    "durationTicks": 142,
                    "midi": 38,
                    "name": "D2",
                    "ticks": 402960,
                    "time": 349.79152675,
                    "velocity": 0.41732283464566927,
                },
                {
                    "duration": 0.12326383958333054,
                    "durationTicks": 142,
                    "midi": 38,
                    "name": "D2",
                    "ticks": 403200,
                    "time": 349.99986,
                    "velocity": 0.3937007874015748,
                },
                {
                    "duration": 0.12326383958333054,
                    "durationTicks": 142,
                    "midi": 38,
                    "name": "D2",
                    "ticks": 403440,
                    "time": 350.20819325,
                    "velocity": 0.4251968503937008,
                },
                {
                    "duration": 0.12326383958338738,
                    "durationTicks": 142,
                    "midi": 38,
                    "name": "D2",
                    "ticks": 403680,
                    "time": 350.4165265,
                    "velocity": 0.4645669291338583,
                },
                {
                    "duration": 0.12326383958333054,
                    "durationTicks": 142,
                    "midi": 38,
                    "name": "D2",
                    "ticks": 403920,
                    "time": 350.62485975,
                    "velocity": 0.4881889763779528,
                },
                {
                    "duration": 0.12326383958333054,
                    "durationTicks": 142,
                    "midi": 38,
                    "name": "D2",
                    "ticks": 404160,
                    "time": 350.833193,
                    "velocity": 0.4645669291338583,
                },
                {
                    "duration": 0.12326383958333054,
                    "durationTicks": 142,
                    "midi": 38,
                    "name": "D2",
                    "ticks": 404400,
                    "time": 351.04152625,
                    "velocity": 0.5275590551181102,
                },
                {
                    "duration": 0.12326383958333054,
                    "durationTicks": 142,
                    "midi": 38,
                    "name": "D2",
                    "ticks": 404640,
                    "time": 351.2498595,
                    "velocity": 0.5118110236220472,
                },
                {
                    "duration": 0.12326383958333054,
                    "durationTicks": 142,
                    "midi": 38,
                    "name": "D2",
                    "ticks": 404880,
                    "time": 351.45819275,
                    "velocity": 0.5669291338582677,
                },
                {
                    "duration": 0.12326383958338738,
                    "durationTicks": 142,
                    "midi": 38,
                    "name": "D2",
                    "ticks": 405120,
                    "time": 351.666526,
                    "velocity": 0.5905511811023622,
                },
                {
                    "duration": 0.12326383958333054,
                    "durationTicks": 142,
                    "midi": 38,
                    "name": "D2",
                    "ticks": 405360,
                    "time": 351.87485925,
                    "velocity": 0.6062992125984252,
                },
                {
                    "duration": 0.12326383958333054,
                    "durationTicks": 142,
                    "midi": 38,
                    "name": "D2",
                    "ticks": 405600,
                    "time": 352.0831925,
                    "velocity": 0.6062992125984252,
                },
                {
                    "duration": 0.12326383958333054,
                    "durationTicks": 142,
                    "midi": 38,
                    "name": "D2",
                    "ticks": 405840,
                    "time": 352.29152575,
                    "velocity": 0.6220472440944882,
                },
                {
                    "duration": 0.12326383958333054,
                    "durationTicks": 142,
                    "midi": 38,
                    "name": "D2",
                    "ticks": 406080,
                    "time": 352.499859,
                    "velocity": 0.6771653543307087,
                },
                {
                    "duration": 0.12326383958338738,
                    "durationTicks": 142,
                    "midi": 38,
                    "name": "D2",
                    "ticks": 406320,
                    "time": 352.70819224999997,
                    "velocity": 0.6929133858267716,
                },
                {
                    "duration": 0.12326383958333054,
                    "durationTicks": 142,
                    "midi": 38,
                    "name": "D2",
                    "ticks": 406560,
                    "time": 352.9165255,
                    "velocity": 0.7244094488188977,
                },
                {
                    "duration": 0.12326383958333054,
                    "durationTicks": 142,
                    "midi": 38,
                    "name": "D2",
                    "ticks": 406800,
                    "time": 353.12485875,
                    "velocity": 0.7165354330708661,
                },
                {
                    "duration": 0.12326383958333054,
                    "durationTicks": 142,
                    "midi": 38,
                    "name": "D2",
                    "ticks": 407040,
                    "time": 353.333192,
                    "velocity": 0.7559055118110236,
                },
                {
                    "duration": 0.12326383958333054,
                    "durationTicks": 142,
                    "midi": 38,
                    "name": "D2",
                    "ticks": 407280,
                    "time": 353.54152525,
                    "velocity": 0.7559055118110236,
                },
                {
                    "duration": 0.12326383958333054,
                    "durationTicks": 142,
                    "midi": 38,
                    "name": "D2",
                    "ticks": 407520,
                    "time": 353.7498585,
                    "velocity": 0.7795275590551181,
                },
                {
                    "duration": 0.12326383958338738,
                    "durationTicks": 142,
                    "midi": 38,
                    "name": "D2",
                    "ticks": 407760,
                    "time": 353.95819174999997,
                    "velocity": 0.8031496062992126,
                },
                {
                    "duration": 0.12326383958333054,
                    "durationTicks": 142,
                    "midi": 38,
                    "name": "D2",
                    "ticks": 408000,
                    "time": 354.166525,
                    "velocity": 0.8188976377952756,
                },
                {
                    "duration": 0.12326383958333054,
                    "durationTicks": 142,
                    "midi": 38,
                    "name": "D2",
                    "ticks": 408240,
                    "time": 354.37485825,
                    "velocity": 0.8503937007874016,
                },
                {
                    "duration": 0.12326383958333054,
                    "durationTicks": 142,
                    "midi": 36,
                    "name": "C2",
                    "ticks": 408480,
                    "time": 354.5831915,
                    "velocity": 0.8267716535433071,
                },
                {
                    "duration": 0.12326383958333054,
                    "durationTicks": 142,
                    "midi": 35,
                    "name": "B1",
                    "ticks": 408720,
                    "time": 354.79152475,
                    "velocity": 0.8582677165354331,
                },
                {
                    "duration": 0.8333329999999819,
                    "durationTicks": 960,
                    "midi": 33,
                    "name": "A1",
                    "ticks": 408960,
                    "time": 354.999858,
                    "velocity": 0.8661417322834646,
                },
                {
                    "duration": 0.2473957343750044,
                    "durationTicks": 285,
                    "midi": 33,
                    "name": "A1",
                    "ticks": 409920,
                    "time": 355.833191,
                    "velocity": 0.889763779527559,
                },
                {
                    "duration": 0.2473957343750044,
                    "durationTicks": 285,
                    "midi": 33,
                    "name": "A1",
                    "ticks": 410400,
                    "time": 356.2498575,
                    "velocity": 0.8818897637795275,
                },
                {
                    "duration": 0.49739563437503875,
                    "durationTicks": 573,
                    "midi": 32,
                    "name": "G#1",
                    "ticks": 410880,
                    "time": 356.666524,
                    "velocity": 0.8503937007874016,
                },
                {
                    "duration": 0.4713539781249665,
                    "durationTicks": 543,
                    "midi": 32,
                    "name": "G#1",
                    "ticks": 411840,
                    "time": 357.499857,
                    "velocity": 0.8740157480314961,
                },
                {
                    "duration": 1.0807287343749863,
                    "durationTicks": 1245,
                    "midi": 28,
                    "name": "E1",
                    "ticks": 412800,
                    "time": 358.33319,
                    "velocity": 0.8503937007874016,
                },
                {
                    "duration": 0.6640622343750238,
                    "durationTicks": 765,
                    "midi": 28,
                    "name": "E1",
                    "ticks": 413760,
                    "time": 359.166523,
                    "velocity": 0.8661417322834646,
                },
                {
                    "duration": 6.249997500000006,
                    "durationTicks": 7200,
                    "midi": 28,
                    "name": "E1",
                    "ticks": 414240,
                    "time": 359.5831895,
                    "velocity": 0.905511811023622,
                },
                {
                    "duration": 0.4973956343749819,
                    "durationTicks": 573,
                    "midi": 33,
                    "name": "A1",
                    "ticks": 414720,
                    "time": 359.999856,
                    "velocity": 0.9291338582677166,
                },
                {
                    "duration": 0.47135397812502333,
                    "durationTicks": 543,
                    "midi": 33,
                    "name": "A1",
                    "ticks": 415680,
                    "time": 360.833189,
                    "velocity": 0.889763779527559,
                },
                {
                    "duration": 0.8333329999999819,
                    "durationTicks": 960,
                    "midi": 33,
                    "name": "A1",
                    "ticks": 416640,
                    "time": 361.666522,
                    "velocity": 0.889763779527559,
                },
                {
                    "duration": 0.2473957343750044,
                    "durationTicks": 285,
                    "midi": 33,
                    "name": "A1",
                    "ticks": 417600,
                    "time": 362.49985499999997,
                    "velocity": 0.8661417322834646,
                },
                {
                    "duration": 0.2473957343750044,
                    "durationTicks": 285,
                    "midi": 33,
                    "name": "A1",
                    "ticks": 418080,
                    "time": 362.9165215,
                    "velocity": 0.8976377952755905,
                },
                {
                    "duration": 0.5078122968749881,
                    "durationTicks": 585,
                    "midi": 32,
                    "name": "G#1",
                    "ticks": 418560,
                    "time": 363.333188,
                    "velocity": 0.8582677165354331,
                },
                {
                    "duration": 0.47135397812502333,
                    "durationTicks": 543,
                    "midi": 33,
                    "name": "A1",
                    "ticks": 419520,
                    "time": 364.166521,
                    "velocity": 0.937007874015748,
                },
                {
                    "duration": 0.2473957343750044,
                    "durationTicks": 285,
                    "midi": 40,
                    "name": "E2",
                    "ticks": 421440,
                    "time": 365.833187,
                    "velocity": 1,
                },
                {
                    "duration": 0.2473957343750044,
                    "durationTicks": 285,
                    "midi": 40,
                    "name": "E2",
                    "ticks": 421920,
                    "time": 366.2498535,
                    "velocity": 0.8976377952755905,
                },
                {
                    "duration": 0.8333329999999819,
                    "durationTicks": 960,
                    "midi": 33,
                    "name": "A1",
                    "ticks": 422400,
                    "time": 366.66652,
                    "velocity": 0.8031496062992126,
                },
                {
                    "duration": 1.6987840427083256,
                    "durationTicks": 1957,
                    "midi": 45,
                    "name": "A2",
                    "ticks": 464640,
                    "time": 403.333172,
                    "velocity": 0.2440944881889764,
                },
                {
                    "duration": 1.6987840427083256,
                    "durationTicks": 1957,
                    "midi": 41,
                    "name": "F2",
                    "ticks": 466560,
                    "time": 404.999838,
                    "velocity": 0.1968503937007874,
                },
                {
                    "duration": 1.6987840427083825,
                    "durationTicks": 1957,
                    "midi": 40,
                    "name": "E2",
                    "ticks": 468480,
                    "time": 406.666504,
                    "velocity": 0.2677165354330709,
                },
                {
                    "duration": 1.5815965895833415,
                    "durationTicks": 1822,
                    "midi": 38,
                    "name": "D2",
                    "ticks": 470400,
                    "time": 408.33317,
                    "velocity": 0.2755905511811024,
                },
                {
                    "duration": 0.4166664999999625,
                    "durationTicks": 480,
                    "midi": 31,
                    "name": "G1",
                    "ticks": 472320,
                    "time": 409.999836,
                    "velocity": 0.7952755905511811,
                },
                {
                    "duration": 0.41666650000001937,
                    "durationTicks": 480,
                    "midi": 43,
                    "name": "G2",
                    "ticks": 473280,
                    "time": 410.833169,
                    "velocity": 0.7795275590551181,
                },
                {
                    "duration": 0.8333330000000387,
                    "durationTicks": 960,
                    "midi": 36,
                    "name": "C2",
                    "ticks": 474240,
                    "time": 411.666502,
                    "velocity": 0.7874015748031497,
                },
                {
                    "duration": 0.8333329999999819,
                    "durationTicks": 960,
                    "midi": 40,
                    "name": "E2",
                    "ticks": 476160,
                    "time": 413.333168,
                    "velocity": 0.31496062992125984,
                },
                {
                    "duration": 0.2473957343750044,
                    "durationTicks": 285,
                    "midi": 40,
                    "name": "E2",
                    "ticks": 477120,
                    "time": 414.166501,
                    "velocity": 0.4094488188976378,
                },
                {
                    "duration": 0.2473957343750044,
                    "durationTicks": 285,
                    "midi": 40,
                    "name": "E2",
                    "ticks": 477600,
                    "time": 414.5831675,
                    "velocity": 0.3543307086614173,
                },
                {
                    "duration": 0.4166664999999625,
                    "durationTicks": 480,
                    "midi": 33,
                    "name": "A1",
                    "ticks": 478080,
                    "time": 414.999834,
                    "velocity": 0.33858267716535434,
                },
                {
                    "duration": 0.41666650000001937,
                    "durationTicks": 480,
                    "midi": 31,
                    "name": "G1",
                    "ticks": 480000,
                    "time": 416.6665,
                    "velocity": 0.7952755905511811,
                },
                {
                    "duration": 0.41666650000001937,
                    "durationTicks": 480,
                    "midi": 43,
                    "name": "G2",
                    "ticks": 480960,
                    "time": 417.49983299999997,
                    "velocity": 0.8031496062992126,
                },
                {
                    "duration": 0.8333329999999819,
                    "durationTicks": 960,
                    "midi": 36,
                    "name": "C2",
                    "ticks": 481920,
                    "time": 418.333166,
                    "velocity": 0.7637795275590551,
                },
                {
                    "duration": 0.8333330000000387,
                    "durationTicks": 960,
                    "midi": 40,
                    "name": "E2",
                    "ticks": 483840,
                    "time": 419.99983199999997,
                    "velocity": 0.3464566929133858,
                },
                {
                    "duration": 0.2473957343750044,
                    "durationTicks": 285,
                    "midi": 40,
                    "name": "E2",
                    "ticks": 484800,
                    "time": 420.833165,
                    "velocity": 0.36220472440944884,
                },
                {
                    "duration": 0.2473957343750044,
                    "durationTicks": 285,
                    "midi": 40,
                    "name": "E2",
                    "ticks": 485280,
                    "time": 421.24983149999997,
                    "velocity": 0.3779527559055118,
                },
                {
                    "duration": 0.967741999999987,
                    "durationTicks": 960,
                    "midi": 33,
                    "name": "A1",
                    "ticks": 528000,
                    "time": 458.33315,
                    "velocity": 0.6614173228346457,
                },
            ],
        },
        {
            "channel": 10,
            "controlChanges": {
                "7": [
                    {"number": 7, "ticks": 0, "time": 0, "value": 0.6929133858267716},
                    {
                        "number": 7,
                        "ticks": 279030,
                        "time": 242.21344478125,
                        "value": 0.6929133858267716,
                    },
                    {
                        "number": 7,
                        "ticks": 364800,
                        "time": 316.66654,
                        "value": 0.6929133858267716,
                    },
                    {
                        "number": 7,
                        "ticks": 464640,
                        "time": 403.333172,
                        "value": 0.6929133858267716,
                    },
                    {
                        "number": 7,
                        "ticks": 528000,
                        "time": 458.33315,
                        "value": 0.6929133858267716,
                    },
                ],
                "10": [
                    {"number": 10, "ticks": 0, "time": 0, "value": 0.7480314960629921},
                    {
                        "number": 10,
                        "ticks": 279030,
                        "time": 242.21344478125,
                        "value": 0.7480314960629921,
                    },
                    {
                        "number": 10,
                        "ticks": 364800,
                        "time": 316.66654,
                        "value": 0.7480314960629921,
                    },
                    {
                        "number": 10,
                        "ticks": 464640,
                        "time": 403.333172,
                        "value": 0.7480314960629921,
                    },
                    {
                        "number": 10,
                        "ticks": 528000,
                        "time": 458.33315,
                        "value": 0.7480314960629921,
                    },
                ],
                "64": [{"number": 64, "ticks": 0, "time": 0, "value": 0}],
                "91": [
                    {"number": 91, "ticks": 0, "time": 0, "value": 0.44881889763779526},
                    {
                        "number": 91,
                        "ticks": 279030,
                        "time": 242.21344478125,
                        "value": 0.4645669291338583,
                    },
                    {
                        "number": 91,
                        "ticks": 364800,
                        "time": 316.66654,
                        "value": 0.4645669291338583,
                    },
                    {
                        "number": 91,
                        "ticks": 464640,
                        "time": 403.333172,
                        "value": 0.4645669291338583,
                    },
                    {
                        "number": 91,
                        "ticks": 528000,
                        "time": 458.33315,
                        "value": 0.4645669291338583,
                    },
                ],
                "121": [{"number": 121, "ticks": 0, "time": 0, "value": 0}],
            },
            "pitchBends": [],
            "instrument": {
                "family": "ensemble",
                "number": 48,
                "name": "string ensemble 1",
            },
            "name": "",
            "notes": [
                {
                    "duration": 0.8333330000000001,
                    "durationTicks": 960,
                    "midi": 48,
                    "name": "C3",
                    "ticks": 3840,
                    "time": 3.333332,
                    "velocity": 0.3858267716535433,
                },
                {
                    "duration": 0.24739573437499995,
                    "durationTicks": 285,
                    "midi": 48,
                    "name": "C3",
                    "ticks": 4800,
                    "time": 4.166665,
                    "velocity": 0.3779527559055118,
                },
                {
                    "duration": 0.24739573437499995,
                    "durationTicks": 285,
                    "midi": 48,
                    "name": "C3",
                    "ticks": 5280,
                    "time": 4.5833315,
                    "velocity": 0.36220472440944884,
                },
                {
                    "duration": 0.4973956343749997,
                    "durationTicks": 573,
                    "midi": 47,
                    "name": "B2",
                    "ticks": 5760,
                    "time": 4.999998,
                    "velocity": 0.3464566929133858,
                },
                {
                    "duration": 0.47135397812499935,
                    "durationTicks": 543,
                    "midi": 47,
                    "name": "B2",
                    "ticks": 6720,
                    "time": 5.833331,
                    "velocity": 0.36220472440944884,
                },
                {
                    "duration": 0.8333329999999997,
                    "durationTicks": 960,
                    "midi": 47,
                    "name": "B2",
                    "ticks": 7680,
                    "time": 6.666664,
                    "velocity": 0.3779527559055118,
                },
                {
                    "duration": 0.24739573437499995,
                    "durationTicks": 285,
                    "midi": 47,
                    "name": "B2",
                    "ticks": 8640,
                    "time": 7.499997,
                    "velocity": 0.3779527559055118,
                },
                {
                    "duration": 0.24739573437499907,
                    "durationTicks": 285,
                    "midi": 47,
                    "name": "B2",
                    "ticks": 9120,
                    "time": 7.9166635,
                    "velocity": 0.3779527559055118,
                },
                {
                    "duration": 0.4973956343749997,
                    "durationTicks": 573,
                    "midi": 48,
                    "name": "C3",
                    "ticks": 9600,
                    "time": 8.33333,
                    "velocity": 0.3937007874015748,
                },
                {
                    "duration": 0.47135397812500024,
                    "durationTicks": 543,
                    "midi": 48,
                    "name": "C3",
                    "ticks": 10560,
                    "time": 9.166663,
                    "velocity": 0.36220472440944884,
                },
                {
                    "duration": 0.8333329999999997,
                    "durationTicks": 960,
                    "midi": 48,
                    "name": "C3",
                    "ticks": 11520,
                    "time": 9.999996,
                    "velocity": 0.36220472440944884,
                },
                {
                    "duration": 0.24739573437500084,
                    "durationTicks": 285,
                    "midi": 48,
                    "name": "C3",
                    "ticks": 12480,
                    "time": 10.833328999999999,
                    "velocity": 0.4015748031496063,
                },
                {
                    "duration": 0.24739573437499907,
                    "durationTicks": 285,
                    "midi": 48,
                    "name": "C3",
                    "ticks": 12960,
                    "time": 11.2499955,
                    "velocity": 0.3700787401574803,
                },
                {
                    "duration": 0.4973956343749997,
                    "durationTicks": 573,
                    "midi": 48,
                    "name": "C3",
                    "ticks": 13440,
                    "time": 11.666662,
                    "velocity": 0.3700787401574803,
                },
                {
                    "duration": 0.47135397812500024,
                    "durationTicks": 543,
                    "midi": 48,
                    "name": "C3",
                    "ticks": 14400,
                    "time": 12.499995,
                    "velocity": 0.3464566929133858,
                },
                {
                    "duration": 0.8333329999999997,
                    "durationTicks": 960,
                    "midi": 47,
                    "name": "B2",
                    "ticks": 15360,
                    "time": 13.333328,
                    "velocity": 0.33858267716535434,
                },
                {
                    "duration": 0.24739573437500084,
                    "durationTicks": 285,
                    "midi": 45,
                    "name": "A2",
                    "ticks": 16320,
                    "time": 14.166661,
                    "velocity": 0.3700787401574803,
                },
                {
                    "duration": 0.24739573437500084,
                    "durationTicks": 285,
                    "midi": 47,
                    "name": "B2",
                    "ticks": 16800,
                    "time": 14.5833275,
                    "velocity": 0.36220472440944884,
                },
                {
                    "duration": 0.8333330000000014,
                    "durationTicks": 960,
                    "midi": 48,
                    "name": "C3",
                    "ticks": 17280,
                    "time": 14.999994,
                    "velocity": 0.3779527559055118,
                },
                {
                    "duration": 0.8333329999999997,
                    "durationTicks": 960,
                    "midi": 52,
                    "name": "E3",
                    "ticks": 19200,
                    "time": 16.66666,
                    "velocity": 0.33858267716535434,
                },
                {
                    "duration": 0.24739573437500084,
                    "durationTicks": 285,
                    "midi": 52,
                    "name": "E3",
                    "ticks": 20160,
                    "time": 17.499993,
                    "velocity": 0.36220472440944884,
                },
                {
                    "duration": 0.2473957343749973,
                    "durationTicks": 285,
                    "midi": 52,
                    "name": "E3",
                    "ticks": 20640,
                    "time": 17.9166595,
                    "velocity": 0.3700787401574803,
                },
                {
                    "duration": 0.4973956343749997,
                    "durationTicks": 573,
                    "midi": 51,
                    "name": "D#3",
                    "ticks": 21120,
                    "time": 18.333326,
                    "velocity": 0.3858267716535433,
                },
                {
                    "duration": 0.471353978125002,
                    "durationTicks": 543,
                    "midi": 51,
                    "name": "D#3",
                    "ticks": 22080,
                    "time": 19.166659,
                    "velocity": 0.36220472440944884,
                },
                {
                    "duration": 0.8333329999999997,
                    "durationTicks": 960,
                    "midi": 50,
                    "name": "D3",
                    "ticks": 23040,
                    "time": 19.999992,
                    "velocity": 0.36220472440944884,
                },
                {
                    "duration": 0.24739573437500084,
                    "durationTicks": 285,
                    "midi": 50,
                    "name": "D3",
                    "ticks": 24000,
                    "time": 20.833325,
                    "velocity": 0.3779527559055118,
                },
                {
                    "duration": 0.24739573437500084,
                    "durationTicks": 285,
                    "midi": 50,
                    "name": "D3",
                    "ticks": 24480,
                    "time": 21.2499915,
                    "velocity": 0.4094488188976378,
                },
                {
                    "duration": 0.5078122968750023,
                    "durationTicks": 585,
                    "midi": 49,
                    "name": "C#3",
                    "ticks": 24960,
                    "time": 21.666657999999998,
                    "velocity": 0.36220472440944884,
                },
                {
                    "duration": 0.47135397812499846,
                    "durationTicks": 543,
                    "midi": 48,
                    "name": "C3",
                    "ticks": 25920,
                    "time": 22.499991,
                    "velocity": 0.3779527559055118,
                },
                {
                    "duration": 0.8333329999999997,
                    "durationTicks": 960,
                    "midi": 48,
                    "name": "C3",
                    "ticks": 26880,
                    "time": 23.333324,
                    "velocity": 0.36220472440944884,
                },
                {
                    "duration": 0.2473957343749973,
                    "durationTicks": 285,
                    "midi": 48,
                    "name": "C3",
                    "ticks": 27840,
                    "time": 24.166657,
                    "velocity": 0.3700787401574803,
                },
                {
                    "duration": 0.24739573437500084,
                    "durationTicks": 285,
                    "midi": 48,
                    "name": "C3",
                    "ticks": 28320,
                    "time": 24.5833235,
                    "velocity": 0.3937007874015748,
                },
                {
                    "duration": 0.5078122968749987,
                    "durationTicks": 585,
                    "midi": 47,
                    "name": "B2",
                    "ticks": 28800,
                    "time": 24.99999,
                    "velocity": 0.3543307086614173,
                },
                {
                    "duration": 0.471353978125002,
                    "durationTicks": 543,
                    "midi": 48,
                    "name": "C3",
                    "ticks": 29760,
                    "time": 25.833323,
                    "velocity": 0.3937007874015748,
                },
                {
                    "duration": 0.8333329999999997,
                    "durationTicks": 960,
                    "midi": 47,
                    "name": "B2",
                    "ticks": 30720,
                    "time": 26.666656,
                    "velocity": 0.3543307086614173,
                },
                {
                    "duration": 0.24739573437500084,
                    "durationTicks": 285,
                    "midi": 47,
                    "name": "B2",
                    "ticks": 31680,
                    "time": 27.499989,
                    "velocity": 0.3779527559055118,
                },
                {
                    "duration": 0.2473957343749973,
                    "durationTicks": 285,
                    "midi": 47,
                    "name": "B2",
                    "ticks": 32160,
                    "time": 27.9166555,
                    "velocity": 0.3779527559055118,
                },
                {
                    "duration": 0.8333329999999997,
                    "durationTicks": 960,
                    "midi": 48,
                    "name": "C3",
                    "ticks": 32640,
                    "time": 28.333322,
                    "velocity": 0.3937007874015748,
                },
                {
                    "duration": 0.8333329999999997,
                    "durationTicks": 960,
                    "midi": 52,
                    "name": "E3",
                    "ticks": 34560,
                    "time": 29.999988,
                    "velocity": 0.23622047244094488,
                },
                {
                    "duration": 0.24739573437500084,
                    "durationTicks": 285,
                    "midi": 52,
                    "name": "E3",
                    "ticks": 35520,
                    "time": 30.833320999999998,
                    "velocity": 0.2677165354330709,
                },
                {
                    "duration": 0.24739573437500084,
                    "durationTicks": 285,
                    "midi": 52,
                    "name": "E3",
                    "ticks": 36000,
                    "time": 31.2499875,
                    "velocity": 0.3228346456692913,
                },
                {
                    "duration": 0.4973956343749961,
                    "durationTicks": 573,
                    "midi": 51,
                    "name": "D#3",
                    "ticks": 36480,
                    "time": 31.666654,
                    "velocity": 0.30708661417322836,
                },
                {
                    "duration": 0.471353978125002,
                    "durationTicks": 543,
                    "midi": 51,
                    "name": "D#3",
                    "ticks": 37440,
                    "time": 32.499987,
                    "velocity": 0.23622047244094488,
                },
                {
                    "duration": 0.8333329999999961,
                    "durationTicks": 960,
                    "midi": 50,
                    "name": "D3",
                    "ticks": 38400,
                    "time": 33.33332,
                    "velocity": 0.2992125984251969,
                },
                {
                    "duration": 0.2473957343750044,
                    "durationTicks": 285,
                    "midi": 50,
                    "name": "D3",
                    "ticks": 39360,
                    "time": 34.166653,
                    "velocity": 0.28346456692913385,
                },
                {
                    "duration": 0.2473957343749973,
                    "durationTicks": 285,
                    "midi": 50,
                    "name": "D3",
                    "ticks": 39840,
                    "time": 34.5833195,
                    "velocity": 0.2755905511811024,
                },
                {
                    "duration": 0.5078122968750023,
                    "durationTicks": 585,
                    "midi": 49,
                    "name": "C#3",
                    "ticks": 40320,
                    "time": 34.999986,
                    "velocity": 0.29133858267716534,
                },
                {
                    "duration": 0.4713539781249949,
                    "durationTicks": 543,
                    "midi": 48,
                    "name": "C3",
                    "ticks": 41280,
                    "time": 35.833319,
                    "velocity": 0.25984251968503935,
                },
                {
                    "duration": 0.8333330000000032,
                    "durationTicks": 960,
                    "midi": 48,
                    "name": "C3",
                    "ticks": 42240,
                    "time": 36.666652,
                    "velocity": 0.28346456692913385,
                },
                {
                    "duration": 0.2473957343749973,
                    "durationTicks": 285,
                    "midi": 48,
                    "name": "C3",
                    "ticks": 43200,
                    "time": 37.499985,
                    "velocity": 0.29133858267716534,
                },
                {
                    "duration": 0.2473957343749973,
                    "durationTicks": 285,
                    "midi": 48,
                    "name": "C3",
                    "ticks": 43680,
                    "time": 37.9166515,
                    "velocity": 0.25984251968503935,
                },
                {
                    "duration": 0.5078122968750023,
                    "durationTicks": 585,
                    "midi": 47,
                    "name": "B2",
                    "ticks": 44160,
                    "time": 38.333318,
                    "velocity": 0.28346456692913385,
                },
                {
                    "duration": 0.4713539781249949,
                    "durationTicks": 543,
                    "midi": 48,
                    "name": "C3",
                    "ticks": 45120,
                    "time": 39.166651,
                    "velocity": 0.30708661417322836,
                },
                {
                    "duration": 0.8333330000000032,
                    "durationTicks": 960,
                    "midi": 47,
                    "name": "B2",
                    "ticks": 46080,
                    "time": 39.999984,
                    "velocity": 0.28346456692913385,
                },
                {
                    "duration": 0.2473957343749973,
                    "durationTicks": 285,
                    "midi": 47,
                    "name": "B2",
                    "ticks": 47040,
                    "time": 40.833317,
                    "velocity": 0.2440944881889764,
                },
                {
                    "duration": 0.2473957343749973,
                    "durationTicks": 285,
                    "midi": 47,
                    "name": "B2",
                    "ticks": 47520,
                    "time": 41.2499835,
                    "velocity": 0.2992125984251969,
                },
                {
                    "duration": 0.8333330000000032,
                    "durationTicks": 960,
                    "midi": 48,
                    "name": "C3",
                    "ticks": 48000,
                    "time": 41.66665,
                    "velocity": 0.2677165354330709,
                },
                {
                    "duration": 1.6987840427083398,
                    "durationTicks": 1957,
                    "midi": 60,
                    "name": "C4",
                    "ticks": 49920,
                    "time": 43.333315999999996,
                    "velocity": 0.3464566929133858,
                },
                {
                    "duration": 1.5520827124999954,
                    "durationTicks": 1788,
                    "midi": 59,
                    "name": "B3",
                    "ticks": 51840,
                    "time": 44.999982,
                    "velocity": 0.3543307086614173,
                },
                {
                    "duration": 0.20833324999999547,
                    "durationTicks": 240,
                    "midi": 59,
                    "name": "B3",
                    "ticks": 53760,
                    "time": 46.666648,
                    "velocity": 0.36220472440944884,
                },
                {
                    "duration": 0.20833325000000258,
                    "durationTicks": 240,
                    "midi": 60,
                    "name": "C4",
                    "ticks": 54000,
                    "time": 46.87498125,
                    "velocity": 0.36220472440944884,
                },
                {
                    "duration": 0.8333329999999961,
                    "durationTicks": 960,
                    "midi": 62,
                    "name": "D4",
                    "ticks": 54240,
                    "time": 47.0833145,
                    "velocity": 0.36220472440944884,
                },
                {
                    "duration": 0.21093741562500412,
                    "durationTicks": 243,
                    "midi": 60,
                    "name": "C4",
                    "ticks": 55200,
                    "time": 47.916647499999996,
                    "velocity": 0.36220472440944884,
                },
                {
                    "duration": 0.19531242187500197,
                    "durationTicks": 225,
                    "midi": 59,
                    "name": "B3",
                    "ticks": 55440,
                    "time": 48.12498075,
                    "velocity": 0.3858267716535433,
                },
                {
                    "duration": 0.42274288645833025,
                    "durationTicks": 487,
                    "midi": 59,
                    "name": "B3",
                    "ticks": 55680,
                    "time": 48.333314,
                    "velocity": 0.36220472440944884,
                },
                {
                    "duration": 0.3932290093749984,
                    "durationTicks": 453,
                    "midi": 60,
                    "name": "C4",
                    "ticks": 56160,
                    "time": 48.7499805,
                    "velocity": 0.3700787401574803,
                },
                {
                    "duration": 0.8333330000000032,
                    "durationTicks": 960,
                    "midi": 60,
                    "name": "C4",
                    "ticks": 56640,
                    "time": 49.166647,
                    "velocity": 0.3937007874015748,
                },
                {
                    "duration": 1.2499995000000013,
                    "durationTicks": 1440,
                    "midi": 60,
                    "name": "C4",
                    "ticks": 57600,
                    "time": 49.99998,
                    "velocity": 0.36220472440944884,
                },
                {
                    "duration": 0.21093741562499702,
                    "durationTicks": 243,
                    "midi": 60,
                    "name": "C4",
                    "ticks": 59040,
                    "time": 51.2499795,
                    "velocity": 0.3937007874015748,
                },
                {
                    "duration": 0.19531242187500197,
                    "durationTicks": 225,
                    "midi": 62,
                    "name": "D4",
                    "ticks": 59280,
                    "time": 51.45831275,
                    "velocity": 0.3858267716535433,
                },
                {
                    "duration": 0.42274288645833025,
                    "durationTicks": 487,
                    "midi": 63,
                    "name": "D#4",
                    "ticks": 59520,
                    "time": 51.666646,
                    "velocity": 0.36220472440944884,
                },
                {
                    "duration": 0.3932290093749984,
                    "durationTicks": 453,
                    "midi": 64,
                    "name": "E4",
                    "ticks": 60000,
                    "time": 52.0833125,
                    "velocity": 0.3858267716535433,
                },
                {
                    "duration": 0.2473957343750044,
                    "durationTicks": 285,
                    "midi": 64,
                    "name": "E4",
                    "ticks": 60480,
                    "time": 52.499978999999996,
                    "velocity": 0.4015748031496063,
                },
                {
                    "duration": 0.2473957343749973,
                    "durationTicks": 285,
                    "midi": 64,
                    "name": "E4",
                    "ticks": 60960,
                    "time": 52.9166455,
                    "velocity": 0.3779527559055118,
                },
                {
                    "duration": 0.21093741562499702,
                    "durationTicks": 243,
                    "midi": 62,
                    "name": "D4",
                    "ticks": 61440,
                    "time": 53.333312,
                    "velocity": 0.3543307086614173,
                },
                {
                    "duration": 0.21093741562499702,
                    "durationTicks": 243,
                    "midi": 64,
                    "name": "E4",
                    "ticks": 61680,
                    "time": 53.54164525,
                    "velocity": 0.41732283464566927,
                },
                {
                    "duration": 0.8489579937499983,
                    "durationTicks": 978,
                    "midi": 65,
                    "name": "F4",
                    "ticks": 61920,
                    "time": 53.7499785,
                    "velocity": 0.3937007874015748,
                },
                {
                    "duration": 0.21093741562499702,
                    "durationTicks": 243,
                    "midi": 64,
                    "name": "E4",
                    "ticks": 62880,
                    "time": 54.5833115,
                    "velocity": 0.3700787401574803,
                },
                {
                    "duration": 0.19531242187500197,
                    "durationTicks": 225,
                    "midi": 62,
                    "name": "D4",
                    "ticks": 63120,
                    "time": 54.791644749999996,
                    "velocity": 0.33070866141732286,
                },
                {
                    "duration": 0.42274288645833025,
                    "durationTicks": 487,
                    "midi": 62,
                    "name": "D4",
                    "ticks": 63360,
                    "time": 54.999978,
                    "velocity": 0.36220472440944884,
                },
                {
                    "duration": 0.3932290093749984,
                    "durationTicks": 453,
                    "midi": 64,
                    "name": "E4",
                    "ticks": 63840,
                    "time": 55.4166445,
                    "velocity": 0.41732283464566927,
                },
                {
                    "duration": 0.8333329999999961,
                    "durationTicks": 960,
                    "midi": 64,
                    "name": "E4",
                    "ticks": 64320,
                    "time": 55.833311,
                    "velocity": 0.3700787401574803,
                },
                {
                    "duration": 1.6987840427083256,
                    "durationTicks": 1957,
                    "midi": 64,
                    "name": "E4",
                    "ticks": 65280,
                    "time": 56.666644,
                    "velocity": 0.4015748031496063,
                },
                {
                    "duration": 1.5815965895833273,
                    "durationTicks": 1822,
                    "midi": 63,
                    "name": "D#4",
                    "ticks": 67200,
                    "time": 58.33331,
                    "velocity": 0.3779527559055118,
                },
                {
                    "duration": 0.42274288645833025,
                    "durationTicks": 487,
                    "midi": 62,
                    "name": "D4",
                    "ticks": 69120,
                    "time": 59.999976,
                    "velocity": 0.3779527559055118,
                },
                {
                    "duration": 0.21093741562499702,
                    "durationTicks": 243,
                    "midi": 59,
                    "name": "B3",
                    "ticks": 69600,
                    "time": 60.4166425,
                    "velocity": 0.3543307086614173,
                },
                {
                    "duration": 0.21093741562499702,
                    "durationTicks": 243,
                    "midi": 61,
                    "name": "C#4",
                    "ticks": 69840,
                    "time": 60.62497575,
                    "velocity": 0.3700787401574803,
                },
                {
                    "duration": 0.42274288645833025,
                    "durationTicks": 487,
                    "midi": 62,
                    "name": "D4",
                    "ticks": 70080,
                    "time": 60.833309,
                    "velocity": 0.3937007874015748,
                },
                {
                    "duration": 0.21093741562499702,
                    "durationTicks": 243,
                    "midi": 64,
                    "name": "E4",
                    "ticks": 70560,
                    "time": 61.2499755,
                    "velocity": 0.4094488188976378,
                },
                {
                    "duration": 0.19531242187500197,
                    "durationTicks": 225,
                    "midi": 62,
                    "name": "D4",
                    "ticks": 70800,
                    "time": 61.45830875,
                    "velocity": 0.3543307086614173,
                },
                {
                    "duration": 0.42274288645833025,
                    "durationTicks": 487,
                    "midi": 62,
                    "name": "D4",
                    "ticks": 71040,
                    "time": 61.666641999999996,
                    "velocity": 0.41732283464566927,
                },
                {
                    "duration": 0.3932290093749984,
                    "durationTicks": 453,
                    "midi": 61,
                    "name": "C#4",
                    "ticks": 71520,
                    "time": 62.0833085,
                    "velocity": 0.4015748031496063,
                },
                {
                    "duration": 0.8333330000000032,
                    "durationTicks": 960,
                    "midi": 60,
                    "name": "C4",
                    "ticks": 72000,
                    "time": 62.499975,
                    "velocity": 0.3543307086614173,
                },
                {
                    "duration": 1.6987840427083256,
                    "durationTicks": 1957,
                    "midi": 60,
                    "name": "C4",
                    "ticks": 72960,
                    "time": 63.333308,
                    "velocity": 0.3858267716535433,
                },
                {
                    "duration": 0.8489579937500054,
                    "durationTicks": 978,
                    "midi": 59,
                    "name": "B3",
                    "ticks": 74880,
                    "time": 64.999974,
                    "velocity": 0.3464566929133858,
                },
                {
                    "duration": 0.7187497124999851,
                    "durationTicks": 828,
                    "midi": 60,
                    "name": "C4",
                    "ticks": 75840,
                    "time": 65.833307,
                    "velocity": 0.3543307086614173,
                },
                {
                    "duration": 0.20833324999999547,
                    "durationTicks": 240,
                    "midi": 59,
                    "name": "B3",
                    "ticks": 76800,
                    "time": 66.66664,
                    "velocity": 0.3937007874015748,
                },
                {
                    "duration": 0.20833325000000968,
                    "durationTicks": 240,
                    "midi": 60,
                    "name": "C4",
                    "ticks": 77040,
                    "time": 66.87497325,
                    "velocity": 0.3937007874015748,
                },
                {
                    "duration": 0.8333329999999961,
                    "durationTicks": 960,
                    "midi": 62,
                    "name": "D4",
                    "ticks": 77280,
                    "time": 67.0833065,
                    "velocity": 0.3937007874015748,
                },
                {
                    "duration": 0.21093741562499702,
                    "durationTicks": 243,
                    "midi": 60,
                    "name": "C4",
                    "ticks": 78240,
                    "time": 67.9166395,
                    "velocity": 0.3937007874015748,
                },
                {
                    "duration": 0.19531242187500197,
                    "durationTicks": 225,
                    "midi": 59,
                    "name": "B3",
                    "ticks": 78480,
                    "time": 68.12497275,
                    "velocity": 0.3543307086614173,
                },
                {
                    "duration": 0.2473957343750044,
                    "durationTicks": 285,
                    "midi": 57,
                    "name": "A3",
                    "ticks": 78720,
                    "time": 68.333306,
                    "velocity": 0.3543307086614173,
                },
                {
                    "duration": 0.21093741562499702,
                    "durationTicks": 243,
                    "midi": 57,
                    "name": "A3",
                    "ticks": 79200,
                    "time": 68.7499725,
                    "velocity": 0.33858267716535434,
                },
                {
                    "duration": 0.19531242187500197,
                    "durationTicks": 225,
                    "midi": 59,
                    "name": "B3",
                    "ticks": 79440,
                    "time": 68.95830575,
                    "velocity": 0.33070866141732286,
                },
                {
                    "duration": 0.24739573437499018,
                    "durationTicks": 285,
                    "midi": 60,
                    "name": "C4",
                    "ticks": 79680,
                    "time": 69.166639,
                    "velocity": 0.41732283464566927,
                },
                {
                    "duration": 0.21093741562499702,
                    "durationTicks": 243,
                    "midi": 60,
                    "name": "C4",
                    "ticks": 80160,
                    "time": 69.5833055,
                    "velocity": 0.3937007874015748,
                },
                {
                    "duration": 0.19531242187500197,
                    "durationTicks": 225,
                    "midi": 62,
                    "name": "D4",
                    "ticks": 80400,
                    "time": 69.79163875,
                    "velocity": 0.4330708661417323,
                },
                {
                    "duration": 1.6987840427083256,
                    "durationTicks": 1957,
                    "midi": 64,
                    "name": "E4",
                    "ticks": 80640,
                    "time": 69.999972,
                    "velocity": 0.29133858267716534,
                },
                {
                    "duration": 1.5815965895833273,
                    "durationTicks": 1822,
                    "midi": 63,
                    "name": "D#4",
                    "ticks": 82560,
                    "time": 71.666638,
                    "velocity": 0.2440944881889764,
                },
                {
                    "duration": 0.42274288645832314,
                    "durationTicks": 487,
                    "midi": 62,
                    "name": "D4",
                    "ticks": 84480,
                    "time": 73.333304,
                    "velocity": 0.2677165354330709,
                },
                {
                    "duration": 0.21093741562499702,
                    "durationTicks": 243,
                    "midi": 59,
                    "name": "B3",
                    "ticks": 84960,
                    "time": 73.7499705,
                    "velocity": 0.2440944881889764,
                },
                {
                    "duration": 0.21093741562499702,
                    "durationTicks": 243,
                    "midi": 61,
                    "name": "C#4",
                    "ticks": 85200,
                    "time": 73.95830375,
                    "velocity": 0.28346456692913385,
                },
                {
                    "duration": 0.42274288645833735,
                    "durationTicks": 487,
                    "midi": 62,
                    "name": "D4",
                    "ticks": 85440,
                    "time": 74.166637,
                    "velocity": 0.29133858267716534,
                },
                {
                    "duration": 0.21093741562499702,
                    "durationTicks": 243,
                    "midi": 64,
                    "name": "E4",
                    "ticks": 85920,
                    "time": 74.5833035,
                    "velocity": 0.30708661417322836,
                },
                {
                    "duration": 0.19531242187500197,
                    "durationTicks": 225,
                    "midi": 62,
                    "name": "D4",
                    "ticks": 86160,
                    "time": 74.79163675,
                    "velocity": 0.25984251968503935,
                },
                {
                    "duration": 0.41666649999999095,
                    "durationTicks": 480,
                    "midi": 62,
                    "name": "D4",
                    "ticks": 86400,
                    "time": 74.99997,
                    "velocity": 0.2677165354330709,
                },
                {
                    "duration": 0.41666650000000516,
                    "durationTicks": 480,
                    "midi": 61,
                    "name": "C#4",
                    "ticks": 86880,
                    "time": 75.4166365,
                    "velocity": 0.25984251968503935,
                },
                {
                    "duration": 0.8333329999999961,
                    "durationTicks": 960,
                    "midi": 60,
                    "name": "C4",
                    "ticks": 87360,
                    "time": 75.833303,
                    "velocity": 0.2992125984251969,
                },
                {
                    "duration": 1.6987840427083256,
                    "durationTicks": 1957,
                    "midi": 60,
                    "name": "C4",
                    "ticks": 88320,
                    "time": 76.666636,
                    "velocity": 0.2992125984251969,
                },
                {
                    "duration": 0.8489579937499911,
                    "durationTicks": 978,
                    "midi": 59,
                    "name": "B3",
                    "ticks": 90240,
                    "time": 78.333302,
                    "velocity": 0.2992125984251969,
                },
                {
                    "duration": 0.7187497124999993,
                    "durationTicks": 828,
                    "midi": 60,
                    "name": "C4",
                    "ticks": 91200,
                    "time": 79.166635,
                    "velocity": 0.31496062992125984,
                },
                {
                    "duration": 0.20833325000000968,
                    "durationTicks": 240,
                    "midi": 59,
                    "name": "B3",
                    "ticks": 92160,
                    "time": 79.999968,
                    "velocity": 0.3464566929133858,
                },
                {
                    "duration": 0.20833324999999547,
                    "durationTicks": 240,
                    "midi": 60,
                    "name": "C4",
                    "ticks": 92400,
                    "time": 80.20830125,
                    "velocity": 0.3464566929133858,
                },
                {
                    "duration": 0.8333329999999961,
                    "durationTicks": 960,
                    "midi": 62,
                    "name": "D4",
                    "ticks": 92640,
                    "time": 80.4166345,
                    "velocity": 0.3464566929133858,
                },
                {
                    "duration": 0.21093741562499702,
                    "durationTicks": 243,
                    "midi": 60,
                    "name": "C4",
                    "ticks": 93600,
                    "time": 81.2499675,
                    "velocity": 0.33070866141732286,
                },
                {
                    "duration": 0.19531242187500197,
                    "durationTicks": 225,
                    "midi": 59,
                    "name": "B3",
                    "ticks": 93840,
                    "time": 81.45830074999999,
                    "velocity": 0.25984251968503935,
                },
                {
                    "duration": 0.8333329999999961,
                    "durationTicks": 960,
                    "midi": 57,
                    "name": "A3",
                    "ticks": 94080,
                    "time": 81.666634,
                    "velocity": 0.2755905511811024,
                },
                {
                    "duration": 0.42274288645832314,
                    "durationTicks": 487,
                    "midi": 57,
                    "name": "A3",
                    "ticks": 96480,
                    "time": 83.7499665,
                    "velocity": 0.33858267716535434,
                },
                {
                    "duration": 0.42274288645832314,
                    "durationTicks": 487,
                    "midi": 60,
                    "name": "C4",
                    "ticks": 96960,
                    "time": 84.166633,
                    "velocity": 0.36220472440944884,
                },
                {
                    "duration": 0.3932290093750055,
                    "durationTicks": 453,
                    "midi": 52,
                    "name": "E3",
                    "ticks": 97440,
                    "time": 84.5832995,
                    "velocity": 0.3937007874015748,
                },
                {
                    "duration": 0.42274288645832314,
                    "durationTicks": 487,
                    "midi": 56,
                    "name": "G#3",
                    "ticks": 98400,
                    "time": 85.4166325,
                    "velocity": 0.3858267716535433,
                },
                {
                    "duration": 0.42274288645832314,
                    "durationTicks": 487,
                    "midi": 59,
                    "name": "B3",
                    "ticks": 98880,
                    "time": 85.833299,
                    "velocity": 0.41732283464566927,
                },
                {
                    "duration": 0.3932290093749913,
                    "durationTicks": 453,
                    "midi": 52,
                    "name": "E3",
                    "ticks": 99360,
                    "time": 86.2499655,
                    "velocity": 0.3937007874015748,
                },
                {
                    "duration": 0.42274288645832314,
                    "durationTicks": 487,
                    "midi": 56,
                    "name": "G#3",
                    "ticks": 100320,
                    "time": 87.0832985,
                    "velocity": 0.3700787401574803,
                },
                {
                    "duration": 0.42274288645832314,
                    "durationTicks": 487,
                    "midi": 59,
                    "name": "B3",
                    "ticks": 100800,
                    "time": 87.499965,
                    "velocity": 0.3858267716535433,
                },
                {
                    "duration": 0.3932290093750055,
                    "durationTicks": 453,
                    "midi": 52,
                    "name": "E3",
                    "ticks": 101280,
                    "time": 87.9166315,
                    "velocity": 0.4094488188976378,
                },
                {
                    "duration": 0.42274288645832314,
                    "durationTicks": 487,
                    "midi": 57,
                    "name": "A3",
                    "ticks": 102240,
                    "time": 88.7499645,
                    "velocity": 0.4015748031496063,
                },
                {
                    "duration": 0.42274288645833735,
                    "durationTicks": 487,
                    "midi": 60,
                    "name": "C4",
                    "ticks": 102720,
                    "time": 89.166631,
                    "velocity": 0.44881889763779526,
                },
                {
                    "duration": 0.3932290093749913,
                    "durationTicks": 453,
                    "midi": 52,
                    "name": "E3",
                    "ticks": 103200,
                    "time": 89.5832975,
                    "velocity": 0.41732283464566927,
                },
                {
                    "duration": 0.42274288645832314,
                    "durationTicks": 487,
                    "midi": 57,
                    "name": "A3",
                    "ticks": 104160,
                    "time": 90.4166305,
                    "velocity": 0.4566929133858268,
                },
                {
                    "duration": 0.42274288645832314,
                    "durationTicks": 487,
                    "midi": 60,
                    "name": "C4",
                    "ticks": 104640,
                    "time": 90.833297,
                    "velocity": 0.5275590551181102,
                },
                {
                    "duration": 0.3932290093750055,
                    "durationTicks": 453,
                    "midi": 48,
                    "name": "C3",
                    "ticks": 105120,
                    "time": 91.24996349999999,
                    "velocity": 0.4566929133858268,
                },
                {
                    "duration": 0.42274288645832314,
                    "durationTicks": 487,
                    "midi": 55,
                    "name": "G3",
                    "ticks": 106080,
                    "time": 92.0832965,
                    "velocity": 0.44881889763779526,
                },
                {
                    "duration": 0.42274288645833735,
                    "durationTicks": 487,
                    "midi": 60,
                    "name": "C4",
                    "ticks": 106560,
                    "time": 92.499963,
                    "velocity": 0.5433070866141733,
                },
                {
                    "duration": 0.3932290093749913,
                    "durationTicks": 453,
                    "midi": 48,
                    "name": "C3",
                    "ticks": 107040,
                    "time": 92.9166295,
                    "velocity": 0.44881889763779526,
                },
                {
                    "duration": 0.42274288645833735,
                    "durationTicks": 487,
                    "midi": 59,
                    "name": "B3",
                    "ticks": 108000,
                    "time": 93.7499625,
                    "velocity": 0.4645669291338583,
                },
                {
                    "duration": 0.42274288645832314,
                    "durationTicks": 487,
                    "midi": 62,
                    "name": "D4",
                    "ticks": 108480,
                    "time": 94.166629,
                    "velocity": 0.5826771653543307,
                },
                {
                    "duration": 0.3932290093749913,
                    "durationTicks": 453,
                    "midi": 55,
                    "name": "G3",
                    "ticks": 108960,
                    "time": 94.5832955,
                    "velocity": 0.49606299212598426,
                },
                {
                    "duration": 0.42274288645832314,
                    "durationTicks": 487,
                    "midi": 55,
                    "name": "G3",
                    "ticks": 109920,
                    "time": 95.4166285,
                    "velocity": 0.49606299212598426,
                },
                {
                    "duration": 0.42274288645833735,
                    "durationTicks": 487,
                    "midi": 60,
                    "name": "C4",
                    "ticks": 110400,
                    "time": 95.83329499999999,
                    "velocity": 0.5905511811023622,
                },
                {
                    "duration": 0.3932290093750055,
                    "durationTicks": 453,
                    "midi": 48,
                    "name": "C3",
                    "ticks": 110880,
                    "time": 96.2499615,
                    "velocity": 0.5039370078740157,
                },
                {
                    "duration": 0.42274288645833735,
                    "durationTicks": 487,
                    "midi": 60,
                    "name": "C4",
                    "ticks": 111840,
                    "time": 97.0832945,
                    "velocity": 0.4881889763779528,
                },
                {
                    "duration": 0.42274288645832314,
                    "durationTicks": 487,
                    "midi": 64,
                    "name": "E4",
                    "ticks": 112320,
                    "time": 97.499961,
                    "velocity": 0.6220472440944882,
                },
                {
                    "duration": 0.3932290093749913,
                    "durationTicks": 453,
                    "midi": 52,
                    "name": "E3",
                    "ticks": 112800,
                    "time": 97.9166275,
                    "velocity": 0.4881889763779528,
                },
                {
                    "duration": 0.42274288645832314,
                    "durationTicks": 487,
                    "midi": 54,
                    "name": "F#3",
                    "ticks": 113760,
                    "time": 98.7499605,
                    "velocity": 0.5118110236220472,
                },
                {
                    "duration": 0.42274288645832314,
                    "durationTicks": 487,
                    "midi": 59,
                    "name": "B3",
                    "ticks": 114240,
                    "time": 99.166627,
                    "velocity": 0.5669291338582677,
                },
                {
                    "duration": 0.3932290093750055,
                    "durationTicks": 453,
                    "midi": 47,
                    "name": "B2",
                    "ticks": 114720,
                    "time": 99.5832935,
                    "velocity": 0.5354330708661418,
                },
                {
                    "duration": 0.42274288645833735,
                    "durationTicks": 487,
                    "midi": 59,
                    "name": "B3",
                    "ticks": 115680,
                    "time": 100.41662649999999,
                    "velocity": 0.5275590551181102,
                },
                {
                    "duration": 0.42274288645832314,
                    "durationTicks": 487,
                    "midi": 62,
                    "name": "D4",
                    "ticks": 116160,
                    "time": 100.833293,
                    "velocity": 0.6535433070866141,
                },
                {
                    "duration": 0.3932290093749913,
                    "durationTicks": 453,
                    "midi": 50,
                    "name": "D3",
                    "ticks": 116640,
                    "time": 101.2499595,
                    "velocity": 0.5590551181102362,
                },
                {
                    "duration": 0.42274288645832314,
                    "durationTicks": 487,
                    "midi": 52,
                    "name": "E3",
                    "ticks": 117600,
                    "time": 102.0832925,
                    "velocity": 0.5590551181102362,
                },
                {
                    "duration": 0.42274288645832314,
                    "durationTicks": 487,
                    "midi": 57,
                    "name": "A3",
                    "ticks": 118080,
                    "time": 102.499959,
                    "velocity": 0.6692913385826772,
                },
                {
                    "duration": 0.3932290093750055,
                    "durationTicks": 453,
                    "midi": 45,
                    "name": "A2",
                    "ticks": 118560,
                    "time": 102.9166255,
                    "velocity": 0.5590551181102362,
                },
                {
                    "duration": 0.42274288645832314,
                    "durationTicks": 487,
                    "midi": 57,
                    "name": "A3",
                    "ticks": 119520,
                    "time": 103.7499585,
                    "velocity": 0.5669291338582677,
                },
                {
                    "duration": 0.42274288645833735,
                    "durationTicks": 487,
                    "midi": 64,
                    "name": "E4",
                    "ticks": 120000,
                    "time": 104.166625,
                    "velocity": 0.7795275590551181,
                },
                {
                    "duration": 0.3932290093749913,
                    "durationTicks": 453,
                    "midi": 52,
                    "name": "E3",
                    "ticks": 120480,
                    "time": 104.5832915,
                    "velocity": 0.6062992125984252,
                },
                {
                    "duration": 0.42274288645832314,
                    "durationTicks": 487,
                    "midi": 59,
                    "name": "B3",
                    "ticks": 121440,
                    "time": 105.4166245,
                    "velocity": 0.6141732283464567,
                },
                {
                    "duration": 0.42274288645832314,
                    "durationTicks": 487,
                    "midi": 64,
                    "name": "E4",
                    "ticks": 121920,
                    "time": 105.833291,
                    "velocity": 0.7401574803149606,
                },
                {
                    "duration": 0.3932290093750055,
                    "durationTicks": 453,
                    "midi": 52,
                    "name": "E3",
                    "ticks": 122400,
                    "time": 106.2499575,
                    "velocity": 0.6377952755905512,
                },
                {
                    "duration": 0.42274288645833735,
                    "durationTicks": 487,
                    "midi": 59,
                    "name": "B3",
                    "ticks": 123360,
                    "time": 107.0832905,
                    "velocity": 0.6377952755905512,
                },
                {
                    "duration": 0.42274288645833735,
                    "durationTicks": 487,
                    "midi": 64,
                    "name": "E4",
                    "ticks": 123840,
                    "time": 107.499957,
                    "velocity": 0.7716535433070866,
                },
                {
                    "duration": 0.3932290093750055,
                    "durationTicks": 453,
                    "midi": 52,
                    "name": "E3",
                    "ticks": 124320,
                    "time": 107.9166235,
                    "velocity": 0.6299212598425197,
                },
                {
                    "duration": 0.42274288645833735,
                    "durationTicks": 487,
                    "midi": 60,
                    "name": "C4",
                    "ticks": 125280,
                    "time": 108.7499565,
                    "velocity": 0.6692913385826772,
                },
                {
                    "duration": 0.42274288645833735,
                    "durationTicks": 487,
                    "midi": 64,
                    "name": "E4",
                    "ticks": 125760,
                    "time": 109.166623,
                    "velocity": 0.7086614173228346,
                },
                {
                    "duration": 0.3932290093750197,
                    "durationTicks": 453,
                    "midi": 57,
                    "name": "A3",
                    "ticks": 126240,
                    "time": 109.58328949999999,
                    "velocity": 0.6771653543307087,
                },
                {
                    "duration": 0.42274288645833735,
                    "durationTicks": 487,
                    "midi": 60,
                    "name": "C4",
                    "ticks": 127200,
                    "time": 110.4166225,
                    "velocity": 0.6929133858267716,
                },
                {
                    "duration": 0.42274288645835156,
                    "durationTicks": 487,
                    "midi": 64,
                    "name": "E4",
                    "ticks": 127680,
                    "time": 110.833289,
                    "velocity": 0.7716535433070866,
                },
                {
                    "duration": 0.3932290093750055,
                    "durationTicks": 453,
                    "midi": 52,
                    "name": "E3",
                    "ticks": 128160,
                    "time": 111.2499555,
                    "velocity": 0.6614173228346457,
                },
                {
                    "duration": 0.42274288645833735,
                    "durationTicks": 487,
                    "midi": 54,
                    "name": "F#3",
                    "ticks": 129120,
                    "time": 112.0832885,
                    "velocity": 0.6692913385826772,
                },
                {
                    "duration": 0.42274288645833735,
                    "durationTicks": 487,
                    "midi": 59,
                    "name": "B3",
                    "ticks": 129600,
                    "time": 112.499955,
                    "velocity": 0.7086614173228346,
                },
                {
                    "duration": 0.3932290093750055,
                    "durationTicks": 453,
                    "midi": 47,
                    "name": "B2",
                    "ticks": 130080,
                    "time": 112.9166215,
                    "velocity": 0.6771653543307087,
                },
                {
                    "duration": 0.42274288645833735,
                    "durationTicks": 487,
                    "midi": 59,
                    "name": "B3",
                    "ticks": 131040,
                    "time": 113.7499545,
                    "velocity": 0.7401574803149606,
                },
                {
                    "duration": 0.42274288645835156,
                    "durationTicks": 487,
                    "midi": 62,
                    "name": "D4",
                    "ticks": 131520,
                    "time": 114.16662099999999,
                    "velocity": 0.7874015748031497,
                },
                {
                    "duration": 0.3932290093750055,
                    "durationTicks": 453,
                    "midi": 50,
                    "name": "D3",
                    "ticks": 132000,
                    "time": 114.5832875,
                    "velocity": 0.7086614173228346,
                },
                {
                    "duration": 0.42274288645835156,
                    "durationTicks": 487,
                    "midi": 52,
                    "name": "E3",
                    "ticks": 132960,
                    "time": 115.4166205,
                    "velocity": 0.7401574803149606,
                },
                {
                    "duration": 0.42274288645833735,
                    "durationTicks": 487,
                    "midi": 57,
                    "name": "A3",
                    "ticks": 133440,
                    "time": 115.833287,
                    "velocity": 0.7716535433070866,
                },
                {
                    "duration": 0.3932290093750055,
                    "durationTicks": 453,
                    "midi": 45,
                    "name": "A2",
                    "ticks": 133920,
                    "time": 116.2499535,
                    "velocity": 0.7401574803149606,
                },
                {
                    "duration": 0.42274288645833735,
                    "durationTicks": 487,
                    "midi": 57,
                    "name": "A3",
                    "ticks": 134880,
                    "time": 117.0832865,
                    "velocity": 0.7559055118110236,
                },
                {
                    "duration": 0.42274288645833735,
                    "durationTicks": 487,
                    "midi": 64,
                    "name": "E4",
                    "ticks": 135360,
                    "time": 117.499953,
                    "velocity": 0.8818897637795275,
                },
                {
                    "duration": 0.3932290093750055,
                    "durationTicks": 453,
                    "midi": 52,
                    "name": "E3",
                    "ticks": 135840,
                    "time": 117.9166195,
                    "velocity": 0.7480314960629921,
                },
                {
                    "duration": 0.42274288645835156,
                    "durationTicks": 487,
                    "midi": 59,
                    "name": "B3",
                    "ticks": 136800,
                    "time": 118.74995249999999,
                    "velocity": 0.7165354330708661,
                },
                {
                    "duration": 0.42274288645833735,
                    "durationTicks": 487,
                    "midi": 64,
                    "name": "E4",
                    "ticks": 137280,
                    "time": 119.166619,
                    "velocity": 0.7874015748031497,
                },
                {
                    "duration": 0.3932290093750055,
                    "durationTicks": 453,
                    "midi": 52,
                    "name": "E3",
                    "ticks": 137760,
                    "time": 119.5832855,
                    "velocity": 0.7559055118110236,
                },
                {
                    "duration": 0.42274288645833735,
                    "durationTicks": 487,
                    "midi": 59,
                    "name": "B3",
                    "ticks": 138720,
                    "time": 120.4166185,
                    "velocity": 0.7401574803149606,
                },
                {
                    "duration": 0.42274288645833735,
                    "durationTicks": 487,
                    "midi": 64,
                    "name": "E4",
                    "ticks": 139200,
                    "time": 120.833285,
                    "velocity": 0.8188976377952756,
                },
                {
                    "duration": 0.3932290093750197,
                    "durationTicks": 453,
                    "midi": 52,
                    "name": "E3",
                    "ticks": 139680,
                    "time": 121.2499515,
                    "velocity": 0.7244094488188977,
                },
                {
                    "duration": 0.42274288645833735,
                    "durationTicks": 487,
                    "midi": 60,
                    "name": "C4",
                    "ticks": 140640,
                    "time": 122.0832845,
                    "velocity": 0.7322834645669292,
                },
                {
                    "duration": 0.42274288645833735,
                    "durationTicks": 487,
                    "midi": 64,
                    "name": "E4",
                    "ticks": 141120,
                    "time": 122.499951,
                    "velocity": 0.8188976377952756,
                },
                {
                    "duration": 0.3932290093750055,
                    "durationTicks": 453,
                    "midi": 57,
                    "name": "A3",
                    "ticks": 141600,
                    "time": 122.9166175,
                    "velocity": 0.7401574803149606,
                },
                {
                    "duration": 0.1657985447916701,
                    "durationTicks": 191,
                    "midi": 45,
                    "name": "A2",
                    "ticks": 142080,
                    "time": 123.33328399999999,
                    "velocity": 0.7795275590551181,
                },
                {
                    "duration": 0.166666599999985,
                    "durationTicks": 192,
                    "midi": 57,
                    "name": "A3",
                    "ticks": 142398,
                    "time": 123.60932555625001,
                    "velocity": 0.9606299212598425,
                },
                {
                    "duration": 0.1657985447916701,
                    "durationTicks": 191,
                    "midi": 60,
                    "name": "C4",
                    "ticks": 142717,
                    "time": 123.88623516770834,
                    "velocity": 0.9606299212598425,
                },
                {
                    "duration": 0.8333329999999961,
                    "durationTicks": 960,
                    "midi": 45,
                    "name": "A2",
                    "ticks": 143040,
                    "time": 124.166617,
                    "velocity": 0.7874015748031497,
                },
                {
                    "duration": 0.1657985447916701,
                    "durationTicks": 191,
                    "midi": 44,
                    "name": "G#2",
                    "ticks": 144000,
                    "time": 124.99995,
                    "velocity": 0.84251968503937,
                },
                {
                    "duration": 0.16666659999999922,
                    "durationTicks": 192,
                    "midi": 56,
                    "name": "G#3",
                    "ticks": 144318,
                    "time": 125.27599155625,
                    "velocity": 0.9606299212598425,
                },
                {
                    "duration": 0.1657985447916701,
                    "durationTicks": 191,
                    "midi": 59,
                    "name": "B3",
                    "ticks": 144637,
                    "time": 125.55290116770834,
                    "velocity": 0.952755905511811,
                },
                {
                    "duration": 0.8333330000000103,
                    "durationTicks": 960,
                    "midi": 44,
                    "name": "G#2",
                    "ticks": 144960,
                    "time": 125.833283,
                    "velocity": 0.7716535433070866,
                },
                {
                    "duration": 0.1657985447916701,
                    "durationTicks": 191,
                    "midi": 40,
                    "name": "E2",
                    "ticks": 145920,
                    "time": 126.666616,
                    "velocity": 0.84251968503937,
                },
                {
                    "duration": 0.166666599999985,
                    "durationTicks": 192,
                    "midi": 56,
                    "name": "G#3",
                    "ticks": 146238,
                    "time": 126.94265755625001,
                    "velocity": 0.984251968503937,
                },
                {
                    "duration": 0.1657985447916701,
                    "durationTicks": 191,
                    "midi": 59,
                    "name": "B3",
                    "ticks": 146557,
                    "time": 127.21956716770833,
                    "velocity": 0.937007874015748,
                },
                {
                    "duration": 0.8333329999999961,
                    "durationTicks": 960,
                    "midi": 40,
                    "name": "E2",
                    "ticks": 146880,
                    "time": 127.499949,
                    "velocity": 0.7874015748031497,
                },
                {
                    "duration": 0.1657985447916701,
                    "durationTicks": 191,
                    "midi": 45,
                    "name": "A2",
                    "ticks": 147840,
                    "time": 128.333282,
                    "velocity": 0.9212598425196851,
                },
                {
                    "duration": 0.166666599999985,
                    "durationTicks": 192,
                    "midi": 57,
                    "name": "A3",
                    "ticks": 148158,
                    "time": 128.60932355625002,
                    "velocity": 0.984251968503937,
                },
                {
                    "duration": 0.1657985447916701,
                    "durationTicks": 191,
                    "midi": 60,
                    "name": "C4",
                    "ticks": 148477,
                    "time": 128.88623316770833,
                    "velocity": 0.9606299212598425,
                },
                {
                    "duration": 0.8333329999999819,
                    "durationTicks": 960,
                    "midi": 45,
                    "name": "A2",
                    "ticks": 148800,
                    "time": 129.166615,
                    "velocity": 0.7874015748031497,
                },
                {
                    "duration": 0.1657985447916701,
                    "durationTicks": 191,
                    "midi": 45,
                    "name": "A2",
                    "ticks": 149760,
                    "time": 129.999948,
                    "velocity": 0.8267716535433071,
                },
                {
                    "duration": 0.166666599999985,
                    "durationTicks": 192,
                    "midi": 57,
                    "name": "A3",
                    "ticks": 150078,
                    "time": 130.27598955625,
                    "velocity": 0.968503937007874,
                },
                {
                    "duration": 0.1657985447916701,
                    "durationTicks": 191,
                    "midi": 60,
                    "name": "C4",
                    "ticks": 150397,
                    "time": 130.55289916770835,
                    "velocity": 0.9921259842519685,
                },
                {
                    "duration": 0.8333330000000103,
                    "durationTicks": 960,
                    "midi": 45,
                    "name": "A2",
                    "ticks": 150720,
                    "time": 130.833281,
                    "velocity": 0.7559055118110236,
                },
                {
                    "duration": 0.1657985447916701,
                    "durationTicks": 191,
                    "midi": 43,
                    "name": "G2",
                    "ticks": 151680,
                    "time": 131.666614,
                    "velocity": 0.8346456692913385,
                },
                {
                    "duration": 0.166666599999985,
                    "durationTicks": 192,
                    "midi": 57,
                    "name": "A3",
                    "ticks": 151998,
                    "time": 131.94265555625,
                    "velocity": 0.9606299212598425,
                },
                {
                    "duration": 0.1657985447916701,
                    "durationTicks": 191,
                    "midi": 60,
                    "name": "C4",
                    "ticks": 152317,
                    "time": 132.21956516770834,
                    "velocity": 1,
                },
                {
                    "duration": 0.8333330000000103,
                    "durationTicks": 960,
                    "midi": 43,
                    "name": "G2",
                    "ticks": 152640,
                    "time": 132.499947,
                    "velocity": 0.8188976377952756,
                },
                {
                    "duration": 0.1657985447916701,
                    "durationTicks": 191,
                    "midi": 43,
                    "name": "G2",
                    "ticks": 153600,
                    "time": 133.33328,
                    "velocity": 0.8503937007874016,
                },
                {
                    "duration": 0.16666660000001343,
                    "durationTicks": 192,
                    "midi": 59,
                    "name": "B3",
                    "ticks": 153918,
                    "time": 133.60932155625,
                    "velocity": 0.968503937007874,
                },
                {
                    "duration": 0.1657985447916701,
                    "durationTicks": 191,
                    "midi": 62,
                    "name": "D4",
                    "ticks": 154237,
                    "time": 133.88623116770833,
                    "velocity": 0.984251968503937,
                },
                {
                    "duration": 0.8333329999999819,
                    "durationTicks": 960,
                    "midi": 43,
                    "name": "G2",
                    "ticks": 154560,
                    "time": 134.166613,
                    "velocity": 0.7952755905511811,
                },
                {
                    "duration": 0.1657985447916701,
                    "durationTicks": 191,
                    "midi": 36,
                    "name": "C2",
                    "ticks": 155520,
                    "time": 134.999946,
                    "velocity": 0.7637795275590551,
                },
                {
                    "duration": 0.166666599999985,
                    "durationTicks": 192,
                    "midi": 55,
                    "name": "G3",
                    "ticks": 155838,
                    "time": 135.27598755625002,
                    "velocity": 1,
                },
                {
                    "duration": 0.1657985447916701,
                    "durationTicks": 191,
                    "midi": 60,
                    "name": "C4",
                    "ticks": 156157,
                    "time": 135.55289716770835,
                    "velocity": 1,
                },
                {
                    "duration": 0.8333329999999819,
                    "durationTicks": 960,
                    "midi": 36,
                    "name": "C2",
                    "ticks": 156480,
                    "time": 135.833279,
                    "velocity": 0.7716535433070866,
                },
                {
                    "duration": 0.1657985447916701,
                    "durationTicks": 191,
                    "midi": 36,
                    "name": "C2",
                    "ticks": 157440,
                    "time": 136.666612,
                    "velocity": 0.8346456692913385,
                },
                {
                    "duration": 0.166666599999985,
                    "durationTicks": 192,
                    "midi": 55,
                    "name": "G3",
                    "ticks": 157758,
                    "time": 136.94265355625,
                    "velocity": 1,
                },
                {
                    "duration": 0.1657985447916701,
                    "durationTicks": 191,
                    "midi": 60,
                    "name": "C4",
                    "ticks": 158077,
                    "time": 137.21956316770834,
                    "velocity": 0.984251968503937,
                },
                {
                    "duration": 0.8333330000000103,
                    "durationTicks": 960,
                    "midi": 36,
                    "name": "C2",
                    "ticks": 158400,
                    "time": 137.499945,
                    "velocity": 0.8267716535433071,
                },
                {
                    "duration": 0.1657985447916701,
                    "durationTicks": 191,
                    "midi": 47,
                    "name": "B2",
                    "ticks": 159360,
                    "time": 138.333278,
                    "velocity": 1,
                },
                {
                    "duration": 0.166666599999985,
                    "durationTicks": 192,
                    "midi": 47,
                    "name": "B2",
                    "ticks": 159678,
                    "time": 138.60931955625,
                    "velocity": 0.937007874015748,
                },
                {
                    "duration": 0.1657985447916701,
                    "durationTicks": 191,
                    "midi": 59,
                    "name": "B3",
                    "ticks": 159997,
                    "time": 138.88622916770834,
                    "velocity": 0.968503937007874,
                },
                {
                    "duration": 0.8333330000000103,
                    "durationTicks": 960,
                    "midi": 47,
                    "name": "B2",
                    "ticks": 160320,
                    "time": 139.166611,
                    "velocity": 0.7952755905511811,
                },
                {
                    "duration": 0.1657985447916701,
                    "durationTicks": 191,
                    "midi": 47,
                    "name": "B2",
                    "ticks": 161280,
                    "time": 139.999944,
                    "velocity": 0.8503937007874016,
                },
                {
                    "duration": 0.166666599999985,
                    "durationTicks": 192,
                    "midi": 59,
                    "name": "B3",
                    "ticks": 161598,
                    "time": 140.27598555625002,
                    "velocity": 0.9921259842519685,
                },
                {
                    "duration": 0.1657985447916701,
                    "durationTicks": 191,
                    "midi": 62,
                    "name": "D4",
                    "ticks": 161917,
                    "time": 140.55289516770833,
                    "velocity": 0.952755905511811,
                },
                {
                    "duration": 0.8333329999999819,
                    "durationTicks": 960,
                    "midi": 47,
                    "name": "B2",
                    "ticks": 162240,
                    "time": 140.833277,
                    "velocity": 0.7874015748031497,
                },
                {
                    "duration": 0.1657985447916701,
                    "durationTicks": 191,
                    "midi": 45,
                    "name": "A2",
                    "ticks": 163200,
                    "time": 141.66661,
                    "velocity": 0.84251968503937,
                },
                {
                    "duration": 0.166666599999985,
                    "durationTicks": 192,
                    "midi": 45,
                    "name": "A2",
                    "ticks": 163518,
                    "time": 141.94265155625,
                    "velocity": 0.8661417322834646,
                },
                {
                    "duration": 0.1657985447916701,
                    "durationTicks": 191,
                    "midi": 57,
                    "name": "A3",
                    "ticks": 163837,
                    "time": 142.21956116770835,
                    "velocity": 0.984251968503937,
                },
                {
                    "duration": 0.8333330000000103,
                    "durationTicks": 960,
                    "midi": 45,
                    "name": "A2",
                    "ticks": 164160,
                    "time": 142.499943,
                    "velocity": 0.7716535433070866,
                },
                {
                    "duration": 0.1657985447916701,
                    "durationTicks": 191,
                    "midi": 45,
                    "name": "A2",
                    "ticks": 165120,
                    "time": 143.333276,
                    "velocity": 0.8582677165354331,
                },
                {
                    "duration": 0.166666599999985,
                    "durationTicks": 192,
                    "midi": 57,
                    "name": "A3",
                    "ticks": 165438,
                    "time": 143.60931755625,
                    "velocity": 1,
                },
                {
                    "duration": 0.1657985447916701,
                    "durationTicks": 191,
                    "midi": 60,
                    "name": "C4",
                    "ticks": 165757,
                    "time": 143.88622716770834,
                    "velocity": 0.968503937007874,
                },
                {
                    "duration": 0.8333330000000103,
                    "durationTicks": 960,
                    "midi": 45,
                    "name": "A2",
                    "ticks": 166080,
                    "time": 144.166609,
                    "velocity": 0.7716535433070866,
                },
                {
                    "duration": 0.1657985447916701,
                    "durationTicks": 191,
                    "midi": 44,
                    "name": "G#2",
                    "ticks": 167040,
                    "time": 144.999942,
                    "velocity": 0.8346456692913385,
                },
                {
                    "duration": 0.16666660000001343,
                    "durationTicks": 192,
                    "midi": 56,
                    "name": "G#3",
                    "ticks": 167358,
                    "time": 145.27598355625,
                    "velocity": 1,
                },
                {
                    "duration": 0.1657985447916701,
                    "durationTicks": 191,
                    "midi": 59,
                    "name": "B3",
                    "ticks": 167677,
                    "time": 145.55289316770833,
                    "velocity": 0.8976377952755905,
                },
                {
                    "duration": 0.8333330000000103,
                    "durationTicks": 960,
                    "midi": 45,
                    "name": "A2",
                    "ticks": 168000,
                    "time": 145.833275,
                    "velocity": 0.7716535433070866,
                },
                {
                    "duration": 0.1657985447916701,
                    "durationTicks": 191,
                    "midi": 40,
                    "name": "E2",
                    "ticks": 168960,
                    "time": 146.666608,
                    "velocity": 0.7952755905511811,
                },
                {
                    "duration": 0.166666599999985,
                    "durationTicks": 192,
                    "midi": 56,
                    "name": "G#3",
                    "ticks": 169278,
                    "time": 146.94264955625002,
                    "velocity": 0.9763779527559056,
                },
                {
                    "duration": 0.1657985447916701,
                    "durationTicks": 191,
                    "midi": 59,
                    "name": "B3",
                    "ticks": 169597,
                    "time": 147.21955916770833,
                    "velocity": 0.8818897637795275,
                },
                {
                    "duration": 0.8333329999999819,
                    "durationTicks": 960,
                    "midi": 40,
                    "name": "E2",
                    "ticks": 169920,
                    "time": 147.499941,
                    "velocity": 0.7795275590551181,
                },
                {
                    "duration": 0.1657985447916701,
                    "durationTicks": 191,
                    "midi": 45,
                    "name": "A2",
                    "ticks": 170880,
                    "time": 148.333274,
                    "velocity": 0.9133858267716536,
                },
                {
                    "duration": 0.166666599999985,
                    "durationTicks": 192,
                    "midi": 45,
                    "name": "A2",
                    "ticks": 171198,
                    "time": 148.60931555625,
                    "velocity": 0.8740157480314961,
                },
                {
                    "duration": 0.1657985447916701,
                    "durationTicks": 191,
                    "midi": 57,
                    "name": "A3",
                    "ticks": 171517,
                    "time": 148.88622516770835,
                    "velocity": 1,
                },
                {
                    "duration": 0.1657985447916701,
                    "durationTicks": 191,
                    "midi": 45,
                    "name": "A2",
                    "ticks": 171840,
                    "time": 149.166607,
                    "velocity": 0.7637795275590551,
                },
                {
                    "duration": 0.166666599999985,
                    "durationTicks": 192,
                    "midi": 45,
                    "name": "A2",
                    "ticks": 172158,
                    "time": 149.44264855625002,
                    "velocity": 0.8661417322834646,
                },
                {
                    "duration": 0.1657985447916701,
                    "durationTicks": 191,
                    "midi": 47,
                    "name": "B2",
                    "ticks": 172477,
                    "time": 149.71955816770833,
                    "velocity": 0.9212598425196851,
                },
                {
                    "duration": 0.1657985447916701,
                    "durationTicks": 191,
                    "midi": 48,
                    "name": "C3",
                    "ticks": 172800,
                    "time": 149.99994,
                    "velocity": 0.7716535433070866,
                },
                {
                    "duration": 0.166666599999985,
                    "durationTicks": 192,
                    "midi": 55,
                    "name": "G3",
                    "ticks": 173118,
                    "time": 150.27598155625,
                    "velocity": 0.84251968503937,
                },
                {
                    "duration": 0.1657985447916701,
                    "durationTicks": 191,
                    "midi": 60,
                    "name": "C4",
                    "ticks": 173437,
                    "time": 150.55289116770834,
                    "velocity": 0.9212598425196851,
                },
                {
                    "duration": 0.8333330000000103,
                    "durationTicks": 960,
                    "midi": 36,
                    "name": "C2",
                    "ticks": 173760,
                    "time": 150.833273,
                    "velocity": 0.6614173228346457,
                },
                {
                    "duration": 0.1657985447916701,
                    "durationTicks": 191,
                    "midi": 47,
                    "name": "B2",
                    "ticks": 174720,
                    "time": 151.666606,
                    "velocity": 0.84251968503937,
                },
                {
                    "duration": 0.16666660000001343,
                    "durationTicks": 192,
                    "midi": 47,
                    "name": "B2",
                    "ticks": 175038,
                    "time": 151.94264755625,
                    "velocity": 0.7322834645669292,
                },
                {
                    "duration": 0.1657985447916701,
                    "durationTicks": 191,
                    "midi": 59,
                    "name": "B3",
                    "ticks": 175357,
                    "time": 152.21955716770833,
                    "velocity": 0.8346456692913385,
                },
                {
                    "duration": 0.8333329999999819,
                    "durationTicks": 960,
                    "midi": 47,
                    "name": "B2",
                    "ticks": 175680,
                    "time": 152.499939,
                    "velocity": 0.6141732283464567,
                },
                {
                    "duration": 0.1657985447916701,
                    "durationTicks": 191,
                    "midi": 47,
                    "name": "B2",
                    "ticks": 176640,
                    "time": 153.333272,
                    "velocity": 0.6299212598425197,
                },
                {
                    "duration": 0.166666599999985,
                    "durationTicks": 192,
                    "midi": 59,
                    "name": "B3",
                    "ticks": 176958,
                    "time": 153.60931355625002,
                    "velocity": 0.7165354330708661,
                },
                {
                    "duration": 0.1657985447916701,
                    "durationTicks": 191,
                    "midi": 62,
                    "name": "D4",
                    "ticks": 177277,
                    "time": 153.88622316770835,
                    "velocity": 0.7086614173228346,
                },
                {
                    "duration": 0.8333329999999819,
                    "durationTicks": 960,
                    "midi": 47,
                    "name": "B2",
                    "ticks": 177600,
                    "time": 154.166605,
                    "velocity": 0.5590551181102362,
                },
                {
                    "duration": 0.1657985447916701,
                    "durationTicks": 191,
                    "midi": 45,
                    "name": "A2",
                    "ticks": 178560,
                    "time": 154.999938,
                    "velocity": 0.5590551181102362,
                },
                {
                    "duration": 0.166666599999985,
                    "durationTicks": 192,
                    "midi": 45,
                    "name": "A2",
                    "ticks": 178878,
                    "time": 155.27597955625,
                    "velocity": 0.5433070866141733,
                },
                {
                    "duration": 0.1657985447916701,
                    "durationTicks": 191,
                    "midi": 57,
                    "name": "A3",
                    "ticks": 179197,
                    "time": 155.55288916770834,
                    "velocity": 0.6062992125984252,
                },
                {
                    "duration": 0.8333330000000103,
                    "durationTicks": 960,
                    "midi": 45,
                    "name": "A2",
                    "ticks": 179520,
                    "time": 155.833271,
                    "velocity": 0.4645669291338583,
                },
                {
                    "duration": 0.1657985447916701,
                    "durationTicks": 191,
                    "midi": 45,
                    "name": "A2",
                    "ticks": 180480,
                    "time": 156.666604,
                    "velocity": 0.4094488188976378,
                },
                {
                    "duration": 0.166666599999985,
                    "durationTicks": 192,
                    "midi": 57,
                    "name": "A3",
                    "ticks": 180798,
                    "time": 156.94264555625,
                    "velocity": 0.5433070866141733,
                },
                {
                    "duration": 0.1657985447916701,
                    "durationTicks": 191,
                    "midi": 60,
                    "name": "C4",
                    "ticks": 181117,
                    "time": 157.21955516770834,
                    "velocity": 0.5433070866141733,
                },
                {
                    "duration": 0.8333330000000103,
                    "durationTicks": 960,
                    "midi": 45,
                    "name": "A2",
                    "ticks": 181440,
                    "time": 157.499937,
                    "velocity": 0.4094488188976378,
                },
                {
                    "duration": 0.1657985447916701,
                    "durationTicks": 191,
                    "midi": 44,
                    "name": "G#2",
                    "ticks": 182400,
                    "time": 158.33327,
                    "velocity": 0.4566929133858268,
                },
                {
                    "duration": 0.166666599999985,
                    "durationTicks": 192,
                    "midi": 56,
                    "name": "G#3",
                    "ticks": 182718,
                    "time": 158.60931155625002,
                    "velocity": 0.5511811023622047,
                },
                {
                    "duration": 0.1657985447916701,
                    "durationTicks": 191,
                    "midi": 59,
                    "name": "B3",
                    "ticks": 183037,
                    "time": 158.88622116770833,
                    "velocity": 0.5039370078740157,
                },
                {
                    "duration": 0.8333329999999819,
                    "durationTicks": 960,
                    "midi": 45,
                    "name": "A2",
                    "ticks": 183360,
                    "time": 159.166603,
                    "velocity": 0.3700787401574803,
                },
                {
                    "duration": 0.1657985447916701,
                    "durationTicks": 191,
                    "midi": 40,
                    "name": "E2",
                    "ticks": 184320,
                    "time": 159.999936,
                    "velocity": 0.36220472440944884,
                },
                {
                    "duration": 0.166666599999985,
                    "durationTicks": 192,
                    "midi": 56,
                    "name": "G#3",
                    "ticks": 184638,
                    "time": 160.27597755625,
                    "velocity": 0.4645669291338583,
                },
                {
                    "duration": 0.1657985447916701,
                    "durationTicks": 191,
                    "midi": 64,
                    "name": "E4",
                    "ticks": 184957,
                    "time": 160.55288716770835,
                    "velocity": 0.5118110236220472,
                },
                {
                    "duration": 0.1657985447916701,
                    "durationTicks": 191,
                    "midi": 52,
                    "name": "E3",
                    "ticks": 185280,
                    "time": 160.833269,
                    "velocity": 0.3937007874015748,
                },
                {
                    "duration": 0.16666660000001343,
                    "durationTicks": 192,
                    "midi": 52,
                    "name": "E3",
                    "ticks": 185598,
                    "time": 161.10931055625,
                    "velocity": 0.3779527559055118,
                },
                {
                    "duration": 0.1657985447916701,
                    "durationTicks": 191,
                    "midi": 52,
                    "name": "E3",
                    "ticks": 185917,
                    "time": 161.38622016770833,
                    "velocity": 0.3779527559055118,
                },
                {
                    "duration": 0.8333329999999819,
                    "durationTicks": 960,
                    "midi": 45,
                    "name": "A2",
                    "ticks": 186240,
                    "time": 161.666602,
                    "velocity": 0.3543307086614173,
                },
                {
                    "duration": 192.499923,
                    "durationTicks": 221760,
                    "midi": 40,
                    "name": "E2",
                    "ticks": 192000,
                    "time": 166.6666,
                    "velocity": 0.31496062992125984,
                },
                {
                    "duration": 0.1657985447916701,
                    "durationTicks": 191,
                    "midi": 60,
                    "name": "C4",
                    "ticks": 279997,
                    "time": 243.05285416770835,
                    "velocity": 0.6929133858267716,
                },
                {
                    "duration": 0.1657985447916701,
                    "durationTicks": 191,
                    "midi": 59,
                    "name": "B3",
                    "ticks": 280320,
                    "time": 243.333236,
                    "velocity": 0.7480314960629921,
                },
                {
                    "duration": 0.166666599999985,
                    "durationTicks": 192,
                    "midi": 57,
                    "name": "A3",
                    "ticks": 280638,
                    "time": 243.60927755625002,
                    "velocity": 0.7322834645669292,
                },
                {
                    "duration": 0.1657985447916701,
                    "durationTicks": 191,
                    "midi": 55,
                    "name": "G3",
                    "ticks": 280957,
                    "time": 243.88618716770833,
                    "velocity": 0.7637795275590551,
                },
                {
                    "duration": 0.1657985447916701,
                    "durationTicks": 191,
                    "midi": 53,
                    "name": "F3",
                    "ticks": 281280,
                    "time": 244.166569,
                    "velocity": 0.7480314960629921,
                },
                {
                    "duration": 0.166666599999985,
                    "durationTicks": 192,
                    "midi": 52,
                    "name": "E3",
                    "ticks": 281598,
                    "time": 244.44261055625,
                    "velocity": 0.7401574803149606,
                },
                {
                    "duration": 0.1657985447916701,
                    "durationTicks": 191,
                    "midi": 50,
                    "name": "D3",
                    "ticks": 281917,
                    "time": 244.71952016770834,
                    "velocity": 0.7007874015748031,
                },
                {
                    "duration": 0.1657985447916701,
                    "durationTicks": 191,
                    "midi": 48,
                    "name": "C3",
                    "ticks": 282240,
                    "time": 244.999902,
                    "velocity": 0.7401574803149606,
                },
                {
                    "duration": 0.166666599999985,
                    "durationTicks": 192,
                    "midi": 47,
                    "name": "B2",
                    "ticks": 282558,
                    "time": 245.27594355625,
                    "velocity": 0.7322834645669292,
                },
                {
                    "duration": 0.1657985447916701,
                    "durationTicks": 191,
                    "midi": 45,
                    "name": "A2",
                    "ticks": 282877,
                    "time": 245.55285316770835,
                    "velocity": 0.8582677165354331,
                },
                {
                    "duration": 0.2473957343750044,
                    "durationTicks": 285,
                    "midi": 44,
                    "name": "G#2",
                    "ticks": 283200,
                    "time": 245.833235,
                    "velocity": 0.9212598425196851,
                },
                {
                    "duration": 0.2473957343750044,
                    "durationTicks": 285,
                    "midi": 44,
                    "name": "G#2",
                    "ticks": 283680,
                    "time": 246.2499015,
                    "velocity": 0.8740157480314961,
                },
                {
                    "duration": 0.8333329999999819,
                    "durationTicks": 960,
                    "midi": 57,
                    "name": "A3",
                    "ticks": 364800,
                    "time": 316.66654,
                    "velocity": 0.2992125984251969,
                },
                {
                    "duration": 0.2473957343750044,
                    "durationTicks": 285,
                    "midi": 57,
                    "name": "A3",
                    "ticks": 365760,
                    "time": 317.499873,
                    "velocity": 0.2677165354330709,
                },
                {
                    "duration": 0.2473957343750044,
                    "durationTicks": 285,
                    "midi": 59,
                    "name": "B3",
                    "ticks": 366240,
                    "time": 317.9165395,
                    "velocity": 0.2283464566929134,
                },
                {
                    "duration": 0.4973956343749819,
                    "durationTicks": 573,
                    "midi": 60,
                    "name": "C4",
                    "ticks": 366720,
                    "time": 318.333206,
                    "velocity": 0.3228346456692913,
                },
                {
                    "duration": 0.47135397812502333,
                    "durationTicks": 543,
                    "midi": 60,
                    "name": "C4",
                    "ticks": 367680,
                    "time": 319.166539,
                    "velocity": 0.30708661417322836,
                },
                {
                    "duration": 0.8333330000000387,
                    "durationTicks": 960,
                    "midi": 59,
                    "name": "B3",
                    "ticks": 368640,
                    "time": 319.999872,
                    "velocity": 0.25196850393700787,
                },
                {
                    "duration": 0.24739573437494755,
                    "durationTicks": 285,
                    "midi": 59,
                    "name": "B3",
                    "ticks": 369600,
                    "time": 320.833205,
                    "velocity": 0.2755905511811024,
                },
                {
                    "duration": 0.2473957343750044,
                    "durationTicks": 285,
                    "midi": 61,
                    "name": "C#4",
                    "ticks": 370080,
                    "time": 321.2498715,
                    "velocity": 0.2992125984251969,
                },
                {
                    "duration": 0.2473957343750044,
                    "durationTicks": 285,
                    "midi": 62,
                    "name": "D4",
                    "ticks": 370560,
                    "time": 321.666538,
                    "velocity": 0.30708661417322836,
                },
                {
                    "duration": 0.24739573437494755,
                    "durationTicks": 285,
                    "midi": 60,
                    "name": "C4",
                    "ticks": 371040,
                    "time": 322.0832045,
                    "velocity": 0.25984251968503935,
                },
                {
                    "duration": 0.2473957343750044,
                    "durationTicks": 285,
                    "midi": 59,
                    "name": "B3",
                    "ticks": 371520,
                    "time": 322.499871,
                    "velocity": 0.29133858267716534,
                },
                {
                    "duration": 0.2473957343750044,
                    "durationTicks": 285,
                    "midi": 57,
                    "name": "A3",
                    "ticks": 372000,
                    "time": 322.9165375,
                    "velocity": 0.23622047244094488,
                },
                {
                    "duration": 0.12326383958333054,
                    "durationTicks": 142,
                    "midi": 55,
                    "name": "G3",
                    "ticks": 372480,
                    "time": 323.333204,
                    "velocity": 0.28346456692913385,
                },
                {
                    "duration": 0.12326383958338738,
                    "durationTicks": 142,
                    "midi": 57,
                    "name": "A3",
                    "ticks": 372720,
                    "time": 323.54153725,
                    "velocity": 0.2992125984251969,
                },
                {
                    "duration": 0.12326383958333054,
                    "durationTicks": 142,
                    "midi": 59,
                    "name": "B3",
                    "ticks": 372960,
                    "time": 323.7498705,
                    "velocity": 0.2755905511811024,
                },
                {
                    "duration": 0.12326383958333054,
                    "durationTicks": 142,
                    "midi": 57,
                    "name": "A3",
                    "ticks": 373200,
                    "time": 323.95820375,
                    "velocity": 0.2677165354330709,
                },
                {
                    "duration": 0.12326383958333054,
                    "durationTicks": 142,
                    "midi": 55,
                    "name": "G3",
                    "ticks": 373440,
                    "time": 324.166537,
                    "velocity": 0.30708661417322836,
                },
                {
                    "duration": 0.12326383958333054,
                    "durationTicks": 142,
                    "midi": 57,
                    "name": "A3",
                    "ticks": 373680,
                    "time": 324.37487025,
                    "velocity": 0.28346456692913385,
                },
                {
                    "duration": 0.12326383958333054,
                    "durationTicks": 142,
                    "midi": 55,
                    "name": "G3",
                    "ticks": 373920,
                    "time": 324.5832035,
                    "velocity": 0.28346456692913385,
                },
                {
                    "duration": 0.12326383958333054,
                    "durationTicks": 142,
                    "midi": 54,
                    "name": "F#3",
                    "ticks": 374160,
                    "time": 324.79153675,
                    "velocity": 0.29133858267716534,
                },
                {
                    "duration": 0.12326383958333054,
                    "durationTicks": 142,
                    "midi": 52,
                    "name": "E3",
                    "ticks": 374400,
                    "time": 324.99987,
                    "velocity": 0.25984251968503935,
                },
                {
                    "duration": 0.12326383958333054,
                    "durationTicks": 142,
                    "midi": 54,
                    "name": "F#3",
                    "ticks": 374640,
                    "time": 325.20820325,
                    "velocity": 0.2992125984251969,
                },
                {
                    "duration": 0.12326383958333054,
                    "durationTicks": 142,
                    "midi": 55,
                    "name": "G3",
                    "ticks": 374880,
                    "time": 325.4165365,
                    "velocity": 0.29133858267716534,
                },
                {
                    "duration": 0.12326383958333054,
                    "durationTicks": 142,
                    "midi": 57,
                    "name": "A3",
                    "ticks": 375120,
                    "time": 325.62486975,
                    "velocity": 0.28346456692913385,
                },
                {
                    "duration": 0.12326383958338738,
                    "durationTicks": 142,
                    "midi": 59,
                    "name": "B3",
                    "ticks": 375360,
                    "time": 325.83320299999997,
                    "velocity": 0.36220472440944884,
                },
                {
                    "duration": 0.12326383958333054,
                    "durationTicks": 142,
                    "midi": 61,
                    "name": "C#4",
                    "ticks": 375600,
                    "time": 326.04153625,
                    "velocity": 0.2992125984251969,
                },
                {
                    "duration": 0.12326383958333054,
                    "durationTicks": 142,
                    "midi": 63,
                    "name": "D#4",
                    "ticks": 375840,
                    "time": 326.2498695,
                    "velocity": 0.2755905511811024,
                },
                {
                    "duration": 0.12326383958333054,
                    "durationTicks": 142,
                    "midi": 64,
                    "name": "E4",
                    "ticks": 376080,
                    "time": 326.45820275,
                    "velocity": 0.29133858267716534,
                },
                {
                    "duration": 0.12326383958333054,
                    "durationTicks": 142,
                    "midi": 64,
                    "name": "E4",
                    "ticks": 376320,
                    "time": 326.666536,
                    "velocity": 0.2677165354330709,
                },
                {
                    "duration": 0.12326383958333054,
                    "durationTicks": 142,
                    "midi": 57,
                    "name": "A3",
                    "ticks": 376560,
                    "time": 326.87486925,
                    "velocity": 0.2204724409448819,
                },
                {
                    "duration": 0.12326383958338738,
                    "durationTicks": 142,
                    "midi": 59,
                    "name": "B3",
                    "ticks": 376800,
                    "time": 327.08320249999997,
                    "velocity": 0.29133858267716534,
                },
                {
                    "duration": 0.12326383958333054,
                    "durationTicks": 142,
                    "midi": 61,
                    "name": "C#4",
                    "ticks": 377040,
                    "time": 327.29153575,
                    "velocity": 0.29133858267716534,
                },
                {
                    "duration": 0.12326383958333054,
                    "durationTicks": 142,
                    "midi": 62,
                    "name": "D4",
                    "ticks": 377280,
                    "time": 327.499869,
                    "velocity": 0.29133858267716534,
                },
                {
                    "duration": 0.12326383958333054,
                    "durationTicks": 142,
                    "midi": 59,
                    "name": "B3",
                    "ticks": 377520,
                    "time": 327.70820225,
                    "velocity": 0.2992125984251969,
                },
                {
                    "duration": 0.12326383958333054,
                    "durationTicks": 142,
                    "midi": 64,
                    "name": "E4",
                    "ticks": 377760,
                    "time": 327.9165355,
                    "velocity": 0.33070866141732286,
                },
                {
                    "duration": 0.12326383958333054,
                    "durationTicks": 142,
                    "midi": 62,
                    "name": "D4",
                    "ticks": 378000,
                    "time": 328.12486875,
                    "velocity": 0.25984251968503935,
                },
                {
                    "duration": 0.12326383958338738,
                    "durationTicks": 142,
                    "midi": 60,
                    "name": "C4",
                    "ticks": 378240,
                    "time": 328.33320199999997,
                    "velocity": 0.2440944881889764,
                },
                {
                    "duration": 0.12326383958333054,
                    "durationTicks": 142,
                    "midi": 59,
                    "name": "B3",
                    "ticks": 378480,
                    "time": 328.54153525,
                    "velocity": 0.2755905511811024,
                },
                {
                    "duration": 0.12326383958333054,
                    "durationTicks": 142,
                    "midi": 60,
                    "name": "C4",
                    "ticks": 378720,
                    "time": 328.7498685,
                    "velocity": 0.2992125984251969,
                },
                {
                    "duration": 0.12326383958333054,
                    "durationTicks": 142,
                    "midi": 62,
                    "name": "D4",
                    "ticks": 378960,
                    "time": 328.95820175,
                    "velocity": 0.25984251968503935,
                },
                {
                    "duration": 0.12326383958333054,
                    "durationTicks": 142,
                    "midi": 64,
                    "name": "E4",
                    "ticks": 379200,
                    "time": 329.166535,
                    "velocity": 0.2992125984251969,
                },
                {
                    "duration": 0.12326383958333054,
                    "durationTicks": 142,
                    "midi": 52,
                    "name": "E3",
                    "ticks": 379440,
                    "time": 329.37486825,
                    "velocity": 0.2677165354330709,
                },
                {
                    "duration": 0.12326383958338738,
                    "durationTicks": 142,
                    "midi": 54,
                    "name": "F#3",
                    "ticks": 379680,
                    "time": 329.5832015,
                    "velocity": 0.25984251968503935,
                },
                {
                    "duration": 0.12326383958333054,
                    "durationTicks": 142,
                    "midi": 56,
                    "name": "G#3",
                    "ticks": 379920,
                    "time": 329.79153475,
                    "velocity": 0.30708661417322836,
                },
                {
                    "duration": 0.2473957343750044,
                    "durationTicks": 285,
                    "midi": 57,
                    "name": "A3",
                    "ticks": 380160,
                    "time": 329.999868,
                    "velocity": 0.28346456692913385,
                },
                {
                    "duration": 0.2473957343750044,
                    "durationTicks": 285,
                    "midi": 55,
                    "name": "G3",
                    "ticks": 380640,
                    "time": 330.4165345,
                    "velocity": 0.28346456692913385,
                },
                {
                    "duration": 0.2473957343750044,
                    "durationTicks": 285,
                    "midi": 54,
                    "name": "F#3",
                    "ticks": 381120,
                    "time": 330.833201,
                    "velocity": 0.25984251968503935,
                },
                {
                    "duration": 0.2473957343750044,
                    "durationTicks": 285,
                    "midi": 52,
                    "name": "E3",
                    "ticks": 381600,
                    "time": 331.2498675,
                    "velocity": 0.2440944881889764,
                },
                {
                    "duration": 0.12326383958333054,
                    "durationTicks": 142,
                    "midi": 54,
                    "name": "F#3",
                    "ticks": 382080,
                    "time": 331.666534,
                    "velocity": 0.2992125984251969,
                },
                {
                    "duration": 0.12326383958333054,
                    "durationTicks": 142,
                    "midi": 54,
                    "name": "F#3",
                    "ticks": 382320,
                    "time": 331.87486725,
                    "velocity": 0.25984251968503935,
                },
                {
                    "duration": 0.12326383958338738,
                    "durationTicks": 142,
                    "midi": 55,
                    "name": "G3",
                    "ticks": 382560,
                    "time": 332.0832005,
                    "velocity": 0.25984251968503935,
                },
                {
                    "duration": 0.12326383958333054,
                    "durationTicks": 142,
                    "midi": 57,
                    "name": "A3",
                    "ticks": 382800,
                    "time": 332.29153375,
                    "velocity": 0.2755905511811024,
                },
                {
                    "duration": 0.12326383958333054,
                    "durationTicks": 142,
                    "midi": 50,
                    "name": "D3",
                    "ticks": 383040,
                    "time": 332.499867,
                    "velocity": 0.25984251968503935,
                },
                {
                    "duration": 0.12326383958333054,
                    "durationTicks": 142,
                    "midi": 50,
                    "name": "D3",
                    "ticks": 383280,
                    "time": 332.70820025,
                    "velocity": 0.2677165354330709,
                },
                {
                    "duration": 0.12326383958333054,
                    "durationTicks": 142,
                    "midi": 52,
                    "name": "E3",
                    "ticks": 383520,
                    "time": 332.9165335,
                    "velocity": 0.25196850393700787,
                },
                {
                    "duration": 0.12326383958333054,
                    "durationTicks": 142,
                    "midi": 54,
                    "name": "F#3",
                    "ticks": 383760,
                    "time": 333.12486675,
                    "velocity": 0.33070866141732286,
                },
                {
                    "duration": 0.2473957343750044,
                    "durationTicks": 285,
                    "midi": 55,
                    "name": "G3",
                    "ticks": 384000,
                    "time": 333.3332,
                    "velocity": 0.28346456692913385,
                },
                {
                    "duration": 0.2473957343750044,
                    "durationTicks": 285,
                    "midi": 53,
                    "name": "F3",
                    "ticks": 384480,
                    "time": 333.7498665,
                    "velocity": 0.29133858267716534,
                },
                {
                    "duration": 0.2473957343750044,
                    "durationTicks": 285,
                    "midi": 52,
                    "name": "E3",
                    "ticks": 384960,
                    "time": 334.166533,
                    "velocity": 0.2755905511811024,
                },
                {
                    "duration": 0.8333330000000387,
                    "durationTicks": 960,
                    "midi": 50,
                    "name": "D3",
                    "ticks": 385440,
                    "time": 334.5831995,
                    "velocity": 0.2125984251968504,
                },
                {
                    "duration": 0.8333329999999819,
                    "durationTicks": 960,
                    "midi": 48,
                    "name": "C3",
                    "ticks": 386400,
                    "time": 335.4165325,
                    "velocity": 0.28346456692913385,
                },
                {
                    "duration": 0.8333329999999819,
                    "durationTicks": 960,
                    "midi": 55,
                    "name": "G3",
                    "ticks": 387360,
                    "time": 336.2498655,
                    "velocity": 0.28346456692913385,
                },
                {
                    "duration": 0.8333330000000387,
                    "durationTicks": 960,
                    "midi": 48,
                    "name": "C3",
                    "ticks": 388320,
                    "time": 337.0831985,
                    "velocity": 0.2283464566929134,
                },
                {
                    "duration": 0.4166664999999625,
                    "durationTicks": 480,
                    "midi": 60,
                    "name": "C4",
                    "ticks": 389280,
                    "time": 337.9165315,
                    "velocity": 0.3543307086614173,
                },
                {
                    "duration": 0.8333329999999819,
                    "durationTicks": 960,
                    "midi": 62,
                    "name": "D4",
                    "ticks": 393600,
                    "time": 341.66653,
                    "velocity": 0.3228346456692913,
                },
                {
                    "duration": 0.2473957343750044,
                    "durationTicks": 285,
                    "midi": 62,
                    "name": "D4",
                    "ticks": 394560,
                    "time": 342.499863,
                    "velocity": 0.2677165354330709,
                },
                {
                    "duration": 0.24739573437494755,
                    "durationTicks": 285,
                    "midi": 64,
                    "name": "E4",
                    "ticks": 395040,
                    "time": 342.9165295,
                    "velocity": 0.28346456692913385,
                },
                {
                    "duration": 0.49739563437503875,
                    "durationTicks": 573,
                    "midi": 65,
                    "name": "F4",
                    "ticks": 395520,
                    "time": 343.333196,
                    "velocity": 0.2992125984251969,
                },
                {
                    "duration": 0.47135397812502333,
                    "durationTicks": 543,
                    "midi": 65,
                    "name": "F4",
                    "ticks": 396480,
                    "time": 344.16652899999997,
                    "velocity": 0.30708661417322836,
                },
                {
                    "duration": 0.12326383958333054,
                    "durationTicks": 142,
                    "midi": 53,
                    "name": "F3",
                    "ticks": 397440,
                    "time": 344.999862,
                    "velocity": 0.2283464566929134,
                },
                {
                    "duration": 0.12326383958333054,
                    "durationTicks": 142,
                    "midi": 52,
                    "name": "E3",
                    "ticks": 397680,
                    "time": 345.20819525,
                    "velocity": 0.2677165354330709,
                },
                {
                    "duration": 0.12326383958338738,
                    "durationTicks": 142,
                    "midi": 55,
                    "name": "G3",
                    "ticks": 397920,
                    "time": 345.41652849999997,
                    "velocity": 0.30708661417322836,
                },
                {
                    "duration": 0.12326383958333054,
                    "durationTicks": 142,
                    "midi": 53,
                    "name": "F3",
                    "ticks": 398160,
                    "time": 345.62486175,
                    "velocity": 0.25196850393700787,
                },
                {
                    "duration": 0.12326383958333054,
                    "durationTicks": 142,
                    "midi": 52,
                    "name": "E3",
                    "ticks": 398400,
                    "time": 345.833195,
                    "velocity": 0.2755905511811024,
                },
                {
                    "duration": 0.12326383958333054,
                    "durationTicks": 142,
                    "midi": 55,
                    "name": "G3",
                    "ticks": 398640,
                    "time": 346.04152825,
                    "velocity": 0.31496062992125984,
                },
                {
                    "duration": 0.12326383958333054,
                    "durationTicks": 142,
                    "midi": 53,
                    "name": "F3",
                    "ticks": 398880,
                    "time": 346.2498615,
                    "velocity": 0.29133858267716534,
                },
                {
                    "duration": 0.12326383958333054,
                    "durationTicks": 142,
                    "midi": 52,
                    "name": "E3",
                    "ticks": 399120,
                    "time": 346.45819475,
                    "velocity": 0.2677165354330709,
                },
                {
                    "duration": 0.12326383958338738,
                    "durationTicks": 142,
                    "midi": 50,
                    "name": "D3",
                    "ticks": 399360,
                    "time": 346.66652799999997,
                    "velocity": 0.2992125984251969,
                },
                {
                    "duration": 0.12326383958333054,
                    "durationTicks": 142,
                    "midi": 52,
                    "name": "E3",
                    "ticks": 399600,
                    "time": 346.87486125,
                    "velocity": 0.25984251968503935,
                },
                {
                    "duration": 0.12326383958333054,
                    "durationTicks": 142,
                    "midi": 53,
                    "name": "F3",
                    "ticks": 399840,
                    "time": 347.0831945,
                    "velocity": 0.31496062992125984,
                },
                {
                    "duration": 0.12326383958333054,
                    "durationTicks": 142,
                    "midi": 55,
                    "name": "G3",
                    "ticks": 400080,
                    "time": 347.29152775,
                    "velocity": 0.2755905511811024,
                },
                {
                    "duration": 0.12326383958333054,
                    "durationTicks": 142,
                    "midi": 57,
                    "name": "A3",
                    "ticks": 400320,
                    "time": 347.499861,
                    "velocity": 0.30708661417322836,
                },
                {
                    "duration": 0.12326383958333054,
                    "durationTicks": 142,
                    "midi": 59,
                    "name": "B3",
                    "ticks": 400560,
                    "time": 347.70819425,
                    "velocity": 0.29133858267716534,
                },
                {
                    "duration": 0.12326383958338738,
                    "durationTicks": 142,
                    "midi": 61,
                    "name": "C#4",
                    "ticks": 400800,
                    "time": 347.9165275,
                    "velocity": 0.28346456692913385,
                },
                {
                    "duration": 0.12326383958333054,
                    "durationTicks": 142,
                    "midi": 62,
                    "name": "D4",
                    "ticks": 401040,
                    "time": 348.12486075,
                    "velocity": 0.2755905511811024,
                },
                {
                    "duration": 0.12326383958333054,
                    "durationTicks": 142,
                    "midi": 62,
                    "name": "D4",
                    "ticks": 401280,
                    "time": 348.333194,
                    "velocity": 0.30708661417322836,
                },
                {
                    "duration": 0.12326383958333054,
                    "durationTicks": 142,
                    "midi": 50,
                    "name": "D3",
                    "ticks": 401520,
                    "time": 348.54152725,
                    "velocity": 0.29133858267716534,
                },
                {
                    "duration": 0.12326383958333054,
                    "durationTicks": 142,
                    "midi": 50,
                    "name": "D3",
                    "ticks": 401760,
                    "time": 348.7498605,
                    "velocity": 0.2992125984251969,
                },
                {
                    "duration": 0.12326383958333054,
                    "durationTicks": 142,
                    "midi": 50,
                    "name": "D3",
                    "ticks": 402000,
                    "time": 348.95819375,
                    "velocity": 0.3228346456692913,
                },
                {
                    "duration": 0.12326383958338738,
                    "durationTicks": 142,
                    "midi": 50,
                    "name": "D3",
                    "ticks": 402240,
                    "time": 349.166527,
                    "velocity": 0.29133858267716534,
                },
                {
                    "duration": 0.12326383958333054,
                    "durationTicks": 142,
                    "midi": 50,
                    "name": "D3",
                    "ticks": 402480,
                    "time": 349.37486025,
                    "velocity": 0.3858267716535433,
                },
                {
                    "duration": 0.12326383958333054,
                    "durationTicks": 142,
                    "midi": 50,
                    "name": "D3",
                    "ticks": 402720,
                    "time": 349.5831935,
                    "velocity": 0.3700787401574803,
                },
                {
                    "duration": 0.12326383958333054,
                    "durationTicks": 142,
                    "midi": 50,
                    "name": "D3",
                    "ticks": 402960,
                    "time": 349.79152675,
                    "velocity": 0.36220472440944884,
                },
                {
                    "duration": 0.12326383958333054,
                    "durationTicks": 142,
                    "midi": 50,
                    "name": "D3",
                    "ticks": 403200,
                    "time": 349.99986,
                    "velocity": 0.36220472440944884,
                },
                {
                    "duration": 0.12326383958333054,
                    "durationTicks": 142,
                    "midi": 50,
                    "name": "D3",
                    "ticks": 403440,
                    "time": 350.20819325,
                    "velocity": 0.44881889763779526,
                },
                {
                    "duration": 0.12326383958338738,
                    "durationTicks": 142,
                    "midi": 50,
                    "name": "D3",
                    "ticks": 403680,
                    "time": 350.4165265,
                    "velocity": 0.47244094488188976,
                },
                {
                    "duration": 0.12326383958333054,
                    "durationTicks": 142,
                    "midi": 50,
                    "name": "D3",
                    "ticks": 403920,
                    "time": 350.62485975,
                    "velocity": 0.4566929133858268,
                },
                {
                    "duration": 0.12326383958333054,
                    "durationTicks": 142,
                    "midi": 50,
                    "name": "D3",
                    "ticks": 404160,
                    "time": 350.833193,
                    "velocity": 0.5196850393700787,
                },
                {
                    "duration": 0.12326383958333054,
                    "durationTicks": 142,
                    "midi": 50,
                    "name": "D3",
                    "ticks": 404400,
                    "time": 351.04152625,
                    "velocity": 0.5275590551181102,
                },
                {
                    "duration": 0.12326383958333054,
                    "durationTicks": 142,
                    "midi": 50,
                    "name": "D3",
                    "ticks": 404640,
                    "time": 351.2498595,
                    "velocity": 0.5275590551181102,
                },
                {
                    "duration": 0.12326383958333054,
                    "durationTicks": 142,
                    "midi": 50,
                    "name": "D3",
                    "ticks": 404880,
                    "time": 351.45819275,
                    "velocity": 0.5748031496062992,
                },
                {
                    "duration": 0.12326383958338738,
                    "durationTicks": 142,
                    "midi": 50,
                    "name": "D3",
                    "ticks": 405120,
                    "time": 351.666526,
                    "velocity": 0.5984251968503937,
                },
                {
                    "duration": 0.12326383958333054,
                    "durationTicks": 142,
                    "midi": 50,
                    "name": "D3",
                    "ticks": 405360,
                    "time": 351.87485925,
                    "velocity": 0.6141732283464567,
                },
                {
                    "duration": 0.12326383958333054,
                    "durationTicks": 142,
                    "midi": 50,
                    "name": "D3",
                    "ticks": 405600,
                    "time": 352.0831925,
                    "velocity": 0.6299212598425197,
                },
                {
                    "duration": 0.12326383958333054,
                    "durationTicks": 142,
                    "midi": 50,
                    "name": "D3",
                    "ticks": 405840,
                    "time": 352.29152575,
                    "velocity": 0.6535433070866141,
                },
                {
                    "duration": 0.12326383958333054,
                    "durationTicks": 142,
                    "midi": 50,
                    "name": "D3",
                    "ticks": 406080,
                    "time": 352.499859,
                    "velocity": 0.6299212598425197,
                },
                {
                    "duration": 0.12326383958338738,
                    "durationTicks": 142,
                    "midi": 50,
                    "name": "D3",
                    "ticks": 406320,
                    "time": 352.70819224999997,
                    "velocity": 0.6535433070866141,
                },
                {
                    "duration": 0.12326383958333054,
                    "durationTicks": 142,
                    "midi": 50,
                    "name": "D3",
                    "ticks": 406560,
                    "time": 352.9165255,
                    "velocity": 0.7007874015748031,
                },
                {
                    "duration": 0.12326383958333054,
                    "durationTicks": 142,
                    "midi": 50,
                    "name": "D3",
                    "ticks": 406800,
                    "time": 353.12485875,
                    "velocity": 0.7244094488188977,
                },
                {
                    "duration": 0.12326383958333054,
                    "durationTicks": 142,
                    "midi": 50,
                    "name": "D3",
                    "ticks": 407040,
                    "time": 353.333192,
                    "velocity": 0.7322834645669292,
                },
                {
                    "duration": 0.12326383958333054,
                    "durationTicks": 142,
                    "midi": 50,
                    "name": "D3",
                    "ticks": 407280,
                    "time": 353.54152525,
                    "velocity": 0.7480314960629921,
                },
                {
                    "duration": 0.12326383958333054,
                    "durationTicks": 142,
                    "midi": 50,
                    "name": "D3",
                    "ticks": 407520,
                    "time": 353.7498585,
                    "velocity": 0.7559055118110236,
                },
                {
                    "duration": 0.12326383958338738,
                    "durationTicks": 142,
                    "midi": 50,
                    "name": "D3",
                    "ticks": 407760,
                    "time": 353.95819174999997,
                    "velocity": 0.8031496062992126,
                },
                {
                    "duration": 0.12326383958333054,
                    "durationTicks": 142,
                    "midi": 50,
                    "name": "D3",
                    "ticks": 408000,
                    "time": 354.166525,
                    "velocity": 0.8031496062992126,
                },
                {
                    "duration": 0.12326383958333054,
                    "durationTicks": 142,
                    "midi": 50,
                    "name": "D3",
                    "ticks": 408240,
                    "time": 354.37485825,
                    "velocity": 0.84251968503937,
                },
                {
                    "duration": 0.12326383958333054,
                    "durationTicks": 142,
                    "midi": 48,
                    "name": "C3",
                    "ticks": 408480,
                    "time": 354.5831915,
                    "velocity": 0.8031496062992126,
                },
                {
                    "duration": 0.12326383958333054,
                    "durationTicks": 142,
                    "midi": 47,
                    "name": "B2",
                    "ticks": 408720,
                    "time": 354.79152475,
                    "velocity": 0.8188976377952756,
                },
                {
                    "duration": 0.8333329999999819,
                    "durationTicks": 960,
                    "midi": 45,
                    "name": "A2",
                    "ticks": 408960,
                    "time": 354.999858,
                    "velocity": 0.8346456692913385,
                },
                {
                    "duration": 0.2473957343750044,
                    "durationTicks": 285,
                    "midi": 45,
                    "name": "A2",
                    "ticks": 409920,
                    "time": 355.833191,
                    "velocity": 0.8582677165354331,
                },
                {
                    "duration": 0.2473957343750044,
                    "durationTicks": 285,
                    "midi": 45,
                    "name": "A2",
                    "ticks": 410400,
                    "time": 356.2498575,
                    "velocity": 0.8976377952755905,
                },
                {
                    "duration": 0.49739563437503875,
                    "durationTicks": 573,
                    "midi": 44,
                    "name": "G#2",
                    "ticks": 410880,
                    "time": 356.666524,
                    "velocity": 0.84251968503937,
                },
                {
                    "duration": 0.4713539781249665,
                    "durationTicks": 543,
                    "midi": 44,
                    "name": "G#2",
                    "ticks": 411840,
                    "time": 357.499857,
                    "velocity": 0.8818897637795275,
                },
                {
                    "duration": 1.0807287343749863,
                    "durationTicks": 1245,
                    "midi": 40,
                    "name": "E2",
                    "ticks": 412800,
                    "time": 358.33319,
                    "velocity": 0.8503937007874016,
                },
                {
                    "duration": 0.6640622343750238,
                    "durationTicks": 765,
                    "midi": 40,
                    "name": "E2",
                    "ticks": 413760,
                    "time": 359.166523,
                    "velocity": 0.8740157480314961,
                },
                {
                    "duration": 6.249997500000006,
                    "durationTicks": 7200,
                    "midi": 40,
                    "name": "E2",
                    "ticks": 414240,
                    "time": 359.5831895,
                    "velocity": 0.8976377952755905,
                },
                {
                    "duration": 0.4973956343749819,
                    "durationTicks": 573,
                    "midi": 45,
                    "name": "A2",
                    "ticks": 414720,
                    "time": 359.999856,
                    "velocity": 0.968503937007874,
                },
                {
                    "duration": 0.47135397812502333,
                    "durationTicks": 543,
                    "midi": 45,
                    "name": "A2",
                    "ticks": 415680,
                    "time": 360.833189,
                    "velocity": 0.9133858267716536,
                },
                {
                    "duration": 0.8333329999999819,
                    "durationTicks": 960,
                    "midi": 45,
                    "name": "A2",
                    "ticks": 416640,
                    "time": 361.666522,
                    "velocity": 0.889763779527559,
                },
                {
                    "duration": 0.2473957343750044,
                    "durationTicks": 285,
                    "midi": 45,
                    "name": "A2",
                    "ticks": 417600,
                    "time": 362.49985499999997,
                    "velocity": 0.8503937007874016,
                },
                {
                    "duration": 0.2473957343750044,
                    "durationTicks": 285,
                    "midi": 45,
                    "name": "A2",
                    "ticks": 418080,
                    "time": 362.9165215,
                    "velocity": 0.8661417322834646,
                },
                {
                    "duration": 0.5078122968749881,
                    "durationTicks": 585,
                    "midi": 44,
                    "name": "G#2",
                    "ticks": 418560,
                    "time": 363.333188,
                    "velocity": 0.8661417322834646,
                },
                {
                    "duration": 0.47135397812502333,
                    "durationTicks": 543,
                    "midi": 45,
                    "name": "A2",
                    "ticks": 419520,
                    "time": 364.166521,
                    "velocity": 0.8818897637795275,
                },
                {
                    "duration": 0.2473957343750044,
                    "durationTicks": 285,
                    "midi": 52,
                    "name": "E3",
                    "ticks": 421440,
                    "time": 365.833187,
                    "velocity": 0.9921259842519685,
                },
                {
                    "duration": 0.2473957343750044,
                    "durationTicks": 285,
                    "midi": 52,
                    "name": "E3",
                    "ticks": 421920,
                    "time": 366.2498535,
                    "velocity": 0.905511811023622,
                },
                {
                    "duration": 0.8333329999999819,
                    "durationTicks": 960,
                    "midi": 45,
                    "name": "A2",
                    "ticks": 422400,
                    "time": 366.66652,
                    "velocity": 0.7952755905511811,
                },
                {
                    "duration": 1.6987840427083256,
                    "durationTicks": 1957,
                    "midi": 57,
                    "name": "A3",
                    "ticks": 464640,
                    "time": 403.333172,
                    "velocity": 0.2755905511811024,
                },
                {
                    "duration": 1.6987840427083256,
                    "durationTicks": 1957,
                    "midi": 53,
                    "name": "F3",
                    "ticks": 466560,
                    "time": 404.999838,
                    "velocity": 0.2283464566929134,
                },
                {
                    "duration": 1.6987840427083825,
                    "durationTicks": 1957,
                    "midi": 52,
                    "name": "E3",
                    "ticks": 468480,
                    "time": 406.666504,
                    "velocity": 0.25196850393700787,
                },
                {
                    "duration": 1.5815965895833415,
                    "durationTicks": 1822,
                    "midi": 50,
                    "name": "D3",
                    "ticks": 470400,
                    "time": 408.33317,
                    "velocity": 0.2204724409448819,
                },
                {
                    "duration": 0.4166664999999625,
                    "durationTicks": 480,
                    "midi": 43,
                    "name": "G2",
                    "ticks": 472320,
                    "time": 409.999836,
                    "velocity": 0.8110236220472441,
                },
                {
                    "duration": 0.41666650000001937,
                    "durationTicks": 480,
                    "midi": 55,
                    "name": "G3",
                    "ticks": 473280,
                    "time": 410.833169,
                    "velocity": 0.7637795275590551,
                },
                {
                    "duration": 0.8333330000000387,
                    "durationTicks": 960,
                    "midi": 48,
                    "name": "C3",
                    "ticks": 474240,
                    "time": 411.666502,
                    "velocity": 0.8031496062992126,
                },
                {
                    "duration": 0.8333329999999819,
                    "durationTicks": 960,
                    "midi": 52,
                    "name": "E3",
                    "ticks": 476160,
                    "time": 413.333168,
                    "velocity": 0.3543307086614173,
                },
                {
                    "duration": 0.2473957343750044,
                    "durationTicks": 285,
                    "midi": 52,
                    "name": "E3",
                    "ticks": 477120,
                    "time": 414.166501,
                    "velocity": 0.36220472440944884,
                },
                {
                    "duration": 0.2473957343750044,
                    "durationTicks": 285,
                    "midi": 52,
                    "name": "E3",
                    "ticks": 477600,
                    "time": 414.5831675,
                    "velocity": 0.3858267716535433,
                },
                {
                    "duration": 0.4166664999999625,
                    "durationTicks": 480,
                    "midi": 45,
                    "name": "A2",
                    "ticks": 478080,
                    "time": 414.999834,
                    "velocity": 0.33858267716535434,
                },
                {
                    "duration": 0.41666650000001937,
                    "durationTicks": 480,
                    "midi": 43,
                    "name": "G2",
                    "ticks": 480000,
                    "time": 416.6665,
                    "velocity": 0.7559055118110236,
                },
                {
                    "duration": 0.41666650000001937,
                    "durationTicks": 480,
                    "midi": 55,
                    "name": "G3",
                    "ticks": 480960,
                    "time": 417.49983299999997,
                    "velocity": 0.7795275590551181,
                },
                {
                    "duration": 0.8333329999999819,
                    "durationTicks": 960,
                    "midi": 48,
                    "name": "C3",
                    "ticks": 481920,
                    "time": 418.333166,
                    "velocity": 0.8267716535433071,
                },
                {
                    "duration": 0.8333330000000387,
                    "durationTicks": 960,
                    "midi": 52,
                    "name": "E3",
                    "ticks": 483840,
                    "time": 419.99983199999997,
                    "velocity": 0.31496062992125984,
                },
                {
                    "duration": 0.2473957343750044,
                    "durationTicks": 285,
                    "midi": 52,
                    "name": "E3",
                    "ticks": 484800,
                    "time": 420.833165,
                    "velocity": 0.3543307086614173,
                },
                {
                    "duration": 0.2473957343750044,
                    "durationTicks": 285,
                    "midi": 52,
                    "name": "E3",
                    "ticks": 485280,
                    "time": 421.24983149999997,
                    "velocity": 0.3779527559055118,
                },
                {
                    "duration": 0.967741999999987,
                    "durationTicks": 960,
                    "midi": 45,
                    "name": "A2",
                    "ticks": 528000,
                    "time": 458.33315,
                    "velocity": 0.6692913385826772,
                },
            ],
        },
        {
            "channel": 8,
            "controlChanges": {
                "7": [
                    {"number": 7, "ticks": 0, "time": 0, "value": 0.7480314960629921},
                    {
                        "number": 7,
                        "ticks": 528000,
                        "time": 458.33315,
                        "value": 0.7480314960629921,
                    },
                ],
                "10": [
                    {"number": 10, "ticks": 0, "time": 0, "value": 0.5905511811023622},
                    {
                        "number": 10,
                        "ticks": 528000,
                        "time": 458.33315,
                        "value": 0.5905511811023622,
                    },
                ],
                "64": [{"number": 64, "ticks": 0, "time": 0, "value": 0}],
                "91": [
                    {"number": 91, "ticks": 0, "time": 0, "value": 0.47244094488188976},
                    {
                        "number": 91,
                        "ticks": 528000,
                        "time": 458.33315,
                        "value": 0.4645669291338583,
                    },
                ],
                "121": [{"number": 121, "ticks": 0, "time": 0, "value": 0}],
            },
            "pitchBends": [],
            "instrument": {
                "family": "ensemble",
                "number": 48,
                "name": "string ensemble 1",
            },
            "name": "",
            "notes": [
                {
                    "duration": 0.8333330000000001,
                    "durationTicks": 960,
                    "midi": 52,
                    "name": "E3",
                    "ticks": 3840,
                    "time": 3.333332,
                    "velocity": 0.3464566929133858,
                },
                {
                    "duration": 0.24739573437499995,
                    "durationTicks": 285,
                    "midi": 52,
                    "name": "E3",
                    "ticks": 4800,
                    "time": 4.166665,
                    "velocity": 0.36220472440944884,
                },
                {
                    "duration": 0.24739573437499995,
                    "durationTicks": 285,
                    "midi": 52,
                    "name": "E3",
                    "ticks": 5280,
                    "time": 4.5833315,
                    "velocity": 0.4015748031496063,
                },
                {
                    "duration": 0.4973956343749997,
                    "durationTicks": 573,
                    "midi": 52,
                    "name": "E3",
                    "ticks": 5760,
                    "time": 4.999998,
                    "velocity": 0.41732283464566927,
                },
                {
                    "duration": 0.47135397812499935,
                    "durationTicks": 543,
                    "midi": 52,
                    "name": "E3",
                    "ticks": 6720,
                    "time": 5.833331,
                    "velocity": 0.3543307086614173,
                },
                {
                    "duration": 0.8333329999999997,
                    "durationTicks": 960,
                    "midi": 52,
                    "name": "E3",
                    "ticks": 7680,
                    "time": 6.666664,
                    "velocity": 0.36220472440944884,
                },
                {
                    "duration": 0.24739573437499995,
                    "durationTicks": 285,
                    "midi": 52,
                    "name": "E3",
                    "ticks": 8640,
                    "time": 7.499997,
                    "velocity": 0.3858267716535433,
                },
                {
                    "duration": 0.24739573437499907,
                    "durationTicks": 285,
                    "midi": 52,
                    "name": "E3",
                    "ticks": 9120,
                    "time": 7.9166635,
                    "velocity": 0.33858267716535434,
                },
                {
                    "duration": 0.4973956343749997,
                    "durationTicks": 573,
                    "midi": 52,
                    "name": "E3",
                    "ticks": 9600,
                    "time": 8.33333,
                    "velocity": 0.3700787401574803,
                },
                {
                    "duration": 0.47135397812500024,
                    "durationTicks": 543,
                    "midi": 52,
                    "name": "E3",
                    "ticks": 10560,
                    "time": 9.166663,
                    "velocity": 0.36220472440944884,
                },
                {
                    "duration": 0.8333329999999997,
                    "durationTicks": 960,
                    "midi": 52,
                    "name": "E3",
                    "ticks": 11520,
                    "time": 9.999996,
                    "velocity": 0.3858267716535433,
                },
                {
                    "duration": 0.24739573437500084,
                    "durationTicks": 285,
                    "midi": 52,
                    "name": "E3",
                    "ticks": 12480,
                    "time": 10.833328999999999,
                    "velocity": 0.3700787401574803,
                },
                {
                    "duration": 0.24739573437499907,
                    "durationTicks": 285,
                    "midi": 50,
                    "name": "D3",
                    "ticks": 12960,
                    "time": 11.2499955,
                    "velocity": 0.4094488188976378,
                },
                {
                    "duration": 0.24739573437499907,
                    "durationTicks": 285,
                    "midi": 54,
                    "name": "F#3",
                    "ticks": 12960,
                    "time": 11.2499955,
                    "velocity": 0.4094488188976378,
                },
                {
                    "duration": 0.4973956343749997,
                    "durationTicks": 573,
                    "midi": 52,
                    "name": "E3",
                    "ticks": 13440,
                    "time": 11.666662,
                    "velocity": 0.3937007874015748,
                },
                {
                    "duration": 0.4973956343749997,
                    "durationTicks": 573,
                    "midi": 55,
                    "name": "G3",
                    "ticks": 13440,
                    "time": 11.666662,
                    "velocity": 0.3937007874015748,
                },
                {
                    "duration": 0.47135397812500024,
                    "durationTicks": 543,
                    "midi": 52,
                    "name": "E3",
                    "ticks": 14400,
                    "time": 12.499995,
                    "velocity": 0.3858267716535433,
                },
                {
                    "duration": 0.47135397812500024,
                    "durationTicks": 543,
                    "midi": 55,
                    "name": "G3",
                    "ticks": 14400,
                    "time": 12.499995,
                    "velocity": 0.3858267716535433,
                },
                {
                    "duration": 0.8333329999999997,
                    "durationTicks": 960,
                    "midi": 50,
                    "name": "D3",
                    "ticks": 15360,
                    "time": 13.333328,
                    "velocity": 0.33858267716535434,
                },
                {
                    "duration": 0.8333329999999997,
                    "durationTicks": 960,
                    "midi": 55,
                    "name": "G3",
                    "ticks": 15360,
                    "time": 13.333328,
                    "velocity": 0.33858267716535434,
                },
                {
                    "duration": 0.24739573437500084,
                    "durationTicks": 285,
                    "midi": 48,
                    "name": "C3",
                    "ticks": 16320,
                    "time": 14.166661,
                    "velocity": 0.3779527559055118,
                },
                {
                    "duration": 0.24739573437500084,
                    "durationTicks": 285,
                    "midi": 55,
                    "name": "G3",
                    "ticks": 16320,
                    "time": 14.166661,
                    "velocity": 0.3779527559055118,
                },
                {
                    "duration": 0.24739573437500084,
                    "durationTicks": 285,
                    "midi": 50,
                    "name": "D3",
                    "ticks": 16800,
                    "time": 14.5833275,
                    "velocity": 0.3858267716535433,
                },
                {
                    "duration": 0.24739573437500084,
                    "durationTicks": 285,
                    "midi": 55,
                    "name": "G3",
                    "ticks": 16800,
                    "time": 14.5833275,
                    "velocity": 0.3858267716535433,
                },
                {
                    "duration": 0.8333330000000014,
                    "durationTicks": 960,
                    "midi": 52,
                    "name": "E3",
                    "ticks": 17280,
                    "time": 14.999994,
                    "velocity": 0.3937007874015748,
                },
                {
                    "duration": 0.8333330000000014,
                    "durationTicks": 960,
                    "midi": 55,
                    "name": "G3",
                    "ticks": 17280,
                    "time": 14.999994,
                    "velocity": 0.3937007874015748,
                },
                {
                    "duration": 0.8333329999999997,
                    "durationTicks": 960,
                    "midi": 55,
                    "name": "G3",
                    "ticks": 19200,
                    "time": 16.66666,
                    "velocity": 0.3464566929133858,
                },
                {
                    "duration": 0.24739573437500084,
                    "durationTicks": 285,
                    "midi": 55,
                    "name": "G3",
                    "ticks": 20160,
                    "time": 17.499993,
                    "velocity": 0.3700787401574803,
                },
                {
                    "duration": 0.2473957343749973,
                    "durationTicks": 285,
                    "midi": 57,
                    "name": "A3",
                    "ticks": 20640,
                    "time": 17.9166595,
                    "velocity": 0.4330708661417323,
                },
                {
                    "duration": 0.4973956343749997,
                    "durationTicks": 573,
                    "midi": 59,
                    "name": "B3",
                    "ticks": 21120,
                    "time": 18.333326,
                    "velocity": 0.3779527559055118,
                },
                {
                    "duration": 0.471353978125002,
                    "durationTicks": 543,
                    "midi": 59,
                    "name": "B3",
                    "ticks": 22080,
                    "time": 19.166659,
                    "velocity": 0.3858267716535433,
                },
                {
                    "duration": 0.8333329999999997,
                    "durationTicks": 960,
                    "midi": 54,
                    "name": "F#3",
                    "ticks": 23040,
                    "time": 19.999992,
                    "velocity": 0.3464566929133858,
                },
                {
                    "duration": 0.24739573437500084,
                    "durationTicks": 285,
                    "midi": 54,
                    "name": "F#3",
                    "ticks": 24000,
                    "time": 20.833325,
                    "velocity": 0.3779527559055118,
                },
                {
                    "duration": 0.24739573437500084,
                    "durationTicks": 285,
                    "midi": 56,
                    "name": "G#3",
                    "ticks": 24480,
                    "time": 21.2499915,
                    "velocity": 0.3700787401574803,
                },
                {
                    "duration": 0.4973956343750032,
                    "durationTicks": 573,
                    "midi": 57,
                    "name": "A3",
                    "ticks": 24960,
                    "time": 21.666657999999998,
                    "velocity": 0.3779527559055118,
                },
                {
                    "duration": 0.47135397812499846,
                    "durationTicks": 543,
                    "midi": 57,
                    "name": "A3",
                    "ticks": 25920,
                    "time": 22.499991,
                    "velocity": 0.3779527559055118,
                },
                {
                    "duration": 0.8333329999999997,
                    "durationTicks": 960,
                    "midi": 52,
                    "name": "E3",
                    "ticks": 26880,
                    "time": 23.333324,
                    "velocity": 0.3228346456692913,
                },
                {
                    "duration": 0.2473957343749973,
                    "durationTicks": 285,
                    "midi": 52,
                    "name": "E3",
                    "ticks": 27840,
                    "time": 24.166657,
                    "velocity": 0.3543307086614173,
                },
                {
                    "duration": 0.24739573437500084,
                    "durationTicks": 285,
                    "midi": 52,
                    "name": "E3",
                    "ticks": 28320,
                    "time": 24.5833235,
                    "velocity": 0.3779527559055118,
                },
                {
                    "duration": 0.4973956343749997,
                    "durationTicks": 573,
                    "midi": 52,
                    "name": "E3",
                    "ticks": 28800,
                    "time": 24.99999,
                    "velocity": 0.3700787401574803,
                },
                {
                    "duration": 0.471353978125002,
                    "durationTicks": 543,
                    "midi": 52,
                    "name": "E3",
                    "ticks": 29760,
                    "time": 25.833323,
                    "velocity": 0.36220472440944884,
                },
                {
                    "duration": 0.8333329999999997,
                    "durationTicks": 960,
                    "midi": 52,
                    "name": "E3",
                    "ticks": 30720,
                    "time": 26.666656,
                    "velocity": 0.3700787401574803,
                },
                {
                    "duration": 0.24739573437500084,
                    "durationTicks": 285,
                    "midi": 52,
                    "name": "E3",
                    "ticks": 31680,
                    "time": 27.499989,
                    "velocity": 0.4015748031496063,
                },
                {
                    "duration": 0.24739573437500084,
                    "durationTicks": 285,
                    "midi": 54,
                    "name": "F#3",
                    "ticks": 31680,
                    "time": 27.499989,
                    "velocity": 0.4015748031496063,
                },
                {
                    "duration": 0.2473957343749973,
                    "durationTicks": 285,
                    "midi": 52,
                    "name": "E3",
                    "ticks": 32160,
                    "time": 27.9166555,
                    "velocity": 0.3858267716535433,
                },
                {
                    "duration": 0.2473957343749973,
                    "durationTicks": 285,
                    "midi": 56,
                    "name": "G#3",
                    "ticks": 32160,
                    "time": 27.9166555,
                    "velocity": 0.3858267716535433,
                },
                {
                    "duration": 0.8333329999999997,
                    "durationTicks": 960,
                    "midi": 52,
                    "name": "E3",
                    "ticks": 32640,
                    "time": 28.333322,
                    "velocity": 0.4015748031496063,
                },
                {
                    "duration": 0.8333329999999997,
                    "durationTicks": 960,
                    "midi": 57,
                    "name": "A3",
                    "ticks": 32640,
                    "time": 28.333322,
                    "velocity": 0.4015748031496063,
                },
                {
                    "duration": 0.8333329999999997,
                    "durationTicks": 960,
                    "midi": 55,
                    "name": "G3",
                    "ticks": 34560,
                    "time": 29.999988,
                    "velocity": 0.3228346456692913,
                },
                {
                    "duration": 0.24739573437500084,
                    "durationTicks": 285,
                    "midi": 55,
                    "name": "G3",
                    "ticks": 35520,
                    "time": 30.833320999999998,
                    "velocity": 0.3858267716535433,
                },
                {
                    "duration": 0.24739573437500084,
                    "durationTicks": 285,
                    "midi": 57,
                    "name": "A3",
                    "ticks": 36000,
                    "time": 31.2499875,
                    "velocity": 0.3937007874015748,
                },
                {
                    "duration": 0.4973956343749961,
                    "durationTicks": 573,
                    "midi": 59,
                    "name": "B3",
                    "ticks": 36480,
                    "time": 31.666654,
                    "velocity": 0.4251968503937008,
                },
                {
                    "duration": 0.471353978125002,
                    "durationTicks": 543,
                    "midi": 59,
                    "name": "B3",
                    "ticks": 37440,
                    "time": 32.499987,
                    "velocity": 0.3858267716535433,
                },
                {
                    "duration": 0.8333329999999961,
                    "durationTicks": 960,
                    "midi": 54,
                    "name": "F#3",
                    "ticks": 38400,
                    "time": 33.33332,
                    "velocity": 0.3858267716535433,
                },
                {
                    "duration": 0.2473957343750044,
                    "durationTicks": 285,
                    "midi": 54,
                    "name": "F#3",
                    "ticks": 39360,
                    "time": 34.166653,
                    "velocity": 0.4094488188976378,
                },
                {
                    "duration": 0.2473957343749973,
                    "durationTicks": 285,
                    "midi": 56,
                    "name": "G#3",
                    "ticks": 39840,
                    "time": 34.5833195,
                    "velocity": 0.4015748031496063,
                },
                {
                    "duration": 0.4973956343749961,
                    "durationTicks": 573,
                    "midi": 57,
                    "name": "A3",
                    "ticks": 40320,
                    "time": 34.999986,
                    "velocity": 0.3700787401574803,
                },
                {
                    "duration": 0.4713539781249949,
                    "durationTicks": 543,
                    "midi": 57,
                    "name": "A3",
                    "ticks": 41280,
                    "time": 35.833319,
                    "velocity": 0.3464566929133858,
                },
                {
                    "duration": 0.8333330000000032,
                    "durationTicks": 960,
                    "midi": 52,
                    "name": "E3",
                    "ticks": 42240,
                    "time": 36.666652,
                    "velocity": 0.3779527559055118,
                },
                {
                    "duration": 0.2473957343749973,
                    "durationTicks": 285,
                    "midi": 52,
                    "name": "E3",
                    "ticks": 43200,
                    "time": 37.499985,
                    "velocity": 0.3858267716535433,
                },
                {
                    "duration": 0.2473957343749973,
                    "durationTicks": 285,
                    "midi": 52,
                    "name": "E3",
                    "ticks": 43680,
                    "time": 37.9166515,
                    "velocity": 0.3779527559055118,
                },
                {
                    "duration": 0.4973956343749961,
                    "durationTicks": 573,
                    "midi": 52,
                    "name": "E3",
                    "ticks": 44160,
                    "time": 38.333318,
                    "velocity": 0.3700787401574803,
                },
                {
                    "duration": 0.4713539781249949,
                    "durationTicks": 543,
                    "midi": 52,
                    "name": "E3",
                    "ticks": 45120,
                    "time": 39.166651,
                    "velocity": 0.3858267716535433,
                },
                {
                    "duration": 0.8333330000000032,
                    "durationTicks": 960,
                    "midi": 52,
                    "name": "E3",
                    "ticks": 46080,
                    "time": 39.999984,
                    "velocity": 0.4251968503937008,
                },
                {
                    "duration": 0.2473957343749973,
                    "durationTicks": 285,
                    "midi": 52,
                    "name": "E3",
                    "ticks": 47040,
                    "time": 40.833317,
                    "velocity": 0.3858267716535433,
                },
                {
                    "duration": 0.2473957343749973,
                    "durationTicks": 285,
                    "midi": 54,
                    "name": "F#3",
                    "ticks": 47040,
                    "time": 40.833317,
                    "velocity": 0.3858267716535433,
                },
                {
                    "duration": 0.2473957343749973,
                    "durationTicks": 285,
                    "midi": 52,
                    "name": "E3",
                    "ticks": 47520,
                    "time": 41.2499835,
                    "velocity": 0.4094488188976378,
                },
                {
                    "duration": 0.2473957343749973,
                    "durationTicks": 285,
                    "midi": 56,
                    "name": "G#3",
                    "ticks": 47520,
                    "time": 41.2499835,
                    "velocity": 0.4094488188976378,
                },
                {
                    "duration": 0.8333330000000032,
                    "durationTicks": 960,
                    "midi": 52,
                    "name": "E3",
                    "ticks": 48000,
                    "time": 41.66665,
                    "velocity": 0.36220472440944884,
                },
                {
                    "duration": 0.8333330000000032,
                    "durationTicks": 960,
                    "midi": 57,
                    "name": "A3",
                    "ticks": 48000,
                    "time": 41.66665,
                    "velocity": 0.36220472440944884,
                },
                {
                    "duration": 1.6666660000000064,
                    "durationTicks": 1920,
                    "midi": 60,
                    "name": "C4",
                    "ticks": 49920,
                    "time": 43.333315999999996,
                    "velocity": 0.3464566929133858,
                },
                {
                    "duration": 1.5781243687499966,
                    "durationTicks": 1818,
                    "midi": 59,
                    "name": "B3",
                    "ticks": 51840,
                    "time": 44.999982,
                    "velocity": 0.3543307086614173,
                },
                {
                    "duration": 0.20833324999999547,
                    "durationTicks": 240,
                    "midi": 59,
                    "name": "B3",
                    "ticks": 53760,
                    "time": 46.666648,
                    "velocity": 0.3858267716535433,
                },
                {
                    "duration": 0.20833325000000258,
                    "durationTicks": 240,
                    "midi": 60,
                    "name": "C4",
                    "ticks": 54000,
                    "time": 46.87498125,
                    "velocity": 0.3858267716535433,
                },
                {
                    "duration": 0.8333329999999961,
                    "durationTicks": 960,
                    "midi": 62,
                    "name": "D4",
                    "ticks": 54240,
                    "time": 47.0833145,
                    "velocity": 0.3858267716535433,
                },
                {
                    "duration": 0.21093741562500412,
                    "durationTicks": 243,
                    "midi": 60,
                    "name": "C4",
                    "ticks": 55200,
                    "time": 47.916647499999996,
                    "velocity": 0.36220472440944884,
                },
                {
                    "duration": 0.19531242187500197,
                    "durationTicks": 225,
                    "midi": 59,
                    "name": "B3",
                    "ticks": 55440,
                    "time": 48.12498075,
                    "velocity": 0.3700787401574803,
                },
                {
                    "duration": 0.42274288645833025,
                    "durationTicks": 487,
                    "midi": 59,
                    "name": "B3",
                    "ticks": 55680,
                    "time": 48.333314,
                    "velocity": 0.3858267716535433,
                },
                {
                    "duration": 0.3932290093749984,
                    "durationTicks": 453,
                    "midi": 60,
                    "name": "C4",
                    "ticks": 56160,
                    "time": 48.7499805,
                    "velocity": 0.41732283464566927,
                },
                {
                    "duration": 0.8333330000000032,
                    "durationTicks": 960,
                    "midi": 60,
                    "name": "C4",
                    "ticks": 56640,
                    "time": 49.166647,
                    "velocity": 0.3858267716535433,
                },
                {
                    "duration": 1.2499995000000013,
                    "durationTicks": 1440,
                    "midi": 60,
                    "name": "C4",
                    "ticks": 57600,
                    "time": 49.99998,
                    "velocity": 0.3858267716535433,
                },
                {
                    "duration": 0.21093741562499702,
                    "durationTicks": 243,
                    "midi": 60,
                    "name": "C4",
                    "ticks": 59040,
                    "time": 51.2499795,
                    "velocity": 0.36220472440944884,
                },
                {
                    "duration": 0.19531242187500197,
                    "durationTicks": 225,
                    "midi": 62,
                    "name": "D4",
                    "ticks": 59280,
                    "time": 51.45831275,
                    "velocity": 0.4094488188976378,
                },
                {
                    "duration": 0.42274288645833025,
                    "durationTicks": 487,
                    "midi": 63,
                    "name": "D#4",
                    "ticks": 59520,
                    "time": 51.666646,
                    "velocity": 0.3937007874015748,
                },
                {
                    "duration": 0.3932290093749984,
                    "durationTicks": 453,
                    "midi": 64,
                    "name": "E4",
                    "ticks": 60000,
                    "time": 52.0833125,
                    "velocity": 0.4330708661417323,
                },
                {
                    "duration": 0.2473957343750044,
                    "durationTicks": 285,
                    "midi": 64,
                    "name": "E4",
                    "ticks": 60480,
                    "time": 52.499978999999996,
                    "velocity": 0.36220472440944884,
                },
                {
                    "duration": 0.2473957343749973,
                    "durationTicks": 285,
                    "midi": 64,
                    "name": "E4",
                    "ticks": 60960,
                    "time": 52.9166455,
                    "velocity": 0.4015748031496063,
                },
                {
                    "duration": 0.21093741562499702,
                    "durationTicks": 243,
                    "midi": 62,
                    "name": "D4",
                    "ticks": 61440,
                    "time": 53.333312,
                    "velocity": 0.3543307086614173,
                },
                {
                    "duration": 0.21093741562499702,
                    "durationTicks": 243,
                    "midi": 64,
                    "name": "E4",
                    "ticks": 61680,
                    "time": 53.54164525,
                    "velocity": 0.3937007874015748,
                },
                {
                    "duration": 0.8489579937499983,
                    "durationTicks": 978,
                    "midi": 65,
                    "name": "F4",
                    "ticks": 61920,
                    "time": 53.7499785,
                    "velocity": 0.4094488188976378,
                },
                {
                    "duration": 0.21093741562499702,
                    "durationTicks": 243,
                    "midi": 64,
                    "name": "E4",
                    "ticks": 62880,
                    "time": 54.5833115,
                    "velocity": 0.41732283464566927,
                },
                {
                    "duration": 0.19531242187500197,
                    "durationTicks": 225,
                    "midi": 62,
                    "name": "D4",
                    "ticks": 63120,
                    "time": 54.791644749999996,
                    "velocity": 0.3464566929133858,
                },
                {
                    "duration": 0.42274288645833025,
                    "durationTicks": 487,
                    "midi": 62,
                    "name": "D4",
                    "ticks": 63360,
                    "time": 54.999978,
                    "velocity": 0.3937007874015748,
                },
                {
                    "duration": 0.3932290093749984,
                    "durationTicks": 453,
                    "midi": 64,
                    "name": "E4",
                    "ticks": 63840,
                    "time": 55.4166445,
                    "velocity": 0.4566929133858268,
                },
                {
                    "duration": 0.8333329999999961,
                    "durationTicks": 960,
                    "midi": 64,
                    "name": "E4",
                    "ticks": 64320,
                    "time": 55.833311,
                    "velocity": 0.3779527559055118,
                },
                {
                    "duration": 1.6987840427083256,
                    "durationTicks": 1957,
                    "midi": 64,
                    "name": "E4",
                    "ticks": 65280,
                    "time": 56.666644,
                    "velocity": 0.3779527559055118,
                },
                {
                    "duration": 1.5815965895833273,
                    "durationTicks": 1822,
                    "midi": 63,
                    "name": "D#4",
                    "ticks": 67200,
                    "time": 58.33331,
                    "velocity": 0.3543307086614173,
                },
                {
                    "duration": 0.42274288645833025,
                    "durationTicks": 487,
                    "midi": 62,
                    "name": "D4",
                    "ticks": 69120,
                    "time": 59.999976,
                    "velocity": 0.3228346456692913,
                },
                {
                    "duration": 0.21093741562499702,
                    "durationTicks": 243,
                    "midi": 59,
                    "name": "B3",
                    "ticks": 69600,
                    "time": 60.4166425,
                    "velocity": 0.3228346456692913,
                },
                {
                    "duration": 0.21093741562499702,
                    "durationTicks": 243,
                    "midi": 61,
                    "name": "C#4",
                    "ticks": 69840,
                    "time": 60.62497575,
                    "velocity": 0.3858267716535433,
                },
                {
                    "duration": 0.42274288645833025,
                    "durationTicks": 487,
                    "midi": 62,
                    "name": "D4",
                    "ticks": 70080,
                    "time": 60.833309,
                    "velocity": 0.3858267716535433,
                },
                {
                    "duration": 0.21093741562499702,
                    "durationTicks": 243,
                    "midi": 64,
                    "name": "E4",
                    "ticks": 70560,
                    "time": 61.2499755,
                    "velocity": 0.41732283464566927,
                },
                {
                    "duration": 0.19531242187500197,
                    "durationTicks": 225,
                    "midi": 62,
                    "name": "D4",
                    "ticks": 70800,
                    "time": 61.45830875,
                    "velocity": 0.41732283464566927,
                },
                {
                    "duration": 0.42274288645833025,
                    "durationTicks": 487,
                    "midi": 62,
                    "name": "D4",
                    "ticks": 71040,
                    "time": 61.666641999999996,
                    "velocity": 0.3543307086614173,
                },
                {
                    "duration": 0.3932290093749984,
                    "durationTicks": 453,
                    "midi": 61,
                    "name": "C#4",
                    "ticks": 71520,
                    "time": 62.0833085,
                    "velocity": 0.3543307086614173,
                },
                {
                    "duration": 0.8333330000000032,
                    "durationTicks": 960,
                    "midi": 60,
                    "name": "C4",
                    "ticks": 72000,
                    "time": 62.499975,
                    "velocity": 0.3779527559055118,
                },
                {
                    "duration": 1.6987840427083256,
                    "durationTicks": 1957,
                    "midi": 60,
                    "name": "C4",
                    "ticks": 72960,
                    "time": 63.333308,
                    "velocity": 0.3858267716535433,
                },
                {
                    "duration": 0.8489579937500054,
                    "durationTicks": 978,
                    "midi": 59,
                    "name": "B3",
                    "ticks": 74880,
                    "time": 64.999974,
                    "velocity": 0.41732283464566927,
                },
                {
                    "duration": 0.7447913687499863,
                    "durationTicks": 858,
                    "midi": 60,
                    "name": "C4",
                    "ticks": 75840,
                    "time": 65.833307,
                    "velocity": 0.4094488188976378,
                },
                {
                    "duration": 0.20833324999999547,
                    "durationTicks": 240,
                    "midi": 59,
                    "name": "B3",
                    "ticks": 76800,
                    "time": 66.66664,
                    "velocity": 0.3779527559055118,
                },
                {
                    "duration": 0.20833325000000968,
                    "durationTicks": 240,
                    "midi": 60,
                    "name": "C4",
                    "ticks": 77040,
                    "time": 66.87497325,
                    "velocity": 0.3779527559055118,
                },
                {
                    "duration": 0.8333329999999961,
                    "durationTicks": 960,
                    "midi": 62,
                    "name": "D4",
                    "ticks": 77280,
                    "time": 67.0833065,
                    "velocity": 0.3779527559055118,
                },
                {
                    "duration": 0.21093741562499702,
                    "durationTicks": 243,
                    "midi": 60,
                    "name": "C4",
                    "ticks": 78240,
                    "time": 67.9166395,
                    "velocity": 0.3779527559055118,
                },
                {
                    "duration": 0.19531242187500197,
                    "durationTicks": 225,
                    "midi": 59,
                    "name": "B3",
                    "ticks": 78480,
                    "time": 68.12497275,
                    "velocity": 0.3228346456692913,
                },
                {
                    "duration": 0.2473957343750044,
                    "durationTicks": 285,
                    "midi": 57,
                    "name": "A3",
                    "ticks": 78720,
                    "time": 68.333306,
                    "velocity": 0.3700787401574803,
                },
                {
                    "duration": 0.21093741562499702,
                    "durationTicks": 243,
                    "midi": 57,
                    "name": "A3",
                    "ticks": 79200,
                    "time": 68.7499725,
                    "velocity": 0.3700787401574803,
                },
                {
                    "duration": 0.19531242187500197,
                    "durationTicks": 225,
                    "midi": 59,
                    "name": "B3",
                    "ticks": 79440,
                    "time": 68.95830575,
                    "velocity": 0.3858267716535433,
                },
                {
                    "duration": 0.24739573437499018,
                    "durationTicks": 285,
                    "midi": 60,
                    "name": "C4",
                    "ticks": 79680,
                    "time": 69.166639,
                    "velocity": 0.3779527559055118,
                },
                {
                    "duration": 0.21093741562499702,
                    "durationTicks": 243,
                    "midi": 60,
                    "name": "C4",
                    "ticks": 80160,
                    "time": 69.5833055,
                    "velocity": 0.3700787401574803,
                },
                {
                    "duration": 0.19531242187500197,
                    "durationTicks": 225,
                    "midi": 62,
                    "name": "D4",
                    "ticks": 80400,
                    "time": 69.79163875,
                    "velocity": 0.4094488188976378,
                },
                {
                    "duration": 1.6987840427083256,
                    "durationTicks": 1957,
                    "midi": 64,
                    "name": "E4",
                    "ticks": 80640,
                    "time": 69.999972,
                    "velocity": 0.3464566929133858,
                },
                {
                    "duration": 1.5815965895833273,
                    "durationTicks": 1822,
                    "midi": 63,
                    "name": "D#4",
                    "ticks": 82560,
                    "time": 71.666638,
                    "velocity": 0.30708661417322836,
                },
                {
                    "duration": 0.42274288645832314,
                    "durationTicks": 487,
                    "midi": 62,
                    "name": "D4",
                    "ticks": 84480,
                    "time": 73.333304,
                    "velocity": 0.2677165354330709,
                },
                {
                    "duration": 0.21093741562499702,
                    "durationTicks": 243,
                    "midi": 59,
                    "name": "B3",
                    "ticks": 84960,
                    "time": 73.7499705,
                    "velocity": 0.23622047244094488,
                },
                {
                    "duration": 0.21093741562499702,
                    "durationTicks": 243,
                    "midi": 61,
                    "name": "C#4",
                    "ticks": 85200,
                    "time": 73.95830375,
                    "velocity": 0.29133858267716534,
                },
                {
                    "duration": 0.42274288645833735,
                    "durationTicks": 487,
                    "midi": 62,
                    "name": "D4",
                    "ticks": 85440,
                    "time": 74.166637,
                    "velocity": 0.33858267716535434,
                },
                {
                    "duration": 0.21093741562499702,
                    "durationTicks": 243,
                    "midi": 64,
                    "name": "E4",
                    "ticks": 85920,
                    "time": 74.5833035,
                    "velocity": 0.2992125984251969,
                },
                {
                    "duration": 0.19531242187500197,
                    "durationTicks": 225,
                    "midi": 62,
                    "name": "D4",
                    "ticks": 86160,
                    "time": 74.79163675,
                    "velocity": 0.2677165354330709,
                },
                {
                    "duration": 0.41666649999999095,
                    "durationTicks": 480,
                    "midi": 62,
                    "name": "D4",
                    "ticks": 86400,
                    "time": 74.99997,
                    "velocity": 0.23622047244094488,
                },
                {
                    "duration": 0.41666650000000516,
                    "durationTicks": 480,
                    "midi": 61,
                    "name": "C#4",
                    "ticks": 86880,
                    "time": 75.4166365,
                    "velocity": 0.2677165354330709,
                },
                {
                    "duration": 0.8333329999999961,
                    "durationTicks": 960,
                    "midi": 60,
                    "name": "C4",
                    "ticks": 87360,
                    "time": 75.833303,
                    "velocity": 0.2677165354330709,
                },
                {
                    "duration": 1.6987840427083256,
                    "durationTicks": 1957,
                    "midi": 60,
                    "name": "C4",
                    "ticks": 88320,
                    "time": 76.666636,
                    "velocity": 0.3228346456692913,
                },
                {
                    "duration": 0.8489579937499911,
                    "durationTicks": 978,
                    "midi": 59,
                    "name": "B3",
                    "ticks": 90240,
                    "time": 78.333302,
                    "velocity": 0.3228346456692913,
                },
                {
                    "duration": 0.7447913687500005,
                    "durationTicks": 858,
                    "midi": 60,
                    "name": "C4",
                    "ticks": 91200,
                    "time": 79.166635,
                    "velocity": 0.28346456692913385,
                },
                {
                    "duration": 0.20833325000000968,
                    "durationTicks": 240,
                    "midi": 59,
                    "name": "B3",
                    "ticks": 92160,
                    "time": 79.999968,
                    "velocity": 0.2992125984251969,
                },
                {
                    "duration": 0.20833324999999547,
                    "durationTicks": 240,
                    "midi": 60,
                    "name": "C4",
                    "ticks": 92400,
                    "time": 80.20830125,
                    "velocity": 0.2992125984251969,
                },
                {
                    "duration": 0.8333329999999961,
                    "durationTicks": 960,
                    "midi": 62,
                    "name": "D4",
                    "ticks": 92640,
                    "time": 80.4166345,
                    "velocity": 0.2992125984251969,
                },
                {
                    "duration": 0.21093741562499702,
                    "durationTicks": 243,
                    "midi": 60,
                    "name": "C4",
                    "ticks": 93600,
                    "time": 81.2499675,
                    "velocity": 0.2755905511811024,
                },
                {
                    "duration": 0.19531242187500197,
                    "durationTicks": 225,
                    "midi": 59,
                    "name": "B3",
                    "ticks": 93840,
                    "time": 81.45830074999999,
                    "velocity": 0.2440944881889764,
                },
                {
                    "duration": 0.8333329999999961,
                    "durationTicks": 960,
                    "midi": 57,
                    "name": "A3",
                    "ticks": 94080,
                    "time": 81.666634,
                    "velocity": 0.25196850393700787,
                },
                {
                    "duration": 0.42274288645832314,
                    "durationTicks": 487,
                    "midi": 57,
                    "name": "A3",
                    "ticks": 96480,
                    "time": 83.7499665,
                    "velocity": 0.33858267716535434,
                },
                {
                    "duration": 0.42274288645832314,
                    "durationTicks": 487,
                    "midi": 60,
                    "name": "C4",
                    "ticks": 96960,
                    "time": 84.166633,
                    "velocity": 0.33070866141732286,
                },
                {
                    "duration": 0.3932290093750055,
                    "durationTicks": 453,
                    "midi": 52,
                    "name": "E3",
                    "ticks": 97440,
                    "time": 84.5832995,
                    "velocity": 0.33858267716535434,
                },
                {
                    "duration": 0.42274288645832314,
                    "durationTicks": 487,
                    "midi": 56,
                    "name": "G#3",
                    "ticks": 98400,
                    "time": 85.4166325,
                    "velocity": 0.3937007874015748,
                },
                {
                    "duration": 0.42274288645832314,
                    "durationTicks": 487,
                    "midi": 59,
                    "name": "B3",
                    "ticks": 98880,
                    "time": 85.833299,
                    "velocity": 0.4094488188976378,
                },
                {
                    "duration": 0.3932290093749913,
                    "durationTicks": 453,
                    "midi": 52,
                    "name": "E3",
                    "ticks": 99360,
                    "time": 86.2499655,
                    "velocity": 0.36220472440944884,
                },
                {
                    "duration": 0.42274288645832314,
                    "durationTicks": 487,
                    "midi": 56,
                    "name": "G#3",
                    "ticks": 100320,
                    "time": 87.0832985,
                    "velocity": 0.3700787401574803,
                },
                {
                    "duration": 0.42274288645832314,
                    "durationTicks": 487,
                    "midi": 59,
                    "name": "B3",
                    "ticks": 100800,
                    "time": 87.499965,
                    "velocity": 0.4015748031496063,
                },
                {
                    "duration": 0.3932290093750055,
                    "durationTicks": 453,
                    "midi": 52,
                    "name": "E3",
                    "ticks": 101280,
                    "time": 87.9166315,
                    "velocity": 0.3464566929133858,
                },
                {
                    "duration": 0.42274288645832314,
                    "durationTicks": 487,
                    "midi": 57,
                    "name": "A3",
                    "ticks": 102240,
                    "time": 88.7499645,
                    "velocity": 0.3779527559055118,
                },
                {
                    "duration": 0.42274288645833735,
                    "durationTicks": 487,
                    "midi": 60,
                    "name": "C4",
                    "ticks": 102720,
                    "time": 89.166631,
                    "velocity": 0.4251968503937008,
                },
                {
                    "duration": 0.3932290093749913,
                    "durationTicks": 453,
                    "midi": 52,
                    "name": "E3",
                    "ticks": 103200,
                    "time": 89.5832975,
                    "velocity": 0.4015748031496063,
                },
                {
                    "duration": 0.42274288645832314,
                    "durationTicks": 487,
                    "midi": 57,
                    "name": "A3",
                    "ticks": 104160,
                    "time": 90.4166305,
                    "velocity": 0.4015748031496063,
                },
                {
                    "duration": 0.42274288645832314,
                    "durationTicks": 487,
                    "midi": 60,
                    "name": "C4",
                    "ticks": 104640,
                    "time": 90.833297,
                    "velocity": 0.4566929133858268,
                },
                {
                    "duration": 0.3932290093750055,
                    "durationTicks": 453,
                    "midi": 48,
                    "name": "C3",
                    "ticks": 105120,
                    "time": 91.24996349999999,
                    "velocity": 0.3779527559055118,
                },
                {
                    "duration": 0.42274288645832314,
                    "durationTicks": 487,
                    "midi": 55,
                    "name": "G3",
                    "ticks": 106080,
                    "time": 92.0832965,
                    "velocity": 0.41732283464566927,
                },
                {
                    "duration": 0.42274288645833735,
                    "durationTicks": 487,
                    "midi": 60,
                    "name": "C4",
                    "ticks": 106560,
                    "time": 92.499963,
                    "velocity": 0.4881889763779528,
                },
                {
                    "duration": 0.3932290093749913,
                    "durationTicks": 453,
                    "midi": 48,
                    "name": "C3",
                    "ticks": 107040,
                    "time": 92.9166295,
                    "velocity": 0.4330708661417323,
                },
                {
                    "duration": 0.42274288645833735,
                    "durationTicks": 487,
                    "midi": 59,
                    "name": "B3",
                    "ticks": 108000,
                    "time": 93.7499625,
                    "velocity": 0.41732283464566927,
                },
                {
                    "duration": 0.42274288645832314,
                    "durationTicks": 487,
                    "midi": 62,
                    "name": "D4",
                    "ticks": 108480,
                    "time": 94.166629,
                    "velocity": 0.5433070866141733,
                },
                {
                    "duration": 0.3932290093749913,
                    "durationTicks": 453,
                    "midi": 55,
                    "name": "G3",
                    "ticks": 108960,
                    "time": 94.5832955,
                    "velocity": 0.49606299212598426,
                },
                {
                    "duration": 0.42274288645832314,
                    "durationTicks": 487,
                    "midi": 55,
                    "name": "G3",
                    "ticks": 109920,
                    "time": 95.4166285,
                    "velocity": 0.48031496062992124,
                },
                {
                    "duration": 0.42274288645833735,
                    "durationTicks": 487,
                    "midi": 60,
                    "name": "C4",
                    "ticks": 110400,
                    "time": 95.83329499999999,
                    "velocity": 0.5748031496062992,
                },
                {
                    "duration": 0.3932290093750055,
                    "durationTicks": 453,
                    "midi": 48,
                    "name": "C3",
                    "ticks": 110880,
                    "time": 96.2499615,
                    "velocity": 0.4645669291338583,
                },
                {
                    "duration": 0.42274288645833735,
                    "durationTicks": 487,
                    "midi": 60,
                    "name": "C4",
                    "ticks": 111840,
                    "time": 97.0832945,
                    "velocity": 0.47244094488188976,
                },
                {
                    "duration": 0.42274288645832314,
                    "durationTicks": 487,
                    "midi": 64,
                    "name": "E4",
                    "ticks": 112320,
                    "time": 97.499961,
                    "velocity": 0.6062992125984252,
                },
                {
                    "duration": 0.3932290093749913,
                    "durationTicks": 453,
                    "midi": 52,
                    "name": "E3",
                    "ticks": 112800,
                    "time": 97.9166275,
                    "velocity": 0.5118110236220472,
                },
                {
                    "duration": 0.42274288645832314,
                    "durationTicks": 487,
                    "midi": 66,
                    "name": "F#4",
                    "ticks": 113760,
                    "time": 98.7499605,
                    "velocity": 0.5354330708661418,
                },
                {
                    "duration": 0.42274288645832314,
                    "durationTicks": 487,
                    "midi": 71,
                    "name": "B4",
                    "ticks": 114240,
                    "time": 99.166627,
                    "velocity": 0.6614173228346457,
                },
                {
                    "duration": 0.3932290093750055,
                    "durationTicks": 453,
                    "midi": 59,
                    "name": "B3",
                    "ticks": 114720,
                    "time": 99.5832935,
                    "velocity": 0.5196850393700787,
                },
                {
                    "duration": 0.42274288645833735,
                    "durationTicks": 487,
                    "midi": 59,
                    "name": "B3",
                    "ticks": 115680,
                    "time": 100.41662649999999,
                    "velocity": 0.5511811023622047,
                },
                {
                    "duration": 0.42274288645832314,
                    "durationTicks": 487,
                    "midi": 62,
                    "name": "D4",
                    "ticks": 116160,
                    "time": 100.833293,
                    "velocity": 0.6377952755905512,
                },
                {
                    "duration": 0.3932290093749913,
                    "durationTicks": 453,
                    "midi": 50,
                    "name": "D3",
                    "ticks": 116640,
                    "time": 101.2499595,
                    "velocity": 0.5590551181102362,
                },
                {
                    "duration": 0.42274288645832314,
                    "durationTicks": 487,
                    "midi": 64,
                    "name": "E4",
                    "ticks": 117600,
                    "time": 102.0832925,
                    "velocity": 0.5669291338582677,
                },
                {
                    "duration": 0.42274288645832314,
                    "durationTicks": 487,
                    "midi": 69,
                    "name": "A4",
                    "ticks": 118080,
                    "time": 102.499959,
                    "velocity": 0.6220472440944882,
                },
                {
                    "duration": 0.3932290093750055,
                    "durationTicks": 453,
                    "midi": 57,
                    "name": "A3",
                    "ticks": 118560,
                    "time": 102.9166255,
                    "velocity": 0.5748031496062992,
                },
                {
                    "duration": 0.42274288645832314,
                    "durationTicks": 487,
                    "midi": 57,
                    "name": "A3",
                    "ticks": 119520,
                    "time": 103.7499585,
                    "velocity": 0.5905511811023622,
                },
                {
                    "duration": 0.42274288645833735,
                    "durationTicks": 487,
                    "midi": 64,
                    "name": "E4",
                    "ticks": 120000,
                    "time": 104.166625,
                    "velocity": 0.7952755905511811,
                },
                {
                    "duration": 0.3932290093749913,
                    "durationTicks": 453,
                    "midi": 52,
                    "name": "E3",
                    "ticks": 120480,
                    "time": 104.5832915,
                    "velocity": 0.6299212598425197,
                },
                {
                    "duration": 0.42274288645832314,
                    "durationTicks": 487,
                    "midi": 59,
                    "name": "B3",
                    "ticks": 121440,
                    "time": 105.4166245,
                    "velocity": 0.5984251968503937,
                },
                {
                    "duration": 0.42274288645832314,
                    "durationTicks": 487,
                    "midi": 64,
                    "name": "E4",
                    "ticks": 121920,
                    "time": 105.833291,
                    "velocity": 0.6377952755905512,
                },
                {
                    "duration": 0.3932290093750055,
                    "durationTicks": 453,
                    "midi": 52,
                    "name": "E3",
                    "ticks": 122400,
                    "time": 106.2499575,
                    "velocity": 0.5984251968503937,
                },
                {
                    "duration": 0.42274288645833735,
                    "durationTicks": 487,
                    "midi": 59,
                    "name": "B3",
                    "ticks": 123360,
                    "time": 107.0832905,
                    "velocity": 0.6141732283464567,
                },
                {
                    "duration": 0.42274288645833735,
                    "durationTicks": 487,
                    "midi": 64,
                    "name": "E4",
                    "ticks": 123840,
                    "time": 107.499957,
                    "velocity": 0.8110236220472441,
                },
                {
                    "duration": 0.3932290093750055,
                    "durationTicks": 453,
                    "midi": 52,
                    "name": "E3",
                    "ticks": 124320,
                    "time": 107.9166235,
                    "velocity": 0.6850393700787402,
                },
                {
                    "duration": 0.42274288645833735,
                    "durationTicks": 487,
                    "midi": 60,
                    "name": "C4",
                    "ticks": 125280,
                    "time": 108.7499565,
                    "velocity": 0.6456692913385826,
                },
                {
                    "duration": 0.42274288645833735,
                    "durationTicks": 487,
                    "midi": 64,
                    "name": "E4",
                    "ticks": 125760,
                    "time": 109.166623,
                    "velocity": 0.7244094488188977,
                },
                {
                    "duration": 0.3932290093750197,
                    "durationTicks": 453,
                    "midi": 57,
                    "name": "A3",
                    "ticks": 126240,
                    "time": 109.58328949999999,
                    "velocity": 0.7086614173228346,
                },
                {
                    "duration": 0.42274288645833735,
                    "durationTicks": 487,
                    "midi": 60,
                    "name": "C4",
                    "ticks": 127200,
                    "time": 110.4166225,
                    "velocity": 0.6771653543307087,
                },
                {
                    "duration": 0.42274288645835156,
                    "durationTicks": 487,
                    "midi": 64,
                    "name": "E4",
                    "ticks": 127680,
                    "time": 110.833289,
                    "velocity": 0.7244094488188977,
                },
                {
                    "duration": 0.3932290093750055,
                    "durationTicks": 453,
                    "midi": 52,
                    "name": "E3",
                    "ticks": 128160,
                    "time": 111.2499555,
                    "velocity": 0.7007874015748031,
                },
                {
                    "duration": 0.42274288645833735,
                    "durationTicks": 487,
                    "midi": 66,
                    "name": "F#4",
                    "ticks": 129120,
                    "time": 112.0832885,
                    "velocity": 0.7007874015748031,
                },
                {
                    "duration": 0.42274288645833735,
                    "durationTicks": 487,
                    "midi": 71,
                    "name": "B4",
                    "ticks": 129600,
                    "time": 112.499955,
                    "velocity": 0.7716535433070866,
                },
                {
                    "duration": 0.3932290093750055,
                    "durationTicks": 453,
                    "midi": 59,
                    "name": "B3",
                    "ticks": 130080,
                    "time": 112.9166215,
                    "velocity": 0.6535433070866141,
                },
                {
                    "duration": 0.42274288645833735,
                    "durationTicks": 487,
                    "midi": 59,
                    "name": "B3",
                    "ticks": 131040,
                    "time": 113.7499545,
                    "velocity": 0.7322834645669292,
                },
                {
                    "duration": 0.42274288645835156,
                    "durationTicks": 487,
                    "midi": 62,
                    "name": "D4",
                    "ticks": 131520,
                    "time": 114.16662099999999,
                    "velocity": 0.8110236220472441,
                },
                {
                    "duration": 0.3932290093750055,
                    "durationTicks": 453,
                    "midi": 50,
                    "name": "D3",
                    "ticks": 132000,
                    "time": 114.5832875,
                    "velocity": 0.7086614173228346,
                },
                {
                    "duration": 0.42274288645835156,
                    "durationTicks": 487,
                    "midi": 64,
                    "name": "E4",
                    "ticks": 132960,
                    "time": 115.4166205,
                    "velocity": 0.7322834645669292,
                },
                {
                    "duration": 0.42274288645833735,
                    "durationTicks": 487,
                    "midi": 69,
                    "name": "A4",
                    "ticks": 133440,
                    "time": 115.833287,
                    "velocity": 0.8188976377952756,
                },
                {
                    "duration": 0.3932290093750055,
                    "durationTicks": 453,
                    "midi": 57,
                    "name": "A3",
                    "ticks": 133920,
                    "time": 116.2499535,
                    "velocity": 0.7637795275590551,
                },
                {
                    "duration": 0.42274288645833735,
                    "durationTicks": 487,
                    "midi": 57,
                    "name": "A3",
                    "ticks": 134880,
                    "time": 117.0832865,
                    "velocity": 0.7480314960629921,
                },
                {
                    "duration": 0.42274288645833735,
                    "durationTicks": 487,
                    "midi": 64,
                    "name": "E4",
                    "ticks": 135360,
                    "time": 117.499953,
                    "velocity": 0.889763779527559,
                },
                {
                    "duration": 0.3932290093750055,
                    "durationTicks": 453,
                    "midi": 52,
                    "name": "E3",
                    "ticks": 135840,
                    "time": 117.9166195,
                    "velocity": 0.7401574803149606,
                },
                {
                    "duration": 0.42274288645835156,
                    "durationTicks": 487,
                    "midi": 59,
                    "name": "B3",
                    "ticks": 136800,
                    "time": 118.74995249999999,
                    "velocity": 0.7322834645669292,
                },
                {
                    "duration": 0.42274288645833735,
                    "durationTicks": 487,
                    "midi": 64,
                    "name": "E4",
                    "ticks": 137280,
                    "time": 119.166619,
                    "velocity": 0.7952755905511811,
                },
                {
                    "duration": 0.3932290093750055,
                    "durationTicks": 453,
                    "midi": 52,
                    "name": "E3",
                    "ticks": 137760,
                    "time": 119.5832855,
                    "velocity": 0.6929133858267716,
                },
                {
                    "duration": 0.42274288645833735,
                    "durationTicks": 487,
                    "midi": 59,
                    "name": "B3",
                    "ticks": 138720,
                    "time": 120.4166185,
                    "velocity": 0.7716535433070866,
                },
                {
                    "duration": 0.42274288645833735,
                    "durationTicks": 487,
                    "midi": 64,
                    "name": "E4",
                    "ticks": 139200,
                    "time": 120.833285,
                    "velocity": 0.8346456692913385,
                },
                {
                    "duration": 0.3932290093750197,
                    "durationTicks": 453,
                    "midi": 52,
                    "name": "E3",
                    "ticks": 139680,
                    "time": 121.2499515,
                    "velocity": 0.7559055118110236,
                },
                {
                    "duration": 0.42274288645833735,
                    "durationTicks": 487,
                    "midi": 60,
                    "name": "C4",
                    "ticks": 140640,
                    "time": 122.0832845,
                    "velocity": 0.7322834645669292,
                },
                {
                    "duration": 0.42274288645833735,
                    "durationTicks": 487,
                    "midi": 64,
                    "name": "E4",
                    "ticks": 141120,
                    "time": 122.499951,
                    "velocity": 0.8031496062992126,
                },
                {
                    "duration": 0.3932290093750055,
                    "durationTicks": 453,
                    "midi": 57,
                    "name": "A3",
                    "ticks": 141600,
                    "time": 122.9166175,
                    "velocity": 0.7637795275590551,
                },
                {
                    "duration": 0.166666599999985,
                    "durationTicks": 192,
                    "midi": 57,
                    "name": "A3",
                    "ticks": 142398,
                    "time": 123.60932555625001,
                    "velocity": 0.8031496062992126,
                },
                {
                    "duration": 0.1657985447916701,
                    "durationTicks": 191,
                    "midi": 60,
                    "name": "C4",
                    "ticks": 142717,
                    "time": 123.88623516770834,
                    "velocity": 0.952755905511811,
                },
                {
                    "duration": 0.8333329999999961,
                    "durationTicks": 960,
                    "midi": 52,
                    "name": "E3",
                    "ticks": 143040,
                    "time": 124.166617,
                    "velocity": 0.7952755905511811,
                },
                {
                    "duration": 0.16666659999999922,
                    "durationTicks": 192,
                    "midi": 56,
                    "name": "G#3",
                    "ticks": 144318,
                    "time": 125.27599155625,
                    "velocity": 0.8188976377952756,
                },
                {
                    "duration": 0.1657985447916701,
                    "durationTicks": 191,
                    "midi": 59,
                    "name": "B3",
                    "ticks": 144637,
                    "time": 125.55290116770834,
                    "velocity": 0.8818897637795275,
                },
                {
                    "duration": 0.8333330000000103,
                    "durationTicks": 960,
                    "midi": 52,
                    "name": "E3",
                    "ticks": 144960,
                    "time": 125.833283,
                    "velocity": 0.8110236220472441,
                },
                {
                    "duration": 0.166666599999985,
                    "durationTicks": 192,
                    "midi": 56,
                    "name": "G#3",
                    "ticks": 146238,
                    "time": 126.94265755625001,
                    "velocity": 0.7952755905511811,
                },
                {
                    "duration": 0.1657985447916701,
                    "durationTicks": 191,
                    "midi": 59,
                    "name": "B3",
                    "ticks": 146557,
                    "time": 127.21956716770833,
                    "velocity": 0.9133858267716536,
                },
                {
                    "duration": 0.8333329999999961,
                    "durationTicks": 960,
                    "midi": 52,
                    "name": "E3",
                    "ticks": 146880,
                    "time": 127.499949,
                    "velocity": 0.8110236220472441,
                },
                {
                    "duration": 0.166666599999985,
                    "durationTicks": 192,
                    "midi": 57,
                    "name": "A3",
                    "ticks": 148158,
                    "time": 128.60932355625002,
                    "velocity": 0.7874015748031497,
                },
                {
                    "duration": 0.1657985447916701,
                    "durationTicks": 191,
                    "midi": 60,
                    "name": "C4",
                    "ticks": 148477,
                    "time": 128.88623316770833,
                    "velocity": 0.9291338582677166,
                },
                {
                    "duration": 0.8333329999999819,
                    "durationTicks": 960,
                    "midi": 52,
                    "name": "E3",
                    "ticks": 148800,
                    "time": 129.166615,
                    "velocity": 0.7952755905511811,
                },
                {
                    "duration": 0.166666599999985,
                    "durationTicks": 192,
                    "midi": 57,
                    "name": "A3",
                    "ticks": 150078,
                    "time": 130.27598955625,
                    "velocity": 0.7874015748031497,
                },
                {
                    "duration": 0.1657985447916701,
                    "durationTicks": 191,
                    "midi": 60,
                    "name": "C4",
                    "ticks": 150397,
                    "time": 130.55289916770835,
                    "velocity": 0.937007874015748,
                },
                {
                    "duration": 0.8333330000000103,
                    "durationTicks": 960,
                    "midi": 48,
                    "name": "C3",
                    "ticks": 150720,
                    "time": 130.833281,
                    "velocity": 0.7637795275590551,
                },
                {
                    "duration": 0.166666599999985,
                    "durationTicks": 192,
                    "midi": 55,
                    "name": "G3",
                    "ticks": 151998,
                    "time": 131.94265555625,
                    "velocity": 0.7952755905511811,
                },
                {
                    "duration": 0.1657985447916701,
                    "durationTicks": 191,
                    "midi": 60,
                    "name": "C4",
                    "ticks": 152317,
                    "time": 132.21956516770834,
                    "velocity": 0.952755905511811,
                },
                {
                    "duration": 0.8333330000000103,
                    "durationTicks": 960,
                    "midi": 48,
                    "name": "C3",
                    "ticks": 152640,
                    "time": 132.499947,
                    "velocity": 0.8188976377952756,
                },
                {
                    "duration": 0.8333330000000103,
                    "durationTicks": 960,
                    "midi": 55,
                    "name": "G3",
                    "ticks": 152640,
                    "time": 132.499947,
                    "velocity": 0.8188976377952756,
                },
                {
                    "duration": 0.16666660000001343,
                    "durationTicks": 192,
                    "midi": 59,
                    "name": "B3",
                    "ticks": 153918,
                    "time": 133.60932155625,
                    "velocity": 0.8110236220472441,
                },
                {
                    "duration": 0.1657985447916701,
                    "durationTicks": 191,
                    "midi": 62,
                    "name": "D4",
                    "ticks": 154237,
                    "time": 133.88623116770833,
                    "velocity": 0.9291338582677166,
                },
                {
                    "duration": 0.8333329999999819,
                    "durationTicks": 960,
                    "midi": 55,
                    "name": "G3",
                    "ticks": 154560,
                    "time": 134.166613,
                    "velocity": 0.8267716535433071,
                },
                {
                    "duration": 0.166666599999985,
                    "durationTicks": 192,
                    "midi": 55,
                    "name": "G3",
                    "ticks": 155838,
                    "time": 135.27598755625002,
                    "velocity": 0.7795275590551181,
                },
                {
                    "duration": 0.1657985447916701,
                    "durationTicks": 191,
                    "midi": 60,
                    "name": "C4",
                    "ticks": 156157,
                    "time": 135.55289716770835,
                    "velocity": 0.9606299212598425,
                },
                {
                    "duration": 0.8333329999999819,
                    "durationTicks": 960,
                    "midi": 48,
                    "name": "C3",
                    "ticks": 156480,
                    "time": 135.833279,
                    "velocity": 0.7952755905511811,
                },
                {
                    "duration": 0.166666599999985,
                    "durationTicks": 192,
                    "midi": 55,
                    "name": "G3",
                    "ticks": 157758,
                    "time": 136.94265355625,
                    "velocity": 0.8031496062992126,
                },
                {
                    "duration": 0.1657985447916701,
                    "durationTicks": 191,
                    "midi": 60,
                    "name": "C4",
                    "ticks": 158077,
                    "time": 137.21956316770834,
                    "velocity": 0.9921259842519685,
                },
                {
                    "duration": 0.8333330000000103,
                    "durationTicks": 960,
                    "midi": 48,
                    "name": "C3",
                    "ticks": 158400,
                    "time": 137.499945,
                    "velocity": 0.7795275590551181,
                },
                {
                    "duration": 0.166666599999985,
                    "durationTicks": 192,
                    "midi": 59,
                    "name": "B3",
                    "ticks": 159678,
                    "time": 138.60931955625,
                    "velocity": 0.7952755905511811,
                },
                {
                    "duration": 0.1657985447916701,
                    "durationTicks": 191,
                    "midi": 71,
                    "name": "B4",
                    "ticks": 159997,
                    "time": 138.88622916770834,
                    "velocity": 1,
                },
                {
                    "duration": 0.8333330000000103,
                    "durationTicks": 960,
                    "midi": 59,
                    "name": "B3",
                    "ticks": 160320,
                    "time": 139.166611,
                    "velocity": 0.7559055118110236,
                },
                {
                    "duration": 0.166666599999985,
                    "durationTicks": 192,
                    "midi": 59,
                    "name": "B3",
                    "ticks": 161598,
                    "time": 140.27598555625002,
                    "velocity": 0.7716535433070866,
                },
                {
                    "duration": 0.1657985447916701,
                    "durationTicks": 191,
                    "midi": 62,
                    "name": "D4",
                    "ticks": 161917,
                    "time": 140.55289516770833,
                    "velocity": 0.9291338582677166,
                },
                {
                    "duration": 0.8333329999999819,
                    "durationTicks": 960,
                    "midi": 50,
                    "name": "D3",
                    "ticks": 162240,
                    "time": 140.833277,
                    "velocity": 0.7716535433070866,
                },
                {
                    "duration": 0.166666599999985,
                    "durationTicks": 192,
                    "midi": 57,
                    "name": "A3",
                    "ticks": 163518,
                    "time": 141.94265155625,
                    "velocity": 0.8188976377952756,
                },
                {
                    "duration": 0.1657985447916701,
                    "durationTicks": 191,
                    "midi": 69,
                    "name": "A4",
                    "ticks": 163837,
                    "time": 142.21956116770835,
                    "velocity": 1,
                },
                {
                    "duration": 0.8333330000000103,
                    "durationTicks": 960,
                    "midi": 57,
                    "name": "A3",
                    "ticks": 164160,
                    "time": 142.499943,
                    "velocity": 0.7637795275590551,
                },
                {
                    "duration": 0.166666599999985,
                    "durationTicks": 192,
                    "midi": 57,
                    "name": "A3",
                    "ticks": 165438,
                    "time": 143.60931755625,
                    "velocity": 0.8031496062992126,
                },
                {
                    "duration": 0.1657985447916701,
                    "durationTicks": 191,
                    "midi": 60,
                    "name": "C4",
                    "ticks": 165757,
                    "time": 143.88622716770834,
                    "velocity": 0.9606299212598425,
                },
                {
                    "duration": 0.8333330000000103,
                    "durationTicks": 960,
                    "midi": 52,
                    "name": "E3",
                    "ticks": 166080,
                    "time": 144.166609,
                    "velocity": 0.8031496062992126,
                },
                {
                    "duration": 0.16666660000001343,
                    "durationTicks": 192,
                    "midi": 56,
                    "name": "G#3",
                    "ticks": 167358,
                    "time": 145.27598355625,
                    "velocity": 0.8031496062992126,
                },
                {
                    "duration": 0.1657985447916701,
                    "durationTicks": 191,
                    "midi": 59,
                    "name": "B3",
                    "ticks": 167677,
                    "time": 145.55289316770833,
                    "velocity": 0.8976377952755905,
                },
                {
                    "duration": 0.8333330000000103,
                    "durationTicks": 960,
                    "midi": 52,
                    "name": "E3",
                    "ticks": 168000,
                    "time": 145.833275,
                    "velocity": 0.8267716535433071,
                },
                {
                    "duration": 0.8333330000000103,
                    "durationTicks": 960,
                    "midi": 57,
                    "name": "A3",
                    "ticks": 168000,
                    "time": 145.833275,
                    "velocity": 0.8267716535433071,
                },
                {
                    "duration": 0.166666599999985,
                    "durationTicks": 192,
                    "midi": 56,
                    "name": "G#3",
                    "ticks": 169278,
                    "time": 146.94264955625002,
                    "velocity": 0.7559055118110236,
                },
                {
                    "duration": 0.1657985447916701,
                    "durationTicks": 191,
                    "midi": 59,
                    "name": "B3",
                    "ticks": 169597,
                    "time": 147.21955916770833,
                    "velocity": 0.937007874015748,
                },
                {
                    "duration": 0.8333329999999819,
                    "durationTicks": 960,
                    "midi": 52,
                    "name": "E3",
                    "ticks": 169920,
                    "time": 147.499941,
                    "velocity": 0.7795275590551181,
                },
                {
                    "duration": 0.166666599999985,
                    "durationTicks": 192,
                    "midi": 57,
                    "name": "A3",
                    "ticks": 171198,
                    "time": 148.60931555625,
                    "velocity": 0.7716535433070866,
                },
                {
                    "duration": 0.1657985447916701,
                    "durationTicks": 191,
                    "midi": 69,
                    "name": "A4",
                    "ticks": 171517,
                    "time": 148.88622516770835,
                    "velocity": 1,
                },
                {
                    "duration": 0.1657985447916701,
                    "durationTicks": 191,
                    "midi": 57,
                    "name": "A3",
                    "ticks": 171840,
                    "time": 149.166607,
                    "velocity": 0.7952755905511811,
                },
                {
                    "duration": 0.166666599999985,
                    "durationTicks": 192,
                    "midi": 57,
                    "name": "A3",
                    "ticks": 172158,
                    "time": 149.44264855625002,
                    "velocity": 0.8582677165354331,
                },
                {
                    "duration": 0.1657985447916701,
                    "durationTicks": 191,
                    "midi": 59,
                    "name": "B3",
                    "ticks": 172477,
                    "time": 149.71955816770833,
                    "velocity": 0.9212598425196851,
                },
                {
                    "duration": 0.1657985447916701,
                    "durationTicks": 191,
                    "midi": 60,
                    "name": "C4",
                    "ticks": 172800,
                    "time": 149.99994,
                    "velocity": 0.8267716535433071,
                },
                {
                    "duration": 0.166666599999985,
                    "durationTicks": 192,
                    "midi": 55,
                    "name": "G3",
                    "ticks": 173118,
                    "time": 150.27598155625,
                    "velocity": 0.7559055118110236,
                },
                {
                    "duration": 0.1657985447916701,
                    "durationTicks": 191,
                    "midi": 60,
                    "name": "C4",
                    "ticks": 173437,
                    "time": 150.55289116770834,
                    "velocity": 0.8661417322834646,
                },
                {
                    "duration": 0.8333330000000103,
                    "durationTicks": 960,
                    "midi": 48,
                    "name": "C3",
                    "ticks": 173760,
                    "time": 150.833273,
                    "velocity": 0.6692913385826772,
                },
                {
                    "duration": 0.16666660000001343,
                    "durationTicks": 192,
                    "midi": 59,
                    "name": "B3",
                    "ticks": 175038,
                    "time": 151.94264755625,
                    "velocity": 0.6614173228346457,
                },
                {
                    "duration": 0.1657985447916701,
                    "durationTicks": 191,
                    "midi": 71,
                    "name": "B4",
                    "ticks": 175357,
                    "time": 152.21955716770833,
                    "velocity": 0.937007874015748,
                },
                {
                    "duration": 0.8333329999999819,
                    "durationTicks": 960,
                    "midi": 59,
                    "name": "B3",
                    "ticks": 175680,
                    "time": 152.499939,
                    "velocity": 0.6377952755905512,
                },
                {
                    "duration": 0.166666599999985,
                    "durationTicks": 192,
                    "midi": 59,
                    "name": "B3",
                    "ticks": 176958,
                    "time": 153.60931355625002,
                    "velocity": 0.5669291338582677,
                },
                {
                    "duration": 0.1657985447916701,
                    "durationTicks": 191,
                    "midi": 62,
                    "name": "D4",
                    "ticks": 177277,
                    "time": 153.88622316770835,
                    "velocity": 0.6929133858267716,
                },
                {
                    "duration": 0.8333329999999819,
                    "durationTicks": 960,
                    "midi": 50,
                    "name": "D3",
                    "ticks": 177600,
                    "time": 154.166605,
                    "velocity": 0.5511811023622047,
                },
                {
                    "duration": 0.166666599999985,
                    "durationTicks": 192,
                    "midi": 57,
                    "name": "A3",
                    "ticks": 178878,
                    "time": 155.27597955625,
                    "velocity": 0.5118110236220472,
                },
                {
                    "duration": 0.1657985447916701,
                    "durationTicks": 191,
                    "midi": 69,
                    "name": "A4",
                    "ticks": 179197,
                    "time": 155.55288916770834,
                    "velocity": 0.6614173228346457,
                },
                {
                    "duration": 0.8333330000000103,
                    "durationTicks": 960,
                    "midi": 57,
                    "name": "A3",
                    "ticks": 179520,
                    "time": 155.833271,
                    "velocity": 0.4881889763779528,
                },
                {
                    "duration": 0.166666599999985,
                    "durationTicks": 192,
                    "midi": 57,
                    "name": "A3",
                    "ticks": 180798,
                    "time": 156.94264555625,
                    "velocity": 0.4330708661417323,
                },
                {
                    "duration": 0.1657985447916701,
                    "durationTicks": 191,
                    "midi": 60,
                    "name": "C4",
                    "ticks": 181117,
                    "time": 157.21955516770834,
                    "velocity": 0.44881889763779526,
                },
                {
                    "duration": 0.8333330000000103,
                    "durationTicks": 960,
                    "midi": 52,
                    "name": "E3",
                    "ticks": 181440,
                    "time": 157.499937,
                    "velocity": 0.41732283464566927,
                },
                {
                    "duration": 0.166666599999985,
                    "durationTicks": 192,
                    "midi": 56,
                    "name": "G#3",
                    "ticks": 182718,
                    "time": 158.60931155625002,
                    "velocity": 0.3937007874015748,
                },
                {
                    "duration": 0.1657985447916701,
                    "durationTicks": 191,
                    "midi": 59,
                    "name": "B3",
                    "ticks": 183037,
                    "time": 158.88622116770833,
                    "velocity": 0.4409448818897638,
                },
                {
                    "duration": 0.8333329999999819,
                    "durationTicks": 960,
                    "midi": 52,
                    "name": "E3",
                    "ticks": 183360,
                    "time": 159.166603,
                    "velocity": 0.4094488188976378,
                },
                {
                    "duration": 0.8333329999999819,
                    "durationTicks": 960,
                    "midi": 57,
                    "name": "A3",
                    "ticks": 183360,
                    "time": 159.166603,
                    "velocity": 0.4094488188976378,
                },
                {
                    "duration": 0.166666599999985,
                    "durationTicks": 192,
                    "midi": 56,
                    "name": "G#3",
                    "ticks": 184638,
                    "time": 160.27597755625,
                    "velocity": 0.3543307086614173,
                },
                {
                    "duration": 0.1657985447916701,
                    "durationTicks": 191,
                    "midi": 64,
                    "name": "E4",
                    "ticks": 184957,
                    "time": 160.55288716770835,
                    "velocity": 0.5275590551181102,
                },
                {
                    "duration": 0.1657985447916701,
                    "durationTicks": 191,
                    "midi": 52,
                    "name": "E3",
                    "ticks": 185280,
                    "time": 160.833269,
                    "velocity": 0.3779527559055118,
                },
                {
                    "duration": 0.16666660000001343,
                    "durationTicks": 192,
                    "midi": 52,
                    "name": "E3",
                    "ticks": 185598,
                    "time": 161.10931055625,
                    "velocity": 0.3779527559055118,
                },
                {
                    "duration": 0.1657985447916701,
                    "durationTicks": 191,
                    "midi": 64,
                    "name": "E4",
                    "ticks": 185917,
                    "time": 161.38622016770833,
                    "velocity": 0.5196850393700787,
                },
                {
                    "duration": 0.8333329999999819,
                    "durationTicks": 960,
                    "midi": 57,
                    "name": "A3",
                    "ticks": 186240,
                    "time": 161.666602,
                    "velocity": 0.33070866141732286,
                },
                {
                    "duration": 3.3333319999999844,
                    "durationTicks": 3840,
                    "midi": 49,
                    "name": "C#3",
                    "ticks": 193920,
                    "time": 168.333266,
                    "velocity": 0.33070866141732286,
                },
                {
                    "duration": 3.3333319999999844,
                    "durationTicks": 3840,
                    "midi": 52,
                    "name": "E3",
                    "ticks": 193920,
                    "time": 168.333266,
                    "velocity": 0.33070866141732286,
                },
                {
                    "duration": 2.4999990000000025,
                    "durationTicks": 2880,
                    "midi": 50,
                    "name": "D3",
                    "ticks": 197760,
                    "time": 171.666598,
                    "velocity": 0.3858267716535433,
                },
                {
                    "duration": 2.4999990000000025,
                    "durationTicks": 2880,
                    "midi": 54,
                    "name": "F#3",
                    "ticks": 197760,
                    "time": 171.666598,
                    "velocity": 0.3858267716535433,
                },
                {
                    "duration": 0.42274288645833735,
                    "durationTicks": 487,
                    "midi": 49,
                    "name": "C#3",
                    "ticks": 200640,
                    "time": 174.166597,
                    "velocity": 0.4409448818897638,
                },
                {
                    "duration": 0.42274288645833735,
                    "durationTicks": 487,
                    "midi": 52,
                    "name": "E3",
                    "ticks": 200640,
                    "time": 174.166597,
                    "velocity": 0.4409448818897638,
                },
                {
                    "duration": 0.42274288645833735,
                    "durationTicks": 487,
                    "midi": 61,
                    "name": "C#4",
                    "ticks": 201120,
                    "time": 174.5832635,
                    "velocity": 0.5748031496062992,
                },
                {
                    "duration": 0.8489579937499911,
                    "durationTicks": 978,
                    "midi": 59,
                    "name": "B3",
                    "ticks": 201600,
                    "time": 174.99993,
                    "velocity": 0.5196850393700787,
                },
                {
                    "duration": 0.8489579937499911,
                    "durationTicks": 978,
                    "midi": 62,
                    "name": "D4",
                    "ticks": 201600,
                    "time": 174.99993,
                    "velocity": 0.5196850393700787,
                },
                {
                    "duration": 0.42274288645833735,
                    "durationTicks": 487,
                    "midi": 57,
                    "name": "A3",
                    "ticks": 202560,
                    "time": 175.833263,
                    "velocity": 0.5039370078740157,
                },
                {
                    "duration": 0.42274288645833735,
                    "durationTicks": 487,
                    "midi": 61,
                    "name": "C#4",
                    "ticks": 202560,
                    "time": 175.833263,
                    "velocity": 0.5039370078740157,
                },
                {
                    "duration": 0.42274288645833735,
                    "durationTicks": 487,
                    "midi": 49,
                    "name": "C#3",
                    "ticks": 203040,
                    "time": 176.2499295,
                    "velocity": 0.4645669291338583,
                },
                {
                    "duration": 0.42274288645833735,
                    "durationTicks": 487,
                    "midi": 52,
                    "name": "E3",
                    "ticks": 203040,
                    "time": 176.2499295,
                    "velocity": 0.4645669291338583,
                },
                {
                    "duration": 0.8489579937500196,
                    "durationTicks": 978,
                    "midi": 50,
                    "name": "D3",
                    "ticks": 203520,
                    "time": 176.666596,
                    "velocity": 0.5669291338582677,
                },
                {
                    "duration": 0.8489579937500196,
                    "durationTicks": 978,
                    "midi": 54,
                    "name": "F#3",
                    "ticks": 203520,
                    "time": 176.666596,
                    "velocity": 0.5669291338582677,
                },
                {
                    "duration": 0.8489579937499911,
                    "durationTicks": 978,
                    "midi": 52,
                    "name": "E3",
                    "ticks": 204480,
                    "time": 177.499929,
                    "velocity": 0.5826771653543307,
                },
                {
                    "duration": 0.8489579937500196,
                    "durationTicks": 978,
                    "midi": 54,
                    "name": "F#3",
                    "ticks": 205440,
                    "time": 178.333262,
                    "velocity": 0.6771653543307087,
                },
                {
                    "duration": 0.7907982947916707,
                    "durationTicks": 911,
                    "midi": 56,
                    "name": "G#3",
                    "ticks": 206400,
                    "time": 179.166595,
                    "velocity": 0.6299212598425197,
                },
                {
                    "duration": 0.8489579937499911,
                    "durationTicks": 978,
                    "midi": 56,
                    "name": "G#3",
                    "ticks": 207360,
                    "time": 179.999928,
                    "velocity": 0.5196850393700787,
                },
                {
                    "duration": 0.3932290093750055,
                    "durationTicks": 453,
                    "midi": 52,
                    "name": "E3",
                    "ticks": 208320,
                    "time": 180.833261,
                    "velocity": 0.4330708661417323,
                },
                {
                    "duration": 0.41666650000001937,
                    "durationTicks": 480,
                    "midi": 52,
                    "name": "E3",
                    "ticks": 208800,
                    "time": 181.24992749999998,
                    "velocity": 0.3858267716535433,
                },
                {
                    "duration": 0.8333329999999819,
                    "durationTicks": 960,
                    "midi": 52,
                    "name": "E3",
                    "ticks": 209280,
                    "time": 181.666594,
                    "velocity": 0.3779527559055118,
                },
                {
                    "duration": 3.333332000000013,
                    "durationTicks": 3840,
                    "midi": 49,
                    "name": "C#3",
                    "ticks": 210240,
                    "time": 182.49992699999999,
                    "velocity": 0.3543307086614173,
                },
                {
                    "duration": 1.6666659999999922,
                    "durationTicks": 1920,
                    "midi": 50,
                    "name": "D3",
                    "ticks": 214080,
                    "time": 185.833259,
                    "velocity": 0.44881889763779526,
                },
                {
                    "duration": 0.8333330000000103,
                    "durationTicks": 960,
                    "midi": 52,
                    "name": "E3",
                    "ticks": 216000,
                    "time": 187.499925,
                    "velocity": 0.47244094488188976,
                },
                {
                    "duration": 0.42274288645833735,
                    "durationTicks": 487,
                    "midi": 54,
                    "name": "F#3",
                    "ticks": 216960,
                    "time": 188.333258,
                    "velocity": 0.5354330708661418,
                },
                {
                    "duration": 0.42274288645833735,
                    "durationTicks": 487,
                    "midi": 56,
                    "name": "G#3",
                    "ticks": 217440,
                    "time": 188.7499245,
                    "velocity": 0.5669291338582677,
                },
                {
                    "duration": 0.42274288645833735,
                    "durationTicks": 487,
                    "midi": 57,
                    "name": "A3",
                    "ticks": 217920,
                    "time": 189.166591,
                    "velocity": 0.5196850393700787,
                },
                {
                    "duration": 0.3932290093750055,
                    "durationTicks": 453,
                    "midi": 52,
                    "name": "E3",
                    "ticks": 218400,
                    "time": 189.5832575,
                    "velocity": 0.4881889763779528,
                },
                {
                    "duration": 0.42274288645833735,
                    "durationTicks": 487,
                    "midi": 52,
                    "name": "E3",
                    "ticks": 218880,
                    "time": 189.999924,
                    "velocity": 0.4645669291338583,
                },
                {
                    "duration": 0.4227428864583658,
                    "durationTicks": 487,
                    "midi": 56,
                    "name": "G#3",
                    "ticks": 219360,
                    "time": 190.41659049999998,
                    "velocity": 0.49606299212598426,
                },
                {
                    "duration": 0.42274288645833735,
                    "durationTicks": 487,
                    "midi": 57,
                    "name": "A3",
                    "ticks": 219840,
                    "time": 190.833257,
                    "velocity": 0.5275590551181102,
                },
                {
                    "duration": 0.42274288645833735,
                    "durationTicks": 487,
                    "midi": 54,
                    "name": "F#3",
                    "ticks": 220320,
                    "time": 191.2499235,
                    "velocity": 0.5118110236220472,
                },
                {
                    "duration": 0.7907982947916707,
                    "durationTicks": 911,
                    "midi": 52,
                    "name": "E3",
                    "ticks": 220800,
                    "time": 191.66658999999999,
                    "velocity": 0.47244094488188976,
                },
                {
                    "duration": 0.8489579937500196,
                    "durationTicks": 978,
                    "midi": 64,
                    "name": "E4",
                    "ticks": 221760,
                    "time": 192.499923,
                    "velocity": 0.3543307086614173,
                },
                {
                    "duration": 1.5815965895833415,
                    "durationTicks": 1822,
                    "midi": 66,
                    "name": "F#4",
                    "ticks": 222720,
                    "time": 193.333256,
                    "velocity": 0.4330708661417323,
                },
                {
                    "duration": 1.6987840427083256,
                    "durationTicks": 1957,
                    "midi": 64,
                    "name": "E4",
                    "ticks": 224640,
                    "time": 194.999922,
                    "velocity": 0.2440944881889764,
                },
                {
                    "duration": 1.5815965895833415,
                    "durationTicks": 1822,
                    "midi": 66,
                    "name": "F#4",
                    "ticks": 226560,
                    "time": 196.666588,
                    "velocity": 0.2677165354330709,
                },
                {
                    "duration": 1.6987840427083256,
                    "durationTicks": 1957,
                    "midi": 64,
                    "name": "E4",
                    "ticks": 228480,
                    "time": 198.333254,
                    "velocity": 0.2755905511811024,
                },
                {
                    "duration": 1.6111104666666733,
                    "durationTicks": 1856,
                    "midi": 66,
                    "name": "F#4",
                    "ticks": 230400,
                    "time": 199.99992,
                    "velocity": 0.3228346456692913,
                },
                {
                    "duration": 0.7907982947916707,
                    "durationTicks": 911,
                    "midi": 64,
                    "name": "E4",
                    "ticks": 232320,
                    "time": 201.666586,
                    "velocity": 0.2677165354330709,
                },
                {
                    "duration": 7.499996999999979,
                    "durationTicks": 8640,
                    "midi": 52,
                    "name": "E3",
                    "ticks": 233280,
                    "time": 202.499919,
                    "velocity": 0.2440944881889764,
                },
                {
                    "duration": 0.8489579937500196,
                    "durationTicks": 978,
                    "midi": 52,
                    "name": "E3",
                    "ticks": 241920,
                    "time": 209.99991599999998,
                    "velocity": 0.5669291338582677,
                },
                {
                    "duration": 0.8489579937500196,
                    "durationTicks": 978,
                    "midi": 55,
                    "name": "G3",
                    "ticks": 242880,
                    "time": 210.833249,
                    "velocity": 0.6062992125984252,
                },
                {
                    "duration": 0.3932290093750055,
                    "durationTicks": 453,
                    "midi": 54,
                    "name": "F#3",
                    "ticks": 243840,
                    "time": 211.666582,
                    "velocity": 0.5196850393700787,
                },
                {
                    "duration": 0.42274288645833735,
                    "durationTicks": 487,
                    "midi": 54,
                    "name": "F#3",
                    "ticks": 244320,
                    "time": 212.0832485,
                    "velocity": 0.5354330708661418,
                },
                {
                    "duration": 0.42274288645833735,
                    "durationTicks": 487,
                    "midi": 50,
                    "name": "D3",
                    "ticks": 244800,
                    "time": 212.499915,
                    "velocity": 0.49606299212598426,
                },
                {
                    "duration": 0.3932290093750055,
                    "durationTicks": 453,
                    "midi": 54,
                    "name": "F#3",
                    "ticks": 245280,
                    "time": 212.9165815,
                    "velocity": 0.5118110236220472,
                },
                {
                    "duration": 0.42274288645833735,
                    "durationTicks": 487,
                    "midi": 49,
                    "name": "C#3",
                    "ticks": 245760,
                    "time": 213.333248,
                    "velocity": 0.31496062992125984,
                },
                {
                    "duration": 0.3932290093750055,
                    "durationTicks": 453,
                    "midi": 52,
                    "name": "E3",
                    "ticks": 246240,
                    "time": 213.7499145,
                    "velocity": 0.2992125984251969,
                },
                {
                    "duration": 0.42274288645833735,
                    "durationTicks": 487,
                    "midi": 52,
                    "name": "E3",
                    "ticks": 246720,
                    "time": 214.166581,
                    "velocity": 0.4015748031496063,
                },
                {
                    "duration": 0.42274288645833735,
                    "durationTicks": 487,
                    "midi": 50,
                    "name": "D3",
                    "ticks": 247200,
                    "time": 214.5832475,
                    "velocity": 0.3464566929133858,
                },
                {
                    "duration": 0.3932290093750055,
                    "durationTicks": 453,
                    "midi": 49,
                    "name": "C#3",
                    "ticks": 247680,
                    "time": 214.999914,
                    "velocity": 0.3937007874015748,
                },
                {
                    "duration": 0.42274288645833735,
                    "durationTicks": 487,
                    "midi": 57,
                    "name": "A3",
                    "ticks": 248160,
                    "time": 215.4165805,
                    "velocity": 0.4330708661417323,
                },
                {
                    "duration": 0.2795137770833378,
                    "durationTicks": 322,
                    "midi": 59,
                    "name": "B3",
                    "ticks": 248640,
                    "time": 215.833247,
                    "velocity": 0.4330708661417323,
                },
                {
                    "duration": 0.2803818322916811,
                    "durationTicks": 323,
                    "midi": 60,
                    "name": "C4",
                    "ticks": 248958,
                    "time": 216.10928855625,
                    "velocity": 0.4015748031496063,
                },
                {
                    "duration": 0.26388878333332855,
                    "durationTicks": 304,
                    "midi": 61,
                    "name": "C#4",
                    "ticks": 249277,
                    "time": 216.38619816770833,
                    "velocity": 0.4566929133858268,
                },
                {
                    "duration": 6.666663999999997,
                    "durationTicks": 7680,
                    "midi": 52,
                    "name": "E3",
                    "ticks": 249600,
                    "time": 216.66658,
                    "velocity": 0.3779527559055118,
                },
                {
                    "duration": 0.8489579937499911,
                    "durationTicks": 978,
                    "midi": 52,
                    "name": "E3",
                    "ticks": 257280,
                    "time": 223.333244,
                    "velocity": 0.5511811023622047,
                },
                {
                    "duration": 0.8489579937500196,
                    "durationTicks": 978,
                    "midi": 55,
                    "name": "G3",
                    "ticks": 258240,
                    "time": 224.166577,
                    "velocity": 0.5984251968503937,
                },
                {
                    "duration": 0.3932290093750055,
                    "durationTicks": 453,
                    "midi": 57,
                    "name": "A3",
                    "ticks": 259200,
                    "time": 224.99991,
                    "velocity": 0.5669291338582677,
                },
                {
                    "duration": 0.42274288645833735,
                    "durationTicks": 487,
                    "midi": 57,
                    "name": "A3",
                    "ticks": 259680,
                    "time": 225.4165765,
                    "velocity": 0.5039370078740157,
                },
                {
                    "duration": 0.42274288645833735,
                    "durationTicks": 487,
                    "midi": 53,
                    "name": "F3",
                    "ticks": 260160,
                    "time": 225.833243,
                    "velocity": 0.4566929133858268,
                },
                {
                    "duration": 0.3932290093750055,
                    "durationTicks": 453,
                    "midi": 57,
                    "name": "A3",
                    "ticks": 260640,
                    "time": 226.2499095,
                    "velocity": 0.47244094488188976,
                },
                {
                    "duration": 0.42274288645833735,
                    "durationTicks": 487,
                    "midi": 52,
                    "name": "E3",
                    "ticks": 261120,
                    "time": 226.666576,
                    "velocity": 0.3464566929133858,
                },
                {
                    "duration": 0.3932290093750055,
                    "durationTicks": 453,
                    "midi": 55,
                    "name": "G3",
                    "ticks": 261600,
                    "time": 227.0832425,
                    "velocity": 0.33070866141732286,
                },
                {
                    "duration": 0.42274288645833735,
                    "durationTicks": 487,
                    "midi": 55,
                    "name": "G3",
                    "ticks": 262080,
                    "time": 227.499909,
                    "velocity": 0.3700787401574803,
                },
                {
                    "duration": 0.3932290093750055,
                    "durationTicks": 453,
                    "midi": 53,
                    "name": "F3",
                    "ticks": 262560,
                    "time": 227.9165755,
                    "velocity": 0.3543307086614173,
                },
                {
                    "duration": 1.6666659999999922,
                    "durationTicks": 1920,
                    "midi": 62,
                    "name": "D4",
                    "ticks": 264960,
                    "time": 229.999908,
                    "velocity": 0.44881889763779526,
                },
                {
                    "duration": 1.6666659999999922,
                    "durationTicks": 1920,
                    "midi": 60,
                    "name": "C4",
                    "ticks": 266880,
                    "time": 231.666574,
                    "velocity": 0.3700787401574803,
                },
                {
                    "duration": 1.698784042708354,
                    "durationTicks": 1957,
                    "midi": 62,
                    "name": "D4",
                    "ticks": 268800,
                    "time": 233.33324,
                    "velocity": 0.4015748031496063,
                },
                {
                    "duration": 1.6987840427083256,
                    "durationTicks": 1957,
                    "midi": 60,
                    "name": "C4",
                    "ticks": 270720,
                    "time": 234.999906,
                    "velocity": 0.4015748031496063,
                },
                {
                    "duration": 1.5815965895833415,
                    "durationTicks": 1822,
                    "midi": 62,
                    "name": "D4",
                    "ticks": 272640,
                    "time": 236.666572,
                    "velocity": 0.4330708661417323,
                },
                {
                    "duration": 0.2803818322916811,
                    "durationTicks": 323,
                    "midi": 59,
                    "name": "B3",
                    "ticks": 278077,
                    "time": 241.38618816770833,
                    "velocity": 0.6614173228346457,
                },
                {
                    "duration": 0.1657985447916701,
                    "durationTicks": 191,
                    "midi": 57,
                    "name": "A3",
                    "ticks": 278400,
                    "time": 241.66657,
                    "velocity": 0.7007874015748031,
                },
                {
                    "duration": 0.166666599999985,
                    "durationTicks": 192,
                    "midi": 55,
                    "name": "G3",
                    "ticks": 278718,
                    "time": 241.94261155625,
                    "velocity": 0.7165354330708661,
                },
                {
                    "duration": 0.1657985447916701,
                    "durationTicks": 191,
                    "midi": 53,
                    "name": "F3",
                    "ticks": 279037,
                    "time": 242.21952116770834,
                    "velocity": 0.7559055118110236,
                },
                {
                    "duration": 0.1657985447916701,
                    "durationTicks": 191,
                    "midi": 52,
                    "name": "E3",
                    "ticks": 279360,
                    "time": 242.499903,
                    "velocity": 0.7322834645669292,
                },
                {
                    "duration": 0.166666599999985,
                    "durationTicks": 192,
                    "midi": 50,
                    "name": "D3",
                    "ticks": 279678,
                    "time": 242.77594455625,
                    "velocity": 0.6929133858267716,
                },
                {
                    "duration": 0.1657985447916701,
                    "durationTicks": 191,
                    "midi": 60,
                    "name": "C4",
                    "ticks": 279997,
                    "time": 243.05285416770835,
                    "velocity": 0.937007874015748,
                },
                {
                    "duration": 0.1657985447916701,
                    "durationTicks": 191,
                    "midi": 59,
                    "name": "B3",
                    "ticks": 280320,
                    "time": 243.333236,
                    "velocity": 0.7795275590551181,
                },
                {
                    "duration": 0.166666599999985,
                    "durationTicks": 192,
                    "midi": 57,
                    "name": "A3",
                    "ticks": 280638,
                    "time": 243.60927755625002,
                    "velocity": 0.7244094488188977,
                },
                {
                    "duration": 0.1657985447916701,
                    "durationTicks": 191,
                    "midi": 55,
                    "name": "G3",
                    "ticks": 280957,
                    "time": 243.88618716770833,
                    "velocity": 0.7795275590551181,
                },
                {
                    "duration": 0.1657985447916701,
                    "durationTicks": 191,
                    "midi": 53,
                    "name": "F3",
                    "ticks": 281280,
                    "time": 244.166569,
                    "velocity": 0.7401574803149606,
                },
                {
                    "duration": 0.166666599999985,
                    "durationTicks": 192,
                    "midi": 52,
                    "name": "E3",
                    "ticks": 281598,
                    "time": 244.44261055625,
                    "velocity": 0.7480314960629921,
                },
                {
                    "duration": 0.1657985447916701,
                    "durationTicks": 191,
                    "midi": 50,
                    "name": "D3",
                    "ticks": 281917,
                    "time": 244.71952016770834,
                    "velocity": 0.7244094488188977,
                },
                {
                    "duration": 0.41666650000001937,
                    "durationTicks": 480,
                    "midi": 48,
                    "name": "C3",
                    "ticks": 282240,
                    "time": 244.999902,
                    "velocity": 0.7322834645669292,
                },
                {
                    "duration": 0.2473957343750044,
                    "durationTicks": 285,
                    "midi": 52,
                    "name": "E3",
                    "ticks": 283200,
                    "time": 245.833235,
                    "velocity": 0.7795275590551181,
                },
                {
                    "duration": 0.2473957343750044,
                    "durationTicks": 285,
                    "midi": 52,
                    "name": "E3",
                    "ticks": 283680,
                    "time": 246.2499015,
                    "velocity": 0.8661417322834646,
                },
                {
                    "duration": 0.12326383958333054,
                    "durationTicks": 142,
                    "midi": 59,
                    "name": "B3",
                    "ticks": 288240,
                    "time": 250.20823325,
                    "velocity": 0.31496062992125984,
                },
                {
                    "duration": 0.12326383958335896,
                    "durationTicks": 142,
                    "midi": 56,
                    "name": "G#3",
                    "ticks": 288480,
                    "time": 250.4165665,
                    "velocity": 0.3543307086614173,
                },
                {
                    "duration": 0.12326383958333054,
                    "durationTicks": 142,
                    "midi": 59,
                    "name": "B3",
                    "ticks": 288720,
                    "time": 250.62489975,
                    "velocity": 0.4015748031496063,
                },
                {
                    "duration": 0.12326383958333054,
                    "durationTicks": 142,
                    "midi": 64,
                    "name": "E4",
                    "ticks": 288960,
                    "time": 250.833233,
                    "velocity": 0.4094488188976378,
                },
                {
                    "duration": 0.12326383958335896,
                    "durationTicks": 142,
                    "midi": 59,
                    "name": "B3",
                    "ticks": 289200,
                    "time": 251.04156625,
                    "velocity": 0.3700787401574803,
                },
                {
                    "duration": 0.12326383958333054,
                    "durationTicks": 142,
                    "midi": 56,
                    "name": "G#3",
                    "ticks": 289440,
                    "time": 251.2498995,
                    "velocity": 0.3464566929133858,
                },
                {
                    "duration": 0.12326383958333054,
                    "durationTicks": 142,
                    "midi": 59,
                    "name": "B3",
                    "ticks": 289680,
                    "time": 251.45823275,
                    "velocity": 0.3937007874015748,
                },
                {
                    "duration": 0.41666650000001937,
                    "durationTicks": 480,
                    "midi": 52,
                    "name": "E3",
                    "ticks": 289920,
                    "time": 251.666566,
                    "velocity": 0.3464566929133858,
                },
                {
                    "duration": 0.19791658750000352,
                    "durationTicks": 228,
                    "midi": 60,
                    "name": "C4",
                    "ticks": 292080,
                    "time": 253.54156525,
                    "velocity": 0.33858267716535434,
                },
                {
                    "duration": 0.19791658750000352,
                    "durationTicks": 228,
                    "midi": 57,
                    "name": "A3",
                    "ticks": 292320,
                    "time": 253.7498985,
                    "velocity": 0.3543307086614173,
                },
                {
                    "duration": 0.19791658750000352,
                    "durationTicks": 228,
                    "midi": 60,
                    "name": "C4",
                    "ticks": 292560,
                    "time": 253.95823175,
                    "velocity": 0.3779527559055118,
                },
                {
                    "duration": 0.19791658750000352,
                    "durationTicks": 228,
                    "midi": 64,
                    "name": "E4",
                    "ticks": 292800,
                    "time": 254.166565,
                    "velocity": 0.3937007874015748,
                },
                {
                    "duration": 0.19791658750000352,
                    "durationTicks": 228,
                    "midi": 60,
                    "name": "C4",
                    "ticks": 293040,
                    "time": 254.37489825,
                    "velocity": 0.3464566929133858,
                },
                {
                    "duration": 0.19791658750000352,
                    "durationTicks": 228,
                    "midi": 57,
                    "name": "A3",
                    "ticks": 293280,
                    "time": 254.5832315,
                    "velocity": 0.3858267716535433,
                },
                {
                    "duration": 0.19791658750000352,
                    "durationTicks": 228,
                    "midi": 60,
                    "name": "C4",
                    "ticks": 293520,
                    "time": 254.79156475,
                    "velocity": 0.4330708661417323,
                },
                {
                    "duration": 0.39670123020832193,
                    "durationTicks": 457,
                    "midi": 52,
                    "name": "E3",
                    "ticks": 293760,
                    "time": 254.999898,
                    "velocity": 0.33070866141732286,
                },
                {
                    "duration": 0.19791658750000352,
                    "durationTicks": 228,
                    "midi": 64,
                    "name": "E4",
                    "ticks": 295920,
                    "time": 256.87489725,
                    "velocity": 0.33858267716535434,
                },
                {
                    "duration": 0.19791658750000352,
                    "durationTicks": 228,
                    "midi": 60,
                    "name": "C4",
                    "ticks": 296160,
                    "time": 257.0832305,
                    "velocity": 0.33070866141732286,
                },
                {
                    "duration": 0.19791658750000352,
                    "durationTicks": 228,
                    "midi": 64,
                    "name": "E4",
                    "ticks": 296400,
                    "time": 257.29156375,
                    "velocity": 0.41732283464566927,
                },
                {
                    "duration": 0.19791658750000352,
                    "durationTicks": 228,
                    "midi": 67,
                    "name": "G4",
                    "ticks": 296640,
                    "time": 257.499897,
                    "velocity": 0.4015748031496063,
                },
                {
                    "duration": 0.19791658750000352,
                    "durationTicks": 228,
                    "midi": 64,
                    "name": "E4",
                    "ticks": 296880,
                    "time": 257.70823025,
                    "velocity": 0.3700787401574803,
                },
                {
                    "duration": 0.19791658750000352,
                    "durationTicks": 228,
                    "midi": 60,
                    "name": "C4",
                    "ticks": 297120,
                    "time": 257.9165635,
                    "velocity": 0.3543307086614173,
                },
                {
                    "duration": 0.19791658750000352,
                    "durationTicks": 228,
                    "midi": 64,
                    "name": "E4",
                    "ticks": 297360,
                    "time": 258.12489675,
                    "velocity": 0.4094488188976378,
                },
                {
                    "duration": 0.39670123020835035,
                    "durationTicks": 457,
                    "midi": 55,
                    "name": "G3",
                    "ticks": 297600,
                    "time": 258.33323,
                    "velocity": 0.31496062992125984,
                },
                {
                    "duration": 0.19791658750000352,
                    "durationTicks": 228,
                    "midi": 64,
                    "name": "E4",
                    "ticks": 299760,
                    "time": 260.20822925,
                    "velocity": 0.33858267716535434,
                },
                {
                    "duration": 0.19791658750000352,
                    "durationTicks": 228,
                    "midi": 60,
                    "name": "C4",
                    "ticks": 300000,
                    "time": 260.4165625,
                    "velocity": 0.2992125984251969,
                },
                {
                    "duration": 0.19791658750000352,
                    "durationTicks": 228,
                    "midi": 64,
                    "name": "E4",
                    "ticks": 300240,
                    "time": 260.62489575,
                    "velocity": 0.3858267716535433,
                },
                {
                    "duration": 0.19791658750000352,
                    "durationTicks": 228,
                    "midi": 67,
                    "name": "G4",
                    "ticks": 300480,
                    "time": 260.833229,
                    "velocity": 0.4094488188976378,
                },
                {
                    "duration": 0.19791658750006036,
                    "durationTicks": 228,
                    "midi": 64,
                    "name": "E4",
                    "ticks": 300720,
                    "time": 261.04156224999997,
                    "velocity": 0.36220472440944884,
                },
                {
                    "duration": 0.19791658750000352,
                    "durationTicks": 228,
                    "midi": 60,
                    "name": "C4",
                    "ticks": 300960,
                    "time": 261.2498955,
                    "velocity": 0.33858267716535434,
                },
                {
                    "duration": 0.19791658750000352,
                    "durationTicks": 228,
                    "midi": 64,
                    "name": "E4",
                    "ticks": 301200,
                    "time": 261.45822875,
                    "velocity": 0.4094488188976378,
                },
                {
                    "duration": 0.39670123020835035,
                    "durationTicks": 457,
                    "midi": 55,
                    "name": "G3",
                    "ticks": 301440,
                    "time": 261.666562,
                    "velocity": 0.33858267716535434,
                },
                {
                    "duration": 0.19791658750006036,
                    "durationTicks": 228,
                    "midi": 66,
                    "name": "F#4",
                    "ticks": 303600,
                    "time": 263.54156125,
                    "velocity": 0.3464566929133858,
                },
                {
                    "duration": 0.19791658750000352,
                    "durationTicks": 228,
                    "midi": 63,
                    "name": "D#4",
                    "ticks": 303840,
                    "time": 263.7498945,
                    "velocity": 0.33070866141732286,
                },
                {
                    "duration": 0.19791658750000352,
                    "durationTicks": 228,
                    "midi": 66,
                    "name": "F#4",
                    "ticks": 304080,
                    "time": 263.95822775,
                    "velocity": 0.4094488188976378,
                },
                {
                    "duration": 0.19791658750000352,
                    "durationTicks": 228,
                    "midi": 71,
                    "name": "B4",
                    "ticks": 304320,
                    "time": 264.166561,
                    "velocity": 0.4251968503937008,
                },
                {
                    "duration": 0.19791658750000352,
                    "durationTicks": 228,
                    "midi": 66,
                    "name": "F#4",
                    "ticks": 304560,
                    "time": 264.37489425,
                    "velocity": 0.3464566929133858,
                },
                {
                    "duration": 0.19791658750000352,
                    "durationTicks": 228,
                    "midi": 63,
                    "name": "D#4",
                    "ticks": 304800,
                    "time": 264.5832275,
                    "velocity": 0.3543307086614173,
                },
                {
                    "duration": 0.19791658750006036,
                    "durationTicks": 228,
                    "midi": 66,
                    "name": "F#4",
                    "ticks": 305040,
                    "time": 264.79156075,
                    "velocity": 0.4251968503937008,
                },
                {
                    "duration": 0.39670123020835035,
                    "durationTicks": 457,
                    "midi": 57,
                    "name": "A3",
                    "ticks": 305280,
                    "time": 264.999894,
                    "velocity": 0.3228346456692913,
                },
                {
                    "duration": 0.19791658750000352,
                    "durationTicks": 228,
                    "midi": 61,
                    "name": "C#4",
                    "ticks": 307440,
                    "time": 266.87489325,
                    "velocity": 0.3779527559055118,
                },
                {
                    "duration": 0.19791658750000352,
                    "durationTicks": 228,
                    "midi": 57,
                    "name": "A3",
                    "ticks": 307680,
                    "time": 267.0832265,
                    "velocity": 0.33070866141732286,
                },
                {
                    "duration": 0.19791658750000352,
                    "durationTicks": 228,
                    "midi": 61,
                    "name": "C#4",
                    "ticks": 307920,
                    "time": 267.29155975,
                    "velocity": 0.4409448818897638,
                },
                {
                    "duration": 0.19791658750000352,
                    "durationTicks": 228,
                    "midi": 64,
                    "name": "E4",
                    "ticks": 308160,
                    "time": 267.499893,
                    "velocity": 0.41732283464566927,
                },
                {
                    "duration": 0.19791658750000352,
                    "durationTicks": 228,
                    "midi": 60,
                    "name": "C4",
                    "ticks": 308400,
                    "time": 267.70822625,
                    "velocity": 0.33858267716535434,
                },
                {
                    "duration": 0.19791658750000352,
                    "durationTicks": 228,
                    "midi": 57,
                    "name": "A3",
                    "ticks": 308640,
                    "time": 267.9165595,
                    "velocity": 0.3858267716535433,
                },
                {
                    "duration": 0.19791658750000352,
                    "durationTicks": 228,
                    "midi": 60,
                    "name": "C4",
                    "ticks": 308880,
                    "time": 268.12489275,
                    "velocity": 0.3937007874015748,
                },
                {
                    "duration": 0.3967012302082935,
                    "durationTicks": 457,
                    "midi": 52,
                    "name": "E3",
                    "ticks": 309120,
                    "time": 268.333226,
                    "velocity": 0.33858267716535434,
                },
                {
                    "duration": 0.19791658750000352,
                    "durationTicks": 228,
                    "midi": 59,
                    "name": "B3",
                    "ticks": 311280,
                    "time": 270.20822525,
                    "velocity": 0.3228346456692913,
                },
                {
                    "duration": 0.19791658750000352,
                    "durationTicks": 228,
                    "midi": 56,
                    "name": "G#3",
                    "ticks": 311520,
                    "time": 270.4165585,
                    "velocity": 0.33070866141732286,
                },
                {
                    "duration": 0.19791658750000352,
                    "durationTicks": 228,
                    "midi": 59,
                    "name": "B3",
                    "ticks": 311760,
                    "time": 270.62489175,
                    "velocity": 0.3700787401574803,
                },
                {
                    "duration": 0.19791658750006036,
                    "durationTicks": 228,
                    "midi": 64,
                    "name": "E4",
                    "ticks": 312000,
                    "time": 270.83322499999997,
                    "velocity": 0.4409448818897638,
                },
                {
                    "duration": 0.19791658750000352,
                    "durationTicks": 228,
                    "midi": 60,
                    "name": "C4",
                    "ticks": 312240,
                    "time": 271.04155825,
                    "velocity": 0.33858267716535434,
                },
                {
                    "duration": 0.19791658750000352,
                    "durationTicks": 228,
                    "midi": 57,
                    "name": "A3",
                    "ticks": 312480,
                    "time": 271.2498915,
                    "velocity": 0.36220472440944884,
                },
                {
                    "duration": 0.19791658750000352,
                    "durationTicks": 228,
                    "midi": 60,
                    "name": "C4",
                    "ticks": 312720,
                    "time": 271.45822475,
                    "velocity": 0.3937007874015748,
                },
                {
                    "duration": 0.39670123020835035,
                    "durationTicks": 457,
                    "midi": 52,
                    "name": "E3",
                    "ticks": 312960,
                    "time": 271.666558,
                    "velocity": 0.3228346456692913,
                },
                {
                    "duration": 0.19791658750000352,
                    "durationTicks": 228,
                    "midi": 60,
                    "name": "C4",
                    "ticks": 315120,
                    "time": 273.54155725,
                    "velocity": 0.3543307086614173,
                },
                {
                    "duration": 0.19791658750000352,
                    "durationTicks": 228,
                    "midi": 57,
                    "name": "A3",
                    "ticks": 315360,
                    "time": 273.7498905,
                    "velocity": 0.3700787401574803,
                },
                {
                    "duration": 0.19791658750000352,
                    "durationTicks": 228,
                    "midi": 60,
                    "name": "C4",
                    "ticks": 315600,
                    "time": 273.95822375,
                    "velocity": 0.4409448818897638,
                },
                {
                    "duration": 0.19791658750000352,
                    "durationTicks": 228,
                    "midi": 64,
                    "name": "E4",
                    "ticks": 315840,
                    "time": 274.166557,
                    "velocity": 0.4330708661417323,
                },
                {
                    "duration": 0.19791658750000352,
                    "durationTicks": 228,
                    "midi": 60,
                    "name": "C4",
                    "ticks": 316080,
                    "time": 274.37489025,
                    "velocity": 0.31496062992125984,
                },
                {
                    "duration": 0.19791658750006036,
                    "durationTicks": 228,
                    "midi": 57,
                    "name": "A3",
                    "ticks": 316320,
                    "time": 274.5832235,
                    "velocity": 0.33070866141732286,
                },
                {
                    "duration": 0.19791658750000352,
                    "durationTicks": 228,
                    "midi": 60,
                    "name": "C4",
                    "ticks": 316560,
                    "time": 274.79155675,
                    "velocity": 0.3937007874015748,
                },
                {
                    "duration": 0.7942705156249872,
                    "durationTicks": 915,
                    "midi": 52,
                    "name": "E3",
                    "ticks": 316800,
                    "time": 274.99989,
                    "velocity": 0.36220472440944884,
                },
                {
                    "duration": 0.19791658750000352,
                    "durationTicks": 228,
                    "midi": 66,
                    "name": "F#4",
                    "ticks": 318960,
                    "time": 276.87488925,
                    "velocity": 0.33858267716535434,
                },
                {
                    "duration": 0.19791658750000352,
                    "durationTicks": 228,
                    "midi": 63,
                    "name": "D#4",
                    "ticks": 319200,
                    "time": 277.0832225,
                    "velocity": 0.33858267716535434,
                },
                {
                    "duration": 0.19791658750000352,
                    "durationTicks": 228,
                    "midi": 66,
                    "name": "F#4",
                    "ticks": 319440,
                    "time": 277.29155575,
                    "velocity": 0.4251968503937008,
                },
                {
                    "duration": 0.19791658750000352,
                    "durationTicks": 228,
                    "midi": 71,
                    "name": "B4",
                    "ticks": 319680,
                    "time": 277.499889,
                    "velocity": 0.44881889763779526,
                },
                {
                    "duration": 0.19791658750000352,
                    "durationTicks": 228,
                    "midi": 66,
                    "name": "F#4",
                    "ticks": 319920,
                    "time": 277.70822225,
                    "velocity": 0.3700787401574803,
                },
                {
                    "duration": 0.19791658750000352,
                    "durationTicks": 228,
                    "midi": 63,
                    "name": "D#4",
                    "ticks": 320160,
                    "time": 277.9165555,
                    "velocity": 0.3464566929133858,
                },
                {
                    "duration": 0.19791658750000352,
                    "durationTicks": 228,
                    "midi": 66,
                    "name": "F#4",
                    "ticks": 320400,
                    "time": 278.12488875,
                    "velocity": 0.44881889763779526,
                },
                {
                    "duration": 0.39670123020835035,
                    "durationTicks": 457,
                    "midi": 57,
                    "name": "A3",
                    "ticks": 320640,
                    "time": 278.333222,
                    "velocity": 0.33858267716535434,
                },
                {
                    "duration": 0.19791658750000352,
                    "durationTicks": 228,
                    "midi": 61,
                    "name": "C#4",
                    "ticks": 322800,
                    "time": 280.20822125,
                    "velocity": 0.3228346456692913,
                },
                {
                    "duration": 0.19791658750000352,
                    "durationTicks": 228,
                    "midi": 57,
                    "name": "A3",
                    "ticks": 323040,
                    "time": 280.4165545,
                    "velocity": 0.3464566929133858,
                },
                {
                    "duration": 0.19791658750006036,
                    "durationTicks": 228,
                    "midi": 61,
                    "name": "C#4",
                    "ticks": 323280,
                    "time": 280.62488774999997,
                    "velocity": 0.4015748031496063,
                },
                {
                    "duration": 0.19791658750000352,
                    "durationTicks": 228,
                    "midi": 64,
                    "name": "E4",
                    "ticks": 323520,
                    "time": 280.833221,
                    "velocity": 0.3937007874015748,
                },
                {
                    "duration": 0.19791658750000352,
                    "durationTicks": 228,
                    "midi": 60,
                    "name": "C4",
                    "ticks": 323760,
                    "time": 281.04155425,
                    "velocity": 0.3228346456692913,
                },
                {
                    "duration": 0.19791658750000352,
                    "durationTicks": 228,
                    "midi": 57,
                    "name": "A3",
                    "ticks": 324000,
                    "time": 281.2498875,
                    "velocity": 0.3464566929133858,
                },
                {
                    "duration": 0.19791658750000352,
                    "durationTicks": 228,
                    "midi": 60,
                    "name": "C4",
                    "ticks": 324240,
                    "time": 281.45822075,
                    "velocity": 0.41732283464566927,
                },
                {
                    "duration": 0.3967012302082935,
                    "durationTicks": 457,
                    "midi": 52,
                    "name": "E3",
                    "ticks": 324480,
                    "time": 281.666554,
                    "velocity": 0.3937007874015748,
                },
                {
                    "duration": 0.19791658750000352,
                    "durationTicks": 228,
                    "midi": 59,
                    "name": "B3",
                    "ticks": 326640,
                    "time": 283.54155325,
                    "velocity": 0.3543307086614173,
                },
                {
                    "duration": 0.19791658750000352,
                    "durationTicks": 228,
                    "midi": 56,
                    "name": "G#3",
                    "ticks": 326880,
                    "time": 283.7498865,
                    "velocity": 0.36220472440944884,
                },
                {
                    "duration": 0.19791658750000352,
                    "durationTicks": 228,
                    "midi": 59,
                    "name": "B3",
                    "ticks": 327120,
                    "time": 283.95821975,
                    "velocity": 0.4251968503937008,
                },
                {
                    "duration": 0.19791658750000352,
                    "durationTicks": 228,
                    "midi": 64,
                    "name": "E4",
                    "ticks": 327360,
                    "time": 284.166553,
                    "velocity": 0.4094488188976378,
                },
                {
                    "duration": 0.19791658750000352,
                    "durationTicks": 228,
                    "midi": 60,
                    "name": "C4",
                    "ticks": 327600,
                    "time": 284.37488625,
                    "velocity": 0.3228346456692913,
                },
                {
                    "duration": 0.19791658750000352,
                    "durationTicks": 228,
                    "midi": 57,
                    "name": "A3",
                    "ticks": 327840,
                    "time": 284.5832195,
                    "velocity": 0.3779527559055118,
                },
                {
                    "duration": 0.19791658750000352,
                    "durationTicks": 228,
                    "midi": 60,
                    "name": "C4",
                    "ticks": 328080,
                    "time": 284.79155275,
                    "velocity": 0.4015748031496063,
                },
                {
                    "duration": 0.39670123020835035,
                    "durationTicks": 457,
                    "midi": 52,
                    "name": "E3",
                    "ticks": 328320,
                    "time": 284.999886,
                    "velocity": 0.3700787401574803,
                },
                {
                    "duration": 0.19791658750000352,
                    "durationTicks": 228,
                    "midi": 64,
                    "name": "E4",
                    "ticks": 330480,
                    "time": 286.87488525,
                    "velocity": 0.3464566929133858,
                },
                {
                    "duration": 0.19791658750000352,
                    "durationTicks": 228,
                    "midi": 61,
                    "name": "C#4",
                    "ticks": 330720,
                    "time": 287.0832185,
                    "velocity": 0.33858267716535434,
                },
                {
                    "duration": 0.19791658750000352,
                    "durationTicks": 228,
                    "midi": 64,
                    "name": "E4",
                    "ticks": 330960,
                    "time": 287.29155175,
                    "velocity": 0.4015748031496063,
                },
                {
                    "duration": 0.19791658750000352,
                    "durationTicks": 228,
                    "midi": 67,
                    "name": "G4",
                    "ticks": 331200,
                    "time": 287.499885,
                    "velocity": 0.3937007874015748,
                },
                {
                    "duration": 0.19791658750000352,
                    "durationTicks": 228,
                    "midi": 64,
                    "name": "E4",
                    "ticks": 331440,
                    "time": 287.70821825,
                    "velocity": 0.3464566929133858,
                },
                {
                    "duration": 0.19791658750006036,
                    "durationTicks": 228,
                    "midi": 61,
                    "name": "C#4",
                    "ticks": 331680,
                    "time": 287.91655149999997,
                    "velocity": 0.3228346456692913,
                },
                {
                    "duration": 0.19791658750000352,
                    "durationTicks": 228,
                    "midi": 64,
                    "name": "E4",
                    "ticks": 331920,
                    "time": 288.12488475,
                    "velocity": 0.3937007874015748,
                },
                {
                    "duration": 0.39670123020835035,
                    "durationTicks": 457,
                    "midi": 55,
                    "name": "G3",
                    "ticks": 332160,
                    "time": 288.333218,
                    "velocity": 0.36220472440944884,
                },
                {
                    "duration": 0.19791658750000352,
                    "durationTicks": 228,
                    "midi": 53,
                    "name": "F3",
                    "ticks": 334320,
                    "time": 290.20821725,
                    "velocity": 0.3228346456692913,
                },
                {
                    "duration": 0.19791658750006036,
                    "durationTicks": 228,
                    "midi": 50,
                    "name": "D3",
                    "ticks": 334560,
                    "time": 290.41655049999997,
                    "velocity": 0.3779527559055118,
                },
                {
                    "duration": 0.19791658750000352,
                    "durationTicks": 228,
                    "midi": 53,
                    "name": "F3",
                    "ticks": 334800,
                    "time": 290.62488375,
                    "velocity": 0.4094488188976378,
                },
                {
                    "duration": 0.19791658750000352,
                    "durationTicks": 228,
                    "midi": 57,
                    "name": "A3",
                    "ticks": 335040,
                    "time": 290.833217,
                    "velocity": 0.4015748031496063,
                },
                {
                    "duration": 0.19791658750000352,
                    "durationTicks": 228,
                    "midi": 53,
                    "name": "F3",
                    "ticks": 335280,
                    "time": 291.04155025,
                    "velocity": 0.3464566929133858,
                },
                {
                    "duration": 0.19791658750000352,
                    "durationTicks": 228,
                    "midi": 50,
                    "name": "D3",
                    "ticks": 335520,
                    "time": 291.2498835,
                    "velocity": 0.3543307086614173,
                },
                {
                    "duration": 0.19791658750000352,
                    "durationTicks": 228,
                    "midi": 62,
                    "name": "D4",
                    "ticks": 335760,
                    "time": 291.45821675,
                    "velocity": 0.4645669291338583,
                },
                {
                    "duration": 0.39670123020835035,
                    "durationTicks": 457,
                    "midi": 56,
                    "name": "G#3",
                    "ticks": 336000,
                    "time": 291.66655,
                    "velocity": 0.33858267716535434,
                },
                {
                    "duration": 0.19791658750000352,
                    "durationTicks": 228,
                    "midi": 64,
                    "name": "E4",
                    "ticks": 338160,
                    "time": 293.54154925,
                    "velocity": 0.31496062992125984,
                },
                {
                    "duration": 0.19791658750000352,
                    "durationTicks": 228,
                    "midi": 61,
                    "name": "C#4",
                    "ticks": 338400,
                    "time": 293.7498825,
                    "velocity": 0.33070866141732286,
                },
                {
                    "duration": 0.19791658750000352,
                    "durationTicks": 228,
                    "midi": 64,
                    "name": "E4",
                    "ticks": 338640,
                    "time": 293.95821575,
                    "velocity": 0.41732283464566927,
                },
                {
                    "duration": 0.19791658750000352,
                    "durationTicks": 228,
                    "midi": 67,
                    "name": "G4",
                    "ticks": 338880,
                    "time": 294.166549,
                    "velocity": 0.4094488188976378,
                },
                {
                    "duration": 0.19791658750000352,
                    "durationTicks": 228,
                    "midi": 64,
                    "name": "E4",
                    "ticks": 339120,
                    "time": 294.37488225,
                    "velocity": 0.3464566929133858,
                },
                {
                    "duration": 0.19791658750000352,
                    "durationTicks": 228,
                    "midi": 61,
                    "name": "C#4",
                    "ticks": 339360,
                    "time": 294.5832155,
                    "velocity": 0.3543307086614173,
                },
                {
                    "duration": 0.19791658750000352,
                    "durationTicks": 228,
                    "midi": 64,
                    "name": "E4",
                    "ticks": 339600,
                    "time": 294.79154875,
                    "velocity": 0.3937007874015748,
                },
                {
                    "duration": 0.39670123020835035,
                    "durationTicks": 457,
                    "midi": 55,
                    "name": "G3",
                    "ticks": 339840,
                    "time": 294.999882,
                    "velocity": 0.3937007874015748,
                },
                {
                    "duration": 0.19791658750000352,
                    "durationTicks": 228,
                    "midi": 53,
                    "name": "F3",
                    "ticks": 342000,
                    "time": 296.87488125,
                    "velocity": 0.4330708661417323,
                },
                {
                    "duration": 0.19791658750000352,
                    "durationTicks": 228,
                    "midi": 50,
                    "name": "D3",
                    "ticks": 342240,
                    "time": 297.0832145,
                    "velocity": 0.4566929133858268,
                },
                {
                    "duration": 0.19791658750000352,
                    "durationTicks": 228,
                    "midi": 53,
                    "name": "F3",
                    "ticks": 342480,
                    "time": 297.29154775,
                    "velocity": 0.5039370078740157,
                },
                {
                    "duration": 0.19791658750000352,
                    "durationTicks": 228,
                    "midi": 57,
                    "name": "A3",
                    "ticks": 342720,
                    "time": 297.499881,
                    "velocity": 0.5196850393700787,
                },
                {
                    "duration": 0.19791658750006036,
                    "durationTicks": 228,
                    "midi": 53,
                    "name": "F3",
                    "ticks": 342960,
                    "time": 297.70821424999997,
                    "velocity": 0.5039370078740157,
                },
                {
                    "duration": 0.19791658750000352,
                    "durationTicks": 228,
                    "midi": 50,
                    "name": "D3",
                    "ticks": 343200,
                    "time": 297.9165475,
                    "velocity": 0.5275590551181102,
                },
                {
                    "duration": 0.19791658750000352,
                    "durationTicks": 228,
                    "midi": 62,
                    "name": "D4",
                    "ticks": 343440,
                    "time": 298.12488075,
                    "velocity": 0.7007874015748031,
                },
                {
                    "duration": 0.39670123020835035,
                    "durationTicks": 457,
                    "midi": 56,
                    "name": "G#3",
                    "ticks": 343680,
                    "time": 298.333214,
                    "velocity": 0.5275590551181102,
                },
                {
                    "duration": 0.19791658750006036,
                    "durationTicks": 228,
                    "midi": 64,
                    "name": "E4",
                    "ticks": 345840,
                    "time": 300.20821325,
                    "velocity": 0.5118110236220472,
                },
                {
                    "duration": 0.19791658750000352,
                    "durationTicks": 228,
                    "midi": 61,
                    "name": "C#4",
                    "ticks": 346080,
                    "time": 300.4165465,
                    "velocity": 0.48031496062992124,
                },
                {
                    "duration": 0.19791658750000352,
                    "durationTicks": 228,
                    "midi": 64,
                    "name": "E4",
                    "ticks": 346320,
                    "time": 300.62487975,
                    "velocity": 0.6062992125984252,
                },
                {
                    "duration": 0.19791658750000352,
                    "durationTicks": 228,
                    "midi": 67,
                    "name": "G4",
                    "ticks": 346560,
                    "time": 300.833213,
                    "velocity": 0.6141732283464567,
                },
                {
                    "duration": 0.19791658750000352,
                    "durationTicks": 228,
                    "midi": 64,
                    "name": "E4",
                    "ticks": 346800,
                    "time": 301.04154625,
                    "velocity": 0.5039370078740157,
                },
                {
                    "duration": 0.19791658750000352,
                    "durationTicks": 228,
                    "midi": 61,
                    "name": "C#4",
                    "ticks": 347040,
                    "time": 301.2498795,
                    "velocity": 0.4881889763779528,
                },
                {
                    "duration": 0.19791658750006036,
                    "durationTicks": 228,
                    "midi": 55,
                    "name": "G3",
                    "ticks": 347280,
                    "time": 301.45821275,
                    "velocity": 0.5118110236220472,
                },
                {
                    "duration": 0.39670123020835035,
                    "durationTicks": 457,
                    "midi": 56,
                    "name": "G#3",
                    "ticks": 347520,
                    "time": 301.666546,
                    "velocity": 0.5748031496062992,
                },
                {
                    "duration": 0.11718745312498413,
                    "durationTicks": 135,
                    "midi": 60,
                    "name": "C4",
                    "ticks": 364800,
                    "time": 316.66654,
                    "velocity": 0.25196850393700787,
                },
                {
                    "duration": 0.11718745312498413,
                    "durationTicks": 135,
                    "midi": 62,
                    "name": "D4",
                    "ticks": 365040,
                    "time": 316.87487325,
                    "velocity": 0.28346456692913385,
                },
                {
                    "duration": 0.11718745312498413,
                    "durationTicks": 135,
                    "midi": 64,
                    "name": "E4",
                    "ticks": 365280,
                    "time": 317.0832065,
                    "velocity": 0.28346456692913385,
                },
                {
                    "duration": 0.11718745312504097,
                    "durationTicks": 135,
                    "midi": 62,
                    "name": "D4",
                    "ticks": 365520,
                    "time": 317.29153974999997,
                    "velocity": 0.2992125984251969,
                },
                {
                    "duration": 0.11718745312504097,
                    "durationTicks": 135,
                    "midi": 60,
                    "name": "C4",
                    "ticks": 365760,
                    "time": 317.499873,
                    "velocity": 0.29133858267716534,
                },
                {
                    "duration": 0.11718745312498413,
                    "durationTicks": 135,
                    "midi": 62,
                    "name": "D4",
                    "ticks": 366000,
                    "time": 317.70820625,
                    "velocity": 0.2992125984251969,
                },
                {
                    "duration": 0.11718745312498413,
                    "durationTicks": 135,
                    "midi": 60,
                    "name": "C4",
                    "ticks": 366240,
                    "time": 317.9165395,
                    "velocity": 0.2440944881889764,
                },
                {
                    "duration": 0.11718745312498413,
                    "durationTicks": 135,
                    "midi": 59,
                    "name": "B3",
                    "ticks": 366480,
                    "time": 318.12487275,
                    "velocity": 0.23622047244094488,
                },
                {
                    "duration": 0.11718745312498413,
                    "durationTicks": 135,
                    "midi": 57,
                    "name": "A3",
                    "ticks": 366720,
                    "time": 318.333206,
                    "velocity": 0.29133858267716534,
                },
                {
                    "duration": 0.11718745312504097,
                    "durationTicks": 135,
                    "midi": 59,
                    "name": "B3",
                    "ticks": 366960,
                    "time": 318.54153924999997,
                    "velocity": 0.2992125984251969,
                },
                {
                    "duration": 0.11718745312504097,
                    "durationTicks": 135,
                    "midi": 60,
                    "name": "C4",
                    "ticks": 367200,
                    "time": 318.7498725,
                    "velocity": 0.29133858267716534,
                },
                {
                    "duration": 0.11718745312498413,
                    "durationTicks": 135,
                    "midi": 62,
                    "name": "D4",
                    "ticks": 367440,
                    "time": 318.95820575,
                    "velocity": 0.3228346456692913,
                },
                {
                    "duration": 0.11718745312498413,
                    "durationTicks": 135,
                    "midi": 64,
                    "name": "E4",
                    "ticks": 367680,
                    "time": 319.166539,
                    "velocity": 0.28346456692913385,
                },
                {
                    "duration": 0.11718745312498413,
                    "durationTicks": 135,
                    "midi": 66,
                    "name": "F#4",
                    "ticks": 367920,
                    "time": 319.37487225,
                    "velocity": 0.3228346456692913,
                },
                {
                    "duration": 0.11718745312498413,
                    "durationTicks": 135,
                    "midi": 68,
                    "name": "G#4",
                    "ticks": 368160,
                    "time": 319.5832055,
                    "velocity": 0.3228346456692913,
                },
                {
                    "duration": 0.11718745312504097,
                    "durationTicks": 135,
                    "midi": 69,
                    "name": "A4",
                    "ticks": 368400,
                    "time": 319.79153875,
                    "velocity": 0.31496062992125984,
                },
                {
                    "duration": 0.11718745312504097,
                    "durationTicks": 135,
                    "midi": 68,
                    "name": "G#4",
                    "ticks": 368640,
                    "time": 319.999872,
                    "velocity": 0.28346456692913385,
                },
                {
                    "duration": 0.11718745312498413,
                    "durationTicks": 135,
                    "midi": 64,
                    "name": "E4",
                    "ticks": 368880,
                    "time": 320.20820525,
                    "velocity": 0.2755905511811024,
                },
                {
                    "duration": 0.11718745312498413,
                    "durationTicks": 135,
                    "midi": 66,
                    "name": "F#4",
                    "ticks": 369120,
                    "time": 320.4165385,
                    "velocity": 0.29133858267716534,
                },
                {
                    "duration": 0.11718745312498413,
                    "durationTicks": 135,
                    "midi": 68,
                    "name": "G#4",
                    "ticks": 369360,
                    "time": 320.62487175,
                    "velocity": 0.30708661417322836,
                },
                {
                    "duration": 0.11718745312498413,
                    "durationTicks": 135,
                    "midi": 69,
                    "name": "A4",
                    "ticks": 369600,
                    "time": 320.833205,
                    "velocity": 0.2755905511811024,
                },
                {
                    "duration": 0.11718745312504097,
                    "durationTicks": 135,
                    "midi": 71,
                    "name": "B4",
                    "ticks": 369840,
                    "time": 321.04153825,
                    "velocity": 0.28346456692913385,
                },
                {
                    "duration": 0.11718745312504097,
                    "durationTicks": 135,
                    "midi": 69,
                    "name": "A4",
                    "ticks": 370080,
                    "time": 321.2498715,
                    "velocity": 0.2440944881889764,
                },
                {
                    "duration": 0.11718745312498413,
                    "durationTicks": 135,
                    "midi": 67,
                    "name": "G4",
                    "ticks": 370320,
                    "time": 321.45820475,
                    "velocity": 0.25984251968503935,
                },
                {
                    "duration": 0.11718745312498413,
                    "durationTicks": 135,
                    "midi": 66,
                    "name": "F#4",
                    "ticks": 370560,
                    "time": 321.666538,
                    "velocity": 0.30708661417322836,
                },
                {
                    "duration": 0.11718745312498413,
                    "durationTicks": 135,
                    "midi": 66,
                    "name": "F#4",
                    "ticks": 370800,
                    "time": 321.87487125,
                    "velocity": 0.25984251968503935,
                },
                {
                    "duration": 0.11718745312498413,
                    "durationTicks": 135,
                    "midi": 67,
                    "name": "G4",
                    "ticks": 371040,
                    "time": 322.0832045,
                    "velocity": 0.30708661417322836,
                },
                {
                    "duration": 0.11718745312504097,
                    "durationTicks": 135,
                    "midi": 69,
                    "name": "A4",
                    "ticks": 371280,
                    "time": 322.29153775,
                    "velocity": 0.25196850393700787,
                },
                {
                    "duration": 0.11718745312498413,
                    "durationTicks": 135,
                    "midi": 71,
                    "name": "B4",
                    "ticks": 371520,
                    "time": 322.499871,
                    "velocity": 0.3228346456692913,
                },
                {
                    "duration": 0.11718745312498413,
                    "durationTicks": 135,
                    "midi": 59,
                    "name": "B3",
                    "ticks": 371760,
                    "time": 322.70820425,
                    "velocity": 0.25196850393700787,
                },
                {
                    "duration": 0.11718745312498413,
                    "durationTicks": 135,
                    "midi": 61,
                    "name": "C#4",
                    "ticks": 372000,
                    "time": 322.9165375,
                    "velocity": 0.2677165354330709,
                },
                {
                    "duration": 0.11718745312498413,
                    "durationTicks": 135,
                    "midi": 63,
                    "name": "D#4",
                    "ticks": 372240,
                    "time": 323.12487075,
                    "velocity": 0.28346456692913385,
                },
                {
                    "duration": 0.7942705156249872,
                    "durationTicks": 915,
                    "midi": 64,
                    "name": "E4",
                    "ticks": 372480,
                    "time": 323.333204,
                    "velocity": 0.28346456692913385,
                },
                {
                    "duration": 0.23697907187499823,
                    "durationTicks": 273,
                    "midi": 64,
                    "name": "E4",
                    "ticks": 373440,
                    "time": 324.166537,
                    "velocity": 0.28346456692913385,
                },
                {
                    "duration": 0.23697907187499823,
                    "durationTicks": 273,
                    "midi": 66,
                    "name": "F#4",
                    "ticks": 373920,
                    "time": 324.5832035,
                    "velocity": 0.33070866141732286,
                },
                {
                    "duration": 0.4748261989583398,
                    "durationTicks": 547,
                    "midi": 67,
                    "name": "G4",
                    "ticks": 374400,
                    "time": 324.99987,
                    "velocity": 0.3228346456692913,
                },
                {
                    "duration": 0.4487845427083812,
                    "durationTicks": 517,
                    "midi": 67,
                    "name": "G4",
                    "ticks": 375360,
                    "time": 325.83320299999997,
                    "velocity": 0.30708661417322836,
                },
                {
                    "duration": 0.7942705156249872,
                    "durationTicks": 915,
                    "midi": 66,
                    "name": "F#4",
                    "ticks": 376320,
                    "time": 326.666536,
                    "velocity": 0.28346456692913385,
                },
                {
                    "duration": 0.23697907187499823,
                    "durationTicks": 273,
                    "midi": 66,
                    "name": "F#4",
                    "ticks": 377280,
                    "time": 327.499869,
                    "velocity": 0.29133858267716534,
                },
                {
                    "duration": 0.23697907187499823,
                    "durationTicks": 273,
                    "midi": 68,
                    "name": "G#4",
                    "ticks": 377760,
                    "time": 327.9165355,
                    "velocity": 0.30708661417322836,
                },
                {
                    "duration": 0.23697907187505507,
                    "durationTicks": 273,
                    "midi": 69,
                    "name": "A4",
                    "ticks": 378240,
                    "time": 328.33320199999997,
                    "velocity": 0.28346456692913385,
                },
                {
                    "duration": 0.23697907187499823,
                    "durationTicks": 273,
                    "midi": 65,
                    "name": "F4",
                    "ticks": 378720,
                    "time": 328.7498685,
                    "velocity": 0.25984251968503935,
                },
                {
                    "duration": 0.23697907187499823,
                    "durationTicks": 273,
                    "midi": 64,
                    "name": "E4",
                    "ticks": 379200,
                    "time": 329.166535,
                    "velocity": 0.2440944881889764,
                },
                {
                    "duration": 0.23697907187505507,
                    "durationTicks": 273,
                    "midi": 62,
                    "name": "D4",
                    "ticks": 379680,
                    "time": 329.5832015,
                    "velocity": 0.2677165354330709,
                },
                {
                    "duration": 0.11718745312498413,
                    "durationTicks": 135,
                    "midi": 61,
                    "name": "C#4",
                    "ticks": 380160,
                    "time": 329.999868,
                    "velocity": 0.2440944881889764,
                },
                {
                    "duration": 0.11718745312498413,
                    "durationTicks": 135,
                    "midi": 61,
                    "name": "C#4",
                    "ticks": 380400,
                    "time": 330.20820125,
                    "velocity": 0.29133858267716534,
                },
                {
                    "duration": 0.11718745312498413,
                    "durationTicks": 135,
                    "midi": 62,
                    "name": "D4",
                    "ticks": 380640,
                    "time": 330.4165345,
                    "velocity": 0.33858267716535434,
                },
                {
                    "duration": 0.11718745312498413,
                    "durationTicks": 135,
                    "midi": 64,
                    "name": "E4",
                    "ticks": 380880,
                    "time": 330.62486775,
                    "velocity": 0.30708661417322836,
                },
                {
                    "duration": 0.11718745312504097,
                    "durationTicks": 135,
                    "midi": 57,
                    "name": "A3",
                    "ticks": 381120,
                    "time": 330.833201,
                    "velocity": 0.2755905511811024,
                },
                {
                    "duration": 0.11718745312498413,
                    "durationTicks": 135,
                    "midi": 57,
                    "name": "A3",
                    "ticks": 381360,
                    "time": 331.04153425,
                    "velocity": 0.25984251968503935,
                },
                {
                    "duration": 0.11718745312498413,
                    "durationTicks": 135,
                    "midi": 59,
                    "name": "B3",
                    "ticks": 381600,
                    "time": 331.2498675,
                    "velocity": 0.2992125984251969,
                },
                {
                    "duration": 0.11718745312498413,
                    "durationTicks": 135,
                    "midi": 61,
                    "name": "C#4",
                    "ticks": 381840,
                    "time": 331.45820075,
                    "velocity": 0.29133858267716534,
                },
                {
                    "duration": 0.23697907187499823,
                    "durationTicks": 273,
                    "midi": 62,
                    "name": "D4",
                    "ticks": 382080,
                    "time": 331.666534,
                    "velocity": 0.2992125984251969,
                },
                {
                    "duration": 0.23697907187505507,
                    "durationTicks": 273,
                    "midi": 60,
                    "name": "C4",
                    "ticks": 382560,
                    "time": 332.0832005,
                    "velocity": 0.23622047244094488,
                },
                {
                    "duration": 0.23697907187499823,
                    "durationTicks": 273,
                    "midi": 58,
                    "name": "A#3",
                    "ticks": 383040,
                    "time": 332.499867,
                    "velocity": 0.25196850393700787,
                },
                {
                    "duration": 0.23697907187499823,
                    "durationTicks": 273,
                    "midi": 57,
                    "name": "A3",
                    "ticks": 383520,
                    "time": 332.9165335,
                    "velocity": 0.29133858267716534,
                },
                {
                    "duration": 0.11718745312504097,
                    "durationTicks": 135,
                    "midi": 59,
                    "name": "B3",
                    "ticks": 384000,
                    "time": 333.3332,
                    "velocity": 0.29133858267716534,
                },
                {
                    "duration": 0.11718745312498413,
                    "durationTicks": 135,
                    "midi": 59,
                    "name": "B3",
                    "ticks": 384240,
                    "time": 333.54153325,
                    "velocity": 0.25196850393700787,
                },
                {
                    "duration": 0.11718745312498413,
                    "durationTicks": 135,
                    "midi": 60,
                    "name": "C4",
                    "ticks": 384480,
                    "time": 333.7498665,
                    "velocity": 0.25984251968503935,
                },
                {
                    "duration": 0.11718745312498413,
                    "durationTicks": 135,
                    "midi": 62,
                    "name": "D4",
                    "ticks": 384720,
                    "time": 333.95819975,
                    "velocity": 0.31496062992125984,
                },
                {
                    "duration": 0.11718745312498413,
                    "durationTicks": 135,
                    "midi": 55,
                    "name": "G3",
                    "ticks": 384960,
                    "time": 334.166533,
                    "velocity": 0.28346456692913385,
                },
                {
                    "duration": 0.11718745312504097,
                    "durationTicks": 135,
                    "midi": 55,
                    "name": "G3",
                    "ticks": 385200,
                    "time": 334.37486624999997,
                    "velocity": 0.28346456692913385,
                },
                {
                    "duration": 0.11718745312504097,
                    "durationTicks": 135,
                    "midi": 57,
                    "name": "A3",
                    "ticks": 385440,
                    "time": 334.5831995,
                    "velocity": 0.2755905511811024,
                },
                {
                    "duration": 0.11718745312498413,
                    "durationTicks": 135,
                    "midi": 59,
                    "name": "B3",
                    "ticks": 385680,
                    "time": 334.79153275,
                    "velocity": 0.2755905511811024,
                },
                {
                    "duration": 0.7942705156249872,
                    "durationTicks": 915,
                    "midi": 60,
                    "name": "C4",
                    "ticks": 385920,
                    "time": 334.999866,
                    "velocity": 0.2677165354330709,
                },
                {
                    "duration": 0.8133677302083129,
                    "durationTicks": 937,
                    "midi": 64,
                    "name": "E4",
                    "ticks": 389280,
                    "time": 337.9165315,
                    "velocity": 0.25196850393700787,
                },
                {
                    "duration": 0.7942705156249872,
                    "durationTicks": 915,
                    "midi": 62,
                    "name": "D4",
                    "ticks": 390240,
                    "time": 338.7498645,
                    "velocity": 0.2755905511811024,
                },
                {
                    "duration": 0.8133677302083697,
                    "durationTicks": 937,
                    "midi": 62,
                    "name": "D4",
                    "ticks": 391200,
                    "time": 339.5831975,
                    "velocity": 0.2992125984251969,
                },
                {
                    "duration": 0.7942705156249872,
                    "durationTicks": 915,
                    "midi": 60,
                    "name": "C4",
                    "ticks": 392160,
                    "time": 340.4165305,
                    "velocity": 0.2283464566929134,
                },
                {
                    "duration": 0.39670123020835035,
                    "durationTicks": 457,
                    "midi": 72,
                    "name": "C5",
                    "ticks": 393120,
                    "time": 341.2498635,
                    "velocity": 0.3464566929133858,
                },
                {
                    "duration": 0.11718745312498413,
                    "durationTicks": 135,
                    "midi": 58,
                    "name": "A#3",
                    "ticks": 393600,
                    "time": 341.66653,
                    "velocity": 0.2440944881889764,
                },
                {
                    "duration": 0.11718745312504097,
                    "durationTicks": 135,
                    "midi": 60,
                    "name": "C4",
                    "ticks": 393840,
                    "time": 341.87486325,
                    "velocity": 0.28346456692913385,
                },
                {
                    "duration": 0.11718745312498413,
                    "durationTicks": 135,
                    "midi": 62,
                    "name": "D4",
                    "ticks": 394080,
                    "time": 342.0831965,
                    "velocity": 0.29133858267716534,
                },
                {
                    "duration": 0.11718745312498413,
                    "durationTicks": 135,
                    "midi": 60,
                    "name": "C4",
                    "ticks": 394320,
                    "time": 342.29152975,
                    "velocity": 0.2440944881889764,
                },
                {
                    "duration": 0.11718745312498413,
                    "durationTicks": 135,
                    "midi": 58,
                    "name": "A#3",
                    "ticks": 394560,
                    "time": 342.499863,
                    "velocity": 0.25196850393700787,
                },
                {
                    "duration": 0.11718745312498413,
                    "durationTicks": 135,
                    "midi": 62,
                    "name": "D4",
                    "ticks": 394800,
                    "time": 342.70819625,
                    "velocity": 0.31496062992125984,
                },
                {
                    "duration": 0.11718745312498413,
                    "durationTicks": 135,
                    "midi": 60,
                    "name": "C4",
                    "ticks": 395040,
                    "time": 342.9165295,
                    "velocity": 0.25984251968503935,
                },
                {
                    "duration": 0.11718745312504097,
                    "durationTicks": 135,
                    "midi": 58,
                    "name": "A#3",
                    "ticks": 395280,
                    "time": 343.12486275,
                    "velocity": 0.28346456692913385,
                },
                {
                    "duration": 0.11718745312498413,
                    "durationTicks": 135,
                    "midi": 57,
                    "name": "A3",
                    "ticks": 395520,
                    "time": 343.333196,
                    "velocity": 0.2677165354330709,
                },
                {
                    "duration": 0.11718745312498413,
                    "durationTicks": 135,
                    "midi": 58,
                    "name": "A#3",
                    "ticks": 395760,
                    "time": 343.54152925,
                    "velocity": 0.2992125984251969,
                },
                {
                    "duration": 0.11718745312498413,
                    "durationTicks": 135,
                    "midi": 60,
                    "name": "C4",
                    "ticks": 396000,
                    "time": 343.7498625,
                    "velocity": 0.30708661417322836,
                },
                {
                    "duration": 0.11718745312498413,
                    "durationTicks": 135,
                    "midi": 62,
                    "name": "D4",
                    "ticks": 396240,
                    "time": 343.95819575,
                    "velocity": 0.30708661417322836,
                },
                {
                    "duration": 0.11718745312504097,
                    "durationTicks": 135,
                    "midi": 64,
                    "name": "E4",
                    "ticks": 396480,
                    "time": 344.16652899999997,
                    "velocity": 0.31496062992125984,
                },
                {
                    "duration": 0.11718745312504097,
                    "durationTicks": 135,
                    "midi": 65,
                    "name": "F4",
                    "ticks": 396720,
                    "time": 344.37486225,
                    "velocity": 0.2992125984251969,
                },
                {
                    "duration": 0.11718745312498413,
                    "durationTicks": 135,
                    "midi": 67,
                    "name": "G4",
                    "ticks": 396960,
                    "time": 344.5831955,
                    "velocity": 0.2992125984251969,
                },
                {
                    "duration": 0.11718745312498413,
                    "durationTicks": 135,
                    "midi": 69,
                    "name": "A4",
                    "ticks": 397200,
                    "time": 344.79152875,
                    "velocity": 0.2992125984251969,
                },
                {
                    "duration": 0.7942705156249872,
                    "durationTicks": 915,
                    "midi": 59,
                    "name": "B3",
                    "ticks": 397440,
                    "time": 344.999862,
                    "velocity": 0.25984251968503935,
                },
                {
                    "duration": 0.23697907187499823,
                    "durationTicks": 273,
                    "midi": 59,
                    "name": "B3",
                    "ticks": 398400,
                    "time": 345.833195,
                    "velocity": 0.28346456692913385,
                },
                {
                    "duration": 0.23697907187499823,
                    "durationTicks": 273,
                    "midi": 61,
                    "name": "C#4",
                    "ticks": 398880,
                    "time": 346.2498615,
                    "velocity": 0.2755905511811024,
                },
                {
                    "duration": 0.4748261989583398,
                    "durationTicks": 547,
                    "midi": 62,
                    "name": "D4",
                    "ticks": 399360,
                    "time": 346.66652799999997,
                    "velocity": 0.29133858267716534,
                },
                {
                    "duration": 0.44878454270832435,
                    "durationTicks": 517,
                    "midi": 62,
                    "name": "D4",
                    "ticks": 400320,
                    "time": 347.499861,
                    "velocity": 0.29133858267716534,
                },
                {
                    "duration": 0.11718745312498413,
                    "durationTicks": 135,
                    "midi": 59,
                    "name": "B3",
                    "ticks": 401280,
                    "time": 348.333194,
                    "velocity": 0.30708661417322836,
                },
                {
                    "duration": 0.11718745312498413,
                    "durationTicks": 135,
                    "midi": 62,
                    "name": "D4",
                    "ticks": 401280,
                    "time": 348.333194,
                    "velocity": 0.30708661417322836,
                },
                {
                    "duration": 0.11718745312498413,
                    "durationTicks": 135,
                    "midi": 59,
                    "name": "B3",
                    "ticks": 401520,
                    "time": 348.54152725,
                    "velocity": 0.31496062992125984,
                },
                {
                    "duration": 0.11718745312498413,
                    "durationTicks": 135,
                    "midi": 62,
                    "name": "D4",
                    "ticks": 401520,
                    "time": 348.54152725,
                    "velocity": 0.31496062992125984,
                },
                {
                    "duration": 0.11718745312498413,
                    "durationTicks": 135,
                    "midi": 59,
                    "name": "B3",
                    "ticks": 401760,
                    "time": 348.7498605,
                    "velocity": 0.30708661417322836,
                },
                {
                    "duration": 0.11718745312498413,
                    "durationTicks": 135,
                    "midi": 62,
                    "name": "D4",
                    "ticks": 401760,
                    "time": 348.7498605,
                    "velocity": 0.30708661417322836,
                },
                {
                    "duration": 0.11718745312498413,
                    "durationTicks": 135,
                    "midi": 59,
                    "name": "B3",
                    "ticks": 402000,
                    "time": 348.95819375,
                    "velocity": 0.3228346456692913,
                },
                {
                    "duration": 0.11718745312498413,
                    "durationTicks": 135,
                    "midi": 62,
                    "name": "D4",
                    "ticks": 402000,
                    "time": 348.95819375,
                    "velocity": 0.3228346456692913,
                },
                {
                    "duration": 0.11718745312504097,
                    "durationTicks": 135,
                    "midi": 59,
                    "name": "B3",
                    "ticks": 402240,
                    "time": 349.166527,
                    "velocity": 0.31496062992125984,
                },
                {
                    "duration": 0.11718745312504097,
                    "durationTicks": 135,
                    "midi": 62,
                    "name": "D4",
                    "ticks": 402240,
                    "time": 349.166527,
                    "velocity": 0.31496062992125984,
                },
                {
                    "duration": 0.11718745312504097,
                    "durationTicks": 135,
                    "midi": 59,
                    "name": "B3",
                    "ticks": 402480,
                    "time": 349.37486025,
                    "velocity": 0.3779527559055118,
                },
                {
                    "duration": 0.11718745312504097,
                    "durationTicks": 135,
                    "midi": 62,
                    "name": "D4",
                    "ticks": 402480,
                    "time": 349.37486025,
                    "velocity": 0.3779527559055118,
                },
                {
                    "duration": 0.11718745312498413,
                    "durationTicks": 135,
                    "midi": 59,
                    "name": "B3",
                    "ticks": 402720,
                    "time": 349.5831935,
                    "velocity": 0.3937007874015748,
                },
                {
                    "duration": 0.11718745312498413,
                    "durationTicks": 135,
                    "midi": 62,
                    "name": "D4",
                    "ticks": 402720,
                    "time": 349.5831935,
                    "velocity": 0.3937007874015748,
                },
                {
                    "duration": 0.11718745312498413,
                    "durationTicks": 135,
                    "midi": 59,
                    "name": "B3",
                    "ticks": 402960,
                    "time": 349.79152675,
                    "velocity": 0.4251968503937008,
                },
                {
                    "duration": 0.11718745312498413,
                    "durationTicks": 135,
                    "midi": 62,
                    "name": "D4",
                    "ticks": 402960,
                    "time": 349.79152675,
                    "velocity": 0.4251968503937008,
                },
                {
                    "duration": 0.11718745312498413,
                    "durationTicks": 135,
                    "midi": 59,
                    "name": "B3",
                    "ticks": 403200,
                    "time": 349.99986,
                    "velocity": 0.41732283464566927,
                },
                {
                    "duration": 0.11718745312498413,
                    "durationTicks": 135,
                    "midi": 62,
                    "name": "D4",
                    "ticks": 403200,
                    "time": 349.99986,
                    "velocity": 0.41732283464566927,
                },
                {
                    "duration": 0.11718745312498413,
                    "durationTicks": 135,
                    "midi": 59,
                    "name": "B3",
                    "ticks": 403440,
                    "time": 350.20819325,
                    "velocity": 0.4566929133858268,
                },
                {
                    "duration": 0.11718745312498413,
                    "durationTicks": 135,
                    "midi": 62,
                    "name": "D4",
                    "ticks": 403440,
                    "time": 350.20819325,
                    "velocity": 0.4566929133858268,
                },
                {
                    "duration": 0.11718745312504097,
                    "durationTicks": 135,
                    "midi": 59,
                    "name": "B3",
                    "ticks": 403680,
                    "time": 350.4165265,
                    "velocity": 0.4566929133858268,
                },
                {
                    "duration": 0.11718745312504097,
                    "durationTicks": 135,
                    "midi": 62,
                    "name": "D4",
                    "ticks": 403680,
                    "time": 350.4165265,
                    "velocity": 0.4566929133858268,
                },
                {
                    "duration": 0.11718745312498413,
                    "durationTicks": 135,
                    "midi": 59,
                    "name": "B3",
                    "ticks": 403920,
                    "time": 350.62485975,
                    "velocity": 0.4566929133858268,
                },
                {
                    "duration": 0.11718745312498413,
                    "durationTicks": 135,
                    "midi": 62,
                    "name": "D4",
                    "ticks": 403920,
                    "time": 350.62485975,
                    "velocity": 0.4566929133858268,
                },
                {
                    "duration": 0.11718745312498413,
                    "durationTicks": 135,
                    "midi": 59,
                    "name": "B3",
                    "ticks": 404160,
                    "time": 350.833193,
                    "velocity": 0.4566929133858268,
                },
                {
                    "duration": 0.11718745312498413,
                    "durationTicks": 135,
                    "midi": 62,
                    "name": "D4",
                    "ticks": 404160,
                    "time": 350.833193,
                    "velocity": 0.4566929133858268,
                },
                {
                    "duration": 0.11718745312498413,
                    "durationTicks": 135,
                    "midi": 59,
                    "name": "B3",
                    "ticks": 404400,
                    "time": 351.04152625,
                    "velocity": 0.5118110236220472,
                },
                {
                    "duration": 0.11718745312498413,
                    "durationTicks": 135,
                    "midi": 62,
                    "name": "D4",
                    "ticks": 404400,
                    "time": 351.04152625,
                    "velocity": 0.5118110236220472,
                },
                {
                    "duration": 0.11718745312498413,
                    "durationTicks": 135,
                    "midi": 59,
                    "name": "B3",
                    "ticks": 404640,
                    "time": 351.2498595,
                    "velocity": 0.49606299212598426,
                },
                {
                    "duration": 0.11718745312498413,
                    "durationTicks": 135,
                    "midi": 62,
                    "name": "D4",
                    "ticks": 404640,
                    "time": 351.2498595,
                    "velocity": 0.49606299212598426,
                },
                {
                    "duration": 0.11718745312498413,
                    "durationTicks": 135,
                    "midi": 59,
                    "name": "B3",
                    "ticks": 404880,
                    "time": 351.45819275,
                    "velocity": 0.5275590551181102,
                },
                {
                    "duration": 0.11718745312498413,
                    "durationTicks": 135,
                    "midi": 62,
                    "name": "D4",
                    "ticks": 404880,
                    "time": 351.45819275,
                    "velocity": 0.5275590551181102,
                },
                {
                    "duration": 0.11718745312504097,
                    "durationTicks": 135,
                    "midi": 59,
                    "name": "B3",
                    "ticks": 405120,
                    "time": 351.666526,
                    "velocity": 0.5511811023622047,
                },
                {
                    "duration": 0.11718745312504097,
                    "durationTicks": 135,
                    "midi": 62,
                    "name": "D4",
                    "ticks": 405120,
                    "time": 351.666526,
                    "velocity": 0.5511811023622047,
                },
                {
                    "duration": 0.11718745312498413,
                    "durationTicks": 135,
                    "midi": 59,
                    "name": "B3",
                    "ticks": 405360,
                    "time": 351.87485925,
                    "velocity": 0.5984251968503937,
                },
                {
                    "duration": 0.11718745312498413,
                    "durationTicks": 135,
                    "midi": 62,
                    "name": "D4",
                    "ticks": 405360,
                    "time": 351.87485925,
                    "velocity": 0.5984251968503937,
                },
                {
                    "duration": 0.11718745312498413,
                    "durationTicks": 135,
                    "midi": 59,
                    "name": "B3",
                    "ticks": 405600,
                    "time": 352.0831925,
                    "velocity": 0.6062992125984252,
                },
                {
                    "duration": 0.11718745312498413,
                    "durationTicks": 135,
                    "midi": 62,
                    "name": "D4",
                    "ticks": 405600,
                    "time": 352.0831925,
                    "velocity": 0.6062992125984252,
                },
                {
                    "duration": 0.11718745312498413,
                    "durationTicks": 135,
                    "midi": 59,
                    "name": "B3",
                    "ticks": 405840,
                    "time": 352.29152575,
                    "velocity": 0.6535433070866141,
                },
                {
                    "duration": 0.11718745312498413,
                    "durationTicks": 135,
                    "midi": 62,
                    "name": "D4",
                    "ticks": 405840,
                    "time": 352.29152575,
                    "velocity": 0.6535433070866141,
                },
                {
                    "duration": 0.11718745312498413,
                    "durationTicks": 135,
                    "midi": 59,
                    "name": "B3",
                    "ticks": 406080,
                    "time": 352.499859,
                    "velocity": 0.6771653543307087,
                },
                {
                    "duration": 0.11718745312498413,
                    "durationTicks": 135,
                    "midi": 62,
                    "name": "D4",
                    "ticks": 406080,
                    "time": 352.499859,
                    "velocity": 0.6771653543307087,
                },
                {
                    "duration": 0.11718745312504097,
                    "durationTicks": 135,
                    "midi": 59,
                    "name": "B3",
                    "ticks": 406320,
                    "time": 352.70819224999997,
                    "velocity": 0.6535433070866141,
                },
                {
                    "duration": 0.11718745312504097,
                    "durationTicks": 135,
                    "midi": 62,
                    "name": "D4",
                    "ticks": 406320,
                    "time": 352.70819224999997,
                    "velocity": 0.6535433070866141,
                },
                {
                    "duration": 0.11718745312504097,
                    "durationTicks": 135,
                    "midi": 59,
                    "name": "B3",
                    "ticks": 406560,
                    "time": 352.9165255,
                    "velocity": 0.6850393700787402,
                },
                {
                    "duration": 0.11718745312504097,
                    "durationTicks": 135,
                    "midi": 62,
                    "name": "D4",
                    "ticks": 406560,
                    "time": 352.9165255,
                    "velocity": 0.6850393700787402,
                },
                {
                    "duration": 0.11718745312498413,
                    "durationTicks": 135,
                    "midi": 59,
                    "name": "B3",
                    "ticks": 406800,
                    "time": 353.12485875,
                    "velocity": 0.7086614173228346,
                },
                {
                    "duration": 0.11718745312498413,
                    "durationTicks": 135,
                    "midi": 62,
                    "name": "D4",
                    "ticks": 406800,
                    "time": 353.12485875,
                    "velocity": 0.7086614173228346,
                },
                {
                    "duration": 0.11718745312498413,
                    "durationTicks": 135,
                    "midi": 59,
                    "name": "B3",
                    "ticks": 407040,
                    "time": 353.333192,
                    "velocity": 0.7244094488188977,
                },
                {
                    "duration": 0.11718745312498413,
                    "durationTicks": 135,
                    "midi": 62,
                    "name": "D4",
                    "ticks": 407040,
                    "time": 353.333192,
                    "velocity": 0.7244094488188977,
                },
                {
                    "duration": 0.11718745312498413,
                    "durationTicks": 135,
                    "midi": 59,
                    "name": "B3",
                    "ticks": 407280,
                    "time": 353.54152525,
                    "velocity": 0.7244094488188977,
                },
                {
                    "duration": 0.11718745312498413,
                    "durationTicks": 135,
                    "midi": 59,
                    "name": "B3",
                    "ticks": 407520,
                    "time": 353.7498585,
                    "velocity": 0.8031496062992126,
                },
                {
                    "duration": 0.11718745312504097,
                    "durationTicks": 135,
                    "midi": 59,
                    "name": "B3",
                    "ticks": 407760,
                    "time": 353.95819174999997,
                    "velocity": 0.8031496062992126,
                },
                {
                    "duration": 0.11718745312504097,
                    "durationTicks": 135,
                    "midi": 59,
                    "name": "B3",
                    "ticks": 408000,
                    "time": 354.166525,
                    "velocity": 0.7952755905511811,
                },
                {
                    "duration": 0.11718745312498413,
                    "durationTicks": 135,
                    "midi": 59,
                    "name": "B3",
                    "ticks": 408240,
                    "time": 354.37485825,
                    "velocity": 0.8503937007874016,
                },
                {
                    "duration": 0.11718745312498413,
                    "durationTicks": 135,
                    "midi": 64,
                    "name": "E4",
                    "ticks": 408480,
                    "time": 354.5831915,
                    "velocity": 1,
                },
                {
                    "duration": 0.11718745312498413,
                    "durationTicks": 135,
                    "midi": 62,
                    "name": "D4",
                    "ticks": 408720,
                    "time": 354.79152475,
                    "velocity": 0.8346456692913385,
                },
                {
                    "duration": 0.7942705156249872,
                    "durationTicks": 915,
                    "midi": 52,
                    "name": "E3",
                    "ticks": 408960,
                    "time": 354.999858,
                    "velocity": 0.7952755905511811,
                },
                {
                    "duration": 0.7942705156249872,
                    "durationTicks": 915,
                    "midi": 60,
                    "name": "C4",
                    "ticks": 408960,
                    "time": 354.999858,
                    "velocity": 0.7952755905511811,
                },
                {
                    "duration": 0.23697907187499823,
                    "durationTicks": 273,
                    "midi": 52,
                    "name": "E3",
                    "ticks": 409920,
                    "time": 355.833191,
                    "velocity": 0.8818897637795275,
                },
                {
                    "duration": 0.23697907187499823,
                    "durationTicks": 273,
                    "midi": 60,
                    "name": "C4",
                    "ticks": 409920,
                    "time": 355.833191,
                    "velocity": 0.8818897637795275,
                },
                {
                    "duration": 0.23697907187499823,
                    "durationTicks": 273,
                    "midi": 52,
                    "name": "E3",
                    "ticks": 410400,
                    "time": 356.2498575,
                    "velocity": 0.889763779527559,
                },
                {
                    "duration": 0.23697907187499823,
                    "durationTicks": 273,
                    "midi": 60,
                    "name": "C4",
                    "ticks": 410400,
                    "time": 356.2498575,
                    "velocity": 0.889763779527559,
                },
                {
                    "duration": 0.4748261989583398,
                    "durationTicks": 547,
                    "midi": 52,
                    "name": "E3",
                    "ticks": 410880,
                    "time": 356.666524,
                    "velocity": 0.8346456692913385,
                },
                {
                    "duration": 0.4748261989583398,
                    "durationTicks": 547,
                    "midi": 59,
                    "name": "B3",
                    "ticks": 410880,
                    "time": 356.666524,
                    "velocity": 0.8346456692913385,
                },
                {
                    "duration": 0.44878454270832435,
                    "durationTicks": 517,
                    "midi": 52,
                    "name": "E3",
                    "ticks": 411840,
                    "time": 357.499857,
                    "velocity": 0.8740157480314961,
                },
                {
                    "duration": 0.44878454270832435,
                    "durationTicks": 517,
                    "midi": 59,
                    "name": "B3",
                    "ticks": 411840,
                    "time": 357.499857,
                    "velocity": 0.8740157480314961,
                },
                {
                    "duration": 0.7942705156249872,
                    "durationTicks": 915,
                    "midi": 52,
                    "name": "E3",
                    "ticks": 412800,
                    "time": 358.33319,
                    "velocity": 0.8818897637795275,
                },
                {
                    "duration": 0.7942705156249872,
                    "durationTicks": 915,
                    "midi": 59,
                    "name": "B3",
                    "ticks": 412800,
                    "time": 358.33319,
                    "velocity": 0.8818897637795275,
                },
                {
                    "duration": 0.23697907187499823,
                    "durationTicks": 273,
                    "midi": 52,
                    "name": "E3",
                    "ticks": 413760,
                    "time": 359.166523,
                    "velocity": 0.8346456692913385,
                },
                {
                    "duration": 0.23697907187499823,
                    "durationTicks": 273,
                    "midi": 59,
                    "name": "B3",
                    "ticks": 413760,
                    "time": 359.166523,
                    "velocity": 0.8346456692913385,
                },
                {
                    "duration": 0.23697907187499823,
                    "durationTicks": 273,
                    "midi": 52,
                    "name": "E3",
                    "ticks": 414240,
                    "time": 359.5831895,
                    "velocity": 0.8976377952755905,
                },
                {
                    "duration": 0.23697907187499823,
                    "durationTicks": 273,
                    "midi": 59,
                    "name": "B3",
                    "ticks": 414240,
                    "time": 359.5831895,
                    "velocity": 0.8976377952755905,
                },
                {
                    "duration": 0.4748261989583398,
                    "durationTicks": 547,
                    "midi": 52,
                    "name": "E3",
                    "ticks": 414720,
                    "time": 359.999856,
                    "velocity": 0.889763779527559,
                },
                {
                    "duration": 0.4748261989583398,
                    "durationTicks": 547,
                    "midi": 60,
                    "name": "C4",
                    "ticks": 414720,
                    "time": 359.999856,
                    "velocity": 0.889763779527559,
                },
                {
                    "duration": 0.44878454270832435,
                    "durationTicks": 517,
                    "midi": 52,
                    "name": "E3",
                    "ticks": 415680,
                    "time": 360.833189,
                    "velocity": 0.889763779527559,
                },
                {
                    "duration": 0.44878454270832435,
                    "durationTicks": 517,
                    "midi": 60,
                    "name": "C4",
                    "ticks": 415680,
                    "time": 360.833189,
                    "velocity": 0.889763779527559,
                },
                {
                    "duration": 0.7942705156249872,
                    "durationTicks": 915,
                    "midi": 52,
                    "name": "E3",
                    "ticks": 416640,
                    "time": 361.666522,
                    "velocity": 0.8818897637795275,
                },
                {
                    "duration": 0.7942705156249872,
                    "durationTicks": 915,
                    "midi": 60,
                    "name": "C4",
                    "ticks": 416640,
                    "time": 361.666522,
                    "velocity": 0.8818897637795275,
                },
                {
                    "duration": 0.23697907187505507,
                    "durationTicks": 273,
                    "midi": 52,
                    "name": "E3",
                    "ticks": 417600,
                    "time": 362.49985499999997,
                    "velocity": 0.905511811023622,
                },
                {
                    "duration": 0.23697907187505507,
                    "durationTicks": 273,
                    "midi": 60,
                    "name": "C4",
                    "ticks": 417600,
                    "time": 362.49985499999997,
                    "velocity": 0.905511811023622,
                },
                {
                    "duration": 0.23697907187499823,
                    "durationTicks": 273,
                    "midi": 52,
                    "name": "E3",
                    "ticks": 418080,
                    "time": 362.9165215,
                    "velocity": 0.889763779527559,
                },
                {
                    "duration": 0.23697907187499823,
                    "durationTicks": 273,
                    "midi": 60,
                    "name": "C4",
                    "ticks": 418080,
                    "time": 362.9165215,
                    "velocity": 0.889763779527559,
                },
                {
                    "duration": 0.4748261989583398,
                    "durationTicks": 547,
                    "midi": 52,
                    "name": "E3",
                    "ticks": 418560,
                    "time": 363.333188,
                    "velocity": 0.952755905511811,
                },
                {
                    "duration": 0.48177064062497266,
                    "durationTicks": 555,
                    "midi": 62,
                    "name": "D4",
                    "ticks": 418560,
                    "time": 363.333188,
                    "velocity": 0.952755905511811,
                },
                {
                    "duration": 0.44878454270832435,
                    "durationTicks": 517,
                    "midi": 52,
                    "name": "E3",
                    "ticks": 419520,
                    "time": 364.166521,
                    "velocity": 0.8110236220472441,
                },
                {
                    "duration": 0.44878454270832435,
                    "durationTicks": 517,
                    "midi": 60,
                    "name": "C4",
                    "ticks": 419520,
                    "time": 364.166521,
                    "velocity": 0.8110236220472441,
                },
                {
                    "duration": 0.794270515625044,
                    "durationTicks": 915,
                    "midi": 52,
                    "name": "E3",
                    "ticks": 420480,
                    "time": 364.99985399999997,
                    "velocity": 0.8661417322834646,
                },
                {
                    "duration": 0.794270515625044,
                    "durationTicks": 915,
                    "midi": 59,
                    "name": "B3",
                    "ticks": 420480,
                    "time": 364.99985399999997,
                    "velocity": 0.8661417322834646,
                },
                {
                    "duration": 0.23697907187499823,
                    "durationTicks": 273,
                    "midi": 52,
                    "name": "E3",
                    "ticks": 421440,
                    "time": 365.833187,
                    "velocity": 0.84251968503937,
                },
                {
                    "duration": 0.23697907187499823,
                    "durationTicks": 273,
                    "midi": 57,
                    "name": "A3",
                    "ticks": 421440,
                    "time": 365.833187,
                    "velocity": 0.84251968503937,
                },
                {
                    "duration": 0.23697907187505507,
                    "durationTicks": 273,
                    "midi": 52,
                    "name": "E3",
                    "ticks": 421920,
                    "time": 366.2498535,
                    "velocity": 0.952755905511811,
                },
                {
                    "duration": 0.23697907187505507,
                    "durationTicks": 273,
                    "midi": 59,
                    "name": "B3",
                    "ticks": 421920,
                    "time": 366.2498535,
                    "velocity": 0.952755905511811,
                },
                {
                    "duration": 0.7942705156249872,
                    "durationTicks": 915,
                    "midi": 52,
                    "name": "E3",
                    "ticks": 422400,
                    "time": 366.66652,
                    "velocity": 0.9606299212598425,
                },
                {
                    "duration": 0.7942705156249872,
                    "durationTicks": 915,
                    "midi": 60,
                    "name": "C4",
                    "ticks": 422400,
                    "time": 366.66652,
                    "velocity": 0.9606299212598425,
                },
                {
                    "duration": 3.2517348104166217,
                    "durationTicks": 3746,
                    "midi": 49,
                    "name": "C#3",
                    "ticks": 430080,
                    "time": 373.333184,
                    "velocity": 0.3464566929133858,
                },
                {
                    "duration": 3.2517348104166217,
                    "durationTicks": 3746,
                    "midi": 52,
                    "name": "E3",
                    "ticks": 430080,
                    "time": 373.333184,
                    "velocity": 0.3464566929133858,
                },
                {
                    "duration": 2.460936515625008,
                    "durationTicks": 2835,
                    "midi": 50,
                    "name": "D3",
                    "ticks": 433920,
                    "time": 376.666516,
                    "velocity": 0.3937007874015748,
                },
                {
                    "duration": 2.460936515625008,
                    "durationTicks": 2835,
                    "midi": 54,
                    "name": "F#3",
                    "ticks": 433920,
                    "time": 376.666516,
                    "velocity": 0.3937007874015748,
                },
                {
                    "duration": 0.40364567187498324,
                    "durationTicks": 465,
                    "midi": 49,
                    "name": "C#3",
                    "ticks": 436800,
                    "time": 379.166515,
                    "velocity": 0.48031496062992124,
                },
                {
                    "duration": 0.40364567187498324,
                    "durationTicks": 465,
                    "midi": 52,
                    "name": "E3",
                    "ticks": 436800,
                    "time": 379.166515,
                    "velocity": 0.48031496062992124,
                },
                {
                    "duration": 0.3741317947916514,
                    "durationTicks": 431,
                    "midi": 61,
                    "name": "C#4",
                    "ticks": 437280,
                    "time": 379.5831815,
                    "velocity": 0.5433070866141733,
                },
                {
                    "duration": 0.8072913437500233,
                    "durationTicks": 930,
                    "midi": 59,
                    "name": "B3",
                    "ticks": 437760,
                    "time": 379.999848,
                    "velocity": 0.5669291338582677,
                },
                {
                    "duration": 0.8072913437500233,
                    "durationTicks": 930,
                    "midi": 62,
                    "name": "D4",
                    "ticks": 437760,
                    "time": 379.999848,
                    "velocity": 0.5669291338582677,
                },
                {
                    "duration": 0.4036456718750401,
                    "durationTicks": 465,
                    "midi": 57,
                    "name": "A3",
                    "ticks": 438720,
                    "time": 380.83318099999997,
                    "velocity": 0.5275590551181102,
                },
                {
                    "duration": 0.4036456718750401,
                    "durationTicks": 465,
                    "midi": 61,
                    "name": "C#4",
                    "ticks": 438720,
                    "time": 380.83318099999997,
                    "velocity": 0.5275590551181102,
                },
                {
                    "duration": 0.3741317947916514,
                    "durationTicks": 431,
                    "midi": 49,
                    "name": "C#3",
                    "ticks": 439200,
                    "time": 381.2498475,
                    "velocity": 0.5196850393700787,
                },
                {
                    "duration": 0.3741317947916514,
                    "durationTicks": 431,
                    "midi": 52,
                    "name": "E3",
                    "ticks": 439200,
                    "time": 381.2498475,
                    "velocity": 0.5196850393700787,
                },
                {
                    "duration": 0.8072913437499665,
                    "durationTicks": 930,
                    "midi": 50,
                    "name": "D3",
                    "ticks": 439680,
                    "time": 381.666514,
                    "velocity": 0.5905511811023622,
                },
                {
                    "duration": 0.8072913437499665,
                    "durationTicks": 930,
                    "midi": 54,
                    "name": "F#3",
                    "ticks": 439680,
                    "time": 381.666514,
                    "velocity": 0.5905511811023622,
                },
                {
                    "duration": 0.8072913437500233,
                    "durationTicks": 930,
                    "midi": 52,
                    "name": "E3",
                    "ticks": 440640,
                    "time": 382.499847,
                    "velocity": 0.48031496062992124,
                },
                {
                    "duration": 0.8072913437500233,
                    "durationTicks": 930,
                    "midi": 54,
                    "name": "F#3",
                    "ticks": 441600,
                    "time": 383.33317999999997,
                    "velocity": 0.49606299212598426,
                },
                {
                    "duration": 0.751735810416676,
                    "durationTicks": 866,
                    "midi": 56,
                    "name": "G#3",
                    "ticks": 442560,
                    "time": 384.166513,
                    "velocity": 0.47244094488188976,
                },
                {
                    "duration": 0.8072913437500233,
                    "durationTicks": 930,
                    "midi": 56,
                    "name": "G#3",
                    "ticks": 443520,
                    "time": 384.999846,
                    "velocity": 0.4251968503937008,
                },
                {
                    "duration": 0.3741317947917082,
                    "durationTicks": 431,
                    "midi": 52,
                    "name": "E3",
                    "ticks": 444480,
                    "time": 385.833179,
                    "velocity": 0.3858267716535433,
                },
                {
                    "duration": 0.39670123020835035,
                    "durationTicks": 457,
                    "midi": 52,
                    "name": "E3",
                    "ticks": 444960,
                    "time": 386.2498455,
                    "velocity": 0.3937007874015748,
                },
                {
                    "duration": 0.8072913437499665,
                    "durationTicks": 930,
                    "midi": 52,
                    "name": "E3",
                    "ticks": 445440,
                    "time": 386.666512,
                    "velocity": 0.3464566929133858,
                },
                {
                    "duration": 3.1276029156250047,
                    "durationTicks": 3603,
                    "midi": 49,
                    "name": "C#3",
                    "ticks": 446400,
                    "time": 387.499845,
                    "velocity": 0.3858267716535433,
                },
                {
                    "duration": 1.659721558333331,
                    "durationTicks": 1912,
                    "midi": 50,
                    "name": "D3",
                    "ticks": 450240,
                    "time": 390.833177,
                    "velocity": 0.5748031496062992,
                },
                {
                    "duration": 0.751735810416676,
                    "durationTicks": 866,
                    "midi": 52,
                    "name": "E3",
                    "ticks": 452160,
                    "time": 392.499843,
                    "velocity": 0.6141732283464567,
                },
                {
                    "duration": 0.8072913437500233,
                    "durationTicks": 930,
                    "midi": 54,
                    "name": "F#3",
                    "ticks": 453120,
                    "time": 393.333176,
                    "velocity": 0.5826771653543307,
                },
                {
                    "duration": 0.8072913437499665,
                    "durationTicks": 930,
                    "midi": 52,
                    "name": "E3",
                    "ticks": 454080,
                    "time": 394.166509,
                    "velocity": 0.49606299212598426,
                },
                {
                    "duration": 0.8072913437499665,
                    "durationTicks": 930,
                    "midi": 54,
                    "name": "F#3",
                    "ticks": 455040,
                    "time": 394.999842,
                    "velocity": 0.5039370078740157,
                },
                {
                    "duration": 0.751735810416676,
                    "durationTicks": 866,
                    "midi": 56,
                    "name": "G#3",
                    "ticks": 456000,
                    "time": 395.833175,
                    "velocity": 0.5354330708661418,
                },
                {
                    "duration": 1.585068810416658,
                    "durationTicks": 1826,
                    "midi": 52,
                    "name": "E3",
                    "ticks": 456960,
                    "time": 396.666508,
                    "velocity": 0.47244094488188976,
                },
                {
                    "duration": 0.7942705156249872,
                    "durationTicks": 915,
                    "midi": 54,
                    "name": "F#3",
                    "ticks": 458880,
                    "time": 398.333174,
                    "velocity": 0.4330708661417323,
                },
                {
                    "duration": 0.794270515625044,
                    "durationTicks": 915,
                    "midi": 56,
                    "name": "G#3",
                    "ticks": 459840,
                    "time": 399.16650699999997,
                    "velocity": 0.4566929133858268,
                },
                {
                    "duration": 1.6145826874999898,
                    "durationTicks": 1860,
                    "midi": 52,
                    "name": "E3",
                    "ticks": 460800,
                    "time": 399.99984,
                    "velocity": 0.4094488188976378,
                },
                {
                    "duration": 0.8072913437500233,
                    "durationTicks": 930,
                    "midi": 54,
                    "name": "F#3",
                    "ticks": 462720,
                    "time": 401.66650599999997,
                    "velocity": 0.5118110236220472,
                },
                {
                    "duration": 0.751735810416676,
                    "durationTicks": 866,
                    "midi": 56,
                    "name": "G#3",
                    "ticks": 463680,
                    "time": 402.499839,
                    "velocity": 0.48031496062992124,
                },
                {
                    "duration": 1.6145826874999898,
                    "durationTicks": 1860,
                    "midi": 52,
                    "name": "E3",
                    "ticks": 464640,
                    "time": 403.333172,
                    "velocity": 0.2677165354330709,
                },
                {
                    "duration": 1.6145826874999898,
                    "durationTicks": 1860,
                    "midi": 57,
                    "name": "A3",
                    "ticks": 466560,
                    "time": 404.999838,
                    "velocity": 0.29133858267716534,
                },
                {
                    "duration": 1.6145826875000466,
                    "durationTicks": 1860,
                    "midi": 55,
                    "name": "G3",
                    "ticks": 468480,
                    "time": 406.666504,
                    "velocity": 0.2992125984251969,
                },
                {
                    "duration": 1.503471620833352,
                    "durationTicks": 1732,
                    "midi": 53,
                    "name": "F3",
                    "ticks": 470400,
                    "time": 408.33317,
                    "velocity": 0.2755905511811024,
                },
                {
                    "duration": 0.3967012302082935,
                    "durationTicks": 457,
                    "midi": 55,
                    "name": "G3",
                    "ticks": 472320,
                    "time": 409.999836,
                    "velocity": 0.8976377952755905,
                },
                {
                    "duration": 0.39670123020835035,
                    "durationTicks": 457,
                    "midi": 55,
                    "name": "G3",
                    "ticks": 473280,
                    "time": 410.833169,
                    "velocity": 0.8110236220472441,
                },
                {
                    "duration": 0.39670123020835035,
                    "durationTicks": 457,
                    "midi": 67,
                    "name": "G4",
                    "ticks": 473280,
                    "time": 410.833169,
                    "velocity": 0.8110236220472441,
                },
                {
                    "duration": 0.7942705156249872,
                    "durationTicks": 915,
                    "midi": 48,
                    "name": "C3",
                    "ticks": 474240,
                    "time": 411.666502,
                    "velocity": 0.7952755905511811,
                },
                {
                    "duration": 0.7942705156249872,
                    "durationTicks": 915,
                    "midi": 60,
                    "name": "C4",
                    "ticks": 474240,
                    "time": 411.666502,
                    "velocity": 0.7952755905511811,
                },
                {
                    "duration": 0.7942705156249872,
                    "durationTicks": 915,
                    "midi": 59,
                    "name": "B3",
                    "ticks": 476160,
                    "time": 413.333168,
                    "velocity": 0.33070866141732286,
                },
                {
                    "duration": 0.23697907187499823,
                    "durationTicks": 273,
                    "midi": 59,
                    "name": "B3",
                    "ticks": 477120,
                    "time": 414.166501,
                    "velocity": 0.3779527559055118,
                },
                {
                    "duration": 0.23697907187499823,
                    "durationTicks": 273,
                    "midi": 59,
                    "name": "B3",
                    "ticks": 477600,
                    "time": 414.5831675,
                    "velocity": 0.36220472440944884,
                },
                {
                    "duration": 0.3967012302082935,
                    "durationTicks": 457,
                    "midi": 57,
                    "name": "A3",
                    "ticks": 478080,
                    "time": 414.999834,
                    "velocity": 0.3700787401574803,
                },
                {
                    "duration": 0.39670123020835035,
                    "durationTicks": 457,
                    "midi": 55,
                    "name": "G3",
                    "ticks": 480000,
                    "time": 416.6665,
                    "velocity": 0.7795275590551181,
                },
                {
                    "duration": 0.39670123020835035,
                    "durationTicks": 457,
                    "midi": 55,
                    "name": "G3",
                    "ticks": 480960,
                    "time": 417.49983299999997,
                    "velocity": 0.7874015748031497,
                },
                {
                    "duration": 0.39670123020835035,
                    "durationTicks": 457,
                    "midi": 67,
                    "name": "G4",
                    "ticks": 480960,
                    "time": 417.49983299999997,
                    "velocity": 0.7874015748031497,
                },
                {
                    "duration": 0.7942705156249872,
                    "durationTicks": 915,
                    "midi": 48,
                    "name": "C3",
                    "ticks": 481920,
                    "time": 418.333166,
                    "velocity": 0.8188976377952756,
                },
                {
                    "duration": 0.7942705156249872,
                    "durationTicks": 915,
                    "midi": 60,
                    "name": "C4",
                    "ticks": 481920,
                    "time": 418.333166,
                    "velocity": 0.8188976377952756,
                },
                {
                    "duration": 0.794270515625044,
                    "durationTicks": 915,
                    "midi": 59,
                    "name": "B3",
                    "ticks": 483840,
                    "time": 419.99983199999997,
                    "velocity": 0.29133858267716534,
                },
                {
                    "duration": 0.23697907187499823,
                    "durationTicks": 273,
                    "midi": 59,
                    "name": "B3",
                    "ticks": 484800,
                    "time": 420.833165,
                    "velocity": 0.3858267716535433,
                },
                {
                    "duration": 0.23697907187505507,
                    "durationTicks": 273,
                    "midi": 59,
                    "name": "B3",
                    "ticks": 485280,
                    "time": 421.24983149999997,
                    "velocity": 0.4251968503937008,
                },
                {
                    "duration": 0.9223790937500098,
                    "durationTicks": 915,
                    "midi": 57,
                    "name": "A3",
                    "ticks": 528000,
                    "time": 458.33315,
                    "velocity": 0.7165354330708661,
                },
            ],
        },
        {
            "channel": 7,
            "controlChanges": {
                "7": [
                    {"number": 7, "ticks": 0, "time": 0, "value": 0.7637795275590551},
                    {
                        "number": 7,
                        "ticks": 527040,
                        "time": 457.499817,
                        "value": 0.7637795275590551,
                    },
                ],
                "10": [
                    {"number": 10, "ticks": 0, "time": 0, "value": 0.15748031496062992},
                    {
                        "number": 10,
                        "ticks": 527040,
                        "time": 457.499817,
                        "value": 0.15748031496062992,
                    },
                ],
                "64": [{"number": 64, "ticks": 0, "time": 0, "value": 0}],
                "91": [
                    {"number": 91, "ticks": 0, "time": 0, "value": 0.3779527559055118},
                    {
                        "number": 91,
                        "ticks": 527040,
                        "time": 457.499817,
                        "value": 0.4645669291338583,
                    },
                ],
                "121": [{"number": 121, "ticks": 0, "time": 0, "value": 0}],
            },
            "pitchBends": [],
            "instrument": {
                "family": "ensemble",
                "number": 48,
                "name": "string ensemble 1",
            },
            "name": "",
            "notes": [
                {
                    "duration": 0.8333330000000103,
                    "durationTicks": 960,
                    "midi": 76,
                    "name": "E5",
                    "ticks": 96000,
                    "time": 83.3333,
                    "velocity": 0.33858267716535434,
                },
                {
                    "duration": 0.24739573437499018,
                    "durationTicks": 285,
                    "midi": 76,
                    "name": "E5",
                    "ticks": 96960,
                    "time": 84.166633,
                    "velocity": 0.4409448818897638,
                },
                {
                    "duration": 0.2473957343750044,
                    "durationTicks": 285,
                    "midi": 76,
                    "name": "E5",
                    "ticks": 97440,
                    "time": 84.5832995,
                    "velocity": 0.4330708661417323,
                },
                {
                    "duration": 0.4973956343749961,
                    "durationTicks": 573,
                    "midi": 76,
                    "name": "E5",
                    "ticks": 97920,
                    "time": 84.999966,
                    "velocity": 0.4094488188976378,
                },
                {
                    "duration": 0.4713539781249949,
                    "durationTicks": 543,
                    "midi": 76,
                    "name": "E5",
                    "ticks": 98880,
                    "time": 85.833299,
                    "velocity": 0.3937007874015748,
                },
                {
                    "duration": 0.8333330000000103,
                    "durationTicks": 960,
                    "midi": 76,
                    "name": "E5",
                    "ticks": 99840,
                    "time": 86.66663199999999,
                    "velocity": 0.4251968503937008,
                },
                {
                    "duration": 0.24739573437499018,
                    "durationTicks": 285,
                    "midi": 76,
                    "name": "E5",
                    "ticks": 100800,
                    "time": 87.499965,
                    "velocity": 0.4330708661417323,
                },
                {
                    "duration": 0.2473957343750044,
                    "durationTicks": 285,
                    "midi": 76,
                    "name": "E5",
                    "ticks": 101280,
                    "time": 87.9166315,
                    "velocity": 0.4251968503937008,
                },
                {
                    "duration": 0.4973956343749961,
                    "durationTicks": 573,
                    "midi": 76,
                    "name": "E5",
                    "ticks": 101760,
                    "time": 88.333298,
                    "velocity": 0.4094488188976378,
                },
                {
                    "duration": 0.4713539781249949,
                    "durationTicks": 543,
                    "midi": 76,
                    "name": "E5",
                    "ticks": 102720,
                    "time": 89.166631,
                    "velocity": 0.41732283464566927,
                },
                {
                    "duration": 0.8333329999999961,
                    "durationTicks": 960,
                    "midi": 76,
                    "name": "E5",
                    "ticks": 103680,
                    "time": 89.999964,
                    "velocity": 0.49606299212598426,
                },
                {
                    "duration": 0.24739573437499018,
                    "durationTicks": 285,
                    "midi": 76,
                    "name": "E5",
                    "ticks": 104640,
                    "time": 90.833297,
                    "velocity": 0.4645669291338583,
                },
                {
                    "duration": 0.2473957343750044,
                    "durationTicks": 285,
                    "midi": 78,
                    "name": "F#5",
                    "ticks": 105120,
                    "time": 91.24996349999999,
                    "velocity": 0.49606299212598426,
                },
                {
                    "duration": 0.4973956343749961,
                    "durationTicks": 573,
                    "midi": 79,
                    "name": "G5",
                    "ticks": 105600,
                    "time": 91.66663,
                    "velocity": 0.5511811023622047,
                },
                {
                    "duration": 0.4713539781250091,
                    "durationTicks": 543,
                    "midi": 79,
                    "name": "G5",
                    "ticks": 106560,
                    "time": 92.499963,
                    "velocity": 0.5275590551181102,
                },
                {
                    "duration": 0.8333329999999961,
                    "durationTicks": 960,
                    "midi": 79,
                    "name": "G5",
                    "ticks": 107520,
                    "time": 93.333296,
                    "velocity": 0.5196850393700787,
                },
                {
                    "duration": 0.2473957343750044,
                    "durationTicks": 285,
                    "midi": 79,
                    "name": "G5",
                    "ticks": 108480,
                    "time": 94.166629,
                    "velocity": 0.48031496062992124,
                },
                {
                    "duration": 0.24739573437499018,
                    "durationTicks": 285,
                    "midi": 79,
                    "name": "G5",
                    "ticks": 108960,
                    "time": 94.5832955,
                    "velocity": 0.5511811023622047,
                },
                {
                    "duration": 0.8333329999999961,
                    "durationTicks": 960,
                    "midi": 79,
                    "name": "G5",
                    "ticks": 109440,
                    "time": 94.999962,
                    "velocity": 0.5354330708661418,
                },
                {
                    "duration": 0.8333329999999961,
                    "durationTicks": 960,
                    "midi": 79,
                    "name": "G5",
                    "ticks": 111360,
                    "time": 96.666628,
                    "velocity": 0.5118110236220472,
                },
                {
                    "duration": 0.2473957343750044,
                    "durationTicks": 285,
                    "midi": 79,
                    "name": "G5",
                    "ticks": 112320,
                    "time": 97.499961,
                    "velocity": 0.5669291338582677,
                },
                {
                    "duration": 0.24739573437499018,
                    "durationTicks": 285,
                    "midi": 81,
                    "name": "A5",
                    "ticks": 112800,
                    "time": 97.9166275,
                    "velocity": 0.5984251968503937,
                },
                {
                    "duration": 0.4973956343749961,
                    "durationTicks": 573,
                    "midi": 83,
                    "name": "B5",
                    "ticks": 113280,
                    "time": 98.333294,
                    "velocity": 0.6377952755905512,
                },
                {
                    "duration": 0.4713539781249949,
                    "durationTicks": 543,
                    "midi": 83,
                    "name": "B5",
                    "ticks": 114240,
                    "time": 99.166627,
                    "velocity": 0.5905511811023622,
                },
                {
                    "duration": 0.8333329999999961,
                    "durationTicks": 960,
                    "midi": 78,
                    "name": "F#5",
                    "ticks": 115200,
                    "time": 99.99996,
                    "velocity": 0.5433070866141733,
                },
                {
                    "duration": 0.2473957343750044,
                    "durationTicks": 285,
                    "midi": 78,
                    "name": "F#5",
                    "ticks": 116160,
                    "time": 100.833293,
                    "velocity": 0.6299212598425197,
                },
                {
                    "duration": 0.24739573437499018,
                    "durationTicks": 285,
                    "midi": 80,
                    "name": "G#5",
                    "ticks": 116640,
                    "time": 101.2499595,
                    "velocity": 0.6614173228346457,
                },
                {
                    "duration": 0.4973956343749961,
                    "durationTicks": 573,
                    "midi": 81,
                    "name": "A5",
                    "ticks": 117120,
                    "time": 101.666626,
                    "velocity": 0.6614173228346457,
                },
                {
                    "duration": 0.4713539781249949,
                    "durationTicks": 543,
                    "midi": 81,
                    "name": "A5",
                    "ticks": 118080,
                    "time": 102.499959,
                    "velocity": 0.6456692913385826,
                },
                {
                    "duration": 0.8333329999999961,
                    "durationTicks": 960,
                    "midi": 76,
                    "name": "E5",
                    "ticks": 119040,
                    "time": 103.333292,
                    "velocity": 0.6062992125984252,
                },
                {
                    "duration": 0.2473957343750044,
                    "durationTicks": 285,
                    "midi": 76,
                    "name": "E5",
                    "ticks": 120000,
                    "time": 104.166625,
                    "velocity": 0.6299212598425197,
                },
                {
                    "duration": 0.2473957343750044,
                    "durationTicks": 285,
                    "midi": 76,
                    "name": "E5",
                    "ticks": 120480,
                    "time": 104.5832915,
                    "velocity": 0.6929133858267716,
                },
                {
                    "duration": 0.49739563437501033,
                    "durationTicks": 573,
                    "midi": 76,
                    "name": "E5",
                    "ticks": 120960,
                    "time": 104.99995799999999,
                    "velocity": 0.6929133858267716,
                },
                {
                    "duration": 0.4713539781249949,
                    "durationTicks": 543,
                    "midi": 76,
                    "name": "E5",
                    "ticks": 121920,
                    "time": 105.833291,
                    "velocity": 0.6850393700787402,
                },
                {
                    "duration": 0.8333329999999961,
                    "durationTicks": 960,
                    "midi": 76,
                    "name": "E5",
                    "ticks": 122880,
                    "time": 106.666624,
                    "velocity": 0.6929133858267716,
                },
                {
                    "duration": 0.2473957343750044,
                    "durationTicks": 285,
                    "midi": 78,
                    "name": "F#5",
                    "ticks": 123840,
                    "time": 107.499957,
                    "velocity": 0.7480314960629921,
                },
                {
                    "duration": 0.2473957343750044,
                    "durationTicks": 285,
                    "midi": 80,
                    "name": "G#5",
                    "ticks": 124320,
                    "time": 107.9166235,
                    "velocity": 0.7795275590551181,
                },
                {
                    "duration": 0.8333329999999961,
                    "durationTicks": 960,
                    "midi": 81,
                    "name": "A5",
                    "ticks": 124800,
                    "time": 108.33329,
                    "velocity": 0.7795275590551181,
                },
                {
                    "duration": 0.8333329999999961,
                    "durationTicks": 960,
                    "midi": 79,
                    "name": "G5",
                    "ticks": 126720,
                    "time": 109.999956,
                    "velocity": 0.6771653543307087,
                },
                {
                    "duration": 0.2473957343750044,
                    "durationTicks": 285,
                    "midi": 79,
                    "name": "G5",
                    "ticks": 127680,
                    "time": 110.833289,
                    "velocity": 0.7559055118110236,
                },
                {
                    "duration": 0.2473957343750044,
                    "durationTicks": 285,
                    "midi": 81,
                    "name": "A5",
                    "ticks": 128160,
                    "time": 111.2499555,
                    "velocity": 0.7952755905511811,
                },
                {
                    "duration": 0.49739563437501033,
                    "durationTicks": 573,
                    "midi": 83,
                    "name": "B5",
                    "ticks": 128640,
                    "time": 111.666622,
                    "velocity": 0.8346456692913385,
                },
                {
                    "duration": 0.4713539781250091,
                    "durationTicks": 543,
                    "midi": 83,
                    "name": "B5",
                    "ticks": 129600,
                    "time": 112.499955,
                    "velocity": 0.7795275590551181,
                },
                {
                    "duration": 0.8333329999999961,
                    "durationTicks": 960,
                    "midi": 78,
                    "name": "F#5",
                    "ticks": 130560,
                    "time": 113.333288,
                    "velocity": 0.7401574803149606,
                },
                {
                    "duration": 0.2473957343750044,
                    "durationTicks": 285,
                    "midi": 78,
                    "name": "F#5",
                    "ticks": 131520,
                    "time": 114.16662099999999,
                    "velocity": 0.8503937007874016,
                },
                {
                    "duration": 0.2473957343750044,
                    "durationTicks": 285,
                    "midi": 80,
                    "name": "G#5",
                    "ticks": 132000,
                    "time": 114.5832875,
                    "velocity": 0.889763779527559,
                },
                {
                    "duration": 0.49739563437501033,
                    "durationTicks": 573,
                    "midi": 81,
                    "name": "A5",
                    "ticks": 132480,
                    "time": 114.999954,
                    "velocity": 0.905511811023622,
                },
                {
                    "duration": 0.4713539781250091,
                    "durationTicks": 543,
                    "midi": 81,
                    "name": "A5",
                    "ticks": 133440,
                    "time": 115.833287,
                    "velocity": 0.84251968503937,
                },
                {
                    "duration": 0.8333330000000103,
                    "durationTicks": 960,
                    "midi": 76,
                    "name": "E5",
                    "ticks": 134400,
                    "time": 116.66662,
                    "velocity": 0.7086614173228346,
                },
                {
                    "duration": 0.24739573437499018,
                    "durationTicks": 285,
                    "midi": 76,
                    "name": "E5",
                    "ticks": 135360,
                    "time": 117.499953,
                    "velocity": 0.8110236220472441,
                },
                {
                    "duration": 0.2473957343750044,
                    "durationTicks": 285,
                    "midi": 76,
                    "name": "E5",
                    "ticks": 135840,
                    "time": 117.9166195,
                    "velocity": 0.8188976377952756,
                },
                {
                    "duration": 0.49739563437501033,
                    "durationTicks": 573,
                    "midi": 76,
                    "name": "E5",
                    "ticks": 136320,
                    "time": 118.333286,
                    "velocity": 0.8188976377952756,
                },
                {
                    "duration": 0.4713539781250091,
                    "durationTicks": 543,
                    "midi": 76,
                    "name": "E5",
                    "ticks": 137280,
                    "time": 119.166619,
                    "velocity": 0.8346456692913385,
                },
                {
                    "duration": 0.8333330000000103,
                    "durationTicks": 960,
                    "midi": 76,
                    "name": "E5",
                    "ticks": 138240,
                    "time": 119.999952,
                    "velocity": 0.84251968503937,
                },
                {
                    "duration": 0.24739573437499018,
                    "durationTicks": 285,
                    "midi": 78,
                    "name": "F#5",
                    "ticks": 139200,
                    "time": 120.833285,
                    "velocity": 0.8582677165354331,
                },
                {
                    "duration": 0.2473957343750044,
                    "durationTicks": 285,
                    "midi": 80,
                    "name": "G#5",
                    "ticks": 139680,
                    "time": 121.2499515,
                    "velocity": 0.8818897637795275,
                },
                {
                    "duration": 0.8333329999999961,
                    "durationTicks": 960,
                    "midi": 81,
                    "name": "A5",
                    "ticks": 140160,
                    "time": 121.666618,
                    "velocity": 0.8818897637795275,
                },
                {
                    "duration": 1.6987840427083398,
                    "durationTicks": 1957,
                    "midi": 84,
                    "name": "C6",
                    "ticks": 142080,
                    "time": 123.33328399999999,
                    "velocity": 0.7322834645669292,
                },
                {
                    "duration": 1.559027154166671,
                    "durationTicks": 1796,
                    "midi": 83,
                    "name": "B5",
                    "ticks": 144000,
                    "time": 124.99995,
                    "velocity": 0.8976377952755905,
                },
                {
                    "duration": 0.19531242187498776,
                    "durationTicks": 225,
                    "midi": 83,
                    "name": "B5",
                    "ticks": 145920,
                    "time": 126.666616,
                    "velocity": 1,
                },
                {
                    "duration": 0.19531242187500197,
                    "durationTicks": 225,
                    "midi": 84,
                    "name": "C6",
                    "ticks": 146145,
                    "time": 126.86192842187499,
                    "velocity": 1,
                },
                {
                    "duration": 0.8593746562499973,
                    "durationTicks": 990,
                    "midi": 86,
                    "name": "D6",
                    "ticks": 146370,
                    "time": 127.05724084375,
                    "velocity": 1,
                },
                {
                    "duration": 0.21093741562502544,
                    "durationTicks": 243,
                    "midi": 84,
                    "name": "C6",
                    "ticks": 147360,
                    "time": 127.91661549999999,
                    "velocity": 0.9606299212598425,
                },
                {
                    "duration": 0.19531242187500197,
                    "durationTicks": 225,
                    "midi": 83,
                    "name": "B5",
                    "ticks": 147600,
                    "time": 128.12494875,
                    "velocity": 0.9448818897637795,
                },
                {
                    "duration": 0.42274288645833735,
                    "durationTicks": 487,
                    "midi": 83,
                    "name": "B5",
                    "ticks": 147840,
                    "time": 128.333282,
                    "velocity": 0.968503937007874,
                },
                {
                    "duration": 0.3932290093750339,
                    "durationTicks": 453,
                    "midi": 84,
                    "name": "C6",
                    "ticks": 148320,
                    "time": 128.7499485,
                    "velocity": 1,
                },
                {
                    "duration": 0.8333329999999819,
                    "durationTicks": 960,
                    "midi": 84,
                    "name": "C6",
                    "ticks": 148800,
                    "time": 129.166615,
                    "velocity": 1,
                },
                {
                    "duration": 1.2499995000000013,
                    "durationTicks": 1440,
                    "midi": 84,
                    "name": "C6",
                    "ticks": 149760,
                    "time": 129.999948,
                    "velocity": 1,
                },
                {
                    "duration": 0.21093741562501123,
                    "durationTicks": 243,
                    "midi": 72,
                    "name": "C5",
                    "ticks": 151200,
                    "time": 131.2499475,
                    "velocity": 0.7244094488188977,
                },
                {
                    "duration": 0.19531242187500197,
                    "durationTicks": 225,
                    "midi": 74,
                    "name": "D5",
                    "ticks": 151440,
                    "time": 131.45828075,
                    "velocity": 0.7559055118110236,
                },
                {
                    "duration": 0.42274288645833735,
                    "durationTicks": 487,
                    "midi": 75,
                    "name": "D#5",
                    "ticks": 151680,
                    "time": 131.666614,
                    "velocity": 1,
                },
                {
                    "duration": 0.3932290093750055,
                    "durationTicks": 453,
                    "midi": 76,
                    "name": "E5",
                    "ticks": 152160,
                    "time": 132.0832805,
                    "velocity": 1,
                },
                {
                    "duration": 0.2473957343750044,
                    "durationTicks": 285,
                    "midi": 76,
                    "name": "E5",
                    "ticks": 152640,
                    "time": 132.499947,
                    "velocity": 0.984251968503937,
                },
                {
                    "duration": 0.24739573437497597,
                    "durationTicks": 285,
                    "midi": 76,
                    "name": "E5",
                    "ticks": 153120,
                    "time": 132.9166135,
                    "velocity": 1,
                },
                {
                    "duration": 0.19531242187500197,
                    "durationTicks": 225,
                    "midi": 74,
                    "name": "D5",
                    "ticks": 153600,
                    "time": 133.33328,
                    "velocity": 1,
                },
                {
                    "duration": 0.19531242187500197,
                    "durationTicks": 225,
                    "midi": 76,
                    "name": "E5",
                    "ticks": 153825,
                    "time": 133.528592421875,
                    "velocity": 1,
                },
                {
                    "duration": 0.8593746562499973,
                    "durationTicks": 990,
                    "midi": 77,
                    "name": "F5",
                    "ticks": 154050,
                    "time": 133.72390484375,
                    "velocity": 1,
                },
                {
                    "duration": 0.21093741562501123,
                    "durationTicks": 243,
                    "midi": 76,
                    "name": "E5",
                    "ticks": 155040,
                    "time": 134.5832795,
                    "velocity": 0.952755905511811,
                },
                {
                    "duration": 0.19531242187500197,
                    "durationTicks": 225,
                    "midi": 74,
                    "name": "D5",
                    "ticks": 155280,
                    "time": 134.79161274999998,
                    "velocity": 0.9448818897637795,
                },
                {
                    "duration": 0.42274288645833735,
                    "durationTicks": 487,
                    "midi": 74,
                    "name": "D5",
                    "ticks": 155520,
                    "time": 134.999946,
                    "velocity": 1,
                },
                {
                    "duration": 0.3932290093750339,
                    "durationTicks": 453,
                    "midi": 76,
                    "name": "E5",
                    "ticks": 156000,
                    "time": 135.41661249999999,
                    "velocity": 1,
                },
                {
                    "duration": 0.8333329999999819,
                    "durationTicks": 960,
                    "midi": 76,
                    "name": "E5",
                    "ticks": 156480,
                    "time": 135.833279,
                    "velocity": 0.968503937007874,
                },
                {
                    "duration": 0.8489579937500196,
                    "durationTicks": 978,
                    "midi": 76,
                    "name": "E5",
                    "ticks": 157440,
                    "time": 136.666612,
                    "velocity": 1,
                },
                {
                    "duration": 0.8489579937500196,
                    "durationTicks": 978,
                    "midi": 88,
                    "name": "E6",
                    "ticks": 158400,
                    "time": 137.499945,
                    "velocity": 1,
                },
                {
                    "duration": 1.5815965895833415,
                    "durationTicks": 1822,
                    "midi": 87,
                    "name": "D#6",
                    "ticks": 159360,
                    "time": 138.333278,
                    "velocity": 1,
                },
                {
                    "duration": 0.42274288645833735,
                    "durationTicks": 487,
                    "midi": 86,
                    "name": "D6",
                    "ticks": 161280,
                    "time": 139.999944,
                    "velocity": 0.9448818897637795,
                },
                {
                    "duration": 0.21093741562501123,
                    "durationTicks": 243,
                    "midi": 83,
                    "name": "B5",
                    "ticks": 161760,
                    "time": 140.4166105,
                    "velocity": 0.8740157480314961,
                },
                {
                    "duration": 0.21093741562501123,
                    "durationTicks": 243,
                    "midi": 85,
                    "name": "C#6",
                    "ticks": 162000,
                    "time": 140.62494375,
                    "velocity": 1,
                },
                {
                    "duration": 0.42274288645833735,
                    "durationTicks": 487,
                    "midi": 86,
                    "name": "D6",
                    "ticks": 162240,
                    "time": 140.833277,
                    "velocity": 1,
                },
                {
                    "duration": 0.21093741562501123,
                    "durationTicks": 243,
                    "midi": 88,
                    "name": "E6",
                    "ticks": 162720,
                    "time": 141.2499435,
                    "velocity": 1,
                },
                {
                    "duration": 0.19531242187500197,
                    "durationTicks": 225,
                    "midi": 86,
                    "name": "D6",
                    "ticks": 162960,
                    "time": 141.45827675,
                    "velocity": 0.952755905511811,
                },
                {
                    "duration": 0.42274288645833735,
                    "durationTicks": 487,
                    "midi": 86,
                    "name": "D6",
                    "ticks": 163200,
                    "time": 141.66661,
                    "velocity": 0.9606299212598425,
                },
                {
                    "duration": 0.3932290093750055,
                    "durationTicks": 453,
                    "midi": 85,
                    "name": "C#6",
                    "ticks": 163680,
                    "time": 142.0832765,
                    "velocity": 0.937007874015748,
                },
                {
                    "duration": 0.8333330000000103,
                    "durationTicks": 960,
                    "midi": 84,
                    "name": "C6",
                    "ticks": 164160,
                    "time": 142.499943,
                    "velocity": 0.9606299212598425,
                },
                {
                    "duration": 1.6987840427083256,
                    "durationTicks": 1957,
                    "midi": 84,
                    "name": "C6",
                    "ticks": 165120,
                    "time": 143.333276,
                    "velocity": 0.9763779527559056,
                },
                {
                    "duration": 0.8489579937499911,
                    "durationTicks": 978,
                    "midi": 83,
                    "name": "B5",
                    "ticks": 167040,
                    "time": 144.999942,
                    "velocity": 0.8976377952755905,
                },
                {
                    "duration": 0.725694154166689,
                    "durationTicks": 836,
                    "midi": 84,
                    "name": "C6",
                    "ticks": 168000,
                    "time": 145.833275,
                    "velocity": 1,
                },
                {
                    "duration": 0.19531242187500197,
                    "durationTicks": 225,
                    "midi": 83,
                    "name": "B5",
                    "ticks": 168960,
                    "time": 146.666608,
                    "velocity": 1,
                },
                {
                    "duration": 0.19531242187500197,
                    "durationTicks": 225,
                    "midi": 84,
                    "name": "C6",
                    "ticks": 169185,
                    "time": 146.861920421875,
                    "velocity": 1,
                },
                {
                    "duration": 0.8593746562499973,
                    "durationTicks": 990,
                    "midi": 86,
                    "name": "D6",
                    "ticks": 169410,
                    "time": 147.05723284375,
                    "velocity": 1,
                },
                {
                    "duration": 0.21093741562501123,
                    "durationTicks": 243,
                    "midi": 84,
                    "name": "C6",
                    "ticks": 170400,
                    "time": 147.9166075,
                    "velocity": 0.952755905511811,
                },
                {
                    "duration": 0.19531242187500197,
                    "durationTicks": 225,
                    "midi": 83,
                    "name": "B5",
                    "ticks": 170640,
                    "time": 148.12494075,
                    "velocity": 0.9291338582677166,
                },
                {
                    "duration": 0.2473957343750044,
                    "durationTicks": 285,
                    "midi": 81,
                    "name": "A5",
                    "ticks": 170880,
                    "time": 148.333274,
                    "velocity": 0.9212598425196851,
                },
                {
                    "duration": 0.21093741562501123,
                    "durationTicks": 243,
                    "midi": 69,
                    "name": "A4",
                    "ticks": 171360,
                    "time": 148.7499405,
                    "velocity": 0.6771653543307087,
                },
                {
                    "duration": 0.19531242187500197,
                    "durationTicks": 225,
                    "midi": 71,
                    "name": "B4",
                    "ticks": 171600,
                    "time": 148.95827375,
                    "velocity": 0.6614173228346457,
                },
                {
                    "duration": 0.2473957343750044,
                    "durationTicks": 285,
                    "midi": 72,
                    "name": "C5",
                    "ticks": 171840,
                    "time": 149.166607,
                    "velocity": 1,
                },
                {
                    "duration": 0.21093741562501123,
                    "durationTicks": 243,
                    "midi": 72,
                    "name": "C5",
                    "ticks": 172320,
                    "time": 149.5832735,
                    "velocity": 1,
                },
                {
                    "duration": 0.19531242187500197,
                    "durationTicks": 225,
                    "midi": 74,
                    "name": "D5",
                    "ticks": 172560,
                    "time": 149.79160675,
                    "velocity": 1,
                },
                {
                    "duration": 0.8489579937499911,
                    "durationTicks": 978,
                    "midi": 76,
                    "name": "E5",
                    "ticks": 172800,
                    "time": 149.99994,
                    "velocity": 0.9606299212598425,
                },
                {
                    "duration": 0.8489579937500196,
                    "durationTicks": 978,
                    "midi": 88,
                    "name": "E6",
                    "ticks": 173760,
                    "time": 150.833273,
                    "velocity": 1,
                },
                {
                    "duration": 1.5815965895833415,
                    "durationTicks": 1822,
                    "midi": 87,
                    "name": "D#6",
                    "ticks": 174720,
                    "time": 151.666606,
                    "velocity": 0.8661417322834646,
                },
                {
                    "duration": 0.42274288645833735,
                    "durationTicks": 487,
                    "midi": 86,
                    "name": "D6",
                    "ticks": 176640,
                    "time": 153.333272,
                    "velocity": 0.7480314960629921,
                },
                {
                    "duration": 0.21093741562501123,
                    "durationTicks": 243,
                    "midi": 83,
                    "name": "B5",
                    "ticks": 177120,
                    "time": 153.74993849999998,
                    "velocity": 0.6771653543307087,
                },
                {
                    "duration": 0.21093741562501123,
                    "durationTicks": 243,
                    "midi": 85,
                    "name": "C#6",
                    "ticks": 177360,
                    "time": 153.95827175,
                    "velocity": 0.7795275590551181,
                },
                {
                    "duration": 0.42274288645833735,
                    "durationTicks": 487,
                    "midi": 86,
                    "name": "D6",
                    "ticks": 177600,
                    "time": 154.166605,
                    "velocity": 0.7637795275590551,
                },
                {
                    "duration": 0.21093741562501123,
                    "durationTicks": 243,
                    "midi": 88,
                    "name": "E6",
                    "ticks": 178080,
                    "time": 154.5832715,
                    "velocity": 0.7637795275590551,
                },
                {
                    "duration": 0.19531242187500197,
                    "durationTicks": 225,
                    "midi": 86,
                    "name": "D6",
                    "ticks": 178320,
                    "time": 154.79160475,
                    "velocity": 0.6692913385826772,
                },
                {
                    "duration": 0.4227428864583658,
                    "durationTicks": 487,
                    "midi": 86,
                    "name": "D6",
                    "ticks": 178560,
                    "time": 154.999938,
                    "velocity": 0.6929133858267716,
                },
                {
                    "duration": 0.3932290093750055,
                    "durationTicks": 453,
                    "midi": 85,
                    "name": "C#6",
                    "ticks": 179040,
                    "time": 155.4166045,
                    "velocity": 0.6141732283464567,
                },
                {
                    "duration": 0.8333330000000103,
                    "durationTicks": 960,
                    "midi": 84,
                    "name": "C6",
                    "ticks": 179520,
                    "time": 155.833271,
                    "velocity": 0.5669291338582677,
                },
                {
                    "duration": 1.6987840427083256,
                    "durationTicks": 1957,
                    "midi": 84,
                    "name": "C6",
                    "ticks": 180480,
                    "time": 156.666604,
                    "velocity": 0.5984251968503937,
                },
                {
                    "duration": 0.8489579937500196,
                    "durationTicks": 978,
                    "midi": 83,
                    "name": "B5",
                    "ticks": 182400,
                    "time": 158.33327,
                    "velocity": 0.5511811023622047,
                },
                {
                    "duration": 0.7187497124999993,
                    "durationTicks": 828,
                    "midi": 84,
                    "name": "C6",
                    "ticks": 183360,
                    "time": 159.166603,
                    "velocity": 0.5590551181102362,
                },
                {
                    "duration": 0.19531242187500197,
                    "durationTicks": 225,
                    "midi": 83,
                    "name": "B5",
                    "ticks": 184320,
                    "time": 159.999936,
                    "velocity": 0.47244094488188976,
                },
                {
                    "duration": 0.19531242187500197,
                    "durationTicks": 225,
                    "midi": 84,
                    "name": "C6",
                    "ticks": 184545,
                    "time": 160.195248421875,
                    "velocity": 0.47244094488188976,
                },
                {
                    "duration": 0.8593746562499973,
                    "durationTicks": 990,
                    "midi": 86,
                    "name": "D6",
                    "ticks": 184770,
                    "time": 160.39056084375,
                    "velocity": 0.47244094488188976,
                },
                {
                    "duration": 0.21093741562501123,
                    "durationTicks": 243,
                    "midi": 84,
                    "name": "C6",
                    "ticks": 185760,
                    "time": 161.2499355,
                    "velocity": 0.3937007874015748,
                },
                {
                    "duration": 0.19531242187500197,
                    "durationTicks": 225,
                    "midi": 83,
                    "name": "B5",
                    "ticks": 186000,
                    "time": 161.45826875,
                    "velocity": 0.36220472440944884,
                },
                {
                    "duration": 0.8333329999999819,
                    "durationTicks": 960,
                    "midi": 81,
                    "name": "A5",
                    "ticks": 186240,
                    "time": 161.666602,
                    "velocity": 0.3543307086614173,
                },
                {
                    "duration": 0.19531242187500197,
                    "durationTicks": 225,
                    "midi": 71,
                    "name": "B4",
                    "ticks": 188160,
                    "time": 163.333268,
                    "velocity": 0.3779527559055118,
                },
                {
                    "duration": 0.19531242187500197,
                    "durationTicks": 225,
                    "midi": 72,
                    "name": "C5",
                    "ticks": 188385,
                    "time": 163.528580421875,
                    "velocity": 0.3779527559055118,
                },
                {
                    "duration": 0.8593746562499973,
                    "durationTicks": 990,
                    "midi": 74,
                    "name": "D5",
                    "ticks": 188610,
                    "time": 163.72389284375,
                    "velocity": 0.3779527559055118,
                },
                {
                    "duration": 0.21093741562501123,
                    "durationTicks": 243,
                    "midi": 72,
                    "name": "C5",
                    "ticks": 189600,
                    "time": 164.5832675,
                    "velocity": 0.3464566929133858,
                },
                {
                    "duration": 0.19531242187500197,
                    "durationTicks": 225,
                    "midi": 71,
                    "name": "B4",
                    "ticks": 189840,
                    "time": 164.79160075,
                    "velocity": 0.3700787401574803,
                },
                {
                    "duration": 0.8333330000000103,
                    "durationTicks": 960,
                    "midi": 69,
                    "name": "A4",
                    "ticks": 190080,
                    "time": 164.999934,
                    "velocity": 0.3779527559055118,
                },
                {
                    "duration": 0.2795137770833378,
                    "durationTicks": 322,
                    "midi": 76,
                    "name": "E5",
                    "ticks": 192960,
                    "time": 167.499933,
                    "velocity": 0.3464566929133858,
                },
                {
                    "duration": 0.2803818322916527,
                    "durationTicks": 323,
                    "midi": 74,
                    "name": "D5",
                    "ticks": 193278,
                    "time": 167.77597455625002,
                    "velocity": 0.30708661417322836,
                },
                {
                    "duration": 0.26388878333332855,
                    "durationTicks": 304,
                    "midi": 71,
                    "name": "B4",
                    "ticks": 193597,
                    "time": 168.05288416770833,
                    "velocity": 0.31496062992125984,
                },
                {
                    "duration": 0.2795137770833378,
                    "durationTicks": 322,
                    "midi": 76,
                    "name": "E5",
                    "ticks": 193920,
                    "time": 168.333266,
                    "velocity": 0.4251968503937008,
                },
                {
                    "duration": 0.2803818322916527,
                    "durationTicks": 323,
                    "midi": 73,
                    "name": "C#5",
                    "ticks": 194238,
                    "time": 168.60930755625,
                    "velocity": 0.41732283464566927,
                },
                {
                    "duration": 0.28298599791668266,
                    "durationTicks": 326,
                    "midi": 69,
                    "name": "A4",
                    "ticks": 194557,
                    "time": 168.88621716770834,
                    "velocity": 0.33858267716535434,
                },
                {
                    "duration": 0.2795137770833378,
                    "durationTicks": 322,
                    "midi": 73,
                    "name": "C#5",
                    "ticks": 194880,
                    "time": 169.166599,
                    "velocity": 0.33858267716535434,
                },
                {
                    "duration": 0.2803818322916527,
                    "durationTicks": 323,
                    "midi": 69,
                    "name": "A4",
                    "ticks": 195198,
                    "time": 169.44264055625,
                    "velocity": 0.3779527559055118,
                },
                {
                    "duration": 0.26388878333332855,
                    "durationTicks": 304,
                    "midi": 64,
                    "name": "E4",
                    "ticks": 195517,
                    "time": 169.71955016770835,
                    "velocity": 0.36220472440944884,
                },
                {
                    "duration": 0.2795137770833378,
                    "durationTicks": 322,
                    "midi": 69,
                    "name": "A4",
                    "ticks": 195840,
                    "time": 169.999932,
                    "velocity": 0.4015748031496063,
                },
                {
                    "duration": 0.2803818322916811,
                    "durationTicks": 323,
                    "midi": 64,
                    "name": "E4",
                    "ticks": 196158,
                    "time": 170.27597355625,
                    "velocity": 0.3543307086614173,
                },
                {
                    "duration": 0.28298599791668266,
                    "durationTicks": 326,
                    "midi": 61,
                    "name": "C#4",
                    "ticks": 196477,
                    "time": 170.55288316770833,
                    "velocity": 0.36220472440944884,
                },
                {
                    "duration": 0.2795137770833378,
                    "durationTicks": 322,
                    "midi": 73,
                    "name": "C#5",
                    "ticks": 196800,
                    "time": 170.833265,
                    "velocity": 0.44881889763779526,
                },
                {
                    "duration": 0.2803818322916527,
                    "durationTicks": 323,
                    "midi": 69,
                    "name": "A4",
                    "ticks": 197118,
                    "time": 171.10930655625,
                    "velocity": 0.3543307086614173,
                },
                {
                    "duration": 0.26388878333332855,
                    "durationTicks": 304,
                    "midi": 64,
                    "name": "E4",
                    "ticks": 197437,
                    "time": 171.38621616770834,
                    "velocity": 0.29133858267716534,
                },
                {
                    "duration": 0.2795137770833378,
                    "durationTicks": 322,
                    "midi": 73,
                    "name": "C#5",
                    "ticks": 197760,
                    "time": 171.666598,
                    "velocity": 0.4645669291338583,
                },
                {
                    "duration": 0.2803818322916527,
                    "durationTicks": 323,
                    "midi": 66,
                    "name": "F#4",
                    "ticks": 198078,
                    "time": 171.94263955625001,
                    "velocity": 0.3858267716535433,
                },
                {
                    "duration": 0.28298599791665424,
                    "durationTicks": 326,
                    "midi": 62,
                    "name": "D4",
                    "ticks": 198397,
                    "time": 172.21954916770835,
                    "velocity": 0.3464566929133858,
                },
                {
                    "duration": 0.2795137770833378,
                    "durationTicks": 322,
                    "midi": 71,
                    "name": "B4",
                    "ticks": 198720,
                    "time": 172.499931,
                    "velocity": 0.47244094488188976,
                },
                {
                    "duration": 0.2803818322916811,
                    "durationTicks": 323,
                    "midi": 66,
                    "name": "F#4",
                    "ticks": 199038,
                    "time": 172.77597255625,
                    "velocity": 0.3858267716535433,
                },
                {
                    "duration": 0.26388878333332855,
                    "durationTicks": 304,
                    "midi": 62,
                    "name": "D4",
                    "ticks": 199357,
                    "time": 173.05288216770833,
                    "velocity": 0.31496062992125984,
                },
                {
                    "duration": 0.2795137770833662,
                    "durationTicks": 322,
                    "midi": 71,
                    "name": "B4",
                    "ticks": 199680,
                    "time": 173.33326399999999,
                    "velocity": 0.48031496062992124,
                },
                {
                    "duration": 0.2803818322916527,
                    "durationTicks": 323,
                    "midi": 66,
                    "name": "F#4",
                    "ticks": 199998,
                    "time": 173.60930555625,
                    "velocity": 0.3937007874015748,
                },
                {
                    "duration": 0.28298599791665424,
                    "durationTicks": 326,
                    "midi": 62,
                    "name": "D4",
                    "ticks": 200317,
                    "time": 173.88621516770834,
                    "velocity": 0.4094488188976378,
                },
                {
                    "duration": 0.2795137770833378,
                    "durationTicks": 322,
                    "midi": 69,
                    "name": "A4",
                    "ticks": 200640,
                    "time": 174.166597,
                    "velocity": 0.49606299212598426,
                },
                {
                    "duration": 0.2803818322916527,
                    "durationTicks": 323,
                    "midi": 61,
                    "name": "C#4",
                    "ticks": 200958,
                    "time": 174.44263855625002,
                    "velocity": 0.36220472440944884,
                },
                {
                    "duration": 0.26388878333332855,
                    "durationTicks": 304,
                    "midi": 69,
                    "name": "A4",
                    "ticks": 201277,
                    "time": 174.71954816770833,
                    "velocity": 0.5590551181102362,
                },
                {
                    "duration": 0.2795137770833378,
                    "durationTicks": 322,
                    "midi": 59,
                    "name": "B3",
                    "ticks": 201600,
                    "time": 174.99993,
                    "velocity": 0.47244094488188976,
                },
                {
                    "duration": 0.2803818322916811,
                    "durationTicks": 323,
                    "midi": 62,
                    "name": "D4",
                    "ticks": 201918,
                    "time": 175.27597155625,
                    "velocity": 0.5748031496062992,
                },
                {
                    "duration": 0.28298599791668266,
                    "durationTicks": 326,
                    "midi": 68,
                    "name": "G#4",
                    "ticks": 202237,
                    "time": 175.55288116770834,
                    "velocity": 0.6220472440944882,
                },
                {
                    "duration": 0.2795137770833378,
                    "durationTicks": 322,
                    "midi": 69,
                    "name": "A4",
                    "ticks": 202560,
                    "time": 175.833263,
                    "velocity": 0.5669291338582677,
                },
                {
                    "duration": 0.2803818322916527,
                    "durationTicks": 323,
                    "midi": 61,
                    "name": "C#4",
                    "ticks": 202878,
                    "time": 176.10930455625,
                    "velocity": 0.4094488188976378,
                },
                {
                    "duration": 0.28298599791665424,
                    "durationTicks": 326,
                    "midi": 69,
                    "name": "A4",
                    "ticks": 203197,
                    "time": 176.38621416770835,
                    "velocity": 0.6456692913385826,
                },
                {
                    "duration": 0.2795137770833378,
                    "durationTicks": 322,
                    "midi": 62,
                    "name": "D4",
                    "ticks": 203520,
                    "time": 176.666596,
                    "velocity": 0.4881889763779528,
                },
                {
                    "duration": 0.2803818322916527,
                    "durationTicks": 323,
                    "midi": 66,
                    "name": "F#4",
                    "ticks": 203838,
                    "time": 176.94263755625002,
                    "velocity": 0.6141732283464567,
                },
                {
                    "duration": 0.28298599791668266,
                    "durationTicks": 326,
                    "midi": 71,
                    "name": "B4",
                    "ticks": 204157,
                    "time": 177.21954716770833,
                    "velocity": 0.6850393700787402,
                },
                {
                    "duration": 0.2795137770833378,
                    "durationTicks": 322,
                    "midi": 73,
                    "name": "C#5",
                    "ticks": 204480,
                    "time": 177.499929,
                    "velocity": 0.6771653543307087,
                },
                {
                    "duration": 0.2803818322916527,
                    "durationTicks": 323,
                    "midi": 64,
                    "name": "E4",
                    "ticks": 204798,
                    "time": 177.77597055625,
                    "velocity": 0.5196850393700787,
                },
                {
                    "duration": 0.28298599791668266,
                    "durationTicks": 326,
                    "midi": 73,
                    "name": "C#5",
                    "ticks": 205117,
                    "time": 178.05288016770834,
                    "velocity": 0.5669291338582677,
                },
                {
                    "duration": 0.2795137770833378,
                    "durationTicks": 322,
                    "midi": 66,
                    "name": "F#4",
                    "ticks": 205440,
                    "time": 178.333262,
                    "velocity": 0.5275590551181102,
                },
                {
                    "duration": 0.2803818322916527,
                    "durationTicks": 323,
                    "midi": 69,
                    "name": "A4",
                    "ticks": 205758,
                    "time": 178.60930355625,
                    "velocity": 0.5196850393700787,
                },
                {
                    "duration": 0.28298599791665424,
                    "durationTicks": 326,
                    "midi": 74,
                    "name": "D5",
                    "ticks": 206077,
                    "time": 178.88621316770835,
                    "velocity": 0.5748031496062992,
                },
                {
                    "duration": 0.2795137770833378,
                    "durationTicks": 322,
                    "midi": 76,
                    "name": "E5",
                    "ticks": 206400,
                    "time": 179.166595,
                    "velocity": 0.5196850393700787,
                },
                {
                    "duration": 0.2803818322916811,
                    "durationTicks": 323,
                    "midi": 68,
                    "name": "G#4",
                    "ticks": 206718,
                    "time": 179.44263655625,
                    "velocity": 0.4409448818897638,
                },
                {
                    "duration": 0.26388878333332855,
                    "durationTicks": 304,
                    "midi": 76,
                    "name": "E5",
                    "ticks": 207037,
                    "time": 179.71954616770833,
                    "velocity": 0.5748031496062992,
                },
                {
                    "duration": 0.2795137770833378,
                    "durationTicks": 322,
                    "midi": 74,
                    "name": "D5",
                    "ticks": 207360,
                    "time": 179.999928,
                    "velocity": 0.4881889763779528,
                },
                {
                    "duration": 0.2803818322916527,
                    "durationTicks": 323,
                    "midi": 68,
                    "name": "G#4",
                    "ticks": 207678,
                    "time": 180.27596955625,
                    "velocity": 0.4330708661417323,
                },
                {
                    "duration": 0.28298599791665424,
                    "durationTicks": 326,
                    "midi": 71,
                    "name": "B4",
                    "ticks": 207997,
                    "time": 180.55287916770834,
                    "velocity": 0.5590551181102362,
                },
                {
                    "duration": 0.2795137770833378,
                    "durationTicks": 322,
                    "midi": 69,
                    "name": "A4",
                    "ticks": 208320,
                    "time": 180.833261,
                    "velocity": 0.5433070866141733,
                },
                {
                    "duration": 0.2803818322916527,
                    "durationTicks": 323,
                    "midi": 73,
                    "name": "C#5",
                    "ticks": 208638,
                    "time": 181.10930255625001,
                    "velocity": 0.5354330708661418,
                },
                {
                    "duration": 0.26388878333332855,
                    "durationTicks": 304,
                    "midi": 81,
                    "name": "A5",
                    "ticks": 208957,
                    "time": 181.38621216770835,
                    "velocity": 0.6141732283464567,
                },
                {
                    "duration": 0.2795137770833378,
                    "durationTicks": 322,
                    "midi": 81,
                    "name": "A5",
                    "ticks": 209280,
                    "time": 181.666594,
                    "velocity": 0.4094488188976378,
                },
                {
                    "duration": 0.2803818322916811,
                    "durationTicks": 323,
                    "midi": 73,
                    "name": "C#5",
                    "ticks": 209598,
                    "time": 181.94263555625,
                    "velocity": 0.29133858267716534,
                },
                {
                    "duration": 0.28298599791668266,
                    "durationTicks": 326,
                    "midi": 69,
                    "name": "A4",
                    "ticks": 209917,
                    "time": 182.21954516770833,
                    "velocity": 0.30708661417322836,
                },
                {
                    "duration": 0.2795137770833662,
                    "durationTicks": 322,
                    "midi": 76,
                    "name": "E5",
                    "ticks": 210240,
                    "time": 182.49992699999999,
                    "velocity": 0.4881889763779528,
                },
                {
                    "duration": 0.2803818322916527,
                    "durationTicks": 323,
                    "midi": 73,
                    "name": "C#5",
                    "ticks": 210558,
                    "time": 182.77596855625,
                    "velocity": 0.36220472440944884,
                },
                {
                    "duration": 0.26388878333332855,
                    "durationTicks": 304,
                    "midi": 67,
                    "name": "G4",
                    "ticks": 210877,
                    "time": 183.05287816770834,
                    "velocity": 0.33858267716535434,
                },
                {
                    "duration": 0.2795137770833378,
                    "durationTicks": 322,
                    "midi": 73,
                    "name": "C#5",
                    "ticks": 211200,
                    "time": 183.33326,
                    "velocity": 0.47244094488188976,
                },
                {
                    "duration": 0.2803818322916527,
                    "durationTicks": 323,
                    "midi": 67,
                    "name": "G4",
                    "ticks": 211518,
                    "time": 183.60930155625002,
                    "velocity": 0.4015748031496063,
                },
                {
                    "duration": 0.28298599791668266,
                    "durationTicks": 326,
                    "midi": 64,
                    "name": "E4",
                    "ticks": 211837,
                    "time": 183.88621116770832,
                    "velocity": 0.3937007874015748,
                },
                {
                    "duration": 0.2795137770833378,
                    "durationTicks": 322,
                    "midi": 76,
                    "name": "E5",
                    "ticks": 212160,
                    "time": 184.166593,
                    "velocity": 0.6220472440944882,
                },
                {
                    "duration": 0.2803818322916811,
                    "durationTicks": 323,
                    "midi": 73,
                    "name": "C#5",
                    "ticks": 212478,
                    "time": 184.44263455625,
                    "velocity": 0.4015748031496063,
                },
                {
                    "duration": 0.26388878333332855,
                    "durationTicks": 304,
                    "midi": 67,
                    "name": "G4",
                    "ticks": 212797,
                    "time": 184.71954416770834,
                    "velocity": 0.41732283464566927,
                },
                {
                    "duration": 0.2795137770833378,
                    "durationTicks": 322,
                    "midi": 76,
                    "name": "E5",
                    "ticks": 213120,
                    "time": 184.999926,
                    "velocity": 0.6141732283464567,
                },
                {
                    "duration": 0.2803818322916527,
                    "durationTicks": 323,
                    "midi": 73,
                    "name": "C#5",
                    "ticks": 213438,
                    "time": 185.27596755625,
                    "velocity": 0.4566929133858268,
                },
                {
                    "duration": 0.28298599791665424,
                    "durationTicks": 326,
                    "midi": 67,
                    "name": "G4",
                    "ticks": 213757,
                    "time": 185.55287716770835,
                    "velocity": 0.4645669291338583,
                },
                {
                    "duration": 0.2795137770833378,
                    "durationTicks": 322,
                    "midi": 66,
                    "name": "F#4",
                    "ticks": 214080,
                    "time": 185.833259,
                    "velocity": 0.48031496062992124,
                },
                {
                    "duration": 0.2803818322916527,
                    "durationTicks": 323,
                    "midi": 74,
                    "name": "D5",
                    "ticks": 214398,
                    "time": 186.10930055625002,
                    "velocity": 0.6850393700787402,
                },
                {
                    "duration": 0.26388878333332855,
                    "durationTicks": 304,
                    "midi": 76,
                    "name": "E5",
                    "ticks": 214717,
                    "time": 186.38621016770833,
                    "velocity": 0.5748031496062992,
                },
                {
                    "duration": 0.2795137770833378,
                    "durationTicks": 322,
                    "midi": 78,
                    "name": "F#5",
                    "ticks": 215040,
                    "time": 186.666592,
                    "velocity": 0.5905511811023622,
                },
                {
                    "duration": 0.2803818322916527,
                    "durationTicks": 323,
                    "midi": 74,
                    "name": "D5",
                    "ticks": 215358,
                    "time": 186.94263355625,
                    "velocity": 0.5275590551181102,
                },
                {
                    "duration": 0.28298599791668266,
                    "durationTicks": 326,
                    "midi": 66,
                    "name": "F#4",
                    "ticks": 215677,
                    "time": 187.21954316770834,
                    "velocity": 0.44881889763779526,
                },
                {
                    "duration": 0.2795137770833378,
                    "durationTicks": 322,
                    "midi": 64,
                    "name": "E4",
                    "ticks": 216000,
                    "time": 187.499925,
                    "velocity": 0.5433070866141733,
                },
                {
                    "duration": 0.2803818322916527,
                    "durationTicks": 323,
                    "midi": 73,
                    "name": "C#5",
                    "ticks": 216318,
                    "time": 187.77596655625,
                    "velocity": 0.7165354330708661,
                },
                {
                    "duration": 0.26388878333332855,
                    "durationTicks": 304,
                    "midi": 76,
                    "name": "E5",
                    "ticks": 216637,
                    "time": 188.05287616770835,
                    "velocity": 0.6929133858267716,
                },
                {
                    "duration": 0.2795137770833378,
                    "durationTicks": 322,
                    "midi": 74,
                    "name": "D5",
                    "ticks": 216960,
                    "time": 188.333258,
                    "velocity": 0.5118110236220472,
                },
                {
                    "duration": 0.2803818322916811,
                    "durationTicks": 323,
                    "midi": 71,
                    "name": "B4",
                    "ticks": 217278,
                    "time": 188.60929955625,
                    "velocity": 0.4881889763779528,
                },
                {
                    "duration": 0.26388878333332855,
                    "durationTicks": 304,
                    "midi": 64,
                    "name": "E4",
                    "ticks": 217597,
                    "time": 188.88620916770833,
                    "velocity": 0.3937007874015748,
                },
                {
                    "duration": 0.2795137770833378,
                    "durationTicks": 322,
                    "midi": 64,
                    "name": "E4",
                    "ticks": 217920,
                    "time": 189.166591,
                    "velocity": 0.4645669291338583,
                },
                {
                    "duration": 0.2803818322916527,
                    "durationTicks": 323,
                    "midi": 69,
                    "name": "A4",
                    "ticks": 218238,
                    "time": 189.44263255625,
                    "velocity": 0.5590551181102362,
                },
                {
                    "duration": 0.26388878333332855,
                    "durationTicks": 304,
                    "midi": 73,
                    "name": "C#5",
                    "ticks": 218557,
                    "time": 189.71954216770834,
                    "velocity": 0.5669291338582677,
                },
                {
                    "duration": 0.2795137770833378,
                    "durationTicks": 322,
                    "midi": 71,
                    "name": "B4",
                    "ticks": 218880,
                    "time": 189.999924,
                    "velocity": 0.49606299212598426,
                },
                {
                    "duration": 0.2803818322916527,
                    "durationTicks": 323,
                    "midi": 68,
                    "name": "G#4",
                    "ticks": 219198,
                    "time": 190.27596555625001,
                    "velocity": 0.4330708661417323,
                },
                {
                    "duration": 0.28298599791665424,
                    "durationTicks": 326,
                    "midi": 64,
                    "name": "E4",
                    "ticks": 219517,
                    "time": 190.55287516770835,
                    "velocity": 0.4330708661417323,
                },
                {
                    "duration": 0.2795137770833378,
                    "durationTicks": 322,
                    "midi": 66,
                    "name": "F#4",
                    "ticks": 219840,
                    "time": 190.833257,
                    "velocity": 0.4409448818897638,
                },
                {
                    "duration": 0.2803818322916811,
                    "durationTicks": 323,
                    "midi": 69,
                    "name": "A4",
                    "ticks": 220158,
                    "time": 191.10929855625,
                    "velocity": 0.5196850393700787,
                },
                {
                    "duration": 0.26388878333332855,
                    "durationTicks": 304,
                    "midi": 75,
                    "name": "D#5",
                    "ticks": 220477,
                    "time": 191.38620816770833,
                    "velocity": 0.5669291338582677,
                },
                {
                    "duration": 0.2795137770833662,
                    "durationTicks": 322,
                    "midi": 76,
                    "name": "E5",
                    "ticks": 220800,
                    "time": 191.66658999999999,
                    "velocity": 0.5433070866141733,
                },
                {
                    "duration": 0.2803818322916527,
                    "durationTicks": 323,
                    "midi": 71,
                    "name": "B4",
                    "ticks": 221118,
                    "time": 191.94263155625,
                    "velocity": 0.4881889763779528,
                },
                {
                    "duration": 0.28298599791665424,
                    "durationTicks": 326,
                    "midi": 68,
                    "name": "G#4",
                    "ticks": 221437,
                    "time": 192.21954116770834,
                    "velocity": 0.48031496062992124,
                },
                {
                    "duration": 0.2795137770833378,
                    "durationTicks": 322,
                    "midi": 76,
                    "name": "E5",
                    "ticks": 221760,
                    "time": 192.499923,
                    "velocity": 0.5669291338582677,
                },
                {
                    "duration": 0.2803818322916527,
                    "durationTicks": 323,
                    "midi": 71,
                    "name": "B4",
                    "ticks": 222078,
                    "time": 192.77596455625002,
                    "velocity": 0.4094488188976378,
                },
                {
                    "duration": 0.28298599791668266,
                    "durationTicks": 326,
                    "midi": 68,
                    "name": "G#4",
                    "ticks": 222397,
                    "time": 193.05287416770832,
                    "velocity": 0.36220472440944884,
                },
                {
                    "duration": 0.2795137770833378,
                    "durationTicks": 322,
                    "midi": 78,
                    "name": "F#5",
                    "ticks": 222720,
                    "time": 193.333256,
                    "velocity": 0.6299212598425197,
                },
                {
                    "duration": 0.2803818322916811,
                    "durationTicks": 323,
                    "midi": 71,
                    "name": "B4",
                    "ticks": 223038,
                    "time": 193.60929755625,
                    "velocity": 0.49606299212598426,
                },
                {
                    "duration": 0.28298599791668266,
                    "durationTicks": 326,
                    "midi": 69,
                    "name": "A4",
                    "ticks": 223357,
                    "time": 193.88620716770833,
                    "velocity": 0.4409448818897638,
                },
                {
                    "duration": 0.2795137770833378,
                    "durationTicks": 322,
                    "midi": 78,
                    "name": "F#5",
                    "ticks": 223680,
                    "time": 194.166589,
                    "velocity": 0.5669291338582677,
                },
                {
                    "duration": 0.2803818322916527,
                    "durationTicks": 323,
                    "midi": 71,
                    "name": "B4",
                    "ticks": 223998,
                    "time": 194.44263055625,
                    "velocity": 0.4015748031496063,
                },
                {
                    "duration": 0.26388878333332855,
                    "durationTicks": 304,
                    "midi": 69,
                    "name": "A4",
                    "ticks": 224317,
                    "time": 194.71954016770835,
                    "velocity": 0.3700787401574803,
                },
                {
                    "duration": 0.2795137770833378,
                    "durationTicks": 322,
                    "midi": 76,
                    "name": "E5",
                    "ticks": 224640,
                    "time": 194.999922,
                    "velocity": 0.5511811023622047,
                },
                {
                    "duration": 0.2803818322916527,
                    "durationTicks": 323,
                    "midi": 71,
                    "name": "B4",
                    "ticks": 224958,
                    "time": 195.27596355625002,
                    "velocity": 0.48031496062992124,
                },
                {
                    "duration": 0.28298599791668266,
                    "durationTicks": 326,
                    "midi": 68,
                    "name": "G#4",
                    "ticks": 225277,
                    "time": 195.55287316770833,
                    "velocity": 0.4409448818897638,
                },
                {
                    "duration": 0.2795137770833378,
                    "durationTicks": 322,
                    "midi": 76,
                    "name": "E5",
                    "ticks": 225600,
                    "time": 195.833255,
                    "velocity": 0.5590551181102362,
                },
                {
                    "duration": 0.2803818322916527,
                    "durationTicks": 323,
                    "midi": 71,
                    "name": "B4",
                    "ticks": 225918,
                    "time": 196.10929655625,
                    "velocity": 0.44881889763779526,
                },
                {
                    "duration": 0.28298599791668266,
                    "durationTicks": 326,
                    "midi": 68,
                    "name": "G#4",
                    "ticks": 226237,
                    "time": 196.38620616770834,
                    "velocity": 0.3858267716535433,
                },
                {
                    "duration": 0.2795137770833378,
                    "durationTicks": 322,
                    "midi": 75,
                    "name": "D#5",
                    "ticks": 226560,
                    "time": 196.666588,
                    "velocity": 0.5826771653543307,
                },
                {
                    "duration": 0.2803818322916527,
                    "durationTicks": 323,
                    "midi": 69,
                    "name": "A4",
                    "ticks": 226878,
                    "time": 196.94262955625,
                    "velocity": 0.48031496062992124,
                },
                {
                    "duration": 0.28298599791665424,
                    "durationTicks": 326,
                    "midi": 66,
                    "name": "F#4",
                    "ticks": 227197,
                    "time": 197.21953916770835,
                    "velocity": 0.4881889763779528,
                },
                {
                    "duration": 0.2795137770833378,
                    "durationTicks": 322,
                    "midi": 71,
                    "name": "B4",
                    "ticks": 227520,
                    "time": 197.499921,
                    "velocity": 0.5039370078740157,
                },
                {
                    "duration": 0.2803818322916811,
                    "durationTicks": 323,
                    "midi": 69,
                    "name": "A4",
                    "ticks": 227838,
                    "time": 197.77596255625,
                    "velocity": 0.4881889763779528,
                },
                {
                    "duration": 0.26388878333332855,
                    "durationTicks": 304,
                    "midi": 66,
                    "name": "F#4",
                    "ticks": 228157,
                    "time": 198.05287216770833,
                    "velocity": 0.41732283464566927,
                },
                {
                    "duration": 0.2795137770833378,
                    "durationTicks": 322,
                    "midi": 64,
                    "name": "E4",
                    "ticks": 228480,
                    "time": 198.333254,
                    "velocity": 0.47244094488188976,
                },
                {
                    "duration": 0.2803818322916527,
                    "durationTicks": 323,
                    "midi": 68,
                    "name": "G#4",
                    "ticks": 228798,
                    "time": 198.60929555625,
                    "velocity": 0.5275590551181102,
                },
                {
                    "duration": 0.28298599791665424,
                    "durationTicks": 326,
                    "midi": 71,
                    "name": "B4",
                    "ticks": 229117,
                    "time": 198.88620516770834,
                    "velocity": 0.5354330708661418,
                },
                {
                    "duration": 0.2795137770833378,
                    "durationTicks": 322,
                    "midi": 68,
                    "name": "G#4",
                    "ticks": 229440,
                    "time": 199.166587,
                    "velocity": 0.4881889763779528,
                },
                {
                    "duration": 0.2803818322916527,
                    "durationTicks": 323,
                    "midi": 71,
                    "name": "B4",
                    "ticks": 229758,
                    "time": 199.44262855625,
                    "velocity": 0.5433070866141733,
                },
                {
                    "duration": 0.28298599791665424,
                    "durationTicks": 326,
                    "midi": 76,
                    "name": "E5",
                    "ticks": 230077,
                    "time": 199.71953816770835,
                    "velocity": 0.6062992125984252,
                },
                {
                    "duration": 0.2795137770833378,
                    "durationTicks": 322,
                    "midi": 78,
                    "name": "F#5",
                    "ticks": 230400,
                    "time": 199.99992,
                    "velocity": 0.5275590551181102,
                },
                {
                    "duration": 0.2803818322916811,
                    "durationTicks": 323,
                    "midi": 71,
                    "name": "B4",
                    "ticks": 230718,
                    "time": 200.27596155625,
                    "velocity": 0.4409448818897638,
                },
                {
                    "duration": 0.28298599791668266,
                    "durationTicks": 326,
                    "midi": 69,
                    "name": "A4",
                    "ticks": 231037,
                    "time": 200.55287116770833,
                    "velocity": 0.4881889763779528,
                },
                {
                    "duration": 0.2795137770833662,
                    "durationTicks": 322,
                    "midi": 78,
                    "name": "F#5",
                    "ticks": 231360,
                    "time": 200.83325299999998,
                    "velocity": 0.5748031496062992,
                },
                {
                    "duration": 0.2803818322916527,
                    "durationTicks": 323,
                    "midi": 71,
                    "name": "B4",
                    "ticks": 231678,
                    "time": 201.10929455625,
                    "velocity": 0.4094488188976378,
                },
                {
                    "duration": 0.28298599791665424,
                    "durationTicks": 326,
                    "midi": 69,
                    "name": "A4",
                    "ticks": 231997,
                    "time": 201.38620416770834,
                    "velocity": 0.3779527559055118,
                },
                {
                    "duration": 0.2795137770833378,
                    "durationTicks": 322,
                    "midi": 76,
                    "name": "E5",
                    "ticks": 232320,
                    "time": 201.666586,
                    "velocity": 0.5748031496062992,
                },
                {
                    "duration": 0.2803818322916527,
                    "durationTicks": 323,
                    "midi": 71,
                    "name": "B4",
                    "ticks": 232638,
                    "time": 201.94262755625002,
                    "velocity": 0.5275590551181102,
                },
                {
                    "duration": 0.28298599791668266,
                    "durationTicks": 326,
                    "midi": 68,
                    "name": "G#4",
                    "ticks": 232957,
                    "time": 202.21953716770832,
                    "velocity": 0.4251968503937008,
                },
                {
                    "duration": 0.2795137770833378,
                    "durationTicks": 322,
                    "midi": 76,
                    "name": "E5",
                    "ticks": 233280,
                    "time": 202.499919,
                    "velocity": 0.4881889763779528,
                },
                {
                    "duration": 0.2803818322916811,
                    "durationTicks": 323,
                    "midi": 71,
                    "name": "B4",
                    "ticks": 233598,
                    "time": 202.77596055625,
                    "velocity": 0.47244094488188976,
                },
                {
                    "duration": 0.26388878333332855,
                    "durationTicks": 304,
                    "midi": 68,
                    "name": "G#4",
                    "ticks": 233917,
                    "time": 203.05287016770833,
                    "velocity": 0.3700787401574803,
                },
                {
                    "duration": 0.2795137770833378,
                    "durationTicks": 322,
                    "midi": 76,
                    "name": "E5",
                    "ticks": 234240,
                    "time": 203.333252,
                    "velocity": 0.6535433070866141,
                },
                {
                    "duration": 0.2803818322916527,
                    "durationTicks": 323,
                    "midi": 70,
                    "name": "A#4",
                    "ticks": 234558,
                    "time": 203.60929355625,
                    "velocity": 0.5826771653543307,
                },
                {
                    "duration": 0.28298599791665424,
                    "durationTicks": 326,
                    "midi": 67,
                    "name": "G4",
                    "ticks": 234877,
                    "time": 203.88620316770835,
                    "velocity": 0.49606299212598426,
                },
                {
                    "duration": 0.2795137770833378,
                    "durationTicks": 322,
                    "midi": 64,
                    "name": "E4",
                    "ticks": 235200,
                    "time": 204.166585,
                    "velocity": 0.4645669291338583,
                },
                {
                    "duration": 0.2803818322916527,
                    "durationTicks": 323,
                    "midi": 67,
                    "name": "G4",
                    "ticks": 235518,
                    "time": 204.44262655625002,
                    "velocity": 0.49606299212598426,
                },
                {
                    "duration": 0.28298599791668266,
                    "durationTicks": 326,
                    "midi": 70,
                    "name": "A#4",
                    "ticks": 235837,
                    "time": 204.71953616770833,
                    "velocity": 0.5905511811023622,
                },
                {
                    "duration": 0.2795137770833378,
                    "durationTicks": 322,
                    "midi": 64,
                    "name": "E4",
                    "ticks": 236160,
                    "time": 204.999918,
                    "velocity": 0.5039370078740157,
                },
                {
                    "duration": 0.2803818322916527,
                    "durationTicks": 323,
                    "midi": 68,
                    "name": "G#4",
                    "ticks": 236478,
                    "time": 205.27595955625,
                    "velocity": 0.6220472440944882,
                },
                {
                    "duration": 0.28298599791668266,
                    "durationTicks": 326,
                    "midi": 71,
                    "name": "B4",
                    "ticks": 236797,
                    "time": 205.55286916770834,
                    "velocity": 0.7086614173228346,
                },
                {
                    "duration": 0.2795137770833378,
                    "durationTicks": 322,
                    "midi": 76,
                    "name": "E5",
                    "ticks": 237120,
                    "time": 205.833251,
                    "velocity": 0.7007874015748031,
                },
                {
                    "duration": 0.2803818322916527,
                    "durationTicks": 323,
                    "midi": 71,
                    "name": "B4",
                    "ticks": 237438,
                    "time": 206.10929255625,
                    "velocity": 0.6062992125984252,
                },
                {
                    "duration": 0.28298599791665424,
                    "durationTicks": 326,
                    "midi": 68,
                    "name": "G#4",
                    "ticks": 237757,
                    "time": 206.38620216770835,
                    "velocity": 0.5275590551181102,
                },
                {
                    "duration": 0.2795137770833378,
                    "durationTicks": 322,
                    "midi": 76,
                    "name": "E5",
                    "ticks": 238080,
                    "time": 206.666584,
                    "velocity": 0.6377952755905512,
                },
                {
                    "duration": 0.2803818322916811,
                    "durationTicks": 323,
                    "midi": 70,
                    "name": "A#4",
                    "ticks": 238398,
                    "time": 206.94262555625,
                    "velocity": 0.5590551181102362,
                },
                {
                    "duration": 0.28298599791668266,
                    "durationTicks": 326,
                    "midi": 67,
                    "name": "G4",
                    "ticks": 238717,
                    "time": 207.21953516770833,
                    "velocity": 0.47244094488188976,
                },
                {
                    "duration": 0.2795137770833378,
                    "durationTicks": 322,
                    "midi": 64,
                    "name": "E4",
                    "ticks": 239040,
                    "time": 207.499917,
                    "velocity": 0.5196850393700787,
                },
                {
                    "duration": 0.2803818322916527,
                    "durationTicks": 323,
                    "midi": 67,
                    "name": "G4",
                    "ticks": 239358,
                    "time": 207.77595855625,
                    "velocity": 0.5433070866141733,
                },
                {
                    "duration": 0.28298599791665424,
                    "durationTicks": 326,
                    "midi": 70,
                    "name": "A#4",
                    "ticks": 239677,
                    "time": 208.05286816770834,
                    "velocity": 0.6377952755905512,
                },
                {
                    "duration": 0.2795137770833378,
                    "durationTicks": 322,
                    "midi": 64,
                    "name": "E4",
                    "ticks": 240000,
                    "time": 208.33325,
                    "velocity": 0.5590551181102362,
                },
                {
                    "duration": 0.2803818322916527,
                    "durationTicks": 323,
                    "midi": 68,
                    "name": "G#4",
                    "ticks": 240318,
                    "time": 208.60929155625,
                    "velocity": 0.6535433070866141,
                },
                {
                    "duration": 0.28298599791665424,
                    "durationTicks": 326,
                    "midi": 71,
                    "name": "B4",
                    "ticks": 240637,
                    "time": 208.88620116770835,
                    "velocity": 0.7244094488188977,
                },
                {
                    "duration": 0.2795137770833378,
                    "durationTicks": 322,
                    "midi": 76,
                    "name": "E5",
                    "ticks": 240960,
                    "time": 209.166583,
                    "velocity": 0.7086614173228346,
                },
                {
                    "duration": 0.2803818322916811,
                    "durationTicks": 323,
                    "midi": 71,
                    "name": "B4",
                    "ticks": 241278,
                    "time": 209.44262455625,
                    "velocity": 0.6377952755905512,
                },
                {
                    "duration": 0.26388878333332855,
                    "durationTicks": 304,
                    "midi": 68,
                    "name": "G#4",
                    "ticks": 241597,
                    "time": 209.71953416770833,
                    "velocity": 0.5511811023622047,
                },
                {
                    "duration": 0.2795137770833662,
                    "durationTicks": 322,
                    "midi": 76,
                    "name": "E5",
                    "ticks": 241920,
                    "time": 209.99991599999998,
                    "velocity": 0.6692913385826772,
                },
                {
                    "duration": 0.2803818322916527,
                    "durationTicks": 323,
                    "midi": 70,
                    "name": "A#4",
                    "ticks": 242238,
                    "time": 210.27595755625,
                    "velocity": 0.5905511811023622,
                },
                {
                    "duration": 0.28298599791665424,
                    "durationTicks": 326,
                    "midi": 67,
                    "name": "G4",
                    "ticks": 242557,
                    "time": 210.55286716770834,
                    "velocity": 0.5039370078740157,
                },
                {
                    "duration": 0.2795137770833378,
                    "durationTicks": 322,
                    "midi": 64,
                    "name": "E4",
                    "ticks": 242880,
                    "time": 210.833249,
                    "velocity": 0.5039370078740157,
                },
                {
                    "duration": 0.2803818322916527,
                    "durationTicks": 323,
                    "midi": 67,
                    "name": "G4",
                    "ticks": 243198,
                    "time": 211.10929055625002,
                    "velocity": 0.5905511811023622,
                },
                {
                    "duration": 0.26388878333335697,
                    "durationTicks": 304,
                    "midi": 69,
                    "name": "A4",
                    "ticks": 243517,
                    "time": 211.38620016770832,
                    "velocity": 0.5748031496062992,
                },
                {
                    "duration": 0.2795137770833378,
                    "durationTicks": 322,
                    "midi": 66,
                    "name": "F#4",
                    "ticks": 243840,
                    "time": 211.666582,
                    "velocity": 0.5511811023622047,
                },
                {
                    "duration": 0.2803818322916811,
                    "durationTicks": 323,
                    "midi": 71,
                    "name": "B4",
                    "ticks": 244158,
                    "time": 211.94262355625,
                    "velocity": 0.6141732283464567,
                },
                {
                    "duration": 0.26388878333332855,
                    "durationTicks": 304,
                    "midi": 66,
                    "name": "F#4",
                    "ticks": 244477,
                    "time": 212.21953316770833,
                    "velocity": 0.4881889763779528,
                },
                {
                    "duration": 0.2795137770833378,
                    "durationTicks": 322,
                    "midi": 66,
                    "name": "F#4",
                    "ticks": 244800,
                    "time": 212.499915,
                    "velocity": 0.5354330708661418,
                },
                {
                    "duration": 0.2803818322916527,
                    "durationTicks": 323,
                    "midi": 71,
                    "name": "B4",
                    "ticks": 245118,
                    "time": 212.77595655625,
                    "velocity": 0.5984251968503937,
                },
                {
                    "duration": 0.28298599791665424,
                    "durationTicks": 326,
                    "midi": 74,
                    "name": "D5",
                    "ticks": 245437,
                    "time": 213.05286616770834,
                    "velocity": 0.6456692913385826,
                },
                {
                    "duration": 0.2795137770833378,
                    "durationTicks": 322,
                    "midi": 73,
                    "name": "C#5",
                    "ticks": 245760,
                    "time": 213.333248,
                    "velocity": 0.3700787401574803,
                },
                {
                    "duration": 0.2803818322916527,
                    "durationTicks": 323,
                    "midi": 69,
                    "name": "A4",
                    "ticks": 246078,
                    "time": 213.60928955625002,
                    "velocity": 0.2992125984251969,
                },
                {
                    "duration": 0.28298599791668266,
                    "durationTicks": 326,
                    "midi": 64,
                    "name": "E4",
                    "ticks": 246397,
                    "time": 213.88619916770833,
                    "velocity": 0.33858267716535434,
                },
                {
                    "duration": 0.2795137770833378,
                    "durationTicks": 322,
                    "midi": 62,
                    "name": "D4",
                    "ticks": 246720,
                    "time": 214.166581,
                    "velocity": 0.31496062992125984,
                },
                {
                    "duration": 0.2803818322916527,
                    "durationTicks": 323,
                    "midi": 68,
                    "name": "G#4",
                    "ticks": 247038,
                    "time": 214.44262255625,
                    "velocity": 0.3937007874015748,
                },
                {
                    "duration": 0.26388878333332855,
                    "durationTicks": 304,
                    "midi": 71,
                    "name": "B4",
                    "ticks": 247357,
                    "time": 214.71953216770834,
                    "velocity": 0.4251968503937008,
                },
                {
                    "duration": 0.2795137770833378,
                    "durationTicks": 322,
                    "midi": 64,
                    "name": "E4",
                    "ticks": 247680,
                    "time": 214.999914,
                    "velocity": 0.3543307086614173,
                },
                {
                    "duration": 0.2803818322916527,
                    "durationTicks": 323,
                    "midi": 69,
                    "name": "A4",
                    "ticks": 247998,
                    "time": 215.27595555625,
                    "velocity": 0.3700787401574803,
                },
                {
                    "duration": 0.28298599791665424,
                    "durationTicks": 326,
                    "midi": 73,
                    "name": "C#5",
                    "ticks": 248317,
                    "time": 215.55286516770835,
                    "velocity": 0.4645669291338583,
                },
                {
                    "duration": 0.2795137770833378,
                    "durationTicks": 322,
                    "midi": 74,
                    "name": "D5",
                    "ticks": 248640,
                    "time": 215.833247,
                    "velocity": 0.41732283464566927,
                },
                {
                    "duration": 0.2803818322916811,
                    "durationTicks": 323,
                    "midi": 75,
                    "name": "D#5",
                    "ticks": 248958,
                    "time": 216.10928855625,
                    "velocity": 0.4566929133858268,
                },
                {
                    "duration": 0.26388878333332855,
                    "durationTicks": 304,
                    "midi": 76,
                    "name": "E5",
                    "ticks": 249277,
                    "time": 216.38619816770833,
                    "velocity": 0.4251968503937008,
                },
                {
                    "duration": 0.2795137770833378,
                    "durationTicks": 322,
                    "midi": 76,
                    "name": "E5",
                    "ticks": 249600,
                    "time": 216.66658,
                    "velocity": 0.44881889763779526,
                },
                {
                    "duration": 0.2803818322916527,
                    "durationTicks": 323,
                    "midi": 70,
                    "name": "A#4",
                    "ticks": 249918,
                    "time": 216.94262155625,
                    "velocity": 0.3937007874015748,
                },
                {
                    "duration": 0.28298599791665424,
                    "durationTicks": 326,
                    "midi": 67,
                    "name": "G4",
                    "ticks": 250237,
                    "time": 217.21953116770834,
                    "velocity": 0.41732283464566927,
                },
                {
                    "duration": 0.2795137770833378,
                    "durationTicks": 322,
                    "midi": 64,
                    "name": "E4",
                    "ticks": 250560,
                    "time": 217.499913,
                    "velocity": 0.4330708661417323,
                },
                {
                    "duration": 0.2803818322916527,
                    "durationTicks": 323,
                    "midi": 67,
                    "name": "G4",
                    "ticks": 250878,
                    "time": 217.77595455625,
                    "velocity": 0.5118110236220472,
                },
                {
                    "duration": 0.28298599791665424,
                    "durationTicks": 326,
                    "midi": 70,
                    "name": "A#4",
                    "ticks": 251197,
                    "time": 218.05286416770835,
                    "velocity": 0.5196850393700787,
                },
                {
                    "duration": 0.2795137770833378,
                    "durationTicks": 322,
                    "midi": 64,
                    "name": "E4",
                    "ticks": 251520,
                    "time": 218.333246,
                    "velocity": 0.41732283464566927,
                },
                {
                    "duration": 0.2803818322916811,
                    "durationTicks": 323,
                    "midi": 68,
                    "name": "G#4",
                    "ticks": 251838,
                    "time": 218.60928755625,
                    "velocity": 0.5748031496062992,
                },
                {
                    "duration": 0.28298599791668266,
                    "durationTicks": 326,
                    "midi": 71,
                    "name": "B4",
                    "ticks": 252157,
                    "time": 218.88619716770833,
                    "velocity": 0.5984251968503937,
                },
                {
                    "duration": 0.2795137770833662,
                    "durationTicks": 322,
                    "midi": 76,
                    "name": "E5",
                    "ticks": 252480,
                    "time": 219.16657899999998,
                    "velocity": 0.6220472440944882,
                },
                {
                    "duration": 0.2803818322916527,
                    "durationTicks": 323,
                    "midi": 71,
                    "name": "B4",
                    "ticks": 252798,
                    "time": 219.44262055625,
                    "velocity": 0.48031496062992124,
                },
                {
                    "duration": 0.26388878333332855,
                    "durationTicks": 304,
                    "midi": 68,
                    "name": "G#4",
                    "ticks": 253117,
                    "time": 219.71953016770834,
                    "velocity": 0.4645669291338583,
                },
                {
                    "duration": 0.2795137770833378,
                    "durationTicks": 322,
                    "midi": 76,
                    "name": "E5",
                    "ticks": 253440,
                    "time": 219.999912,
                    "velocity": 0.6850393700787402,
                },
                {
                    "duration": 0.2803818322916527,
                    "durationTicks": 323,
                    "midi": 70,
                    "name": "A#4",
                    "ticks": 253758,
                    "time": 220.27595355625002,
                    "velocity": 0.4881889763779528,
                },
                {
                    "duration": 0.28298599791668266,
                    "durationTicks": 326,
                    "midi": 67,
                    "name": "G4",
                    "ticks": 254077,
                    "time": 220.55286316770832,
                    "velocity": 0.49606299212598426,
                },
                {
                    "duration": 0.2795137770833378,
                    "durationTicks": 322,
                    "midi": 64,
                    "name": "E4",
                    "ticks": 254400,
                    "time": 220.833245,
                    "velocity": 0.5433070866141733,
                },
                {
                    "duration": 0.2803818322916811,
                    "durationTicks": 323,
                    "midi": 67,
                    "name": "G4",
                    "ticks": 254718,
                    "time": 221.10928655625,
                    "velocity": 0.6141732283464567,
                },
                {
                    "duration": 0.28298599791668266,
                    "durationTicks": 326,
                    "midi": 70,
                    "name": "A#4",
                    "ticks": 255037,
                    "time": 221.38619616770833,
                    "velocity": 0.6850393700787402,
                },
                {
                    "duration": 0.2795137770833378,
                    "durationTicks": 322,
                    "midi": 64,
                    "name": "E4",
                    "ticks": 255360,
                    "time": 221.666578,
                    "velocity": 0.48031496062992124,
                },
                {
                    "duration": 0.2803818322916527,
                    "durationTicks": 323,
                    "midi": 68,
                    "name": "G#4",
                    "ticks": 255678,
                    "time": 221.94261955625,
                    "velocity": 0.7007874015748031,
                },
                {
                    "duration": 0.28298599791665424,
                    "durationTicks": 326,
                    "midi": 71,
                    "name": "B4",
                    "ticks": 255997,
                    "time": 222.21952916770834,
                    "velocity": 0.6850393700787402,
                },
                {
                    "duration": 0.2795137770833378,
                    "durationTicks": 322,
                    "midi": 76,
                    "name": "E5",
                    "ticks": 256320,
                    "time": 222.499911,
                    "velocity": 0.8110236220472441,
                },
                {
                    "duration": 0.2803818322916527,
                    "durationTicks": 323,
                    "midi": 71,
                    "name": "B4",
                    "ticks": 256638,
                    "time": 222.77595255625002,
                    "velocity": 0.5669291338582677,
                },
                {
                    "duration": 0.26388878333332855,
                    "durationTicks": 304,
                    "midi": 68,
                    "name": "G#4",
                    "ticks": 256957,
                    "time": 223.05286216770833,
                    "velocity": 0.48031496062992124,
                },
                {
                    "duration": 0.2795137770833378,
                    "durationTicks": 322,
                    "midi": 76,
                    "name": "E5",
                    "ticks": 257280,
                    "time": 223.333244,
                    "velocity": 0.6771653543307087,
                },
                {
                    "duration": 0.2803818322916527,
                    "durationTicks": 323,
                    "midi": 70,
                    "name": "A#4",
                    "ticks": 257598,
                    "time": 223.60928555625,
                    "velocity": 0.5826771653543307,
                },
                {
                    "duration": 0.28298599791668266,
                    "durationTicks": 326,
                    "midi": 67,
                    "name": "G4",
                    "ticks": 257917,
                    "time": 223.88619516770834,
                    "velocity": 0.5196850393700787,
                },
                {
                    "duration": 0.2795137770833378,
                    "durationTicks": 322,
                    "midi": 64,
                    "name": "E4",
                    "ticks": 258240,
                    "time": 224.166577,
                    "velocity": 0.48031496062992124,
                },
                {
                    "duration": 0.2803818322916527,
                    "durationTicks": 323,
                    "midi": 67,
                    "name": "G4",
                    "ticks": 258558,
                    "time": 224.44261855625,
                    "velocity": 0.5748031496062992,
                },
                {
                    "duration": 0.2803818322916527,
                    "durationTicks": 323,
                    "midi": 69,
                    "name": "A4",
                    "ticks": 258877,
                    "time": 224.71952816770835,
                    "velocity": 0.5590551181102362,
                },
                {
                    "duration": 0.2795137770833378,
                    "durationTicks": 322,
                    "midi": 69,
                    "name": "A4",
                    "ticks": 259200,
                    "time": 224.99991,
                    "velocity": 0.5590551181102362,
                },
                {
                    "duration": 0.2803818322916811,
                    "durationTicks": 323,
                    "midi": 77,
                    "name": "F5",
                    "ticks": 259518,
                    "time": 225.27595155625,
                    "velocity": 0.6535433070866141,
                },
                {
                    "duration": 0.26388878333332855,
                    "durationTicks": 304,
                    "midi": 69,
                    "name": "A4",
                    "ticks": 259837,
                    "time": 225.55286116770833,
                    "velocity": 0.41732283464566927,
                },
                {
                    "duration": 0.2795137770833378,
                    "durationTicks": 322,
                    "midi": 69,
                    "name": "A4",
                    "ticks": 260160,
                    "time": 225.833243,
                    "velocity": 0.48031496062992124,
                },
                {
                    "duration": 0.2803818322916527,
                    "durationTicks": 323,
                    "midi": 74,
                    "name": "D5",
                    "ticks": 260478,
                    "time": 226.10928455625,
                    "velocity": 0.5669291338582677,
                },
                {
                    "duration": 0.2803818322916527,
                    "durationTicks": 323,
                    "midi": 76,
                    "name": "E5",
                    "ticks": 260797,
                    "time": 226.38619416770834,
                    "velocity": 0.6141732283464567,
                },
                {
                    "duration": 0.2795137770833378,
                    "durationTicks": 322,
                    "midi": 76,
                    "name": "E5",
                    "ticks": 261120,
                    "time": 226.666576,
                    "velocity": 0.3543307086614173,
                },
                {
                    "duration": 0.2803818322916527,
                    "durationTicks": 323,
                    "midi": 72,
                    "name": "C5",
                    "ticks": 261438,
                    "time": 226.94261755625,
                    "velocity": 0.3228346456692913,
                },
                {
                    "duration": 0.28298599791665424,
                    "durationTicks": 326,
                    "midi": 67,
                    "name": "G4",
                    "ticks": 261757,
                    "time": 227.21952716770835,
                    "velocity": 0.3543307086614173,
                },
                {
                    "duration": 0.2795137770833378,
                    "durationTicks": 322,
                    "midi": 65,
                    "name": "F4",
                    "ticks": 262080,
                    "time": 227.499909,
                    "velocity": 0.33858267716535434,
                },
                {
                    "duration": 0.2803818322916811,
                    "durationTicks": 323,
                    "midi": 71,
                    "name": "B4",
                    "ticks": 262398,
                    "time": 227.77595055625,
                    "velocity": 0.44881889763779526,
                },
                {
                    "duration": 0.26388878333332855,
                    "durationTicks": 304,
                    "midi": 74,
                    "name": "D5",
                    "ticks": 262717,
                    "time": 228.05286016770833,
                    "velocity": 0.4645669291338583,
                },
                {
                    "duration": 0.2795137770833662,
                    "durationTicks": 322,
                    "midi": 64,
                    "name": "E4",
                    "ticks": 263040,
                    "time": 228.33324199999998,
                    "velocity": 0.31496062992125984,
                },
                {
                    "duration": 0.2803818322916527,
                    "durationTicks": 323,
                    "midi": 72,
                    "name": "C5",
                    "ticks": 263358,
                    "time": 228.60928355625,
                    "velocity": 0.3779527559055118,
                },
                {
                    "duration": 0.28298599791665424,
                    "durationTicks": 326,
                    "midi": 76,
                    "name": "E5",
                    "ticks": 263677,
                    "time": 228.88619316770834,
                    "velocity": 0.4409448818897638,
                },
                {
                    "duration": 0.2795137770833378,
                    "durationTicks": 322,
                    "midi": 72,
                    "name": "C5",
                    "ticks": 264000,
                    "time": 229.166575,
                    "velocity": 0.36220472440944884,
                },
                {
                    "duration": 0.2803818322916527,
                    "durationTicks": 323,
                    "midi": 76,
                    "name": "E5",
                    "ticks": 264318,
                    "time": 229.44261655625002,
                    "velocity": 0.3858267716535433,
                },
                {
                    "duration": 0.26388878333335697,
                    "durationTicks": 304,
                    "midi": 79,
                    "name": "G5",
                    "ticks": 264637,
                    "time": 229.71952616770832,
                    "velocity": 0.4330708661417323,
                },
                {
                    "duration": 0.2795137770833378,
                    "durationTicks": 322,
                    "midi": 71,
                    "name": "B4",
                    "ticks": 264960,
                    "time": 229.999908,
                    "velocity": 0.31496062992125984,
                },
                {
                    "duration": 0.2803818322916811,
                    "durationTicks": 323,
                    "midi": 74,
                    "name": "D5",
                    "ticks": 265278,
                    "time": 230.27594955625,
                    "velocity": 0.33858267716535434,
                },
                {
                    "duration": 0.28298599791668266,
                    "durationTicks": 326,
                    "midi": 79,
                    "name": "G5",
                    "ticks": 265597,
                    "time": 230.55285916770833,
                    "velocity": 0.4645669291338583,
                },
                {
                    "duration": 0.2795137770833378,
                    "durationTicks": 322,
                    "midi": 71,
                    "name": "B4",
                    "ticks": 265920,
                    "time": 230.833241,
                    "velocity": 0.36220472440944884,
                },
                {
                    "duration": 0.2803818322916527,
                    "durationTicks": 323,
                    "midi": 74,
                    "name": "D5",
                    "ticks": 266238,
                    "time": 231.10928255625,
                    "velocity": 0.41732283464566927,
                },
                {
                    "duration": 0.26388878333332855,
                    "durationTicks": 304,
                    "midi": 79,
                    "name": "G5",
                    "ticks": 266557,
                    "time": 231.38619216770834,
                    "velocity": 0.4881889763779528,
                },
                {
                    "duration": 0.2795137770833378,
                    "durationTicks": 322,
                    "midi": 72,
                    "name": "C5",
                    "ticks": 266880,
                    "time": 231.666574,
                    "velocity": 0.3543307086614173,
                },
                {
                    "duration": 0.2803818322916527,
                    "durationTicks": 323,
                    "midi": 76,
                    "name": "E5",
                    "ticks": 267198,
                    "time": 231.94261555625002,
                    "velocity": 0.3858267716535433,
                },
                {
                    "duration": 0.28298599791668266,
                    "durationTicks": 326,
                    "midi": 79,
                    "name": "G5",
                    "ticks": 267517,
                    "time": 232.21952516770833,
                    "velocity": 0.4094488188976378,
                },
                {
                    "duration": 0.2795137770833378,
                    "durationTicks": 322,
                    "midi": 72,
                    "name": "C5",
                    "ticks": 267840,
                    "time": 232.499907,
                    "velocity": 0.33070866141732286,
                },
                {
                    "duration": 0.2803818322916527,
                    "durationTicks": 323,
                    "midi": 76,
                    "name": "E5",
                    "ticks": 268158,
                    "time": 232.77594855625,
                    "velocity": 0.3700787401574803,
                },
                {
                    "duration": 0.26388878333332855,
                    "durationTicks": 304,
                    "midi": 79,
                    "name": "G5",
                    "ticks": 268477,
                    "time": 233.05285816770834,
                    "velocity": 0.4251968503937008,
                },
                {
                    "duration": 0.2795137770833378,
                    "durationTicks": 322,
                    "midi": 71,
                    "name": "B4",
                    "ticks": 268800,
                    "time": 233.33324,
                    "velocity": 0.3543307086614173,
                },
                {
                    "duration": 0.2803818322916527,
                    "durationTicks": 323,
                    "midi": 74,
                    "name": "D5",
                    "ticks": 269118,
                    "time": 233.60928155625,
                    "velocity": 0.4094488188976378,
                },
                {
                    "duration": 0.28298599791665424,
                    "durationTicks": 326,
                    "midi": 79,
                    "name": "G5",
                    "ticks": 269437,
                    "time": 233.88619116770835,
                    "velocity": 0.4251968503937008,
                },
                {
                    "duration": 0.2795137770833378,
                    "durationTicks": 322,
                    "midi": 71,
                    "name": "B4",
                    "ticks": 269760,
                    "time": 234.166573,
                    "velocity": 0.3700787401574803,
                },
                {
                    "duration": 0.2803818322916811,
                    "durationTicks": 323,
                    "midi": 74,
                    "name": "D5",
                    "ticks": 270078,
                    "time": 234.44261455625,
                    "velocity": 0.4015748031496063,
                },
                {
                    "duration": 0.26388878333332855,
                    "durationTicks": 304,
                    "midi": 79,
                    "name": "G5",
                    "ticks": 270397,
                    "time": 234.71952416770833,
                    "velocity": 0.4566929133858268,
                },
                {
                    "duration": 0.2795137770833378,
                    "durationTicks": 322,
                    "midi": 72,
                    "name": "C5",
                    "ticks": 270720,
                    "time": 234.999906,
                    "velocity": 0.33070866141732286,
                },
                {
                    "duration": 0.2803818322916527,
                    "durationTicks": 323,
                    "midi": 76,
                    "name": "E5",
                    "ticks": 271038,
                    "time": 235.27594755625,
                    "velocity": 0.3543307086614173,
                },
                {
                    "duration": 0.28298599791665424,
                    "durationTicks": 326,
                    "midi": 79,
                    "name": "G5",
                    "ticks": 271357,
                    "time": 235.55285716770834,
                    "velocity": 0.4409448818897638,
                },
                {
                    "duration": 0.2795137770833378,
                    "durationTicks": 322,
                    "midi": 72,
                    "name": "C5",
                    "ticks": 271680,
                    "time": 235.833239,
                    "velocity": 0.36220472440944884,
                },
                {
                    "duration": 0.2803818322916527,
                    "durationTicks": 323,
                    "midi": 76,
                    "name": "E5",
                    "ticks": 271998,
                    "time": 236.10928055625,
                    "velocity": 0.4094488188976378,
                },
                {
                    "duration": 0.26388878333332855,
                    "durationTicks": 304,
                    "midi": 79,
                    "name": "G5",
                    "ticks": 272317,
                    "time": 236.38619016770835,
                    "velocity": 0.4094488188976378,
                },
                {
                    "duration": 0.2795137770833378,
                    "durationTicks": 322,
                    "midi": 71,
                    "name": "B4",
                    "ticks": 272640,
                    "time": 236.666572,
                    "velocity": 0.3464566929133858,
                },
                {
                    "duration": 0.2803818322916811,
                    "durationTicks": 323,
                    "midi": 74,
                    "name": "D5",
                    "ticks": 272958,
                    "time": 236.94261355625,
                    "velocity": 0.3858267716535433,
                },
                {
                    "duration": 0.28298599791668266,
                    "durationTicks": 326,
                    "midi": 79,
                    "name": "G5",
                    "ticks": 273277,
                    "time": 237.21952316770833,
                    "velocity": 0.4645669291338583,
                },
                {
                    "duration": 0.2795137770833662,
                    "durationTicks": 322,
                    "midi": 71,
                    "name": "B4",
                    "ticks": 273600,
                    "time": 237.49990499999998,
                    "velocity": 0.3858267716535433,
                },
                {
                    "duration": 0.2803818322916527,
                    "durationTicks": 323,
                    "midi": 74,
                    "name": "D5",
                    "ticks": 273918,
                    "time": 237.77594655625,
                    "velocity": 0.41732283464566927,
                },
                {
                    "duration": 0.26388878333332855,
                    "durationTicks": 304,
                    "midi": 79,
                    "name": "G5",
                    "ticks": 274237,
                    "time": 238.05285616770834,
                    "velocity": 0.49606299212598426,
                },
                {
                    "duration": 0.2803818322916527,
                    "durationTicks": 323,
                    "midi": 81,
                    "name": "A5",
                    "ticks": 276157,
                    "time": 239.71952216770833,
                    "velocity": 0.7165354330708661,
                },
                {
                    "duration": 0.1657985447916701,
                    "durationTicks": 191,
                    "midi": 79,
                    "name": "G5",
                    "ticks": 276480,
                    "time": 239.999904,
                    "velocity": 0.6771653543307087,
                },
                {
                    "duration": 0.166666599999985,
                    "durationTicks": 192,
                    "midi": 77,
                    "name": "F5",
                    "ticks": 276798,
                    "time": 240.27594555625,
                    "velocity": 0.6929133858267716,
                },
                {
                    "duration": 0.1657985447916701,
                    "durationTicks": 191,
                    "midi": 76,
                    "name": "E5",
                    "ticks": 277117,
                    "time": 240.55285516770834,
                    "velocity": 0.7322834645669292,
                },
                {
                    "duration": 0.1657985447916701,
                    "durationTicks": 191,
                    "midi": 74,
                    "name": "D5",
                    "ticks": 277440,
                    "time": 240.833237,
                    "velocity": 0.8188976377952756,
                },
                {
                    "duration": 0.166666599999985,
                    "durationTicks": 192,
                    "midi": 72,
                    "name": "C5",
                    "ticks": 277758,
                    "time": 241.10927855625002,
                    "velocity": 0.7559055118110236,
                },
                {
                    "duration": 0.1657985447916701,
                    "durationTicks": 191,
                    "midi": 71,
                    "name": "B4",
                    "ticks": 278077,
                    "time": 241.38618816770833,
                    "velocity": 0.7244094488188977,
                },
                {
                    "duration": 0.1657985447916701,
                    "durationTicks": 191,
                    "midi": 69,
                    "name": "A4",
                    "ticks": 278400,
                    "time": 241.66657,
                    "velocity": 0.7165354330708661,
                },
                {
                    "duration": 0.166666599999985,
                    "durationTicks": 192,
                    "midi": 67,
                    "name": "G4",
                    "ticks": 278718,
                    "time": 241.94261155625,
                    "velocity": 0.6929133858267716,
                },
                {
                    "duration": 0.1657985447916701,
                    "durationTicks": 191,
                    "midi": 65,
                    "name": "F4",
                    "ticks": 279037,
                    "time": 242.21952116770834,
                    "velocity": 0.7007874015748031,
                },
                {
                    "duration": 0.1657985447916701,
                    "durationTicks": 191,
                    "midi": 64,
                    "name": "E4",
                    "ticks": 279360,
                    "time": 242.499903,
                    "velocity": 0.7244094488188977,
                },
                {
                    "duration": 0.166666599999985,
                    "durationTicks": 192,
                    "midi": 62,
                    "name": "D4",
                    "ticks": 279678,
                    "time": 242.77594455625,
                    "velocity": 0.6850393700787402,
                },
                {
                    "duration": 0.1657985447916701,
                    "durationTicks": 191,
                    "midi": 60,
                    "name": "C4",
                    "ticks": 279997,
                    "time": 243.05285416770835,
                    "velocity": 0.7401574803149606,
                },
                {
                    "duration": 0.27604155625002136,
                    "durationTicks": 318,
                    "midi": 59,
                    "name": "B3",
                    "ticks": 280320,
                    "time": 243.333236,
                    "velocity": 0.7952755905511811,
                },
                {
                    "duration": 0.2473957343750044,
                    "durationTicks": 285,
                    "midi": 64,
                    "name": "E4",
                    "ticks": 283200,
                    "time": 245.833235,
                    "velocity": 0.7795275590551181,
                },
                {
                    "duration": 0.2473957343750044,
                    "durationTicks": 285,
                    "midi": 64,
                    "name": "E4",
                    "ticks": 283680,
                    "time": 246.2499015,
                    "velocity": 0.8346456692913385,
                },
                {
                    "duration": 0.12326383958335896,
                    "durationTicks": 142,
                    "midi": 72,
                    "name": "C5",
                    "ticks": 286320,
                    "time": 248.54156724999999,
                    "velocity": 0.33070866141732286,
                },
                {
                    "duration": 0.12326383958333054,
                    "durationTicks": 142,
                    "midi": 69,
                    "name": "A4",
                    "ticks": 286560,
                    "time": 248.7499005,
                    "velocity": 0.31496062992125984,
                },
                {
                    "duration": 0.12326383958333054,
                    "durationTicks": 142,
                    "midi": 72,
                    "name": "C5",
                    "ticks": 286800,
                    "time": 248.95823375,
                    "velocity": 0.4094488188976378,
                },
                {
                    "duration": 0.12326383958335896,
                    "durationTicks": 142,
                    "midi": 76,
                    "name": "E5",
                    "ticks": 287040,
                    "time": 249.166567,
                    "velocity": 0.4330708661417323,
                },
                {
                    "duration": 0.12326383958333054,
                    "durationTicks": 142,
                    "midi": 72,
                    "name": "C5",
                    "ticks": 287280,
                    "time": 249.37490025,
                    "velocity": 0.33858267716535434,
                },
                {
                    "duration": 0.12326383958333054,
                    "durationTicks": 142,
                    "midi": 69,
                    "name": "A4",
                    "ticks": 287520,
                    "time": 249.5832335,
                    "velocity": 0.3700787401574803,
                },
                {
                    "duration": 0.12326383958335896,
                    "durationTicks": 142,
                    "midi": 72,
                    "name": "C5",
                    "ticks": 287760,
                    "time": 249.79156675,
                    "velocity": 0.3937007874015748,
                },
                {
                    "duration": 0.41666649999999095,
                    "durationTicks": 480,
                    "midi": 64,
                    "name": "E4",
                    "ticks": 288000,
                    "time": 249.9999,
                    "velocity": 0.28346456692913385,
                },
                {
                    "duration": 0.19791658750000352,
                    "durationTicks": 228,
                    "midi": 71,
                    "name": "B4",
                    "ticks": 290160,
                    "time": 251.87489925,
                    "velocity": 0.33070866141732286,
                },
                {
                    "duration": 0.19791658750000352,
                    "durationTicks": 228,
                    "midi": 68,
                    "name": "G#4",
                    "ticks": 290400,
                    "time": 252.0832325,
                    "velocity": 0.33858267716535434,
                },
                {
                    "duration": 0.19791658750000352,
                    "durationTicks": 228,
                    "midi": 71,
                    "name": "B4",
                    "ticks": 290640,
                    "time": 252.29156575,
                    "velocity": 0.4409448818897638,
                },
                {
                    "duration": 0.19791658750000352,
                    "durationTicks": 228,
                    "midi": 76,
                    "name": "E5",
                    "ticks": 290880,
                    "time": 252.499899,
                    "velocity": 0.3937007874015748,
                },
                {
                    "duration": 0.19791658750000352,
                    "durationTicks": 228,
                    "midi": 71,
                    "name": "B4",
                    "ticks": 291120,
                    "time": 252.70823225,
                    "velocity": 0.3464566929133858,
                },
                {
                    "duration": 0.19791658750000352,
                    "durationTicks": 228,
                    "midi": 68,
                    "name": "G#4",
                    "ticks": 291360,
                    "time": 252.9165655,
                    "velocity": 0.3464566929133858,
                },
                {
                    "duration": 0.19791658750000352,
                    "durationTicks": 228,
                    "midi": 71,
                    "name": "B4",
                    "ticks": 291600,
                    "time": 253.12489875,
                    "velocity": 0.4251968503937008,
                },
                {
                    "duration": 0.39670123020832193,
                    "durationTicks": 457,
                    "midi": 64,
                    "name": "E4",
                    "ticks": 291840,
                    "time": 253.333232,
                    "velocity": 0.30708661417322836,
                },
                {
                    "duration": 0.19791658750003194,
                    "durationTicks": 228,
                    "midi": 72,
                    "name": "C5",
                    "ticks": 294000,
                    "time": 255.20823124999998,
                    "velocity": 0.33858267716535434,
                },
                {
                    "duration": 0.19791658750000352,
                    "durationTicks": 228,
                    "midi": 67,
                    "name": "G4",
                    "ticks": 294240,
                    "time": 255.4165645,
                    "velocity": 0.33858267716535434,
                },
                {
                    "duration": 0.19791658750000352,
                    "durationTicks": 228,
                    "midi": 72,
                    "name": "C5",
                    "ticks": 294480,
                    "time": 255.62489775,
                    "velocity": 0.3937007874015748,
                },
                {
                    "duration": 0.19791658750003194,
                    "durationTicks": 228,
                    "midi": 76,
                    "name": "E5",
                    "ticks": 294720,
                    "time": 255.83323099999998,
                    "velocity": 0.4094488188976378,
                },
                {
                    "duration": 0.19791658750000352,
                    "durationTicks": 228,
                    "midi": 72,
                    "name": "C5",
                    "ticks": 294960,
                    "time": 256.04156425,
                    "velocity": 0.33070866141732286,
                },
                {
                    "duration": 0.19791658750006036,
                    "durationTicks": 228,
                    "midi": 69,
                    "name": "A4",
                    "ticks": 295200,
                    "time": 256.2498975,
                    "velocity": 0.3543307086614173,
                },
                {
                    "duration": 0.19791658750000352,
                    "durationTicks": 228,
                    "midi": 72,
                    "name": "C5",
                    "ticks": 295440,
                    "time": 256.45823075,
                    "velocity": 0.4094488188976378,
                },
                {
                    "duration": 0.39670123020835035,
                    "durationTicks": 457,
                    "midi": 55,
                    "name": "G3",
                    "ticks": 295680,
                    "time": 256.666564,
                    "velocity": 0.30708661417322836,
                },
                {
                    "duration": 0.19791658750000352,
                    "durationTicks": 228,
                    "midi": 74,
                    "name": "D5",
                    "ticks": 297840,
                    "time": 258.54156325,
                    "velocity": 0.33070866141732286,
                },
                {
                    "duration": 0.19791658750000352,
                    "durationTicks": 228,
                    "midi": 71,
                    "name": "B4",
                    "ticks": 298080,
                    "time": 258.7498965,
                    "velocity": 0.3464566929133858,
                },
                {
                    "duration": 0.19791658750000352,
                    "durationTicks": 228,
                    "midi": 74,
                    "name": "D5",
                    "ticks": 298320,
                    "time": 258.95822975,
                    "velocity": 0.4015748031496063,
                },
                {
                    "duration": 0.19791658750000352,
                    "durationTicks": 228,
                    "midi": 79,
                    "name": "G5",
                    "ticks": 298560,
                    "time": 259.166563,
                    "velocity": 0.44881889763779526,
                },
                {
                    "duration": 0.19791658750000352,
                    "durationTicks": 228,
                    "midi": 74,
                    "name": "D5",
                    "ticks": 298800,
                    "time": 259.37489625,
                    "velocity": 0.33858267716535434,
                },
                {
                    "duration": 0.19791658750000352,
                    "durationTicks": 228,
                    "midi": 71,
                    "name": "B4",
                    "ticks": 299040,
                    "time": 259.5832295,
                    "velocity": 0.3700787401574803,
                },
                {
                    "duration": 0.19791658750006036,
                    "durationTicks": 228,
                    "midi": 74,
                    "name": "D5",
                    "ticks": 299280,
                    "time": 259.79156274999997,
                    "velocity": 0.4015748031496063,
                },
                {
                    "duration": 0.39670123020835035,
                    "durationTicks": 457,
                    "midi": 67,
                    "name": "G4",
                    "ticks": 299520,
                    "time": 259.999896,
                    "velocity": 0.33858267716535434,
                },
                {
                    "duration": 0.19791658750000352,
                    "durationTicks": 228,
                    "midi": 67,
                    "name": "G4",
                    "ticks": 301680,
                    "time": 261.87489525,
                    "velocity": 0.3543307086614173,
                },
                {
                    "duration": 0.19791658750000352,
                    "durationTicks": 228,
                    "midi": 64,
                    "name": "E4",
                    "ticks": 301920,
                    "time": 262.0832285,
                    "velocity": 0.3543307086614173,
                },
                {
                    "duration": 0.19791658750006036,
                    "durationTicks": 228,
                    "midi": 67,
                    "name": "G4",
                    "ticks": 302160,
                    "time": 262.29156174999997,
                    "velocity": 0.3858267716535433,
                },
                {
                    "duration": 0.19791658750000352,
                    "durationTicks": 228,
                    "midi": 72,
                    "name": "C5",
                    "ticks": 302400,
                    "time": 262.499895,
                    "velocity": 0.44881889763779526,
                },
                {
                    "duration": 0.19791658750000352,
                    "durationTicks": 228,
                    "midi": 64,
                    "name": "E4",
                    "ticks": 302640,
                    "time": 262.70822825,
                    "velocity": 0.30708661417322836,
                },
                {
                    "duration": 0.19791658750000352,
                    "durationTicks": 228,
                    "midi": 60,
                    "name": "C4",
                    "ticks": 302880,
                    "time": 262.9165615,
                    "velocity": 0.33070866141732286,
                },
                {
                    "duration": 0.19791658750000352,
                    "durationTicks": 228,
                    "midi": 66,
                    "name": "F#4",
                    "ticks": 303120,
                    "time": 263.12489475,
                    "velocity": 0.4094488188976378,
                },
                {
                    "duration": 0.3967012302082935,
                    "durationTicks": 457,
                    "midi": 66,
                    "name": "F#4",
                    "ticks": 303360,
                    "time": 263.333228,
                    "velocity": 0.3779527559055118,
                },
                {
                    "duration": 0.19791658750000352,
                    "durationTicks": 228,
                    "midi": 69,
                    "name": "A4",
                    "ticks": 305520,
                    "time": 265.20822725,
                    "velocity": 0.3543307086614173,
                },
                {
                    "duration": 0.19791658750000352,
                    "durationTicks": 228,
                    "midi": 66,
                    "name": "F#4",
                    "ticks": 305760,
                    "time": 265.4165605,
                    "velocity": 0.33858267716535434,
                },
                {
                    "duration": 0.19791658750000352,
                    "durationTicks": 228,
                    "midi": 69,
                    "name": "A4",
                    "ticks": 306000,
                    "time": 265.62489375,
                    "velocity": 0.3700787401574803,
                },
                {
                    "duration": 0.19791658750000352,
                    "durationTicks": 228,
                    "midi": 74,
                    "name": "D5",
                    "ticks": 306240,
                    "time": 265.833227,
                    "velocity": 0.4330708661417323,
                },
                {
                    "duration": 0.19791658750000352,
                    "durationTicks": 228,
                    "midi": 69,
                    "name": "A4",
                    "ticks": 306480,
                    "time": 266.04156025,
                    "velocity": 0.3464566929133858,
                },
                {
                    "duration": 0.19791658750000352,
                    "durationTicks": 228,
                    "midi": 64,
                    "name": "E4",
                    "ticks": 306720,
                    "time": 266.2498935,
                    "velocity": 0.33070866141732286,
                },
                {
                    "duration": 0.19791658750000352,
                    "durationTicks": 228,
                    "midi": 71,
                    "name": "B4",
                    "ticks": 306960,
                    "time": 266.45822675,
                    "velocity": 0.4251968503937008,
                },
                {
                    "duration": 0.39670123020835035,
                    "durationTicks": 457,
                    "midi": 64,
                    "name": "E4",
                    "ticks": 307200,
                    "time": 266.66656,
                    "velocity": 0.30708661417322836,
                },
                {
                    "duration": 0.19791658750000352,
                    "durationTicks": 228,
                    "midi": 72,
                    "name": "C5",
                    "ticks": 309360,
                    "time": 268.54155925,
                    "velocity": 0.36220472440944884,
                },
                {
                    "duration": 0.19791658750000352,
                    "durationTicks": 228,
                    "midi": 69,
                    "name": "A4",
                    "ticks": 309600,
                    "time": 268.7498925,
                    "velocity": 0.3228346456692913,
                },
                {
                    "duration": 0.19791658750000352,
                    "durationTicks": 228,
                    "midi": 72,
                    "name": "C5",
                    "ticks": 309840,
                    "time": 268.95822575,
                    "velocity": 0.4015748031496063,
                },
                {
                    "duration": 0.19791658750000352,
                    "durationTicks": 228,
                    "midi": 76,
                    "name": "E5",
                    "ticks": 310080,
                    "time": 269.166559,
                    "velocity": 0.4251968503937008,
                },
                {
                    "duration": 0.19791658750000352,
                    "durationTicks": 228,
                    "midi": 72,
                    "name": "C5",
                    "ticks": 310320,
                    "time": 269.37489225,
                    "velocity": 0.36220472440944884,
                },
                {
                    "duration": 0.19791658750006036,
                    "durationTicks": 228,
                    "midi": 69,
                    "name": "A4",
                    "ticks": 310560,
                    "time": 269.58322549999997,
                    "velocity": 0.33858267716535434,
                },
                {
                    "duration": 0.19791658750000352,
                    "durationTicks": 228,
                    "midi": 72,
                    "name": "C5",
                    "ticks": 310800,
                    "time": 269.79155875,
                    "velocity": 0.4330708661417323,
                },
                {
                    "duration": 0.7942705156249872,
                    "durationTicks": 915,
                    "midi": 64,
                    "name": "E4",
                    "ticks": 311040,
                    "time": 269.999892,
                    "velocity": 0.2992125984251969,
                },
                {
                    "duration": 0.19791658750000352,
                    "durationTicks": 228,
                    "midi": 71,
                    "name": "B4",
                    "ticks": 313200,
                    "time": 271.87489125,
                    "velocity": 0.31496062992125984,
                },
                {
                    "duration": 0.19791658750006036,
                    "durationTicks": 228,
                    "midi": 64,
                    "name": "E4",
                    "ticks": 313440,
                    "time": 272.0832245,
                    "velocity": 0.30708661417322836,
                },
                {
                    "duration": 0.19791658750000352,
                    "durationTicks": 228,
                    "midi": 71,
                    "name": "B4",
                    "ticks": 313680,
                    "time": 272.29155775,
                    "velocity": 0.4566929133858268,
                },
                {
                    "duration": 0.19791658750000352,
                    "durationTicks": 228,
                    "midi": 76,
                    "name": "E5",
                    "ticks": 313920,
                    "time": 272.499891,
                    "velocity": 0.4330708661417323,
                },
                {
                    "duration": 0.19791658750000352,
                    "durationTicks": 228,
                    "midi": 71,
                    "name": "B4",
                    "ticks": 314160,
                    "time": 272.70822425,
                    "velocity": 0.36220472440944884,
                },
                {
                    "duration": 0.19791658750000352,
                    "durationTicks": 228,
                    "midi": 64,
                    "name": "E4",
                    "ticks": 314400,
                    "time": 272.9165575,
                    "velocity": 0.29133858267716534,
                },
                {
                    "duration": 0.19791658750000352,
                    "durationTicks": 228,
                    "midi": 74,
                    "name": "D5",
                    "ticks": 314640,
                    "time": 273.12489075,
                    "velocity": 0.48031496062992124,
                },
                {
                    "duration": 0.794270515625044,
                    "durationTicks": 915,
                    "midi": 64,
                    "name": "E4",
                    "ticks": 314880,
                    "time": 273.333224,
                    "velocity": 0.3700787401574803,
                },
                {
                    "duration": 0.794270515625044,
                    "durationTicks": 915,
                    "midi": 72,
                    "name": "C5",
                    "ticks": 314880,
                    "time": 273.333224,
                    "velocity": 0.3700787401574803,
                },
                {
                    "duration": 0.19791658750000352,
                    "durationTicks": 228,
                    "midi": 64,
                    "name": "E4",
                    "ticks": 317040,
                    "time": 275.20822325,
                    "velocity": 0.3700787401574803,
                },
                {
                    "duration": 0.19791658750000352,
                    "durationTicks": 228,
                    "midi": 59,
                    "name": "B3",
                    "ticks": 317280,
                    "time": 275.4165565,
                    "velocity": 0.3464566929133858,
                },
                {
                    "duration": 0.19791658750000352,
                    "durationTicks": 228,
                    "midi": 64,
                    "name": "E4",
                    "ticks": 317520,
                    "time": 275.62488975,
                    "velocity": 0.4645669291338583,
                },
                {
                    "duration": 0.19791658750000352,
                    "durationTicks": 228,
                    "midi": 71,
                    "name": "B4",
                    "ticks": 317760,
                    "time": 275.833223,
                    "velocity": 0.4645669291338583,
                },
                {
                    "duration": 0.19791658750000352,
                    "durationTicks": 228,
                    "midi": 64,
                    "name": "E4",
                    "ticks": 318000,
                    "time": 276.04155625,
                    "velocity": 0.30708661417322836,
                },
                {
                    "duration": 0.19791658750000352,
                    "durationTicks": 228,
                    "midi": 60,
                    "name": "C4",
                    "ticks": 318240,
                    "time": 276.2498895,
                    "velocity": 0.31496062992125984,
                },
                {
                    "duration": 0.19791658750000352,
                    "durationTicks": 228,
                    "midi": 66,
                    "name": "F#4",
                    "ticks": 318480,
                    "time": 276.45822275,
                    "velocity": 0.44881889763779526,
                },
                {
                    "duration": 0.39670123020835035,
                    "durationTicks": 457,
                    "midi": 66,
                    "name": "F#4",
                    "ticks": 318720,
                    "time": 276.666556,
                    "velocity": 0.3464566929133858,
                },
                {
                    "duration": 0.19791658750000352,
                    "durationTicks": 228,
                    "midi": 66,
                    "name": "F#4",
                    "ticks": 320880,
                    "time": 278.54155525,
                    "velocity": 0.33858267716535434,
                },
                {
                    "duration": 0.19791658750000352,
                    "durationTicks": 228,
                    "midi": 62,
                    "name": "D4",
                    "ticks": 321120,
                    "time": 278.7498885,
                    "velocity": 0.33070866141732286,
                },
                {
                    "duration": 0.19791658750000352,
                    "durationTicks": 228,
                    "midi": 66,
                    "name": "F#4",
                    "ticks": 321360,
                    "time": 278.95822175,
                    "velocity": 0.4409448818897638,
                },
                {
                    "duration": 0.19791658750000352,
                    "durationTicks": 228,
                    "midi": 69,
                    "name": "A4",
                    "ticks": 321600,
                    "time": 279.166555,
                    "velocity": 0.3779527559055118,
                },
                {
                    "duration": 0.19791658750006036,
                    "durationTicks": 228,
                    "midi": 62,
                    "name": "D4",
                    "ticks": 321840,
                    "time": 279.37488824999997,
                    "velocity": 0.33858267716535434,
                },
                {
                    "duration": 0.19791658750000352,
                    "durationTicks": 228,
                    "midi": 59,
                    "name": "B3",
                    "ticks": 322080,
                    "time": 279.5832215,
                    "velocity": 0.3228346456692913,
                },
                {
                    "duration": 0.19791658750000352,
                    "durationTicks": 228,
                    "midi": 64,
                    "name": "E4",
                    "ticks": 322320,
                    "time": 279.79155475,
                    "velocity": 0.41732283464566927,
                },
                {
                    "duration": 0.39670123020835035,
                    "durationTicks": 457,
                    "midi": 64,
                    "name": "E4",
                    "ticks": 322560,
                    "time": 279.999888,
                    "velocity": 0.41732283464566927,
                },
                {
                    "duration": 0.19791658750006036,
                    "durationTicks": 228,
                    "midi": 72,
                    "name": "C5",
                    "ticks": 324720,
                    "time": 281.87488725,
                    "velocity": 0.3464566929133858,
                },
                {
                    "duration": 0.19791658750000352,
                    "durationTicks": 228,
                    "midi": 69,
                    "name": "A4",
                    "ticks": 324960,
                    "time": 282.0832205,
                    "velocity": 0.2992125984251969,
                },
                {
                    "duration": 0.19791658750000352,
                    "durationTicks": 228,
                    "midi": 72,
                    "name": "C5",
                    "ticks": 325200,
                    "time": 282.29155375,
                    "velocity": 0.4015748031496063,
                },
                {
                    "duration": 0.19791658750000352,
                    "durationTicks": 228,
                    "midi": 76,
                    "name": "E5",
                    "ticks": 325440,
                    "time": 282.499887,
                    "velocity": 0.4015748031496063,
                },
                {
                    "duration": 0.19791658750000352,
                    "durationTicks": 228,
                    "midi": 72,
                    "name": "C5",
                    "ticks": 325680,
                    "time": 282.70822025,
                    "velocity": 0.3464566929133858,
                },
                {
                    "duration": 0.19791658750000352,
                    "durationTicks": 228,
                    "midi": 69,
                    "name": "A4",
                    "ticks": 325920,
                    "time": 282.9165535,
                    "velocity": 0.31496062992125984,
                },
                {
                    "duration": 0.19791658750006036,
                    "durationTicks": 228,
                    "midi": 72,
                    "name": "C5",
                    "ticks": 326160,
                    "time": 283.12488675,
                    "velocity": 0.3937007874015748,
                },
                {
                    "duration": 0.39670123020835035,
                    "durationTicks": 457,
                    "midi": 64,
                    "name": "E4",
                    "ticks": 326400,
                    "time": 283.33322,
                    "velocity": 0.33858267716535434,
                },
                {
                    "duration": 0.19791658750000352,
                    "durationTicks": 228,
                    "midi": 71,
                    "name": "B4",
                    "ticks": 328560,
                    "time": 285.20821925,
                    "velocity": 0.3779527559055118,
                },
                {
                    "duration": 0.19791658750000352,
                    "durationTicks": 228,
                    "midi": 64,
                    "name": "E4",
                    "ticks": 328800,
                    "time": 285.4165525,
                    "velocity": 0.29133858267716534,
                },
                {
                    "duration": 0.19791658750000352,
                    "durationTicks": 228,
                    "midi": 71,
                    "name": "B4",
                    "ticks": 329040,
                    "time": 285.62488575,
                    "velocity": 0.4330708661417323,
                },
                {
                    "duration": 0.19791658750000352,
                    "durationTicks": 228,
                    "midi": 76,
                    "name": "E5",
                    "ticks": 329280,
                    "time": 285.833219,
                    "velocity": 0.4330708661417323,
                },
                {
                    "duration": 0.19791658750000352,
                    "durationTicks": 228,
                    "midi": 71,
                    "name": "B4",
                    "ticks": 329520,
                    "time": 286.04155225,
                    "velocity": 0.36220472440944884,
                },
                {
                    "duration": 0.19791658750000352,
                    "durationTicks": 228,
                    "midi": 64,
                    "name": "E4",
                    "ticks": 329760,
                    "time": 286.2498855,
                    "velocity": 0.29133858267716534,
                },
                {
                    "duration": 0.19791658750000352,
                    "durationTicks": 228,
                    "midi": 74,
                    "name": "D5",
                    "ticks": 330000,
                    "time": 286.45821875,
                    "velocity": 0.47244094488188976,
                },
                {
                    "duration": 0.3967012302082935,
                    "durationTicks": 457,
                    "midi": 64,
                    "name": "E4",
                    "ticks": 330240,
                    "time": 286.666552,
                    "velocity": 0.33858267716535434,
                },
                {
                    "duration": 0.3967012302082935,
                    "durationTicks": 457,
                    "midi": 73,
                    "name": "C#5",
                    "ticks": 330240,
                    "time": 286.666552,
                    "velocity": 0.33858267716535434,
                },
                {
                    "duration": 0.19791658750000352,
                    "durationTicks": 228,
                    "midi": 73,
                    "name": "C#5",
                    "ticks": 332400,
                    "time": 288.54155125,
                    "velocity": 0.3858267716535433,
                },
                {
                    "duration": 0.19791658750000352,
                    "durationTicks": 228,
                    "midi": 67,
                    "name": "G4",
                    "ticks": 332640,
                    "time": 288.7498845,
                    "velocity": 0.31496062992125984,
                },
                {
                    "duration": 0.19791658750000352,
                    "durationTicks": 228,
                    "midi": 73,
                    "name": "C#5",
                    "ticks": 332880,
                    "time": 288.95821775,
                    "velocity": 0.4094488188976378,
                },
                {
                    "duration": 0.19791658750006036,
                    "durationTicks": 228,
                    "midi": 76,
                    "name": "E5",
                    "ticks": 333120,
                    "time": 289.16655099999997,
                    "velocity": 0.4094488188976378,
                },
                {
                    "duration": 0.19791658750000352,
                    "durationTicks": 228,
                    "midi": 73,
                    "name": "C#5",
                    "ticks": 333360,
                    "time": 289.37488425,
                    "velocity": 0.3543307086614173,
                },
                {
                    "duration": 0.19791658750000352,
                    "durationTicks": 228,
                    "midi": 67,
                    "name": "G4",
                    "ticks": 333600,
                    "time": 289.5832175,
                    "velocity": 0.33858267716535434,
                },
                {
                    "duration": 0.19791658750000352,
                    "durationTicks": 228,
                    "midi": 76,
                    "name": "E5",
                    "ticks": 333840,
                    "time": 289.79155075,
                    "velocity": 0.48031496062992124,
                },
                {
                    "duration": 0.39670123020835035,
                    "durationTicks": 457,
                    "midi": 77,
                    "name": "F5",
                    "ticks": 334080,
                    "time": 289.999884,
                    "velocity": 0.4330708661417323,
                },
                {
                    "duration": 0.19791658750000352,
                    "durationTicks": 228,
                    "midi": 65,
                    "name": "F4",
                    "ticks": 336240,
                    "time": 291.87488325,
                    "velocity": 0.33858267716535434,
                },
                {
                    "duration": 0.19791658750000352,
                    "durationTicks": 228,
                    "midi": 62,
                    "name": "D4",
                    "ticks": 336480,
                    "time": 292.0832165,
                    "velocity": 0.33070866141732286,
                },
                {
                    "duration": 0.19791658750000352,
                    "durationTicks": 228,
                    "midi": 65,
                    "name": "F4",
                    "ticks": 336720,
                    "time": 292.29154975,
                    "velocity": 0.3779527559055118,
                },
                {
                    "duration": 0.19791658750000352,
                    "durationTicks": 228,
                    "midi": 71,
                    "name": "B4",
                    "ticks": 336960,
                    "time": 292.499883,
                    "velocity": 0.44881889763779526,
                },
                {
                    "duration": 0.19791658750000352,
                    "durationTicks": 228,
                    "midi": 65,
                    "name": "F4",
                    "ticks": 337200,
                    "time": 292.70821625,
                    "velocity": 0.30708661417322836,
                },
                {
                    "duration": 0.19791658750006036,
                    "durationTicks": 228,
                    "midi": 62,
                    "name": "D4",
                    "ticks": 337440,
                    "time": 292.9165495,
                    "velocity": 0.33070866141732286,
                },
                {
                    "duration": 0.19791658750000352,
                    "durationTicks": 228,
                    "midi": 74,
                    "name": "D5",
                    "ticks": 337680,
                    "time": 293.12488275,
                    "velocity": 0.49606299212598426,
                },
                {
                    "duration": 0.39670123020835035,
                    "durationTicks": 457,
                    "midi": 64,
                    "name": "E4",
                    "ticks": 337920,
                    "time": 293.333216,
                    "velocity": 0.3700787401574803,
                },
                {
                    "duration": 0.39670123020835035,
                    "durationTicks": 457,
                    "midi": 73,
                    "name": "C#5",
                    "ticks": 337920,
                    "time": 293.333216,
                    "velocity": 0.3700787401574803,
                },
                {
                    "duration": 0.19791658750000352,
                    "durationTicks": 228,
                    "midi": 73,
                    "name": "C#5",
                    "ticks": 340080,
                    "time": 295.20821525,
                    "velocity": 0.3858267716535433,
                },
                {
                    "duration": 0.19791658750000352,
                    "durationTicks": 228,
                    "midi": 67,
                    "name": "G4",
                    "ticks": 340320,
                    "time": 295.4165485,
                    "velocity": 0.33858267716535434,
                },
                {
                    "duration": 0.19791658750000352,
                    "durationTicks": 228,
                    "midi": 73,
                    "name": "C#5",
                    "ticks": 340560,
                    "time": 295.62488175,
                    "velocity": 0.4566929133858268,
                },
                {
                    "duration": 0.19791658750000352,
                    "durationTicks": 228,
                    "midi": 76,
                    "name": "E5",
                    "ticks": 340800,
                    "time": 295.833215,
                    "velocity": 0.4881889763779528,
                },
                {
                    "duration": 0.19791658750000352,
                    "durationTicks": 228,
                    "midi": 73,
                    "name": "C#5",
                    "ticks": 341040,
                    "time": 296.04154825,
                    "velocity": 0.4409448818897638,
                },
                {
                    "duration": 0.19791658750000352,
                    "durationTicks": 228,
                    "midi": 67,
                    "name": "G4",
                    "ticks": 341280,
                    "time": 296.2498815,
                    "velocity": 0.3779527559055118,
                },
                {
                    "duration": 0.19791658750000352,
                    "durationTicks": 228,
                    "midi": 76,
                    "name": "E5",
                    "ticks": 341520,
                    "time": 296.45821475,
                    "velocity": 0.5905511811023622,
                },
                {
                    "duration": 0.39670123020835035,
                    "durationTicks": 457,
                    "midi": 77,
                    "name": "F5",
                    "ticks": 341760,
                    "time": 296.666548,
                    "velocity": 0.4566929133858268,
                },
                {
                    "duration": 0.19791658750000352,
                    "durationTicks": 228,
                    "midi": 65,
                    "name": "F4",
                    "ticks": 343920,
                    "time": 298.54154725,
                    "velocity": 0.5039370078740157,
                },
                {
                    "duration": 0.19791658750000352,
                    "durationTicks": 228,
                    "midi": 62,
                    "name": "D4",
                    "ticks": 344160,
                    "time": 298.7498805,
                    "velocity": 0.5039370078740157,
                },
                {
                    "duration": 0.19791658750006036,
                    "durationTicks": 228,
                    "midi": 65,
                    "name": "F4",
                    "ticks": 344400,
                    "time": 298.95821374999997,
                    "velocity": 0.6062992125984252,
                },
                {
                    "duration": 0.19791658750000352,
                    "durationTicks": 228,
                    "midi": 71,
                    "name": "B4",
                    "ticks": 344640,
                    "time": 299.166547,
                    "velocity": 0.6692913385826772,
                },
                {
                    "duration": 0.19791658750000352,
                    "durationTicks": 228,
                    "midi": 65,
                    "name": "F4",
                    "ticks": 344880,
                    "time": 299.37488025,
                    "velocity": 0.5039370078740157,
                },
                {
                    "duration": 0.19791658750000352,
                    "durationTicks": 228,
                    "midi": 62,
                    "name": "D4",
                    "ticks": 345120,
                    "time": 299.5832135,
                    "velocity": 0.5590551181102362,
                },
                {
                    "duration": 0.19791658750000352,
                    "durationTicks": 228,
                    "midi": 74,
                    "name": "D5",
                    "ticks": 345360,
                    "time": 299.79154675,
                    "velocity": 0.7559055118110236,
                },
                {
                    "duration": 0.3967012302082935,
                    "durationTicks": 457,
                    "midi": 73,
                    "name": "C#5",
                    "ticks": 345600,
                    "time": 299.99988,
                    "velocity": 0.5748031496062992,
                },
                {
                    "duration": 0.19791658750000352,
                    "durationTicks": 228,
                    "midi": 65,
                    "name": "F4",
                    "ticks": 347760,
                    "time": 301.87487925,
                    "velocity": 0.47244094488188976,
                },
                {
                    "duration": 0.19791658750000352,
                    "durationTicks": 228,
                    "midi": 62,
                    "name": "D4",
                    "ticks": 348000,
                    "time": 302.0832125,
                    "velocity": 0.4566929133858268,
                },
                {
                    "duration": 0.19791658750000352,
                    "durationTicks": 228,
                    "midi": 65,
                    "name": "F4",
                    "ticks": 348240,
                    "time": 302.29154575,
                    "velocity": 0.5196850393700787,
                },
                {
                    "duration": 0.19791658750000352,
                    "durationTicks": 228,
                    "midi": 71,
                    "name": "B4",
                    "ticks": 348480,
                    "time": 302.499879,
                    "velocity": 0.4645669291338583,
                },
                {
                    "duration": 0.19791658750000352,
                    "durationTicks": 228,
                    "midi": 65,
                    "name": "F4",
                    "ticks": 348720,
                    "time": 302.70821225,
                    "velocity": 0.3937007874015748,
                },
                {
                    "duration": 0.19791658750000352,
                    "durationTicks": 228,
                    "midi": 62,
                    "name": "D4",
                    "ticks": 348960,
                    "time": 302.9165455,
                    "velocity": 0.33858267716535434,
                },
                {
                    "duration": 0.19791658750000352,
                    "durationTicks": 228,
                    "midi": 68,
                    "name": "G#4",
                    "ticks": 349200,
                    "time": 303.12487875,
                    "velocity": 0.4409448818897638,
                },
                {
                    "duration": 0.7942705156249872,
                    "durationTicks": 915,
                    "midi": 69,
                    "name": "A4",
                    "ticks": 349440,
                    "time": 303.333212,
                    "velocity": 0.33070866141732286,
                },
                {
                    "duration": 0.23697907187499823,
                    "durationTicks": 273,
                    "midi": 69,
                    "name": "A4",
                    "ticks": 350400,
                    "time": 304.166545,
                    "velocity": 0.2677165354330709,
                },
                {
                    "duration": 0.23697907187499823,
                    "durationTicks": 273,
                    "midi": 71,
                    "name": "B4",
                    "ticks": 350880,
                    "time": 304.5832115,
                    "velocity": 0.3228346456692913,
                },
                {
                    "duration": 0.4748261989583398,
                    "durationTicks": 547,
                    "midi": 72,
                    "name": "C5",
                    "ticks": 351360,
                    "time": 304.999878,
                    "velocity": 0.31496062992125984,
                },
                {
                    "duration": 0.44878454270832435,
                    "durationTicks": 517,
                    "midi": 72,
                    "name": "C5",
                    "ticks": 352320,
                    "time": 305.833211,
                    "velocity": 0.2755905511811024,
                },
                {
                    "duration": 0.7942705156249872,
                    "durationTicks": 915,
                    "midi": 71,
                    "name": "B4",
                    "ticks": 353280,
                    "time": 306.666544,
                    "velocity": 0.25984251968503935,
                },
                {
                    "duration": 0.23697907187505507,
                    "durationTicks": 273,
                    "midi": 71,
                    "name": "B4",
                    "ticks": 354240,
                    "time": 307.49987699999997,
                    "velocity": 0.29133858267716534,
                },
                {
                    "duration": 0.23697907187499823,
                    "durationTicks": 273,
                    "midi": 73,
                    "name": "C#5",
                    "ticks": 354720,
                    "time": 307.9165435,
                    "velocity": 0.31496062992125984,
                },
                {
                    "duration": 0.23697907187499823,
                    "durationTicks": 273,
                    "midi": 74,
                    "name": "D5",
                    "ticks": 355200,
                    "time": 308.33321,
                    "velocity": 0.30708661417322836,
                },
                {
                    "duration": 0.23697907187505507,
                    "durationTicks": 273,
                    "midi": 72,
                    "name": "C5",
                    "ticks": 355680,
                    "time": 308.74987649999997,
                    "velocity": 0.2204724409448819,
                },
                {
                    "duration": 0.23697907187499823,
                    "durationTicks": 273,
                    "midi": 71,
                    "name": "B4",
                    "ticks": 356160,
                    "time": 309.166543,
                    "velocity": 0.25196850393700787,
                },
                {
                    "duration": 0.23697907187499823,
                    "durationTicks": 273,
                    "midi": 69,
                    "name": "A4",
                    "ticks": 356640,
                    "time": 309.5832095,
                    "velocity": 0.28346456692913385,
                },
                {
                    "duration": 0.11718745312504097,
                    "durationTicks": 135,
                    "midi": 67,
                    "name": "G4",
                    "ticks": 357120,
                    "time": 309.999876,
                    "velocity": 0.25984251968503935,
                },
                {
                    "duration": 0.11718745312504097,
                    "durationTicks": 135,
                    "midi": 69,
                    "name": "A4",
                    "ticks": 357360,
                    "time": 310.20820925,
                    "velocity": 0.44881889763779526,
                },
                {
                    "duration": 0.11718745312498413,
                    "durationTicks": 135,
                    "midi": 71,
                    "name": "B4",
                    "ticks": 357600,
                    "time": 310.4165425,
                    "velocity": 0.41732283464566927,
                },
                {
                    "duration": 0.11718745312498413,
                    "durationTicks": 135,
                    "midi": 69,
                    "name": "A4",
                    "ticks": 357840,
                    "time": 310.62487575,
                    "velocity": 0.3543307086614173,
                },
                {
                    "duration": 0.11718745312498413,
                    "durationTicks": 135,
                    "midi": 67,
                    "name": "G4",
                    "ticks": 358080,
                    "time": 310.833209,
                    "velocity": 0.3543307086614173,
                },
                {
                    "duration": 0.11718745312498413,
                    "durationTicks": 135,
                    "midi": 69,
                    "name": "A4",
                    "ticks": 358320,
                    "time": 311.04154225,
                    "velocity": 0.4094488188976378,
                },
                {
                    "duration": 0.11718745312504097,
                    "durationTicks": 135,
                    "midi": 67,
                    "name": "G4",
                    "ticks": 358560,
                    "time": 311.2498755,
                    "velocity": 0.3858267716535433,
                },
                {
                    "duration": 0.11718745312504097,
                    "durationTicks": 135,
                    "midi": 66,
                    "name": "F#4",
                    "ticks": 358800,
                    "time": 311.45820875,
                    "velocity": 0.36220472440944884,
                },
                {
                    "duration": 0.11718745312498413,
                    "durationTicks": 135,
                    "midi": 64,
                    "name": "E4",
                    "ticks": 359040,
                    "time": 311.666542,
                    "velocity": 0.3464566929133858,
                },
                {
                    "duration": 0.11718745312498413,
                    "durationTicks": 135,
                    "midi": 66,
                    "name": "F#4",
                    "ticks": 359280,
                    "time": 311.87487525,
                    "velocity": 0.4094488188976378,
                },
                {
                    "duration": 0.11718745312498413,
                    "durationTicks": 135,
                    "midi": 67,
                    "name": "G4",
                    "ticks": 359520,
                    "time": 312.0832085,
                    "velocity": 0.41732283464566927,
                },
                {
                    "duration": 0.11718745312498413,
                    "durationTicks": 135,
                    "midi": 69,
                    "name": "A4",
                    "ticks": 359760,
                    "time": 312.29154175,
                    "velocity": 0.3858267716535433,
                },
                {
                    "duration": 0.11718745312504097,
                    "durationTicks": 135,
                    "midi": 71,
                    "name": "B4",
                    "ticks": 360000,
                    "time": 312.499875,
                    "velocity": 0.41732283464566927,
                },
                {
                    "duration": 0.11718745312498413,
                    "durationTicks": 135,
                    "midi": 73,
                    "name": "C#5",
                    "ticks": 360240,
                    "time": 312.70820825,
                    "velocity": 0.4251968503937008,
                },
                {
                    "duration": 0.11718745312498413,
                    "durationTicks": 135,
                    "midi": 75,
                    "name": "D#5",
                    "ticks": 360480,
                    "time": 312.9165415,
                    "velocity": 0.4094488188976378,
                },
                {
                    "duration": 0.11718745312498413,
                    "durationTicks": 135,
                    "midi": 76,
                    "name": "E5",
                    "ticks": 360720,
                    "time": 313.12487475,
                    "velocity": 0.4251968503937008,
                },
                {
                    "duration": 0.11718745312498413,
                    "durationTicks": 135,
                    "midi": 76,
                    "name": "E5",
                    "ticks": 360960,
                    "time": 313.333208,
                    "velocity": 0.41732283464566927,
                },
                {
                    "duration": 0.11718745312498413,
                    "durationTicks": 135,
                    "midi": 69,
                    "name": "A4",
                    "ticks": 361200,
                    "time": 313.54154125,
                    "velocity": 0.2992125984251969,
                },
                {
                    "duration": 0.11718745312504097,
                    "durationTicks": 135,
                    "midi": 71,
                    "name": "B4",
                    "ticks": 361440,
                    "time": 313.7498745,
                    "velocity": 0.4251968503937008,
                },
                {
                    "duration": 0.11718745312498413,
                    "durationTicks": 135,
                    "midi": 73,
                    "name": "C#5",
                    "ticks": 361680,
                    "time": 313.95820775,
                    "velocity": 0.41732283464566927,
                },
                {
                    "duration": 0.11718745312498413,
                    "durationTicks": 135,
                    "midi": 74,
                    "name": "D5",
                    "ticks": 361920,
                    "time": 314.166541,
                    "velocity": 0.41732283464566927,
                },
                {
                    "duration": 0.11718745312498413,
                    "durationTicks": 135,
                    "midi": 71,
                    "name": "B4",
                    "ticks": 362160,
                    "time": 314.37487425,
                    "velocity": 0.3464566929133858,
                },
                {
                    "duration": 0.11718745312498413,
                    "durationTicks": 135,
                    "midi": 76,
                    "name": "E5",
                    "ticks": 362400,
                    "time": 314.5832075,
                    "velocity": 0.4094488188976378,
                },
                {
                    "duration": 0.11718745312498413,
                    "durationTicks": 135,
                    "midi": 74,
                    "name": "D5",
                    "ticks": 362640,
                    "time": 314.79154075,
                    "velocity": 0.33858267716535434,
                },
                {
                    "duration": 0.11718745312504097,
                    "durationTicks": 135,
                    "midi": 72,
                    "name": "C5",
                    "ticks": 362880,
                    "time": 314.999874,
                    "velocity": 0.4330708661417323,
                },
                {
                    "duration": 0.11718745312498413,
                    "durationTicks": 135,
                    "midi": 71,
                    "name": "B4",
                    "ticks": 363120,
                    "time": 315.20820725,
                    "velocity": 0.3464566929133858,
                },
                {
                    "duration": 0.11718745312498413,
                    "durationTicks": 135,
                    "midi": 72,
                    "name": "C5",
                    "ticks": 363360,
                    "time": 315.4165405,
                    "velocity": 0.4330708661417323,
                },
                {
                    "duration": 0.11718745312498413,
                    "durationTicks": 135,
                    "midi": 74,
                    "name": "D5",
                    "ticks": 363600,
                    "time": 315.62487375,
                    "velocity": 0.3937007874015748,
                },
                {
                    "duration": 0.11718745312498413,
                    "durationTicks": 135,
                    "midi": 76,
                    "name": "E5",
                    "ticks": 363840,
                    "time": 315.833207,
                    "velocity": 0.41732283464566927,
                },
                {
                    "duration": 0.11718745312504097,
                    "durationTicks": 135,
                    "midi": 64,
                    "name": "E4",
                    "ticks": 364080,
                    "time": 316.04154024999997,
                    "velocity": 0.31496062992125984,
                },
                {
                    "duration": 0.11718745312504097,
                    "durationTicks": 135,
                    "midi": 66,
                    "name": "F#4",
                    "ticks": 364320,
                    "time": 316.2498735,
                    "velocity": 0.41732283464566927,
                },
                {
                    "duration": 0.11718745312498413,
                    "durationTicks": 135,
                    "midi": 68,
                    "name": "G#4",
                    "ticks": 364560,
                    "time": 316.45820675,
                    "velocity": 0.4015748031496063,
                },
                {
                    "duration": 0.7942705156249872,
                    "durationTicks": 915,
                    "midi": 69,
                    "name": "A4",
                    "ticks": 364800,
                    "time": 316.66654,
                    "velocity": 0.3937007874015748,
                },
                {
                    "duration": 0.8133677302083129,
                    "durationTicks": 937,
                    "midi": 78,
                    "name": "F#5",
                    "ticks": 372000,
                    "time": 322.9165375,
                    "velocity": 0.3464566929133858,
                },
                {
                    "duration": 0.7942705156249872,
                    "durationTicks": 915,
                    "midi": 76,
                    "name": "E5",
                    "ticks": 372960,
                    "time": 323.7498705,
                    "velocity": 0.28346456692913385,
                },
                {
                    "duration": 0.8133677302083129,
                    "durationTicks": 937,
                    "midi": 83,
                    "name": "B5",
                    "ticks": 373920,
                    "time": 324.5832035,
                    "velocity": 0.3464566929133858,
                },
                {
                    "duration": 0.7942705156249872,
                    "durationTicks": 915,
                    "midi": 76,
                    "name": "E5",
                    "ticks": 374880,
                    "time": 325.4165365,
                    "velocity": 0.2440944881889764,
                },
                {
                    "duration": 0.8133677302083697,
                    "durationTicks": 937,
                    "midi": 83,
                    "name": "B5",
                    "ticks": 375840,
                    "time": 326.2498695,
                    "velocity": 0.31496062992125984,
                },
                {
                    "duration": 0.794270515625044,
                    "durationTicks": 915,
                    "midi": 81,
                    "name": "A5",
                    "ticks": 376800,
                    "time": 327.08320249999997,
                    "velocity": 0.29133858267716534,
                },
                {
                    "duration": 0.39670123020835035,
                    "durationTicks": 457,
                    "midi": 83,
                    "name": "B5",
                    "ticks": 377760,
                    "time": 327.9165355,
                    "velocity": 0.31496062992125984,
                },
                {
                    "duration": 0.23697907187505507,
                    "durationTicks": 273,
                    "midi": 84,
                    "name": "C6",
                    "ticks": 378240,
                    "time": 328.33320199999997,
                    "velocity": 0.3228346456692913,
                },
                {
                    "duration": 0.23697907187499823,
                    "durationTicks": 273,
                    "midi": 81,
                    "name": "A5",
                    "ticks": 378720,
                    "time": 328.7498685,
                    "velocity": 0.25196850393700787,
                },
                {
                    "duration": 0.11718745312498413,
                    "durationTicks": 135,
                    "midi": 80,
                    "name": "G#5",
                    "ticks": 379200,
                    "time": 329.166535,
                    "velocity": 0.25196850393700787,
                },
                {
                    "duration": 0.11718745312498413,
                    "durationTicks": 135,
                    "midi": 80,
                    "name": "G#5",
                    "ticks": 379440,
                    "time": 329.37486825,
                    "velocity": 0.2677165354330709,
                },
                {
                    "duration": 0.11718745312504097,
                    "durationTicks": 135,
                    "midi": 81,
                    "name": "A5",
                    "ticks": 379680,
                    "time": 329.5832015,
                    "velocity": 0.2677165354330709,
                },
                {
                    "duration": 0.11718745312504097,
                    "durationTicks": 135,
                    "midi": 83,
                    "name": "B5",
                    "ticks": 379920,
                    "time": 329.79153475,
                    "velocity": 0.30708661417322836,
                },
                {
                    "duration": 0.7942705156249872,
                    "durationTicks": 915,
                    "midi": 81,
                    "name": "A5",
                    "ticks": 380160,
                    "time": 329.999868,
                    "velocity": 0.2440944881889764,
                },
                {
                    "duration": 0.11718745312498413,
                    "durationTicks": 135,
                    "midi": 78,
                    "name": "F#5",
                    "ticks": 383280,
                    "time": 332.70820025,
                    "velocity": 0.3543307086614173,
                },
                {
                    "duration": 0.11718745312498413,
                    "durationTicks": 135,
                    "midi": 79,
                    "name": "G5",
                    "ticks": 383520,
                    "time": 332.9165335,
                    "velocity": 0.4015748031496063,
                },
                {
                    "duration": 0.11718745312498413,
                    "durationTicks": 135,
                    "midi": 81,
                    "name": "A5",
                    "ticks": 383760,
                    "time": 333.12486675,
                    "velocity": 0.3779527559055118,
                },
                {
                    "duration": 0.39670123020835035,
                    "durationTicks": 457,
                    "midi": 79,
                    "name": "G5",
                    "ticks": 384000,
                    "time": 333.3332,
                    "velocity": 0.33858267716535434,
                },
                {
                    "duration": 0.39670123020835035,
                    "durationTicks": 457,
                    "midi": 67,
                    "name": "G4",
                    "ticks": 384480,
                    "time": 333.7498665,
                    "velocity": 0.28346456692913385,
                },
                {
                    "duration": 1.627603515624969,
                    "durationTicks": 1875,
                    "midi": 72,
                    "name": "C5",
                    "ticks": 384960,
                    "time": 334.166533,
                    "velocity": 0.3779527559055118,
                },
                {
                    "duration": 0.23697907187499823,
                    "durationTicks": 273,
                    "midi": 72,
                    "name": "C5",
                    "ticks": 386880,
                    "time": 335.833199,
                    "velocity": 0.4094488188976378,
                },
                {
                    "duration": 0.23697907187499823,
                    "durationTicks": 273,
                    "midi": 74,
                    "name": "D5",
                    "ticks": 387360,
                    "time": 336.2498655,
                    "velocity": 0.3858267716535433,
                },
                {
                    "duration": 0.4748261989583398,
                    "durationTicks": 547,
                    "midi": 76,
                    "name": "E5",
                    "ticks": 387840,
                    "time": 336.666532,
                    "velocity": 0.4330708661417323,
                },
                {
                    "duration": 0.44878454270832435,
                    "durationTicks": 517,
                    "midi": 76,
                    "name": "E5",
                    "ticks": 388800,
                    "time": 337.499865,
                    "velocity": 0.3779527559055118,
                },
                {
                    "duration": 0.11718745312504097,
                    "durationTicks": 135,
                    "midi": 71,
                    "name": "B4",
                    "ticks": 389760,
                    "time": 338.333198,
                    "velocity": 0.33070866141732286,
                },
                {
                    "duration": 0.11718745312498413,
                    "durationTicks": 135,
                    "midi": 72,
                    "name": "C5",
                    "ticks": 390000,
                    "time": 338.54153125,
                    "velocity": 0.3937007874015748,
                },
                {
                    "duration": 0.11718745312498413,
                    "durationTicks": 135,
                    "midi": 74,
                    "name": "D5",
                    "ticks": 390240,
                    "time": 338.7498645,
                    "velocity": 0.4094488188976378,
                },
                {
                    "duration": 0.11718745312498413,
                    "durationTicks": 135,
                    "midi": 72,
                    "name": "C5",
                    "ticks": 390480,
                    "time": 338.95819775,
                    "velocity": 0.3779527559055118,
                },
                {
                    "duration": 0.11718745312498413,
                    "durationTicks": 135,
                    "midi": 71,
                    "name": "B4",
                    "ticks": 390720,
                    "time": 339.166531,
                    "velocity": 0.3543307086614173,
                },
                {
                    "duration": 0.11718745312504097,
                    "durationTicks": 135,
                    "midi": 74,
                    "name": "D5",
                    "ticks": 390960,
                    "time": 339.37486425,
                    "velocity": 0.3937007874015748,
                },
                {
                    "duration": 0.11718745312504097,
                    "durationTicks": 135,
                    "midi": 72,
                    "name": "C5",
                    "ticks": 391200,
                    "time": 339.5831975,
                    "velocity": 0.3543307086614173,
                },
                {
                    "duration": 0.11718745312498413,
                    "durationTicks": 135,
                    "midi": 71,
                    "name": "B4",
                    "ticks": 391440,
                    "time": 339.79153075,
                    "velocity": 0.3700787401574803,
                },
                {
                    "duration": 0.11718745312498413,
                    "durationTicks": 135,
                    "midi": 69,
                    "name": "A4",
                    "ticks": 391680,
                    "time": 339.999864,
                    "velocity": 0.3700787401574803,
                },
                {
                    "duration": 0.11718745312498413,
                    "durationTicks": 135,
                    "midi": 71,
                    "name": "B4",
                    "ticks": 391920,
                    "time": 340.20819725,
                    "velocity": 0.4094488188976378,
                },
                {
                    "duration": 0.11718745312498413,
                    "durationTicks": 135,
                    "midi": 72,
                    "name": "C5",
                    "ticks": 392160,
                    "time": 340.4165305,
                    "velocity": 0.4251968503937008,
                },
                {
                    "duration": 0.11718745312504097,
                    "durationTicks": 135,
                    "midi": 74,
                    "name": "D5",
                    "ticks": 392400,
                    "time": 340.62486375,
                    "velocity": 0.4251968503937008,
                },
                {
                    "duration": 0.11718745312498413,
                    "durationTicks": 135,
                    "midi": 76,
                    "name": "E5",
                    "ticks": 392640,
                    "time": 340.833197,
                    "velocity": 0.3779527559055118,
                },
                {
                    "duration": 0.11718745312498413,
                    "durationTicks": 135,
                    "midi": 78,
                    "name": "F#5",
                    "ticks": 392880,
                    "time": 341.04153025,
                    "velocity": 0.4094488188976378,
                },
                {
                    "duration": 0.11718745312498413,
                    "durationTicks": 135,
                    "midi": 80,
                    "name": "G#5",
                    "ticks": 393120,
                    "time": 341.2498635,
                    "velocity": 0.3779527559055118,
                },
                {
                    "duration": 0.11718745312498413,
                    "durationTicks": 135,
                    "midi": 81,
                    "name": "A5",
                    "ticks": 393360,
                    "time": 341.45819675,
                    "velocity": 0.4094488188976378,
                },
                {
                    "duration": 0.11718745312498413,
                    "durationTicks": 135,
                    "midi": 67,
                    "name": "G4",
                    "ticks": 393600,
                    "time": 341.66653,
                    "velocity": 0.2755905511811024,
                },
                {
                    "duration": 0.11718745312504097,
                    "durationTicks": 135,
                    "midi": 69,
                    "name": "A4",
                    "ticks": 393840,
                    "time": 341.87486325,
                    "velocity": 0.3543307086614173,
                },
                {
                    "duration": 0.11718745312498413,
                    "durationTicks": 135,
                    "midi": 70,
                    "name": "A#4",
                    "ticks": 394080,
                    "time": 342.0831965,
                    "velocity": 0.3858267716535433,
                },
                {
                    "duration": 0.11718745312498413,
                    "durationTicks": 135,
                    "midi": 69,
                    "name": "A4",
                    "ticks": 394320,
                    "time": 342.29152975,
                    "velocity": 0.3700787401574803,
                },
                {
                    "duration": 0.11718745312498413,
                    "durationTicks": 135,
                    "midi": 67,
                    "name": "G4",
                    "ticks": 394560,
                    "time": 342.499863,
                    "velocity": 0.33070866141732286,
                },
                {
                    "duration": 0.11718745312498413,
                    "durationTicks": 135,
                    "midi": 70,
                    "name": "A#4",
                    "ticks": 394800,
                    "time": 342.70819625,
                    "velocity": 0.4251968503937008,
                },
                {
                    "duration": 0.11718745312498413,
                    "durationTicks": 135,
                    "midi": 69,
                    "name": "A4",
                    "ticks": 395040,
                    "time": 342.9165295,
                    "velocity": 0.36220472440944884,
                },
                {
                    "duration": 0.11718745312504097,
                    "durationTicks": 135,
                    "midi": 67,
                    "name": "G4",
                    "ticks": 395280,
                    "time": 343.12486275,
                    "velocity": 0.3779527559055118,
                },
                {
                    "duration": 0.11718745312498413,
                    "durationTicks": 135,
                    "midi": 65,
                    "name": "F4",
                    "ticks": 395520,
                    "time": 343.333196,
                    "velocity": 0.36220472440944884,
                },
                {
                    "duration": 0.11718745312498413,
                    "durationTicks": 135,
                    "midi": 67,
                    "name": "G4",
                    "ticks": 395760,
                    "time": 343.54152925,
                    "velocity": 0.41732283464566927,
                },
                {
                    "duration": 0.11718745312498413,
                    "durationTicks": 135,
                    "midi": 69,
                    "name": "A4",
                    "ticks": 396000,
                    "time": 343.7498625,
                    "velocity": 0.41732283464566927,
                },
                {
                    "duration": 0.11718745312498413,
                    "durationTicks": 135,
                    "midi": 70,
                    "name": "A#4",
                    "ticks": 396240,
                    "time": 343.95819575,
                    "velocity": 0.3937007874015748,
                },
                {
                    "duration": 0.39670123020835035,
                    "durationTicks": 457,
                    "midi": 72,
                    "name": "C5",
                    "ticks": 396480,
                    "time": 344.16652899999997,
                    "velocity": 0.4094488188976378,
                },
                {
                    "duration": 0.8133677302083697,
                    "durationTicks": 937,
                    "midi": 81,
                    "name": "A5",
                    "ticks": 396960,
                    "time": 344.5831955,
                    "velocity": 0.4566929133858268,
                },
                {
                    "duration": 0.794270515625044,
                    "durationTicks": 915,
                    "midi": 79,
                    "name": "G5",
                    "ticks": 397920,
                    "time": 345.41652849999997,
                    "velocity": 0.3779527559055118,
                },
                {
                    "duration": 0.8133677302083129,
                    "durationTicks": 937,
                    "midi": 79,
                    "name": "G5",
                    "ticks": 398880,
                    "time": 346.2498615,
                    "velocity": 0.3543307086614173,
                },
                {
                    "duration": 0.7942705156249872,
                    "durationTicks": 915,
                    "midi": 77,
                    "name": "F5",
                    "ticks": 399840,
                    "time": 347.0831945,
                    "velocity": 0.3937007874015748,
                },
                {
                    "duration": 0.39670123020835035,
                    "durationTicks": 457,
                    "midi": 77,
                    "name": "F5",
                    "ticks": 400800,
                    "time": 347.9165275,
                    "velocity": 0.3464566929133858,
                },
                {
                    "duration": 0.11718745312498413,
                    "durationTicks": 135,
                    "midi": 77,
                    "name": "F5",
                    "ticks": 401280,
                    "time": 348.333194,
                    "velocity": 0.41732283464566927,
                },
                {
                    "duration": 0.11718745312498413,
                    "durationTicks": 135,
                    "midi": 74,
                    "name": "D5",
                    "ticks": 401520,
                    "time": 348.54152725,
                    "velocity": 0.3858267716535433,
                },
                {
                    "duration": 0.11718745312498413,
                    "durationTicks": 135,
                    "midi": 76,
                    "name": "E5",
                    "ticks": 401760,
                    "time": 348.7498605,
                    "velocity": 0.4409448818897638,
                },
                {
                    "duration": 0.11718745312498413,
                    "durationTicks": 135,
                    "midi": 77,
                    "name": "F5",
                    "ticks": 402000,
                    "time": 348.95819375,
                    "velocity": 0.4645669291338583,
                },
                {
                    "duration": 0.11718745312504097,
                    "durationTicks": 135,
                    "midi": 74,
                    "name": "D5",
                    "ticks": 402240,
                    "time": 349.166527,
                    "velocity": 0.41732283464566927,
                },
                {
                    "duration": 0.11718745312504097,
                    "durationTicks": 135,
                    "midi": 71,
                    "name": "B4",
                    "ticks": 402480,
                    "time": 349.37486025,
                    "velocity": 0.4094488188976378,
                },
                {
                    "duration": 0.11718745312498413,
                    "durationTicks": 135,
                    "midi": 72,
                    "name": "C5",
                    "ticks": 402720,
                    "time": 349.5831935,
                    "velocity": 0.4881889763779528,
                },
                {
                    "duration": 0.11718745312498413,
                    "durationTicks": 135,
                    "midi": 74,
                    "name": "D5",
                    "ticks": 402960,
                    "time": 349.79152675,
                    "velocity": 0.5039370078740157,
                },
                {
                    "duration": 0.11718745312498413,
                    "durationTicks": 135,
                    "midi": 71,
                    "name": "B4",
                    "ticks": 403200,
                    "time": 349.99986,
                    "velocity": 0.4409448818897638,
                },
                {
                    "duration": 0.11718745312498413,
                    "durationTicks": 135,
                    "midi": 68,
                    "name": "G#4",
                    "ticks": 403440,
                    "time": 350.20819325,
                    "velocity": 0.4566929133858268,
                },
                {
                    "duration": 0.11718745312504097,
                    "durationTicks": 135,
                    "midi": 69,
                    "name": "A4",
                    "ticks": 403680,
                    "time": 350.4165265,
                    "velocity": 0.5590551181102362,
                },
                {
                    "duration": 0.11718745312498413,
                    "durationTicks": 135,
                    "midi": 71,
                    "name": "B4",
                    "ticks": 403920,
                    "time": 350.62485975,
                    "velocity": 0.5669291338582677,
                },
                {
                    "duration": 0.11718745312498413,
                    "durationTicks": 135,
                    "midi": 68,
                    "name": "G#4",
                    "ticks": 404160,
                    "time": 350.833193,
                    "velocity": 0.5275590551181102,
                },
                {
                    "duration": 0.11718745312498413,
                    "durationTicks": 135,
                    "midi": 69,
                    "name": "A4",
                    "ticks": 404400,
                    "time": 351.04152625,
                    "velocity": 0.6377952755905512,
                },
                {
                    "duration": 0.11718745312498413,
                    "durationTicks": 135,
                    "midi": 71,
                    "name": "B4",
                    "ticks": 404640,
                    "time": 351.2498595,
                    "velocity": 0.6535433070866141,
                },
                {
                    "duration": 0.11718745312498413,
                    "durationTicks": 135,
                    "midi": 72,
                    "name": "C5",
                    "ticks": 404880,
                    "time": 351.45819275,
                    "velocity": 0.6299212598425197,
                },
                {
                    "duration": 0.11718745312504097,
                    "durationTicks": 135,
                    "midi": 74,
                    "name": "D5",
                    "ticks": 405120,
                    "time": 351.666526,
                    "velocity": 0.6692913385826772,
                },
                {
                    "duration": 0.11718745312498413,
                    "durationTicks": 135,
                    "midi": 76,
                    "name": "E5",
                    "ticks": 405360,
                    "time": 351.87485925,
                    "velocity": 0.6771653543307087,
                },
                {
                    "duration": 0.11718745312498413,
                    "durationTicks": 135,
                    "midi": 77,
                    "name": "F5",
                    "ticks": 405600,
                    "time": 352.0831925,
                    "velocity": 0.7086614173228346,
                },
                {
                    "duration": 0.11718745312498413,
                    "durationTicks": 135,
                    "midi": 80,
                    "name": "G#5",
                    "ticks": 405840,
                    "time": 352.29152575,
                    "velocity": 0.7244094488188977,
                },
                {
                    "duration": 0.11718745312498413,
                    "durationTicks": 135,
                    "midi": 81,
                    "name": "A5",
                    "ticks": 406080,
                    "time": 352.499859,
                    "velocity": 0.7244094488188977,
                },
                {
                    "duration": 0.11718745312504097,
                    "durationTicks": 135,
                    "midi": 83,
                    "name": "B5",
                    "ticks": 406320,
                    "time": 352.70819224999997,
                    "velocity": 0.7322834645669292,
                },
                {
                    "duration": 0.11718745312504097,
                    "durationTicks": 135,
                    "midi": 84,
                    "name": "C6",
                    "ticks": 406560,
                    "time": 352.9165255,
                    "velocity": 0.7716535433070866,
                },
                {
                    "duration": 0.11718745312498413,
                    "durationTicks": 135,
                    "midi": 85,
                    "name": "C#6",
                    "ticks": 406800,
                    "time": 353.12485875,
                    "velocity": 0.8031496062992126,
                },
                {
                    "duration": 0.11718745312498413,
                    "durationTicks": 135,
                    "midi": 86,
                    "name": "D6",
                    "ticks": 407040,
                    "time": 353.333192,
                    "velocity": 0.7952755905511811,
                },
                {
                    "duration": 0.11718745312498413,
                    "durationTicks": 135,
                    "midi": 88,
                    "name": "E6",
                    "ticks": 407280,
                    "time": 353.54152525,
                    "velocity": 0.8188976377952756,
                },
                {
                    "duration": 0.11718745312498413,
                    "durationTicks": 135,
                    "midi": 88,
                    "name": "E6",
                    "ticks": 407520,
                    "time": 353.7498585,
                    "velocity": 0.7716535433070866,
                },
                {
                    "duration": 0.11718745312504097,
                    "durationTicks": 135,
                    "midi": 88,
                    "name": "E6",
                    "ticks": 407760,
                    "time": 353.95819174999997,
                    "velocity": 0.7716535433070866,
                },
                {
                    "duration": 0.11718745312504097,
                    "durationTicks": 135,
                    "midi": 88,
                    "name": "E6",
                    "ticks": 408000,
                    "time": 354.166525,
                    "velocity": 0.8110236220472441,
                },
                {
                    "duration": 0.11718745312498413,
                    "durationTicks": 135,
                    "midi": 88,
                    "name": "E6",
                    "ticks": 408240,
                    "time": 354.37485825,
                    "velocity": 0.8267716535433071,
                },
                {
                    "duration": 0.11718745312498413,
                    "durationTicks": 135,
                    "midi": 88,
                    "name": "E6",
                    "ticks": 408480,
                    "time": 354.5831915,
                    "velocity": 0.84251968503937,
                },
                {
                    "duration": 0.11718745312498413,
                    "durationTicks": 135,
                    "midi": 88,
                    "name": "E6",
                    "ticks": 408720,
                    "time": 354.79152475,
                    "velocity": 0.8582677165354331,
                },
                {
                    "duration": 0.7942705156249872,
                    "durationTicks": 915,
                    "midi": 76,
                    "name": "E5",
                    "ticks": 408960,
                    "time": 354.999858,
                    "velocity": 0.8818897637795275,
                },
                {
                    "duration": 0.7942705156249872,
                    "durationTicks": 915,
                    "midi": 88,
                    "name": "E6",
                    "ticks": 408960,
                    "time": 354.999858,
                    "velocity": 0.8818897637795275,
                },
                {
                    "duration": 0.23697907187499823,
                    "durationTicks": 273,
                    "midi": 76,
                    "name": "E5",
                    "ticks": 409920,
                    "time": 355.833191,
                    "velocity": 0.8661417322834646,
                },
                {
                    "duration": 0.23697907187499823,
                    "durationTicks": 273,
                    "midi": 88,
                    "name": "E6",
                    "ticks": 409920,
                    "time": 355.833191,
                    "velocity": 0.8661417322834646,
                },
                {
                    "duration": 0.23697907187499823,
                    "durationTicks": 273,
                    "midi": 76,
                    "name": "E5",
                    "ticks": 410400,
                    "time": 356.2498575,
                    "velocity": 0.8740157480314961,
                },
                {
                    "duration": 0.23697907187499823,
                    "durationTicks": 273,
                    "midi": 88,
                    "name": "E6",
                    "ticks": 410400,
                    "time": 356.2498575,
                    "velocity": 0.8740157480314961,
                },
                {
                    "duration": 0.4748261989583398,
                    "durationTicks": 547,
                    "midi": 76,
                    "name": "E5",
                    "ticks": 410880,
                    "time": 356.666524,
                    "velocity": 0.8818897637795275,
                },
                {
                    "duration": 0.4748261989583398,
                    "durationTicks": 547,
                    "midi": 88,
                    "name": "E6",
                    "ticks": 410880,
                    "time": 356.666524,
                    "velocity": 0.8818897637795275,
                },
                {
                    "duration": 0.44878454270832435,
                    "durationTicks": 517,
                    "midi": 76,
                    "name": "E5",
                    "ticks": 411840,
                    "time": 357.499857,
                    "velocity": 0.8582677165354331,
                },
                {
                    "duration": 0.44878454270832435,
                    "durationTicks": 517,
                    "midi": 88,
                    "name": "E6",
                    "ticks": 411840,
                    "time": 357.499857,
                    "velocity": 0.8582677165354331,
                },
                {
                    "duration": 0.7942705156249872,
                    "durationTicks": 915,
                    "midi": 76,
                    "name": "E5",
                    "ticks": 412800,
                    "time": 358.33319,
                    "velocity": 0.8818897637795275,
                },
                {
                    "duration": 0.7942705156249872,
                    "durationTicks": 915,
                    "midi": 88,
                    "name": "E6",
                    "ticks": 412800,
                    "time": 358.33319,
                    "velocity": 0.8818897637795275,
                },
                {
                    "duration": 0.23697907187499823,
                    "durationTicks": 273,
                    "midi": 76,
                    "name": "E5",
                    "ticks": 413760,
                    "time": 359.166523,
                    "velocity": 0.8740157480314961,
                },
                {
                    "duration": 0.23697907187499823,
                    "durationTicks": 273,
                    "midi": 88,
                    "name": "E6",
                    "ticks": 413760,
                    "time": 359.166523,
                    "velocity": 0.8740157480314961,
                },
                {
                    "duration": 0.23697907187499823,
                    "durationTicks": 273,
                    "midi": 76,
                    "name": "E5",
                    "ticks": 414240,
                    "time": 359.5831895,
                    "velocity": 0.8582677165354331,
                },
                {
                    "duration": 0.23697907187499823,
                    "durationTicks": 273,
                    "midi": 88,
                    "name": "E6",
                    "ticks": 414240,
                    "time": 359.5831895,
                    "velocity": 0.8582677165354331,
                },
                {
                    "duration": 0.4748261989583398,
                    "durationTicks": 547,
                    "midi": 76,
                    "name": "E5",
                    "ticks": 414720,
                    "time": 359.999856,
                    "velocity": 0.8740157480314961,
                },
                {
                    "duration": 0.4748261989583398,
                    "durationTicks": 547,
                    "midi": 88,
                    "name": "E6",
                    "ticks": 414720,
                    "time": 359.999856,
                    "velocity": 0.8740157480314961,
                },
                {
                    "duration": 0.44878454270832435,
                    "durationTicks": 517,
                    "midi": 76,
                    "name": "E5",
                    "ticks": 415680,
                    "time": 360.833189,
                    "velocity": 0.8582677165354331,
                },
                {
                    "duration": 0.44878454270832435,
                    "durationTicks": 517,
                    "midi": 88,
                    "name": "E6",
                    "ticks": 415680,
                    "time": 360.833189,
                    "velocity": 0.8582677165354331,
                },
                {
                    "duration": 0.7942705156249872,
                    "durationTicks": 915,
                    "midi": 76,
                    "name": "E5",
                    "ticks": 416640,
                    "time": 361.666522,
                    "velocity": 0.905511811023622,
                },
                {
                    "duration": 0.7942705156249872,
                    "durationTicks": 915,
                    "midi": 88,
                    "name": "E6",
                    "ticks": 416640,
                    "time": 361.666522,
                    "velocity": 0.905511811023622,
                },
                {
                    "duration": 0.39670123020835035,
                    "durationTicks": 457,
                    "midi": 76,
                    "name": "E5",
                    "ticks": 417600,
                    "time": 362.49985499999997,
                    "velocity": 0.8976377952755905,
                },
                {
                    "duration": 0.39670123020835035,
                    "durationTicks": 457,
                    "midi": 88,
                    "name": "E6",
                    "ticks": 417600,
                    "time": 362.49985499999997,
                    "velocity": 0.8976377952755905,
                },
                {
                    "duration": 0.39670123020835035,
                    "durationTicks": 457,
                    "midi": 76,
                    "name": "E5",
                    "ticks": 418080,
                    "time": 362.9165215,
                    "velocity": 0.889763779527559,
                },
                {
                    "duration": 0.39670123020835035,
                    "durationTicks": 457,
                    "midi": 88,
                    "name": "E6",
                    "ticks": 418080,
                    "time": 362.9165215,
                    "velocity": 0.889763779527559,
                },
                {
                    "duration": 0.4748261989583398,
                    "durationTicks": 547,
                    "midi": 76,
                    "name": "E5",
                    "ticks": 418560,
                    "time": 363.333188,
                    "velocity": 0.9133858267716536,
                },
                {
                    "duration": 0.4748261989583398,
                    "durationTicks": 547,
                    "midi": 88,
                    "name": "E6",
                    "ticks": 418560,
                    "time": 363.333188,
                    "velocity": 0.9133858267716536,
                },
                {
                    "duration": 0.44878454270832435,
                    "durationTicks": 517,
                    "midi": 76,
                    "name": "E5",
                    "ticks": 419520,
                    "time": 364.166521,
                    "velocity": 0.8582677165354331,
                },
                {
                    "duration": 0.44878454270832435,
                    "durationTicks": 517,
                    "midi": 88,
                    "name": "E6",
                    "ticks": 419520,
                    "time": 364.166521,
                    "velocity": 0.8582677165354331,
                },
                {
                    "duration": 0.794270515625044,
                    "durationTicks": 915,
                    "midi": 76,
                    "name": "E5",
                    "ticks": 420480,
                    "time": 364.99985399999997,
                    "velocity": 0.889763779527559,
                },
                {
                    "duration": 0.794270515625044,
                    "durationTicks": 915,
                    "midi": 88,
                    "name": "E6",
                    "ticks": 420480,
                    "time": 364.99985399999997,
                    "velocity": 0.889763779527559,
                },
                {
                    "duration": 0.23697907187499823,
                    "durationTicks": 273,
                    "midi": 78,
                    "name": "F#5",
                    "ticks": 421440,
                    "time": 365.833187,
                    "velocity": 0.6456692913385826,
                },
                {
                    "duration": 0.23697907187505507,
                    "durationTicks": 273,
                    "midi": 80,
                    "name": "G#5",
                    "ticks": 421920,
                    "time": 366.2498535,
                    "velocity": 0.9212598425196851,
                },
                {
                    "duration": 0.7942705156249872,
                    "durationTicks": 915,
                    "midi": 81,
                    "name": "A5",
                    "ticks": 422400,
                    "time": 366.66652,
                    "velocity": 0.905511811023622,
                },
                {
                    "duration": 0.11718745312498413,
                    "durationTicks": 135,
                    "midi": 74,
                    "name": "D5",
                    "ticks": 424320,
                    "time": 368.333186,
                    "velocity": 0.3779527559055118,
                },
                {
                    "duration": 0.11718745312498413,
                    "durationTicks": 135,
                    "midi": 71,
                    "name": "B4",
                    "ticks": 424560,
                    "time": 368.54151925,
                    "velocity": 0.30708661417322836,
                },
                {
                    "duration": 0.11718745312504097,
                    "durationTicks": 135,
                    "midi": 72,
                    "name": "C5",
                    "ticks": 424800,
                    "time": 368.7498525,
                    "velocity": 0.3937007874015748,
                },
                {
                    "duration": 0.11718745312498413,
                    "durationTicks": 135,
                    "midi": 74,
                    "name": "D5",
                    "ticks": 425040,
                    "time": 368.95818575,
                    "velocity": 0.3937007874015748,
                },
                {
                    "duration": 0.11718745312498413,
                    "durationTicks": 135,
                    "midi": 76,
                    "name": "E5",
                    "ticks": 425280,
                    "time": 369.166519,
                    "velocity": 0.3779527559055118,
                },
                {
                    "duration": 0.11718745312498413,
                    "durationTicks": 135,
                    "midi": 74,
                    "name": "D5",
                    "ticks": 425520,
                    "time": 369.37485225,
                    "velocity": 0.3543307086614173,
                },
                {
                    "duration": 0.11718745312498413,
                    "durationTicks": 135,
                    "midi": 72,
                    "name": "C5",
                    "ticks": 425760,
                    "time": 369.5831855,
                    "velocity": 0.3543307086614173,
                },
                {
                    "duration": 0.11718745312498413,
                    "durationTicks": 135,
                    "midi": 71,
                    "name": "B4",
                    "ticks": 426000,
                    "time": 369.79151875,
                    "velocity": 0.3779527559055118,
                },
                {
                    "duration": 0.794270515625044,
                    "durationTicks": 915,
                    "midi": 69,
                    "name": "A4",
                    "ticks": 426240,
                    "time": 369.999852,
                    "velocity": 0.3700787401574803,
                },
                {
                    "duration": 0.2664929489583301,
                    "durationTicks": 307,
                    "midi": 76,
                    "name": "E5",
                    "ticks": 429120,
                    "time": 372.499851,
                    "velocity": 0.3464566929133858,
                },
                {
                    "duration": 0.26736100416661657,
                    "durationTicks": 308,
                    "midi": 74,
                    "name": "D5",
                    "ticks": 429438,
                    "time": 372.77589255625,
                    "velocity": 0.3543307086614173,
                },
                {
                    "duration": 0.2508679552083777,
                    "durationTicks": 289,
                    "midi": 71,
                    "name": "B4",
                    "ticks": 429757,
                    "time": 373.0528021677083,
                    "velocity": 0.36220472440944884,
                },
                {
                    "duration": 0.2664929489583301,
                    "durationTicks": 307,
                    "midi": 76,
                    "name": "E5",
                    "ticks": 430080,
                    "time": 373.333184,
                    "velocity": 0.4409448818897638,
                },
                {
                    "duration": 0.2673610041666734,
                    "durationTicks": 308,
                    "midi": 73,
                    "name": "C#5",
                    "ticks": 430398,
                    "time": 373.60922555625,
                    "velocity": 0.3700787401574803,
                },
                {
                    "duration": 0.26996516979164653,
                    "durationTicks": 311,
                    "midi": 69,
                    "name": "A4",
                    "ticks": 430717,
                    "time": 373.88613516770835,
                    "velocity": 0.33858267716535434,
                },
                {
                    "duration": 0.2664929489583301,
                    "durationTicks": 307,
                    "midi": 73,
                    "name": "C#5",
                    "ticks": 431040,
                    "time": 374.166517,
                    "velocity": 0.4330708661417323,
                },
                {
                    "duration": 0.2673610041666734,
                    "durationTicks": 308,
                    "midi": 69,
                    "name": "A4",
                    "ticks": 431358,
                    "time": 374.44255855625,
                    "velocity": 0.3700787401574803,
                },
                {
                    "duration": 0.2699651697917034,
                    "durationTicks": 311,
                    "midi": 64,
                    "name": "E4",
                    "ticks": 431677,
                    "time": 374.7194681677083,
                    "velocity": 0.33070866141732286,
                },
                {
                    "duration": 0.2664929489583301,
                    "durationTicks": 307,
                    "midi": 69,
                    "name": "A4",
                    "ticks": 432000,
                    "time": 374.99985,
                    "velocity": 0.41732283464566927,
                },
                {
                    "duration": 0.26736100416661657,
                    "durationTicks": 308,
                    "midi": 64,
                    "name": "E4",
                    "ticks": 432318,
                    "time": 375.27589155625003,
                    "velocity": 0.2992125984251969,
                },
                {
                    "duration": 0.2699651697917034,
                    "durationTicks": 311,
                    "midi": 61,
                    "name": "C#4",
                    "ticks": 432637,
                    "time": 375.5528011677083,
                    "velocity": 0.3464566929133858,
                },
                {
                    "duration": 0.2664929489583301,
                    "durationTicks": 307,
                    "midi": 73,
                    "name": "C#5",
                    "ticks": 432960,
                    "time": 375.833183,
                    "velocity": 0.48031496062992124,
                },
                {
                    "duration": 0.2673610041666734,
                    "durationTicks": 308,
                    "midi": 69,
                    "name": "A4",
                    "ticks": 433278,
                    "time": 376.10922455625,
                    "velocity": 0.33858267716535434,
                },
                {
                    "duration": 0.25086795520832084,
                    "durationTicks": 289,
                    "midi": 64,
                    "name": "E4",
                    "ticks": 433597,
                    "time": 376.38613416770835,
                    "velocity": 0.3228346456692913,
                },
                {
                    "duration": 0.2664929489583301,
                    "durationTicks": 307,
                    "midi": 73,
                    "name": "C#5",
                    "ticks": 433920,
                    "time": 376.666516,
                    "velocity": 0.4645669291338583,
                },
                {
                    "duration": 0.2673610041666734,
                    "durationTicks": 308,
                    "midi": 66,
                    "name": "F#4",
                    "ticks": 434238,
                    "time": 376.94255755625,
                    "velocity": 0.33858267716535434,
                },
                {
                    "duration": 0.26996516979164653,
                    "durationTicks": 311,
                    "midi": 62,
                    "name": "D4",
                    "ticks": 434557,
                    "time": 377.21946716770833,
                    "velocity": 0.3464566929133858,
                },
                {
                    "duration": 0.2664929489583301,
                    "durationTicks": 307,
                    "midi": 71,
                    "name": "B4",
                    "ticks": 434880,
                    "time": 377.499849,
                    "velocity": 0.41732283464566927,
                },
                {
                    "duration": 0.26736100416661657,
                    "durationTicks": 308,
                    "midi": 66,
                    "name": "F#4",
                    "ticks": 435198,
                    "time": 377.77589055625003,
                    "velocity": 0.3700787401574803,
                },
                {
                    "duration": 0.2508679552083777,
                    "durationTicks": 289,
                    "midi": 62,
                    "name": "D4",
                    "ticks": 435517,
                    "time": 378.0528001677083,
                    "velocity": 0.3464566929133858,
                },
                {
                    "duration": 0.2664929489583301,
                    "durationTicks": 307,
                    "midi": 71,
                    "name": "B4",
                    "ticks": 435840,
                    "time": 378.333182,
                    "velocity": 0.5039370078740157,
                },
                {
                    "duration": 0.2673610041666734,
                    "durationTicks": 308,
                    "midi": 66,
                    "name": "F#4",
                    "ticks": 436158,
                    "time": 378.60922355625,
                    "velocity": 0.3779527559055118,
                },
                {
                    "duration": 0.26996516979164653,
                    "durationTicks": 311,
                    "midi": 62,
                    "name": "D4",
                    "ticks": 436477,
                    "time": 378.88613316770835,
                    "velocity": 0.3779527559055118,
                },
                {
                    "duration": 0.2664929489583301,
                    "durationTicks": 307,
                    "midi": 69,
                    "name": "A4",
                    "ticks": 436800,
                    "time": 379.166515,
                    "velocity": 0.4881889763779528,
                },
                {
                    "duration": 0.2673610041666734,
                    "durationTicks": 308,
                    "midi": 61,
                    "name": "C#4",
                    "ticks": 437118,
                    "time": 379.44255655625,
                    "velocity": 0.3779527559055118,
                },
                {
                    "duration": 0.25086795520832084,
                    "durationTicks": 289,
                    "midi": 69,
                    "name": "A4",
                    "ticks": 437437,
                    "time": 379.71946616770833,
                    "velocity": 0.48031496062992124,
                },
                {
                    "duration": 0.2664929489583301,
                    "durationTicks": 307,
                    "midi": 59,
                    "name": "B3",
                    "ticks": 437760,
                    "time": 379.999848,
                    "velocity": 0.41732283464566927,
                },
                {
                    "duration": 0.2673610041666734,
                    "durationTicks": 308,
                    "midi": 62,
                    "name": "D4",
                    "ticks": 438078,
                    "time": 380.27588955625,
                    "velocity": 0.49606299212598426,
                },
                {
                    "duration": 0.2699651697917034,
                    "durationTicks": 311,
                    "midi": 68,
                    "name": "G#4",
                    "ticks": 438397,
                    "time": 380.5527991677083,
                    "velocity": 0.5196850393700787,
                },
                {
                    "duration": 0.26649294895838693,
                    "durationTicks": 307,
                    "midi": 69,
                    "name": "A4",
                    "ticks": 438720,
                    "time": 380.83318099999997,
                    "velocity": 0.5196850393700787,
                },
                {
                    "duration": 0.2673610041666734,
                    "durationTicks": 308,
                    "midi": 61,
                    "name": "C#4",
                    "ticks": 439038,
                    "time": 381.10922255625,
                    "velocity": 0.3858267716535433,
                },
                {
                    "duration": 0.25086795520832084,
                    "durationTicks": 289,
                    "midi": 69,
                    "name": "A4",
                    "ticks": 439357,
                    "time": 381.38613216770835,
                    "velocity": 0.5196850393700787,
                },
                {
                    "duration": 0.2664929489583301,
                    "durationTicks": 307,
                    "midi": 62,
                    "name": "D4",
                    "ticks": 439680,
                    "time": 381.666514,
                    "velocity": 0.3779527559055118,
                },
                {
                    "duration": 0.2673610041666734,
                    "durationTicks": 308,
                    "midi": 66,
                    "name": "F#4",
                    "ticks": 439998,
                    "time": 381.94255555625,
                    "velocity": 0.5118110236220472,
                },
                {
                    "duration": 0.26996516979164653,
                    "durationTicks": 311,
                    "midi": 71,
                    "name": "B4",
                    "ticks": 440317,
                    "time": 382.21946516770834,
                    "velocity": 0.5826771653543307,
                },
                {
                    "duration": 0.2664929489583301,
                    "durationTicks": 307,
                    "midi": 73,
                    "name": "C#5",
                    "ticks": 440640,
                    "time": 382.499847,
                    "velocity": 0.5196850393700787,
                },
                {
                    "duration": 0.2673610041666734,
                    "durationTicks": 308,
                    "midi": 64,
                    "name": "E4",
                    "ticks": 440958,
                    "time": 382.77588855625,
                    "velocity": 0.3937007874015748,
                },
                {
                    "duration": 0.2699651697917034,
                    "durationTicks": 311,
                    "midi": 73,
                    "name": "C#5",
                    "ticks": 441277,
                    "time": 383.0527981677083,
                    "velocity": 0.5590551181102362,
                },
                {
                    "duration": 0.26649294895838693,
                    "durationTicks": 307,
                    "midi": 66,
                    "name": "F#4",
                    "ticks": 441600,
                    "time": 383.33317999999997,
                    "velocity": 0.41732283464566927,
                },
                {
                    "duration": 0.2673610041666734,
                    "durationTicks": 308,
                    "midi": 69,
                    "name": "A4",
                    "ticks": 441918,
                    "time": 383.60922155625,
                    "velocity": 0.5118110236220472,
                },
                {
                    "duration": 0.26996516979164653,
                    "durationTicks": 311,
                    "midi": 74,
                    "name": "D5",
                    "ticks": 442237,
                    "time": 383.88613116770836,
                    "velocity": 0.5433070866141733,
                },
                {
                    "duration": 0.2664929489583301,
                    "durationTicks": 307,
                    "midi": 76,
                    "name": "E5",
                    "ticks": 442560,
                    "time": 384.166513,
                    "velocity": 0.47244094488188976,
                },
                {
                    "duration": 0.2673610041666734,
                    "durationTicks": 308,
                    "midi": 68,
                    "name": "G#4",
                    "ticks": 442878,
                    "time": 384.44255455625,
                    "velocity": 0.3700787401574803,
                },
                {
                    "duration": 0.25086795520832084,
                    "durationTicks": 289,
                    "midi": 76,
                    "name": "E5",
                    "ticks": 443197,
                    "time": 384.71946416770834,
                    "velocity": 0.49606299212598426,
                },
                {
                    "duration": 0.2664929489583301,
                    "durationTicks": 307,
                    "midi": 74,
                    "name": "D5",
                    "ticks": 443520,
                    "time": 384.999846,
                    "velocity": 0.3937007874015748,
                },
                {
                    "duration": 0.2673610041666734,
                    "durationTicks": 308,
                    "midi": 68,
                    "name": "G#4",
                    "ticks": 443838,
                    "time": 385.27588755625,
                    "velocity": 0.36220472440944884,
                },
                {
                    "duration": 0.2699651697917034,
                    "durationTicks": 311,
                    "midi": 71,
                    "name": "B4",
                    "ticks": 444157,
                    "time": 385.5527971677083,
                    "velocity": 0.4330708661417323,
                },
                {
                    "duration": 0.26649294895838693,
                    "durationTicks": 307,
                    "midi": 69,
                    "name": "A4",
                    "ticks": 444480,
                    "time": 385.833179,
                    "velocity": 0.3937007874015748,
                },
                {
                    "duration": 0.26736100416661657,
                    "durationTicks": 308,
                    "midi": 73,
                    "name": "C#5",
                    "ticks": 444798,
                    "time": 386.10922055625,
                    "velocity": 0.4409448818897638,
                },
                {
                    "duration": 0.25086795520832084,
                    "durationTicks": 289,
                    "midi": 81,
                    "name": "A5",
                    "ticks": 445117,
                    "time": 386.38613016770836,
                    "velocity": 0.44881889763779526,
                },
                {
                    "duration": 0.2664929489583301,
                    "durationTicks": 307,
                    "midi": 81,
                    "name": "A5",
                    "ticks": 445440,
                    "time": 386.666512,
                    "velocity": 0.3700787401574803,
                },
                {
                    "duration": 0.2673610041666734,
                    "durationTicks": 308,
                    "midi": 73,
                    "name": "C#5",
                    "ticks": 445758,
                    "time": 386.94255355625,
                    "velocity": 0.3228346456692913,
                },
                {
                    "duration": 0.26996516979164653,
                    "durationTicks": 311,
                    "midi": 69,
                    "name": "A4",
                    "ticks": 446077,
                    "time": 387.21946316770834,
                    "velocity": 0.36220472440944884,
                },
                {
                    "duration": 0.2664929489583301,
                    "durationTicks": 307,
                    "midi": 76,
                    "name": "E5",
                    "ticks": 446400,
                    "time": 387.499845,
                    "velocity": 0.4566929133858268,
                },
                {
                    "duration": 0.2673610041666734,
                    "durationTicks": 308,
                    "midi": 73,
                    "name": "C#5",
                    "ticks": 446718,
                    "time": 387.77588655625,
                    "velocity": 0.3779527559055118,
                },
                {
                    "duration": 0.2699651697917034,
                    "durationTicks": 311,
                    "midi": 67,
                    "name": "G4",
                    "ticks": 447037,
                    "time": 388.0527961677083,
                    "velocity": 0.3700787401574803,
                },
                {
                    "duration": 0.26649294895838693,
                    "durationTicks": 307,
                    "midi": 73,
                    "name": "C#5",
                    "ticks": 447360,
                    "time": 388.333178,
                    "velocity": 0.47244094488188976,
                },
                {
                    "duration": 0.26736100416661657,
                    "durationTicks": 308,
                    "midi": 67,
                    "name": "G4",
                    "ticks": 447678,
                    "time": 388.60921955625,
                    "velocity": 0.3779527559055118,
                },
                {
                    "duration": 0.26996516979164653,
                    "durationTicks": 311,
                    "midi": 64,
                    "name": "E4",
                    "ticks": 447997,
                    "time": 388.88612916770836,
                    "velocity": 0.4094488188976378,
                },
                {
                    "duration": 0.2664929489583301,
                    "durationTicks": 307,
                    "midi": 76,
                    "name": "E5",
                    "ticks": 448320,
                    "time": 389.166511,
                    "velocity": 0.5669291338582677,
                },
                {
                    "duration": 0.2673610041666734,
                    "durationTicks": 308,
                    "midi": 73,
                    "name": "C#5",
                    "ticks": 448638,
                    "time": 389.44255255625,
                    "velocity": 0.48031496062992124,
                },
                {
                    "duration": 0.25086795520832084,
                    "durationTicks": 289,
                    "midi": 67,
                    "name": "G4",
                    "ticks": 448957,
                    "time": 389.71946216770834,
                    "velocity": 0.4251968503937008,
                },
                {
                    "duration": 0.2664929489583301,
                    "durationTicks": 307,
                    "midi": 76,
                    "name": "E5",
                    "ticks": 449280,
                    "time": 389.999844,
                    "velocity": 0.5826771653543307,
                },
                {
                    "duration": 0.2673610041666734,
                    "durationTicks": 308,
                    "midi": 73,
                    "name": "C#5",
                    "ticks": 449598,
                    "time": 390.27588555625,
                    "velocity": 0.48031496062992124,
                },
                {
                    "duration": 0.2699651697917034,
                    "durationTicks": 311,
                    "midi": 67,
                    "name": "G4",
                    "ticks": 449917,
                    "time": 390.5527951677083,
                    "velocity": 0.41732283464566927,
                },
                {
                    "duration": 0.2664929489583301,
                    "durationTicks": 307,
                    "midi": 66,
                    "name": "F#4",
                    "ticks": 450240,
                    "time": 390.833177,
                    "velocity": 0.49606299212598426,
                },
                {
                    "duration": 0.26736100416661657,
                    "durationTicks": 308,
                    "midi": 74,
                    "name": "D5",
                    "ticks": 450558,
                    "time": 391.10921855625,
                    "velocity": 0.6771653543307087,
                },
                {
                    "duration": 0.2699651697917034,
                    "durationTicks": 311,
                    "midi": 76,
                    "name": "E5",
                    "ticks": 450877,
                    "time": 391.3861281677083,
                    "velocity": 0.6141732283464567,
                },
                {
                    "duration": 0.2664929489583301,
                    "durationTicks": 307,
                    "midi": 78,
                    "name": "F#5",
                    "ticks": 451200,
                    "time": 391.66651,
                    "velocity": 0.6299212598425197,
                },
                {
                    "duration": 0.2673610041666734,
                    "durationTicks": 308,
                    "midi": 74,
                    "name": "D5",
                    "ticks": 451518,
                    "time": 391.94255155625,
                    "velocity": 0.5118110236220472,
                },
                {
                    "duration": 0.26996516979164653,
                    "durationTicks": 311,
                    "midi": 66,
                    "name": "F#4",
                    "ticks": 451837,
                    "time": 392.21946116770835,
                    "velocity": 0.4409448818897638,
                },
                {
                    "duration": 0.2664929489583301,
                    "durationTicks": 307,
                    "midi": 64,
                    "name": "E4",
                    "ticks": 452160,
                    "time": 392.499843,
                    "velocity": 0.5275590551181102,
                },
                {
                    "duration": 0.2673610041666734,
                    "durationTicks": 308,
                    "midi": 73,
                    "name": "C#5",
                    "ticks": 452478,
                    "time": 392.77588455625,
                    "velocity": 0.7559055118110236,
                },
                {
                    "duration": 0.25086795520832084,
                    "durationTicks": 289,
                    "midi": 76,
                    "name": "E5",
                    "ticks": 452797,
                    "time": 393.0527941677083,
                    "velocity": 0.7086614173228346,
                },
                {
                    "duration": 0.2664929489583301,
                    "durationTicks": 307,
                    "midi": 74,
                    "name": "D5",
                    "ticks": 453120,
                    "time": 393.333176,
                    "velocity": 0.49606299212598426,
                },
                {
                    "duration": 0.26736100416661657,
                    "durationTicks": 308,
                    "midi": 69,
                    "name": "A4",
                    "ticks": 453438,
                    "time": 393.60921755625003,
                    "velocity": 0.41732283464566927,
                },
                {
                    "duration": 0.2699651697917034,
                    "durationTicks": 311,
                    "midi": 66,
                    "name": "F#4",
                    "ticks": 453757,
                    "time": 393.8861271677083,
                    "velocity": 0.4645669291338583,
                },
                {
                    "duration": 0.2664929489583301,
                    "durationTicks": 307,
                    "midi": 64,
                    "name": "E4",
                    "ticks": 454080,
                    "time": 394.166509,
                    "velocity": 0.4645669291338583,
                },
                {
                    "duration": 0.2673610041666734,
                    "durationTicks": 308,
                    "midi": 67,
                    "name": "G4",
                    "ticks": 454398,
                    "time": 394.44255055625,
                    "velocity": 0.5039370078740157,
                },
                {
                    "duration": 0.26996516979164653,
                    "durationTicks": 311,
                    "midi": 73,
                    "name": "C#5",
                    "ticks": 454717,
                    "time": 394.71946016770835,
                    "velocity": 0.5826771653543307,
                },
                {
                    "duration": 0.2664929489583301,
                    "durationTicks": 307,
                    "midi": 74,
                    "name": "D5",
                    "ticks": 455040,
                    "time": 394.999842,
                    "velocity": 0.5118110236220472,
                },
                {
                    "duration": 0.2673610041666734,
                    "durationTicks": 308,
                    "midi": 69,
                    "name": "A4",
                    "ticks": 455358,
                    "time": 395.27588355625,
                    "velocity": 0.4566929133858268,
                },
                {
                    "duration": 0.26996516979164653,
                    "durationTicks": 311,
                    "midi": 66,
                    "name": "F#4",
                    "ticks": 455677,
                    "time": 395.55279316770833,
                    "velocity": 0.4409448818897638,
                },
                {
                    "duration": 0.2664929489583301,
                    "durationTicks": 307,
                    "midi": 64,
                    "name": "E4",
                    "ticks": 456000,
                    "time": 395.833175,
                    "velocity": 0.44881889763779526,
                },
                {
                    "duration": 0.26736100416661657,
                    "durationTicks": 308,
                    "midi": 71,
                    "name": "B4",
                    "ticks": 456318,
                    "time": 396.10921655625003,
                    "velocity": 0.6062992125984252,
                },
                {
                    "duration": 0.2699651697917034,
                    "durationTicks": 311,
                    "midi": 76,
                    "name": "E5",
                    "ticks": 456637,
                    "time": 396.3861261677083,
                    "velocity": 0.6062992125984252,
                },
                {
                    "duration": 0.2664929489583301,
                    "durationTicks": 307,
                    "midi": 73,
                    "name": "C#5",
                    "ticks": 456960,
                    "time": 396.666508,
                    "velocity": 0.48031496062992124,
                },
                {
                    "duration": 0.2673610041666734,
                    "durationTicks": 308,
                    "midi": 69,
                    "name": "A4",
                    "ticks": 457278,
                    "time": 396.94254955625,
                    "velocity": 0.4330708661417323,
                },
                {
                    "duration": 0.26996516979164653,
                    "durationTicks": 311,
                    "midi": 64,
                    "name": "E4",
                    "ticks": 457597,
                    "time": 397.21945916770835,
                    "velocity": 0.44881889763779526,
                },
                {
                    "duration": 0.2664929489583301,
                    "durationTicks": 307,
                    "midi": 73,
                    "name": "C#5",
                    "ticks": 457920,
                    "time": 397.499841,
                    "velocity": 0.6141732283464567,
                },
                {
                    "duration": 0.2673610041666734,
                    "durationTicks": 308,
                    "midi": 69,
                    "name": "A4",
                    "ticks": 458238,
                    "time": 397.77588255625,
                    "velocity": 0.4409448818897638,
                },
                {
                    "duration": 0.26996516979164653,
                    "durationTicks": 311,
                    "midi": 64,
                    "name": "E4",
                    "ticks": 458557,
                    "time": 398.05279216770833,
                    "velocity": 0.4330708661417323,
                },
                {
                    "duration": 0.2664929489583301,
                    "durationTicks": 307,
                    "midi": 74,
                    "name": "D5",
                    "ticks": 458880,
                    "time": 398.333174,
                    "velocity": 0.5433070866141733,
                },
                {
                    "duration": 0.2673610041666734,
                    "durationTicks": 308,
                    "midi": 69,
                    "name": "A4",
                    "ticks": 459198,
                    "time": 398.60921555625,
                    "velocity": 0.3700787401574803,
                },
                {
                    "duration": 0.2699651697917034,
                    "durationTicks": 311,
                    "midi": 66,
                    "name": "F#4",
                    "ticks": 459517,
                    "time": 398.8861251677083,
                    "velocity": 0.3937007874015748,
                },
                {
                    "duration": 0.26649294895838693,
                    "durationTicks": 307,
                    "midi": 76,
                    "name": "E5",
                    "ticks": 459840,
                    "time": 399.16650699999997,
                    "velocity": 0.5669291338582677,
                },
                {
                    "duration": 0.2673610041666734,
                    "durationTicks": 308,
                    "midi": 71,
                    "name": "B4",
                    "ticks": 460158,
                    "time": 399.44254855625,
                    "velocity": 0.4330708661417323,
                },
                {
                    "duration": 0.26996516979164653,
                    "durationTicks": 311,
                    "midi": 64,
                    "name": "E4",
                    "ticks": 460477,
                    "time": 399.71945816770835,
                    "velocity": 0.3779527559055118,
                },
                {
                    "duration": 0.2664929489583301,
                    "durationTicks": 307,
                    "midi": 73,
                    "name": "C#5",
                    "ticks": 460800,
                    "time": 399.99984,
                    "velocity": 0.5039370078740157,
                },
                {
                    "duration": 0.2673610041666734,
                    "durationTicks": 308,
                    "midi": 69,
                    "name": "A4",
                    "ticks": 461118,
                    "time": 400.27588155625,
                    "velocity": 0.4566929133858268,
                },
                {
                    "duration": 0.26996516979164653,
                    "durationTicks": 311,
                    "midi": 64,
                    "name": "E4",
                    "ticks": 461437,
                    "time": 400.55279116770834,
                    "velocity": 0.3937007874015748,
                },
                {
                    "duration": 0.2664929489583301,
                    "durationTicks": 307,
                    "midi": 73,
                    "name": "C#5",
                    "ticks": 461760,
                    "time": 400.833173,
                    "velocity": 0.5354330708661418,
                },
                {
                    "duration": 0.2673610041666734,
                    "durationTicks": 308,
                    "midi": 69,
                    "name": "A4",
                    "ticks": 462078,
                    "time": 401.10921455625,
                    "velocity": 0.4015748031496063,
                },
                {
                    "duration": 0.25086795520832084,
                    "durationTicks": 289,
                    "midi": 64,
                    "name": "E4",
                    "ticks": 462397,
                    "time": 401.3861241677083,
                    "velocity": 0.3779527559055118,
                },
                {
                    "duration": 0.26649294895838693,
                    "durationTicks": 307,
                    "midi": 74,
                    "name": "D5",
                    "ticks": 462720,
                    "time": 401.66650599999997,
                    "velocity": 0.5118110236220472,
                },
                {
                    "duration": 0.2673610041666734,
                    "durationTicks": 308,
                    "midi": 69,
                    "name": "A4",
                    "ticks": 463038,
                    "time": 401.94254755625,
                    "velocity": 0.3858267716535433,
                },
                {
                    "duration": 0.26996516979164653,
                    "durationTicks": 311,
                    "midi": 66,
                    "name": "F#4",
                    "ticks": 463357,
                    "time": 402.21945716770836,
                    "velocity": 0.4251968503937008,
                },
                {
                    "duration": 0.2664929489583301,
                    "durationTicks": 307,
                    "midi": 76,
                    "name": "E5",
                    "ticks": 463680,
                    "time": 402.499839,
                    "velocity": 0.5433070866141733,
                },
                {
                    "duration": 0.2673610041666734,
                    "durationTicks": 308,
                    "midi": 71,
                    "name": "B4",
                    "ticks": 463998,
                    "time": 402.77588055625,
                    "velocity": 0.4094488188976378,
                },
                {
                    "duration": 0.25086795520832084,
                    "durationTicks": 289,
                    "midi": 76,
                    "name": "E5",
                    "ticks": 464317,
                    "time": 403.05279016770834,
                    "velocity": 0.48031496062992124,
                },
                {
                    "duration": 6.585066810416663,
                    "durationTicks": 7586,
                    "midi": 69,
                    "name": "A4",
                    "ticks": 464640,
                    "time": 403.333172,
                    "velocity": 0.2283464566929134,
                },
                {
                    "duration": 0.3967012302082935,
                    "durationTicks": 457,
                    "midi": 62,
                    "name": "D4",
                    "ticks": 472320,
                    "time": 409.999836,
                    "velocity": 0.9606299212598425,
                },
                {
                    "duration": 0.3967012302082935,
                    "durationTicks": 457,
                    "midi": 71,
                    "name": "B4",
                    "ticks": 472320,
                    "time": 409.999836,
                    "velocity": 0.9606299212598425,
                },
                {
                    "duration": 0.39670123020835035,
                    "durationTicks": 457,
                    "midi": 74,
                    "name": "D5",
                    "ticks": 473280,
                    "time": 410.833169,
                    "velocity": 0.7874015748031497,
                },
                {
                    "duration": 0.39670123020835035,
                    "durationTicks": 457,
                    "midi": 83,
                    "name": "B5",
                    "ticks": 473280,
                    "time": 410.833169,
                    "velocity": 0.7874015748031497,
                },
                {
                    "duration": 0.7942705156249872,
                    "durationTicks": 915,
                    "midi": 76,
                    "name": "E5",
                    "ticks": 474240,
                    "time": 411.666502,
                    "velocity": 0.8031496062992126,
                },
                {
                    "duration": 0.7942705156249872,
                    "durationTicks": 915,
                    "midi": 84,
                    "name": "C6",
                    "ticks": 474240,
                    "time": 411.666502,
                    "velocity": 0.8031496062992126,
                },
                {
                    "duration": 0.7942705156249872,
                    "durationTicks": 915,
                    "midi": 68,
                    "name": "G#4",
                    "ticks": 476160,
                    "time": 413.333168,
                    "velocity": 0.36220472440944884,
                },
                {
                    "duration": 0.23697907187499823,
                    "durationTicks": 273,
                    "midi": 66,
                    "name": "F#4",
                    "ticks": 477120,
                    "time": 414.166501,
                    "velocity": 0.3779527559055118,
                },
                {
                    "duration": 0.23697907187499823,
                    "durationTicks": 273,
                    "midi": 68,
                    "name": "G#4",
                    "ticks": 477600,
                    "time": 414.5831675,
                    "velocity": 0.4251968503937008,
                },
                {
                    "duration": 0.3967012302082935,
                    "durationTicks": 457,
                    "midi": 69,
                    "name": "A4",
                    "ticks": 478080,
                    "time": 414.999834,
                    "velocity": 0.41732283464566927,
                },
                {
                    "duration": 0.39670123020835035,
                    "durationTicks": 457,
                    "midi": 62,
                    "name": "D4",
                    "ticks": 480000,
                    "time": 416.6665,
                    "velocity": 0.7952755905511811,
                },
                {
                    "duration": 0.39670123020835035,
                    "durationTicks": 457,
                    "midi": 71,
                    "name": "B4",
                    "ticks": 480000,
                    "time": 416.6665,
                    "velocity": 0.7952755905511811,
                },
                {
                    "duration": 0.39670123020835035,
                    "durationTicks": 457,
                    "midi": 74,
                    "name": "D5",
                    "ticks": 480960,
                    "time": 417.49983299999997,
                    "velocity": 0.8110236220472441,
                },
                {
                    "duration": 0.39670123020835035,
                    "durationTicks": 457,
                    "midi": 83,
                    "name": "B5",
                    "ticks": 480960,
                    "time": 417.49983299999997,
                    "velocity": 0.8110236220472441,
                },
                {
                    "duration": 0.7942705156249872,
                    "durationTicks": 915,
                    "midi": 76,
                    "name": "E5",
                    "ticks": 481920,
                    "time": 418.333166,
                    "velocity": 0.7795275590551181,
                },
                {
                    "duration": 0.7942705156249872,
                    "durationTicks": 915,
                    "midi": 84,
                    "name": "C6",
                    "ticks": 481920,
                    "time": 418.333166,
                    "velocity": 0.7795275590551181,
                },
                {
                    "duration": 0.794270515625044,
                    "durationTicks": 915,
                    "midi": 68,
                    "name": "G#4",
                    "ticks": 483840,
                    "time": 419.99983199999997,
                    "velocity": 0.3464566929133858,
                },
                {
                    "duration": 0.23697907187499823,
                    "durationTicks": 273,
                    "midi": 66,
                    "name": "F#4",
                    "ticks": 484800,
                    "time": 420.833165,
                    "velocity": 0.2755905511811024,
                },
                {
                    "duration": 0.23697907187505507,
                    "durationTicks": 273,
                    "midi": 68,
                    "name": "G#4",
                    "ticks": 485280,
                    "time": 421.24983149999997,
                    "velocity": 0.41732283464566927,
                },
                {
                    "duration": 0.7942705156249872,
                    "durationTicks": 915,
                    "midi": 76,
                    "name": "E5",
                    "ticks": 527040,
                    "time": 457.499817,
                    "velocity": 0.4409448818897638,
                },
                {
                    "duration": 0.2752016312500132,
                    "durationTicks": 273,
                    "midi": 78,
                    "name": "F#5",
                    "ticks": 528000,
                    "time": 458.33315,
                    "velocity": 0.8267716535433071,
                },
                {
                    "duration": 0.27520163124995634,
                    "durationTicks": 273,
                    "midi": 80,
                    "name": "G#5",
                    "ticks": 528480,
                    "time": 458.817021,
                    "velocity": 0.6692913385826772,
                },
                {
                    "duration": 0.9223790937500098,
                    "durationTicks": 915,
                    "midi": 81,
                    "name": "A5",
                    "ticks": 528960,
                    "time": 459.300892,
                    "velocity": 0.5669291338582677,
                },
            ],
        },
        {
            "channel": 6,
            "controlChanges": {
                "7": [
                    {"number": 7, "ticks": 0, "time": 0, "value": 0.7874015748031497}
                ],
                "10": [
                    {"number": 10, "ticks": 0, "time": 0, "value": 0.31496062992125984}
                ],
                "64": [{"number": 64, "ticks": 0, "time": 0, "value": 0}],
                "91": [
                    {"number": 91, "ticks": 0, "time": 0, "value": 0.5669291338582677}
                ],
                "121": [{"number": 121, "ticks": 0, "time": 0, "value": 0}],
            },
            "pitchBends": [],
            "instrument": {"family": "strings", "number": 47, "name": "timpani"},
            "name": "",
            "notes": [
                {
                    "duration": 0.8333330000000103,
                    "durationTicks": 960,
                    "midi": 45,
                    "name": "A2",
                    "ticks": 142080,
                    "time": 123.33328399999999,
                    "velocity": 0.7480314960629921,
                },
                {
                    "duration": 0.8333329999999961,
                    "durationTicks": 960,
                    "midi": 52,
                    "name": "E3",
                    "ticks": 144000,
                    "time": 124.99995,
                    "velocity": 0.7795275590551181,
                },
                {
                    "duration": 0.8333329999999961,
                    "durationTicks": 960,
                    "midi": 52,
                    "name": "E3",
                    "ticks": 145920,
                    "time": 126.666616,
                    "velocity": 0.8031496062992126,
                },
                {
                    "duration": 0.8333330000000103,
                    "durationTicks": 960,
                    "midi": 45,
                    "name": "A2",
                    "ticks": 147840,
                    "time": 128.333282,
                    "velocity": 0.7795275590551181,
                },
                {
                    "duration": 0.8333330000000103,
                    "durationTicks": 960,
                    "midi": 45,
                    "name": "A2",
                    "ticks": 149760,
                    "time": 129.999948,
                    "velocity": 0.8031496062992126,
                },
                {
                    "duration": 0.8333330000000103,
                    "durationTicks": 960,
                    "midi": 52,
                    "name": "E3",
                    "ticks": 152640,
                    "time": 132.499947,
                    "velocity": 0.8031496062992126,
                },
                {
                    "duration": 0.8333330000000103,
                    "durationTicks": 960,
                    "midi": 52,
                    "name": "E3",
                    "ticks": 155520,
                    "time": 134.999946,
                    "velocity": 0.8661417322834646,
                },
                {
                    "duration": 0.8333330000000103,
                    "durationTicks": 960,
                    "midi": 52,
                    "name": "E3",
                    "ticks": 157440,
                    "time": 136.666612,
                    "velocity": 0.7874015748031497,
                },
                {
                    "duration": 0.8333330000000103,
                    "durationTicks": 960,
                    "midi": 52,
                    "name": "E3",
                    "ticks": 161280,
                    "time": 139.999944,
                    "velocity": 0.7716535433070866,
                },
                {
                    "duration": 0.8333330000000103,
                    "durationTicks": 960,
                    "midi": 45,
                    "name": "A2",
                    "ticks": 163200,
                    "time": 141.66661,
                    "velocity": 0.7795275590551181,
                },
                {
                    "duration": 0.8333329999999819,
                    "durationTicks": 960,
                    "midi": 45,
                    "name": "A2",
                    "ticks": 165120,
                    "time": 143.333276,
                    "velocity": 0.7637795275590551,
                },
                {
                    "duration": 0.8333329999999819,
                    "durationTicks": 960,
                    "midi": 52,
                    "name": "E3",
                    "ticks": 167040,
                    "time": 144.999942,
                    "velocity": 0.7716535433070866,
                },
                {
                    "duration": 0.8333330000000103,
                    "durationTicks": 960,
                    "midi": 45,
                    "name": "A2",
                    "ticks": 168000,
                    "time": 145.833275,
                    "velocity": 0.8110236220472441,
                },
                {
                    "duration": 0.8333330000000103,
                    "durationTicks": 960,
                    "midi": 52,
                    "name": "E3",
                    "ticks": 168960,
                    "time": 146.666608,
                    "velocity": 0.937007874015748,
                },
                {
                    "duration": 0.41666649999999095,
                    "durationTicks": 480,
                    "midi": 52,
                    "name": "E3",
                    "ticks": 169920,
                    "time": 147.499941,
                    "velocity": 0.905511811023622,
                },
                {
                    "duration": 0.41666649999999095,
                    "durationTicks": 480,
                    "midi": 52,
                    "name": "E3",
                    "ticks": 170400,
                    "time": 147.9166075,
                    "velocity": 0.8582677165354331,
                },
                {
                    "duration": 0.8333330000000103,
                    "durationTicks": 960,
                    "midi": 45,
                    "name": "A2",
                    "ticks": 170880,
                    "time": 148.333274,
                    "velocity": 0.8031496062992126,
                },
                {
                    "duration": 0.8333329999999819,
                    "durationTicks": 960,
                    "midi": 52,
                    "name": "E3",
                    "ticks": 172800,
                    "time": 149.99994,
                    "velocity": 0.6771653543307087,
                },
                {
                    "duration": 0.8333330000000103,
                    "durationTicks": 960,
                    "midi": 52,
                    "name": "E3",
                    "ticks": 176640,
                    "time": 153.333272,
                    "velocity": 0.6929133858267716,
                },
                {
                    "duration": 0.8333330000000103,
                    "durationTicks": 960,
                    "midi": 45,
                    "name": "A2",
                    "ticks": 178560,
                    "time": 154.999938,
                    "velocity": 0.5669291338582677,
                },
                {
                    "duration": 0.8333329999999819,
                    "durationTicks": 960,
                    "midi": 45,
                    "name": "A2",
                    "ticks": 180480,
                    "time": 156.666604,
                    "velocity": 0.4015748031496063,
                },
                {
                    "duration": 0.8333330000000103,
                    "durationTicks": 960,
                    "midi": 52,
                    "name": "E3",
                    "ticks": 182400,
                    "time": 158.33327,
                    "velocity": 0.30708661417322836,
                },
                {
                    "duration": 0.8333329999999819,
                    "durationTicks": 960,
                    "midi": 45,
                    "name": "A2",
                    "ticks": 183360,
                    "time": 159.166603,
                    "velocity": 0.33070866141732286,
                },
                {
                    "duration": 0.8333330000000103,
                    "durationTicks": 960,
                    "midi": 52,
                    "name": "E3",
                    "ticks": 184320,
                    "time": 159.999936,
                    "velocity": 0.41732283464566927,
                },
                {
                    "duration": 0.41666649999999095,
                    "durationTicks": 480,
                    "midi": 52,
                    "name": "E3",
                    "ticks": 185280,
                    "time": 160.833269,
                    "velocity": 0.4251968503937008,
                },
                {
                    "duration": 0.41666650000001937,
                    "durationTicks": 480,
                    "midi": 52,
                    "name": "E3",
                    "ticks": 185760,
                    "time": 161.2499355,
                    "velocity": 0.3779527559055118,
                },
                {
                    "duration": 0.8333329999999819,
                    "durationTicks": 960,
                    "midi": 45,
                    "name": "A2",
                    "ticks": 186240,
                    "time": 161.666602,
                    "velocity": 0.33070866141732286,
                },
                {
                    "duration": 0.8333330000000103,
                    "durationTicks": 960,
                    "midi": 52,
                    "name": "E3",
                    "ticks": 266880,
                    "time": 231.666574,
                    "velocity": 0.2677165354330709,
                },
                {
                    "duration": 0.8333329999999819,
                    "durationTicks": 960,
                    "midi": 52,
                    "name": "E3",
                    "ticks": 270720,
                    "time": 234.999906,
                    "velocity": 0.25196850393700787,
                },
                {
                    "duration": 0.2473957343750044,
                    "durationTicks": 285,
                    "midi": 52,
                    "name": "E3",
                    "ticks": 284160,
                    "time": 246.66656799999998,
                    "velocity": 0.8031496062992126,
                },
                {
                    "duration": 0.2473957343750044,
                    "durationTicks": 285,
                    "midi": 52,
                    "name": "E3",
                    "ticks": 284640,
                    "time": 247.0832345,
                    "velocity": 0.8661417322834646,
                },
                {
                    "duration": 0.8333329999999819,
                    "durationTicks": 960,
                    "midi": 45,
                    "name": "A2",
                    "ticks": 332160,
                    "time": 288.333218,
                    "velocity": 0.30708661417322836,
                },
                {
                    "duration": 0.41666650000001937,
                    "durationTicks": 480,
                    "midi": 45,
                    "name": "A2",
                    "ticks": 335040,
                    "time": 290.833217,
                    "velocity": 0.33858267716535434,
                },
                {
                    "duration": 0.4166664999999625,
                    "durationTicks": 480,
                    "midi": 45,
                    "name": "A2",
                    "ticks": 335520,
                    "time": 291.2498835,
                    "velocity": 0.3543307086614173,
                },
                {
                    "duration": 0.8333330000000387,
                    "durationTicks": 960,
                    "midi": 45,
                    "name": "A2",
                    "ticks": 336000,
                    "time": 291.66655,
                    "velocity": 0.3543307086614173,
                },
                {
                    "duration": 0.41666650000001937,
                    "durationTicks": 480,
                    "midi": 45,
                    "name": "A2",
                    "ticks": 338880,
                    "time": 294.166549,
                    "velocity": 0.3464566929133858,
                },
                {
                    "duration": 0.41666650000001937,
                    "durationTicks": 480,
                    "midi": 45,
                    "name": "A2",
                    "ticks": 339360,
                    "time": 294.5832155,
                    "velocity": 0.3779527559055118,
                },
                {
                    "duration": 0.4166664999999625,
                    "durationTicks": 480,
                    "midi": 45,
                    "name": "A2",
                    "ticks": 339840,
                    "time": 294.999882,
                    "velocity": 0.41732283464566927,
                },
                {
                    "duration": 0.41666650000001937,
                    "durationTicks": 480,
                    "midi": 45,
                    "name": "A2",
                    "ticks": 340800,
                    "time": 295.833215,
                    "velocity": 0.3700787401574803,
                },
                {
                    "duration": 0.4166664999999625,
                    "durationTicks": 480,
                    "midi": 45,
                    "name": "A2",
                    "ticks": 341280,
                    "time": 296.2498815,
                    "velocity": 0.47244094488188976,
                },
                {
                    "duration": 0.41666650000001937,
                    "durationTicks": 480,
                    "midi": 45,
                    "name": "A2",
                    "ticks": 341760,
                    "time": 296.666548,
                    "velocity": 0.5039370078740157,
                },
                {
                    "duration": 0.4166664999999625,
                    "durationTicks": 480,
                    "midi": 45,
                    "name": "A2",
                    "ticks": 342720,
                    "time": 297.499881,
                    "velocity": 0.48031496062992124,
                },
                {
                    "duration": 0.41666650000001937,
                    "durationTicks": 480,
                    "midi": 45,
                    "name": "A2",
                    "ticks": 343200,
                    "time": 297.9165475,
                    "velocity": 0.49606299212598426,
                },
                {
                    "duration": 0.41666650000001937,
                    "durationTicks": 480,
                    "midi": 45,
                    "name": "A2",
                    "ticks": 343680,
                    "time": 298.333214,
                    "velocity": 0.5511811023622047,
                },
                {
                    "duration": 0.41666650000001937,
                    "durationTicks": 480,
                    "midi": 45,
                    "name": "A2",
                    "ticks": 344640,
                    "time": 299.166547,
                    "velocity": 0.5275590551181102,
                },
                {
                    "duration": 0.41666650000001937,
                    "durationTicks": 480,
                    "midi": 45,
                    "name": "A2",
                    "ticks": 345120,
                    "time": 299.5832135,
                    "velocity": 0.6141732283464567,
                },
                {
                    "duration": 0.4166664999999625,
                    "durationTicks": 480,
                    "midi": 45,
                    "name": "A2",
                    "ticks": 345600,
                    "time": 299.99988,
                    "velocity": 0.5511811023622047,
                },
                {
                    "duration": 0.41666650000001937,
                    "durationTicks": 480,
                    "midi": 45,
                    "name": "A2",
                    "ticks": 346080,
                    "time": 300.4165465,
                    "velocity": 0.5826771653543307,
                },
                {
                    "duration": 0.41666650000001937,
                    "durationTicks": 480,
                    "midi": 45,
                    "name": "A2",
                    "ticks": 347520,
                    "time": 301.666546,
                    "velocity": 0.4251968503937008,
                },
                {
                    "duration": 0.41666650000001937,
                    "durationTicks": 480,
                    "midi": 45,
                    "name": "A2",
                    "ticks": 348000,
                    "time": 302.0832125,
                    "velocity": 0.48031496062992124,
                },
                {
                    "duration": 0.41666650000001937,
                    "durationTicks": 480,
                    "midi": 45,
                    "name": "A2",
                    "ticks": 349440,
                    "time": 303.333212,
                    "velocity": 0.2283464566929134,
                },
                {
                    "duration": 0.4166664999999625,
                    "durationTicks": 480,
                    "midi": 45,
                    "name": "A2",
                    "ticks": 349920,
                    "time": 303.7498785,
                    "velocity": 0.28346456692913385,
                },
                {
                    "duration": 0.20833324999995284,
                    "durationTicks": 240,
                    "midi": 52,
                    "name": "E3",
                    "ticks": 407520,
                    "time": 353.7498585,
                    "velocity": 0.2755905511811024,
                },
                {
                    "duration": 0.20833325000000968,
                    "durationTicks": 240,
                    "midi": 52,
                    "name": "E3",
                    "ticks": 407760,
                    "time": 353.95819174999997,
                    "velocity": 0.30708661417322836,
                },
                {
                    "duration": 0.20833325000000968,
                    "durationTicks": 240,
                    "midi": 52,
                    "name": "E3",
                    "ticks": 408000,
                    "time": 354.166525,
                    "velocity": 0.28346456692913385,
                },
                {
                    "duration": 0.20833325000000968,
                    "durationTicks": 240,
                    "midi": 52,
                    "name": "E3",
                    "ticks": 408240,
                    "time": 354.37485825,
                    "velocity": 0.31496062992125984,
                },
                {
                    "duration": 0.20833325000000968,
                    "durationTicks": 240,
                    "midi": 52,
                    "name": "E3",
                    "ticks": 408480,
                    "time": 354.5831915,
                    "velocity": 0.33070866141732286,
                },
                {
                    "duration": 0.20833325000000968,
                    "durationTicks": 240,
                    "midi": 52,
                    "name": "E3",
                    "ticks": 408720,
                    "time": 354.79152475,
                    "velocity": 0.30708661417322836,
                },
                {
                    "duration": 0.8333329999999819,
                    "durationTicks": 960,
                    "midi": 52,
                    "name": "E3",
                    "ticks": 408960,
                    "time": 354.999858,
                    "velocity": 0.8740157480314961,
                },
                {
                    "duration": 0.2473957343750044,
                    "durationTicks": 285,
                    "midi": 52,
                    "name": "E3",
                    "ticks": 409920,
                    "time": 355.833191,
                    "velocity": 0.8582677165354331,
                },
                {
                    "duration": 0.2473957343750044,
                    "durationTicks": 285,
                    "midi": 52,
                    "name": "E3",
                    "ticks": 410400,
                    "time": 356.2498575,
                    "velocity": 0.8661417322834646,
                },
                {
                    "duration": 0.8333330000000387,
                    "durationTicks": 960,
                    "midi": 52,
                    "name": "E3",
                    "ticks": 410880,
                    "time": 356.666524,
                    "velocity": 0.8661417322834646,
                },
                {
                    "duration": 0.8333329999999819,
                    "durationTicks": 960,
                    "midi": 52,
                    "name": "E3",
                    "ticks": 411840,
                    "time": 357.499857,
                    "velocity": 0.889763779527559,
                },
                {
                    "duration": 0.8333329999999819,
                    "durationTicks": 960,
                    "midi": 52,
                    "name": "E3",
                    "ticks": 412800,
                    "time": 358.33319,
                    "velocity": 0.9133858267716536,
                },
                {
                    "duration": 0.2473957343750044,
                    "durationTicks": 285,
                    "midi": 52,
                    "name": "E3",
                    "ticks": 413760,
                    "time": 359.166523,
                    "velocity": 0.8661417322834646,
                },
                {
                    "duration": 0.2473957343750044,
                    "durationTicks": 285,
                    "midi": 52,
                    "name": "E3",
                    "ticks": 414240,
                    "time": 359.5831895,
                    "velocity": 0.8582677165354331,
                },
                {
                    "duration": 0.4973956343749819,
                    "durationTicks": 573,
                    "midi": 52,
                    "name": "E3",
                    "ticks": 414720,
                    "time": 359.999856,
                    "velocity": 0.8503937007874016,
                },
                {
                    "duration": 0.4973956343749819,
                    "durationTicks": 573,
                    "midi": 52,
                    "name": "E3",
                    "ticks": 415680,
                    "time": 360.833189,
                    "velocity": 0.889763779527559,
                },
                {
                    "duration": 0.8333329999999819,
                    "durationTicks": 960,
                    "midi": 52,
                    "name": "E3",
                    "ticks": 416640,
                    "time": 361.666522,
                    "velocity": 0.8661417322834646,
                },
                {
                    "duration": 0.2473957343750044,
                    "durationTicks": 285,
                    "midi": 52,
                    "name": "E3",
                    "ticks": 417600,
                    "time": 362.49985499999997,
                    "velocity": 0.9133858267716536,
                },
                {
                    "duration": 0.2473957343750044,
                    "durationTicks": 285,
                    "midi": 52,
                    "name": "E3",
                    "ticks": 418080,
                    "time": 362.9165215,
                    "velocity": 0.905511811023622,
                },
                {
                    "duration": 0.4973956343749819,
                    "durationTicks": 573,
                    "midi": 52,
                    "name": "E3",
                    "ticks": 418560,
                    "time": 363.333188,
                    "velocity": 0.8818897637795275,
                },
                {
                    "duration": 0.49739563437503875,
                    "durationTicks": 573,
                    "midi": 52,
                    "name": "E3",
                    "ticks": 419520,
                    "time": 364.166521,
                    "velocity": 0.8976377952755905,
                },
                {
                    "duration": 0.8333330000000387,
                    "durationTicks": 960,
                    "midi": 52,
                    "name": "E3",
                    "ticks": 420480,
                    "time": 364.99985399999997,
                    "velocity": 0.8503937007874016,
                },
                {
                    "duration": 0.2473957343750044,
                    "durationTicks": 285,
                    "midi": 52,
                    "name": "E3",
                    "ticks": 421440,
                    "time": 365.833187,
                    "velocity": 0.8740157480314961,
                },
                {
                    "duration": 0.2473957343750044,
                    "durationTicks": 285,
                    "midi": 52,
                    "name": "E3",
                    "ticks": 421920,
                    "time": 366.2498535,
                    "velocity": 0.8976377952755905,
                },
                {
                    "duration": 0.8333329999999819,
                    "durationTicks": 960,
                    "midi": 45,
                    "name": "A2",
                    "ticks": 422400,
                    "time": 366.66652,
                    "velocity": 0.8031496062992126,
                },
                {
                    "duration": 0.8333329999999819,
                    "durationTicks": 960,
                    "midi": 45,
                    "name": "A2",
                    "ticks": 466560,
                    "time": 404.999838,
                    "velocity": 0.2283464566929134,
                },
                {
                    "duration": 0.41666650000001937,
                    "durationTicks": 480,
                    "midi": 45,
                    "name": "A2",
                    "ticks": 467520,
                    "time": 405.833171,
                    "velocity": 0.2677165354330709,
                },
                {
                    "duration": 0.4166664999999625,
                    "durationTicks": 480,
                    "midi": 45,
                    "name": "A2",
                    "ticks": 468000,
                    "time": 406.2498375,
                    "velocity": 0.2992125984251969,
                },
                {
                    "duration": 0.8333330000000387,
                    "durationTicks": 960,
                    "midi": 45,
                    "name": "A2",
                    "ticks": 468480,
                    "time": 406.666504,
                    "velocity": 0.2992125984251969,
                },
                {
                    "duration": 0.8333329999999819,
                    "durationTicks": 960,
                    "midi": 45,
                    "name": "A2",
                    "ticks": 470400,
                    "time": 408.33317,
                    "velocity": 0.25984251968503935,
                },
                {
                    "duration": 0.41666650000001937,
                    "durationTicks": 480,
                    "midi": 45,
                    "name": "A2",
                    "ticks": 471360,
                    "time": 409.166503,
                    "velocity": 0.29133858267716534,
                },
                {
                    "duration": 0.41666650000001937,
                    "durationTicks": 480,
                    "midi": 45,
                    "name": "A2",
                    "ticks": 471840,
                    "time": 409.5831695,
                    "velocity": 0.2755905511811024,
                },
                {
                    "duration": 0.41666650000001937,
                    "durationTicks": 480,
                    "midi": 52,
                    "name": "E3",
                    "ticks": 474240,
                    "time": 411.666502,
                    "velocity": 0.8188976377952756,
                },
                {
                    "duration": 0.4166664999999625,
                    "durationTicks": 480,
                    "midi": 52,
                    "name": "E3",
                    "ticks": 481920,
                    "time": 418.333166,
                    "velocity": 0.6299212598425197,
                },
            ],
        },
        {
            "channel": 5,
            "controlChanges": {
                "7": [
                    {"number": 7, "ticks": 0, "time": 0, "value": 0.5275590551181102}
                ],
                "10": [
                    {"number": 10, "ticks": 0, "time": 0, "value": 0.6377952755905512}
                ],
                "64": [{"number": 64, "ticks": 0, "time": 0, "value": 0}],
                "91": [
                    {"number": 91, "ticks": 0, "time": 0, "value": 0.4881889763779528}
                ],
                "121": [{"number": 121, "ticks": 0, "time": 0, "value": 0}],
            },
            "pitchBends": [],
            "instrument": {"family": "brass", "number": 56, "name": "trumpet"},
            "name": "",
            "notes": [
                {
                    "duration": 0.8333330000000103,
                    "durationTicks": 960,
                    "midi": 57,
                    "name": "A3",
                    "ticks": 142080,
                    "time": 123.33328399999999,
                    "velocity": 0.7952755905511811,
                },
                {
                    "duration": 0.8333330000000103,
                    "durationTicks": 960,
                    "midi": 69,
                    "name": "A4",
                    "ticks": 142080,
                    "time": 123.33328399999999,
                    "velocity": 0.7952755905511811,
                },
                {
                    "duration": 0.8333329999999961,
                    "durationTicks": 960,
                    "midi": 76,
                    "name": "E5",
                    "ticks": 144000,
                    "time": 124.99995,
                    "velocity": 0.7716535433070866,
                },
                {
                    "duration": 0.8333329999999961,
                    "durationTicks": 960,
                    "midi": 76,
                    "name": "E5",
                    "ticks": 145920,
                    "time": 126.666616,
                    "velocity": 0.8031496062992126,
                },
                {
                    "duration": 0.8333330000000103,
                    "durationTicks": 960,
                    "midi": 57,
                    "name": "A3",
                    "ticks": 147840,
                    "time": 128.333282,
                    "velocity": 0.7637795275590551,
                },
                {
                    "duration": 0.8333330000000103,
                    "durationTicks": 960,
                    "midi": 69,
                    "name": "A4",
                    "ticks": 147840,
                    "time": 128.333282,
                    "velocity": 0.7637795275590551,
                },
                {
                    "duration": 0.8333330000000103,
                    "durationTicks": 960,
                    "midi": 57,
                    "name": "A3",
                    "ticks": 149760,
                    "time": 129.999948,
                    "velocity": 0.7874015748031497,
                },
                {
                    "duration": 0.8333330000000103,
                    "durationTicks": 960,
                    "midi": 69,
                    "name": "A4",
                    "ticks": 149760,
                    "time": 129.999948,
                    "velocity": 0.7874015748031497,
                },
                {
                    "duration": 0.8333330000000103,
                    "durationTicks": 960,
                    "midi": 76,
                    "name": "E5",
                    "ticks": 152640,
                    "time": 132.499947,
                    "velocity": 0.8110236220472441,
                },
                {
                    "duration": 0.8333330000000103,
                    "durationTicks": 960,
                    "midi": 76,
                    "name": "E5",
                    "ticks": 155520,
                    "time": 134.999946,
                    "velocity": 0.8661417322834646,
                },
                {
                    "duration": 0.8333330000000103,
                    "durationTicks": 960,
                    "midi": 76,
                    "name": "E5",
                    "ticks": 157440,
                    "time": 136.666612,
                    "velocity": 0.7874015748031497,
                },
                {
                    "duration": 0.8333330000000103,
                    "durationTicks": 960,
                    "midi": 76,
                    "name": "E5",
                    "ticks": 161280,
                    "time": 139.999944,
                    "velocity": 0.7795275590551181,
                },
                {
                    "duration": 0.8333330000000103,
                    "durationTicks": 960,
                    "midi": 57,
                    "name": "A3",
                    "ticks": 163200,
                    "time": 141.66661,
                    "velocity": 0.7559055118110236,
                },
                {
                    "duration": 0.8333330000000103,
                    "durationTicks": 960,
                    "midi": 69,
                    "name": "A4",
                    "ticks": 163200,
                    "time": 141.66661,
                    "velocity": 0.7559055118110236,
                },
                {
                    "duration": 0.8333329999999819,
                    "durationTicks": 960,
                    "midi": 57,
                    "name": "A3",
                    "ticks": 165120,
                    "time": 143.333276,
                    "velocity": 0.7952755905511811,
                },
                {
                    "duration": 0.8333329999999819,
                    "durationTicks": 960,
                    "midi": 69,
                    "name": "A4",
                    "ticks": 165120,
                    "time": 143.333276,
                    "velocity": 0.7952755905511811,
                },
                {
                    "duration": 0.8333329999999819,
                    "durationTicks": 960,
                    "midi": 76,
                    "name": "E5",
                    "ticks": 167040,
                    "time": 144.999942,
                    "velocity": 0.7874015748031497,
                },
                {
                    "duration": 0.8333330000000103,
                    "durationTicks": 960,
                    "midi": 57,
                    "name": "A3",
                    "ticks": 168000,
                    "time": 145.833275,
                    "velocity": 0.7086614173228346,
                },
                {
                    "duration": 0.8333330000000103,
                    "durationTicks": 960,
                    "midi": 69,
                    "name": "A4",
                    "ticks": 168000,
                    "time": 145.833275,
                    "velocity": 0.7086614173228346,
                },
                {
                    "duration": 0.8333330000000103,
                    "durationTicks": 960,
                    "midi": 76,
                    "name": "E5",
                    "ticks": 168960,
                    "time": 146.666608,
                    "velocity": 1,
                },
                {
                    "duration": 0.41666649999999095,
                    "durationTicks": 480,
                    "midi": 76,
                    "name": "E5",
                    "ticks": 169920,
                    "time": 147.499941,
                    "velocity": 0.8661417322834646,
                },
                {
                    "duration": 0.41666649999999095,
                    "durationTicks": 480,
                    "midi": 76,
                    "name": "E5",
                    "ticks": 170400,
                    "time": 147.9166075,
                    "velocity": 0.8976377952755905,
                },
                {
                    "duration": 0.8333330000000103,
                    "durationTicks": 960,
                    "midi": 57,
                    "name": "A3",
                    "ticks": 170880,
                    "time": 148.333274,
                    "velocity": 0.7401574803149606,
                },
                {
                    "duration": 0.8333330000000103,
                    "durationTicks": 960,
                    "midi": 69,
                    "name": "A4",
                    "ticks": 170880,
                    "time": 148.333274,
                    "velocity": 0.7401574803149606,
                },
                {
                    "duration": 0.8333329999999819,
                    "durationTicks": 960,
                    "midi": 76,
                    "name": "E5",
                    "ticks": 172800,
                    "time": 149.99994,
                    "velocity": 0.7165354330708661,
                },
                {
                    "duration": 0.8333330000000103,
                    "durationTicks": 960,
                    "midi": 76,
                    "name": "E5",
                    "ticks": 176640,
                    "time": 153.333272,
                    "velocity": 0.7244094488188977,
                },
                {
                    "duration": 0.8333330000000103,
                    "durationTicks": 960,
                    "midi": 57,
                    "name": "A3",
                    "ticks": 178560,
                    "time": 154.999938,
                    "velocity": 0.5669291338582677,
                },
                {
                    "duration": 0.8333330000000103,
                    "durationTicks": 960,
                    "midi": 69,
                    "name": "A4",
                    "ticks": 178560,
                    "time": 154.999938,
                    "velocity": 0.5669291338582677,
                },
                {
                    "duration": 0.8333329999999819,
                    "durationTicks": 960,
                    "midi": 57,
                    "name": "A3",
                    "ticks": 180480,
                    "time": 156.666604,
                    "velocity": 0.4330708661417323,
                },
                {
                    "duration": 0.8333329999999819,
                    "durationTicks": 960,
                    "midi": 69,
                    "name": "A4",
                    "ticks": 180480,
                    "time": 156.666604,
                    "velocity": 0.4330708661417323,
                },
                {
                    "duration": 0.8333330000000103,
                    "durationTicks": 960,
                    "midi": 76,
                    "name": "E5",
                    "ticks": 182400,
                    "time": 158.33327,
                    "velocity": 0.33070866141732286,
                },
                {
                    "duration": 0.8333329999999819,
                    "durationTicks": 960,
                    "midi": 57,
                    "name": "A3",
                    "ticks": 183360,
                    "time": 159.166603,
                    "velocity": 0.29133858267716534,
                },
                {
                    "duration": 0.8333329999999819,
                    "durationTicks": 960,
                    "midi": 69,
                    "name": "A4",
                    "ticks": 183360,
                    "time": 159.166603,
                    "velocity": 0.29133858267716534,
                },
                {
                    "duration": 0.8333330000000103,
                    "durationTicks": 960,
                    "midi": 76,
                    "name": "E5",
                    "ticks": 184320,
                    "time": 159.999936,
                    "velocity": 0.4251968503937008,
                },
                {
                    "duration": 0.41666649999999095,
                    "durationTicks": 480,
                    "midi": 76,
                    "name": "E5",
                    "ticks": 185280,
                    "time": 160.833269,
                    "velocity": 0.36220472440944884,
                },
                {
                    "duration": 0.41666650000001937,
                    "durationTicks": 480,
                    "midi": 76,
                    "name": "E5",
                    "ticks": 185760,
                    "time": 161.2499355,
                    "velocity": 0.36220472440944884,
                },
                {
                    "duration": 0.8333329999999819,
                    "durationTicks": 960,
                    "midi": 57,
                    "name": "A3",
                    "ticks": 186240,
                    "time": 161.666602,
                    "velocity": 0.33858267716535434,
                },
                {
                    "duration": 0.8333329999999819,
                    "durationTicks": 960,
                    "midi": 69,
                    "name": "A4",
                    "ticks": 186240,
                    "time": 161.666602,
                    "velocity": 0.33858267716535434,
                },
                {
                    "duration": 7.499997000000008,
                    "durationTicks": 8640,
                    "midi": 57,
                    "name": "A3",
                    "ticks": 210240,
                    "time": 182.49992699999999,
                    "velocity": 0.36220472440944884,
                },
                {
                    "duration": 7.499997000000008,
                    "durationTicks": 8640,
                    "midi": 69,
                    "name": "A4",
                    "ticks": 210240,
                    "time": 182.49992699999999,
                    "velocity": 0.36220472440944884,
                },
                {
                    "duration": 0.8333330000000103,
                    "durationTicks": 960,
                    "midi": 79,
                    "name": "G5",
                    "ticks": 266880,
                    "time": 231.666574,
                    "velocity": 0.33070866141732286,
                },
                {
                    "duration": 0.8333329999999819,
                    "durationTicks": 960,
                    "midi": 79,
                    "name": "G5",
                    "ticks": 270720,
                    "time": 234.999906,
                    "velocity": 0.2440944881889764,
                },
                {
                    "duration": 0.2473957343750044,
                    "durationTicks": 285,
                    "midi": 76,
                    "name": "E5",
                    "ticks": 284160,
                    "time": 246.66656799999998,
                    "velocity": 0.7480314960629921,
                },
                {
                    "duration": 0.2473957343750044,
                    "durationTicks": 285,
                    "midi": 76,
                    "name": "E5",
                    "ticks": 284640,
                    "time": 247.0832345,
                    "velocity": 0.8818897637795275,
                },
                {
                    "duration": 0.8333329999999819,
                    "durationTicks": 960,
                    "midi": 57,
                    "name": "A3",
                    "ticks": 332160,
                    "time": 288.333218,
                    "velocity": 0.31496062992125984,
                },
                {
                    "duration": 0.8333329999999819,
                    "durationTicks": 960,
                    "midi": 69,
                    "name": "A4",
                    "ticks": 332160,
                    "time": 288.333218,
                    "velocity": 0.31496062992125984,
                },
                {
                    "duration": 0.41666650000001937,
                    "durationTicks": 480,
                    "midi": 57,
                    "name": "A3",
                    "ticks": 335040,
                    "time": 290.833217,
                    "velocity": 0.3228346456692913,
                },
                {
                    "duration": 0.41666650000001937,
                    "durationTicks": 480,
                    "midi": 69,
                    "name": "A4",
                    "ticks": 335040,
                    "time": 290.833217,
                    "velocity": 0.3228346456692913,
                },
                {
                    "duration": 0.4166664999999625,
                    "durationTicks": 480,
                    "midi": 57,
                    "name": "A3",
                    "ticks": 335520,
                    "time": 291.2498835,
                    "velocity": 0.3700787401574803,
                },
                {
                    "duration": 0.4166664999999625,
                    "durationTicks": 480,
                    "midi": 69,
                    "name": "A4",
                    "ticks": 335520,
                    "time": 291.2498835,
                    "velocity": 0.3700787401574803,
                },
                {
                    "duration": 0.8333330000000387,
                    "durationTicks": 960,
                    "midi": 57,
                    "name": "A3",
                    "ticks": 336000,
                    "time": 291.66655,
                    "velocity": 0.3779527559055118,
                },
                {
                    "duration": 0.8333330000000387,
                    "durationTicks": 960,
                    "midi": 69,
                    "name": "A4",
                    "ticks": 336000,
                    "time": 291.66655,
                    "velocity": 0.3779527559055118,
                },
                {
                    "duration": 0.41666650000001937,
                    "durationTicks": 480,
                    "midi": 57,
                    "name": "A3",
                    "ticks": 338880,
                    "time": 294.166549,
                    "velocity": 0.3228346456692913,
                },
                {
                    "duration": 0.41666650000001937,
                    "durationTicks": 480,
                    "midi": 69,
                    "name": "A4",
                    "ticks": 338880,
                    "time": 294.166549,
                    "velocity": 0.3228346456692913,
                },
                {
                    "duration": 0.41666650000001937,
                    "durationTicks": 480,
                    "midi": 57,
                    "name": "A3",
                    "ticks": 339360,
                    "time": 294.5832155,
                    "velocity": 0.3779527559055118,
                },
                {
                    "duration": 0.41666650000001937,
                    "durationTicks": 480,
                    "midi": 69,
                    "name": "A4",
                    "ticks": 339360,
                    "time": 294.5832155,
                    "velocity": 0.3779527559055118,
                },
                {
                    "duration": 0.4166664999999625,
                    "durationTicks": 480,
                    "midi": 57,
                    "name": "A3",
                    "ticks": 339840,
                    "time": 294.999882,
                    "velocity": 0.4251968503937008,
                },
                {
                    "duration": 0.4166664999999625,
                    "durationTicks": 480,
                    "midi": 69,
                    "name": "A4",
                    "ticks": 339840,
                    "time": 294.999882,
                    "velocity": 0.4251968503937008,
                },
                {
                    "duration": 0.41666650000001937,
                    "durationTicks": 480,
                    "midi": 57,
                    "name": "A3",
                    "ticks": 340800,
                    "time": 295.833215,
                    "velocity": 0.3543307086614173,
                },
                {
                    "duration": 0.41666650000001937,
                    "durationTicks": 480,
                    "midi": 69,
                    "name": "A4",
                    "ticks": 340800,
                    "time": 295.833215,
                    "velocity": 0.3543307086614173,
                },
                {
                    "duration": 0.4166664999999625,
                    "durationTicks": 480,
                    "midi": 57,
                    "name": "A3",
                    "ticks": 341280,
                    "time": 296.2498815,
                    "velocity": 0.44881889763779526,
                },
                {
                    "duration": 0.4166664999999625,
                    "durationTicks": 480,
                    "midi": 69,
                    "name": "A4",
                    "ticks": 341280,
                    "time": 296.2498815,
                    "velocity": 0.44881889763779526,
                },
                {
                    "duration": 0.41666650000001937,
                    "durationTicks": 480,
                    "midi": 57,
                    "name": "A3",
                    "ticks": 341760,
                    "time": 296.666548,
                    "velocity": 0.48031496062992124,
                },
                {
                    "duration": 0.41666650000001937,
                    "durationTicks": 480,
                    "midi": 69,
                    "name": "A4",
                    "ticks": 341760,
                    "time": 296.666548,
                    "velocity": 0.48031496062992124,
                },
                {
                    "duration": 0.4166664999999625,
                    "durationTicks": 480,
                    "midi": 57,
                    "name": "A3",
                    "ticks": 342720,
                    "time": 297.499881,
                    "velocity": 0.4566929133858268,
                },
                {
                    "duration": 0.4166664999999625,
                    "durationTicks": 480,
                    "midi": 69,
                    "name": "A4",
                    "ticks": 342720,
                    "time": 297.499881,
                    "velocity": 0.4566929133858268,
                },
                {
                    "duration": 0.41666650000001937,
                    "durationTicks": 480,
                    "midi": 57,
                    "name": "A3",
                    "ticks": 343200,
                    "time": 297.9165475,
                    "velocity": 0.5275590551181102,
                },
                {
                    "duration": 0.41666650000001937,
                    "durationTicks": 480,
                    "midi": 69,
                    "name": "A4",
                    "ticks": 343200,
                    "time": 297.9165475,
                    "velocity": 0.5275590551181102,
                },
                {
                    "duration": 0.41666650000001937,
                    "durationTicks": 480,
                    "midi": 57,
                    "name": "A3",
                    "ticks": 343680,
                    "time": 298.333214,
                    "velocity": 0.5511811023622047,
                },
                {
                    "duration": 0.41666650000001937,
                    "durationTicks": 480,
                    "midi": 69,
                    "name": "A4",
                    "ticks": 343680,
                    "time": 298.333214,
                    "velocity": 0.5511811023622047,
                },
                {
                    "duration": 0.41666650000001937,
                    "durationTicks": 480,
                    "midi": 57,
                    "name": "A3",
                    "ticks": 344640,
                    "time": 299.166547,
                    "velocity": 0.5196850393700787,
                },
                {
                    "duration": 0.41666650000001937,
                    "durationTicks": 480,
                    "midi": 69,
                    "name": "A4",
                    "ticks": 344640,
                    "time": 299.166547,
                    "velocity": 0.5196850393700787,
                },
                {
                    "duration": 0.41666650000001937,
                    "durationTicks": 480,
                    "midi": 57,
                    "name": "A3",
                    "ticks": 345120,
                    "time": 299.5832135,
                    "velocity": 0.6377952755905512,
                },
                {
                    "duration": 0.41666650000001937,
                    "durationTicks": 480,
                    "midi": 69,
                    "name": "A4",
                    "ticks": 345120,
                    "time": 299.5832135,
                    "velocity": 0.6377952755905512,
                },
                {
                    "duration": 0.4166664999999625,
                    "durationTicks": 480,
                    "midi": 57,
                    "name": "A3",
                    "ticks": 345600,
                    "time": 299.99988,
                    "velocity": 0.5826771653543307,
                },
                {
                    "duration": 0.4166664999999625,
                    "durationTicks": 480,
                    "midi": 69,
                    "name": "A4",
                    "ticks": 345600,
                    "time": 299.99988,
                    "velocity": 0.5826771653543307,
                },
                {
                    "duration": 0.41666650000001937,
                    "durationTicks": 480,
                    "midi": 57,
                    "name": "A3",
                    "ticks": 346080,
                    "time": 300.4165465,
                    "velocity": 0.5669291338582677,
                },
                {
                    "duration": 0.41666650000001937,
                    "durationTicks": 480,
                    "midi": 69,
                    "name": "A4",
                    "ticks": 346080,
                    "time": 300.4165465,
                    "velocity": 0.5669291338582677,
                },
                {
                    "duration": 0.41666650000001937,
                    "durationTicks": 480,
                    "midi": 57,
                    "name": "A3",
                    "ticks": 347520,
                    "time": 301.666546,
                    "velocity": 0.41732283464566927,
                },
                {
                    "duration": 0.41666650000001937,
                    "durationTicks": 480,
                    "midi": 69,
                    "name": "A4",
                    "ticks": 347520,
                    "time": 301.666546,
                    "velocity": 0.41732283464566927,
                },
                {
                    "duration": 0.41666650000001937,
                    "durationTicks": 480,
                    "midi": 57,
                    "name": "A3",
                    "ticks": 348000,
                    "time": 302.0832125,
                    "velocity": 0.3858267716535433,
                },
                {
                    "duration": 0.41666650000001937,
                    "durationTicks": 480,
                    "midi": 69,
                    "name": "A4",
                    "ticks": 348000,
                    "time": 302.0832125,
                    "velocity": 0.3858267716535433,
                },
                {
                    "duration": 0.41666650000001937,
                    "durationTicks": 480,
                    "midi": 57,
                    "name": "A3",
                    "ticks": 349440,
                    "time": 303.333212,
                    "velocity": 0.2125984251968504,
                },
                {
                    "duration": 0.41666650000001937,
                    "durationTicks": 480,
                    "midi": 69,
                    "name": "A4",
                    "ticks": 349440,
                    "time": 303.333212,
                    "velocity": 0.2125984251968504,
                },
                {
                    "duration": 0.4166664999999625,
                    "durationTicks": 480,
                    "midi": 57,
                    "name": "A3",
                    "ticks": 349920,
                    "time": 303.7498785,
                    "velocity": 0.25984251968503935,
                },
                {
                    "duration": 0.4166664999999625,
                    "durationTicks": 480,
                    "midi": 69,
                    "name": "A4",
                    "ticks": 349920,
                    "time": 303.7498785,
                    "velocity": 0.25984251968503935,
                },
                {
                    "duration": 1.2499995000000013,
                    "durationTicks": 1440,
                    "midi": 76,
                    "name": "E5",
                    "ticks": 407520,
                    "time": 353.7498585,
                    "velocity": 0.2677165354330709,
                },
                {
                    "duration": 0.8333329999999819,
                    "durationTicks": 960,
                    "midi": 76,
                    "name": "E5",
                    "ticks": 408960,
                    "time": 354.999858,
                    "velocity": 0.8346456692913385,
                },
                {
                    "duration": 0.2473957343750044,
                    "durationTicks": 285,
                    "midi": 76,
                    "name": "E5",
                    "ticks": 409920,
                    "time": 355.833191,
                    "velocity": 0.889763779527559,
                },
                {
                    "duration": 0.2473957343750044,
                    "durationTicks": 285,
                    "midi": 76,
                    "name": "E5",
                    "ticks": 410400,
                    "time": 356.2498575,
                    "velocity": 0.8976377952755905,
                },
                {
                    "duration": 0.49739563437503875,
                    "durationTicks": 573,
                    "midi": 76,
                    "name": "E5",
                    "ticks": 410880,
                    "time": 356.666524,
                    "velocity": 0.8818897637795275,
                },
                {
                    "duration": 0.4713539781249665,
                    "durationTicks": 543,
                    "midi": 76,
                    "name": "E5",
                    "ticks": 411840,
                    "time": 357.499857,
                    "velocity": 0.8582677165354331,
                },
                {
                    "duration": 0.8333329999999819,
                    "durationTicks": 960,
                    "midi": 76,
                    "name": "E5",
                    "ticks": 412800,
                    "time": 358.33319,
                    "velocity": 0.905511811023622,
                },
                {
                    "duration": 0.2473957343750044,
                    "durationTicks": 285,
                    "midi": 76,
                    "name": "E5",
                    "ticks": 413760,
                    "time": 359.166523,
                    "velocity": 0.8976377952755905,
                },
                {
                    "duration": 0.2473957343750044,
                    "durationTicks": 285,
                    "midi": 76,
                    "name": "E5",
                    "ticks": 414240,
                    "time": 359.5831895,
                    "velocity": 0.8503937007874016,
                },
                {
                    "duration": 0.4973956343749819,
                    "durationTicks": 573,
                    "midi": 76,
                    "name": "E5",
                    "ticks": 414720,
                    "time": 359.999856,
                    "velocity": 0.8976377952755905,
                },
                {
                    "duration": 0.47135397812502333,
                    "durationTicks": 543,
                    "midi": 76,
                    "name": "E5",
                    "ticks": 415680,
                    "time": 360.833189,
                    "velocity": 0.905511811023622,
                },
                {
                    "duration": 0.8333329999999819,
                    "durationTicks": 960,
                    "midi": 76,
                    "name": "E5",
                    "ticks": 416640,
                    "time": 361.666522,
                    "velocity": 0.8976377952755905,
                },
                {
                    "duration": 0.2473957343750044,
                    "durationTicks": 285,
                    "midi": 76,
                    "name": "E5",
                    "ticks": 417600,
                    "time": 362.49985499999997,
                    "velocity": 0.8661417322834646,
                },
                {
                    "duration": 0.2473957343750044,
                    "durationTicks": 285,
                    "midi": 76,
                    "name": "E5",
                    "ticks": 418080,
                    "time": 362.9165215,
                    "velocity": 0.8661417322834646,
                },
                {
                    "duration": 0.4973956343749819,
                    "durationTicks": 573,
                    "midi": 76,
                    "name": "E5",
                    "ticks": 418560,
                    "time": 363.333188,
                    "velocity": 0.8976377952755905,
                },
                {
                    "duration": 0.47135397812502333,
                    "durationTicks": 543,
                    "midi": 76,
                    "name": "E5",
                    "ticks": 419520,
                    "time": 364.166521,
                    "velocity": 0.8818897637795275,
                },
                {
                    "duration": 0.8333330000000387,
                    "durationTicks": 960,
                    "midi": 76,
                    "name": "E5",
                    "ticks": 420480,
                    "time": 364.99985399999997,
                    "velocity": 0.905511811023622,
                },
                {
                    "duration": 0.2473957343750044,
                    "durationTicks": 285,
                    "midi": 76,
                    "name": "E5",
                    "ticks": 421440,
                    "time": 365.833187,
                    "velocity": 0.8267716535433071,
                },
                {
                    "duration": 0.2473957343750044,
                    "durationTicks": 285,
                    "midi": 76,
                    "name": "E5",
                    "ticks": 421920,
                    "time": 366.2498535,
                    "velocity": 0.889763779527559,
                },
                {
                    "duration": 0.8333329999999819,
                    "durationTicks": 960,
                    "midi": 57,
                    "name": "A3",
                    "ticks": 422400,
                    "time": 366.66652,
                    "velocity": 0.7165354330708661,
                },
                {
                    "duration": 0.8333329999999819,
                    "durationTicks": 960,
                    "midi": 69,
                    "name": "A4",
                    "ticks": 422400,
                    "time": 366.66652,
                    "velocity": 0.7165354330708661,
                },
                {
                    "duration": 7.499997000000008,
                    "durationTicks": 8640,
                    "midi": 57,
                    "name": "A3",
                    "ticks": 446400,
                    "time": 387.499845,
                    "velocity": 0.36220472440944884,
                },
                {
                    "duration": 7.499997000000008,
                    "durationTicks": 8640,
                    "midi": 69,
                    "name": "A4",
                    "ticks": 446400,
                    "time": 387.499845,
                    "velocity": 0.36220472440944884,
                },
                {
                    "duration": 0.8333329999999819,
                    "durationTicks": 960,
                    "midi": 57,
                    "name": "A3",
                    "ticks": 466560,
                    "time": 404.999838,
                    "velocity": 0.28346456692913385,
                },
                {
                    "duration": 0.8333329999999819,
                    "durationTicks": 960,
                    "midi": 69,
                    "name": "A4",
                    "ticks": 466560,
                    "time": 404.999838,
                    "velocity": 0.28346456692913385,
                },
                {
                    "duration": 0.2473957343750044,
                    "durationTicks": 285,
                    "midi": 57,
                    "name": "A3",
                    "ticks": 467520,
                    "time": 405.833171,
                    "velocity": 0.2677165354330709,
                },
                {
                    "duration": 0.2473957343750044,
                    "durationTicks": 285,
                    "midi": 69,
                    "name": "A4",
                    "ticks": 467520,
                    "time": 405.833171,
                    "velocity": 0.2677165354330709,
                },
                {
                    "duration": 0.23437490624996826,
                    "durationTicks": 270,
                    "midi": 57,
                    "name": "A3",
                    "ticks": 468000,
                    "time": 406.2498375,
                    "velocity": 0.29133858267716534,
                },
                {
                    "duration": 0.23437490624996826,
                    "durationTicks": 270,
                    "midi": 69,
                    "name": "A4",
                    "ticks": 468000,
                    "time": 406.2498375,
                    "velocity": 0.29133858267716534,
                },
                {
                    "duration": 0.8333330000000387,
                    "durationTicks": 960,
                    "midi": 57,
                    "name": "A3",
                    "ticks": 468480,
                    "time": 406.666504,
                    "velocity": 0.2677165354330709,
                },
                {
                    "duration": 0.8333330000000387,
                    "durationTicks": 960,
                    "midi": 69,
                    "name": "A4",
                    "ticks": 468480,
                    "time": 406.666504,
                    "velocity": 0.2677165354330709,
                },
                {
                    "duration": 0.8333329999999819,
                    "durationTicks": 960,
                    "midi": 57,
                    "name": "A3",
                    "ticks": 470400,
                    "time": 408.33317,
                    "velocity": 0.25196850393700787,
                },
                {
                    "duration": 0.8333329999999819,
                    "durationTicks": 960,
                    "midi": 69,
                    "name": "A4",
                    "ticks": 470400,
                    "time": 408.33317,
                    "velocity": 0.25196850393700787,
                },
                {
                    "duration": 0.2473957343750044,
                    "durationTicks": 285,
                    "midi": 57,
                    "name": "A3",
                    "ticks": 471360,
                    "time": 409.166503,
                    "velocity": 0.29133858267716534,
                },
                {
                    "duration": 0.2473957343750044,
                    "durationTicks": 285,
                    "midi": 69,
                    "name": "A4",
                    "ticks": 471360,
                    "time": 409.166503,
                    "velocity": 0.29133858267716534,
                },
                {
                    "duration": 0.2343749062500251,
                    "durationTicks": 270,
                    "midi": 57,
                    "name": "A3",
                    "ticks": 471840,
                    "time": 409.5831695,
                    "velocity": 0.28346456692913385,
                },
                {
                    "duration": 0.2343749062500251,
                    "durationTicks": 270,
                    "midi": 69,
                    "name": "A4",
                    "ticks": 471840,
                    "time": 409.5831695,
                    "velocity": 0.28346456692913385,
                },
                {
                    "duration": 0.41666650000001937,
                    "durationTicks": 480,
                    "midi": 76,
                    "name": "E5",
                    "ticks": 474240,
                    "time": 411.666502,
                    "velocity": 0.9133858267716536,
                },
                {
                    "duration": 0.4166664999999625,
                    "durationTicks": 480,
                    "midi": 76,
                    "name": "E5",
                    "ticks": 481920,
                    "time": 418.333166,
                    "velocity": 0.6850393700787402,
                },
            ],
        },
        {
            "channel": 4,
            "controlChanges": {
                "7": [
                    {"number": 7, "ticks": 0, "time": 0, "value": 0.6377952755905512},
                    {"number": 7, "ticks": 0, "time": 0, "value": 0.7480314960629921},
                    {
                        "number": 7,
                        "ticks": 881,
                        "time": 0.7647566385416666,
                        "value": 0.6692913385826772,
                    },
                    {
                        "number": 7,
                        "ticks": 1282,
                        "time": 1.1128467770833332,
                        "value": 0.5905511811023622,
                    },
                    {
                        "number": 7,
                        "ticks": 2433,
                        "time": 2.1119783218749997,
                        "value": 0.5118110236220472,
                    },
                    {
                        "number": 7,
                        "ticks": 2985,
                        "time": 2.591144796875,
                        "value": 0.4330708661417323,
                    },
                    {
                        "number": 7,
                        "ticks": 3836,
                        "time": 3.3298597791666666,
                        "value": 0.3543307086614173,
                    },
                    {
                        "number": 7,
                        "ticks": 3840,
                        "time": 3.333332,
                        "value": 0.2755905511811024,
                    },
                    {
                        "number": 7,
                        "ticks": 5760,
                        "time": 4.999998,
                        "value": 0.5118110236220472,
                    },
                    {
                        "number": 7,
                        "ticks": 528000,
                        "time": 458.33315,
                        "value": 0.7480314960629921,
                    },
                    {
                        "number": 7,
                        "ticks": 528480,
                        "time": 458.817021,
                        "value": 0.6692913385826772,
                    },
                    {
                        "number": 7,
                        "ticks": 528960,
                        "time": 459.300892,
                        "value": 0.5905511811023622,
                    },
                    {
                        "number": 7,
                        "ticks": 529916,
                        "time": 460.26460174166664,
                        "value": 0.5118110236220472,
                    },
                    {
                        "number": 7,
                        "ticks": 530538,
                        "time": 460.98391170624996,
                        "value": 0.3543307086614173,
                    },
                    {
                        "number": 7,
                        "ticks": 531836,
                        "time": 462.4862263708333,
                        "value": 0.1968503937007874,
                    },
                ],
                "10": [
                    {"number": 10, "ticks": 0, "time": 0, "value": 0.36220472440944884}
                ],
                "64": [{"number": 64, "ticks": 0, "time": 0, "value": 0}],
                "91": [
                    {"number": 91, "ticks": 0, "time": 0, "value": 0.4881889763779528}
                ],
                "121": [{"number": 121, "ticks": 0, "time": 0, "value": 0}],
            },
            "pitchBends": [],
            "instrument": {"family": "brass", "number": 60, "name": "french horn"},
            "name": "",
            "notes": [
                {
                    "duration": 4.166665,
                    "durationTicks": 4800,
                    "midi": 52,
                    "name": "E3",
                    "ticks": 0,
                    "time": 0,
                    "velocity": 0.6692913385826772,
                },
                {
                    "duration": 4.166665,
                    "durationTicks": 4800,
                    "midi": 64,
                    "name": "E4",
                    "ticks": 0,
                    "time": 0,
                    "velocity": 0.6692913385826772,
                },
                {
                    "duration": 0.8333329999999961,
                    "durationTicks": 960,
                    "midi": 52,
                    "name": "E3",
                    "ticks": 139200,
                    "time": 120.833285,
                    "velocity": 0.6220472440944882,
                },
                {
                    "duration": 0.8333329999999961,
                    "durationTicks": 960,
                    "midi": 64,
                    "name": "E4",
                    "ticks": 139200,
                    "time": 120.833285,
                    "velocity": 0.6220472440944882,
                },
                {
                    "duration": 0.8333329999999961,
                    "durationTicks": 960,
                    "midi": 69,
                    "name": "A4",
                    "ticks": 141120,
                    "time": 122.499951,
                    "velocity": 0.6456692913385826,
                },
                {
                    "duration": 0.8333330000000103,
                    "durationTicks": 960,
                    "midi": 52,
                    "name": "E3",
                    "ticks": 142080,
                    "time": 123.33328399999999,
                    "velocity": 0.7322834645669292,
                },
                {
                    "duration": 0.8333330000000103,
                    "durationTicks": 960,
                    "midi": 64,
                    "name": "E4",
                    "ticks": 142080,
                    "time": 123.33328399999999,
                    "velocity": 0.7322834645669292,
                },
                {
                    "duration": 0.24739573437499018,
                    "durationTicks": 285,
                    "midi": 52,
                    "name": "E3",
                    "ticks": 143040,
                    "time": 124.166617,
                    "velocity": 0.8582677165354331,
                },
                {
                    "duration": 0.24739573437499018,
                    "durationTicks": 285,
                    "midi": 64,
                    "name": "E4",
                    "ticks": 143040,
                    "time": 124.166617,
                    "velocity": 0.8582677165354331,
                },
                {
                    "duration": 0.2473957343750044,
                    "durationTicks": 285,
                    "midi": 52,
                    "name": "E3",
                    "ticks": 143520,
                    "time": 124.5832835,
                    "velocity": 0.905511811023622,
                },
                {
                    "duration": 0.2473957343750044,
                    "durationTicks": 285,
                    "midi": 64,
                    "name": "E4",
                    "ticks": 143520,
                    "time": 124.5832835,
                    "velocity": 0.905511811023622,
                },
                {
                    "duration": 0.49739563437501033,
                    "durationTicks": 573,
                    "midi": 52,
                    "name": "E3",
                    "ticks": 144000,
                    "time": 124.99995,
                    "velocity": 0.889763779527559,
                },
                {
                    "duration": 0.49739563437501033,
                    "durationTicks": 573,
                    "midi": 64,
                    "name": "E4",
                    "ticks": 144000,
                    "time": 124.99995,
                    "velocity": 0.889763779527559,
                },
                {
                    "duration": 0.4713539781250091,
                    "durationTicks": 543,
                    "midi": 52,
                    "name": "E3",
                    "ticks": 144960,
                    "time": 125.833283,
                    "velocity": 0.8740157480314961,
                },
                {
                    "duration": 0.4713539781250091,
                    "durationTicks": 543,
                    "midi": 64,
                    "name": "E4",
                    "ticks": 144960,
                    "time": 125.833283,
                    "velocity": 0.8740157480314961,
                },
                {
                    "duration": 0.8333329999999961,
                    "durationTicks": 960,
                    "midi": 52,
                    "name": "E3",
                    "ticks": 145920,
                    "time": 126.666616,
                    "velocity": 0.8818897637795275,
                },
                {
                    "duration": 0.8333329999999961,
                    "durationTicks": 960,
                    "midi": 64,
                    "name": "E4",
                    "ticks": 145920,
                    "time": 126.666616,
                    "velocity": 0.8818897637795275,
                },
                {
                    "duration": 0.2473957343750044,
                    "durationTicks": 285,
                    "midi": 52,
                    "name": "E3",
                    "ticks": 146880,
                    "time": 127.499949,
                    "velocity": 0.8818897637795275,
                },
                {
                    "duration": 0.2473957343750044,
                    "durationTicks": 285,
                    "midi": 64,
                    "name": "E4",
                    "ticks": 146880,
                    "time": 127.499949,
                    "velocity": 0.8818897637795275,
                },
                {
                    "duration": 0.2473957343750186,
                    "durationTicks": 285,
                    "midi": 52,
                    "name": "E3",
                    "ticks": 147360,
                    "time": 127.91661549999999,
                    "velocity": 0.8582677165354331,
                },
                {
                    "duration": 0.2473957343750186,
                    "durationTicks": 285,
                    "midi": 64,
                    "name": "E4",
                    "ticks": 147360,
                    "time": 127.91661549999999,
                    "velocity": 0.8582677165354331,
                },
                {
                    "duration": 0.49739563437501033,
                    "durationTicks": 573,
                    "midi": 52,
                    "name": "E3",
                    "ticks": 147840,
                    "time": 128.333282,
                    "velocity": 0.889763779527559,
                },
                {
                    "duration": 0.49739563437501033,
                    "durationTicks": 573,
                    "midi": 64,
                    "name": "E4",
                    "ticks": 147840,
                    "time": 128.333282,
                    "velocity": 0.889763779527559,
                },
                {
                    "duration": 0.4713539781249949,
                    "durationTicks": 543,
                    "midi": 52,
                    "name": "E3",
                    "ticks": 148800,
                    "time": 129.166615,
                    "velocity": 0.8818897637795275,
                },
                {
                    "duration": 0.4713539781249949,
                    "durationTicks": 543,
                    "midi": 64,
                    "name": "E4",
                    "ticks": 148800,
                    "time": 129.166615,
                    "velocity": 0.8818897637795275,
                },
                {
                    "duration": 0.8333330000000103,
                    "durationTicks": 960,
                    "midi": 52,
                    "name": "E3",
                    "ticks": 149760,
                    "time": 129.999948,
                    "velocity": 0.8740157480314961,
                },
                {
                    "duration": 0.8333330000000103,
                    "durationTicks": 960,
                    "midi": 64,
                    "name": "E4",
                    "ticks": 149760,
                    "time": 129.999948,
                    "velocity": 0.8740157480314961,
                },
                {
                    "duration": 0.2473957343750044,
                    "durationTicks": 285,
                    "midi": 64,
                    "name": "E4",
                    "ticks": 150720,
                    "time": 130.833281,
                    "velocity": 0.8976377952755905,
                },
                {
                    "duration": 0.2473957343750044,
                    "durationTicks": 285,
                    "midi": 66,
                    "name": "F#4",
                    "ticks": 151200,
                    "time": 131.2499475,
                    "velocity": 0.937007874015748,
                },
                {
                    "duration": 0.49739563437501033,
                    "durationTicks": 573,
                    "midi": 67,
                    "name": "G4",
                    "ticks": 151680,
                    "time": 131.666614,
                    "velocity": 0.9448818897637795,
                },
                {
                    "duration": 0.47135397812502333,
                    "durationTicks": 543,
                    "midi": 67,
                    "name": "G4",
                    "ticks": 152640,
                    "time": 132.499947,
                    "velocity": 0.905511811023622,
                },
                {
                    "duration": 0.8333330000000103,
                    "durationTicks": 960,
                    "midi": 67,
                    "name": "G4",
                    "ticks": 153600,
                    "time": 133.33328,
                    "velocity": 0.889763779527559,
                },
                {
                    "duration": 0.24739573437497597,
                    "durationTicks": 285,
                    "midi": 67,
                    "name": "G4",
                    "ticks": 154560,
                    "time": 134.166613,
                    "velocity": 0.8503937007874016,
                },
                {
                    "duration": 0.2473957343750044,
                    "durationTicks": 285,
                    "midi": 67,
                    "name": "G4",
                    "ticks": 155040,
                    "time": 134.5832795,
                    "velocity": 0.8976377952755905,
                },
                {
                    "duration": 0.8333330000000103,
                    "durationTicks": 960,
                    "midi": 67,
                    "name": "G4",
                    "ticks": 155520,
                    "time": 134.999946,
                    "velocity": 0.8740157480314961,
                },
                {
                    "duration": 0.8333330000000103,
                    "durationTicks": 960,
                    "midi": 67,
                    "name": "G4",
                    "ticks": 157440,
                    "time": 136.666612,
                    "velocity": 0.7874015748031497,
                },
                {
                    "duration": 0.2473957343750044,
                    "durationTicks": 285,
                    "midi": 67,
                    "name": "G4",
                    "ticks": 158400,
                    "time": 137.499945,
                    "velocity": 0.905511811023622,
                },
                {
                    "duration": 0.2473957343750044,
                    "durationTicks": 285,
                    "midi": 69,
                    "name": "A4",
                    "ticks": 158880,
                    "time": 137.9166115,
                    "velocity": 0.9448818897637795,
                },
                {
                    "duration": 0.49739563437501033,
                    "durationTicks": 573,
                    "midi": 71,
                    "name": "B4",
                    "ticks": 159360,
                    "time": 138.333278,
                    "velocity": 0.9448818897637795,
                },
                {
                    "duration": 0.47135397812502333,
                    "durationTicks": 543,
                    "midi": 71,
                    "name": "B4",
                    "ticks": 160320,
                    "time": 139.166611,
                    "velocity": 0.8740157480314961,
                },
                {
                    "duration": 0.8333330000000103,
                    "durationTicks": 960,
                    "midi": 66,
                    "name": "F#4",
                    "ticks": 161280,
                    "time": 139.999944,
                    "velocity": 0.7716535433070866,
                },
                {
                    "duration": 0.24739573437497597,
                    "durationTicks": 285,
                    "midi": 66,
                    "name": "F#4",
                    "ticks": 162240,
                    "time": 140.833277,
                    "velocity": 0.84251968503937,
                },
                {
                    "duration": 0.2473957343750044,
                    "durationTicks": 285,
                    "midi": 68,
                    "name": "G#4",
                    "ticks": 162720,
                    "time": 141.2499435,
                    "velocity": 0.952755905511811,
                },
                {
                    "duration": 0.49739563437501033,
                    "durationTicks": 573,
                    "midi": 69,
                    "name": "A4",
                    "ticks": 163200,
                    "time": 141.66661,
                    "velocity": 0.952755905511811,
                },
                {
                    "duration": 0.4713539781249949,
                    "durationTicks": 543,
                    "midi": 69,
                    "name": "A4",
                    "ticks": 164160,
                    "time": 142.499943,
                    "velocity": 0.9212598425196851,
                },
                {
                    "duration": 0.8333329999999819,
                    "durationTicks": 960,
                    "midi": 52,
                    "name": "E3",
                    "ticks": 165120,
                    "time": 143.333276,
                    "velocity": 0.7952755905511811,
                },
                {
                    "duration": 0.8333329999999819,
                    "durationTicks": 960,
                    "midi": 64,
                    "name": "E4",
                    "ticks": 165120,
                    "time": 143.333276,
                    "velocity": 0.7952755905511811,
                },
                {
                    "duration": 0.2473957343750044,
                    "durationTicks": 285,
                    "midi": 52,
                    "name": "E3",
                    "ticks": 166080,
                    "time": 144.166609,
                    "velocity": 0.889763779527559,
                },
                {
                    "duration": 0.2473957343750044,
                    "durationTicks": 285,
                    "midi": 64,
                    "name": "E4",
                    "ticks": 166080,
                    "time": 144.166609,
                    "velocity": 0.889763779527559,
                },
                {
                    "duration": 0.2473957343750044,
                    "durationTicks": 285,
                    "midi": 52,
                    "name": "E3",
                    "ticks": 166560,
                    "time": 144.58327549999998,
                    "velocity": 0.9133858267716536,
                },
                {
                    "duration": 0.2473957343750044,
                    "durationTicks": 285,
                    "midi": 64,
                    "name": "E4",
                    "ticks": 166560,
                    "time": 144.58327549999998,
                    "velocity": 0.9133858267716536,
                },
                {
                    "duration": 0.49739563437501033,
                    "durationTicks": 573,
                    "midi": 52,
                    "name": "E3",
                    "ticks": 167040,
                    "time": 144.999942,
                    "velocity": 0.8740157480314961,
                },
                {
                    "duration": 0.49739563437501033,
                    "durationTicks": 573,
                    "midi": 64,
                    "name": "E4",
                    "ticks": 167040,
                    "time": 144.999942,
                    "velocity": 0.8740157480314961,
                },
                {
                    "duration": 0.47135397812502333,
                    "durationTicks": 543,
                    "midi": 52,
                    "name": "E3",
                    "ticks": 168000,
                    "time": 145.833275,
                    "velocity": 0.889763779527559,
                },
                {
                    "duration": 0.47135397812502333,
                    "durationTicks": 543,
                    "midi": 64,
                    "name": "E4",
                    "ticks": 168000,
                    "time": 145.833275,
                    "velocity": 0.889763779527559,
                },
                {
                    "duration": 0.8333330000000103,
                    "durationTicks": 960,
                    "midi": 52,
                    "name": "E3",
                    "ticks": 168960,
                    "time": 146.666608,
                    "velocity": 0.8740157480314961,
                },
                {
                    "duration": 0.8333330000000103,
                    "durationTicks": 960,
                    "midi": 64,
                    "name": "E4",
                    "ticks": 168960,
                    "time": 146.666608,
                    "velocity": 0.8740157480314961,
                },
                {
                    "duration": 0.41666649999999095,
                    "durationTicks": 480,
                    "midi": 66,
                    "name": "F#4",
                    "ticks": 169920,
                    "time": 147.499941,
                    "velocity": 0.9133858267716536,
                },
                {
                    "duration": 0.41666649999999095,
                    "durationTicks": 480,
                    "midi": 68,
                    "name": "G#4",
                    "ticks": 170400,
                    "time": 147.9166075,
                    "velocity": 0.937007874015748,
                },
                {
                    "duration": 0.8333330000000103,
                    "durationTicks": 960,
                    "midi": 69,
                    "name": "A4",
                    "ticks": 170880,
                    "time": 148.333274,
                    "velocity": 0.9291338582677166,
                },
                {
                    "duration": 0.8333329999999819,
                    "durationTicks": 960,
                    "midi": 67,
                    "name": "G4",
                    "ticks": 172800,
                    "time": 149.99994,
                    "velocity": 0.47244094488188976,
                },
                {
                    "duration": 0.2473957343750044,
                    "durationTicks": 285,
                    "midi": 67,
                    "name": "G4",
                    "ticks": 173760,
                    "time": 150.833273,
                    "velocity": 0.5826771653543307,
                },
                {
                    "duration": 0.24739573437497597,
                    "durationTicks": 285,
                    "midi": 69,
                    "name": "A4",
                    "ticks": 174240,
                    "time": 151.2499395,
                    "velocity": 0.6141732283464567,
                },
                {
                    "duration": 0.49739563437501033,
                    "durationTicks": 573,
                    "midi": 71,
                    "name": "B4",
                    "ticks": 174720,
                    "time": 151.666606,
                    "velocity": 0.5984251968503937,
                },
                {
                    "duration": 0.4713539781249949,
                    "durationTicks": 543,
                    "midi": 71,
                    "name": "B4",
                    "ticks": 175680,
                    "time": 152.499939,
                    "velocity": 0.5984251968503937,
                },
                {
                    "duration": 0.8333330000000103,
                    "durationTicks": 960,
                    "midi": 66,
                    "name": "F#4",
                    "ticks": 176640,
                    "time": 153.333272,
                    "velocity": 0.5118110236220472,
                },
                {
                    "duration": 0.2473957343750044,
                    "durationTicks": 285,
                    "midi": 66,
                    "name": "F#4",
                    "ticks": 177600,
                    "time": 154.166605,
                    "velocity": 0.5905511811023622,
                },
                {
                    "duration": 0.2473957343750044,
                    "durationTicks": 285,
                    "midi": 68,
                    "name": "G#4",
                    "ticks": 178080,
                    "time": 154.5832715,
                    "velocity": 0.6692913385826772,
                },
                {
                    "duration": 0.49739563437501033,
                    "durationTicks": 573,
                    "midi": 69,
                    "name": "A4",
                    "ticks": 178560,
                    "time": 154.999938,
                    "velocity": 0.6692913385826772,
                },
                {
                    "duration": 0.47135397812502333,
                    "durationTicks": 543,
                    "midi": 69,
                    "name": "A4",
                    "ticks": 179520,
                    "time": 155.833271,
                    "velocity": 0.6377952755905512,
                },
                {
                    "duration": 0.8333329999999819,
                    "durationTicks": 960,
                    "midi": 52,
                    "name": "E3",
                    "ticks": 180480,
                    "time": 156.666604,
                    "velocity": 0.49606299212598426,
                },
                {
                    "duration": 0.8333329999999819,
                    "durationTicks": 960,
                    "midi": 64,
                    "name": "E4",
                    "ticks": 180480,
                    "time": 156.666604,
                    "velocity": 0.49606299212598426,
                },
                {
                    "duration": 0.2473957343750044,
                    "durationTicks": 285,
                    "midi": 52,
                    "name": "E3",
                    "ticks": 181440,
                    "time": 157.499937,
                    "velocity": 0.5590551181102362,
                },
                {
                    "duration": 0.2473957343750044,
                    "durationTicks": 285,
                    "midi": 64,
                    "name": "E4",
                    "ticks": 181440,
                    "time": 157.499937,
                    "velocity": 0.5590551181102362,
                },
                {
                    "duration": 0.2473957343750044,
                    "durationTicks": 285,
                    "midi": 52,
                    "name": "E3",
                    "ticks": 181920,
                    "time": 157.9166035,
                    "velocity": 0.5511811023622047,
                },
                {
                    "duration": 0.2473957343750044,
                    "durationTicks": 285,
                    "midi": 64,
                    "name": "E4",
                    "ticks": 181920,
                    "time": 157.9166035,
                    "velocity": 0.5511811023622047,
                },
                {
                    "duration": 0.49739563437501033,
                    "durationTicks": 573,
                    "midi": 52,
                    "name": "E3",
                    "ticks": 182400,
                    "time": 158.33327,
                    "velocity": 0.5905511811023622,
                },
                {
                    "duration": 0.49739563437501033,
                    "durationTicks": 573,
                    "midi": 64,
                    "name": "E4",
                    "ticks": 182400,
                    "time": 158.33327,
                    "velocity": 0.5905511811023622,
                },
                {
                    "duration": 0.4713539781249949,
                    "durationTicks": 543,
                    "midi": 52,
                    "name": "E3",
                    "ticks": 183360,
                    "time": 159.166603,
                    "velocity": 0.5669291338582677,
                },
                {
                    "duration": 0.4713539781249949,
                    "durationTicks": 543,
                    "midi": 64,
                    "name": "E4",
                    "ticks": 183360,
                    "time": 159.166603,
                    "velocity": 0.5669291338582677,
                },
                {
                    "duration": 0.8333330000000103,
                    "durationTicks": 960,
                    "midi": 52,
                    "name": "E3",
                    "ticks": 184320,
                    "time": 159.999936,
                    "velocity": 0.5590551181102362,
                },
                {
                    "duration": 0.8333330000000103,
                    "durationTicks": 960,
                    "midi": 64,
                    "name": "E4",
                    "ticks": 184320,
                    "time": 159.999936,
                    "velocity": 0.5590551181102362,
                },
                {
                    "duration": 0.2473957343750044,
                    "durationTicks": 285,
                    "midi": 66,
                    "name": "F#4",
                    "ticks": 185280,
                    "time": 160.833269,
                    "velocity": 0.5748031496062992,
                },
                {
                    "duration": 0.2473957343750044,
                    "durationTicks": 285,
                    "midi": 68,
                    "name": "G#4",
                    "ticks": 185760,
                    "time": 161.2499355,
                    "velocity": 0.5905511811023622,
                },
                {
                    "duration": 0.8333329999999819,
                    "durationTicks": 960,
                    "midi": 69,
                    "name": "A4",
                    "ticks": 186240,
                    "time": 161.666602,
                    "velocity": 0.3937007874015748,
                },
                {
                    "duration": 0.8333329999999819,
                    "durationTicks": 960,
                    "midi": 52,
                    "name": "E3",
                    "ticks": 188160,
                    "time": 163.333268,
                    "velocity": 0.3464566929133858,
                },
                {
                    "duration": 0.8333329999999819,
                    "durationTicks": 960,
                    "midi": 64,
                    "name": "E4",
                    "ticks": 188160,
                    "time": 163.333268,
                    "velocity": 0.3464566929133858,
                },
                {
                    "duration": 0.2473957343750044,
                    "durationTicks": 285,
                    "midi": 52,
                    "name": "E3",
                    "ticks": 189120,
                    "time": 164.16660099999999,
                    "velocity": 0.3779527559055118,
                },
                {
                    "duration": 0.2473957343750044,
                    "durationTicks": 285,
                    "midi": 64,
                    "name": "E4",
                    "ticks": 189120,
                    "time": 164.16660099999999,
                    "velocity": 0.3779527559055118,
                },
                {
                    "duration": 0.2473957343750044,
                    "durationTicks": 285,
                    "midi": 52,
                    "name": "E3",
                    "ticks": 189600,
                    "time": 164.5832675,
                    "velocity": 0.36220472440944884,
                },
                {
                    "duration": 0.2473957343750044,
                    "durationTicks": 285,
                    "midi": 64,
                    "name": "E4",
                    "ticks": 189600,
                    "time": 164.5832675,
                    "velocity": 0.36220472440944884,
                },
                {
                    "duration": 0.8333330000000103,
                    "durationTicks": 960,
                    "midi": 64,
                    "name": "E4",
                    "ticks": 190080,
                    "time": 164.999934,
                    "velocity": 0.3700787401574803,
                },
                {
                    "duration": 1.6666659999999922,
                    "durationTicks": 1920,
                    "midi": 59,
                    "name": "B3",
                    "ticks": 218880,
                    "time": 189.999924,
                    "velocity": 0.3464566929133858,
                },
                {
                    "duration": 1.6666659999999922,
                    "durationTicks": 1920,
                    "midi": 71,
                    "name": "B4",
                    "ticks": 218880,
                    "time": 189.999924,
                    "velocity": 0.3464566929133858,
                },
                {
                    "duration": 4.999998000000005,
                    "durationTicks": 5760,
                    "midi": 52,
                    "name": "E3",
                    "ticks": 220800,
                    "time": 191.66658999999999,
                    "velocity": 0.30708661417322836,
                },
                {
                    "duration": 4.999998000000005,
                    "durationTicks": 5760,
                    "midi": 64,
                    "name": "E4",
                    "ticks": 220800,
                    "time": 191.66658999999999,
                    "velocity": 0.30708661417322836,
                },
                {
                    "duration": 1.2499995000000013,
                    "durationTicks": 1440,
                    "midi": 69,
                    "name": "A4",
                    "ticks": 226560,
                    "time": 196.666588,
                    "velocity": 0.8740157480314961,
                },
                {
                    "duration": 0.41666650000001937,
                    "durationTicks": 480,
                    "midi": 69,
                    "name": "A4",
                    "ticks": 228000,
                    "time": 197.9165875,
                    "velocity": 0.7480314960629921,
                },
                {
                    "duration": 0.2795137770833378,
                    "durationTicks": 322,
                    "midi": 69,
                    "name": "A4",
                    "ticks": 228480,
                    "time": 198.333254,
                    "velocity": 0.7559055118110236,
                },
                {
                    "duration": 0.2604165625000121,
                    "durationTicks": 300,
                    "midi": 68,
                    "name": "G#4",
                    "ticks": 228798,
                    "time": 198.60929555625,
                    "velocity": 0.7165354330708661,
                },
                {
                    "duration": 0.1657985447916701,
                    "durationTicks": 191,
                    "midi": 66,
                    "name": "F#4",
                    "ticks": 229117,
                    "time": 198.88620516770834,
                    "velocity": 0.6692913385826772,
                },
                {
                    "duration": 0.1657985447916701,
                    "durationTicks": 191,
                    "midi": 64,
                    "name": "E4",
                    "ticks": 229440,
                    "time": 199.166587,
                    "velocity": 0.7244094488188977,
                },
                {
                    "duration": 0.166666599999985,
                    "durationTicks": 192,
                    "midi": 63,
                    "name": "D#4",
                    "ticks": 229758,
                    "time": 199.44262855625,
                    "velocity": 0.7244094488188977,
                },
                {
                    "duration": 0.1657985447916701,
                    "durationTicks": 191,
                    "midi": 61,
                    "name": "C#4",
                    "ticks": 230077,
                    "time": 199.71953816770835,
                    "velocity": 0.6850393700787402,
                },
                {
                    "duration": 0.8489579937499911,
                    "durationTicks": 978,
                    "midi": 59,
                    "name": "B3",
                    "ticks": 230400,
                    "time": 199.99992,
                    "velocity": 0.7322834645669292,
                },
                {
                    "duration": 0.3932290093750339,
                    "durationTicks": 453,
                    "midi": 61,
                    "name": "C#4",
                    "ticks": 231360,
                    "time": 200.83325299999998,
                    "velocity": 0.7559055118110236,
                },
                {
                    "duration": 0.2473957343750044,
                    "durationTicks": 285,
                    "midi": 63,
                    "name": "D#4",
                    "ticks": 231840,
                    "time": 201.2499195,
                    "velocity": 0.84251968503937,
                },
                {
                    "duration": 0.8333330000000103,
                    "durationTicks": 960,
                    "midi": 64,
                    "name": "E4",
                    "ticks": 232320,
                    "time": 201.666586,
                    "velocity": 0.7952755905511811,
                },
                {
                    "duration": 0.2604165624999837,
                    "durationTicks": 300,
                    "midi": 64,
                    "name": "E4",
                    "ticks": 233280,
                    "time": 202.499919,
                    "velocity": 0.7874015748031497,
                },
                {
                    "duration": 0.2803818322916811,
                    "durationTicks": 323,
                    "midi": 63,
                    "name": "D#4",
                    "ticks": 233598,
                    "time": 202.77596055625,
                    "velocity": 0.7401574803149606,
                },
                {
                    "duration": 0.26388878333332855,
                    "durationTicks": 304,
                    "midi": 64,
                    "name": "E4",
                    "ticks": 233917,
                    "time": 203.05287016770833,
                    "velocity": 0.7559055118110236,
                },
                {
                    "duration": 2.4999990000000025,
                    "durationTicks": 2880,
                    "midi": 64,
                    "name": "E4",
                    "ticks": 234240,
                    "time": 203.333252,
                    "velocity": 0.84251968503937,
                },
                {
                    "duration": 0.42274288645833735,
                    "durationTicks": 487,
                    "midi": 66,
                    "name": "F#4",
                    "ticks": 237120,
                    "time": 205.833251,
                    "velocity": 0.8582677165354331,
                },
                {
                    "duration": 0.3932290093750055,
                    "durationTicks": 453,
                    "midi": 64,
                    "name": "E4",
                    "ticks": 237600,
                    "time": 206.2499175,
                    "velocity": 0.8110236220472441,
                },
                {
                    "duration": 2.4999990000000025,
                    "durationTicks": 2880,
                    "midi": 64,
                    "name": "E4",
                    "ticks": 238080,
                    "time": 206.666584,
                    "velocity": 0.7795275590551181,
                },
                {
                    "duration": 0.2795137770833378,
                    "durationTicks": 322,
                    "midi": 68,
                    "name": "G#4",
                    "ticks": 240960,
                    "time": 209.166583,
                    "velocity": 0.8661417322834646,
                },
                {
                    "duration": 0.2803818322916811,
                    "durationTicks": 323,
                    "midi": 66,
                    "name": "F#4",
                    "ticks": 241278,
                    "time": 209.44262455625,
                    "velocity": 0.8031496062992126,
                },
                {
                    "duration": 0.26388878333332855,
                    "durationTicks": 304,
                    "midi": 64,
                    "name": "E4",
                    "ticks": 241597,
                    "time": 209.71953416770833,
                    "velocity": 0.7007874015748031,
                },
                {
                    "duration": 1.6666660000000206,
                    "durationTicks": 1920,
                    "midi": 64,
                    "name": "E4",
                    "ticks": 241920,
                    "time": 209.99991599999998,
                    "velocity": 0.5354330708661418,
                },
                {
                    "duration": 1.6666659999999922,
                    "durationTicks": 1920,
                    "midi": 66,
                    "name": "F#4",
                    "ticks": 243840,
                    "time": 211.666582,
                    "velocity": 0.6299212598425197,
                },
                {
                    "duration": 0.8333330000000103,
                    "durationTicks": 960,
                    "midi": 64,
                    "name": "E4",
                    "ticks": 245760,
                    "time": 213.333248,
                    "velocity": 0.4881889763779528,
                },
                {
                    "duration": 0.8333329999999819,
                    "durationTicks": 960,
                    "midi": 64,
                    "name": "E4",
                    "ticks": 246720,
                    "time": 214.166581,
                    "velocity": 0.4015748031496063,
                },
                {
                    "duration": 0.8333329999999819,
                    "durationTicks": 960,
                    "midi": 52,
                    "name": "E3",
                    "ticks": 246720,
                    "time": 214.166581,
                    "velocity": 0.33858267716535434,
                },
                {
                    "duration": 1.6666660000000206,
                    "durationTicks": 1920,
                    "midi": 64,
                    "name": "E4",
                    "ticks": 247680,
                    "time": 214.999914,
                    "velocity": 0.4251968503937008,
                },
                {
                    "duration": 1.6666660000000206,
                    "durationTicks": 1920,
                    "midi": 52,
                    "name": "E3",
                    "ticks": 247680,
                    "time": 214.999914,
                    "velocity": 0.5354330708661418,
                },
                {
                    "duration": 2.499998999999974,
                    "durationTicks": 2880,
                    "midi": 64,
                    "name": "E4",
                    "ticks": 249600,
                    "time": 216.66658,
                    "velocity": 0.41732283464566927,
                },
                {
                    "duration": 0.4227428864583658,
                    "durationTicks": 487,
                    "midi": 66,
                    "name": "F#4",
                    "ticks": 252480,
                    "time": 219.16657899999998,
                    "velocity": 0.5748031496062992,
                },
                {
                    "duration": 0.3932290093750055,
                    "durationTicks": 453,
                    "midi": 64,
                    "name": "E4",
                    "ticks": 252960,
                    "time": 219.5832455,
                    "velocity": 0.5039370078740157,
                },
                {
                    "duration": 2.4999990000000025,
                    "durationTicks": 2880,
                    "midi": 64,
                    "name": "E4",
                    "ticks": 253440,
                    "time": 219.999912,
                    "velocity": 0.5275590551181102,
                },
                {
                    "duration": 0.8333330000000103,
                    "durationTicks": 960,
                    "midi": 64,
                    "name": "E4",
                    "ticks": 255360,
                    "time": 221.666578,
                    "velocity": 0.8031496062992126,
                },
                {
                    "duration": 0.27604155625002136,
                    "durationTicks": 318,
                    "midi": 68,
                    "name": "G#4",
                    "ticks": 256320,
                    "time": 222.499911,
                    "velocity": 0.7165354330708661,
                },
                {
                    "duration": 0.27690961145830784,
                    "durationTicks": 319,
                    "midi": 66,
                    "name": "F#4",
                    "ticks": 256638,
                    "time": 222.77595255625002,
                    "velocity": 0.6062992125984252,
                },
                {
                    "duration": 0.2803818322916811,
                    "durationTicks": 323,
                    "midi": 64,
                    "name": "E4",
                    "ticks": 256957,
                    "time": 223.05286216770833,
                    "velocity": 0.5984251968503937,
                },
                {
                    "duration": 1.6666659999999922,
                    "durationTicks": 1920,
                    "midi": 64,
                    "name": "E4",
                    "ticks": 257280,
                    "time": 223.333244,
                    "velocity": 0.5590551181102362,
                },
                {
                    "duration": 0.8333330000000103,
                    "durationTicks": 960,
                    "midi": 52,
                    "name": "E3",
                    "ticks": 258240,
                    "time": 224.166577,
                    "velocity": 0.49606299212598426,
                },
                {
                    "duration": 1.6666659999999922,
                    "durationTicks": 1920,
                    "midi": 69,
                    "name": "A4",
                    "ticks": 259200,
                    "time": 224.99991,
                    "velocity": 0.5826771653543307,
                },
                {
                    "duration": 0.8333330000000103,
                    "durationTicks": 960,
                    "midi": 67,
                    "name": "G4",
                    "ticks": 261120,
                    "time": 226.666576,
                    "velocity": 0.3464566929133858,
                },
                {
                    "duration": 0.8333329999999819,
                    "durationTicks": 960,
                    "midi": 67,
                    "name": "G4",
                    "ticks": 262080,
                    "time": 227.499909,
                    "velocity": 0.3858267716535433,
                },
                {
                    "duration": 8.333330000000018,
                    "durationTicks": 9600,
                    "midi": 67,
                    "name": "G4",
                    "ticks": 263040,
                    "time": 228.33324199999998,
                    "velocity": 0.3543307086614173,
                },
                {
                    "duration": 0.8333330000000103,
                    "durationTicks": 960,
                    "midi": 64,
                    "name": "E4",
                    "ticks": 266880,
                    "time": 231.666574,
                    "velocity": 0.44881889763779526,
                },
                {
                    "duration": 0.8333329999999819,
                    "durationTicks": 960,
                    "midi": 64,
                    "name": "E4",
                    "ticks": 270720,
                    "time": 234.999906,
                    "velocity": 0.23622047244094488,
                },
                {
                    "duration": 1.2499995000000013,
                    "durationTicks": 1440,
                    "midi": 67,
                    "name": "G4",
                    "ticks": 272640,
                    "time": 236.666572,
                    "velocity": 0.3228346456692913,
                },
                {
                    "duration": 0.41666649999999095,
                    "durationTicks": 480,
                    "midi": 67,
                    "name": "G4",
                    "ticks": 274080,
                    "time": 237.9165715,
                    "velocity": 0.31496062992125984,
                },
                {
                    "duration": 0.2473957343750044,
                    "durationTicks": 285,
                    "midi": 52,
                    "name": "E3",
                    "ticks": 284160,
                    "time": 246.66656799999998,
                    "velocity": 0.8188976377952756,
                },
                {
                    "duration": 0.2473957343750044,
                    "durationTicks": 285,
                    "midi": 64,
                    "name": "E4",
                    "ticks": 284160,
                    "time": 246.66656799999998,
                    "velocity": 0.8188976377952756,
                },
                {
                    "duration": 0.2473957343750044,
                    "durationTicks": 285,
                    "midi": 52,
                    "name": "E3",
                    "ticks": 284640,
                    "time": 247.0832345,
                    "velocity": 0.8740157480314961,
                },
                {
                    "duration": 0.2473957343750044,
                    "durationTicks": 285,
                    "midi": 64,
                    "name": "E4",
                    "ticks": 284640,
                    "time": 247.0832345,
                    "velocity": 0.8740157480314961,
                },
                {
                    "duration": 1.2499995000000013,
                    "durationTicks": 1440,
                    "midi": 52,
                    "name": "E3",
                    "ticks": 407520,
                    "time": 353.7498585,
                    "velocity": 0.84251968503937,
                },
                {
                    "duration": 1.2499995000000013,
                    "durationTicks": 1440,
                    "midi": 64,
                    "name": "E4",
                    "ticks": 407520,
                    "time": 353.7498585,
                    "velocity": 0.84251968503937,
                },
                {
                    "duration": 0.8333329999999819,
                    "durationTicks": 960,
                    "midi": 64,
                    "name": "E4",
                    "ticks": 408960,
                    "time": 354.999858,
                    "velocity": 0.8976377952755905,
                },
                {
                    "duration": 0.2473957343750044,
                    "durationTicks": 285,
                    "midi": 64,
                    "name": "E4",
                    "ticks": 409920,
                    "time": 355.833191,
                    "velocity": 0.8818897637795275,
                },
                {
                    "duration": 0.2473957343750044,
                    "durationTicks": 285,
                    "midi": 64,
                    "name": "E4",
                    "ticks": 410400,
                    "time": 356.2498575,
                    "velocity": 0.8818897637795275,
                },
                {
                    "duration": 0.49739563437503875,
                    "durationTicks": 573,
                    "midi": 64,
                    "name": "E4",
                    "ticks": 410880,
                    "time": 356.666524,
                    "velocity": 0.8976377952755905,
                },
                {
                    "duration": 0.4713539781249665,
                    "durationTicks": 543,
                    "midi": 64,
                    "name": "E4",
                    "ticks": 411840,
                    "time": 357.499857,
                    "velocity": 0.8818897637795275,
                },
                {
                    "duration": 0.8333329999999819,
                    "durationTicks": 960,
                    "midi": 64,
                    "name": "E4",
                    "ticks": 412800,
                    "time": 358.33319,
                    "velocity": 0.889763779527559,
                },
                {
                    "duration": 0.2473957343750044,
                    "durationTicks": 285,
                    "midi": 64,
                    "name": "E4",
                    "ticks": 413760,
                    "time": 359.166523,
                    "velocity": 0.8740157480314961,
                },
                {
                    "duration": 0.2473957343750044,
                    "durationTicks": 285,
                    "midi": 64,
                    "name": "E4",
                    "ticks": 414240,
                    "time": 359.5831895,
                    "velocity": 0.8503937007874016,
                },
                {
                    "duration": 0.4973956343749819,
                    "durationTicks": 573,
                    "midi": 64,
                    "name": "E4",
                    "ticks": 414720,
                    "time": 359.999856,
                    "velocity": 0.8582677165354331,
                },
                {
                    "duration": 0.47135397812502333,
                    "durationTicks": 543,
                    "midi": 64,
                    "name": "E4",
                    "ticks": 415680,
                    "time": 360.833189,
                    "velocity": 0.8740157480314961,
                },
                {
                    "duration": 0.8333329999999819,
                    "durationTicks": 960,
                    "midi": 64,
                    "name": "E4",
                    "ticks": 416640,
                    "time": 361.666522,
                    "velocity": 0.8818897637795275,
                },
                {
                    "duration": 0.2473957343750044,
                    "durationTicks": 285,
                    "midi": 64,
                    "name": "E4",
                    "ticks": 417600,
                    "time": 362.49985499999997,
                    "velocity": 0.889763779527559,
                },
                {
                    "duration": 0.2473957343750044,
                    "durationTicks": 285,
                    "midi": 64,
                    "name": "E4",
                    "ticks": 418080,
                    "time": 362.9165215,
                    "velocity": 0.8661417322834646,
                },
                {
                    "duration": 0.4973956343749819,
                    "durationTicks": 573,
                    "midi": 64,
                    "name": "E4",
                    "ticks": 418560,
                    "time": 363.333188,
                    "velocity": 0.8503937007874016,
                },
                {
                    "duration": 0.47135397812502333,
                    "durationTicks": 543,
                    "midi": 64,
                    "name": "E4",
                    "ticks": 419520,
                    "time": 364.166521,
                    "velocity": 0.8818897637795275,
                },
                {
                    "duration": 0.8333330000000387,
                    "durationTicks": 960,
                    "midi": 64,
                    "name": "E4",
                    "ticks": 420480,
                    "time": 364.99985399999997,
                    "velocity": 0.9133858267716536,
                },
                {
                    "duration": 0.2473957343750044,
                    "durationTicks": 285,
                    "midi": 66,
                    "name": "F#4",
                    "ticks": 421440,
                    "time": 365.833187,
                    "velocity": 0.937007874015748,
                },
                {
                    "duration": 0.2473957343750044,
                    "durationTicks": 285,
                    "midi": 68,
                    "name": "G#4",
                    "ticks": 421920,
                    "time": 366.2498535,
                    "velocity": 0.9763779527559056,
                },
                {
                    "duration": 0.8333329999999819,
                    "durationTicks": 960,
                    "midi": 69,
                    "name": "A4",
                    "ticks": 422400,
                    "time": 366.66652,
                    "velocity": 0.9291338582677166,
                },
                {
                    "duration": 0.8333329999999819,
                    "durationTicks": 960,
                    "midi": 52,
                    "name": "E3",
                    "ticks": 424320,
                    "time": 368.333186,
                    "velocity": 0.36220472440944884,
                },
                {
                    "duration": 0.8333329999999819,
                    "durationTicks": 960,
                    "midi": 64,
                    "name": "E4",
                    "ticks": 424320,
                    "time": 368.333186,
                    "velocity": 0.36220472440944884,
                },
                {
                    "duration": 0.2473957343750044,
                    "durationTicks": 285,
                    "midi": 52,
                    "name": "E3",
                    "ticks": 425280,
                    "time": 369.166519,
                    "velocity": 0.36220472440944884,
                },
                {
                    "duration": 0.2473957343750044,
                    "durationTicks": 285,
                    "midi": 64,
                    "name": "E4",
                    "ticks": 425280,
                    "time": 369.166519,
                    "velocity": 0.36220472440944884,
                },
                {
                    "duration": 0.2473957343750044,
                    "durationTicks": 285,
                    "midi": 52,
                    "name": "E3",
                    "ticks": 425760,
                    "time": 369.5831855,
                    "velocity": 0.3779527559055118,
                },
                {
                    "duration": 0.2473957343750044,
                    "durationTicks": 285,
                    "midi": 64,
                    "name": "E4",
                    "ticks": 425760,
                    "time": 369.5831855,
                    "velocity": 0.3779527559055118,
                },
                {
                    "duration": 0.41666650000001937,
                    "durationTicks": 480,
                    "midi": 64,
                    "name": "E4",
                    "ticks": 426240,
                    "time": 369.999852,
                    "velocity": 0.3858267716535433,
                },
                {
                    "duration": 0.8333329999999819,
                    "durationTicks": 960,
                    "midi": 67,
                    "name": "G4",
                    "ticks": 472320,
                    "time": 409.999836,
                    "velocity": 0.8188976377952756,
                },
                {
                    "duration": 0.2473957343750044,
                    "durationTicks": 285,
                    "midi": 67,
                    "name": "G4",
                    "ticks": 473280,
                    "time": 410.833169,
                    "velocity": 0.889763779527559,
                },
                {
                    "duration": 0.2473957343750044,
                    "durationTicks": 285,
                    "midi": 67,
                    "name": "G4",
                    "ticks": 473760,
                    "time": 411.2498355,
                    "velocity": 0.8346456692913385,
                },
                {
                    "duration": 0.41666650000001937,
                    "durationTicks": 480,
                    "midi": 67,
                    "name": "G4",
                    "ticks": 474240,
                    "time": 411.666502,
                    "velocity": 0.8582677165354331,
                },
                {
                    "duration": 0.8333329999999819,
                    "durationTicks": 960,
                    "midi": 67,
                    "name": "G4",
                    "ticks": 480000,
                    "time": 416.6665,
                    "velocity": 0.7874015748031497,
                },
                {
                    "duration": 0.2473957343750044,
                    "durationTicks": 285,
                    "midi": 67,
                    "name": "G4",
                    "ticks": 480960,
                    "time": 417.49983299999997,
                    "velocity": 0.889763779527559,
                },
                {
                    "duration": 0.2473957343750044,
                    "durationTicks": 285,
                    "midi": 67,
                    "name": "G4",
                    "ticks": 481440,
                    "time": 417.9164995,
                    "velocity": 0.9212598425196851,
                },
                {
                    "duration": 0.4166664999999625,
                    "durationTicks": 480,
                    "midi": 67,
                    "name": "G4",
                    "ticks": 481920,
                    "time": 418.333166,
                    "velocity": 0.889763779527559,
                },
                {
                    "duration": 0.8333330000000387,
                    "durationTicks": 960,
                    "midi": 64,
                    "name": "E4",
                    "ticks": 495360,
                    "time": 429.999828,
                    "velocity": 0.2755905511811024,
                },
                {
                    "duration": 0.24999989999992067,
                    "durationTicks": 288,
                    "midi": 64,
                    "name": "E4",
                    "ticks": 496320,
                    "time": 430.833161,
                    "velocity": 0.2755905511811024,
                },
                {
                    "duration": 0.2343749062500251,
                    "durationTicks": 270,
                    "midi": 66,
                    "name": "F#4",
                    "ticks": 496800,
                    "time": 431.2498275,
                    "velocity": 0.28346456692913385,
                },
                {
                    "duration": 0.4973956343749819,
                    "durationTicks": 573,
                    "midi": 64,
                    "name": "E4",
                    "ticks": 497280,
                    "time": 431.666494,
                    "velocity": 0.36220472440944884,
                },
                {
                    "duration": 0.4973956343749819,
                    "durationTicks": 573,
                    "midi": 67,
                    "name": "G4",
                    "ticks": 497280,
                    "time": 431.666494,
                    "velocity": 0.36220472440944884,
                },
                {
                    "duration": 0.4713539781249665,
                    "durationTicks": 543,
                    "midi": 64,
                    "name": "E4",
                    "ticks": 498240,
                    "time": 432.499827,
                    "velocity": 0.28346456692913385,
                },
                {
                    "duration": 0.4713539781249665,
                    "durationTicks": 543,
                    "midi": 67,
                    "name": "G4",
                    "ticks": 498240,
                    "time": 432.499827,
                    "velocity": 0.28346456692913385,
                },
                {
                    "duration": 0.8333330000000387,
                    "durationTicks": 960,
                    "midi": 64,
                    "name": "E4",
                    "ticks": 510720,
                    "time": 443.333156,
                    "velocity": 0.23622047244094488,
                },
                {
                    "duration": 0.2473957343750044,
                    "durationTicks": 285,
                    "midi": 64,
                    "name": "E4",
                    "ticks": 511680,
                    "time": 444.166489,
                    "velocity": 0.2755905511811024,
                },
                {
                    "duration": 0.2343749062500251,
                    "durationTicks": 270,
                    "midi": 64,
                    "name": "E4",
                    "ticks": 512160,
                    "time": 444.5831555,
                    "velocity": 0.28346456692913385,
                },
                {
                    "duration": 0.4973956343749819,
                    "durationTicks": 573,
                    "midi": 64,
                    "name": "E4",
                    "ticks": 512640,
                    "time": 444.999822,
                    "velocity": 0.2755905511811024,
                },
                {
                    "duration": 0.5078122968749881,
                    "durationTicks": 585,
                    "midi": 59,
                    "name": "B3",
                    "ticks": 512640,
                    "time": 444.999822,
                    "velocity": 0.25984251968503935,
                },
                {
                    "duration": 0.4713539781249665,
                    "durationTicks": 543,
                    "midi": 64,
                    "name": "E4",
                    "ticks": 513600,
                    "time": 445.833155,
                    "velocity": 0.2755905511811024,
                },
                {
                    "duration": 0.8333329999999819,
                    "durationTicks": 960,
                    "midi": 52,
                    "name": "E3",
                    "ticks": 518400,
                    "time": 449.99982,
                    "velocity": 0.29133858267716534,
                },
                {
                    "duration": 0.8333329999999819,
                    "durationTicks": 960,
                    "midi": 64,
                    "name": "E4",
                    "ticks": 518400,
                    "time": 449.99982,
                    "velocity": 0.29133858267716534,
                },
                {
                    "duration": 0.2473957343750044,
                    "durationTicks": 285,
                    "midi": 52,
                    "name": "E3",
                    "ticks": 519360,
                    "time": 450.833153,
                    "velocity": 0.2755905511811024,
                },
                {
                    "duration": 0.2473957343750044,
                    "durationTicks": 285,
                    "midi": 64,
                    "name": "E4",
                    "ticks": 519360,
                    "time": 450.833153,
                    "velocity": 0.2755905511811024,
                },
                {
                    "duration": 0.2473957343750044,
                    "durationTicks": 285,
                    "midi": 52,
                    "name": "E3",
                    "ticks": 519840,
                    "time": 451.2498195,
                    "velocity": 0.25196850393700787,
                },
                {
                    "duration": 0.2473957343750044,
                    "durationTicks": 285,
                    "midi": 64,
                    "name": "E4",
                    "ticks": 519840,
                    "time": 451.2498195,
                    "velocity": 0.25196850393700787,
                },
                {
                    "duration": 0.8333329999999819,
                    "durationTicks": 960,
                    "midi": 64,
                    "name": "E4",
                    "ticks": 520320,
                    "time": 451.666486,
                    "velocity": 0.25984251968503935,
                },
                {
                    "duration": 4.713261499999987,
                    "durationTicks": 4320,
                    "midi": 52,
                    "name": "E3",
                    "ticks": 528000,
                    "time": 458.33315,
                    "velocity": 0.6535433070866141,
                },
                {
                    "duration": 4.713261499999987,
                    "durationTicks": 4320,
                    "midi": 64,
                    "name": "E4",
                    "ticks": 528000,
                    "time": 458.33315,
                    "velocity": 0.6535433070866141,
                },
            ],
        },
        {
            "channel": 3,
            "controlChanges": {
                "7": [
                    {"number": 7, "ticks": 0, "time": 0, "value": 0.5433070866141733},
                    {"number": 7, "ticks": 0, "time": 0, "value": 0.7480314960629921},
                    {
                        "number": 7,
                        "ticks": 881,
                        "time": 0.7647566385416666,
                        "value": 0.6692913385826772,
                    },
                    {
                        "number": 7,
                        "ticks": 1282,
                        "time": 1.1128467770833332,
                        "value": 0.5905511811023622,
                    },
                    {
                        "number": 7,
                        "ticks": 1920,
                        "time": 1.666666,
                        "value": 0.5118110236220472,
                    },
                    {
                        "number": 7,
                        "ticks": 3056,
                        "time": 2.6527767166666663,
                        "value": 0.4330708661417323,
                    },
                    {
                        "number": 7,
                        "ticks": 3840,
                        "time": 3.333332,
                        "value": 0.3543307086614173,
                    },
                    {
                        "number": 7,
                        "ticks": 4260,
                        "time": 3.6979151875,
                        "value": 0.2755905511811024,
                    },
                    {
                        "number": 7,
                        "ticks": 5760,
                        "time": 4.999998,
                        "value": 0.47244094488188976,
                    },
                    {
                        "number": 7,
                        "ticks": 528000,
                        "time": 458.33315,
                        "value": 0.7480314960629921,
                    },
                    {
                        "number": 7,
                        "ticks": 528480,
                        "time": 458.817021,
                        "value": 0.6692913385826772,
                    },
                    {
                        "number": 7,
                        "ticks": 529237,
                        "time": 459.5801258895833,
                        "value": 0.5905511811023622,
                    },
                    {
                        "number": 7,
                        "ticks": 529916,
                        "time": 460.26460174166664,
                        "value": 0.47244094488188976,
                    },
                    {
                        "number": 7,
                        "ticks": 531060,
                        "time": 461.5880783125,
                        "value": 0.3543307086614173,
                    },
                    {
                        "number": 7,
                        "ticks": 531840,
                        "time": 462.49085599999995,
                        "value": 0.1968503937007874,
                    },
                ],
                "10": [
                    {"number": 10, "ticks": 0, "time": 0, "value": 0.5511811023622047}
                ],
                "64": [{"number": 64, "ticks": 0, "time": 0, "value": 0}],
                "91": [
                    {"number": 91, "ticks": 0, "time": 0, "value": 0.44881889763779526}
                ],
                "121": [{"number": 121, "ticks": 0, "time": 0, "value": 0}],
            },
            "pitchBends": [],
            "instrument": {"family": "reed", "number": 70, "name": "bassoon"},
            "name": "",
            "notes": [
                {
                    "duration": 4.166665,
                    "durationTicks": 4800,
                    "midi": 57,
                    "name": "A3",
                    "ticks": 0,
                    "time": 0,
                    "velocity": 0.6929133858267716,
                },
                {
                    "duration": 4.166665,
                    "durationTicks": 4800,
                    "midi": 60,
                    "name": "C4",
                    "ticks": 0,
                    "time": 0,
                    "velocity": 0.6929133858267716,
                },
                {
                    "duration": 0.8333330000000103,
                    "durationTicks": 960,
                    "midi": 60,
                    "name": "C4",
                    "ticks": 127680,
                    "time": 110.833289,
                    "velocity": 0.25984251968503935,
                },
                {
                    "duration": 0.8333330000000103,
                    "durationTicks": 960,
                    "midi": 64,
                    "name": "E4",
                    "ticks": 127680,
                    "time": 110.833289,
                    "velocity": 0.25984251968503935,
                },
                {
                    "duration": 0.8333329999999961,
                    "durationTicks": 960,
                    "midi": 59,
                    "name": "B3",
                    "ticks": 129600,
                    "time": 112.499955,
                    "velocity": 0.3779527559055118,
                },
                {
                    "duration": 0.8333329999999961,
                    "durationTicks": 960,
                    "midi": 66,
                    "name": "F#4",
                    "ticks": 129600,
                    "time": 112.499955,
                    "velocity": 0.3779527559055118,
                },
                {
                    "duration": 0.8333330000000103,
                    "durationTicks": 960,
                    "midi": 59,
                    "name": "B3",
                    "ticks": 131520,
                    "time": 114.16662099999999,
                    "velocity": 0.4094488188976378,
                },
                {
                    "duration": 0.8333330000000103,
                    "durationTicks": 960,
                    "midi": 62,
                    "name": "D4",
                    "ticks": 131520,
                    "time": 114.16662099999999,
                    "velocity": 0.4094488188976378,
                },
                {
                    "duration": 0.8333329999999961,
                    "durationTicks": 960,
                    "midi": 57,
                    "name": "A3",
                    "ticks": 133440,
                    "time": 115.833287,
                    "velocity": 0.4330708661417323,
                },
                {
                    "duration": 0.8333329999999961,
                    "durationTicks": 960,
                    "midi": 64,
                    "name": "E4",
                    "ticks": 133440,
                    "time": 115.833287,
                    "velocity": 0.4330708661417323,
                },
                {
                    "duration": 0.8333329999999961,
                    "durationTicks": 960,
                    "midi": 57,
                    "name": "A3",
                    "ticks": 135360,
                    "time": 117.499953,
                    "velocity": 0.5511811023622047,
                },
                {
                    "duration": 0.8333329999999961,
                    "durationTicks": 960,
                    "midi": 64,
                    "name": "E4",
                    "ticks": 135360,
                    "time": 117.499953,
                    "velocity": 0.5511811023622047,
                },
                {
                    "duration": 0.8333329999999961,
                    "durationTicks": 960,
                    "midi": 57,
                    "name": "A3",
                    "ticks": 137280,
                    "time": 119.166619,
                    "velocity": 0.5669291338582677,
                },
                {
                    "duration": 0.8333329999999961,
                    "durationTicks": 960,
                    "midi": 64,
                    "name": "E4",
                    "ticks": 137280,
                    "time": 119.166619,
                    "velocity": 0.5669291338582677,
                },
                {
                    "duration": 0.8333329999999961,
                    "durationTicks": 960,
                    "midi": 59,
                    "name": "B3",
                    "ticks": 139200,
                    "time": 120.833285,
                    "velocity": 0.6614173228346457,
                },
                {
                    "duration": 0.8333329999999961,
                    "durationTicks": 960,
                    "midi": 62,
                    "name": "D4",
                    "ticks": 139200,
                    "time": 120.833285,
                    "velocity": 0.6614173228346457,
                },
                {
                    "duration": 0.8333329999999961,
                    "durationTicks": 960,
                    "midi": 57,
                    "name": "A3",
                    "ticks": 141120,
                    "time": 122.499951,
                    "velocity": 0.7401574803149606,
                },
                {
                    "duration": 0.8333329999999961,
                    "durationTicks": 960,
                    "midi": 60,
                    "name": "C4",
                    "ticks": 141120,
                    "time": 122.499951,
                    "velocity": 0.7401574803149606,
                },
                {
                    "duration": 0.8333330000000103,
                    "durationTicks": 960,
                    "midi": 52,
                    "name": "E3",
                    "ticks": 142080,
                    "time": 123.33328399999999,
                    "velocity": 0.952755905511811,
                },
                {
                    "duration": 0.8333330000000103,
                    "durationTicks": 960,
                    "midi": 64,
                    "name": "E4",
                    "ticks": 142080,
                    "time": 123.33328399999999,
                    "velocity": 0.952755905511811,
                },
                {
                    "duration": 0.24739573437499018,
                    "durationTicks": 285,
                    "midi": 52,
                    "name": "E3",
                    "ticks": 143040,
                    "time": 124.166617,
                    "velocity": 0.7559055118110236,
                },
                {
                    "duration": 0.24739573437499018,
                    "durationTicks": 285,
                    "midi": 64,
                    "name": "E4",
                    "ticks": 143040,
                    "time": 124.166617,
                    "velocity": 0.7559055118110236,
                },
                {
                    "duration": 0.2473957343750044,
                    "durationTicks": 285,
                    "midi": 52,
                    "name": "E3",
                    "ticks": 143520,
                    "time": 124.5832835,
                    "velocity": 0.7874015748031497,
                },
                {
                    "duration": 0.2473957343750044,
                    "durationTicks": 285,
                    "midi": 64,
                    "name": "E4",
                    "ticks": 143520,
                    "time": 124.5832835,
                    "velocity": 0.7874015748031497,
                },
                {
                    "duration": 0.49739563437501033,
                    "durationTicks": 573,
                    "midi": 52,
                    "name": "E3",
                    "ticks": 144000,
                    "time": 124.99995,
                    "velocity": 0.7795275590551181,
                },
                {
                    "duration": 0.49739563437501033,
                    "durationTicks": 573,
                    "midi": 64,
                    "name": "E4",
                    "ticks": 144000,
                    "time": 124.99995,
                    "velocity": 0.7795275590551181,
                },
                {
                    "duration": 0.4713539781250091,
                    "durationTicks": 543,
                    "midi": 52,
                    "name": "E3",
                    "ticks": 144960,
                    "time": 125.833283,
                    "velocity": 0.7637795275590551,
                },
                {
                    "duration": 0.4713539781250091,
                    "durationTicks": 543,
                    "midi": 64,
                    "name": "E4",
                    "ticks": 144960,
                    "time": 125.833283,
                    "velocity": 0.7637795275590551,
                },
                {
                    "duration": 0.8333329999999961,
                    "durationTicks": 960,
                    "midi": 52,
                    "name": "E3",
                    "ticks": 145920,
                    "time": 126.666616,
                    "velocity": 0.7480314960629921,
                },
                {
                    "duration": 0.8333329999999961,
                    "durationTicks": 960,
                    "midi": 64,
                    "name": "E4",
                    "ticks": 145920,
                    "time": 126.666616,
                    "velocity": 0.7480314960629921,
                },
                {
                    "duration": 0.2473957343750044,
                    "durationTicks": 285,
                    "midi": 52,
                    "name": "E3",
                    "ticks": 146880,
                    "time": 127.499949,
                    "velocity": 0.7559055118110236,
                },
                {
                    "duration": 0.2473957343750044,
                    "durationTicks": 285,
                    "midi": 64,
                    "name": "E4",
                    "ticks": 146880,
                    "time": 127.499949,
                    "velocity": 0.7559055118110236,
                },
                {
                    "duration": 0.2473957343750186,
                    "durationTicks": 285,
                    "midi": 52,
                    "name": "E3",
                    "ticks": 147360,
                    "time": 127.91661549999999,
                    "velocity": 0.7244094488188977,
                },
                {
                    "duration": 0.2473957343750186,
                    "durationTicks": 285,
                    "midi": 64,
                    "name": "E4",
                    "ticks": 147360,
                    "time": 127.91661549999999,
                    "velocity": 0.7244094488188977,
                },
                {
                    "duration": 0.49739563437501033,
                    "durationTicks": 573,
                    "midi": 52,
                    "name": "E3",
                    "ticks": 147840,
                    "time": 128.333282,
                    "velocity": 0.7795275590551181,
                },
                {
                    "duration": 0.49739563437501033,
                    "durationTicks": 573,
                    "midi": 64,
                    "name": "E4",
                    "ticks": 147840,
                    "time": 128.333282,
                    "velocity": 0.7795275590551181,
                },
                {
                    "duration": 0.4713539781249949,
                    "durationTicks": 543,
                    "midi": 52,
                    "name": "E3",
                    "ticks": 148800,
                    "time": 129.166615,
                    "velocity": 0.7716535433070866,
                },
                {
                    "duration": 0.4713539781249949,
                    "durationTicks": 543,
                    "midi": 64,
                    "name": "E4",
                    "ticks": 148800,
                    "time": 129.166615,
                    "velocity": 0.7716535433070866,
                },
                {
                    "duration": 0.8333330000000103,
                    "durationTicks": 960,
                    "midi": 52,
                    "name": "E3",
                    "ticks": 149760,
                    "time": 129.999948,
                    "velocity": 0.7401574803149606,
                },
                {
                    "duration": 0.8333330000000103,
                    "durationTicks": 960,
                    "midi": 64,
                    "name": "E4",
                    "ticks": 149760,
                    "time": 129.999948,
                    "velocity": 0.7401574803149606,
                },
                {
                    "duration": 0.2473957343750044,
                    "durationTicks": 285,
                    "midi": 52,
                    "name": "E3",
                    "ticks": 150720,
                    "time": 130.833281,
                    "velocity": 0.7874015748031497,
                },
                {
                    "duration": 0.2473957343750044,
                    "durationTicks": 285,
                    "midi": 64,
                    "name": "E4",
                    "ticks": 150720,
                    "time": 130.833281,
                    "velocity": 0.7874015748031497,
                },
                {
                    "duration": 0.2473957343750044,
                    "durationTicks": 285,
                    "midi": 54,
                    "name": "F#3",
                    "ticks": 151200,
                    "time": 131.2499475,
                    "velocity": 0.8031496062992126,
                },
                {
                    "duration": 0.2473957343750044,
                    "durationTicks": 285,
                    "midi": 66,
                    "name": "F#4",
                    "ticks": 151200,
                    "time": 131.2499475,
                    "velocity": 0.8031496062992126,
                },
                {
                    "duration": 0.49739563437501033,
                    "durationTicks": 573,
                    "midi": 55,
                    "name": "G3",
                    "ticks": 151680,
                    "time": 131.666614,
                    "velocity": 0.7795275590551181,
                },
                {
                    "duration": 0.49739563437501033,
                    "durationTicks": 573,
                    "midi": 67,
                    "name": "G4",
                    "ticks": 151680,
                    "time": 131.666614,
                    "velocity": 0.7795275590551181,
                },
                {
                    "duration": 0.47135397812502333,
                    "durationTicks": 543,
                    "midi": 55,
                    "name": "G3",
                    "ticks": 152640,
                    "time": 132.499947,
                    "velocity": 0.7637795275590551,
                },
                {
                    "duration": 0.47135397812502333,
                    "durationTicks": 543,
                    "midi": 67,
                    "name": "G4",
                    "ticks": 152640,
                    "time": 132.499947,
                    "velocity": 0.7637795275590551,
                },
                {
                    "duration": 0.8333330000000103,
                    "durationTicks": 960,
                    "midi": 55,
                    "name": "G3",
                    "ticks": 153600,
                    "time": 133.33328,
                    "velocity": 0.7874015748031497,
                },
                {
                    "duration": 0.8333330000000103,
                    "durationTicks": 960,
                    "midi": 67,
                    "name": "G4",
                    "ticks": 153600,
                    "time": 133.33328,
                    "velocity": 0.7874015748031497,
                },
                {
                    "duration": 0.24739573437497597,
                    "durationTicks": 285,
                    "midi": 55,
                    "name": "G3",
                    "ticks": 154560,
                    "time": 134.166613,
                    "velocity": 0.7716535433070866,
                },
                {
                    "duration": 0.24739573437497597,
                    "durationTicks": 285,
                    "midi": 67,
                    "name": "G4",
                    "ticks": 154560,
                    "time": 134.166613,
                    "velocity": 0.7716535433070866,
                },
                {
                    "duration": 0.2473957343750044,
                    "durationTicks": 285,
                    "midi": 55,
                    "name": "G3",
                    "ticks": 155040,
                    "time": 134.5832795,
                    "velocity": 0.7244094488188977,
                },
                {
                    "duration": 0.2473957343750044,
                    "durationTicks": 285,
                    "midi": 67,
                    "name": "G4",
                    "ticks": 155040,
                    "time": 134.5832795,
                    "velocity": 0.7244094488188977,
                },
                {
                    "duration": 0.8333330000000103,
                    "durationTicks": 960,
                    "midi": 55,
                    "name": "G3",
                    "ticks": 155520,
                    "time": 134.999946,
                    "velocity": 0.7244094488188977,
                },
                {
                    "duration": 0.8333330000000103,
                    "durationTicks": 960,
                    "midi": 67,
                    "name": "G4",
                    "ticks": 155520,
                    "time": 134.999946,
                    "velocity": 0.7244094488188977,
                },
                {
                    "duration": 0.8333330000000103,
                    "durationTicks": 960,
                    "midi": 55,
                    "name": "G3",
                    "ticks": 157440,
                    "time": 136.666612,
                    "velocity": 0.6771653543307087,
                },
                {
                    "duration": 0.41666649999999095,
                    "durationTicks": 480,
                    "midi": 55,
                    "name": "G3",
                    "ticks": 158400,
                    "time": 137.499945,
                    "velocity": 0.7480314960629921,
                },
                {
                    "duration": 0.41666650000001937,
                    "durationTicks": 480,
                    "midi": 57,
                    "name": "A3",
                    "ticks": 158880,
                    "time": 137.9166115,
                    "velocity": 0.7952755905511811,
                },
                {
                    "duration": 0.49739563437501033,
                    "durationTicks": 573,
                    "midi": 59,
                    "name": "B3",
                    "ticks": 159360,
                    "time": 138.333278,
                    "velocity": 0.7795275590551181,
                },
                {
                    "duration": 0.47135397812502333,
                    "durationTicks": 543,
                    "midi": 59,
                    "name": "B3",
                    "ticks": 160320,
                    "time": 139.166611,
                    "velocity": 0.7716535433070866,
                },
                {
                    "duration": 0.8333330000000103,
                    "durationTicks": 960,
                    "midi": 54,
                    "name": "F#3",
                    "ticks": 161280,
                    "time": 139.999944,
                    "velocity": 0.7165354330708661,
                },
                {
                    "duration": 0.41666649999999095,
                    "durationTicks": 480,
                    "midi": 54,
                    "name": "F#3",
                    "ticks": 162240,
                    "time": 140.833277,
                    "velocity": 0.7165354330708661,
                },
                {
                    "duration": 0.41666649999999095,
                    "durationTicks": 480,
                    "midi": 56,
                    "name": "G#3",
                    "ticks": 162720,
                    "time": 141.2499435,
                    "velocity": 0.7716535433070866,
                },
                {
                    "duration": 0.49739563437501033,
                    "durationTicks": 573,
                    "midi": 57,
                    "name": "A3",
                    "ticks": 163200,
                    "time": 141.66661,
                    "velocity": 0.7795275590551181,
                },
                {
                    "duration": 0.4713539781249949,
                    "durationTicks": 543,
                    "midi": 57,
                    "name": "A3",
                    "ticks": 164160,
                    "time": 142.499943,
                    "velocity": 0.7637795275590551,
                },
                {
                    "duration": 0.8333329999999819,
                    "durationTicks": 960,
                    "midi": 52,
                    "name": "E3",
                    "ticks": 165120,
                    "time": 143.333276,
                    "velocity": 0.905511811023622,
                },
                {
                    "duration": 0.8333329999999819,
                    "durationTicks": 960,
                    "midi": 64,
                    "name": "E4",
                    "ticks": 165120,
                    "time": 143.333276,
                    "velocity": 0.905511811023622,
                },
                {
                    "duration": 0.2473957343750044,
                    "durationTicks": 285,
                    "midi": 52,
                    "name": "E3",
                    "ticks": 166080,
                    "time": 144.166609,
                    "velocity": 0.7637795275590551,
                },
                {
                    "duration": 0.2473957343750044,
                    "durationTicks": 285,
                    "midi": 64,
                    "name": "E4",
                    "ticks": 166080,
                    "time": 144.166609,
                    "velocity": 0.7637795275590551,
                },
                {
                    "duration": 0.2473957343750044,
                    "durationTicks": 285,
                    "midi": 52,
                    "name": "E3",
                    "ticks": 166560,
                    "time": 144.58327549999998,
                    "velocity": 0.7795275590551181,
                },
                {
                    "duration": 0.2473957343750044,
                    "durationTicks": 285,
                    "midi": 64,
                    "name": "E4",
                    "ticks": 166560,
                    "time": 144.58327549999998,
                    "velocity": 0.7795275590551181,
                },
                {
                    "duration": 0.49739563437501033,
                    "durationTicks": 573,
                    "midi": 52,
                    "name": "E3",
                    "ticks": 167040,
                    "time": 144.999942,
                    "velocity": 0.7480314960629921,
                },
                {
                    "duration": 0.49739563437501033,
                    "durationTicks": 573,
                    "midi": 64,
                    "name": "E4",
                    "ticks": 167040,
                    "time": 144.999942,
                    "velocity": 0.7480314960629921,
                },
                {
                    "duration": 0.47135397812502333,
                    "durationTicks": 543,
                    "midi": 52,
                    "name": "E3",
                    "ticks": 168000,
                    "time": 145.833275,
                    "velocity": 0.7637795275590551,
                },
                {
                    "duration": 0.47135397812502333,
                    "durationTicks": 543,
                    "midi": 64,
                    "name": "E4",
                    "ticks": 168000,
                    "time": 145.833275,
                    "velocity": 0.7637795275590551,
                },
                {
                    "duration": 0.8333330000000103,
                    "durationTicks": 960,
                    "midi": 52,
                    "name": "E3",
                    "ticks": 168960,
                    "time": 146.666608,
                    "velocity": 0.7244094488188977,
                },
                {
                    "duration": 0.8333330000000103,
                    "durationTicks": 960,
                    "midi": 64,
                    "name": "E4",
                    "ticks": 168960,
                    "time": 146.666608,
                    "velocity": 0.7244094488188977,
                },
                {
                    "duration": 0.41666649999999095,
                    "durationTicks": 480,
                    "midi": 54,
                    "name": "F#3",
                    "ticks": 169920,
                    "time": 147.499941,
                    "velocity": 0.6614173228346457,
                },
                {
                    "duration": 0.41666649999999095,
                    "durationTicks": 480,
                    "midi": 56,
                    "name": "G#3",
                    "ticks": 170400,
                    "time": 147.9166075,
                    "velocity": 0.7874015748031497,
                },
                {
                    "duration": 0.8333330000000103,
                    "durationTicks": 960,
                    "midi": 57,
                    "name": "A3",
                    "ticks": 170880,
                    "time": 148.333274,
                    "velocity": 0.7637795275590551,
                },
                {
                    "duration": 0.8333329999999819,
                    "durationTicks": 960,
                    "midi": 55,
                    "name": "G3",
                    "ticks": 172800,
                    "time": 149.99994,
                    "velocity": 0.6141732283464567,
                },
                {
                    "duration": 0.2473957343750044,
                    "durationTicks": 285,
                    "midi": 55,
                    "name": "G3",
                    "ticks": 173760,
                    "time": 150.833273,
                    "velocity": 0.6535433070866141,
                },
                {
                    "duration": 0.24739573437497597,
                    "durationTicks": 285,
                    "midi": 57,
                    "name": "A3",
                    "ticks": 174240,
                    "time": 151.2499395,
                    "velocity": 0.7086614173228346,
                },
                {
                    "duration": 0.49739563437501033,
                    "durationTicks": 573,
                    "midi": 59,
                    "name": "B3",
                    "ticks": 174720,
                    "time": 151.666606,
                    "velocity": 0.6850393700787402,
                },
                {
                    "duration": 0.4713539781249949,
                    "durationTicks": 543,
                    "midi": 59,
                    "name": "B3",
                    "ticks": 175680,
                    "time": 152.499939,
                    "velocity": 0.6377952755905512,
                },
                {
                    "duration": 0.8333330000000103,
                    "durationTicks": 960,
                    "midi": 54,
                    "name": "F#3",
                    "ticks": 176640,
                    "time": 153.333272,
                    "velocity": 0.5669291338582677,
                },
                {
                    "duration": 0.2473957343750044,
                    "durationTicks": 285,
                    "midi": 54,
                    "name": "F#3",
                    "ticks": 177600,
                    "time": 154.166605,
                    "velocity": 0.5590551181102362,
                },
                {
                    "duration": 0.2473957343750044,
                    "durationTicks": 285,
                    "midi": 56,
                    "name": "G#3",
                    "ticks": 178080,
                    "time": 154.5832715,
                    "velocity": 0.5748031496062992,
                },
                {
                    "duration": 0.49739563437501033,
                    "durationTicks": 573,
                    "midi": 57,
                    "name": "A3",
                    "ticks": 178560,
                    "time": 154.999938,
                    "velocity": 0.5748031496062992,
                },
                {
                    "duration": 0.47135397812502333,
                    "durationTicks": 543,
                    "midi": 57,
                    "name": "A3",
                    "ticks": 179520,
                    "time": 155.833271,
                    "velocity": 0.5118110236220472,
                },
                {
                    "duration": 0.8333329999999819,
                    "durationTicks": 960,
                    "midi": 52,
                    "name": "E3",
                    "ticks": 180480,
                    "time": 156.666604,
                    "velocity": 0.5354330708661418,
                },
                {
                    "duration": 0.8333329999999819,
                    "durationTicks": 960,
                    "midi": 64,
                    "name": "E4",
                    "ticks": 180480,
                    "time": 156.666604,
                    "velocity": 0.5354330708661418,
                },
                {
                    "duration": 0.2473957343750044,
                    "durationTicks": 285,
                    "midi": 52,
                    "name": "E3",
                    "ticks": 181440,
                    "time": 157.499937,
                    "velocity": 0.48031496062992124,
                },
                {
                    "duration": 0.2473957343750044,
                    "durationTicks": 285,
                    "midi": 64,
                    "name": "E4",
                    "ticks": 181440,
                    "time": 157.499937,
                    "velocity": 0.48031496062992124,
                },
                {
                    "duration": 0.2473957343750044,
                    "durationTicks": 285,
                    "midi": 52,
                    "name": "E3",
                    "ticks": 181920,
                    "time": 157.9166035,
                    "velocity": 0.4409448818897638,
                },
                {
                    "duration": 0.2473957343750044,
                    "durationTicks": 285,
                    "midi": 64,
                    "name": "E4",
                    "ticks": 181920,
                    "time": 157.9166035,
                    "velocity": 0.4409448818897638,
                },
                {
                    "duration": 0.49739563437501033,
                    "durationTicks": 573,
                    "midi": 52,
                    "name": "E3",
                    "ticks": 182400,
                    "time": 158.33327,
                    "velocity": 0.41732283464566927,
                },
                {
                    "duration": 0.49739563437501033,
                    "durationTicks": 573,
                    "midi": 64,
                    "name": "E4",
                    "ticks": 182400,
                    "time": 158.33327,
                    "velocity": 0.41732283464566927,
                },
                {
                    "duration": 0.4713539781249949,
                    "durationTicks": 543,
                    "midi": 52,
                    "name": "E3",
                    "ticks": 183360,
                    "time": 159.166603,
                    "velocity": 0.4330708661417323,
                },
                {
                    "duration": 0.4713539781249949,
                    "durationTicks": 543,
                    "midi": 64,
                    "name": "E4",
                    "ticks": 183360,
                    "time": 159.166603,
                    "velocity": 0.4330708661417323,
                },
                {
                    "duration": 0.8333330000000103,
                    "durationTicks": 960,
                    "midi": 52,
                    "name": "E3",
                    "ticks": 184320,
                    "time": 159.999936,
                    "velocity": 0.3700787401574803,
                },
                {
                    "duration": 0.2473957343750044,
                    "durationTicks": 285,
                    "midi": 54,
                    "name": "F#3",
                    "ticks": 185280,
                    "time": 160.833269,
                    "velocity": 0.3937007874015748,
                },
                {
                    "duration": 0.2473957343750044,
                    "durationTicks": 285,
                    "midi": 56,
                    "name": "G#3",
                    "ticks": 185760,
                    "time": 161.2499355,
                    "velocity": 0.4094488188976378,
                },
                {
                    "duration": 0.8333329999999819,
                    "durationTicks": 960,
                    "midi": 57,
                    "name": "A3",
                    "ticks": 186240,
                    "time": 161.666602,
                    "velocity": 0.3464566929133858,
                },
                {
                    "duration": 0.8333329999999819,
                    "durationTicks": 960,
                    "midi": 59,
                    "name": "B3",
                    "ticks": 188160,
                    "time": 163.333268,
                    "velocity": 0.31496062992125984,
                },
                {
                    "duration": 0.8333329999999819,
                    "durationTicks": 960,
                    "midi": 62,
                    "name": "D4",
                    "ticks": 188160,
                    "time": 163.333268,
                    "velocity": 0.31496062992125984,
                },
                {
                    "duration": 0.2473957343750044,
                    "durationTicks": 285,
                    "midi": 59,
                    "name": "B3",
                    "ticks": 189120,
                    "time": 164.16660099999999,
                    "velocity": 0.3858267716535433,
                },
                {
                    "duration": 0.2473957343750044,
                    "durationTicks": 285,
                    "midi": 62,
                    "name": "D4",
                    "ticks": 189120,
                    "time": 164.16660099999999,
                    "velocity": 0.3858267716535433,
                },
                {
                    "duration": 0.2473957343750044,
                    "durationTicks": 285,
                    "midi": 59,
                    "name": "B3",
                    "ticks": 189600,
                    "time": 164.5832675,
                    "velocity": 0.3937007874015748,
                },
                {
                    "duration": 0.2473957343750044,
                    "durationTicks": 285,
                    "midi": 62,
                    "name": "D4",
                    "ticks": 189600,
                    "time": 164.5832675,
                    "velocity": 0.3937007874015748,
                },
                {
                    "duration": 0.8333330000000103,
                    "durationTicks": 960,
                    "midi": 57,
                    "name": "A3",
                    "ticks": 190080,
                    "time": 164.999934,
                    "velocity": 0.33858267716535434,
                },
                {
                    "duration": 0.8333330000000103,
                    "durationTicks": 960,
                    "midi": 60,
                    "name": "C4",
                    "ticks": 190080,
                    "time": 164.999934,
                    "velocity": 0.33858267716535434,
                },
                {
                    "duration": 1.6666659999999922,
                    "durationTicks": 1920,
                    "midi": 64,
                    "name": "E4",
                    "ticks": 192960,
                    "time": 167.499933,
                    "velocity": 0.4566929133858268,
                },
                {
                    "duration": 0.8489579937500196,
                    "durationTicks": 978,
                    "midi": 61,
                    "name": "C#4",
                    "ticks": 194880,
                    "time": 169.166599,
                    "velocity": 0.49606299212598426,
                },
                {
                    "duration": 0.8489579937500196,
                    "durationTicks": 978,
                    "midi": 57,
                    "name": "A3",
                    "ticks": 195840,
                    "time": 169.999932,
                    "velocity": 0.44881889763779526,
                },
                {
                    "duration": 0.7907982947916423,
                    "durationTicks": 911,
                    "midi": 61,
                    "name": "C#4",
                    "ticks": 196800,
                    "time": 170.833265,
                    "velocity": 0.5590551181102362,
                },
                {
                    "duration": 0.8489579937500196,
                    "durationTicks": 978,
                    "midi": 61,
                    "name": "C#4",
                    "ticks": 197760,
                    "time": 171.666598,
                    "velocity": 0.5118110236220472,
                },
                {
                    "duration": 1.6987840427083256,
                    "durationTicks": 1957,
                    "midi": 50,
                    "name": "D3",
                    "ticks": 198720,
                    "time": 172.499931,
                    "velocity": 0.47244094488188976,
                },
                {
                    "duration": 1.6987840427083256,
                    "durationTicks": 1957,
                    "midi": 59,
                    "name": "B3",
                    "ticks": 198720,
                    "time": 172.499931,
                    "velocity": 0.47244094488188976,
                },
                {
                    "duration": 0.8489579937500196,
                    "durationTicks": 978,
                    "midi": 49,
                    "name": "C#3",
                    "ticks": 200640,
                    "time": 174.166597,
                    "velocity": 0.5275590551181102,
                },
                {
                    "duration": 0.8489579937500196,
                    "durationTicks": 978,
                    "midi": 57,
                    "name": "A3",
                    "ticks": 200640,
                    "time": 174.166597,
                    "velocity": 0.5275590551181102,
                },
                {
                    "duration": 0.8489579937499911,
                    "durationTicks": 978,
                    "midi": 47,
                    "name": "B2",
                    "ticks": 201600,
                    "time": 174.99993,
                    "velocity": 0.5354330708661418,
                },
                {
                    "duration": 0.8489579937499911,
                    "durationTicks": 978,
                    "midi": 56,
                    "name": "G#3",
                    "ticks": 201600,
                    "time": 174.99993,
                    "velocity": 0.5354330708661418,
                },
                {
                    "duration": 0.8489579937500196,
                    "durationTicks": 978,
                    "midi": 49,
                    "name": "C#3",
                    "ticks": 202560,
                    "time": 175.833263,
                    "velocity": 0.5669291338582677,
                },
                {
                    "duration": 0.8489579937500196,
                    "durationTicks": 978,
                    "midi": 57,
                    "name": "A3",
                    "ticks": 202560,
                    "time": 175.833263,
                    "velocity": 0.5669291338582677,
                },
                {
                    "duration": 0.8489579937500196,
                    "durationTicks": 978,
                    "midi": 50,
                    "name": "D3",
                    "ticks": 203520,
                    "time": 176.666596,
                    "velocity": 0.6141732283464567,
                },
                {
                    "duration": 0.8489579937500196,
                    "durationTicks": 978,
                    "midi": 59,
                    "name": "B3",
                    "ticks": 203520,
                    "time": 176.666596,
                    "velocity": 0.6141732283464567,
                },
                {
                    "duration": 0.8489579937499911,
                    "durationTicks": 978,
                    "midi": 52,
                    "name": "E3",
                    "ticks": 204480,
                    "time": 177.499929,
                    "velocity": 0.6614173228346457,
                },
                {
                    "duration": 0.8489579937499911,
                    "durationTicks": 978,
                    "midi": 61,
                    "name": "C#4",
                    "ticks": 204480,
                    "time": 177.499929,
                    "velocity": 0.6614173228346457,
                },
                {
                    "duration": 0.8489579937500196,
                    "durationTicks": 978,
                    "midi": 54,
                    "name": "F#3",
                    "ticks": 205440,
                    "time": 178.333262,
                    "velocity": 0.6929133858267716,
                },
                {
                    "duration": 0.8489579937500196,
                    "durationTicks": 978,
                    "midi": 62,
                    "name": "D4",
                    "ticks": 205440,
                    "time": 178.333262,
                    "velocity": 0.6929133858267716,
                },
                {
                    "duration": 0.8489579937500196,
                    "durationTicks": 978,
                    "midi": 56,
                    "name": "G#3",
                    "ticks": 206400,
                    "time": 179.166595,
                    "velocity": 0.6377952755905512,
                },
                {
                    "duration": 0.8489579937500196,
                    "durationTicks": 978,
                    "midi": 64,
                    "name": "E4",
                    "ticks": 206400,
                    "time": 179.166595,
                    "velocity": 0.6377952755905512,
                },
                {
                    "duration": 0.8489579937499911,
                    "durationTicks": 978,
                    "midi": 59,
                    "name": "B3",
                    "ticks": 207360,
                    "time": 179.999928,
                    "velocity": 0.47244094488188976,
                },
                {
                    "duration": 0.8489579937499911,
                    "durationTicks": 978,
                    "midi": 62,
                    "name": "D4",
                    "ticks": 207360,
                    "time": 179.999928,
                    "velocity": 0.47244094488188976,
                },
                {
                    "duration": 0.42274288645833735,
                    "durationTicks": 487,
                    "midi": 57,
                    "name": "A3",
                    "ticks": 208320,
                    "time": 180.833261,
                    "velocity": 0.41732283464566927,
                },
                {
                    "duration": 0.41666649999999095,
                    "durationTicks": 480,
                    "midi": 61,
                    "name": "C#4",
                    "ticks": 208320,
                    "time": 180.833261,
                    "velocity": 0.41732283464566927,
                },
                {
                    "duration": 0.3932290093750339,
                    "durationTicks": 453,
                    "midi": 61,
                    "name": "C#4",
                    "ticks": 208800,
                    "time": 181.24992749999998,
                    "velocity": 0.4409448818897638,
                },
                {
                    "duration": 0.3932290093750339,
                    "durationTicks": 453,
                    "midi": 64,
                    "name": "E4",
                    "ticks": 208800,
                    "time": 181.24992749999998,
                    "velocity": 0.4409448818897638,
                },
                {
                    "duration": 1.6666659999999922,
                    "durationTicks": 1920,
                    "midi": 61,
                    "name": "C#4",
                    "ticks": 209280,
                    "time": 181.666594,
                    "velocity": 0.4015748031496063,
                },
                {
                    "duration": 1.6987840427083256,
                    "durationTicks": 1957,
                    "midi": 64,
                    "name": "E4",
                    "ticks": 209280,
                    "time": 181.666594,
                    "velocity": 0.4015748031496063,
                },
                {
                    "duration": 0.8489579937500196,
                    "durationTicks": 978,
                    "midi": 57,
                    "name": "A3",
                    "ticks": 211200,
                    "time": 183.33326,
                    "velocity": 0.4645669291338583,
                },
                {
                    "duration": 0.8333330000000103,
                    "durationTicks": 960,
                    "midi": 61,
                    "name": "C#4",
                    "ticks": 211200,
                    "time": 183.33326,
                    "velocity": 0.4645669291338583,
                },
                {
                    "duration": 0.7907982947916707,
                    "durationTicks": 911,
                    "midi": 61,
                    "name": "C#4",
                    "ticks": 212160,
                    "time": 184.166593,
                    "velocity": 0.5590551181102362,
                },
                {
                    "duration": 0.7907982947916707,
                    "durationTicks": 911,
                    "midi": 64,
                    "name": "E4",
                    "ticks": 212160,
                    "time": 184.166593,
                    "velocity": 0.5590551181102362,
                },
                {
                    "duration": 0.8489579937500196,
                    "durationTicks": 978,
                    "midi": 61,
                    "name": "C#4",
                    "ticks": 213120,
                    "time": 184.999926,
                    "velocity": 0.5511811023622047,
                },
                {
                    "duration": 0.8489579937500196,
                    "durationTicks": 978,
                    "midi": 64,
                    "name": "E4",
                    "ticks": 213120,
                    "time": 184.999926,
                    "velocity": 0.5511811023622047,
                },
                {
                    "duration": 1.6987840427083256,
                    "durationTicks": 1957,
                    "midi": 62,
                    "name": "D4",
                    "ticks": 214080,
                    "time": 185.833259,
                    "velocity": 0.6141732283464567,
                },
                {
                    "duration": 1.6987840427083256,
                    "durationTicks": 1957,
                    "midi": 66,
                    "name": "F#4",
                    "ticks": 214080,
                    "time": 185.833259,
                    "velocity": 0.6141732283464567,
                },
                {
                    "duration": 0.7907982947916707,
                    "durationTicks": 911,
                    "midi": 61,
                    "name": "C#4",
                    "ticks": 216000,
                    "time": 187.499925,
                    "velocity": 0.4330708661417323,
                },
                {
                    "duration": 0.7907982947916707,
                    "durationTicks": 911,
                    "midi": 64,
                    "name": "E4",
                    "ticks": 216000,
                    "time": 187.499925,
                    "velocity": 0.4330708661417323,
                },
                {
                    "duration": 0.8489579937500196,
                    "durationTicks": 978,
                    "midi": 59,
                    "name": "B3",
                    "ticks": 216960,
                    "time": 188.333258,
                    "velocity": 0.4566929133858268,
                },
                {
                    "duration": 0.8489579937500196,
                    "durationTicks": 978,
                    "midi": 62,
                    "name": "D4",
                    "ticks": 216960,
                    "time": 188.333258,
                    "velocity": 0.4566929133858268,
                },
                {
                    "duration": 0.8489579937499911,
                    "durationTicks": 978,
                    "midi": 57,
                    "name": "A3",
                    "ticks": 217920,
                    "time": 189.166591,
                    "velocity": 0.4409448818897638,
                },
                {
                    "duration": 0.8489579937499911,
                    "durationTicks": 978,
                    "midi": 61,
                    "name": "C#4",
                    "ticks": 217920,
                    "time": 189.166591,
                    "velocity": 0.4409448818897638,
                },
                {
                    "duration": 0.8489579937500196,
                    "durationTicks": 978,
                    "midi": 56,
                    "name": "G#3",
                    "ticks": 218880,
                    "time": 189.999924,
                    "velocity": 0.4409448818897638,
                },
                {
                    "duration": 0.8489579937500196,
                    "durationTicks": 978,
                    "midi": 59,
                    "name": "B3",
                    "ticks": 218880,
                    "time": 189.999924,
                    "velocity": 0.4409448818897638,
                },
                {
                    "duration": 0.8489579937499911,
                    "durationTicks": 978,
                    "midi": 54,
                    "name": "F#3",
                    "ticks": 219840,
                    "time": 190.833257,
                    "velocity": 0.4645669291338583,
                },
                {
                    "duration": 0.8489579937499911,
                    "durationTicks": 978,
                    "midi": 63,
                    "name": "D#4",
                    "ticks": 219840,
                    "time": 190.833257,
                    "velocity": 0.4645669291338583,
                },
                {
                    "duration": 0.8333330000000103,
                    "durationTicks": 960,
                    "midi": 56,
                    "name": "G#3",
                    "ticks": 220800,
                    "time": 191.66658999999999,
                    "velocity": 0.41732283464566927,
                },
                {
                    "duration": 0.8489579937500196,
                    "durationTicks": 978,
                    "midi": 64,
                    "name": "E4",
                    "ticks": 220800,
                    "time": 191.66658999999999,
                    "velocity": 0.41732283464566927,
                },
                {
                    "duration": 0.7907982947916707,
                    "durationTicks": 911,
                    "midi": 52,
                    "name": "E3",
                    "ticks": 221760,
                    "time": 192.499923,
                    "velocity": 0.3543307086614173,
                },
                {
                    "duration": 0.7907982947916707,
                    "durationTicks": 911,
                    "midi": 56,
                    "name": "G#3",
                    "ticks": 221760,
                    "time": 192.499923,
                    "velocity": 0.3543307086614173,
                },
                {
                    "duration": 1.6987840427083256,
                    "durationTicks": 1957,
                    "midi": 54,
                    "name": "F#3",
                    "ticks": 222720,
                    "time": 193.333256,
                    "velocity": 0.36220472440944884,
                },
                {
                    "duration": 1.6987840427083256,
                    "durationTicks": 1957,
                    "midi": 57,
                    "name": "A3",
                    "ticks": 222720,
                    "time": 193.333256,
                    "velocity": 0.36220472440944884,
                },
                {
                    "duration": 1.6987840427083256,
                    "durationTicks": 1957,
                    "midi": 52,
                    "name": "E3",
                    "ticks": 224640,
                    "time": 194.999922,
                    "velocity": 0.36220472440944884,
                },
                {
                    "duration": 1.6987840427083256,
                    "durationTicks": 1957,
                    "midi": 56,
                    "name": "G#3",
                    "ticks": 224640,
                    "time": 194.999922,
                    "velocity": 0.36220472440944884,
                },
                {
                    "duration": 1.698784042708354,
                    "durationTicks": 1957,
                    "midi": 54,
                    "name": "F#3",
                    "ticks": 226560,
                    "time": 196.666588,
                    "velocity": 0.4094488188976378,
                },
                {
                    "duration": 1.698784042708354,
                    "durationTicks": 1957,
                    "midi": 57,
                    "name": "A3",
                    "ticks": 226560,
                    "time": 196.666588,
                    "velocity": 0.4094488188976378,
                },
                {
                    "duration": 1.6987840427083256,
                    "durationTicks": 1957,
                    "midi": 52,
                    "name": "E3",
                    "ticks": 228480,
                    "time": 198.333254,
                    "velocity": 0.3779527559055118,
                },
                {
                    "duration": 1.6987840427083256,
                    "durationTicks": 1957,
                    "midi": 56,
                    "name": "G#3",
                    "ticks": 228480,
                    "time": 198.333254,
                    "velocity": 0.3779527559055118,
                },
                {
                    "duration": 1.5815965895833415,
                    "durationTicks": 1822,
                    "midi": 54,
                    "name": "F#3",
                    "ticks": 230400,
                    "time": 199.99992,
                    "velocity": 0.3779527559055118,
                },
                {
                    "duration": 1.5815965895833415,
                    "durationTicks": 1822,
                    "midi": 57,
                    "name": "A3",
                    "ticks": 230400,
                    "time": 199.99992,
                    "velocity": 0.3779527559055118,
                },
                {
                    "duration": 0.8654510427083437,
                    "durationTicks": 997,
                    "midi": 56,
                    "name": "G#3",
                    "ticks": 232320,
                    "time": 201.666586,
                    "velocity": 0.3937007874015748,
                },
                {
                    "duration": 0.8654510427083437,
                    "durationTicks": 997,
                    "midi": 52,
                    "name": "E3",
                    "ticks": 232320,
                    "time": 201.666586,
                    "velocity": 0.3228346456692913,
                },
                {
                    "duration": 0.7482635895833312,
                    "durationTicks": 862,
                    "midi": 59,
                    "name": "B3",
                    "ticks": 233280,
                    "time": 202.499919,
                    "velocity": 0.3858267716535433,
                },
                {
                    "duration": 1.698784042708354,
                    "durationTicks": 1957,
                    "midi": 58,
                    "name": "A#3",
                    "ticks": 234240,
                    "time": 203.333252,
                    "velocity": 0.4094488188976378,
                },
                {
                    "duration": 1.5815965895833415,
                    "durationTicks": 1822,
                    "midi": 59,
                    "name": "B3",
                    "ticks": 236160,
                    "time": 204.999918,
                    "velocity": 0.4645669291338583,
                },
                {
                    "duration": 1.6987840427083256,
                    "durationTicks": 1957,
                    "midi": 58,
                    "name": "A#3",
                    "ticks": 238080,
                    "time": 206.666584,
                    "velocity": 0.6062992125984252,
                },
                {
                    "duration": 1.5815965895833415,
                    "durationTicks": 1822,
                    "midi": 59,
                    "name": "B3",
                    "ticks": 240000,
                    "time": 208.33325,
                    "velocity": 0.7086614173228346,
                },
                {
                    "duration": 0.8333330000000103,
                    "durationTicks": 960,
                    "midi": 58,
                    "name": "A#3",
                    "ticks": 241920,
                    "time": 209.99991599999998,
                    "velocity": 0.5511811023622047,
                },
                {
                    "duration": 1.0512148572916828,
                    "durationTicks": 1211,
                    "midi": 64,
                    "name": "E4",
                    "ticks": 242880,
                    "time": 210.833249,
                    "velocity": 0.8976377952755905,
                },
                {
                    "duration": 0.8489579937500196,
                    "durationTicks": 978,
                    "midi": 49,
                    "name": "C#3",
                    "ticks": 242880,
                    "time": 210.833249,
                    "velocity": 0.5748031496062992,
                },
                {
                    "duration": 1.5815965895833415,
                    "durationTicks": 1822,
                    "midi": 50,
                    "name": "D3",
                    "ticks": 243840,
                    "time": 211.666582,
                    "velocity": 0.5905511811023622,
                },
                {
                    "duration": 0.27690961145833626,
                    "durationTicks": 319,
                    "midi": 62,
                    "name": "D4",
                    "ticks": 244158,
                    "time": 211.94262355625,
                    "velocity": 0.7244094488188977,
                },
                {
                    "duration": 0.2803818322916527,
                    "durationTicks": 323,
                    "midi": 61,
                    "name": "C#4",
                    "ticks": 244477,
                    "time": 212.21953316770833,
                    "velocity": 0.7322834645669292,
                },
                {
                    "duration": 0.27604155625002136,
                    "durationTicks": 318,
                    "midi": 64,
                    "name": "E4",
                    "ticks": 244800,
                    "time": 212.499915,
                    "velocity": 0.8188976377952756,
                },
                {
                    "duration": 0.27690961145833626,
                    "durationTicks": 319,
                    "midi": 62,
                    "name": "D4",
                    "ticks": 245118,
                    "time": 212.77595655625,
                    "velocity": 0.7086614173228346,
                },
                {
                    "duration": 0.2803818322916527,
                    "durationTicks": 323,
                    "midi": 54,
                    "name": "F#3",
                    "ticks": 245437,
                    "time": 213.05286616770834,
                    "velocity": 0.6220472440944882,
                },
                {
                    "duration": 0.8489579937500196,
                    "durationTicks": 978,
                    "midi": 57,
                    "name": "A3",
                    "ticks": 245760,
                    "time": 213.333248,
                    "velocity": 0.5433070866141733,
                },
                {
                    "duration": 0.8489579937500196,
                    "durationTicks": 978,
                    "midi": 49,
                    "name": "C#3",
                    "ticks": 245760,
                    "time": 213.333248,
                    "velocity": 0.44881889763779526,
                },
                {
                    "duration": 0.8489579937499911,
                    "durationTicks": 978,
                    "midi": 59,
                    "name": "B3",
                    "ticks": 246720,
                    "time": 214.166581,
                    "velocity": 0.5669291338582677,
                },
                {
                    "duration": 0.8489579937499911,
                    "durationTicks": 978,
                    "midi": 50,
                    "name": "D3",
                    "ticks": 246720,
                    "time": 214.166581,
                    "velocity": 0.44881889763779526,
                },
                {
                    "duration": 0.8489579937500196,
                    "durationTicks": 978,
                    "midi": 61,
                    "name": "C#4",
                    "ticks": 247680,
                    "time": 214.999914,
                    "velocity": 0.5511811023622047,
                },
                {
                    "duration": 0.8489579937500196,
                    "durationTicks": 978,
                    "midi": 57,
                    "name": "A3",
                    "ticks": 247680,
                    "time": 214.999914,
                    "velocity": 0.6141732283464567,
                },
                {
                    "duration": 0.2795137770833378,
                    "durationTicks": 322,
                    "midi": 62,
                    "name": "D4",
                    "ticks": 248640,
                    "time": 215.833247,
                    "velocity": 0.5511811023622047,
                },
                {
                    "duration": 0.2795137770833378,
                    "durationTicks": 322,
                    "midi": 59,
                    "name": "B3",
                    "ticks": 248640,
                    "time": 215.833247,
                    "velocity": 0.5590551181102362,
                },
                {
                    "duration": 0.2803818322916811,
                    "durationTicks": 323,
                    "midi": 63,
                    "name": "D#4",
                    "ticks": 248958,
                    "time": 216.10928855625,
                    "velocity": 0.5669291338582677,
                },
                {
                    "duration": 0.2803818322916811,
                    "durationTicks": 323,
                    "midi": 60,
                    "name": "C4",
                    "ticks": 248958,
                    "time": 216.10928855625,
                    "velocity": 0.5748031496062992,
                },
                {
                    "duration": 0.26388878333332855,
                    "durationTicks": 304,
                    "midi": 64,
                    "name": "E4",
                    "ticks": 249277,
                    "time": 216.38619816770833,
                    "velocity": 0.5354330708661418,
                },
                {
                    "duration": 0.26388878333332855,
                    "durationTicks": 304,
                    "midi": 61,
                    "name": "C#4",
                    "ticks": 249277,
                    "time": 216.38619816770833,
                    "velocity": 0.5669291338582677,
                },
                {
                    "duration": 1.6987840427083256,
                    "durationTicks": 1957,
                    "midi": 58,
                    "name": "A#3",
                    "ticks": 249600,
                    "time": 216.66658,
                    "velocity": 0.5196850393700787,
                },
                {
                    "duration": 1.5815965895833415,
                    "durationTicks": 1822,
                    "midi": 59,
                    "name": "B3",
                    "ticks": 251520,
                    "time": 218.333246,
                    "velocity": 0.5748031496062992,
                },
                {
                    "duration": 1.698784042708354,
                    "durationTicks": 1957,
                    "midi": 58,
                    "name": "A#3",
                    "ticks": 253440,
                    "time": 219.999912,
                    "velocity": 0.5433070866141733,
                },
                {
                    "duration": 1.5815965895833415,
                    "durationTicks": 1822,
                    "midi": 59,
                    "name": "B3",
                    "ticks": 255360,
                    "time": 221.666578,
                    "velocity": 0.5984251968503937,
                },
                {
                    "duration": 0.8333329999999819,
                    "durationTicks": 960,
                    "midi": 58,
                    "name": "A#3",
                    "ticks": 257280,
                    "time": 223.333244,
                    "velocity": 0.5748031496062992,
                },
                {
                    "duration": 0.8489579937499911,
                    "durationTicks": 978,
                    "midi": 59,
                    "name": "B3",
                    "ticks": 257280,
                    "time": 223.333244,
                    "velocity": 0.5433070866141733,
                },
                {
                    "duration": 0.8489579937500196,
                    "durationTicks": 978,
                    "midi": 58,
                    "name": "A#3",
                    "ticks": 258240,
                    "time": 224.166577,
                    "velocity": 0.6220472440944882,
                },
                {
                    "duration": 0.8489579937500196,
                    "durationTicks": 978,
                    "midi": 64,
                    "name": "E4",
                    "ticks": 258240,
                    "time": 224.166577,
                    "velocity": 0.6220472440944882,
                },
                {
                    "duration": 0.8333330000000103,
                    "durationTicks": 960,
                    "midi": 57,
                    "name": "A3",
                    "ticks": 259200,
                    "time": 224.99991,
                    "velocity": 0.5275590551181102,
                },
                {
                    "duration": 0.8489579937500196,
                    "durationTicks": 978,
                    "midi": 65,
                    "name": "F4",
                    "ticks": 259200,
                    "time": 224.99991,
                    "velocity": 0.5275590551181102,
                },
                {
                    "duration": 0.8489579937499911,
                    "durationTicks": 978,
                    "midi": 53,
                    "name": "F3",
                    "ticks": 260160,
                    "time": 225.833243,
                    "velocity": 0.3858267716535433,
                },
                {
                    "duration": 0.8489579937499911,
                    "durationTicks": 978,
                    "midi": 57,
                    "name": "A3",
                    "ticks": 260160,
                    "time": 225.833243,
                    "velocity": 0.3858267716535433,
                },
                {
                    "duration": 0.8489579937500196,
                    "durationTicks": 978,
                    "midi": 52,
                    "name": "E3",
                    "ticks": 261120,
                    "time": 226.666576,
                    "velocity": 0.3937007874015748,
                },
                {
                    "duration": 0.8489579937500196,
                    "durationTicks": 978,
                    "midi": 55,
                    "name": "G3",
                    "ticks": 261120,
                    "time": 226.666576,
                    "velocity": 0.3937007874015748,
                },
                {
                    "duration": 0.8489579937499911,
                    "durationTicks": 978,
                    "midi": 53,
                    "name": "F3",
                    "ticks": 262080,
                    "time": 227.499909,
                    "velocity": 0.5118110236220472,
                },
                {
                    "duration": 0.8489579937499911,
                    "durationTicks": 978,
                    "midi": 59,
                    "name": "B3",
                    "ticks": 262080,
                    "time": 227.499909,
                    "velocity": 0.5118110236220472,
                },
                {
                    "duration": 0.7907982947916707,
                    "durationTicks": 911,
                    "midi": 52,
                    "name": "E3",
                    "ticks": 263040,
                    "time": 228.33324199999998,
                    "velocity": 0.49606299212598426,
                },
                {
                    "duration": 0.7907982947916707,
                    "durationTicks": 911,
                    "midi": 60,
                    "name": "C4",
                    "ticks": 263040,
                    "time": 228.33324199999998,
                    "velocity": 0.49606299212598426,
                },
                {
                    "duration": 1.2499995000000013,
                    "durationTicks": 1440,
                    "midi": 65,
                    "name": "F4",
                    "ticks": 268800,
                    "time": 233.33324,
                    "velocity": 0.5826771653543307,
                },
                {
                    "duration": 0.41666650000001937,
                    "durationTicks": 480,
                    "midi": 65,
                    "name": "F4",
                    "ticks": 270240,
                    "time": 234.5832395,
                    "velocity": 0.5984251968503937,
                },
                {
                    "duration": 0.2795137770833378,
                    "durationTicks": 322,
                    "midi": 65,
                    "name": "F4",
                    "ticks": 270720,
                    "time": 234.999906,
                    "velocity": 0.6535433070866141,
                },
                {
                    "duration": 0.2604165625000121,
                    "durationTicks": 300,
                    "midi": 64,
                    "name": "E4",
                    "ticks": 271038,
                    "time": 235.27594755625,
                    "velocity": 0.6377952755905512,
                },
                {
                    "duration": 0.1657985447916701,
                    "durationTicks": 191,
                    "midi": 62,
                    "name": "D4",
                    "ticks": 271357,
                    "time": 235.55285716770834,
                    "velocity": 0.6062992125984252,
                },
                {
                    "duration": 0.1657985447916701,
                    "durationTicks": 191,
                    "midi": 60,
                    "name": "C4",
                    "ticks": 271680,
                    "time": 235.833239,
                    "velocity": 0.5748031496062992,
                },
                {
                    "duration": 0.166666599999985,
                    "durationTicks": 192,
                    "midi": 59,
                    "name": "B3",
                    "ticks": 271998,
                    "time": 236.10928055625,
                    "velocity": 0.6062992125984252,
                },
                {
                    "duration": 0.1657985447916701,
                    "durationTicks": 191,
                    "midi": 57,
                    "name": "A3",
                    "ticks": 272317,
                    "time": 236.38619016770835,
                    "velocity": 0.6220472440944882,
                },
                {
                    "duration": 0.8489579937499911,
                    "durationTicks": 978,
                    "midi": 55,
                    "name": "G3",
                    "ticks": 272640,
                    "time": 236.666572,
                    "velocity": 0.6929133858267716,
                },
                {
                    "duration": 0.3932290093750339,
                    "durationTicks": 453,
                    "midi": 59,
                    "name": "B3",
                    "ticks": 273600,
                    "time": 237.49990499999998,
                    "velocity": 0.7086614173228346,
                },
                {
                    "duration": 0.41666649999999095,
                    "durationTicks": 480,
                    "midi": 62,
                    "name": "D4",
                    "ticks": 274080,
                    "time": 237.9165715,
                    "velocity": 0.7480314960629921,
                },
                {
                    "duration": 0.1657985447916701,
                    "durationTicks": 191,
                    "midi": 65,
                    "name": "F4",
                    "ticks": 274560,
                    "time": 238.333238,
                    "velocity": 0.84251968503937,
                },
                {
                    "duration": 0.166666599999985,
                    "durationTicks": 192,
                    "midi": 64,
                    "name": "E4",
                    "ticks": 274878,
                    "time": 238.60927955625002,
                    "velocity": 0.7322834645669292,
                },
                {
                    "duration": 0.1657985447916701,
                    "durationTicks": 191,
                    "midi": 62,
                    "name": "D4",
                    "ticks": 275197,
                    "time": 238.88618916770832,
                    "velocity": 0.7165354330708661,
                },
                {
                    "duration": 0.1657985447916701,
                    "durationTicks": 191,
                    "midi": 60,
                    "name": "C4",
                    "ticks": 275520,
                    "time": 239.166571,
                    "velocity": 0.7952755905511811,
                },
                {
                    "duration": 0.16666660000001343,
                    "durationTicks": 192,
                    "midi": 59,
                    "name": "B3",
                    "ticks": 275838,
                    "time": 239.44261255625,
                    "velocity": 0.7244094488188977,
                },
                {
                    "duration": 0.1657985447916701,
                    "durationTicks": 191,
                    "midi": 57,
                    "name": "A3",
                    "ticks": 276157,
                    "time": 239.71952216770833,
                    "velocity": 0.7559055118110236,
                },
                {
                    "duration": 0.41666650000001937,
                    "durationTicks": 480,
                    "midi": 55,
                    "name": "G3",
                    "ticks": 276480,
                    "time": 239.999904,
                    "velocity": 0.7244094488188977,
                },
                {
                    "duration": 0.2473957343750044,
                    "durationTicks": 285,
                    "midi": 64,
                    "name": "E4",
                    "ticks": 285120,
                    "time": 247.499901,
                    "velocity": 0.7874015748031497,
                },
                {
                    "duration": 0.2473957343750044,
                    "durationTicks": 285,
                    "midi": 64,
                    "name": "E4",
                    "ticks": 285600,
                    "time": 247.91656749999999,
                    "velocity": 0.889763779527559,
                },
                {
                    "duration": 1.6987840427083256,
                    "durationTicks": 1957,
                    "midi": 60,
                    "name": "C4",
                    "ticks": 286080,
                    "time": 248.333234,
                    "velocity": 0.33858267716535434,
                },
                {
                    "duration": 1.5520827125000096,
                    "durationTicks": 1788,
                    "midi": 59,
                    "name": "B3",
                    "ticks": 288000,
                    "time": 249.9999,
                    "velocity": 0.30708661417322836,
                },
                {
                    "duration": 0.17881937291667782,
                    "durationTicks": 206,
                    "midi": 59,
                    "name": "B3",
                    "ticks": 289920,
                    "time": 251.666566,
                    "velocity": 0.3779527559055118,
                },
                {
                    "duration": 0.17881937291667782,
                    "durationTicks": 206,
                    "midi": 60,
                    "name": "C4",
                    "ticks": 290126,
                    "time": 251.84538537291667,
                    "velocity": 0.3779527559055118,
                },
                {
                    "duration": 1.0512148572916544,
                    "durationTicks": 1211,
                    "midi": 62,
                    "name": "D4",
                    "ticks": 290332,
                    "time": 252.02420474583334,
                    "velocity": 0.3779527559055118,
                },
                {
                    "duration": 0.27690961145830784,
                    "durationTicks": 319,
                    "midi": 60,
                    "name": "C4",
                    "ticks": 291198,
                    "time": 252.77594055625002,
                    "velocity": 0.36220472440944884,
                },
                {
                    "duration": 0.2803818322916811,
                    "durationTicks": 323,
                    "midi": 59,
                    "name": "B3",
                    "ticks": 291517,
                    "time": 253.05285016770833,
                    "velocity": 0.33858267716535434,
                },
                {
                    "duration": 0.42274288645833735,
                    "durationTicks": 487,
                    "midi": 59,
                    "name": "B3",
                    "ticks": 291840,
                    "time": 253.333232,
                    "velocity": 0.3858267716535433,
                },
                {
                    "duration": 0.3932290093750055,
                    "durationTicks": 453,
                    "midi": 60,
                    "name": "C4",
                    "ticks": 292320,
                    "time": 253.7498985,
                    "velocity": 0.3937007874015748,
                },
                {
                    "duration": 0.8333330000000103,
                    "durationTicks": 960,
                    "midi": 60,
                    "name": "C4",
                    "ticks": 292800,
                    "time": 254.166565,
                    "velocity": 0.4015748031496063,
                },
                {
                    "duration": 1.2725689354166718,
                    "durationTicks": 1466,
                    "midi": 60,
                    "name": "C4",
                    "ticks": 293760,
                    "time": 254.999898,
                    "velocity": 0.36220472440944884,
                },
                {
                    "duration": 0.3932290093750339,
                    "durationTicks": 453,
                    "midi": 62,
                    "name": "D4",
                    "ticks": 295200,
                    "time": 256.2498975,
                    "velocity": 0.33858267716535434,
                },
                {
                    "duration": 0.4227428864583658,
                    "durationTicks": 487,
                    "midi": 63,
                    "name": "D#4",
                    "ticks": 295680,
                    "time": 256.666564,
                    "velocity": 0.4015748031496063,
                },
                {
                    "duration": 0.39322900937497707,
                    "durationTicks": 453,
                    "midi": 64,
                    "name": "E4",
                    "ticks": 296160,
                    "time": 257.0832305,
                    "velocity": 0.3937007874015748,
                },
                {
                    "duration": 0.2473957343750044,
                    "durationTicks": 285,
                    "midi": 64,
                    "name": "E4",
                    "ticks": 296640,
                    "time": 257.499897,
                    "velocity": 0.3700787401574803,
                },
                {
                    "duration": 0.2473957343750044,
                    "durationTicks": 285,
                    "midi": 64,
                    "name": "E4",
                    "ticks": 297120,
                    "time": 257.9165635,
                    "velocity": 0.3858267716535433,
                },
                {
                    "duration": 0.17881937291667782,
                    "durationTicks": 206,
                    "midi": 62,
                    "name": "D4",
                    "ticks": 297600,
                    "time": 258.33323,
                    "velocity": 0.3937007874015748,
                },
                {
                    "duration": 0.17881937291662098,
                    "durationTicks": 206,
                    "midi": 64,
                    "name": "E4",
                    "ticks": 297806,
                    "time": 258.5120493729167,
                    "velocity": 0.3937007874015748,
                },
                {
                    "duration": 1.0512148572917113,
                    "durationTicks": 1211,
                    "midi": 65,
                    "name": "F4",
                    "ticks": 298012,
                    "time": 258.6908687458333,
                    "velocity": 0.3937007874015748,
                },
                {
                    "duration": 0.27690961145833626,
                    "durationTicks": 319,
                    "midi": 64,
                    "name": "E4",
                    "ticks": 298878,
                    "time": 259.44260455625,
                    "velocity": 0.3464566929133858,
                },
                {
                    "duration": 0.2803818322916527,
                    "durationTicks": 323,
                    "midi": 62,
                    "name": "D4",
                    "ticks": 299197,
                    "time": 259.7195141677083,
                    "velocity": 0.33858267716535434,
                },
                {
                    "duration": 0.4227428864583658,
                    "durationTicks": 487,
                    "midi": 62,
                    "name": "D4",
                    "ticks": 299520,
                    "time": 259.999896,
                    "velocity": 0.3937007874015748,
                },
                {
                    "duration": 0.3932290093750339,
                    "durationTicks": 453,
                    "midi": 64,
                    "name": "E4",
                    "ticks": 300000,
                    "time": 260.4165625,
                    "velocity": 0.4094488188976378,
                },
                {
                    "duration": 0.8333329999999819,
                    "durationTicks": 960,
                    "midi": 64,
                    "name": "E4",
                    "ticks": 300480,
                    "time": 260.833229,
                    "velocity": 0.36220472440944884,
                },
                {
                    "duration": 1.2725689354166434,
                    "durationTicks": 1466,
                    "midi": 64,
                    "name": "E4",
                    "ticks": 301440,
                    "time": 261.666562,
                    "velocity": 0.41732283464566927,
                },
                {
                    "duration": 0.42274288645830893,
                    "durationTicks": 487,
                    "midi": 66,
                    "name": "F#4",
                    "ticks": 302880,
                    "time": 262.9165615,
                    "velocity": 0.44881889763779526,
                },
                {
                    "duration": 0.8489579937499911,
                    "durationTicks": 978,
                    "midi": 64,
                    "name": "E4",
                    "ticks": 303360,
                    "time": 263.333228,
                    "velocity": 0.3464566929133858,
                },
                {
                    "duration": 0.39322900937497707,
                    "durationTicks": 453,
                    "midi": 63,
                    "name": "D#4",
                    "ticks": 304320,
                    "time": 264.166561,
                    "velocity": 0.3228346456692913,
                },
                {
                    "duration": 1.2725689354167002,
                    "durationTicks": 1466,
                    "midi": 62,
                    "name": "D4",
                    "ticks": 305280,
                    "time": 264.999894,
                    "velocity": 0.3543307086614173,
                },
                {
                    "duration": 0.4227428864583658,
                    "durationTicks": 487,
                    "midi": 64,
                    "name": "E4",
                    "ticks": 306720,
                    "time": 266.2498935,
                    "velocity": 0.3858267716535433,
                },
                {
                    "duration": 0.42274288645830893,
                    "durationTicks": 487,
                    "midi": 62,
                    "name": "D4",
                    "ticks": 307200,
                    "time": 266.66656,
                    "velocity": 0.3464566929133858,
                },
                {
                    "duration": 0.42274288645830893,
                    "durationTicks": 487,
                    "midi": 61,
                    "name": "C#4",
                    "ticks": 307680,
                    "time": 267.0832265,
                    "velocity": 0.3228346456692913,
                },
                {
                    "duration": 0.3932290093750339,
                    "durationTicks": 453,
                    "midi": 60,
                    "name": "C4",
                    "ticks": 308160,
                    "time": 267.499893,
                    "velocity": 0.33070866141732286,
                },
                {
                    "duration": 1.6987840427083256,
                    "durationTicks": 1957,
                    "midi": 60,
                    "name": "C4",
                    "ticks": 309120,
                    "time": 268.333226,
                    "velocity": 0.3543307086614173,
                },
                {
                    "duration": 0.8489579937499911,
                    "durationTicks": 978,
                    "midi": 59,
                    "name": "B3",
                    "ticks": 311040,
                    "time": 269.999892,
                    "velocity": 0.33858267716535434,
                },
                {
                    "duration": 0.7187497125000277,
                    "durationTicks": 828,
                    "midi": 60,
                    "name": "C4",
                    "ticks": 312000,
                    "time": 270.83322499999997,
                    "velocity": 0.4251968503937008,
                },
                {
                    "duration": 0.17881937291667782,
                    "durationTicks": 206,
                    "midi": 59,
                    "name": "B3",
                    "ticks": 312960,
                    "time": 271.666558,
                    "velocity": 0.3858267716535433,
                },
                {
                    "duration": 0.17881937291667782,
                    "durationTicks": 206,
                    "midi": 60,
                    "name": "C4",
                    "ticks": 313166,
                    "time": 271.8453773729167,
                    "velocity": 0.3858267716535433,
                },
                {
                    "duration": 1.0512148572916544,
                    "durationTicks": 1211,
                    "midi": 62,
                    "name": "D4",
                    "ticks": 313372,
                    "time": 272.02419674583336,
                    "velocity": 0.3858267716535433,
                },
                {
                    "duration": 0.27690961145833626,
                    "durationTicks": 319,
                    "midi": 60,
                    "name": "C4",
                    "ticks": 314238,
                    "time": 272.77593255625,
                    "velocity": 0.33858267716535434,
                },
                {
                    "duration": 0.2803818322916527,
                    "durationTicks": 323,
                    "midi": 59,
                    "name": "B3",
                    "ticks": 314557,
                    "time": 273.0528421677083,
                    "velocity": 0.3779527559055118,
                },
                {
                    "duration": 0.16579854479169853,
                    "durationTicks": 191,
                    "midi": 57,
                    "name": "A3",
                    "ticks": 314880,
                    "time": 273.333224,
                    "velocity": 0.3543307086614173,
                },
                {
                    "duration": 0.2803818322916527,
                    "durationTicks": 323,
                    "midi": 57,
                    "name": "A3",
                    "ticks": 315198,
                    "time": 273.60926555625,
                    "velocity": 0.3779527559055118,
                },
                {
                    "duration": 0.2638887833333001,
                    "durationTicks": 304,
                    "midi": 59,
                    "name": "B3",
                    "ticks": 315517,
                    "time": 273.88617516770836,
                    "velocity": 0.4094488188976378,
                },
                {
                    "duration": 0.1657985447916417,
                    "durationTicks": 191,
                    "midi": 60,
                    "name": "C4",
                    "ticks": 315840,
                    "time": 274.166557,
                    "velocity": 0.3779527559055118,
                },
                {
                    "duration": 0.2803818322916527,
                    "durationTicks": 323,
                    "midi": 60,
                    "name": "C4",
                    "ticks": 316158,
                    "time": 274.44259855625,
                    "velocity": 0.3700787401574803,
                },
                {
                    "duration": 0.28298599791668266,
                    "durationTicks": 326,
                    "midi": 62,
                    "name": "D4",
                    "ticks": 316477,
                    "time": 274.71950816770834,
                    "velocity": 0.36220472440944884,
                },
                {
                    "duration": 1.20746479479169,
                    "durationTicks": 1391,
                    "midi": 64,
                    "name": "E4",
                    "ticks": 316800,
                    "time": 274.99989,
                    "velocity": 0.4015748031496063,
                },
                {
                    "duration": 0.4227428864583658,
                    "durationTicks": 487,
                    "midi": 66,
                    "name": "F#4",
                    "ticks": 318240,
                    "time": 276.2498895,
                    "velocity": 0.4094488188976378,
                },
                {
                    "duration": 0.8489579937499911,
                    "durationTicks": 978,
                    "midi": 64,
                    "name": "E4",
                    "ticks": 318720,
                    "time": 276.666556,
                    "velocity": 0.3700787401574803,
                },
                {
                    "duration": 0.3932290093750339,
                    "durationTicks": 453,
                    "midi": 63,
                    "name": "D#4",
                    "ticks": 319680,
                    "time": 277.499889,
                    "velocity": 0.3700787401574803,
                },
                {
                    "duration": 0.2795137770833662,
                    "durationTicks": 322,
                    "midi": 62,
                    "name": "D4",
                    "ticks": 320640,
                    "time": 278.333222,
                    "velocity": 0.33070866141732286,
                },
                {
                    "duration": 0.2803818322916527,
                    "durationTicks": 323,
                    "midi": 59,
                    "name": "B3",
                    "ticks": 320958,
                    "time": 278.60926355625,
                    "velocity": 0.3228346456692913,
                },
                {
                    "duration": 0.2829859979166258,
                    "durationTicks": 326,
                    "midi": 61,
                    "name": "C#4",
                    "ticks": 321277,
                    "time": 278.88617316770836,
                    "velocity": 0.36220472440944884,
                },
                {
                    "duration": 0.2795137770833094,
                    "durationTicks": 322,
                    "midi": 62,
                    "name": "D4",
                    "ticks": 321600,
                    "time": 279.166555,
                    "velocity": 0.3858267716535433,
                },
                {
                    "duration": 0.2803818322916527,
                    "durationTicks": 323,
                    "midi": 64,
                    "name": "E4",
                    "ticks": 321918,
                    "time": 279.44259655625,
                    "velocity": 0.4094488188976378,
                },
                {
                    "duration": 0.2638887833333001,
                    "durationTicks": 304,
                    "midi": 62,
                    "name": "D4",
                    "ticks": 322237,
                    "time": 279.71950616770835,
                    "velocity": 0.3858267716535433,
                },
                {
                    "duration": 0.4227428864583658,
                    "durationTicks": 487,
                    "midi": 62,
                    "name": "D4",
                    "ticks": 322560,
                    "time": 279.999888,
                    "velocity": 0.3858267716535433,
                },
                {
                    "duration": 0.42274288645830893,
                    "durationTicks": 487,
                    "midi": 61,
                    "name": "C#4",
                    "ticks": 323040,
                    "time": 280.4165545,
                    "velocity": 0.3700787401574803,
                },
                {
                    "duration": 0.3932290093750339,
                    "durationTicks": 453,
                    "midi": 60,
                    "name": "C4",
                    "ticks": 323520,
                    "time": 280.833221,
                    "velocity": 0.3543307086614173,
                },
                {
                    "duration": 1.6987840427083256,
                    "durationTicks": 1957,
                    "midi": 60,
                    "name": "C4",
                    "ticks": 324480,
                    "time": 281.666554,
                    "velocity": 0.3228346456692913,
                },
                {
                    "duration": 0.848957993750048,
                    "durationTicks": 978,
                    "midi": 59,
                    "name": "B3",
                    "ticks": 326400,
                    "time": 283.33322,
                    "velocity": 0.29133858267716534,
                },
                {
                    "duration": 0.7187497124999709,
                    "durationTicks": 828,
                    "midi": 60,
                    "name": "C4",
                    "ticks": 327360,
                    "time": 284.166553,
                    "velocity": 0.3779527559055118,
                },
                {
                    "duration": 0.17881937291667782,
                    "durationTicks": 206,
                    "midi": 59,
                    "name": "B3",
                    "ticks": 328320,
                    "time": 284.999886,
                    "velocity": 0.4251968503937008,
                },
                {
                    "duration": 0.17881937291667782,
                    "durationTicks": 206,
                    "midi": 60,
                    "name": "C4",
                    "ticks": 328526,
                    "time": 285.1787053729167,
                    "velocity": 0.4251968503937008,
                },
                {
                    "duration": 1.0512148572916544,
                    "durationTicks": 1211,
                    "midi": 62,
                    "name": "D4",
                    "ticks": 328732,
                    "time": 285.35752474583336,
                    "velocity": 0.4251968503937008,
                },
                {
                    "duration": 0.27690961145833626,
                    "durationTicks": 319,
                    "midi": 60,
                    "name": "C4",
                    "ticks": 329598,
                    "time": 286.10926055625,
                    "velocity": 0.36220472440944884,
                },
                {
                    "duration": 0.28038183229170954,
                    "durationTicks": 323,
                    "midi": 59,
                    "name": "B3",
                    "ticks": 329917,
                    "time": 286.3861701677083,
                    "velocity": 0.3779527559055118,
                },
                {
                    "duration": 0.8333329999999819,
                    "durationTicks": 960,
                    "midi": 57,
                    "name": "A3",
                    "ticks": 330240,
                    "time": 286.666552,
                    "velocity": 0.41732283464566927,
                },
                {
                    "duration": 1.1093745562500317,
                    "durationTicks": 1278,
                    "midi": 57,
                    "name": "A3",
                    "ticks": 332160,
                    "time": 288.333218,
                    "velocity": 0.33070866141732286,
                },
                {
                    "duration": 0.2803818322916527,
                    "durationTicks": 323,
                    "midi": 59,
                    "name": "B3",
                    "ticks": 333438,
                    "time": 289.44259255625,
                    "velocity": 0.3858267716535433,
                },
                {
                    "duration": 0.2638887833333001,
                    "durationTicks": 304,
                    "midi": 61,
                    "name": "C#4",
                    "ticks": 333757,
                    "time": 289.71950216770836,
                    "velocity": 0.4330708661417323,
                },
                {
                    "duration": 0.42274288645830893,
                    "durationTicks": 487,
                    "midi": 61,
                    "name": "C#4",
                    "ticks": 334080,
                    "time": 289.999884,
                    "velocity": 0.4094488188976378,
                },
                {
                    "duration": 0.3932290093750339,
                    "durationTicks": 453,
                    "midi": 62,
                    "name": "D4",
                    "ticks": 334560,
                    "time": 290.41655049999997,
                    "velocity": 0.4409448818897638,
                },
                {
                    "duration": 0.8333329999999819,
                    "durationTicks": 960,
                    "midi": 62,
                    "name": "D4",
                    "ticks": 335040,
                    "time": 290.833217,
                    "velocity": 0.36220472440944884,
                },
                {
                    "duration": 1.1093745562500317,
                    "durationTicks": 1278,
                    "midi": 62,
                    "name": "D4",
                    "ticks": 336000,
                    "time": 291.66655,
                    "velocity": 0.4094488188976378,
                },
                {
                    "duration": 0.2803818322916527,
                    "durationTicks": 323,
                    "midi": 64,
                    "name": "E4",
                    "ticks": 337278,
                    "time": 292.77592455625,
                    "velocity": 0.4015748031496063,
                },
                {
                    "duration": 0.2638887833333001,
                    "durationTicks": 304,
                    "midi": 65,
                    "name": "F4",
                    "ticks": 337597,
                    "time": 293.05283416770834,
                    "velocity": 0.4015748031496063,
                },
                {
                    "duration": 0.4227428864583658,
                    "durationTicks": 487,
                    "midi": 65,
                    "name": "F4",
                    "ticks": 337920,
                    "time": 293.333216,
                    "velocity": 0.4015748031496063,
                },
                {
                    "duration": 0.39322900937497707,
                    "durationTicks": 453,
                    "midi": 64,
                    "name": "E4",
                    "ticks": 338400,
                    "time": 293.7498825,
                    "velocity": 0.4015748031496063,
                },
                {
                    "duration": 0.8333330000000387,
                    "durationTicks": 960,
                    "midi": 64,
                    "name": "E4",
                    "ticks": 338880,
                    "time": 294.166549,
                    "velocity": 0.3779527559055118,
                },
                {
                    "duration": 0.27604155624999294,
                    "durationTicks": 318,
                    "midi": 57,
                    "name": "A3",
                    "ticks": 339840,
                    "time": 294.999882,
                    "velocity": 0.41732283464566927,
                },
                {
                    "duration": 0.27690961145833626,
                    "durationTicks": 319,
                    "midi": 57,
                    "name": "A3",
                    "ticks": 340158,
                    "time": 295.27592355625,
                    "velocity": 0.3779527559055118,
                },
                {
                    "duration": 0.2803818322916527,
                    "durationTicks": 323,
                    "midi": 57,
                    "name": "A3",
                    "ticks": 340477,
                    "time": 295.55283316770834,
                    "velocity": 0.4409448818897638,
                },
                {
                    "duration": 0.2795137770833662,
                    "durationTicks": 322,
                    "midi": 57,
                    "name": "A3",
                    "ticks": 340800,
                    "time": 295.833215,
                    "velocity": 0.44881889763779526,
                },
                {
                    "duration": 0.2803818322916527,
                    "durationTicks": 323,
                    "midi": 59,
                    "name": "B3",
                    "ticks": 341118,
                    "time": 296.10925655625,
                    "velocity": 0.4645669291338583,
                },
                {
                    "duration": 0.26388878333335697,
                    "durationTicks": 304,
                    "midi": 61,
                    "name": "C#4",
                    "ticks": 341437,
                    "time": 296.3861661677083,
                    "velocity": 0.5039370078740157,
                },
                {
                    "duration": 0.2795137770833662,
                    "durationTicks": 322,
                    "midi": 61,
                    "name": "C#4",
                    "ticks": 341760,
                    "time": 296.666548,
                    "velocity": 0.49606299212598426,
                },
                {
                    "duration": 0.2604165624999837,
                    "durationTicks": 300,
                    "midi": 62,
                    "name": "D4",
                    "ticks": 342078,
                    "time": 296.94258955625,
                    "velocity": 0.5118110236220472,
                },
                {
                    "duration": 0.1657985447916417,
                    "durationTicks": 191,
                    "midi": 62,
                    "name": "D4",
                    "ticks": 342397,
                    "time": 297.21949916770836,
                    "velocity": 0.4566929133858268,
                },
                {
                    "duration": 0.8333329999999819,
                    "durationTicks": 960,
                    "midi": 62,
                    "name": "D4",
                    "ticks": 342720,
                    "time": 297.499881,
                    "velocity": 0.5590551181102362,
                },
                {
                    "duration": 0.27604155624999294,
                    "durationTicks": 318,
                    "midi": 62,
                    "name": "D4",
                    "ticks": 343680,
                    "time": 298.333214,
                    "velocity": 0.5275590551181102,
                },
                {
                    "duration": 0.27690961145833626,
                    "durationTicks": 319,
                    "midi": 62,
                    "name": "D4",
                    "ticks": 343998,
                    "time": 298.60925555625,
                    "velocity": 0.5669291338582677,
                },
                {
                    "duration": 0.2803818322916527,
                    "durationTicks": 323,
                    "midi": 62,
                    "name": "D4",
                    "ticks": 344317,
                    "time": 298.8861651677083,
                    "velocity": 0.5748031496062992,
                },
                {
                    "duration": 0.2795137770833662,
                    "durationTicks": 322,
                    "midi": 62,
                    "name": "D4",
                    "ticks": 344640,
                    "time": 299.166547,
                    "velocity": 0.6692913385826772,
                },
                {
                    "duration": 0.2803818322916527,
                    "durationTicks": 323,
                    "midi": 64,
                    "name": "E4",
                    "ticks": 344958,
                    "time": 299.44258855625003,
                    "velocity": 0.6377952755905512,
                },
                {
                    "duration": 0.26388878333335697,
                    "durationTicks": 304,
                    "midi": 65,
                    "name": "F4",
                    "ticks": 345277,
                    "time": 299.7194981677083,
                    "velocity": 0.6771653543307087,
                },
                {
                    "duration": 0.2795137770833094,
                    "durationTicks": 322,
                    "midi": 65,
                    "name": "F4",
                    "ticks": 345600,
                    "time": 299.99988,
                    "velocity": 0.5511811023622047,
                },
                {
                    "duration": 0.2604165624999837,
                    "durationTicks": 300,
                    "midi": 64,
                    "name": "E4",
                    "ticks": 345918,
                    "time": 300.27592155625,
                    "velocity": 0.5196850393700787,
                },
                {
                    "duration": 0.1657985447916417,
                    "durationTicks": 191,
                    "midi": 64,
                    "name": "E4",
                    "ticks": 346237,
                    "time": 300.55283116770835,
                    "velocity": 0.5826771653543307,
                },
                {
                    "duration": 0.2795137770833662,
                    "durationTicks": 322,
                    "midi": 64,
                    "name": "E4",
                    "ticks": 347520,
                    "time": 301.666546,
                    "velocity": 0.49606299212598426,
                },
                {
                    "duration": 0.2604165624999837,
                    "durationTicks": 300,
                    "midi": 65,
                    "name": "F4",
                    "ticks": 347838,
                    "time": 301.94258755625003,
                    "velocity": 0.5354330708661418,
                },
                {
                    "duration": 0.16579854479169853,
                    "durationTicks": 191,
                    "midi": 65,
                    "name": "F4",
                    "ticks": 348157,
                    "time": 302.2194971677083,
                    "velocity": 0.5118110236220472,
                },
                {
                    "duration": 0.2795137770833094,
                    "durationTicks": 322,
                    "midi": 65,
                    "name": "F4",
                    "ticks": 349440,
                    "time": 303.333212,
                    "velocity": 0.3779527559055118,
                },
                {
                    "duration": 0.2604165624999837,
                    "durationTicks": 300,
                    "midi": 64,
                    "name": "E4",
                    "ticks": 349758,
                    "time": 303.60925355625,
                    "velocity": 0.36220472440944884,
                },
                {
                    "duration": 0.2803818322916527,
                    "durationTicks": 323,
                    "midi": 64,
                    "name": "E4",
                    "ticks": 350077,
                    "time": 303.88616316770833,
                    "velocity": 0.3700787401574803,
                },
                {
                    "duration": 0.8333330000000387,
                    "durationTicks": 960,
                    "midi": 62,
                    "name": "D4",
                    "ticks": 399360,
                    "time": 346.66652799999997,
                    "velocity": 0.2992125984251969,
                },
                {
                    "duration": 0.2473957343750044,
                    "durationTicks": 285,
                    "midi": 62,
                    "name": "D4",
                    "ticks": 400320,
                    "time": 347.499861,
                    "velocity": 0.2677165354330709,
                },
                {
                    "duration": 0.2473957343750044,
                    "durationTicks": 285,
                    "midi": 64,
                    "name": "E4",
                    "ticks": 400800,
                    "time": 347.9165275,
                    "velocity": 0.30708661417322836,
                },
                {
                    "duration": 5.416664500000024,
                    "durationTicks": 6240,
                    "midi": 65,
                    "name": "F4",
                    "ticks": 401280,
                    "time": 348.333194,
                    "velocity": 0.2992125984251969,
                },
                {
                    "duration": 0.2109374156249828,
                    "durationTicks": 243,
                    "midi": 64,
                    "name": "E4",
                    "ticks": 407520,
                    "time": 353.7498585,
                    "velocity": 0.7559055118110236,
                },
                {
                    "duration": 0.21093741562503965,
                    "durationTicks": 243,
                    "midi": 63,
                    "name": "D#4",
                    "ticks": 407760,
                    "time": 353.95819174999997,
                    "velocity": 0.7637795275590551,
                },
                {
                    "duration": 0.1953124218750304,
                    "durationTicks": 225,
                    "midi": 64,
                    "name": "E4",
                    "ticks": 408000,
                    "time": 354.166525,
                    "velocity": 0.8740157480314961,
                },
                {
                    "duration": 0.12326383958333054,
                    "durationTicks": 142,
                    "midi": 52,
                    "name": "E3",
                    "ticks": 408240,
                    "time": 354.37485825,
                    "velocity": 0.7165354330708661,
                },
                {
                    "duration": 0.12326383958333054,
                    "durationTicks": 142,
                    "midi": 54,
                    "name": "F#3",
                    "ticks": 408480,
                    "time": 354.5831915,
                    "velocity": 0.8661417322834646,
                },
                {
                    "duration": 0.12326383958333054,
                    "durationTicks": 142,
                    "midi": 56,
                    "name": "G#3",
                    "ticks": 408720,
                    "time": 354.79152475,
                    "velocity": 0.905511811023622,
                },
                {
                    "duration": 0.12326383958333054,
                    "durationTicks": 142,
                    "midi": 57,
                    "name": "A3",
                    "ticks": 408960,
                    "time": 354.999858,
                    "velocity": 0.8976377952755905,
                },
                {
                    "duration": 0.12326383958338738,
                    "durationTicks": 142,
                    "midi": 59,
                    "name": "B3",
                    "ticks": 409200,
                    "time": 355.20819124999997,
                    "velocity": 0.7795275590551181,
                },
                {
                    "duration": 0.12326383958333054,
                    "durationTicks": 142,
                    "midi": 60,
                    "name": "C4",
                    "ticks": 409440,
                    "time": 355.4165245,
                    "velocity": 0.8188976377952756,
                },
                {
                    "duration": 0.12326383958333054,
                    "durationTicks": 142,
                    "midi": 59,
                    "name": "B3",
                    "ticks": 409680,
                    "time": 355.62485775,
                    "velocity": 0.7165354330708661,
                },
                {
                    "duration": 0.12326383958333054,
                    "durationTicks": 142,
                    "midi": 57,
                    "name": "A3",
                    "ticks": 409920,
                    "time": 355.833191,
                    "velocity": 0.7401574803149606,
                },
                {
                    "duration": 0.12326383958333054,
                    "durationTicks": 142,
                    "midi": 60,
                    "name": "C4",
                    "ticks": 410160,
                    "time": 356.04152425,
                    "velocity": 0.8503937007874016,
                },
                {
                    "duration": 0.12326383958333054,
                    "durationTicks": 142,
                    "midi": 59,
                    "name": "B3",
                    "ticks": 410400,
                    "time": 356.2498575,
                    "velocity": 0.7480314960629921,
                },
                {
                    "duration": 0.12326383958338738,
                    "durationTicks": 142,
                    "midi": 57,
                    "name": "A3",
                    "ticks": 410640,
                    "time": 356.45819074999997,
                    "velocity": 0.7244094488188977,
                },
                {
                    "duration": 0.12326383958333054,
                    "durationTicks": 142,
                    "midi": 52,
                    "name": "E3",
                    "ticks": 410880,
                    "time": 356.666524,
                    "velocity": 0.7165354330708661,
                },
                {
                    "duration": 0.12326383958333054,
                    "durationTicks": 142,
                    "midi": 54,
                    "name": "F#3",
                    "ticks": 411120,
                    "time": 356.87485725,
                    "velocity": 0.7795275590551181,
                },
                {
                    "duration": 0.12326383958333054,
                    "durationTicks": 142,
                    "midi": 56,
                    "name": "G#3",
                    "ticks": 411360,
                    "time": 357.0831905,
                    "velocity": 0.7716535433070866,
                },
                {
                    "duration": 0.12326383958333054,
                    "durationTicks": 142,
                    "midi": 57,
                    "name": "A3",
                    "ticks": 411600,
                    "time": 357.29152375,
                    "velocity": 0.7637795275590551,
                },
                {
                    "duration": 0.12326383958333054,
                    "durationTicks": 142,
                    "midi": 59,
                    "name": "B3",
                    "ticks": 411840,
                    "time": 357.499857,
                    "velocity": 0.7874015748031497,
                },
                {
                    "duration": 0.12326383958338738,
                    "durationTicks": 142,
                    "midi": 60,
                    "name": "C4",
                    "ticks": 412080,
                    "time": 357.70819025,
                    "velocity": 0.7874015748031497,
                },
                {
                    "duration": 0.12326383958333054,
                    "durationTicks": 142,
                    "midi": 62,
                    "name": "D4",
                    "ticks": 412320,
                    "time": 357.9165235,
                    "velocity": 0.84251968503937,
                },
                {
                    "duration": 0.12326383958333054,
                    "durationTicks": 142,
                    "midi": 64,
                    "name": "E4",
                    "ticks": 412560,
                    "time": 358.12485675,
                    "velocity": 0.7952755905511811,
                },
                {
                    "duration": 0.12326383958333054,
                    "durationTicks": 142,
                    "midi": 62,
                    "name": "D4",
                    "ticks": 412800,
                    "time": 358.33319,
                    "velocity": 0.7165354330708661,
                },
                {
                    "duration": 0.12326383958333054,
                    "durationTicks": 142,
                    "midi": 59,
                    "name": "B3",
                    "ticks": 413040,
                    "time": 358.54152325,
                    "velocity": 0.7165354330708661,
                },
                {
                    "duration": 0.12326383958333054,
                    "durationTicks": 142,
                    "midi": 60,
                    "name": "C4",
                    "ticks": 413280,
                    "time": 358.7498565,
                    "velocity": 0.8031496062992126,
                },
                {
                    "duration": 0.12326383958338738,
                    "durationTicks": 142,
                    "midi": 62,
                    "name": "D4",
                    "ticks": 413520,
                    "time": 358.95818975,
                    "velocity": 0.8346456692913385,
                },
                {
                    "duration": 0.12326383958333054,
                    "durationTicks": 142,
                    "midi": 64,
                    "name": "E4",
                    "ticks": 413760,
                    "time": 359.166523,
                    "velocity": 0.7795275590551181,
                },
                {
                    "duration": 0.12326383958333054,
                    "durationTicks": 142,
                    "midi": 62,
                    "name": "D4",
                    "ticks": 414000,
                    "time": 359.37485625,
                    "velocity": 0.7086614173228346,
                },
                {
                    "duration": 0.12326383958333054,
                    "durationTicks": 142,
                    "midi": 60,
                    "name": "C4",
                    "ticks": 414240,
                    "time": 359.5831895,
                    "velocity": 0.7244094488188977,
                },
                {
                    "duration": 0.12326383958333054,
                    "durationTicks": 142,
                    "midi": 59,
                    "name": "B3",
                    "ticks": 414480,
                    "time": 359.79152275,
                    "velocity": 0.7086614173228346,
                },
                {
                    "duration": 0.12326383958333054,
                    "durationTicks": 142,
                    "midi": 60,
                    "name": "C4",
                    "ticks": 414720,
                    "time": 359.999856,
                    "velocity": 0.8267716535433071,
                },
                {
                    "duration": 0.12326383958338738,
                    "durationTicks": 142,
                    "midi": 59,
                    "name": "B3",
                    "ticks": 414960,
                    "time": 360.20818925,
                    "velocity": 0.7559055118110236,
                },
                {
                    "duration": 0.12326383958333054,
                    "durationTicks": 142,
                    "midi": 60,
                    "name": "C4",
                    "ticks": 415200,
                    "time": 360.4165225,
                    "velocity": 0.8110236220472441,
                },
                {
                    "duration": 0.12326383958333054,
                    "durationTicks": 142,
                    "midi": 62,
                    "name": "D4",
                    "ticks": 415440,
                    "time": 360.62485575,
                    "velocity": 0.8031496062992126,
                },
                {
                    "duration": 0.12326383958333054,
                    "durationTicks": 142,
                    "midi": 64,
                    "name": "E4",
                    "ticks": 415680,
                    "time": 360.833189,
                    "velocity": 0.8031496062992126,
                },
                {
                    "duration": 0.12326383958333054,
                    "durationTicks": 142,
                    "midi": 52,
                    "name": "E3",
                    "ticks": 415920,
                    "time": 361.04152225,
                    "velocity": 0.6692913385826772,
                },
                {
                    "duration": 0.12326383958333054,
                    "durationTicks": 142,
                    "midi": 54,
                    "name": "F#3",
                    "ticks": 416160,
                    "time": 361.2498555,
                    "velocity": 0.7795275590551181,
                },
                {
                    "duration": 0.12326383958333054,
                    "durationTicks": 142,
                    "midi": 56,
                    "name": "G#3",
                    "ticks": 416400,
                    "time": 361.45818875,
                    "velocity": 0.8110236220472441,
                },
                {
                    "duration": 0.12326383958333054,
                    "durationTicks": 142,
                    "midi": 57,
                    "name": "A3",
                    "ticks": 416640,
                    "time": 361.666522,
                    "velocity": 0.7637795275590551,
                },
                {
                    "duration": 0.12326383958333054,
                    "durationTicks": 142,
                    "midi": 59,
                    "name": "B3",
                    "ticks": 416880,
                    "time": 361.87485525,
                    "velocity": 0.7795275590551181,
                },
                {
                    "duration": 0.12326383958333054,
                    "durationTicks": 142,
                    "midi": 60,
                    "name": "C4",
                    "ticks": 417120,
                    "time": 362.0831885,
                    "velocity": 0.8031496062992126,
                },
                {
                    "duration": 0.12326383958333054,
                    "durationTicks": 142,
                    "midi": 59,
                    "name": "B3",
                    "ticks": 417360,
                    "time": 362.29152175,
                    "velocity": 0.7716535433070866,
                },
                {
                    "duration": 0.12326383958338738,
                    "durationTicks": 142,
                    "midi": 57,
                    "name": "A3",
                    "ticks": 417600,
                    "time": 362.49985499999997,
                    "velocity": 0.7322834645669292,
                },
                {
                    "duration": 0.12326383958333054,
                    "durationTicks": 142,
                    "midi": 60,
                    "name": "C4",
                    "ticks": 417840,
                    "time": 362.70818825,
                    "velocity": 0.8188976377952756,
                },
                {
                    "duration": 0.12326383958333054,
                    "durationTicks": 142,
                    "midi": 59,
                    "name": "B3",
                    "ticks": 418080,
                    "time": 362.9165215,
                    "velocity": 0.7559055118110236,
                },
                {
                    "duration": 0.12326383958333054,
                    "durationTicks": 142,
                    "midi": 57,
                    "name": "A3",
                    "ticks": 418320,
                    "time": 363.12485475,
                    "velocity": 0.7322834645669292,
                },
                {
                    "duration": 0.12326383958333054,
                    "durationTicks": 142,
                    "midi": 52,
                    "name": "E3",
                    "ticks": 418560,
                    "time": 363.333188,
                    "velocity": 0.7244094488188977,
                },
                {
                    "duration": 0.12326383958333054,
                    "durationTicks": 142,
                    "midi": 54,
                    "name": "F#3",
                    "ticks": 418800,
                    "time": 363.54152125,
                    "velocity": 0.7559055118110236,
                },
                {
                    "duration": 0.12326383958338738,
                    "durationTicks": 142,
                    "midi": 56,
                    "name": "G#3",
                    "ticks": 419040,
                    "time": 363.74985449999997,
                    "velocity": 0.8110236220472441,
                },
                {
                    "duration": 0.12326383958333054,
                    "durationTicks": 142,
                    "midi": 57,
                    "name": "A3",
                    "ticks": 419280,
                    "time": 363.95818775,
                    "velocity": 0.7952755905511811,
                },
                {
                    "duration": 0.12326383958333054,
                    "durationTicks": 142,
                    "midi": 59,
                    "name": "B3",
                    "ticks": 419520,
                    "time": 364.166521,
                    "velocity": 0.8031496062992126,
                },
                {
                    "duration": 0.12326383958333054,
                    "durationTicks": 142,
                    "midi": 60,
                    "name": "C4",
                    "ticks": 419760,
                    "time": 364.37485425,
                    "velocity": 0.8031496062992126,
                },
                {
                    "duration": 0.12326383958333054,
                    "durationTicks": 142,
                    "midi": 62,
                    "name": "D4",
                    "ticks": 420000,
                    "time": 364.5831875,
                    "velocity": 0.8188976377952756,
                },
                {
                    "duration": 0.12326383958333054,
                    "durationTicks": 142,
                    "midi": 64,
                    "name": "E4",
                    "ticks": 420240,
                    "time": 364.79152075,
                    "velocity": 0.8346456692913385,
                },
                {
                    "duration": 0.12326383958338738,
                    "durationTicks": 142,
                    "midi": 62,
                    "name": "D4",
                    "ticks": 420480,
                    "time": 364.99985399999997,
                    "velocity": 0.7637795275590551,
                },
                {
                    "duration": 0.12326383958333054,
                    "durationTicks": 142,
                    "midi": 59,
                    "name": "B3",
                    "ticks": 420720,
                    "time": 365.20818725,
                    "velocity": 0.7401574803149606,
                },
                {
                    "duration": 0.12326383958333054,
                    "durationTicks": 142,
                    "midi": 60,
                    "name": "C4",
                    "ticks": 420960,
                    "time": 365.4165205,
                    "velocity": 0.7952755905511811,
                },
                {
                    "duration": 0.12326383958333054,
                    "durationTicks": 142,
                    "midi": 62,
                    "name": "D4",
                    "ticks": 421200,
                    "time": 365.62485375,
                    "velocity": 0.7952755905511811,
                },
                {
                    "duration": 0.12326383958333054,
                    "durationTicks": 142,
                    "midi": 64,
                    "name": "E4",
                    "ticks": 421440,
                    "time": 365.833187,
                    "velocity": 0.8188976377952756,
                },
                {
                    "duration": 0.12326383958333054,
                    "durationTicks": 142,
                    "midi": 62,
                    "name": "D4",
                    "ticks": 421680,
                    "time": 366.04152025,
                    "velocity": 0.7244094488188977,
                },
                {
                    "duration": 0.12326383958338738,
                    "durationTicks": 142,
                    "midi": 60,
                    "name": "C4",
                    "ticks": 421920,
                    "time": 366.2498535,
                    "velocity": 0.6850393700787402,
                },
                {
                    "duration": 0.12326383958333054,
                    "durationTicks": 142,
                    "midi": 59,
                    "name": "B3",
                    "ticks": 422160,
                    "time": 366.45818675,
                    "velocity": 0.7086614173228346,
                },
                {
                    "duration": 0.8333329999999819,
                    "durationTicks": 960,
                    "midi": 57,
                    "name": "A3",
                    "ticks": 422400,
                    "time": 366.66652,
                    "velocity": 0.7401574803149606,
                },
                {
                    "duration": 0.8333329999999819,
                    "durationTicks": 960,
                    "midi": 59,
                    "name": "B3",
                    "ticks": 424320,
                    "time": 368.333186,
                    "velocity": 0.3228346456692913,
                },
                {
                    "duration": 0.8333329999999819,
                    "durationTicks": 960,
                    "midi": 62,
                    "name": "D4",
                    "ticks": 424320,
                    "time": 368.333186,
                    "velocity": 0.3228346456692913,
                },
                {
                    "duration": 0.2473957343750044,
                    "durationTicks": 285,
                    "midi": 59,
                    "name": "B3",
                    "ticks": 425280,
                    "time": 369.166519,
                    "velocity": 0.3858267716535433,
                },
                {
                    "duration": 0.2473957343750044,
                    "durationTicks": 285,
                    "midi": 62,
                    "name": "D4",
                    "ticks": 425280,
                    "time": 369.166519,
                    "velocity": 0.3858267716535433,
                },
                {
                    "duration": 0.2473957343750044,
                    "durationTicks": 285,
                    "midi": 59,
                    "name": "B3",
                    "ticks": 425760,
                    "time": 369.5831855,
                    "velocity": 0.4015748031496063,
                },
                {
                    "duration": 0.2473957343750044,
                    "durationTicks": 285,
                    "midi": 62,
                    "name": "D4",
                    "ticks": 425760,
                    "time": 369.5831855,
                    "velocity": 0.4015748031496063,
                },
                {
                    "duration": 0.41666650000001937,
                    "durationTicks": 480,
                    "midi": 57,
                    "name": "A3",
                    "ticks": 426240,
                    "time": 369.999852,
                    "velocity": 0.3779527559055118,
                },
                {
                    "duration": 0.41666650000001937,
                    "durationTicks": 480,
                    "midi": 60,
                    "name": "C4",
                    "ticks": 426240,
                    "time": 369.999852,
                    "velocity": 0.3779527559055118,
                },
                {
                    "duration": 1.6666660000000206,
                    "durationTicks": 1920,
                    "midi": 64,
                    "name": "E4",
                    "ticks": 429120,
                    "time": 372.499851,
                    "velocity": 0.33858267716535434,
                },
                {
                    "duration": 0.8489579937499911,
                    "durationTicks": 978,
                    "midi": 61,
                    "name": "C#4",
                    "ticks": 431040,
                    "time": 374.166517,
                    "velocity": 0.3858267716535433,
                },
                {
                    "duration": 0.848957993750048,
                    "durationTicks": 978,
                    "midi": 57,
                    "name": "A3",
                    "ticks": 432000,
                    "time": 374.99985,
                    "velocity": 0.33858267716535434,
                },
                {
                    "duration": 0.7907982947916707,
                    "durationTicks": 911,
                    "midi": 61,
                    "name": "C#4",
                    "ticks": 432960,
                    "time": 375.833183,
                    "velocity": 0.4645669291338583,
                },
                {
                    "duration": 0.8489579937499911,
                    "durationTicks": 978,
                    "midi": 61,
                    "name": "C#4",
                    "ticks": 433920,
                    "time": 376.666516,
                    "velocity": 0.3858267716535433,
                },
                {
                    "duration": 1.6987840427083256,
                    "durationTicks": 1957,
                    "midi": 50,
                    "name": "D3",
                    "ticks": 434880,
                    "time": 377.499849,
                    "velocity": 0.4330708661417323,
                },
                {
                    "duration": 1.6987840427083256,
                    "durationTicks": 1957,
                    "midi": 59,
                    "name": "B3",
                    "ticks": 434880,
                    "time": 377.499849,
                    "velocity": 0.4330708661417323,
                },
                {
                    "duration": 0.8489579937499911,
                    "durationTicks": 978,
                    "midi": 49,
                    "name": "C#3",
                    "ticks": 436800,
                    "time": 379.166515,
                    "velocity": 0.44881889763779526,
                },
                {
                    "duration": 0.8489579937499911,
                    "durationTicks": 978,
                    "midi": 57,
                    "name": "A3",
                    "ticks": 436800,
                    "time": 379.166515,
                    "velocity": 0.44881889763779526,
                },
                {
                    "duration": 0.8489579937499911,
                    "durationTicks": 978,
                    "midi": 47,
                    "name": "B2",
                    "ticks": 437760,
                    "time": 379.999848,
                    "velocity": 0.49606299212598426,
                },
                {
                    "duration": 0.8489579937499911,
                    "durationTicks": 978,
                    "midi": 56,
                    "name": "G#3",
                    "ticks": 437760,
                    "time": 379.999848,
                    "velocity": 0.49606299212598426,
                },
                {
                    "duration": 0.848957993750048,
                    "durationTicks": 978,
                    "midi": 49,
                    "name": "C#3",
                    "ticks": 438720,
                    "time": 380.83318099999997,
                    "velocity": 0.5433070866141733,
                },
                {
                    "duration": 0.848957993750048,
                    "durationTicks": 978,
                    "midi": 57,
                    "name": "A3",
                    "ticks": 438720,
                    "time": 380.83318099999997,
                    "velocity": 0.5433070866141733,
                },
                {
                    "duration": 0.8489579937499911,
                    "durationTicks": 978,
                    "midi": 50,
                    "name": "D3",
                    "ticks": 439680,
                    "time": 381.666514,
                    "velocity": 0.5590551181102362,
                },
                {
                    "duration": 0.8489579937499911,
                    "durationTicks": 978,
                    "midi": 59,
                    "name": "B3",
                    "ticks": 439680,
                    "time": 381.666514,
                    "velocity": 0.5590551181102362,
                },
                {
                    "duration": 0.8489579937499911,
                    "durationTicks": 978,
                    "midi": 52,
                    "name": "E3",
                    "ticks": 440640,
                    "time": 382.499847,
                    "velocity": 0.6456692913385826,
                },
                {
                    "duration": 0.8489579937499911,
                    "durationTicks": 978,
                    "midi": 61,
                    "name": "C#4",
                    "ticks": 440640,
                    "time": 382.499847,
                    "velocity": 0.6456692913385826,
                },
                {
                    "duration": 0.848957993750048,
                    "durationTicks": 978,
                    "midi": 54,
                    "name": "F#3",
                    "ticks": 441600,
                    "time": 383.33317999999997,
                    "velocity": 0.5275590551181102,
                },
                {
                    "duration": 0.848957993750048,
                    "durationTicks": 978,
                    "midi": 62,
                    "name": "D4",
                    "ticks": 441600,
                    "time": 383.33317999999997,
                    "velocity": 0.5275590551181102,
                },
                {
                    "duration": 0.8489579937499911,
                    "durationTicks": 978,
                    "midi": 56,
                    "name": "G#3",
                    "ticks": 442560,
                    "time": 384.166513,
                    "velocity": 0.5590551181102362,
                },
                {
                    "duration": 0.8489579937499911,
                    "durationTicks": 978,
                    "midi": 64,
                    "name": "E4",
                    "ticks": 442560,
                    "time": 384.166513,
                    "velocity": 0.5590551181102362,
                },
                {
                    "duration": 0.8489579937499911,
                    "durationTicks": 978,
                    "midi": 59,
                    "name": "B3",
                    "ticks": 443520,
                    "time": 384.999846,
                    "velocity": 0.48031496062992124,
                },
                {
                    "duration": 0.8489579937499911,
                    "durationTicks": 978,
                    "midi": 62,
                    "name": "D4",
                    "ticks": 443520,
                    "time": 384.999846,
                    "velocity": 0.48031496062992124,
                },
                {
                    "duration": 0.4227428864583658,
                    "durationTicks": 487,
                    "midi": 57,
                    "name": "A3",
                    "ticks": 444480,
                    "time": 385.833179,
                    "velocity": 0.44881889763779526,
                },
                {
                    "duration": 0.41666650000001937,
                    "durationTicks": 480,
                    "midi": 61,
                    "name": "C#4",
                    "ticks": 444480,
                    "time": 385.833179,
                    "velocity": 0.44881889763779526,
                },
                {
                    "duration": 0.3932290093750339,
                    "durationTicks": 453,
                    "midi": 61,
                    "name": "C#4",
                    "ticks": 444960,
                    "time": 386.2498455,
                    "velocity": 0.5433070866141733,
                },
                {
                    "duration": 0.3932290093750339,
                    "durationTicks": 453,
                    "midi": 64,
                    "name": "E4",
                    "ticks": 444960,
                    "time": 386.2498455,
                    "velocity": 0.5433070866141733,
                },
                {
                    "duration": 1.6666659999999638,
                    "durationTicks": 1920,
                    "midi": 61,
                    "name": "C#4",
                    "ticks": 445440,
                    "time": 386.666512,
                    "velocity": 0.36220472440944884,
                },
                {
                    "duration": 1.6987840427083256,
                    "durationTicks": 1957,
                    "midi": 64,
                    "name": "E4",
                    "ticks": 445440,
                    "time": 386.666512,
                    "velocity": 0.36220472440944884,
                },
                {
                    "duration": 0.848957993750048,
                    "durationTicks": 978,
                    "midi": 57,
                    "name": "A3",
                    "ticks": 447360,
                    "time": 388.333178,
                    "velocity": 0.47244094488188976,
                },
                {
                    "duration": 0.8333330000000387,
                    "durationTicks": 960,
                    "midi": 61,
                    "name": "C#4",
                    "ticks": 447360,
                    "time": 388.333178,
                    "velocity": 0.47244094488188976,
                },
                {
                    "duration": 0.7907982947916707,
                    "durationTicks": 911,
                    "midi": 61,
                    "name": "C#4",
                    "ticks": 448320,
                    "time": 389.166511,
                    "velocity": 0.5748031496062992,
                },
                {
                    "duration": 0.7907982947916707,
                    "durationTicks": 911,
                    "midi": 64,
                    "name": "E4",
                    "ticks": 448320,
                    "time": 389.166511,
                    "velocity": 0.5748031496062992,
                },
                {
                    "duration": 0.8489579937499911,
                    "durationTicks": 978,
                    "midi": 61,
                    "name": "C#4",
                    "ticks": 449280,
                    "time": 389.999844,
                    "velocity": 0.6062992125984252,
                },
                {
                    "duration": 0.8489579937499911,
                    "durationTicks": 978,
                    "midi": 64,
                    "name": "E4",
                    "ticks": 449280,
                    "time": 389.999844,
                    "velocity": 0.6062992125984252,
                },
                {
                    "duration": 1.6987840427083825,
                    "durationTicks": 1957,
                    "midi": 62,
                    "name": "D4",
                    "ticks": 450240,
                    "time": 390.833177,
                    "velocity": 0.6850393700787402,
                },
                {
                    "duration": 1.6987840427083825,
                    "durationTicks": 1957,
                    "midi": 66,
                    "name": "F#4",
                    "ticks": 450240,
                    "time": 390.833177,
                    "velocity": 0.6850393700787402,
                },
                {
                    "duration": 0.8489579937499911,
                    "durationTicks": 978,
                    "midi": 61,
                    "name": "C#4",
                    "ticks": 452160,
                    "time": 392.499843,
                    "velocity": 0.7007874015748031,
                },
                {
                    "duration": 0.8489579937499911,
                    "durationTicks": 978,
                    "midi": 64,
                    "name": "E4",
                    "ticks": 452160,
                    "time": 392.499843,
                    "velocity": 0.7007874015748031,
                },
                {
                    "duration": 0.848957993750048,
                    "durationTicks": 978,
                    "midi": 54,
                    "name": "F#3",
                    "ticks": 453120,
                    "time": 393.333176,
                    "velocity": 0.7952755905511811,
                },
                {
                    "duration": 0.848957993750048,
                    "durationTicks": 978,
                    "midi": 62,
                    "name": "D4",
                    "ticks": 453120,
                    "time": 393.333176,
                    "velocity": 0.7952755905511811,
                },
                {
                    "duration": 0.8489579937499911,
                    "durationTicks": 978,
                    "midi": 52,
                    "name": "E3",
                    "ticks": 454080,
                    "time": 394.166509,
                    "velocity": 0.7559055118110236,
                },
                {
                    "duration": 0.8489579937499911,
                    "durationTicks": 978,
                    "midi": 61,
                    "name": "C#4",
                    "ticks": 454080,
                    "time": 394.166509,
                    "velocity": 0.7559055118110236,
                },
                {
                    "duration": 0.8489579937499911,
                    "durationTicks": 978,
                    "midi": 54,
                    "name": "F#3",
                    "ticks": 455040,
                    "time": 394.999842,
                    "velocity": 0.7244094488188977,
                },
                {
                    "duration": 0.8489579937499911,
                    "durationTicks": 978,
                    "midi": 62,
                    "name": "D4",
                    "ticks": 455040,
                    "time": 394.999842,
                    "velocity": 0.7244094488188977,
                },
                {
                    "duration": 0.848957993750048,
                    "durationTicks": 978,
                    "midi": 56,
                    "name": "G#3",
                    "ticks": 456000,
                    "time": 395.833175,
                    "velocity": 0.6535433070866141,
                },
                {
                    "duration": 0.848957993750048,
                    "durationTicks": 978,
                    "midi": 64,
                    "name": "E4",
                    "ticks": 456000,
                    "time": 395.833175,
                    "velocity": 0.6535433070866141,
                },
                {
                    "duration": 1.5815965895833415,
                    "durationTicks": 1822,
                    "midi": 57,
                    "name": "A3",
                    "ticks": 456960,
                    "time": 396.666508,
                    "velocity": 0.5275590551181102,
                },
                {
                    "duration": 1.5815965895833415,
                    "durationTicks": 1822,
                    "midi": 61,
                    "name": "C#4",
                    "ticks": 456960,
                    "time": 396.666508,
                    "velocity": 0.5275590551181102,
                },
                {
                    "duration": 0.8489579937499911,
                    "durationTicks": 978,
                    "midi": 54,
                    "name": "F#3",
                    "ticks": 458880,
                    "time": 398.333174,
                    "velocity": 0.4251968503937008,
                },
                {
                    "duration": 0.8489579937499911,
                    "durationTicks": 978,
                    "midi": 62,
                    "name": "D4",
                    "ticks": 458880,
                    "time": 398.333174,
                    "velocity": 0.4251968503937008,
                },
                {
                    "duration": 0.848957993750048,
                    "durationTicks": 978,
                    "midi": 56,
                    "name": "G#3",
                    "ticks": 459840,
                    "time": 399.16650699999997,
                    "velocity": 0.44881889763779526,
                },
                {
                    "duration": 0.848957993750048,
                    "durationTicks": 978,
                    "midi": 64,
                    "name": "E4",
                    "ticks": 459840,
                    "time": 399.16650699999997,
                    "velocity": 0.44881889763779526,
                },
                {
                    "duration": 1.5815965895833415,
                    "durationTicks": 1822,
                    "midi": 57,
                    "name": "A3",
                    "ticks": 460800,
                    "time": 399.99984,
                    "velocity": 0.41732283464566927,
                },
                {
                    "duration": 1.5815965895833415,
                    "durationTicks": 1822,
                    "midi": 61,
                    "name": "C#4",
                    "ticks": 460800,
                    "time": 399.99984,
                    "velocity": 0.41732283464566927,
                },
                {
                    "duration": 0.848957993750048,
                    "durationTicks": 978,
                    "midi": 54,
                    "name": "F#3",
                    "ticks": 462720,
                    "time": 401.66650599999997,
                    "velocity": 0.4251968503937008,
                },
                {
                    "duration": 0.848957993750048,
                    "durationTicks": 978,
                    "midi": 62,
                    "name": "D4",
                    "ticks": 462720,
                    "time": 401.66650599999997,
                    "velocity": 0.4251968503937008,
                },
                {
                    "duration": 0.7907982947916707,
                    "durationTicks": 911,
                    "midi": 56,
                    "name": "G#3",
                    "ticks": 463680,
                    "time": 402.499839,
                    "velocity": 0.4645669291338583,
                },
                {
                    "duration": 0.7907982947916707,
                    "durationTicks": 911,
                    "midi": 64,
                    "name": "E4",
                    "ticks": 463680,
                    "time": 402.499839,
                    "velocity": 0.4645669291338583,
                },
                {
                    "duration": 0.8333329999999819,
                    "durationTicks": 960,
                    "midi": 45,
                    "name": "A2",
                    "ticks": 464640,
                    "time": 403.333172,
                    "velocity": 0.2677165354330709,
                },
                {
                    "duration": 0.8333329999999819,
                    "durationTicks": 960,
                    "midi": 57,
                    "name": "A3",
                    "ticks": 464640,
                    "time": 403.333172,
                    "velocity": 0.2677165354330709,
                },
                {
                    "duration": 0.2473957343750044,
                    "durationTicks": 285,
                    "midi": 45,
                    "name": "A2",
                    "ticks": 465600,
                    "time": 404.166505,
                    "velocity": 0.2677165354330709,
                },
                {
                    "duration": 0.2473957343750044,
                    "durationTicks": 285,
                    "midi": 57,
                    "name": "A3",
                    "ticks": 465600,
                    "time": 404.166505,
                    "velocity": 0.2677165354330709,
                },
                {
                    "duration": 0.2343749062500251,
                    "durationTicks": 270,
                    "midi": 45,
                    "name": "A2",
                    "ticks": 466080,
                    "time": 404.5831715,
                    "velocity": 0.30708661417322836,
                },
                {
                    "duration": 0.2343749062500251,
                    "durationTicks": 270,
                    "midi": 57,
                    "name": "A3",
                    "ticks": 466080,
                    "time": 404.5831715,
                    "velocity": 0.30708661417322836,
                },
                {
                    "duration": 0.4973956343749819,
                    "durationTicks": 573,
                    "midi": 45,
                    "name": "A2",
                    "ticks": 466560,
                    "time": 404.999838,
                    "velocity": 0.2677165354330709,
                },
                {
                    "duration": 0.4973956343749819,
                    "durationTicks": 573,
                    "midi": 57,
                    "name": "A3",
                    "ticks": 466560,
                    "time": 404.999838,
                    "velocity": 0.2677165354330709,
                },
                {
                    "duration": 0.47135397812502333,
                    "durationTicks": 543,
                    "midi": 45,
                    "name": "A2",
                    "ticks": 467520,
                    "time": 405.833171,
                    "velocity": 0.2992125984251969,
                },
                {
                    "duration": 0.47135397812502333,
                    "durationTicks": 543,
                    "midi": 57,
                    "name": "A3",
                    "ticks": 467520,
                    "time": 405.833171,
                    "velocity": 0.2992125984251969,
                },
                {
                    "duration": 0.8333330000000387,
                    "durationTicks": 960,
                    "midi": 45,
                    "name": "A2",
                    "ticks": 468480,
                    "time": 406.666504,
                    "velocity": 0.2755905511811024,
                },
                {
                    "duration": 0.8333330000000387,
                    "durationTicks": 960,
                    "midi": 57,
                    "name": "A3",
                    "ticks": 468480,
                    "time": 406.666504,
                    "velocity": 0.2755905511811024,
                },
                {
                    "duration": 0.2473957343750044,
                    "durationTicks": 285,
                    "midi": 45,
                    "name": "A2",
                    "ticks": 469440,
                    "time": 407.499837,
                    "velocity": 0.28346456692913385,
                },
                {
                    "duration": 0.2473957343750044,
                    "durationTicks": 285,
                    "midi": 57,
                    "name": "A3",
                    "ticks": 469440,
                    "time": 407.499837,
                    "velocity": 0.28346456692913385,
                },
                {
                    "duration": 0.2343749062500251,
                    "durationTicks": 270,
                    "midi": 45,
                    "name": "A2",
                    "ticks": 469920,
                    "time": 407.9165035,
                    "velocity": 0.25984251968503935,
                },
                {
                    "duration": 0.2343749062500251,
                    "durationTicks": 270,
                    "midi": 57,
                    "name": "A3",
                    "ticks": 469920,
                    "time": 407.9165035,
                    "velocity": 0.25984251968503935,
                },
                {
                    "duration": 0.4973956343749819,
                    "durationTicks": 573,
                    "midi": 45,
                    "name": "A2",
                    "ticks": 470400,
                    "time": 408.33317,
                    "velocity": 0.2992125984251969,
                },
                {
                    "duration": 0.4973956343749819,
                    "durationTicks": 573,
                    "midi": 57,
                    "name": "A3",
                    "ticks": 470400,
                    "time": 408.33317,
                    "velocity": 0.2992125984251969,
                },
                {
                    "duration": 0.47135397812502333,
                    "durationTicks": 543,
                    "midi": 45,
                    "name": "A2",
                    "ticks": 471360,
                    "time": 409.166503,
                    "velocity": 0.2677165354330709,
                },
                {
                    "duration": 0.47135397812502333,
                    "durationTicks": 543,
                    "midi": 57,
                    "name": "A3",
                    "ticks": 471360,
                    "time": 409.166503,
                    "velocity": 0.2677165354330709,
                },
                {
                    "duration": 0.8333329999999819,
                    "durationTicks": 960,
                    "midi": 59,
                    "name": "B3",
                    "ticks": 472320,
                    "time": 409.999836,
                    "velocity": 1,
                },
                {
                    "duration": 0.8333329999999819,
                    "durationTicks": 960,
                    "midi": 62,
                    "name": "D4",
                    "ticks": 472320,
                    "time": 409.999836,
                    "velocity": 1,
                },
                {
                    "duration": 0.2473957343750044,
                    "durationTicks": 285,
                    "midi": 57,
                    "name": "A3",
                    "ticks": 473280,
                    "time": 410.833169,
                    "velocity": 0.84251968503937,
                },
                {
                    "duration": 0.2473957343750044,
                    "durationTicks": 285,
                    "midi": 60,
                    "name": "C4",
                    "ticks": 473280,
                    "time": 410.833169,
                    "velocity": 0.84251968503937,
                },
                {
                    "duration": 0.2473957343750044,
                    "durationTicks": 285,
                    "midi": 59,
                    "name": "B3",
                    "ticks": 473760,
                    "time": 411.2498355,
                    "velocity": 0.9606299212598425,
                },
                {
                    "duration": 0.2473957343750044,
                    "durationTicks": 285,
                    "midi": 62,
                    "name": "D4",
                    "ticks": 473760,
                    "time": 411.2498355,
                    "velocity": 0.9606299212598425,
                },
                {
                    "duration": 0.41666650000001937,
                    "durationTicks": 480,
                    "midi": 60,
                    "name": "C4",
                    "ticks": 474240,
                    "time": 411.666502,
                    "velocity": 0.952755905511811,
                },
                {
                    "duration": 0.41666650000001937,
                    "durationTicks": 480,
                    "midi": 64,
                    "name": "E4",
                    "ticks": 474240,
                    "time": 411.666502,
                    "velocity": 0.952755905511811,
                },
                {
                    "duration": 0.8333329999999819,
                    "durationTicks": 960,
                    "midi": 59,
                    "name": "B3",
                    "ticks": 480000,
                    "time": 416.6665,
                    "velocity": 0.7637795275590551,
                },
                {
                    "duration": 0.8333329999999819,
                    "durationTicks": 960,
                    "midi": 62,
                    "name": "D4",
                    "ticks": 480000,
                    "time": 416.6665,
                    "velocity": 0.7637795275590551,
                },
                {
                    "duration": 0.2473957343750044,
                    "durationTicks": 285,
                    "midi": 57,
                    "name": "A3",
                    "ticks": 480960,
                    "time": 417.49983299999997,
                    "velocity": 0.8031496062992126,
                },
                {
                    "duration": 0.2473957343750044,
                    "durationTicks": 285,
                    "midi": 60,
                    "name": "C4",
                    "ticks": 480960,
                    "time": 417.49983299999997,
                    "velocity": 0.8031496062992126,
                },
                {
                    "duration": 0.2473957343750044,
                    "durationTicks": 285,
                    "midi": 59,
                    "name": "B3",
                    "ticks": 481440,
                    "time": 417.9164995,
                    "velocity": 0.9291338582677166,
                },
                {
                    "duration": 0.2473957343750044,
                    "durationTicks": 285,
                    "midi": 62,
                    "name": "D4",
                    "ticks": 481440,
                    "time": 417.9164995,
                    "velocity": 0.9291338582677166,
                },
                {
                    "duration": 0.4166664999999625,
                    "durationTicks": 480,
                    "midi": 60,
                    "name": "C4",
                    "ticks": 481920,
                    "time": 418.333166,
                    "velocity": 0.905511811023622,
                },
                {
                    "duration": 0.4166664999999625,
                    "durationTicks": 480,
                    "midi": 64,
                    "name": "E4",
                    "ticks": 481920,
                    "time": 418.333166,
                    "velocity": 0.905511811023622,
                },
                {
                    "duration": 0.8333330000000387,
                    "durationTicks": 960,
                    "midi": 57,
                    "name": "A3",
                    "ticks": 495360,
                    "time": 429.999828,
                    "velocity": 0.2047244094488189,
                },
                {
                    "duration": 0.8333330000000387,
                    "durationTicks": 960,
                    "midi": 60,
                    "name": "C4",
                    "ticks": 495360,
                    "time": 429.999828,
                    "velocity": 0.2047244094488189,
                },
                {
                    "duration": 0.2473957343750044,
                    "durationTicks": 285,
                    "midi": 57,
                    "name": "A3",
                    "ticks": 496320,
                    "time": 430.833161,
                    "velocity": 0.23622047244094488,
                },
                {
                    "duration": 0.2473957343750044,
                    "durationTicks": 285,
                    "midi": 60,
                    "name": "C4",
                    "ticks": 496320,
                    "time": 430.833161,
                    "velocity": 0.23622047244094488,
                },
                {
                    "duration": 0.2343749062500251,
                    "durationTicks": 270,
                    "midi": 57,
                    "name": "A3",
                    "ticks": 496800,
                    "time": 431.2498275,
                    "velocity": 0.25984251968503935,
                },
                {
                    "duration": 0.2343749062500251,
                    "durationTicks": 270,
                    "midi": 60,
                    "name": "C4",
                    "ticks": 496800,
                    "time": 431.2498275,
                    "velocity": 0.25984251968503935,
                },
                {
                    "duration": 0.4973956343749819,
                    "durationTicks": 573,
                    "midi": 55,
                    "name": "G3",
                    "ticks": 497280,
                    "time": 431.666494,
                    "velocity": 0.2677165354330709,
                },
                {
                    "duration": 0.4973956343749819,
                    "durationTicks": 573,
                    "midi": 60,
                    "name": "C4",
                    "ticks": 497280,
                    "time": 431.666494,
                    "velocity": 0.2677165354330709,
                },
                {
                    "duration": 0.4713539781249665,
                    "durationTicks": 543,
                    "midi": 55,
                    "name": "G3",
                    "ticks": 498240,
                    "time": 432.499827,
                    "velocity": 0.28346456692913385,
                },
                {
                    "duration": 0.4713539781249665,
                    "durationTicks": 543,
                    "midi": 60,
                    "name": "C4",
                    "ticks": 498240,
                    "time": 432.499827,
                    "velocity": 0.28346456692913385,
                },
                {
                    "duration": 0.8333330000000387,
                    "durationTicks": 960,
                    "midi": 57,
                    "name": "A3",
                    "ticks": 510720,
                    "time": 443.333156,
                    "velocity": 0.2755905511811024,
                },
                {
                    "duration": 0.8333330000000387,
                    "durationTicks": 960,
                    "midi": 60,
                    "name": "C4",
                    "ticks": 510720,
                    "time": 443.333156,
                    "velocity": 0.2755905511811024,
                },
                {
                    "duration": 0.2473957343750044,
                    "durationTicks": 285,
                    "midi": 57,
                    "name": "A3",
                    "ticks": 511680,
                    "time": 444.166489,
                    "velocity": 0.2677165354330709,
                },
                {
                    "duration": 0.2473957343750044,
                    "durationTicks": 285,
                    "midi": 60,
                    "name": "C4",
                    "ticks": 511680,
                    "time": 444.166489,
                    "velocity": 0.2677165354330709,
                },
                {
                    "duration": 0.2343749062500251,
                    "durationTicks": 270,
                    "midi": 57,
                    "name": "A3",
                    "ticks": 512160,
                    "time": 444.5831555,
                    "velocity": 0.2677165354330709,
                },
                {
                    "duration": 0.2343749062500251,
                    "durationTicks": 270,
                    "midi": 60,
                    "name": "C4",
                    "ticks": 512160,
                    "time": 444.5831555,
                    "velocity": 0.2677165354330709,
                },
                {
                    "duration": 0.5078122968749881,
                    "durationTicks": 585,
                    "midi": 56,
                    "name": "G#3",
                    "ticks": 512640,
                    "time": 444.999822,
                    "velocity": 0.30708661417322836,
                },
                {
                    "duration": 0.5078122968749881,
                    "durationTicks": 585,
                    "midi": 62,
                    "name": "D4",
                    "ticks": 512640,
                    "time": 444.999822,
                    "velocity": 0.30708661417322836,
                },
                {
                    "duration": 0.4713539781249665,
                    "durationTicks": 543,
                    "midi": 57,
                    "name": "A3",
                    "ticks": 513600,
                    "time": 445.833155,
                    "velocity": 0.23622047244094488,
                },
                {
                    "duration": 0.4713539781249665,
                    "durationTicks": 543,
                    "midi": 60,
                    "name": "C4",
                    "ticks": 513600,
                    "time": 445.833155,
                    "velocity": 0.23622047244094488,
                },
                {
                    "duration": 0.8333329999999819,
                    "durationTicks": 960,
                    "midi": 59,
                    "name": "B3",
                    "ticks": 518400,
                    "time": 449.99982,
                    "velocity": 0.29133858267716534,
                },
                {
                    "duration": 0.8333329999999819,
                    "durationTicks": 960,
                    "midi": 62,
                    "name": "D4",
                    "ticks": 518400,
                    "time": 449.99982,
                    "velocity": 0.29133858267716534,
                },
                {
                    "duration": 0.2473957343750044,
                    "durationTicks": 285,
                    "midi": 59,
                    "name": "B3",
                    "ticks": 519360,
                    "time": 450.833153,
                    "velocity": 0.29133858267716534,
                },
                {
                    "duration": 0.2473957343750044,
                    "durationTicks": 285,
                    "midi": 62,
                    "name": "D4",
                    "ticks": 519360,
                    "time": 450.833153,
                    "velocity": 0.29133858267716534,
                },
                {
                    "duration": 0.2473957343750044,
                    "durationTicks": 285,
                    "midi": 59,
                    "name": "B3",
                    "ticks": 519840,
                    "time": 451.2498195,
                    "velocity": 0.30708661417322836,
                },
                {
                    "duration": 0.2473957343750044,
                    "durationTicks": 285,
                    "midi": 62,
                    "name": "D4",
                    "ticks": 519840,
                    "time": 451.2498195,
                    "velocity": 0.30708661417322836,
                },
                {
                    "duration": 0.8333329999999819,
                    "durationTicks": 960,
                    "midi": 57,
                    "name": "A3",
                    "ticks": 520320,
                    "time": 451.666486,
                    "velocity": 0.2677165354330709,
                },
                {
                    "duration": 0.8333329999999819,
                    "durationTicks": 960,
                    "midi": 60,
                    "name": "C4",
                    "ticks": 520320,
                    "time": 451.666486,
                    "velocity": 0.2677165354330709,
                },
                {
                    "duration": 4.713261499999987,
                    "durationTicks": 4320,
                    "midi": 57,
                    "name": "A3",
                    "ticks": 528000,
                    "time": 458.33315,
                    "velocity": 0.7007874015748031,
                },
                {
                    "duration": 4.713261499999987,
                    "durationTicks": 4320,
                    "midi": 60,
                    "name": "C4",
                    "ticks": 528000,
                    "time": 458.33315,
                    "velocity": 0.7007874015748031,
                },
            ],
        },
        {
            "channel": 2,
            "controlChanges": {
                "7": [
                    {"number": 7, "ticks": 0, "time": 0, "value": 0.6456692913385826},
                    {"number": 7, "ticks": 0, "time": 0, "value": 0.7480314960629921},
                    {
                        "number": 7,
                        "ticks": 843,
                        "time": 0.731770540625,
                        "value": 0.6692913385826772,
                    },
                    {
                        "number": 7,
                        "ticks": 1293,
                        "time": 1.122395384375,
                        "value": 0.5905511811023622,
                    },
                    {
                        "number": 7,
                        "ticks": 1920,
                        "time": 1.666666,
                        "value": 0.5118110236220472,
                    },
                    {
                        "number": 7,
                        "ticks": 3138,
                        "time": 2.7239572437499997,
                        "value": 0.4330708661417323,
                    },
                    {
                        "number": 7,
                        "ticks": 3836,
                        "time": 3.3298597791666666,
                        "value": 0.3543307086614173,
                    },
                    {
                        "number": 7,
                        "ticks": 4290,
                        "time": 3.72395684375,
                        "value": 0.2755905511811024,
                    },
                    {
                        "number": 7,
                        "ticks": 5760,
                        "time": 4.999998,
                        "value": 0.47244094488188976,
                    },
                    {
                        "number": 7,
                        "ticks": 528000,
                        "time": 458.33315,
                        "value": 0.7480314960629921,
                    },
                    {
                        "number": 7,
                        "ticks": 528480,
                        "time": 458.817021,
                        "value": 0.6692913385826772,
                    },
                    {
                        "number": 7,
                        "ticks": 528960,
                        "time": 459.300892,
                        "value": 0.5905511811023622,
                    },
                    {
                        "number": 7,
                        "ticks": 529920,
                        "time": 460.26863399999996,
                        "value": 0.47244094488188976,
                    },
                    {
                        "number": 7,
                        "ticks": 530538,
                        "time": 460.98391170624996,
                        "value": 0.3543307086614173,
                    },
                    {
                        "number": 7,
                        "ticks": 531840,
                        "time": 462.49085599999995,
                        "value": 0.23622047244094488,
                    },
                ],
                "10": [
                    {"number": 10, "ticks": 0, "time": 0, "value": 0.47244094488188976}
                ],
                "64": [{"number": 64, "ticks": 0, "time": 0, "value": 0}],
                "91": [
                    {"number": 91, "ticks": 0, "time": 0, "value": 0.44881889763779526}
                ],
                "121": [{"number": 121, "ticks": 0, "time": 0, "value": 0}],
            },
            "pitchBends": [],
            "instrument": {"family": "reed", "number": 71, "name": "clarinet"},
            "name": "",
            "notes": [
                {
                    "duration": 4.166665,
                    "durationTicks": 4800,
                    "midi": 64,
                    "name": "E4",
                    "ticks": 0,
                    "time": 0,
                    "velocity": 0.5511811023622047,
                },
                {
                    "duration": 4.166665,
                    "durationTicks": 4800,
                    "midi": 69,
                    "name": "A4",
                    "ticks": 0,
                    "time": 0,
                    "velocity": 0.5511811023622047,
                },
                {
                    "duration": 0.8333330000000103,
                    "durationTicks": 960,
                    "midi": 64,
                    "name": "E4",
                    "ticks": 142080,
                    "time": 123.33328399999999,
                    "velocity": 0.7716535433070866,
                },
                {
                    "duration": 0.8333330000000103,
                    "durationTicks": 960,
                    "midi": 76,
                    "name": "E5",
                    "ticks": 142080,
                    "time": 123.33328399999999,
                    "velocity": 0.7716535433070866,
                },
                {
                    "duration": 0.24739573437499018,
                    "durationTicks": 285,
                    "midi": 64,
                    "name": "E4",
                    "ticks": 143040,
                    "time": 124.166617,
                    "velocity": 0.7480314960629921,
                },
                {
                    "duration": 0.24739573437499018,
                    "durationTicks": 285,
                    "midi": 76,
                    "name": "E5",
                    "ticks": 143040,
                    "time": 124.166617,
                    "velocity": 0.7480314960629921,
                },
                {
                    "duration": 0.2473957343750044,
                    "durationTicks": 285,
                    "midi": 64,
                    "name": "E4",
                    "ticks": 143520,
                    "time": 124.5832835,
                    "velocity": 0.7795275590551181,
                },
                {
                    "duration": 0.2473957343750044,
                    "durationTicks": 285,
                    "midi": 76,
                    "name": "E5",
                    "ticks": 143520,
                    "time": 124.5832835,
                    "velocity": 0.7795275590551181,
                },
                {
                    "duration": 0.49739563437501033,
                    "durationTicks": 573,
                    "midi": 64,
                    "name": "E4",
                    "ticks": 144000,
                    "time": 124.99995,
                    "velocity": 0.7559055118110236,
                },
                {
                    "duration": 0.49739563437501033,
                    "durationTicks": 573,
                    "midi": 76,
                    "name": "E5",
                    "ticks": 144000,
                    "time": 124.99995,
                    "velocity": 0.7559055118110236,
                },
                {
                    "duration": 0.4713539781250091,
                    "durationTicks": 543,
                    "midi": 64,
                    "name": "E4",
                    "ticks": 144960,
                    "time": 125.833283,
                    "velocity": 0.7716535433070866,
                },
                {
                    "duration": 0.4713539781250091,
                    "durationTicks": 543,
                    "midi": 76,
                    "name": "E5",
                    "ticks": 144960,
                    "time": 125.833283,
                    "velocity": 0.7716535433070866,
                },
                {
                    "duration": 0.8333329999999961,
                    "durationTicks": 960,
                    "midi": 64,
                    "name": "E4",
                    "ticks": 145920,
                    "time": 126.666616,
                    "velocity": 0.7874015748031497,
                },
                {
                    "duration": 0.8333329999999961,
                    "durationTicks": 960,
                    "midi": 76,
                    "name": "E5",
                    "ticks": 145920,
                    "time": 126.666616,
                    "velocity": 0.7874015748031497,
                },
                {
                    "duration": 0.2473957343750044,
                    "durationTicks": 285,
                    "midi": 64,
                    "name": "E4",
                    "ticks": 146880,
                    "time": 127.499949,
                    "velocity": 0.7559055118110236,
                },
                {
                    "duration": 0.2473957343750044,
                    "durationTicks": 285,
                    "midi": 76,
                    "name": "E5",
                    "ticks": 146880,
                    "time": 127.499949,
                    "velocity": 0.7559055118110236,
                },
                {
                    "duration": 0.2473957343750186,
                    "durationTicks": 285,
                    "midi": 64,
                    "name": "E4",
                    "ticks": 147360,
                    "time": 127.91661549999999,
                    "velocity": 0.7952755905511811,
                },
                {
                    "duration": 0.2473957343750186,
                    "durationTicks": 285,
                    "midi": 76,
                    "name": "E5",
                    "ticks": 147360,
                    "time": 127.91661549999999,
                    "velocity": 0.7952755905511811,
                },
                {
                    "duration": 0.49739563437501033,
                    "durationTicks": 573,
                    "midi": 64,
                    "name": "E4",
                    "ticks": 147840,
                    "time": 128.333282,
                    "velocity": 0.7401574803149606,
                },
                {
                    "duration": 0.49739563437501033,
                    "durationTicks": 573,
                    "midi": 76,
                    "name": "E5",
                    "ticks": 147840,
                    "time": 128.333282,
                    "velocity": 0.7401574803149606,
                },
                {
                    "duration": 0.4713539781249949,
                    "durationTicks": 543,
                    "midi": 64,
                    "name": "E4",
                    "ticks": 148800,
                    "time": 129.166615,
                    "velocity": 0.7795275590551181,
                },
                {
                    "duration": 0.4713539781249949,
                    "durationTicks": 543,
                    "midi": 76,
                    "name": "E5",
                    "ticks": 148800,
                    "time": 129.166615,
                    "velocity": 0.7795275590551181,
                },
                {
                    "duration": 0.8333330000000103,
                    "durationTicks": 960,
                    "midi": 64,
                    "name": "E4",
                    "ticks": 149760,
                    "time": 129.999948,
                    "velocity": 0.7716535433070866,
                },
                {
                    "duration": 0.8333330000000103,
                    "durationTicks": 960,
                    "midi": 76,
                    "name": "E5",
                    "ticks": 149760,
                    "time": 129.999948,
                    "velocity": 0.7716535433070866,
                },
                {
                    "duration": 0.2473957343750044,
                    "durationTicks": 285,
                    "midi": 64,
                    "name": "E4",
                    "ticks": 150720,
                    "time": 130.833281,
                    "velocity": 0.7559055118110236,
                },
                {
                    "duration": 0.2473957343750044,
                    "durationTicks": 285,
                    "midi": 76,
                    "name": "E5",
                    "ticks": 150720,
                    "time": 130.833281,
                    "velocity": 0.7559055118110236,
                },
                {
                    "duration": 0.2473957343750044,
                    "durationTicks": 285,
                    "midi": 66,
                    "name": "F#4",
                    "ticks": 151200,
                    "time": 131.2499475,
                    "velocity": 0.7874015748031497,
                },
                {
                    "duration": 0.2473957343750044,
                    "durationTicks": 285,
                    "midi": 78,
                    "name": "F#5",
                    "ticks": 151200,
                    "time": 131.2499475,
                    "velocity": 0.7874015748031497,
                },
                {
                    "duration": 0.49739563437501033,
                    "durationTicks": 573,
                    "midi": 67,
                    "name": "G4",
                    "ticks": 151680,
                    "time": 131.666614,
                    "velocity": 0.8188976377952756,
                },
                {
                    "duration": 0.49739563437501033,
                    "durationTicks": 573,
                    "midi": 79,
                    "name": "G5",
                    "ticks": 151680,
                    "time": 131.666614,
                    "velocity": 0.8188976377952756,
                },
                {
                    "duration": 0.47135397812502333,
                    "durationTicks": 543,
                    "midi": 67,
                    "name": "G4",
                    "ticks": 152640,
                    "time": 132.499947,
                    "velocity": 0.7480314960629921,
                },
                {
                    "duration": 0.47135397812502333,
                    "durationTicks": 543,
                    "midi": 79,
                    "name": "G5",
                    "ticks": 152640,
                    "time": 132.499947,
                    "velocity": 0.7480314960629921,
                },
                {
                    "duration": 0.8333330000000103,
                    "durationTicks": 960,
                    "midi": 67,
                    "name": "G4",
                    "ticks": 153600,
                    "time": 133.33328,
                    "velocity": 0.7637795275590551,
                },
                {
                    "duration": 0.8333330000000103,
                    "durationTicks": 960,
                    "midi": 79,
                    "name": "G5",
                    "ticks": 153600,
                    "time": 133.33328,
                    "velocity": 0.7637795275590551,
                },
                {
                    "duration": 0.24739573437497597,
                    "durationTicks": 285,
                    "midi": 67,
                    "name": "G4",
                    "ticks": 154560,
                    "time": 134.166613,
                    "velocity": 0.7559055118110236,
                },
                {
                    "duration": 0.24739573437497597,
                    "durationTicks": 285,
                    "midi": 79,
                    "name": "G5",
                    "ticks": 154560,
                    "time": 134.166613,
                    "velocity": 0.7559055118110236,
                },
                {
                    "duration": 0.2473957343750044,
                    "durationTicks": 285,
                    "midi": 67,
                    "name": "G4",
                    "ticks": 155040,
                    "time": 134.5832795,
                    "velocity": 0.7480314960629921,
                },
                {
                    "duration": 0.2473957343750044,
                    "durationTicks": 285,
                    "midi": 79,
                    "name": "G5",
                    "ticks": 155040,
                    "time": 134.5832795,
                    "velocity": 0.7480314960629921,
                },
                {
                    "duration": 0.8333330000000103,
                    "durationTicks": 960,
                    "midi": 67,
                    "name": "G4",
                    "ticks": 155520,
                    "time": 134.999946,
                    "velocity": 0.7795275590551181,
                },
                {
                    "duration": 0.8333330000000103,
                    "durationTicks": 960,
                    "midi": 79,
                    "name": "G5",
                    "ticks": 155520,
                    "time": 134.999946,
                    "velocity": 0.7795275590551181,
                },
                {
                    "duration": 0.8333330000000103,
                    "durationTicks": 960,
                    "midi": 67,
                    "name": "G4",
                    "ticks": 157440,
                    "time": 136.666612,
                    "velocity": 0.7165354330708661,
                },
                {
                    "duration": 0.8333330000000103,
                    "durationTicks": 960,
                    "midi": 79,
                    "name": "G5",
                    "ticks": 157440,
                    "time": 136.666612,
                    "velocity": 0.7165354330708661,
                },
                {
                    "duration": 0.2473957343750044,
                    "durationTicks": 285,
                    "midi": 67,
                    "name": "G4",
                    "ticks": 158400,
                    "time": 137.499945,
                    "velocity": 0.7480314960629921,
                },
                {
                    "duration": 0.2473957343750044,
                    "durationTicks": 285,
                    "midi": 79,
                    "name": "G5",
                    "ticks": 158400,
                    "time": 137.499945,
                    "velocity": 0.7480314960629921,
                },
                {
                    "duration": 0.2473957343750044,
                    "durationTicks": 285,
                    "midi": 69,
                    "name": "A4",
                    "ticks": 158880,
                    "time": 137.9166115,
                    "velocity": 0.8110236220472441,
                },
                {
                    "duration": 0.2473957343750044,
                    "durationTicks": 285,
                    "midi": 81,
                    "name": "A5",
                    "ticks": 158880,
                    "time": 137.9166115,
                    "velocity": 0.8110236220472441,
                },
                {
                    "duration": 0.49739563437501033,
                    "durationTicks": 573,
                    "midi": 71,
                    "name": "B4",
                    "ticks": 159360,
                    "time": 138.333278,
                    "velocity": 0.7716535433070866,
                },
                {
                    "duration": 0.49739563437501033,
                    "durationTicks": 573,
                    "midi": 83,
                    "name": "B5",
                    "ticks": 159360,
                    "time": 138.333278,
                    "velocity": 0.7716535433070866,
                },
                {
                    "duration": 0.47135397812502333,
                    "durationTicks": 543,
                    "midi": 71,
                    "name": "B4",
                    "ticks": 160320,
                    "time": 139.166611,
                    "velocity": 0.7716535433070866,
                },
                {
                    "duration": 0.47135397812502333,
                    "durationTicks": 543,
                    "midi": 83,
                    "name": "B5",
                    "ticks": 160320,
                    "time": 139.166611,
                    "velocity": 0.7716535433070866,
                },
                {
                    "duration": 0.8333330000000103,
                    "durationTicks": 960,
                    "midi": 66,
                    "name": "F#4",
                    "ticks": 161280,
                    "time": 139.999944,
                    "velocity": 0.6456692913385826,
                },
                {
                    "duration": 0.8333330000000103,
                    "durationTicks": 960,
                    "midi": 78,
                    "name": "F#5",
                    "ticks": 161280,
                    "time": 139.999944,
                    "velocity": 0.6456692913385826,
                },
                {
                    "duration": 0.24739573437497597,
                    "durationTicks": 285,
                    "midi": 66,
                    "name": "F#4",
                    "ticks": 162240,
                    "time": 140.833277,
                    "velocity": 0.7165354330708661,
                },
                {
                    "duration": 0.24739573437497597,
                    "durationTicks": 285,
                    "midi": 78,
                    "name": "F#5",
                    "ticks": 162240,
                    "time": 140.833277,
                    "velocity": 0.7165354330708661,
                },
                {
                    "duration": 0.2473957343750044,
                    "durationTicks": 285,
                    "midi": 68,
                    "name": "G#4",
                    "ticks": 162720,
                    "time": 141.2499435,
                    "velocity": 0.84251968503937,
                },
                {
                    "duration": 0.2473957343750044,
                    "durationTicks": 285,
                    "midi": 80,
                    "name": "G#5",
                    "ticks": 162720,
                    "time": 141.2499435,
                    "velocity": 0.84251968503937,
                },
                {
                    "duration": 0.49739563437501033,
                    "durationTicks": 573,
                    "midi": 69,
                    "name": "A4",
                    "ticks": 163200,
                    "time": 141.66661,
                    "velocity": 0.8031496062992126,
                },
                {
                    "duration": 0.49739563437501033,
                    "durationTicks": 573,
                    "midi": 81,
                    "name": "A5",
                    "ticks": 163200,
                    "time": 141.66661,
                    "velocity": 0.8031496062992126,
                },
                {
                    "duration": 0.4713539781249949,
                    "durationTicks": 543,
                    "midi": 69,
                    "name": "A4",
                    "ticks": 164160,
                    "time": 142.499943,
                    "velocity": 0.7637795275590551,
                },
                {
                    "duration": 0.4713539781249949,
                    "durationTicks": 543,
                    "midi": 81,
                    "name": "A5",
                    "ticks": 164160,
                    "time": 142.499943,
                    "velocity": 0.7637795275590551,
                },
                {
                    "duration": 0.8333329999999819,
                    "durationTicks": 960,
                    "midi": 64,
                    "name": "E4",
                    "ticks": 165120,
                    "time": 143.333276,
                    "velocity": 0.6535433070866141,
                },
                {
                    "duration": 0.8333329999999819,
                    "durationTicks": 960,
                    "midi": 76,
                    "name": "E5",
                    "ticks": 165120,
                    "time": 143.333276,
                    "velocity": 0.6535433070866141,
                },
                {
                    "duration": 0.2473957343750044,
                    "durationTicks": 285,
                    "midi": 64,
                    "name": "E4",
                    "ticks": 166080,
                    "time": 144.166609,
                    "velocity": 0.7637795275590551,
                },
                {
                    "duration": 0.2473957343750044,
                    "durationTicks": 285,
                    "midi": 76,
                    "name": "E5",
                    "ticks": 166080,
                    "time": 144.166609,
                    "velocity": 0.7637795275590551,
                },
                {
                    "duration": 0.2473957343750044,
                    "durationTicks": 285,
                    "midi": 64,
                    "name": "E4",
                    "ticks": 166560,
                    "time": 144.58327549999998,
                    "velocity": 0.7637795275590551,
                },
                {
                    "duration": 0.2473957343750044,
                    "durationTicks": 285,
                    "midi": 76,
                    "name": "E5",
                    "ticks": 166560,
                    "time": 144.58327549999998,
                    "velocity": 0.7637795275590551,
                },
                {
                    "duration": 0.49739563437501033,
                    "durationTicks": 573,
                    "midi": 64,
                    "name": "E4",
                    "ticks": 167040,
                    "time": 144.999942,
                    "velocity": 0.7480314960629921,
                },
                {
                    "duration": 0.49739563437501033,
                    "durationTicks": 573,
                    "midi": 76,
                    "name": "E5",
                    "ticks": 167040,
                    "time": 144.999942,
                    "velocity": 0.7480314960629921,
                },
                {
                    "duration": 0.47135397812502333,
                    "durationTicks": 543,
                    "midi": 64,
                    "name": "E4",
                    "ticks": 168000,
                    "time": 145.833275,
                    "velocity": 0.7716535433070866,
                },
                {
                    "duration": 0.47135397812502333,
                    "durationTicks": 543,
                    "midi": 76,
                    "name": "E5",
                    "ticks": 168000,
                    "time": 145.833275,
                    "velocity": 0.7716535433070866,
                },
                {
                    "duration": 0.8333330000000103,
                    "durationTicks": 960,
                    "midi": 64,
                    "name": "E4",
                    "ticks": 168960,
                    "time": 146.666608,
                    "velocity": 0.7401574803149606,
                },
                {
                    "duration": 0.8333330000000103,
                    "durationTicks": 960,
                    "midi": 76,
                    "name": "E5",
                    "ticks": 168960,
                    "time": 146.666608,
                    "velocity": 0.7401574803149606,
                },
                {
                    "duration": 0.2473957343750044,
                    "durationTicks": 285,
                    "midi": 66,
                    "name": "F#4",
                    "ticks": 169920,
                    "time": 147.499941,
                    "velocity": 0.8110236220472441,
                },
                {
                    "duration": 0.2473957343750044,
                    "durationTicks": 285,
                    "midi": 78,
                    "name": "F#5",
                    "ticks": 169920,
                    "time": 147.499941,
                    "velocity": 0.8110236220472441,
                },
                {
                    "duration": 0.2473957343750044,
                    "durationTicks": 285,
                    "midi": 68,
                    "name": "G#4",
                    "ticks": 170400,
                    "time": 147.9166075,
                    "velocity": 0.8031496062992126,
                },
                {
                    "duration": 0.2473957343750044,
                    "durationTicks": 285,
                    "midi": 80,
                    "name": "G#5",
                    "ticks": 170400,
                    "time": 147.9166075,
                    "velocity": 0.8031496062992126,
                },
                {
                    "duration": 0.8333330000000103,
                    "durationTicks": 960,
                    "midi": 69,
                    "name": "A4",
                    "ticks": 170880,
                    "time": 148.333274,
                    "velocity": 0.8188976377952756,
                },
                {
                    "duration": 0.8333330000000103,
                    "durationTicks": 960,
                    "midi": 81,
                    "name": "A5",
                    "ticks": 170880,
                    "time": 148.333274,
                    "velocity": 0.8188976377952756,
                },
                {
                    "duration": 0.8333329999999819,
                    "durationTicks": 960,
                    "midi": 67,
                    "name": "G4",
                    "ticks": 172800,
                    "time": 149.99994,
                    "velocity": 0.5905511811023622,
                },
                {
                    "duration": 0.8333329999999819,
                    "durationTicks": 960,
                    "midi": 79,
                    "name": "G5",
                    "ticks": 172800,
                    "time": 149.99994,
                    "velocity": 0.5905511811023622,
                },
                {
                    "duration": 0.2473957343750044,
                    "durationTicks": 285,
                    "midi": 67,
                    "name": "G4",
                    "ticks": 173760,
                    "time": 150.833273,
                    "velocity": 0.6692913385826772,
                },
                {
                    "duration": 0.2473957343750044,
                    "durationTicks": 285,
                    "midi": 79,
                    "name": "G5",
                    "ticks": 173760,
                    "time": 150.833273,
                    "velocity": 0.6692913385826772,
                },
                {
                    "duration": 0.24739573437497597,
                    "durationTicks": 285,
                    "midi": 69,
                    "name": "A4",
                    "ticks": 174240,
                    "time": 151.2499395,
                    "velocity": 0.7165354330708661,
                },
                {
                    "duration": 0.24739573437497597,
                    "durationTicks": 285,
                    "midi": 81,
                    "name": "A5",
                    "ticks": 174240,
                    "time": 151.2499395,
                    "velocity": 0.7165354330708661,
                },
                {
                    "duration": 0.49739563437501033,
                    "durationTicks": 573,
                    "midi": 71,
                    "name": "B4",
                    "ticks": 174720,
                    "time": 151.666606,
                    "velocity": 0.7086614173228346,
                },
                {
                    "duration": 0.49739563437501033,
                    "durationTicks": 573,
                    "midi": 83,
                    "name": "B5",
                    "ticks": 174720,
                    "time": 151.666606,
                    "velocity": 0.7086614173228346,
                },
                {
                    "duration": 0.4713539781249949,
                    "durationTicks": 543,
                    "midi": 71,
                    "name": "B4",
                    "ticks": 175680,
                    "time": 152.499939,
                    "velocity": 0.6850393700787402,
                },
                {
                    "duration": 0.4713539781249949,
                    "durationTicks": 543,
                    "midi": 83,
                    "name": "B5",
                    "ticks": 175680,
                    "time": 152.499939,
                    "velocity": 0.6850393700787402,
                },
                {
                    "duration": 0.8333330000000103,
                    "durationTicks": 960,
                    "midi": 66,
                    "name": "F#4",
                    "ticks": 176640,
                    "time": 153.333272,
                    "velocity": 0.5669291338582677,
                },
                {
                    "duration": 0.8333330000000103,
                    "durationTicks": 960,
                    "midi": 78,
                    "name": "F#5",
                    "ticks": 176640,
                    "time": 153.333272,
                    "velocity": 0.5669291338582677,
                },
                {
                    "duration": 0.2473957343750044,
                    "durationTicks": 285,
                    "midi": 66,
                    "name": "F#4",
                    "ticks": 177600,
                    "time": 154.166605,
                    "velocity": 0.6692913385826772,
                },
                {
                    "duration": 0.2473957343750044,
                    "durationTicks": 285,
                    "midi": 78,
                    "name": "F#5",
                    "ticks": 177600,
                    "time": 154.166605,
                    "velocity": 0.6692913385826772,
                },
                {
                    "duration": 0.2473957343750044,
                    "durationTicks": 285,
                    "midi": 68,
                    "name": "G#4",
                    "ticks": 178080,
                    "time": 154.5832715,
                    "velocity": 0.6929133858267716,
                },
                {
                    "duration": 0.2473957343750044,
                    "durationTicks": 285,
                    "midi": 80,
                    "name": "G#5",
                    "ticks": 178080,
                    "time": 154.5832715,
                    "velocity": 0.6929133858267716,
                },
                {
                    "duration": 0.49739563437501033,
                    "durationTicks": 573,
                    "midi": 69,
                    "name": "A4",
                    "ticks": 178560,
                    "time": 154.999938,
                    "velocity": 0.7086614173228346,
                },
                {
                    "duration": 0.49739563437501033,
                    "durationTicks": 573,
                    "midi": 81,
                    "name": "A5",
                    "ticks": 178560,
                    "time": 154.999938,
                    "velocity": 0.7086614173228346,
                },
                {
                    "duration": 0.47135397812502333,
                    "durationTicks": 543,
                    "midi": 69,
                    "name": "A4",
                    "ticks": 179520,
                    "time": 155.833271,
                    "velocity": 0.6456692913385826,
                },
                {
                    "duration": 0.47135397812502333,
                    "durationTicks": 543,
                    "midi": 81,
                    "name": "A5",
                    "ticks": 179520,
                    "time": 155.833271,
                    "velocity": 0.6456692913385826,
                },
                {
                    "duration": 0.8333329999999819,
                    "durationTicks": 960,
                    "midi": 64,
                    "name": "E4",
                    "ticks": 180480,
                    "time": 156.666604,
                    "velocity": 0.47244094488188976,
                },
                {
                    "duration": 0.8333329999999819,
                    "durationTicks": 960,
                    "midi": 76,
                    "name": "E5",
                    "ticks": 180480,
                    "time": 156.666604,
                    "velocity": 0.47244094488188976,
                },
                {
                    "duration": 0.2473957343750044,
                    "durationTicks": 285,
                    "midi": 64,
                    "name": "E4",
                    "ticks": 181440,
                    "time": 157.499937,
                    "velocity": 0.5511811023622047,
                },
                {
                    "duration": 0.2473957343750044,
                    "durationTicks": 285,
                    "midi": 76,
                    "name": "E5",
                    "ticks": 181440,
                    "time": 157.499937,
                    "velocity": 0.5511811023622047,
                },
                {
                    "duration": 0.2473957343750044,
                    "durationTicks": 285,
                    "midi": 64,
                    "name": "E4",
                    "ticks": 181920,
                    "time": 157.9166035,
                    "velocity": 0.5669291338582677,
                },
                {
                    "duration": 0.2473957343750044,
                    "durationTicks": 285,
                    "midi": 76,
                    "name": "E5",
                    "ticks": 181920,
                    "time": 157.9166035,
                    "velocity": 0.5669291338582677,
                },
                {
                    "duration": 0.49739563437501033,
                    "durationTicks": 573,
                    "midi": 64,
                    "name": "E4",
                    "ticks": 182400,
                    "time": 158.33327,
                    "velocity": 0.5433070866141733,
                },
                {
                    "duration": 0.49739563437501033,
                    "durationTicks": 573,
                    "midi": 76,
                    "name": "E5",
                    "ticks": 182400,
                    "time": 158.33327,
                    "velocity": 0.5433070866141733,
                },
                {
                    "duration": 0.4713539781249949,
                    "durationTicks": 543,
                    "midi": 64,
                    "name": "E4",
                    "ticks": 183360,
                    "time": 159.166603,
                    "velocity": 0.5118110236220472,
                },
                {
                    "duration": 0.4713539781249949,
                    "durationTicks": 543,
                    "midi": 76,
                    "name": "E5",
                    "ticks": 183360,
                    "time": 159.166603,
                    "velocity": 0.5118110236220472,
                },
                {
                    "duration": 0.8333330000000103,
                    "durationTicks": 960,
                    "midi": 64,
                    "name": "E4",
                    "ticks": 184320,
                    "time": 159.999936,
                    "velocity": 0.49606299212598426,
                },
                {
                    "duration": 0.8333330000000103,
                    "durationTicks": 960,
                    "midi": 76,
                    "name": "E5",
                    "ticks": 184320,
                    "time": 159.999936,
                    "velocity": 0.49606299212598426,
                },
                {
                    "duration": 0.2473957343750044,
                    "durationTicks": 285,
                    "midi": 66,
                    "name": "F#4",
                    "ticks": 185280,
                    "time": 160.833269,
                    "velocity": 0.4330708661417323,
                },
                {
                    "duration": 0.2473957343750044,
                    "durationTicks": 285,
                    "midi": 78,
                    "name": "F#5",
                    "ticks": 185280,
                    "time": 160.833269,
                    "velocity": 0.4330708661417323,
                },
                {
                    "duration": 0.2473957343750044,
                    "durationTicks": 285,
                    "midi": 68,
                    "name": "G#4",
                    "ticks": 185760,
                    "time": 161.2499355,
                    "velocity": 0.4409448818897638,
                },
                {
                    "duration": 0.2473957343750044,
                    "durationTicks": 285,
                    "midi": 80,
                    "name": "G#5",
                    "ticks": 185760,
                    "time": 161.2499355,
                    "velocity": 0.4409448818897638,
                },
                {
                    "duration": 0.8333329999999819,
                    "durationTicks": 960,
                    "midi": 69,
                    "name": "A4",
                    "ticks": 186240,
                    "time": 161.666602,
                    "velocity": 0.4409448818897638,
                },
                {
                    "duration": 0.8333329999999819,
                    "durationTicks": 960,
                    "midi": 81,
                    "name": "A5",
                    "ticks": 186240,
                    "time": 161.666602,
                    "velocity": 0.4409448818897638,
                },
                {
                    "duration": 0.8333329999999819,
                    "durationTicks": 960,
                    "midi": 71,
                    "name": "B4",
                    "ticks": 188160,
                    "time": 163.333268,
                    "velocity": 0.3464566929133858,
                },
                {
                    "duration": 0.8333329999999819,
                    "durationTicks": 960,
                    "midi": 74,
                    "name": "D5",
                    "ticks": 188160,
                    "time": 163.333268,
                    "velocity": 0.3464566929133858,
                },
                {
                    "duration": 0.2473957343750044,
                    "durationTicks": 285,
                    "midi": 71,
                    "name": "B4",
                    "ticks": 189120,
                    "time": 164.16660099999999,
                    "velocity": 0.3700787401574803,
                },
                {
                    "duration": 0.2473957343750044,
                    "durationTicks": 285,
                    "midi": 74,
                    "name": "D5",
                    "ticks": 189120,
                    "time": 164.16660099999999,
                    "velocity": 0.3700787401574803,
                },
                {
                    "duration": 0.2473957343750044,
                    "durationTicks": 285,
                    "midi": 71,
                    "name": "B4",
                    "ticks": 189600,
                    "time": 164.5832675,
                    "velocity": 0.3700787401574803,
                },
                {
                    "duration": 0.2473957343750044,
                    "durationTicks": 285,
                    "midi": 74,
                    "name": "D5",
                    "ticks": 189600,
                    "time": 164.5832675,
                    "velocity": 0.3700787401574803,
                },
                {
                    "duration": 0.8333330000000103,
                    "durationTicks": 960,
                    "midi": 69,
                    "name": "A4",
                    "ticks": 190080,
                    "time": 164.999934,
                    "velocity": 0.36220472440944884,
                },
                {
                    "duration": 0.8333330000000103,
                    "durationTicks": 960,
                    "midi": 72,
                    "name": "C5",
                    "ticks": 190080,
                    "time": 164.999934,
                    "velocity": 0.36220472440944884,
                },
                {
                    "duration": 1.6666659999999922,
                    "durationTicks": 1920,
                    "midi": 76,
                    "name": "E5",
                    "ticks": 192960,
                    "time": 167.499933,
                    "velocity": 0.5905511811023622,
                },
                {
                    "duration": 0.8489579937500196,
                    "durationTicks": 978,
                    "midi": 73,
                    "name": "C#5",
                    "ticks": 194880,
                    "time": 169.166599,
                    "velocity": 0.5039370078740157,
                },
                {
                    "duration": 0.8489579937500196,
                    "durationTicks": 978,
                    "midi": 69,
                    "name": "A4",
                    "ticks": 195840,
                    "time": 169.999932,
                    "velocity": 0.4094488188976378,
                },
                {
                    "duration": 0.7907982947916423,
                    "durationTicks": 911,
                    "midi": 73,
                    "name": "C#5",
                    "ticks": 196800,
                    "time": 170.833265,
                    "velocity": 0.6062992125984252,
                },
                {
                    "duration": 0.8489579937500196,
                    "durationTicks": 978,
                    "midi": 73,
                    "name": "C#5",
                    "ticks": 197760,
                    "time": 171.666598,
                    "velocity": 0.5354330708661418,
                },
                {
                    "duration": 1.6987840427083256,
                    "durationTicks": 1957,
                    "midi": 62,
                    "name": "D4",
                    "ticks": 198720,
                    "time": 172.499931,
                    "velocity": 0.5196850393700787,
                },
                {
                    "duration": 1.6987840427083256,
                    "durationTicks": 1957,
                    "midi": 71,
                    "name": "B4",
                    "ticks": 198720,
                    "time": 172.499931,
                    "velocity": 0.5196850393700787,
                },
                {
                    "duration": 0.8489579937500196,
                    "durationTicks": 978,
                    "midi": 61,
                    "name": "C#4",
                    "ticks": 200640,
                    "time": 174.166597,
                    "velocity": 0.5275590551181102,
                },
                {
                    "duration": 0.8489579937500196,
                    "durationTicks": 978,
                    "midi": 69,
                    "name": "A4",
                    "ticks": 200640,
                    "time": 174.166597,
                    "velocity": 0.5275590551181102,
                },
                {
                    "duration": 0.8489579937499911,
                    "durationTicks": 978,
                    "midi": 59,
                    "name": "B3",
                    "ticks": 201600,
                    "time": 174.99993,
                    "velocity": 0.5590551181102362,
                },
                {
                    "duration": 0.8489579937499911,
                    "durationTicks": 978,
                    "midi": 68,
                    "name": "G#4",
                    "ticks": 201600,
                    "time": 174.99993,
                    "velocity": 0.5590551181102362,
                },
                {
                    "duration": 0.8489579937500196,
                    "durationTicks": 978,
                    "midi": 61,
                    "name": "C#4",
                    "ticks": 202560,
                    "time": 175.833263,
                    "velocity": 0.6141732283464567,
                },
                {
                    "duration": 0.8489579937500196,
                    "durationTicks": 978,
                    "midi": 69,
                    "name": "A4",
                    "ticks": 202560,
                    "time": 175.833263,
                    "velocity": 0.6141732283464567,
                },
                {
                    "duration": 0.8489579937500196,
                    "durationTicks": 978,
                    "midi": 62,
                    "name": "D4",
                    "ticks": 203520,
                    "time": 176.666596,
                    "velocity": 0.6456692913385826,
                },
                {
                    "duration": 0.8489579937500196,
                    "durationTicks": 978,
                    "midi": 71,
                    "name": "B4",
                    "ticks": 203520,
                    "time": 176.666596,
                    "velocity": 0.6456692913385826,
                },
                {
                    "duration": 0.8489579937499911,
                    "durationTicks": 978,
                    "midi": 64,
                    "name": "E4",
                    "ticks": 204480,
                    "time": 177.499929,
                    "velocity": 0.6850393700787402,
                },
                {
                    "duration": 0.8489579937499911,
                    "durationTicks": 978,
                    "midi": 73,
                    "name": "C#5",
                    "ticks": 204480,
                    "time": 177.499929,
                    "velocity": 0.6850393700787402,
                },
                {
                    "duration": 0.8489579937500196,
                    "durationTicks": 978,
                    "midi": 66,
                    "name": "F#4",
                    "ticks": 205440,
                    "time": 178.333262,
                    "velocity": 0.6692913385826772,
                },
                {
                    "duration": 0.8489579937500196,
                    "durationTicks": 978,
                    "midi": 74,
                    "name": "D5",
                    "ticks": 205440,
                    "time": 178.333262,
                    "velocity": 0.6692913385826772,
                },
                {
                    "duration": 0.8489579937500196,
                    "durationTicks": 978,
                    "midi": 68,
                    "name": "G#4",
                    "ticks": 206400,
                    "time": 179.166595,
                    "velocity": 0.6141732283464567,
                },
                {
                    "duration": 0.8489579937500196,
                    "durationTicks": 978,
                    "midi": 76,
                    "name": "E5",
                    "ticks": 206400,
                    "time": 179.166595,
                    "velocity": 0.6141732283464567,
                },
                {
                    "duration": 0.8489579937499911,
                    "durationTicks": 978,
                    "midi": 71,
                    "name": "B4",
                    "ticks": 207360,
                    "time": 179.999928,
                    "velocity": 0.4881889763779528,
                },
                {
                    "duration": 0.8489579937499911,
                    "durationTicks": 978,
                    "midi": 74,
                    "name": "D5",
                    "ticks": 207360,
                    "time": 179.999928,
                    "velocity": 0.4881889763779528,
                },
                {
                    "duration": 0.42274288645833735,
                    "durationTicks": 487,
                    "midi": 69,
                    "name": "A4",
                    "ticks": 208320,
                    "time": 180.833261,
                    "velocity": 0.3779527559055118,
                },
                {
                    "duration": 0.41666649999999095,
                    "durationTicks": 480,
                    "midi": 73,
                    "name": "C#5",
                    "ticks": 208320,
                    "time": 180.833261,
                    "velocity": 0.3779527559055118,
                },
                {
                    "duration": 0.3932290093750339,
                    "durationTicks": 453,
                    "midi": 73,
                    "name": "C#5",
                    "ticks": 208800,
                    "time": 181.24992749999998,
                    "velocity": 0.49606299212598426,
                },
                {
                    "duration": 0.3932290093750339,
                    "durationTicks": 453,
                    "midi": 81,
                    "name": "A5",
                    "ticks": 208800,
                    "time": 181.24992749999998,
                    "velocity": 0.49606299212598426,
                },
                {
                    "duration": 0.8333329999999819,
                    "durationTicks": 960,
                    "midi": 73,
                    "name": "C#5",
                    "ticks": 209280,
                    "time": 181.666594,
                    "velocity": 0.49606299212598426,
                },
                {
                    "duration": 0.8489579937499911,
                    "durationTicks": 978,
                    "midi": 81,
                    "name": "A5",
                    "ticks": 209280,
                    "time": 181.666594,
                    "velocity": 0.49606299212598426,
                },
                {
                    "duration": 0.8333330000000103,
                    "durationTicks": 960,
                    "midi": 73,
                    "name": "C#5",
                    "ticks": 210240,
                    "time": 182.49992699999999,
                    "velocity": 0.4094488188976378,
                },
                {
                    "duration": 0.8489579937500196,
                    "durationTicks": 978,
                    "midi": 76,
                    "name": "E5",
                    "ticks": 210240,
                    "time": 182.49992699999999,
                    "velocity": 0.4094488188976378,
                },
                {
                    "duration": 0.8489579937500196,
                    "durationTicks": 978,
                    "midi": 69,
                    "name": "A4",
                    "ticks": 211200,
                    "time": 183.33326,
                    "velocity": 0.5039370078740157,
                },
                {
                    "duration": 0.8333330000000103,
                    "durationTicks": 960,
                    "midi": 73,
                    "name": "C#5",
                    "ticks": 211200,
                    "time": 183.33326,
                    "velocity": 0.5039370078740157,
                },
                {
                    "duration": 0.7907982947916707,
                    "durationTicks": 911,
                    "midi": 73,
                    "name": "C#5",
                    "ticks": 212160,
                    "time": 184.166593,
                    "velocity": 0.6220472440944882,
                },
                {
                    "duration": 0.7907982947916707,
                    "durationTicks": 911,
                    "midi": 76,
                    "name": "E5",
                    "ticks": 212160,
                    "time": 184.166593,
                    "velocity": 0.6220472440944882,
                },
                {
                    "duration": 0.8489579937500196,
                    "durationTicks": 978,
                    "midi": 73,
                    "name": "C#5",
                    "ticks": 213120,
                    "time": 184.999926,
                    "velocity": 0.5984251968503937,
                },
                {
                    "duration": 0.8489579937500196,
                    "durationTicks": 978,
                    "midi": 76,
                    "name": "E5",
                    "ticks": 213120,
                    "time": 184.999926,
                    "velocity": 0.5984251968503937,
                },
                {
                    "duration": 1.6987840427083256,
                    "durationTicks": 1957,
                    "midi": 74,
                    "name": "D5",
                    "ticks": 214080,
                    "time": 185.833259,
                    "velocity": 0.6456692913385826,
                },
                {
                    "duration": 1.6987840427083256,
                    "durationTicks": 1957,
                    "midi": 78,
                    "name": "F#5",
                    "ticks": 214080,
                    "time": 185.833259,
                    "velocity": 0.6456692913385826,
                },
                {
                    "duration": 0.7907982947916707,
                    "durationTicks": 911,
                    "midi": 73,
                    "name": "C#5",
                    "ticks": 216000,
                    "time": 187.499925,
                    "velocity": 0.5511811023622047,
                },
                {
                    "duration": 0.7907982947916707,
                    "durationTicks": 911,
                    "midi": 76,
                    "name": "E5",
                    "ticks": 216000,
                    "time": 187.499925,
                    "velocity": 0.5511811023622047,
                },
                {
                    "duration": 0.8489579937500196,
                    "durationTicks": 978,
                    "midi": 71,
                    "name": "B4",
                    "ticks": 216960,
                    "time": 188.333258,
                    "velocity": 0.5118110236220472,
                },
                {
                    "duration": 0.8489579937500196,
                    "durationTicks": 978,
                    "midi": 74,
                    "name": "D5",
                    "ticks": 216960,
                    "time": 188.333258,
                    "velocity": 0.5118110236220472,
                },
                {
                    "duration": 0.8489579937499911,
                    "durationTicks": 978,
                    "midi": 69,
                    "name": "A4",
                    "ticks": 217920,
                    "time": 189.166591,
                    "velocity": 0.48031496062992124,
                },
                {
                    "duration": 0.8489579937499911,
                    "durationTicks": 978,
                    "midi": 73,
                    "name": "C#5",
                    "ticks": 217920,
                    "time": 189.166591,
                    "velocity": 0.48031496062992124,
                },
                {
                    "duration": 0.8489579937500196,
                    "durationTicks": 978,
                    "midi": 68,
                    "name": "G#4",
                    "ticks": 218880,
                    "time": 189.999924,
                    "velocity": 0.48031496062992124,
                },
                {
                    "duration": 0.8489579937500196,
                    "durationTicks": 978,
                    "midi": 71,
                    "name": "B4",
                    "ticks": 218880,
                    "time": 189.999924,
                    "velocity": 0.48031496062992124,
                },
                {
                    "duration": 0.8489579937499911,
                    "durationTicks": 978,
                    "midi": 66,
                    "name": "F#4",
                    "ticks": 219840,
                    "time": 190.833257,
                    "velocity": 0.48031496062992124,
                },
                {
                    "duration": 0.8489579937499911,
                    "durationTicks": 978,
                    "midi": 75,
                    "name": "D#5",
                    "ticks": 219840,
                    "time": 190.833257,
                    "velocity": 0.48031496062992124,
                },
                {
                    "duration": 1.5815965895833415,
                    "durationTicks": 1822,
                    "midi": 68,
                    "name": "G#4",
                    "ticks": 220800,
                    "time": 191.66658999999999,
                    "velocity": 0.4330708661417323,
                },
                {
                    "duration": 1.5815965895833415,
                    "durationTicks": 1822,
                    "midi": 76,
                    "name": "E5",
                    "ticks": 220800,
                    "time": 191.66658999999999,
                    "velocity": 0.4330708661417323,
                },
                {
                    "duration": 1.2499995000000013,
                    "durationTicks": 1440,
                    "midi": 81,
                    "name": "A5",
                    "ticks": 222720,
                    "time": 193.333256,
                    "velocity": 0.8818897637795275,
                },
                {
                    "duration": 0.41666649999999095,
                    "durationTicks": 480,
                    "midi": 81,
                    "name": "A5",
                    "ticks": 224160,
                    "time": 194.5832555,
                    "velocity": 0.7874015748031497,
                },
                {
                    "duration": 0.2795137770833378,
                    "durationTicks": 322,
                    "midi": 81,
                    "name": "A5",
                    "ticks": 224640,
                    "time": 194.999922,
                    "velocity": 0.7480314960629921,
                },
                {
                    "duration": 0.2604165624999837,
                    "durationTicks": 300,
                    "midi": 80,
                    "name": "G#5",
                    "ticks": 224958,
                    "time": 195.27596355625002,
                    "velocity": 0.7165354330708661,
                },
                {
                    "duration": 0.1657985447916701,
                    "durationTicks": 191,
                    "midi": 78,
                    "name": "F#5",
                    "ticks": 225277,
                    "time": 195.55287316770833,
                    "velocity": 0.7165354330708661,
                },
                {
                    "duration": 0.1657985447916701,
                    "durationTicks": 191,
                    "midi": 76,
                    "name": "E5",
                    "ticks": 225600,
                    "time": 195.833255,
                    "velocity": 0.7244094488188977,
                },
                {
                    "duration": 0.166666599999985,
                    "durationTicks": 192,
                    "midi": 75,
                    "name": "D#5",
                    "ticks": 225918,
                    "time": 196.10929655625,
                    "velocity": 0.7165354330708661,
                },
                {
                    "duration": 0.1657985447916701,
                    "durationTicks": 191,
                    "midi": 73,
                    "name": "C#5",
                    "ticks": 226237,
                    "time": 196.38620616770834,
                    "velocity": 0.7322834645669292,
                },
                {
                    "duration": 0.8489579937500196,
                    "durationTicks": 978,
                    "midi": 71,
                    "name": "B4",
                    "ticks": 226560,
                    "time": 196.666588,
                    "velocity": 0.7322834645669292,
                },
                {
                    "duration": 0.3932290093750055,
                    "durationTicks": 453,
                    "midi": 73,
                    "name": "C#5",
                    "ticks": 227520,
                    "time": 197.499921,
                    "velocity": 0.7795275590551181,
                },
                {
                    "duration": 0.2473957343750044,
                    "durationTicks": 285,
                    "midi": 75,
                    "name": "D#5",
                    "ticks": 228000,
                    "time": 197.9165875,
                    "velocity": 0.8346456692913385,
                },
                {
                    "duration": 1.1093745562500033,
                    "durationTicks": 1278,
                    "midi": 76,
                    "name": "E5",
                    "ticks": 228480,
                    "time": 198.333254,
                    "velocity": 0.8188976377952756,
                },
                {
                    "duration": 0.2803818322916527,
                    "durationTicks": 323,
                    "midi": 78,
                    "name": "F#5",
                    "ticks": 229758,
                    "time": 199.44262855625,
                    "velocity": 0.7795275590551181,
                },
                {
                    "duration": 0.26388878333332855,
                    "durationTicks": 304,
                    "midi": 80,
                    "name": "G#5",
                    "ticks": 230077,
                    "time": 199.71953816770835,
                    "velocity": 0.8346456692913385,
                },
                {
                    "duration": 1.2499995000000013,
                    "durationTicks": 1440,
                    "midi": 81,
                    "name": "A5",
                    "ticks": 230400,
                    "time": 199.99992,
                    "velocity": 0.8031496062992126,
                },
                {
                    "duration": 0.41666649999999095,
                    "durationTicks": 480,
                    "midi": 81,
                    "name": "A5",
                    "ticks": 231840,
                    "time": 201.2499195,
                    "velocity": 0.7795275590551181,
                },
                {
                    "duration": 0.2795137770833378,
                    "durationTicks": 322,
                    "midi": 81,
                    "name": "A5",
                    "ticks": 232320,
                    "time": 201.666586,
                    "velocity": 0.7480314960629921,
                },
                {
                    "duration": 0.2803818322916527,
                    "durationTicks": 323,
                    "midi": 80,
                    "name": "G#5",
                    "ticks": 232638,
                    "time": 201.94262755625002,
                    "velocity": 0.7165354330708661,
                },
                {
                    "duration": 0.28298599791668266,
                    "durationTicks": 326,
                    "midi": 78,
                    "name": "F#5",
                    "ticks": 232957,
                    "time": 202.21953716770832,
                    "velocity": 0.7165354330708661,
                },
                {
                    "duration": 0.2795137770833378,
                    "durationTicks": 322,
                    "midi": 76,
                    "name": "E5",
                    "ticks": 233280,
                    "time": 202.499919,
                    "velocity": 0.6850393700787402,
                },
                {
                    "duration": 0.2803818322916811,
                    "durationTicks": 323,
                    "midi": 75,
                    "name": "D#5",
                    "ticks": 233598,
                    "time": 202.77596055625,
                    "velocity": 0.7244094488188977,
                },
                {
                    "duration": 0.26388878333332855,
                    "durationTicks": 304,
                    "midi": 76,
                    "name": "E5",
                    "ticks": 233917,
                    "time": 203.05287016770833,
                    "velocity": 0.7244094488188977,
                },
                {
                    "duration": 2.3723948843750122,
                    "durationTicks": 2733,
                    "midi": 76,
                    "name": "E5",
                    "ticks": 234240,
                    "time": 203.333252,
                    "velocity": 0.8503937007874016,
                },
                {
                    "duration": 1.698784042708354,
                    "durationTicks": 1957,
                    "midi": 70,
                    "name": "A#4",
                    "ticks": 234240,
                    "time": 203.333252,
                    "velocity": 0.4881889763779528,
                },
                {
                    "duration": 1.4999994000000072,
                    "durationTicks": 1728,
                    "midi": 71,
                    "name": "B4",
                    "ticks": 236160,
                    "time": 204.999918,
                    "velocity": 0.6062992125984252,
                },
                {
                    "duration": 0.42274288645833735,
                    "durationTicks": 487,
                    "midi": 78,
                    "name": "F#5",
                    "ticks": 237120,
                    "time": 205.833251,
                    "velocity": 0.889763779527559,
                },
                {
                    "duration": 0.3932290093750055,
                    "durationTicks": 453,
                    "midi": 76,
                    "name": "E5",
                    "ticks": 237600,
                    "time": 206.2499175,
                    "velocity": 0.7637795275590551,
                },
                {
                    "duration": 2.3723948843750122,
                    "durationTicks": 2733,
                    "midi": 76,
                    "name": "E5",
                    "ticks": 238080,
                    "time": 206.666584,
                    "velocity": 0.7716535433070866,
                },
                {
                    "duration": 1.6987840427083256,
                    "durationTicks": 1957,
                    "midi": 70,
                    "name": "A#4",
                    "ticks": 238080,
                    "time": 206.666584,
                    "velocity": 0.5984251968503937,
                },
                {
                    "duration": 1.4999994000000072,
                    "durationTicks": 1728,
                    "midi": 71,
                    "name": "B4",
                    "ticks": 240000,
                    "time": 208.33325,
                    "velocity": 0.7244094488188977,
                },
                {
                    "duration": 0.2795137770833378,
                    "durationTicks": 322,
                    "midi": 80,
                    "name": "G#5",
                    "ticks": 240960,
                    "time": 209.166583,
                    "velocity": 0.8740157480314961,
                },
                {
                    "duration": 0.2803818322916811,
                    "durationTicks": 323,
                    "midi": 78,
                    "name": "F#5",
                    "ticks": 241278,
                    "time": 209.44262455625,
                    "velocity": 0.8661417322834646,
                },
                {
                    "duration": 0.26388878333332855,
                    "durationTicks": 304,
                    "midi": 76,
                    "name": "E5",
                    "ticks": 241597,
                    "time": 209.71953416770833,
                    "velocity": 0.7244094488188977,
                },
                {
                    "duration": 1.84548537291667,
                    "durationTicks": 2126,
                    "midi": 76,
                    "name": "E5",
                    "ticks": 241920,
                    "time": 209.99991599999998,
                    "velocity": 0.6692913385826772,
                },
                {
                    "duration": 1.2725689354166718,
                    "durationTicks": 1466,
                    "midi": 70,
                    "name": "A#4",
                    "ticks": 241920,
                    "time": 209.99991599999998,
                    "velocity": 0.6299212598425197,
                },
                {
                    "duration": 0.3932290093750339,
                    "durationTicks": 453,
                    "midi": 67,
                    "name": "G4",
                    "ticks": 243360,
                    "time": 211.2499155,
                    "velocity": 0.5669291338582677,
                },
                {
                    "duration": 0.8333329999999819,
                    "durationTicks": 960,
                    "midi": 66,
                    "name": "F#4",
                    "ticks": 243840,
                    "time": 211.666582,
                    "velocity": 0.5354330708661418,
                },
                {
                    "duration": 0.27690961145833626,
                    "durationTicks": 319,
                    "midi": 74,
                    "name": "D5",
                    "ticks": 244158,
                    "time": 211.94262355625,
                    "velocity": 0.5905511811023622,
                },
                {
                    "duration": 0.2803818322916527,
                    "durationTicks": 323,
                    "midi": 73,
                    "name": "C#5",
                    "ticks": 244477,
                    "time": 212.21953316770833,
                    "velocity": 0.5984251968503937,
                },
                {
                    "duration": 0.27604155625002136,
                    "durationTicks": 318,
                    "midi": 76,
                    "name": "E5",
                    "ticks": 244800,
                    "time": 212.499915,
                    "velocity": 0.6220472440944882,
                },
                {
                    "duration": 0.27690961145833626,
                    "durationTicks": 319,
                    "midi": 74,
                    "name": "D5",
                    "ticks": 245118,
                    "time": 212.77595655625,
                    "velocity": 0.5118110236220472,
                },
                {
                    "duration": 0.27690961145833626,
                    "durationTicks": 319,
                    "midi": 66,
                    "name": "F#4",
                    "ticks": 245118,
                    "time": 212.77595655625,
                    "velocity": 0.4251968503937008,
                },
                {
                    "duration": 0.2803818322916527,
                    "durationTicks": 323,
                    "midi": 66,
                    "name": "F#4",
                    "ticks": 245437,
                    "time": 213.05286616770834,
                    "velocity": 0.3700787401574803,
                },
                {
                    "duration": 0.2803818322916527,
                    "durationTicks": 323,
                    "midi": 62,
                    "name": "D4",
                    "ticks": 245437,
                    "time": 213.05286616770834,
                    "velocity": 0.3858267716535433,
                },
                {
                    "duration": 0.8489579937500196,
                    "durationTicks": 978,
                    "midi": 69,
                    "name": "A4",
                    "ticks": 245760,
                    "time": 213.333248,
                    "velocity": 0.5196850393700787,
                },
                {
                    "duration": 0.8489579937500196,
                    "durationTicks": 978,
                    "midi": 61,
                    "name": "C#4",
                    "ticks": 245760,
                    "time": 213.333248,
                    "velocity": 0.4409448818897638,
                },
                {
                    "duration": 0.8489579937499911,
                    "durationTicks": 978,
                    "midi": 71,
                    "name": "B4",
                    "ticks": 246720,
                    "time": 214.166581,
                    "velocity": 0.5354330708661418,
                },
                {
                    "duration": 0.8489579937499911,
                    "durationTicks": 978,
                    "midi": 68,
                    "name": "G#4",
                    "ticks": 246720,
                    "time": 214.166581,
                    "velocity": 0.5196850393700787,
                },
                {
                    "duration": 0.8489579937500196,
                    "durationTicks": 978,
                    "midi": 73,
                    "name": "C#5",
                    "ticks": 247680,
                    "time": 214.999914,
                    "velocity": 0.5905511811023622,
                },
                {
                    "duration": 0.8489579937500196,
                    "durationTicks": 978,
                    "midi": 69,
                    "name": "A4",
                    "ticks": 247680,
                    "time": 214.999914,
                    "velocity": 0.5748031496062992,
                },
                {
                    "duration": 0.2795137770833378,
                    "durationTicks": 322,
                    "midi": 74,
                    "name": "D5",
                    "ticks": 248640,
                    "time": 215.833247,
                    "velocity": 0.5826771653543307,
                },
                {
                    "duration": 0.2795137770833378,
                    "durationTicks": 322,
                    "midi": 71,
                    "name": "B4",
                    "ticks": 248640,
                    "time": 215.833247,
                    "velocity": 0.5748031496062992,
                },
                {
                    "duration": 0.2803818322916811,
                    "durationTicks": 323,
                    "midi": 75,
                    "name": "D#5",
                    "ticks": 248958,
                    "time": 216.10928855625,
                    "velocity": 0.5748031496062992,
                },
                {
                    "duration": 0.2803818322916811,
                    "durationTicks": 323,
                    "midi": 72,
                    "name": "C5",
                    "ticks": 248958,
                    "time": 216.10928855625,
                    "velocity": 0.6062992125984252,
                },
                {
                    "duration": 0.26388878333332855,
                    "durationTicks": 304,
                    "midi": 76,
                    "name": "E5",
                    "ticks": 249277,
                    "time": 216.38619816770833,
                    "velocity": 0.5826771653543307,
                },
                {
                    "duration": 0.26388878333332855,
                    "durationTicks": 304,
                    "midi": 73,
                    "name": "C#5",
                    "ticks": 249277,
                    "time": 216.38619816770833,
                    "velocity": 0.5511811023622047,
                },
                {
                    "duration": 2.372394884374984,
                    "durationTicks": 2733,
                    "midi": 76,
                    "name": "E5",
                    "ticks": 249600,
                    "time": 216.66658,
                    "velocity": 0.5511811023622047,
                },
                {
                    "duration": 1.6987840427083256,
                    "durationTicks": 1957,
                    "midi": 70,
                    "name": "A#4",
                    "ticks": 249600,
                    "time": 216.66658,
                    "velocity": 0.49606299212598426,
                },
                {
                    "duration": 1.5815965895833415,
                    "durationTicks": 1822,
                    "midi": 71,
                    "name": "B4",
                    "ticks": 251520,
                    "time": 218.333246,
                    "velocity": 0.6220472440944882,
                },
                {
                    "duration": 0.41666650000001937,
                    "durationTicks": 480,
                    "midi": 78,
                    "name": "F#5",
                    "ticks": 252480,
                    "time": 219.16657899999998,
                    "velocity": 0.6377952755905512,
                },
                {
                    "duration": 0.41666649999999095,
                    "durationTicks": 480,
                    "midi": 76,
                    "name": "E5",
                    "ticks": 252960,
                    "time": 219.5832455,
                    "velocity": 0.5905511811023622,
                },
                {
                    "duration": 2.3723948843750122,
                    "durationTicks": 2733,
                    "midi": 76,
                    "name": "E5",
                    "ticks": 253440,
                    "time": 219.999912,
                    "velocity": 0.5984251968503937,
                },
                {
                    "duration": 1.698784042708354,
                    "durationTicks": 1957,
                    "midi": 70,
                    "name": "A#4",
                    "ticks": 253440,
                    "time": 219.999912,
                    "velocity": 0.5748031496062992,
                },
                {
                    "duration": 1.4999994000000072,
                    "durationTicks": 1728,
                    "midi": 71,
                    "name": "B4",
                    "ticks": 255360,
                    "time": 221.666578,
                    "velocity": 0.6062992125984252,
                },
                {
                    "duration": 0.2795137770833378,
                    "durationTicks": 322,
                    "midi": 80,
                    "name": "G#5",
                    "ticks": 256320,
                    "time": 222.499911,
                    "velocity": 0.6377952755905512,
                },
                {
                    "duration": 0.2803818322916527,
                    "durationTicks": 323,
                    "midi": 78,
                    "name": "F#5",
                    "ticks": 256638,
                    "time": 222.77595255625002,
                    "velocity": 0.6062992125984252,
                },
                {
                    "duration": 0.26388878333332855,
                    "durationTicks": 304,
                    "midi": 76,
                    "name": "E5",
                    "ticks": 256957,
                    "time": 223.05286216770833,
                    "velocity": 0.5039370078740157,
                },
                {
                    "duration": 0.2473957343750044,
                    "durationTicks": 285,
                    "midi": 64,
                    "name": "E4",
                    "ticks": 285120,
                    "time": 247.499901,
                    "velocity": 0.6929133858267716,
                },
                {
                    "duration": 0.2473957343750044,
                    "durationTicks": 285,
                    "midi": 76,
                    "name": "E5",
                    "ticks": 285120,
                    "time": 247.499901,
                    "velocity": 0.6929133858267716,
                },
                {
                    "duration": 0.2473957343750044,
                    "durationTicks": 285,
                    "midi": 64,
                    "name": "E4",
                    "ticks": 285600,
                    "time": 247.91656749999999,
                    "velocity": 0.7716535433070866,
                },
                {
                    "duration": 0.2473957343750044,
                    "durationTicks": 285,
                    "midi": 76,
                    "name": "E5",
                    "ticks": 285600,
                    "time": 247.91656749999999,
                    "velocity": 0.7716535433070866,
                },
                {
                    "duration": 0.8333329999999819,
                    "durationTicks": 960,
                    "midi": 68,
                    "name": "G#4",
                    "ticks": 401280,
                    "time": 348.333194,
                    "velocity": 0.33858267716535434,
                },
                {
                    "duration": 0.2473957343750044,
                    "durationTicks": 285,
                    "midi": 68,
                    "name": "G#4",
                    "ticks": 402240,
                    "time": 349.166527,
                    "velocity": 0.4251968503937008,
                },
                {
                    "duration": 0.2473957343750044,
                    "durationTicks": 285,
                    "midi": 69,
                    "name": "A4",
                    "ticks": 402720,
                    "time": 349.5831935,
                    "velocity": 0.4881889763779528,
                },
                {
                    "duration": 0.8333329999999819,
                    "durationTicks": 960,
                    "midi": 71,
                    "name": "B4",
                    "ticks": 403200,
                    "time": 349.99986,
                    "velocity": 0.5275590551181102,
                },
                {
                    "duration": 0.2473957343750044,
                    "durationTicks": 285,
                    "midi": 71,
                    "name": "B4",
                    "ticks": 404160,
                    "time": 350.833193,
                    "velocity": 0.5511811023622047,
                },
                {
                    "duration": 0.2473957343750044,
                    "durationTicks": 285,
                    "midi": 72,
                    "name": "C5",
                    "ticks": 404640,
                    "time": 351.2498595,
                    "velocity": 0.6456692913385826,
                },
                {
                    "duration": 0.8333330000000387,
                    "durationTicks": 960,
                    "midi": 74,
                    "name": "D5",
                    "ticks": 405120,
                    "time": 351.666526,
                    "velocity": 0.6614173228346457,
                },
                {
                    "duration": 0.2473957343750044,
                    "durationTicks": 285,
                    "midi": 74,
                    "name": "D5",
                    "ticks": 406080,
                    "time": 352.499859,
                    "velocity": 0.6929133858267716,
                },
                {
                    "duration": 0.2473957343750044,
                    "durationTicks": 285,
                    "midi": 76,
                    "name": "E5",
                    "ticks": 406560,
                    "time": 352.9165255,
                    "velocity": 0.7637795275590551,
                },
                {
                    "duration": 0.4227428864583658,
                    "durationTicks": 487,
                    "midi": 77,
                    "name": "F5",
                    "ticks": 407040,
                    "time": 353.333192,
                    "velocity": 0.8188976377952756,
                },
                {
                    "duration": 0.2109374156249828,
                    "durationTicks": 243,
                    "midi": 76,
                    "name": "E5",
                    "ticks": 407520,
                    "time": 353.7498585,
                    "velocity": 0.7716535433070866,
                },
                {
                    "duration": 0.21093741562503965,
                    "durationTicks": 243,
                    "midi": 74,
                    "name": "D5",
                    "ticks": 407760,
                    "time": 353.95819174999997,
                    "velocity": 0.7716535433070866,
                },
                {
                    "duration": 0.1953124218750304,
                    "durationTicks": 225,
                    "midi": 76,
                    "name": "E5",
                    "ticks": 408000,
                    "time": 354.166525,
                    "velocity": 0.8503937007874016,
                },
                {
                    "duration": 0.12326383958333054,
                    "durationTicks": 142,
                    "midi": 64,
                    "name": "E4",
                    "ticks": 408240,
                    "time": 354.37485825,
                    "velocity": 0.6614173228346457,
                },
                {
                    "duration": 0.12326383958333054,
                    "durationTicks": 142,
                    "midi": 66,
                    "name": "F#4",
                    "ticks": 408480,
                    "time": 354.5831915,
                    "velocity": 0.8740157480314961,
                },
                {
                    "duration": 0.12326383958333054,
                    "durationTicks": 142,
                    "midi": 68,
                    "name": "G#4",
                    "ticks": 408720,
                    "time": 354.79152475,
                    "velocity": 0.9291338582677166,
                },
                {
                    "duration": 0.12326383958333054,
                    "durationTicks": 142,
                    "midi": 69,
                    "name": "A4",
                    "ticks": 408960,
                    "time": 354.999858,
                    "velocity": 0.968503937007874,
                },
                {
                    "duration": 0.12326383958338738,
                    "durationTicks": 142,
                    "midi": 71,
                    "name": "B4",
                    "ticks": 409200,
                    "time": 355.20819124999997,
                    "velocity": 0.8503937007874016,
                },
                {
                    "duration": 0.12326383958333054,
                    "durationTicks": 142,
                    "midi": 72,
                    "name": "C5",
                    "ticks": 409440,
                    "time": 355.4165245,
                    "velocity": 0.7952755905511811,
                },
                {
                    "duration": 0.12326383958333054,
                    "durationTicks": 142,
                    "midi": 71,
                    "name": "B4",
                    "ticks": 409680,
                    "time": 355.62485775,
                    "velocity": 0.7244094488188977,
                },
                {
                    "duration": 0.12326383958333054,
                    "durationTicks": 142,
                    "midi": 69,
                    "name": "A4",
                    "ticks": 409920,
                    "time": 355.833191,
                    "velocity": 0.6929133858267716,
                },
                {
                    "duration": 0.12326383958333054,
                    "durationTicks": 142,
                    "midi": 72,
                    "name": "C5",
                    "ticks": 410160,
                    "time": 356.04152425,
                    "velocity": 0.7952755905511811,
                },
                {
                    "duration": 0.12326383958333054,
                    "durationTicks": 142,
                    "midi": 71,
                    "name": "B4",
                    "ticks": 410400,
                    "time": 356.2498575,
                    "velocity": 0.7086614173228346,
                },
                {
                    "duration": 0.12326383958338738,
                    "durationTicks": 142,
                    "midi": 69,
                    "name": "A4",
                    "ticks": 410640,
                    "time": 356.45819074999997,
                    "velocity": 0.7165354330708661,
                },
                {
                    "duration": 0.12326383958333054,
                    "durationTicks": 142,
                    "midi": 64,
                    "name": "E4",
                    "ticks": 410880,
                    "time": 356.666524,
                    "velocity": 0.6850393700787402,
                },
                {
                    "duration": 0.12326383958333054,
                    "durationTicks": 142,
                    "midi": 66,
                    "name": "F#4",
                    "ticks": 411120,
                    "time": 356.87485725,
                    "velocity": 0.9212598425196851,
                },
                {
                    "duration": 0.12326383958333054,
                    "durationTicks": 142,
                    "midi": 68,
                    "name": "G#4",
                    "ticks": 411360,
                    "time": 357.0831905,
                    "velocity": 0.937007874015748,
                },
                {
                    "duration": 0.12326383958333054,
                    "durationTicks": 142,
                    "midi": 69,
                    "name": "A4",
                    "ticks": 411600,
                    "time": 357.29152375,
                    "velocity": 0.937007874015748,
                },
                {
                    "duration": 0.12326383958333054,
                    "durationTicks": 142,
                    "midi": 71,
                    "name": "B4",
                    "ticks": 411840,
                    "time": 357.499857,
                    "velocity": 0.9291338582677166,
                },
                {
                    "duration": 0.12326383958338738,
                    "durationTicks": 142,
                    "midi": 72,
                    "name": "C5",
                    "ticks": 412080,
                    "time": 357.70819025,
                    "velocity": 0.9212598425196851,
                },
                {
                    "duration": 0.12326383958333054,
                    "durationTicks": 142,
                    "midi": 74,
                    "name": "D5",
                    "ticks": 412320,
                    "time": 357.9165235,
                    "velocity": 0.968503937007874,
                },
                {
                    "duration": 0.12326383958333054,
                    "durationTicks": 142,
                    "midi": 76,
                    "name": "E5",
                    "ticks": 412560,
                    "time": 358.12485675,
                    "velocity": 0.937007874015748,
                },
                {
                    "duration": 0.12326383958333054,
                    "durationTicks": 142,
                    "midi": 74,
                    "name": "D5",
                    "ticks": 412800,
                    "time": 358.33319,
                    "velocity": 0.8582677165354331,
                },
                {
                    "duration": 0.12326383958333054,
                    "durationTicks": 142,
                    "midi": 71,
                    "name": "B4",
                    "ticks": 413040,
                    "time": 358.54152325,
                    "velocity": 0.7244094488188977,
                },
                {
                    "duration": 0.12326383958333054,
                    "durationTicks": 142,
                    "midi": 72,
                    "name": "C5",
                    "ticks": 413280,
                    "time": 358.7498565,
                    "velocity": 0.8031496062992126,
                },
                {
                    "duration": 0.12326383958338738,
                    "durationTicks": 142,
                    "midi": 74,
                    "name": "D5",
                    "ticks": 413520,
                    "time": 358.95818975,
                    "velocity": 0.8110236220472441,
                },
                {
                    "duration": 0.12326383958333054,
                    "durationTicks": 142,
                    "midi": 76,
                    "name": "E5",
                    "ticks": 413760,
                    "time": 359.166523,
                    "velocity": 0.8267716535433071,
                },
                {
                    "duration": 0.12326383958333054,
                    "durationTicks": 142,
                    "midi": 74,
                    "name": "D5",
                    "ticks": 414000,
                    "time": 359.37485625,
                    "velocity": 0.7401574803149606,
                },
                {
                    "duration": 0.12326383958333054,
                    "durationTicks": 142,
                    "midi": 72,
                    "name": "C5",
                    "ticks": 414240,
                    "time": 359.5831895,
                    "velocity": 0.7086614173228346,
                },
                {
                    "duration": 0.12326383958333054,
                    "durationTicks": 142,
                    "midi": 71,
                    "name": "B4",
                    "ticks": 414480,
                    "time": 359.79152275,
                    "velocity": 0.7086614173228346,
                },
                {
                    "duration": 0.12326383958333054,
                    "durationTicks": 142,
                    "midi": 72,
                    "name": "C5",
                    "ticks": 414720,
                    "time": 359.999856,
                    "velocity": 0.8031496062992126,
                },
                {
                    "duration": 0.12326383958338738,
                    "durationTicks": 142,
                    "midi": 71,
                    "name": "B4",
                    "ticks": 414960,
                    "time": 360.20818925,
                    "velocity": 0.8110236220472441,
                },
                {
                    "duration": 0.12326383958333054,
                    "durationTicks": 142,
                    "midi": 72,
                    "name": "C5",
                    "ticks": 415200,
                    "time": 360.4165225,
                    "velocity": 0.889763779527559,
                },
                {
                    "duration": 0.12326383958333054,
                    "durationTicks": 142,
                    "midi": 74,
                    "name": "D5",
                    "ticks": 415440,
                    "time": 360.62485575,
                    "velocity": 0.937007874015748,
                },
                {
                    "duration": 0.12326383958333054,
                    "durationTicks": 142,
                    "midi": 76,
                    "name": "E5",
                    "ticks": 415680,
                    "time": 360.833189,
                    "velocity": 0.9212598425196851,
                },
                {
                    "duration": 0.12326383958333054,
                    "durationTicks": 142,
                    "midi": 64,
                    "name": "E4",
                    "ticks": 415920,
                    "time": 361.04152225,
                    "velocity": 0.6614173228346457,
                },
                {
                    "duration": 0.12326383958333054,
                    "durationTicks": 142,
                    "midi": 66,
                    "name": "F#4",
                    "ticks": 416160,
                    "time": 361.2498555,
                    "velocity": 0.8976377952755905,
                },
                {
                    "duration": 0.12326383958333054,
                    "durationTicks": 142,
                    "midi": 68,
                    "name": "G#4",
                    "ticks": 416400,
                    "time": 361.45818875,
                    "velocity": 0.9448818897637795,
                },
                {
                    "duration": 0.12326383958333054,
                    "durationTicks": 142,
                    "midi": 69,
                    "name": "A4",
                    "ticks": 416640,
                    "time": 361.666522,
                    "velocity": 0.7322834645669292,
                },
                {
                    "duration": 0.12326383958333054,
                    "durationTicks": 142,
                    "midi": 71,
                    "name": "B4",
                    "ticks": 416880,
                    "time": 361.87485525,
                    "velocity": 0.7559055118110236,
                },
                {
                    "duration": 0.12326383958333054,
                    "durationTicks": 142,
                    "midi": 72,
                    "name": "C5",
                    "ticks": 417120,
                    "time": 362.0831885,
                    "velocity": 0.7952755905511811,
                },
                {
                    "duration": 0.12326383958333054,
                    "durationTicks": 142,
                    "midi": 71,
                    "name": "B4",
                    "ticks": 417360,
                    "time": 362.29152175,
                    "velocity": 0.7401574803149606,
                },
                {
                    "duration": 0.12326383958338738,
                    "durationTicks": 142,
                    "midi": 69,
                    "name": "A4",
                    "ticks": 417600,
                    "time": 362.49985499999997,
                    "velocity": 0.7322834645669292,
                },
                {
                    "duration": 0.12326383958333054,
                    "durationTicks": 142,
                    "midi": 72,
                    "name": "C5",
                    "ticks": 417840,
                    "time": 362.70818825,
                    "velocity": 0.8031496062992126,
                },
                {
                    "duration": 0.12326383958333054,
                    "durationTicks": 142,
                    "midi": 71,
                    "name": "B4",
                    "ticks": 418080,
                    "time": 362.9165215,
                    "velocity": 0.7401574803149606,
                },
                {
                    "duration": 0.12326383958333054,
                    "durationTicks": 142,
                    "midi": 69,
                    "name": "A4",
                    "ticks": 418320,
                    "time": 363.12485475,
                    "velocity": 0.6771653543307087,
                },
                {
                    "duration": 0.12326383958333054,
                    "durationTicks": 142,
                    "midi": 64,
                    "name": "E4",
                    "ticks": 418560,
                    "time": 363.333188,
                    "velocity": 0.6692913385826772,
                },
                {
                    "duration": 0.12326383958333054,
                    "durationTicks": 142,
                    "midi": 66,
                    "name": "F#4",
                    "ticks": 418800,
                    "time": 363.54152125,
                    "velocity": 0.8267716535433071,
                },
                {
                    "duration": 0.12326383958338738,
                    "durationTicks": 142,
                    "midi": 68,
                    "name": "G#4",
                    "ticks": 419040,
                    "time": 363.74985449999997,
                    "velocity": 0.8346456692913385,
                },
                {
                    "duration": 0.12326383958333054,
                    "durationTicks": 142,
                    "midi": 69,
                    "name": "A4",
                    "ticks": 419280,
                    "time": 363.95818775,
                    "velocity": 0.7795275590551181,
                },
                {
                    "duration": 0.12326383958333054,
                    "durationTicks": 142,
                    "midi": 71,
                    "name": "B4",
                    "ticks": 419520,
                    "time": 364.166521,
                    "velocity": 0.84251968503937,
                },
                {
                    "duration": 0.12326383958333054,
                    "durationTicks": 142,
                    "midi": 72,
                    "name": "C5",
                    "ticks": 419760,
                    "time": 364.37485425,
                    "velocity": 0.8267716535433071,
                },
                {
                    "duration": 0.12326383958333054,
                    "durationTicks": 142,
                    "midi": 74,
                    "name": "D5",
                    "ticks": 420000,
                    "time": 364.5831875,
                    "velocity": 0.8031496062992126,
                },
                {
                    "duration": 0.12326383958333054,
                    "durationTicks": 142,
                    "midi": 76,
                    "name": "E5",
                    "ticks": 420240,
                    "time": 364.79152075,
                    "velocity": 0.8110236220472441,
                },
                {
                    "duration": 0.12326383958338738,
                    "durationTicks": 142,
                    "midi": 74,
                    "name": "D5",
                    "ticks": 420480,
                    "time": 364.99985399999997,
                    "velocity": 0.7086614173228346,
                },
                {
                    "duration": 0.12326383958333054,
                    "durationTicks": 142,
                    "midi": 71,
                    "name": "B4",
                    "ticks": 420720,
                    "time": 365.20818725,
                    "velocity": 0.6771653543307087,
                },
                {
                    "duration": 0.12326383958333054,
                    "durationTicks": 142,
                    "midi": 72,
                    "name": "C5",
                    "ticks": 420960,
                    "time": 365.4165205,
                    "velocity": 0.7637795275590551,
                },
                {
                    "duration": 0.12326383958333054,
                    "durationTicks": 142,
                    "midi": 74,
                    "name": "D5",
                    "ticks": 421200,
                    "time": 365.62485375,
                    "velocity": 0.8031496062992126,
                },
                {
                    "duration": 0.12326383958333054,
                    "durationTicks": 142,
                    "midi": 76,
                    "name": "E5",
                    "ticks": 421440,
                    "time": 365.833187,
                    "velocity": 0.8582677165354331,
                },
                {
                    "duration": 0.12326383958333054,
                    "durationTicks": 142,
                    "midi": 74,
                    "name": "D5",
                    "ticks": 421680,
                    "time": 366.04152025,
                    "velocity": 0.7165354330708661,
                },
                {
                    "duration": 0.12326383958338738,
                    "durationTicks": 142,
                    "midi": 72,
                    "name": "C5",
                    "ticks": 421920,
                    "time": 366.2498535,
                    "velocity": 0.6929133858267716,
                },
                {
                    "duration": 0.12326383958333054,
                    "durationTicks": 142,
                    "midi": 71,
                    "name": "B4",
                    "ticks": 422160,
                    "time": 366.45818675,
                    "velocity": 0.7401574803149606,
                },
                {
                    "duration": 0.8333329999999819,
                    "durationTicks": 960,
                    "midi": 69,
                    "name": "A4",
                    "ticks": 422400,
                    "time": 366.66652,
                    "velocity": 0.6771653543307087,
                },
                {
                    "duration": 0.8333329999999819,
                    "durationTicks": 960,
                    "midi": 71,
                    "name": "B4",
                    "ticks": 424320,
                    "time": 368.333186,
                    "velocity": 0.3464566929133858,
                },
                {
                    "duration": 0.8333329999999819,
                    "durationTicks": 960,
                    "midi": 74,
                    "name": "D5",
                    "ticks": 424320,
                    "time": 368.333186,
                    "velocity": 0.3464566929133858,
                },
                {
                    "duration": 0.2473957343750044,
                    "durationTicks": 285,
                    "midi": 71,
                    "name": "B4",
                    "ticks": 425280,
                    "time": 369.166519,
                    "velocity": 0.3779527559055118,
                },
                {
                    "duration": 0.2473957343750044,
                    "durationTicks": 285,
                    "midi": 74,
                    "name": "D5",
                    "ticks": 425280,
                    "time": 369.166519,
                    "velocity": 0.3779527559055118,
                },
                {
                    "duration": 0.2473957343750044,
                    "durationTicks": 285,
                    "midi": 71,
                    "name": "B4",
                    "ticks": 425760,
                    "time": 369.5831855,
                    "velocity": 0.3779527559055118,
                },
                {
                    "duration": 0.2473957343750044,
                    "durationTicks": 285,
                    "midi": 74,
                    "name": "D5",
                    "ticks": 425760,
                    "time": 369.5831855,
                    "velocity": 0.3779527559055118,
                },
                {
                    "duration": 0.41666650000001937,
                    "durationTicks": 480,
                    "midi": 69,
                    "name": "A4",
                    "ticks": 426240,
                    "time": 369.999852,
                    "velocity": 0.4015748031496063,
                },
                {
                    "duration": 0.41666650000001937,
                    "durationTicks": 480,
                    "midi": 72,
                    "name": "C5",
                    "ticks": 426240,
                    "time": 369.999852,
                    "velocity": 0.4015748031496063,
                },
                {
                    "duration": 1.6666660000000206,
                    "durationTicks": 1920,
                    "midi": 76,
                    "name": "E5",
                    "ticks": 429120,
                    "time": 372.499851,
                    "velocity": 0.4409448818897638,
                },
                {
                    "duration": 0.8489579937499911,
                    "durationTicks": 978,
                    "midi": 73,
                    "name": "C#5",
                    "ticks": 431040,
                    "time": 374.166517,
                    "velocity": 0.4566929133858268,
                },
                {
                    "duration": 0.848957993750048,
                    "durationTicks": 978,
                    "midi": 69,
                    "name": "A4",
                    "ticks": 432000,
                    "time": 374.99985,
                    "velocity": 0.4094488188976378,
                },
                {
                    "duration": 0.7907982947916707,
                    "durationTicks": 911,
                    "midi": 73,
                    "name": "C#5",
                    "ticks": 432960,
                    "time": 375.833183,
                    "velocity": 0.48031496062992124,
                },
                {
                    "duration": 0.8489579937499911,
                    "durationTicks": 978,
                    "midi": 73,
                    "name": "C#5",
                    "ticks": 433920,
                    "time": 376.666516,
                    "velocity": 0.47244094488188976,
                },
                {
                    "duration": 1.6987840427083256,
                    "durationTicks": 1957,
                    "midi": 62,
                    "name": "D4",
                    "ticks": 434880,
                    "time": 377.499849,
                    "velocity": 0.4566929133858268,
                },
                {
                    "duration": 1.6987840427083256,
                    "durationTicks": 1957,
                    "midi": 71,
                    "name": "B4",
                    "ticks": 434880,
                    "time": 377.499849,
                    "velocity": 0.4566929133858268,
                },
                {
                    "duration": 0.8489579937499911,
                    "durationTicks": 978,
                    "midi": 61,
                    "name": "C#4",
                    "ticks": 436800,
                    "time": 379.166515,
                    "velocity": 0.5748031496062992,
                },
                {
                    "duration": 0.8489579937499911,
                    "durationTicks": 978,
                    "midi": 69,
                    "name": "A4",
                    "ticks": 436800,
                    "time": 379.166515,
                    "velocity": 0.5748031496062992,
                },
                {
                    "duration": 0.8489579937499911,
                    "durationTicks": 978,
                    "midi": 59,
                    "name": "B3",
                    "ticks": 437760,
                    "time": 379.999848,
                    "velocity": 0.5826771653543307,
                },
                {
                    "duration": 0.8489579937499911,
                    "durationTicks": 978,
                    "midi": 68,
                    "name": "G#4",
                    "ticks": 437760,
                    "time": 379.999848,
                    "velocity": 0.5826771653543307,
                },
                {
                    "duration": 0.848957993750048,
                    "durationTicks": 978,
                    "midi": 61,
                    "name": "C#4",
                    "ticks": 438720,
                    "time": 380.83318099999997,
                    "velocity": 0.7086614173228346,
                },
                {
                    "duration": 0.848957993750048,
                    "durationTicks": 978,
                    "midi": 69,
                    "name": "A4",
                    "ticks": 438720,
                    "time": 380.83318099999997,
                    "velocity": 0.7086614173228346,
                },
                {
                    "duration": 0.8489579937499911,
                    "durationTicks": 978,
                    "midi": 62,
                    "name": "D4",
                    "ticks": 439680,
                    "time": 381.666514,
                    "velocity": 0.7244094488188977,
                },
                {
                    "duration": 0.8489579937499911,
                    "durationTicks": 978,
                    "midi": 71,
                    "name": "B4",
                    "ticks": 439680,
                    "time": 381.666514,
                    "velocity": 0.7244094488188977,
                },
                {
                    "duration": 0.8489579937499911,
                    "durationTicks": 978,
                    "midi": 64,
                    "name": "E4",
                    "ticks": 440640,
                    "time": 382.499847,
                    "velocity": 0.7716535433070866,
                },
                {
                    "duration": 0.8489579937499911,
                    "durationTicks": 978,
                    "midi": 73,
                    "name": "C#5",
                    "ticks": 440640,
                    "time": 382.499847,
                    "velocity": 0.7716535433070866,
                },
                {
                    "duration": 0.848957993750048,
                    "durationTicks": 978,
                    "midi": 66,
                    "name": "F#4",
                    "ticks": 441600,
                    "time": 383.33317999999997,
                    "velocity": 0.6614173228346457,
                },
                {
                    "duration": 0.848957993750048,
                    "durationTicks": 978,
                    "midi": 74,
                    "name": "D5",
                    "ticks": 441600,
                    "time": 383.33317999999997,
                    "velocity": 0.6614173228346457,
                },
                {
                    "duration": 0.8489579937499911,
                    "durationTicks": 978,
                    "midi": 68,
                    "name": "G#4",
                    "ticks": 442560,
                    "time": 384.166513,
                    "velocity": 0.5905511811023622,
                },
                {
                    "duration": 0.8489579937499911,
                    "durationTicks": 978,
                    "midi": 76,
                    "name": "E5",
                    "ticks": 442560,
                    "time": 384.166513,
                    "velocity": 0.5905511811023622,
                },
                {
                    "duration": 0.8489579937499911,
                    "durationTicks": 978,
                    "midi": 71,
                    "name": "B4",
                    "ticks": 443520,
                    "time": 384.999846,
                    "velocity": 0.4645669291338583,
                },
                {
                    "duration": 0.8489579937499911,
                    "durationTicks": 978,
                    "midi": 74,
                    "name": "D5",
                    "ticks": 443520,
                    "time": 384.999846,
                    "velocity": 0.4645669291338583,
                },
                {
                    "duration": 0.4227428864583658,
                    "durationTicks": 487,
                    "midi": 69,
                    "name": "A4",
                    "ticks": 444480,
                    "time": 385.833179,
                    "velocity": 0.4094488188976378,
                },
                {
                    "duration": 0.41666650000001937,
                    "durationTicks": 480,
                    "midi": 73,
                    "name": "C#5",
                    "ticks": 444480,
                    "time": 385.833179,
                    "velocity": 0.4094488188976378,
                },
                {
                    "duration": 0.3932290093750339,
                    "durationTicks": 453,
                    "midi": 73,
                    "name": "C#5",
                    "ticks": 444960,
                    "time": 386.2498455,
                    "velocity": 0.48031496062992124,
                },
                {
                    "duration": 0.3932290093750339,
                    "durationTicks": 453,
                    "midi": 81,
                    "name": "A5",
                    "ticks": 444960,
                    "time": 386.2498455,
                    "velocity": 0.48031496062992124,
                },
                {
                    "duration": 0.8333329999999819,
                    "durationTicks": 960,
                    "midi": 73,
                    "name": "C#5",
                    "ticks": 445440,
                    "time": 386.666512,
                    "velocity": 0.5196850393700787,
                },
                {
                    "duration": 0.8489579937499911,
                    "durationTicks": 978,
                    "midi": 81,
                    "name": "A5",
                    "ticks": 445440,
                    "time": 386.666512,
                    "velocity": 0.5196850393700787,
                },
                {
                    "duration": 0.8333329999999819,
                    "durationTicks": 960,
                    "midi": 73,
                    "name": "C#5",
                    "ticks": 446400,
                    "time": 387.499845,
                    "velocity": 0.44881889763779526,
                },
                {
                    "duration": 0.8489579937499911,
                    "durationTicks": 978,
                    "midi": 76,
                    "name": "E5",
                    "ticks": 446400,
                    "time": 387.499845,
                    "velocity": 0.44881889763779526,
                },
                {
                    "duration": 0.848957993750048,
                    "durationTicks": 978,
                    "midi": 69,
                    "name": "A4",
                    "ticks": 447360,
                    "time": 388.333178,
                    "velocity": 0.49606299212598426,
                },
                {
                    "duration": 0.8333330000000387,
                    "durationTicks": 960,
                    "midi": 73,
                    "name": "C#5",
                    "ticks": 447360,
                    "time": 388.333178,
                    "velocity": 0.49606299212598426,
                },
                {
                    "duration": 0.7907982947916707,
                    "durationTicks": 911,
                    "midi": 73,
                    "name": "C#5",
                    "ticks": 448320,
                    "time": 389.166511,
                    "velocity": 0.5905511811023622,
                },
                {
                    "duration": 0.7907982947916707,
                    "durationTicks": 911,
                    "midi": 76,
                    "name": "E5",
                    "ticks": 448320,
                    "time": 389.166511,
                    "velocity": 0.5905511811023622,
                },
                {
                    "duration": 0.8489579937499911,
                    "durationTicks": 978,
                    "midi": 73,
                    "name": "C#5",
                    "ticks": 449280,
                    "time": 389.999844,
                    "velocity": 0.5669291338582677,
                },
                {
                    "duration": 0.8489579937499911,
                    "durationTicks": 978,
                    "midi": 76,
                    "name": "E5",
                    "ticks": 449280,
                    "time": 389.999844,
                    "velocity": 0.5669291338582677,
                },
                {
                    "duration": 1.6987840427083825,
                    "durationTicks": 1957,
                    "midi": 74,
                    "name": "D5",
                    "ticks": 450240,
                    "time": 390.833177,
                    "velocity": 0.6062992125984252,
                },
                {
                    "duration": 1.6987840427083825,
                    "durationTicks": 1957,
                    "midi": 78,
                    "name": "F#5",
                    "ticks": 450240,
                    "time": 390.833177,
                    "velocity": 0.6062992125984252,
                },
                {
                    "duration": 0.8489579937499911,
                    "durationTicks": 978,
                    "midi": 73,
                    "name": "C#5",
                    "ticks": 452160,
                    "time": 392.499843,
                    "velocity": 0.5590551181102362,
                },
                {
                    "duration": 0.8489579937499911,
                    "durationTicks": 978,
                    "midi": 76,
                    "name": "E5",
                    "ticks": 452160,
                    "time": 392.499843,
                    "velocity": 0.5590551181102362,
                },
                {
                    "duration": 0.848957993750048,
                    "durationTicks": 978,
                    "midi": 66,
                    "name": "F#4",
                    "ticks": 453120,
                    "time": 393.333176,
                    "velocity": 0.5748031496062992,
                },
                {
                    "duration": 0.848957993750048,
                    "durationTicks": 978,
                    "midi": 74,
                    "name": "D5",
                    "ticks": 453120,
                    "time": 393.333176,
                    "velocity": 0.5748031496062992,
                },
                {
                    "duration": 0.8489579937499911,
                    "durationTicks": 978,
                    "midi": 64,
                    "name": "E4",
                    "ticks": 454080,
                    "time": 394.166509,
                    "velocity": 0.6299212598425197,
                },
                {
                    "duration": 0.8489579937499911,
                    "durationTicks": 978,
                    "midi": 73,
                    "name": "C#5",
                    "ticks": 454080,
                    "time": 394.166509,
                    "velocity": 0.6299212598425197,
                },
                {
                    "duration": 0.8489579937499911,
                    "durationTicks": 978,
                    "midi": 66,
                    "name": "F#4",
                    "ticks": 455040,
                    "time": 394.999842,
                    "velocity": 0.6141732283464567,
                },
                {
                    "duration": 0.8489579937499911,
                    "durationTicks": 978,
                    "midi": 74,
                    "name": "D5",
                    "ticks": 455040,
                    "time": 394.999842,
                    "velocity": 0.6141732283464567,
                },
                {
                    "duration": 0.848957993750048,
                    "durationTicks": 978,
                    "midi": 68,
                    "name": "G#4",
                    "ticks": 456000,
                    "time": 395.833175,
                    "velocity": 0.5826771653543307,
                },
                {
                    "duration": 0.848957993750048,
                    "durationTicks": 978,
                    "midi": 76,
                    "name": "E5",
                    "ticks": 456000,
                    "time": 395.833175,
                    "velocity": 0.5826771653543307,
                },
                {
                    "duration": 1.5815965895833415,
                    "durationTicks": 1822,
                    "midi": 69,
                    "name": "A4",
                    "ticks": 456960,
                    "time": 396.666508,
                    "velocity": 0.48031496062992124,
                },
                {
                    "duration": 1.5815965895833415,
                    "durationTicks": 1822,
                    "midi": 73,
                    "name": "C#5",
                    "ticks": 456960,
                    "time": 396.666508,
                    "velocity": 0.48031496062992124,
                },
                {
                    "duration": 0.8489579937499911,
                    "durationTicks": 978,
                    "midi": 66,
                    "name": "F#4",
                    "ticks": 458880,
                    "time": 398.333174,
                    "velocity": 0.44881889763779526,
                },
                {
                    "duration": 0.8489579937499911,
                    "durationTicks": 978,
                    "midi": 74,
                    "name": "D5",
                    "ticks": 458880,
                    "time": 398.333174,
                    "velocity": 0.44881889763779526,
                },
                {
                    "duration": 0.848957993750048,
                    "durationTicks": 978,
                    "midi": 68,
                    "name": "G#4",
                    "ticks": 459840,
                    "time": 399.16650699999997,
                    "velocity": 0.4645669291338583,
                },
                {
                    "duration": 0.848957993750048,
                    "durationTicks": 978,
                    "midi": 76,
                    "name": "E5",
                    "ticks": 459840,
                    "time": 399.16650699999997,
                    "velocity": 0.4645669291338583,
                },
                {
                    "duration": 1.5815965895833415,
                    "durationTicks": 1822,
                    "midi": 69,
                    "name": "A4",
                    "ticks": 460800,
                    "time": 399.99984,
                    "velocity": 0.4330708661417323,
                },
                {
                    "duration": 1.5815965895833415,
                    "durationTicks": 1822,
                    "midi": 73,
                    "name": "C#5",
                    "ticks": 460800,
                    "time": 399.99984,
                    "velocity": 0.4330708661417323,
                },
                {
                    "duration": 0.848957993750048,
                    "durationTicks": 978,
                    "midi": 66,
                    "name": "F#4",
                    "ticks": 462720,
                    "time": 401.66650599999997,
                    "velocity": 0.48031496062992124,
                },
                {
                    "duration": 0.848957993750048,
                    "durationTicks": 978,
                    "midi": 74,
                    "name": "D5",
                    "ticks": 462720,
                    "time": 401.66650599999997,
                    "velocity": 0.48031496062992124,
                },
                {
                    "duration": 0.7907982947916707,
                    "durationTicks": 911,
                    "midi": 68,
                    "name": "G#4",
                    "ticks": 463680,
                    "time": 402.499839,
                    "velocity": 0.5275590551181102,
                },
                {
                    "duration": 0.7907982947916707,
                    "durationTicks": 911,
                    "midi": 76,
                    "name": "E5",
                    "ticks": 463680,
                    "time": 402.499839,
                    "velocity": 0.5275590551181102,
                },
                {
                    "duration": 0.8333329999999819,
                    "durationTicks": 960,
                    "midi": 69,
                    "name": "A4",
                    "ticks": 464640,
                    "time": 403.333172,
                    "velocity": 0.2125984251968504,
                },
                {
                    "duration": 0.2473957343750044,
                    "durationTicks": 285,
                    "midi": 69,
                    "name": "A4",
                    "ticks": 465600,
                    "time": 404.166505,
                    "velocity": 0.2755905511811024,
                },
                {
                    "duration": 0.2343749062500251,
                    "durationTicks": 270,
                    "midi": 69,
                    "name": "A4",
                    "ticks": 466080,
                    "time": 404.5831715,
                    "velocity": 0.2677165354330709,
                },
                {
                    "duration": 0.4973956343749819,
                    "durationTicks": 573,
                    "midi": 69,
                    "name": "A4",
                    "ticks": 466560,
                    "time": 404.999838,
                    "velocity": 0.25984251968503935,
                },
                {
                    "duration": 0.47135397812502333,
                    "durationTicks": 543,
                    "midi": 69,
                    "name": "A4",
                    "ticks": 467520,
                    "time": 405.833171,
                    "velocity": 0.2677165354330709,
                },
                {
                    "duration": 0.8333330000000387,
                    "durationTicks": 960,
                    "midi": 69,
                    "name": "A4",
                    "ticks": 468480,
                    "time": 406.666504,
                    "velocity": 0.2677165354330709,
                },
                {
                    "duration": 0.2473957343750044,
                    "durationTicks": 285,
                    "midi": 69,
                    "name": "A4",
                    "ticks": 469440,
                    "time": 407.499837,
                    "velocity": 0.29133858267716534,
                },
                {
                    "duration": 0.2343749062500251,
                    "durationTicks": 270,
                    "midi": 69,
                    "name": "A4",
                    "ticks": 469920,
                    "time": 407.9165035,
                    "velocity": 0.28346456692913385,
                },
                {
                    "duration": 0.4973956343749819,
                    "durationTicks": 573,
                    "midi": 69,
                    "name": "A4",
                    "ticks": 470400,
                    "time": 408.33317,
                    "velocity": 0.2677165354330709,
                },
                {
                    "duration": 0.47135397812502333,
                    "durationTicks": 543,
                    "midi": 69,
                    "name": "A4",
                    "ticks": 471360,
                    "time": 409.166503,
                    "velocity": 0.2440944881889764,
                },
                {
                    "duration": 0.8333329999999819,
                    "durationTicks": 960,
                    "midi": 71,
                    "name": "B4",
                    "ticks": 472320,
                    "time": 409.999836,
                    "velocity": 0.9921259842519685,
                },
                {
                    "duration": 0.8333329999999819,
                    "durationTicks": 960,
                    "midi": 74,
                    "name": "D5",
                    "ticks": 472320,
                    "time": 409.999836,
                    "velocity": 0.9921259842519685,
                },
                {
                    "duration": 0.2473957343750044,
                    "durationTicks": 285,
                    "midi": 69,
                    "name": "A4",
                    "ticks": 473280,
                    "time": 410.833169,
                    "velocity": 0.8582677165354331,
                },
                {
                    "duration": 0.2473957343750044,
                    "durationTicks": 285,
                    "midi": 72,
                    "name": "C5",
                    "ticks": 473280,
                    "time": 410.833169,
                    "velocity": 0.8582677165354331,
                },
                {
                    "duration": 0.2473957343750044,
                    "durationTicks": 285,
                    "midi": 71,
                    "name": "B4",
                    "ticks": 473760,
                    "time": 411.2498355,
                    "velocity": 0.9448818897637795,
                },
                {
                    "duration": 0.2473957343750044,
                    "durationTicks": 285,
                    "midi": 74,
                    "name": "D5",
                    "ticks": 473760,
                    "time": 411.2498355,
                    "velocity": 0.9448818897637795,
                },
                {
                    "duration": 0.41666650000001937,
                    "durationTicks": 480,
                    "midi": 72,
                    "name": "C5",
                    "ticks": 474240,
                    "time": 411.666502,
                    "velocity": 0.9448818897637795,
                },
                {
                    "duration": 0.41666650000001937,
                    "durationTicks": 480,
                    "midi": 76,
                    "name": "E5",
                    "ticks": 474240,
                    "time": 411.666502,
                    "velocity": 0.9448818897637795,
                },
                {
                    "duration": 0.8333329999999819,
                    "durationTicks": 960,
                    "midi": 71,
                    "name": "B4",
                    "ticks": 480000,
                    "time": 416.6665,
                    "velocity": 0.8031496062992126,
                },
                {
                    "duration": 0.8333329999999819,
                    "durationTicks": 960,
                    "midi": 74,
                    "name": "D5",
                    "ticks": 480000,
                    "time": 416.6665,
                    "velocity": 0.8031496062992126,
                },
                {
                    "duration": 0.2473957343750044,
                    "durationTicks": 285,
                    "midi": 69,
                    "name": "A4",
                    "ticks": 480960,
                    "time": 417.49983299999997,
                    "velocity": 0.8110236220472441,
                },
                {
                    "duration": 0.2473957343750044,
                    "durationTicks": 285,
                    "midi": 72,
                    "name": "C5",
                    "ticks": 480960,
                    "time": 417.49983299999997,
                    "velocity": 0.8110236220472441,
                },
                {
                    "duration": 0.2473957343750044,
                    "durationTicks": 285,
                    "midi": 71,
                    "name": "B4",
                    "ticks": 481440,
                    "time": 417.9164995,
                    "velocity": 0.937007874015748,
                },
                {
                    "duration": 0.2473957343750044,
                    "durationTicks": 285,
                    "midi": 74,
                    "name": "D5",
                    "ticks": 481440,
                    "time": 417.9164995,
                    "velocity": 0.937007874015748,
                },
                {
                    "duration": 0.4166664999999625,
                    "durationTicks": 480,
                    "midi": 72,
                    "name": "C5",
                    "ticks": 481920,
                    "time": 418.333166,
                    "velocity": 0.952755905511811,
                },
                {
                    "duration": 0.4166664999999625,
                    "durationTicks": 480,
                    "midi": 76,
                    "name": "E5",
                    "ticks": 481920,
                    "time": 418.333166,
                    "velocity": 0.952755905511811,
                },
                {
                    "duration": 0.8333329999999819,
                    "durationTicks": 960,
                    "midi": 68,
                    "name": "G#4",
                    "ticks": 491520,
                    "time": 426.666496,
                    "velocity": 0.2204724409448819,
                },
                {
                    "duration": 0.8333329999999819,
                    "durationTicks": 960,
                    "midi": 76,
                    "name": "E5",
                    "ticks": 491520,
                    "time": 426.666496,
                    "velocity": 0.2204724409448819,
                },
                {
                    "duration": 0.2473957343750044,
                    "durationTicks": 285,
                    "midi": 68,
                    "name": "G#4",
                    "ticks": 492480,
                    "time": 427.499829,
                    "velocity": 0.2992125984251969,
                },
                {
                    "duration": 0.2473957343750044,
                    "durationTicks": 285,
                    "midi": 76,
                    "name": "E5",
                    "ticks": 492480,
                    "time": 427.499829,
                    "velocity": 0.2992125984251969,
                },
                {
                    "duration": 0.2343749062500251,
                    "durationTicks": 270,
                    "midi": 68,
                    "name": "G#4",
                    "ticks": 492960,
                    "time": 427.9164955,
                    "velocity": 0.2755905511811024,
                },
                {
                    "duration": 0.2343749062500251,
                    "durationTicks": 270,
                    "midi": 76,
                    "name": "E5",
                    "ticks": 492960,
                    "time": 427.9164955,
                    "velocity": 0.2755905511811024,
                },
                {
                    "duration": 0.49739563437492507,
                    "durationTicks": 573,
                    "midi": 69,
                    "name": "A4",
                    "ticks": 493440,
                    "time": 428.333162,
                    "velocity": 0.28346456692913385,
                },
                {
                    "duration": 0.49739563437492507,
                    "durationTicks": 573,
                    "midi": 76,
                    "name": "E5",
                    "ticks": 493440,
                    "time": 428.333162,
                    "velocity": 0.28346456692913385,
                },
                {
                    "duration": 0.4713539781249665,
                    "durationTicks": 543,
                    "midi": 69,
                    "name": "A4",
                    "ticks": 494400,
                    "time": 429.166495,
                    "velocity": 0.25984251968503935,
                },
                {
                    "duration": 0.4713539781249665,
                    "durationTicks": 543,
                    "midi": 76,
                    "name": "E5",
                    "ticks": 494400,
                    "time": 429.166495,
                    "velocity": 0.25984251968503935,
                },
                {
                    "duration": 0.8333329999999819,
                    "durationTicks": 960,
                    "midi": 71,
                    "name": "B4",
                    "ticks": 506880,
                    "time": 439.999824,
                    "velocity": 0.29133858267716534,
                },
                {
                    "duration": 0.8333329999999819,
                    "durationTicks": 960,
                    "midi": 78,
                    "name": "F#5",
                    "ticks": 506880,
                    "time": 439.999824,
                    "velocity": 0.29133858267716534,
                },
                {
                    "duration": 0.2473957343750044,
                    "durationTicks": 285,
                    "midi": 71,
                    "name": "B4",
                    "ticks": 507840,
                    "time": 440.83315699999997,
                    "velocity": 0.2755905511811024,
                },
                {
                    "duration": 0.24999989999997752,
                    "durationTicks": 288,
                    "midi": 78,
                    "name": "F#5",
                    "ticks": 507840,
                    "time": 440.83315699999997,
                    "velocity": 0.2755905511811024,
                },
                {
                    "duration": 0.2343749062500251,
                    "durationTicks": 270,
                    "midi": 71,
                    "name": "B4",
                    "ticks": 508320,
                    "time": 441.2498235,
                    "velocity": 0.2992125984251969,
                },
                {
                    "duration": 0.2343749062500251,
                    "durationTicks": 270,
                    "midi": 80,
                    "name": "G#5",
                    "ticks": 508320,
                    "time": 441.2498235,
                    "velocity": 0.2992125984251969,
                },
                {
                    "duration": 0.49739563437492507,
                    "durationTicks": 573,
                    "midi": 69,
                    "name": "A4",
                    "ticks": 508800,
                    "time": 441.66649,
                    "velocity": 0.3228346456692913,
                },
                {
                    "duration": 0.49739563437492507,
                    "durationTicks": 573,
                    "midi": 81,
                    "name": "A5",
                    "ticks": 508800,
                    "time": 441.66649,
                    "velocity": 0.3228346456692913,
                },
                {
                    "duration": 0.4713539781249665,
                    "durationTicks": 543,
                    "midi": 69,
                    "name": "A4",
                    "ticks": 509760,
                    "time": 442.499823,
                    "velocity": 0.29133858267716534,
                },
                {
                    "duration": 0.4713539781249665,
                    "durationTicks": 543,
                    "midi": 81,
                    "name": "A5",
                    "ticks": 509760,
                    "time": 442.499823,
                    "velocity": 0.29133858267716534,
                },
                {
                    "duration": 0.8333329999999819,
                    "durationTicks": 960,
                    "midi": 71,
                    "name": "B4",
                    "ticks": 518400,
                    "time": 449.99982,
                    "velocity": 0.23622047244094488,
                },
                {
                    "duration": 0.8333329999999819,
                    "durationTicks": 960,
                    "midi": 74,
                    "name": "D5",
                    "ticks": 518400,
                    "time": 449.99982,
                    "velocity": 0.23622047244094488,
                },
                {
                    "duration": 0.2473957343750044,
                    "durationTicks": 285,
                    "midi": 71,
                    "name": "B4",
                    "ticks": 519360,
                    "time": 450.833153,
                    "velocity": 0.2677165354330709,
                },
                {
                    "duration": 0.2473957343750044,
                    "durationTicks": 285,
                    "midi": 74,
                    "name": "D5",
                    "ticks": 519360,
                    "time": 450.833153,
                    "velocity": 0.2677165354330709,
                },
                {
                    "duration": 0.2473957343750044,
                    "durationTicks": 285,
                    "midi": 71,
                    "name": "B4",
                    "ticks": 519840,
                    "time": 451.2498195,
                    "velocity": 0.25984251968503935,
                },
                {
                    "duration": 0.2473957343750044,
                    "durationTicks": 285,
                    "midi": 74,
                    "name": "D5",
                    "ticks": 519840,
                    "time": 451.2498195,
                    "velocity": 0.25984251968503935,
                },
                {
                    "duration": 0.8333329999999819,
                    "durationTicks": 960,
                    "midi": 69,
                    "name": "A4",
                    "ticks": 520320,
                    "time": 451.666486,
                    "velocity": 0.25984251968503935,
                },
                {
                    "duration": 0.8333329999999819,
                    "durationTicks": 960,
                    "midi": 72,
                    "name": "C5",
                    "ticks": 520320,
                    "time": 451.666486,
                    "velocity": 0.25984251968503935,
                },
                {
                    "duration": 4.713261499999987,
                    "durationTicks": 4320,
                    "midi": 64,
                    "name": "E4",
                    "ticks": 528000,
                    "time": 458.33315,
                    "velocity": 0.6299212598425197,
                },
                {
                    "duration": 4.713261499999987,
                    "durationTicks": 4320,
                    "midi": 69,
                    "name": "A4",
                    "ticks": 528000,
                    "time": 458.33315,
                    "velocity": 0.6299212598425197,
                },
            ],
        },
        {
            "channel": 1,
            "controlChanges": {
                "7": [
                    {"number": 7, "ticks": 0, "time": 0, "value": 0.6062992125984252},
                    {"number": 7, "ticks": 0, "time": 0, "value": 0.7480314960629921},
                    {
                        "number": 7,
                        "ticks": 806,
                        "time": 0.6996524979166666,
                        "value": 0.6692913385826772,
                    },
                    {
                        "number": 7,
                        "ticks": 1293,
                        "time": 1.122395384375,
                        "value": 0.5905511811023622,
                    },
                    {
                        "number": 7,
                        "ticks": 1920,
                        "time": 1.666666,
                        "value": 0.5118110236220472,
                    },
                    {
                        "number": 7,
                        "ticks": 2726,
                        "time": 2.3663184979166663,
                        "value": 0.4330708661417323,
                    },
                    {
                        "number": 7,
                        "ticks": 3836,
                        "time": 3.3298597791666666,
                        "value": 0.3543307086614173,
                    },
                    {
                        "number": 7,
                        "ticks": 4260,
                        "time": 3.6979151875,
                        "value": 0.2755905511811024,
                    },
                    {
                        "number": 7,
                        "ticks": 5760,
                        "time": 4.999998,
                        "value": 0.47244094488188976,
                    },
                    {
                        "number": 7,
                        "ticks": 528000,
                        "time": 458.33315,
                        "value": 0.7480314960629921,
                    },
                    {
                        "number": 7,
                        "ticks": 528480,
                        "time": 458.817021,
                        "value": 0.6692913385826772,
                    },
                    {
                        "number": 7,
                        "ticks": 528960,
                        "time": 459.300892,
                        "value": 0.5905511811023622,
                    },
                    {
                        "number": 7,
                        "ticks": 529916,
                        "time": 460.26460174166664,
                        "value": 0.5118110236220472,
                    },
                    {
                        "number": 7,
                        "ticks": 530366,
                        "time": 460.7848376520833,
                        "value": 0.3543307086614173,
                    },
                    {
                        "number": 7,
                        "ticks": 530861,
                        "time": 461.3577542614583,
                        "value": 0.2755905511811024,
                    },
                    {
                        "number": 7,
                        "ticks": 531840,
                        "time": 462.49085599999995,
                        "value": 0.1968503937007874,
                    },
                ],
                "10": [
                    {"number": 10, "ticks": 0, "time": 0, "value": 0.4251968503937008}
                ],
                "64": [{"number": 64, "ticks": 0, "time": 0, "value": 0}],
                "91": [
                    {"number": 91, "ticks": 0, "time": 0, "value": 0.4330708661417323}
                ],
                "121": [{"number": 121, "ticks": 0, "time": 0, "value": 0}],
            },
            "pitchBends": [],
            "instrument": {"family": "reed", "number": 68, "name": "oboe"},
            "name": "",
            "notes": [
                {
                    "duration": 4.166665,
                    "durationTicks": 4800,
                    "midi": 72,
                    "name": "C5",
                    "ticks": 0,
                    "time": 0,
                    "velocity": 0.6771653543307087,
                },
                {
                    "duration": 4.166665,
                    "durationTicks": 4800,
                    "midi": 76,
                    "name": "E5",
                    "ticks": 0,
                    "time": 0,
                    "velocity": 0.6771653543307087,
                },
                {
                    "duration": 0.8333330000000103,
                    "durationTicks": 960,
                    "midi": 76,
                    "name": "E5",
                    "ticks": 127680,
                    "time": 110.833289,
                    "velocity": 0.25196850393700787,
                },
                {
                    "duration": 0.8333330000000103,
                    "durationTicks": 960,
                    "midi": 79,
                    "name": "G5",
                    "ticks": 127680,
                    "time": 110.833289,
                    "velocity": 0.25196850393700787,
                },
                {
                    "duration": 0.8333329999999961,
                    "durationTicks": 960,
                    "midi": 75,
                    "name": "D#5",
                    "ticks": 129600,
                    "time": 112.499955,
                    "velocity": 0.2992125984251969,
                },
                {
                    "duration": 0.8333329999999961,
                    "durationTicks": 960,
                    "midi": 83,
                    "name": "B5",
                    "ticks": 129600,
                    "time": 112.499955,
                    "velocity": 0.2992125984251969,
                },
                {
                    "duration": 0.8333330000000103,
                    "durationTicks": 960,
                    "midi": 74,
                    "name": "D5",
                    "ticks": 131520,
                    "time": 114.16662099999999,
                    "velocity": 0.3937007874015748,
                },
                {
                    "duration": 0.8333330000000103,
                    "durationTicks": 960,
                    "midi": 78,
                    "name": "F#5",
                    "ticks": 131520,
                    "time": 114.16662099999999,
                    "velocity": 0.3937007874015748,
                },
                {
                    "duration": 0.8333329999999961,
                    "durationTicks": 960,
                    "midi": 72,
                    "name": "C5",
                    "ticks": 133440,
                    "time": 115.833287,
                    "velocity": 0.4566929133858268,
                },
                {
                    "duration": 0.8333329999999961,
                    "durationTicks": 960,
                    "midi": 81,
                    "name": "A5",
                    "ticks": 133440,
                    "time": 115.833287,
                    "velocity": 0.4566929133858268,
                },
                {
                    "duration": 0.8333329999999961,
                    "durationTicks": 960,
                    "midi": 72,
                    "name": "C5",
                    "ticks": 135360,
                    "time": 117.499953,
                    "velocity": 0.5590551181102362,
                },
                {
                    "duration": 0.8333329999999961,
                    "durationTicks": 960,
                    "midi": 76,
                    "name": "E5",
                    "ticks": 135360,
                    "time": 117.499953,
                    "velocity": 0.5590551181102362,
                },
                {
                    "duration": 0.8333329999999961,
                    "durationTicks": 960,
                    "midi": 72,
                    "name": "C5",
                    "ticks": 137280,
                    "time": 119.166619,
                    "velocity": 0.6141732283464567,
                },
                {
                    "duration": 0.8333329999999961,
                    "durationTicks": 960,
                    "midi": 76,
                    "name": "E5",
                    "ticks": 137280,
                    "time": 119.166619,
                    "velocity": 0.6141732283464567,
                },
                {
                    "duration": 0.8333329999999961,
                    "durationTicks": 960,
                    "midi": 71,
                    "name": "B4",
                    "ticks": 139200,
                    "time": 120.833285,
                    "velocity": 0.6771653543307087,
                },
                {
                    "duration": 0.8333329999999961,
                    "durationTicks": 960,
                    "midi": 76,
                    "name": "E5",
                    "ticks": 139200,
                    "time": 120.833285,
                    "velocity": 0.6771653543307087,
                },
                {
                    "duration": 0.8333329999999961,
                    "durationTicks": 960,
                    "midi": 72,
                    "name": "C5",
                    "ticks": 141120,
                    "time": 122.499951,
                    "velocity": 0.7480314960629921,
                },
                {
                    "duration": 0.8333329999999961,
                    "durationTicks": 960,
                    "midi": 76,
                    "name": "E5",
                    "ticks": 141120,
                    "time": 122.499951,
                    "velocity": 0.7480314960629921,
                },
                {
                    "duration": 0.8333330000000103,
                    "durationTicks": 960,
                    "midi": 76,
                    "name": "E5",
                    "ticks": 142080,
                    "time": 123.33328399999999,
                    "velocity": 0.8661417322834646,
                },
                {
                    "duration": 0.24739573437499018,
                    "durationTicks": 285,
                    "midi": 76,
                    "name": "E5",
                    "ticks": 143040,
                    "time": 124.166617,
                    "velocity": 0.905511811023622,
                },
                {
                    "duration": 0.2473957343750044,
                    "durationTicks": 285,
                    "midi": 76,
                    "name": "E5",
                    "ticks": 143520,
                    "time": 124.5832835,
                    "velocity": 0.889763779527559,
                },
                {
                    "duration": 0.49739563437501033,
                    "durationTicks": 573,
                    "midi": 76,
                    "name": "E5",
                    "ticks": 144000,
                    "time": 124.99995,
                    "velocity": 0.905511811023622,
                },
                {
                    "duration": 0.4713539781250091,
                    "durationTicks": 543,
                    "midi": 76,
                    "name": "E5",
                    "ticks": 144960,
                    "time": 125.833283,
                    "velocity": 0.8661417322834646,
                },
                {
                    "duration": 0.8333329999999961,
                    "durationTicks": 960,
                    "midi": 76,
                    "name": "E5",
                    "ticks": 145920,
                    "time": 126.666616,
                    "velocity": 0.8740157480314961,
                },
                {
                    "duration": 0.2473957343750044,
                    "durationTicks": 285,
                    "midi": 76,
                    "name": "E5",
                    "ticks": 146880,
                    "time": 127.499949,
                    "velocity": 0.8661417322834646,
                },
                {
                    "duration": 0.2473957343750186,
                    "durationTicks": 285,
                    "midi": 76,
                    "name": "E5",
                    "ticks": 147360,
                    "time": 127.91661549999999,
                    "velocity": 0.9212598425196851,
                },
                {
                    "duration": 0.49739563437501033,
                    "durationTicks": 573,
                    "midi": 76,
                    "name": "E5",
                    "ticks": 147840,
                    "time": 128.333282,
                    "velocity": 0.8740157480314961,
                },
                {
                    "duration": 0.4713539781249949,
                    "durationTicks": 543,
                    "midi": 76,
                    "name": "E5",
                    "ticks": 148800,
                    "time": 129.166615,
                    "velocity": 0.8976377952755905,
                },
                {
                    "duration": 0.8333330000000103,
                    "durationTicks": 960,
                    "midi": 76,
                    "name": "E5",
                    "ticks": 149760,
                    "time": 129.999948,
                    "velocity": 0.889763779527559,
                },
                {
                    "duration": 0.2473957343750044,
                    "durationTicks": 285,
                    "midi": 76,
                    "name": "E5",
                    "ticks": 150720,
                    "time": 130.833281,
                    "velocity": 0.8976377952755905,
                },
                {
                    "duration": 0.2473957343750044,
                    "durationTicks": 285,
                    "midi": 78,
                    "name": "F#5",
                    "ticks": 151200,
                    "time": 131.2499475,
                    "velocity": 0.9291338582677166,
                },
                {
                    "duration": 0.49739563437501033,
                    "durationTicks": 573,
                    "midi": 79,
                    "name": "G5",
                    "ticks": 151680,
                    "time": 131.666614,
                    "velocity": 0.9291338582677166,
                },
                {
                    "duration": 0.47135397812502333,
                    "durationTicks": 543,
                    "midi": 79,
                    "name": "G5",
                    "ticks": 152640,
                    "time": 132.499947,
                    "velocity": 0.8976377952755905,
                },
                {
                    "duration": 0.8333330000000103,
                    "durationTicks": 960,
                    "midi": 79,
                    "name": "G5",
                    "ticks": 153600,
                    "time": 133.33328,
                    "velocity": 0.8740157480314961,
                },
                {
                    "duration": 0.24739573437497597,
                    "durationTicks": 285,
                    "midi": 79,
                    "name": "G5",
                    "ticks": 154560,
                    "time": 134.166613,
                    "velocity": 0.8661417322834646,
                },
                {
                    "duration": 0.2473957343750044,
                    "durationTicks": 285,
                    "midi": 79,
                    "name": "G5",
                    "ticks": 155040,
                    "time": 134.5832795,
                    "velocity": 0.8976377952755905,
                },
                {
                    "duration": 0.8333330000000103,
                    "durationTicks": 960,
                    "midi": 79,
                    "name": "G5",
                    "ticks": 155520,
                    "time": 134.999946,
                    "velocity": 0.8976377952755905,
                },
                {
                    "duration": 0.8333330000000103,
                    "durationTicks": 960,
                    "midi": 67,
                    "name": "G4",
                    "ticks": 157440,
                    "time": 136.666612,
                    "velocity": 0.7716535433070866,
                },
                {
                    "duration": 0.8333330000000103,
                    "durationTicks": 960,
                    "midi": 79,
                    "name": "G5",
                    "ticks": 157440,
                    "time": 136.666612,
                    "velocity": 0.7716535433070866,
                },
                {
                    "duration": 0.2473957343750044,
                    "durationTicks": 285,
                    "midi": 67,
                    "name": "G4",
                    "ticks": 158400,
                    "time": 137.499945,
                    "velocity": 0.8976377952755905,
                },
                {
                    "duration": 0.2473957343750044,
                    "durationTicks": 285,
                    "midi": 79,
                    "name": "G5",
                    "ticks": 158400,
                    "time": 137.499945,
                    "velocity": 0.8976377952755905,
                },
                {
                    "duration": 0.2473957343750044,
                    "durationTicks": 285,
                    "midi": 69,
                    "name": "A4",
                    "ticks": 158880,
                    "time": 137.9166115,
                    "velocity": 0.968503937007874,
                },
                {
                    "duration": 0.2473957343750044,
                    "durationTicks": 285,
                    "midi": 81,
                    "name": "A5",
                    "ticks": 158880,
                    "time": 137.9166115,
                    "velocity": 0.968503937007874,
                },
                {
                    "duration": 0.49739563437501033,
                    "durationTicks": 573,
                    "midi": 71,
                    "name": "B4",
                    "ticks": 159360,
                    "time": 138.333278,
                    "velocity": 0.952755905511811,
                },
                {
                    "duration": 0.49739563437501033,
                    "durationTicks": 573,
                    "midi": 83,
                    "name": "B5",
                    "ticks": 159360,
                    "time": 138.333278,
                    "velocity": 0.952755905511811,
                },
                {
                    "duration": 0.47135397812502333,
                    "durationTicks": 543,
                    "midi": 71,
                    "name": "B4",
                    "ticks": 160320,
                    "time": 139.166611,
                    "velocity": 0.9212598425196851,
                },
                {
                    "duration": 0.47135397812502333,
                    "durationTicks": 543,
                    "midi": 83,
                    "name": "B5",
                    "ticks": 160320,
                    "time": 139.166611,
                    "velocity": 0.9212598425196851,
                },
                {
                    "duration": 0.8333330000000103,
                    "durationTicks": 960,
                    "midi": 66,
                    "name": "F#4",
                    "ticks": 161280,
                    "time": 139.999944,
                    "velocity": 0.7637795275590551,
                },
                {
                    "duration": 0.8333330000000103,
                    "durationTicks": 960,
                    "midi": 78,
                    "name": "F#5",
                    "ticks": 161280,
                    "time": 139.999944,
                    "velocity": 0.7637795275590551,
                },
                {
                    "duration": 0.24739573437497597,
                    "durationTicks": 285,
                    "midi": 66,
                    "name": "F#4",
                    "ticks": 162240,
                    "time": 140.833277,
                    "velocity": 0.8661417322834646,
                },
                {
                    "duration": 0.24739573437497597,
                    "durationTicks": 285,
                    "midi": 78,
                    "name": "F#5",
                    "ticks": 162240,
                    "time": 140.833277,
                    "velocity": 0.8661417322834646,
                },
                {
                    "duration": 0.2473957343750044,
                    "durationTicks": 285,
                    "midi": 68,
                    "name": "G#4",
                    "ticks": 162720,
                    "time": 141.2499435,
                    "velocity": 0.9291338582677166,
                },
                {
                    "duration": 0.2473957343750044,
                    "durationTicks": 285,
                    "midi": 80,
                    "name": "G#5",
                    "ticks": 162720,
                    "time": 141.2499435,
                    "velocity": 0.9291338582677166,
                },
                {
                    "duration": 0.49739563437501033,
                    "durationTicks": 573,
                    "midi": 69,
                    "name": "A4",
                    "ticks": 163200,
                    "time": 141.66661,
                    "velocity": 0.952755905511811,
                },
                {
                    "duration": 0.49739563437501033,
                    "durationTicks": 573,
                    "midi": 81,
                    "name": "A5",
                    "ticks": 163200,
                    "time": 141.66661,
                    "velocity": 0.952755905511811,
                },
                {
                    "duration": 0.4713539781249949,
                    "durationTicks": 543,
                    "midi": 69,
                    "name": "A4",
                    "ticks": 164160,
                    "time": 142.499943,
                    "velocity": 0.889763779527559,
                },
                {
                    "duration": 0.4713539781249949,
                    "durationTicks": 543,
                    "midi": 81,
                    "name": "A5",
                    "ticks": 164160,
                    "time": 142.499943,
                    "velocity": 0.889763779527559,
                },
                {
                    "duration": 0.8333329999999819,
                    "durationTicks": 960,
                    "midi": 76,
                    "name": "E5",
                    "ticks": 165120,
                    "time": 143.333276,
                    "velocity": 0.7322834645669292,
                },
                {
                    "duration": 0.2473957343750044,
                    "durationTicks": 285,
                    "midi": 76,
                    "name": "E5",
                    "ticks": 166080,
                    "time": 144.166609,
                    "velocity": 0.8661417322834646,
                },
                {
                    "duration": 0.2473957343750044,
                    "durationTicks": 285,
                    "midi": 76,
                    "name": "E5",
                    "ticks": 166560,
                    "time": 144.58327549999998,
                    "velocity": 0.8582677165354331,
                },
                {
                    "duration": 0.49739563437501033,
                    "durationTicks": 573,
                    "midi": 76,
                    "name": "E5",
                    "ticks": 167040,
                    "time": 144.999942,
                    "velocity": 0.8818897637795275,
                },
                {
                    "duration": 0.47135397812502333,
                    "durationTicks": 543,
                    "midi": 76,
                    "name": "E5",
                    "ticks": 168000,
                    "time": 145.833275,
                    "velocity": 0.8661417322834646,
                },
                {
                    "duration": 0.8333330000000103,
                    "durationTicks": 960,
                    "midi": 76,
                    "name": "E5",
                    "ticks": 168960,
                    "time": 146.666608,
                    "velocity": 0.8976377952755905,
                },
                {
                    "duration": 0.2473957343750044,
                    "durationTicks": 285,
                    "midi": 78,
                    "name": "F#5",
                    "ticks": 169920,
                    "time": 147.499941,
                    "velocity": 0.9606299212598425,
                },
                {
                    "duration": 0.2473957343750044,
                    "durationTicks": 285,
                    "midi": 80,
                    "name": "G#5",
                    "ticks": 170400,
                    "time": 147.9166075,
                    "velocity": 0.9448818897637795,
                },
                {
                    "duration": 0.8333330000000103,
                    "durationTicks": 960,
                    "midi": 81,
                    "name": "A5",
                    "ticks": 170880,
                    "time": 148.333274,
                    "velocity": 0.937007874015748,
                },
                {
                    "duration": 0.8333329999999819,
                    "durationTicks": 960,
                    "midi": 79,
                    "name": "G5",
                    "ticks": 172800,
                    "time": 149.99994,
                    "velocity": 0.7086614173228346,
                },
                {
                    "duration": 0.2473957343750044,
                    "durationTicks": 285,
                    "midi": 79,
                    "name": "G5",
                    "ticks": 173760,
                    "time": 150.833273,
                    "velocity": 0.7952755905511811,
                },
                {
                    "duration": 0.24739573437497597,
                    "durationTicks": 285,
                    "midi": 81,
                    "name": "A5",
                    "ticks": 174240,
                    "time": 151.2499395,
                    "velocity": 0.8818897637795275,
                },
                {
                    "duration": 0.49739563437501033,
                    "durationTicks": 573,
                    "midi": 83,
                    "name": "B5",
                    "ticks": 174720,
                    "time": 151.666606,
                    "velocity": 0.8661417322834646,
                },
                {
                    "duration": 0.4713539781249949,
                    "durationTicks": 543,
                    "midi": 83,
                    "name": "B5",
                    "ticks": 175680,
                    "time": 152.499939,
                    "velocity": 0.7716535433070866,
                },
                {
                    "duration": 0.8333330000000103,
                    "durationTicks": 960,
                    "midi": 78,
                    "name": "F#5",
                    "ticks": 176640,
                    "time": 153.333272,
                    "velocity": 0.6377952755905512,
                },
                {
                    "duration": 0.2473957343750044,
                    "durationTicks": 285,
                    "midi": 78,
                    "name": "F#5",
                    "ticks": 177600,
                    "time": 154.166605,
                    "velocity": 0.7007874015748031,
                },
                {
                    "duration": 0.2473957343750044,
                    "durationTicks": 285,
                    "midi": 80,
                    "name": "G#5",
                    "ticks": 178080,
                    "time": 154.5832715,
                    "velocity": 0.7165354330708661,
                },
                {
                    "duration": 0.49739563437501033,
                    "durationTicks": 573,
                    "midi": 81,
                    "name": "A5",
                    "ticks": 178560,
                    "time": 154.999938,
                    "velocity": 0.6929133858267716,
                },
                {
                    "duration": 0.47135397812502333,
                    "durationTicks": 543,
                    "midi": 81,
                    "name": "A5",
                    "ticks": 179520,
                    "time": 155.833271,
                    "velocity": 0.6456692913385826,
                },
                {
                    "duration": 0.8333329999999819,
                    "durationTicks": 960,
                    "midi": 76,
                    "name": "E5",
                    "ticks": 180480,
                    "time": 156.666604,
                    "velocity": 0.4881889763779528,
                },
                {
                    "duration": 0.2473957343750044,
                    "durationTicks": 285,
                    "midi": 76,
                    "name": "E5",
                    "ticks": 181440,
                    "time": 157.499937,
                    "velocity": 0.5826771653543307,
                },
                {
                    "duration": 0.2473957343750044,
                    "durationTicks": 285,
                    "midi": 76,
                    "name": "E5",
                    "ticks": 181920,
                    "time": 157.9166035,
                    "velocity": 0.5826771653543307,
                },
                {
                    "duration": 0.49739563437501033,
                    "durationTicks": 573,
                    "midi": 76,
                    "name": "E5",
                    "ticks": 182400,
                    "time": 158.33327,
                    "velocity": 0.5826771653543307,
                },
                {
                    "duration": 0.4713539781249949,
                    "durationTicks": 543,
                    "midi": 76,
                    "name": "E5",
                    "ticks": 183360,
                    "time": 159.166603,
                    "velocity": 0.5196850393700787,
                },
                {
                    "duration": 0.8333330000000103,
                    "durationTicks": 960,
                    "midi": 76,
                    "name": "E5",
                    "ticks": 184320,
                    "time": 159.999936,
                    "velocity": 0.48031496062992124,
                },
                {
                    "duration": 0.2473957343750044,
                    "durationTicks": 285,
                    "midi": 78,
                    "name": "F#5",
                    "ticks": 185280,
                    "time": 160.833269,
                    "velocity": 0.47244094488188976,
                },
                {
                    "duration": 0.2473957343750044,
                    "durationTicks": 285,
                    "midi": 80,
                    "name": "G#5",
                    "ticks": 185760,
                    "time": 161.2499355,
                    "velocity": 0.3937007874015748,
                },
                {
                    "duration": 1.6666659999999922,
                    "durationTicks": 1920,
                    "midi": 81,
                    "name": "A5",
                    "ticks": 186240,
                    "time": 161.666602,
                    "velocity": 0.4094488188976378,
                },
                {
                    "duration": 0.8333329999999819,
                    "durationTicks": 960,
                    "midi": 76,
                    "name": "E5",
                    "ticks": 188160,
                    "time": 163.333268,
                    "velocity": 0.3228346456692913,
                },
                {
                    "duration": 0.2473957343750044,
                    "durationTicks": 285,
                    "midi": 78,
                    "name": "F#5",
                    "ticks": 189120,
                    "time": 164.16660099999999,
                    "velocity": 0.41732283464566927,
                },
                {
                    "duration": 0.41666650000001937,
                    "durationTicks": 480,
                    "midi": 76,
                    "name": "E5",
                    "ticks": 189120,
                    "time": 164.16660099999999,
                    "velocity": 0.3858267716535433,
                },
                {
                    "duration": 0.2473957343750044,
                    "durationTicks": 285,
                    "midi": 80,
                    "name": "G#5",
                    "ticks": 189600,
                    "time": 164.5832675,
                    "velocity": 0.3937007874015748,
                },
                {
                    "duration": 0.41666649999999095,
                    "durationTicks": 480,
                    "midi": 76,
                    "name": "E5",
                    "ticks": 189600,
                    "time": 164.5832675,
                    "velocity": 0.3858267716535433,
                },
                {
                    "duration": 0.8333330000000103,
                    "durationTicks": 960,
                    "midi": 81,
                    "name": "A5",
                    "ticks": 190080,
                    "time": 164.999934,
                    "velocity": 0.3858267716535433,
                },
                {
                    "duration": 0.8333330000000103,
                    "durationTicks": 960,
                    "midi": 76,
                    "name": "E5",
                    "ticks": 190080,
                    "time": 164.999934,
                    "velocity": 0.3543307086614173,
                },
                {
                    "duration": 3.333332000000013,
                    "durationTicks": 3840,
                    "midi": 76,
                    "name": "E5",
                    "ticks": 210240,
                    "time": 182.49992699999999,
                    "velocity": 0.36220472440944884,
                },
                {
                    "duration": 3.333332000000013,
                    "durationTicks": 3840,
                    "midi": 79,
                    "name": "G5",
                    "ticks": 210240,
                    "time": 182.49992699999999,
                    "velocity": 0.36220472440944884,
                },
                {
                    "duration": 0.37065957395833493,
                    "durationTicks": 427,
                    "midi": 74,
                    "name": "D5",
                    "ticks": 214080,
                    "time": 185.833259,
                    "velocity": 0.4015748031496063,
                },
                {
                    "duration": 0.37065957395833493,
                    "durationTicks": 427,
                    "midi": 78,
                    "name": "F#5",
                    "ticks": 214080,
                    "time": 185.833259,
                    "velocity": 0.4015748031496063,
                },
                {
                    "duration": 0.8489579937499911,
                    "durationTicks": 978,
                    "midi": 81,
                    "name": "A5",
                    "ticks": 217920,
                    "time": 189.166591,
                    "velocity": 0.4409448818897638,
                },
                {
                    "duration": 0.8489579937499911,
                    "durationTicks": 978,
                    "midi": 85,
                    "name": "C#6",
                    "ticks": 217920,
                    "time": 189.166591,
                    "velocity": 0.4409448818897638,
                },
                {
                    "duration": 0.8489579937500196,
                    "durationTicks": 978,
                    "midi": 80,
                    "name": "G#5",
                    "ticks": 218880,
                    "time": 189.999924,
                    "velocity": 0.4330708661417323,
                },
                {
                    "duration": 0.8489579937500196,
                    "durationTicks": 978,
                    "midi": 83,
                    "name": "B5",
                    "ticks": 218880,
                    "time": 189.999924,
                    "velocity": 0.4330708661417323,
                },
                {
                    "duration": 0.8489579937499911,
                    "durationTicks": 978,
                    "midi": 78,
                    "name": "F#5",
                    "ticks": 219840,
                    "time": 190.833257,
                    "velocity": 0.4251968503937008,
                },
                {
                    "duration": 0.8489579937499911,
                    "durationTicks": 978,
                    "midi": 81,
                    "name": "A5",
                    "ticks": 219840,
                    "time": 190.833257,
                    "velocity": 0.4251968503937008,
                },
                {
                    "duration": 0.7907982947916707,
                    "durationTicks": 911,
                    "midi": 76,
                    "name": "E5",
                    "ticks": 220800,
                    "time": 191.66658999999999,
                    "velocity": 0.33070866141732286,
                },
                {
                    "duration": 0.7907982947916707,
                    "durationTicks": 911,
                    "midi": 80,
                    "name": "G#5",
                    "ticks": 220800,
                    "time": 191.66658999999999,
                    "velocity": 0.33070866141732286,
                },
                {
                    "duration": 2.3723948843750122,
                    "durationTicks": 2733,
                    "midi": 76,
                    "name": "E5",
                    "ticks": 234240,
                    "time": 203.333252,
                    "velocity": 0.6377952755905512,
                },
                {
                    "duration": 1.698784042708354,
                    "durationTicks": 1957,
                    "midi": 70,
                    "name": "A#4",
                    "ticks": 234240,
                    "time": 203.333252,
                    "velocity": 0.4645669291338583,
                },
                {
                    "duration": 1.4999994000000072,
                    "durationTicks": 1728,
                    "midi": 71,
                    "name": "B4",
                    "ticks": 236160,
                    "time": 204.999918,
                    "velocity": 0.5748031496062992,
                },
                {
                    "duration": 0.42274288645833735,
                    "durationTicks": 487,
                    "midi": 78,
                    "name": "F#5",
                    "ticks": 237120,
                    "time": 205.833251,
                    "velocity": 0.7716535433070866,
                },
                {
                    "duration": 0.3932290093750055,
                    "durationTicks": 453,
                    "midi": 76,
                    "name": "E5",
                    "ticks": 237600,
                    "time": 206.2499175,
                    "velocity": 0.7244094488188977,
                },
                {
                    "duration": 2.3723948843750122,
                    "durationTicks": 2733,
                    "midi": 76,
                    "name": "E5",
                    "ticks": 238080,
                    "time": 206.666584,
                    "velocity": 0.7086614173228346,
                },
                {
                    "duration": 1.6987840427083256,
                    "durationTicks": 1957,
                    "midi": 70,
                    "name": "A#4",
                    "ticks": 238080,
                    "time": 206.666584,
                    "velocity": 0.5826771653543307,
                },
                {
                    "duration": 1.4999994000000072,
                    "durationTicks": 1728,
                    "midi": 71,
                    "name": "B4",
                    "ticks": 240000,
                    "time": 208.33325,
                    "velocity": 0.7244094488188977,
                },
                {
                    "duration": 0.2795137770833378,
                    "durationTicks": 322,
                    "midi": 80,
                    "name": "G#5",
                    "ticks": 240960,
                    "time": 209.166583,
                    "velocity": 0.8110236220472441,
                },
                {
                    "duration": 0.2803818322916811,
                    "durationTicks": 323,
                    "midi": 78,
                    "name": "F#5",
                    "ticks": 241278,
                    "time": 209.44262455625,
                    "velocity": 0.7322834645669292,
                },
                {
                    "duration": 0.26388878333332855,
                    "durationTicks": 304,
                    "midi": 76,
                    "name": "E5",
                    "ticks": 241597,
                    "time": 209.71953416770833,
                    "velocity": 0.6535433070866141,
                },
                {
                    "duration": 2.372394884374984,
                    "durationTicks": 2733,
                    "midi": 76,
                    "name": "E5",
                    "ticks": 249600,
                    "time": 216.66658,
                    "velocity": 0.4015748031496063,
                },
                {
                    "duration": 1.6987840427083256,
                    "durationTicks": 1957,
                    "midi": 70,
                    "name": "A#4",
                    "ticks": 249600,
                    "time": 216.66658,
                    "velocity": 0.4015748031496063,
                },
                {
                    "duration": 1.5815965895833415,
                    "durationTicks": 1822,
                    "midi": 71,
                    "name": "B4",
                    "ticks": 251520,
                    "time": 218.333246,
                    "velocity": 0.5354330708661418,
                },
                {
                    "duration": 0.41666650000001937,
                    "durationTicks": 480,
                    "midi": 78,
                    "name": "F#5",
                    "ticks": 252480,
                    "time": 219.16657899999998,
                    "velocity": 0.6220472440944882,
                },
                {
                    "duration": 0.41666649999999095,
                    "durationTicks": 480,
                    "midi": 76,
                    "name": "E5",
                    "ticks": 252960,
                    "time": 219.5832455,
                    "velocity": 0.6062992125984252,
                },
                {
                    "duration": 2.3723948843750122,
                    "durationTicks": 2733,
                    "midi": 76,
                    "name": "E5",
                    "ticks": 253440,
                    "time": 219.999912,
                    "velocity": 0.6771653543307087,
                },
                {
                    "duration": 1.698784042708354,
                    "durationTicks": 1957,
                    "midi": 70,
                    "name": "A#4",
                    "ticks": 253440,
                    "time": 219.999912,
                    "velocity": 0.6850393700787402,
                },
                {
                    "duration": 1.4999994000000072,
                    "durationTicks": 1728,
                    "midi": 71,
                    "name": "B4",
                    "ticks": 255360,
                    "time": 221.666578,
                    "velocity": 0.8976377952755905,
                },
                {
                    "duration": 0.2795137770833378,
                    "durationTicks": 322,
                    "midi": 80,
                    "name": "G#5",
                    "ticks": 256320,
                    "time": 222.499911,
                    "velocity": 0.9448818897637795,
                },
                {
                    "duration": 0.2803818322916527,
                    "durationTicks": 323,
                    "midi": 78,
                    "name": "F#5",
                    "ticks": 256638,
                    "time": 222.77595255625002,
                    "velocity": 0.889763779527559,
                },
                {
                    "duration": 0.26388878333332855,
                    "durationTicks": 304,
                    "midi": 76,
                    "name": "E5",
                    "ticks": 256957,
                    "time": 223.05286216770833,
                    "velocity": 0.7874015748031497,
                },
                {
                    "duration": 1.9427075562499851,
                    "durationTicks": 2238,
                    "midi": 76,
                    "name": "E5",
                    "ticks": 257280,
                    "time": 223.333244,
                    "velocity": 0.8661417322834646,
                },
                {
                    "duration": 0.2803818322916811,
                    "durationTicks": 323,
                    "midi": 77,
                    "name": "F5",
                    "ticks": 259518,
                    "time": 225.27595155625,
                    "velocity": 0.7007874015748031,
                },
                {
                    "duration": 0.28298599791668266,
                    "durationTicks": 326,
                    "midi": 76,
                    "name": "E5",
                    "ticks": 259837,
                    "time": 225.55286116770833,
                    "velocity": 0.6456692913385826,
                },
                {
                    "duration": 0.2795137770833378,
                    "durationTicks": 322,
                    "midi": 79,
                    "name": "G5",
                    "ticks": 260160,
                    "time": 225.833243,
                    "velocity": 0.6377952755905512,
                },
                {
                    "duration": 0.2803818322916527,
                    "durationTicks": 323,
                    "midi": 77,
                    "name": "F5",
                    "ticks": 260478,
                    "time": 226.10928455625,
                    "velocity": 0.5118110236220472,
                },
                {
                    "duration": 0.26388878333332855,
                    "durationTicks": 304,
                    "midi": 69,
                    "name": "A4",
                    "ticks": 260797,
                    "time": 226.38619416770834,
                    "velocity": 0.5039370078740157,
                },
                {
                    "duration": 0.8489579937500196,
                    "durationTicks": 978,
                    "midi": 72,
                    "name": "C5",
                    "ticks": 261120,
                    "time": 226.666576,
                    "velocity": 0.4015748031496063,
                },
                {
                    "duration": 0.42274288645833735,
                    "durationTicks": 487,
                    "midi": 76,
                    "name": "E5",
                    "ticks": 262080,
                    "time": 227.499909,
                    "velocity": 0.6614173228346457,
                },
                {
                    "duration": 0.3932290093750055,
                    "durationTicks": 453,
                    "midi": 74,
                    "name": "D5",
                    "ticks": 262560,
                    "time": 227.9165755,
                    "velocity": 0.5748031496062992,
                },
                {
                    "duration": 0.8333330000000103,
                    "durationTicks": 960,
                    "midi": 72,
                    "name": "C5",
                    "ticks": 263040,
                    "time": 228.33324199999998,
                    "velocity": 0.5590551181102362,
                },
                {
                    "duration": 1.2499995000000013,
                    "durationTicks": 1440,
                    "midi": 77,
                    "name": "F5",
                    "ticks": 264960,
                    "time": 229.999908,
                    "velocity": 0.5275590551181102,
                },
                {
                    "duration": 0.41666649999999095,
                    "durationTicks": 480,
                    "midi": 77,
                    "name": "F5",
                    "ticks": 266400,
                    "time": 231.2499075,
                    "velocity": 0.6299212598425197,
                },
                {
                    "duration": 0.2795137770833378,
                    "durationTicks": 322,
                    "midi": 77,
                    "name": "F5",
                    "ticks": 266880,
                    "time": 231.666574,
                    "velocity": 0.6456692913385826,
                },
                {
                    "duration": 0.2604165624999837,
                    "durationTicks": 300,
                    "midi": 76,
                    "name": "E5",
                    "ticks": 267198,
                    "time": 231.94261555625002,
                    "velocity": 0.5748031496062992,
                },
                {
                    "duration": 0.1657985447916701,
                    "durationTicks": 191,
                    "midi": 74,
                    "name": "D5",
                    "ticks": 267517,
                    "time": 232.21952516770833,
                    "velocity": 0.5826771653543307,
                },
                {
                    "duration": 0.1657985447916701,
                    "durationTicks": 191,
                    "midi": 72,
                    "name": "C5",
                    "ticks": 267840,
                    "time": 232.499907,
                    "velocity": 0.6062992125984252,
                },
                {
                    "duration": 0.166666599999985,
                    "durationTicks": 192,
                    "midi": 71,
                    "name": "B4",
                    "ticks": 268158,
                    "time": 232.77594855625,
                    "velocity": 0.6141732283464567,
                },
                {
                    "duration": 0.1657985447916701,
                    "durationTicks": 191,
                    "midi": 69,
                    "name": "A4",
                    "ticks": 268477,
                    "time": 233.05285816770834,
                    "velocity": 0.5669291338582677,
                },
                {
                    "duration": 0.8489579937500196,
                    "durationTicks": 978,
                    "midi": 67,
                    "name": "G4",
                    "ticks": 268800,
                    "time": 233.33324,
                    "velocity": 0.6062992125984252,
                },
                {
                    "duration": 0.3932290093750055,
                    "durationTicks": 453,
                    "midi": 69,
                    "name": "A4",
                    "ticks": 269760,
                    "time": 234.166573,
                    "velocity": 0.6535433070866141,
                },
                {
                    "duration": 0.2473957343750044,
                    "durationTicks": 285,
                    "midi": 71,
                    "name": "B4",
                    "ticks": 270240,
                    "time": 234.5832395,
                    "velocity": 0.6771653543307087,
                },
                {
                    "duration": 1.1093745562500033,
                    "durationTicks": 1278,
                    "midi": 72,
                    "name": "C5",
                    "ticks": 270720,
                    "time": 234.999906,
                    "velocity": 0.6850393700787402,
                },
                {
                    "duration": 0.2803818322916527,
                    "durationTicks": 323,
                    "midi": 74,
                    "name": "D5",
                    "ticks": 271998,
                    "time": 236.10928055625,
                    "velocity": 0.6929133858267716,
                },
                {
                    "duration": 0.26388878333332855,
                    "durationTicks": 304,
                    "midi": 76,
                    "name": "E5",
                    "ticks": 272317,
                    "time": 236.38619016770835,
                    "velocity": 0.7244094488188977,
                },
                {
                    "duration": 1.2499995000000013,
                    "durationTicks": 1440,
                    "midi": 77,
                    "name": "F5",
                    "ticks": 272640,
                    "time": 236.666572,
                    "velocity": 0.7480314960629921,
                },
                {
                    "duration": 0.41666649999999095,
                    "durationTicks": 480,
                    "midi": 77,
                    "name": "F5",
                    "ticks": 274080,
                    "time": 237.9165715,
                    "velocity": 0.6850393700787402,
                },
                {
                    "duration": 0.1657985447916701,
                    "durationTicks": 191,
                    "midi": 77,
                    "name": "F5",
                    "ticks": 274560,
                    "time": 238.333238,
                    "velocity": 0.7559055118110236,
                },
                {
                    "duration": 0.166666599999985,
                    "durationTicks": 192,
                    "midi": 76,
                    "name": "E5",
                    "ticks": 274878,
                    "time": 238.60927955625002,
                    "velocity": 0.7322834645669292,
                },
                {
                    "duration": 0.1657985447916701,
                    "durationTicks": 191,
                    "midi": 74,
                    "name": "D5",
                    "ticks": 275197,
                    "time": 238.88618916770832,
                    "velocity": 0.7086614173228346,
                },
                {
                    "duration": 0.1657985447916701,
                    "durationTicks": 191,
                    "midi": 72,
                    "name": "C5",
                    "ticks": 275520,
                    "time": 239.166571,
                    "velocity": 0.8188976377952756,
                },
                {
                    "duration": 0.16666660000001343,
                    "durationTicks": 192,
                    "midi": 71,
                    "name": "B4",
                    "ticks": 275838,
                    "time": 239.44261255625,
                    "velocity": 0.7322834645669292,
                },
                {
                    "duration": 0.1657985447916701,
                    "durationTicks": 191,
                    "midi": 69,
                    "name": "A4",
                    "ticks": 276157,
                    "time": 239.71952216770833,
                    "velocity": 0.7086614173228346,
                },
                {
                    "duration": 0.41666650000001937,
                    "durationTicks": 480,
                    "midi": 67,
                    "name": "G4",
                    "ticks": 276480,
                    "time": 239.999904,
                    "velocity": 0.7401574803149606,
                },
                {
                    "duration": 0.2473957343750044,
                    "durationTicks": 285,
                    "midi": 76,
                    "name": "E5",
                    "ticks": 285120,
                    "time": 247.499901,
                    "velocity": 0.8110236220472441,
                },
                {
                    "duration": 0.2473957343750044,
                    "durationTicks": 285,
                    "midi": 76,
                    "name": "E5",
                    "ticks": 285600,
                    "time": 247.91656749999999,
                    "velocity": 0.8818897637795275,
                },
                {
                    "duration": 1.6987840427083256,
                    "durationTicks": 1957,
                    "midi": 72,
                    "name": "C5",
                    "ticks": 286080,
                    "time": 248.333234,
                    "velocity": 0.31496062992125984,
                },
                {
                    "duration": 1.5520827125000096,
                    "durationTicks": 1788,
                    "midi": 71,
                    "name": "B4",
                    "ticks": 288000,
                    "time": 249.9999,
                    "velocity": 0.2992125984251969,
                },
                {
                    "duration": 0.17881937291667782,
                    "durationTicks": 206,
                    "midi": 71,
                    "name": "B4",
                    "ticks": 289920,
                    "time": 251.666566,
                    "velocity": 0.44881889763779526,
                },
                {
                    "duration": 0.17881937291667782,
                    "durationTicks": 206,
                    "midi": 72,
                    "name": "C5",
                    "ticks": 290126,
                    "time": 251.84538537291667,
                    "velocity": 0.44881889763779526,
                },
                {
                    "duration": 1.0512148572916544,
                    "durationTicks": 1211,
                    "midi": 74,
                    "name": "D5",
                    "ticks": 290332,
                    "time": 252.02420474583334,
                    "velocity": 0.44881889763779526,
                },
                {
                    "duration": 0.27690961145830784,
                    "durationTicks": 319,
                    "midi": 72,
                    "name": "C5",
                    "ticks": 291198,
                    "time": 252.77594055625002,
                    "velocity": 0.33858267716535434,
                },
                {
                    "duration": 0.2803818322916811,
                    "durationTicks": 323,
                    "midi": 71,
                    "name": "B4",
                    "ticks": 291517,
                    "time": 253.05285016770833,
                    "velocity": 0.33070866141732286,
                },
                {
                    "duration": 0.42274288645833735,
                    "durationTicks": 487,
                    "midi": 71,
                    "name": "B4",
                    "ticks": 291840,
                    "time": 253.333232,
                    "velocity": 0.3858267716535433,
                },
                {
                    "duration": 0.3932290093750055,
                    "durationTicks": 453,
                    "midi": 72,
                    "name": "C5",
                    "ticks": 292320,
                    "time": 253.7498985,
                    "velocity": 0.3937007874015748,
                },
                {
                    "duration": 0.8333330000000103,
                    "durationTicks": 960,
                    "midi": 72,
                    "name": "C5",
                    "ticks": 292800,
                    "time": 254.166565,
                    "velocity": 0.3543307086614173,
                },
                {
                    "duration": 1.2725689354166718,
                    "durationTicks": 1466,
                    "midi": 72,
                    "name": "C5",
                    "ticks": 293760,
                    "time": 254.999898,
                    "velocity": 0.3858267716535433,
                },
                {
                    "duration": 0.3932290093750339,
                    "durationTicks": 453,
                    "midi": 74,
                    "name": "D5",
                    "ticks": 295200,
                    "time": 256.2498975,
                    "velocity": 0.3858267716535433,
                },
                {
                    "duration": 0.4227428864583658,
                    "durationTicks": 487,
                    "midi": 75,
                    "name": "D#5",
                    "ticks": 295680,
                    "time": 256.666564,
                    "velocity": 0.3543307086614173,
                },
                {
                    "duration": 0.39322900937497707,
                    "durationTicks": 453,
                    "midi": 76,
                    "name": "E5",
                    "ticks": 296160,
                    "time": 257.0832305,
                    "velocity": 0.3700787401574803,
                },
                {
                    "duration": 0.2473957343750044,
                    "durationTicks": 285,
                    "midi": 76,
                    "name": "E5",
                    "ticks": 296640,
                    "time": 257.499897,
                    "velocity": 0.4094488188976378,
                },
                {
                    "duration": 0.2473957343750044,
                    "durationTicks": 285,
                    "midi": 76,
                    "name": "E5",
                    "ticks": 297120,
                    "time": 257.9165635,
                    "velocity": 0.3700787401574803,
                },
                {
                    "duration": 0.17881937291667782,
                    "durationTicks": 206,
                    "midi": 74,
                    "name": "D5",
                    "ticks": 297600,
                    "time": 258.33323,
                    "velocity": 0.3779527559055118,
                },
                {
                    "duration": 0.17881937291662098,
                    "durationTicks": 206,
                    "midi": 76,
                    "name": "E5",
                    "ticks": 297806,
                    "time": 258.5120493729167,
                    "velocity": 0.3779527559055118,
                },
                {
                    "duration": 1.0512148572917113,
                    "durationTicks": 1211,
                    "midi": 77,
                    "name": "F5",
                    "ticks": 298012,
                    "time": 258.6908687458333,
                    "velocity": 0.3779527559055118,
                },
                {
                    "duration": 0.27690961145833626,
                    "durationTicks": 319,
                    "midi": 76,
                    "name": "E5",
                    "ticks": 298878,
                    "time": 259.44260455625,
                    "velocity": 0.3858267716535433,
                },
                {
                    "duration": 0.2803818322916527,
                    "durationTicks": 323,
                    "midi": 74,
                    "name": "D5",
                    "ticks": 299197,
                    "time": 259.7195141677083,
                    "velocity": 0.36220472440944884,
                },
                {
                    "duration": 0.4227428864583658,
                    "durationTicks": 487,
                    "midi": 74,
                    "name": "D5",
                    "ticks": 299520,
                    "time": 259.999896,
                    "velocity": 0.3858267716535433,
                },
                {
                    "duration": 0.3932290093750339,
                    "durationTicks": 453,
                    "midi": 76,
                    "name": "E5",
                    "ticks": 300000,
                    "time": 260.4165625,
                    "velocity": 0.3700787401574803,
                },
                {
                    "duration": 0.8333329999999819,
                    "durationTicks": 960,
                    "midi": 76,
                    "name": "E5",
                    "ticks": 300480,
                    "time": 260.833229,
                    "velocity": 0.3779527559055118,
                },
                {
                    "duration": 1.2725689354166434,
                    "durationTicks": 1466,
                    "midi": 76,
                    "name": "E5",
                    "ticks": 301440,
                    "time": 261.666562,
                    "velocity": 0.3937007874015748,
                },
                {
                    "duration": 0.42274288645830893,
                    "durationTicks": 487,
                    "midi": 78,
                    "name": "F#5",
                    "ticks": 302880,
                    "time": 262.9165615,
                    "velocity": 0.4251968503937008,
                },
                {
                    "duration": 0.8489579937499911,
                    "durationTicks": 978,
                    "midi": 76,
                    "name": "E5",
                    "ticks": 303360,
                    "time": 263.333228,
                    "velocity": 0.4094488188976378,
                },
                {
                    "duration": 0.39322900937497707,
                    "durationTicks": 453,
                    "midi": 75,
                    "name": "D#5",
                    "ticks": 304320,
                    "time": 264.166561,
                    "velocity": 0.3779527559055118,
                },
                {
                    "duration": 1.2725689354167002,
                    "durationTicks": 1466,
                    "midi": 74,
                    "name": "D5",
                    "ticks": 305280,
                    "time": 264.999894,
                    "velocity": 0.2992125984251969,
                },
                {
                    "duration": 0.4227428864583658,
                    "durationTicks": 487,
                    "midi": 76,
                    "name": "E5",
                    "ticks": 306720,
                    "time": 266.2498935,
                    "velocity": 0.2992125984251969,
                },
                {
                    "duration": 0.42274288645830893,
                    "durationTicks": 487,
                    "midi": 74,
                    "name": "D5",
                    "ticks": 307200,
                    "time": 266.66656,
                    "velocity": 0.3543307086614173,
                },
                {
                    "duration": 0.42274288645830893,
                    "durationTicks": 487,
                    "midi": 73,
                    "name": "C#5",
                    "ticks": 307680,
                    "time": 267.0832265,
                    "velocity": 0.33858267716535434,
                },
                {
                    "duration": 0.3932290093750339,
                    "durationTicks": 453,
                    "midi": 72,
                    "name": "C5",
                    "ticks": 308160,
                    "time": 267.499893,
                    "velocity": 0.3779527559055118,
                },
                {
                    "duration": 1.6987840427083256,
                    "durationTicks": 1957,
                    "midi": 72,
                    "name": "C5",
                    "ticks": 309120,
                    "time": 268.333226,
                    "velocity": 0.33858267716535434,
                },
                {
                    "duration": 0.8489579937499911,
                    "durationTicks": 978,
                    "midi": 71,
                    "name": "B4",
                    "ticks": 311040,
                    "time": 269.999892,
                    "velocity": 0.30708661417322836,
                },
                {
                    "duration": 0.7447913687500431,
                    "durationTicks": 858,
                    "midi": 72,
                    "name": "C5",
                    "ticks": 312000,
                    "time": 270.83322499999997,
                    "velocity": 0.4015748031496063,
                },
                {
                    "duration": 0.17881937291667782,
                    "durationTicks": 206,
                    "midi": 71,
                    "name": "B4",
                    "ticks": 312960,
                    "time": 271.666558,
                    "velocity": 0.3779527559055118,
                },
                {
                    "duration": 0.17881937291667782,
                    "durationTicks": 206,
                    "midi": 72,
                    "name": "C5",
                    "ticks": 313166,
                    "time": 271.8453773729167,
                    "velocity": 0.3779527559055118,
                },
                {
                    "duration": 1.0512148572916544,
                    "durationTicks": 1211,
                    "midi": 74,
                    "name": "D5",
                    "ticks": 313372,
                    "time": 272.02419674583336,
                    "velocity": 0.3779527559055118,
                },
                {
                    "duration": 0.27690961145833626,
                    "durationTicks": 319,
                    "midi": 72,
                    "name": "C5",
                    "ticks": 314238,
                    "time": 272.77593255625,
                    "velocity": 0.3228346456692913,
                },
                {
                    "duration": 0.2803818322916527,
                    "durationTicks": 323,
                    "midi": 71,
                    "name": "B4",
                    "ticks": 314557,
                    "time": 273.0528421677083,
                    "velocity": 0.3779527559055118,
                },
                {
                    "duration": 0.16579854479169853,
                    "durationTicks": 191,
                    "midi": 69,
                    "name": "A4",
                    "ticks": 314880,
                    "time": 273.333224,
                    "velocity": 0.3700787401574803,
                },
                {
                    "duration": 0.2803818322916527,
                    "durationTicks": 323,
                    "midi": 69,
                    "name": "A4",
                    "ticks": 315198,
                    "time": 273.60926555625,
                    "velocity": 0.4094488188976378,
                },
                {
                    "duration": 0.2638887833333001,
                    "durationTicks": 304,
                    "midi": 71,
                    "name": "B4",
                    "ticks": 315517,
                    "time": 273.88617516770836,
                    "velocity": 0.41732283464566927,
                },
                {
                    "duration": 0.1657985447916417,
                    "durationTicks": 191,
                    "midi": 72,
                    "name": "C5",
                    "ticks": 315840,
                    "time": 274.166557,
                    "velocity": 0.3937007874015748,
                },
                {
                    "duration": 0.2803818322916527,
                    "durationTicks": 323,
                    "midi": 72,
                    "name": "C5",
                    "ticks": 316158,
                    "time": 274.44259855625,
                    "velocity": 0.3858267716535433,
                },
                {
                    "duration": 0.28298599791668266,
                    "durationTicks": 326,
                    "midi": 74,
                    "name": "D5",
                    "ticks": 316477,
                    "time": 274.71950816770834,
                    "velocity": 0.4330708661417323,
                },
                {
                    "duration": 1.20746479479169,
                    "durationTicks": 1391,
                    "midi": 76,
                    "name": "E5",
                    "ticks": 316800,
                    "time": 274.99989,
                    "velocity": 0.3858267716535433,
                },
                {
                    "duration": 0.4227428864583658,
                    "durationTicks": 487,
                    "midi": 78,
                    "name": "F#5",
                    "ticks": 318240,
                    "time": 276.2498895,
                    "velocity": 0.4094488188976378,
                },
                {
                    "duration": 0.8489579937499911,
                    "durationTicks": 978,
                    "midi": 76,
                    "name": "E5",
                    "ticks": 318720,
                    "time": 276.666556,
                    "velocity": 0.4015748031496063,
                },
                {
                    "duration": 0.3932290093750339,
                    "durationTicks": 453,
                    "midi": 75,
                    "name": "D#5",
                    "ticks": 319680,
                    "time": 277.499889,
                    "velocity": 0.3543307086614173,
                },
                {
                    "duration": 0.2795137770833662,
                    "durationTicks": 322,
                    "midi": 74,
                    "name": "D5",
                    "ticks": 320640,
                    "time": 278.333222,
                    "velocity": 0.3700787401574803,
                },
                {
                    "duration": 0.2803818322916527,
                    "durationTicks": 323,
                    "midi": 71,
                    "name": "B4",
                    "ticks": 320958,
                    "time": 278.60926355625,
                    "velocity": 0.3464566929133858,
                },
                {
                    "duration": 0.2829859979166258,
                    "durationTicks": 326,
                    "midi": 73,
                    "name": "C#5",
                    "ticks": 321277,
                    "time": 278.88617316770836,
                    "velocity": 0.4094488188976378,
                },
                {
                    "duration": 0.2795137770833094,
                    "durationTicks": 322,
                    "midi": 74,
                    "name": "D5",
                    "ticks": 321600,
                    "time": 279.166555,
                    "velocity": 0.4645669291338583,
                },
                {
                    "duration": 0.2803818322916527,
                    "durationTicks": 323,
                    "midi": 76,
                    "name": "E5",
                    "ticks": 321918,
                    "time": 279.44259655625,
                    "velocity": 0.4015748031496063,
                },
                {
                    "duration": 0.2638887833333001,
                    "durationTicks": 304,
                    "midi": 74,
                    "name": "D5",
                    "ticks": 322237,
                    "time": 279.71950616770835,
                    "velocity": 0.3779527559055118,
                },
                {
                    "duration": 0.4227428864583658,
                    "durationTicks": 487,
                    "midi": 74,
                    "name": "D5",
                    "ticks": 322560,
                    "time": 279.999888,
                    "velocity": 0.4094488188976378,
                },
                {
                    "duration": 0.42274288645830893,
                    "durationTicks": 487,
                    "midi": 73,
                    "name": "C#5",
                    "ticks": 323040,
                    "time": 280.4165545,
                    "velocity": 0.3858267716535433,
                },
                {
                    "duration": 0.3932290093750339,
                    "durationTicks": 453,
                    "midi": 72,
                    "name": "C5",
                    "ticks": 323520,
                    "time": 280.833221,
                    "velocity": 0.3543307086614173,
                },
                {
                    "duration": 1.6987840427083256,
                    "durationTicks": 1957,
                    "midi": 72,
                    "name": "C5",
                    "ticks": 324480,
                    "time": 281.666554,
                    "velocity": 0.36220472440944884,
                },
                {
                    "duration": 0.848957993750048,
                    "durationTicks": 978,
                    "midi": 71,
                    "name": "B4",
                    "ticks": 326400,
                    "time": 283.33322,
                    "velocity": 0.3228346456692913,
                },
                {
                    "duration": 0.7447913687499863,
                    "durationTicks": 858,
                    "midi": 72,
                    "name": "C5",
                    "ticks": 327360,
                    "time": 284.166553,
                    "velocity": 0.44881889763779526,
                },
                {
                    "duration": 0.17881937291667782,
                    "durationTicks": 206,
                    "midi": 71,
                    "name": "B4",
                    "ticks": 328320,
                    "time": 284.999886,
                    "velocity": 0.4094488188976378,
                },
                {
                    "duration": 0.17881937291667782,
                    "durationTicks": 206,
                    "midi": 72,
                    "name": "C5",
                    "ticks": 328526,
                    "time": 285.1787053729167,
                    "velocity": 0.4094488188976378,
                },
                {
                    "duration": 1.0512148572916544,
                    "durationTicks": 1211,
                    "midi": 74,
                    "name": "D5",
                    "ticks": 328732,
                    "time": 285.35752474583336,
                    "velocity": 0.4094488188976378,
                },
                {
                    "duration": 0.27690961145833626,
                    "durationTicks": 319,
                    "midi": 72,
                    "name": "C5",
                    "ticks": 329598,
                    "time": 286.10926055625,
                    "velocity": 0.3543307086614173,
                },
                {
                    "duration": 0.28038183229170954,
                    "durationTicks": 323,
                    "midi": 71,
                    "name": "B4",
                    "ticks": 329917,
                    "time": 286.3861701677083,
                    "velocity": 0.3700787401574803,
                },
                {
                    "duration": 0.8333329999999819,
                    "durationTicks": 960,
                    "midi": 69,
                    "name": "A4",
                    "ticks": 330240,
                    "time": 286.666552,
                    "velocity": 0.33858267716535434,
                },
                {
                    "duration": 1.1093745562500317,
                    "durationTicks": 1278,
                    "midi": 69,
                    "name": "A4",
                    "ticks": 332160,
                    "time": 288.333218,
                    "velocity": 0.33070866141732286,
                },
                {
                    "duration": 0.2803818322916527,
                    "durationTicks": 323,
                    "midi": 71,
                    "name": "B4",
                    "ticks": 333438,
                    "time": 289.44259255625,
                    "velocity": 0.3937007874015748,
                },
                {
                    "duration": 0.2638887833333001,
                    "durationTicks": 304,
                    "midi": 73,
                    "name": "C#5",
                    "ticks": 333757,
                    "time": 289.71950216770836,
                    "velocity": 0.41732283464566927,
                },
                {
                    "duration": 0.42274288645830893,
                    "durationTicks": 487,
                    "midi": 73,
                    "name": "C#5",
                    "ticks": 334080,
                    "time": 289.999884,
                    "velocity": 0.36220472440944884,
                },
                {
                    "duration": 0.3932290093750339,
                    "durationTicks": 453,
                    "midi": 74,
                    "name": "D5",
                    "ticks": 334560,
                    "time": 290.41655049999997,
                    "velocity": 0.3464566929133858,
                },
                {
                    "duration": 0.8333329999999819,
                    "durationTicks": 960,
                    "midi": 74,
                    "name": "D5",
                    "ticks": 335040,
                    "time": 290.833217,
                    "velocity": 0.3858267716535433,
                },
                {
                    "duration": 1.1093745562500317,
                    "durationTicks": 1278,
                    "midi": 74,
                    "name": "D5",
                    "ticks": 336000,
                    "time": 291.66655,
                    "velocity": 0.3700787401574803,
                },
                {
                    "duration": 0.2803818322916527,
                    "durationTicks": 323,
                    "midi": 76,
                    "name": "E5",
                    "ticks": 337278,
                    "time": 292.77592455625,
                    "velocity": 0.3937007874015748,
                },
                {
                    "duration": 0.2638887833333001,
                    "durationTicks": 304,
                    "midi": 77,
                    "name": "F5",
                    "ticks": 337597,
                    "time": 293.05283416770834,
                    "velocity": 0.44881889763779526,
                },
                {
                    "duration": 0.4227428864583658,
                    "durationTicks": 487,
                    "midi": 77,
                    "name": "F5",
                    "ticks": 337920,
                    "time": 293.333216,
                    "velocity": 0.4015748031496063,
                },
                {
                    "duration": 0.39322900937497707,
                    "durationTicks": 453,
                    "midi": 76,
                    "name": "E5",
                    "ticks": 338400,
                    "time": 293.7498825,
                    "velocity": 0.3779527559055118,
                },
                {
                    "duration": 0.8333330000000387,
                    "durationTicks": 960,
                    "midi": 76,
                    "name": "E5",
                    "ticks": 338880,
                    "time": 294.166549,
                    "velocity": 0.3858267716535433,
                },
                {
                    "duration": 0.27604155624999294,
                    "durationTicks": 318,
                    "midi": 69,
                    "name": "A4",
                    "ticks": 339840,
                    "time": 294.999882,
                    "velocity": 0.36220472440944884,
                },
                {
                    "duration": 0.27690961145833626,
                    "durationTicks": 319,
                    "midi": 69,
                    "name": "A4",
                    "ticks": 340158,
                    "time": 295.27592355625,
                    "velocity": 0.4330708661417323,
                },
                {
                    "duration": 0.2803818322916527,
                    "durationTicks": 323,
                    "midi": 69,
                    "name": "A4",
                    "ticks": 340477,
                    "time": 295.55283316770834,
                    "velocity": 0.41732283464566927,
                },
                {
                    "duration": 0.2795137770833662,
                    "durationTicks": 322,
                    "midi": 69,
                    "name": "A4",
                    "ticks": 340800,
                    "time": 295.833215,
                    "velocity": 0.44881889763779526,
                },
                {
                    "duration": 0.2803818322916527,
                    "durationTicks": 323,
                    "midi": 71,
                    "name": "B4",
                    "ticks": 341118,
                    "time": 296.10925655625,
                    "velocity": 0.5039370078740157,
                },
                {
                    "duration": 0.26388878333335697,
                    "durationTicks": 304,
                    "midi": 73,
                    "name": "C#5",
                    "ticks": 341437,
                    "time": 296.3861661677083,
                    "velocity": 0.5118110236220472,
                },
                {
                    "duration": 0.2795137770833662,
                    "durationTicks": 322,
                    "midi": 73,
                    "name": "C#5",
                    "ticks": 341760,
                    "time": 296.666548,
                    "velocity": 0.4881889763779528,
                },
                {
                    "duration": 0.2604165624999837,
                    "durationTicks": 300,
                    "midi": 74,
                    "name": "D5",
                    "ticks": 342078,
                    "time": 296.94258955625,
                    "velocity": 0.5118110236220472,
                },
                {
                    "duration": 0.1657985447916417,
                    "durationTicks": 191,
                    "midi": 74,
                    "name": "D5",
                    "ticks": 342397,
                    "time": 297.21949916770836,
                    "velocity": 0.48031496062992124,
                },
                {
                    "duration": 0.8333329999999819,
                    "durationTicks": 960,
                    "midi": 74,
                    "name": "D5",
                    "ticks": 342720,
                    "time": 297.499881,
                    "velocity": 0.5196850393700787,
                },
                {
                    "duration": 0.27604155624999294,
                    "durationTicks": 318,
                    "midi": 74,
                    "name": "D5",
                    "ticks": 343680,
                    "time": 298.333214,
                    "velocity": 0.5590551181102362,
                },
                {
                    "duration": 0.27690961145833626,
                    "durationTicks": 319,
                    "midi": 74,
                    "name": "D5",
                    "ticks": 343998,
                    "time": 298.60925555625,
                    "velocity": 0.5826771653543307,
                },
                {
                    "duration": 0.2803818322916527,
                    "durationTicks": 323,
                    "midi": 74,
                    "name": "D5",
                    "ticks": 344317,
                    "time": 298.8861651677083,
                    "velocity": 0.5984251968503937,
                },
                {
                    "duration": 0.2795137770833662,
                    "durationTicks": 322,
                    "midi": 74,
                    "name": "D5",
                    "ticks": 344640,
                    "time": 299.166547,
                    "velocity": 0.5826771653543307,
                },
                {
                    "duration": 0.2803818322916527,
                    "durationTicks": 323,
                    "midi": 76,
                    "name": "E5",
                    "ticks": 344958,
                    "time": 299.44258855625003,
                    "velocity": 0.6377952755905512,
                },
                {
                    "duration": 0.26388878333335697,
                    "durationTicks": 304,
                    "midi": 77,
                    "name": "F5",
                    "ticks": 345277,
                    "time": 299.7194981677083,
                    "velocity": 0.7007874015748031,
                },
                {
                    "duration": 0.2795137770833094,
                    "durationTicks": 322,
                    "midi": 77,
                    "name": "F5",
                    "ticks": 345600,
                    "time": 299.99988,
                    "velocity": 0.5748031496062992,
                },
                {
                    "duration": 0.2604165624999837,
                    "durationTicks": 300,
                    "midi": 76,
                    "name": "E5",
                    "ticks": 345918,
                    "time": 300.27592155625,
                    "velocity": 0.5669291338582677,
                },
                {
                    "duration": 0.1657985447916417,
                    "durationTicks": 191,
                    "midi": 76,
                    "name": "E5",
                    "ticks": 346237,
                    "time": 300.55283116770835,
                    "velocity": 0.5590551181102362,
                },
                {
                    "duration": 0.2795137770833662,
                    "durationTicks": 322,
                    "midi": 76,
                    "name": "E5",
                    "ticks": 347520,
                    "time": 301.666546,
                    "velocity": 0.48031496062992124,
                },
                {
                    "duration": 0.2604165624999837,
                    "durationTicks": 300,
                    "midi": 77,
                    "name": "F5",
                    "ticks": 347838,
                    "time": 301.94258755625003,
                    "velocity": 0.5590551181102362,
                },
                {
                    "duration": 0.16579854479169853,
                    "durationTicks": 191,
                    "midi": 77,
                    "name": "F5",
                    "ticks": 348157,
                    "time": 302.2194971677083,
                    "velocity": 0.5118110236220472,
                },
                {
                    "duration": 0.2795137770833094,
                    "durationTicks": 322,
                    "midi": 77,
                    "name": "F5",
                    "ticks": 349440,
                    "time": 303.333212,
                    "velocity": 0.33070866141732286,
                },
                {
                    "duration": 0.2604165624999837,
                    "durationTicks": 300,
                    "midi": 76,
                    "name": "E5",
                    "ticks": 349758,
                    "time": 303.60925355625,
                    "velocity": 0.29133858267716534,
                },
                {
                    "duration": 0.2803818322916527,
                    "durationTicks": 323,
                    "midi": 76,
                    "name": "E5",
                    "ticks": 350077,
                    "time": 303.88616316770833,
                    "velocity": 0.31496062992125984,
                },
                {
                    "duration": 0.8333330000000387,
                    "durationTicks": 960,
                    "midi": 74,
                    "name": "D5",
                    "ticks": 399360,
                    "time": 346.66652799999997,
                    "velocity": 0.2204724409448819,
                },
                {
                    "duration": 0.2473957343750044,
                    "durationTicks": 285,
                    "midi": 74,
                    "name": "D5",
                    "ticks": 400320,
                    "time": 347.499861,
                    "velocity": 0.25984251968503935,
                },
                {
                    "duration": 0.2473957343750044,
                    "durationTicks": 285,
                    "midi": 76,
                    "name": "E5",
                    "ticks": 400800,
                    "time": 347.9165275,
                    "velocity": 0.3228346456692913,
                },
                {
                    "duration": 5.416664500000024,
                    "durationTicks": 6240,
                    "midi": 77,
                    "name": "F5",
                    "ticks": 401280,
                    "time": 348.333194,
                    "velocity": 0.31496062992125984,
                },
                {
                    "duration": 0.2109374156249828,
                    "durationTicks": 243,
                    "midi": 76,
                    "name": "E5",
                    "ticks": 407520,
                    "time": 353.7498585,
                    "velocity": 0.7716535433070866,
                },
                {
                    "duration": 0.21093741562503965,
                    "durationTicks": 243,
                    "midi": 75,
                    "name": "D#5",
                    "ticks": 407760,
                    "time": 353.95819174999997,
                    "velocity": 0.8188976377952756,
                },
                {
                    "duration": 0.1953124218750304,
                    "durationTicks": 225,
                    "midi": 76,
                    "name": "E5",
                    "ticks": 408000,
                    "time": 354.166525,
                    "velocity": 0.8818897637795275,
                },
                {
                    "duration": 0.12326383958333054,
                    "durationTicks": 142,
                    "midi": 76,
                    "name": "E5",
                    "ticks": 408240,
                    "time": 354.37485825,
                    "velocity": 0.8740157480314961,
                },
                {
                    "duration": 0.12326383958333054,
                    "durationTicks": 142,
                    "midi": 64,
                    "name": "E4",
                    "ticks": 408240,
                    "time": 354.37485825,
                    "velocity": 0.6299212598425197,
                },
                {
                    "duration": 0.12326383958333054,
                    "durationTicks": 142,
                    "midi": 78,
                    "name": "F#5",
                    "ticks": 408480,
                    "time": 354.5831915,
                    "velocity": 0.905511811023622,
                },
                {
                    "duration": 0.12326383958333054,
                    "durationTicks": 142,
                    "midi": 66,
                    "name": "F#4",
                    "ticks": 408480,
                    "time": 354.5831915,
                    "velocity": 0.9133858267716536,
                },
                {
                    "duration": 0.12326383958333054,
                    "durationTicks": 142,
                    "midi": 80,
                    "name": "G#5",
                    "ticks": 408720,
                    "time": 354.79152475,
                    "velocity": 0.984251968503937,
                },
                {
                    "duration": 0.12326383958333054,
                    "durationTicks": 142,
                    "midi": 68,
                    "name": "G#4",
                    "ticks": 408720,
                    "time": 354.79152475,
                    "velocity": 0.968503937007874,
                },
                {
                    "duration": 0.12326383958333054,
                    "durationTicks": 142,
                    "midi": 81,
                    "name": "A5",
                    "ticks": 408960,
                    "time": 354.999858,
                    "velocity": 0.952755905511811,
                },
                {
                    "duration": 0.12326383958333054,
                    "durationTicks": 142,
                    "midi": 69,
                    "name": "A4",
                    "ticks": 408960,
                    "time": 354.999858,
                    "velocity": 0.9291338582677166,
                },
                {
                    "duration": 0.12326383958338738,
                    "durationTicks": 142,
                    "midi": 83,
                    "name": "B5",
                    "ticks": 409200,
                    "time": 355.20819124999997,
                    "velocity": 0.937007874015748,
                },
                {
                    "duration": 0.12326383958338738,
                    "durationTicks": 142,
                    "midi": 71,
                    "name": "B4",
                    "ticks": 409200,
                    "time": 355.20819124999997,
                    "velocity": 0.968503937007874,
                },
                {
                    "duration": 0.12326383958333054,
                    "durationTicks": 142,
                    "midi": 84,
                    "name": "C6",
                    "ticks": 409440,
                    "time": 355.4165245,
                    "velocity": 0.9212598425196851,
                },
                {
                    "duration": 0.12326383958333054,
                    "durationTicks": 142,
                    "midi": 72,
                    "name": "C5",
                    "ticks": 409440,
                    "time": 355.4165245,
                    "velocity": 0.9291338582677166,
                },
                {
                    "duration": 0.12326383958333054,
                    "durationTicks": 142,
                    "midi": 83,
                    "name": "B5",
                    "ticks": 409680,
                    "time": 355.62485775,
                    "velocity": 0.8267716535433071,
                },
                {
                    "duration": 0.12326383958333054,
                    "durationTicks": 142,
                    "midi": 71,
                    "name": "B4",
                    "ticks": 409680,
                    "time": 355.62485775,
                    "velocity": 0.8503937007874016,
                },
                {
                    "duration": 0.12326383958333054,
                    "durationTicks": 142,
                    "midi": 81,
                    "name": "A5",
                    "ticks": 409920,
                    "time": 355.833191,
                    "velocity": 0.8346456692913385,
                },
                {
                    "duration": 0.12326383958333054,
                    "durationTicks": 142,
                    "midi": 69,
                    "name": "A4",
                    "ticks": 409920,
                    "time": 355.833191,
                    "velocity": 0.8267716535433071,
                },
                {
                    "duration": 0.12326383958333054,
                    "durationTicks": 142,
                    "midi": 84,
                    "name": "C6",
                    "ticks": 410160,
                    "time": 356.04152425,
                    "velocity": 0.9291338582677166,
                },
                {
                    "duration": 0.12326383958333054,
                    "durationTicks": 142,
                    "midi": 72,
                    "name": "C5",
                    "ticks": 410160,
                    "time": 356.04152425,
                    "velocity": 0.984251968503937,
                },
                {
                    "duration": 0.12326383958333054,
                    "durationTicks": 142,
                    "midi": 83,
                    "name": "B5",
                    "ticks": 410400,
                    "time": 356.2498575,
                    "velocity": 0.8503937007874016,
                },
                {
                    "duration": 0.12326383958333054,
                    "durationTicks": 142,
                    "midi": 71,
                    "name": "B4",
                    "ticks": 410400,
                    "time": 356.2498575,
                    "velocity": 0.8346456692913385,
                },
                {
                    "duration": 0.12326383958338738,
                    "durationTicks": 142,
                    "midi": 81,
                    "name": "A5",
                    "ticks": 410640,
                    "time": 356.45819074999997,
                    "velocity": 0.8267716535433071,
                },
                {
                    "duration": 0.12326383958338738,
                    "durationTicks": 142,
                    "midi": 69,
                    "name": "A4",
                    "ticks": 410640,
                    "time": 356.45819074999997,
                    "velocity": 0.8110236220472441,
                },
                {
                    "duration": 0.12326383958333054,
                    "durationTicks": 142,
                    "midi": 76,
                    "name": "E5",
                    "ticks": 410880,
                    "time": 356.666524,
                    "velocity": 0.7874015748031497,
                },
                {
                    "duration": 0.12326383958333054,
                    "durationTicks": 142,
                    "midi": 64,
                    "name": "E4",
                    "ticks": 410880,
                    "time": 356.666524,
                    "velocity": 0.7559055118110236,
                },
                {
                    "duration": 0.12326383958333054,
                    "durationTicks": 142,
                    "midi": 78,
                    "name": "F#5",
                    "ticks": 411120,
                    "time": 356.87485725,
                    "velocity": 0.937007874015748,
                },
                {
                    "duration": 0.12326383958333054,
                    "durationTicks": 142,
                    "midi": 66,
                    "name": "F#4",
                    "ticks": 411120,
                    "time": 356.87485725,
                    "velocity": 0.9212598425196851,
                },
                {
                    "duration": 0.12326383958333054,
                    "durationTicks": 142,
                    "midi": 80,
                    "name": "G#5",
                    "ticks": 411360,
                    "time": 357.0831905,
                    "velocity": 0.8976377952755905,
                },
                {
                    "duration": 0.12326383958333054,
                    "durationTicks": 142,
                    "midi": 68,
                    "name": "G#4",
                    "ticks": 411360,
                    "time": 357.0831905,
                    "velocity": 0.9606299212598425,
                },
                {
                    "duration": 0.12326383958333054,
                    "durationTicks": 142,
                    "midi": 81,
                    "name": "A5",
                    "ticks": 411600,
                    "time": 357.29152375,
                    "velocity": 0.8976377952755905,
                },
                {
                    "duration": 0.12326383958333054,
                    "durationTicks": 142,
                    "midi": 69,
                    "name": "A4",
                    "ticks": 411600,
                    "time": 357.29152375,
                    "velocity": 0.937007874015748,
                },
                {
                    "duration": 0.12326383958333054,
                    "durationTicks": 142,
                    "midi": 83,
                    "name": "B5",
                    "ticks": 411840,
                    "time": 357.499857,
                    "velocity": 0.968503937007874,
                },
                {
                    "duration": 0.12326383958333054,
                    "durationTicks": 142,
                    "midi": 71,
                    "name": "B4",
                    "ticks": 411840,
                    "time": 357.499857,
                    "velocity": 0.9606299212598425,
                },
                {
                    "duration": 0.12326383958338738,
                    "durationTicks": 142,
                    "midi": 72,
                    "name": "C5",
                    "ticks": 412080,
                    "time": 357.70819025,
                    "velocity": 0.6614173228346457,
                },
                {
                    "duration": 0.12326383958333054,
                    "durationTicks": 142,
                    "midi": 74,
                    "name": "D5",
                    "ticks": 412320,
                    "time": 357.9165235,
                    "velocity": 0.8818897637795275,
                },
                {
                    "duration": 0.12326383958333054,
                    "durationTicks": 142,
                    "midi": 76,
                    "name": "E5",
                    "ticks": 412560,
                    "time": 358.12485675,
                    "velocity": 0.9212598425196851,
                },
                {
                    "duration": 0.12326383958333054,
                    "durationTicks": 142,
                    "midi": 74,
                    "name": "D5",
                    "ticks": 412800,
                    "time": 358.33319,
                    "velocity": 0.8661417322834646,
                },
                {
                    "duration": 0.12326383958333054,
                    "durationTicks": 142,
                    "midi": 71,
                    "name": "B4",
                    "ticks": 413040,
                    "time": 358.54152325,
                    "velocity": 0.7952755905511811,
                },
                {
                    "duration": 0.12326383958333054,
                    "durationTicks": 142,
                    "midi": 72,
                    "name": "C5",
                    "ticks": 413280,
                    "time": 358.7498565,
                    "velocity": 0.9212598425196851,
                },
                {
                    "duration": 0.12326383958338738,
                    "durationTicks": 142,
                    "midi": 74,
                    "name": "D5",
                    "ticks": 413520,
                    "time": 358.95818975,
                    "velocity": 0.952755905511811,
                },
                {
                    "duration": 0.12326383958333054,
                    "durationTicks": 142,
                    "midi": 76,
                    "name": "E5",
                    "ticks": 413760,
                    "time": 359.166523,
                    "velocity": 0.9448818897637795,
                },
                {
                    "duration": 0.12326383958333054,
                    "durationTicks": 142,
                    "midi": 74,
                    "name": "D5",
                    "ticks": 414000,
                    "time": 359.37485625,
                    "velocity": 0.8740157480314961,
                },
                {
                    "duration": 0.12326383958333054,
                    "durationTicks": 142,
                    "midi": 72,
                    "name": "C5",
                    "ticks": 414240,
                    "time": 359.5831895,
                    "velocity": 0.8267716535433071,
                },
                {
                    "duration": 0.12326383958333054,
                    "durationTicks": 142,
                    "midi": 71,
                    "name": "B4",
                    "ticks": 414480,
                    "time": 359.79152275,
                    "velocity": 0.8188976377952756,
                },
                {
                    "duration": 0.12326383958333054,
                    "durationTicks": 142,
                    "midi": 72,
                    "name": "C5",
                    "ticks": 414720,
                    "time": 359.999856,
                    "velocity": 0.9448818897637795,
                },
                {
                    "duration": 0.12326383958338738,
                    "durationTicks": 142,
                    "midi": 71,
                    "name": "B4",
                    "ticks": 414960,
                    "time": 360.20818925,
                    "velocity": 0.8031496062992126,
                },
                {
                    "duration": 0.12326383958333054,
                    "durationTicks": 142,
                    "midi": 72,
                    "name": "C5",
                    "ticks": 415200,
                    "time": 360.4165225,
                    "velocity": 0.889763779527559,
                },
                {
                    "duration": 0.12326383958333054,
                    "durationTicks": 142,
                    "midi": 74,
                    "name": "D5",
                    "ticks": 415440,
                    "time": 360.62485575,
                    "velocity": 0.9133858267716536,
                },
                {
                    "duration": 0.12326383958333054,
                    "durationTicks": 142,
                    "midi": 76,
                    "name": "E5",
                    "ticks": 415680,
                    "time": 360.833189,
                    "velocity": 0.9133858267716536,
                },
                {
                    "duration": 0.12326383958333054,
                    "durationTicks": 142,
                    "midi": 76,
                    "name": "E5",
                    "ticks": 415920,
                    "time": 361.04152225,
                    "velocity": 0.8582677165354331,
                },
                {
                    "duration": 0.12326383958333054,
                    "durationTicks": 142,
                    "midi": 64,
                    "name": "E4",
                    "ticks": 415920,
                    "time": 361.04152225,
                    "velocity": 0.6456692913385826,
                },
                {
                    "duration": 0.12326383958333054,
                    "durationTicks": 142,
                    "midi": 78,
                    "name": "F#5",
                    "ticks": 416160,
                    "time": 361.2498555,
                    "velocity": 0.9448818897637795,
                },
                {
                    "duration": 0.12326383958333054,
                    "durationTicks": 142,
                    "midi": 66,
                    "name": "F#4",
                    "ticks": 416160,
                    "time": 361.2498555,
                    "velocity": 0.889763779527559,
                },
                {
                    "duration": 0.12326383958333054,
                    "durationTicks": 142,
                    "midi": 80,
                    "name": "G#5",
                    "ticks": 416400,
                    "time": 361.45818875,
                    "velocity": 0.9133858267716536,
                },
                {
                    "duration": 0.12326383958333054,
                    "durationTicks": 142,
                    "midi": 68,
                    "name": "G#4",
                    "ticks": 416400,
                    "time": 361.45818875,
                    "velocity": 0.937007874015748,
                },
                {
                    "duration": 0.12326383958333054,
                    "durationTicks": 142,
                    "midi": 81,
                    "name": "A5",
                    "ticks": 416640,
                    "time": 361.666522,
                    "velocity": 0.937007874015748,
                },
                {
                    "duration": 0.12326383958333054,
                    "durationTicks": 142,
                    "midi": 69,
                    "name": "A4",
                    "ticks": 416640,
                    "time": 361.666522,
                    "velocity": 0.905511811023622,
                },
                {
                    "duration": 0.12326383958333054,
                    "durationTicks": 142,
                    "midi": 83,
                    "name": "B5",
                    "ticks": 416880,
                    "time": 361.87485525,
                    "velocity": 0.937007874015748,
                },
                {
                    "duration": 0.12326383958333054,
                    "durationTicks": 142,
                    "midi": 71,
                    "name": "B4",
                    "ticks": 416880,
                    "time": 361.87485525,
                    "velocity": 0.9448818897637795,
                },
                {
                    "duration": 0.12326383958333054,
                    "durationTicks": 142,
                    "midi": 84,
                    "name": "C6",
                    "ticks": 417120,
                    "time": 362.0831885,
                    "velocity": 0.9763779527559056,
                },
                {
                    "duration": 0.12326383958333054,
                    "durationTicks": 142,
                    "midi": 72,
                    "name": "C5",
                    "ticks": 417120,
                    "time": 362.0831885,
                    "velocity": 0.9291338582677166,
                },
                {
                    "duration": 0.12326383958333054,
                    "durationTicks": 142,
                    "midi": 83,
                    "name": "B5",
                    "ticks": 417360,
                    "time": 362.29152175,
                    "velocity": 0.8818897637795275,
                },
                {
                    "duration": 0.12326383958333054,
                    "durationTicks": 142,
                    "midi": 71,
                    "name": "B4",
                    "ticks": 417360,
                    "time": 362.29152175,
                    "velocity": 0.8503937007874016,
                },
                {
                    "duration": 0.12326383958338738,
                    "durationTicks": 142,
                    "midi": 81,
                    "name": "A5",
                    "ticks": 417600,
                    "time": 362.49985499999997,
                    "velocity": 0.8188976377952756,
                },
                {
                    "duration": 0.12326383958338738,
                    "durationTicks": 142,
                    "midi": 69,
                    "name": "A4",
                    "ticks": 417600,
                    "time": 362.49985499999997,
                    "velocity": 0.8267716535433071,
                },
                {
                    "duration": 0.12326383958333054,
                    "durationTicks": 142,
                    "midi": 84,
                    "name": "C6",
                    "ticks": 417840,
                    "time": 362.70818825,
                    "velocity": 0.952755905511811,
                },
                {
                    "duration": 0.12326383958333054,
                    "durationTicks": 142,
                    "midi": 72,
                    "name": "C5",
                    "ticks": 417840,
                    "time": 362.70818825,
                    "velocity": 0.984251968503937,
                },
                {
                    "duration": 0.12326383958333054,
                    "durationTicks": 142,
                    "midi": 83,
                    "name": "B5",
                    "ticks": 418080,
                    "time": 362.9165215,
                    "velocity": 0.84251968503937,
                },
                {
                    "duration": 0.12326383958333054,
                    "durationTicks": 142,
                    "midi": 71,
                    "name": "B4",
                    "ticks": 418080,
                    "time": 362.9165215,
                    "velocity": 0.8582677165354331,
                },
                {
                    "duration": 0.12326383958333054,
                    "durationTicks": 142,
                    "midi": 81,
                    "name": "A5",
                    "ticks": 418320,
                    "time": 363.12485475,
                    "velocity": 0.8582677165354331,
                },
                {
                    "duration": 0.12326383958333054,
                    "durationTicks": 142,
                    "midi": 69,
                    "name": "A4",
                    "ticks": 418320,
                    "time": 363.12485475,
                    "velocity": 0.8503937007874016,
                },
                {
                    "duration": 0.12326383958333054,
                    "durationTicks": 142,
                    "midi": 76,
                    "name": "E5",
                    "ticks": 418560,
                    "time": 363.333188,
                    "velocity": 0.7637795275590551,
                },
                {
                    "duration": 0.12326383958333054,
                    "durationTicks": 142,
                    "midi": 78,
                    "name": "F#5",
                    "ticks": 418800,
                    "time": 363.54152125,
                    "velocity": 0.9133858267716536,
                },
                {
                    "duration": 0.12326383958338738,
                    "durationTicks": 142,
                    "midi": 80,
                    "name": "G#5",
                    "ticks": 419040,
                    "time": 363.74985449999997,
                    "velocity": 0.905511811023622,
                },
                {
                    "duration": 0.12326383958333054,
                    "durationTicks": 142,
                    "midi": 81,
                    "name": "A5",
                    "ticks": 419280,
                    "time": 363.95818775,
                    "velocity": 0.937007874015748,
                },
                {
                    "duration": 0.12326383958333054,
                    "durationTicks": 142,
                    "midi": 83,
                    "name": "B5",
                    "ticks": 419520,
                    "time": 364.166521,
                    "velocity": 0.9133858267716536,
                },
                {
                    "duration": 0.12326383958333054,
                    "durationTicks": 142,
                    "midi": 72,
                    "name": "C5",
                    "ticks": 419760,
                    "time": 364.37485425,
                    "velocity": 0.6299212598425197,
                },
                {
                    "duration": 0.12326383958333054,
                    "durationTicks": 142,
                    "midi": 74,
                    "name": "D5",
                    "ticks": 420000,
                    "time": 364.5831875,
                    "velocity": 0.9133858267716536,
                },
                {
                    "duration": 0.12326383958333054,
                    "durationTicks": 142,
                    "midi": 76,
                    "name": "E5",
                    "ticks": 420240,
                    "time": 364.79152075,
                    "velocity": 0.889763779527559,
                },
                {
                    "duration": 0.12326383958338738,
                    "durationTicks": 142,
                    "midi": 74,
                    "name": "D5",
                    "ticks": 420480,
                    "time": 364.99985399999997,
                    "velocity": 0.8267716535433071,
                },
                {
                    "duration": 0.12326383958333054,
                    "durationTicks": 142,
                    "midi": 71,
                    "name": "B4",
                    "ticks": 420720,
                    "time": 365.20818725,
                    "velocity": 0.7559055118110236,
                },
                {
                    "duration": 0.12326383958333054,
                    "durationTicks": 142,
                    "midi": 72,
                    "name": "C5",
                    "ticks": 420960,
                    "time": 365.4165205,
                    "velocity": 0.8740157480314961,
                },
                {
                    "duration": 0.12326383958333054,
                    "durationTicks": 142,
                    "midi": 74,
                    "name": "D5",
                    "ticks": 421200,
                    "time": 365.62485375,
                    "velocity": 0.9448818897637795,
                },
                {
                    "duration": 0.12326383958333054,
                    "durationTicks": 142,
                    "midi": 76,
                    "name": "E5",
                    "ticks": 421440,
                    "time": 365.833187,
                    "velocity": 0.952755905511811,
                },
                {
                    "duration": 0.12326383958333054,
                    "durationTicks": 142,
                    "midi": 74,
                    "name": "D5",
                    "ticks": 421680,
                    "time": 366.04152025,
                    "velocity": 0.8188976377952756,
                },
                {
                    "duration": 0.12326383958338738,
                    "durationTicks": 142,
                    "midi": 72,
                    "name": "C5",
                    "ticks": 421920,
                    "time": 366.2498535,
                    "velocity": 0.8582677165354331,
                },
                {
                    "duration": 0.12326383958333054,
                    "durationTicks": 142,
                    "midi": 71,
                    "name": "B4",
                    "ticks": 422160,
                    "time": 366.45818675,
                    "velocity": 0.7952755905511811,
                },
                {
                    "duration": 0.8333329999999819,
                    "durationTicks": 960,
                    "midi": 69,
                    "name": "A4",
                    "ticks": 422400,
                    "time": 366.66652,
                    "velocity": 0.8346456692913385,
                },
                {
                    "duration": 0.8333329999999819,
                    "durationTicks": 960,
                    "midi": 76,
                    "name": "E5",
                    "ticks": 424320,
                    "time": 368.333186,
                    "velocity": 0.33070866141732286,
                },
                {
                    "duration": 0.2473957343750044,
                    "durationTicks": 285,
                    "midi": 78,
                    "name": "F#5",
                    "ticks": 425280,
                    "time": 369.166519,
                    "velocity": 0.4015748031496063,
                },
                {
                    "duration": 0.2473957343750044,
                    "durationTicks": 285,
                    "midi": 76,
                    "name": "E5",
                    "ticks": 425280,
                    "time": 369.166519,
                    "velocity": 0.4015748031496063,
                },
                {
                    "duration": 0.2473957343750044,
                    "durationTicks": 285,
                    "midi": 80,
                    "name": "G#5",
                    "ticks": 425760,
                    "time": 369.5831855,
                    "velocity": 0.4015748031496063,
                },
                {
                    "duration": 0.2473957343750044,
                    "durationTicks": 285,
                    "midi": 76,
                    "name": "E5",
                    "ticks": 425760,
                    "time": 369.5831855,
                    "velocity": 0.3779527559055118,
                },
                {
                    "duration": 0.41666650000001937,
                    "durationTicks": 480,
                    "midi": 76,
                    "name": "E5",
                    "ticks": 426240,
                    "time": 369.999852,
                    "velocity": 0.36220472440944884,
                },
                {
                    "duration": 0.41666650000001937,
                    "durationTicks": 480,
                    "midi": 81,
                    "name": "A5",
                    "ticks": 426240,
                    "time": 369.999852,
                    "velocity": 0.36220472440944884,
                },
                {
                    "duration": 3.3333319999999844,
                    "durationTicks": 3840,
                    "midi": 76,
                    "name": "E5",
                    "ticks": 446400,
                    "time": 387.499845,
                    "velocity": 0.3700787401574803,
                },
                {
                    "duration": 3.3333319999999844,
                    "durationTicks": 3840,
                    "midi": 79,
                    "name": "G5",
                    "ticks": 446400,
                    "time": 387.499845,
                    "velocity": 0.3700787401574803,
                },
                {
                    "duration": 0.37065957395833493,
                    "durationTicks": 427,
                    "midi": 74,
                    "name": "D5",
                    "ticks": 450240,
                    "time": 390.833177,
                    "velocity": 0.44881889763779526,
                },
                {
                    "duration": 0.37065957395833493,
                    "durationTicks": 427,
                    "midi": 78,
                    "name": "F#5",
                    "ticks": 450240,
                    "time": 390.833177,
                    "velocity": 0.44881889763779526,
                },
                {
                    "duration": 0.8333329999999819,
                    "durationTicks": 960,
                    "midi": 74,
                    "name": "D5",
                    "ticks": 472320,
                    "time": 409.999836,
                    "velocity": 0.7637795275590551,
                },
                {
                    "duration": 0.8333329999999819,
                    "durationTicks": 960,
                    "midi": 83,
                    "name": "B5",
                    "ticks": 472320,
                    "time": 409.999836,
                    "velocity": 0.7637795275590551,
                },
                {
                    "duration": 0.2473957343750044,
                    "durationTicks": 285,
                    "midi": 72,
                    "name": "C5",
                    "ticks": 473280,
                    "time": 410.833169,
                    "velocity": 0.8031496062992126,
                },
                {
                    "duration": 0.2473957343750044,
                    "durationTicks": 285,
                    "midi": 81,
                    "name": "A5",
                    "ticks": 473280,
                    "time": 410.833169,
                    "velocity": 0.8031496062992126,
                },
                {
                    "duration": 0.2473957343750044,
                    "durationTicks": 285,
                    "midi": 74,
                    "name": "D5",
                    "ticks": 473760,
                    "time": 411.2498355,
                    "velocity": 0.905511811023622,
                },
                {
                    "duration": 0.2473957343750044,
                    "durationTicks": 285,
                    "midi": 83,
                    "name": "B5",
                    "ticks": 473760,
                    "time": 411.2498355,
                    "velocity": 0.905511811023622,
                },
                {
                    "duration": 0.41666650000001937,
                    "durationTicks": 480,
                    "midi": 76,
                    "name": "E5",
                    "ticks": 474240,
                    "time": 411.666502,
                    "velocity": 0.9291338582677166,
                },
                {
                    "duration": 0.41666650000001937,
                    "durationTicks": 480,
                    "midi": 84,
                    "name": "C6",
                    "ticks": 474240,
                    "time": 411.666502,
                    "velocity": 0.9291338582677166,
                },
                {
                    "duration": 0.8333329999999819,
                    "durationTicks": 960,
                    "midi": 74,
                    "name": "D5",
                    "ticks": 480000,
                    "time": 416.6665,
                    "velocity": 0.8031496062992126,
                },
                {
                    "duration": 0.8333329999999819,
                    "durationTicks": 960,
                    "midi": 83,
                    "name": "B5",
                    "ticks": 480000,
                    "time": 416.6665,
                    "velocity": 0.8031496062992126,
                },
                {
                    "duration": 0.2473957343750044,
                    "durationTicks": 285,
                    "midi": 72,
                    "name": "C5",
                    "ticks": 480960,
                    "time": 417.49983299999997,
                    "velocity": 0.8031496062992126,
                },
                {
                    "duration": 0.2473957343750044,
                    "durationTicks": 285,
                    "midi": 81,
                    "name": "A5",
                    "ticks": 480960,
                    "time": 417.49983299999997,
                    "velocity": 0.8031496062992126,
                },
                {
                    "duration": 0.2473957343750044,
                    "durationTicks": 285,
                    "midi": 74,
                    "name": "D5",
                    "ticks": 481440,
                    "time": 417.9164995,
                    "velocity": 0.9212598425196851,
                },
                {
                    "duration": 0.2473957343750044,
                    "durationTicks": 285,
                    "midi": 83,
                    "name": "B5",
                    "ticks": 481440,
                    "time": 417.9164995,
                    "velocity": 0.9212598425196851,
                },
                {
                    "duration": 0.4166664999999625,
                    "durationTicks": 480,
                    "midi": 76,
                    "name": "E5",
                    "ticks": 481920,
                    "time": 418.333166,
                    "velocity": 0.9448818897637795,
                },
                {
                    "duration": 0.4166664999999625,
                    "durationTicks": 480,
                    "midi": 84,
                    "name": "C6",
                    "ticks": 481920,
                    "time": 418.333166,
                    "velocity": 0.9448818897637795,
                },
                {
                    "duration": 0.8333329999999819,
                    "durationTicks": 960,
                    "midi": 80,
                    "name": "G#5",
                    "ticks": 485760,
                    "time": 421.666498,
                    "velocity": 0.30708661417322836,
                },
                {
                    "duration": 0.2473957343750044,
                    "durationTicks": 285,
                    "midi": 78,
                    "name": "F#5",
                    "ticks": 486720,
                    "time": 422.499831,
                    "velocity": 0.3700787401574803,
                },
                {
                    "duration": 0.2473957343750044,
                    "durationTicks": 285,
                    "midi": 80,
                    "name": "G#5",
                    "ticks": 487200,
                    "time": 422.9164975,
                    "velocity": 0.3700787401574803,
                },
                {
                    "duration": 0.8333329999999819,
                    "durationTicks": 960,
                    "midi": 81,
                    "name": "A5",
                    "ticks": 487680,
                    "time": 423.333164,
                    "velocity": 0.28346456692913385,
                },
                {
                    "duration": 0.2473957343750044,
                    "durationTicks": 285,
                    "midi": 81,
                    "name": "A5",
                    "ticks": 488640,
                    "time": 424.166497,
                    "velocity": 0.3228346456692913,
                },
                {
                    "duration": 0.23437490624996826,
                    "durationTicks": 270,
                    "midi": 81,
                    "name": "A5",
                    "ticks": 489120,
                    "time": 424.5831635,
                    "velocity": 0.2755905511811024,
                },
                {
                    "duration": 0.49739563437503875,
                    "durationTicks": 573,
                    "midi": 80,
                    "name": "G#5",
                    "ticks": 489600,
                    "time": 424.99983,
                    "velocity": 0.2677165354330709,
                },
                {
                    "duration": 0.4713539781249665,
                    "durationTicks": 543,
                    "midi": 80,
                    "name": "G#5",
                    "ticks": 490560,
                    "time": 425.833163,
                    "velocity": 0.2992125984251969,
                },
                {
                    "duration": 0.8333329999999819,
                    "durationTicks": 960,
                    "midi": 71,
                    "name": "B4",
                    "ticks": 491520,
                    "time": 426.666496,
                    "velocity": 0.18110236220472442,
                },
                {
                    "duration": 0.2473957343750044,
                    "durationTicks": 285,
                    "midi": 71,
                    "name": "B4",
                    "ticks": 492480,
                    "time": 427.499829,
                    "velocity": 0.23622047244094488,
                },
                {
                    "duration": 0.2343749062500251,
                    "durationTicks": 270,
                    "midi": 71,
                    "name": "B4",
                    "ticks": 492960,
                    "time": 427.9164955,
                    "velocity": 0.29133858267716534,
                },
                {
                    "duration": 0.49739563437492507,
                    "durationTicks": 573,
                    "midi": 72,
                    "name": "C5",
                    "ticks": 493440,
                    "time": 428.333162,
                    "velocity": 0.29133858267716534,
                },
                {
                    "duration": 0.4713539781249665,
                    "durationTicks": 543,
                    "midi": 72,
                    "name": "C5",
                    "ticks": 494400,
                    "time": 429.166495,
                    "velocity": 0.28346456692913385,
                },
                {
                    "duration": 0.8333329999999819,
                    "durationTicks": 960,
                    "midi": 79,
                    "name": "G5",
                    "ticks": 503040,
                    "time": 436.666492,
                    "velocity": 0.31496062992125984,
                },
                {
                    "duration": 0.24999989999997752,
                    "durationTicks": 288,
                    "midi": 79,
                    "name": "G5",
                    "ticks": 504000,
                    "time": 437.499825,
                    "velocity": 0.29133858267716534,
                },
                {
                    "duration": 0.23437490624996826,
                    "durationTicks": 270,
                    "midi": 81,
                    "name": "A5",
                    "ticks": 504480,
                    "time": 437.9164915,
                    "velocity": 0.33858267716535434,
                },
                {
                    "duration": 0.4973956343749819,
                    "durationTicks": 573,
                    "midi": 83,
                    "name": "B5",
                    "ticks": 504960,
                    "time": 438.33315799999997,
                    "velocity": 0.30708661417322836,
                },
                {
                    "duration": 0.4713539781249665,
                    "durationTicks": 543,
                    "midi": 83,
                    "name": "B5",
                    "ticks": 505920,
                    "time": 439.166491,
                    "velocity": 0.29133858267716534,
                },
                {
                    "duration": 0.8333329999999819,
                    "durationTicks": 960,
                    "midi": 74,
                    "name": "D5",
                    "ticks": 506880,
                    "time": 439.999824,
                    "velocity": 0.2204724409448819,
                },
                {
                    "duration": 0.2473957343750044,
                    "durationTicks": 285,
                    "midi": 74,
                    "name": "D5",
                    "ticks": 507840,
                    "time": 440.83315699999997,
                    "velocity": 0.28346456692913385,
                },
                {
                    "duration": 0.2343749062500251,
                    "durationTicks": 270,
                    "midi": 74,
                    "name": "D5",
                    "ticks": 508320,
                    "time": 441.2498235,
                    "velocity": 0.2992125984251969,
                },
                {
                    "duration": 0.5078122968749881,
                    "durationTicks": 585,
                    "midi": 73,
                    "name": "C#5",
                    "ticks": 508800,
                    "time": 441.66649,
                    "velocity": 0.28346456692913385,
                },
                {
                    "duration": 0.4713539781249665,
                    "durationTicks": 543,
                    "midi": 72,
                    "name": "C5",
                    "ticks": 509760,
                    "time": 442.499823,
                    "velocity": 0.2755905511811024,
                },
                {
                    "duration": 0.8333329999999819,
                    "durationTicks": 960,
                    "midi": 76,
                    "name": "E5",
                    "ticks": 518400,
                    "time": 449.99982,
                    "velocity": 0.31496062992125984,
                },
                {
                    "duration": 0.2473957343750044,
                    "durationTicks": 285,
                    "midi": 78,
                    "name": "F#5",
                    "ticks": 519360,
                    "time": 450.833153,
                    "velocity": 0.2677165354330709,
                },
                {
                    "duration": 0.2473957343750044,
                    "durationTicks": 285,
                    "midi": 76,
                    "name": "E5",
                    "ticks": 519360,
                    "time": 450.833153,
                    "velocity": 0.28346456692913385,
                },
                {
                    "duration": 0.2473957343750044,
                    "durationTicks": 285,
                    "midi": 80,
                    "name": "G#5",
                    "ticks": 519840,
                    "time": 451.2498195,
                    "velocity": 0.28346456692913385,
                },
                {
                    "duration": 0.2473957343750044,
                    "durationTicks": 285,
                    "midi": 76,
                    "name": "E5",
                    "ticks": 519840,
                    "time": 451.2498195,
                    "velocity": 0.28346456692913385,
                },
                {
                    "duration": 0.8333329999999819,
                    "durationTicks": 960,
                    "midi": 81,
                    "name": "A5",
                    "ticks": 520320,
                    "time": 451.666486,
                    "velocity": 0.29133858267716534,
                },
                {
                    "duration": 0.8333329999999819,
                    "durationTicks": 960,
                    "midi": 76,
                    "name": "E5",
                    "ticks": 520320,
                    "time": 451.666486,
                    "velocity": 0.2755905511811024,
                },
                {
                    "duration": 4.713261499999987,
                    "durationTicks": 4320,
                    "midi": 72,
                    "name": "C5",
                    "ticks": 528000,
                    "time": 458.33315,
                    "velocity": 0.6771653543307087,
                },
                {
                    "duration": 4.713261499999987,
                    "durationTicks": 4320,
                    "midi": 76,
                    "name": "E5",
                    "ticks": 528000,
                    "time": 458.33315,
                    "velocity": 0.6771653543307087,
                },
            ],
        },
        {
            "channel": 11,
            "controlChanges": {
                "7": [
                    {
                        "number": 7,
                        "ticks": 192348,
                        "time": 166.9686832125,
                        "value": 0.6614173228346457,
                    },
                    {
                        "number": 7,
                        "ticks": 286080,
                        "time": 248.333234,
                        "value": 0.6614173228346457,
                    },
                    {
                        "number": 7,
                        "ticks": 428160,
                        "time": 371.666518,
                        "value": 0.6614173228346457,
                    },
                    {
                        "number": 7,
                        "ticks": 488640,
                        "time": 424.166497,
                        "value": 0.6614173228346457,
                    },
                ],
                "10": [
                    {
                        "number": 10,
                        "ticks": 192348,
                        "time": 166.9686832125,
                        "value": 0.8267716535433071,
                    },
                    {
                        "number": 10,
                        "ticks": 286080,
                        "time": 248.333234,
                        "value": 0.8267716535433071,
                    },
                    {
                        "number": 10,
                        "ticks": 428160,
                        "time": 371.666518,
                        "value": 0.8267716535433071,
                    },
                    {
                        "number": 10,
                        "ticks": 488640,
                        "time": 424.166497,
                        "value": 0.8267716535433071,
                    },
                ],
                "91": [
                    {
                        "number": 91,
                        "ticks": 192348,
                        "time": 166.9686832125,
                        "value": 0.4645669291338583,
                    },
                    {
                        "number": 91,
                        "ticks": 286080,
                        "time": 248.333234,
                        "value": 0.4645669291338583,
                    },
                    {
                        "number": 91,
                        "ticks": 428160,
                        "time": 371.666518,
                        "value": 0.4645669291338583,
                    },
                    {
                        "number": 91,
                        "ticks": 488640,
                        "time": 424.166497,
                        "value": 0.4645669291338583,
                    },
                ],
            },
            "pitchBends": [],
            "instrument": {
                "family": "strings",
                "number": 45,
                "name": "pizzicato strings",
            },
            "name": "",
            "notes": [
                {
                    "duration": 0.41666649999999095,
                    "durationTicks": 480,
                    "midi": 30,
                    "name": "F#1",
                    "ticks": 192960,
                    "time": 167.499933,
                    "velocity": 0.3858267716535433,
                },
                {
                    "duration": 0.41666650000001937,
                    "durationTicks": 480,
                    "midi": 32,
                    "name": "G#1",
                    "ticks": 193440,
                    "time": 167.9165995,
                    "velocity": 0.3779527559055118,
                },
                {
                    "duration": 0.8333329999999819,
                    "durationTicks": 960,
                    "midi": 33,
                    "name": "A1",
                    "ticks": 193920,
                    "time": 168.333266,
                    "velocity": 0.3858267716535433,
                },
                {
                    "duration": 0.41666650000001937,
                    "durationTicks": 480,
                    "midi": 45,
                    "name": "A2",
                    "ticks": 194880,
                    "time": 169.166599,
                    "velocity": 0.3937007874015748,
                },
                {
                    "duration": 0.41666649999999095,
                    "durationTicks": 480,
                    "midi": 45,
                    "name": "A2",
                    "ticks": 195360,
                    "time": 169.5832655,
                    "velocity": 0.4015748031496063,
                },
                {
                    "duration": 0.8333330000000103,
                    "durationTicks": 960,
                    "midi": 33,
                    "name": "A1",
                    "ticks": 195840,
                    "time": 169.999932,
                    "velocity": 0.30708661417322836,
                },
                {
                    "duration": 0.41666649999999095,
                    "durationTicks": 480,
                    "midi": 45,
                    "name": "A2",
                    "ticks": 196800,
                    "time": 170.833265,
                    "velocity": 0.4566929133858268,
                },
                {
                    "duration": 0.41666649999999095,
                    "durationTicks": 480,
                    "midi": 45,
                    "name": "A2",
                    "ticks": 197280,
                    "time": 171.2499315,
                    "velocity": 0.3700787401574803,
                },
                {
                    "duration": 0.8333330000000103,
                    "durationTicks": 960,
                    "midi": 33,
                    "name": "A1",
                    "ticks": 197760,
                    "time": 171.666598,
                    "velocity": 0.3464566929133858,
                },
                {
                    "duration": 0.41666649999999095,
                    "durationTicks": 480,
                    "midi": 45,
                    "name": "A2",
                    "ticks": 198720,
                    "time": 172.499931,
                    "velocity": 0.4015748031496063,
                },
                {
                    "duration": 0.41666649999999095,
                    "durationTicks": 480,
                    "midi": 45,
                    "name": "A2",
                    "ticks": 199200,
                    "time": 172.9165975,
                    "velocity": 0.3858267716535433,
                },
                {
                    "duration": 0.8333330000000103,
                    "durationTicks": 960,
                    "midi": 33,
                    "name": "A1",
                    "ticks": 199680,
                    "time": 173.33326399999999,
                    "velocity": 0.36220472440944884,
                },
                {
                    "duration": 0.41666649999999095,
                    "durationTicks": 480,
                    "midi": 45,
                    "name": "A2",
                    "ticks": 200640,
                    "time": 174.166597,
                    "velocity": 0.5118110236220472,
                },
                {
                    "duration": 0.41666650000001937,
                    "durationTicks": 480,
                    "midi": 45,
                    "name": "A2",
                    "ticks": 201120,
                    "time": 174.5832635,
                    "velocity": 0.49606299212598426,
                },
                {
                    "duration": 0.8333329999999819,
                    "durationTicks": 960,
                    "midi": 33,
                    "name": "A1",
                    "ticks": 201600,
                    "time": 174.99993,
                    "velocity": 0.4330708661417323,
                },
                {
                    "duration": 0.41666650000001937,
                    "durationTicks": 480,
                    "midi": 45,
                    "name": "A2",
                    "ticks": 202560,
                    "time": 175.833263,
                    "velocity": 0.6062992125984252,
                },
                {
                    "duration": 0.41666649999999095,
                    "durationTicks": 480,
                    "midi": 45,
                    "name": "A2",
                    "ticks": 203040,
                    "time": 176.2499295,
                    "velocity": 0.5590551181102362,
                },
                {
                    "duration": 0.8333330000000103,
                    "durationTicks": 960,
                    "midi": 33,
                    "name": "A1",
                    "ticks": 203520,
                    "time": 176.666596,
                    "velocity": 0.4566929133858268,
                },
                {
                    "duration": 0.41666649999999095,
                    "durationTicks": 480,
                    "midi": 45,
                    "name": "A2",
                    "ticks": 204480,
                    "time": 177.499929,
                    "velocity": 0.6850393700787402,
                },
                {
                    "duration": 0.41666649999999095,
                    "durationTicks": 480,
                    "midi": 45,
                    "name": "A2",
                    "ticks": 204960,
                    "time": 177.9165955,
                    "velocity": 0.6299212598425197,
                },
                {
                    "duration": 0.8333330000000103,
                    "durationTicks": 960,
                    "midi": 33,
                    "name": "A1",
                    "ticks": 205440,
                    "time": 178.333262,
                    "velocity": 0.5354330708661418,
                },
                {
                    "duration": 0.41666649999999095,
                    "durationTicks": 480,
                    "midi": 45,
                    "name": "A2",
                    "ticks": 206400,
                    "time": 179.166595,
                    "velocity": 0.6062992125984252,
                },
                {
                    "duration": 0.41666650000001937,
                    "durationTicks": 480,
                    "midi": 45,
                    "name": "A2",
                    "ticks": 206880,
                    "time": 179.5832615,
                    "velocity": 0.5039370078740157,
                },
                {
                    "duration": 0.8333329999999819,
                    "durationTicks": 960,
                    "midi": 33,
                    "name": "A1",
                    "ticks": 207360,
                    "time": 179.999928,
                    "velocity": 0.44881889763779526,
                },
                {
                    "duration": 0.41666649999999095,
                    "durationTicks": 480,
                    "midi": 45,
                    "name": "A2",
                    "ticks": 208320,
                    "time": 180.833261,
                    "velocity": 0.49606299212598426,
                },
                {
                    "duration": 0.41666650000001937,
                    "durationTicks": 480,
                    "midi": 45,
                    "name": "A2",
                    "ticks": 208800,
                    "time": 181.24992749999998,
                    "velocity": 0.4015748031496063,
                },
                {
                    "duration": 0.8333329999999819,
                    "durationTicks": 960,
                    "midi": 33,
                    "name": "A1",
                    "ticks": 209280,
                    "time": 181.666594,
                    "velocity": 0.33070866141732286,
                },
                {
                    "duration": 0.41666650000001937,
                    "durationTicks": 480,
                    "midi": 45,
                    "name": "A2",
                    "ticks": 210240,
                    "time": 182.49992699999999,
                    "velocity": 0.47244094488188976,
                },
                {
                    "duration": 0.41666649999999095,
                    "durationTicks": 480,
                    "midi": 45,
                    "name": "A2",
                    "ticks": 210720,
                    "time": 182.9165935,
                    "velocity": 0.3700787401574803,
                },
                {
                    "duration": 0.8333330000000103,
                    "durationTicks": 960,
                    "midi": 33,
                    "name": "A1",
                    "ticks": 211200,
                    "time": 183.33326,
                    "velocity": 0.3779527559055118,
                },
                {
                    "duration": 0.41666649999999095,
                    "durationTicks": 480,
                    "midi": 45,
                    "name": "A2",
                    "ticks": 212160,
                    "time": 184.166593,
                    "velocity": 0.5275590551181102,
                },
                {
                    "duration": 0.41666649999999095,
                    "durationTicks": 480,
                    "midi": 45,
                    "name": "A2",
                    "ticks": 212640,
                    "time": 184.5832595,
                    "velocity": 0.4645669291338583,
                },
                {
                    "duration": 0.8333330000000103,
                    "durationTicks": 960,
                    "midi": 33,
                    "name": "A1",
                    "ticks": 213120,
                    "time": 184.999926,
                    "velocity": 0.4330708661417323,
                },
                {
                    "duration": 0.41666649999999095,
                    "durationTicks": 480,
                    "midi": 45,
                    "name": "A2",
                    "ticks": 214080,
                    "time": 185.833259,
                    "velocity": 0.5748031496062992,
                },
                {
                    "duration": 0.41666650000001937,
                    "durationTicks": 480,
                    "midi": 45,
                    "name": "A2",
                    "ticks": 214560,
                    "time": 186.2499255,
                    "velocity": 0.5511811023622047,
                },
                {
                    "duration": 0.8333329999999819,
                    "durationTicks": 960,
                    "midi": 33,
                    "name": "A1",
                    "ticks": 215040,
                    "time": 186.666592,
                    "velocity": 0.5433070866141733,
                },
                {
                    "duration": 0.41666650000001937,
                    "durationTicks": 480,
                    "midi": 45,
                    "name": "A2",
                    "ticks": 216000,
                    "time": 187.499925,
                    "velocity": 0.6771653543307087,
                },
                {
                    "duration": 0.41666649999999095,
                    "durationTicks": 480,
                    "midi": 45,
                    "name": "A2",
                    "ticks": 216480,
                    "time": 187.9165915,
                    "velocity": 0.6141732283464567,
                },
                {
                    "duration": 0.41666649999999095,
                    "durationTicks": 480,
                    "midi": 30,
                    "name": "F#1",
                    "ticks": 216960,
                    "time": 188.333258,
                    "velocity": 0.4094488188976378,
                },
                {
                    "duration": 0.41666650000001937,
                    "durationTicks": 480,
                    "midi": 32,
                    "name": "G#1",
                    "ticks": 217440,
                    "time": 188.7499245,
                    "velocity": 0.4881889763779528,
                },
                {
                    "duration": 0.41666649999999095,
                    "durationTicks": 480,
                    "midi": 33,
                    "name": "A1",
                    "ticks": 217920,
                    "time": 189.166591,
                    "velocity": 0.49606299212598426,
                },
                {
                    "duration": 0.41666649999999095,
                    "durationTicks": 480,
                    "midi": 33,
                    "name": "A1",
                    "ticks": 218400,
                    "time": 189.5832575,
                    "velocity": 0.4409448818897638,
                },
                {
                    "duration": 0.8333330000000103,
                    "durationTicks": 960,
                    "midi": 35,
                    "name": "B1",
                    "ticks": 218880,
                    "time": 189.999924,
                    "velocity": 0.4566929133858268,
                },
                {
                    "duration": 0.41666649999999095,
                    "durationTicks": 480,
                    "midi": 47,
                    "name": "B2",
                    "ticks": 219840,
                    "time": 190.833257,
                    "velocity": 0.44881889763779526,
                },
                {
                    "duration": 0.41666649999999095,
                    "durationTicks": 480,
                    "midi": 47,
                    "name": "B2",
                    "ticks": 220320,
                    "time": 191.2499235,
                    "velocity": 0.4330708661417323,
                },
                {
                    "duration": 0.8333330000000103,
                    "durationTicks": 960,
                    "midi": 40,
                    "name": "E2",
                    "ticks": 220800,
                    "time": 191.66658999999999,
                    "velocity": 0.3779527559055118,
                },
                {
                    "duration": 0.41666649999999095,
                    "durationTicks": 480,
                    "midi": 52,
                    "name": "E3",
                    "ticks": 221760,
                    "time": 192.499923,
                    "velocity": 0.2992125984251969,
                },
                {
                    "duration": 0.41666650000001937,
                    "durationTicks": 480,
                    "midi": 52,
                    "name": "E3",
                    "ticks": 222240,
                    "time": 192.9165895,
                    "velocity": 0.30708661417322836,
                },
                {
                    "duration": 0.8333329999999819,
                    "durationTicks": 960,
                    "midi": 40,
                    "name": "E2",
                    "ticks": 222720,
                    "time": 193.333256,
                    "velocity": 0.1889763779527559,
                },
                {
                    "duration": 0.41666650000001937,
                    "durationTicks": 480,
                    "midi": 52,
                    "name": "E3",
                    "ticks": 223680,
                    "time": 194.166589,
                    "velocity": 0.29133858267716534,
                },
                {
                    "duration": 0.41666649999999095,
                    "durationTicks": 480,
                    "midi": 52,
                    "name": "E3",
                    "ticks": 224160,
                    "time": 194.5832555,
                    "velocity": 0.2677165354330709,
                },
                {
                    "duration": 0.8333330000000103,
                    "durationTicks": 960,
                    "midi": 40,
                    "name": "E2",
                    "ticks": 224640,
                    "time": 194.999922,
                    "velocity": 0.23622047244094488,
                },
                {
                    "duration": 0.41666649999999095,
                    "durationTicks": 480,
                    "midi": 52,
                    "name": "E3",
                    "ticks": 225600,
                    "time": 195.833255,
                    "velocity": 0.31496062992125984,
                },
                {
                    "duration": 0.41666649999999095,
                    "durationTicks": 480,
                    "midi": 52,
                    "name": "E3",
                    "ticks": 226080,
                    "time": 196.2499215,
                    "velocity": 0.2677165354330709,
                },
                {
                    "duration": 0.8333330000000103,
                    "durationTicks": 960,
                    "midi": 40,
                    "name": "E2",
                    "ticks": 226560,
                    "time": 196.666588,
                    "velocity": 0.2283464566929134,
                },
                {
                    "duration": 0.41666649999999095,
                    "durationTicks": 480,
                    "midi": 52,
                    "name": "E3",
                    "ticks": 227520,
                    "time": 197.499921,
                    "velocity": 0.33858267716535434,
                },
                {
                    "duration": 0.41666650000001937,
                    "durationTicks": 480,
                    "midi": 52,
                    "name": "E3",
                    "ticks": 228000,
                    "time": 197.9165875,
                    "velocity": 0.2755905511811024,
                },
                {
                    "duration": 0.8333329999999819,
                    "durationTicks": 960,
                    "midi": 40,
                    "name": "E2",
                    "ticks": 228480,
                    "time": 198.333254,
                    "velocity": 0.25196850393700787,
                },
                {
                    "duration": 0.41666649999999095,
                    "durationTicks": 480,
                    "midi": 52,
                    "name": "E3",
                    "ticks": 229440,
                    "time": 199.166587,
                    "velocity": 0.2992125984251969,
                },
                {
                    "duration": 0.41666650000001937,
                    "durationTicks": 480,
                    "midi": 52,
                    "name": "E3",
                    "ticks": 229920,
                    "time": 199.58325349999998,
                    "velocity": 0.2677165354330709,
                },
                {
                    "duration": 0.8333329999999819,
                    "durationTicks": 960,
                    "midi": 40,
                    "name": "E2",
                    "ticks": 230400,
                    "time": 199.99992,
                    "velocity": 0.28346456692913385,
                },
                {
                    "duration": 0.41666650000001937,
                    "durationTicks": 480,
                    "midi": 52,
                    "name": "E3",
                    "ticks": 231360,
                    "time": 200.83325299999998,
                    "velocity": 0.3228346456692913,
                },
                {
                    "duration": 0.41666649999999095,
                    "durationTicks": 480,
                    "midi": 52,
                    "name": "E3",
                    "ticks": 231840,
                    "time": 201.2499195,
                    "velocity": 0.2755905511811024,
                },
                {
                    "duration": 0.8333330000000103,
                    "durationTicks": 960,
                    "midi": 40,
                    "name": "E2",
                    "ticks": 232320,
                    "time": 201.666586,
                    "velocity": 0.25984251968503935,
                },
                {
                    "duration": 0.41666649999999095,
                    "durationTicks": 480,
                    "midi": 52,
                    "name": "E3",
                    "ticks": 233280,
                    "time": 202.499919,
                    "velocity": 0.29133858267716534,
                },
                {
                    "duration": 0.41666649999999095,
                    "durationTicks": 480,
                    "midi": 52,
                    "name": "E3",
                    "ticks": 233760,
                    "time": 202.9165855,
                    "velocity": 0.2992125984251969,
                },
                {
                    "duration": 0.8333330000000103,
                    "durationTicks": 960,
                    "midi": 37,
                    "name": "C#2",
                    "ticks": 234240,
                    "time": 203.333252,
                    "velocity": 0.2440944881889764,
                },
                {
                    "duration": 0.41666649999999095,
                    "durationTicks": 480,
                    "midi": 49,
                    "name": "C#3",
                    "ticks": 235200,
                    "time": 204.166585,
                    "velocity": 0.33070866141732286,
                },
                {
                    "duration": 0.41666650000001937,
                    "durationTicks": 480,
                    "midi": 49,
                    "name": "C#3",
                    "ticks": 235680,
                    "time": 204.5832515,
                    "velocity": 0.3464566929133858,
                },
                {
                    "duration": 0.8333329999999819,
                    "durationTicks": 960,
                    "midi": 38,
                    "name": "D2",
                    "ticks": 236160,
                    "time": 204.999918,
                    "velocity": 0.29133858267716534,
                },
                {
                    "duration": 0.41666650000001937,
                    "durationTicks": 480,
                    "midi": 50,
                    "name": "D3",
                    "ticks": 237120,
                    "time": 205.833251,
                    "velocity": 0.4566929133858268,
                },
                {
                    "duration": 0.41666649999999095,
                    "durationTicks": 480,
                    "midi": 50,
                    "name": "D3",
                    "ticks": 237600,
                    "time": 206.2499175,
                    "velocity": 0.4566929133858268,
                },
                {
                    "duration": 0.8333330000000103,
                    "durationTicks": 960,
                    "midi": 37,
                    "name": "C#2",
                    "ticks": 238080,
                    "time": 206.666584,
                    "velocity": 0.4015748031496063,
                },
                {
                    "duration": 0.41666649999999095,
                    "durationTicks": 480,
                    "midi": 49,
                    "name": "C#3",
                    "ticks": 239040,
                    "time": 207.499917,
                    "velocity": 0.5433070866141733,
                },
                {
                    "duration": 0.41666649999999095,
                    "durationTicks": 480,
                    "midi": 49,
                    "name": "C#3",
                    "ticks": 239520,
                    "time": 207.9165835,
                    "velocity": 0.5433070866141733,
                },
                {
                    "duration": 0.8333330000000103,
                    "durationTicks": 960,
                    "midi": 38,
                    "name": "D2",
                    "ticks": 240000,
                    "time": 208.33325,
                    "velocity": 0.4881889763779528,
                },
                {
                    "duration": 0.41666649999999095,
                    "durationTicks": 480,
                    "midi": 50,
                    "name": "D3",
                    "ticks": 240960,
                    "time": 209.166583,
                    "velocity": 0.6535433070866141,
                },
                {
                    "duration": 0.41666649999999095,
                    "durationTicks": 480,
                    "midi": 50,
                    "name": "D3",
                    "ticks": 241440,
                    "time": 209.5832495,
                    "velocity": 0.6456692913385826,
                },
                {
                    "duration": 0.8333330000000103,
                    "durationTicks": 960,
                    "midi": 37,
                    "name": "C#2",
                    "ticks": 241920,
                    "time": 209.99991599999998,
                    "velocity": 0.49606299212598426,
                },
                {
                    "duration": 0.41666649999999095,
                    "durationTicks": 480,
                    "midi": 49,
                    "name": "C#3",
                    "ticks": 242880,
                    "time": 210.833249,
                    "velocity": 0.5590551181102362,
                },
                {
                    "duration": 0.41666650000001937,
                    "durationTicks": 480,
                    "midi": 49,
                    "name": "C#3",
                    "ticks": 243360,
                    "time": 211.2499155,
                    "velocity": 0.6062992125984252,
                },
                {
                    "duration": 0.8333329999999819,
                    "durationTicks": 960,
                    "midi": 38,
                    "name": "D2",
                    "ticks": 243840,
                    "time": 211.666582,
                    "velocity": 0.47244094488188976,
                },
                {
                    "duration": 0.41666650000001937,
                    "durationTicks": 480,
                    "midi": 50,
                    "name": "D3",
                    "ticks": 244800,
                    "time": 212.499915,
                    "velocity": 0.5039370078740157,
                },
                {
                    "duration": 0.41666649999999095,
                    "durationTicks": 480,
                    "midi": 50,
                    "name": "D3",
                    "ticks": 245280,
                    "time": 212.9165815,
                    "velocity": 0.5196850393700787,
                },
                {
                    "duration": 0.8333330000000103,
                    "durationTicks": 960,
                    "midi": 40,
                    "name": "E2",
                    "ticks": 245760,
                    "time": 213.333248,
                    "velocity": 0.3464566929133858,
                },
                {
                    "duration": 0.41666649999999095,
                    "durationTicks": 480,
                    "midi": 52,
                    "name": "E3",
                    "ticks": 246720,
                    "time": 214.166581,
                    "velocity": 0.41732283464566927,
                },
                {
                    "duration": 0.41666649999999095,
                    "durationTicks": 480,
                    "midi": 52,
                    "name": "E3",
                    "ticks": 247200,
                    "time": 214.5832475,
                    "velocity": 0.3700787401574803,
                },
                {
                    "duration": 0.8333330000000103,
                    "durationTicks": 960,
                    "midi": 33,
                    "name": "A1",
                    "ticks": 247680,
                    "time": 214.999914,
                    "velocity": 0.3464566929133858,
                },
                {
                    "duration": 0.41666649999999095,
                    "durationTicks": 480,
                    "midi": 45,
                    "name": "A2",
                    "ticks": 248640,
                    "time": 215.833247,
                    "velocity": 0.48031496062992124,
                },
                {
                    "duration": 0.41666650000001937,
                    "durationTicks": 480,
                    "midi": 45,
                    "name": "A2",
                    "ticks": 249120,
                    "time": 216.2499135,
                    "velocity": 0.4330708661417323,
                },
                {
                    "duration": 0.8333329999999819,
                    "durationTicks": 960,
                    "midi": 37,
                    "name": "C#2",
                    "ticks": 249600,
                    "time": 216.66658,
                    "velocity": 0.3858267716535433,
                },
                {
                    "duration": 0.41666650000001937,
                    "durationTicks": 480,
                    "midi": 49,
                    "name": "C#3",
                    "ticks": 250560,
                    "time": 217.499913,
                    "velocity": 0.5433070866141733,
                },
                {
                    "duration": 0.41666649999999095,
                    "durationTicks": 480,
                    "midi": 49,
                    "name": "C#3",
                    "ticks": 251040,
                    "time": 217.9165795,
                    "velocity": 0.48031496062992124,
                },
                {
                    "duration": 0.8333329999999819,
                    "durationTicks": 960,
                    "midi": 38,
                    "name": "D2",
                    "ticks": 251520,
                    "time": 218.333246,
                    "velocity": 0.4251968503937008,
                },
                {
                    "duration": 0.41666650000001937,
                    "durationTicks": 480,
                    "midi": 50,
                    "name": "D3",
                    "ticks": 252480,
                    "time": 219.16657899999998,
                    "velocity": 0.5433070866141733,
                },
                {
                    "duration": 0.41666649999999095,
                    "durationTicks": 480,
                    "midi": 50,
                    "name": "D3",
                    "ticks": 252960,
                    "time": 219.5832455,
                    "velocity": 0.5826771653543307,
                },
                {
                    "duration": 0.8333330000000103,
                    "durationTicks": 960,
                    "midi": 37,
                    "name": "C#2",
                    "ticks": 253440,
                    "time": 219.999912,
                    "velocity": 0.4881889763779528,
                },
                {
                    "duration": 0.41666649999999095,
                    "durationTicks": 480,
                    "midi": 49,
                    "name": "C#3",
                    "ticks": 254400,
                    "time": 220.833245,
                    "velocity": 0.6692913385826772,
                },
                {
                    "duration": 0.41666649999999095,
                    "durationTicks": 480,
                    "midi": 49,
                    "name": "C#3",
                    "ticks": 254880,
                    "time": 221.2499115,
                    "velocity": 0.6377952755905512,
                },
                {
                    "duration": 0.8333330000000103,
                    "durationTicks": 960,
                    "midi": 38,
                    "name": "D2",
                    "ticks": 255360,
                    "time": 221.666578,
                    "velocity": 0.5748031496062992,
                },
                {
                    "duration": 0.41666649999999095,
                    "durationTicks": 480,
                    "midi": 50,
                    "name": "D3",
                    "ticks": 256320,
                    "time": 222.499911,
                    "velocity": 0.7401574803149606,
                },
                {
                    "duration": 0.41666650000001937,
                    "durationTicks": 480,
                    "midi": 50,
                    "name": "D3",
                    "ticks": 256800,
                    "time": 222.9165775,
                    "velocity": 0.6535433070866141,
                },
                {
                    "duration": 0.8333329999999819,
                    "durationTicks": 960,
                    "midi": 37,
                    "name": "C#2",
                    "ticks": 257280,
                    "time": 223.333244,
                    "velocity": 0.4881889763779528,
                },
                {
                    "duration": 0.41666650000001937,
                    "durationTicks": 480,
                    "midi": 36,
                    "name": "C2",
                    "ticks": 258240,
                    "time": 224.166577,
                    "velocity": 0.5511811023622047,
                },
                {
                    "duration": 0.41666649999999095,
                    "durationTicks": 480,
                    "midi": 36,
                    "name": "C2",
                    "ticks": 258720,
                    "time": 224.5832435,
                    "velocity": 0.5669291338582677,
                },
                {
                    "duration": 0.8333330000000103,
                    "durationTicks": 960,
                    "midi": 29,
                    "name": "F1",
                    "ticks": 259200,
                    "time": 224.99991,
                    "velocity": 0.48031496062992124,
                },
                {
                    "duration": 0.41666649999999095,
                    "durationTicks": 480,
                    "midi": 41,
                    "name": "F2",
                    "ticks": 260160,
                    "time": 225.833243,
                    "velocity": 0.5590551181102362,
                },
                {
                    "duration": 0.41666649999999095,
                    "durationTicks": 480,
                    "midi": 41,
                    "name": "F2",
                    "ticks": 260640,
                    "time": 226.2499095,
                    "velocity": 0.5039370078740157,
                },
                {
                    "duration": 0.8333330000000103,
                    "durationTicks": 960,
                    "midi": 31,
                    "name": "G1",
                    "ticks": 261120,
                    "time": 226.666576,
                    "velocity": 0.3228346456692913,
                },
                {
                    "duration": 0.41666649999999095,
                    "durationTicks": 480,
                    "midi": 43,
                    "name": "G2",
                    "ticks": 262080,
                    "time": 227.499909,
                    "velocity": 0.4330708661417323,
                },
                {
                    "duration": 0.41666649999999095,
                    "durationTicks": 480,
                    "midi": 43,
                    "name": "G2",
                    "ticks": 262560,
                    "time": 227.9165755,
                    "velocity": 0.3700787401574803,
                },
                {
                    "duration": 0.8333330000000103,
                    "durationTicks": 960,
                    "midi": 36,
                    "name": "C2",
                    "ticks": 263040,
                    "time": 228.33324199999998,
                    "velocity": 0.31496062992125984,
                },
                {
                    "duration": 0.41666649999999095,
                    "durationTicks": 480,
                    "midi": 48,
                    "name": "C3",
                    "ticks": 264000,
                    "time": 229.166575,
                    "velocity": 0.41732283464566927,
                },
                {
                    "duration": 0.41666650000001937,
                    "durationTicks": 480,
                    "midi": 48,
                    "name": "C3",
                    "ticks": 264480,
                    "time": 229.58324149999999,
                    "velocity": 0.3543307086614173,
                },
                {
                    "duration": 0.8333329999999819,
                    "durationTicks": 960,
                    "midi": 36,
                    "name": "C2",
                    "ticks": 264960,
                    "time": 229.999908,
                    "velocity": 0.3464566929133858,
                },
                {
                    "duration": 0.41666650000001937,
                    "durationTicks": 480,
                    "midi": 48,
                    "name": "C3",
                    "ticks": 265920,
                    "time": 230.833241,
                    "velocity": 0.4330708661417323,
                },
                {
                    "duration": 0.41666649999999095,
                    "durationTicks": 480,
                    "midi": 48,
                    "name": "C3",
                    "ticks": 266400,
                    "time": 231.2499075,
                    "velocity": 0.3858267716535433,
                },
                {
                    "duration": 0.8333330000000103,
                    "durationTicks": 960,
                    "midi": 36,
                    "name": "C2",
                    "ticks": 266880,
                    "time": 231.666574,
                    "velocity": 0.31496062992125984,
                },
                {
                    "duration": 0.41666649999999095,
                    "durationTicks": 480,
                    "midi": 48,
                    "name": "C3",
                    "ticks": 267840,
                    "time": 232.499907,
                    "velocity": 0.4330708661417323,
                },
                {
                    "duration": 0.41666649999999095,
                    "durationTicks": 480,
                    "midi": 48,
                    "name": "C3",
                    "ticks": 268320,
                    "time": 232.9165735,
                    "velocity": 0.3779527559055118,
                },
                {
                    "duration": 0.8333330000000103,
                    "durationTicks": 960,
                    "midi": 36,
                    "name": "C2",
                    "ticks": 268800,
                    "time": 233.33324,
                    "velocity": 0.3543307086614173,
                },
                {
                    "duration": 0.41666649999999095,
                    "durationTicks": 480,
                    "midi": 48,
                    "name": "C3",
                    "ticks": 269760,
                    "time": 234.166573,
                    "velocity": 0.4409448818897638,
                },
                {
                    "duration": 0.41666650000001937,
                    "durationTicks": 480,
                    "midi": 48,
                    "name": "C3",
                    "ticks": 270240,
                    "time": 234.5832395,
                    "velocity": 0.3543307086614173,
                },
                {
                    "duration": 0.8333329999999819,
                    "durationTicks": 960,
                    "midi": 36,
                    "name": "C2",
                    "ticks": 270720,
                    "time": 234.999906,
                    "velocity": 0.3543307086614173,
                },
                {
                    "duration": 0.41666650000001937,
                    "durationTicks": 480,
                    "midi": 48,
                    "name": "C3",
                    "ticks": 271680,
                    "time": 235.833239,
                    "velocity": 0.41732283464566927,
                },
                {
                    "duration": 0.41666649999999095,
                    "durationTicks": 480,
                    "midi": 48,
                    "name": "C3",
                    "ticks": 272160,
                    "time": 236.2499055,
                    "velocity": 0.3937007874015748,
                },
                {
                    "duration": 0.8333329999999819,
                    "durationTicks": 960,
                    "midi": 36,
                    "name": "C2",
                    "ticks": 272640,
                    "time": 236.666572,
                    "velocity": 0.3779527559055118,
                },
                {
                    "duration": 0.41666650000001937,
                    "durationTicks": 480,
                    "midi": 48,
                    "name": "C3",
                    "ticks": 273600,
                    "time": 237.49990499999998,
                    "velocity": 0.47244094488188976,
                },
                {
                    "duration": 0.41666649999999095,
                    "durationTicks": 480,
                    "midi": 48,
                    "name": "C3",
                    "ticks": 274080,
                    "time": 237.9165715,
                    "velocity": 0.44881889763779526,
                },
                {
                    "duration": 0.8333329999999819,
                    "durationTicks": 960,
                    "midi": 28,
                    "name": "E1",
                    "ticks": 286080,
                    "time": 248.333234,
                    "velocity": 0.33070866141732286,
                },
                {
                    "duration": 0.41666650000001937,
                    "durationTicks": 480,
                    "midi": 28,
                    "name": "E1",
                    "ticks": 287040,
                    "time": 249.166567,
                    "velocity": 0.28346456692913385,
                },
                {
                    "duration": 0.41666649999999095,
                    "durationTicks": 480,
                    "midi": 28,
                    "name": "E1",
                    "ticks": 287520,
                    "time": 249.5832335,
                    "velocity": 0.2992125984251969,
                },
                {
                    "duration": 0.8333330000000103,
                    "durationTicks": 960,
                    "midi": 28,
                    "name": "E1",
                    "ticks": 288000,
                    "time": 249.9999,
                    "velocity": 0.30708661417322836,
                },
                {
                    "duration": 0.8333329999999819,
                    "durationTicks": 960,
                    "midi": 28,
                    "name": "E1",
                    "ticks": 288960,
                    "time": 250.833233,
                    "velocity": 0.29133858267716534,
                },
                {
                    "duration": 0.8333330000000103,
                    "durationTicks": 960,
                    "midi": 28,
                    "name": "E1",
                    "ticks": 289920,
                    "time": 251.666566,
                    "velocity": 0.2677165354330709,
                },
                {
                    "duration": 0.41666649999999095,
                    "durationTicks": 480,
                    "midi": 28,
                    "name": "E1",
                    "ticks": 290880,
                    "time": 252.499899,
                    "velocity": 0.30708661417322836,
                },
                {
                    "duration": 0.41666650000001937,
                    "durationTicks": 480,
                    "midi": 28,
                    "name": "E1",
                    "ticks": 291360,
                    "time": 252.9165655,
                    "velocity": 0.28346456692913385,
                },
                {
                    "duration": 0.8333329999999819,
                    "durationTicks": 960,
                    "midi": 28,
                    "name": "E1",
                    "ticks": 291840,
                    "time": 253.333232,
                    "velocity": 0.28346456692913385,
                },
                {
                    "duration": 0.8333330000000103,
                    "durationTicks": 960,
                    "midi": 28,
                    "name": "E1",
                    "ticks": 292800,
                    "time": 254.166565,
                    "velocity": 0.2992125984251969,
                },
                {
                    "duration": 0.8333329999999819,
                    "durationTicks": 960,
                    "midi": 28,
                    "name": "E1",
                    "ticks": 293760,
                    "time": 254.999898,
                    "velocity": 0.25984251968503935,
                },
                {
                    "duration": 0.41666649999999095,
                    "durationTicks": 480,
                    "midi": 28,
                    "name": "E1",
                    "ticks": 294720,
                    "time": 255.83323099999998,
                    "velocity": 0.33858267716535434,
                },
                {
                    "duration": 0.41666650000001937,
                    "durationTicks": 480,
                    "midi": 30,
                    "name": "F#1",
                    "ticks": 295200,
                    "time": 256.2498975,
                    "velocity": 0.2755905511811024,
                },
                {
                    "duration": 0.8333329999999819,
                    "durationTicks": 960,
                    "midi": 31,
                    "name": "G1",
                    "ticks": 295680,
                    "time": 256.666564,
                    "velocity": 0.3543307086614173,
                },
                {
                    "duration": 0.8333330000000387,
                    "durationTicks": 960,
                    "midi": 31,
                    "name": "G1",
                    "ticks": 296640,
                    "time": 257.499897,
                    "velocity": 0.2677165354330709,
                },
                {
                    "duration": 0.8333329999999819,
                    "durationTicks": 960,
                    "midi": 31,
                    "name": "G1",
                    "ticks": 297600,
                    "time": 258.33323,
                    "velocity": 0.2992125984251969,
                },
                {
                    "duration": 0.41666650000001937,
                    "durationTicks": 480,
                    "midi": 31,
                    "name": "G1",
                    "ticks": 298560,
                    "time": 259.166563,
                    "velocity": 0.25984251968503935,
                },
                {
                    "duration": 0.4166664999999625,
                    "durationTicks": 480,
                    "midi": 31,
                    "name": "G1",
                    "ticks": 299040,
                    "time": 259.5832295,
                    "velocity": 0.2677165354330709,
                },
                {
                    "duration": 0.8333330000000387,
                    "durationTicks": 960,
                    "midi": 31,
                    "name": "G1",
                    "ticks": 299520,
                    "time": 259.999896,
                    "velocity": 0.2755905511811024,
                },
                {
                    "duration": 0.8333329999999819,
                    "durationTicks": 960,
                    "midi": 31,
                    "name": "G1",
                    "ticks": 301440,
                    "time": 261.666562,
                    "velocity": 0.25984251968503935,
                },
                {
                    "duration": 0.41666650000001937,
                    "durationTicks": 480,
                    "midi": 31,
                    "name": "G1",
                    "ticks": 302400,
                    "time": 262.499895,
                    "velocity": 0.2440944881889764,
                },
                {
                    "duration": 0.41666650000001937,
                    "durationTicks": 480,
                    "midi": 33,
                    "name": "A1",
                    "ticks": 302880,
                    "time": 262.9165615,
                    "velocity": 0.28346456692913385,
                },
                {
                    "duration": 0.8333329999999819,
                    "durationTicks": 960,
                    "midi": 35,
                    "name": "B1",
                    "ticks": 303360,
                    "time": 263.333228,
                    "velocity": 0.23622047244094488,
                },
                {
                    "duration": 0.8333329999999819,
                    "durationTicks": 960,
                    "midi": 35,
                    "name": "B1",
                    "ticks": 304320,
                    "time": 264.166561,
                    "velocity": 0.28346456692913385,
                },
                {
                    "duration": 0.8333330000000387,
                    "durationTicks": 960,
                    "midi": 30,
                    "name": "F#1",
                    "ticks": 305280,
                    "time": 264.999894,
                    "velocity": 0.2755905511811024,
                },
                {
                    "duration": 0.4166664999999625,
                    "durationTicks": 480,
                    "midi": 30,
                    "name": "F#1",
                    "ticks": 306240,
                    "time": 265.833227,
                    "velocity": 0.2755905511811024,
                },
                {
                    "duration": 0.41666650000001937,
                    "durationTicks": 480,
                    "midi": 32,
                    "name": "G#1",
                    "ticks": 306720,
                    "time": 266.2498935,
                    "velocity": 0.29133858267716534,
                },
                {
                    "duration": 0.8333329999999819,
                    "durationTicks": 960,
                    "midi": 33,
                    "name": "A1",
                    "ticks": 307200,
                    "time": 266.66656,
                    "velocity": 0.25984251968503935,
                },
                {
                    "duration": 0.8333330000000387,
                    "durationTicks": 960,
                    "midi": 33,
                    "name": "A1",
                    "ticks": 308160,
                    "time": 267.499893,
                    "velocity": 0.29133858267716534,
                },
                {
                    "duration": 0.8333329999999819,
                    "durationTicks": 960,
                    "midi": 28,
                    "name": "E1",
                    "ticks": 309120,
                    "time": 268.333226,
                    "velocity": 0.25984251968503935,
                },
                {
                    "duration": 0.4166664999999625,
                    "durationTicks": 480,
                    "midi": 28,
                    "name": "E1",
                    "ticks": 310080,
                    "time": 269.166559,
                    "velocity": 0.2677165354330709,
                },
                {
                    "duration": 0.41666650000001937,
                    "durationTicks": 480,
                    "midi": 28,
                    "name": "E1",
                    "ticks": 310560,
                    "time": 269.58322549999997,
                    "velocity": 0.2440944881889764,
                },
                {
                    "duration": 0.8333329999999819,
                    "durationTicks": 960,
                    "midi": 28,
                    "name": "E1",
                    "ticks": 311040,
                    "time": 269.999892,
                    "velocity": 0.2677165354330709,
                },
                {
                    "duration": 0.8333330000000387,
                    "durationTicks": 960,
                    "midi": 28,
                    "name": "E1",
                    "ticks": 312000,
                    "time": 270.83322499999997,
                    "velocity": 0.2755905511811024,
                },
                {
                    "duration": 0.8333329999999819,
                    "durationTicks": 960,
                    "midi": 28,
                    "name": "E1",
                    "ticks": 312960,
                    "time": 271.666558,
                    "velocity": 0.2992125984251969,
                },
                {
                    "duration": 0.41666650000001937,
                    "durationTicks": 480,
                    "midi": 30,
                    "name": "F#1",
                    "ticks": 313920,
                    "time": 272.499891,
                    "velocity": 0.30708661417322836,
                },
                {
                    "duration": 0.4166664999999625,
                    "durationTicks": 480,
                    "midi": 32,
                    "name": "G#1",
                    "ticks": 314400,
                    "time": 272.9165575,
                    "velocity": 0.29133858267716534,
                },
                {
                    "duration": 0.8333330000000387,
                    "durationTicks": 960,
                    "midi": 33,
                    "name": "A1",
                    "ticks": 314880,
                    "time": 273.333224,
                    "velocity": 0.3228346456692913,
                },
                {
                    "duration": 0.8333329999999819,
                    "durationTicks": 960,
                    "midi": 31,
                    "name": "G1",
                    "ticks": 316800,
                    "time": 274.99989,
                    "velocity": 0.2755905511811024,
                },
                {
                    "duration": 0.41666650000001937,
                    "durationTicks": 480,
                    "midi": 31,
                    "name": "G1",
                    "ticks": 317760,
                    "time": 275.833223,
                    "velocity": 0.2755905511811024,
                },
                {
                    "duration": 0.41666650000001937,
                    "durationTicks": 480,
                    "midi": 33,
                    "name": "A1",
                    "ticks": 318240,
                    "time": 276.2498895,
                    "velocity": 0.2755905511811024,
                },
                {
                    "duration": 0.8333329999999819,
                    "durationTicks": 960,
                    "midi": 35,
                    "name": "B1",
                    "ticks": 318720,
                    "time": 276.666556,
                    "velocity": 0.28346456692913385,
                },
                {
                    "duration": 0.8333329999999819,
                    "durationTicks": 960,
                    "midi": 35,
                    "name": "B1",
                    "ticks": 319680,
                    "time": 277.499889,
                    "velocity": 0.2755905511811024,
                },
                {
                    "duration": 0.8333330000000387,
                    "durationTicks": 960,
                    "midi": 30,
                    "name": "F#1",
                    "ticks": 320640,
                    "time": 278.333222,
                    "velocity": 0.25984251968503935,
                },
                {
                    "duration": 0.4166664999999625,
                    "durationTicks": 480,
                    "midi": 30,
                    "name": "F#1",
                    "ticks": 321600,
                    "time": 279.166555,
                    "velocity": 0.2992125984251969,
                },
                {
                    "duration": 0.41666650000001937,
                    "durationTicks": 480,
                    "midi": 32,
                    "name": "G#1",
                    "ticks": 322080,
                    "time": 279.5832215,
                    "velocity": 0.28346456692913385,
                },
                {
                    "duration": 0.8333329999999819,
                    "durationTicks": 960,
                    "midi": 33,
                    "name": "A1",
                    "ticks": 322560,
                    "time": 279.999888,
                    "velocity": 0.29133858267716534,
                },
                {
                    "duration": 0.8333330000000387,
                    "durationTicks": 960,
                    "midi": 33,
                    "name": "A1",
                    "ticks": 323520,
                    "time": 280.833221,
                    "velocity": 0.28346456692913385,
                },
                {
                    "duration": 0.8333329999999819,
                    "durationTicks": 960,
                    "midi": 28,
                    "name": "E1",
                    "ticks": 324480,
                    "time": 281.666554,
                    "velocity": 0.28346456692913385,
                },
                {
                    "duration": 0.41666650000001937,
                    "durationTicks": 480,
                    "midi": 28,
                    "name": "E1",
                    "ticks": 325440,
                    "time": 282.499887,
                    "velocity": 0.2677165354330709,
                },
                {
                    "duration": 0.4166664999999625,
                    "durationTicks": 480,
                    "midi": 28,
                    "name": "E1",
                    "ticks": 325920,
                    "time": 282.9165535,
                    "velocity": 0.25196850393700787,
                },
                {
                    "duration": 0.8333330000000387,
                    "durationTicks": 960,
                    "midi": 28,
                    "name": "E1",
                    "ticks": 326400,
                    "time": 283.33322,
                    "velocity": 0.28346456692913385,
                },
                {
                    "duration": 0.8333329999999819,
                    "durationTicks": 960,
                    "midi": 28,
                    "name": "E1",
                    "ticks": 327360,
                    "time": 284.166553,
                    "velocity": 0.25196850393700787,
                },
                {
                    "duration": 0.8333329999999819,
                    "durationTicks": 960,
                    "midi": 28,
                    "name": "E1",
                    "ticks": 328320,
                    "time": 284.999886,
                    "velocity": 0.25196850393700787,
                },
                {
                    "duration": 0.41666650000001937,
                    "durationTicks": 480,
                    "midi": 30,
                    "name": "F#1",
                    "ticks": 329280,
                    "time": 285.833219,
                    "velocity": 0.2755905511811024,
                },
                {
                    "duration": 0.41666650000001937,
                    "durationTicks": 480,
                    "midi": 32,
                    "name": "G#1",
                    "ticks": 329760,
                    "time": 286.2498855,
                    "velocity": 0.31496062992125984,
                },
                {
                    "duration": 0.8333329999999819,
                    "durationTicks": 960,
                    "midi": 33,
                    "name": "A1",
                    "ticks": 330240,
                    "time": 286.666552,
                    "velocity": 0.2755905511811024,
                },
                {
                    "duration": 0.8333329999999819,
                    "durationTicks": 960,
                    "midi": 33,
                    "name": "A1",
                    "ticks": 332160,
                    "time": 288.333218,
                    "velocity": 0.2204724409448819,
                },
                {
                    "duration": 0.41666650000001937,
                    "durationTicks": 480,
                    "midi": 33,
                    "name": "A1",
                    "ticks": 333120,
                    "time": 289.16655099999997,
                    "velocity": 0.2992125984251969,
                },
                {
                    "duration": 0.41666650000001937,
                    "durationTicks": 480,
                    "midi": 33,
                    "name": "A1",
                    "ticks": 333600,
                    "time": 289.5832175,
                    "velocity": 0.2755905511811024,
                },
                {
                    "duration": 0.8333329999999819,
                    "durationTicks": 960,
                    "midi": 33,
                    "name": "A1",
                    "ticks": 334080,
                    "time": 289.999884,
                    "velocity": 0.25196850393700787,
                },
                {
                    "duration": 0.8333330000000387,
                    "durationTicks": 960,
                    "midi": 33,
                    "name": "A1",
                    "ticks": 336000,
                    "time": 291.66655,
                    "velocity": 0.2755905511811024,
                },
                {
                    "duration": 0.4166664999999625,
                    "durationTicks": 480,
                    "midi": 33,
                    "name": "A1",
                    "ticks": 336960,
                    "time": 292.499883,
                    "velocity": 0.28346456692913385,
                },
                {
                    "duration": 0.41666650000001937,
                    "durationTicks": 480,
                    "midi": 33,
                    "name": "A1",
                    "ticks": 337440,
                    "time": 292.9165495,
                    "velocity": 0.29133858267716534,
                },
                {
                    "duration": 0.8333329999999819,
                    "durationTicks": 960,
                    "midi": 33,
                    "name": "A1",
                    "ticks": 337920,
                    "time": 293.333216,
                    "velocity": 0.2677165354330709,
                },
                {
                    "duration": 0.4166664999999625,
                    "durationTicks": 480,
                    "midi": 33,
                    "name": "A1",
                    "ticks": 339840,
                    "time": 294.999882,
                    "velocity": 0.30708661417322836,
                },
                {
                    "duration": 0.41666650000001937,
                    "durationTicks": 480,
                    "midi": 33,
                    "name": "A1",
                    "ticks": 340320,
                    "time": 295.4165485,
                    "velocity": 0.31496062992125984,
                },
                {
                    "duration": 0.41666650000001937,
                    "durationTicks": 480,
                    "midi": 33,
                    "name": "A1",
                    "ticks": 340800,
                    "time": 295.833215,
                    "velocity": 0.3543307086614173,
                },
                {
                    "duration": 0.41666650000001937,
                    "durationTicks": 480,
                    "midi": 33,
                    "name": "A1",
                    "ticks": 341760,
                    "time": 296.666548,
                    "velocity": 0.3543307086614173,
                },
                {
                    "duration": 0.41666650000001937,
                    "durationTicks": 480,
                    "midi": 33,
                    "name": "A1",
                    "ticks": 342240,
                    "time": 297.0832145,
                    "velocity": 0.4330708661417323,
                },
                {
                    "duration": 0.4166664999999625,
                    "durationTicks": 480,
                    "midi": 33,
                    "name": "A1",
                    "ticks": 342720,
                    "time": 297.499881,
                    "velocity": 0.49606299212598426,
                },
                {
                    "duration": 0.41666650000001937,
                    "durationTicks": 480,
                    "midi": 33,
                    "name": "A1",
                    "ticks": 343680,
                    "time": 298.333214,
                    "velocity": 0.4881889763779528,
                },
                {
                    "duration": 0.4166664999999625,
                    "durationTicks": 480,
                    "midi": 33,
                    "name": "A1",
                    "ticks": 344160,
                    "time": 298.7498805,
                    "velocity": 0.5590551181102362,
                },
                {
                    "duration": 0.41666650000001937,
                    "durationTicks": 480,
                    "midi": 33,
                    "name": "A1",
                    "ticks": 344640,
                    "time": 299.166547,
                    "velocity": 0.6062992125984252,
                },
                {
                    "duration": 0.41666650000001937,
                    "durationTicks": 480,
                    "midi": 33,
                    "name": "A1",
                    "ticks": 346560,
                    "time": 300.833213,
                    "velocity": 0.5039370078740157,
                },
                {
                    "duration": 0.4166664999999625,
                    "durationTicks": 480,
                    "midi": 33,
                    "name": "A1",
                    "ticks": 347040,
                    "time": 301.2498795,
                    "velocity": 0.5511811023622047,
                },
                {
                    "duration": 0.4166664999999625,
                    "durationTicks": 480,
                    "midi": 33,
                    "name": "A1",
                    "ticks": 348480,
                    "time": 302.499879,
                    "velocity": 0.4015748031496063,
                },
                {
                    "duration": 0.41666650000001937,
                    "durationTicks": 480,
                    "midi": 33,
                    "name": "A1",
                    "ticks": 348960,
                    "time": 302.9165455,
                    "velocity": 0.36220472440944884,
                },
                {
                    "duration": 0.41666650000001937,
                    "durationTicks": 480,
                    "midi": 33,
                    "name": "A1",
                    "ticks": 350400,
                    "time": 304.166545,
                    "velocity": 0.2440944881889764,
                },
                {
                    "duration": 0.41666650000001937,
                    "durationTicks": 480,
                    "midi": 33,
                    "name": "A1",
                    "ticks": 350880,
                    "time": 304.5832115,
                    "velocity": 0.2755905511811024,
                },
                {
                    "duration": 0.8333329999999819,
                    "durationTicks": 960,
                    "midi": 28,
                    "name": "E1",
                    "ticks": 428160,
                    "time": 371.666518,
                    "velocity": 0.3543307086614173,
                },
                {
                    "duration": 0.41666650000001937,
                    "durationTicks": 480,
                    "midi": 30,
                    "name": "F#1",
                    "ticks": 429120,
                    "time": 372.499851,
                    "velocity": 0.4251968503937008,
                },
                {
                    "duration": 0.41666650000001937,
                    "durationTicks": 480,
                    "midi": 32,
                    "name": "G#1",
                    "ticks": 429600,
                    "time": 372.9165175,
                    "velocity": 0.4015748031496063,
                },
                {
                    "duration": 0.8333329999999819,
                    "durationTicks": 960,
                    "midi": 33,
                    "name": "A1",
                    "ticks": 430080,
                    "time": 373.333184,
                    "velocity": 0.3858267716535433,
                },
                {
                    "duration": 0.41666650000001937,
                    "durationTicks": 480,
                    "midi": 45,
                    "name": "A2",
                    "ticks": 431040,
                    "time": 374.166517,
                    "velocity": 0.41732283464566927,
                },
                {
                    "duration": 0.4166664999999625,
                    "durationTicks": 480,
                    "midi": 45,
                    "name": "A2",
                    "ticks": 431520,
                    "time": 374.5831835,
                    "velocity": 0.3937007874015748,
                },
                {
                    "duration": 0.8333330000000387,
                    "durationTicks": 960,
                    "midi": 33,
                    "name": "A1",
                    "ticks": 432000,
                    "time": 374.99985,
                    "velocity": 0.3228346456692913,
                },
                {
                    "duration": 0.4166664999999625,
                    "durationTicks": 480,
                    "midi": 45,
                    "name": "A2",
                    "ticks": 432960,
                    "time": 375.833183,
                    "velocity": 0.3858267716535433,
                },
                {
                    "duration": 0.41666650000001937,
                    "durationTicks": 480,
                    "midi": 45,
                    "name": "A2",
                    "ticks": 433440,
                    "time": 376.2498495,
                    "velocity": 0.4015748031496063,
                },
                {
                    "duration": 0.8333329999999819,
                    "durationTicks": 960,
                    "midi": 33,
                    "name": "A1",
                    "ticks": 433920,
                    "time": 376.666516,
                    "velocity": 0.33070866141732286,
                },
                {
                    "duration": 0.41666650000001937,
                    "durationTicks": 480,
                    "midi": 45,
                    "name": "A2",
                    "ticks": 434880,
                    "time": 377.499849,
                    "velocity": 0.4015748031496063,
                },
                {
                    "duration": 0.41666650000001937,
                    "durationTicks": 480,
                    "midi": 45,
                    "name": "A2",
                    "ticks": 435360,
                    "time": 377.9165155,
                    "velocity": 0.41732283464566927,
                },
                {
                    "duration": 0.8333329999999819,
                    "durationTicks": 960,
                    "midi": 33,
                    "name": "A1",
                    "ticks": 435840,
                    "time": 378.333182,
                    "velocity": 0.3779527559055118,
                },
                {
                    "duration": 0.41666650000001937,
                    "durationTicks": 480,
                    "midi": 45,
                    "name": "A2",
                    "ticks": 436800,
                    "time": 379.166515,
                    "velocity": 0.4881889763779528,
                },
                {
                    "duration": 0.4166664999999625,
                    "durationTicks": 480,
                    "midi": 45,
                    "name": "A2",
                    "ticks": 437280,
                    "time": 379.5831815,
                    "velocity": 0.4330708661417323,
                },
                {
                    "duration": 0.8333329999999819,
                    "durationTicks": 960,
                    "midi": 33,
                    "name": "A1",
                    "ticks": 437760,
                    "time": 379.999848,
                    "velocity": 0.3858267716535433,
                },
                {
                    "duration": 0.41666650000001937,
                    "durationTicks": 480,
                    "midi": 45,
                    "name": "A2",
                    "ticks": 438720,
                    "time": 380.83318099999997,
                    "velocity": 0.5039370078740157,
                },
                {
                    "duration": 0.41666650000001937,
                    "durationTicks": 480,
                    "midi": 45,
                    "name": "A2",
                    "ticks": 439200,
                    "time": 381.2498475,
                    "velocity": 0.47244094488188976,
                },
                {
                    "duration": 0.8333329999999819,
                    "durationTicks": 960,
                    "midi": 33,
                    "name": "A1",
                    "ticks": 439680,
                    "time": 381.666514,
                    "velocity": 0.4251968503937008,
                },
                {
                    "duration": 0.41666650000001937,
                    "durationTicks": 480,
                    "midi": 45,
                    "name": "A2",
                    "ticks": 440640,
                    "time": 382.499847,
                    "velocity": 0.5669291338582677,
                },
                {
                    "duration": 0.4166664999999625,
                    "durationTicks": 480,
                    "midi": 45,
                    "name": "A2",
                    "ticks": 441120,
                    "time": 382.9165135,
                    "velocity": 0.5196850393700787,
                },
                {
                    "duration": 0.8333330000000387,
                    "durationTicks": 960,
                    "midi": 33,
                    "name": "A1",
                    "ticks": 441600,
                    "time": 383.33317999999997,
                    "velocity": 0.4094488188976378,
                },
                {
                    "duration": 0.4166664999999625,
                    "durationTicks": 480,
                    "midi": 45,
                    "name": "A2",
                    "ticks": 442560,
                    "time": 384.166513,
                    "velocity": 0.5275590551181102,
                },
                {
                    "duration": 0.41666650000001937,
                    "durationTicks": 480,
                    "midi": 45,
                    "name": "A2",
                    "ticks": 443040,
                    "time": 384.58317949999997,
                    "velocity": 0.4645669291338583,
                },
                {
                    "duration": 0.8333329999999819,
                    "durationTicks": 960,
                    "midi": 33,
                    "name": "A1",
                    "ticks": 443520,
                    "time": 384.999846,
                    "velocity": 0.3700787401574803,
                },
                {
                    "duration": 0.41666650000001937,
                    "durationTicks": 480,
                    "midi": 45,
                    "name": "A2",
                    "ticks": 444480,
                    "time": 385.833179,
                    "velocity": 0.4409448818897638,
                },
                {
                    "duration": 0.41666650000001937,
                    "durationTicks": 480,
                    "midi": 45,
                    "name": "A2",
                    "ticks": 444960,
                    "time": 386.2498455,
                    "velocity": 0.4015748031496063,
                },
                {
                    "duration": 0.8333329999999819,
                    "durationTicks": 960,
                    "midi": 33,
                    "name": "A1",
                    "ticks": 445440,
                    "time": 386.666512,
                    "velocity": 0.31496062992125984,
                },
                {
                    "duration": 0.41666650000001937,
                    "durationTicks": 480,
                    "midi": 45,
                    "name": "A2",
                    "ticks": 446400,
                    "time": 387.499845,
                    "velocity": 0.47244094488188976,
                },
                {
                    "duration": 0.4166664999999625,
                    "durationTicks": 480,
                    "midi": 45,
                    "name": "A2",
                    "ticks": 446880,
                    "time": 387.9165115,
                    "velocity": 0.4330708661417323,
                },
                {
                    "duration": 0.8333330000000387,
                    "durationTicks": 960,
                    "midi": 33,
                    "name": "A1",
                    "ticks": 447360,
                    "time": 388.333178,
                    "velocity": 0.3543307086614173,
                },
                {
                    "duration": 0.4166664999999625,
                    "durationTicks": 480,
                    "midi": 45,
                    "name": "A2",
                    "ticks": 448320,
                    "time": 389.166511,
                    "velocity": 0.5669291338582677,
                },
                {
                    "duration": 0.41666650000001937,
                    "durationTicks": 480,
                    "midi": 45,
                    "name": "A2",
                    "ticks": 448800,
                    "time": 389.5831775,
                    "velocity": 0.49606299212598426,
                },
                {
                    "duration": 0.8333329999999819,
                    "durationTicks": 960,
                    "midi": 33,
                    "name": "A1",
                    "ticks": 449280,
                    "time": 389.999844,
                    "velocity": 0.41732283464566927,
                },
                {
                    "duration": 0.41666650000001937,
                    "durationTicks": 480,
                    "midi": 45,
                    "name": "A2",
                    "ticks": 450240,
                    "time": 390.833177,
                    "velocity": 0.5905511811023622,
                },
                {
                    "duration": 0.41666650000001937,
                    "durationTicks": 480,
                    "midi": 45,
                    "name": "A2",
                    "ticks": 450720,
                    "time": 391.2498435,
                    "velocity": 0.5984251968503937,
                },
                {
                    "duration": 0.8333329999999819,
                    "durationTicks": 960,
                    "midi": 33,
                    "name": "A1",
                    "ticks": 451200,
                    "time": 391.66651,
                    "velocity": 0.47244094488188976,
                },
                {
                    "duration": 0.41666650000001937,
                    "durationTicks": 480,
                    "midi": 45,
                    "name": "A2",
                    "ticks": 452160,
                    "time": 392.499843,
                    "velocity": 0.6692913385826772,
                },
                {
                    "duration": 0.4166664999999625,
                    "durationTicks": 480,
                    "midi": 45,
                    "name": "A2",
                    "ticks": 452640,
                    "time": 392.9165095,
                    "velocity": 0.5984251968503937,
                },
                {
                    "duration": 0.8333330000000387,
                    "durationTicks": 960,
                    "midi": 33,
                    "name": "A1",
                    "ticks": 453120,
                    "time": 393.333176,
                    "velocity": 0.4645669291338583,
                },
                {
                    "duration": 0.4166664999999625,
                    "durationTicks": 480,
                    "midi": 45,
                    "name": "A2",
                    "ticks": 454080,
                    "time": 394.166509,
                    "velocity": 0.5511811023622047,
                },
                {
                    "duration": 0.41666650000001937,
                    "durationTicks": 480,
                    "midi": 45,
                    "name": "A2",
                    "ticks": 454560,
                    "time": 394.5831755,
                    "velocity": 0.5039370078740157,
                },
                {
                    "duration": 0.8333329999999819,
                    "durationTicks": 960,
                    "midi": 33,
                    "name": "A1",
                    "ticks": 455040,
                    "time": 394.999842,
                    "velocity": 0.4409448818897638,
                },
                {
                    "duration": 0.41666650000001937,
                    "durationTicks": 480,
                    "midi": 45,
                    "name": "A2",
                    "ticks": 456000,
                    "time": 395.833175,
                    "velocity": 0.5748031496062992,
                },
                {
                    "duration": 0.41666650000001937,
                    "durationTicks": 480,
                    "midi": 45,
                    "name": "A2",
                    "ticks": 456480,
                    "time": 396.2498415,
                    "velocity": 0.49606299212598426,
                },
                {
                    "duration": 0.8333329999999819,
                    "durationTicks": 960,
                    "midi": 33,
                    "name": "A1",
                    "ticks": 456960,
                    "time": 396.666508,
                    "velocity": 0.41732283464566927,
                },
                {
                    "duration": 0.41666650000001937,
                    "durationTicks": 480,
                    "midi": 45,
                    "name": "A2",
                    "ticks": 457920,
                    "time": 397.499841,
                    "velocity": 0.5905511811023622,
                },
                {
                    "duration": 0.4166664999999625,
                    "durationTicks": 480,
                    "midi": 45,
                    "name": "A2",
                    "ticks": 458400,
                    "time": 397.9165075,
                    "velocity": 0.49606299212598426,
                },
                {
                    "duration": 0.8333329999999819,
                    "durationTicks": 960,
                    "midi": 33,
                    "name": "A1",
                    "ticks": 458880,
                    "time": 398.333174,
                    "velocity": 0.4094488188976378,
                },
                {
                    "duration": 0.41666650000001937,
                    "durationTicks": 480,
                    "midi": 45,
                    "name": "A2",
                    "ticks": 459840,
                    "time": 399.16650699999997,
                    "velocity": 0.47244094488188976,
                },
                {
                    "duration": 0.41666650000001937,
                    "durationTicks": 480,
                    "midi": 45,
                    "name": "A2",
                    "ticks": 460320,
                    "time": 399.5831735,
                    "velocity": 0.4566929133858268,
                },
                {
                    "duration": 0.8333329999999819,
                    "durationTicks": 960,
                    "midi": 33,
                    "name": "A1",
                    "ticks": 460800,
                    "time": 399.99984,
                    "velocity": 0.4094488188976378,
                },
                {
                    "duration": 0.41666650000001937,
                    "durationTicks": 480,
                    "midi": 45,
                    "name": "A2",
                    "ticks": 461760,
                    "time": 400.833173,
                    "velocity": 0.48031496062992124,
                },
                {
                    "duration": 0.4166664999999625,
                    "durationTicks": 480,
                    "midi": 45,
                    "name": "A2",
                    "ticks": 462240,
                    "time": 401.2498395,
                    "velocity": 0.4094488188976378,
                },
                {
                    "duration": 0.8333330000000387,
                    "durationTicks": 960,
                    "midi": 33,
                    "name": "A1",
                    "ticks": 462720,
                    "time": 401.66650599999997,
                    "velocity": 0.4015748031496063,
                },
                {
                    "duration": 0.4166664999999625,
                    "durationTicks": 480,
                    "midi": 45,
                    "name": "A2",
                    "ticks": 463680,
                    "time": 402.499839,
                    "velocity": 0.5118110236220472,
                },
                {
                    "duration": 0.41666650000001937,
                    "durationTicks": 480,
                    "midi": 45,
                    "name": "A2",
                    "ticks": 464160,
                    "time": 402.91650549999997,
                    "velocity": 0.41732283464566927,
                },
                {
                    "duration": 0.8333329999999819,
                    "durationTicks": 960,
                    "midi": 33,
                    "name": "A1",
                    "ticks": 488640,
                    "time": 424.166497,
                    "velocity": 0.3464566929133858,
                },
                {
                    "duration": 0.8333329999999819,
                    "durationTicks": 960,
                    "midi": 40,
                    "name": "E2",
                    "ticks": 490560,
                    "time": 425.833163,
                    "velocity": 0.36220472440944884,
                },
                {
                    "duration": 0.8333330000000387,
                    "durationTicks": 960,
                    "midi": 40,
                    "name": "E2",
                    "ticks": 492480,
                    "time": 427.499829,
                    "velocity": 0.33858267716535434,
                },
                {
                    "duration": 0.8333329999999819,
                    "durationTicks": 960,
                    "midi": 45,
                    "name": "A2",
                    "ticks": 494400,
                    "time": 429.166495,
                    "velocity": 0.31496062992125984,
                },
                {
                    "duration": 0.8333329999999819,
                    "durationTicks": 960,
                    "midi": 45,
                    "name": "A2",
                    "ticks": 496320,
                    "time": 430.833161,
                    "velocity": 0.3464566929133858,
                },
                {
                    "duration": 0.8333330000000387,
                    "durationTicks": 960,
                    "midi": 43,
                    "name": "G2",
                    "ticks": 498240,
                    "time": 432.499827,
                    "velocity": 0.25984251968503935,
                },
                {
                    "duration": 0.8333329999999819,
                    "durationTicks": 960,
                    "midi": 31,
                    "name": "G1",
                    "ticks": 499200,
                    "time": 433.33316,
                    "velocity": 0.2283464566929134,
                },
                {
                    "duration": 0.41666650000001937,
                    "durationTicks": 480,
                    "midi": 31,
                    "name": "G1",
                    "ticks": 500160,
                    "time": 434.166493,
                    "velocity": 0.2755905511811024,
                },
                {
                    "duration": 0.4166664999999625,
                    "durationTicks": 480,
                    "midi": 31,
                    "name": "G1",
                    "ticks": 500640,
                    "time": 434.5831595,
                    "velocity": 0.25196850393700787,
                },
                {
                    "duration": 0.8333330000000387,
                    "durationTicks": 960,
                    "midi": 36,
                    "name": "C2",
                    "ticks": 501120,
                    "time": 434.999826,
                    "velocity": 0.33070866141732286,
                },
                {
                    "duration": 0.8333329999999819,
                    "durationTicks": 960,
                    "midi": 48,
                    "name": "C3",
                    "ticks": 504000,
                    "time": 437.499825,
                    "velocity": 0.25984251968503935,
                },
                {
                    "duration": 0.8333329999999819,
                    "durationTicks": 960,
                    "midi": 47,
                    "name": "B2",
                    "ticks": 505920,
                    "time": 439.166491,
                    "velocity": 0.2440944881889764,
                },
                {
                    "duration": 0.8333330000000387,
                    "durationTicks": 960,
                    "midi": 52,
                    "name": "E3",
                    "ticks": 507840,
                    "time": 440.83315699999997,
                    "velocity": 0.2440944881889764,
                },
                {
                    "duration": 0.8333329999999819,
                    "durationTicks": 960,
                    "midi": 45,
                    "name": "A2",
                    "ticks": 509760,
                    "time": 442.499823,
                    "velocity": 0.2283464566929134,
                },
                {
                    "duration": 0.8333329999999819,
                    "durationTicks": 960,
                    "midi": 45,
                    "name": "A2",
                    "ticks": 511680,
                    "time": 444.166489,
                    "velocity": 0.2677165354330709,
                },
                {
                    "duration": 0.8333329999999819,
                    "durationTicks": 960,
                    "midi": 44,
                    "name": "G#2",
                    "ticks": 512640,
                    "time": 444.999822,
                    "velocity": 0.28346456692913385,
                },
                {
                    "duration": 0.8333330000000387,
                    "durationTicks": 960,
                    "midi": 45,
                    "name": "A2",
                    "ticks": 513600,
                    "time": 445.833155,
                    "velocity": 0.29133858267716534,
                },
                {
                    "duration": 0.8333329999999819,
                    "durationTicks": 960,
                    "midi": 28,
                    "name": "E1",
                    "ticks": 514560,
                    "time": 446.666488,
                    "velocity": 0.3228346456692913,
                },
                {
                    "duration": 0.41666650000001937,
                    "durationTicks": 480,
                    "midi": 30,
                    "name": "F#1",
                    "ticks": 515520,
                    "time": 447.499821,
                    "velocity": 0.41732283464566927,
                },
                {
                    "duration": 0.4166664999999625,
                    "durationTicks": 480,
                    "midi": 32,
                    "name": "G#1",
                    "ticks": 516000,
                    "time": 447.9164875,
                    "velocity": 0.4015748031496063,
                },
                {
                    "duration": 0.8333330000000387,
                    "durationTicks": 960,
                    "midi": 33,
                    "name": "A1",
                    "ticks": 516480,
                    "time": 448.333154,
                    "velocity": 0.3937007874015748,
                },
                {
                    "duration": 0.8333330000000387,
                    "durationTicks": 960,
                    "midi": 28,
                    "name": "E1",
                    "ticks": 522240,
                    "time": 453.333152,
                    "velocity": 0.4645669291338583,
                },
                {
                    "duration": 0.4166664999999625,
                    "durationTicks": 480,
                    "midi": 30,
                    "name": "F#1",
                    "ticks": 523200,
                    "time": 454.166485,
                    "velocity": 0.49606299212598426,
                },
                {
                    "duration": 0.41666650000001937,
                    "durationTicks": 480,
                    "midi": 32,
                    "name": "G#1",
                    "ticks": 523680,
                    "time": 454.5831515,
                    "velocity": 0.5275590551181102,
                },
                {
                    "duration": 0.8333329999999819,
                    "durationTicks": 960,
                    "midi": 33,
                    "name": "A1",
                    "ticks": 524160,
                    "time": 454.999818,
                    "velocity": 0.4645669291338583,
                },
                {
                    "duration": 0.8333330000000387,
                    "durationTicks": 960,
                    "midi": 33,
                    "name": "A1",
                    "ticks": 526080,
                    "time": 456.66648399999997,
                    "velocity": 0.4330708661417323,
                },
            ],
        },
        {
            "channel": 10,
            "controlChanges": {
                "7": [
                    {
                        "number": 7,
                        "ticks": 192348,
                        "time": 166.9686832125,
                        "value": 0.6929133858267716,
                    },
                    {
                        "number": 7,
                        "ticks": 286080,
                        "time": 248.333234,
                        "value": 0.6929133858267716,
                    },
                    {
                        "number": 7,
                        "ticks": 428160,
                        "time": 371.666518,
                        "value": 0.6929133858267716,
                    },
                    {
                        "number": 7,
                        "ticks": 488640,
                        "time": 424.166497,
                        "value": 0.6929133858267716,
                    },
                ],
                "10": [
                    {
                        "number": 10,
                        "ticks": 192348,
                        "time": 166.9686832125,
                        "value": 0.7480314960629921,
                    },
                    {
                        "number": 10,
                        "ticks": 286080,
                        "time": 248.333234,
                        "value": 0.7480314960629921,
                    },
                    {
                        "number": 10,
                        "ticks": 428160,
                        "time": 371.666518,
                        "value": 0.7480314960629921,
                    },
                    {
                        "number": 10,
                        "ticks": 488640,
                        "time": 424.166497,
                        "value": 0.7480314960629921,
                    },
                ],
                "91": [
                    {
                        "number": 91,
                        "ticks": 192348,
                        "time": 166.9686832125,
                        "value": 0.4645669291338583,
                    },
                    {
                        "number": 91,
                        "ticks": 286080,
                        "time": 248.333234,
                        "value": 0.4645669291338583,
                    },
                    {
                        "number": 91,
                        "ticks": 428160,
                        "time": 371.666518,
                        "value": 0.4645669291338583,
                    },
                    {
                        "number": 91,
                        "ticks": 488640,
                        "time": 424.166497,
                        "value": 0.4645669291338583,
                    },
                ],
            },
            "pitchBends": [],
            "instrument": {
                "family": "strings",
                "number": 45,
                "name": "pizzicato strings",
            },
            "name": "",
            "notes": [
                {
                    "duration": 0.41666649999999095,
                    "durationTicks": 480,
                    "midi": 42,
                    "name": "F#2",
                    "ticks": 192960,
                    "time": 167.499933,
                    "velocity": 0.3779527559055118,
                },
                {
                    "duration": 0.41666650000001937,
                    "durationTicks": 480,
                    "midi": 44,
                    "name": "G#2",
                    "ticks": 193440,
                    "time": 167.9165995,
                    "velocity": 0.4251968503937008,
                },
                {
                    "duration": 0.8333329999999819,
                    "durationTicks": 960,
                    "midi": 45,
                    "name": "A2",
                    "ticks": 193920,
                    "time": 168.333266,
                    "velocity": 0.3937007874015748,
                },
                {
                    "duration": 0.41666650000001937,
                    "durationTicks": 480,
                    "midi": 57,
                    "name": "A3",
                    "ticks": 194880,
                    "time": 169.166599,
                    "velocity": 0.4330708661417323,
                },
                {
                    "duration": 0.41666649999999095,
                    "durationTicks": 480,
                    "midi": 57,
                    "name": "A3",
                    "ticks": 195360,
                    "time": 169.5832655,
                    "velocity": 0.4330708661417323,
                },
                {
                    "duration": 0.8333330000000103,
                    "durationTicks": 960,
                    "midi": 45,
                    "name": "A2",
                    "ticks": 195840,
                    "time": 169.999932,
                    "velocity": 0.31496062992125984,
                },
                {
                    "duration": 0.41666649999999095,
                    "durationTicks": 480,
                    "midi": 57,
                    "name": "A3",
                    "ticks": 196800,
                    "time": 170.833265,
                    "velocity": 0.41732283464566927,
                },
                {
                    "duration": 0.41666649999999095,
                    "durationTicks": 480,
                    "midi": 57,
                    "name": "A3",
                    "ticks": 197280,
                    "time": 171.2499315,
                    "velocity": 0.3779527559055118,
                },
                {
                    "duration": 0.8333330000000103,
                    "durationTicks": 960,
                    "midi": 45,
                    "name": "A2",
                    "ticks": 197760,
                    "time": 171.666598,
                    "velocity": 0.2992125984251969,
                },
                {
                    "duration": 0.41666649999999095,
                    "durationTicks": 480,
                    "midi": 57,
                    "name": "A3",
                    "ticks": 198720,
                    "time": 172.499931,
                    "velocity": 0.4409448818897638,
                },
                {
                    "duration": 0.41666649999999095,
                    "durationTicks": 480,
                    "midi": 57,
                    "name": "A3",
                    "ticks": 199200,
                    "time": 172.9165975,
                    "velocity": 0.4094488188976378,
                },
                {
                    "duration": 0.8333330000000103,
                    "durationTicks": 960,
                    "midi": 45,
                    "name": "A2",
                    "ticks": 199680,
                    "time": 173.33326399999999,
                    "velocity": 0.4094488188976378,
                },
                {
                    "duration": 0.41666649999999095,
                    "durationTicks": 480,
                    "midi": 57,
                    "name": "A3",
                    "ticks": 200640,
                    "time": 174.166597,
                    "velocity": 0.4645669291338583,
                },
                {
                    "duration": 0.41666650000001937,
                    "durationTicks": 480,
                    "midi": 57,
                    "name": "A3",
                    "ticks": 201120,
                    "time": 174.5832635,
                    "velocity": 0.5039370078740157,
                },
                {
                    "duration": 0.8333329999999819,
                    "durationTicks": 960,
                    "midi": 45,
                    "name": "A2",
                    "ticks": 201600,
                    "time": 174.99993,
                    "velocity": 0.4015748031496063,
                },
                {
                    "duration": 0.41666650000001937,
                    "durationTicks": 480,
                    "midi": 57,
                    "name": "A3",
                    "ticks": 202560,
                    "time": 175.833263,
                    "velocity": 0.5905511811023622,
                },
                {
                    "duration": 0.41666649999999095,
                    "durationTicks": 480,
                    "midi": 57,
                    "name": "A3",
                    "ticks": 203040,
                    "time": 176.2499295,
                    "velocity": 0.5511811023622047,
                },
                {
                    "duration": 0.8333330000000103,
                    "durationTicks": 960,
                    "midi": 45,
                    "name": "A2",
                    "ticks": 203520,
                    "time": 176.666596,
                    "velocity": 0.48031496062992124,
                },
                {
                    "duration": 0.41666649999999095,
                    "durationTicks": 480,
                    "midi": 57,
                    "name": "A3",
                    "ticks": 204480,
                    "time": 177.499929,
                    "velocity": 0.6535433070866141,
                },
                {
                    "duration": 0.41666649999999095,
                    "durationTicks": 480,
                    "midi": 57,
                    "name": "A3",
                    "ticks": 204960,
                    "time": 177.9165955,
                    "velocity": 0.6692913385826772,
                },
                {
                    "duration": 0.8333330000000103,
                    "durationTicks": 960,
                    "midi": 45,
                    "name": "A2",
                    "ticks": 205440,
                    "time": 178.333262,
                    "velocity": 0.4251968503937008,
                },
                {
                    "duration": 0.41666649999999095,
                    "durationTicks": 480,
                    "midi": 57,
                    "name": "A3",
                    "ticks": 206400,
                    "time": 179.166595,
                    "velocity": 0.5196850393700787,
                },
                {
                    "duration": 0.41666650000001937,
                    "durationTicks": 480,
                    "midi": 57,
                    "name": "A3",
                    "ticks": 206880,
                    "time": 179.5832615,
                    "velocity": 0.4251968503937008,
                },
                {
                    "duration": 0.8333329999999819,
                    "durationTicks": 960,
                    "midi": 45,
                    "name": "A2",
                    "ticks": 207360,
                    "time": 179.999928,
                    "velocity": 0.36220472440944884,
                },
                {
                    "duration": 0.41666649999999095,
                    "durationTicks": 480,
                    "midi": 57,
                    "name": "A3",
                    "ticks": 208320,
                    "time": 180.833261,
                    "velocity": 0.4881889763779528,
                },
                {
                    "duration": 0.41666650000001937,
                    "durationTicks": 480,
                    "midi": 57,
                    "name": "A3",
                    "ticks": 208800,
                    "time": 181.24992749999998,
                    "velocity": 0.4015748031496063,
                },
                {
                    "duration": 0.8333329999999819,
                    "durationTicks": 960,
                    "midi": 45,
                    "name": "A2",
                    "ticks": 209280,
                    "time": 181.666594,
                    "velocity": 0.30708661417322836,
                },
                {
                    "duration": 0.41666650000001937,
                    "durationTicks": 480,
                    "midi": 57,
                    "name": "A3",
                    "ticks": 210240,
                    "time": 182.49992699999999,
                    "velocity": 0.4330708661417323,
                },
                {
                    "duration": 0.41666649999999095,
                    "durationTicks": 480,
                    "midi": 57,
                    "name": "A3",
                    "ticks": 210720,
                    "time": 182.9165935,
                    "velocity": 0.3937007874015748,
                },
                {
                    "duration": 0.8333330000000103,
                    "durationTicks": 960,
                    "midi": 45,
                    "name": "A2",
                    "ticks": 211200,
                    "time": 183.33326,
                    "velocity": 0.33070866141732286,
                },
                {
                    "duration": 0.41666649999999095,
                    "durationTicks": 480,
                    "midi": 57,
                    "name": "A3",
                    "ticks": 212160,
                    "time": 184.166593,
                    "velocity": 0.4645669291338583,
                },
                {
                    "duration": 0.41666649999999095,
                    "durationTicks": 480,
                    "midi": 57,
                    "name": "A3",
                    "ticks": 212640,
                    "time": 184.5832595,
                    "velocity": 0.44881889763779526,
                },
                {
                    "duration": 0.8333330000000103,
                    "durationTicks": 960,
                    "midi": 45,
                    "name": "A2",
                    "ticks": 213120,
                    "time": 184.999926,
                    "velocity": 0.36220472440944884,
                },
                {
                    "duration": 0.41666649999999095,
                    "durationTicks": 480,
                    "midi": 57,
                    "name": "A3",
                    "ticks": 214080,
                    "time": 185.833259,
                    "velocity": 0.48031496062992124,
                },
                {
                    "duration": 0.41666650000001937,
                    "durationTicks": 480,
                    "midi": 57,
                    "name": "A3",
                    "ticks": 214560,
                    "time": 186.2499255,
                    "velocity": 0.47244094488188976,
                },
                {
                    "duration": 0.8333329999999819,
                    "durationTicks": 960,
                    "midi": 45,
                    "name": "A2",
                    "ticks": 215040,
                    "time": 186.666592,
                    "velocity": 0.4015748031496063,
                },
                {
                    "duration": 0.41666650000001937,
                    "durationTicks": 480,
                    "midi": 57,
                    "name": "A3",
                    "ticks": 216000,
                    "time": 187.499925,
                    "velocity": 0.5748031496062992,
                },
                {
                    "duration": 0.41666649999999095,
                    "durationTicks": 480,
                    "midi": 57,
                    "name": "A3",
                    "ticks": 216480,
                    "time": 187.9165915,
                    "velocity": 0.47244094488188976,
                },
                {
                    "duration": 0.41666649999999095,
                    "durationTicks": 480,
                    "midi": 42,
                    "name": "F#2",
                    "ticks": 216960,
                    "time": 188.333258,
                    "velocity": 0.4409448818897638,
                },
                {
                    "duration": 0.41666650000001937,
                    "durationTicks": 480,
                    "midi": 44,
                    "name": "G#2",
                    "ticks": 217440,
                    "time": 188.7499245,
                    "velocity": 0.4881889763779528,
                },
                {
                    "duration": 0.41666649999999095,
                    "durationTicks": 480,
                    "midi": 45,
                    "name": "A2",
                    "ticks": 217920,
                    "time": 189.166591,
                    "velocity": 0.5039370078740157,
                },
                {
                    "duration": 0.41666649999999095,
                    "durationTicks": 480,
                    "midi": 45,
                    "name": "A2",
                    "ticks": 218400,
                    "time": 189.5832575,
                    "velocity": 0.4645669291338583,
                },
                {
                    "duration": 0.8333330000000103,
                    "durationTicks": 960,
                    "midi": 47,
                    "name": "B2",
                    "ticks": 218880,
                    "time": 189.999924,
                    "velocity": 0.47244094488188976,
                },
                {
                    "duration": 0.41666649999999095,
                    "durationTicks": 480,
                    "midi": 59,
                    "name": "B3",
                    "ticks": 219840,
                    "time": 190.833257,
                    "velocity": 0.4409448818897638,
                },
                {
                    "duration": 0.41666649999999095,
                    "durationTicks": 480,
                    "midi": 59,
                    "name": "B3",
                    "ticks": 220320,
                    "time": 191.2499235,
                    "velocity": 0.3858267716535433,
                },
                {
                    "duration": 0.8333330000000103,
                    "durationTicks": 960,
                    "midi": 52,
                    "name": "E3",
                    "ticks": 220800,
                    "time": 191.66658999999999,
                    "velocity": 0.36220472440944884,
                },
                {
                    "duration": 0.41666649999999095,
                    "durationTicks": 480,
                    "midi": 64,
                    "name": "E4",
                    "ticks": 221760,
                    "time": 192.499923,
                    "velocity": 0.33070866141732286,
                },
                {
                    "duration": 0.41666650000001937,
                    "durationTicks": 480,
                    "midi": 64,
                    "name": "E4",
                    "ticks": 222240,
                    "time": 192.9165895,
                    "velocity": 0.28346456692913385,
                },
                {
                    "duration": 0.8333329999999819,
                    "durationTicks": 960,
                    "midi": 52,
                    "name": "E3",
                    "ticks": 222720,
                    "time": 193.333256,
                    "velocity": 0.2283464566929134,
                },
                {
                    "duration": 0.41666650000001937,
                    "durationTicks": 480,
                    "midi": 64,
                    "name": "E4",
                    "ticks": 223680,
                    "time": 194.166589,
                    "velocity": 0.33858267716535434,
                },
                {
                    "duration": 0.41666649999999095,
                    "durationTicks": 480,
                    "midi": 64,
                    "name": "E4",
                    "ticks": 224160,
                    "time": 194.5832555,
                    "velocity": 0.33070866141732286,
                },
                {
                    "duration": 0.8333330000000103,
                    "durationTicks": 960,
                    "midi": 52,
                    "name": "E3",
                    "ticks": 224640,
                    "time": 194.999922,
                    "velocity": 0.25984251968503935,
                },
                {
                    "duration": 0.41666649999999095,
                    "durationTicks": 480,
                    "midi": 64,
                    "name": "E4",
                    "ticks": 225600,
                    "time": 195.833255,
                    "velocity": 0.36220472440944884,
                },
                {
                    "duration": 0.41666649999999095,
                    "durationTicks": 480,
                    "midi": 64,
                    "name": "E4",
                    "ticks": 226080,
                    "time": 196.2499215,
                    "velocity": 0.2755905511811024,
                },
                {
                    "duration": 0.8333330000000103,
                    "durationTicks": 960,
                    "midi": 52,
                    "name": "E3",
                    "ticks": 226560,
                    "time": 196.666588,
                    "velocity": 0.2440944881889764,
                },
                {
                    "duration": 0.41666649999999095,
                    "durationTicks": 480,
                    "midi": 64,
                    "name": "E4",
                    "ticks": 227520,
                    "time": 197.499921,
                    "velocity": 0.4015748031496063,
                },
                {
                    "duration": 0.41666650000001937,
                    "durationTicks": 480,
                    "midi": 64,
                    "name": "E4",
                    "ticks": 228000,
                    "time": 197.9165875,
                    "velocity": 0.30708661417322836,
                },
                {
                    "duration": 0.8333329999999819,
                    "durationTicks": 960,
                    "midi": 52,
                    "name": "E3",
                    "ticks": 228480,
                    "time": 198.333254,
                    "velocity": 0.2440944881889764,
                },
                {
                    "duration": 0.41666649999999095,
                    "durationTicks": 480,
                    "midi": 64,
                    "name": "E4",
                    "ticks": 229440,
                    "time": 199.166587,
                    "velocity": 0.3700787401574803,
                },
                {
                    "duration": 0.41666650000001937,
                    "durationTicks": 480,
                    "midi": 64,
                    "name": "E4",
                    "ticks": 229920,
                    "time": 199.58325349999998,
                    "velocity": 0.2992125984251969,
                },
                {
                    "duration": 0.8333329999999819,
                    "durationTicks": 960,
                    "midi": 52,
                    "name": "E3",
                    "ticks": 230400,
                    "time": 199.99992,
                    "velocity": 0.25196850393700787,
                },
                {
                    "duration": 0.41666650000001937,
                    "durationTicks": 480,
                    "midi": 64,
                    "name": "E4",
                    "ticks": 231360,
                    "time": 200.83325299999998,
                    "velocity": 0.3937007874015748,
                },
                {
                    "duration": 0.41666649999999095,
                    "durationTicks": 480,
                    "midi": 64,
                    "name": "E4",
                    "ticks": 231840,
                    "time": 201.2499195,
                    "velocity": 0.2755905511811024,
                },
                {
                    "duration": 0.8333330000000103,
                    "durationTicks": 960,
                    "midi": 52,
                    "name": "E3",
                    "ticks": 232320,
                    "time": 201.666586,
                    "velocity": 0.2755905511811024,
                },
                {
                    "duration": 0.41666649999999095,
                    "durationTicks": 480,
                    "midi": 64,
                    "name": "E4",
                    "ticks": 233280,
                    "time": 202.499919,
                    "velocity": 0.36220472440944884,
                },
                {
                    "duration": 0.41666649999999095,
                    "durationTicks": 480,
                    "midi": 64,
                    "name": "E4",
                    "ticks": 233760,
                    "time": 202.9165855,
                    "velocity": 0.30708661417322836,
                },
                {
                    "duration": 0.8333330000000103,
                    "durationTicks": 960,
                    "midi": 49,
                    "name": "C#3",
                    "ticks": 234240,
                    "time": 203.333252,
                    "velocity": 0.28346456692913385,
                },
                {
                    "duration": 0.41666649999999095,
                    "durationTicks": 480,
                    "midi": 61,
                    "name": "C#4",
                    "ticks": 235200,
                    "time": 204.166585,
                    "velocity": 0.3779527559055118,
                },
                {
                    "duration": 0.41666650000001937,
                    "durationTicks": 480,
                    "midi": 61,
                    "name": "C#4",
                    "ticks": 235680,
                    "time": 204.5832515,
                    "velocity": 0.33858267716535434,
                },
                {
                    "duration": 0.8333329999999819,
                    "durationTicks": 960,
                    "midi": 50,
                    "name": "D3",
                    "ticks": 236160,
                    "time": 204.999918,
                    "velocity": 0.29133858267716534,
                },
                {
                    "duration": 0.41666650000001937,
                    "durationTicks": 480,
                    "midi": 62,
                    "name": "D4",
                    "ticks": 237120,
                    "time": 205.833251,
                    "velocity": 0.5433070866141733,
                },
                {
                    "duration": 0.41666649999999095,
                    "durationTicks": 480,
                    "midi": 62,
                    "name": "D4",
                    "ticks": 237600,
                    "time": 206.2499175,
                    "velocity": 0.44881889763779526,
                },
                {
                    "duration": 0.8333330000000103,
                    "durationTicks": 960,
                    "midi": 49,
                    "name": "C#3",
                    "ticks": 238080,
                    "time": 206.666584,
                    "velocity": 0.41732283464566927,
                },
                {
                    "duration": 0.41666649999999095,
                    "durationTicks": 480,
                    "midi": 61,
                    "name": "C#4",
                    "ticks": 239040,
                    "time": 207.499917,
                    "velocity": 0.6141732283464567,
                },
                {
                    "duration": 0.41666649999999095,
                    "durationTicks": 480,
                    "midi": 61,
                    "name": "C#4",
                    "ticks": 239520,
                    "time": 207.9165835,
                    "velocity": 0.5669291338582677,
                },
                {
                    "duration": 0.8333330000000103,
                    "durationTicks": 960,
                    "midi": 50,
                    "name": "D3",
                    "ticks": 240000,
                    "time": 208.33325,
                    "velocity": 0.4881889763779528,
                },
                {
                    "duration": 0.41666649999999095,
                    "durationTicks": 480,
                    "midi": 62,
                    "name": "D4",
                    "ticks": 240960,
                    "time": 209.166583,
                    "velocity": 0.7401574803149606,
                },
                {
                    "duration": 0.41666649999999095,
                    "durationTicks": 480,
                    "midi": 62,
                    "name": "D4",
                    "ticks": 241440,
                    "time": 209.5832495,
                    "velocity": 0.6535433070866141,
                },
                {
                    "duration": 0.8333330000000103,
                    "durationTicks": 960,
                    "midi": 49,
                    "name": "C#3",
                    "ticks": 241920,
                    "time": 209.99991599999998,
                    "velocity": 0.5039370078740157,
                },
                {
                    "duration": 0.41666649999999095,
                    "durationTicks": 480,
                    "midi": 61,
                    "name": "C#4",
                    "ticks": 242880,
                    "time": 210.833249,
                    "velocity": 0.7322834645669292,
                },
                {
                    "duration": 0.41666650000001937,
                    "durationTicks": 480,
                    "midi": 61,
                    "name": "C#4",
                    "ticks": 243360,
                    "time": 211.2499155,
                    "velocity": 0.6141732283464567,
                },
                {
                    "duration": 0.8333329999999819,
                    "durationTicks": 960,
                    "midi": 50,
                    "name": "D3",
                    "ticks": 243840,
                    "time": 211.666582,
                    "velocity": 0.49606299212598426,
                },
                {
                    "duration": 0.41666650000001937,
                    "durationTicks": 480,
                    "midi": 62,
                    "name": "D4",
                    "ticks": 244800,
                    "time": 212.499915,
                    "velocity": 0.6299212598425197,
                },
                {
                    "duration": 0.41666649999999095,
                    "durationTicks": 480,
                    "midi": 62,
                    "name": "D4",
                    "ticks": 245280,
                    "time": 212.9165815,
                    "velocity": 0.5590551181102362,
                },
                {
                    "duration": 0.8333330000000103,
                    "durationTicks": 960,
                    "midi": 52,
                    "name": "E3",
                    "ticks": 245760,
                    "time": 213.333248,
                    "velocity": 0.3464566929133858,
                },
                {
                    "duration": 0.41666649999999095,
                    "durationTicks": 480,
                    "midi": 64,
                    "name": "E4",
                    "ticks": 246720,
                    "time": 214.166581,
                    "velocity": 0.5196850393700787,
                },
                {
                    "duration": 0.41666649999999095,
                    "durationTicks": 480,
                    "midi": 64,
                    "name": "E4",
                    "ticks": 247200,
                    "time": 214.5832475,
                    "velocity": 0.4251968503937008,
                },
                {
                    "duration": 0.8333330000000103,
                    "durationTicks": 960,
                    "midi": 45,
                    "name": "A2",
                    "ticks": 247680,
                    "time": 214.999914,
                    "velocity": 0.4015748031496063,
                },
                {
                    "duration": 0.41666649999999095,
                    "durationTicks": 480,
                    "midi": 57,
                    "name": "A3",
                    "ticks": 248640,
                    "time": 215.833247,
                    "velocity": 0.49606299212598426,
                },
                {
                    "duration": 0.41666650000001937,
                    "durationTicks": 480,
                    "midi": 57,
                    "name": "A3",
                    "ticks": 249120,
                    "time": 216.2499135,
                    "velocity": 0.44881889763779526,
                },
                {
                    "duration": 0.8333329999999819,
                    "durationTicks": 960,
                    "midi": 49,
                    "name": "C#3",
                    "ticks": 249600,
                    "time": 216.66658,
                    "velocity": 0.3858267716535433,
                },
                {
                    "duration": 0.41666650000001937,
                    "durationTicks": 480,
                    "midi": 61,
                    "name": "C#4",
                    "ticks": 250560,
                    "time": 217.499913,
                    "velocity": 0.6141732283464567,
                },
                {
                    "duration": 0.41666649999999095,
                    "durationTicks": 480,
                    "midi": 61,
                    "name": "C#4",
                    "ticks": 251040,
                    "time": 217.9165795,
                    "velocity": 0.5275590551181102,
                },
                {
                    "duration": 0.8333329999999819,
                    "durationTicks": 960,
                    "midi": 50,
                    "name": "D3",
                    "ticks": 251520,
                    "time": 218.333246,
                    "velocity": 0.4409448818897638,
                },
                {
                    "duration": 0.41666650000001937,
                    "durationTicks": 480,
                    "midi": 62,
                    "name": "D4",
                    "ticks": 252480,
                    "time": 219.16657899999998,
                    "velocity": 0.6614173228346457,
                },
                {
                    "duration": 0.41666649999999095,
                    "durationTicks": 480,
                    "midi": 62,
                    "name": "D4",
                    "ticks": 252960,
                    "time": 219.5832455,
                    "velocity": 0.5511811023622047,
                },
                {
                    "duration": 0.8333330000000103,
                    "durationTicks": 960,
                    "midi": 49,
                    "name": "C#3",
                    "ticks": 253440,
                    "time": 219.999912,
                    "velocity": 0.49606299212598426,
                },
                {
                    "duration": 0.41666649999999095,
                    "durationTicks": 480,
                    "midi": 61,
                    "name": "C#4",
                    "ticks": 254400,
                    "time": 220.833245,
                    "velocity": 0.7874015748031497,
                },
                {
                    "duration": 0.41666649999999095,
                    "durationTicks": 480,
                    "midi": 61,
                    "name": "C#4",
                    "ticks": 254880,
                    "time": 221.2499115,
                    "velocity": 0.6299212598425197,
                },
                {
                    "duration": 0.8333330000000103,
                    "durationTicks": 960,
                    "midi": 50,
                    "name": "D3",
                    "ticks": 255360,
                    "time": 221.666578,
                    "velocity": 0.5275590551181102,
                },
                {
                    "duration": 0.41666649999999095,
                    "durationTicks": 480,
                    "midi": 62,
                    "name": "D4",
                    "ticks": 256320,
                    "time": 222.499911,
                    "velocity": 0.7874015748031497,
                },
                {
                    "duration": 0.41666650000001937,
                    "durationTicks": 480,
                    "midi": 62,
                    "name": "D4",
                    "ticks": 256800,
                    "time": 222.9165775,
                    "velocity": 0.6377952755905512,
                },
                {
                    "duration": 0.8333329999999819,
                    "durationTicks": 960,
                    "midi": 49,
                    "name": "C#3",
                    "ticks": 257280,
                    "time": 223.333244,
                    "velocity": 0.4645669291338583,
                },
                {
                    "duration": 0.41666650000001937,
                    "durationTicks": 480,
                    "midi": 48,
                    "name": "C3",
                    "ticks": 258240,
                    "time": 224.166577,
                    "velocity": 0.5275590551181102,
                },
                {
                    "duration": 0.41666649999999095,
                    "durationTicks": 480,
                    "midi": 48,
                    "name": "C3",
                    "ticks": 258720,
                    "time": 224.5832435,
                    "velocity": 0.5433070866141733,
                },
                {
                    "duration": 0.8333330000000103,
                    "durationTicks": 960,
                    "midi": 41,
                    "name": "F2",
                    "ticks": 259200,
                    "time": 224.99991,
                    "velocity": 0.4881889763779528,
                },
                {
                    "duration": 0.41666649999999095,
                    "durationTicks": 480,
                    "midi": 53,
                    "name": "F3",
                    "ticks": 260160,
                    "time": 225.833243,
                    "velocity": 0.5511811023622047,
                },
                {
                    "duration": 0.41666649999999095,
                    "durationTicks": 480,
                    "midi": 53,
                    "name": "F3",
                    "ticks": 260640,
                    "time": 226.2499095,
                    "velocity": 0.5196850393700787,
                },
                {
                    "duration": 0.8333330000000103,
                    "durationTicks": 960,
                    "midi": 43,
                    "name": "G2",
                    "ticks": 261120,
                    "time": 226.666576,
                    "velocity": 0.3464566929133858,
                },
                {
                    "duration": 0.41666649999999095,
                    "durationTicks": 480,
                    "midi": 55,
                    "name": "G3",
                    "ticks": 262080,
                    "time": 227.499909,
                    "velocity": 0.4566929133858268,
                },
                {
                    "duration": 0.41666649999999095,
                    "durationTicks": 480,
                    "midi": 55,
                    "name": "G3",
                    "ticks": 262560,
                    "time": 227.9165755,
                    "velocity": 0.3937007874015748,
                },
                {
                    "duration": 0.8333330000000103,
                    "durationTicks": 960,
                    "midi": 48,
                    "name": "C3",
                    "ticks": 263040,
                    "time": 228.33324199999998,
                    "velocity": 0.3464566929133858,
                },
                {
                    "duration": 0.41666649999999095,
                    "durationTicks": 480,
                    "midi": 60,
                    "name": "C4",
                    "ticks": 264000,
                    "time": 229.166575,
                    "velocity": 0.4645669291338583,
                },
                {
                    "duration": 0.41666650000001937,
                    "durationTicks": 480,
                    "midi": 60,
                    "name": "C4",
                    "ticks": 264480,
                    "time": 229.58324149999999,
                    "velocity": 0.3779527559055118,
                },
                {
                    "duration": 0.8333329999999819,
                    "durationTicks": 960,
                    "midi": 48,
                    "name": "C3",
                    "ticks": 264960,
                    "time": 229.999908,
                    "velocity": 0.3858267716535433,
                },
                {
                    "duration": 0.41666650000001937,
                    "durationTicks": 480,
                    "midi": 60,
                    "name": "C4",
                    "ticks": 265920,
                    "time": 230.833241,
                    "velocity": 0.47244094488188976,
                },
                {
                    "duration": 0.41666649999999095,
                    "durationTicks": 480,
                    "midi": 60,
                    "name": "C4",
                    "ticks": 266400,
                    "time": 231.2499075,
                    "velocity": 0.3543307086614173,
                },
                {
                    "duration": 0.8333330000000103,
                    "durationTicks": 960,
                    "midi": 48,
                    "name": "C3",
                    "ticks": 266880,
                    "time": 231.666574,
                    "velocity": 0.33070866141732286,
                },
                {
                    "duration": 0.41666649999999095,
                    "durationTicks": 480,
                    "midi": 60,
                    "name": "C4",
                    "ticks": 267840,
                    "time": 232.499907,
                    "velocity": 0.48031496062992124,
                },
                {
                    "duration": 0.41666649999999095,
                    "durationTicks": 480,
                    "midi": 60,
                    "name": "C4",
                    "ticks": 268320,
                    "time": 232.9165735,
                    "velocity": 0.4251968503937008,
                },
                {
                    "duration": 0.8333330000000103,
                    "durationTicks": 960,
                    "midi": 48,
                    "name": "C3",
                    "ticks": 268800,
                    "time": 233.33324,
                    "velocity": 0.3700787401574803,
                },
                {
                    "duration": 0.41666649999999095,
                    "durationTicks": 480,
                    "midi": 60,
                    "name": "C4",
                    "ticks": 269760,
                    "time": 234.166573,
                    "velocity": 0.4566929133858268,
                },
                {
                    "duration": 0.41666650000001937,
                    "durationTicks": 480,
                    "midi": 60,
                    "name": "C4",
                    "ticks": 270240,
                    "time": 234.5832395,
                    "velocity": 0.3858267716535433,
                },
                {
                    "duration": 0.8333329999999819,
                    "durationTicks": 960,
                    "midi": 48,
                    "name": "C3",
                    "ticks": 270720,
                    "time": 234.999906,
                    "velocity": 0.3228346456692913,
                },
                {
                    "duration": 0.41666650000001937,
                    "durationTicks": 480,
                    "midi": 60,
                    "name": "C4",
                    "ticks": 271680,
                    "time": 235.833239,
                    "velocity": 0.44881889763779526,
                },
                {
                    "duration": 0.41666649999999095,
                    "durationTicks": 480,
                    "midi": 60,
                    "name": "C4",
                    "ticks": 272160,
                    "time": 236.2499055,
                    "velocity": 0.4251968503937008,
                },
                {
                    "duration": 0.8333329999999819,
                    "durationTicks": 960,
                    "midi": 48,
                    "name": "C3",
                    "ticks": 272640,
                    "time": 236.666572,
                    "velocity": 0.3543307086614173,
                },
                {
                    "duration": 0.41666650000001937,
                    "durationTicks": 480,
                    "midi": 60,
                    "name": "C4",
                    "ticks": 273600,
                    "time": 237.49990499999998,
                    "velocity": 0.5275590551181102,
                },
                {
                    "duration": 0.41666649999999095,
                    "durationTicks": 480,
                    "midi": 60,
                    "name": "C4",
                    "ticks": 274080,
                    "time": 237.9165715,
                    "velocity": 0.4251968503937008,
                },
                {
                    "duration": 0.8333329999999819,
                    "durationTicks": 960,
                    "midi": 40,
                    "name": "E2",
                    "ticks": 286080,
                    "time": 248.333234,
                    "velocity": 0.3543307086614173,
                },
                {
                    "duration": 0.41666650000001937,
                    "durationTicks": 480,
                    "midi": 40,
                    "name": "E2",
                    "ticks": 287040,
                    "time": 249.166567,
                    "velocity": 0.31496062992125984,
                },
                {
                    "duration": 0.41666649999999095,
                    "durationTicks": 480,
                    "midi": 40,
                    "name": "E2",
                    "ticks": 287520,
                    "time": 249.5832335,
                    "velocity": 0.2755905511811024,
                },
                {
                    "duration": 0.8333330000000103,
                    "durationTicks": 960,
                    "midi": 40,
                    "name": "E2",
                    "ticks": 288000,
                    "time": 249.9999,
                    "velocity": 0.29133858267716534,
                },
                {
                    "duration": 0.8333329999999819,
                    "durationTicks": 960,
                    "midi": 40,
                    "name": "E2",
                    "ticks": 288960,
                    "time": 250.833233,
                    "velocity": 0.25984251968503935,
                },
                {
                    "duration": 0.8333330000000103,
                    "durationTicks": 960,
                    "midi": 40,
                    "name": "E2",
                    "ticks": 289920,
                    "time": 251.666566,
                    "velocity": 0.2677165354330709,
                },
                {
                    "duration": 0.41666649999999095,
                    "durationTicks": 480,
                    "midi": 40,
                    "name": "E2",
                    "ticks": 290880,
                    "time": 252.499899,
                    "velocity": 0.28346456692913385,
                },
                {
                    "duration": 0.41666650000001937,
                    "durationTicks": 480,
                    "midi": 40,
                    "name": "E2",
                    "ticks": 291360,
                    "time": 252.9165655,
                    "velocity": 0.2677165354330709,
                },
                {
                    "duration": 0.8333329999999819,
                    "durationTicks": 960,
                    "midi": 40,
                    "name": "E2",
                    "ticks": 291840,
                    "time": 253.333232,
                    "velocity": 0.2283464566929134,
                },
                {
                    "duration": 0.8333330000000103,
                    "durationTicks": 960,
                    "midi": 40,
                    "name": "E2",
                    "ticks": 292800,
                    "time": 254.166565,
                    "velocity": 0.28346456692913385,
                },
                {
                    "duration": 0.8333329999999819,
                    "durationTicks": 960,
                    "midi": 40,
                    "name": "E2",
                    "ticks": 293760,
                    "time": 254.999898,
                    "velocity": 0.2992125984251969,
                },
                {
                    "duration": 0.41666649999999095,
                    "durationTicks": 480,
                    "midi": 40,
                    "name": "E2",
                    "ticks": 294720,
                    "time": 255.83323099999998,
                    "velocity": 0.29133858267716534,
                },
                {
                    "duration": 0.41666650000001937,
                    "durationTicks": 480,
                    "midi": 42,
                    "name": "F#2",
                    "ticks": 295200,
                    "time": 256.2498975,
                    "velocity": 0.2677165354330709,
                },
                {
                    "duration": 0.8333329999999819,
                    "durationTicks": 960,
                    "midi": 43,
                    "name": "G2",
                    "ticks": 295680,
                    "time": 256.666564,
                    "velocity": 0.29133858267716534,
                },
                {
                    "duration": 0.8333330000000387,
                    "durationTicks": 960,
                    "midi": 43,
                    "name": "G2",
                    "ticks": 296640,
                    "time": 257.499897,
                    "velocity": 0.2677165354330709,
                },
                {
                    "duration": 0.8333329999999819,
                    "durationTicks": 960,
                    "midi": 43,
                    "name": "G2",
                    "ticks": 297600,
                    "time": 258.33323,
                    "velocity": 0.30708661417322836,
                },
                {
                    "duration": 0.41666650000001937,
                    "durationTicks": 480,
                    "midi": 43,
                    "name": "G2",
                    "ticks": 298560,
                    "time": 259.166563,
                    "velocity": 0.2677165354330709,
                },
                {
                    "duration": 0.4166664999999625,
                    "durationTicks": 480,
                    "midi": 43,
                    "name": "G2",
                    "ticks": 299040,
                    "time": 259.5832295,
                    "velocity": 0.25984251968503935,
                },
                {
                    "duration": 0.8333330000000387,
                    "durationTicks": 960,
                    "midi": 43,
                    "name": "G2",
                    "ticks": 299520,
                    "time": 259.999896,
                    "velocity": 0.25984251968503935,
                },
                {
                    "duration": 0.8333329999999819,
                    "durationTicks": 960,
                    "midi": 43,
                    "name": "G2",
                    "ticks": 301440,
                    "time": 261.666562,
                    "velocity": 0.28346456692913385,
                },
                {
                    "duration": 0.41666650000001937,
                    "durationTicks": 480,
                    "midi": 43,
                    "name": "G2",
                    "ticks": 302400,
                    "time": 262.499895,
                    "velocity": 0.28346456692913385,
                },
                {
                    "duration": 0.41666650000001937,
                    "durationTicks": 480,
                    "midi": 45,
                    "name": "A2",
                    "ticks": 302880,
                    "time": 262.9165615,
                    "velocity": 0.31496062992125984,
                },
                {
                    "duration": 0.8333329999999819,
                    "durationTicks": 960,
                    "midi": 47,
                    "name": "B2",
                    "ticks": 303360,
                    "time": 263.333228,
                    "velocity": 0.30708661417322836,
                },
                {
                    "duration": 0.8333329999999819,
                    "durationTicks": 960,
                    "midi": 47,
                    "name": "B2",
                    "ticks": 304320,
                    "time": 264.166561,
                    "velocity": 0.30708661417322836,
                },
                {
                    "duration": 0.8333330000000387,
                    "durationTicks": 960,
                    "midi": 42,
                    "name": "F#2",
                    "ticks": 305280,
                    "time": 264.999894,
                    "velocity": 0.29133858267716534,
                },
                {
                    "duration": 0.4166664999999625,
                    "durationTicks": 480,
                    "midi": 42,
                    "name": "F#2",
                    "ticks": 306240,
                    "time": 265.833227,
                    "velocity": 0.31496062992125984,
                },
                {
                    "duration": 0.41666650000001937,
                    "durationTicks": 480,
                    "midi": 44,
                    "name": "G#2",
                    "ticks": 306720,
                    "time": 266.2498935,
                    "velocity": 0.31496062992125984,
                },
                {
                    "duration": 0.8333329999999819,
                    "durationTicks": 960,
                    "midi": 45,
                    "name": "A2",
                    "ticks": 307200,
                    "time": 266.66656,
                    "velocity": 0.2755905511811024,
                },
                {
                    "duration": 0.8333330000000387,
                    "durationTicks": 960,
                    "midi": 45,
                    "name": "A2",
                    "ticks": 308160,
                    "time": 267.499893,
                    "velocity": 0.3228346456692913,
                },
                {
                    "duration": 0.8333329999999819,
                    "durationTicks": 960,
                    "midi": 40,
                    "name": "E2",
                    "ticks": 309120,
                    "time": 268.333226,
                    "velocity": 0.2283464566929134,
                },
                {
                    "duration": 0.4166664999999625,
                    "durationTicks": 480,
                    "midi": 40,
                    "name": "E2",
                    "ticks": 310080,
                    "time": 269.166559,
                    "velocity": 0.29133858267716534,
                },
                {
                    "duration": 0.41666650000001937,
                    "durationTicks": 480,
                    "midi": 40,
                    "name": "E2",
                    "ticks": 310560,
                    "time": 269.58322549999997,
                    "velocity": 0.2440944881889764,
                },
                {
                    "duration": 0.8333329999999819,
                    "durationTicks": 960,
                    "midi": 40,
                    "name": "E2",
                    "ticks": 311040,
                    "time": 269.999892,
                    "velocity": 0.2755905511811024,
                },
                {
                    "duration": 0.8333330000000387,
                    "durationTicks": 960,
                    "midi": 40,
                    "name": "E2",
                    "ticks": 312000,
                    "time": 270.83322499999997,
                    "velocity": 0.29133858267716534,
                },
                {
                    "duration": 0.8333329999999819,
                    "durationTicks": 960,
                    "midi": 40,
                    "name": "E2",
                    "ticks": 312960,
                    "time": 271.666558,
                    "velocity": 0.2755905511811024,
                },
                {
                    "duration": 0.41666650000001937,
                    "durationTicks": 480,
                    "midi": 42,
                    "name": "F#2",
                    "ticks": 313920,
                    "time": 272.499891,
                    "velocity": 0.2677165354330709,
                },
                {
                    "duration": 0.4166664999999625,
                    "durationTicks": 480,
                    "midi": 44,
                    "name": "G#2",
                    "ticks": 314400,
                    "time": 272.9165575,
                    "velocity": 0.2755905511811024,
                },
                {
                    "duration": 0.8333330000000387,
                    "durationTicks": 960,
                    "midi": 45,
                    "name": "A2",
                    "ticks": 314880,
                    "time": 273.333224,
                    "velocity": 0.25196850393700787,
                },
                {
                    "duration": 0.8333329999999819,
                    "durationTicks": 960,
                    "midi": 43,
                    "name": "G2",
                    "ticks": 316800,
                    "time": 274.99989,
                    "velocity": 0.2677165354330709,
                },
                {
                    "duration": 0.41666650000001937,
                    "durationTicks": 480,
                    "midi": 43,
                    "name": "G2",
                    "ticks": 317760,
                    "time": 275.833223,
                    "velocity": 0.2992125984251969,
                },
                {
                    "duration": 0.41666650000001937,
                    "durationTicks": 480,
                    "midi": 45,
                    "name": "A2",
                    "ticks": 318240,
                    "time": 276.2498895,
                    "velocity": 0.28346456692913385,
                },
                {
                    "duration": 0.8333329999999819,
                    "durationTicks": 960,
                    "midi": 47,
                    "name": "B2",
                    "ticks": 318720,
                    "time": 276.666556,
                    "velocity": 0.2992125984251969,
                },
                {
                    "duration": 0.8333329999999819,
                    "durationTicks": 960,
                    "midi": 47,
                    "name": "B2",
                    "ticks": 319680,
                    "time": 277.499889,
                    "velocity": 0.30708661417322836,
                },
                {
                    "duration": 0.8333330000000387,
                    "durationTicks": 960,
                    "midi": 42,
                    "name": "F#2",
                    "ticks": 320640,
                    "time": 278.333222,
                    "velocity": 0.25984251968503935,
                },
                {
                    "duration": 0.4166664999999625,
                    "durationTicks": 480,
                    "midi": 42,
                    "name": "F#2",
                    "ticks": 321600,
                    "time": 279.166555,
                    "velocity": 0.28346456692913385,
                },
                {
                    "duration": 0.41666650000001937,
                    "durationTicks": 480,
                    "midi": 44,
                    "name": "G#2",
                    "ticks": 322080,
                    "time": 279.5832215,
                    "velocity": 0.2677165354330709,
                },
                {
                    "duration": 0.8333329999999819,
                    "durationTicks": 960,
                    "midi": 45,
                    "name": "A2",
                    "ticks": 322560,
                    "time": 279.999888,
                    "velocity": 0.25984251968503935,
                },
                {
                    "duration": 0.8333330000000387,
                    "durationTicks": 960,
                    "midi": 45,
                    "name": "A2",
                    "ticks": 323520,
                    "time": 280.833221,
                    "velocity": 0.25196850393700787,
                },
                {
                    "duration": 0.8333329999999819,
                    "durationTicks": 960,
                    "midi": 40,
                    "name": "E2",
                    "ticks": 324480,
                    "time": 281.666554,
                    "velocity": 0.1968503937007874,
                },
                {
                    "duration": 0.41666650000001937,
                    "durationTicks": 480,
                    "midi": 40,
                    "name": "E2",
                    "ticks": 325440,
                    "time": 282.499887,
                    "velocity": 0.29133858267716534,
                },
                {
                    "duration": 0.4166664999999625,
                    "durationTicks": 480,
                    "midi": 40,
                    "name": "E2",
                    "ticks": 325920,
                    "time": 282.9165535,
                    "velocity": 0.2755905511811024,
                },
                {
                    "duration": 0.8333330000000387,
                    "durationTicks": 960,
                    "midi": 40,
                    "name": "E2",
                    "ticks": 326400,
                    "time": 283.33322,
                    "velocity": 0.2755905511811024,
                },
                {
                    "duration": 0.8333329999999819,
                    "durationTicks": 960,
                    "midi": 40,
                    "name": "E2",
                    "ticks": 327360,
                    "time": 284.166553,
                    "velocity": 0.2755905511811024,
                },
                {
                    "duration": 0.8333329999999819,
                    "durationTicks": 960,
                    "midi": 40,
                    "name": "E2",
                    "ticks": 328320,
                    "time": 284.999886,
                    "velocity": 0.29133858267716534,
                },
                {
                    "duration": 0.41666650000001937,
                    "durationTicks": 480,
                    "midi": 42,
                    "name": "F#2",
                    "ticks": 329280,
                    "time": 285.833219,
                    "velocity": 0.3228346456692913,
                },
                {
                    "duration": 0.41666650000001937,
                    "durationTicks": 480,
                    "midi": 44,
                    "name": "G#2",
                    "ticks": 329760,
                    "time": 286.2498855,
                    "velocity": 0.29133858267716534,
                },
                {
                    "duration": 0.8333329999999819,
                    "durationTicks": 960,
                    "midi": 45,
                    "name": "A2",
                    "ticks": 330240,
                    "time": 286.666552,
                    "velocity": 0.28346456692913385,
                },
                {
                    "duration": 0.8333329999999819,
                    "durationTicks": 960,
                    "midi": 45,
                    "name": "A2",
                    "ticks": 332160,
                    "time": 288.333218,
                    "velocity": 0.2125984251968504,
                },
                {
                    "duration": 0.41666650000001937,
                    "durationTicks": 480,
                    "midi": 45,
                    "name": "A2",
                    "ticks": 333120,
                    "time": 289.16655099999997,
                    "velocity": 0.31496062992125984,
                },
                {
                    "duration": 0.41666650000001937,
                    "durationTicks": 480,
                    "midi": 45,
                    "name": "A2",
                    "ticks": 333600,
                    "time": 289.5832175,
                    "velocity": 0.2755905511811024,
                },
                {
                    "duration": 0.8333329999999819,
                    "durationTicks": 960,
                    "midi": 45,
                    "name": "A2",
                    "ticks": 334080,
                    "time": 289.999884,
                    "velocity": 0.25984251968503935,
                },
                {
                    "duration": 0.8333330000000387,
                    "durationTicks": 960,
                    "midi": 45,
                    "name": "A2",
                    "ticks": 336000,
                    "time": 291.66655,
                    "velocity": 0.25196850393700787,
                },
                {
                    "duration": 0.4166664999999625,
                    "durationTicks": 480,
                    "midi": 45,
                    "name": "A2",
                    "ticks": 336960,
                    "time": 292.499883,
                    "velocity": 0.3228346456692913,
                },
                {
                    "duration": 0.41666650000001937,
                    "durationTicks": 480,
                    "midi": 45,
                    "name": "A2",
                    "ticks": 337440,
                    "time": 292.9165495,
                    "velocity": 0.2755905511811024,
                },
                {
                    "duration": 0.8333329999999819,
                    "durationTicks": 960,
                    "midi": 45,
                    "name": "A2",
                    "ticks": 337920,
                    "time": 293.333216,
                    "velocity": 0.2755905511811024,
                },
                {
                    "duration": 0.4166664999999625,
                    "durationTicks": 480,
                    "midi": 45,
                    "name": "A2",
                    "ticks": 339840,
                    "time": 294.999882,
                    "velocity": 0.2755905511811024,
                },
                {
                    "duration": 0.41666650000001937,
                    "durationTicks": 480,
                    "midi": 45,
                    "name": "A2",
                    "ticks": 340320,
                    "time": 295.4165485,
                    "velocity": 0.33070866141732286,
                },
                {
                    "duration": 0.41666650000001937,
                    "durationTicks": 480,
                    "midi": 45,
                    "name": "A2",
                    "ticks": 340800,
                    "time": 295.833215,
                    "velocity": 0.3543307086614173,
                },
                {
                    "duration": 0.41666650000001937,
                    "durationTicks": 480,
                    "midi": 45,
                    "name": "A2",
                    "ticks": 341760,
                    "time": 296.666548,
                    "velocity": 0.3700787401574803,
                },
                {
                    "duration": 0.41666650000001937,
                    "durationTicks": 480,
                    "midi": 45,
                    "name": "A2",
                    "ticks": 342240,
                    "time": 297.0832145,
                    "velocity": 0.4566929133858268,
                },
                {
                    "duration": 0.4166664999999625,
                    "durationTicks": 480,
                    "midi": 45,
                    "name": "A2",
                    "ticks": 342720,
                    "time": 297.499881,
                    "velocity": 0.4566929133858268,
                },
                {
                    "duration": 0.41666650000001937,
                    "durationTicks": 480,
                    "midi": 45,
                    "name": "A2",
                    "ticks": 343680,
                    "time": 298.333214,
                    "velocity": 0.48031496062992124,
                },
                {
                    "duration": 0.4166664999999625,
                    "durationTicks": 480,
                    "midi": 45,
                    "name": "A2",
                    "ticks": 344160,
                    "time": 298.7498805,
                    "velocity": 0.5590551181102362,
                },
                {
                    "duration": 0.41666650000001937,
                    "durationTicks": 480,
                    "midi": 45,
                    "name": "A2",
                    "ticks": 344640,
                    "time": 299.166547,
                    "velocity": 0.5826771653543307,
                },
                {
                    "duration": 0.41666650000001937,
                    "durationTicks": 480,
                    "midi": 45,
                    "name": "A2",
                    "ticks": 346560,
                    "time": 300.833213,
                    "velocity": 0.5118110236220472,
                },
                {
                    "duration": 0.4166664999999625,
                    "durationTicks": 480,
                    "midi": 45,
                    "name": "A2",
                    "ticks": 347040,
                    "time": 301.2498795,
                    "velocity": 0.5511811023622047,
                },
                {
                    "duration": 0.4166664999999625,
                    "durationTicks": 480,
                    "midi": 45,
                    "name": "A2",
                    "ticks": 348480,
                    "time": 302.499879,
                    "velocity": 0.3543307086614173,
                },
                {
                    "duration": 0.41666650000001937,
                    "durationTicks": 480,
                    "midi": 45,
                    "name": "A2",
                    "ticks": 348960,
                    "time": 302.9165455,
                    "velocity": 0.3779527559055118,
                },
                {
                    "duration": 0.41666650000001937,
                    "durationTicks": 480,
                    "midi": 45,
                    "name": "A2",
                    "ticks": 350400,
                    "time": 304.166545,
                    "velocity": 0.23622047244094488,
                },
                {
                    "duration": 0.41666650000001937,
                    "durationTicks": 480,
                    "midi": 45,
                    "name": "A2",
                    "ticks": 350880,
                    "time": 304.5832115,
                    "velocity": 0.25984251968503935,
                },
                {
                    "duration": 0.8333329999999819,
                    "durationTicks": 960,
                    "midi": 40,
                    "name": "E2",
                    "ticks": 428160,
                    "time": 371.666518,
                    "velocity": 0.3543307086614173,
                },
                {
                    "duration": 0.41666650000001937,
                    "durationTicks": 480,
                    "midi": 42,
                    "name": "F#2",
                    "ticks": 429120,
                    "time": 372.499851,
                    "velocity": 0.3543307086614173,
                },
                {
                    "duration": 0.41666650000001937,
                    "durationTicks": 480,
                    "midi": 44,
                    "name": "G#2",
                    "ticks": 429600,
                    "time": 372.9165175,
                    "velocity": 0.3858267716535433,
                },
                {
                    "duration": 0.8333329999999819,
                    "durationTicks": 960,
                    "midi": 45,
                    "name": "A2",
                    "ticks": 430080,
                    "time": 373.333184,
                    "velocity": 0.3858267716535433,
                },
                {
                    "duration": 0.41666650000001937,
                    "durationTicks": 480,
                    "midi": 57,
                    "name": "A3",
                    "ticks": 431040,
                    "time": 374.166517,
                    "velocity": 0.4330708661417323,
                },
                {
                    "duration": 0.4166664999999625,
                    "durationTicks": 480,
                    "midi": 57,
                    "name": "A3",
                    "ticks": 431520,
                    "time": 374.5831835,
                    "velocity": 0.36220472440944884,
                },
                {
                    "duration": 0.8333330000000387,
                    "durationTicks": 960,
                    "midi": 45,
                    "name": "A2",
                    "ticks": 432000,
                    "time": 374.99985,
                    "velocity": 0.3464566929133858,
                },
                {
                    "duration": 0.4166664999999625,
                    "durationTicks": 480,
                    "midi": 57,
                    "name": "A3",
                    "ticks": 432960,
                    "time": 375.833183,
                    "velocity": 0.4094488188976378,
                },
                {
                    "duration": 0.41666650000001937,
                    "durationTicks": 480,
                    "midi": 57,
                    "name": "A3",
                    "ticks": 433440,
                    "time": 376.2498495,
                    "velocity": 0.4015748031496063,
                },
                {
                    "duration": 0.8333329999999819,
                    "durationTicks": 960,
                    "midi": 45,
                    "name": "A2",
                    "ticks": 433920,
                    "time": 376.666516,
                    "velocity": 0.30708661417322836,
                },
                {
                    "duration": 0.41666650000001937,
                    "durationTicks": 480,
                    "midi": 57,
                    "name": "A3",
                    "ticks": 434880,
                    "time": 377.499849,
                    "velocity": 0.4251968503937008,
                },
                {
                    "duration": 0.41666650000001937,
                    "durationTicks": 480,
                    "midi": 57,
                    "name": "A3",
                    "ticks": 435360,
                    "time": 377.9165155,
                    "velocity": 0.4409448818897638,
                },
                {
                    "duration": 0.8333329999999819,
                    "durationTicks": 960,
                    "midi": 45,
                    "name": "A2",
                    "ticks": 435840,
                    "time": 378.333182,
                    "velocity": 0.3543307086614173,
                },
                {
                    "duration": 0.41666650000001937,
                    "durationTicks": 480,
                    "midi": 57,
                    "name": "A3",
                    "ticks": 436800,
                    "time": 379.166515,
                    "velocity": 0.48031496062992124,
                },
                {
                    "duration": 0.4166664999999625,
                    "durationTicks": 480,
                    "midi": 57,
                    "name": "A3",
                    "ticks": 437280,
                    "time": 379.5831815,
                    "velocity": 0.47244094488188976,
                },
                {
                    "duration": 0.8333329999999819,
                    "durationTicks": 960,
                    "midi": 45,
                    "name": "A2",
                    "ticks": 437760,
                    "time": 379.999848,
                    "velocity": 0.4094488188976378,
                },
                {
                    "duration": 0.41666650000001937,
                    "durationTicks": 480,
                    "midi": 57,
                    "name": "A3",
                    "ticks": 438720,
                    "time": 380.83318099999997,
                    "velocity": 0.5275590551181102,
                },
                {
                    "duration": 0.41666650000001937,
                    "durationTicks": 480,
                    "midi": 57,
                    "name": "A3",
                    "ticks": 439200,
                    "time": 381.2498475,
                    "velocity": 0.44881889763779526,
                },
                {
                    "duration": 0.8333329999999819,
                    "durationTicks": 960,
                    "midi": 45,
                    "name": "A2",
                    "ticks": 439680,
                    "time": 381.666514,
                    "velocity": 0.3937007874015748,
                },
                {
                    "duration": 0.41666650000001937,
                    "durationTicks": 480,
                    "midi": 57,
                    "name": "A3",
                    "ticks": 440640,
                    "time": 382.499847,
                    "velocity": 0.5511811023622047,
                },
                {
                    "duration": 0.4166664999999625,
                    "durationTicks": 480,
                    "midi": 57,
                    "name": "A3",
                    "ticks": 441120,
                    "time": 382.9165135,
                    "velocity": 0.5196850393700787,
                },
                {
                    "duration": 0.8333330000000387,
                    "durationTicks": 960,
                    "midi": 45,
                    "name": "A2",
                    "ticks": 441600,
                    "time": 383.33317999999997,
                    "velocity": 0.4094488188976378,
                },
                {
                    "duration": 0.4166664999999625,
                    "durationTicks": 480,
                    "midi": 57,
                    "name": "A3",
                    "ticks": 442560,
                    "time": 384.166513,
                    "velocity": 0.5354330708661418,
                },
                {
                    "duration": 0.41666650000001937,
                    "durationTicks": 480,
                    "midi": 57,
                    "name": "A3",
                    "ticks": 443040,
                    "time": 384.58317949999997,
                    "velocity": 0.4566929133858268,
                },
                {
                    "duration": 0.8333329999999819,
                    "durationTicks": 960,
                    "midi": 45,
                    "name": "A2",
                    "ticks": 443520,
                    "time": 384.999846,
                    "velocity": 0.4094488188976378,
                },
                {
                    "duration": 0.41666650000001937,
                    "durationTicks": 480,
                    "midi": 57,
                    "name": "A3",
                    "ticks": 444480,
                    "time": 385.833179,
                    "velocity": 0.4566929133858268,
                },
                {
                    "duration": 0.41666650000001937,
                    "durationTicks": 480,
                    "midi": 57,
                    "name": "A3",
                    "ticks": 444960,
                    "time": 386.2498455,
                    "velocity": 0.3858267716535433,
                },
                {
                    "duration": 0.8333329999999819,
                    "durationTicks": 960,
                    "midi": 45,
                    "name": "A2",
                    "ticks": 445440,
                    "time": 386.666512,
                    "velocity": 0.3228346456692913,
                },
                {
                    "duration": 0.41666650000001937,
                    "durationTicks": 480,
                    "midi": 57,
                    "name": "A3",
                    "ticks": 446400,
                    "time": 387.499845,
                    "velocity": 0.44881889763779526,
                },
                {
                    "duration": 0.4166664999999625,
                    "durationTicks": 480,
                    "midi": 57,
                    "name": "A3",
                    "ticks": 446880,
                    "time": 387.9165115,
                    "velocity": 0.4409448818897638,
                },
                {
                    "duration": 0.8333330000000387,
                    "durationTicks": 960,
                    "midi": 45,
                    "name": "A2",
                    "ticks": 447360,
                    "time": 388.333178,
                    "velocity": 0.36220472440944884,
                },
                {
                    "duration": 0.4166664999999625,
                    "durationTicks": 480,
                    "midi": 57,
                    "name": "A3",
                    "ticks": 448320,
                    "time": 389.166511,
                    "velocity": 0.5118110236220472,
                },
                {
                    "duration": 0.41666650000001937,
                    "durationTicks": 480,
                    "midi": 57,
                    "name": "A3",
                    "ticks": 448800,
                    "time": 389.5831775,
                    "velocity": 0.5354330708661418,
                },
                {
                    "duration": 0.8333329999999819,
                    "durationTicks": 960,
                    "midi": 45,
                    "name": "A2",
                    "ticks": 449280,
                    "time": 389.999844,
                    "velocity": 0.4566929133858268,
                },
                {
                    "duration": 0.41666650000001937,
                    "durationTicks": 480,
                    "midi": 57,
                    "name": "A3",
                    "ticks": 450240,
                    "time": 390.833177,
                    "velocity": 0.5669291338582677,
                },
                {
                    "duration": 0.41666650000001937,
                    "durationTicks": 480,
                    "midi": 57,
                    "name": "A3",
                    "ticks": 450720,
                    "time": 391.2498435,
                    "velocity": 0.5669291338582677,
                },
                {
                    "duration": 0.8333329999999819,
                    "durationTicks": 960,
                    "midi": 45,
                    "name": "A2",
                    "ticks": 451200,
                    "time": 391.66651,
                    "velocity": 0.49606299212598426,
                },
                {
                    "duration": 0.41666650000001937,
                    "durationTicks": 480,
                    "midi": 57,
                    "name": "A3",
                    "ticks": 452160,
                    "time": 392.499843,
                    "velocity": 0.6929133858267716,
                },
                {
                    "duration": 0.4166664999999625,
                    "durationTicks": 480,
                    "midi": 57,
                    "name": "A3",
                    "ticks": 452640,
                    "time": 392.9165095,
                    "velocity": 0.6377952755905512,
                },
                {
                    "duration": 0.8333330000000387,
                    "durationTicks": 960,
                    "midi": 45,
                    "name": "A2",
                    "ticks": 453120,
                    "time": 393.333176,
                    "velocity": 0.41732283464566927,
                },
                {
                    "duration": 0.4166664999999625,
                    "durationTicks": 480,
                    "midi": 57,
                    "name": "A3",
                    "ticks": 454080,
                    "time": 394.166509,
                    "velocity": 0.5511811023622047,
                },
                {
                    "duration": 0.41666650000001937,
                    "durationTicks": 480,
                    "midi": 57,
                    "name": "A3",
                    "ticks": 454560,
                    "time": 394.5831755,
                    "velocity": 0.49606299212598426,
                },
                {
                    "duration": 0.8333329999999819,
                    "durationTicks": 960,
                    "midi": 45,
                    "name": "A2",
                    "ticks": 455040,
                    "time": 394.999842,
                    "velocity": 0.4645669291338583,
                },
                {
                    "duration": 0.41666650000001937,
                    "durationTicks": 480,
                    "midi": 57,
                    "name": "A3",
                    "ticks": 456000,
                    "time": 395.833175,
                    "velocity": 0.5354330708661418,
                },
                {
                    "duration": 0.41666650000001937,
                    "durationTicks": 480,
                    "midi": 57,
                    "name": "A3",
                    "ticks": 456480,
                    "time": 396.2498415,
                    "velocity": 0.5275590551181102,
                },
                {
                    "duration": 0.8333329999999819,
                    "durationTicks": 960,
                    "midi": 45,
                    "name": "A2",
                    "ticks": 456960,
                    "time": 396.666508,
                    "velocity": 0.4409448818897638,
                },
                {
                    "duration": 0.41666650000001937,
                    "durationTicks": 480,
                    "midi": 57,
                    "name": "A3",
                    "ticks": 457920,
                    "time": 397.499841,
                    "velocity": 0.5354330708661418,
                },
                {
                    "duration": 0.4166664999999625,
                    "durationTicks": 480,
                    "midi": 57,
                    "name": "A3",
                    "ticks": 458400,
                    "time": 397.9165075,
                    "velocity": 0.5039370078740157,
                },
                {
                    "duration": 0.8333329999999819,
                    "durationTicks": 960,
                    "midi": 45,
                    "name": "A2",
                    "ticks": 458880,
                    "time": 398.333174,
                    "velocity": 0.3543307086614173,
                },
                {
                    "duration": 0.41666650000001937,
                    "durationTicks": 480,
                    "midi": 57,
                    "name": "A3",
                    "ticks": 459840,
                    "time": 399.16650699999997,
                    "velocity": 0.49606299212598426,
                },
                {
                    "duration": 0.41666650000001937,
                    "durationTicks": 480,
                    "midi": 57,
                    "name": "A3",
                    "ticks": 460320,
                    "time": 399.5831735,
                    "velocity": 0.4645669291338583,
                },
                {
                    "duration": 0.8333329999999819,
                    "durationTicks": 960,
                    "midi": 45,
                    "name": "A2",
                    "ticks": 460800,
                    "time": 399.99984,
                    "velocity": 0.3543307086614173,
                },
                {
                    "duration": 0.41666650000001937,
                    "durationTicks": 480,
                    "midi": 57,
                    "name": "A3",
                    "ticks": 461760,
                    "time": 400.833173,
                    "velocity": 0.4645669291338583,
                },
                {
                    "duration": 0.4166664999999625,
                    "durationTicks": 480,
                    "midi": 57,
                    "name": "A3",
                    "ticks": 462240,
                    "time": 401.2498395,
                    "velocity": 0.47244094488188976,
                },
                {
                    "duration": 0.8333330000000387,
                    "durationTicks": 960,
                    "midi": 45,
                    "name": "A2",
                    "ticks": 462720,
                    "time": 401.66650599999997,
                    "velocity": 0.3779527559055118,
                },
                {
                    "duration": 0.4166664999999625,
                    "durationTicks": 480,
                    "midi": 57,
                    "name": "A3",
                    "ticks": 463680,
                    "time": 402.499839,
                    "velocity": 0.5118110236220472,
                },
                {
                    "duration": 0.41666650000001937,
                    "durationTicks": 480,
                    "midi": 57,
                    "name": "A3",
                    "ticks": 464160,
                    "time": 402.91650549999997,
                    "velocity": 0.4645669291338583,
                },
                {
                    "duration": 0.8333329999999819,
                    "durationTicks": 960,
                    "midi": 45,
                    "name": "A2",
                    "ticks": 488640,
                    "time": 424.166497,
                    "velocity": 0.3700787401574803,
                },
                {
                    "duration": 0.8333329999999819,
                    "durationTicks": 960,
                    "midi": 52,
                    "name": "E3",
                    "ticks": 490560,
                    "time": 425.833163,
                    "velocity": 0.3543307086614173,
                },
                {
                    "duration": 0.8333330000000387,
                    "durationTicks": 960,
                    "midi": 52,
                    "name": "E3",
                    "ticks": 492480,
                    "time": 427.499829,
                    "velocity": 0.3543307086614173,
                },
                {
                    "duration": 0.8333329999999819,
                    "durationTicks": 960,
                    "midi": 57,
                    "name": "A3",
                    "ticks": 494400,
                    "time": 429.166495,
                    "velocity": 0.3543307086614173,
                },
                {
                    "duration": 0.8333329999999819,
                    "durationTicks": 960,
                    "midi": 57,
                    "name": "A3",
                    "ticks": 496320,
                    "time": 430.833161,
                    "velocity": 0.33858267716535434,
                },
                {
                    "duration": 0.8333330000000387,
                    "durationTicks": 960,
                    "midi": 55,
                    "name": "G3",
                    "ticks": 498240,
                    "time": 432.499827,
                    "velocity": 0.3228346456692913,
                },
                {
                    "duration": 0.8333329999999819,
                    "durationTicks": 960,
                    "midi": 43,
                    "name": "G2",
                    "ticks": 499200,
                    "time": 433.33316,
                    "velocity": 0.33070866141732286,
                },
                {
                    "duration": 0.41666650000001937,
                    "durationTicks": 480,
                    "midi": 43,
                    "name": "G2",
                    "ticks": 500160,
                    "time": 434.166493,
                    "velocity": 0.4015748031496063,
                },
                {
                    "duration": 0.4166664999999625,
                    "durationTicks": 480,
                    "midi": 43,
                    "name": "G2",
                    "ticks": 500640,
                    "time": 434.5831595,
                    "velocity": 0.3700787401574803,
                },
                {
                    "duration": 0.8333330000000387,
                    "durationTicks": 960,
                    "midi": 48,
                    "name": "C3",
                    "ticks": 501120,
                    "time": 434.999826,
                    "velocity": 0.4094488188976378,
                },
                {
                    "duration": 0.8333329999999819,
                    "durationTicks": 960,
                    "midi": 60,
                    "name": "C4",
                    "ticks": 504000,
                    "time": 437.499825,
                    "velocity": 0.33858267716535434,
                },
                {
                    "duration": 0.8333329999999819,
                    "durationTicks": 960,
                    "midi": 59,
                    "name": "B3",
                    "ticks": 505920,
                    "time": 439.166491,
                    "velocity": 0.31496062992125984,
                },
                {
                    "duration": 0.8333330000000387,
                    "durationTicks": 960,
                    "midi": 64,
                    "name": "E4",
                    "ticks": 507840,
                    "time": 440.83315699999997,
                    "velocity": 0.3464566929133858,
                },
                {
                    "duration": 0.8333329999999819,
                    "durationTicks": 960,
                    "midi": 57,
                    "name": "A3",
                    "ticks": 509760,
                    "time": 442.499823,
                    "velocity": 0.33070866141732286,
                },
                {
                    "duration": 0.8333329999999819,
                    "durationTicks": 960,
                    "midi": 57,
                    "name": "A3",
                    "ticks": 511680,
                    "time": 444.166489,
                    "velocity": 0.33070866141732286,
                },
                {
                    "duration": 0.8333329999999819,
                    "durationTicks": 960,
                    "midi": 56,
                    "name": "G#3",
                    "ticks": 512640,
                    "time": 444.999822,
                    "velocity": 0.3543307086614173,
                },
                {
                    "duration": 0.8333330000000387,
                    "durationTicks": 960,
                    "midi": 57,
                    "name": "A3",
                    "ticks": 513600,
                    "time": 445.833155,
                    "velocity": 0.3858267716535433,
                },
                {
                    "duration": 0.8333329999999819,
                    "durationTicks": 960,
                    "midi": 40,
                    "name": "E2",
                    "ticks": 514560,
                    "time": 446.666488,
                    "velocity": 0.3464566929133858,
                },
                {
                    "duration": 0.41666650000001937,
                    "durationTicks": 480,
                    "midi": 42,
                    "name": "F#2",
                    "ticks": 515520,
                    "time": 447.499821,
                    "velocity": 0.3700787401574803,
                },
                {
                    "duration": 0.4166664999999625,
                    "durationTicks": 480,
                    "midi": 44,
                    "name": "G#2",
                    "ticks": 516000,
                    "time": 447.9164875,
                    "velocity": 0.3858267716535433,
                },
                {
                    "duration": 0.8333330000000387,
                    "durationTicks": 960,
                    "midi": 45,
                    "name": "A2",
                    "ticks": 516480,
                    "time": 448.333154,
                    "velocity": 0.36220472440944884,
                },
                {
                    "duration": 0.8333330000000387,
                    "durationTicks": 960,
                    "midi": 40,
                    "name": "E2",
                    "ticks": 522240,
                    "time": 453.333152,
                    "velocity": 0.3700787401574803,
                },
                {
                    "duration": 0.4166664999999625,
                    "durationTicks": 480,
                    "midi": 42,
                    "name": "F#2",
                    "ticks": 523200,
                    "time": 454.166485,
                    "velocity": 0.3858267716535433,
                },
                {
                    "duration": 0.41666650000001937,
                    "durationTicks": 480,
                    "midi": 44,
                    "name": "G#2",
                    "ticks": 523680,
                    "time": 454.5831515,
                    "velocity": 0.4251968503937008,
                },
                {
                    "duration": 0.8333329999999819,
                    "durationTicks": 960,
                    "midi": 45,
                    "name": "A2",
                    "ticks": 524160,
                    "time": 454.999818,
                    "velocity": 0.4015748031496063,
                },
                {
                    "duration": 0.8333330000000387,
                    "durationTicks": 960,
                    "midi": 45,
                    "name": "A2",
                    "ticks": 526080,
                    "time": 456.66648399999997,
                    "velocity": 0.33858267716535434,
                },
            ],
        },
        {
            "channel": 12,
            "controlChanges": {
                "7": [
                    {
                        "number": 7,
                        "ticks": 286080,
                        "time": 248.333234,
                        "value": 0.7165354330708661,
                    },
                    {
                        "number": 7,
                        "ticks": 488640,
                        "time": 424.166497,
                        "value": 0.7165354330708661,
                    },
                ],
                "10": [
                    {
                        "number": 10,
                        "ticks": 286080,
                        "time": 248.333234,
                        "value": 0.8740157480314961,
                    },
                    {
                        "number": 10,
                        "ticks": 488640,
                        "time": 424.166497,
                        "value": 0.8740157480314961,
                    },
                ],
                "91": [
                    {
                        "number": 91,
                        "ticks": 286080,
                        "time": 248.333234,
                        "value": 0.4645669291338583,
                    },
                    {
                        "number": 91,
                        "ticks": 488640,
                        "time": 424.166497,
                        "value": 0.4645669291338583,
                    },
                ],
            },
            "pitchBends": [],
            "instrument": {
                "family": "strings",
                "number": 45,
                "name": "pizzicato strings",
            },
            "name": "",
            "notes": [
                {
                    "duration": 0.8333329999999819,
                    "durationTicks": 960,
                    "midi": 57,
                    "name": "A3",
                    "ticks": 286080,
                    "time": 248.333234,
                    "velocity": 0.3700787401574803,
                },
                {
                    "duration": 0.41666650000001937,
                    "durationTicks": 480,
                    "midi": 57,
                    "name": "A3",
                    "ticks": 287040,
                    "time": 249.166567,
                    "velocity": 0.25984251968503935,
                },
                {
                    "duration": 0.41666649999999095,
                    "durationTicks": 480,
                    "midi": 57,
                    "name": "A3",
                    "ticks": 287520,
                    "time": 249.5832335,
                    "velocity": 0.23622047244094488,
                },
                {
                    "duration": 0.8333330000000103,
                    "durationTicks": 960,
                    "midi": 56,
                    "name": "G#3",
                    "ticks": 288000,
                    "time": 249.9999,
                    "velocity": 0.33070866141732286,
                },
                {
                    "duration": 0.8333329999999819,
                    "durationTicks": 960,
                    "midi": 56,
                    "name": "G#3",
                    "ticks": 288960,
                    "time": 250.833233,
                    "velocity": 0.2992125984251969,
                },
                {
                    "duration": 0.8333330000000103,
                    "durationTicks": 960,
                    "midi": 59,
                    "name": "B3",
                    "ticks": 289920,
                    "time": 251.666566,
                    "velocity": 0.23622047244094488,
                },
                {
                    "duration": 0.8333330000000103,
                    "durationTicks": 960,
                    "midi": 68,
                    "name": "G#4",
                    "ticks": 289920,
                    "time": 251.666566,
                    "velocity": 0.23622047244094488,
                },
                {
                    "duration": 0.41666649999999095,
                    "durationTicks": 480,
                    "midi": 59,
                    "name": "B3",
                    "ticks": 290880,
                    "time": 252.499899,
                    "velocity": 0.18110236220472442,
                },
                {
                    "duration": 0.41666649999999095,
                    "durationTicks": 480,
                    "midi": 68,
                    "name": "G#4",
                    "ticks": 290880,
                    "time": 252.499899,
                    "velocity": 0.18110236220472442,
                },
                {
                    "duration": 0.41666650000001937,
                    "durationTicks": 480,
                    "midi": 59,
                    "name": "B3",
                    "ticks": 291360,
                    "time": 252.9165655,
                    "velocity": 0.1889763779527559,
                },
                {
                    "duration": 0.41666650000001937,
                    "durationTicks": 480,
                    "midi": 68,
                    "name": "G#4",
                    "ticks": 291360,
                    "time": 252.9165655,
                    "velocity": 0.1889763779527559,
                },
                {
                    "duration": 0.8333329999999819,
                    "durationTicks": 960,
                    "midi": 60,
                    "name": "C4",
                    "ticks": 291840,
                    "time": 253.333232,
                    "velocity": 0.23622047244094488,
                },
                {
                    "duration": 0.8333329999999819,
                    "durationTicks": 960,
                    "midi": 69,
                    "name": "A4",
                    "ticks": 291840,
                    "time": 253.333232,
                    "velocity": 0.23622047244094488,
                },
                {
                    "duration": 0.8333330000000103,
                    "durationTicks": 960,
                    "midi": 60,
                    "name": "C4",
                    "ticks": 292800,
                    "time": 254.166565,
                    "velocity": 0.15748031496062992,
                },
                {
                    "duration": 0.8333330000000103,
                    "durationTicks": 960,
                    "midi": 69,
                    "name": "A4",
                    "ticks": 292800,
                    "time": 254.166565,
                    "velocity": 0.15748031496062992,
                },
                {
                    "duration": 0.8333329999999819,
                    "durationTicks": 960,
                    "midi": 55,
                    "name": "G3",
                    "ticks": 293760,
                    "time": 254.999898,
                    "velocity": 0.16535433070866143,
                },
                {
                    "duration": 0.41666649999999095,
                    "durationTicks": 480,
                    "midi": 55,
                    "name": "G3",
                    "ticks": 294720,
                    "time": 255.83323099999998,
                    "velocity": 0.18110236220472442,
                },
                {
                    "duration": 0.41666650000001937,
                    "durationTicks": 480,
                    "midi": 57,
                    "name": "A3",
                    "ticks": 295200,
                    "time": 256.2498975,
                    "velocity": 0.2677165354330709,
                },
                {
                    "duration": 0.41666650000001937,
                    "durationTicks": 480,
                    "midi": 69,
                    "name": "A4",
                    "ticks": 295200,
                    "time": 256.2498975,
                    "velocity": 0.2677165354330709,
                },
                {
                    "duration": 0.8333329999999819,
                    "durationTicks": 960,
                    "midi": 60,
                    "name": "C4",
                    "ticks": 295680,
                    "time": 256.666564,
                    "velocity": 0.1968503937007874,
                },
                {
                    "duration": 0.8333329999999819,
                    "durationTicks": 960,
                    "midi": 64,
                    "name": "E4",
                    "ticks": 295680,
                    "time": 256.666564,
                    "velocity": 0.1968503937007874,
                },
                {
                    "duration": 0.8333330000000387,
                    "durationTicks": 960,
                    "midi": 60,
                    "name": "C4",
                    "ticks": 296640,
                    "time": 257.499897,
                    "velocity": 0.2047244094488189,
                },
                {
                    "duration": 0.8333330000000387,
                    "durationTicks": 960,
                    "midi": 64,
                    "name": "E4",
                    "ticks": 296640,
                    "time": 257.499897,
                    "velocity": 0.2047244094488189,
                },
                {
                    "duration": 0.8333329999999819,
                    "durationTicks": 960,
                    "midi": 59,
                    "name": "B3",
                    "ticks": 297600,
                    "time": 258.33323,
                    "velocity": 0.18110236220472442,
                },
                {
                    "duration": 0.8333329999999819,
                    "durationTicks": 960,
                    "midi": 62,
                    "name": "D4",
                    "ticks": 297600,
                    "time": 258.33323,
                    "velocity": 0.18110236220472442,
                },
                {
                    "duration": 0.41666650000001937,
                    "durationTicks": 480,
                    "midi": 59,
                    "name": "B3",
                    "ticks": 298560,
                    "time": 259.166563,
                    "velocity": 0.1732283464566929,
                },
                {
                    "duration": 0.41666650000001937,
                    "durationTicks": 480,
                    "midi": 62,
                    "name": "D4",
                    "ticks": 298560,
                    "time": 259.166563,
                    "velocity": 0.1732283464566929,
                },
                {
                    "duration": 0.4166664999999625,
                    "durationTicks": 480,
                    "midi": 59,
                    "name": "B3",
                    "ticks": 299040,
                    "time": 259.5832295,
                    "velocity": 0.18110236220472442,
                },
                {
                    "duration": 0.4166664999999625,
                    "durationTicks": 480,
                    "midi": 62,
                    "name": "D4",
                    "ticks": 299040,
                    "time": 259.5832295,
                    "velocity": 0.18110236220472442,
                },
                {
                    "duration": 0.8333330000000387,
                    "durationTicks": 960,
                    "midi": 60,
                    "name": "C4",
                    "ticks": 299520,
                    "time": 259.999896,
                    "velocity": 0.2204724409448819,
                },
                {
                    "duration": 0.8333330000000387,
                    "durationTicks": 960,
                    "midi": 64,
                    "name": "E4",
                    "ticks": 299520,
                    "time": 259.999896,
                    "velocity": 0.2204724409448819,
                },
                {
                    "duration": 0.8333329999999819,
                    "durationTicks": 960,
                    "midi": 60,
                    "name": "C4",
                    "ticks": 301440,
                    "time": 261.666562,
                    "velocity": 0.2047244094488189,
                },
                {
                    "duration": 0.8333329999999819,
                    "durationTicks": 960,
                    "midi": 64,
                    "name": "E4",
                    "ticks": 301440,
                    "time": 261.666562,
                    "velocity": 0.2047244094488189,
                },
                {
                    "duration": 0.41666650000001937,
                    "durationTicks": 480,
                    "midi": 60,
                    "name": "C4",
                    "ticks": 302400,
                    "time": 262.499895,
                    "velocity": 0.1732283464566929,
                },
                {
                    "duration": 0.41666650000001937,
                    "durationTicks": 480,
                    "midi": 64,
                    "name": "E4",
                    "ticks": 302400,
                    "time": 262.499895,
                    "velocity": 0.1732283464566929,
                },
                {
                    "duration": 0.41666650000001937,
                    "durationTicks": 480,
                    "midi": 60,
                    "name": "C4",
                    "ticks": 302880,
                    "time": 262.9165615,
                    "velocity": 0.2204724409448819,
                },
                {
                    "duration": 0.41666650000001937,
                    "durationTicks": 480,
                    "midi": 66,
                    "name": "F#4",
                    "ticks": 302880,
                    "time": 262.9165615,
                    "velocity": 0.2204724409448819,
                },
                {
                    "duration": 0.8333329999999819,
                    "durationTicks": 960,
                    "midi": 59,
                    "name": "B3",
                    "ticks": 303360,
                    "time": 263.333228,
                    "velocity": 0.2125984251968504,
                },
                {
                    "duration": 0.8333329999999819,
                    "durationTicks": 960,
                    "midi": 66,
                    "name": "F#4",
                    "ticks": 303360,
                    "time": 263.333228,
                    "velocity": 0.2125984251968504,
                },
                {
                    "duration": 0.8333329999999819,
                    "durationTicks": 960,
                    "midi": 59,
                    "name": "B3",
                    "ticks": 304320,
                    "time": 264.166561,
                    "velocity": 0.1889763779527559,
                },
                {
                    "duration": 0.8333329999999819,
                    "durationTicks": 960,
                    "midi": 66,
                    "name": "F#4",
                    "ticks": 304320,
                    "time": 264.166561,
                    "velocity": 0.1889763779527559,
                },
                {
                    "duration": 0.8333329999999819,
                    "durationTicks": 960,
                    "midi": 71,
                    "name": "B4",
                    "ticks": 304320,
                    "time": 264.166561,
                    "velocity": 0.1889763779527559,
                },
                {
                    "duration": 0.8333330000000387,
                    "durationTicks": 960,
                    "midi": 57,
                    "name": "A3",
                    "ticks": 305280,
                    "time": 264.999894,
                    "velocity": 0.15748031496062992,
                },
                {
                    "duration": 0.8333330000000387,
                    "durationTicks": 960,
                    "midi": 62,
                    "name": "D4",
                    "ticks": 305280,
                    "time": 264.999894,
                    "velocity": 0.15748031496062992,
                },
                {
                    "duration": 0.4166664999999625,
                    "durationTicks": 480,
                    "midi": 57,
                    "name": "A3",
                    "ticks": 306240,
                    "time": 265.833227,
                    "velocity": 0.1732283464566929,
                },
                {
                    "duration": 0.4166664999999625,
                    "durationTicks": 480,
                    "midi": 62,
                    "name": "D4",
                    "ticks": 306240,
                    "time": 265.833227,
                    "velocity": 0.1732283464566929,
                },
                {
                    "duration": 0.41666650000001937,
                    "durationTicks": 480,
                    "midi": 59,
                    "name": "B3",
                    "ticks": 306720,
                    "time": 266.2498935,
                    "velocity": 0.16535433070866143,
                },
                {
                    "duration": 0.41666650000001937,
                    "durationTicks": 480,
                    "midi": 64,
                    "name": "E4",
                    "ticks": 306720,
                    "time": 266.2498935,
                    "velocity": 0.16535433070866143,
                },
                {
                    "duration": 0.8333329999999819,
                    "durationTicks": 960,
                    "midi": 57,
                    "name": "A3",
                    "ticks": 307200,
                    "time": 266.66656,
                    "velocity": 0.1968503937007874,
                },
                {
                    "duration": 0.8333329999999819,
                    "durationTicks": 960,
                    "midi": 64,
                    "name": "E4",
                    "ticks": 307200,
                    "time": 266.66656,
                    "velocity": 0.1968503937007874,
                },
                {
                    "duration": 0.8333330000000387,
                    "durationTicks": 960,
                    "midi": 57,
                    "name": "A3",
                    "ticks": 308160,
                    "time": 267.499893,
                    "velocity": 0.2283464566929134,
                },
                {
                    "duration": 0.8333330000000387,
                    "durationTicks": 960,
                    "midi": 64,
                    "name": "E4",
                    "ticks": 308160,
                    "time": 267.499893,
                    "velocity": 0.2283464566929134,
                },
                {
                    "duration": 0.8333330000000387,
                    "durationTicks": 960,
                    "midi": 69,
                    "name": "A4",
                    "ticks": 308160,
                    "time": 267.499893,
                    "velocity": 0.2283464566929134,
                },
                {
                    "duration": 0.8333329999999819,
                    "durationTicks": 960,
                    "midi": 60,
                    "name": "C4",
                    "ticks": 309120,
                    "time": 268.333226,
                    "velocity": 0.1732283464566929,
                },
                {
                    "duration": 0.8333329999999819,
                    "durationTicks": 960,
                    "midi": 69,
                    "name": "A4",
                    "ticks": 309120,
                    "time": 268.333226,
                    "velocity": 0.1732283464566929,
                },
                {
                    "duration": 0.4166664999999625,
                    "durationTicks": 480,
                    "midi": 60,
                    "name": "C4",
                    "ticks": 310080,
                    "time": 269.166559,
                    "velocity": 0.1968503937007874,
                },
                {
                    "duration": 0.4166664999999625,
                    "durationTicks": 480,
                    "midi": 69,
                    "name": "A4",
                    "ticks": 310080,
                    "time": 269.166559,
                    "velocity": 0.1968503937007874,
                },
                {
                    "duration": 0.41666650000001937,
                    "durationTicks": 480,
                    "midi": 57,
                    "name": "A3",
                    "ticks": 310560,
                    "time": 269.58322549999997,
                    "velocity": 0.14960629921259844,
                },
                {
                    "duration": 0.41666650000001937,
                    "durationTicks": 480,
                    "midi": 56,
                    "name": "G#3",
                    "ticks": 311040,
                    "time": 269.999892,
                    "velocity": 0.16535433070866143,
                },
                {
                    "duration": 0.41666650000001937,
                    "durationTicks": 480,
                    "midi": 60,
                    "name": "C4",
                    "ticks": 312000,
                    "time": 270.83322499999997,
                    "velocity": 0.1732283464566929,
                },
                {
                    "duration": 0.41666650000001937,
                    "durationTicks": 480,
                    "midi": 69,
                    "name": "A4",
                    "ticks": 312000,
                    "time": 270.83322499999997,
                    "velocity": 0.1732283464566929,
                },
                {
                    "duration": 0.41666650000001937,
                    "durationTicks": 480,
                    "midi": 57,
                    "name": "A3",
                    "ticks": 312480,
                    "time": 271.2498915,
                    "velocity": 0.16535433070866143,
                },
                {
                    "duration": 0.8333329999999819,
                    "durationTicks": 960,
                    "midi": 59,
                    "name": "B3",
                    "ticks": 312960,
                    "time": 271.666558,
                    "velocity": 0.2440944881889764,
                },
                {
                    "duration": 0.8333329999999819,
                    "durationTicks": 960,
                    "midi": 68,
                    "name": "G#4",
                    "ticks": 312960,
                    "time": 271.666558,
                    "velocity": 0.2440944881889764,
                },
                {
                    "duration": 0.41666650000001937,
                    "durationTicks": 480,
                    "midi": 69,
                    "name": "A4",
                    "ticks": 313920,
                    "time": 272.499891,
                    "velocity": 0.1889763779527559,
                },
                {
                    "duration": 0.4166664999999625,
                    "durationTicks": 480,
                    "midi": 71,
                    "name": "B4",
                    "ticks": 314400,
                    "time": 272.9165575,
                    "velocity": 0.1968503937007874,
                },
                {
                    "duration": 0.41666650000001937,
                    "durationTicks": 480,
                    "midi": 60,
                    "name": "C4",
                    "ticks": 314880,
                    "time": 273.333224,
                    "velocity": 0.12598425196850394,
                },
                {
                    "duration": 0.41666650000001937,
                    "durationTicks": 480,
                    "midi": 64,
                    "name": "E4",
                    "ticks": 314880,
                    "time": 273.333224,
                    "velocity": 0.12598425196850394,
                },
                {
                    "duration": 0.8333329999999819,
                    "durationTicks": 960,
                    "midi": 59,
                    "name": "B3",
                    "ticks": 316800,
                    "time": 274.99989,
                    "velocity": 0.1732283464566929,
                },
                {
                    "duration": 0.8333329999999819,
                    "durationTicks": 960,
                    "midi": 64,
                    "name": "E4",
                    "ticks": 316800,
                    "time": 274.99989,
                    "velocity": 0.1732283464566929,
                },
                {
                    "duration": 0.41666650000001937,
                    "durationTicks": 480,
                    "midi": 59,
                    "name": "B3",
                    "ticks": 317760,
                    "time": 275.833223,
                    "velocity": 0.1968503937007874,
                },
                {
                    "duration": 0.41666650000001937,
                    "durationTicks": 480,
                    "midi": 64,
                    "name": "E4",
                    "ticks": 317760,
                    "time": 275.833223,
                    "velocity": 0.1968503937007874,
                },
                {
                    "duration": 0.41666650000001937,
                    "durationTicks": 480,
                    "midi": 60,
                    "name": "C4",
                    "ticks": 318240,
                    "time": 276.2498895,
                    "velocity": 0.2047244094488189,
                },
                {
                    "duration": 0.41666650000001937,
                    "durationTicks": 480,
                    "midi": 66,
                    "name": "F#4",
                    "ticks": 318240,
                    "time": 276.2498895,
                    "velocity": 0.2047244094488189,
                },
                {
                    "duration": 0.8333329999999819,
                    "durationTicks": 960,
                    "midi": 59,
                    "name": "B3",
                    "ticks": 318720,
                    "time": 276.666556,
                    "velocity": 0.2204724409448819,
                },
                {
                    "duration": 0.8333329999999819,
                    "durationTicks": 960,
                    "midi": 66,
                    "name": "F#4",
                    "ticks": 318720,
                    "time": 276.666556,
                    "velocity": 0.2204724409448819,
                },
                {
                    "duration": 0.8333329999999819,
                    "durationTicks": 960,
                    "midi": 59,
                    "name": "B3",
                    "ticks": 319680,
                    "time": 277.499889,
                    "velocity": 0.2283464566929134,
                },
                {
                    "duration": 0.8333329999999819,
                    "durationTicks": 960,
                    "midi": 66,
                    "name": "F#4",
                    "ticks": 319680,
                    "time": 277.499889,
                    "velocity": 0.2283464566929134,
                },
                {
                    "duration": 0.8333329999999819,
                    "durationTicks": 960,
                    "midi": 71,
                    "name": "B4",
                    "ticks": 319680,
                    "time": 277.499889,
                    "velocity": 0.2283464566929134,
                },
                {
                    "duration": 0.8333330000000387,
                    "durationTicks": 960,
                    "midi": 57,
                    "name": "A3",
                    "ticks": 320640,
                    "time": 278.333222,
                    "velocity": 0.14960629921259844,
                },
                {
                    "duration": 0.8333330000000387,
                    "durationTicks": 960,
                    "midi": 62,
                    "name": "D4",
                    "ticks": 320640,
                    "time": 278.333222,
                    "velocity": 0.14960629921259844,
                },
                {
                    "duration": 0.4166664999999625,
                    "durationTicks": 480,
                    "midi": 57,
                    "name": "A3",
                    "ticks": 321600,
                    "time": 279.166555,
                    "velocity": 0.1889763779527559,
                },
                {
                    "duration": 0.4166664999999625,
                    "durationTicks": 480,
                    "midi": 62,
                    "name": "D4",
                    "ticks": 321600,
                    "time": 279.166555,
                    "velocity": 0.1889763779527559,
                },
                {
                    "duration": 0.41666650000001937,
                    "durationTicks": 480,
                    "midi": 59,
                    "name": "B3",
                    "ticks": 322080,
                    "time": 279.5832215,
                    "velocity": 0.2125984251968504,
                },
                {
                    "duration": 0.41666650000001937,
                    "durationTicks": 480,
                    "midi": 64,
                    "name": "E4",
                    "ticks": 322080,
                    "time": 279.5832215,
                    "velocity": 0.2125984251968504,
                },
                {
                    "duration": 0.8333329999999819,
                    "durationTicks": 960,
                    "midi": 57,
                    "name": "A3",
                    "ticks": 322560,
                    "time": 279.999888,
                    "velocity": 0.1889763779527559,
                },
                {
                    "duration": 0.8333329999999819,
                    "durationTicks": 960,
                    "midi": 64,
                    "name": "E4",
                    "ticks": 322560,
                    "time": 279.999888,
                    "velocity": 0.1889763779527559,
                },
                {
                    "duration": 0.8333330000000387,
                    "durationTicks": 960,
                    "midi": 57,
                    "name": "A3",
                    "ticks": 323520,
                    "time": 280.833221,
                    "velocity": 0.2125984251968504,
                },
                {
                    "duration": 0.8333330000000387,
                    "durationTicks": 960,
                    "midi": 64,
                    "name": "E4",
                    "ticks": 323520,
                    "time": 280.833221,
                    "velocity": 0.2125984251968504,
                },
                {
                    "duration": 0.8333330000000387,
                    "durationTicks": 960,
                    "midi": 69,
                    "name": "A4",
                    "ticks": 323520,
                    "time": 280.833221,
                    "velocity": 0.2125984251968504,
                },
                {
                    "duration": 0.8333329999999819,
                    "durationTicks": 960,
                    "midi": 60,
                    "name": "C4",
                    "ticks": 324480,
                    "time": 281.666554,
                    "velocity": 0.14173228346456693,
                },
                {
                    "duration": 0.8333329999999819,
                    "durationTicks": 960,
                    "midi": 69,
                    "name": "A4",
                    "ticks": 324480,
                    "time": 281.666554,
                    "velocity": 0.14173228346456693,
                },
                {
                    "duration": 0.41666650000001937,
                    "durationTicks": 480,
                    "midi": 60,
                    "name": "C4",
                    "ticks": 325440,
                    "time": 282.499887,
                    "velocity": 0.1968503937007874,
                },
                {
                    "duration": 0.41666650000001937,
                    "durationTicks": 480,
                    "midi": 69,
                    "name": "A4",
                    "ticks": 325440,
                    "time": 282.499887,
                    "velocity": 0.1968503937007874,
                },
                {
                    "duration": 0.4166664999999625,
                    "durationTicks": 480,
                    "midi": 57,
                    "name": "A3",
                    "ticks": 325920,
                    "time": 282.9165535,
                    "velocity": 0.15748031496062992,
                },
                {
                    "duration": 0.41666650000001937,
                    "durationTicks": 480,
                    "midi": 56,
                    "name": "G#3",
                    "ticks": 326400,
                    "time": 283.33322,
                    "velocity": 0.1968503937007874,
                },
                {
                    "duration": 0.4166664999999625,
                    "durationTicks": 480,
                    "midi": 60,
                    "name": "C4",
                    "ticks": 327360,
                    "time": 284.166553,
                    "velocity": 0.1732283464566929,
                },
                {
                    "duration": 0.4166664999999625,
                    "durationTicks": 480,
                    "midi": 69,
                    "name": "A4",
                    "ticks": 327360,
                    "time": 284.166553,
                    "velocity": 0.1732283464566929,
                },
                {
                    "duration": 0.41666650000001937,
                    "durationTicks": 480,
                    "midi": 57,
                    "name": "A3",
                    "ticks": 327840,
                    "time": 284.5832195,
                    "velocity": 0.14960629921259844,
                },
                {
                    "duration": 0.8333329999999819,
                    "durationTicks": 960,
                    "midi": 59,
                    "name": "B3",
                    "ticks": 328320,
                    "time": 284.999886,
                    "velocity": 0.2677165354330709,
                },
                {
                    "duration": 0.8333329999999819,
                    "durationTicks": 960,
                    "midi": 68,
                    "name": "G#4",
                    "ticks": 328320,
                    "time": 284.999886,
                    "velocity": 0.2677165354330709,
                },
                {
                    "duration": 0.41666650000001937,
                    "durationTicks": 480,
                    "midi": 69,
                    "name": "A4",
                    "ticks": 329280,
                    "time": 285.833219,
                    "velocity": 0.2440944881889764,
                },
                {
                    "duration": 0.41666650000001937,
                    "durationTicks": 480,
                    "midi": 71,
                    "name": "B4",
                    "ticks": 329760,
                    "time": 286.2498855,
                    "velocity": 0.2125984251968504,
                },
                {
                    "duration": 0.8333329999999819,
                    "durationTicks": 960,
                    "midi": 61,
                    "name": "C#4",
                    "ticks": 330240,
                    "time": 286.666552,
                    "velocity": 0.14960629921259844,
                },
                {
                    "duration": 0.8333329999999819,
                    "durationTicks": 960,
                    "midi": 64,
                    "name": "E4",
                    "ticks": 330240,
                    "time": 286.666552,
                    "velocity": 0.14960629921259844,
                },
                {
                    "duration": 0.8333329999999819,
                    "durationTicks": 960,
                    "midi": 61,
                    "name": "C#4",
                    "ticks": 332160,
                    "time": 288.333218,
                    "velocity": 0.16535433070866143,
                },
                {
                    "duration": 0.8333329999999819,
                    "durationTicks": 960,
                    "midi": 64,
                    "name": "E4",
                    "ticks": 332160,
                    "time": 288.333218,
                    "velocity": 0.16535433070866143,
                },
                {
                    "duration": 0.41666650000001937,
                    "durationTicks": 480,
                    "midi": 61,
                    "name": "C#4",
                    "ticks": 333120,
                    "time": 289.16655099999997,
                    "velocity": 0.18110236220472442,
                },
                {
                    "duration": 0.41666650000001937,
                    "durationTicks": 480,
                    "midi": 64,
                    "name": "E4",
                    "ticks": 333120,
                    "time": 289.16655099999997,
                    "velocity": 0.18110236220472442,
                },
                {
                    "duration": 0.41666650000001937,
                    "durationTicks": 480,
                    "midi": 61,
                    "name": "C#4",
                    "ticks": 333600,
                    "time": 289.5832175,
                    "velocity": 0.1968503937007874,
                },
                {
                    "duration": 0.41666650000001937,
                    "durationTicks": 480,
                    "midi": 64,
                    "name": "E4",
                    "ticks": 333600,
                    "time": 289.5832175,
                    "velocity": 0.1968503937007874,
                },
                {
                    "duration": 0.8333329999999819,
                    "durationTicks": 960,
                    "midi": 62,
                    "name": "D4",
                    "ticks": 334080,
                    "time": 289.999884,
                    "velocity": 0.2047244094488189,
                },
                {
                    "duration": 0.8333329999999819,
                    "durationTicks": 960,
                    "midi": 65,
                    "name": "F4",
                    "ticks": 334080,
                    "time": 289.999884,
                    "velocity": 0.2047244094488189,
                },
                {
                    "duration": 0.8333330000000387,
                    "durationTicks": 960,
                    "midi": 62,
                    "name": "D4",
                    "ticks": 336000,
                    "time": 291.66655,
                    "velocity": 0.18110236220472442,
                },
                {
                    "duration": 0.8333330000000387,
                    "durationTicks": 960,
                    "midi": 65,
                    "name": "F4",
                    "ticks": 336000,
                    "time": 291.66655,
                    "velocity": 0.18110236220472442,
                },
                {
                    "duration": 0.4166664999999625,
                    "durationTicks": 480,
                    "midi": 62,
                    "name": "D4",
                    "ticks": 336960,
                    "time": 292.499883,
                    "velocity": 0.18110236220472442,
                },
                {
                    "duration": 0.4166664999999625,
                    "durationTicks": 480,
                    "midi": 65,
                    "name": "F4",
                    "ticks": 336960,
                    "time": 292.499883,
                    "velocity": 0.18110236220472442,
                },
                {
                    "duration": 0.41666650000001937,
                    "durationTicks": 480,
                    "midi": 62,
                    "name": "D4",
                    "ticks": 337440,
                    "time": 292.9165495,
                    "velocity": 0.1889763779527559,
                },
                {
                    "duration": 0.41666650000001937,
                    "durationTicks": 480,
                    "midi": 65,
                    "name": "F4",
                    "ticks": 337440,
                    "time": 292.9165495,
                    "velocity": 0.1889763779527559,
                },
                {
                    "duration": 0.8333329999999819,
                    "durationTicks": 960,
                    "midi": 61,
                    "name": "C#4",
                    "ticks": 337920,
                    "time": 293.333216,
                    "velocity": 0.1889763779527559,
                },
                {
                    "duration": 0.8333329999999819,
                    "durationTicks": 960,
                    "midi": 64,
                    "name": "E4",
                    "ticks": 337920,
                    "time": 293.333216,
                    "velocity": 0.1889763779527559,
                },
                {
                    "duration": 0.4166664999999625,
                    "durationTicks": 480,
                    "midi": 61,
                    "name": "C#4",
                    "ticks": 339840,
                    "time": 294.999882,
                    "velocity": 0.1968503937007874,
                },
                {
                    "duration": 0.4166664999999625,
                    "durationTicks": 480,
                    "midi": 64,
                    "name": "E4",
                    "ticks": 339840,
                    "time": 294.999882,
                    "velocity": 0.1968503937007874,
                },
                {
                    "duration": 0.41666650000001937,
                    "durationTicks": 480,
                    "midi": 61,
                    "name": "C#4",
                    "ticks": 340320,
                    "time": 295.4165485,
                    "velocity": 0.2283464566929134,
                },
                {
                    "duration": 0.41666650000001937,
                    "durationTicks": 480,
                    "midi": 64,
                    "name": "E4",
                    "ticks": 340320,
                    "time": 295.4165485,
                    "velocity": 0.2283464566929134,
                },
                {
                    "duration": 0.41666650000001937,
                    "durationTicks": 480,
                    "midi": 61,
                    "name": "C#4",
                    "ticks": 340800,
                    "time": 295.833215,
                    "velocity": 0.2125984251968504,
                },
                {
                    "duration": 0.41666650000001937,
                    "durationTicks": 480,
                    "midi": 64,
                    "name": "E4",
                    "ticks": 340800,
                    "time": 295.833215,
                    "velocity": 0.2125984251968504,
                },
                {
                    "duration": 0.41666650000001937,
                    "durationTicks": 480,
                    "midi": 62,
                    "name": "D4",
                    "ticks": 341760,
                    "time": 296.666548,
                    "velocity": 0.2992125984251969,
                },
                {
                    "duration": 0.41666650000001937,
                    "durationTicks": 480,
                    "midi": 65,
                    "name": "F4",
                    "ticks": 341760,
                    "time": 296.666548,
                    "velocity": 0.2992125984251969,
                },
                {
                    "duration": 0.41666650000001937,
                    "durationTicks": 480,
                    "midi": 62,
                    "name": "D4",
                    "ticks": 342240,
                    "time": 297.0832145,
                    "velocity": 0.4015748031496063,
                },
                {
                    "duration": 0.41666650000001937,
                    "durationTicks": 480,
                    "midi": 65,
                    "name": "F4",
                    "ticks": 342240,
                    "time": 297.0832145,
                    "velocity": 0.4015748031496063,
                },
                {
                    "duration": 0.4166664999999625,
                    "durationTicks": 480,
                    "midi": 62,
                    "name": "D4",
                    "ticks": 342720,
                    "time": 297.499881,
                    "velocity": 0.44881889763779526,
                },
                {
                    "duration": 0.4166664999999625,
                    "durationTicks": 480,
                    "midi": 65,
                    "name": "F4",
                    "ticks": 342720,
                    "time": 297.499881,
                    "velocity": 0.44881889763779526,
                },
                {
                    "duration": 0.41666650000001937,
                    "durationTicks": 480,
                    "midi": 62,
                    "name": "D4",
                    "ticks": 343680,
                    "time": 298.333214,
                    "velocity": 0.4251968503937008,
                },
                {
                    "duration": 0.41666650000001937,
                    "durationTicks": 480,
                    "midi": 65,
                    "name": "F4",
                    "ticks": 343680,
                    "time": 298.333214,
                    "velocity": 0.4251968503937008,
                },
                {
                    "duration": 0.4166664999999625,
                    "durationTicks": 480,
                    "midi": 62,
                    "name": "D4",
                    "ticks": 344160,
                    "time": 298.7498805,
                    "velocity": 0.5433070866141733,
                },
                {
                    "duration": 0.4166664999999625,
                    "durationTicks": 480,
                    "midi": 65,
                    "name": "F4",
                    "ticks": 344160,
                    "time": 298.7498805,
                    "velocity": 0.5433070866141733,
                },
                {
                    "duration": 0.41666650000001937,
                    "durationTicks": 480,
                    "midi": 62,
                    "name": "D4",
                    "ticks": 344640,
                    "time": 299.166547,
                    "velocity": 0.6220472440944882,
                },
                {
                    "duration": 0.41666650000001937,
                    "durationTicks": 480,
                    "midi": 65,
                    "name": "F4",
                    "ticks": 344640,
                    "time": 299.166547,
                    "velocity": 0.6220472440944882,
                },
                {
                    "duration": 0.41666650000001937,
                    "durationTicks": 480,
                    "midi": 61,
                    "name": "C#4",
                    "ticks": 346560,
                    "time": 300.833213,
                    "velocity": 0.5196850393700787,
                },
                {
                    "duration": 0.41666650000001937,
                    "durationTicks": 480,
                    "midi": 64,
                    "name": "E4",
                    "ticks": 346560,
                    "time": 300.833213,
                    "velocity": 0.5196850393700787,
                },
                {
                    "duration": 0.4166664999999625,
                    "durationTicks": 480,
                    "midi": 61,
                    "name": "C#4",
                    "ticks": 347040,
                    "time": 301.2498795,
                    "velocity": 0.5354330708661418,
                },
                {
                    "duration": 0.4166664999999625,
                    "durationTicks": 480,
                    "midi": 64,
                    "name": "E4",
                    "ticks": 347040,
                    "time": 301.2498795,
                    "velocity": 0.5354330708661418,
                },
                {
                    "duration": 0.8333329999999819,
                    "durationTicks": 960,
                    "midi": 57,
                    "name": "A3",
                    "ticks": 488640,
                    "time": 424.166497,
                    "velocity": 0.3543307086614173,
                },
                {
                    "duration": 0.8333329999999819,
                    "durationTicks": 960,
                    "midi": 64,
                    "name": "E4",
                    "ticks": 490560,
                    "time": 425.833163,
                    "velocity": 0.36220472440944884,
                },
                {
                    "duration": 0.8333330000000387,
                    "durationTicks": 960,
                    "midi": 64,
                    "name": "E4",
                    "ticks": 492480,
                    "time": 427.499829,
                    "velocity": 0.31496062992125984,
                },
                {
                    "duration": 0.8333329999999819,
                    "durationTicks": 960,
                    "midi": 57,
                    "name": "A3",
                    "ticks": 494400,
                    "time": 429.166495,
                    "velocity": 0.36220472440944884,
                },
                {
                    "duration": 0.8333329999999819,
                    "durationTicks": 960,
                    "midi": 60,
                    "name": "C4",
                    "ticks": 496320,
                    "time": 430.833161,
                    "velocity": 0.3228346456692913,
                },
                {
                    "duration": 0.8333330000000387,
                    "durationTicks": 960,
                    "midi": 60,
                    "name": "C4",
                    "ticks": 498240,
                    "time": 432.499827,
                    "velocity": 0.36220472440944884,
                },
                {
                    "duration": 0.8333329999999819,
                    "durationTicks": 960,
                    "midi": 59,
                    "name": "B3",
                    "ticks": 499200,
                    "time": 433.33316,
                    "velocity": 0.36220472440944884,
                },
                {
                    "duration": 0.41666650000001937,
                    "durationTicks": 480,
                    "midi": 57,
                    "name": "A3",
                    "ticks": 500160,
                    "time": 434.166493,
                    "velocity": 0.3700787401574803,
                },
                {
                    "duration": 0.4166664999999625,
                    "durationTicks": 480,
                    "midi": 59,
                    "name": "B3",
                    "ticks": 500640,
                    "time": 434.5831595,
                    "velocity": 0.3937007874015748,
                },
                {
                    "duration": 0.8333330000000387,
                    "durationTicks": 960,
                    "midi": 60,
                    "name": "C4",
                    "ticks": 501120,
                    "time": 434.999826,
                    "velocity": 0.36220472440944884,
                },
                {
                    "duration": 0.8333329999999819,
                    "durationTicks": 960,
                    "midi": 60,
                    "name": "C4",
                    "ticks": 504000,
                    "time": 437.499825,
                    "velocity": 0.33858267716535434,
                },
                {
                    "duration": 0.8333329999999819,
                    "durationTicks": 960,
                    "midi": 59,
                    "name": "B3",
                    "ticks": 505920,
                    "time": 439.166491,
                    "velocity": 0.3700787401574803,
                },
                {
                    "duration": 0.8333330000000387,
                    "durationTicks": 960,
                    "midi": 64,
                    "name": "E4",
                    "ticks": 507840,
                    "time": 440.83315699999997,
                    "velocity": 0.2992125984251969,
                },
                {
                    "duration": 0.8333329999999819,
                    "durationTicks": 960,
                    "midi": 57,
                    "name": "A3",
                    "ticks": 509760,
                    "time": 442.499823,
                    "velocity": 0.3543307086614173,
                },
                {
                    "duration": 0.8333329999999819,
                    "durationTicks": 960,
                    "midi": 57,
                    "name": "A3",
                    "ticks": 511680,
                    "time": 444.166489,
                    "velocity": 0.3228346456692913,
                },
                {
                    "duration": 0.8333329999999819,
                    "durationTicks": 960,
                    "midi": 59,
                    "name": "B3",
                    "ticks": 512640,
                    "time": 444.999822,
                    "velocity": 0.3937007874015748,
                },
                {
                    "duration": 0.8333330000000387,
                    "durationTicks": 960,
                    "midi": 57,
                    "name": "A3",
                    "ticks": 513600,
                    "time": 445.833155,
                    "velocity": 0.3543307086614173,
                },
                {
                    "duration": 0.8333329999999819,
                    "durationTicks": 960,
                    "midi": 59,
                    "name": "B3",
                    "ticks": 514560,
                    "time": 446.666488,
                    "velocity": 0.3937007874015748,
                },
                {
                    "duration": 0.41666650000001937,
                    "durationTicks": 480,
                    "midi": 59,
                    "name": "B3",
                    "ticks": 515520,
                    "time": 447.499821,
                    "velocity": 0.4330708661417323,
                },
                {
                    "duration": 0.4166664999999625,
                    "durationTicks": 480,
                    "midi": 59,
                    "name": "B3",
                    "ticks": 516000,
                    "time": 447.9164875,
                    "velocity": 0.4094488188976378,
                },
                {
                    "duration": 0.8333330000000387,
                    "durationTicks": 960,
                    "midi": 57,
                    "name": "A3",
                    "ticks": 516480,
                    "time": 448.333154,
                    "velocity": 0.3543307086614173,
                },
                {
                    "duration": 0.8333330000000387,
                    "durationTicks": 960,
                    "midi": 59,
                    "name": "B3",
                    "ticks": 522240,
                    "time": 453.333152,
                    "velocity": 0.3464566929133858,
                },
                {
                    "duration": 0.4166664999999625,
                    "durationTicks": 480,
                    "midi": 59,
                    "name": "B3",
                    "ticks": 523200,
                    "time": 454.166485,
                    "velocity": 0.3937007874015748,
                },
                {
                    "duration": 0.41666650000001937,
                    "durationTicks": 480,
                    "midi": 59,
                    "name": "B3",
                    "ticks": 523680,
                    "time": 454.5831515,
                    "velocity": 0.3779527559055118,
                },
                {
                    "duration": 0.8333329999999819,
                    "durationTicks": 960,
                    "midi": 57,
                    "name": "A3",
                    "ticks": 524160,
                    "time": 454.999818,
                    "velocity": 0.36220472440944884,
                },
            ],
        },
        {
            "channel": 8,
            "controlChanges": {
                "7": [
                    {
                        "number": 7,
                        "ticks": 487680,
                        "time": 423.333164,
                        "value": 0.7480314960629921,
                    }
                ],
                "10": [
                    {
                        "number": 10,
                        "ticks": 487680,
                        "time": 423.333164,
                        "value": 0.5905511811023622,
                    }
                ],
                "91": [
                    {
                        "number": 91,
                        "ticks": 487680,
                        "time": 423.333164,
                        "value": 0.4645669291338583,
                    }
                ],
            },
            "pitchBends": [],
            "instrument": {
                "family": "strings",
                "number": 45,
                "name": "pizzicato strings",
            },
            "name": "",
            "notes": [
                {
                    "duration": 0.7942705156249872,
                    "durationTicks": 915,
                    "midi": 57,
                    "name": "A3",
                    "ticks": 488640,
                    "time": 424.166497,
                    "velocity": 0.3464566929133858,
                },
                {
                    "duration": 0.7942705156249872,
                    "durationTicks": 915,
                    "midi": 52,
                    "name": "E3",
                    "ticks": 490560,
                    "time": 425.833163,
                    "velocity": 0.36220472440944884,
                },
                {
                    "duration": 0.794270515625044,
                    "durationTicks": 915,
                    "midi": 52,
                    "name": "E3",
                    "ticks": 492480,
                    "time": 427.499829,
                    "velocity": 0.33070866141732286,
                },
                {
                    "duration": 0.7942705156249872,
                    "durationTicks": 915,
                    "midi": 57,
                    "name": "A3",
                    "ticks": 494400,
                    "time": 429.166495,
                    "velocity": 0.3228346456692913,
                },
                {
                    "duration": 0.7942705156249872,
                    "durationTicks": 915,
                    "midi": 57,
                    "name": "A3",
                    "ticks": 496320,
                    "time": 430.833161,
                    "velocity": 0.36220472440944884,
                },
                {
                    "duration": 0.7942705156249872,
                    "durationTicks": 915,
                    "midi": 55,
                    "name": "G3",
                    "ticks": 498240,
                    "time": 432.499827,
                    "velocity": 0.2440944881889764,
                },
                {
                    "duration": 0.7942705156249872,
                    "durationTicks": 915,
                    "midi": 55,
                    "name": "G3",
                    "ticks": 499200,
                    "time": 433.33316,
                    "velocity": 0.29133858267716534,
                },
                {
                    "duration": 0.39670123020835035,
                    "durationTicks": 457,
                    "midi": 55,
                    "name": "G3",
                    "ticks": 500160,
                    "time": 434.166493,
                    "velocity": 0.2755905511811024,
                },
                {
                    "duration": 0.3967012302082935,
                    "durationTicks": 457,
                    "midi": 55,
                    "name": "G3",
                    "ticks": 500640,
                    "time": 434.5831595,
                    "velocity": 0.2440944881889764,
                },
                {
                    "duration": 0.7942705156249872,
                    "durationTicks": 915,
                    "midi": 55,
                    "name": "G3",
                    "ticks": 501120,
                    "time": 434.999826,
                    "velocity": 0.28346456692913385,
                },
                {
                    "duration": 0.7942705156249872,
                    "durationTicks": 915,
                    "midi": 60,
                    "name": "C4",
                    "ticks": 504000,
                    "time": 437.499825,
                    "velocity": 0.25984251968503935,
                },
                {
                    "duration": 0.7942705156249872,
                    "durationTicks": 915,
                    "midi": 59,
                    "name": "B3",
                    "ticks": 505920,
                    "time": 439.166491,
                    "velocity": 0.29133858267716534,
                },
                {
                    "duration": 0.794270515625044,
                    "durationTicks": 915,
                    "midi": 64,
                    "name": "E4",
                    "ticks": 507840,
                    "time": 440.83315699999997,
                    "velocity": 0.2440944881889764,
                },
                {
                    "duration": 0.7942705156249872,
                    "durationTicks": 915,
                    "midi": 57,
                    "name": "A3",
                    "ticks": 509760,
                    "time": 442.499823,
                    "velocity": 0.2440944881889764,
                },
                {
                    "duration": 0.7942705156249872,
                    "durationTicks": 915,
                    "midi": 52,
                    "name": "E3",
                    "ticks": 511680,
                    "time": 444.166489,
                    "velocity": 0.25196850393700787,
                },
                {
                    "duration": 0.7942705156249872,
                    "durationTicks": 915,
                    "midi": 52,
                    "name": "E3",
                    "ticks": 512640,
                    "time": 444.999822,
                    "velocity": 0.25196850393700787,
                },
                {
                    "duration": 0.794270515625044,
                    "durationTicks": 915,
                    "midi": 52,
                    "name": "E3",
                    "ticks": 513600,
                    "time": 445.833155,
                    "velocity": 0.2677165354330709,
                },
                {
                    "duration": 0.7942705156249872,
                    "durationTicks": 915,
                    "midi": 52,
                    "name": "E3",
                    "ticks": 514560,
                    "time": 446.666488,
                    "velocity": 0.2677165354330709,
                },
                {
                    "duration": 0.39670123020835035,
                    "durationTicks": 457,
                    "midi": 52,
                    "name": "E3",
                    "ticks": 515520,
                    "time": 447.499821,
                    "velocity": 0.2440944881889764,
                },
                {
                    "duration": 0.3967012302082935,
                    "durationTicks": 457,
                    "midi": 52,
                    "name": "E3",
                    "ticks": 516000,
                    "time": 447.9164875,
                    "velocity": 0.25984251968503935,
                },
                {
                    "duration": 0.794270515625044,
                    "durationTicks": 915,
                    "midi": 52,
                    "name": "E3",
                    "ticks": 516480,
                    "time": 448.333154,
                    "velocity": 0.28346456692913385,
                },
                {
                    "duration": 0.7942705156249872,
                    "durationTicks": 915,
                    "midi": 52,
                    "name": "E3",
                    "ticks": 522240,
                    "time": 453.333152,
                    "velocity": 0.33858267716535434,
                },
                {
                    "duration": 0.3967012302082935,
                    "durationTicks": 457,
                    "midi": 52,
                    "name": "E3",
                    "ticks": 523200,
                    "time": 454.166485,
                    "velocity": 0.4015748031496063,
                },
                {
                    "duration": 0.39670123020835035,
                    "durationTicks": 457,
                    "midi": 52,
                    "name": "E3",
                    "ticks": 523680,
                    "time": 454.5831515,
                    "velocity": 0.3543307086614173,
                },
                {
                    "duration": 0.7942705156249872,
                    "durationTicks": 915,
                    "midi": 52,
                    "name": "E3",
                    "ticks": 524160,
                    "time": 454.999818,
                    "velocity": 0.5039370078740157,
                },
                {
                    "duration": 0.39670123020835035,
                    "durationTicks": 457,
                    "midi": 54,
                    "name": "F#3",
                    "ticks": 525120,
                    "time": 455.833151,
                    "velocity": 0.5118110236220472,
                },
                {
                    "duration": 0.39670123020835035,
                    "durationTicks": 457,
                    "midi": 56,
                    "name": "G#3",
                    "ticks": 525600,
                    "time": 456.2498175,
                    "velocity": 0.5039370078740157,
                },
                {
                    "duration": 0.794270515625044,
                    "durationTicks": 915,
                    "midi": 57,
                    "name": "A3",
                    "ticks": 526080,
                    "time": 456.66648399999997,
                    "velocity": 0.49606299212598426,
                },
            ],
        },
        {
            "channel": 7,
            "controlChanges": {
                "7": [
                    {
                        "number": 7,
                        "ticks": 488640,
                        "time": 424.166497,
                        "value": 0.7637795275590551,
                    }
                ],
                "10": [
                    {
                        "number": 10,
                        "ticks": 488640,
                        "time": 424.166497,
                        "value": 0.15748031496062992,
                    }
                ],
                "91": [
                    {
                        "number": 91,
                        "ticks": 488640,
                        "time": 424.166497,
                        "value": 0.4645669291338583,
                    }
                ],
            },
            "pitchBends": [],
            "instrument": {
                "family": "strings",
                "number": 45,
                "name": "pizzicato strings",
            },
            "name": "",
            "notes": [
                {
                    "duration": 0.7942705156249872,
                    "durationTicks": 915,
                    "midi": 69,
                    "name": "A4",
                    "ticks": 488640,
                    "time": 424.166497,
                    "velocity": 0.33858267716535434,
                },
                {
                    "duration": 0.7942705156249872,
                    "durationTicks": 915,
                    "midi": 64,
                    "name": "E4",
                    "ticks": 490560,
                    "time": 425.833163,
                    "velocity": 0.33858267716535434,
                },
                {
                    "duration": 0.794270515625044,
                    "durationTicks": 915,
                    "midi": 64,
                    "name": "E4",
                    "ticks": 492480,
                    "time": 427.499829,
                    "velocity": 0.33858267716535434,
                },
                {
                    "duration": 0.7942705156249872,
                    "durationTicks": 915,
                    "midi": 69,
                    "name": "A4",
                    "ticks": 494400,
                    "time": 429.166495,
                    "velocity": 0.31496062992125984,
                },
                {
                    "duration": 0.7942705156249872,
                    "durationTicks": 915,
                    "midi": 64,
                    "name": "E4",
                    "ticks": 496320,
                    "time": 430.833161,
                    "velocity": 0.33070866141732286,
                },
                {
                    "duration": 0.7942705156249872,
                    "durationTicks": 915,
                    "midi": 64,
                    "name": "E4",
                    "ticks": 498240,
                    "time": 432.499827,
                    "velocity": 0.33070866141732286,
                },
                {
                    "duration": 0.7942705156249872,
                    "durationTicks": 915,
                    "midi": 62,
                    "name": "D4",
                    "ticks": 499200,
                    "time": 433.33316,
                    "velocity": 0.3543307086614173,
                },
                {
                    "duration": 0.39670123020835035,
                    "durationTicks": 457,
                    "midi": 60,
                    "name": "C4",
                    "ticks": 500160,
                    "time": 434.166493,
                    "velocity": 0.36220472440944884,
                },
                {
                    "duration": 0.3967012302082935,
                    "durationTicks": 457,
                    "midi": 62,
                    "name": "D4",
                    "ticks": 500640,
                    "time": 434.5831595,
                    "velocity": 0.4251968503937008,
                },
                {
                    "duration": 0.7942705156249872,
                    "durationTicks": 915,
                    "midi": 64,
                    "name": "E4",
                    "ticks": 501120,
                    "time": 434.999826,
                    "velocity": 0.3858267716535433,
                },
                {
                    "duration": 0.7942705156249872,
                    "durationTicks": 915,
                    "midi": 60,
                    "name": "C4",
                    "ticks": 504000,
                    "time": 437.499825,
                    "velocity": 0.33070866141732286,
                },
                {
                    "duration": 0.7942705156249872,
                    "durationTicks": 915,
                    "midi": 71,
                    "name": "B4",
                    "ticks": 505920,
                    "time": 439.166491,
                    "velocity": 0.3464566929133858,
                },
                {
                    "duration": 0.794270515625044,
                    "durationTicks": 915,
                    "midi": 64,
                    "name": "E4",
                    "ticks": 507840,
                    "time": 440.83315699999997,
                    "velocity": 0.3543307086614173,
                },
                {
                    "duration": 0.7942705156249872,
                    "durationTicks": 915,
                    "midi": 69,
                    "name": "A4",
                    "ticks": 509760,
                    "time": 442.499823,
                    "velocity": 0.3700787401574803,
                },
                {
                    "duration": 0.7942705156249872,
                    "durationTicks": 915,
                    "midi": 60,
                    "name": "C4",
                    "ticks": 511680,
                    "time": 444.166489,
                    "velocity": 0.2992125984251969,
                },
                {
                    "duration": 0.7942705156249872,
                    "durationTicks": 915,
                    "midi": 62,
                    "name": "D4",
                    "ticks": 512640,
                    "time": 444.999822,
                    "velocity": 0.36220472440944884,
                },
                {
                    "duration": 0.794270515625044,
                    "durationTicks": 915,
                    "midi": 60,
                    "name": "C4",
                    "ticks": 513600,
                    "time": 445.833155,
                    "velocity": 0.3937007874015748,
                },
                {
                    "duration": 0.7942705156249872,
                    "durationTicks": 915,
                    "midi": 62,
                    "name": "D4",
                    "ticks": 514560,
                    "time": 446.666488,
                    "velocity": 0.4094488188976378,
                },
                {
                    "duration": 0.39670123020835035,
                    "durationTicks": 457,
                    "midi": 62,
                    "name": "D4",
                    "ticks": 515520,
                    "time": 447.499821,
                    "velocity": 0.3937007874015748,
                },
                {
                    "duration": 0.3967012302082935,
                    "durationTicks": 457,
                    "midi": 62,
                    "name": "D4",
                    "ticks": 516000,
                    "time": 447.9164875,
                    "velocity": 0.3543307086614173,
                },
                {
                    "duration": 0.794270515625044,
                    "durationTicks": 915,
                    "midi": 60,
                    "name": "C4",
                    "ticks": 516480,
                    "time": 448.333154,
                    "velocity": 0.3464566929133858,
                },
                {
                    "duration": 0.7942705156249872,
                    "durationTicks": 915,
                    "midi": 62,
                    "name": "D4",
                    "ticks": 522240,
                    "time": 453.333152,
                    "velocity": 0.3228346456692913,
                },
                {
                    "duration": 0.3967012302082935,
                    "durationTicks": 457,
                    "midi": 62,
                    "name": "D4",
                    "ticks": 523200,
                    "time": 454.166485,
                    "velocity": 0.3543307086614173,
                },
                {
                    "duration": 0.39670123020835035,
                    "durationTicks": 457,
                    "midi": 62,
                    "name": "D4",
                    "ticks": 523680,
                    "time": 454.5831515,
                    "velocity": 0.4015748031496063,
                },
                {
                    "duration": 0.7942705156249872,
                    "durationTicks": 915,
                    "midi": 60,
                    "name": "C4",
                    "ticks": 524160,
                    "time": 454.999818,
                    "velocity": 0.36220472440944884,
                },
                {
                    "duration": 0.794270515625044,
                    "durationTicks": 915,
                    "midi": 60,
                    "name": "C4",
                    "ticks": 526080,
                    "time": 456.66648399999997,
                    "velocity": 0.3700787401574803,
                },
            ],
        },
    ],
}
