symphony_7_2 = {
    "header": {
        "keySignatures": [{"key": "C", "scale": "major", "ticks": 0}],
        "meta": [{"text": "Ludwig van Beethoven", "ticks": 0, "type": "text"}],
        "name": "Symphony no.7, 2nd movement",
        "ppq": 256,
        "tempos": [
            {"bpm": 72.00011520018433, "ticks": 0},
            {"bpm": 72.00011520018433, "ticks": 1024},
            {"bpm": 62.000124000248, "ticks": 140800},
            {"bpm": 54.00000540000054, "ticks": 141312},
        ],
        "timeSignatures": [{"ticks": 0, "timeSignature": [2, 4], "measures": 0}],
    },
    "tracks": [
        {
            "channel": 0,
            "controlChanges": {
                "7": [
                    {"number": 7, "ticks": 0, "time": 0, "value": 0.5984251968503937}
                ],
                "10": [
                    {"number": 10, "ticks": 0, "time": 0, "value": 0.5511811023622047}
                ],
                "64": [{"number": 64, "ticks": 0, "time": 0, "value": 0}],
                "91": [
                    {"number": 91, "ticks": 0, "time": 0, "value": 0.4094488188976378}
                ],
                "121": [{"number": 121, "ticks": 0, "time": 0, "value": 0}],
            },
            "pitchBends": [],
            "instrument": {"family": "pipe", "number": 73, "name": "flute"},
            "name": "2 Flutes",
            "notes": [
                {
                    "duration": 0.8333319999999986,
                    "durationTicks": 256,
                    "midi": 80,
                    "name": "G#5",
                    "ticks": 37120,
                    "time": 120.83313999999999,
                    "velocity": 0.6220472440944882,
                },
                {
                    "duration": 0.8333320000000128,
                    "durationTicks": 256,
                    "midi": 81,
                    "name": "A5",
                    "ticks": 37632,
                    "time": 122.49980399999998,
                    "velocity": 0.6614173228346457,
                },
                {
                    "duration": 0.8333319999999986,
                    "durationTicks": 256,
                    "midi": 76,
                    "name": "E5",
                    "ticks": 37888,
                    "time": 123.333136,
                    "velocity": 1,
                },
                {
                    "duration": 0.8333319999999986,
                    "durationTicks": 256,
                    "midi": 88,
                    "name": "E6",
                    "ticks": 37888,
                    "time": 123.333136,
                    "velocity": 1,
                },
                {
                    "duration": 0.24739543749998916,
                    "durationTicks": 76,
                    "midi": 76,
                    "name": "E5",
                    "ticks": 38144,
                    "time": 124.166468,
                    "velocity": 0.8976377952755905,
                },
                {
                    "duration": 0.24739543749998916,
                    "durationTicks": 76,
                    "midi": 88,
                    "name": "E6",
                    "ticks": 38144,
                    "time": 124.166468,
                    "velocity": 0.8976377952755905,
                },
                {
                    "duration": 0.24739543750000337,
                    "durationTicks": 76,
                    "midi": 76,
                    "name": "E5",
                    "ticks": 38272,
                    "time": 124.58313399999999,
                    "velocity": 0.8740157480314961,
                },
                {
                    "duration": 0.24739543750000337,
                    "durationTicks": 76,
                    "midi": 88,
                    "name": "E6",
                    "ticks": 38272,
                    "time": 124.58313399999999,
                    "velocity": 0.8740157480314961,
                },
                {
                    "duration": 0.49804607812500024,
                    "durationTicks": 153,
                    "midi": 76,
                    "name": "E5",
                    "ticks": 38400,
                    "time": 124.9998,
                    "velocity": 0.8976377952755905,
                },
                {
                    "duration": 0.49804607812500024,
                    "durationTicks": 153,
                    "midi": 88,
                    "name": "E6",
                    "ticks": 38400,
                    "time": 124.9998,
                    "velocity": 0.8976377952755905,
                },
                {
                    "duration": 0.4720044531249954,
                    "durationTicks": 145,
                    "midi": 76,
                    "name": "E5",
                    "ticks": 38656,
                    "time": 125.83313199999999,
                    "velocity": 0.9133858267716536,
                },
                {
                    "duration": 0.4720044531249954,
                    "durationTicks": 145,
                    "midi": 88,
                    "name": "E6",
                    "ticks": 38656,
                    "time": 125.83313199999999,
                    "velocity": 0.9133858267716536,
                },
                {
                    "duration": 0.8333319999999986,
                    "durationTicks": 256,
                    "midi": 76,
                    "name": "E5",
                    "ticks": 38912,
                    "time": 126.66646399999999,
                    "velocity": 0.8503937007874016,
                },
                {
                    "duration": 0.8333319999999986,
                    "durationTicks": 256,
                    "midi": 88,
                    "name": "E6",
                    "ticks": 38912,
                    "time": 126.66646399999999,
                    "velocity": 0.8503937007874016,
                },
                {
                    "duration": 0.24739543750000337,
                    "durationTicks": 76,
                    "midi": 76,
                    "name": "E5",
                    "ticks": 39168,
                    "time": 127.49979599999999,
                    "velocity": 0.8818897637795275,
                },
                {
                    "duration": 0.24739543750000337,
                    "durationTicks": 76,
                    "midi": 88,
                    "name": "E6",
                    "ticks": 39168,
                    "time": 127.49979599999999,
                    "velocity": 0.8818897637795275,
                },
                {
                    "duration": 0.24739543749998916,
                    "durationTicks": 76,
                    "midi": 76,
                    "name": "E5",
                    "ticks": 39296,
                    "time": 127.916462,
                    "velocity": 0.889763779527559,
                },
                {
                    "duration": 0.24739543749998916,
                    "durationTicks": 76,
                    "midi": 88,
                    "name": "E6",
                    "ticks": 39296,
                    "time": 127.916462,
                    "velocity": 0.889763779527559,
                },
                {
                    "duration": 0.49804607812501445,
                    "durationTicks": 153,
                    "midi": 76,
                    "name": "E5",
                    "ticks": 39424,
                    "time": 128.333128,
                    "velocity": 0.8818897637795275,
                },
                {
                    "duration": 0.49804607812501445,
                    "durationTicks": 153,
                    "midi": 88,
                    "name": "E6",
                    "ticks": 39424,
                    "time": 128.333128,
                    "velocity": 0.8818897637795275,
                },
                {
                    "duration": 0.4720044531249812,
                    "durationTicks": 145,
                    "midi": 76,
                    "name": "E5",
                    "ticks": 39680,
                    "time": 129.16646,
                    "velocity": 0.9133858267716536,
                },
                {
                    "duration": 0.4720044531249812,
                    "durationTicks": 145,
                    "midi": 88,
                    "name": "E6",
                    "ticks": 39680,
                    "time": 129.16646,
                    "velocity": 0.9133858267716536,
                },
                {
                    "duration": 0.8333320000000128,
                    "durationTicks": 256,
                    "midi": 76,
                    "name": "E5",
                    "ticks": 39936,
                    "time": 129.99979199999999,
                    "velocity": 0.84251968503937,
                },
                {
                    "duration": 0.8333320000000128,
                    "durationTicks": 256,
                    "midi": 88,
                    "name": "E6",
                    "ticks": 39936,
                    "time": 129.99979199999999,
                    "velocity": 0.84251968503937,
                },
                {
                    "duration": 0.24739543749998916,
                    "durationTicks": 76,
                    "midi": 76,
                    "name": "E5",
                    "ticks": 40192,
                    "time": 130.833124,
                    "velocity": 0.8740157480314961,
                },
                {
                    "duration": 0.24739543749998916,
                    "durationTicks": 76,
                    "midi": 88,
                    "name": "E6",
                    "ticks": 40192,
                    "time": 130.833124,
                    "velocity": 0.8740157480314961,
                },
                {
                    "duration": 0.24739543749998916,
                    "durationTicks": 76,
                    "midi": 78,
                    "name": "F#5",
                    "ticks": 40320,
                    "time": 131.24979,
                    "velocity": 0.968503937007874,
                },
                {
                    "duration": 0.24739543749998916,
                    "durationTicks": 76,
                    "midi": 90,
                    "name": "F#6",
                    "ticks": 40320,
                    "time": 131.24979,
                    "velocity": 0.968503937007874,
                },
                {
                    "duration": 0.49804607812501445,
                    "durationTicks": 153,
                    "midi": 79,
                    "name": "G5",
                    "ticks": 40448,
                    "time": 131.66645599999998,
                    "velocity": 0.9448818897637795,
                },
                {
                    "duration": 0.49804607812501445,
                    "durationTicks": 153,
                    "midi": 91,
                    "name": "G6",
                    "ticks": 40448,
                    "time": 131.66645599999998,
                    "velocity": 0.9448818897637795,
                },
                {
                    "duration": 0.4720044531249812,
                    "durationTicks": 145,
                    "midi": 79,
                    "name": "G5",
                    "ticks": 40704,
                    "time": 132.499788,
                    "velocity": 0.8661417322834646,
                },
                {
                    "duration": 0.4720044531249812,
                    "durationTicks": 145,
                    "midi": 91,
                    "name": "G6",
                    "ticks": 40704,
                    "time": 132.499788,
                    "velocity": 0.8661417322834646,
                },
                {
                    "duration": 0.8333320000000128,
                    "durationTicks": 256,
                    "midi": 79,
                    "name": "G5",
                    "ticks": 40960,
                    "time": 133.33311999999998,
                    "velocity": 0.8976377952755905,
                },
                {
                    "duration": 0.8333320000000128,
                    "durationTicks": 256,
                    "midi": 91,
                    "name": "G6",
                    "ticks": 40960,
                    "time": 133.33311999999998,
                    "velocity": 0.8976377952755905,
                },
                {
                    "duration": 0.24739543749998916,
                    "durationTicks": 76,
                    "midi": 79,
                    "name": "G5",
                    "ticks": 41216,
                    "time": 134.166452,
                    "velocity": 0.8818897637795275,
                },
                {
                    "duration": 0.24739543749998916,
                    "durationTicks": 76,
                    "midi": 91,
                    "name": "G6",
                    "ticks": 41216,
                    "time": 134.166452,
                    "velocity": 0.8818897637795275,
                },
                {
                    "duration": 0.24739543750001758,
                    "durationTicks": 76,
                    "midi": 79,
                    "name": "G5",
                    "ticks": 41344,
                    "time": 134.58311799999998,
                    "velocity": 0.8818897637795275,
                },
                {
                    "duration": 0.24739543750001758,
                    "durationTicks": 76,
                    "midi": 91,
                    "name": "G6",
                    "ticks": 41344,
                    "time": 134.58311799999998,
                    "velocity": 0.8818897637795275,
                },
                {
                    "duration": 0.8333320000000128,
                    "durationTicks": 256,
                    "midi": 79,
                    "name": "G5",
                    "ticks": 41472,
                    "time": 134.99978399999998,
                    "velocity": 0.8661417322834646,
                },
                {
                    "duration": 0.8333320000000128,
                    "durationTicks": 256,
                    "midi": 91,
                    "name": "G6",
                    "ticks": 41472,
                    "time": 134.99978399999998,
                    "velocity": 0.8661417322834646,
                },
                {
                    "duration": 0.8333319999999844,
                    "durationTicks": 256,
                    "midi": 79,
                    "name": "G5",
                    "ticks": 41984,
                    "time": 136.666448,
                    "velocity": 0.7874015748031497,
                },
                {
                    "duration": 0.4166659999999922,
                    "durationTicks": 128,
                    "midi": 79,
                    "name": "G5",
                    "ticks": 42240,
                    "time": 137.49978,
                    "velocity": 0.8740157480314961,
                },
                {
                    "duration": 0.41666600000002063,
                    "durationTicks": 128,
                    "midi": 81,
                    "name": "A5",
                    "ticks": 42368,
                    "time": 137.91644599999998,
                    "velocity": 0.905511811023622,
                },
                {
                    "duration": 0.498046078124986,
                    "durationTicks": 153,
                    "midi": 83,
                    "name": "B5",
                    "ticks": 42496,
                    "time": 138.333112,
                    "velocity": 0.937007874015748,
                },
                {
                    "duration": 0.44596282812500476,
                    "durationTicks": 137,
                    "midi": 83,
                    "name": "B5",
                    "ticks": 42752,
                    "time": 139.16644399999998,
                    "velocity": 0.8818897637795275,
                },
                {
                    "duration": 0.8333319999999844,
                    "durationTicks": 256,
                    "midi": 78,
                    "name": "F#5",
                    "ticks": 43008,
                    "time": 139.999776,
                    "velocity": 1,
                },
                {
                    "duration": 0.8333319999999844,
                    "durationTicks": 256,
                    "midi": 90,
                    "name": "F#6",
                    "ticks": 43008,
                    "time": 139.999776,
                    "velocity": 1,
                },
                {
                    "duration": 0.24739543750001758,
                    "durationTicks": 76,
                    "midi": 78,
                    "name": "F#5",
                    "ticks": 43264,
                    "time": 140.83310799999998,
                    "velocity": 0.8976377952755905,
                },
                {
                    "duration": 0.24739543750001758,
                    "durationTicks": 76,
                    "midi": 90,
                    "name": "F#6",
                    "ticks": 43264,
                    "time": 140.83310799999998,
                    "velocity": 0.8976377952755905,
                },
                {
                    "duration": 0.24739543749998916,
                    "durationTicks": 76,
                    "midi": 80,
                    "name": "G#5",
                    "ticks": 43392,
                    "time": 141.249774,
                    "velocity": 0.9212598425196851,
                },
                {
                    "duration": 0.24739543749998916,
                    "durationTicks": 76,
                    "midi": 92,
                    "name": "G#6",
                    "ticks": 43392,
                    "time": 141.249774,
                    "velocity": 0.9212598425196851,
                },
                {
                    "duration": 0.498046078124986,
                    "durationTicks": 153,
                    "midi": 81,
                    "name": "A5",
                    "ticks": 43520,
                    "time": 141.66644,
                    "velocity": 0.9212598425196851,
                },
                {
                    "duration": 0.498046078124986,
                    "durationTicks": 153,
                    "midi": 93,
                    "name": "A6",
                    "ticks": 43520,
                    "time": 141.66644,
                    "velocity": 0.9212598425196851,
                },
                {
                    "duration": 0.4720044531250096,
                    "durationTicks": 145,
                    "midi": 81,
                    "name": "A5",
                    "ticks": 43776,
                    "time": 142.49977199999998,
                    "velocity": 0.8818897637795275,
                },
                {
                    "duration": 0.4720044531250096,
                    "durationTicks": 145,
                    "midi": 93,
                    "name": "A6",
                    "ticks": 43776,
                    "time": 142.49977199999998,
                    "velocity": 0.8818897637795275,
                },
                {
                    "duration": 0.8333319999999844,
                    "durationTicks": 256,
                    "midi": 76,
                    "name": "E5",
                    "ticks": 44032,
                    "time": 143.333104,
                    "velocity": 0.7874015748031497,
                },
                {
                    "duration": 0.8333319999999844,
                    "durationTicks": 256,
                    "midi": 88,
                    "name": "E6",
                    "ticks": 44032,
                    "time": 143.333104,
                    "velocity": 0.7874015748031497,
                },
                {
                    "duration": 0.24739543750001758,
                    "durationTicks": 76,
                    "midi": 76,
                    "name": "E5",
                    "ticks": 44288,
                    "time": 144.16643599999998,
                    "velocity": 0.84251968503937,
                },
                {
                    "duration": 0.24739543750001758,
                    "durationTicks": 76,
                    "midi": 88,
                    "name": "E6",
                    "ticks": 44288,
                    "time": 144.16643599999998,
                    "velocity": 0.84251968503937,
                },
                {
                    "duration": 0.24739543749998916,
                    "durationTicks": 76,
                    "midi": 76,
                    "name": "E5",
                    "ticks": 44416,
                    "time": 144.583102,
                    "velocity": 0.8661417322834646,
                },
                {
                    "duration": 0.24739543749998916,
                    "durationTicks": 76,
                    "midi": 88,
                    "name": "E6",
                    "ticks": 44416,
                    "time": 144.583102,
                    "velocity": 0.8661417322834646,
                },
                {
                    "duration": 0.498046078124986,
                    "durationTicks": 153,
                    "midi": 76,
                    "name": "E5",
                    "ticks": 44544,
                    "time": 144.999768,
                    "velocity": 0.889763779527559,
                },
                {
                    "duration": 0.498046078124986,
                    "durationTicks": 153,
                    "midi": 88,
                    "name": "E6",
                    "ticks": 44544,
                    "time": 144.999768,
                    "velocity": 0.889763779527559,
                },
                {
                    "duration": 0.4720044531249812,
                    "durationTicks": 145,
                    "midi": 76,
                    "name": "E5",
                    "ticks": 44800,
                    "time": 145.8331,
                    "velocity": 0.9291338582677166,
                },
                {
                    "duration": 0.4720044531249812,
                    "durationTicks": 145,
                    "midi": 88,
                    "name": "E6",
                    "ticks": 44800,
                    "time": 145.8331,
                    "velocity": 0.9291338582677166,
                },
                {
                    "duration": 0.8333320000000128,
                    "durationTicks": 256,
                    "midi": 76,
                    "name": "E5",
                    "ticks": 45056,
                    "time": 146.666432,
                    "velocity": 0.9133858267716536,
                },
                {
                    "duration": 0.8333320000000128,
                    "durationTicks": 256,
                    "midi": 88,
                    "name": "E6",
                    "ticks": 45056,
                    "time": 146.666432,
                    "velocity": 0.9133858267716536,
                },
                {
                    "duration": 0.24739543749998916,
                    "durationTicks": 76,
                    "midi": 78,
                    "name": "F#5",
                    "ticks": 45312,
                    "time": 147.499764,
                    "velocity": 0.952755905511811,
                },
                {
                    "duration": 0.24739543749998916,
                    "durationTicks": 76,
                    "midi": 90,
                    "name": "F#6",
                    "ticks": 45312,
                    "time": 147.499764,
                    "velocity": 0.952755905511811,
                },
                {
                    "duration": 0.24739543749998916,
                    "durationTicks": 76,
                    "midi": 80,
                    "name": "G#5",
                    "ticks": 45440,
                    "time": 147.91643,
                    "velocity": 0.952755905511811,
                },
                {
                    "duration": 0.24739543749998916,
                    "durationTicks": 76,
                    "midi": 92,
                    "name": "G#6",
                    "ticks": 45440,
                    "time": 147.91643,
                    "velocity": 0.952755905511811,
                },
                {
                    "duration": 0.8333320000000128,
                    "durationTicks": 256,
                    "midi": 81,
                    "name": "A5",
                    "ticks": 45568,
                    "time": 148.33309599999998,
                    "velocity": 0.952755905511811,
                },
                {
                    "duration": 0.8333320000000128,
                    "durationTicks": 256,
                    "midi": 93,
                    "name": "A6",
                    "ticks": 45568,
                    "time": 148.33309599999998,
                    "velocity": 0.952755905511811,
                },
                {
                    "duration": 0.8333320000000128,
                    "durationTicks": 256,
                    "midi": 78,
                    "name": "F#5",
                    "ticks": 47104,
                    "time": 153.33308799999998,
                    "velocity": 0.7322834645669292,
                },
                {
                    "duration": 0.8333320000000128,
                    "durationTicks": 256,
                    "midi": 90,
                    "name": "F#6",
                    "ticks": 47104,
                    "time": 153.33308799999998,
                    "velocity": 0.7322834645669292,
                },
                {
                    "duration": 0.24739543749998916,
                    "durationTicks": 76,
                    "midi": 78,
                    "name": "F#5",
                    "ticks": 47360,
                    "time": 154.16642,
                    "velocity": 0.7637795275590551,
                },
                {
                    "duration": 0.24739543749998916,
                    "durationTicks": 76,
                    "midi": 90,
                    "name": "F#6",
                    "ticks": 47360,
                    "time": 154.16642,
                    "velocity": 0.7637795275590551,
                },
                {
                    "duration": 0.24739543750001758,
                    "durationTicks": 76,
                    "midi": 80,
                    "name": "G#5",
                    "ticks": 47488,
                    "time": 154.58308599999998,
                    "velocity": 0.7637795275590551,
                },
                {
                    "duration": 0.24739543750001758,
                    "durationTicks": 76,
                    "midi": 92,
                    "name": "G#6",
                    "ticks": 47488,
                    "time": 154.58308599999998,
                    "velocity": 0.7637795275590551,
                },
                {
                    "duration": 0.498046078124986,
                    "durationTicks": 153,
                    "midi": 81,
                    "name": "A5",
                    "ticks": 47616,
                    "time": 154.999752,
                    "velocity": 0.7244094488188977,
                },
                {
                    "duration": 0.498046078124986,
                    "durationTicks": 153,
                    "midi": 93,
                    "name": "A6",
                    "ticks": 47616,
                    "time": 154.999752,
                    "velocity": 0.7244094488188977,
                },
                {
                    "duration": 0.4720044531250096,
                    "durationTicks": 145,
                    "midi": 81,
                    "name": "A5",
                    "ticks": 47872,
                    "time": 155.83308399999999,
                    "velocity": 0.6062992125984252,
                },
                {
                    "duration": 0.4720044531250096,
                    "durationTicks": 145,
                    "midi": 93,
                    "name": "A6",
                    "ticks": 47872,
                    "time": 155.83308399999999,
                    "velocity": 0.6062992125984252,
                },
                {
                    "duration": 0.8333319999999844,
                    "durationTicks": 256,
                    "midi": 76,
                    "name": "E5",
                    "ticks": 48128,
                    "time": 156.666416,
                    "velocity": 0.4015748031496063,
                },
                {
                    "duration": 0.8333319999999844,
                    "durationTicks": 256,
                    "midi": 88,
                    "name": "E6",
                    "ticks": 48128,
                    "time": 156.666416,
                    "velocity": 0.4015748031496063,
                },
                {
                    "duration": 0.24739543750001758,
                    "durationTicks": 76,
                    "midi": 76,
                    "name": "E5",
                    "ticks": 48384,
                    "time": 157.49974799999998,
                    "velocity": 0.4645669291338583,
                },
                {
                    "duration": 0.24739543750001758,
                    "durationTicks": 76,
                    "midi": 88,
                    "name": "E6",
                    "ticks": 48384,
                    "time": 157.49974799999998,
                    "velocity": 0.4645669291338583,
                },
                {
                    "duration": 0.24739543750001758,
                    "durationTicks": 76,
                    "midi": 76,
                    "name": "E5",
                    "ticks": 48512,
                    "time": 157.91641399999997,
                    "velocity": 0.4409448818897638,
                },
                {
                    "duration": 0.24739543750001758,
                    "durationTicks": 76,
                    "midi": 88,
                    "name": "E6",
                    "ticks": 48512,
                    "time": 157.91641399999997,
                    "velocity": 0.4409448818897638,
                },
                {
                    "duration": 0.498046078124986,
                    "durationTicks": 153,
                    "midi": 76,
                    "name": "E5",
                    "ticks": 48640,
                    "time": 158.33308,
                    "velocity": 0.4251968503937008,
                },
                {
                    "duration": 0.498046078124986,
                    "durationTicks": 153,
                    "midi": 88,
                    "name": "E6",
                    "ticks": 48640,
                    "time": 158.33308,
                    "velocity": 0.4251968503937008,
                },
                {
                    "duration": 0.4720044531250096,
                    "durationTicks": 145,
                    "midi": 76,
                    "name": "E5",
                    "ticks": 48896,
                    "time": 159.16641199999998,
                    "velocity": 0.4251968503937008,
                },
                {
                    "duration": 0.4720044531250096,
                    "durationTicks": 145,
                    "midi": 88,
                    "name": "E6",
                    "ticks": 48896,
                    "time": 159.16641199999998,
                    "velocity": 0.4251968503937008,
                },
                {
                    "duration": 0.8333319999999844,
                    "durationTicks": 256,
                    "midi": 76,
                    "name": "E5",
                    "ticks": 49152,
                    "time": 159.999744,
                    "velocity": 0.4409448818897638,
                },
                {
                    "duration": 0.8333319999999844,
                    "durationTicks": 256,
                    "midi": 88,
                    "name": "E6",
                    "ticks": 49152,
                    "time": 159.999744,
                    "velocity": 0.4409448818897638,
                },
                {
                    "duration": 0.24739543750001758,
                    "durationTicks": 76,
                    "midi": 78,
                    "name": "F#5",
                    "ticks": 49408,
                    "time": 160.83307599999998,
                    "velocity": 0.4251968503937008,
                },
                {
                    "duration": 0.24739543750001758,
                    "durationTicks": 76,
                    "midi": 90,
                    "name": "F#6",
                    "ticks": 49408,
                    "time": 160.83307599999998,
                    "velocity": 0.4251968503937008,
                },
                {
                    "duration": 0.24739543749998916,
                    "durationTicks": 76,
                    "midi": 80,
                    "name": "G#5",
                    "ticks": 49536,
                    "time": 161.249742,
                    "velocity": 0.3937007874015748,
                },
                {
                    "duration": 0.24739543749998916,
                    "durationTicks": 76,
                    "midi": 92,
                    "name": "G#6",
                    "ticks": 49536,
                    "time": 161.249742,
                    "velocity": 0.3937007874015748,
                },
                {
                    "duration": 0.8333319999999844,
                    "durationTicks": 256,
                    "midi": 81,
                    "name": "A5",
                    "ticks": 49664,
                    "time": 161.666408,
                    "velocity": 0.3779527559055118,
                },
                {
                    "duration": 0.8333319999999844,
                    "durationTicks": 256,
                    "midi": 93,
                    "name": "A6",
                    "ticks": 49664,
                    "time": 161.666408,
                    "velocity": 0.3779527559055118,
                },
                {
                    "duration": 3.3333279999999945,
                    "durationTicks": 1024,
                    "midi": 88,
                    "name": "E6",
                    "ticks": 56064,
                    "time": 182.499708,
                    "velocity": 0.33858267716535434,
                },
                {
                    "duration": 3.3333279999999945,
                    "durationTicks": 1024,
                    "midi": 91,
                    "name": "G6",
                    "ticks": 56064,
                    "time": 182.499708,
                    "velocity": 0.33858267716535434,
                },
                {
                    "duration": 1.699216031249989,
                    "durationTicks": 522,
                    "midi": 86,
                    "name": "D6",
                    "ticks": 57088,
                    "time": 185.833036,
                    "velocity": 0.5826771653543307,
                },
                {
                    "duration": 1.699216031249989,
                    "durationTicks": 522,
                    "midi": 90,
                    "name": "F#6",
                    "ticks": 57088,
                    "time": 185.833036,
                    "velocity": 0.5826771653543307,
                },
                {
                    "duration": 0.7910143593749979,
                    "durationTicks": 243,
                    "midi": 85,
                    "name": "C#6",
                    "ticks": 57600,
                    "time": 187.4997,
                    "velocity": 0.44881889763779526,
                },
                {
                    "duration": 0.7910143593749979,
                    "durationTicks": 243,
                    "midi": 88,
                    "name": "E6",
                    "ticks": 57600,
                    "time": 187.4997,
                    "velocity": 0.44881889763779526,
                },
                {
                    "duration": 0.849608015625023,
                    "durationTicks": 261,
                    "midi": 83,
                    "name": "B5",
                    "ticks": 57856,
                    "time": 188.33303199999997,
                    "velocity": 0.41732283464566927,
                },
                {
                    "duration": 0.849608015625023,
                    "durationTicks": 261,
                    "midi": 86,
                    "name": "D6",
                    "ticks": 57856,
                    "time": 188.33303199999997,
                    "velocity": 0.41732283464566927,
                },
                {
                    "duration": 0.8496080156249946,
                    "durationTicks": 261,
                    "midi": 81,
                    "name": "A5",
                    "ticks": 58112,
                    "time": 189.166364,
                    "velocity": 0.4251968503937008,
                },
                {
                    "duration": 0.8496080156249946,
                    "durationTicks": 261,
                    "midi": 85,
                    "name": "C#6",
                    "ticks": 58112,
                    "time": 189.166364,
                    "velocity": 0.4251968503937008,
                },
                {
                    "duration": 0.849608015625023,
                    "durationTicks": 261,
                    "midi": 80,
                    "name": "G#5",
                    "ticks": 58368,
                    "time": 189.99969599999997,
                    "velocity": 0.3858267716535433,
                },
                {
                    "duration": 0.849608015625023,
                    "durationTicks": 261,
                    "midi": 83,
                    "name": "B5",
                    "ticks": 58368,
                    "time": 189.99969599999997,
                    "velocity": 0.3858267716535433,
                },
                {
                    "duration": 0.8496080156249946,
                    "durationTicks": 261,
                    "midi": 78,
                    "name": "F#5",
                    "ticks": 58624,
                    "time": 190.83302799999998,
                    "velocity": 0.4251968503937008,
                },
                {
                    "duration": 0.8496080156249946,
                    "durationTicks": 261,
                    "midi": 87,
                    "name": "D#6",
                    "ticks": 58624,
                    "time": 190.83302799999998,
                    "velocity": 0.4251968503937008,
                },
                {
                    "duration": 0.7910143593749979,
                    "durationTicks": 243,
                    "midi": 76,
                    "name": "E5",
                    "ticks": 58880,
                    "time": 191.66636,
                    "velocity": 0.4251968503937008,
                },
                {
                    "duration": 0.7910143593749979,
                    "durationTicks": 243,
                    "midi": 88,
                    "name": "E6",
                    "ticks": 58880,
                    "time": 191.66636,
                    "velocity": 0.4251968503937008,
                },
                {
                    "duration": 1.943356265624999,
                    "durationTicks": 597,
                    "midi": 88,
                    "name": "E6",
                    "ticks": 68608,
                    "time": 223.33297599999997,
                    "velocity": 0.7874015748031497,
                },
                {
                    "duration": 0.2799474687500094,
                    "durationTicks": 86,
                    "midi": 89,
                    "name": "F6",
                    "ticks": 69205,
                    "time": 225.27633226562497,
                    "velocity": 0.7559055118110236,
                },
                {
                    "duration": 0.28320267187501713,
                    "durationTicks": 87,
                    "midi": 88,
                    "name": "E6",
                    "ticks": 69290,
                    "time": 225.55302453124997,
                    "velocity": 0.7165354330708661,
                },
                {
                    "duration": 0.2799474687500094,
                    "durationTicks": 86,
                    "midi": 91,
                    "name": "G6",
                    "ticks": 69376,
                    "time": 225.83297199999998,
                    "velocity": 0.7559055118110236,
                },
                {
                    "duration": 0.2799474687500094,
                    "durationTicks": 86,
                    "midi": 89,
                    "name": "F6",
                    "ticks": 69461,
                    "time": 226.10966426562499,
                    "velocity": 0.6062992125984252,
                },
                {
                    "duration": 0.2636714531249993,
                    "durationTicks": 81,
                    "midi": 81,
                    "name": "A5",
                    "ticks": 69546,
                    "time": 226.38635653125,
                    "velocity": 0.5433070866141733,
                },
                {
                    "duration": 0.8496080156249946,
                    "durationTicks": 261,
                    "midi": 84,
                    "name": "C6",
                    "ticks": 69632,
                    "time": 226.666304,
                    "velocity": 0.3937007874015748,
                },
                {
                    "duration": 0.42317640625000763,
                    "durationTicks": 130,
                    "midi": 88,
                    "name": "E6",
                    "ticks": 69888,
                    "time": 227.49963599999998,
                    "velocity": 0.7165354330708661,
                },
                {
                    "duration": 0.3938795781250235,
                    "durationTicks": 121,
                    "midi": 86,
                    "name": "D6",
                    "ticks": 70016,
                    "time": 227.91630199999997,
                    "velocity": 0.6535433070866141,
                },
                {
                    "duration": 0.8333319999999844,
                    "durationTicks": 256,
                    "midi": 84,
                    "name": "C6",
                    "ticks": 70144,
                    "time": 228.332968,
                    "velocity": 0.5826771653543307,
                },
                {
                    "duration": 1.249998000000005,
                    "durationTicks": 384,
                    "midi": 89,
                    "name": "F6",
                    "ticks": 70656,
                    "time": 229.999632,
                    "velocity": 0.5748031496062992,
                },
                {
                    "duration": 0.4166659999999922,
                    "durationTicks": 128,
                    "midi": 89,
                    "name": "F6",
                    "ticks": 71040,
                    "time": 231.24963,
                    "velocity": 0.6299212598425197,
                },
                {
                    "duration": 0.2799474687500094,
                    "durationTicks": 86,
                    "midi": 89,
                    "name": "F6",
                    "ticks": 71168,
                    "time": 231.666296,
                    "velocity": 0.6299212598425197,
                },
                {
                    "duration": 0.2604162499999916,
                    "durationTicks": 80,
                    "midi": 88,
                    "name": "E6",
                    "ticks": 71253,
                    "time": 231.942988265625,
                    "velocity": 0.5826771653543307,
                },
                {
                    "duration": 0.16601535937499534,
                    "durationTicks": 51,
                    "midi": 86,
                    "name": "D6",
                    "ticks": 71338,
                    "time": 232.21968053125,
                    "velocity": 0.5984251968503937,
                },
                {
                    "duration": 0.16601535937502376,
                    "durationTicks": 51,
                    "midi": 84,
                    "name": "C6",
                    "ticks": 71424,
                    "time": 232.49962799999997,
                    "velocity": 0.5826771653543307,
                },
                {
                    "duration": 0.16601535937499534,
                    "durationTicks": 51,
                    "midi": 83,
                    "name": "B5",
                    "ticks": 71509,
                    "time": 232.77632026562497,
                    "velocity": 0.5905511811023622,
                },
                {
                    "duration": 0.16601535937499534,
                    "durationTicks": 51,
                    "midi": 81,
                    "name": "A5",
                    "ticks": 71594,
                    "time": 233.05301253124998,
                    "velocity": 0.5826771653543307,
                },
                {
                    "duration": 0.8496080156249946,
                    "durationTicks": 261,
                    "midi": 79,
                    "name": "G5",
                    "ticks": 71680,
                    "time": 233.33295999999999,
                    "velocity": 0.5905511811023622,
                },
                {
                    "duration": 0.3938795781250235,
                    "durationTicks": 121,
                    "midi": 81,
                    "name": "A5",
                    "ticks": 71936,
                    "time": 234.16629199999997,
                    "velocity": 0.6141732283464567,
                },
                {
                    "duration": 0.24739543749998916,
                    "durationTicks": 76,
                    "midi": 83,
                    "name": "B5",
                    "ticks": 72064,
                    "time": 234.582958,
                    "velocity": 0.6299212598425197,
                },
                {
                    "duration": 1.1100242656250146,
                    "durationTicks": 341,
                    "midi": 84,
                    "name": "C6",
                    "ticks": 72192,
                    "time": 234.99962399999998,
                    "velocity": 0.6299212598425197,
                },
                {
                    "duration": 0.279947468749981,
                    "durationTicks": 86,
                    "midi": 86,
                    "name": "D6",
                    "ticks": 72533,
                    "time": 236.109648265625,
                    "velocity": 0.6614173228346457,
                },
                {
                    "duration": 0.2636714531249993,
                    "durationTicks": 81,
                    "midi": 88,
                    "name": "E6",
                    "ticks": 72618,
                    "time": 236.38634053124997,
                    "velocity": 0.7322834645669292,
                },
                {
                    "duration": 1.249998000000005,
                    "durationTicks": 384,
                    "midi": 89,
                    "name": "F6",
                    "ticks": 72704,
                    "time": 236.66628799999998,
                    "velocity": 0.7086614173228346,
                },
                {
                    "duration": 0.4166659999999922,
                    "durationTicks": 128,
                    "midi": 89,
                    "name": "F6",
                    "ticks": 73088,
                    "time": 237.91628599999999,
                    "velocity": 0.6771653543307087,
                },
                {
                    "duration": 0.16601535937499534,
                    "durationTicks": 51,
                    "midi": 89,
                    "name": "F6",
                    "ticks": 73216,
                    "time": 238.33295199999998,
                    "velocity": 0.7401574803149606,
                },
                {
                    "duration": 0.16601535937499534,
                    "durationTicks": 51,
                    "midi": 88,
                    "name": "E6",
                    "ticks": 73301,
                    "time": 238.60964426562498,
                    "velocity": 0.6929133858267716,
                },
                {
                    "duration": 0.16601535937499534,
                    "durationTicks": 51,
                    "midi": 86,
                    "name": "D6",
                    "ticks": 73386,
                    "time": 238.88633653124998,
                    "velocity": 0.6850393700787402,
                },
                {
                    "duration": 0.16601535937499534,
                    "durationTicks": 51,
                    "midi": 84,
                    "name": "C6",
                    "ticks": 73472,
                    "time": 239.166284,
                    "velocity": 0.8031496062992126,
                },
                {
                    "duration": 0.16601535937499534,
                    "durationTicks": 51,
                    "midi": 83,
                    "name": "B5",
                    "ticks": 73557,
                    "time": 239.442976265625,
                    "velocity": 0.7086614173228346,
                },
                {
                    "duration": 0.16601535937499534,
                    "durationTicks": 51,
                    "midi": 81,
                    "name": "A5",
                    "ticks": 73642,
                    "time": 239.71966853125,
                    "velocity": 0.6850393700787402,
                },
                {
                    "duration": 0.41666600000002063,
                    "durationTicks": 128,
                    "midi": 79,
                    "name": "G5",
                    "ticks": 73728,
                    "time": 239.99961599999997,
                    "velocity": 0.7244094488188977,
                },
                {
                    "duration": 0.24739543750001758,
                    "durationTicks": 76,
                    "midi": 76,
                    "name": "E5",
                    "ticks": 76032,
                    "time": 247.49960399999998,
                    "velocity": 0.8188976377952756,
                },
                {
                    "duration": 0.24739543750001758,
                    "durationTicks": 76,
                    "midi": 88,
                    "name": "E6",
                    "ticks": 76032,
                    "time": 247.49960399999998,
                    "velocity": 0.8188976377952756,
                },
                {
                    "duration": 0.24739543749998916,
                    "durationTicks": 76,
                    "midi": 76,
                    "name": "E5",
                    "ticks": 76160,
                    "time": 247.91627,
                    "velocity": 0.8661417322834646,
                },
                {
                    "duration": 0.24739543749998916,
                    "durationTicks": 76,
                    "midi": 88,
                    "name": "E6",
                    "ticks": 76160,
                    "time": 247.91627,
                    "velocity": 0.8661417322834646,
                },
                {
                    "duration": 1.699216031249989,
                    "durationTicks": 522,
                    "midi": 84,
                    "name": "C6",
                    "ticks": 76288,
                    "time": 248.332936,
                    "velocity": 0.3543307086614173,
                },
                {
                    "duration": 1.5527318906249832,
                    "durationTicks": 477,
                    "midi": 83,
                    "name": "B5",
                    "ticks": 76800,
                    "time": 249.9996,
                    "velocity": 0.3779527559055118,
                },
                {
                    "duration": 0.17903617187499776,
                    "durationTicks": 55,
                    "midi": 83,
                    "name": "B5",
                    "ticks": 77312,
                    "time": 251.66626399999998,
                    "velocity": 0.4251968503937008,
                },
                {
                    "duration": 0.17903617187499776,
                    "durationTicks": 55,
                    "midi": 84,
                    "name": "C6",
                    "ticks": 77367,
                    "time": 251.84530017187498,
                    "velocity": 0.4251968503937008,
                },
                {
                    "duration": 1.0514306093749894,
                    "durationTicks": 323,
                    "midi": 86,
                    "name": "D6",
                    "ticks": 77422,
                    "time": 252.02433634374998,
                    "velocity": 0.4251968503937008,
                },
                {
                    "duration": 0.2766922656250017,
                    "durationTicks": 85,
                    "midi": 84,
                    "name": "C6",
                    "ticks": 77653,
                    "time": 252.77628826562497,
                    "velocity": 0.3543307086614173,
                },
                {
                    "duration": 0.2799474687500094,
                    "durationTicks": 86,
                    "midi": 83,
                    "name": "B5",
                    "ticks": 77738,
                    "time": 253.05298053124997,
                    "velocity": 0.3543307086614173,
                },
                {
                    "duration": 0.42317640625000763,
                    "durationTicks": 130,
                    "midi": 83,
                    "name": "B5",
                    "ticks": 77824,
                    "time": 253.33292799999998,
                    "velocity": 0.4015748031496063,
                },
                {
                    "duration": 0.3938795781250235,
                    "durationTicks": 121,
                    "midi": 84,
                    "name": "C6",
                    "ticks": 77952,
                    "time": 253.74959399999997,
                    "velocity": 0.4330708661417323,
                },
                {
                    "duration": 0.8333319999999844,
                    "durationTicks": 256,
                    "midi": 84,
                    "name": "C6",
                    "ticks": 78080,
                    "time": 254.16626,
                    "velocity": 0.3937007874015748,
                },
                {
                    "duration": 1.2727844218750022,
                    "durationTicks": 391,
                    "midi": 84,
                    "name": "C6",
                    "ticks": 78336,
                    "time": 254.99959199999998,
                    "velocity": 0.4015748031496063,
                },
                {
                    "duration": 0.3938795781249951,
                    "durationTicks": 121,
                    "midi": 86,
                    "name": "D6",
                    "ticks": 78720,
                    "time": 256.24959,
                    "velocity": 0.4330708661417323,
                },
                {
                    "duration": 0.42317640625003605,
                    "durationTicks": 130,
                    "midi": 87,
                    "name": "D#6",
                    "ticks": 78848,
                    "time": 256.666256,
                    "velocity": 0.4094488188976378,
                },
                {
                    "duration": 0.3938795781249951,
                    "durationTicks": 121,
                    "midi": 88,
                    "name": "E6",
                    "ticks": 78976,
                    "time": 257.082922,
                    "velocity": 0.4251968503937008,
                },
                {
                    "duration": 0.24739543749996074,
                    "durationTicks": 76,
                    "midi": 88,
                    "name": "E6",
                    "ticks": 79104,
                    "time": 257.499588,
                    "velocity": 0.3858267716535433,
                },
                {
                    "duration": 0.24739543750001758,
                    "durationTicks": 76,
                    "midi": 88,
                    "name": "E6",
                    "ticks": 79232,
                    "time": 257.916254,
                    "velocity": 0.3464566929133858,
                },
                {
                    "duration": 0.17903617187499776,
                    "durationTicks": 55,
                    "midi": 86,
                    "name": "D6",
                    "ticks": 79360,
                    "time": 258.33292,
                    "velocity": 0.4094488188976378,
                },
                {
                    "duration": 0.17903617187499776,
                    "durationTicks": 55,
                    "midi": 88,
                    "name": "E6",
                    "ticks": 79415,
                    "time": 258.511956171875,
                    "velocity": 0.4094488188976378,
                },
                {
                    "duration": 1.051430609374961,
                    "durationTicks": 323,
                    "midi": 89,
                    "name": "F6",
                    "ticks": 79470,
                    "time": 258.69099234375,
                    "velocity": 0.4094488188976378,
                },
                {
                    "duration": 0.2766922656250017,
                    "durationTicks": 85,
                    "midi": 88,
                    "name": "E6",
                    "ticks": 79701,
                    "time": 259.442944265625,
                    "velocity": 0.3779527559055118,
                },
                {
                    "duration": 0.279947468749981,
                    "durationTicks": 86,
                    "midi": 86,
                    "name": "D6",
                    "ticks": 79786,
                    "time": 259.71963653125,
                    "velocity": 0.3543307086614173,
                },
                {
                    "duration": 0.42317640625003605,
                    "durationTicks": 130,
                    "midi": 86,
                    "name": "D6",
                    "ticks": 79872,
                    "time": 259.99958399999997,
                    "velocity": 0.3858267716535433,
                },
                {
                    "duration": 0.3938795781249951,
                    "durationTicks": 121,
                    "midi": 88,
                    "name": "E6",
                    "ticks": 80000,
                    "time": 260.41625,
                    "velocity": 0.3543307086614173,
                },
                {
                    "duration": 0.8333320000000413,
                    "durationTicks": 256,
                    "midi": 88,
                    "name": "E6",
                    "ticks": 80128,
                    "time": 260.83291599999995,
                    "velocity": 0.3858267716535433,
                },
                {
                    "duration": 1.2727844218749738,
                    "durationTicks": 391,
                    "midi": 88,
                    "name": "E6",
                    "ticks": 80384,
                    "time": 261.666248,
                    "velocity": 0.3779527559055118,
                },
                {
                    "duration": 0.4231764062499792,
                    "durationTicks": 130,
                    "midi": 90,
                    "name": "F#6",
                    "ticks": 80768,
                    "time": 262.916246,
                    "velocity": 0.3937007874015748,
                },
                {
                    "duration": 0.8496080156249946,
                    "durationTicks": 261,
                    "midi": 88,
                    "name": "E6",
                    "ticks": 80896,
                    "time": 263.33291199999996,
                    "velocity": 0.4330708661417323,
                },
                {
                    "duration": 0.3938795781249951,
                    "durationTicks": 121,
                    "midi": 87,
                    "name": "D#6",
                    "ticks": 81152,
                    "time": 264.166244,
                    "velocity": 0.4015748031496063,
                },
                {
                    "duration": 1.2727844218749738,
                    "durationTicks": 391,
                    "midi": 86,
                    "name": "D6",
                    "ticks": 81408,
                    "time": 264.999576,
                    "velocity": 0.31496062992125984,
                },
                {
                    "duration": 0.4231764062499792,
                    "durationTicks": 130,
                    "midi": 88,
                    "name": "E6",
                    "ticks": 81792,
                    "time": 266.249574,
                    "velocity": 0.3464566929133858,
                },
                {
                    "duration": 0.42317640625003605,
                    "durationTicks": 130,
                    "midi": 86,
                    "name": "D6",
                    "ticks": 81920,
                    "time": 266.66623999999996,
                    "velocity": 0.3779527559055118,
                },
                {
                    "duration": 0.4231764062499792,
                    "durationTicks": 130,
                    "midi": 85,
                    "name": "C#6",
                    "ticks": 82048,
                    "time": 267.082906,
                    "velocity": 0.3543307086614173,
                },
                {
                    "duration": 0.3938795781249951,
                    "durationTicks": 121,
                    "midi": 84,
                    "name": "C6",
                    "ticks": 82176,
                    "time": 267.499572,
                    "velocity": 0.33070866141732286,
                },
                {
                    "duration": 1.699216031249989,
                    "durationTicks": 522,
                    "midi": 84,
                    "name": "C6",
                    "ticks": 82432,
                    "time": 268.332904,
                    "velocity": 0.33070866141732286,
                },
                {
                    "duration": 0.8496080156249946,
                    "durationTicks": 261,
                    "midi": 83,
                    "name": "B5",
                    "ticks": 82944,
                    "time": 269.999568,
                    "velocity": 0.33070866141732286,
                },
                {
                    "duration": 0.7193998906249703,
                    "durationTicks": 221,
                    "midi": 84,
                    "name": "C6",
                    "ticks": 83200,
                    "time": 270.8329,
                    "velocity": 0.4251968503937008,
                },
                {
                    "duration": 0.17903617187499776,
                    "durationTicks": 55,
                    "midi": 83,
                    "name": "B5",
                    "ticks": 83456,
                    "time": 271.666232,
                    "velocity": 0.3543307086614173,
                },
                {
                    "duration": 0.17903617187499776,
                    "durationTicks": 55,
                    "midi": 84,
                    "name": "C6",
                    "ticks": 83511,
                    "time": 271.845268171875,
                    "velocity": 0.3543307086614173,
                },
                {
                    "duration": 1.0514306093750179,
                    "durationTicks": 323,
                    "midi": 86,
                    "name": "D6",
                    "ticks": 83566,
                    "time": 272.02430434375,
                    "velocity": 0.3543307086614173,
                },
                {
                    "duration": 0.2766922656250017,
                    "durationTicks": 85,
                    "midi": 84,
                    "name": "C6",
                    "ticks": 83797,
                    "time": 272.77625626562497,
                    "velocity": 0.3543307086614173,
                },
                {
                    "duration": 0.27994746875003784,
                    "durationTicks": 86,
                    "midi": 83,
                    "name": "B5",
                    "ticks": 83882,
                    "time": 273.05294853124997,
                    "velocity": 0.3228346456692913,
                },
                {
                    "duration": 0.16601535937496692,
                    "durationTicks": 51,
                    "midi": 81,
                    "name": "A5",
                    "ticks": 83968,
                    "time": 273.332896,
                    "velocity": 0.3779527559055118,
                },
                {
                    "duration": 0.279947468749981,
                    "durationTicks": 86,
                    "midi": 81,
                    "name": "A5",
                    "ticks": 84053,
                    "time": 273.609588265625,
                    "velocity": 0.3700787401574803,
                },
                {
                    "duration": 0.26367145312497087,
                    "durationTicks": 81,
                    "midi": 83,
                    "name": "B5",
                    "ticks": 84138,
                    "time": 273.88628053125,
                    "velocity": 0.3700787401574803,
                },
                {
                    "duration": 0.16601535937496692,
                    "durationTicks": 51,
                    "midi": 84,
                    "name": "C6",
                    "ticks": 84224,
                    "time": 274.166228,
                    "velocity": 0.4251968503937008,
                },
                {
                    "duration": 0.279947468749981,
                    "durationTicks": 86,
                    "midi": 84,
                    "name": "C6",
                    "ticks": 84309,
                    "time": 274.442920265625,
                    "velocity": 0.3779527559055118,
                },
                {
                    "duration": 0.28320267187501713,
                    "durationTicks": 87,
                    "midi": 86,
                    "name": "D6",
                    "ticks": 84394,
                    "time": 274.71961253125,
                    "velocity": 0.3779527559055118,
                },
                {
                    "duration": 1.20768035937499,
                    "durationTicks": 371,
                    "midi": 88,
                    "name": "E6",
                    "ticks": 84480,
                    "time": 274.99956,
                    "velocity": 0.4094488188976378,
                },
                {
                    "duration": 0.4231764062499792,
                    "durationTicks": 130,
                    "midi": 90,
                    "name": "F#6",
                    "ticks": 84864,
                    "time": 276.249558,
                    "velocity": 0.3779527559055118,
                },
                {
                    "duration": 0.8496080156249946,
                    "durationTicks": 261,
                    "midi": 88,
                    "name": "E6",
                    "ticks": 84992,
                    "time": 276.666224,
                    "velocity": 0.3543307086614173,
                },
                {
                    "duration": 0.3938795781249951,
                    "durationTicks": 121,
                    "midi": 87,
                    "name": "D#6",
                    "ticks": 85248,
                    "time": 277.499556,
                    "velocity": 0.3228346456692913,
                },
                {
                    "duration": 0.27994746875003784,
                    "durationTicks": 86,
                    "midi": 86,
                    "name": "D6",
                    "ticks": 85504,
                    "time": 278.33288799999997,
                    "velocity": 0.33070866141732286,
                },
                {
                    "duration": 0.27994746875003784,
                    "durationTicks": 86,
                    "midi": 83,
                    "name": "B5",
                    "ticks": 85589,
                    "time": 278.60958026562497,
                    "velocity": 0.2992125984251969,
                },
                {
                    "duration": 0.28320267187501713,
                    "durationTicks": 87,
                    "midi": 85,
                    "name": "C#6",
                    "ticks": 85674,
                    "time": 278.88627253125,
                    "velocity": 0.41732283464566927,
                },
                {
                    "duration": 0.279947468749981,
                    "durationTicks": 86,
                    "midi": 86,
                    "name": "D6",
                    "ticks": 85760,
                    "time": 279.16622,
                    "velocity": 0.44881889763779526,
                },
                {
                    "duration": 0.27994746875003784,
                    "durationTicks": 86,
                    "midi": 88,
                    "name": "E6",
                    "ticks": 85845,
                    "time": 279.44291226562495,
                    "velocity": 0.3779527559055118,
                },
                {
                    "duration": 0.2636714531250277,
                    "durationTicks": 81,
                    "midi": 86,
                    "name": "D6",
                    "ticks": 85930,
                    "time": 279.71960453124996,
                    "velocity": 0.3464566929133858,
                },
                {
                    "duration": 0.4231764062499792,
                    "durationTicks": 130,
                    "midi": 86,
                    "name": "D6",
                    "ticks": 86016,
                    "time": 279.999552,
                    "velocity": 0.3779527559055118,
                },
                {
                    "duration": 0.42317640625003605,
                    "durationTicks": 130,
                    "midi": 85,
                    "name": "C#6",
                    "ticks": 86144,
                    "time": 280.41621799999996,
                    "velocity": 0.3228346456692913,
                },
                {
                    "duration": 0.3938795781249951,
                    "durationTicks": 121,
                    "midi": 84,
                    "name": "C6",
                    "ticks": 86272,
                    "time": 280.832884,
                    "velocity": 0.3543307086614173,
                },
                {
                    "duration": 1.699216031250046,
                    "durationTicks": 522,
                    "midi": 84,
                    "name": "C6",
                    "ticks": 86528,
                    "time": 281.66621599999996,
                    "velocity": 0.33858267716535434,
                },
                {
                    "duration": 0.8496080156249946,
                    "durationTicks": 261,
                    "midi": 83,
                    "name": "B5",
                    "ticks": 87040,
                    "time": 283.33288,
                    "velocity": 0.31496062992125984,
                },
                {
                    "duration": 0.7193998906250272,
                    "durationTicks": 221,
                    "midi": 84,
                    "name": "C6",
                    "ticks": 87296,
                    "time": 284.166212,
                    "velocity": 0.3779527559055118,
                },
                {
                    "duration": 0.17903617187499776,
                    "durationTicks": 55,
                    "midi": 83,
                    "name": "B5",
                    "ticks": 87552,
                    "time": 284.99954399999996,
                    "velocity": 0.41732283464566927,
                },
                {
                    "duration": 0.1790361718750546,
                    "durationTicks": 55,
                    "midi": 84,
                    "name": "C6",
                    "ticks": 87607,
                    "time": 285.17858017187496,
                    "velocity": 0.41732283464566927,
                },
                {
                    "duration": 1.051430609374961,
                    "durationTicks": 323,
                    "midi": 86,
                    "name": "D6",
                    "ticks": 87662,
                    "time": 285.35761634375,
                    "velocity": 0.41732283464566927,
                },
                {
                    "duration": 0.2766922656250017,
                    "durationTicks": 85,
                    "midi": 84,
                    "name": "C6",
                    "ticks": 87893,
                    "time": 286.109568265625,
                    "velocity": 0.3858267716535433,
                },
                {
                    "duration": 0.279947468749981,
                    "durationTicks": 86,
                    "midi": 83,
                    "name": "B5",
                    "ticks": 87978,
                    "time": 286.38626053125,
                    "velocity": 0.36220472440944884,
                },
                {
                    "duration": 0.8333319999999844,
                    "durationTicks": 256,
                    "midi": 81,
                    "name": "A5",
                    "ticks": 88064,
                    "time": 286.666208,
                    "velocity": 0.3700787401574803,
                },
                {
                    "duration": 1.1100242656249861,
                    "durationTicks": 341,
                    "midi": 81,
                    "name": "A5",
                    "ticks": 88576,
                    "time": 288.332872,
                    "velocity": 0.33858267716535434,
                },
                {
                    "duration": 0.279947468749981,
                    "durationTicks": 86,
                    "midi": 83,
                    "name": "B5",
                    "ticks": 88917,
                    "time": 289.442896265625,
                    "velocity": 0.36220472440944884,
                },
                {
                    "duration": 0.26367145312497087,
                    "durationTicks": 81,
                    "midi": 85,
                    "name": "C#6",
                    "ticks": 89002,
                    "time": 289.71958853125,
                    "velocity": 0.36220472440944884,
                },
                {
                    "duration": 0.4231764062499792,
                    "durationTicks": 130,
                    "midi": 85,
                    "name": "C#6",
                    "ticks": 89088,
                    "time": 289.999536,
                    "velocity": 0.3543307086614173,
                },
                {
                    "duration": 0.3938795781249951,
                    "durationTicks": 121,
                    "midi": 86,
                    "name": "D6",
                    "ticks": 89216,
                    "time": 290.416202,
                    "velocity": 0.33070866141732286,
                },
                {
                    "duration": 0.8333320000000413,
                    "durationTicks": 256,
                    "midi": 86,
                    "name": "D6",
                    "ticks": 89344,
                    "time": 290.83286799999996,
                    "velocity": 0.3937007874015748,
                },
                {
                    "duration": 1.1100242656249861,
                    "durationTicks": 341,
                    "midi": 86,
                    "name": "D6",
                    "ticks": 89600,
                    "time": 291.6662,
                    "velocity": 0.3858267716535433,
                },
                {
                    "duration": 0.279947468749981,
                    "durationTicks": 86,
                    "midi": 88,
                    "name": "E6",
                    "ticks": 89941,
                    "time": 292.776224265625,
                    "velocity": 0.3700787401574803,
                },
                {
                    "duration": 0.26367145312497087,
                    "durationTicks": 81,
                    "midi": 89,
                    "name": "F6",
                    "ticks": 90026,
                    "time": 293.05291653125,
                    "velocity": 0.4094488188976378,
                },
                {
                    "duration": 0.42317640625003605,
                    "durationTicks": 130,
                    "midi": 89,
                    "name": "F6",
                    "ticks": 90112,
                    "time": 293.332864,
                    "velocity": 0.3937007874015748,
                },
                {
                    "duration": 0.3938795781249951,
                    "durationTicks": 121,
                    "midi": 88,
                    "name": "E6",
                    "ticks": 90240,
                    "time": 293.74953,
                    "velocity": 0.3464566929133858,
                },
                {
                    "duration": 0.8333320000000413,
                    "durationTicks": 256,
                    "midi": 88,
                    "name": "E6",
                    "ticks": 90368,
                    "time": 294.16619599999996,
                    "velocity": 0.36220472440944884,
                },
                {
                    "duration": 0.2766922656250017,
                    "durationTicks": 85,
                    "midi": 81,
                    "name": "A5",
                    "ticks": 90624,
                    "time": 294.999528,
                    "velocity": 0.3858267716535433,
                },
                {
                    "duration": 0.2766922656250017,
                    "durationTicks": 85,
                    "midi": 81,
                    "name": "A5",
                    "ticks": 90709,
                    "time": 295.276220265625,
                    "velocity": 0.3779527559055118,
                },
                {
                    "duration": 0.279947468749981,
                    "durationTicks": 86,
                    "midi": 81,
                    "name": "A5",
                    "ticks": 90794,
                    "time": 295.55291253125,
                    "velocity": 0.4409448818897638,
                },
                {
                    "duration": 0.279947468749981,
                    "durationTicks": 86,
                    "midi": 81,
                    "name": "A5",
                    "ticks": 90880,
                    "time": 295.83286,
                    "velocity": 0.3937007874015748,
                },
                {
                    "duration": 0.279947468749981,
                    "durationTicks": 86,
                    "midi": 83,
                    "name": "B5",
                    "ticks": 90965,
                    "time": 296.109552265625,
                    "velocity": 0.4645669291338583,
                },
                {
                    "duration": 0.26367145312497087,
                    "durationTicks": 81,
                    "midi": 85,
                    "name": "C#6",
                    "ticks": 91050,
                    "time": 296.38624453125,
                    "velocity": 0.48031496062992124,
                },
                {
                    "duration": 0.27994746875003784,
                    "durationTicks": 86,
                    "midi": 85,
                    "name": "C#6",
                    "ticks": 91136,
                    "time": 296.66619199999997,
                    "velocity": 0.4881889763779528,
                },
                {
                    "duration": 0.2604162499999916,
                    "durationTicks": 80,
                    "midi": 86,
                    "name": "D6",
                    "ticks": 91221,
                    "time": 296.94288426562497,
                    "velocity": 0.5118110236220472,
                },
                {
                    "duration": 0.16601535937502376,
                    "durationTicks": 51,
                    "midi": 86,
                    "name": "D6",
                    "ticks": 91306,
                    "time": 297.21957653124997,
                    "velocity": 0.49606299212598426,
                },
                {
                    "duration": 0.8333319999999844,
                    "durationTicks": 256,
                    "midi": 86,
                    "name": "D6",
                    "ticks": 91392,
                    "time": 297.499524,
                    "velocity": 0.5433070866141733,
                },
                {
                    "duration": 0.2766922656250017,
                    "durationTicks": 85,
                    "midi": 86,
                    "name": "D6",
                    "ticks": 91648,
                    "time": 298.332856,
                    "velocity": 0.5590551181102362,
                },
                {
                    "duration": 0.2766922656250017,
                    "durationTicks": 85,
                    "midi": 86,
                    "name": "D6",
                    "ticks": 91733,
                    "time": 298.609548265625,
                    "velocity": 0.5511811023622047,
                },
                {
                    "duration": 0.279947468749981,
                    "durationTicks": 86,
                    "midi": 86,
                    "name": "D6",
                    "ticks": 91818,
                    "time": 298.88624053125,
                    "velocity": 0.5984251968503937,
                },
                {
                    "duration": 0.279947468749981,
                    "durationTicks": 86,
                    "midi": 86,
                    "name": "D6",
                    "ticks": 91904,
                    "time": 299.166188,
                    "velocity": 0.6062992125984252,
                },
                {
                    "duration": 0.279947468749981,
                    "durationTicks": 86,
                    "midi": 88,
                    "name": "E6",
                    "ticks": 91989,
                    "time": 299.442880265625,
                    "velocity": 0.6377952755905512,
                },
                {
                    "duration": 0.2636714531250277,
                    "durationTicks": 81,
                    "midi": 89,
                    "name": "F6",
                    "ticks": 92074,
                    "time": 299.71957253125,
                    "velocity": 0.6535433070866141,
                },
                {
                    "duration": 0.27994746875003784,
                    "durationTicks": 86,
                    "midi": 89,
                    "name": "F6",
                    "ticks": 92160,
                    "time": 299.99951999999996,
                    "velocity": 0.5748031496062992,
                },
                {
                    "duration": 0.2604162499999916,
                    "durationTicks": 80,
                    "midi": 88,
                    "name": "E6",
                    "ticks": 92245,
                    "time": 300.27621226562496,
                    "velocity": 0.5590551181102362,
                },
                {
                    "duration": 0.16601535937502376,
                    "durationTicks": 51,
                    "midi": 88,
                    "name": "E6",
                    "ticks": 92330,
                    "time": 300.55290453124996,
                    "velocity": 0.5590551181102362,
                },
                {
                    "duration": 0.279947468749981,
                    "durationTicks": 86,
                    "midi": 88,
                    "name": "E6",
                    "ticks": 92672,
                    "time": 301.666184,
                    "velocity": 0.5196850393700787,
                },
                {
                    "duration": 0.2604162499999916,
                    "durationTicks": 80,
                    "midi": 89,
                    "name": "F6",
                    "ticks": 92757,
                    "time": 301.942876265625,
                    "velocity": 0.5669291338582677,
                },
                {
                    "duration": 0.16601535937496692,
                    "durationTicks": 51,
                    "midi": 89,
                    "name": "F6",
                    "ticks": 92842,
                    "time": 302.21956853125,
                    "velocity": 0.49606299212598426,
                },
                {
                    "duration": 0.27994746875003784,
                    "durationTicks": 86,
                    "midi": 89,
                    "name": "F6",
                    "ticks": 93184,
                    "time": 303.33284799999996,
                    "velocity": 0.3700787401574803,
                },
                {
                    "duration": 0.2604162500000484,
                    "durationTicks": 80,
                    "midi": 88,
                    "name": "E6",
                    "ticks": 93269,
                    "time": 303.60954026562496,
                    "velocity": 0.33070866141732286,
                },
                {
                    "duration": 0.27994746875003784,
                    "durationTicks": 86,
                    "midi": 88,
                    "name": "E6",
                    "ticks": 93354,
                    "time": 303.88623253124996,
                    "velocity": 0.3779527559055118,
                },
                {
                    "duration": 0.8333319999999844,
                    "durationTicks": 256,
                    "midi": 80,
                    "name": "G#5",
                    "ticks": 107008,
                    "time": 348.33277599999997,
                    "velocity": 0.33070866141732286,
                },
                {
                    "duration": 0.24739543750001758,
                    "durationTicks": 76,
                    "midi": 80,
                    "name": "G#5",
                    "ticks": 107264,
                    "time": 349.16610799999995,
                    "velocity": 0.41732283464566927,
                },
                {
                    "duration": 0.24739543750001758,
                    "durationTicks": 76,
                    "midi": 81,
                    "name": "A5",
                    "ticks": 107392,
                    "time": 349.582774,
                    "velocity": 0.48031496062992124,
                },
                {
                    "duration": 0.8333319999999844,
                    "durationTicks": 256,
                    "midi": 83,
                    "name": "B5",
                    "ticks": 107520,
                    "time": 349.99944,
                    "velocity": 0.5039370078740157,
                },
                {
                    "duration": 0.24739543750001758,
                    "durationTicks": 76,
                    "midi": 83,
                    "name": "B5",
                    "ticks": 107776,
                    "time": 350.832772,
                    "velocity": 0.5590551181102362,
                },
                {
                    "duration": 0.24739543749996074,
                    "durationTicks": 76,
                    "midi": 84,
                    "name": "C6",
                    "ticks": 107904,
                    "time": 351.249438,
                    "velocity": 0.6220472440944882,
                },
                {
                    "duration": 0.8333320000000413,
                    "durationTicks": 256,
                    "midi": 86,
                    "name": "D6",
                    "ticks": 108032,
                    "time": 351.66610399999996,
                    "velocity": 0.6535433070866141,
                },
                {
                    "duration": 0.24739543749996074,
                    "durationTicks": 76,
                    "midi": 86,
                    "name": "D6",
                    "ticks": 108288,
                    "time": 352.499436,
                    "velocity": 0.7322834645669292,
                },
                {
                    "duration": 0.24739543750001758,
                    "durationTicks": 76,
                    "midi": 88,
                    "name": "E6",
                    "ticks": 108416,
                    "time": 352.91610199999997,
                    "velocity": 0.8110236220472441,
                },
                {
                    "duration": 0.4231764062499792,
                    "durationTicks": 130,
                    "midi": 89,
                    "name": "F6",
                    "ticks": 108544,
                    "time": 353.332768,
                    "velocity": 0.8031496062992126,
                },
                {
                    "duration": 0.21158820312501803,
                    "durationTicks": 65,
                    "midi": 88,
                    "name": "E6",
                    "ticks": 108672,
                    "time": 353.74943399999995,
                    "velocity": 0.7716535433070866,
                },
                {
                    "duration": 0.21158820312496118,
                    "durationTicks": 65,
                    "midi": 87,
                    "name": "D#6",
                    "ticks": 108736,
                    "time": 353.957767,
                    "velocity": 0.7795275590551181,
                },
                {
                    "duration": 0.1953121875000079,
                    "durationTicks": 60,
                    "midi": 88,
                    "name": "E6",
                    "ticks": 108800,
                    "time": 354.1661,
                    "velocity": 0.8740157480314961,
                },
                {
                    "duration": 0.12369771875000879,
                    "durationTicks": 38,
                    "midi": 76,
                    "name": "E5",
                    "ticks": 108864,
                    "time": 354.37443299999995,
                    "velocity": 0.6062992125984252,
                },
                {
                    "duration": 0.12369771875000879,
                    "durationTicks": 38,
                    "midi": 78,
                    "name": "F#5",
                    "ticks": 108928,
                    "time": 354.582766,
                    "velocity": 0.8740157480314961,
                },
                {
                    "duration": 0.12369771875000879,
                    "durationTicks": 38,
                    "midi": 80,
                    "name": "G#5",
                    "ticks": 108992,
                    "time": 354.791099,
                    "velocity": 0.905511811023622,
                },
                {
                    "duration": 0.12369771875000879,
                    "durationTicks": 38,
                    "midi": 81,
                    "name": "A5",
                    "ticks": 109056,
                    "time": 354.99943199999996,
                    "velocity": 0.937007874015748,
                },
                {
                    "duration": 0.12369771875000879,
                    "durationTicks": 38,
                    "midi": 83,
                    "name": "B5",
                    "ticks": 109120,
                    "time": 355.207765,
                    "velocity": 0.905511811023622,
                },
                {
                    "duration": 0.12369771875000879,
                    "durationTicks": 38,
                    "midi": 84,
                    "name": "C6",
                    "ticks": 109184,
                    "time": 355.416098,
                    "velocity": 0.937007874015748,
                },
                {
                    "duration": 0.12369771875000879,
                    "durationTicks": 38,
                    "midi": 83,
                    "name": "B5",
                    "ticks": 109248,
                    "time": 355.62443099999996,
                    "velocity": 0.8661417322834646,
                },
                {
                    "duration": 0.12369771875000879,
                    "durationTicks": 38,
                    "midi": 81,
                    "name": "A5",
                    "ticks": 109312,
                    "time": 355.832764,
                    "velocity": 0.8031496062992126,
                },
                {
                    "duration": 0.12369771875000879,
                    "durationTicks": 38,
                    "midi": 84,
                    "name": "C6",
                    "ticks": 109376,
                    "time": 356.041097,
                    "velocity": 0.952755905511811,
                },
                {
                    "duration": 0.12369771875000879,
                    "durationTicks": 38,
                    "midi": 83,
                    "name": "B5",
                    "ticks": 109440,
                    "time": 356.24942999999996,
                    "velocity": 0.8031496062992126,
                },
                {
                    "duration": 0.12369771874995195,
                    "durationTicks": 38,
                    "midi": 81,
                    "name": "A5",
                    "ticks": 109504,
                    "time": 356.457763,
                    "velocity": 0.7874015748031497,
                },
                {
                    "duration": 0.12369771875000879,
                    "durationTicks": 38,
                    "midi": 76,
                    "name": "E5",
                    "ticks": 109568,
                    "time": 356.666096,
                    "velocity": 0.7165354330708661,
                },
                {
                    "duration": 0.12369771875000879,
                    "durationTicks": 38,
                    "midi": 78,
                    "name": "F#5",
                    "ticks": 109632,
                    "time": 356.87442899999996,
                    "velocity": 0.8976377952755905,
                },
                {
                    "duration": 0.12369771874995195,
                    "durationTicks": 38,
                    "midi": 80,
                    "name": "G#5",
                    "ticks": 109696,
                    "time": 357.082762,
                    "velocity": 0.9133858267716536,
                },
                {
                    "duration": 0.12369771875000879,
                    "durationTicks": 38,
                    "midi": 81,
                    "name": "A5",
                    "ticks": 109760,
                    "time": 357.291095,
                    "velocity": 0.9763779527559056,
                },
                {
                    "duration": 0.12369771875000879,
                    "durationTicks": 38,
                    "midi": 83,
                    "name": "B5",
                    "ticks": 109824,
                    "time": 357.49942799999997,
                    "velocity": 0.9291338582677166,
                },
                {
                    "duration": 0.12369771874995195,
                    "durationTicks": 38,
                    "midi": 84,
                    "name": "C6",
                    "ticks": 109888,
                    "time": 357.707761,
                    "velocity": 0.9212598425196851,
                },
                {
                    "duration": 0.12369771875000879,
                    "durationTicks": 38,
                    "midi": 86,
                    "name": "D6",
                    "ticks": 109952,
                    "time": 357.916094,
                    "velocity": 0.952755905511811,
                },
                {
                    "duration": 0.12369771875000879,
                    "durationTicks": 38,
                    "midi": 88,
                    "name": "E6",
                    "ticks": 110016,
                    "time": 358.12442699999997,
                    "velocity": 0.9448818897637795,
                },
                {
                    "duration": 0.12369771875000879,
                    "durationTicks": 38,
                    "midi": 86,
                    "name": "D6",
                    "ticks": 110080,
                    "time": 358.33275999999995,
                    "velocity": 1,
                },
                {
                    "duration": 0.12369771875000879,
                    "durationTicks": 38,
                    "midi": 83,
                    "name": "B5",
                    "ticks": 110144,
                    "time": 358.541093,
                    "velocity": 0.8503937007874016,
                },
                {
                    "duration": 0.12369771875000879,
                    "durationTicks": 38,
                    "midi": 84,
                    "name": "C6",
                    "ticks": 110208,
                    "time": 358.74942599999997,
                    "velocity": 0.9133858267716536,
                },
                {
                    "duration": 0.12369771875000879,
                    "durationTicks": 38,
                    "midi": 86,
                    "name": "D6",
                    "ticks": 110272,
                    "time": 358.95775899999995,
                    "velocity": 0.9606299212598425,
                },
                {
                    "duration": 0.12369771875000879,
                    "durationTicks": 38,
                    "midi": 88,
                    "name": "E6",
                    "ticks": 110336,
                    "time": 359.166092,
                    "velocity": 0.952755905511811,
                },
                {
                    "duration": 0.12369771875000879,
                    "durationTicks": 38,
                    "midi": 86,
                    "name": "D6",
                    "ticks": 110400,
                    "time": 359.374425,
                    "velocity": 0.8346456692913385,
                },
                {
                    "duration": 0.12369771875000879,
                    "durationTicks": 38,
                    "midi": 84,
                    "name": "C6",
                    "ticks": 110464,
                    "time": 359.58275799999996,
                    "velocity": 0.7874015748031497,
                },
                {
                    "duration": 0.12369771875000879,
                    "durationTicks": 38,
                    "midi": 83,
                    "name": "B5",
                    "ticks": 110528,
                    "time": 359.791091,
                    "velocity": 0.8267716535433071,
                },
                {
                    "duration": 0.12369771875000879,
                    "durationTicks": 38,
                    "midi": 84,
                    "name": "C6",
                    "ticks": 110592,
                    "time": 359.999424,
                    "velocity": 0.7795275590551181,
                },
                {
                    "duration": 0.12369771875000879,
                    "durationTicks": 38,
                    "midi": 83,
                    "name": "B5",
                    "ticks": 110656,
                    "time": 360.20775699999996,
                    "velocity": 0.84251968503937,
                },
                {
                    "duration": 0.12369771875000879,
                    "durationTicks": 38,
                    "midi": 84,
                    "name": "C6",
                    "ticks": 110720,
                    "time": 360.41609,
                    "velocity": 0.937007874015748,
                },
                {
                    "duration": 0.12369771875000879,
                    "durationTicks": 38,
                    "midi": 86,
                    "name": "D6",
                    "ticks": 110784,
                    "time": 360.624423,
                    "velocity": 0.937007874015748,
                },
                {
                    "duration": 0.12369771875000879,
                    "durationTicks": 38,
                    "midi": 88,
                    "name": "E6",
                    "ticks": 110848,
                    "time": 360.83275599999996,
                    "velocity": 0.9606299212598425,
                },
                {
                    "duration": 0.12369771874995195,
                    "durationTicks": 38,
                    "midi": 76,
                    "name": "E5",
                    "ticks": 110912,
                    "time": 361.041089,
                    "velocity": 0.6692913385826772,
                },
                {
                    "duration": 0.12369771875000879,
                    "durationTicks": 38,
                    "midi": 78,
                    "name": "F#5",
                    "ticks": 110976,
                    "time": 361.249422,
                    "velocity": 0.889763779527559,
                },
                {
                    "duration": 0.12369771875000879,
                    "durationTicks": 38,
                    "midi": 80,
                    "name": "G#5",
                    "ticks": 111040,
                    "time": 361.45775499999996,
                    "velocity": 0.9291338582677166,
                },
                {
                    "duration": 0.12369771874995195,
                    "durationTicks": 38,
                    "midi": 81,
                    "name": "A5",
                    "ticks": 111104,
                    "time": 361.666088,
                    "velocity": 0.8031496062992126,
                },
                {
                    "duration": 0.12369771875000879,
                    "durationTicks": 38,
                    "midi": 83,
                    "name": "B5",
                    "ticks": 111168,
                    "time": 361.874421,
                    "velocity": 0.9291338582677166,
                },
                {
                    "duration": 0.12369771875000879,
                    "durationTicks": 38,
                    "midi": 84,
                    "name": "C6",
                    "ticks": 111232,
                    "time": 362.08275399999997,
                    "velocity": 0.9291338582677166,
                },
                {
                    "duration": 0.12369771874995195,
                    "durationTicks": 38,
                    "midi": 83,
                    "name": "B5",
                    "ticks": 111296,
                    "time": 362.291087,
                    "velocity": 0.8582677165354331,
                },
                {
                    "duration": 0.12369771875000879,
                    "durationTicks": 38,
                    "midi": 81,
                    "name": "A5",
                    "ticks": 111360,
                    "time": 362.49942,
                    "velocity": 0.7952755905511811,
                },
                {
                    "duration": 0.12369771875000879,
                    "durationTicks": 38,
                    "midi": 84,
                    "name": "C6",
                    "ticks": 111424,
                    "time": 362.70775299999997,
                    "velocity": 0.9212598425196851,
                },
                {
                    "duration": 0.12369771875000879,
                    "durationTicks": 38,
                    "midi": 83,
                    "name": "B5",
                    "ticks": 111488,
                    "time": 362.91608599999995,
                    "velocity": 0.8346456692913385,
                },
                {
                    "duration": 0.12369771875000879,
                    "durationTicks": 38,
                    "midi": 81,
                    "name": "A5",
                    "ticks": 111552,
                    "time": 363.124419,
                    "velocity": 0.8031496062992126,
                },
                {
                    "duration": 0.12369771875000879,
                    "durationTicks": 38,
                    "midi": 76,
                    "name": "E5",
                    "ticks": 111616,
                    "time": 363.33275199999997,
                    "velocity": 0.7559055118110236,
                },
                {
                    "duration": 0.12369771875000879,
                    "durationTicks": 38,
                    "midi": 78,
                    "name": "F#5",
                    "ticks": 111680,
                    "time": 363.54108499999995,
                    "velocity": 0.905511811023622,
                },
                {
                    "duration": 0.12369771875000879,
                    "durationTicks": 38,
                    "midi": 80,
                    "name": "G#5",
                    "ticks": 111744,
                    "time": 363.749418,
                    "velocity": 0.9133858267716536,
                },
                {
                    "duration": 0.12369771875000879,
                    "durationTicks": 38,
                    "midi": 81,
                    "name": "A5",
                    "ticks": 111808,
                    "time": 363.957751,
                    "velocity": 0.968503937007874,
                },
                {
                    "duration": 0.12369771875000879,
                    "durationTicks": 38,
                    "midi": 83,
                    "name": "B5",
                    "ticks": 111872,
                    "time": 364.16608399999996,
                    "velocity": 0.937007874015748,
                },
                {
                    "duration": 0.12369771875000879,
                    "durationTicks": 38,
                    "midi": 84,
                    "name": "C6",
                    "ticks": 111936,
                    "time": 364.374417,
                    "velocity": 0.9291338582677166,
                },
                {
                    "duration": 0.12369771875000879,
                    "durationTicks": 38,
                    "midi": 86,
                    "name": "D6",
                    "ticks": 112000,
                    "time": 364.58275,
                    "velocity": 0.9133858267716536,
                },
                {
                    "duration": 0.12369771875000879,
                    "durationTicks": 38,
                    "midi": 88,
                    "name": "E6",
                    "ticks": 112064,
                    "time": 364.79108299999996,
                    "velocity": 0.9448818897637795,
                },
                {
                    "duration": 0.12369771875000879,
                    "durationTicks": 38,
                    "midi": 86,
                    "name": "D6",
                    "ticks": 112128,
                    "time": 364.999416,
                    "velocity": 0.8267716535433071,
                },
                {
                    "duration": 0.12369771875000879,
                    "durationTicks": 38,
                    "midi": 83,
                    "name": "B5",
                    "ticks": 112192,
                    "time": 365.207749,
                    "velocity": 0.8110236220472441,
                },
                {
                    "duration": 0.12369771875000879,
                    "durationTicks": 38,
                    "midi": 84,
                    "name": "C6",
                    "ticks": 112256,
                    "time": 365.41608199999996,
                    "velocity": 0.9291338582677166,
                },
                {
                    "duration": 0.12369771874995195,
                    "durationTicks": 38,
                    "midi": 86,
                    "name": "D6",
                    "ticks": 112320,
                    "time": 365.624415,
                    "velocity": 0.9291338582677166,
                },
                {
                    "duration": 0.12369771875000879,
                    "durationTicks": 38,
                    "midi": 88,
                    "name": "E6",
                    "ticks": 112384,
                    "time": 365.832748,
                    "velocity": 0.984251968503937,
                },
                {
                    "duration": 0.12369771875000879,
                    "durationTicks": 38,
                    "midi": 86,
                    "name": "D6",
                    "ticks": 112448,
                    "time": 366.04108099999996,
                    "velocity": 0.8346456692913385,
                },
                {
                    "duration": 0.12369771874995195,
                    "durationTicks": 38,
                    "midi": 84,
                    "name": "C6",
                    "ticks": 112512,
                    "time": 366.249414,
                    "velocity": 0.8346456692913385,
                },
                {
                    "duration": 0.12369771875000879,
                    "durationTicks": 38,
                    "midi": 83,
                    "name": "B5",
                    "ticks": 112576,
                    "time": 366.457747,
                    "velocity": 0.8503937007874016,
                },
                {
                    "duration": 0.8333319999999844,
                    "durationTicks": 256,
                    "midi": 81,
                    "name": "A5",
                    "ticks": 112640,
                    "time": 366.66607999999997,
                    "velocity": 0.7874015748031497,
                },
                {
                    "duration": 3.398432062499978,
                    "durationTicks": 1044,
                    "midi": 88,
                    "name": "E6",
                    "ticks": 119040,
                    "time": 387.49938,
                    "velocity": 0.3543307086614173,
                },
                {
                    "duration": 3.398432062499978,
                    "durationTicks": 1044,
                    "midi": 91,
                    "name": "G6",
                    "ticks": 119040,
                    "time": 387.49938,
                    "velocity": 0.3543307086614173,
                },
                {
                    "duration": 1.699216031249989,
                    "durationTicks": 522,
                    "midi": 86,
                    "name": "D6",
                    "ticks": 120064,
                    "time": 390.83270799999997,
                    "velocity": 0.4881889763779528,
                },
                {
                    "duration": 1.699216031249989,
                    "durationTicks": 522,
                    "midi": 90,
                    "name": "F#6",
                    "ticks": 120064,
                    "time": 390.83270799999997,
                    "velocity": 0.4881889763779528,
                },
                {
                    "duration": 0.8496080156249946,
                    "durationTicks": 261,
                    "midi": 85,
                    "name": "C#6",
                    "ticks": 120576,
                    "time": 392.499372,
                    "velocity": 0.5590551181102362,
                },
                {
                    "duration": 0.8496080156249946,
                    "durationTicks": 261,
                    "midi": 88,
                    "name": "E6",
                    "ticks": 120576,
                    "time": 392.499372,
                    "velocity": 0.5590551181102362,
                },
                {
                    "duration": 0.8496080156249946,
                    "durationTicks": 261,
                    "midi": 78,
                    "name": "F#5",
                    "ticks": 120832,
                    "time": 393.332704,
                    "velocity": 0.47244094488188976,
                },
                {
                    "duration": 0.8496080156249946,
                    "durationTicks": 261,
                    "midi": 86,
                    "name": "D6",
                    "ticks": 120832,
                    "time": 393.332704,
                    "velocity": 0.47244094488188976,
                },
                {
                    "duration": 0.8496080156249946,
                    "durationTicks": 261,
                    "midi": 76,
                    "name": "E5",
                    "ticks": 121088,
                    "time": 394.16603599999996,
                    "velocity": 0.4645669291338583,
                },
                {
                    "duration": 0.8496080156249946,
                    "durationTicks": 261,
                    "midi": 85,
                    "name": "C#6",
                    "ticks": 121088,
                    "time": 394.16603599999996,
                    "velocity": 0.4645669291338583,
                },
                {
                    "duration": 0.8496080156249946,
                    "durationTicks": 261,
                    "midi": 78,
                    "name": "F#5",
                    "ticks": 121344,
                    "time": 394.999368,
                    "velocity": 0.4881889763779528,
                },
                {
                    "duration": 0.8496080156249946,
                    "durationTicks": 261,
                    "midi": 86,
                    "name": "D6",
                    "ticks": 121344,
                    "time": 394.999368,
                    "velocity": 0.4881889763779528,
                },
                {
                    "duration": 0.8496080156249946,
                    "durationTicks": 261,
                    "midi": 80,
                    "name": "G#5",
                    "ticks": 121600,
                    "time": 395.8327,
                    "velocity": 0.5039370078740157,
                },
                {
                    "duration": 0.8496080156249946,
                    "durationTicks": 261,
                    "midi": 88,
                    "name": "E6",
                    "ticks": 121600,
                    "time": 395.8327,
                    "velocity": 0.5039370078740157,
                },
                {
                    "duration": 1.5820287187499957,
                    "durationTicks": 486,
                    "midi": 81,
                    "name": "A5",
                    "ticks": 121856,
                    "time": 396.666032,
                    "velocity": 0.49606299212598426,
                },
                {
                    "duration": 1.5820287187499957,
                    "durationTicks": 486,
                    "midi": 85,
                    "name": "C#6",
                    "ticks": 121856,
                    "time": 396.666032,
                    "velocity": 0.49606299212598426,
                },
                {
                    "duration": 0.8496080156249946,
                    "durationTicks": 261,
                    "midi": 78,
                    "name": "F#5",
                    "ticks": 122368,
                    "time": 398.332696,
                    "velocity": 0.4881889763779528,
                },
                {
                    "duration": 0.8496080156249946,
                    "durationTicks": 261,
                    "midi": 86,
                    "name": "D6",
                    "ticks": 122368,
                    "time": 398.332696,
                    "velocity": 0.4881889763779528,
                },
                {
                    "duration": 0.8496080156249946,
                    "durationTicks": 261,
                    "midi": 80,
                    "name": "G#5",
                    "ticks": 122624,
                    "time": 399.166028,
                    "velocity": 0.5433070866141733,
                },
                {
                    "duration": 0.8496080156249946,
                    "durationTicks": 261,
                    "midi": 88,
                    "name": "E6",
                    "ticks": 122624,
                    "time": 399.166028,
                    "velocity": 0.5433070866141733,
                },
                {
                    "duration": 1.5820287187499957,
                    "durationTicks": 486,
                    "midi": 81,
                    "name": "A5",
                    "ticks": 122880,
                    "time": 399.99935999999997,
                    "velocity": 0.41732283464566927,
                },
                {
                    "duration": 1.5820287187499957,
                    "durationTicks": 486,
                    "midi": 85,
                    "name": "C#6",
                    "ticks": 122880,
                    "time": 399.99935999999997,
                    "velocity": 0.41732283464566927,
                },
                {
                    "duration": 0.8496080156249946,
                    "durationTicks": 261,
                    "midi": 78,
                    "name": "F#5",
                    "ticks": 123392,
                    "time": 401.666024,
                    "velocity": 0.4566929133858268,
                },
                {
                    "duration": 0.8496080156249946,
                    "durationTicks": 261,
                    "midi": 86,
                    "name": "D6",
                    "ticks": 123392,
                    "time": 401.666024,
                    "velocity": 0.4566929133858268,
                },
                {
                    "duration": 0.7910143593750263,
                    "durationTicks": 243,
                    "midi": 80,
                    "name": "G#5",
                    "ticks": 123648,
                    "time": 402.499356,
                    "velocity": 0.4881889763779528,
                },
                {
                    "duration": 0.7910143593750263,
                    "durationTicks": 243,
                    "midi": 88,
                    "name": "E6",
                    "ticks": 123648,
                    "time": 402.499356,
                    "velocity": 0.4881889763779528,
                },
                {
                    "duration": 0.8333320000000413,
                    "durationTicks": 256,
                    "midi": 81,
                    "name": "A5",
                    "ticks": 123904,
                    "time": 403.33268799999996,
                    "velocity": 0.2047244094488189,
                },
                {
                    "duration": 0.24739543749996074,
                    "durationTicks": 76,
                    "midi": 81,
                    "name": "A5",
                    "ticks": 124160,
                    "time": 404.16602,
                    "velocity": 0.2755905511811024,
                },
                {
                    "duration": 0.23437462499998674,
                    "durationTicks": 72,
                    "midi": 81,
                    "name": "A5",
                    "ticks": 124288,
                    "time": 404.58268599999997,
                    "velocity": 0.23622047244094488,
                },
                {
                    "duration": 0.49804607812501445,
                    "durationTicks": 153,
                    "midi": 81,
                    "name": "A5",
                    "ticks": 124416,
                    "time": 404.999352,
                    "velocity": 0.28346456692913385,
                },
                {
                    "duration": 0.4720044531250096,
                    "durationTicks": 145,
                    "midi": 81,
                    "name": "A5",
                    "ticks": 124672,
                    "time": 405.832684,
                    "velocity": 0.31496062992125984,
                },
                {
                    "duration": 0.8333320000000413,
                    "durationTicks": 256,
                    "midi": 81,
                    "name": "A5",
                    "ticks": 124928,
                    "time": 406.66601599999996,
                    "velocity": 0.2677165354330709,
                },
                {
                    "duration": 0.24739543749996074,
                    "durationTicks": 76,
                    "midi": 81,
                    "name": "A5",
                    "ticks": 125184,
                    "time": 407.499348,
                    "velocity": 0.29133858267716534,
                },
                {
                    "duration": 0.23437462499998674,
                    "durationTicks": 72,
                    "midi": 81,
                    "name": "A5",
                    "ticks": 125312,
                    "time": 407.91601399999996,
                    "velocity": 0.2755905511811024,
                },
                {
                    "duration": 0.49804607812501445,
                    "durationTicks": 153,
                    "midi": 81,
                    "name": "A5",
                    "ticks": 125440,
                    "time": 408.33268,
                    "velocity": 0.29133858267716534,
                },
                {
                    "duration": 0.4720044531250096,
                    "durationTicks": 145,
                    "midi": 81,
                    "name": "A5",
                    "ticks": 125696,
                    "time": 409.16601199999997,
                    "velocity": 0.25196850393700787,
                },
                {
                    "duration": 0.8333320000000413,
                    "durationTicks": 256,
                    "midi": 74,
                    "name": "D5",
                    "ticks": 125952,
                    "time": 409.99934399999995,
                    "velocity": 0.8976377952755905,
                },
                {
                    "duration": 0.8333320000000413,
                    "durationTicks": 256,
                    "midi": 83,
                    "name": "B5",
                    "ticks": 125952,
                    "time": 409.99934399999995,
                    "velocity": 0.8976377952755905,
                },
                {
                    "duration": 0.24739543749996074,
                    "durationTicks": 76,
                    "midi": 72,
                    "name": "C5",
                    "ticks": 126208,
                    "time": 410.832676,
                    "velocity": 0.84251968503937,
                },
                {
                    "duration": 0.24739543749996074,
                    "durationTicks": 76,
                    "midi": 81,
                    "name": "A5",
                    "ticks": 126208,
                    "time": 410.832676,
                    "velocity": 0.84251968503937,
                },
                {
                    "duration": 0.24739543750001758,
                    "durationTicks": 76,
                    "midi": 74,
                    "name": "D5",
                    "ticks": 126336,
                    "time": 411.24934199999996,
                    "velocity": 0.8976377952755905,
                },
                {
                    "duration": 0.24739543750001758,
                    "durationTicks": 76,
                    "midi": 83,
                    "name": "B5",
                    "ticks": 126336,
                    "time": 411.24934199999996,
                    "velocity": 0.8976377952755905,
                },
                {
                    "duration": 0.41666600000002063,
                    "durationTicks": 128,
                    "midi": 76,
                    "name": "E5",
                    "ticks": 126464,
                    "time": 411.666008,
                    "velocity": 0.9291338582677166,
                },
                {
                    "duration": 0.41666600000002063,
                    "durationTicks": 128,
                    "midi": 84,
                    "name": "C6",
                    "ticks": 126464,
                    "time": 411.666008,
                    "velocity": 0.9291338582677166,
                },
                {
                    "duration": 0.8333319999999844,
                    "durationTicks": 256,
                    "midi": 74,
                    "name": "D5",
                    "ticks": 128000,
                    "time": 416.666,
                    "velocity": 0.8031496062992126,
                },
                {
                    "duration": 0.8333319999999844,
                    "durationTicks": 256,
                    "midi": 83,
                    "name": "B5",
                    "ticks": 128000,
                    "time": 416.666,
                    "velocity": 0.8031496062992126,
                },
                {
                    "duration": 0.24739543750001758,
                    "durationTicks": 76,
                    "midi": 72,
                    "name": "C5",
                    "ticks": 128256,
                    "time": 417.499332,
                    "velocity": 0.8346456692913385,
                },
                {
                    "duration": 0.24739543750001758,
                    "durationTicks": 76,
                    "midi": 81,
                    "name": "A5",
                    "ticks": 128256,
                    "time": 417.499332,
                    "velocity": 0.8346456692913385,
                },
                {
                    "duration": 0.24739543749996074,
                    "durationTicks": 76,
                    "midi": 74,
                    "name": "D5",
                    "ticks": 128384,
                    "time": 417.915998,
                    "velocity": 0.905511811023622,
                },
                {
                    "duration": 0.24739543749996074,
                    "durationTicks": 76,
                    "midi": 83,
                    "name": "B5",
                    "ticks": 128384,
                    "time": 417.915998,
                    "velocity": 0.905511811023622,
                },
                {
                    "duration": 0.41666600000002063,
                    "durationTicks": 128,
                    "midi": 76,
                    "name": "E5",
                    "ticks": 128512,
                    "time": 418.33266399999997,
                    "velocity": 0.9133858267716536,
                },
                {
                    "duration": 0.41666600000002063,
                    "durationTicks": 128,
                    "midi": 84,
                    "name": "C6",
                    "ticks": 128512,
                    "time": 418.33266399999997,
                    "velocity": 0.9133858267716536,
                },
                {
                    "duration": 0.8333320000000413,
                    "durationTicks": 256,
                    "midi": 83,
                    "name": "B5",
                    "ticks": 129536,
                    "time": 421.66599199999996,
                    "velocity": 0.3779527559055118,
                },
                {
                    "duration": 0.24739543749996074,
                    "durationTicks": 76,
                    "midi": 81,
                    "name": "A5",
                    "ticks": 129792,
                    "time": 422.499324,
                    "velocity": 0.33858267716535434,
                },
                {
                    "duration": 0.41666600000002063,
                    "durationTicks": 128,
                    "midi": 88,
                    "name": "E6",
                    "ticks": 129920,
                    "time": 422.91598999999997,
                    "velocity": 0.3464566929133858,
                },
                {
                    "duration": 0.24739543750001758,
                    "durationTicks": 76,
                    "midi": 83,
                    "name": "B5",
                    "ticks": 129920,
                    "time": 422.91598999999997,
                    "velocity": 0.3937007874015748,
                },
                {
                    "duration": 0.8333319999999844,
                    "durationTicks": 256,
                    "midi": 84,
                    "name": "C6",
                    "ticks": 130048,
                    "time": 423.332656,
                    "velocity": 0.2440944881889764,
                },
                {
                    "duration": 0.8333319999999844,
                    "durationTicks": 256,
                    "midi": 88,
                    "name": "E6",
                    "ticks": 130048,
                    "time": 423.332656,
                    "velocity": 0.2440944881889764,
                },
                {
                    "duration": 0.24739543750001758,
                    "durationTicks": 76,
                    "midi": 84,
                    "name": "C6",
                    "ticks": 130304,
                    "time": 424.16598799999997,
                    "velocity": 0.28346456692913385,
                },
                {
                    "duration": 0.24739543750001758,
                    "durationTicks": 76,
                    "midi": 88,
                    "name": "E6",
                    "ticks": 130304,
                    "time": 424.16598799999997,
                    "velocity": 0.28346456692913385,
                },
                {
                    "duration": 0.23437462499998674,
                    "durationTicks": 72,
                    "midi": 84,
                    "name": "C6",
                    "ticks": 130432,
                    "time": 424.582654,
                    "velocity": 0.2677165354330709,
                },
                {
                    "duration": 0.23437462499998674,
                    "durationTicks": 72,
                    "midi": 88,
                    "name": "E6",
                    "ticks": 130432,
                    "time": 424.582654,
                    "velocity": 0.2677165354330709,
                },
                {
                    "duration": 0.49804607812501445,
                    "durationTicks": 153,
                    "midi": 83,
                    "name": "B5",
                    "ticks": 130560,
                    "time": 424.99931999999995,
                    "velocity": 0.2677165354330709,
                },
                {
                    "duration": 0.49804607812501445,
                    "durationTicks": 153,
                    "midi": 88,
                    "name": "E6",
                    "ticks": 130560,
                    "time": 424.99931999999995,
                    "velocity": 0.2677165354330709,
                },
                {
                    "duration": 0.47200445312495276,
                    "durationTicks": 145,
                    "midi": 83,
                    "name": "B5",
                    "ticks": 130816,
                    "time": 425.832652,
                    "velocity": 0.28346456692913385,
                },
                {
                    "duration": 0.47200445312495276,
                    "durationTicks": 145,
                    "midi": 88,
                    "name": "E6",
                    "ticks": 130816,
                    "time": 425.832652,
                    "velocity": 0.28346456692913385,
                },
                {
                    "duration": 0.8333319999999844,
                    "durationTicks": 256,
                    "midi": 88,
                    "name": "E6",
                    "ticks": 134144,
                    "time": 436.66596799999996,
                    "velocity": 0.29133858267716534,
                },
                {
                    "duration": 0.24739543750001758,
                    "durationTicks": 76,
                    "midi": 88,
                    "name": "E6",
                    "ticks": 134400,
                    "time": 437.49929999999995,
                    "velocity": 0.25196850393700787,
                },
                {
                    "duration": 0.23437462499998674,
                    "durationTicks": 72,
                    "midi": 88,
                    "name": "E6",
                    "ticks": 134528,
                    "time": 437.91596599999997,
                    "velocity": 0.31496062992125984,
                },
                {
                    "duration": 0.5078116875000092,
                    "durationTicks": 156,
                    "midi": 87,
                    "name": "D#6",
                    "ticks": 134656,
                    "time": 438.332632,
                    "velocity": 0.2755905511811024,
                },
                {
                    "duration": 0.4720044531250096,
                    "durationTicks": 145,
                    "midi": 86,
                    "name": "D6",
                    "ticks": 134912,
                    "time": 439.165964,
                    "velocity": 0.25984251968503935,
                },
            ],
            "endOfTrackTicks": 135058,
        },
        {
            "channel": 1,
            "controlChanges": {
                "7": [
                    {"number": 7, "ticks": 0, "time": 0, "value": 0.6062992125984252},
                    {"number": 7, "ticks": 0, "time": 0, "value": 0.7480314960629921},
                    {
                        "number": 7,
                        "ticks": 215,
                        "time": 0.699868671875,
                        "value": 0.6692913385826772,
                    },
                    {
                        "number": 7,
                        "ticks": 345,
                        "time": 1.1230450781249999,
                        "value": 0.5905511811023622,
                    },
                    {
                        "number": 7,
                        "ticks": 512,
                        "time": 1.666664,
                        "value": 0.5118110236220472,
                    },
                    {
                        "number": 7,
                        "ticks": 727,
                        "time": 2.366532671875,
                        "value": 0.4330708661417323,
                    },
                    {
                        "number": 7,
                        "ticks": 1023,
                        "time": 3.3300727968749997,
                        "value": 0.3543307086614173,
                    },
                    {
                        "number": 7,
                        "ticks": 1136,
                        "time": 3.6979107499999997,
                        "value": 0.2755905511811024,
                    },
                    {
                        "number": 7,
                        "ticks": 1536,
                        "time": 4.999992,
                        "value": 0.47244094488188976,
                    },
                    {
                        "number": 7,
                        "ticks": 140800,
                        "time": 458.33259999999996,
                        "value": 0.7480314960629921,
                    },
                    {
                        "number": 7,
                        "ticks": 140928,
                        "time": 458.81647,
                        "value": 0.6692913385826772,
                    },
                    {
                        "number": 7,
                        "ticks": 141056,
                        "time": 459.30033999999995,
                        "value": 0.5905511811023622,
                    },
                    {
                        "number": 7,
                        "ticks": 141311,
                        "time": 460.26429976562497,
                        "value": 0.5118110236220472,
                    },
                    {
                        "number": 7,
                        "ticks": 141431,
                        "time": 460.7845730039062,
                        "value": 0.3543307086614173,
                    },
                    {
                        "number": 7,
                        "ticks": 141563,
                        "time": 461.3574896132812,
                        "value": 0.2755905511811024,
                    },
                    {
                        "number": 7,
                        "ticks": 141824,
                        "time": 462.49030199999993,
                        "value": 0.1968503937007874,
                    },
                    {
                        "number": 7,
                        "ticks": 141952,
                        "time": 463.04585749999995,
                        "value": 0.5118110236220472,
                    },
                ],
                "10": [
                    {"number": 10, "ticks": 0, "time": 0, "value": 0.4251968503937008}
                ],
                "64": [{"number": 64, "ticks": 0, "time": 0, "value": 0}],
                "91": [
                    {"number": 91, "ticks": 0, "time": 0, "value": 0.4330708661417323}
                ],
                "121": [{"number": 121, "ticks": 0, "time": 0, "value": 0}],
            },
            "pitchBends": [],
            "instrument": {"family": "reed", "number": 68, "name": "oboe"},
            "name": "2 Oboes",
            "notes": [
                {
                    "duration": 4.16666,
                    "durationTicks": 1280,
                    "midi": 72,
                    "name": "C5",
                    "ticks": 0,
                    "time": 0,
                    "velocity": 0.6771653543307087,
                },
                {
                    "duration": 4.16666,
                    "durationTicks": 1280,
                    "midi": 76,
                    "name": "E5",
                    "ticks": 0,
                    "time": 0,
                    "velocity": 0.6771653543307087,
                },
                {
                    "duration": 0.8333319999999986,
                    "durationTicks": 256,
                    "midi": 76,
                    "name": "E5",
                    "ticks": 34048,
                    "time": 110.83315599999999,
                    "velocity": 0.25196850393700787,
                },
                {
                    "duration": 0.8333319999999986,
                    "durationTicks": 256,
                    "midi": 79,
                    "name": "G5",
                    "ticks": 34048,
                    "time": 110.83315599999999,
                    "velocity": 0.25196850393700787,
                },
                {
                    "duration": 0.8333319999999986,
                    "durationTicks": 256,
                    "midi": 75,
                    "name": "D#5",
                    "ticks": 34560,
                    "time": 112.49981999999999,
                    "velocity": 0.2992125984251969,
                },
                {
                    "duration": 0.8333319999999986,
                    "durationTicks": 256,
                    "midi": 83,
                    "name": "B5",
                    "ticks": 34560,
                    "time": 112.49981999999999,
                    "velocity": 0.2992125984251969,
                },
                {
                    "duration": 0.8333320000000128,
                    "durationTicks": 256,
                    "midi": 74,
                    "name": "D5",
                    "ticks": 35072,
                    "time": 114.16648399999998,
                    "velocity": 0.3937007874015748,
                },
                {
                    "duration": 0.8333320000000128,
                    "durationTicks": 256,
                    "midi": 78,
                    "name": "F#5",
                    "ticks": 35072,
                    "time": 114.16648399999998,
                    "velocity": 0.3937007874015748,
                },
                {
                    "duration": 0.8333319999999986,
                    "durationTicks": 256,
                    "midi": 72,
                    "name": "C5",
                    "ticks": 35584,
                    "time": 115.833148,
                    "velocity": 0.4566929133858268,
                },
                {
                    "duration": 0.8333319999999986,
                    "durationTicks": 256,
                    "midi": 81,
                    "name": "A5",
                    "ticks": 35584,
                    "time": 115.833148,
                    "velocity": 0.4566929133858268,
                },
                {
                    "duration": 0.8333319999999986,
                    "durationTicks": 256,
                    "midi": 72,
                    "name": "C5",
                    "ticks": 36096,
                    "time": 117.49981199999999,
                    "velocity": 0.5590551181102362,
                },
                {
                    "duration": 0.8333319999999986,
                    "durationTicks": 256,
                    "midi": 76,
                    "name": "E5",
                    "ticks": 36096,
                    "time": 117.49981199999999,
                    "velocity": 0.5590551181102362,
                },
                {
                    "duration": 0.8333319999999986,
                    "durationTicks": 256,
                    "midi": 72,
                    "name": "C5",
                    "ticks": 36608,
                    "time": 119.16647599999999,
                    "velocity": 0.6141732283464567,
                },
                {
                    "duration": 0.8333319999999986,
                    "durationTicks": 256,
                    "midi": 76,
                    "name": "E5",
                    "ticks": 36608,
                    "time": 119.16647599999999,
                    "velocity": 0.6141732283464567,
                },
                {
                    "duration": 0.8333319999999986,
                    "durationTicks": 256,
                    "midi": 71,
                    "name": "B4",
                    "ticks": 37120,
                    "time": 120.83313999999999,
                    "velocity": 0.6771653543307087,
                },
                {
                    "duration": 0.8333319999999986,
                    "durationTicks": 256,
                    "midi": 76,
                    "name": "E5",
                    "ticks": 37120,
                    "time": 120.83313999999999,
                    "velocity": 0.6771653543307087,
                },
                {
                    "duration": 0.8333320000000128,
                    "durationTicks": 256,
                    "midi": 72,
                    "name": "C5",
                    "ticks": 37632,
                    "time": 122.49980399999998,
                    "velocity": 0.7480314960629921,
                },
                {
                    "duration": 0.8333320000000128,
                    "durationTicks": 256,
                    "midi": 76,
                    "name": "E5",
                    "ticks": 37632,
                    "time": 122.49980399999998,
                    "velocity": 0.7480314960629921,
                },
                {
                    "duration": 0.8333319999999986,
                    "durationTicks": 256,
                    "midi": 76,
                    "name": "E5",
                    "ticks": 37888,
                    "time": 123.333136,
                    "velocity": 0.8661417322834646,
                },
                {
                    "duration": 0.24739543749998916,
                    "durationTicks": 76,
                    "midi": 76,
                    "name": "E5",
                    "ticks": 38144,
                    "time": 124.166468,
                    "velocity": 0.905511811023622,
                },
                {
                    "duration": 0.24739543750000337,
                    "durationTicks": 76,
                    "midi": 76,
                    "name": "E5",
                    "ticks": 38272,
                    "time": 124.58313399999999,
                    "velocity": 0.889763779527559,
                },
                {
                    "duration": 0.49804607812500024,
                    "durationTicks": 153,
                    "midi": 76,
                    "name": "E5",
                    "ticks": 38400,
                    "time": 124.9998,
                    "velocity": 0.905511811023622,
                },
                {
                    "duration": 0.4720044531249954,
                    "durationTicks": 145,
                    "midi": 76,
                    "name": "E5",
                    "ticks": 38656,
                    "time": 125.83313199999999,
                    "velocity": 0.8661417322834646,
                },
                {
                    "duration": 0.8333319999999986,
                    "durationTicks": 256,
                    "midi": 76,
                    "name": "E5",
                    "ticks": 38912,
                    "time": 126.66646399999999,
                    "velocity": 0.8740157480314961,
                },
                {
                    "duration": 0.24739543750000337,
                    "durationTicks": 76,
                    "midi": 76,
                    "name": "E5",
                    "ticks": 39168,
                    "time": 127.49979599999999,
                    "velocity": 0.8661417322834646,
                },
                {
                    "duration": 0.24739543749998916,
                    "durationTicks": 76,
                    "midi": 76,
                    "name": "E5",
                    "ticks": 39296,
                    "time": 127.916462,
                    "velocity": 0.9212598425196851,
                },
                {
                    "duration": 0.49804607812501445,
                    "durationTicks": 153,
                    "midi": 76,
                    "name": "E5",
                    "ticks": 39424,
                    "time": 128.333128,
                    "velocity": 0.8740157480314961,
                },
                {
                    "duration": 0.4720044531249812,
                    "durationTicks": 145,
                    "midi": 76,
                    "name": "E5",
                    "ticks": 39680,
                    "time": 129.16646,
                    "velocity": 0.8976377952755905,
                },
                {
                    "duration": 0.8333320000000128,
                    "durationTicks": 256,
                    "midi": 76,
                    "name": "E5",
                    "ticks": 39936,
                    "time": 129.99979199999999,
                    "velocity": 0.889763779527559,
                },
                {
                    "duration": 0.24739543749998916,
                    "durationTicks": 76,
                    "midi": 76,
                    "name": "E5",
                    "ticks": 40192,
                    "time": 130.833124,
                    "velocity": 0.8976377952755905,
                },
                {
                    "duration": 0.24739543749998916,
                    "durationTicks": 76,
                    "midi": 78,
                    "name": "F#5",
                    "ticks": 40320,
                    "time": 131.24979,
                    "velocity": 0.9291338582677166,
                },
                {
                    "duration": 0.49804607812501445,
                    "durationTicks": 153,
                    "midi": 79,
                    "name": "G5",
                    "ticks": 40448,
                    "time": 131.66645599999998,
                    "velocity": 0.9291338582677166,
                },
                {
                    "duration": 0.4720044531249812,
                    "durationTicks": 145,
                    "midi": 79,
                    "name": "G5",
                    "ticks": 40704,
                    "time": 132.499788,
                    "velocity": 0.8976377952755905,
                },
                {
                    "duration": 0.8333320000000128,
                    "durationTicks": 256,
                    "midi": 79,
                    "name": "G5",
                    "ticks": 40960,
                    "time": 133.33311999999998,
                    "velocity": 0.8740157480314961,
                },
                {
                    "duration": 0.24739543749998916,
                    "durationTicks": 76,
                    "midi": 79,
                    "name": "G5",
                    "ticks": 41216,
                    "time": 134.166452,
                    "velocity": 0.8661417322834646,
                },
                {
                    "duration": 0.24739543750001758,
                    "durationTicks": 76,
                    "midi": 79,
                    "name": "G5",
                    "ticks": 41344,
                    "time": 134.58311799999998,
                    "velocity": 0.8976377952755905,
                },
                {
                    "duration": 0.8333320000000128,
                    "durationTicks": 256,
                    "midi": 79,
                    "name": "G5",
                    "ticks": 41472,
                    "time": 134.99978399999998,
                    "velocity": 0.8976377952755905,
                },
                {
                    "duration": 0.8333319999999844,
                    "durationTicks": 256,
                    "midi": 67,
                    "name": "G4",
                    "ticks": 41984,
                    "time": 136.666448,
                    "velocity": 0.7716535433070866,
                },
                {
                    "duration": 0.8333319999999844,
                    "durationTicks": 256,
                    "midi": 79,
                    "name": "G5",
                    "ticks": 41984,
                    "time": 136.666448,
                    "velocity": 0.7716535433070866,
                },
                {
                    "duration": 0.24739543749998916,
                    "durationTicks": 76,
                    "midi": 67,
                    "name": "G4",
                    "ticks": 42240,
                    "time": 137.49978,
                    "velocity": 0.8976377952755905,
                },
                {
                    "duration": 0.24739543749998916,
                    "durationTicks": 76,
                    "midi": 79,
                    "name": "G5",
                    "ticks": 42240,
                    "time": 137.49978,
                    "velocity": 0.8976377952755905,
                },
                {
                    "duration": 0.24739543750001758,
                    "durationTicks": 76,
                    "midi": 69,
                    "name": "A4",
                    "ticks": 42368,
                    "time": 137.91644599999998,
                    "velocity": 0.968503937007874,
                },
                {
                    "duration": 0.24739543750001758,
                    "durationTicks": 76,
                    "midi": 81,
                    "name": "A5",
                    "ticks": 42368,
                    "time": 137.91644599999998,
                    "velocity": 0.968503937007874,
                },
                {
                    "duration": 0.498046078124986,
                    "durationTicks": 153,
                    "midi": 71,
                    "name": "B4",
                    "ticks": 42496,
                    "time": 138.333112,
                    "velocity": 0.952755905511811,
                },
                {
                    "duration": 0.498046078124986,
                    "durationTicks": 153,
                    "midi": 83,
                    "name": "B5",
                    "ticks": 42496,
                    "time": 138.333112,
                    "velocity": 0.952755905511811,
                },
                {
                    "duration": 0.4720044531250096,
                    "durationTicks": 145,
                    "midi": 71,
                    "name": "B4",
                    "ticks": 42752,
                    "time": 139.16644399999998,
                    "velocity": 0.9212598425196851,
                },
                {
                    "duration": 0.4720044531250096,
                    "durationTicks": 145,
                    "midi": 83,
                    "name": "B5",
                    "ticks": 42752,
                    "time": 139.16644399999998,
                    "velocity": 0.9212598425196851,
                },
                {
                    "duration": 0.8333319999999844,
                    "durationTicks": 256,
                    "midi": 66,
                    "name": "F#4",
                    "ticks": 43008,
                    "time": 139.999776,
                    "velocity": 0.7637795275590551,
                },
                {
                    "duration": 0.8333319999999844,
                    "durationTicks": 256,
                    "midi": 78,
                    "name": "F#5",
                    "ticks": 43008,
                    "time": 139.999776,
                    "velocity": 0.7637795275590551,
                },
                {
                    "duration": 0.24739543750001758,
                    "durationTicks": 76,
                    "midi": 66,
                    "name": "F#4",
                    "ticks": 43264,
                    "time": 140.83310799999998,
                    "velocity": 0.8661417322834646,
                },
                {
                    "duration": 0.24739543750001758,
                    "durationTicks": 76,
                    "midi": 78,
                    "name": "F#5",
                    "ticks": 43264,
                    "time": 140.83310799999998,
                    "velocity": 0.8661417322834646,
                },
                {
                    "duration": 0.24739543749998916,
                    "durationTicks": 76,
                    "midi": 68,
                    "name": "G#4",
                    "ticks": 43392,
                    "time": 141.249774,
                    "velocity": 0.9291338582677166,
                },
                {
                    "duration": 0.24739543749998916,
                    "durationTicks": 76,
                    "midi": 80,
                    "name": "G#5",
                    "ticks": 43392,
                    "time": 141.249774,
                    "velocity": 0.9291338582677166,
                },
                {
                    "duration": 0.498046078124986,
                    "durationTicks": 153,
                    "midi": 69,
                    "name": "A4",
                    "ticks": 43520,
                    "time": 141.66644,
                    "velocity": 0.952755905511811,
                },
                {
                    "duration": 0.498046078124986,
                    "durationTicks": 153,
                    "midi": 81,
                    "name": "A5",
                    "ticks": 43520,
                    "time": 141.66644,
                    "velocity": 0.952755905511811,
                },
                {
                    "duration": 0.4720044531250096,
                    "durationTicks": 145,
                    "midi": 69,
                    "name": "A4",
                    "ticks": 43776,
                    "time": 142.49977199999998,
                    "velocity": 0.889763779527559,
                },
                {
                    "duration": 0.4720044531250096,
                    "durationTicks": 145,
                    "midi": 81,
                    "name": "A5",
                    "ticks": 43776,
                    "time": 142.49977199999998,
                    "velocity": 0.889763779527559,
                },
                {
                    "duration": 0.8333319999999844,
                    "durationTicks": 256,
                    "midi": 76,
                    "name": "E5",
                    "ticks": 44032,
                    "time": 143.333104,
                    "velocity": 0.7322834645669292,
                },
                {
                    "duration": 0.24739543750001758,
                    "durationTicks": 76,
                    "midi": 76,
                    "name": "E5",
                    "ticks": 44288,
                    "time": 144.16643599999998,
                    "velocity": 0.8661417322834646,
                },
                {
                    "duration": 0.24739543749998916,
                    "durationTicks": 76,
                    "midi": 76,
                    "name": "E5",
                    "ticks": 44416,
                    "time": 144.583102,
                    "velocity": 0.8582677165354331,
                },
                {
                    "duration": 0.498046078124986,
                    "durationTicks": 153,
                    "midi": 76,
                    "name": "E5",
                    "ticks": 44544,
                    "time": 144.999768,
                    "velocity": 0.8818897637795275,
                },
                {
                    "duration": 0.4720044531249812,
                    "durationTicks": 145,
                    "midi": 76,
                    "name": "E5",
                    "ticks": 44800,
                    "time": 145.8331,
                    "velocity": 0.8661417322834646,
                },
                {
                    "duration": 0.8333320000000128,
                    "durationTicks": 256,
                    "midi": 76,
                    "name": "E5",
                    "ticks": 45056,
                    "time": 146.666432,
                    "velocity": 0.8976377952755905,
                },
                {
                    "duration": 0.24739543749998916,
                    "durationTicks": 76,
                    "midi": 78,
                    "name": "F#5",
                    "ticks": 45312,
                    "time": 147.499764,
                    "velocity": 0.9606299212598425,
                },
                {
                    "duration": 0.24739543749998916,
                    "durationTicks": 76,
                    "midi": 80,
                    "name": "G#5",
                    "ticks": 45440,
                    "time": 147.91643,
                    "velocity": 0.9448818897637795,
                },
                {
                    "duration": 0.8333320000000128,
                    "durationTicks": 256,
                    "midi": 81,
                    "name": "A5",
                    "ticks": 45568,
                    "time": 148.33309599999998,
                    "velocity": 0.937007874015748,
                },
                {
                    "duration": 0.8333320000000128,
                    "durationTicks": 256,
                    "midi": 79,
                    "name": "G5",
                    "ticks": 46080,
                    "time": 149.99975999999998,
                    "velocity": 0.7086614173228346,
                },
                {
                    "duration": 0.24739543749998916,
                    "durationTicks": 76,
                    "midi": 79,
                    "name": "G5",
                    "ticks": 46336,
                    "time": 150.833092,
                    "velocity": 0.7952755905511811,
                },
                {
                    "duration": 0.24739543749998916,
                    "durationTicks": 76,
                    "midi": 81,
                    "name": "A5",
                    "ticks": 46464,
                    "time": 151.24975799999999,
                    "velocity": 0.8818897637795275,
                },
                {
                    "duration": 0.49804607812501445,
                    "durationTicks": 153,
                    "midi": 83,
                    "name": "B5",
                    "ticks": 46592,
                    "time": 151.66642399999998,
                    "velocity": 0.8661417322834646,
                },
                {
                    "duration": 0.4720044531250096,
                    "durationTicks": 145,
                    "midi": 83,
                    "name": "B5",
                    "ticks": 46848,
                    "time": 152.499756,
                    "velocity": 0.7716535433070866,
                },
                {
                    "duration": 0.8333320000000128,
                    "durationTicks": 256,
                    "midi": 78,
                    "name": "F#5",
                    "ticks": 47104,
                    "time": 153.33308799999998,
                    "velocity": 0.6377952755905512,
                },
                {
                    "duration": 0.24739543749998916,
                    "durationTicks": 76,
                    "midi": 78,
                    "name": "F#5",
                    "ticks": 47360,
                    "time": 154.16642,
                    "velocity": 0.7007874015748031,
                },
                {
                    "duration": 0.24739543750001758,
                    "durationTicks": 76,
                    "midi": 80,
                    "name": "G#5",
                    "ticks": 47488,
                    "time": 154.58308599999998,
                    "velocity": 0.7165354330708661,
                },
                {
                    "duration": 0.498046078124986,
                    "durationTicks": 153,
                    "midi": 81,
                    "name": "A5",
                    "ticks": 47616,
                    "time": 154.999752,
                    "velocity": 0.6929133858267716,
                },
                {
                    "duration": 0.4720044531250096,
                    "durationTicks": 145,
                    "midi": 81,
                    "name": "A5",
                    "ticks": 47872,
                    "time": 155.83308399999999,
                    "velocity": 0.6456692913385826,
                },
                {
                    "duration": 0.8333319999999844,
                    "durationTicks": 256,
                    "midi": 76,
                    "name": "E5",
                    "ticks": 48128,
                    "time": 156.666416,
                    "velocity": 0.4881889763779528,
                },
                {
                    "duration": 0.24739543750001758,
                    "durationTicks": 76,
                    "midi": 76,
                    "name": "E5",
                    "ticks": 48384,
                    "time": 157.49974799999998,
                    "velocity": 0.5826771653543307,
                },
                {
                    "duration": 0.24739543750001758,
                    "durationTicks": 76,
                    "midi": 76,
                    "name": "E5",
                    "ticks": 48512,
                    "time": 157.91641399999997,
                    "velocity": 0.5826771653543307,
                },
                {
                    "duration": 0.498046078124986,
                    "durationTicks": 153,
                    "midi": 76,
                    "name": "E5",
                    "ticks": 48640,
                    "time": 158.33308,
                    "velocity": 0.5826771653543307,
                },
                {
                    "duration": 0.4720044531250096,
                    "durationTicks": 145,
                    "midi": 76,
                    "name": "E5",
                    "ticks": 48896,
                    "time": 159.16641199999998,
                    "velocity": 0.5196850393700787,
                },
                {
                    "duration": 0.8333319999999844,
                    "durationTicks": 256,
                    "midi": 76,
                    "name": "E5",
                    "ticks": 49152,
                    "time": 159.999744,
                    "velocity": 0.48031496062992124,
                },
                {
                    "duration": 0.24739543750001758,
                    "durationTicks": 76,
                    "midi": 78,
                    "name": "F#5",
                    "ticks": 49408,
                    "time": 160.83307599999998,
                    "velocity": 0.47244094488188976,
                },
                {
                    "duration": 0.24739543749998916,
                    "durationTicks": 76,
                    "midi": 80,
                    "name": "G#5",
                    "ticks": 49536,
                    "time": 161.249742,
                    "velocity": 0.3937007874015748,
                },
                {
                    "duration": 1.6666639999999973,
                    "durationTicks": 512,
                    "midi": 81,
                    "name": "A5",
                    "ticks": 49664,
                    "time": 161.666408,
                    "velocity": 0.4094488188976378,
                },
                {
                    "duration": 0.8333320000000128,
                    "durationTicks": 256,
                    "midi": 76,
                    "name": "E5",
                    "ticks": 50176,
                    "time": 163.333072,
                    "velocity": 0.3228346456692913,
                },
                {
                    "duration": 0.24739543749998916,
                    "durationTicks": 76,
                    "midi": 78,
                    "name": "F#5",
                    "ticks": 50432,
                    "time": 164.166404,
                    "velocity": 0.41732283464566927,
                },
                {
                    "duration": 0.4166659999999922,
                    "durationTicks": 128,
                    "midi": 76,
                    "name": "E5",
                    "ticks": 50432,
                    "time": 164.166404,
                    "velocity": 0.3858267716535433,
                },
                {
                    "duration": 0.24739543749998916,
                    "durationTicks": 76,
                    "midi": 80,
                    "name": "G#5",
                    "ticks": 50560,
                    "time": 164.58307,
                    "velocity": 0.3937007874015748,
                },
                {
                    "duration": 0.4166659999999922,
                    "durationTicks": 128,
                    "midi": 76,
                    "name": "E5",
                    "ticks": 50560,
                    "time": 164.58307,
                    "velocity": 0.3858267716535433,
                },
                {
                    "duration": 0.8333320000000128,
                    "durationTicks": 256,
                    "midi": 81,
                    "name": "A5",
                    "ticks": 50688,
                    "time": 164.99973599999998,
                    "velocity": 0.3858267716535433,
                },
                {
                    "duration": 0.8333320000000128,
                    "durationTicks": 256,
                    "midi": 76,
                    "name": "E5",
                    "ticks": 50688,
                    "time": 164.99973599999998,
                    "velocity": 0.3543307086614173,
                },
                {
                    "duration": 3.3333279999999945,
                    "durationTicks": 1024,
                    "midi": 76,
                    "name": "E5",
                    "ticks": 56064,
                    "time": 182.499708,
                    "velocity": 0.36220472440944884,
                },
                {
                    "duration": 3.3333279999999945,
                    "durationTicks": 1024,
                    "midi": 79,
                    "name": "G5",
                    "ticks": 56064,
                    "time": 182.499708,
                    "velocity": 0.36220472440944884,
                },
                {
                    "duration": 0.37109315624999795,
                    "durationTicks": 114,
                    "midi": 74,
                    "name": "D5",
                    "ticks": 57088,
                    "time": 185.833036,
                    "velocity": 0.4015748031496063,
                },
                {
                    "duration": 0.37109315624999795,
                    "durationTicks": 114,
                    "midi": 78,
                    "name": "F#5",
                    "ticks": 57088,
                    "time": 185.833036,
                    "velocity": 0.4015748031496063,
                },
                {
                    "duration": 0.8496080156249946,
                    "durationTicks": 261,
                    "midi": 81,
                    "name": "A5",
                    "ticks": 58112,
                    "time": 189.166364,
                    "velocity": 0.4409448818897638,
                },
                {
                    "duration": 0.8496080156249946,
                    "durationTicks": 261,
                    "midi": 85,
                    "name": "C#6",
                    "ticks": 58112,
                    "time": 189.166364,
                    "velocity": 0.4409448818897638,
                },
                {
                    "duration": 0.849608015625023,
                    "durationTicks": 261,
                    "midi": 80,
                    "name": "G#5",
                    "ticks": 58368,
                    "time": 189.99969599999997,
                    "velocity": 0.4330708661417323,
                },
                {
                    "duration": 0.849608015625023,
                    "durationTicks": 261,
                    "midi": 83,
                    "name": "B5",
                    "ticks": 58368,
                    "time": 189.99969599999997,
                    "velocity": 0.4330708661417323,
                },
                {
                    "duration": 0.8496080156249946,
                    "durationTicks": 261,
                    "midi": 78,
                    "name": "F#5",
                    "ticks": 58624,
                    "time": 190.83302799999998,
                    "velocity": 0.4251968503937008,
                },
                {
                    "duration": 0.8496080156249946,
                    "durationTicks": 261,
                    "midi": 81,
                    "name": "A5",
                    "ticks": 58624,
                    "time": 190.83302799999998,
                    "velocity": 0.4251968503937008,
                },
                {
                    "duration": 0.7910143593749979,
                    "durationTicks": 243,
                    "midi": 76,
                    "name": "E5",
                    "ticks": 58880,
                    "time": 191.66636,
                    "velocity": 0.33070866141732286,
                },
                {
                    "duration": 0.7910143593749979,
                    "durationTicks": 243,
                    "midi": 80,
                    "name": "G#5",
                    "ticks": 58880,
                    "time": 191.66636,
                    "velocity": 0.33070866141732286,
                },
                {
                    "duration": 2.3730430781249936,
                    "durationTicks": 729,
                    "midi": 76,
                    "name": "E5",
                    "ticks": 62464,
                    "time": 203.33300799999998,
                    "velocity": 0.6377952755905512,
                },
                {
                    "duration": 1.6992160312500175,
                    "durationTicks": 522,
                    "midi": 70,
                    "name": "A#4",
                    "ticks": 62464,
                    "time": 203.33300799999998,
                    "velocity": 0.4645669291338583,
                },
                {
                    "duration": 1.500648640625002,
                    "durationTicks": 461,
                    "midi": 71,
                    "name": "B4",
                    "ticks": 62976,
                    "time": 204.99967199999998,
                    "velocity": 0.5748031496062992,
                },
                {
                    "duration": 0.42317640625000763,
                    "durationTicks": 130,
                    "midi": 78,
                    "name": "F#5",
                    "ticks": 63232,
                    "time": 205.833004,
                    "velocity": 0.7716535433070866,
                },
                {
                    "duration": 0.3938795781249951,
                    "durationTicks": 121,
                    "midi": 76,
                    "name": "E5",
                    "ticks": 63360,
                    "time": 206.24966999999998,
                    "velocity": 0.7244094488188977,
                },
                {
                    "duration": 2.373043078125022,
                    "durationTicks": 729,
                    "midi": 76,
                    "name": "E5",
                    "ticks": 63488,
                    "time": 206.66633599999997,
                    "velocity": 0.7086614173228346,
                },
                {
                    "duration": 1.6992160312500175,
                    "durationTicks": 522,
                    "midi": 70,
                    "name": "A#4",
                    "ticks": 63488,
                    "time": 206.66633599999997,
                    "velocity": 0.5826771653543307,
                },
                {
                    "duration": 1.5006486406249735,
                    "durationTicks": 461,
                    "midi": 71,
                    "name": "B4",
                    "ticks": 64000,
                    "time": 208.333,
                    "velocity": 0.7244094488188977,
                },
                {
                    "duration": 0.2799474687500094,
                    "durationTicks": 86,
                    "midi": 80,
                    "name": "G#5",
                    "ticks": 64256,
                    "time": 209.16633199999998,
                    "velocity": 0.8110236220472441,
                },
                {
                    "duration": 0.2799474687500094,
                    "durationTicks": 86,
                    "midi": 78,
                    "name": "F#5",
                    "ticks": 64341,
                    "time": 209.44302426562498,
                    "velocity": 0.7322834645669292,
                },
                {
                    "duration": 0.2636714531249993,
                    "durationTicks": 81,
                    "midi": 76,
                    "name": "E5",
                    "ticks": 64426,
                    "time": 209.71971653125,
                    "velocity": 0.6535433070866141,
                },
                {
                    "duration": 2.3730430781249936,
                    "durationTicks": 729,
                    "midi": 76,
                    "name": "E5",
                    "ticks": 66560,
                    "time": 216.66631999999998,
                    "velocity": 0.4015748031496063,
                },
                {
                    "duration": 1.699216031249989,
                    "durationTicks": 522,
                    "midi": 70,
                    "name": "A#4",
                    "ticks": 66560,
                    "time": 216.66631999999998,
                    "velocity": 0.4015748031496063,
                },
                {
                    "duration": 1.5820287187499957,
                    "durationTicks": 486,
                    "midi": 71,
                    "name": "B4",
                    "ticks": 67072,
                    "time": 218.33298399999998,
                    "velocity": 0.5354330708661418,
                },
                {
                    "duration": 0.4166659999999922,
                    "durationTicks": 128,
                    "midi": 78,
                    "name": "F#5",
                    "ticks": 67328,
                    "time": 219.166316,
                    "velocity": 0.6220472440944882,
                },
                {
                    "duration": 0.4166659999999922,
                    "durationTicks": 128,
                    "midi": 76,
                    "name": "E5",
                    "ticks": 67456,
                    "time": 219.582982,
                    "velocity": 0.6062992125984252,
                },
                {
                    "duration": 2.3730430781249936,
                    "durationTicks": 729,
                    "midi": 76,
                    "name": "E5",
                    "ticks": 67584,
                    "time": 219.99964799999998,
                    "velocity": 0.6771653543307087,
                },
                {
                    "duration": 1.6992160312500175,
                    "durationTicks": 522,
                    "midi": 70,
                    "name": "A#4",
                    "ticks": 67584,
                    "time": 219.99964799999998,
                    "velocity": 0.6850393700787402,
                },
                {
                    "duration": 1.500648640625002,
                    "durationTicks": 461,
                    "midi": 71,
                    "name": "B4",
                    "ticks": 68096,
                    "time": 221.66631199999998,
                    "velocity": 0.8976377952755905,
                },
                {
                    "duration": 0.279947468749981,
                    "durationTicks": 86,
                    "midi": 80,
                    "name": "G#5",
                    "ticks": 68352,
                    "time": 222.499644,
                    "velocity": 0.9448818897637795,
                },
                {
                    "duration": 0.279947468749981,
                    "durationTicks": 86,
                    "midi": 78,
                    "name": "F#5",
                    "ticks": 68437,
                    "time": 222.776336265625,
                    "velocity": 0.889763779527559,
                },
                {
                    "duration": 0.2636714531249993,
                    "durationTicks": 81,
                    "midi": 76,
                    "name": "E5",
                    "ticks": 68522,
                    "time": 223.05302853125,
                    "velocity": 0.7874015748031497,
                },
                {
                    "duration": 1.943356265624999,
                    "durationTicks": 597,
                    "midi": 76,
                    "name": "E5",
                    "ticks": 68608,
                    "time": 223.33297599999997,
                    "velocity": 0.8661417322834646,
                },
                {
                    "duration": 0.2799474687500094,
                    "durationTicks": 86,
                    "midi": 77,
                    "name": "F5",
                    "ticks": 69205,
                    "time": 225.27633226562497,
                    "velocity": 0.7007874015748031,
                },
                {
                    "duration": 0.28320267187501713,
                    "durationTicks": 87,
                    "midi": 76,
                    "name": "E5",
                    "ticks": 69290,
                    "time": 225.55302453124997,
                    "velocity": 0.6456692913385826,
                },
                {
                    "duration": 0.2799474687500094,
                    "durationTicks": 86,
                    "midi": 79,
                    "name": "G5",
                    "ticks": 69376,
                    "time": 225.83297199999998,
                    "velocity": 0.6377952755905512,
                },
                {
                    "duration": 0.2799474687500094,
                    "durationTicks": 86,
                    "midi": 77,
                    "name": "F5",
                    "ticks": 69461,
                    "time": 226.10966426562499,
                    "velocity": 0.5118110236220472,
                },
                {
                    "duration": 0.2636714531249993,
                    "durationTicks": 81,
                    "midi": 69,
                    "name": "A4",
                    "ticks": 69546,
                    "time": 226.38635653125,
                    "velocity": 0.5039370078740157,
                },
                {
                    "duration": 0.8496080156249946,
                    "durationTicks": 261,
                    "midi": 72,
                    "name": "C5",
                    "ticks": 69632,
                    "time": 226.666304,
                    "velocity": 0.4015748031496063,
                },
                {
                    "duration": 0.42317640625000763,
                    "durationTicks": 130,
                    "midi": 76,
                    "name": "E5",
                    "ticks": 69888,
                    "time": 227.49963599999998,
                    "velocity": 0.6614173228346457,
                },
                {
                    "duration": 0.3938795781250235,
                    "durationTicks": 121,
                    "midi": 74,
                    "name": "D5",
                    "ticks": 70016,
                    "time": 227.91630199999997,
                    "velocity": 0.5748031496062992,
                },
                {
                    "duration": 0.8333319999999844,
                    "durationTicks": 256,
                    "midi": 72,
                    "name": "C5",
                    "ticks": 70144,
                    "time": 228.332968,
                    "velocity": 0.5590551181102362,
                },
                {
                    "duration": 1.249998000000005,
                    "durationTicks": 384,
                    "midi": 77,
                    "name": "F5",
                    "ticks": 70656,
                    "time": 229.999632,
                    "velocity": 0.5275590551181102,
                },
                {
                    "duration": 0.4166659999999922,
                    "durationTicks": 128,
                    "midi": 77,
                    "name": "F5",
                    "ticks": 71040,
                    "time": 231.24963,
                    "velocity": 0.6299212598425197,
                },
                {
                    "duration": 0.2799474687500094,
                    "durationTicks": 86,
                    "midi": 77,
                    "name": "F5",
                    "ticks": 71168,
                    "time": 231.666296,
                    "velocity": 0.6456692913385826,
                },
                {
                    "duration": 0.2604162499999916,
                    "durationTicks": 80,
                    "midi": 76,
                    "name": "E5",
                    "ticks": 71253,
                    "time": 231.942988265625,
                    "velocity": 0.5748031496062992,
                },
                {
                    "duration": 0.16601535937499534,
                    "durationTicks": 51,
                    "midi": 74,
                    "name": "D5",
                    "ticks": 71338,
                    "time": 232.21968053125,
                    "velocity": 0.5826771653543307,
                },
                {
                    "duration": 0.16601535937502376,
                    "durationTicks": 51,
                    "midi": 72,
                    "name": "C5",
                    "ticks": 71424,
                    "time": 232.49962799999997,
                    "velocity": 0.6062992125984252,
                },
                {
                    "duration": 0.16601535937499534,
                    "durationTicks": 51,
                    "midi": 71,
                    "name": "B4",
                    "ticks": 71509,
                    "time": 232.77632026562497,
                    "velocity": 0.6141732283464567,
                },
                {
                    "duration": 0.16601535937499534,
                    "durationTicks": 51,
                    "midi": 69,
                    "name": "A4",
                    "ticks": 71594,
                    "time": 233.05301253124998,
                    "velocity": 0.5669291338582677,
                },
                {
                    "duration": 0.8496080156249946,
                    "durationTicks": 261,
                    "midi": 67,
                    "name": "G4",
                    "ticks": 71680,
                    "time": 233.33295999999999,
                    "velocity": 0.6062992125984252,
                },
                {
                    "duration": 0.3938795781250235,
                    "durationTicks": 121,
                    "midi": 69,
                    "name": "A4",
                    "ticks": 71936,
                    "time": 234.16629199999997,
                    "velocity": 0.6535433070866141,
                },
                {
                    "duration": 0.24739543749998916,
                    "durationTicks": 76,
                    "midi": 71,
                    "name": "B4",
                    "ticks": 72064,
                    "time": 234.582958,
                    "velocity": 0.6771653543307087,
                },
                {
                    "duration": 1.1100242656250146,
                    "durationTicks": 341,
                    "midi": 72,
                    "name": "C5",
                    "ticks": 72192,
                    "time": 234.99962399999998,
                    "velocity": 0.6850393700787402,
                },
                {
                    "duration": 0.279947468749981,
                    "durationTicks": 86,
                    "midi": 74,
                    "name": "D5",
                    "ticks": 72533,
                    "time": 236.109648265625,
                    "velocity": 0.6929133858267716,
                },
                {
                    "duration": 0.2636714531249993,
                    "durationTicks": 81,
                    "midi": 76,
                    "name": "E5",
                    "ticks": 72618,
                    "time": 236.38634053124997,
                    "velocity": 0.7244094488188977,
                },
                {
                    "duration": 1.249998000000005,
                    "durationTicks": 384,
                    "midi": 77,
                    "name": "F5",
                    "ticks": 72704,
                    "time": 236.66628799999998,
                    "velocity": 0.7480314960629921,
                },
                {
                    "duration": 0.4166659999999922,
                    "durationTicks": 128,
                    "midi": 77,
                    "name": "F5",
                    "ticks": 73088,
                    "time": 237.91628599999999,
                    "velocity": 0.6850393700787402,
                },
                {
                    "duration": 0.16601535937499534,
                    "durationTicks": 51,
                    "midi": 77,
                    "name": "F5",
                    "ticks": 73216,
                    "time": 238.33295199999998,
                    "velocity": 0.7559055118110236,
                },
                {
                    "duration": 0.16601535937499534,
                    "durationTicks": 51,
                    "midi": 76,
                    "name": "E5",
                    "ticks": 73301,
                    "time": 238.60964426562498,
                    "velocity": 0.7322834645669292,
                },
                {
                    "duration": 0.16601535937499534,
                    "durationTicks": 51,
                    "midi": 74,
                    "name": "D5",
                    "ticks": 73386,
                    "time": 238.88633653124998,
                    "velocity": 0.7086614173228346,
                },
                {
                    "duration": 0.16601535937499534,
                    "durationTicks": 51,
                    "midi": 72,
                    "name": "C5",
                    "ticks": 73472,
                    "time": 239.166284,
                    "velocity": 0.8188976377952756,
                },
                {
                    "duration": 0.16601535937499534,
                    "durationTicks": 51,
                    "midi": 71,
                    "name": "B4",
                    "ticks": 73557,
                    "time": 239.442976265625,
                    "velocity": 0.7322834645669292,
                },
                {
                    "duration": 0.16601535937499534,
                    "durationTicks": 51,
                    "midi": 69,
                    "name": "A4",
                    "ticks": 73642,
                    "time": 239.71966853125,
                    "velocity": 0.7086614173228346,
                },
                {
                    "duration": 0.41666600000002063,
                    "durationTicks": 128,
                    "midi": 67,
                    "name": "G4",
                    "ticks": 73728,
                    "time": 239.99961599999997,
                    "velocity": 0.7401574803149606,
                },
                {
                    "duration": 0.24739543750001758,
                    "durationTicks": 76,
                    "midi": 76,
                    "name": "E5",
                    "ticks": 76032,
                    "time": 247.49960399999998,
                    "velocity": 0.8110236220472441,
                },
                {
                    "duration": 0.24739543749998916,
                    "durationTicks": 76,
                    "midi": 76,
                    "name": "E5",
                    "ticks": 76160,
                    "time": 247.91627,
                    "velocity": 0.8818897637795275,
                },
                {
                    "duration": 1.699216031249989,
                    "durationTicks": 522,
                    "midi": 72,
                    "name": "C5",
                    "ticks": 76288,
                    "time": 248.332936,
                    "velocity": 0.31496062992125984,
                },
                {
                    "duration": 1.5527318906249832,
                    "durationTicks": 477,
                    "midi": 71,
                    "name": "B4",
                    "ticks": 76800,
                    "time": 249.9996,
                    "velocity": 0.2992125984251969,
                },
                {
                    "duration": 0.17903617187499776,
                    "durationTicks": 55,
                    "midi": 71,
                    "name": "B4",
                    "ticks": 77312,
                    "time": 251.66626399999998,
                    "velocity": 0.44881889763779526,
                },
                {
                    "duration": 0.17903617187499776,
                    "durationTicks": 55,
                    "midi": 72,
                    "name": "C5",
                    "ticks": 77367,
                    "time": 251.84530017187498,
                    "velocity": 0.44881889763779526,
                },
                {
                    "duration": 1.0514306093749894,
                    "durationTicks": 323,
                    "midi": 74,
                    "name": "D5",
                    "ticks": 77422,
                    "time": 252.02433634374998,
                    "velocity": 0.44881889763779526,
                },
                {
                    "duration": 0.2766922656250017,
                    "durationTicks": 85,
                    "midi": 72,
                    "name": "C5",
                    "ticks": 77653,
                    "time": 252.77628826562497,
                    "velocity": 0.33858267716535434,
                },
                {
                    "duration": 0.2799474687500094,
                    "durationTicks": 86,
                    "midi": 71,
                    "name": "B4",
                    "ticks": 77738,
                    "time": 253.05298053124997,
                    "velocity": 0.33070866141732286,
                },
                {
                    "duration": 0.42317640625000763,
                    "durationTicks": 130,
                    "midi": 71,
                    "name": "B4",
                    "ticks": 77824,
                    "time": 253.33292799999998,
                    "velocity": 0.3858267716535433,
                },
                {
                    "duration": 0.3938795781250235,
                    "durationTicks": 121,
                    "midi": 72,
                    "name": "C5",
                    "ticks": 77952,
                    "time": 253.74959399999997,
                    "velocity": 0.3937007874015748,
                },
                {
                    "duration": 0.8333319999999844,
                    "durationTicks": 256,
                    "midi": 72,
                    "name": "C5",
                    "ticks": 78080,
                    "time": 254.16626,
                    "velocity": 0.3543307086614173,
                },
                {
                    "duration": 1.2727844218750022,
                    "durationTicks": 391,
                    "midi": 72,
                    "name": "C5",
                    "ticks": 78336,
                    "time": 254.99959199999998,
                    "velocity": 0.3858267716535433,
                },
                {
                    "duration": 0.3938795781249951,
                    "durationTicks": 121,
                    "midi": 74,
                    "name": "D5",
                    "ticks": 78720,
                    "time": 256.24959,
                    "velocity": 0.3858267716535433,
                },
                {
                    "duration": 0.42317640625003605,
                    "durationTicks": 130,
                    "midi": 75,
                    "name": "D#5",
                    "ticks": 78848,
                    "time": 256.666256,
                    "velocity": 0.3543307086614173,
                },
                {
                    "duration": 0.3938795781249951,
                    "durationTicks": 121,
                    "midi": 76,
                    "name": "E5",
                    "ticks": 78976,
                    "time": 257.082922,
                    "velocity": 0.3700787401574803,
                },
                {
                    "duration": 0.24739543749996074,
                    "durationTicks": 76,
                    "midi": 76,
                    "name": "E5",
                    "ticks": 79104,
                    "time": 257.499588,
                    "velocity": 0.4094488188976378,
                },
                {
                    "duration": 0.24739543750001758,
                    "durationTicks": 76,
                    "midi": 76,
                    "name": "E5",
                    "ticks": 79232,
                    "time": 257.916254,
                    "velocity": 0.3700787401574803,
                },
                {
                    "duration": 0.17903617187499776,
                    "durationTicks": 55,
                    "midi": 74,
                    "name": "D5",
                    "ticks": 79360,
                    "time": 258.33292,
                    "velocity": 0.3779527559055118,
                },
                {
                    "duration": 0.17903617187499776,
                    "durationTicks": 55,
                    "midi": 76,
                    "name": "E5",
                    "ticks": 79415,
                    "time": 258.511956171875,
                    "velocity": 0.3779527559055118,
                },
                {
                    "duration": 1.051430609374961,
                    "durationTicks": 323,
                    "midi": 77,
                    "name": "F5",
                    "ticks": 79470,
                    "time": 258.69099234375,
                    "velocity": 0.3779527559055118,
                },
                {
                    "duration": 0.2766922656250017,
                    "durationTicks": 85,
                    "midi": 76,
                    "name": "E5",
                    "ticks": 79701,
                    "time": 259.442944265625,
                    "velocity": 0.3858267716535433,
                },
                {
                    "duration": 0.279947468749981,
                    "durationTicks": 86,
                    "midi": 74,
                    "name": "D5",
                    "ticks": 79786,
                    "time": 259.71963653125,
                    "velocity": 0.36220472440944884,
                },
                {
                    "duration": 0.42317640625003605,
                    "durationTicks": 130,
                    "midi": 74,
                    "name": "D5",
                    "ticks": 79872,
                    "time": 259.99958399999997,
                    "velocity": 0.3858267716535433,
                },
                {
                    "duration": 0.3938795781249951,
                    "durationTicks": 121,
                    "midi": 76,
                    "name": "E5",
                    "ticks": 80000,
                    "time": 260.41625,
                    "velocity": 0.3700787401574803,
                },
                {
                    "duration": 0.8333320000000413,
                    "durationTicks": 256,
                    "midi": 76,
                    "name": "E5",
                    "ticks": 80128,
                    "time": 260.83291599999995,
                    "velocity": 0.3779527559055118,
                },
                {
                    "duration": 1.2727844218749738,
                    "durationTicks": 391,
                    "midi": 76,
                    "name": "E5",
                    "ticks": 80384,
                    "time": 261.666248,
                    "velocity": 0.3937007874015748,
                },
                {
                    "duration": 0.4231764062499792,
                    "durationTicks": 130,
                    "midi": 78,
                    "name": "F#5",
                    "ticks": 80768,
                    "time": 262.916246,
                    "velocity": 0.4251968503937008,
                },
                {
                    "duration": 0.8496080156249946,
                    "durationTicks": 261,
                    "midi": 76,
                    "name": "E5",
                    "ticks": 80896,
                    "time": 263.33291199999996,
                    "velocity": 0.4094488188976378,
                },
                {
                    "duration": 0.3938795781249951,
                    "durationTicks": 121,
                    "midi": 75,
                    "name": "D#5",
                    "ticks": 81152,
                    "time": 264.166244,
                    "velocity": 0.3779527559055118,
                },
                {
                    "duration": 1.2727844218749738,
                    "durationTicks": 391,
                    "midi": 74,
                    "name": "D5",
                    "ticks": 81408,
                    "time": 264.999576,
                    "velocity": 0.2992125984251969,
                },
                {
                    "duration": 0.4231764062499792,
                    "durationTicks": 130,
                    "midi": 76,
                    "name": "E5",
                    "ticks": 81792,
                    "time": 266.249574,
                    "velocity": 0.2992125984251969,
                },
                {
                    "duration": 0.42317640625003605,
                    "durationTicks": 130,
                    "midi": 74,
                    "name": "D5",
                    "ticks": 81920,
                    "time": 266.66623999999996,
                    "velocity": 0.3543307086614173,
                },
                {
                    "duration": 0.4231764062499792,
                    "durationTicks": 130,
                    "midi": 73,
                    "name": "C#5",
                    "ticks": 82048,
                    "time": 267.082906,
                    "velocity": 0.33858267716535434,
                },
                {
                    "duration": 0.3938795781249951,
                    "durationTicks": 121,
                    "midi": 72,
                    "name": "C5",
                    "ticks": 82176,
                    "time": 267.499572,
                    "velocity": 0.3779527559055118,
                },
                {
                    "duration": 1.699216031249989,
                    "durationTicks": 522,
                    "midi": 72,
                    "name": "C5",
                    "ticks": 82432,
                    "time": 268.332904,
                    "velocity": 0.33858267716535434,
                },
                {
                    "duration": 0.8496080156249946,
                    "durationTicks": 261,
                    "midi": 71,
                    "name": "B4",
                    "ticks": 82944,
                    "time": 269.999568,
                    "velocity": 0.30708661417322836,
                },
                {
                    "duration": 0.7454415156249752,
                    "durationTicks": 229,
                    "midi": 72,
                    "name": "C5",
                    "ticks": 83200,
                    "time": 270.8329,
                    "velocity": 0.4015748031496063,
                },
                {
                    "duration": 0.17903617187499776,
                    "durationTicks": 55,
                    "midi": 71,
                    "name": "B4",
                    "ticks": 83456,
                    "time": 271.666232,
                    "velocity": 0.3779527559055118,
                },
                {
                    "duration": 0.17903617187499776,
                    "durationTicks": 55,
                    "midi": 72,
                    "name": "C5",
                    "ticks": 83511,
                    "time": 271.845268171875,
                    "velocity": 0.3779527559055118,
                },
                {
                    "duration": 1.0514306093750179,
                    "durationTicks": 323,
                    "midi": 74,
                    "name": "D5",
                    "ticks": 83566,
                    "time": 272.02430434375,
                    "velocity": 0.3779527559055118,
                },
                {
                    "duration": 0.2766922656250017,
                    "durationTicks": 85,
                    "midi": 72,
                    "name": "C5",
                    "ticks": 83797,
                    "time": 272.77625626562497,
                    "velocity": 0.3228346456692913,
                },
                {
                    "duration": 0.27994746875003784,
                    "durationTicks": 86,
                    "midi": 71,
                    "name": "B4",
                    "ticks": 83882,
                    "time": 273.05294853124997,
                    "velocity": 0.3779527559055118,
                },
                {
                    "duration": 0.16601535937496692,
                    "durationTicks": 51,
                    "midi": 69,
                    "name": "A4",
                    "ticks": 83968,
                    "time": 273.332896,
                    "velocity": 0.3700787401574803,
                },
                {
                    "duration": 0.279947468749981,
                    "durationTicks": 86,
                    "midi": 69,
                    "name": "A4",
                    "ticks": 84053,
                    "time": 273.609588265625,
                    "velocity": 0.4094488188976378,
                },
                {
                    "duration": 0.26367145312497087,
                    "durationTicks": 81,
                    "midi": 71,
                    "name": "B4",
                    "ticks": 84138,
                    "time": 273.88628053125,
                    "velocity": 0.41732283464566927,
                },
                {
                    "duration": 0.16601535937496692,
                    "durationTicks": 51,
                    "midi": 72,
                    "name": "C5",
                    "ticks": 84224,
                    "time": 274.166228,
                    "velocity": 0.3937007874015748,
                },
                {
                    "duration": 0.279947468749981,
                    "durationTicks": 86,
                    "midi": 72,
                    "name": "C5",
                    "ticks": 84309,
                    "time": 274.442920265625,
                    "velocity": 0.3858267716535433,
                },
                {
                    "duration": 0.28320267187501713,
                    "durationTicks": 87,
                    "midi": 74,
                    "name": "D5",
                    "ticks": 84394,
                    "time": 274.71961253125,
                    "velocity": 0.4330708661417323,
                },
                {
                    "duration": 1.20768035937499,
                    "durationTicks": 371,
                    "midi": 76,
                    "name": "E5",
                    "ticks": 84480,
                    "time": 274.99956,
                    "velocity": 0.3858267716535433,
                },
                {
                    "duration": 0.4231764062499792,
                    "durationTicks": 130,
                    "midi": 78,
                    "name": "F#5",
                    "ticks": 84864,
                    "time": 276.249558,
                    "velocity": 0.4094488188976378,
                },
                {
                    "duration": 0.8496080156249946,
                    "durationTicks": 261,
                    "midi": 76,
                    "name": "E5",
                    "ticks": 84992,
                    "time": 276.666224,
                    "velocity": 0.4015748031496063,
                },
                {
                    "duration": 0.3938795781249951,
                    "durationTicks": 121,
                    "midi": 75,
                    "name": "D#5",
                    "ticks": 85248,
                    "time": 277.499556,
                    "velocity": 0.3543307086614173,
                },
                {
                    "duration": 0.27994746875003784,
                    "durationTicks": 86,
                    "midi": 74,
                    "name": "D5",
                    "ticks": 85504,
                    "time": 278.33288799999997,
                    "velocity": 0.3700787401574803,
                },
                {
                    "duration": 0.27994746875003784,
                    "durationTicks": 86,
                    "midi": 71,
                    "name": "B4",
                    "ticks": 85589,
                    "time": 278.60958026562497,
                    "velocity": 0.3464566929133858,
                },
                {
                    "duration": 0.28320267187501713,
                    "durationTicks": 87,
                    "midi": 73,
                    "name": "C#5",
                    "ticks": 85674,
                    "time": 278.88627253125,
                    "velocity": 0.4094488188976378,
                },
                {
                    "duration": 0.279947468749981,
                    "durationTicks": 86,
                    "midi": 74,
                    "name": "D5",
                    "ticks": 85760,
                    "time": 279.16622,
                    "velocity": 0.4645669291338583,
                },
                {
                    "duration": 0.27994746875003784,
                    "durationTicks": 86,
                    "midi": 76,
                    "name": "E5",
                    "ticks": 85845,
                    "time": 279.44291226562495,
                    "velocity": 0.4015748031496063,
                },
                {
                    "duration": 0.2636714531250277,
                    "durationTicks": 81,
                    "midi": 74,
                    "name": "D5",
                    "ticks": 85930,
                    "time": 279.71960453124996,
                    "velocity": 0.3779527559055118,
                },
                {
                    "duration": 0.4231764062499792,
                    "durationTicks": 130,
                    "midi": 74,
                    "name": "D5",
                    "ticks": 86016,
                    "time": 279.999552,
                    "velocity": 0.4094488188976378,
                },
                {
                    "duration": 0.42317640625003605,
                    "durationTicks": 130,
                    "midi": 73,
                    "name": "C#5",
                    "ticks": 86144,
                    "time": 280.41621799999996,
                    "velocity": 0.3858267716535433,
                },
                {
                    "duration": 0.3938795781249951,
                    "durationTicks": 121,
                    "midi": 72,
                    "name": "C5",
                    "ticks": 86272,
                    "time": 280.832884,
                    "velocity": 0.3543307086614173,
                },
                {
                    "duration": 1.699216031250046,
                    "durationTicks": 522,
                    "midi": 72,
                    "name": "C5",
                    "ticks": 86528,
                    "time": 281.66621599999996,
                    "velocity": 0.36220472440944884,
                },
                {
                    "duration": 0.8496080156249946,
                    "durationTicks": 261,
                    "midi": 71,
                    "name": "B4",
                    "ticks": 87040,
                    "time": 283.33288,
                    "velocity": 0.3228346456692913,
                },
                {
                    "duration": 0.745441515625032,
                    "durationTicks": 229,
                    "midi": 72,
                    "name": "C5",
                    "ticks": 87296,
                    "time": 284.166212,
                    "velocity": 0.44881889763779526,
                },
                {
                    "duration": 0.17903617187499776,
                    "durationTicks": 55,
                    "midi": 71,
                    "name": "B4",
                    "ticks": 87552,
                    "time": 284.99954399999996,
                    "velocity": 0.4094488188976378,
                },
                {
                    "duration": 0.1790361718750546,
                    "durationTicks": 55,
                    "midi": 72,
                    "name": "C5",
                    "ticks": 87607,
                    "time": 285.17858017187496,
                    "velocity": 0.4094488188976378,
                },
                {
                    "duration": 1.051430609374961,
                    "durationTicks": 323,
                    "midi": 74,
                    "name": "D5",
                    "ticks": 87662,
                    "time": 285.35761634375,
                    "velocity": 0.4094488188976378,
                },
                {
                    "duration": 0.2766922656250017,
                    "durationTicks": 85,
                    "midi": 72,
                    "name": "C5",
                    "ticks": 87893,
                    "time": 286.109568265625,
                    "velocity": 0.3543307086614173,
                },
                {
                    "duration": 0.279947468749981,
                    "durationTicks": 86,
                    "midi": 71,
                    "name": "B4",
                    "ticks": 87978,
                    "time": 286.38626053125,
                    "velocity": 0.3700787401574803,
                },
                {
                    "duration": 0.8333319999999844,
                    "durationTicks": 256,
                    "midi": 69,
                    "name": "A4",
                    "ticks": 88064,
                    "time": 286.666208,
                    "velocity": 0.33858267716535434,
                },
                {
                    "duration": 1.1100242656249861,
                    "durationTicks": 341,
                    "midi": 69,
                    "name": "A4",
                    "ticks": 88576,
                    "time": 288.332872,
                    "velocity": 0.33070866141732286,
                },
                {
                    "duration": 0.279947468749981,
                    "durationTicks": 86,
                    "midi": 71,
                    "name": "B4",
                    "ticks": 88917,
                    "time": 289.442896265625,
                    "velocity": 0.3937007874015748,
                },
                {
                    "duration": 0.26367145312497087,
                    "durationTicks": 81,
                    "midi": 73,
                    "name": "C#5",
                    "ticks": 89002,
                    "time": 289.71958853125,
                    "velocity": 0.41732283464566927,
                },
                {
                    "duration": 0.4231764062499792,
                    "durationTicks": 130,
                    "midi": 73,
                    "name": "C#5",
                    "ticks": 89088,
                    "time": 289.999536,
                    "velocity": 0.36220472440944884,
                },
                {
                    "duration": 0.3938795781249951,
                    "durationTicks": 121,
                    "midi": 74,
                    "name": "D5",
                    "ticks": 89216,
                    "time": 290.416202,
                    "velocity": 0.3464566929133858,
                },
                {
                    "duration": 0.8333320000000413,
                    "durationTicks": 256,
                    "midi": 74,
                    "name": "D5",
                    "ticks": 89344,
                    "time": 290.83286799999996,
                    "velocity": 0.3858267716535433,
                },
                {
                    "duration": 1.1100242656249861,
                    "durationTicks": 341,
                    "midi": 74,
                    "name": "D5",
                    "ticks": 89600,
                    "time": 291.6662,
                    "velocity": 0.3700787401574803,
                },
                {
                    "duration": 0.279947468749981,
                    "durationTicks": 86,
                    "midi": 76,
                    "name": "E5",
                    "ticks": 89941,
                    "time": 292.776224265625,
                    "velocity": 0.3937007874015748,
                },
                {
                    "duration": 0.26367145312497087,
                    "durationTicks": 81,
                    "midi": 77,
                    "name": "F5",
                    "ticks": 90026,
                    "time": 293.05291653125,
                    "velocity": 0.44881889763779526,
                },
                {
                    "duration": 0.42317640625003605,
                    "durationTicks": 130,
                    "midi": 77,
                    "name": "F5",
                    "ticks": 90112,
                    "time": 293.332864,
                    "velocity": 0.4015748031496063,
                },
                {
                    "duration": 0.3938795781249951,
                    "durationTicks": 121,
                    "midi": 76,
                    "name": "E5",
                    "ticks": 90240,
                    "time": 293.74953,
                    "velocity": 0.3779527559055118,
                },
                {
                    "duration": 0.8333320000000413,
                    "durationTicks": 256,
                    "midi": 76,
                    "name": "E5",
                    "ticks": 90368,
                    "time": 294.16619599999996,
                    "velocity": 0.3858267716535433,
                },
                {
                    "duration": 0.2766922656250017,
                    "durationTicks": 85,
                    "midi": 69,
                    "name": "A4",
                    "ticks": 90624,
                    "time": 294.999528,
                    "velocity": 0.36220472440944884,
                },
                {
                    "duration": 0.2766922656250017,
                    "durationTicks": 85,
                    "midi": 69,
                    "name": "A4",
                    "ticks": 90709,
                    "time": 295.276220265625,
                    "velocity": 0.4330708661417323,
                },
                {
                    "duration": 0.279947468749981,
                    "durationTicks": 86,
                    "midi": 69,
                    "name": "A4",
                    "ticks": 90794,
                    "time": 295.55291253125,
                    "velocity": 0.41732283464566927,
                },
                {
                    "duration": 0.279947468749981,
                    "durationTicks": 86,
                    "midi": 69,
                    "name": "A4",
                    "ticks": 90880,
                    "time": 295.83286,
                    "velocity": 0.44881889763779526,
                },
                {
                    "duration": 0.279947468749981,
                    "durationTicks": 86,
                    "midi": 71,
                    "name": "B4",
                    "ticks": 90965,
                    "time": 296.109552265625,
                    "velocity": 0.5039370078740157,
                },
                {
                    "duration": 0.26367145312497087,
                    "durationTicks": 81,
                    "midi": 73,
                    "name": "C#5",
                    "ticks": 91050,
                    "time": 296.38624453125,
                    "velocity": 0.5118110236220472,
                },
                {
                    "duration": 0.27994746875003784,
                    "durationTicks": 86,
                    "midi": 73,
                    "name": "C#5",
                    "ticks": 91136,
                    "time": 296.66619199999997,
                    "velocity": 0.4881889763779528,
                },
                {
                    "duration": 0.2604162499999916,
                    "durationTicks": 80,
                    "midi": 74,
                    "name": "D5",
                    "ticks": 91221,
                    "time": 296.94288426562497,
                    "velocity": 0.5118110236220472,
                },
                {
                    "duration": 0.16601535937502376,
                    "durationTicks": 51,
                    "midi": 74,
                    "name": "D5",
                    "ticks": 91306,
                    "time": 297.21957653124997,
                    "velocity": 0.48031496062992124,
                },
                {
                    "duration": 0.8333319999999844,
                    "durationTicks": 256,
                    "midi": 74,
                    "name": "D5",
                    "ticks": 91392,
                    "time": 297.499524,
                    "velocity": 0.5196850393700787,
                },
                {
                    "duration": 0.2766922656250017,
                    "durationTicks": 85,
                    "midi": 74,
                    "name": "D5",
                    "ticks": 91648,
                    "time": 298.332856,
                    "velocity": 0.5590551181102362,
                },
                {
                    "duration": 0.2766922656250017,
                    "durationTicks": 85,
                    "midi": 74,
                    "name": "D5",
                    "ticks": 91733,
                    "time": 298.609548265625,
                    "velocity": 0.5826771653543307,
                },
                {
                    "duration": 0.279947468749981,
                    "durationTicks": 86,
                    "midi": 74,
                    "name": "D5",
                    "ticks": 91818,
                    "time": 298.88624053125,
                    "velocity": 0.5984251968503937,
                },
                {
                    "duration": 0.279947468749981,
                    "durationTicks": 86,
                    "midi": 74,
                    "name": "D5",
                    "ticks": 91904,
                    "time": 299.166188,
                    "velocity": 0.5826771653543307,
                },
                {
                    "duration": 0.279947468749981,
                    "durationTicks": 86,
                    "midi": 76,
                    "name": "E5",
                    "ticks": 91989,
                    "time": 299.442880265625,
                    "velocity": 0.6377952755905512,
                },
                {
                    "duration": 0.2636714531250277,
                    "durationTicks": 81,
                    "midi": 77,
                    "name": "F5",
                    "ticks": 92074,
                    "time": 299.71957253125,
                    "velocity": 0.7007874015748031,
                },
                {
                    "duration": 0.27994746875003784,
                    "durationTicks": 86,
                    "midi": 77,
                    "name": "F5",
                    "ticks": 92160,
                    "time": 299.99951999999996,
                    "velocity": 0.5748031496062992,
                },
                {
                    "duration": 0.2604162499999916,
                    "durationTicks": 80,
                    "midi": 76,
                    "name": "E5",
                    "ticks": 92245,
                    "time": 300.27621226562496,
                    "velocity": 0.5669291338582677,
                },
                {
                    "duration": 0.16601535937502376,
                    "durationTicks": 51,
                    "midi": 76,
                    "name": "E5",
                    "ticks": 92330,
                    "time": 300.55290453124996,
                    "velocity": 0.5590551181102362,
                },
                {
                    "duration": 0.279947468749981,
                    "durationTicks": 86,
                    "midi": 76,
                    "name": "E5",
                    "ticks": 92672,
                    "time": 301.666184,
                    "velocity": 0.48031496062992124,
                },
                {
                    "duration": 0.2604162499999916,
                    "durationTicks": 80,
                    "midi": 77,
                    "name": "F5",
                    "ticks": 92757,
                    "time": 301.942876265625,
                    "velocity": 0.5590551181102362,
                },
                {
                    "duration": 0.16601535937496692,
                    "durationTicks": 51,
                    "midi": 77,
                    "name": "F5",
                    "ticks": 92842,
                    "time": 302.21956853125,
                    "velocity": 0.5118110236220472,
                },
                {
                    "duration": 0.27994746875003784,
                    "durationTicks": 86,
                    "midi": 77,
                    "name": "F5",
                    "ticks": 93184,
                    "time": 303.33284799999996,
                    "velocity": 0.33070866141732286,
                },
                {
                    "duration": 0.2604162500000484,
                    "durationTicks": 80,
                    "midi": 76,
                    "name": "E5",
                    "ticks": 93269,
                    "time": 303.60954026562496,
                    "velocity": 0.29133858267716534,
                },
                {
                    "duration": 0.27994746875003784,
                    "durationTicks": 86,
                    "midi": 76,
                    "name": "E5",
                    "ticks": 93354,
                    "time": 303.88623253124996,
                    "velocity": 0.31496062992125984,
                },
                {
                    "duration": 0.8333319999999844,
                    "durationTicks": 256,
                    "midi": 74,
                    "name": "D5",
                    "ticks": 106496,
                    "time": 346.666112,
                    "velocity": 0.2204724409448819,
                },
                {
                    "duration": 0.24739543750001758,
                    "durationTicks": 76,
                    "midi": 74,
                    "name": "D5",
                    "ticks": 106752,
                    "time": 347.499444,
                    "velocity": 0.25984251968503935,
                },
                {
                    "duration": 0.24739543749996074,
                    "durationTicks": 76,
                    "midi": 76,
                    "name": "E5",
                    "ticks": 106880,
                    "time": 347.91611,
                    "velocity": 0.3228346456692913,
                },
                {
                    "duration": 5.416657999999984,
                    "durationTicks": 1664,
                    "midi": 77,
                    "name": "F5",
                    "ticks": 107008,
                    "time": 348.33277599999997,
                    "velocity": 0.31496062992125984,
                },
                {
                    "duration": 0.21158820312501803,
                    "durationTicks": 65,
                    "midi": 76,
                    "name": "E5",
                    "ticks": 108672,
                    "time": 353.74943399999995,
                    "velocity": 0.7716535433070866,
                },
                {
                    "duration": 0.21158820312496118,
                    "durationTicks": 65,
                    "midi": 75,
                    "name": "D#5",
                    "ticks": 108736,
                    "time": 353.957767,
                    "velocity": 0.8188976377952756,
                },
                {
                    "duration": 0.1953121875000079,
                    "durationTicks": 60,
                    "midi": 76,
                    "name": "E5",
                    "ticks": 108800,
                    "time": 354.1661,
                    "velocity": 0.8818897637795275,
                },
                {
                    "duration": 0.12369771875000879,
                    "durationTicks": 38,
                    "midi": 76,
                    "name": "E5",
                    "ticks": 108864,
                    "time": 354.37443299999995,
                    "velocity": 0.8740157480314961,
                },
                {
                    "duration": 0.12369771875000879,
                    "durationTicks": 38,
                    "midi": 64,
                    "name": "E4",
                    "ticks": 108864,
                    "time": 354.37443299999995,
                    "velocity": 0.6299212598425197,
                },
                {
                    "duration": 0.12369771875000879,
                    "durationTicks": 38,
                    "midi": 78,
                    "name": "F#5",
                    "ticks": 108928,
                    "time": 354.582766,
                    "velocity": 0.905511811023622,
                },
                {
                    "duration": 0.12369771875000879,
                    "durationTicks": 38,
                    "midi": 66,
                    "name": "F#4",
                    "ticks": 108928,
                    "time": 354.582766,
                    "velocity": 0.9133858267716536,
                },
                {
                    "duration": 0.12369771875000879,
                    "durationTicks": 38,
                    "midi": 80,
                    "name": "G#5",
                    "ticks": 108992,
                    "time": 354.791099,
                    "velocity": 0.984251968503937,
                },
                {
                    "duration": 0.12369771875000879,
                    "durationTicks": 38,
                    "midi": 68,
                    "name": "G#4",
                    "ticks": 108992,
                    "time": 354.791099,
                    "velocity": 0.968503937007874,
                },
                {
                    "duration": 0.12369771875000879,
                    "durationTicks": 38,
                    "midi": 81,
                    "name": "A5",
                    "ticks": 109056,
                    "time": 354.99943199999996,
                    "velocity": 0.952755905511811,
                },
                {
                    "duration": 0.12369771875000879,
                    "durationTicks": 38,
                    "midi": 69,
                    "name": "A4",
                    "ticks": 109056,
                    "time": 354.99943199999996,
                    "velocity": 0.9291338582677166,
                },
                {
                    "duration": 0.12369771875000879,
                    "durationTicks": 38,
                    "midi": 83,
                    "name": "B5",
                    "ticks": 109120,
                    "time": 355.207765,
                    "velocity": 0.937007874015748,
                },
                {
                    "duration": 0.12369771875000879,
                    "durationTicks": 38,
                    "midi": 71,
                    "name": "B4",
                    "ticks": 109120,
                    "time": 355.207765,
                    "velocity": 0.968503937007874,
                },
                {
                    "duration": 0.12369771875000879,
                    "durationTicks": 38,
                    "midi": 84,
                    "name": "C6",
                    "ticks": 109184,
                    "time": 355.416098,
                    "velocity": 0.9212598425196851,
                },
                {
                    "duration": 0.12369771875000879,
                    "durationTicks": 38,
                    "midi": 72,
                    "name": "C5",
                    "ticks": 109184,
                    "time": 355.416098,
                    "velocity": 0.9291338582677166,
                },
                {
                    "duration": 0.12369771875000879,
                    "durationTicks": 38,
                    "midi": 83,
                    "name": "B5",
                    "ticks": 109248,
                    "time": 355.62443099999996,
                    "velocity": 0.8267716535433071,
                },
                {
                    "duration": 0.12369771875000879,
                    "durationTicks": 38,
                    "midi": 71,
                    "name": "B4",
                    "ticks": 109248,
                    "time": 355.62443099999996,
                    "velocity": 0.8503937007874016,
                },
                {
                    "duration": 0.12369771875000879,
                    "durationTicks": 38,
                    "midi": 81,
                    "name": "A5",
                    "ticks": 109312,
                    "time": 355.832764,
                    "velocity": 0.8346456692913385,
                },
                {
                    "duration": 0.12369771875000879,
                    "durationTicks": 38,
                    "midi": 69,
                    "name": "A4",
                    "ticks": 109312,
                    "time": 355.832764,
                    "velocity": 0.8267716535433071,
                },
                {
                    "duration": 0.12369771875000879,
                    "durationTicks": 38,
                    "midi": 84,
                    "name": "C6",
                    "ticks": 109376,
                    "time": 356.041097,
                    "velocity": 0.9291338582677166,
                },
                {
                    "duration": 0.12369771875000879,
                    "durationTicks": 38,
                    "midi": 72,
                    "name": "C5",
                    "ticks": 109376,
                    "time": 356.041097,
                    "velocity": 0.984251968503937,
                },
                {
                    "duration": 0.12369771875000879,
                    "durationTicks": 38,
                    "midi": 83,
                    "name": "B5",
                    "ticks": 109440,
                    "time": 356.24942999999996,
                    "velocity": 0.8503937007874016,
                },
                {
                    "duration": 0.12369771875000879,
                    "durationTicks": 38,
                    "midi": 71,
                    "name": "B4",
                    "ticks": 109440,
                    "time": 356.24942999999996,
                    "velocity": 0.8346456692913385,
                },
                {
                    "duration": 0.12369771874995195,
                    "durationTicks": 38,
                    "midi": 81,
                    "name": "A5",
                    "ticks": 109504,
                    "time": 356.457763,
                    "velocity": 0.8267716535433071,
                },
                {
                    "duration": 0.12369771874995195,
                    "durationTicks": 38,
                    "midi": 69,
                    "name": "A4",
                    "ticks": 109504,
                    "time": 356.457763,
                    "velocity": 0.8110236220472441,
                },
                {
                    "duration": 0.12369771875000879,
                    "durationTicks": 38,
                    "midi": 76,
                    "name": "E5",
                    "ticks": 109568,
                    "time": 356.666096,
                    "velocity": 0.7874015748031497,
                },
                {
                    "duration": 0.12369771875000879,
                    "durationTicks": 38,
                    "midi": 64,
                    "name": "E4",
                    "ticks": 109568,
                    "time": 356.666096,
                    "velocity": 0.7559055118110236,
                },
                {
                    "duration": 0.12369771875000879,
                    "durationTicks": 38,
                    "midi": 78,
                    "name": "F#5",
                    "ticks": 109632,
                    "time": 356.87442899999996,
                    "velocity": 0.937007874015748,
                },
                {
                    "duration": 0.12369771875000879,
                    "durationTicks": 38,
                    "midi": 66,
                    "name": "F#4",
                    "ticks": 109632,
                    "time": 356.87442899999996,
                    "velocity": 0.9212598425196851,
                },
                {
                    "duration": 0.12369771874995195,
                    "durationTicks": 38,
                    "midi": 80,
                    "name": "G#5",
                    "ticks": 109696,
                    "time": 357.082762,
                    "velocity": 0.8976377952755905,
                },
                {
                    "duration": 0.12369771874995195,
                    "durationTicks": 38,
                    "midi": 68,
                    "name": "G#4",
                    "ticks": 109696,
                    "time": 357.082762,
                    "velocity": 0.9606299212598425,
                },
                {
                    "duration": 0.12369771875000879,
                    "durationTicks": 38,
                    "midi": 81,
                    "name": "A5",
                    "ticks": 109760,
                    "time": 357.291095,
                    "velocity": 0.8976377952755905,
                },
                {
                    "duration": 0.12369771875000879,
                    "durationTicks": 38,
                    "midi": 69,
                    "name": "A4",
                    "ticks": 109760,
                    "time": 357.291095,
                    "velocity": 0.937007874015748,
                },
                {
                    "duration": 0.12369771875000879,
                    "durationTicks": 38,
                    "midi": 83,
                    "name": "B5",
                    "ticks": 109824,
                    "time": 357.49942799999997,
                    "velocity": 0.968503937007874,
                },
                {
                    "duration": 0.12369771875000879,
                    "durationTicks": 38,
                    "midi": 71,
                    "name": "B4",
                    "ticks": 109824,
                    "time": 357.49942799999997,
                    "velocity": 0.9606299212598425,
                },
                {
                    "duration": 0.12369771874995195,
                    "durationTicks": 38,
                    "midi": 72,
                    "name": "C5",
                    "ticks": 109888,
                    "time": 357.707761,
                    "velocity": 0.6614173228346457,
                },
                {
                    "duration": 0.12369771875000879,
                    "durationTicks": 38,
                    "midi": 74,
                    "name": "D5",
                    "ticks": 109952,
                    "time": 357.916094,
                    "velocity": 0.8818897637795275,
                },
                {
                    "duration": 0.12369771875000879,
                    "durationTicks": 38,
                    "midi": 76,
                    "name": "E5",
                    "ticks": 110016,
                    "time": 358.12442699999997,
                    "velocity": 0.9212598425196851,
                },
                {
                    "duration": 0.12369771875000879,
                    "durationTicks": 38,
                    "midi": 74,
                    "name": "D5",
                    "ticks": 110080,
                    "time": 358.33275999999995,
                    "velocity": 0.8661417322834646,
                },
                {
                    "duration": 0.12369771875000879,
                    "durationTicks": 38,
                    "midi": 71,
                    "name": "B4",
                    "ticks": 110144,
                    "time": 358.541093,
                    "velocity": 0.7952755905511811,
                },
                {
                    "duration": 0.12369771875000879,
                    "durationTicks": 38,
                    "midi": 72,
                    "name": "C5",
                    "ticks": 110208,
                    "time": 358.74942599999997,
                    "velocity": 0.9212598425196851,
                },
                {
                    "duration": 0.12369771875000879,
                    "durationTicks": 38,
                    "midi": 74,
                    "name": "D5",
                    "ticks": 110272,
                    "time": 358.95775899999995,
                    "velocity": 0.952755905511811,
                },
                {
                    "duration": 0.12369771875000879,
                    "durationTicks": 38,
                    "midi": 76,
                    "name": "E5",
                    "ticks": 110336,
                    "time": 359.166092,
                    "velocity": 0.9448818897637795,
                },
                {
                    "duration": 0.12369771875000879,
                    "durationTicks": 38,
                    "midi": 74,
                    "name": "D5",
                    "ticks": 110400,
                    "time": 359.374425,
                    "velocity": 0.8740157480314961,
                },
                {
                    "duration": 0.12369771875000879,
                    "durationTicks": 38,
                    "midi": 72,
                    "name": "C5",
                    "ticks": 110464,
                    "time": 359.58275799999996,
                    "velocity": 0.8267716535433071,
                },
                {
                    "duration": 0.12369771875000879,
                    "durationTicks": 38,
                    "midi": 71,
                    "name": "B4",
                    "ticks": 110528,
                    "time": 359.791091,
                    "velocity": 0.8188976377952756,
                },
                {
                    "duration": 0.12369771875000879,
                    "durationTicks": 38,
                    "midi": 72,
                    "name": "C5",
                    "ticks": 110592,
                    "time": 359.999424,
                    "velocity": 0.9448818897637795,
                },
                {
                    "duration": 0.12369771875000879,
                    "durationTicks": 38,
                    "midi": 71,
                    "name": "B4",
                    "ticks": 110656,
                    "time": 360.20775699999996,
                    "velocity": 0.8031496062992126,
                },
                {
                    "duration": 0.12369771875000879,
                    "durationTicks": 38,
                    "midi": 72,
                    "name": "C5",
                    "ticks": 110720,
                    "time": 360.41609,
                    "velocity": 0.889763779527559,
                },
                {
                    "duration": 0.12369771875000879,
                    "durationTicks": 38,
                    "midi": 74,
                    "name": "D5",
                    "ticks": 110784,
                    "time": 360.624423,
                    "velocity": 0.9133858267716536,
                },
                {
                    "duration": 0.12369771875000879,
                    "durationTicks": 38,
                    "midi": 76,
                    "name": "E5",
                    "ticks": 110848,
                    "time": 360.83275599999996,
                    "velocity": 0.9133858267716536,
                },
                {
                    "duration": 0.12369771874995195,
                    "durationTicks": 38,
                    "midi": 76,
                    "name": "E5",
                    "ticks": 110912,
                    "time": 361.041089,
                    "velocity": 0.8582677165354331,
                },
                {
                    "duration": 0.12369771874995195,
                    "durationTicks": 38,
                    "midi": 64,
                    "name": "E4",
                    "ticks": 110912,
                    "time": 361.041089,
                    "velocity": 0.6456692913385826,
                },
                {
                    "duration": 0.12369771875000879,
                    "durationTicks": 38,
                    "midi": 78,
                    "name": "F#5",
                    "ticks": 110976,
                    "time": 361.249422,
                    "velocity": 0.9448818897637795,
                },
                {
                    "duration": 0.12369771875000879,
                    "durationTicks": 38,
                    "midi": 66,
                    "name": "F#4",
                    "ticks": 110976,
                    "time": 361.249422,
                    "velocity": 0.889763779527559,
                },
                {
                    "duration": 0.12369771875000879,
                    "durationTicks": 38,
                    "midi": 80,
                    "name": "G#5",
                    "ticks": 111040,
                    "time": 361.45775499999996,
                    "velocity": 0.9133858267716536,
                },
                {
                    "duration": 0.12369771875000879,
                    "durationTicks": 38,
                    "midi": 68,
                    "name": "G#4",
                    "ticks": 111040,
                    "time": 361.45775499999996,
                    "velocity": 0.937007874015748,
                },
                {
                    "duration": 0.12369771874995195,
                    "durationTicks": 38,
                    "midi": 81,
                    "name": "A5",
                    "ticks": 111104,
                    "time": 361.666088,
                    "velocity": 0.937007874015748,
                },
                {
                    "duration": 0.12369771874995195,
                    "durationTicks": 38,
                    "midi": 69,
                    "name": "A4",
                    "ticks": 111104,
                    "time": 361.666088,
                    "velocity": 0.905511811023622,
                },
                {
                    "duration": 0.12369771875000879,
                    "durationTicks": 38,
                    "midi": 83,
                    "name": "B5",
                    "ticks": 111168,
                    "time": 361.874421,
                    "velocity": 0.937007874015748,
                },
                {
                    "duration": 0.12369771875000879,
                    "durationTicks": 38,
                    "midi": 71,
                    "name": "B4",
                    "ticks": 111168,
                    "time": 361.874421,
                    "velocity": 0.9448818897637795,
                },
                {
                    "duration": 0.12369771875000879,
                    "durationTicks": 38,
                    "midi": 84,
                    "name": "C6",
                    "ticks": 111232,
                    "time": 362.08275399999997,
                    "velocity": 0.9763779527559056,
                },
                {
                    "duration": 0.12369771875000879,
                    "durationTicks": 38,
                    "midi": 72,
                    "name": "C5",
                    "ticks": 111232,
                    "time": 362.08275399999997,
                    "velocity": 0.9291338582677166,
                },
                {
                    "duration": 0.12369771874995195,
                    "durationTicks": 38,
                    "midi": 83,
                    "name": "B5",
                    "ticks": 111296,
                    "time": 362.291087,
                    "velocity": 0.8818897637795275,
                },
                {
                    "duration": 0.12369771874995195,
                    "durationTicks": 38,
                    "midi": 71,
                    "name": "B4",
                    "ticks": 111296,
                    "time": 362.291087,
                    "velocity": 0.8503937007874016,
                },
                {
                    "duration": 0.12369771875000879,
                    "durationTicks": 38,
                    "midi": 81,
                    "name": "A5",
                    "ticks": 111360,
                    "time": 362.49942,
                    "velocity": 0.8188976377952756,
                },
                {
                    "duration": 0.12369771875000879,
                    "durationTicks": 38,
                    "midi": 69,
                    "name": "A4",
                    "ticks": 111360,
                    "time": 362.49942,
                    "velocity": 0.8267716535433071,
                },
                {
                    "duration": 0.12369771875000879,
                    "durationTicks": 38,
                    "midi": 84,
                    "name": "C6",
                    "ticks": 111424,
                    "time": 362.70775299999997,
                    "velocity": 0.952755905511811,
                },
                {
                    "duration": 0.12369771875000879,
                    "durationTicks": 38,
                    "midi": 72,
                    "name": "C5",
                    "ticks": 111424,
                    "time": 362.70775299999997,
                    "velocity": 0.984251968503937,
                },
                {
                    "duration": 0.12369771875000879,
                    "durationTicks": 38,
                    "midi": 83,
                    "name": "B5",
                    "ticks": 111488,
                    "time": 362.91608599999995,
                    "velocity": 0.84251968503937,
                },
                {
                    "duration": 0.12369771875000879,
                    "durationTicks": 38,
                    "midi": 71,
                    "name": "B4",
                    "ticks": 111488,
                    "time": 362.91608599999995,
                    "velocity": 0.8582677165354331,
                },
                {
                    "duration": 0.12369771875000879,
                    "durationTicks": 38,
                    "midi": 81,
                    "name": "A5",
                    "ticks": 111552,
                    "time": 363.124419,
                    "velocity": 0.8582677165354331,
                },
                {
                    "duration": 0.12369771875000879,
                    "durationTicks": 38,
                    "midi": 69,
                    "name": "A4",
                    "ticks": 111552,
                    "time": 363.124419,
                    "velocity": 0.8503937007874016,
                },
                {
                    "duration": 0.12369771875000879,
                    "durationTicks": 38,
                    "midi": 76,
                    "name": "E5",
                    "ticks": 111616,
                    "time": 363.33275199999997,
                    "velocity": 0.7637795275590551,
                },
                {
                    "duration": 0.12369771875000879,
                    "durationTicks": 38,
                    "midi": 78,
                    "name": "F#5",
                    "ticks": 111680,
                    "time": 363.54108499999995,
                    "velocity": 0.9133858267716536,
                },
                {
                    "duration": 0.12369771875000879,
                    "durationTicks": 38,
                    "midi": 80,
                    "name": "G#5",
                    "ticks": 111744,
                    "time": 363.749418,
                    "velocity": 0.905511811023622,
                },
                {
                    "duration": 0.12369771875000879,
                    "durationTicks": 38,
                    "midi": 81,
                    "name": "A5",
                    "ticks": 111808,
                    "time": 363.957751,
                    "velocity": 0.937007874015748,
                },
                {
                    "duration": 0.12369771875000879,
                    "durationTicks": 38,
                    "midi": 83,
                    "name": "B5",
                    "ticks": 111872,
                    "time": 364.16608399999996,
                    "velocity": 0.9133858267716536,
                },
                {
                    "duration": 0.12369771875000879,
                    "durationTicks": 38,
                    "midi": 72,
                    "name": "C5",
                    "ticks": 111936,
                    "time": 364.374417,
                    "velocity": 0.6299212598425197,
                },
                {
                    "duration": 0.12369771875000879,
                    "durationTicks": 38,
                    "midi": 74,
                    "name": "D5",
                    "ticks": 112000,
                    "time": 364.58275,
                    "velocity": 0.9133858267716536,
                },
                {
                    "duration": 0.12369771875000879,
                    "durationTicks": 38,
                    "midi": 76,
                    "name": "E5",
                    "ticks": 112064,
                    "time": 364.79108299999996,
                    "velocity": 0.889763779527559,
                },
                {
                    "duration": 0.12369771875000879,
                    "durationTicks": 38,
                    "midi": 74,
                    "name": "D5",
                    "ticks": 112128,
                    "time": 364.999416,
                    "velocity": 0.8267716535433071,
                },
                {
                    "duration": 0.12369771875000879,
                    "durationTicks": 38,
                    "midi": 71,
                    "name": "B4",
                    "ticks": 112192,
                    "time": 365.207749,
                    "velocity": 0.7559055118110236,
                },
                {
                    "duration": 0.12369771875000879,
                    "durationTicks": 38,
                    "midi": 72,
                    "name": "C5",
                    "ticks": 112256,
                    "time": 365.41608199999996,
                    "velocity": 0.8740157480314961,
                },
                {
                    "duration": 0.12369771874995195,
                    "durationTicks": 38,
                    "midi": 74,
                    "name": "D5",
                    "ticks": 112320,
                    "time": 365.624415,
                    "velocity": 0.9448818897637795,
                },
                {
                    "duration": 0.12369771875000879,
                    "durationTicks": 38,
                    "midi": 76,
                    "name": "E5",
                    "ticks": 112384,
                    "time": 365.832748,
                    "velocity": 0.952755905511811,
                },
                {
                    "duration": 0.12369771875000879,
                    "durationTicks": 38,
                    "midi": 74,
                    "name": "D5",
                    "ticks": 112448,
                    "time": 366.04108099999996,
                    "velocity": 0.8188976377952756,
                },
                {
                    "duration": 0.12369771874995195,
                    "durationTicks": 38,
                    "midi": 72,
                    "name": "C5",
                    "ticks": 112512,
                    "time": 366.249414,
                    "velocity": 0.8582677165354331,
                },
                {
                    "duration": 0.12369771875000879,
                    "durationTicks": 38,
                    "midi": 71,
                    "name": "B4",
                    "ticks": 112576,
                    "time": 366.457747,
                    "velocity": 0.7952755905511811,
                },
                {
                    "duration": 0.8333319999999844,
                    "durationTicks": 256,
                    "midi": 69,
                    "name": "A4",
                    "ticks": 112640,
                    "time": 366.66607999999997,
                    "velocity": 0.8346456692913385,
                },
                {
                    "duration": 0.8333319999999844,
                    "durationTicks": 256,
                    "midi": 76,
                    "name": "E5",
                    "ticks": 113152,
                    "time": 368.332744,
                    "velocity": 0.33070866141732286,
                },
                {
                    "duration": 0.24739543750001758,
                    "durationTicks": 76,
                    "midi": 78,
                    "name": "F#5",
                    "ticks": 113408,
                    "time": 369.166076,
                    "velocity": 0.4015748031496063,
                },
                {
                    "duration": 0.24739543750001758,
                    "durationTicks": 76,
                    "midi": 76,
                    "name": "E5",
                    "ticks": 113408,
                    "time": 369.166076,
                    "velocity": 0.4015748031496063,
                },
                {
                    "duration": 0.24739543749996074,
                    "durationTicks": 76,
                    "midi": 80,
                    "name": "G#5",
                    "ticks": 113536,
                    "time": 369.582742,
                    "velocity": 0.4015748031496063,
                },
                {
                    "duration": 0.24739543749996074,
                    "durationTicks": 76,
                    "midi": 76,
                    "name": "E5",
                    "ticks": 113536,
                    "time": 369.582742,
                    "velocity": 0.3779527559055118,
                },
                {
                    "duration": 0.41666600000002063,
                    "durationTicks": 128,
                    "midi": 76,
                    "name": "E5",
                    "ticks": 113664,
                    "time": 369.99940799999996,
                    "velocity": 0.36220472440944884,
                },
                {
                    "duration": 0.41666600000002063,
                    "durationTicks": 128,
                    "midi": 81,
                    "name": "A5",
                    "ticks": 113664,
                    "time": 369.99940799999996,
                    "velocity": 0.36220472440944884,
                },
                {
                    "duration": 3.3333279999999945,
                    "durationTicks": 1024,
                    "midi": 76,
                    "name": "E5",
                    "ticks": 119040,
                    "time": 387.49938,
                    "velocity": 0.3700787401574803,
                },
                {
                    "duration": 3.3333279999999945,
                    "durationTicks": 1024,
                    "midi": 79,
                    "name": "G5",
                    "ticks": 119040,
                    "time": 387.49938,
                    "velocity": 0.3700787401574803,
                },
                {
                    "duration": 0.37109315625002637,
                    "durationTicks": 114,
                    "midi": 74,
                    "name": "D5",
                    "ticks": 120064,
                    "time": 390.83270799999997,
                    "velocity": 0.44881889763779526,
                },
                {
                    "duration": 0.37109315625002637,
                    "durationTicks": 114,
                    "midi": 78,
                    "name": "F#5",
                    "ticks": 120064,
                    "time": 390.83270799999997,
                    "velocity": 0.44881889763779526,
                },
                {
                    "duration": 0.8333320000000413,
                    "durationTicks": 256,
                    "midi": 74,
                    "name": "D5",
                    "ticks": 125952,
                    "time": 409.99934399999995,
                    "velocity": 0.7637795275590551,
                },
                {
                    "duration": 0.8333320000000413,
                    "durationTicks": 256,
                    "midi": 83,
                    "name": "B5",
                    "ticks": 125952,
                    "time": 409.99934399999995,
                    "velocity": 0.7637795275590551,
                },
                {
                    "duration": 0.24739543749996074,
                    "durationTicks": 76,
                    "midi": 72,
                    "name": "C5",
                    "ticks": 126208,
                    "time": 410.832676,
                    "velocity": 0.8031496062992126,
                },
                {
                    "duration": 0.24739543749996074,
                    "durationTicks": 76,
                    "midi": 81,
                    "name": "A5",
                    "ticks": 126208,
                    "time": 410.832676,
                    "velocity": 0.8031496062992126,
                },
                {
                    "duration": 0.24739543750001758,
                    "durationTicks": 76,
                    "midi": 74,
                    "name": "D5",
                    "ticks": 126336,
                    "time": 411.24934199999996,
                    "velocity": 0.905511811023622,
                },
                {
                    "duration": 0.24739543750001758,
                    "durationTicks": 76,
                    "midi": 83,
                    "name": "B5",
                    "ticks": 126336,
                    "time": 411.24934199999996,
                    "velocity": 0.905511811023622,
                },
                {
                    "duration": 0.41666600000002063,
                    "durationTicks": 128,
                    "midi": 76,
                    "name": "E5",
                    "ticks": 126464,
                    "time": 411.666008,
                    "velocity": 0.9291338582677166,
                },
                {
                    "duration": 0.41666600000002063,
                    "durationTicks": 128,
                    "midi": 84,
                    "name": "C6",
                    "ticks": 126464,
                    "time": 411.666008,
                    "velocity": 0.9291338582677166,
                },
                {
                    "duration": 0.8333319999999844,
                    "durationTicks": 256,
                    "midi": 74,
                    "name": "D5",
                    "ticks": 128000,
                    "time": 416.666,
                    "velocity": 0.8031496062992126,
                },
                {
                    "duration": 0.8333319999999844,
                    "durationTicks": 256,
                    "midi": 83,
                    "name": "B5",
                    "ticks": 128000,
                    "time": 416.666,
                    "velocity": 0.8031496062992126,
                },
                {
                    "duration": 0.24739543750001758,
                    "durationTicks": 76,
                    "midi": 72,
                    "name": "C5",
                    "ticks": 128256,
                    "time": 417.499332,
                    "velocity": 0.8031496062992126,
                },
                {
                    "duration": 0.24739543750001758,
                    "durationTicks": 76,
                    "midi": 81,
                    "name": "A5",
                    "ticks": 128256,
                    "time": 417.499332,
                    "velocity": 0.8031496062992126,
                },
                {
                    "duration": 0.24739543749996074,
                    "durationTicks": 76,
                    "midi": 74,
                    "name": "D5",
                    "ticks": 128384,
                    "time": 417.915998,
                    "velocity": 0.9212598425196851,
                },
                {
                    "duration": 0.24739543749996074,
                    "durationTicks": 76,
                    "midi": 83,
                    "name": "B5",
                    "ticks": 128384,
                    "time": 417.915998,
                    "velocity": 0.9212598425196851,
                },
                {
                    "duration": 0.41666600000002063,
                    "durationTicks": 128,
                    "midi": 76,
                    "name": "E5",
                    "ticks": 128512,
                    "time": 418.33266399999997,
                    "velocity": 0.9448818897637795,
                },
                {
                    "duration": 0.41666600000002063,
                    "durationTicks": 128,
                    "midi": 84,
                    "name": "C6",
                    "ticks": 128512,
                    "time": 418.33266399999997,
                    "velocity": 0.9448818897637795,
                },
                {
                    "duration": 0.8333320000000413,
                    "durationTicks": 256,
                    "midi": 80,
                    "name": "G#5",
                    "ticks": 129536,
                    "time": 421.66599199999996,
                    "velocity": 0.30708661417322836,
                },
                {
                    "duration": 0.24739543749996074,
                    "durationTicks": 76,
                    "midi": 78,
                    "name": "F#5",
                    "ticks": 129792,
                    "time": 422.499324,
                    "velocity": 0.3700787401574803,
                },
                {
                    "duration": 0.24739543750001758,
                    "durationTicks": 76,
                    "midi": 80,
                    "name": "G#5",
                    "ticks": 129920,
                    "time": 422.91598999999997,
                    "velocity": 0.3700787401574803,
                },
                {
                    "duration": 0.8333319999999844,
                    "durationTicks": 256,
                    "midi": 81,
                    "name": "A5",
                    "ticks": 130048,
                    "time": 423.332656,
                    "velocity": 0.28346456692913385,
                },
                {
                    "duration": 0.24739543750001758,
                    "durationTicks": 76,
                    "midi": 81,
                    "name": "A5",
                    "ticks": 130304,
                    "time": 424.16598799999997,
                    "velocity": 0.3228346456692913,
                },
                {
                    "duration": 0.23437462499998674,
                    "durationTicks": 72,
                    "midi": 81,
                    "name": "A5",
                    "ticks": 130432,
                    "time": 424.582654,
                    "velocity": 0.2755905511811024,
                },
                {
                    "duration": 0.49804607812501445,
                    "durationTicks": 153,
                    "midi": 80,
                    "name": "G#5",
                    "ticks": 130560,
                    "time": 424.99931999999995,
                    "velocity": 0.2677165354330709,
                },
                {
                    "duration": 0.47200445312495276,
                    "durationTicks": 145,
                    "midi": 80,
                    "name": "G#5",
                    "ticks": 130816,
                    "time": 425.832652,
                    "velocity": 0.2992125984251969,
                },
                {
                    "duration": 0.8333319999999844,
                    "durationTicks": 256,
                    "midi": 71,
                    "name": "B4",
                    "ticks": 131072,
                    "time": 426.665984,
                    "velocity": 0.18110236220472442,
                },
                {
                    "duration": 0.24739543750001758,
                    "durationTicks": 76,
                    "midi": 71,
                    "name": "B4",
                    "ticks": 131328,
                    "time": 427.49931599999996,
                    "velocity": 0.23622047244094488,
                },
                {
                    "duration": 0.23437462499998674,
                    "durationTicks": 72,
                    "midi": 71,
                    "name": "B4",
                    "ticks": 131456,
                    "time": 427.915982,
                    "velocity": 0.29133858267716534,
                },
                {
                    "duration": 0.49804607812501445,
                    "durationTicks": 153,
                    "midi": 72,
                    "name": "C5",
                    "ticks": 131584,
                    "time": 428.33264799999995,
                    "velocity": 0.29133858267716534,
                },
                {
                    "duration": 0.4720044531250096,
                    "durationTicks": 145,
                    "midi": 72,
                    "name": "C5",
                    "ticks": 131840,
                    "time": 429.16598,
                    "velocity": 0.28346456692913385,
                },
                {
                    "duration": 0.8333319999999844,
                    "durationTicks": 256,
                    "midi": 79,
                    "name": "G5",
                    "ticks": 134144,
                    "time": 436.66596799999996,
                    "velocity": 0.31496062992125984,
                },
                {
                    "duration": 0.2506506406250537,
                    "durationTicks": 77,
                    "midi": 79,
                    "name": "G5",
                    "ticks": 134400,
                    "time": 437.49929999999995,
                    "velocity": 0.29133858267716534,
                },
                {
                    "duration": 0.23437462499998674,
                    "durationTicks": 72,
                    "midi": 81,
                    "name": "A5",
                    "ticks": 134528,
                    "time": 437.91596599999997,
                    "velocity": 0.33858267716535434,
                },
                {
                    "duration": 0.4980460781249576,
                    "durationTicks": 153,
                    "midi": 83,
                    "name": "B5",
                    "ticks": 134656,
                    "time": 438.332632,
                    "velocity": 0.30708661417322836,
                },
                {
                    "duration": 0.4720044531250096,
                    "durationTicks": 145,
                    "midi": 83,
                    "name": "B5",
                    "ticks": 134912,
                    "time": 439.165964,
                    "velocity": 0.29133858267716534,
                },
                {
                    "duration": 0.8333320000000413,
                    "durationTicks": 256,
                    "midi": 74,
                    "name": "D5",
                    "ticks": 135168,
                    "time": 439.99929599999996,
                    "velocity": 0.2204724409448819,
                },
                {
                    "duration": 0.24739543749996074,
                    "durationTicks": 76,
                    "midi": 74,
                    "name": "D5",
                    "ticks": 135424,
                    "time": 440.832628,
                    "velocity": 0.28346456692913385,
                },
                {
                    "duration": 0.23437462499998674,
                    "durationTicks": 72,
                    "midi": 74,
                    "name": "D5",
                    "ticks": 135552,
                    "time": 441.24929399999996,
                    "velocity": 0.2992125984251969,
                },
                {
                    "duration": 0.5078116875000092,
                    "durationTicks": 156,
                    "midi": 73,
                    "name": "C#5",
                    "ticks": 135680,
                    "time": 441.66596,
                    "velocity": 0.28346456692913385,
                },
                {
                    "duration": 0.4720044531250096,
                    "durationTicks": 145,
                    "midi": 72,
                    "name": "C5",
                    "ticks": 135936,
                    "time": 442.49929199999997,
                    "velocity": 0.2755905511811024,
                },
                {
                    "duration": 0.8333319999999844,
                    "durationTicks": 256,
                    "midi": 76,
                    "name": "E5",
                    "ticks": 138240,
                    "time": 449.99928,
                    "velocity": 0.31496062992125984,
                },
                {
                    "duration": 0.24739543750001758,
                    "durationTicks": 76,
                    "midi": 78,
                    "name": "F#5",
                    "ticks": 138496,
                    "time": 450.832612,
                    "velocity": 0.2677165354330709,
                },
                {
                    "duration": 0.24739543750001758,
                    "durationTicks": 76,
                    "midi": 76,
                    "name": "E5",
                    "ticks": 138496,
                    "time": 450.832612,
                    "velocity": 0.28346456692913385,
                },
                {
                    "duration": 0.24739543750001758,
                    "durationTicks": 76,
                    "midi": 80,
                    "name": "G#5",
                    "ticks": 138624,
                    "time": 451.24927799999995,
                    "velocity": 0.28346456692913385,
                },
                {
                    "duration": 0.24739543750001758,
                    "durationTicks": 76,
                    "midi": 76,
                    "name": "E5",
                    "ticks": 138624,
                    "time": 451.24927799999995,
                    "velocity": 0.28346456692913385,
                },
                {
                    "duration": 0.8333319999999844,
                    "durationTicks": 256,
                    "midi": 81,
                    "name": "A5",
                    "ticks": 138752,
                    "time": 451.66594399999997,
                    "velocity": 0.29133858267716534,
                },
                {
                    "duration": 0.8333319999999844,
                    "durationTicks": 256,
                    "midi": 76,
                    "name": "E5",
                    "ticks": 138752,
                    "time": 451.66594399999997,
                    "velocity": 0.2755905511811024,
                },
                {
                    "duration": 4.713257499999997,
                    "durationTicks": 1152,
                    "midi": 72,
                    "name": "C5",
                    "ticks": 140800,
                    "time": 458.33259999999996,
                    "velocity": 0.6771653543307087,
                },
                {
                    "duration": 4.713257499999997,
                    "durationTicks": 1152,
                    "midi": 76,
                    "name": "E5",
                    "ticks": 140800,
                    "time": 458.33259999999996,
                    "velocity": 0.6771653543307087,
                },
            ],
            "endOfTrackTicks": 141953,
        },
        {
            "channel": 2,
            "controlChanges": {
                "7": [
                    {"number": 7, "ticks": 0, "time": 0, "value": 0.6456692913385826},
                    {"number": 7, "ticks": 0, "time": 0, "value": 0.7480314960629921},
                    {
                        "number": 7,
                        "ticks": 225,
                        "time": 0.732420703125,
                        "value": 0.6692913385826772,
                    },
                    {
                        "number": 7,
                        "ticks": 345,
                        "time": 1.1230450781249999,
                        "value": 0.5905511811023622,
                    },
                    {
                        "number": 7,
                        "ticks": 512,
                        "time": 1.666664,
                        "value": 0.5118110236220472,
                    },
                    {
                        "number": 7,
                        "ticks": 837,
                        "time": 2.724605015625,
                        "value": 0.4330708661417323,
                    },
                    {
                        "number": 7,
                        "ticks": 1023,
                        "time": 3.3300727968749997,
                        "value": 0.3543307086614173,
                    },
                    {
                        "number": 7,
                        "ticks": 1144,
                        "time": 3.7239523749999996,
                        "value": 0.2755905511811024,
                    },
                    {
                        "number": 7,
                        "ticks": 1536,
                        "time": 4.999992,
                        "value": 0.47244094488188976,
                    },
                    {
                        "number": 7,
                        "ticks": 140800,
                        "time": 458.33259999999996,
                        "value": 0.7480314960629921,
                    },
                    {
                        "number": 7,
                        "ticks": 140928,
                        "time": 458.81647,
                        "value": 0.6692913385826772,
                    },
                    {
                        "number": 7,
                        "ticks": 141056,
                        "time": 459.30033999999995,
                        "value": 0.5905511811023622,
                    },
                    {
                        "number": 7,
                        "ticks": 141312,
                        "time": 460.26807999999994,
                        "value": 0.47244094488188976,
                    },
                    {
                        "number": 7,
                        "ticks": 141477,
                        "time": 460.9842257617187,
                        "value": 0.3543307086614173,
                    },
                    {
                        "number": 7,
                        "ticks": 141824,
                        "time": 462.49030199999993,
                        "value": 0.23622047244094488,
                    },
                    {
                        "number": 7,
                        "ticks": 141952,
                        "time": 463.04585749999995,
                        "value": 0.5118110236220472,
                    },
                ],
                "10": [
                    {"number": 10, "ticks": 0, "time": 0, "value": 0.47244094488188976}
                ],
                "64": [{"number": 64, "ticks": 0, "time": 0, "value": 0}],
                "91": [
                    {"number": 91, "ticks": 0, "time": 0, "value": 0.44881889763779526}
                ],
                "121": [{"number": 121, "ticks": 0, "time": 0, "value": 0}],
            },
            "pitchBends": [],
            "instrument": {"family": "reed", "number": 71, "name": "clarinet"},
            "name": "2 Clarinets in A",
            "notes": [
                {
                    "duration": 4.16666,
                    "durationTicks": 1280,
                    "midi": 64,
                    "name": "E4",
                    "ticks": 0,
                    "time": 0,
                    "velocity": 0.5511811023622047,
                },
                {
                    "duration": 4.16666,
                    "durationTicks": 1280,
                    "midi": 69,
                    "name": "A4",
                    "ticks": 0,
                    "time": 0,
                    "velocity": 0.5511811023622047,
                },
                {
                    "duration": 0.8333319999999986,
                    "durationTicks": 256,
                    "midi": 64,
                    "name": "E4",
                    "ticks": 37888,
                    "time": 123.333136,
                    "velocity": 0.7716535433070866,
                },
                {
                    "duration": 0.8333319999999986,
                    "durationTicks": 256,
                    "midi": 76,
                    "name": "E5",
                    "ticks": 37888,
                    "time": 123.333136,
                    "velocity": 0.7716535433070866,
                },
                {
                    "duration": 0.24739543749998916,
                    "durationTicks": 76,
                    "midi": 64,
                    "name": "E4",
                    "ticks": 38144,
                    "time": 124.166468,
                    "velocity": 0.7480314960629921,
                },
                {
                    "duration": 0.24739543749998916,
                    "durationTicks": 76,
                    "midi": 76,
                    "name": "E5",
                    "ticks": 38144,
                    "time": 124.166468,
                    "velocity": 0.7480314960629921,
                },
                {
                    "duration": 0.24739543750000337,
                    "durationTicks": 76,
                    "midi": 64,
                    "name": "E4",
                    "ticks": 38272,
                    "time": 124.58313399999999,
                    "velocity": 0.7795275590551181,
                },
                {
                    "duration": 0.24739543750000337,
                    "durationTicks": 76,
                    "midi": 76,
                    "name": "E5",
                    "ticks": 38272,
                    "time": 124.58313399999999,
                    "velocity": 0.7795275590551181,
                },
                {
                    "duration": 0.49804607812500024,
                    "durationTicks": 153,
                    "midi": 64,
                    "name": "E4",
                    "ticks": 38400,
                    "time": 124.9998,
                    "velocity": 0.7559055118110236,
                },
                {
                    "duration": 0.49804607812500024,
                    "durationTicks": 153,
                    "midi": 76,
                    "name": "E5",
                    "ticks": 38400,
                    "time": 124.9998,
                    "velocity": 0.7559055118110236,
                },
                {
                    "duration": 0.4720044531249954,
                    "durationTicks": 145,
                    "midi": 64,
                    "name": "E4",
                    "ticks": 38656,
                    "time": 125.83313199999999,
                    "velocity": 0.7716535433070866,
                },
                {
                    "duration": 0.4720044531249954,
                    "durationTicks": 145,
                    "midi": 76,
                    "name": "E5",
                    "ticks": 38656,
                    "time": 125.83313199999999,
                    "velocity": 0.7716535433070866,
                },
                {
                    "duration": 0.8333319999999986,
                    "durationTicks": 256,
                    "midi": 64,
                    "name": "E4",
                    "ticks": 38912,
                    "time": 126.66646399999999,
                    "velocity": 0.7874015748031497,
                },
                {
                    "duration": 0.8333319999999986,
                    "durationTicks": 256,
                    "midi": 76,
                    "name": "E5",
                    "ticks": 38912,
                    "time": 126.66646399999999,
                    "velocity": 0.7874015748031497,
                },
                {
                    "duration": 0.24739543750000337,
                    "durationTicks": 76,
                    "midi": 64,
                    "name": "E4",
                    "ticks": 39168,
                    "time": 127.49979599999999,
                    "velocity": 0.7559055118110236,
                },
                {
                    "duration": 0.24739543750000337,
                    "durationTicks": 76,
                    "midi": 76,
                    "name": "E5",
                    "ticks": 39168,
                    "time": 127.49979599999999,
                    "velocity": 0.7559055118110236,
                },
                {
                    "duration": 0.24739543749998916,
                    "durationTicks": 76,
                    "midi": 64,
                    "name": "E4",
                    "ticks": 39296,
                    "time": 127.916462,
                    "velocity": 0.7952755905511811,
                },
                {
                    "duration": 0.24739543749998916,
                    "durationTicks": 76,
                    "midi": 76,
                    "name": "E5",
                    "ticks": 39296,
                    "time": 127.916462,
                    "velocity": 0.7952755905511811,
                },
                {
                    "duration": 0.49804607812501445,
                    "durationTicks": 153,
                    "midi": 64,
                    "name": "E4",
                    "ticks": 39424,
                    "time": 128.333128,
                    "velocity": 0.7401574803149606,
                },
                {
                    "duration": 0.49804607812501445,
                    "durationTicks": 153,
                    "midi": 76,
                    "name": "E5",
                    "ticks": 39424,
                    "time": 128.333128,
                    "velocity": 0.7401574803149606,
                },
                {
                    "duration": 0.4720044531249812,
                    "durationTicks": 145,
                    "midi": 64,
                    "name": "E4",
                    "ticks": 39680,
                    "time": 129.16646,
                    "velocity": 0.7795275590551181,
                },
                {
                    "duration": 0.4720044531249812,
                    "durationTicks": 145,
                    "midi": 76,
                    "name": "E5",
                    "ticks": 39680,
                    "time": 129.16646,
                    "velocity": 0.7795275590551181,
                },
                {
                    "duration": 0.8333320000000128,
                    "durationTicks": 256,
                    "midi": 64,
                    "name": "E4",
                    "ticks": 39936,
                    "time": 129.99979199999999,
                    "velocity": 0.7716535433070866,
                },
                {
                    "duration": 0.8333320000000128,
                    "durationTicks": 256,
                    "midi": 76,
                    "name": "E5",
                    "ticks": 39936,
                    "time": 129.99979199999999,
                    "velocity": 0.7716535433070866,
                },
                {
                    "duration": 0.24739543749998916,
                    "durationTicks": 76,
                    "midi": 64,
                    "name": "E4",
                    "ticks": 40192,
                    "time": 130.833124,
                    "velocity": 0.7559055118110236,
                },
                {
                    "duration": 0.24739543749998916,
                    "durationTicks": 76,
                    "midi": 76,
                    "name": "E5",
                    "ticks": 40192,
                    "time": 130.833124,
                    "velocity": 0.7559055118110236,
                },
                {
                    "duration": 0.24739543749998916,
                    "durationTicks": 76,
                    "midi": 66,
                    "name": "F#4",
                    "ticks": 40320,
                    "time": 131.24979,
                    "velocity": 0.7874015748031497,
                },
                {
                    "duration": 0.24739543749998916,
                    "durationTicks": 76,
                    "midi": 78,
                    "name": "F#5",
                    "ticks": 40320,
                    "time": 131.24979,
                    "velocity": 0.7874015748031497,
                },
                {
                    "duration": 0.49804607812501445,
                    "durationTicks": 153,
                    "midi": 67,
                    "name": "G4",
                    "ticks": 40448,
                    "time": 131.66645599999998,
                    "velocity": 0.8188976377952756,
                },
                {
                    "duration": 0.49804607812501445,
                    "durationTicks": 153,
                    "midi": 79,
                    "name": "G5",
                    "ticks": 40448,
                    "time": 131.66645599999998,
                    "velocity": 0.8188976377952756,
                },
                {
                    "duration": 0.4720044531249812,
                    "durationTicks": 145,
                    "midi": 67,
                    "name": "G4",
                    "ticks": 40704,
                    "time": 132.499788,
                    "velocity": 0.7480314960629921,
                },
                {
                    "duration": 0.4720044531249812,
                    "durationTicks": 145,
                    "midi": 79,
                    "name": "G5",
                    "ticks": 40704,
                    "time": 132.499788,
                    "velocity": 0.7480314960629921,
                },
                {
                    "duration": 0.8333320000000128,
                    "durationTicks": 256,
                    "midi": 67,
                    "name": "G4",
                    "ticks": 40960,
                    "time": 133.33311999999998,
                    "velocity": 0.7637795275590551,
                },
                {
                    "duration": 0.8333320000000128,
                    "durationTicks": 256,
                    "midi": 79,
                    "name": "G5",
                    "ticks": 40960,
                    "time": 133.33311999999998,
                    "velocity": 0.7637795275590551,
                },
                {
                    "duration": 0.24739543749998916,
                    "durationTicks": 76,
                    "midi": 67,
                    "name": "G4",
                    "ticks": 41216,
                    "time": 134.166452,
                    "velocity": 0.7559055118110236,
                },
                {
                    "duration": 0.24739543749998916,
                    "durationTicks": 76,
                    "midi": 79,
                    "name": "G5",
                    "ticks": 41216,
                    "time": 134.166452,
                    "velocity": 0.7559055118110236,
                },
                {
                    "duration": 0.24739543750001758,
                    "durationTicks": 76,
                    "midi": 67,
                    "name": "G4",
                    "ticks": 41344,
                    "time": 134.58311799999998,
                    "velocity": 0.7480314960629921,
                },
                {
                    "duration": 0.24739543750001758,
                    "durationTicks": 76,
                    "midi": 79,
                    "name": "G5",
                    "ticks": 41344,
                    "time": 134.58311799999998,
                    "velocity": 0.7480314960629921,
                },
                {
                    "duration": 0.8333320000000128,
                    "durationTicks": 256,
                    "midi": 67,
                    "name": "G4",
                    "ticks": 41472,
                    "time": 134.99978399999998,
                    "velocity": 0.7795275590551181,
                },
                {
                    "duration": 0.8333320000000128,
                    "durationTicks": 256,
                    "midi": 79,
                    "name": "G5",
                    "ticks": 41472,
                    "time": 134.99978399999998,
                    "velocity": 0.7795275590551181,
                },
                {
                    "duration": 0.8333319999999844,
                    "durationTicks": 256,
                    "midi": 67,
                    "name": "G4",
                    "ticks": 41984,
                    "time": 136.666448,
                    "velocity": 0.7165354330708661,
                },
                {
                    "duration": 0.8333319999999844,
                    "durationTicks": 256,
                    "midi": 79,
                    "name": "G5",
                    "ticks": 41984,
                    "time": 136.666448,
                    "velocity": 0.7165354330708661,
                },
                {
                    "duration": 0.24739543749998916,
                    "durationTicks": 76,
                    "midi": 67,
                    "name": "G4",
                    "ticks": 42240,
                    "time": 137.49978,
                    "velocity": 0.7480314960629921,
                },
                {
                    "duration": 0.24739543749998916,
                    "durationTicks": 76,
                    "midi": 79,
                    "name": "G5",
                    "ticks": 42240,
                    "time": 137.49978,
                    "velocity": 0.7480314960629921,
                },
                {
                    "duration": 0.24739543750001758,
                    "durationTicks": 76,
                    "midi": 69,
                    "name": "A4",
                    "ticks": 42368,
                    "time": 137.91644599999998,
                    "velocity": 0.8110236220472441,
                },
                {
                    "duration": 0.24739543750001758,
                    "durationTicks": 76,
                    "midi": 81,
                    "name": "A5",
                    "ticks": 42368,
                    "time": 137.91644599999998,
                    "velocity": 0.8110236220472441,
                },
                {
                    "duration": 0.498046078124986,
                    "durationTicks": 153,
                    "midi": 71,
                    "name": "B4",
                    "ticks": 42496,
                    "time": 138.333112,
                    "velocity": 0.7716535433070866,
                },
                {
                    "duration": 0.498046078124986,
                    "durationTicks": 153,
                    "midi": 83,
                    "name": "B5",
                    "ticks": 42496,
                    "time": 138.333112,
                    "velocity": 0.7716535433070866,
                },
                {
                    "duration": 0.4720044531250096,
                    "durationTicks": 145,
                    "midi": 71,
                    "name": "B4",
                    "ticks": 42752,
                    "time": 139.16644399999998,
                    "velocity": 0.7716535433070866,
                },
                {
                    "duration": 0.4720044531250096,
                    "durationTicks": 145,
                    "midi": 83,
                    "name": "B5",
                    "ticks": 42752,
                    "time": 139.16644399999998,
                    "velocity": 0.7716535433070866,
                },
                {
                    "duration": 0.8333319999999844,
                    "durationTicks": 256,
                    "midi": 66,
                    "name": "F#4",
                    "ticks": 43008,
                    "time": 139.999776,
                    "velocity": 0.6456692913385826,
                },
                {
                    "duration": 0.8333319999999844,
                    "durationTicks": 256,
                    "midi": 78,
                    "name": "F#5",
                    "ticks": 43008,
                    "time": 139.999776,
                    "velocity": 0.6456692913385826,
                },
                {
                    "duration": 0.24739543750001758,
                    "durationTicks": 76,
                    "midi": 66,
                    "name": "F#4",
                    "ticks": 43264,
                    "time": 140.83310799999998,
                    "velocity": 0.7165354330708661,
                },
                {
                    "duration": 0.24739543750001758,
                    "durationTicks": 76,
                    "midi": 78,
                    "name": "F#5",
                    "ticks": 43264,
                    "time": 140.83310799999998,
                    "velocity": 0.7165354330708661,
                },
                {
                    "duration": 0.24739543749998916,
                    "durationTicks": 76,
                    "midi": 68,
                    "name": "G#4",
                    "ticks": 43392,
                    "time": 141.249774,
                    "velocity": 0.84251968503937,
                },
                {
                    "duration": 0.24739543749998916,
                    "durationTicks": 76,
                    "midi": 80,
                    "name": "G#5",
                    "ticks": 43392,
                    "time": 141.249774,
                    "velocity": 0.84251968503937,
                },
                {
                    "duration": 0.498046078124986,
                    "durationTicks": 153,
                    "midi": 69,
                    "name": "A4",
                    "ticks": 43520,
                    "time": 141.66644,
                    "velocity": 0.8031496062992126,
                },
                {
                    "duration": 0.498046078124986,
                    "durationTicks": 153,
                    "midi": 81,
                    "name": "A5",
                    "ticks": 43520,
                    "time": 141.66644,
                    "velocity": 0.8031496062992126,
                },
                {
                    "duration": 0.4720044531250096,
                    "durationTicks": 145,
                    "midi": 69,
                    "name": "A4",
                    "ticks": 43776,
                    "time": 142.49977199999998,
                    "velocity": 0.7637795275590551,
                },
                {
                    "duration": 0.4720044531250096,
                    "durationTicks": 145,
                    "midi": 81,
                    "name": "A5",
                    "ticks": 43776,
                    "time": 142.49977199999998,
                    "velocity": 0.7637795275590551,
                },
                {
                    "duration": 0.8333319999999844,
                    "durationTicks": 256,
                    "midi": 64,
                    "name": "E4",
                    "ticks": 44032,
                    "time": 143.333104,
                    "velocity": 0.6535433070866141,
                },
                {
                    "duration": 0.8333319999999844,
                    "durationTicks": 256,
                    "midi": 76,
                    "name": "E5",
                    "ticks": 44032,
                    "time": 143.333104,
                    "velocity": 0.6535433070866141,
                },
                {
                    "duration": 0.24739543750001758,
                    "durationTicks": 76,
                    "midi": 64,
                    "name": "E4",
                    "ticks": 44288,
                    "time": 144.16643599999998,
                    "velocity": 0.7637795275590551,
                },
                {
                    "duration": 0.24739543750001758,
                    "durationTicks": 76,
                    "midi": 76,
                    "name": "E5",
                    "ticks": 44288,
                    "time": 144.16643599999998,
                    "velocity": 0.7637795275590551,
                },
                {
                    "duration": 0.24739543749998916,
                    "durationTicks": 76,
                    "midi": 64,
                    "name": "E4",
                    "ticks": 44416,
                    "time": 144.583102,
                    "velocity": 0.7637795275590551,
                },
                {
                    "duration": 0.24739543749998916,
                    "durationTicks": 76,
                    "midi": 76,
                    "name": "E5",
                    "ticks": 44416,
                    "time": 144.583102,
                    "velocity": 0.7637795275590551,
                },
                {
                    "duration": 0.498046078124986,
                    "durationTicks": 153,
                    "midi": 64,
                    "name": "E4",
                    "ticks": 44544,
                    "time": 144.999768,
                    "velocity": 0.7480314960629921,
                },
                {
                    "duration": 0.498046078124986,
                    "durationTicks": 153,
                    "midi": 76,
                    "name": "E5",
                    "ticks": 44544,
                    "time": 144.999768,
                    "velocity": 0.7480314960629921,
                },
                {
                    "duration": 0.4720044531249812,
                    "durationTicks": 145,
                    "midi": 64,
                    "name": "E4",
                    "ticks": 44800,
                    "time": 145.8331,
                    "velocity": 0.7716535433070866,
                },
                {
                    "duration": 0.4720044531249812,
                    "durationTicks": 145,
                    "midi": 76,
                    "name": "E5",
                    "ticks": 44800,
                    "time": 145.8331,
                    "velocity": 0.7716535433070866,
                },
                {
                    "duration": 0.8333320000000128,
                    "durationTicks": 256,
                    "midi": 64,
                    "name": "E4",
                    "ticks": 45056,
                    "time": 146.666432,
                    "velocity": 0.7401574803149606,
                },
                {
                    "duration": 0.8333320000000128,
                    "durationTicks": 256,
                    "midi": 76,
                    "name": "E5",
                    "ticks": 45056,
                    "time": 146.666432,
                    "velocity": 0.7401574803149606,
                },
                {
                    "duration": 0.24739543749998916,
                    "durationTicks": 76,
                    "midi": 66,
                    "name": "F#4",
                    "ticks": 45312,
                    "time": 147.499764,
                    "velocity": 0.8110236220472441,
                },
                {
                    "duration": 0.24739543749998916,
                    "durationTicks": 76,
                    "midi": 78,
                    "name": "F#5",
                    "ticks": 45312,
                    "time": 147.499764,
                    "velocity": 0.8110236220472441,
                },
                {
                    "duration": 0.24739543749998916,
                    "durationTicks": 76,
                    "midi": 68,
                    "name": "G#4",
                    "ticks": 45440,
                    "time": 147.91643,
                    "velocity": 0.8031496062992126,
                },
                {
                    "duration": 0.24739543749998916,
                    "durationTicks": 76,
                    "midi": 80,
                    "name": "G#5",
                    "ticks": 45440,
                    "time": 147.91643,
                    "velocity": 0.8031496062992126,
                },
                {
                    "duration": 0.8333320000000128,
                    "durationTicks": 256,
                    "midi": 69,
                    "name": "A4",
                    "ticks": 45568,
                    "time": 148.33309599999998,
                    "velocity": 0.8188976377952756,
                },
                {
                    "duration": 0.8333320000000128,
                    "durationTicks": 256,
                    "midi": 81,
                    "name": "A5",
                    "ticks": 45568,
                    "time": 148.33309599999998,
                    "velocity": 0.8188976377952756,
                },
                {
                    "duration": 0.8333320000000128,
                    "durationTicks": 256,
                    "midi": 67,
                    "name": "G4",
                    "ticks": 46080,
                    "time": 149.99975999999998,
                    "velocity": 0.5905511811023622,
                },
                {
                    "duration": 0.8333320000000128,
                    "durationTicks": 256,
                    "midi": 79,
                    "name": "G5",
                    "ticks": 46080,
                    "time": 149.99975999999998,
                    "velocity": 0.5905511811023622,
                },
                {
                    "duration": 0.24739543749998916,
                    "durationTicks": 76,
                    "midi": 67,
                    "name": "G4",
                    "ticks": 46336,
                    "time": 150.833092,
                    "velocity": 0.6692913385826772,
                },
                {
                    "duration": 0.24739543749998916,
                    "durationTicks": 76,
                    "midi": 79,
                    "name": "G5",
                    "ticks": 46336,
                    "time": 150.833092,
                    "velocity": 0.6692913385826772,
                },
                {
                    "duration": 0.24739543749998916,
                    "durationTicks": 76,
                    "midi": 69,
                    "name": "A4",
                    "ticks": 46464,
                    "time": 151.24975799999999,
                    "velocity": 0.7165354330708661,
                },
                {
                    "duration": 0.24739543749998916,
                    "durationTicks": 76,
                    "midi": 81,
                    "name": "A5",
                    "ticks": 46464,
                    "time": 151.24975799999999,
                    "velocity": 0.7165354330708661,
                },
                {
                    "duration": 0.49804607812501445,
                    "durationTicks": 153,
                    "midi": 71,
                    "name": "B4",
                    "ticks": 46592,
                    "time": 151.66642399999998,
                    "velocity": 0.7086614173228346,
                },
                {
                    "duration": 0.49804607812501445,
                    "durationTicks": 153,
                    "midi": 83,
                    "name": "B5",
                    "ticks": 46592,
                    "time": 151.66642399999998,
                    "velocity": 0.7086614173228346,
                },
                {
                    "duration": 0.4720044531250096,
                    "durationTicks": 145,
                    "midi": 71,
                    "name": "B4",
                    "ticks": 46848,
                    "time": 152.499756,
                    "velocity": 0.6850393700787402,
                },
                {
                    "duration": 0.4720044531250096,
                    "durationTicks": 145,
                    "midi": 83,
                    "name": "B5",
                    "ticks": 46848,
                    "time": 152.499756,
                    "velocity": 0.6850393700787402,
                },
                {
                    "duration": 0.8333320000000128,
                    "durationTicks": 256,
                    "midi": 66,
                    "name": "F#4",
                    "ticks": 47104,
                    "time": 153.33308799999998,
                    "velocity": 0.5669291338582677,
                },
                {
                    "duration": 0.8333320000000128,
                    "durationTicks": 256,
                    "midi": 78,
                    "name": "F#5",
                    "ticks": 47104,
                    "time": 153.33308799999998,
                    "velocity": 0.5669291338582677,
                },
                {
                    "duration": 0.24739543749998916,
                    "durationTicks": 76,
                    "midi": 66,
                    "name": "F#4",
                    "ticks": 47360,
                    "time": 154.16642,
                    "velocity": 0.6692913385826772,
                },
                {
                    "duration": 0.24739543749998916,
                    "durationTicks": 76,
                    "midi": 78,
                    "name": "F#5",
                    "ticks": 47360,
                    "time": 154.16642,
                    "velocity": 0.6692913385826772,
                },
                {
                    "duration": 0.24739543750001758,
                    "durationTicks": 76,
                    "midi": 68,
                    "name": "G#4",
                    "ticks": 47488,
                    "time": 154.58308599999998,
                    "velocity": 0.6929133858267716,
                },
                {
                    "duration": 0.24739543750001758,
                    "durationTicks": 76,
                    "midi": 80,
                    "name": "G#5",
                    "ticks": 47488,
                    "time": 154.58308599999998,
                    "velocity": 0.6929133858267716,
                },
                {
                    "duration": 0.498046078124986,
                    "durationTicks": 153,
                    "midi": 69,
                    "name": "A4",
                    "ticks": 47616,
                    "time": 154.999752,
                    "velocity": 0.7086614173228346,
                },
                {
                    "duration": 0.498046078124986,
                    "durationTicks": 153,
                    "midi": 81,
                    "name": "A5",
                    "ticks": 47616,
                    "time": 154.999752,
                    "velocity": 0.7086614173228346,
                },
                {
                    "duration": 0.4720044531250096,
                    "durationTicks": 145,
                    "midi": 69,
                    "name": "A4",
                    "ticks": 47872,
                    "time": 155.83308399999999,
                    "velocity": 0.6456692913385826,
                },
                {
                    "duration": 0.4720044531250096,
                    "durationTicks": 145,
                    "midi": 81,
                    "name": "A5",
                    "ticks": 47872,
                    "time": 155.83308399999999,
                    "velocity": 0.6456692913385826,
                },
                {
                    "duration": 0.8333319999999844,
                    "durationTicks": 256,
                    "midi": 64,
                    "name": "E4",
                    "ticks": 48128,
                    "time": 156.666416,
                    "velocity": 0.47244094488188976,
                },
                {
                    "duration": 0.8333319999999844,
                    "durationTicks": 256,
                    "midi": 76,
                    "name": "E5",
                    "ticks": 48128,
                    "time": 156.666416,
                    "velocity": 0.47244094488188976,
                },
                {
                    "duration": 0.24739543750001758,
                    "durationTicks": 76,
                    "midi": 64,
                    "name": "E4",
                    "ticks": 48384,
                    "time": 157.49974799999998,
                    "velocity": 0.5511811023622047,
                },
                {
                    "duration": 0.24739543750001758,
                    "durationTicks": 76,
                    "midi": 76,
                    "name": "E5",
                    "ticks": 48384,
                    "time": 157.49974799999998,
                    "velocity": 0.5511811023622047,
                },
                {
                    "duration": 0.24739543750001758,
                    "durationTicks": 76,
                    "midi": 64,
                    "name": "E4",
                    "ticks": 48512,
                    "time": 157.91641399999997,
                    "velocity": 0.5669291338582677,
                },
                {
                    "duration": 0.24739543750001758,
                    "durationTicks": 76,
                    "midi": 76,
                    "name": "E5",
                    "ticks": 48512,
                    "time": 157.91641399999997,
                    "velocity": 0.5669291338582677,
                },
                {
                    "duration": 0.498046078124986,
                    "durationTicks": 153,
                    "midi": 64,
                    "name": "E4",
                    "ticks": 48640,
                    "time": 158.33308,
                    "velocity": 0.5433070866141733,
                },
                {
                    "duration": 0.498046078124986,
                    "durationTicks": 153,
                    "midi": 76,
                    "name": "E5",
                    "ticks": 48640,
                    "time": 158.33308,
                    "velocity": 0.5433070866141733,
                },
                {
                    "duration": 0.4720044531250096,
                    "durationTicks": 145,
                    "midi": 64,
                    "name": "E4",
                    "ticks": 48896,
                    "time": 159.16641199999998,
                    "velocity": 0.5118110236220472,
                },
                {
                    "duration": 0.4720044531250096,
                    "durationTicks": 145,
                    "midi": 76,
                    "name": "E5",
                    "ticks": 48896,
                    "time": 159.16641199999998,
                    "velocity": 0.5118110236220472,
                },
                {
                    "duration": 0.8333319999999844,
                    "durationTicks": 256,
                    "midi": 64,
                    "name": "E4",
                    "ticks": 49152,
                    "time": 159.999744,
                    "velocity": 0.49606299212598426,
                },
                {
                    "duration": 0.8333319999999844,
                    "durationTicks": 256,
                    "midi": 76,
                    "name": "E5",
                    "ticks": 49152,
                    "time": 159.999744,
                    "velocity": 0.49606299212598426,
                },
                {
                    "duration": 0.24739543750001758,
                    "durationTicks": 76,
                    "midi": 66,
                    "name": "F#4",
                    "ticks": 49408,
                    "time": 160.83307599999998,
                    "velocity": 0.4330708661417323,
                },
                {
                    "duration": 0.24739543750001758,
                    "durationTicks": 76,
                    "midi": 78,
                    "name": "F#5",
                    "ticks": 49408,
                    "time": 160.83307599999998,
                    "velocity": 0.4330708661417323,
                },
                {
                    "duration": 0.24739543749998916,
                    "durationTicks": 76,
                    "midi": 68,
                    "name": "G#4",
                    "ticks": 49536,
                    "time": 161.249742,
                    "velocity": 0.4409448818897638,
                },
                {
                    "duration": 0.24739543749998916,
                    "durationTicks": 76,
                    "midi": 80,
                    "name": "G#5",
                    "ticks": 49536,
                    "time": 161.249742,
                    "velocity": 0.4409448818897638,
                },
                {
                    "duration": 0.8333319999999844,
                    "durationTicks": 256,
                    "midi": 69,
                    "name": "A4",
                    "ticks": 49664,
                    "time": 161.666408,
                    "velocity": 0.4409448818897638,
                },
                {
                    "duration": 0.8333319999999844,
                    "durationTicks": 256,
                    "midi": 81,
                    "name": "A5",
                    "ticks": 49664,
                    "time": 161.666408,
                    "velocity": 0.4409448818897638,
                },
                {
                    "duration": 0.8333320000000128,
                    "durationTicks": 256,
                    "midi": 71,
                    "name": "B4",
                    "ticks": 50176,
                    "time": 163.333072,
                    "velocity": 0.3464566929133858,
                },
                {
                    "duration": 0.8333320000000128,
                    "durationTicks": 256,
                    "midi": 74,
                    "name": "D5",
                    "ticks": 50176,
                    "time": 163.333072,
                    "velocity": 0.3464566929133858,
                },
                {
                    "duration": 0.24739543749998916,
                    "durationTicks": 76,
                    "midi": 71,
                    "name": "B4",
                    "ticks": 50432,
                    "time": 164.166404,
                    "velocity": 0.3700787401574803,
                },
                {
                    "duration": 0.24739543749998916,
                    "durationTicks": 76,
                    "midi": 74,
                    "name": "D5",
                    "ticks": 50432,
                    "time": 164.166404,
                    "velocity": 0.3700787401574803,
                },
                {
                    "duration": 0.24739543749998916,
                    "durationTicks": 76,
                    "midi": 71,
                    "name": "B4",
                    "ticks": 50560,
                    "time": 164.58307,
                    "velocity": 0.3700787401574803,
                },
                {
                    "duration": 0.24739543749998916,
                    "durationTicks": 76,
                    "midi": 74,
                    "name": "D5",
                    "ticks": 50560,
                    "time": 164.58307,
                    "velocity": 0.3700787401574803,
                },
                {
                    "duration": 0.8333320000000128,
                    "durationTicks": 256,
                    "midi": 69,
                    "name": "A4",
                    "ticks": 50688,
                    "time": 164.99973599999998,
                    "velocity": 0.36220472440944884,
                },
                {
                    "duration": 0.8333320000000128,
                    "durationTicks": 256,
                    "midi": 72,
                    "name": "C5",
                    "ticks": 50688,
                    "time": 164.99973599999998,
                    "velocity": 0.36220472440944884,
                },
                {
                    "duration": 1.6666639999999973,
                    "durationTicks": 512,
                    "midi": 76,
                    "name": "E5",
                    "ticks": 51456,
                    "time": 167.499732,
                    "velocity": 0.5905511811023622,
                },
                {
                    "duration": 0.8496080156249946,
                    "durationTicks": 261,
                    "midi": 73,
                    "name": "C#5",
                    "ticks": 51968,
                    "time": 169.166396,
                    "velocity": 0.5039370078740157,
                },
                {
                    "duration": 0.849608015625023,
                    "durationTicks": 261,
                    "midi": 69,
                    "name": "A4",
                    "ticks": 52224,
                    "time": 169.99972799999998,
                    "velocity": 0.4094488188976378,
                },
                {
                    "duration": 0.7910143593749979,
                    "durationTicks": 243,
                    "midi": 73,
                    "name": "C#5",
                    "ticks": 52480,
                    "time": 170.83306,
                    "velocity": 0.6062992125984252,
                },
                {
                    "duration": 0.849608015625023,
                    "durationTicks": 261,
                    "midi": 73,
                    "name": "C#5",
                    "ticks": 52736,
                    "time": 171.66639199999997,
                    "velocity": 0.5354330708661418,
                },
                {
                    "duration": 1.699216031249989,
                    "durationTicks": 522,
                    "midi": 62,
                    "name": "D4",
                    "ticks": 52992,
                    "time": 172.499724,
                    "velocity": 0.5196850393700787,
                },
                {
                    "duration": 1.699216031249989,
                    "durationTicks": 522,
                    "midi": 71,
                    "name": "B4",
                    "ticks": 52992,
                    "time": 172.499724,
                    "velocity": 0.5196850393700787,
                },
                {
                    "duration": 0.8496080156249946,
                    "durationTicks": 261,
                    "midi": 61,
                    "name": "C#4",
                    "ticks": 53504,
                    "time": 174.16638799999998,
                    "velocity": 0.5275590551181102,
                },
                {
                    "duration": 0.8496080156249946,
                    "durationTicks": 261,
                    "midi": 69,
                    "name": "A4",
                    "ticks": 53504,
                    "time": 174.16638799999998,
                    "velocity": 0.5275590551181102,
                },
                {
                    "duration": 0.8496080156249946,
                    "durationTicks": 261,
                    "midi": 59,
                    "name": "B3",
                    "ticks": 53760,
                    "time": 174.99972,
                    "velocity": 0.5590551181102362,
                },
                {
                    "duration": 0.8496080156249946,
                    "durationTicks": 261,
                    "midi": 68,
                    "name": "G#4",
                    "ticks": 53760,
                    "time": 174.99972,
                    "velocity": 0.5590551181102362,
                },
                {
                    "duration": 0.8496080156249946,
                    "durationTicks": 261,
                    "midi": 61,
                    "name": "C#4",
                    "ticks": 54016,
                    "time": 175.83305199999998,
                    "velocity": 0.6141732283464567,
                },
                {
                    "duration": 0.8496080156249946,
                    "durationTicks": 261,
                    "midi": 69,
                    "name": "A4",
                    "ticks": 54016,
                    "time": 175.83305199999998,
                    "velocity": 0.6141732283464567,
                },
                {
                    "duration": 0.8496080156249946,
                    "durationTicks": 261,
                    "midi": 62,
                    "name": "D4",
                    "ticks": 54272,
                    "time": 176.666384,
                    "velocity": 0.6456692913385826,
                },
                {
                    "duration": 0.8496080156249946,
                    "durationTicks": 261,
                    "midi": 71,
                    "name": "B4",
                    "ticks": 54272,
                    "time": 176.666384,
                    "velocity": 0.6456692913385826,
                },
                {
                    "duration": 0.8496080156249946,
                    "durationTicks": 261,
                    "midi": 64,
                    "name": "E4",
                    "ticks": 54528,
                    "time": 177.49971599999998,
                    "velocity": 0.6850393700787402,
                },
                {
                    "duration": 0.8496080156249946,
                    "durationTicks": 261,
                    "midi": 73,
                    "name": "C#5",
                    "ticks": 54528,
                    "time": 177.49971599999998,
                    "velocity": 0.6850393700787402,
                },
                {
                    "duration": 0.8496080156249946,
                    "durationTicks": 261,
                    "midi": 66,
                    "name": "F#4",
                    "ticks": 54784,
                    "time": 178.333048,
                    "velocity": 0.6692913385826772,
                },
                {
                    "duration": 0.8496080156249946,
                    "durationTicks": 261,
                    "midi": 74,
                    "name": "D5",
                    "ticks": 54784,
                    "time": 178.333048,
                    "velocity": 0.6692913385826772,
                },
                {
                    "duration": 0.849608015625023,
                    "durationTicks": 261,
                    "midi": 68,
                    "name": "G#4",
                    "ticks": 55040,
                    "time": 179.16637999999998,
                    "velocity": 0.6141732283464567,
                },
                {
                    "duration": 0.849608015625023,
                    "durationTicks": 261,
                    "midi": 76,
                    "name": "E5",
                    "ticks": 55040,
                    "time": 179.16637999999998,
                    "velocity": 0.6141732283464567,
                },
                {
                    "duration": 0.8496080156249946,
                    "durationTicks": 261,
                    "midi": 71,
                    "name": "B4",
                    "ticks": 55296,
                    "time": 179.999712,
                    "velocity": 0.4881889763779528,
                },
                {
                    "duration": 0.8496080156249946,
                    "durationTicks": 261,
                    "midi": 74,
                    "name": "D5",
                    "ticks": 55296,
                    "time": 179.999712,
                    "velocity": 0.4881889763779528,
                },
                {
                    "duration": 0.42317640625000763,
                    "durationTicks": 130,
                    "midi": 69,
                    "name": "A4",
                    "ticks": 55552,
                    "time": 180.83304399999997,
                    "velocity": 0.3779527559055118,
                },
                {
                    "duration": 0.41666600000002063,
                    "durationTicks": 128,
                    "midi": 73,
                    "name": "C#5",
                    "ticks": 55552,
                    "time": 180.83304399999997,
                    "velocity": 0.3779527559055118,
                },
                {
                    "duration": 0.3938795781249951,
                    "durationTicks": 121,
                    "midi": 73,
                    "name": "C#5",
                    "ticks": 55680,
                    "time": 181.24971,
                    "velocity": 0.49606299212598426,
                },
                {
                    "duration": 0.3938795781249951,
                    "durationTicks": 121,
                    "midi": 81,
                    "name": "A5",
                    "ticks": 55680,
                    "time": 181.24971,
                    "velocity": 0.49606299212598426,
                },
                {
                    "duration": 0.8333320000000128,
                    "durationTicks": 256,
                    "midi": 73,
                    "name": "C#5",
                    "ticks": 55808,
                    "time": 181.66637599999999,
                    "velocity": 0.49606299212598426,
                },
                {
                    "duration": 0.8496080156249946,
                    "durationTicks": 261,
                    "midi": 81,
                    "name": "A5",
                    "ticks": 55808,
                    "time": 181.66637599999999,
                    "velocity": 0.49606299212598426,
                },
                {
                    "duration": 0.8333319999999844,
                    "durationTicks": 256,
                    "midi": 73,
                    "name": "C#5",
                    "ticks": 56064,
                    "time": 182.499708,
                    "velocity": 0.4094488188976378,
                },
                {
                    "duration": 0.8496080156249946,
                    "durationTicks": 261,
                    "midi": 76,
                    "name": "E5",
                    "ticks": 56064,
                    "time": 182.499708,
                    "velocity": 0.4094488188976378,
                },
                {
                    "duration": 0.8496080156249946,
                    "durationTicks": 261,
                    "midi": 69,
                    "name": "A4",
                    "ticks": 56320,
                    "time": 183.33303999999998,
                    "velocity": 0.5039370078740157,
                },
                {
                    "duration": 0.8333320000000128,
                    "durationTicks": 256,
                    "midi": 73,
                    "name": "C#5",
                    "ticks": 56320,
                    "time": 183.33303999999998,
                    "velocity": 0.5039370078740157,
                },
                {
                    "duration": 0.7910143593749979,
                    "durationTicks": 243,
                    "midi": 73,
                    "name": "C#5",
                    "ticks": 56576,
                    "time": 184.166372,
                    "velocity": 0.6220472440944882,
                },
                {
                    "duration": 0.7910143593749979,
                    "durationTicks": 243,
                    "midi": 76,
                    "name": "E5",
                    "ticks": 56576,
                    "time": 184.166372,
                    "velocity": 0.6220472440944882,
                },
                {
                    "duration": 0.8496080156249946,
                    "durationTicks": 261,
                    "midi": 73,
                    "name": "C#5",
                    "ticks": 56832,
                    "time": 184.99970399999998,
                    "velocity": 0.5984251968503937,
                },
                {
                    "duration": 0.8496080156249946,
                    "durationTicks": 261,
                    "midi": 76,
                    "name": "E5",
                    "ticks": 56832,
                    "time": 184.99970399999998,
                    "velocity": 0.5984251968503937,
                },
                {
                    "duration": 1.699216031249989,
                    "durationTicks": 522,
                    "midi": 74,
                    "name": "D5",
                    "ticks": 57088,
                    "time": 185.833036,
                    "velocity": 0.6456692913385826,
                },
                {
                    "duration": 1.699216031249989,
                    "durationTicks": 522,
                    "midi": 78,
                    "name": "F#5",
                    "ticks": 57088,
                    "time": 185.833036,
                    "velocity": 0.6456692913385826,
                },
                {
                    "duration": 0.7910143593749979,
                    "durationTicks": 243,
                    "midi": 73,
                    "name": "C#5",
                    "ticks": 57600,
                    "time": 187.4997,
                    "velocity": 0.5511811023622047,
                },
                {
                    "duration": 0.7910143593749979,
                    "durationTicks": 243,
                    "midi": 76,
                    "name": "E5",
                    "ticks": 57600,
                    "time": 187.4997,
                    "velocity": 0.5511811023622047,
                },
                {
                    "duration": 0.849608015625023,
                    "durationTicks": 261,
                    "midi": 71,
                    "name": "B4",
                    "ticks": 57856,
                    "time": 188.33303199999997,
                    "velocity": 0.5118110236220472,
                },
                {
                    "duration": 0.849608015625023,
                    "durationTicks": 261,
                    "midi": 74,
                    "name": "D5",
                    "ticks": 57856,
                    "time": 188.33303199999997,
                    "velocity": 0.5118110236220472,
                },
                {
                    "duration": 0.8496080156249946,
                    "durationTicks": 261,
                    "midi": 69,
                    "name": "A4",
                    "ticks": 58112,
                    "time": 189.166364,
                    "velocity": 0.48031496062992124,
                },
                {
                    "duration": 0.8496080156249946,
                    "durationTicks": 261,
                    "midi": 73,
                    "name": "C#5",
                    "ticks": 58112,
                    "time": 189.166364,
                    "velocity": 0.48031496062992124,
                },
                {
                    "duration": 0.849608015625023,
                    "durationTicks": 261,
                    "midi": 68,
                    "name": "G#4",
                    "ticks": 58368,
                    "time": 189.99969599999997,
                    "velocity": 0.48031496062992124,
                },
                {
                    "duration": 0.849608015625023,
                    "durationTicks": 261,
                    "midi": 71,
                    "name": "B4",
                    "ticks": 58368,
                    "time": 189.99969599999997,
                    "velocity": 0.48031496062992124,
                },
                {
                    "duration": 0.8496080156249946,
                    "durationTicks": 261,
                    "midi": 66,
                    "name": "F#4",
                    "ticks": 58624,
                    "time": 190.83302799999998,
                    "velocity": 0.48031496062992124,
                },
                {
                    "duration": 0.8496080156249946,
                    "durationTicks": 261,
                    "midi": 75,
                    "name": "D#5",
                    "ticks": 58624,
                    "time": 190.83302799999998,
                    "velocity": 0.48031496062992124,
                },
                {
                    "duration": 1.5820287187499957,
                    "durationTicks": 486,
                    "midi": 68,
                    "name": "G#4",
                    "ticks": 58880,
                    "time": 191.66636,
                    "velocity": 0.4330708661417323,
                },
                {
                    "duration": 1.5820287187499957,
                    "durationTicks": 486,
                    "midi": 76,
                    "name": "E5",
                    "ticks": 58880,
                    "time": 191.66636,
                    "velocity": 0.4330708661417323,
                },
                {
                    "duration": 1.249998000000005,
                    "durationTicks": 384,
                    "midi": 81,
                    "name": "A5",
                    "ticks": 59392,
                    "time": 193.333024,
                    "velocity": 0.8818897637795275,
                },
                {
                    "duration": 0.4166659999999922,
                    "durationTicks": 128,
                    "midi": 81,
                    "name": "A5",
                    "ticks": 59776,
                    "time": 194.583022,
                    "velocity": 0.7874015748031497,
                },
                {
                    "duration": 0.279947468749981,
                    "durationTicks": 86,
                    "midi": 81,
                    "name": "A5",
                    "ticks": 59904,
                    "time": 194.999688,
                    "velocity": 0.7480314960629921,
                },
                {
                    "duration": 0.2604162499999916,
                    "durationTicks": 80,
                    "midi": 80,
                    "name": "G#5",
                    "ticks": 59989,
                    "time": 195.276380265625,
                    "velocity": 0.7165354330708661,
                },
                {
                    "duration": 0.16601535937499534,
                    "durationTicks": 51,
                    "midi": 78,
                    "name": "F#5",
                    "ticks": 60074,
                    "time": 195.55307253125,
                    "velocity": 0.7165354330708661,
                },
                {
                    "duration": 0.16601535937499534,
                    "durationTicks": 51,
                    "midi": 76,
                    "name": "E5",
                    "ticks": 60160,
                    "time": 195.83301999999998,
                    "velocity": 0.7244094488188977,
                },
                {
                    "duration": 0.16601535937499534,
                    "durationTicks": 51,
                    "midi": 75,
                    "name": "D#5",
                    "ticks": 60245,
                    "time": 196.10971226562498,
                    "velocity": 0.7165354330708661,
                },
                {
                    "duration": 0.16601535937499534,
                    "durationTicks": 51,
                    "midi": 73,
                    "name": "C#5",
                    "ticks": 60330,
                    "time": 196.38640453124998,
                    "velocity": 0.7322834645669292,
                },
                {
                    "duration": 0.8496080156249946,
                    "durationTicks": 261,
                    "midi": 71,
                    "name": "B4",
                    "ticks": 60416,
                    "time": 196.666352,
                    "velocity": 0.7322834645669292,
                },
                {
                    "duration": 0.3938795781250235,
                    "durationTicks": 121,
                    "midi": 73,
                    "name": "C#5",
                    "ticks": 60672,
                    "time": 197.49968399999997,
                    "velocity": 0.7795275590551181,
                },
                {
                    "duration": 0.24739543749998916,
                    "durationTicks": 76,
                    "midi": 75,
                    "name": "D#5",
                    "ticks": 60800,
                    "time": 197.91635,
                    "velocity": 0.8346456692913385,
                },
                {
                    "duration": 1.1100242656249861,
                    "durationTicks": 341,
                    "midi": 76,
                    "name": "E5",
                    "ticks": 60928,
                    "time": 198.333016,
                    "velocity": 0.8188976377952756,
                },
                {
                    "duration": 0.2799474687500094,
                    "durationTicks": 86,
                    "midi": 78,
                    "name": "F#5",
                    "ticks": 61269,
                    "time": 199.44304026562497,
                    "velocity": 0.7795275590551181,
                },
                {
                    "duration": 0.2636714531249993,
                    "durationTicks": 81,
                    "midi": 80,
                    "name": "G#5",
                    "ticks": 61354,
                    "time": 199.71973253124997,
                    "velocity": 0.8346456692913385,
                },
                {
                    "duration": 1.249998000000005,
                    "durationTicks": 384,
                    "midi": 81,
                    "name": "A5",
                    "ticks": 61440,
                    "time": 199.99967999999998,
                    "velocity": 0.8031496062992126,
                },
                {
                    "duration": 0.4166659999999922,
                    "durationTicks": 128,
                    "midi": 81,
                    "name": "A5",
                    "ticks": 61824,
                    "time": 201.249678,
                    "velocity": 0.7795275590551181,
                },
                {
                    "duration": 0.2799474687500094,
                    "durationTicks": 86,
                    "midi": 81,
                    "name": "A5",
                    "ticks": 61952,
                    "time": 201.66634399999998,
                    "velocity": 0.7480314960629921,
                },
                {
                    "duration": 0.2799474687500094,
                    "durationTicks": 86,
                    "midi": 80,
                    "name": "G#5",
                    "ticks": 62037,
                    "time": 201.94303626562498,
                    "velocity": 0.7165354330708661,
                },
                {
                    "duration": 0.2832026718749887,
                    "durationTicks": 87,
                    "midi": 78,
                    "name": "F#5",
                    "ticks": 62122,
                    "time": 202.21972853124998,
                    "velocity": 0.7165354330708661,
                },
                {
                    "duration": 0.279947468749981,
                    "durationTicks": 86,
                    "midi": 76,
                    "name": "E5",
                    "ticks": 62208,
                    "time": 202.499676,
                    "velocity": 0.6850393700787402,
                },
                {
                    "duration": 0.279947468749981,
                    "durationTicks": 86,
                    "midi": 75,
                    "name": "D#5",
                    "ticks": 62293,
                    "time": 202.776368265625,
                    "velocity": 0.7244094488188977,
                },
                {
                    "duration": 0.2636714531249993,
                    "durationTicks": 81,
                    "midi": 76,
                    "name": "E5",
                    "ticks": 62378,
                    "time": 203.05306053125,
                    "velocity": 0.7244094488188977,
                },
                {
                    "duration": 2.3730430781249936,
                    "durationTicks": 729,
                    "midi": 76,
                    "name": "E5",
                    "ticks": 62464,
                    "time": 203.33300799999998,
                    "velocity": 0.8503937007874016,
                },
                {
                    "duration": 1.6992160312500175,
                    "durationTicks": 522,
                    "midi": 70,
                    "name": "A#4",
                    "ticks": 62464,
                    "time": 203.33300799999998,
                    "velocity": 0.4881889763779528,
                },
                {
                    "duration": 1.500648640625002,
                    "durationTicks": 461,
                    "midi": 71,
                    "name": "B4",
                    "ticks": 62976,
                    "time": 204.99967199999998,
                    "velocity": 0.6062992125984252,
                },
                {
                    "duration": 0.42317640625000763,
                    "durationTicks": 130,
                    "midi": 78,
                    "name": "F#5",
                    "ticks": 63232,
                    "time": 205.833004,
                    "velocity": 0.889763779527559,
                },
                {
                    "duration": 0.3938795781249951,
                    "durationTicks": 121,
                    "midi": 76,
                    "name": "E5",
                    "ticks": 63360,
                    "time": 206.24966999999998,
                    "velocity": 0.7637795275590551,
                },
                {
                    "duration": 2.373043078125022,
                    "durationTicks": 729,
                    "midi": 76,
                    "name": "E5",
                    "ticks": 63488,
                    "time": 206.66633599999997,
                    "velocity": 0.7716535433070866,
                },
                {
                    "duration": 1.6992160312500175,
                    "durationTicks": 522,
                    "midi": 70,
                    "name": "A#4",
                    "ticks": 63488,
                    "time": 206.66633599999997,
                    "velocity": 0.5984251968503937,
                },
                {
                    "duration": 1.5006486406249735,
                    "durationTicks": 461,
                    "midi": 71,
                    "name": "B4",
                    "ticks": 64000,
                    "time": 208.333,
                    "velocity": 0.7244094488188977,
                },
                {
                    "duration": 0.2799474687500094,
                    "durationTicks": 86,
                    "midi": 80,
                    "name": "G#5",
                    "ticks": 64256,
                    "time": 209.16633199999998,
                    "velocity": 0.8740157480314961,
                },
                {
                    "duration": 0.2799474687500094,
                    "durationTicks": 86,
                    "midi": 78,
                    "name": "F#5",
                    "ticks": 64341,
                    "time": 209.44302426562498,
                    "velocity": 0.8661417322834646,
                },
                {
                    "duration": 0.2636714531249993,
                    "durationTicks": 81,
                    "midi": 76,
                    "name": "E5",
                    "ticks": 64426,
                    "time": 209.71971653125,
                    "velocity": 0.7244094488188977,
                },
                {
                    "duration": 1.845700171874995,
                    "durationTicks": 567,
                    "midi": 76,
                    "name": "E5",
                    "ticks": 64512,
                    "time": 209.999664,
                    "velocity": 0.6692913385826772,
                },
                {
                    "duration": 1.2727844218750022,
                    "durationTicks": 391,
                    "midi": 70,
                    "name": "A#4",
                    "ticks": 64512,
                    "time": 209.999664,
                    "velocity": 0.6299212598425197,
                },
                {
                    "duration": 0.3938795781250235,
                    "durationTicks": 121,
                    "midi": 67,
                    "name": "G4",
                    "ticks": 64896,
                    "time": 211.24966199999997,
                    "velocity": 0.5669291338582677,
                },
                {
                    "duration": 0.8333319999999844,
                    "durationTicks": 256,
                    "midi": 66,
                    "name": "F#4",
                    "ticks": 65024,
                    "time": 211.666328,
                    "velocity": 0.5354330708661418,
                },
                {
                    "duration": 0.2766922656250017,
                    "durationTicks": 85,
                    "midi": 74,
                    "name": "D5",
                    "ticks": 65109,
                    "time": 211.943020265625,
                    "velocity": 0.5905511811023622,
                },
                {
                    "duration": 0.279947468749981,
                    "durationTicks": 86,
                    "midi": 73,
                    "name": "C#5",
                    "ticks": 65194,
                    "time": 212.21971253125,
                    "velocity": 0.5984251968503937,
                },
                {
                    "duration": 0.2766922656250017,
                    "durationTicks": 85,
                    "midi": 76,
                    "name": "E5",
                    "ticks": 65280,
                    "time": 212.49965999999998,
                    "velocity": 0.6220472440944882,
                },
                {
                    "duration": 0.2766922656250017,
                    "durationTicks": 85,
                    "midi": 74,
                    "name": "D5",
                    "ticks": 65365,
                    "time": 212.77635226562498,
                    "velocity": 0.5118110236220472,
                },
                {
                    "duration": 0.2766922656250017,
                    "durationTicks": 85,
                    "midi": 66,
                    "name": "F#4",
                    "ticks": 65365,
                    "time": 212.77635226562498,
                    "velocity": 0.4251968503937008,
                },
                {
                    "duration": 0.2799474687500094,
                    "durationTicks": 86,
                    "midi": 66,
                    "name": "F#4",
                    "ticks": 65450,
                    "time": 213.05304453124998,
                    "velocity": 0.3700787401574803,
                },
                {
                    "duration": 0.2799474687500094,
                    "durationTicks": 86,
                    "midi": 62,
                    "name": "D4",
                    "ticks": 65450,
                    "time": 213.05304453124998,
                    "velocity": 0.3858267716535433,
                },
                {
                    "duration": 0.8496080156249946,
                    "durationTicks": 261,
                    "midi": 69,
                    "name": "A4",
                    "ticks": 65536,
                    "time": 213.332992,
                    "velocity": 0.5196850393700787,
                },
                {
                    "duration": 0.8496080156249946,
                    "durationTicks": 261,
                    "midi": 61,
                    "name": "C#4",
                    "ticks": 65536,
                    "time": 213.332992,
                    "velocity": 0.4409448818897638,
                },
                {
                    "duration": 0.849608015625023,
                    "durationTicks": 261,
                    "midi": 71,
                    "name": "B4",
                    "ticks": 65792,
                    "time": 214.16632399999997,
                    "velocity": 0.5354330708661418,
                },
                {
                    "duration": 0.849608015625023,
                    "durationTicks": 261,
                    "midi": 68,
                    "name": "G#4",
                    "ticks": 65792,
                    "time": 214.16632399999997,
                    "velocity": 0.5196850393700787,
                },
                {
                    "duration": 0.8496080156249946,
                    "durationTicks": 261,
                    "midi": 73,
                    "name": "C#5",
                    "ticks": 66048,
                    "time": 214.999656,
                    "velocity": 0.5905511811023622,
                },
                {
                    "duration": 0.8496080156249946,
                    "durationTicks": 261,
                    "midi": 69,
                    "name": "A4",
                    "ticks": 66048,
                    "time": 214.999656,
                    "velocity": 0.5748031496062992,
                },
                {
                    "duration": 0.2799474687500094,
                    "durationTicks": 86,
                    "midi": 74,
                    "name": "D5",
                    "ticks": 66304,
                    "time": 215.83298799999997,
                    "velocity": 0.5826771653543307,
                },
                {
                    "duration": 0.2799474687500094,
                    "durationTicks": 86,
                    "midi": 71,
                    "name": "B4",
                    "ticks": 66304,
                    "time": 215.83298799999997,
                    "velocity": 0.5748031496062992,
                },
                {
                    "duration": 0.2799474687500094,
                    "durationTicks": 86,
                    "midi": 75,
                    "name": "D#5",
                    "ticks": 66389,
                    "time": 216.10968026562497,
                    "velocity": 0.5748031496062992,
                },
                {
                    "duration": 0.2799474687500094,
                    "durationTicks": 86,
                    "midi": 72,
                    "name": "C5",
                    "ticks": 66389,
                    "time": 216.10968026562497,
                    "velocity": 0.6062992125984252,
                },
                {
                    "duration": 0.2636714531249993,
                    "durationTicks": 81,
                    "midi": 76,
                    "name": "E5",
                    "ticks": 66474,
                    "time": 216.38637253124998,
                    "velocity": 0.5826771653543307,
                },
                {
                    "duration": 0.2636714531249993,
                    "durationTicks": 81,
                    "midi": 73,
                    "name": "C#5",
                    "ticks": 66474,
                    "time": 216.38637253124998,
                    "velocity": 0.5511811023622047,
                },
                {
                    "duration": 2.3730430781249936,
                    "durationTicks": 729,
                    "midi": 76,
                    "name": "E5",
                    "ticks": 66560,
                    "time": 216.66631999999998,
                    "velocity": 0.5511811023622047,
                },
                {
                    "duration": 1.699216031249989,
                    "durationTicks": 522,
                    "midi": 70,
                    "name": "A#4",
                    "ticks": 66560,
                    "time": 216.66631999999998,
                    "velocity": 0.49606299212598426,
                },
                {
                    "duration": 1.5820287187499957,
                    "durationTicks": 486,
                    "midi": 71,
                    "name": "B4",
                    "ticks": 67072,
                    "time": 218.33298399999998,
                    "velocity": 0.6220472440944882,
                },
                {
                    "duration": 0.4166659999999922,
                    "durationTicks": 128,
                    "midi": 78,
                    "name": "F#5",
                    "ticks": 67328,
                    "time": 219.166316,
                    "velocity": 0.6377952755905512,
                },
                {
                    "duration": 0.4166659999999922,
                    "durationTicks": 128,
                    "midi": 76,
                    "name": "E5",
                    "ticks": 67456,
                    "time": 219.582982,
                    "velocity": 0.5905511811023622,
                },
                {
                    "duration": 2.3730430781249936,
                    "durationTicks": 729,
                    "midi": 76,
                    "name": "E5",
                    "ticks": 67584,
                    "time": 219.99964799999998,
                    "velocity": 0.5984251968503937,
                },
                {
                    "duration": 1.6992160312500175,
                    "durationTicks": 522,
                    "midi": 70,
                    "name": "A#4",
                    "ticks": 67584,
                    "time": 219.99964799999998,
                    "velocity": 0.5748031496062992,
                },
                {
                    "duration": 1.500648640625002,
                    "durationTicks": 461,
                    "midi": 71,
                    "name": "B4",
                    "ticks": 68096,
                    "time": 221.66631199999998,
                    "velocity": 0.6062992125984252,
                },
                {
                    "duration": 0.279947468749981,
                    "durationTicks": 86,
                    "midi": 80,
                    "name": "G#5",
                    "ticks": 68352,
                    "time": 222.499644,
                    "velocity": 0.6377952755905512,
                },
                {
                    "duration": 0.279947468749981,
                    "durationTicks": 86,
                    "midi": 78,
                    "name": "F#5",
                    "ticks": 68437,
                    "time": 222.776336265625,
                    "velocity": 0.6062992125984252,
                },
                {
                    "duration": 0.2636714531249993,
                    "durationTicks": 81,
                    "midi": 76,
                    "name": "E5",
                    "ticks": 68522,
                    "time": 223.05302853125,
                    "velocity": 0.5039370078740157,
                },
                {
                    "duration": 0.24739543750001758,
                    "durationTicks": 76,
                    "midi": 64,
                    "name": "E4",
                    "ticks": 76032,
                    "time": 247.49960399999998,
                    "velocity": 0.6929133858267716,
                },
                {
                    "duration": 0.24739543750001758,
                    "durationTicks": 76,
                    "midi": 76,
                    "name": "E5",
                    "ticks": 76032,
                    "time": 247.49960399999998,
                    "velocity": 0.6929133858267716,
                },
                {
                    "duration": 0.24739543749998916,
                    "durationTicks": 76,
                    "midi": 64,
                    "name": "E4",
                    "ticks": 76160,
                    "time": 247.91627,
                    "velocity": 0.7716535433070866,
                },
                {
                    "duration": 0.24739543749998916,
                    "durationTicks": 76,
                    "midi": 76,
                    "name": "E5",
                    "ticks": 76160,
                    "time": 247.91627,
                    "velocity": 0.7716535433070866,
                },
                {
                    "duration": 0.8333319999999844,
                    "durationTicks": 256,
                    "midi": 68,
                    "name": "G#4",
                    "ticks": 107008,
                    "time": 348.33277599999997,
                    "velocity": 0.33858267716535434,
                },
                {
                    "duration": 0.24739543750001758,
                    "durationTicks": 76,
                    "midi": 68,
                    "name": "G#4",
                    "ticks": 107264,
                    "time": 349.16610799999995,
                    "velocity": 0.4251968503937008,
                },
                {
                    "duration": 0.24739543750001758,
                    "durationTicks": 76,
                    "midi": 69,
                    "name": "A4",
                    "ticks": 107392,
                    "time": 349.582774,
                    "velocity": 0.4881889763779528,
                },
                {
                    "duration": 0.8333319999999844,
                    "durationTicks": 256,
                    "midi": 71,
                    "name": "B4",
                    "ticks": 107520,
                    "time": 349.99944,
                    "velocity": 0.5275590551181102,
                },
                {
                    "duration": 0.24739543750001758,
                    "durationTicks": 76,
                    "midi": 71,
                    "name": "B4",
                    "ticks": 107776,
                    "time": 350.832772,
                    "velocity": 0.5511811023622047,
                },
                {
                    "duration": 0.24739543749996074,
                    "durationTicks": 76,
                    "midi": 72,
                    "name": "C5",
                    "ticks": 107904,
                    "time": 351.249438,
                    "velocity": 0.6456692913385826,
                },
                {
                    "duration": 0.8333320000000413,
                    "durationTicks": 256,
                    "midi": 74,
                    "name": "D5",
                    "ticks": 108032,
                    "time": 351.66610399999996,
                    "velocity": 0.6614173228346457,
                },
                {
                    "duration": 0.24739543749996074,
                    "durationTicks": 76,
                    "midi": 74,
                    "name": "D5",
                    "ticks": 108288,
                    "time": 352.499436,
                    "velocity": 0.6929133858267716,
                },
                {
                    "duration": 0.24739543750001758,
                    "durationTicks": 76,
                    "midi": 76,
                    "name": "E5",
                    "ticks": 108416,
                    "time": 352.91610199999997,
                    "velocity": 0.7637795275590551,
                },
                {
                    "duration": 0.4231764062499792,
                    "durationTicks": 130,
                    "midi": 77,
                    "name": "F5",
                    "ticks": 108544,
                    "time": 353.332768,
                    "velocity": 0.8188976377952756,
                },
                {
                    "duration": 0.21158820312501803,
                    "durationTicks": 65,
                    "midi": 76,
                    "name": "E5",
                    "ticks": 108672,
                    "time": 353.74943399999995,
                    "velocity": 0.7716535433070866,
                },
                {
                    "duration": 0.21158820312496118,
                    "durationTicks": 65,
                    "midi": 74,
                    "name": "D5",
                    "ticks": 108736,
                    "time": 353.957767,
                    "velocity": 0.7716535433070866,
                },
                {
                    "duration": 0.1953121875000079,
                    "durationTicks": 60,
                    "midi": 76,
                    "name": "E5",
                    "ticks": 108800,
                    "time": 354.1661,
                    "velocity": 0.8503937007874016,
                },
                {
                    "duration": 0.12369771875000879,
                    "durationTicks": 38,
                    "midi": 64,
                    "name": "E4",
                    "ticks": 108864,
                    "time": 354.37443299999995,
                    "velocity": 0.6614173228346457,
                },
                {
                    "duration": 0.12369771875000879,
                    "durationTicks": 38,
                    "midi": 66,
                    "name": "F#4",
                    "ticks": 108928,
                    "time": 354.582766,
                    "velocity": 0.8740157480314961,
                },
                {
                    "duration": 0.12369771875000879,
                    "durationTicks": 38,
                    "midi": 68,
                    "name": "G#4",
                    "ticks": 108992,
                    "time": 354.791099,
                    "velocity": 0.9291338582677166,
                },
                {
                    "duration": 0.12369771875000879,
                    "durationTicks": 38,
                    "midi": 69,
                    "name": "A4",
                    "ticks": 109056,
                    "time": 354.99943199999996,
                    "velocity": 0.968503937007874,
                },
                {
                    "duration": 0.12369771875000879,
                    "durationTicks": 38,
                    "midi": 71,
                    "name": "B4",
                    "ticks": 109120,
                    "time": 355.207765,
                    "velocity": 0.8503937007874016,
                },
                {
                    "duration": 0.12369771875000879,
                    "durationTicks": 38,
                    "midi": 72,
                    "name": "C5",
                    "ticks": 109184,
                    "time": 355.416098,
                    "velocity": 0.7952755905511811,
                },
                {
                    "duration": 0.12369771875000879,
                    "durationTicks": 38,
                    "midi": 71,
                    "name": "B4",
                    "ticks": 109248,
                    "time": 355.62443099999996,
                    "velocity": 0.7244094488188977,
                },
                {
                    "duration": 0.12369771875000879,
                    "durationTicks": 38,
                    "midi": 69,
                    "name": "A4",
                    "ticks": 109312,
                    "time": 355.832764,
                    "velocity": 0.6929133858267716,
                },
                {
                    "duration": 0.12369771875000879,
                    "durationTicks": 38,
                    "midi": 72,
                    "name": "C5",
                    "ticks": 109376,
                    "time": 356.041097,
                    "velocity": 0.7952755905511811,
                },
                {
                    "duration": 0.12369771875000879,
                    "durationTicks": 38,
                    "midi": 71,
                    "name": "B4",
                    "ticks": 109440,
                    "time": 356.24942999999996,
                    "velocity": 0.7086614173228346,
                },
                {
                    "duration": 0.12369771874995195,
                    "durationTicks": 38,
                    "midi": 69,
                    "name": "A4",
                    "ticks": 109504,
                    "time": 356.457763,
                    "velocity": 0.7165354330708661,
                },
                {
                    "duration": 0.12369771875000879,
                    "durationTicks": 38,
                    "midi": 64,
                    "name": "E4",
                    "ticks": 109568,
                    "time": 356.666096,
                    "velocity": 0.6850393700787402,
                },
                {
                    "duration": 0.12369771875000879,
                    "durationTicks": 38,
                    "midi": 66,
                    "name": "F#4",
                    "ticks": 109632,
                    "time": 356.87442899999996,
                    "velocity": 0.9212598425196851,
                },
                {
                    "duration": 0.12369771874995195,
                    "durationTicks": 38,
                    "midi": 68,
                    "name": "G#4",
                    "ticks": 109696,
                    "time": 357.082762,
                    "velocity": 0.937007874015748,
                },
                {
                    "duration": 0.12369771875000879,
                    "durationTicks": 38,
                    "midi": 69,
                    "name": "A4",
                    "ticks": 109760,
                    "time": 357.291095,
                    "velocity": 0.937007874015748,
                },
                {
                    "duration": 0.12369771875000879,
                    "durationTicks": 38,
                    "midi": 71,
                    "name": "B4",
                    "ticks": 109824,
                    "time": 357.49942799999997,
                    "velocity": 0.9291338582677166,
                },
                {
                    "duration": 0.12369771874995195,
                    "durationTicks": 38,
                    "midi": 72,
                    "name": "C5",
                    "ticks": 109888,
                    "time": 357.707761,
                    "velocity": 0.9212598425196851,
                },
                {
                    "duration": 0.12369771875000879,
                    "durationTicks": 38,
                    "midi": 74,
                    "name": "D5",
                    "ticks": 109952,
                    "time": 357.916094,
                    "velocity": 0.968503937007874,
                },
                {
                    "duration": 0.12369771875000879,
                    "durationTicks": 38,
                    "midi": 76,
                    "name": "E5",
                    "ticks": 110016,
                    "time": 358.12442699999997,
                    "velocity": 0.937007874015748,
                },
                {
                    "duration": 0.12369771875000879,
                    "durationTicks": 38,
                    "midi": 74,
                    "name": "D5",
                    "ticks": 110080,
                    "time": 358.33275999999995,
                    "velocity": 0.8582677165354331,
                },
                {
                    "duration": 0.12369771875000879,
                    "durationTicks": 38,
                    "midi": 71,
                    "name": "B4",
                    "ticks": 110144,
                    "time": 358.541093,
                    "velocity": 0.7244094488188977,
                },
                {
                    "duration": 0.12369771875000879,
                    "durationTicks": 38,
                    "midi": 72,
                    "name": "C5",
                    "ticks": 110208,
                    "time": 358.74942599999997,
                    "velocity": 0.8031496062992126,
                },
                {
                    "duration": 0.12369771875000879,
                    "durationTicks": 38,
                    "midi": 74,
                    "name": "D5",
                    "ticks": 110272,
                    "time": 358.95775899999995,
                    "velocity": 0.8110236220472441,
                },
                {
                    "duration": 0.12369771875000879,
                    "durationTicks": 38,
                    "midi": 76,
                    "name": "E5",
                    "ticks": 110336,
                    "time": 359.166092,
                    "velocity": 0.8267716535433071,
                },
                {
                    "duration": 0.12369771875000879,
                    "durationTicks": 38,
                    "midi": 74,
                    "name": "D5",
                    "ticks": 110400,
                    "time": 359.374425,
                    "velocity": 0.7401574803149606,
                },
                {
                    "duration": 0.12369771875000879,
                    "durationTicks": 38,
                    "midi": 72,
                    "name": "C5",
                    "ticks": 110464,
                    "time": 359.58275799999996,
                    "velocity": 0.7086614173228346,
                },
                {
                    "duration": 0.12369771875000879,
                    "durationTicks": 38,
                    "midi": 71,
                    "name": "B4",
                    "ticks": 110528,
                    "time": 359.791091,
                    "velocity": 0.7086614173228346,
                },
                {
                    "duration": 0.12369771875000879,
                    "durationTicks": 38,
                    "midi": 72,
                    "name": "C5",
                    "ticks": 110592,
                    "time": 359.999424,
                    "velocity": 0.8031496062992126,
                },
                {
                    "duration": 0.12369771875000879,
                    "durationTicks": 38,
                    "midi": 71,
                    "name": "B4",
                    "ticks": 110656,
                    "time": 360.20775699999996,
                    "velocity": 0.8110236220472441,
                },
                {
                    "duration": 0.12369771875000879,
                    "durationTicks": 38,
                    "midi": 72,
                    "name": "C5",
                    "ticks": 110720,
                    "time": 360.41609,
                    "velocity": 0.889763779527559,
                },
                {
                    "duration": 0.12369771875000879,
                    "durationTicks": 38,
                    "midi": 74,
                    "name": "D5",
                    "ticks": 110784,
                    "time": 360.624423,
                    "velocity": 0.937007874015748,
                },
                {
                    "duration": 0.12369771875000879,
                    "durationTicks": 38,
                    "midi": 76,
                    "name": "E5",
                    "ticks": 110848,
                    "time": 360.83275599999996,
                    "velocity": 0.9212598425196851,
                },
                {
                    "duration": 0.12369771874995195,
                    "durationTicks": 38,
                    "midi": 64,
                    "name": "E4",
                    "ticks": 110912,
                    "time": 361.041089,
                    "velocity": 0.6614173228346457,
                },
                {
                    "duration": 0.12369771875000879,
                    "durationTicks": 38,
                    "midi": 66,
                    "name": "F#4",
                    "ticks": 110976,
                    "time": 361.249422,
                    "velocity": 0.8976377952755905,
                },
                {
                    "duration": 0.12369771875000879,
                    "durationTicks": 38,
                    "midi": 68,
                    "name": "G#4",
                    "ticks": 111040,
                    "time": 361.45775499999996,
                    "velocity": 0.9448818897637795,
                },
                {
                    "duration": 0.12369771874995195,
                    "durationTicks": 38,
                    "midi": 69,
                    "name": "A4",
                    "ticks": 111104,
                    "time": 361.666088,
                    "velocity": 0.7322834645669292,
                },
                {
                    "duration": 0.12369771875000879,
                    "durationTicks": 38,
                    "midi": 71,
                    "name": "B4",
                    "ticks": 111168,
                    "time": 361.874421,
                    "velocity": 0.7559055118110236,
                },
                {
                    "duration": 0.12369771875000879,
                    "durationTicks": 38,
                    "midi": 72,
                    "name": "C5",
                    "ticks": 111232,
                    "time": 362.08275399999997,
                    "velocity": 0.7952755905511811,
                },
                {
                    "duration": 0.12369771874995195,
                    "durationTicks": 38,
                    "midi": 71,
                    "name": "B4",
                    "ticks": 111296,
                    "time": 362.291087,
                    "velocity": 0.7401574803149606,
                },
                {
                    "duration": 0.12369771875000879,
                    "durationTicks": 38,
                    "midi": 69,
                    "name": "A4",
                    "ticks": 111360,
                    "time": 362.49942,
                    "velocity": 0.7322834645669292,
                },
                {
                    "duration": 0.12369771875000879,
                    "durationTicks": 38,
                    "midi": 72,
                    "name": "C5",
                    "ticks": 111424,
                    "time": 362.70775299999997,
                    "velocity": 0.8031496062992126,
                },
                {
                    "duration": 0.12369771875000879,
                    "durationTicks": 38,
                    "midi": 71,
                    "name": "B4",
                    "ticks": 111488,
                    "time": 362.91608599999995,
                    "velocity": 0.7401574803149606,
                },
                {
                    "duration": 0.12369771875000879,
                    "durationTicks": 38,
                    "midi": 69,
                    "name": "A4",
                    "ticks": 111552,
                    "time": 363.124419,
                    "velocity": 0.6771653543307087,
                },
                {
                    "duration": 0.12369771875000879,
                    "durationTicks": 38,
                    "midi": 64,
                    "name": "E4",
                    "ticks": 111616,
                    "time": 363.33275199999997,
                    "velocity": 0.6692913385826772,
                },
                {
                    "duration": 0.12369771875000879,
                    "durationTicks": 38,
                    "midi": 66,
                    "name": "F#4",
                    "ticks": 111680,
                    "time": 363.54108499999995,
                    "velocity": 0.8267716535433071,
                },
                {
                    "duration": 0.12369771875000879,
                    "durationTicks": 38,
                    "midi": 68,
                    "name": "G#4",
                    "ticks": 111744,
                    "time": 363.749418,
                    "velocity": 0.8346456692913385,
                },
                {
                    "duration": 0.12369771875000879,
                    "durationTicks": 38,
                    "midi": 69,
                    "name": "A4",
                    "ticks": 111808,
                    "time": 363.957751,
                    "velocity": 0.7795275590551181,
                },
                {
                    "duration": 0.12369771875000879,
                    "durationTicks": 38,
                    "midi": 71,
                    "name": "B4",
                    "ticks": 111872,
                    "time": 364.16608399999996,
                    "velocity": 0.84251968503937,
                },
                {
                    "duration": 0.12369771875000879,
                    "durationTicks": 38,
                    "midi": 72,
                    "name": "C5",
                    "ticks": 111936,
                    "time": 364.374417,
                    "velocity": 0.8267716535433071,
                },
                {
                    "duration": 0.12369771875000879,
                    "durationTicks": 38,
                    "midi": 74,
                    "name": "D5",
                    "ticks": 112000,
                    "time": 364.58275,
                    "velocity": 0.8031496062992126,
                },
                {
                    "duration": 0.12369771875000879,
                    "durationTicks": 38,
                    "midi": 76,
                    "name": "E5",
                    "ticks": 112064,
                    "time": 364.79108299999996,
                    "velocity": 0.8110236220472441,
                },
                {
                    "duration": 0.12369771875000879,
                    "durationTicks": 38,
                    "midi": 74,
                    "name": "D5",
                    "ticks": 112128,
                    "time": 364.999416,
                    "velocity": 0.7086614173228346,
                },
                {
                    "duration": 0.12369771875000879,
                    "durationTicks": 38,
                    "midi": 71,
                    "name": "B4",
                    "ticks": 112192,
                    "time": 365.207749,
                    "velocity": 0.6771653543307087,
                },
                {
                    "duration": 0.12369771875000879,
                    "durationTicks": 38,
                    "midi": 72,
                    "name": "C5",
                    "ticks": 112256,
                    "time": 365.41608199999996,
                    "velocity": 0.7637795275590551,
                },
                {
                    "duration": 0.12369771874995195,
                    "durationTicks": 38,
                    "midi": 74,
                    "name": "D5",
                    "ticks": 112320,
                    "time": 365.624415,
                    "velocity": 0.8031496062992126,
                },
                {
                    "duration": 0.12369771875000879,
                    "durationTicks": 38,
                    "midi": 76,
                    "name": "E5",
                    "ticks": 112384,
                    "time": 365.832748,
                    "velocity": 0.8582677165354331,
                },
                {
                    "duration": 0.12369771875000879,
                    "durationTicks": 38,
                    "midi": 74,
                    "name": "D5",
                    "ticks": 112448,
                    "time": 366.04108099999996,
                    "velocity": 0.7165354330708661,
                },
                {
                    "duration": 0.12369771874995195,
                    "durationTicks": 38,
                    "midi": 72,
                    "name": "C5",
                    "ticks": 112512,
                    "time": 366.249414,
                    "velocity": 0.6929133858267716,
                },
                {
                    "duration": 0.12369771875000879,
                    "durationTicks": 38,
                    "midi": 71,
                    "name": "B4",
                    "ticks": 112576,
                    "time": 366.457747,
                    "velocity": 0.7401574803149606,
                },
                {
                    "duration": 0.8333319999999844,
                    "durationTicks": 256,
                    "midi": 69,
                    "name": "A4",
                    "ticks": 112640,
                    "time": 366.66607999999997,
                    "velocity": 0.6771653543307087,
                },
                {
                    "duration": 0.8333319999999844,
                    "durationTicks": 256,
                    "midi": 71,
                    "name": "B4",
                    "ticks": 113152,
                    "time": 368.332744,
                    "velocity": 0.3464566929133858,
                },
                {
                    "duration": 0.8333319999999844,
                    "durationTicks": 256,
                    "midi": 74,
                    "name": "D5",
                    "ticks": 113152,
                    "time": 368.332744,
                    "velocity": 0.3464566929133858,
                },
                {
                    "duration": 0.24739543750001758,
                    "durationTicks": 76,
                    "midi": 71,
                    "name": "B4",
                    "ticks": 113408,
                    "time": 369.166076,
                    "velocity": 0.3779527559055118,
                },
                {
                    "duration": 0.24739543750001758,
                    "durationTicks": 76,
                    "midi": 74,
                    "name": "D5",
                    "ticks": 113408,
                    "time": 369.166076,
                    "velocity": 0.3779527559055118,
                },
                {
                    "duration": 0.24739543749996074,
                    "durationTicks": 76,
                    "midi": 71,
                    "name": "B4",
                    "ticks": 113536,
                    "time": 369.582742,
                    "velocity": 0.3779527559055118,
                },
                {
                    "duration": 0.24739543749996074,
                    "durationTicks": 76,
                    "midi": 74,
                    "name": "D5",
                    "ticks": 113536,
                    "time": 369.582742,
                    "velocity": 0.3779527559055118,
                },
                {
                    "duration": 0.41666600000002063,
                    "durationTicks": 128,
                    "midi": 69,
                    "name": "A4",
                    "ticks": 113664,
                    "time": 369.99940799999996,
                    "velocity": 0.4015748031496063,
                },
                {
                    "duration": 0.41666600000002063,
                    "durationTicks": 128,
                    "midi": 72,
                    "name": "C5",
                    "ticks": 113664,
                    "time": 369.99940799999996,
                    "velocity": 0.4015748031496063,
                },
                {
                    "duration": 1.6666640000000257,
                    "durationTicks": 512,
                    "midi": 76,
                    "name": "E5",
                    "ticks": 114432,
                    "time": 372.49940399999997,
                    "velocity": 0.4409448818897638,
                },
                {
                    "duration": 0.8496080156249946,
                    "durationTicks": 261,
                    "midi": 73,
                    "name": "C#5",
                    "ticks": 114944,
                    "time": 374.166068,
                    "velocity": 0.4566929133858268,
                },
                {
                    "duration": 0.8496080156249946,
                    "durationTicks": 261,
                    "midi": 69,
                    "name": "A4",
                    "ticks": 115200,
                    "time": 374.9994,
                    "velocity": 0.4094488188976378,
                },
                {
                    "duration": 0.7910143593750263,
                    "durationTicks": 243,
                    "midi": 73,
                    "name": "C#5",
                    "ticks": 115456,
                    "time": 375.83273199999996,
                    "velocity": 0.48031496062992124,
                },
                {
                    "duration": 0.8496080156250514,
                    "durationTicks": 261,
                    "midi": 73,
                    "name": "C#5",
                    "ticks": 115712,
                    "time": 376.66606399999995,
                    "velocity": 0.47244094488188976,
                },
                {
                    "duration": 1.699216031249989,
                    "durationTicks": 522,
                    "midi": 62,
                    "name": "D4",
                    "ticks": 115968,
                    "time": 377.499396,
                    "velocity": 0.4566929133858268,
                },
                {
                    "duration": 1.699216031249989,
                    "durationTicks": 522,
                    "midi": 71,
                    "name": "B4",
                    "ticks": 115968,
                    "time": 377.499396,
                    "velocity": 0.4566929133858268,
                },
                {
                    "duration": 0.8496080156249946,
                    "durationTicks": 261,
                    "midi": 61,
                    "name": "C#4",
                    "ticks": 116480,
                    "time": 379.16605999999996,
                    "velocity": 0.5748031496062992,
                },
                {
                    "duration": 0.8496080156249946,
                    "durationTicks": 261,
                    "midi": 69,
                    "name": "A4",
                    "ticks": 116480,
                    "time": 379.16605999999996,
                    "velocity": 0.5748031496062992,
                },
                {
                    "duration": 0.8496080156249946,
                    "durationTicks": 261,
                    "midi": 59,
                    "name": "B3",
                    "ticks": 116736,
                    "time": 379.999392,
                    "velocity": 0.5826771653543307,
                },
                {
                    "duration": 0.8496080156249946,
                    "durationTicks": 261,
                    "midi": 68,
                    "name": "G#4",
                    "ticks": 116736,
                    "time": 379.999392,
                    "velocity": 0.5826771653543307,
                },
                {
                    "duration": 0.8496080156249946,
                    "durationTicks": 261,
                    "midi": 61,
                    "name": "C#4",
                    "ticks": 116992,
                    "time": 380.832724,
                    "velocity": 0.7086614173228346,
                },
                {
                    "duration": 0.8496080156249946,
                    "durationTicks": 261,
                    "midi": 69,
                    "name": "A4",
                    "ticks": 116992,
                    "time": 380.832724,
                    "velocity": 0.7086614173228346,
                },
                {
                    "duration": 0.8496080156249946,
                    "durationTicks": 261,
                    "midi": 62,
                    "name": "D4",
                    "ticks": 117248,
                    "time": 381.66605599999997,
                    "velocity": 0.7244094488188977,
                },
                {
                    "duration": 0.8496080156249946,
                    "durationTicks": 261,
                    "midi": 71,
                    "name": "B4",
                    "ticks": 117248,
                    "time": 381.66605599999997,
                    "velocity": 0.7244094488188977,
                },
                {
                    "duration": 0.8496080156250514,
                    "durationTicks": 261,
                    "midi": 64,
                    "name": "E4",
                    "ticks": 117504,
                    "time": 382.49938799999995,
                    "velocity": 0.7716535433070866,
                },
                {
                    "duration": 0.8496080156250514,
                    "durationTicks": 261,
                    "midi": 73,
                    "name": "C#5",
                    "ticks": 117504,
                    "time": 382.49938799999995,
                    "velocity": 0.7716535433070866,
                },
                {
                    "duration": 0.8496080156249946,
                    "durationTicks": 261,
                    "midi": 66,
                    "name": "F#4",
                    "ticks": 117760,
                    "time": 383.33272,
                    "velocity": 0.6614173228346457,
                },
                {
                    "duration": 0.8496080156249946,
                    "durationTicks": 261,
                    "midi": 74,
                    "name": "D5",
                    "ticks": 117760,
                    "time": 383.33272,
                    "velocity": 0.6614173228346457,
                },
                {
                    "duration": 0.8496080156249946,
                    "durationTicks": 261,
                    "midi": 68,
                    "name": "G#4",
                    "ticks": 118016,
                    "time": 384.166052,
                    "velocity": 0.5905511811023622,
                },
                {
                    "duration": 0.8496080156249946,
                    "durationTicks": 261,
                    "midi": 76,
                    "name": "E5",
                    "ticks": 118016,
                    "time": 384.166052,
                    "velocity": 0.5905511811023622,
                },
                {
                    "duration": 0.8496080156249946,
                    "durationTicks": 261,
                    "midi": 71,
                    "name": "B4",
                    "ticks": 118272,
                    "time": 384.99938399999996,
                    "velocity": 0.4645669291338583,
                },
                {
                    "duration": 0.8496080156249946,
                    "durationTicks": 261,
                    "midi": 74,
                    "name": "D5",
                    "ticks": 118272,
                    "time": 384.99938399999996,
                    "velocity": 0.4645669291338583,
                },
                {
                    "duration": 0.4231764062499792,
                    "durationTicks": 130,
                    "midi": 69,
                    "name": "A4",
                    "ticks": 118528,
                    "time": 385.832716,
                    "velocity": 0.4094488188976378,
                },
                {
                    "duration": 0.4166659999999638,
                    "durationTicks": 128,
                    "midi": 73,
                    "name": "C#5",
                    "ticks": 118528,
                    "time": 385.832716,
                    "velocity": 0.4094488188976378,
                },
                {
                    "duration": 0.3938795781249951,
                    "durationTicks": 121,
                    "midi": 73,
                    "name": "C#5",
                    "ticks": 118656,
                    "time": 386.24938199999997,
                    "velocity": 0.48031496062992124,
                },
                {
                    "duration": 0.3938795781249951,
                    "durationTicks": 121,
                    "midi": 81,
                    "name": "A5",
                    "ticks": 118656,
                    "time": 386.24938199999997,
                    "velocity": 0.48031496062992124,
                },
                {
                    "duration": 0.8333319999999844,
                    "durationTicks": 256,
                    "midi": 73,
                    "name": "C#5",
                    "ticks": 118784,
                    "time": 386.666048,
                    "velocity": 0.5196850393700787,
                },
                {
                    "duration": 0.8496080156249946,
                    "durationTicks": 261,
                    "midi": 81,
                    "name": "A5",
                    "ticks": 118784,
                    "time": 386.666048,
                    "velocity": 0.5196850393700787,
                },
                {
                    "duration": 0.8333319999999844,
                    "durationTicks": 256,
                    "midi": 73,
                    "name": "C#5",
                    "ticks": 119040,
                    "time": 387.49938,
                    "velocity": 0.44881889763779526,
                },
                {
                    "duration": 0.8496080156249946,
                    "durationTicks": 261,
                    "midi": 76,
                    "name": "E5",
                    "ticks": 119040,
                    "time": 387.49938,
                    "velocity": 0.44881889763779526,
                },
                {
                    "duration": 0.8496080156249946,
                    "durationTicks": 261,
                    "midi": 69,
                    "name": "A4",
                    "ticks": 119296,
                    "time": 388.33271199999996,
                    "velocity": 0.49606299212598426,
                },
                {
                    "duration": 0.8333320000000413,
                    "durationTicks": 256,
                    "midi": 73,
                    "name": "C#5",
                    "ticks": 119296,
                    "time": 388.33271199999996,
                    "velocity": 0.49606299212598426,
                },
                {
                    "duration": 0.7910143593749694,
                    "durationTicks": 243,
                    "midi": 73,
                    "name": "C#5",
                    "ticks": 119552,
                    "time": 389.166044,
                    "velocity": 0.5905511811023622,
                },
                {
                    "duration": 0.7910143593749694,
                    "durationTicks": 243,
                    "midi": 76,
                    "name": "E5",
                    "ticks": 119552,
                    "time": 389.166044,
                    "velocity": 0.5905511811023622,
                },
                {
                    "duration": 0.8496080156249946,
                    "durationTicks": 261,
                    "midi": 73,
                    "name": "C#5",
                    "ticks": 119808,
                    "time": 389.999376,
                    "velocity": 0.5669291338582677,
                },
                {
                    "duration": 0.8496080156249946,
                    "durationTicks": 261,
                    "midi": 76,
                    "name": "E5",
                    "ticks": 119808,
                    "time": 389.999376,
                    "velocity": 0.5669291338582677,
                },
                {
                    "duration": 1.699216031249989,
                    "durationTicks": 522,
                    "midi": 74,
                    "name": "D5",
                    "ticks": 120064,
                    "time": 390.83270799999997,
                    "velocity": 0.6062992125984252,
                },
                {
                    "duration": 1.699216031249989,
                    "durationTicks": 522,
                    "midi": 78,
                    "name": "F#5",
                    "ticks": 120064,
                    "time": 390.83270799999997,
                    "velocity": 0.6062992125984252,
                },
                {
                    "duration": 0.8496080156249946,
                    "durationTicks": 261,
                    "midi": 73,
                    "name": "C#5",
                    "ticks": 120576,
                    "time": 392.499372,
                    "velocity": 0.5590551181102362,
                },
                {
                    "duration": 0.8496080156249946,
                    "durationTicks": 261,
                    "midi": 76,
                    "name": "E5",
                    "ticks": 120576,
                    "time": 392.499372,
                    "velocity": 0.5590551181102362,
                },
                {
                    "duration": 0.8496080156249946,
                    "durationTicks": 261,
                    "midi": 66,
                    "name": "F#4",
                    "ticks": 120832,
                    "time": 393.332704,
                    "velocity": 0.5748031496062992,
                },
                {
                    "duration": 0.8496080156249946,
                    "durationTicks": 261,
                    "midi": 74,
                    "name": "D5",
                    "ticks": 120832,
                    "time": 393.332704,
                    "velocity": 0.5748031496062992,
                },
                {
                    "duration": 0.8496080156249946,
                    "durationTicks": 261,
                    "midi": 64,
                    "name": "E4",
                    "ticks": 121088,
                    "time": 394.16603599999996,
                    "velocity": 0.6299212598425197,
                },
                {
                    "duration": 0.8496080156249946,
                    "durationTicks": 261,
                    "midi": 73,
                    "name": "C#5",
                    "ticks": 121088,
                    "time": 394.16603599999996,
                    "velocity": 0.6299212598425197,
                },
                {
                    "duration": 0.8496080156249946,
                    "durationTicks": 261,
                    "midi": 66,
                    "name": "F#4",
                    "ticks": 121344,
                    "time": 394.999368,
                    "velocity": 0.6141732283464567,
                },
                {
                    "duration": 0.8496080156249946,
                    "durationTicks": 261,
                    "midi": 74,
                    "name": "D5",
                    "ticks": 121344,
                    "time": 394.999368,
                    "velocity": 0.6141732283464567,
                },
                {
                    "duration": 0.8496080156249946,
                    "durationTicks": 261,
                    "midi": 68,
                    "name": "G#4",
                    "ticks": 121600,
                    "time": 395.8327,
                    "velocity": 0.5826771653543307,
                },
                {
                    "duration": 0.8496080156249946,
                    "durationTicks": 261,
                    "midi": 76,
                    "name": "E5",
                    "ticks": 121600,
                    "time": 395.8327,
                    "velocity": 0.5826771653543307,
                },
                {
                    "duration": 1.5820287187499957,
                    "durationTicks": 486,
                    "midi": 69,
                    "name": "A4",
                    "ticks": 121856,
                    "time": 396.666032,
                    "velocity": 0.48031496062992124,
                },
                {
                    "duration": 1.5820287187499957,
                    "durationTicks": 486,
                    "midi": 73,
                    "name": "C#5",
                    "ticks": 121856,
                    "time": 396.666032,
                    "velocity": 0.48031496062992124,
                },
                {
                    "duration": 0.8496080156249946,
                    "durationTicks": 261,
                    "midi": 66,
                    "name": "F#4",
                    "ticks": 122368,
                    "time": 398.332696,
                    "velocity": 0.44881889763779526,
                },
                {
                    "duration": 0.8496080156249946,
                    "durationTicks": 261,
                    "midi": 74,
                    "name": "D5",
                    "ticks": 122368,
                    "time": 398.332696,
                    "velocity": 0.44881889763779526,
                },
                {
                    "duration": 0.8496080156249946,
                    "durationTicks": 261,
                    "midi": 68,
                    "name": "G#4",
                    "ticks": 122624,
                    "time": 399.166028,
                    "velocity": 0.4645669291338583,
                },
                {
                    "duration": 0.8496080156249946,
                    "durationTicks": 261,
                    "midi": 76,
                    "name": "E5",
                    "ticks": 122624,
                    "time": 399.166028,
                    "velocity": 0.4645669291338583,
                },
                {
                    "duration": 1.5820287187499957,
                    "durationTicks": 486,
                    "midi": 69,
                    "name": "A4",
                    "ticks": 122880,
                    "time": 399.99935999999997,
                    "velocity": 0.4330708661417323,
                },
                {
                    "duration": 1.5820287187499957,
                    "durationTicks": 486,
                    "midi": 73,
                    "name": "C#5",
                    "ticks": 122880,
                    "time": 399.99935999999997,
                    "velocity": 0.4330708661417323,
                },
                {
                    "duration": 0.8496080156249946,
                    "durationTicks": 261,
                    "midi": 66,
                    "name": "F#4",
                    "ticks": 123392,
                    "time": 401.666024,
                    "velocity": 0.48031496062992124,
                },
                {
                    "duration": 0.8496080156249946,
                    "durationTicks": 261,
                    "midi": 74,
                    "name": "D5",
                    "ticks": 123392,
                    "time": 401.666024,
                    "velocity": 0.48031496062992124,
                },
                {
                    "duration": 0.7910143593750263,
                    "durationTicks": 243,
                    "midi": 68,
                    "name": "G#4",
                    "ticks": 123648,
                    "time": 402.499356,
                    "velocity": 0.5275590551181102,
                },
                {
                    "duration": 0.7910143593750263,
                    "durationTicks": 243,
                    "midi": 76,
                    "name": "E5",
                    "ticks": 123648,
                    "time": 402.499356,
                    "velocity": 0.5275590551181102,
                },
                {
                    "duration": 0.8333320000000413,
                    "durationTicks": 256,
                    "midi": 69,
                    "name": "A4",
                    "ticks": 123904,
                    "time": 403.33268799999996,
                    "velocity": 0.2125984251968504,
                },
                {
                    "duration": 0.24739543749996074,
                    "durationTicks": 76,
                    "midi": 69,
                    "name": "A4",
                    "ticks": 124160,
                    "time": 404.16602,
                    "velocity": 0.2755905511811024,
                },
                {
                    "duration": 0.23437462499998674,
                    "durationTicks": 72,
                    "midi": 69,
                    "name": "A4",
                    "ticks": 124288,
                    "time": 404.58268599999997,
                    "velocity": 0.2677165354330709,
                },
                {
                    "duration": 0.49804607812501445,
                    "durationTicks": 153,
                    "midi": 69,
                    "name": "A4",
                    "ticks": 124416,
                    "time": 404.999352,
                    "velocity": 0.25984251968503935,
                },
                {
                    "duration": 0.4720044531250096,
                    "durationTicks": 145,
                    "midi": 69,
                    "name": "A4",
                    "ticks": 124672,
                    "time": 405.832684,
                    "velocity": 0.2677165354330709,
                },
                {
                    "duration": 0.8333320000000413,
                    "durationTicks": 256,
                    "midi": 69,
                    "name": "A4",
                    "ticks": 124928,
                    "time": 406.66601599999996,
                    "velocity": 0.2677165354330709,
                },
                {
                    "duration": 0.24739543749996074,
                    "durationTicks": 76,
                    "midi": 69,
                    "name": "A4",
                    "ticks": 125184,
                    "time": 407.499348,
                    "velocity": 0.29133858267716534,
                },
                {
                    "duration": 0.23437462499998674,
                    "durationTicks": 72,
                    "midi": 69,
                    "name": "A4",
                    "ticks": 125312,
                    "time": 407.91601399999996,
                    "velocity": 0.28346456692913385,
                },
                {
                    "duration": 0.49804607812501445,
                    "durationTicks": 153,
                    "midi": 69,
                    "name": "A4",
                    "ticks": 125440,
                    "time": 408.33268,
                    "velocity": 0.2677165354330709,
                },
                {
                    "duration": 0.4720044531250096,
                    "durationTicks": 145,
                    "midi": 69,
                    "name": "A4",
                    "ticks": 125696,
                    "time": 409.16601199999997,
                    "velocity": 0.2440944881889764,
                },
                {
                    "duration": 0.8333320000000413,
                    "durationTicks": 256,
                    "midi": 71,
                    "name": "B4",
                    "ticks": 125952,
                    "time": 409.99934399999995,
                    "velocity": 0.9921259842519685,
                },
                {
                    "duration": 0.8333320000000413,
                    "durationTicks": 256,
                    "midi": 74,
                    "name": "D5",
                    "ticks": 125952,
                    "time": 409.99934399999995,
                    "velocity": 0.9921259842519685,
                },
                {
                    "duration": 0.24739543749996074,
                    "durationTicks": 76,
                    "midi": 69,
                    "name": "A4",
                    "ticks": 126208,
                    "time": 410.832676,
                    "velocity": 0.8582677165354331,
                },
                {
                    "duration": 0.24739543749996074,
                    "durationTicks": 76,
                    "midi": 72,
                    "name": "C5",
                    "ticks": 126208,
                    "time": 410.832676,
                    "velocity": 0.8582677165354331,
                },
                {
                    "duration": 0.24739543750001758,
                    "durationTicks": 76,
                    "midi": 71,
                    "name": "B4",
                    "ticks": 126336,
                    "time": 411.24934199999996,
                    "velocity": 0.9448818897637795,
                },
                {
                    "duration": 0.24739543750001758,
                    "durationTicks": 76,
                    "midi": 74,
                    "name": "D5",
                    "ticks": 126336,
                    "time": 411.24934199999996,
                    "velocity": 0.9448818897637795,
                },
                {
                    "duration": 0.41666600000002063,
                    "durationTicks": 128,
                    "midi": 72,
                    "name": "C5",
                    "ticks": 126464,
                    "time": 411.666008,
                    "velocity": 0.9448818897637795,
                },
                {
                    "duration": 0.41666600000002063,
                    "durationTicks": 128,
                    "midi": 76,
                    "name": "E5",
                    "ticks": 126464,
                    "time": 411.666008,
                    "velocity": 0.9448818897637795,
                },
                {
                    "duration": 0.8333319999999844,
                    "durationTicks": 256,
                    "midi": 71,
                    "name": "B4",
                    "ticks": 128000,
                    "time": 416.666,
                    "velocity": 0.8031496062992126,
                },
                {
                    "duration": 0.8333319999999844,
                    "durationTicks": 256,
                    "midi": 74,
                    "name": "D5",
                    "ticks": 128000,
                    "time": 416.666,
                    "velocity": 0.8031496062992126,
                },
                {
                    "duration": 0.24739543750001758,
                    "durationTicks": 76,
                    "midi": 69,
                    "name": "A4",
                    "ticks": 128256,
                    "time": 417.499332,
                    "velocity": 0.8110236220472441,
                },
                {
                    "duration": 0.24739543750001758,
                    "durationTicks": 76,
                    "midi": 72,
                    "name": "C5",
                    "ticks": 128256,
                    "time": 417.499332,
                    "velocity": 0.8110236220472441,
                },
                {
                    "duration": 0.24739543749996074,
                    "durationTicks": 76,
                    "midi": 71,
                    "name": "B4",
                    "ticks": 128384,
                    "time": 417.915998,
                    "velocity": 0.937007874015748,
                },
                {
                    "duration": 0.24739543749996074,
                    "durationTicks": 76,
                    "midi": 74,
                    "name": "D5",
                    "ticks": 128384,
                    "time": 417.915998,
                    "velocity": 0.937007874015748,
                },
                {
                    "duration": 0.41666600000002063,
                    "durationTicks": 128,
                    "midi": 72,
                    "name": "C5",
                    "ticks": 128512,
                    "time": 418.33266399999997,
                    "velocity": 0.952755905511811,
                },
                {
                    "duration": 0.41666600000002063,
                    "durationTicks": 128,
                    "midi": 76,
                    "name": "E5",
                    "ticks": 128512,
                    "time": 418.33266399999997,
                    "velocity": 0.952755905511811,
                },
                {
                    "duration": 0.8333319999999844,
                    "durationTicks": 256,
                    "midi": 68,
                    "name": "G#4",
                    "ticks": 131072,
                    "time": 426.665984,
                    "velocity": 0.2204724409448819,
                },
                {
                    "duration": 0.8333319999999844,
                    "durationTicks": 256,
                    "midi": 76,
                    "name": "E5",
                    "ticks": 131072,
                    "time": 426.665984,
                    "velocity": 0.2204724409448819,
                },
                {
                    "duration": 0.24739543750001758,
                    "durationTicks": 76,
                    "midi": 68,
                    "name": "G#4",
                    "ticks": 131328,
                    "time": 427.49931599999996,
                    "velocity": 0.2992125984251969,
                },
                {
                    "duration": 0.24739543750001758,
                    "durationTicks": 76,
                    "midi": 76,
                    "name": "E5",
                    "ticks": 131328,
                    "time": 427.49931599999996,
                    "velocity": 0.2992125984251969,
                },
                {
                    "duration": 0.23437462499998674,
                    "durationTicks": 72,
                    "midi": 68,
                    "name": "G#4",
                    "ticks": 131456,
                    "time": 427.915982,
                    "velocity": 0.2755905511811024,
                },
                {
                    "duration": 0.23437462499998674,
                    "durationTicks": 72,
                    "midi": 76,
                    "name": "E5",
                    "ticks": 131456,
                    "time": 427.915982,
                    "velocity": 0.2755905511811024,
                },
                {
                    "duration": 0.49804607812501445,
                    "durationTicks": 153,
                    "midi": 69,
                    "name": "A4",
                    "ticks": 131584,
                    "time": 428.33264799999995,
                    "velocity": 0.28346456692913385,
                },
                {
                    "duration": 0.49804607812501445,
                    "durationTicks": 153,
                    "midi": 76,
                    "name": "E5",
                    "ticks": 131584,
                    "time": 428.33264799999995,
                    "velocity": 0.28346456692913385,
                },
                {
                    "duration": 0.4720044531250096,
                    "durationTicks": 145,
                    "midi": 69,
                    "name": "A4",
                    "ticks": 131840,
                    "time": 429.16598,
                    "velocity": 0.25984251968503935,
                },
                {
                    "duration": 0.4720044531250096,
                    "durationTicks": 145,
                    "midi": 76,
                    "name": "E5",
                    "ticks": 131840,
                    "time": 429.16598,
                    "velocity": 0.25984251968503935,
                },
                {
                    "duration": 0.8333320000000413,
                    "durationTicks": 256,
                    "midi": 71,
                    "name": "B4",
                    "ticks": 135168,
                    "time": 439.99929599999996,
                    "velocity": 0.29133858267716534,
                },
                {
                    "duration": 0.8333320000000413,
                    "durationTicks": 256,
                    "midi": 78,
                    "name": "F#5",
                    "ticks": 135168,
                    "time": 439.99929599999996,
                    "velocity": 0.29133858267716534,
                },
                {
                    "duration": 0.24739543749996074,
                    "durationTicks": 76,
                    "midi": 71,
                    "name": "B4",
                    "ticks": 135424,
                    "time": 440.832628,
                    "velocity": 0.2755905511811024,
                },
                {
                    "duration": 0.25065064062499687,
                    "durationTicks": 77,
                    "midi": 78,
                    "name": "F#5",
                    "ticks": 135424,
                    "time": 440.832628,
                    "velocity": 0.2755905511811024,
                },
                {
                    "duration": 0.23437462499998674,
                    "durationTicks": 72,
                    "midi": 71,
                    "name": "B4",
                    "ticks": 135552,
                    "time": 441.24929399999996,
                    "velocity": 0.2992125984251969,
                },
                {
                    "duration": 0.23437462499998674,
                    "durationTicks": 72,
                    "midi": 80,
                    "name": "G#5",
                    "ticks": 135552,
                    "time": 441.24929399999996,
                    "velocity": 0.2992125984251969,
                },
                {
                    "duration": 0.49804607812501445,
                    "durationTicks": 153,
                    "midi": 69,
                    "name": "A4",
                    "ticks": 135680,
                    "time": 441.66596,
                    "velocity": 0.3228346456692913,
                },
                {
                    "duration": 0.49804607812501445,
                    "durationTicks": 153,
                    "midi": 81,
                    "name": "A5",
                    "ticks": 135680,
                    "time": 441.66596,
                    "velocity": 0.3228346456692913,
                },
                {
                    "duration": 0.4720044531250096,
                    "durationTicks": 145,
                    "midi": 69,
                    "name": "A4",
                    "ticks": 135936,
                    "time": 442.49929199999997,
                    "velocity": 0.29133858267716534,
                },
                {
                    "duration": 0.4720044531250096,
                    "durationTicks": 145,
                    "midi": 81,
                    "name": "A5",
                    "ticks": 135936,
                    "time": 442.49929199999997,
                    "velocity": 0.29133858267716534,
                },
                {
                    "duration": 0.8333319999999844,
                    "durationTicks": 256,
                    "midi": 71,
                    "name": "B4",
                    "ticks": 138240,
                    "time": 449.99928,
                    "velocity": 0.23622047244094488,
                },
                {
                    "duration": 0.8333319999999844,
                    "durationTicks": 256,
                    "midi": 74,
                    "name": "D5",
                    "ticks": 138240,
                    "time": 449.99928,
                    "velocity": 0.23622047244094488,
                },
                {
                    "duration": 0.24739543750001758,
                    "durationTicks": 76,
                    "midi": 71,
                    "name": "B4",
                    "ticks": 138496,
                    "time": 450.832612,
                    "velocity": 0.2677165354330709,
                },
                {
                    "duration": 0.24739543750001758,
                    "durationTicks": 76,
                    "midi": 74,
                    "name": "D5",
                    "ticks": 138496,
                    "time": 450.832612,
                    "velocity": 0.2677165354330709,
                },
                {
                    "duration": 0.24739543750001758,
                    "durationTicks": 76,
                    "midi": 71,
                    "name": "B4",
                    "ticks": 138624,
                    "time": 451.24927799999995,
                    "velocity": 0.25984251968503935,
                },
                {
                    "duration": 0.24739543750001758,
                    "durationTicks": 76,
                    "midi": 74,
                    "name": "D5",
                    "ticks": 138624,
                    "time": 451.24927799999995,
                    "velocity": 0.25984251968503935,
                },
                {
                    "duration": 0.8333319999999844,
                    "durationTicks": 256,
                    "midi": 69,
                    "name": "A4",
                    "ticks": 138752,
                    "time": 451.66594399999997,
                    "velocity": 0.25984251968503935,
                },
                {
                    "duration": 0.8333319999999844,
                    "durationTicks": 256,
                    "midi": 72,
                    "name": "C5",
                    "ticks": 138752,
                    "time": 451.66594399999997,
                    "velocity": 0.25984251968503935,
                },
                {
                    "duration": 4.713257499999997,
                    "durationTicks": 1152,
                    "midi": 64,
                    "name": "E4",
                    "ticks": 140800,
                    "time": 458.33259999999996,
                    "velocity": 0.6299212598425197,
                },
                {
                    "duration": 4.713257499999997,
                    "durationTicks": 1152,
                    "midi": 69,
                    "name": "A4",
                    "ticks": 140800,
                    "time": 458.33259999999996,
                    "velocity": 0.6299212598425197,
                },
            ],
            "endOfTrackTicks": 141953,
        },
        {
            "channel": 3,
            "controlChanges": {
                "7": [
                    {"number": 7, "ticks": 0, "time": 0, "value": 0.5433070866141733},
                    {"number": 7, "ticks": 0, "time": 0, "value": 0.7480314960629921},
                    {
                        "number": 7,
                        "ticks": 235,
                        "time": 0.764972734375,
                        "value": 0.6692913385826772,
                    },
                    {
                        "number": 7,
                        "ticks": 342,
                        "time": 1.11327946875,
                        "value": 0.5905511811023622,
                    },
                    {
                        "number": 7,
                        "ticks": 512,
                        "time": 1.666664,
                        "value": 0.5118110236220472,
                    },
                    {
                        "number": 7,
                        "ticks": 815,
                        "time": 2.652990546875,
                        "value": 0.4330708661417323,
                    },
                    {
                        "number": 7,
                        "ticks": 1024,
                        "time": 3.333328,
                        "value": 0.3543307086614173,
                    },
                    {
                        "number": 7,
                        "ticks": 1136,
                        "time": 3.6979107499999997,
                        "value": 0.2755905511811024,
                    },
                    {
                        "number": 7,
                        "ticks": 1536,
                        "time": 4.999992,
                        "value": 0.47244094488188976,
                    },
                    {
                        "number": 7,
                        "ticks": 140800,
                        "time": 458.33259999999996,
                        "value": 0.7480314960629921,
                    },
                    {
                        "number": 7,
                        "ticks": 140928,
                        "time": 458.81647,
                        "value": 0.6692913385826772,
                    },
                    {
                        "number": 7,
                        "ticks": 141130,
                        "time": 459.58007734374996,
                        "value": 0.5905511811023622,
                    },
                    {
                        "number": 7,
                        "ticks": 141311,
                        "time": 460.26429976562497,
                        "value": 0.47244094488188976,
                    },
                    {
                        "number": 7,
                        "ticks": 141616,
                        "time": 461.58752431249997,
                        "value": 0.3543307086614173,
                    },
                    {
                        "number": 7,
                        "ticks": 141824,
                        "time": 462.49030199999993,
                        "value": 0.1968503937007874,
                    },
                    {
                        "number": 7,
                        "ticks": 141952,
                        "time": 463.04585749999995,
                        "value": 0.5118110236220472,
                    },
                ],
                "10": [
                    {"number": 10, "ticks": 0, "time": 0, "value": 0.5511811023622047}
                ],
                "64": [{"number": 64, "ticks": 0, "time": 0, "value": 0}],
                "91": [
                    {"number": 91, "ticks": 0, "time": 0, "value": 0.44881889763779526}
                ],
                "121": [{"number": 121, "ticks": 0, "time": 0, "value": 0}],
            },
            "pitchBends": [],
            "instrument": {"family": "reed", "number": 70, "name": "bassoon"},
            "name": "2 Bassoons",
            "notes": [
                {
                    "duration": 4.16666,
                    "durationTicks": 1280,
                    "midi": 57,
                    "name": "A3",
                    "ticks": 0,
                    "time": 0,
                    "velocity": 0.6929133858267716,
                },
                {
                    "duration": 4.16666,
                    "durationTicks": 1280,
                    "midi": 60,
                    "name": "C4",
                    "ticks": 0,
                    "time": 0,
                    "velocity": 0.6929133858267716,
                },
                {
                    "duration": 0.8333319999999986,
                    "durationTicks": 256,
                    "midi": 60,
                    "name": "C4",
                    "ticks": 34048,
                    "time": 110.83315599999999,
                    "velocity": 0.25984251968503935,
                },
                {
                    "duration": 0.8333319999999986,
                    "durationTicks": 256,
                    "midi": 64,
                    "name": "E4",
                    "ticks": 34048,
                    "time": 110.83315599999999,
                    "velocity": 0.25984251968503935,
                },
                {
                    "duration": 0.8333319999999986,
                    "durationTicks": 256,
                    "midi": 59,
                    "name": "B3",
                    "ticks": 34560,
                    "time": 112.49981999999999,
                    "velocity": 0.3779527559055118,
                },
                {
                    "duration": 0.8333319999999986,
                    "durationTicks": 256,
                    "midi": 66,
                    "name": "F#4",
                    "ticks": 34560,
                    "time": 112.49981999999999,
                    "velocity": 0.3779527559055118,
                },
                {
                    "duration": 0.8333320000000128,
                    "durationTicks": 256,
                    "midi": 59,
                    "name": "B3",
                    "ticks": 35072,
                    "time": 114.16648399999998,
                    "velocity": 0.4094488188976378,
                },
                {
                    "duration": 0.8333320000000128,
                    "durationTicks": 256,
                    "midi": 62,
                    "name": "D4",
                    "ticks": 35072,
                    "time": 114.16648399999998,
                    "velocity": 0.4094488188976378,
                },
                {
                    "duration": 0.8333319999999986,
                    "durationTicks": 256,
                    "midi": 57,
                    "name": "A3",
                    "ticks": 35584,
                    "time": 115.833148,
                    "velocity": 0.4330708661417323,
                },
                {
                    "duration": 0.8333319999999986,
                    "durationTicks": 256,
                    "midi": 64,
                    "name": "E4",
                    "ticks": 35584,
                    "time": 115.833148,
                    "velocity": 0.4330708661417323,
                },
                {
                    "duration": 0.8333319999999986,
                    "durationTicks": 256,
                    "midi": 57,
                    "name": "A3",
                    "ticks": 36096,
                    "time": 117.49981199999999,
                    "velocity": 0.5511811023622047,
                },
                {
                    "duration": 0.8333319999999986,
                    "durationTicks": 256,
                    "midi": 64,
                    "name": "E4",
                    "ticks": 36096,
                    "time": 117.49981199999999,
                    "velocity": 0.5511811023622047,
                },
                {
                    "duration": 0.8333319999999986,
                    "durationTicks": 256,
                    "midi": 57,
                    "name": "A3",
                    "ticks": 36608,
                    "time": 119.16647599999999,
                    "velocity": 0.5669291338582677,
                },
                {
                    "duration": 0.8333319999999986,
                    "durationTicks": 256,
                    "midi": 64,
                    "name": "E4",
                    "ticks": 36608,
                    "time": 119.16647599999999,
                    "velocity": 0.5669291338582677,
                },
                {
                    "duration": 0.8333319999999986,
                    "durationTicks": 256,
                    "midi": 59,
                    "name": "B3",
                    "ticks": 37120,
                    "time": 120.83313999999999,
                    "velocity": 0.6614173228346457,
                },
                {
                    "duration": 0.8333319999999986,
                    "durationTicks": 256,
                    "midi": 62,
                    "name": "D4",
                    "ticks": 37120,
                    "time": 120.83313999999999,
                    "velocity": 0.6614173228346457,
                },
                {
                    "duration": 0.8333320000000128,
                    "durationTicks": 256,
                    "midi": 57,
                    "name": "A3",
                    "ticks": 37632,
                    "time": 122.49980399999998,
                    "velocity": 0.7401574803149606,
                },
                {
                    "duration": 0.8333320000000128,
                    "durationTicks": 256,
                    "midi": 60,
                    "name": "C4",
                    "ticks": 37632,
                    "time": 122.49980399999998,
                    "velocity": 0.7401574803149606,
                },
                {
                    "duration": 0.8333319999999986,
                    "durationTicks": 256,
                    "midi": 52,
                    "name": "E3",
                    "ticks": 37888,
                    "time": 123.333136,
                    "velocity": 0.952755905511811,
                },
                {
                    "duration": 0.8333319999999986,
                    "durationTicks": 256,
                    "midi": 64,
                    "name": "E4",
                    "ticks": 37888,
                    "time": 123.333136,
                    "velocity": 0.952755905511811,
                },
                {
                    "duration": 0.24739543749998916,
                    "durationTicks": 76,
                    "midi": 52,
                    "name": "E3",
                    "ticks": 38144,
                    "time": 124.166468,
                    "velocity": 0.7559055118110236,
                },
                {
                    "duration": 0.24739543749998916,
                    "durationTicks": 76,
                    "midi": 64,
                    "name": "E4",
                    "ticks": 38144,
                    "time": 124.166468,
                    "velocity": 0.7559055118110236,
                },
                {
                    "duration": 0.24739543750000337,
                    "durationTicks": 76,
                    "midi": 52,
                    "name": "E3",
                    "ticks": 38272,
                    "time": 124.58313399999999,
                    "velocity": 0.7874015748031497,
                },
                {
                    "duration": 0.24739543750000337,
                    "durationTicks": 76,
                    "midi": 64,
                    "name": "E4",
                    "ticks": 38272,
                    "time": 124.58313399999999,
                    "velocity": 0.7874015748031497,
                },
                {
                    "duration": 0.49804607812500024,
                    "durationTicks": 153,
                    "midi": 52,
                    "name": "E3",
                    "ticks": 38400,
                    "time": 124.9998,
                    "velocity": 0.7795275590551181,
                },
                {
                    "duration": 0.49804607812500024,
                    "durationTicks": 153,
                    "midi": 64,
                    "name": "E4",
                    "ticks": 38400,
                    "time": 124.9998,
                    "velocity": 0.7795275590551181,
                },
                {
                    "duration": 0.4720044531249954,
                    "durationTicks": 145,
                    "midi": 52,
                    "name": "E3",
                    "ticks": 38656,
                    "time": 125.83313199999999,
                    "velocity": 0.7637795275590551,
                },
                {
                    "duration": 0.4720044531249954,
                    "durationTicks": 145,
                    "midi": 64,
                    "name": "E4",
                    "ticks": 38656,
                    "time": 125.83313199999999,
                    "velocity": 0.7637795275590551,
                },
                {
                    "duration": 0.8333319999999986,
                    "durationTicks": 256,
                    "midi": 52,
                    "name": "E3",
                    "ticks": 38912,
                    "time": 126.66646399999999,
                    "velocity": 0.7480314960629921,
                },
                {
                    "duration": 0.8333319999999986,
                    "durationTicks": 256,
                    "midi": 64,
                    "name": "E4",
                    "ticks": 38912,
                    "time": 126.66646399999999,
                    "velocity": 0.7480314960629921,
                },
                {
                    "duration": 0.24739543750000337,
                    "durationTicks": 76,
                    "midi": 52,
                    "name": "E3",
                    "ticks": 39168,
                    "time": 127.49979599999999,
                    "velocity": 0.7559055118110236,
                },
                {
                    "duration": 0.24739543750000337,
                    "durationTicks": 76,
                    "midi": 64,
                    "name": "E4",
                    "ticks": 39168,
                    "time": 127.49979599999999,
                    "velocity": 0.7559055118110236,
                },
                {
                    "duration": 0.24739543749998916,
                    "durationTicks": 76,
                    "midi": 52,
                    "name": "E3",
                    "ticks": 39296,
                    "time": 127.916462,
                    "velocity": 0.7244094488188977,
                },
                {
                    "duration": 0.24739543749998916,
                    "durationTicks": 76,
                    "midi": 64,
                    "name": "E4",
                    "ticks": 39296,
                    "time": 127.916462,
                    "velocity": 0.7244094488188977,
                },
                {
                    "duration": 0.49804607812501445,
                    "durationTicks": 153,
                    "midi": 52,
                    "name": "E3",
                    "ticks": 39424,
                    "time": 128.333128,
                    "velocity": 0.7795275590551181,
                },
                {
                    "duration": 0.49804607812501445,
                    "durationTicks": 153,
                    "midi": 64,
                    "name": "E4",
                    "ticks": 39424,
                    "time": 128.333128,
                    "velocity": 0.7795275590551181,
                },
                {
                    "duration": 0.4720044531249812,
                    "durationTicks": 145,
                    "midi": 52,
                    "name": "E3",
                    "ticks": 39680,
                    "time": 129.16646,
                    "velocity": 0.7716535433070866,
                },
                {
                    "duration": 0.4720044531249812,
                    "durationTicks": 145,
                    "midi": 64,
                    "name": "E4",
                    "ticks": 39680,
                    "time": 129.16646,
                    "velocity": 0.7716535433070866,
                },
                {
                    "duration": 0.8333320000000128,
                    "durationTicks": 256,
                    "midi": 52,
                    "name": "E3",
                    "ticks": 39936,
                    "time": 129.99979199999999,
                    "velocity": 0.7401574803149606,
                },
                {
                    "duration": 0.8333320000000128,
                    "durationTicks": 256,
                    "midi": 64,
                    "name": "E4",
                    "ticks": 39936,
                    "time": 129.99979199999999,
                    "velocity": 0.7401574803149606,
                },
                {
                    "duration": 0.24739543749998916,
                    "durationTicks": 76,
                    "midi": 52,
                    "name": "E3",
                    "ticks": 40192,
                    "time": 130.833124,
                    "velocity": 0.7874015748031497,
                },
                {
                    "duration": 0.24739543749998916,
                    "durationTicks": 76,
                    "midi": 64,
                    "name": "E4",
                    "ticks": 40192,
                    "time": 130.833124,
                    "velocity": 0.7874015748031497,
                },
                {
                    "duration": 0.24739543749998916,
                    "durationTicks": 76,
                    "midi": 54,
                    "name": "F#3",
                    "ticks": 40320,
                    "time": 131.24979,
                    "velocity": 0.8031496062992126,
                },
                {
                    "duration": 0.24739543749998916,
                    "durationTicks": 76,
                    "midi": 66,
                    "name": "F#4",
                    "ticks": 40320,
                    "time": 131.24979,
                    "velocity": 0.8031496062992126,
                },
                {
                    "duration": 0.49804607812501445,
                    "durationTicks": 153,
                    "midi": 55,
                    "name": "G3",
                    "ticks": 40448,
                    "time": 131.66645599999998,
                    "velocity": 0.7795275590551181,
                },
                {
                    "duration": 0.49804607812501445,
                    "durationTicks": 153,
                    "midi": 67,
                    "name": "G4",
                    "ticks": 40448,
                    "time": 131.66645599999998,
                    "velocity": 0.7795275590551181,
                },
                {
                    "duration": 0.4720044531249812,
                    "durationTicks": 145,
                    "midi": 55,
                    "name": "G3",
                    "ticks": 40704,
                    "time": 132.499788,
                    "velocity": 0.7637795275590551,
                },
                {
                    "duration": 0.4720044531249812,
                    "durationTicks": 145,
                    "midi": 67,
                    "name": "G4",
                    "ticks": 40704,
                    "time": 132.499788,
                    "velocity": 0.7637795275590551,
                },
                {
                    "duration": 0.8333320000000128,
                    "durationTicks": 256,
                    "midi": 55,
                    "name": "G3",
                    "ticks": 40960,
                    "time": 133.33311999999998,
                    "velocity": 0.7874015748031497,
                },
                {
                    "duration": 0.8333320000000128,
                    "durationTicks": 256,
                    "midi": 67,
                    "name": "G4",
                    "ticks": 40960,
                    "time": 133.33311999999998,
                    "velocity": 0.7874015748031497,
                },
                {
                    "duration": 0.24739543749998916,
                    "durationTicks": 76,
                    "midi": 55,
                    "name": "G3",
                    "ticks": 41216,
                    "time": 134.166452,
                    "velocity": 0.7716535433070866,
                },
                {
                    "duration": 0.24739543749998916,
                    "durationTicks": 76,
                    "midi": 67,
                    "name": "G4",
                    "ticks": 41216,
                    "time": 134.166452,
                    "velocity": 0.7716535433070866,
                },
                {
                    "duration": 0.24739543750001758,
                    "durationTicks": 76,
                    "midi": 55,
                    "name": "G3",
                    "ticks": 41344,
                    "time": 134.58311799999998,
                    "velocity": 0.7244094488188977,
                },
                {
                    "duration": 0.24739543750001758,
                    "durationTicks": 76,
                    "midi": 67,
                    "name": "G4",
                    "ticks": 41344,
                    "time": 134.58311799999998,
                    "velocity": 0.7244094488188977,
                },
                {
                    "duration": 0.8333320000000128,
                    "durationTicks": 256,
                    "midi": 55,
                    "name": "G3",
                    "ticks": 41472,
                    "time": 134.99978399999998,
                    "velocity": 0.7244094488188977,
                },
                {
                    "duration": 0.8333320000000128,
                    "durationTicks": 256,
                    "midi": 67,
                    "name": "G4",
                    "ticks": 41472,
                    "time": 134.99978399999998,
                    "velocity": 0.7244094488188977,
                },
                {
                    "duration": 0.8333319999999844,
                    "durationTicks": 256,
                    "midi": 55,
                    "name": "G3",
                    "ticks": 41984,
                    "time": 136.666448,
                    "velocity": 0.6771653543307087,
                },
                {
                    "duration": 0.4166659999999922,
                    "durationTicks": 128,
                    "midi": 55,
                    "name": "G3",
                    "ticks": 42240,
                    "time": 137.49978,
                    "velocity": 0.7480314960629921,
                },
                {
                    "duration": 0.41666600000002063,
                    "durationTicks": 128,
                    "midi": 57,
                    "name": "A3",
                    "ticks": 42368,
                    "time": 137.91644599999998,
                    "velocity": 0.7952755905511811,
                },
                {
                    "duration": 0.498046078124986,
                    "durationTicks": 153,
                    "midi": 59,
                    "name": "B3",
                    "ticks": 42496,
                    "time": 138.333112,
                    "velocity": 0.7795275590551181,
                },
                {
                    "duration": 0.4720044531250096,
                    "durationTicks": 145,
                    "midi": 59,
                    "name": "B3",
                    "ticks": 42752,
                    "time": 139.16644399999998,
                    "velocity": 0.7716535433070866,
                },
                {
                    "duration": 0.8333319999999844,
                    "durationTicks": 256,
                    "midi": 54,
                    "name": "F#3",
                    "ticks": 43008,
                    "time": 139.999776,
                    "velocity": 0.7165354330708661,
                },
                {
                    "duration": 0.41666600000002063,
                    "durationTicks": 128,
                    "midi": 54,
                    "name": "F#3",
                    "ticks": 43264,
                    "time": 140.83310799999998,
                    "velocity": 0.7165354330708661,
                },
                {
                    "duration": 0.4166659999999922,
                    "durationTicks": 128,
                    "midi": 56,
                    "name": "G#3",
                    "ticks": 43392,
                    "time": 141.249774,
                    "velocity": 0.7716535433070866,
                },
                {
                    "duration": 0.498046078124986,
                    "durationTicks": 153,
                    "midi": 57,
                    "name": "A3",
                    "ticks": 43520,
                    "time": 141.66644,
                    "velocity": 0.7795275590551181,
                },
                {
                    "duration": 0.4720044531250096,
                    "durationTicks": 145,
                    "midi": 57,
                    "name": "A3",
                    "ticks": 43776,
                    "time": 142.49977199999998,
                    "velocity": 0.7637795275590551,
                },
                {
                    "duration": 0.8333319999999844,
                    "durationTicks": 256,
                    "midi": 52,
                    "name": "E3",
                    "ticks": 44032,
                    "time": 143.333104,
                    "velocity": 0.905511811023622,
                },
                {
                    "duration": 0.8333319999999844,
                    "durationTicks": 256,
                    "midi": 64,
                    "name": "E4",
                    "ticks": 44032,
                    "time": 143.333104,
                    "velocity": 0.905511811023622,
                },
                {
                    "duration": 0.24739543750001758,
                    "durationTicks": 76,
                    "midi": 52,
                    "name": "E3",
                    "ticks": 44288,
                    "time": 144.16643599999998,
                    "velocity": 0.7637795275590551,
                },
                {
                    "duration": 0.24739543750001758,
                    "durationTicks": 76,
                    "midi": 64,
                    "name": "E4",
                    "ticks": 44288,
                    "time": 144.16643599999998,
                    "velocity": 0.7637795275590551,
                },
                {
                    "duration": 0.24739543749998916,
                    "durationTicks": 76,
                    "midi": 52,
                    "name": "E3",
                    "ticks": 44416,
                    "time": 144.583102,
                    "velocity": 0.7795275590551181,
                },
                {
                    "duration": 0.24739543749998916,
                    "durationTicks": 76,
                    "midi": 64,
                    "name": "E4",
                    "ticks": 44416,
                    "time": 144.583102,
                    "velocity": 0.7795275590551181,
                },
                {
                    "duration": 0.498046078124986,
                    "durationTicks": 153,
                    "midi": 52,
                    "name": "E3",
                    "ticks": 44544,
                    "time": 144.999768,
                    "velocity": 0.7480314960629921,
                },
                {
                    "duration": 0.498046078124986,
                    "durationTicks": 153,
                    "midi": 64,
                    "name": "E4",
                    "ticks": 44544,
                    "time": 144.999768,
                    "velocity": 0.7480314960629921,
                },
                {
                    "duration": 0.4720044531249812,
                    "durationTicks": 145,
                    "midi": 52,
                    "name": "E3",
                    "ticks": 44800,
                    "time": 145.8331,
                    "velocity": 0.7637795275590551,
                },
                {
                    "duration": 0.4720044531249812,
                    "durationTicks": 145,
                    "midi": 64,
                    "name": "E4",
                    "ticks": 44800,
                    "time": 145.8331,
                    "velocity": 0.7637795275590551,
                },
                {
                    "duration": 0.8333320000000128,
                    "durationTicks": 256,
                    "midi": 52,
                    "name": "E3",
                    "ticks": 45056,
                    "time": 146.666432,
                    "velocity": 0.7244094488188977,
                },
                {
                    "duration": 0.8333320000000128,
                    "durationTicks": 256,
                    "midi": 64,
                    "name": "E4",
                    "ticks": 45056,
                    "time": 146.666432,
                    "velocity": 0.7244094488188977,
                },
                {
                    "duration": 0.4166659999999922,
                    "durationTicks": 128,
                    "midi": 54,
                    "name": "F#3",
                    "ticks": 45312,
                    "time": 147.499764,
                    "velocity": 0.6614173228346457,
                },
                {
                    "duration": 0.4166659999999922,
                    "durationTicks": 128,
                    "midi": 56,
                    "name": "G#3",
                    "ticks": 45440,
                    "time": 147.91643,
                    "velocity": 0.7874015748031497,
                },
                {
                    "duration": 0.8333320000000128,
                    "durationTicks": 256,
                    "midi": 57,
                    "name": "A3",
                    "ticks": 45568,
                    "time": 148.33309599999998,
                    "velocity": 0.7637795275590551,
                },
                {
                    "duration": 0.8333320000000128,
                    "durationTicks": 256,
                    "midi": 55,
                    "name": "G3",
                    "ticks": 46080,
                    "time": 149.99975999999998,
                    "velocity": 0.6141732283464567,
                },
                {
                    "duration": 0.24739543749998916,
                    "durationTicks": 76,
                    "midi": 55,
                    "name": "G3",
                    "ticks": 46336,
                    "time": 150.833092,
                    "velocity": 0.6535433070866141,
                },
                {
                    "duration": 0.24739543749998916,
                    "durationTicks": 76,
                    "midi": 57,
                    "name": "A3",
                    "ticks": 46464,
                    "time": 151.24975799999999,
                    "velocity": 0.7086614173228346,
                },
                {
                    "duration": 0.49804607812501445,
                    "durationTicks": 153,
                    "midi": 59,
                    "name": "B3",
                    "ticks": 46592,
                    "time": 151.66642399999998,
                    "velocity": 0.6850393700787402,
                },
                {
                    "duration": 0.4720044531250096,
                    "durationTicks": 145,
                    "midi": 59,
                    "name": "B3",
                    "ticks": 46848,
                    "time": 152.499756,
                    "velocity": 0.6377952755905512,
                },
                {
                    "duration": 0.8333320000000128,
                    "durationTicks": 256,
                    "midi": 54,
                    "name": "F#3",
                    "ticks": 47104,
                    "time": 153.33308799999998,
                    "velocity": 0.5669291338582677,
                },
                {
                    "duration": 0.24739543749998916,
                    "durationTicks": 76,
                    "midi": 54,
                    "name": "F#3",
                    "ticks": 47360,
                    "time": 154.16642,
                    "velocity": 0.5590551181102362,
                },
                {
                    "duration": 0.24739543750001758,
                    "durationTicks": 76,
                    "midi": 56,
                    "name": "G#3",
                    "ticks": 47488,
                    "time": 154.58308599999998,
                    "velocity": 0.5748031496062992,
                },
                {
                    "duration": 0.498046078124986,
                    "durationTicks": 153,
                    "midi": 57,
                    "name": "A3",
                    "ticks": 47616,
                    "time": 154.999752,
                    "velocity": 0.5748031496062992,
                },
                {
                    "duration": 0.4720044531250096,
                    "durationTicks": 145,
                    "midi": 57,
                    "name": "A3",
                    "ticks": 47872,
                    "time": 155.83308399999999,
                    "velocity": 0.5118110236220472,
                },
                {
                    "duration": 0.8333319999999844,
                    "durationTicks": 256,
                    "midi": 52,
                    "name": "E3",
                    "ticks": 48128,
                    "time": 156.666416,
                    "velocity": 0.5354330708661418,
                },
                {
                    "duration": 0.8333319999999844,
                    "durationTicks": 256,
                    "midi": 64,
                    "name": "E4",
                    "ticks": 48128,
                    "time": 156.666416,
                    "velocity": 0.5354330708661418,
                },
                {
                    "duration": 0.24739543750001758,
                    "durationTicks": 76,
                    "midi": 52,
                    "name": "E3",
                    "ticks": 48384,
                    "time": 157.49974799999998,
                    "velocity": 0.48031496062992124,
                },
                {
                    "duration": 0.24739543750001758,
                    "durationTicks": 76,
                    "midi": 64,
                    "name": "E4",
                    "ticks": 48384,
                    "time": 157.49974799999998,
                    "velocity": 0.48031496062992124,
                },
                {
                    "duration": 0.24739543750001758,
                    "durationTicks": 76,
                    "midi": 52,
                    "name": "E3",
                    "ticks": 48512,
                    "time": 157.91641399999997,
                    "velocity": 0.4409448818897638,
                },
                {
                    "duration": 0.24739543750001758,
                    "durationTicks": 76,
                    "midi": 64,
                    "name": "E4",
                    "ticks": 48512,
                    "time": 157.91641399999997,
                    "velocity": 0.4409448818897638,
                },
                {
                    "duration": 0.498046078124986,
                    "durationTicks": 153,
                    "midi": 52,
                    "name": "E3",
                    "ticks": 48640,
                    "time": 158.33308,
                    "velocity": 0.41732283464566927,
                },
                {
                    "duration": 0.498046078124986,
                    "durationTicks": 153,
                    "midi": 64,
                    "name": "E4",
                    "ticks": 48640,
                    "time": 158.33308,
                    "velocity": 0.41732283464566927,
                },
                {
                    "duration": 0.4720044531250096,
                    "durationTicks": 145,
                    "midi": 52,
                    "name": "E3",
                    "ticks": 48896,
                    "time": 159.16641199999998,
                    "velocity": 0.4330708661417323,
                },
                {
                    "duration": 0.4720044531250096,
                    "durationTicks": 145,
                    "midi": 64,
                    "name": "E4",
                    "ticks": 48896,
                    "time": 159.16641199999998,
                    "velocity": 0.4330708661417323,
                },
                {
                    "duration": 0.8333319999999844,
                    "durationTicks": 256,
                    "midi": 52,
                    "name": "E3",
                    "ticks": 49152,
                    "time": 159.999744,
                    "velocity": 0.3700787401574803,
                },
                {
                    "duration": 0.24739543750001758,
                    "durationTicks": 76,
                    "midi": 54,
                    "name": "F#3",
                    "ticks": 49408,
                    "time": 160.83307599999998,
                    "velocity": 0.3937007874015748,
                },
                {
                    "duration": 0.24739543749998916,
                    "durationTicks": 76,
                    "midi": 56,
                    "name": "G#3",
                    "ticks": 49536,
                    "time": 161.249742,
                    "velocity": 0.4094488188976378,
                },
                {
                    "duration": 0.8333319999999844,
                    "durationTicks": 256,
                    "midi": 57,
                    "name": "A3",
                    "ticks": 49664,
                    "time": 161.666408,
                    "velocity": 0.3464566929133858,
                },
                {
                    "duration": 0.8333320000000128,
                    "durationTicks": 256,
                    "midi": 59,
                    "name": "B3",
                    "ticks": 50176,
                    "time": 163.333072,
                    "velocity": 0.31496062992125984,
                },
                {
                    "duration": 0.8333320000000128,
                    "durationTicks": 256,
                    "midi": 62,
                    "name": "D4",
                    "ticks": 50176,
                    "time": 163.333072,
                    "velocity": 0.31496062992125984,
                },
                {
                    "duration": 0.24739543749998916,
                    "durationTicks": 76,
                    "midi": 59,
                    "name": "B3",
                    "ticks": 50432,
                    "time": 164.166404,
                    "velocity": 0.3858267716535433,
                },
                {
                    "duration": 0.24739543749998916,
                    "durationTicks": 76,
                    "midi": 62,
                    "name": "D4",
                    "ticks": 50432,
                    "time": 164.166404,
                    "velocity": 0.3858267716535433,
                },
                {
                    "duration": 0.24739543749998916,
                    "durationTicks": 76,
                    "midi": 59,
                    "name": "B3",
                    "ticks": 50560,
                    "time": 164.58307,
                    "velocity": 0.3937007874015748,
                },
                {
                    "duration": 0.24739543749998916,
                    "durationTicks": 76,
                    "midi": 62,
                    "name": "D4",
                    "ticks": 50560,
                    "time": 164.58307,
                    "velocity": 0.3937007874015748,
                },
                {
                    "duration": 0.8333320000000128,
                    "durationTicks": 256,
                    "midi": 57,
                    "name": "A3",
                    "ticks": 50688,
                    "time": 164.99973599999998,
                    "velocity": 0.33858267716535434,
                },
                {
                    "duration": 0.8333320000000128,
                    "durationTicks": 256,
                    "midi": 60,
                    "name": "C4",
                    "ticks": 50688,
                    "time": 164.99973599999998,
                    "velocity": 0.33858267716535434,
                },
                {
                    "duration": 1.6666639999999973,
                    "durationTicks": 512,
                    "midi": 64,
                    "name": "E4",
                    "ticks": 51456,
                    "time": 167.499732,
                    "velocity": 0.4566929133858268,
                },
                {
                    "duration": 0.8496080156249946,
                    "durationTicks": 261,
                    "midi": 61,
                    "name": "C#4",
                    "ticks": 51968,
                    "time": 169.166396,
                    "velocity": 0.49606299212598426,
                },
                {
                    "duration": 0.849608015625023,
                    "durationTicks": 261,
                    "midi": 57,
                    "name": "A3",
                    "ticks": 52224,
                    "time": 169.99972799999998,
                    "velocity": 0.44881889763779526,
                },
                {
                    "duration": 0.7910143593749979,
                    "durationTicks": 243,
                    "midi": 61,
                    "name": "C#4",
                    "ticks": 52480,
                    "time": 170.83306,
                    "velocity": 0.5590551181102362,
                },
                {
                    "duration": 0.849608015625023,
                    "durationTicks": 261,
                    "midi": 61,
                    "name": "C#4",
                    "ticks": 52736,
                    "time": 171.66639199999997,
                    "velocity": 0.5118110236220472,
                },
                {
                    "duration": 1.699216031249989,
                    "durationTicks": 522,
                    "midi": 50,
                    "name": "D3",
                    "ticks": 52992,
                    "time": 172.499724,
                    "velocity": 0.47244094488188976,
                },
                {
                    "duration": 1.699216031249989,
                    "durationTicks": 522,
                    "midi": 59,
                    "name": "B3",
                    "ticks": 52992,
                    "time": 172.499724,
                    "velocity": 0.47244094488188976,
                },
                {
                    "duration": 0.8496080156249946,
                    "durationTicks": 261,
                    "midi": 49,
                    "name": "C#3",
                    "ticks": 53504,
                    "time": 174.16638799999998,
                    "velocity": 0.5275590551181102,
                },
                {
                    "duration": 0.8496080156249946,
                    "durationTicks": 261,
                    "midi": 57,
                    "name": "A3",
                    "ticks": 53504,
                    "time": 174.16638799999998,
                    "velocity": 0.5275590551181102,
                },
                {
                    "duration": 0.8496080156249946,
                    "durationTicks": 261,
                    "midi": 47,
                    "name": "B2",
                    "ticks": 53760,
                    "time": 174.99972,
                    "velocity": 0.5354330708661418,
                },
                {
                    "duration": 0.8496080156249946,
                    "durationTicks": 261,
                    "midi": 56,
                    "name": "G#3",
                    "ticks": 53760,
                    "time": 174.99972,
                    "velocity": 0.5354330708661418,
                },
                {
                    "duration": 0.8496080156249946,
                    "durationTicks": 261,
                    "midi": 49,
                    "name": "C#3",
                    "ticks": 54016,
                    "time": 175.83305199999998,
                    "velocity": 0.5669291338582677,
                },
                {
                    "duration": 0.8496080156249946,
                    "durationTicks": 261,
                    "midi": 57,
                    "name": "A3",
                    "ticks": 54016,
                    "time": 175.83305199999998,
                    "velocity": 0.5669291338582677,
                },
                {
                    "duration": 0.8496080156249946,
                    "durationTicks": 261,
                    "midi": 50,
                    "name": "D3",
                    "ticks": 54272,
                    "time": 176.666384,
                    "velocity": 0.6141732283464567,
                },
                {
                    "duration": 0.8496080156249946,
                    "durationTicks": 261,
                    "midi": 59,
                    "name": "B3",
                    "ticks": 54272,
                    "time": 176.666384,
                    "velocity": 0.6141732283464567,
                },
                {
                    "duration": 0.8496080156249946,
                    "durationTicks": 261,
                    "midi": 52,
                    "name": "E3",
                    "ticks": 54528,
                    "time": 177.49971599999998,
                    "velocity": 0.6614173228346457,
                },
                {
                    "duration": 0.8496080156249946,
                    "durationTicks": 261,
                    "midi": 61,
                    "name": "C#4",
                    "ticks": 54528,
                    "time": 177.49971599999998,
                    "velocity": 0.6614173228346457,
                },
                {
                    "duration": 0.8496080156249946,
                    "durationTicks": 261,
                    "midi": 54,
                    "name": "F#3",
                    "ticks": 54784,
                    "time": 178.333048,
                    "velocity": 0.6929133858267716,
                },
                {
                    "duration": 0.8496080156249946,
                    "durationTicks": 261,
                    "midi": 62,
                    "name": "D4",
                    "ticks": 54784,
                    "time": 178.333048,
                    "velocity": 0.6929133858267716,
                },
                {
                    "duration": 0.849608015625023,
                    "durationTicks": 261,
                    "midi": 56,
                    "name": "G#3",
                    "ticks": 55040,
                    "time": 179.16637999999998,
                    "velocity": 0.6377952755905512,
                },
                {
                    "duration": 0.849608015625023,
                    "durationTicks": 261,
                    "midi": 64,
                    "name": "E4",
                    "ticks": 55040,
                    "time": 179.16637999999998,
                    "velocity": 0.6377952755905512,
                },
                {
                    "duration": 0.8496080156249946,
                    "durationTicks": 261,
                    "midi": 59,
                    "name": "B3",
                    "ticks": 55296,
                    "time": 179.999712,
                    "velocity": 0.47244094488188976,
                },
                {
                    "duration": 0.8496080156249946,
                    "durationTicks": 261,
                    "midi": 62,
                    "name": "D4",
                    "ticks": 55296,
                    "time": 179.999712,
                    "velocity": 0.47244094488188976,
                },
                {
                    "duration": 0.42317640625000763,
                    "durationTicks": 130,
                    "midi": 57,
                    "name": "A3",
                    "ticks": 55552,
                    "time": 180.83304399999997,
                    "velocity": 0.41732283464566927,
                },
                {
                    "duration": 0.41666600000002063,
                    "durationTicks": 128,
                    "midi": 61,
                    "name": "C#4",
                    "ticks": 55552,
                    "time": 180.83304399999997,
                    "velocity": 0.41732283464566927,
                },
                {
                    "duration": 0.3938795781249951,
                    "durationTicks": 121,
                    "midi": 61,
                    "name": "C#4",
                    "ticks": 55680,
                    "time": 181.24971,
                    "velocity": 0.4409448818897638,
                },
                {
                    "duration": 0.3938795781249951,
                    "durationTicks": 121,
                    "midi": 64,
                    "name": "E4",
                    "ticks": 55680,
                    "time": 181.24971,
                    "velocity": 0.4409448818897638,
                },
                {
                    "duration": 1.6666639999999973,
                    "durationTicks": 512,
                    "midi": 61,
                    "name": "C#4",
                    "ticks": 55808,
                    "time": 181.66637599999999,
                    "velocity": 0.4015748031496063,
                },
                {
                    "duration": 1.699216031249989,
                    "durationTicks": 522,
                    "midi": 64,
                    "name": "E4",
                    "ticks": 55808,
                    "time": 181.66637599999999,
                    "velocity": 0.4015748031496063,
                },
                {
                    "duration": 0.8496080156249946,
                    "durationTicks": 261,
                    "midi": 57,
                    "name": "A3",
                    "ticks": 56320,
                    "time": 183.33303999999998,
                    "velocity": 0.4645669291338583,
                },
                {
                    "duration": 0.8333320000000128,
                    "durationTicks": 256,
                    "midi": 61,
                    "name": "C#4",
                    "ticks": 56320,
                    "time": 183.33303999999998,
                    "velocity": 0.4645669291338583,
                },
                {
                    "duration": 0.7910143593749979,
                    "durationTicks": 243,
                    "midi": 61,
                    "name": "C#4",
                    "ticks": 56576,
                    "time": 184.166372,
                    "velocity": 0.5590551181102362,
                },
                {
                    "duration": 0.7910143593749979,
                    "durationTicks": 243,
                    "midi": 64,
                    "name": "E4",
                    "ticks": 56576,
                    "time": 184.166372,
                    "velocity": 0.5590551181102362,
                },
                {
                    "duration": 0.8496080156249946,
                    "durationTicks": 261,
                    "midi": 61,
                    "name": "C#4",
                    "ticks": 56832,
                    "time": 184.99970399999998,
                    "velocity": 0.5511811023622047,
                },
                {
                    "duration": 0.8496080156249946,
                    "durationTicks": 261,
                    "midi": 64,
                    "name": "E4",
                    "ticks": 56832,
                    "time": 184.99970399999998,
                    "velocity": 0.5511811023622047,
                },
                {
                    "duration": 1.699216031249989,
                    "durationTicks": 522,
                    "midi": 62,
                    "name": "D4",
                    "ticks": 57088,
                    "time": 185.833036,
                    "velocity": 0.6141732283464567,
                },
                {
                    "duration": 1.699216031249989,
                    "durationTicks": 522,
                    "midi": 66,
                    "name": "F#4",
                    "ticks": 57088,
                    "time": 185.833036,
                    "velocity": 0.6141732283464567,
                },
                {
                    "duration": 0.7910143593749979,
                    "durationTicks": 243,
                    "midi": 61,
                    "name": "C#4",
                    "ticks": 57600,
                    "time": 187.4997,
                    "velocity": 0.4330708661417323,
                },
                {
                    "duration": 0.7910143593749979,
                    "durationTicks": 243,
                    "midi": 64,
                    "name": "E4",
                    "ticks": 57600,
                    "time": 187.4997,
                    "velocity": 0.4330708661417323,
                },
                {
                    "duration": 0.849608015625023,
                    "durationTicks": 261,
                    "midi": 59,
                    "name": "B3",
                    "ticks": 57856,
                    "time": 188.33303199999997,
                    "velocity": 0.4566929133858268,
                },
                {
                    "duration": 0.849608015625023,
                    "durationTicks": 261,
                    "midi": 62,
                    "name": "D4",
                    "ticks": 57856,
                    "time": 188.33303199999997,
                    "velocity": 0.4566929133858268,
                },
                {
                    "duration": 0.8496080156249946,
                    "durationTicks": 261,
                    "midi": 57,
                    "name": "A3",
                    "ticks": 58112,
                    "time": 189.166364,
                    "velocity": 0.4409448818897638,
                },
                {
                    "duration": 0.8496080156249946,
                    "durationTicks": 261,
                    "midi": 61,
                    "name": "C#4",
                    "ticks": 58112,
                    "time": 189.166364,
                    "velocity": 0.4409448818897638,
                },
                {
                    "duration": 0.849608015625023,
                    "durationTicks": 261,
                    "midi": 56,
                    "name": "G#3",
                    "ticks": 58368,
                    "time": 189.99969599999997,
                    "velocity": 0.4409448818897638,
                },
                {
                    "duration": 0.849608015625023,
                    "durationTicks": 261,
                    "midi": 59,
                    "name": "B3",
                    "ticks": 58368,
                    "time": 189.99969599999997,
                    "velocity": 0.4409448818897638,
                },
                {
                    "duration": 0.8496080156249946,
                    "durationTicks": 261,
                    "midi": 54,
                    "name": "F#3",
                    "ticks": 58624,
                    "time": 190.83302799999998,
                    "velocity": 0.4645669291338583,
                },
                {
                    "duration": 0.8496080156249946,
                    "durationTicks": 261,
                    "midi": 63,
                    "name": "D#4",
                    "ticks": 58624,
                    "time": 190.83302799999998,
                    "velocity": 0.4645669291338583,
                },
                {
                    "duration": 0.8333319999999844,
                    "durationTicks": 256,
                    "midi": 56,
                    "name": "G#3",
                    "ticks": 58880,
                    "time": 191.66636,
                    "velocity": 0.41732283464566927,
                },
                {
                    "duration": 0.8496080156249946,
                    "durationTicks": 261,
                    "midi": 64,
                    "name": "E4",
                    "ticks": 58880,
                    "time": 191.66636,
                    "velocity": 0.41732283464566927,
                },
                {
                    "duration": 0.7910143593749979,
                    "durationTicks": 243,
                    "midi": 52,
                    "name": "E3",
                    "ticks": 59136,
                    "time": 192.49969199999998,
                    "velocity": 0.3543307086614173,
                },
                {
                    "duration": 0.7910143593749979,
                    "durationTicks": 243,
                    "midi": 56,
                    "name": "G#3",
                    "ticks": 59136,
                    "time": 192.49969199999998,
                    "velocity": 0.3543307086614173,
                },
                {
                    "duration": 1.699216031249989,
                    "durationTicks": 522,
                    "midi": 54,
                    "name": "F#3",
                    "ticks": 59392,
                    "time": 193.333024,
                    "velocity": 0.36220472440944884,
                },
                {
                    "duration": 1.699216031249989,
                    "durationTicks": 522,
                    "midi": 57,
                    "name": "A3",
                    "ticks": 59392,
                    "time": 193.333024,
                    "velocity": 0.36220472440944884,
                },
                {
                    "duration": 1.699216031249989,
                    "durationTicks": 522,
                    "midi": 52,
                    "name": "E3",
                    "ticks": 59904,
                    "time": 194.999688,
                    "velocity": 0.36220472440944884,
                },
                {
                    "duration": 1.699216031249989,
                    "durationTicks": 522,
                    "midi": 56,
                    "name": "G#3",
                    "ticks": 59904,
                    "time": 194.999688,
                    "velocity": 0.36220472440944884,
                },
                {
                    "duration": 1.699216031249989,
                    "durationTicks": 522,
                    "midi": 54,
                    "name": "F#3",
                    "ticks": 60416,
                    "time": 196.666352,
                    "velocity": 0.4094488188976378,
                },
                {
                    "duration": 1.699216031249989,
                    "durationTicks": 522,
                    "midi": 57,
                    "name": "A3",
                    "ticks": 60416,
                    "time": 196.666352,
                    "velocity": 0.4094488188976378,
                },
                {
                    "duration": 1.699216031249989,
                    "durationTicks": 522,
                    "midi": 52,
                    "name": "E3",
                    "ticks": 60928,
                    "time": 198.333016,
                    "velocity": 0.3779527559055118,
                },
                {
                    "duration": 1.699216031249989,
                    "durationTicks": 522,
                    "midi": 56,
                    "name": "G#3",
                    "ticks": 60928,
                    "time": 198.333016,
                    "velocity": 0.3779527559055118,
                },
                {
                    "duration": 1.5820287187499957,
                    "durationTicks": 486,
                    "midi": 54,
                    "name": "F#3",
                    "ticks": 61440,
                    "time": 199.99967999999998,
                    "velocity": 0.3779527559055118,
                },
                {
                    "duration": 1.5820287187499957,
                    "durationTicks": 486,
                    "midi": 57,
                    "name": "A3",
                    "ticks": 61440,
                    "time": 199.99967999999998,
                    "velocity": 0.3779527559055118,
                },
                {
                    "duration": 0.8658840312500047,
                    "durationTicks": 266,
                    "midi": 56,
                    "name": "G#3",
                    "ticks": 61952,
                    "time": 201.66634399999998,
                    "velocity": 0.3937007874015748,
                },
                {
                    "duration": 0.8658840312500047,
                    "durationTicks": 266,
                    "midi": 52,
                    "name": "E3",
                    "ticks": 61952,
                    "time": 201.66634399999998,
                    "velocity": 0.3228346456692913,
                },
                {
                    "duration": 0.7486967187499829,
                    "durationTicks": 230,
                    "midi": 59,
                    "name": "B3",
                    "ticks": 62208,
                    "time": 202.499676,
                    "velocity": 0.3858267716535433,
                },
                {
                    "duration": 1.6992160312500175,
                    "durationTicks": 522,
                    "midi": 58,
                    "name": "A#3",
                    "ticks": 62464,
                    "time": 203.33300799999998,
                    "velocity": 0.4094488188976378,
                },
                {
                    "duration": 1.5820287187499957,
                    "durationTicks": 486,
                    "midi": 59,
                    "name": "B3",
                    "ticks": 62976,
                    "time": 204.99967199999998,
                    "velocity": 0.4645669291338583,
                },
                {
                    "duration": 1.6992160312500175,
                    "durationTicks": 522,
                    "midi": 58,
                    "name": "A#3",
                    "ticks": 63488,
                    "time": 206.66633599999997,
                    "velocity": 0.6062992125984252,
                },
                {
                    "duration": 1.5820287187499957,
                    "durationTicks": 486,
                    "midi": 59,
                    "name": "B3",
                    "ticks": 64000,
                    "time": 208.333,
                    "velocity": 0.7086614173228346,
                },
                {
                    "duration": 0.8333319999999844,
                    "durationTicks": 256,
                    "midi": 58,
                    "name": "A#3",
                    "ticks": 64512,
                    "time": 209.999664,
                    "velocity": 0.5511811023622047,
                },
                {
                    "duration": 1.0514306093750179,
                    "durationTicks": 323,
                    "midi": 64,
                    "name": "E4",
                    "ticks": 64768,
                    "time": 210.83299599999998,
                    "velocity": 0.8976377952755905,
                },
                {
                    "duration": 0.8496080156249946,
                    "durationTicks": 261,
                    "midi": 49,
                    "name": "C#3",
                    "ticks": 64768,
                    "time": 210.83299599999998,
                    "velocity": 0.5748031496062992,
                },
                {
                    "duration": 1.5820287187499957,
                    "durationTicks": 486,
                    "midi": 50,
                    "name": "D3",
                    "ticks": 65024,
                    "time": 211.666328,
                    "velocity": 0.5905511811023622,
                },
                {
                    "duration": 0.2766922656250017,
                    "durationTicks": 85,
                    "midi": 62,
                    "name": "D4",
                    "ticks": 65109,
                    "time": 211.943020265625,
                    "velocity": 0.7244094488188977,
                },
                {
                    "duration": 0.279947468749981,
                    "durationTicks": 86,
                    "midi": 61,
                    "name": "C#4",
                    "ticks": 65194,
                    "time": 212.21971253125,
                    "velocity": 0.7322834645669292,
                },
                {
                    "duration": 0.2766922656250017,
                    "durationTicks": 85,
                    "midi": 64,
                    "name": "E4",
                    "ticks": 65280,
                    "time": 212.49965999999998,
                    "velocity": 0.8188976377952756,
                },
                {
                    "duration": 0.2766922656250017,
                    "durationTicks": 85,
                    "midi": 62,
                    "name": "D4",
                    "ticks": 65365,
                    "time": 212.77635226562498,
                    "velocity": 0.7086614173228346,
                },
                {
                    "duration": 0.2799474687500094,
                    "durationTicks": 86,
                    "midi": 54,
                    "name": "F#3",
                    "ticks": 65450,
                    "time": 213.05304453124998,
                    "velocity": 0.6220472440944882,
                },
                {
                    "duration": 0.8496080156249946,
                    "durationTicks": 261,
                    "midi": 57,
                    "name": "A3",
                    "ticks": 65536,
                    "time": 213.332992,
                    "velocity": 0.5433070866141733,
                },
                {
                    "duration": 0.8496080156249946,
                    "durationTicks": 261,
                    "midi": 49,
                    "name": "C#3",
                    "ticks": 65536,
                    "time": 213.332992,
                    "velocity": 0.44881889763779526,
                },
                {
                    "duration": 0.849608015625023,
                    "durationTicks": 261,
                    "midi": 59,
                    "name": "B3",
                    "ticks": 65792,
                    "time": 214.16632399999997,
                    "velocity": 0.5669291338582677,
                },
                {
                    "duration": 0.849608015625023,
                    "durationTicks": 261,
                    "midi": 50,
                    "name": "D3",
                    "ticks": 65792,
                    "time": 214.16632399999997,
                    "velocity": 0.44881889763779526,
                },
                {
                    "duration": 0.8496080156249946,
                    "durationTicks": 261,
                    "midi": 61,
                    "name": "C#4",
                    "ticks": 66048,
                    "time": 214.999656,
                    "velocity": 0.5511811023622047,
                },
                {
                    "duration": 0.8496080156249946,
                    "durationTicks": 261,
                    "midi": 57,
                    "name": "A3",
                    "ticks": 66048,
                    "time": 214.999656,
                    "velocity": 0.6141732283464567,
                },
                {
                    "duration": 0.2799474687500094,
                    "durationTicks": 86,
                    "midi": 62,
                    "name": "D4",
                    "ticks": 66304,
                    "time": 215.83298799999997,
                    "velocity": 0.5511811023622047,
                },
                {
                    "duration": 0.2799474687500094,
                    "durationTicks": 86,
                    "midi": 59,
                    "name": "B3",
                    "ticks": 66304,
                    "time": 215.83298799999997,
                    "velocity": 0.5590551181102362,
                },
                {
                    "duration": 0.2799474687500094,
                    "durationTicks": 86,
                    "midi": 63,
                    "name": "D#4",
                    "ticks": 66389,
                    "time": 216.10968026562497,
                    "velocity": 0.5669291338582677,
                },
                {
                    "duration": 0.2799474687500094,
                    "durationTicks": 86,
                    "midi": 60,
                    "name": "C4",
                    "ticks": 66389,
                    "time": 216.10968026562497,
                    "velocity": 0.5748031496062992,
                },
                {
                    "duration": 0.2636714531249993,
                    "durationTicks": 81,
                    "midi": 64,
                    "name": "E4",
                    "ticks": 66474,
                    "time": 216.38637253124998,
                    "velocity": 0.5354330708661418,
                },
                {
                    "duration": 0.2636714531249993,
                    "durationTicks": 81,
                    "midi": 61,
                    "name": "C#4",
                    "ticks": 66474,
                    "time": 216.38637253124998,
                    "velocity": 0.5669291338582677,
                },
                {
                    "duration": 1.699216031249989,
                    "durationTicks": 522,
                    "midi": 58,
                    "name": "A#3",
                    "ticks": 66560,
                    "time": 216.66631999999998,
                    "velocity": 0.5196850393700787,
                },
                {
                    "duration": 1.5820287187499957,
                    "durationTicks": 486,
                    "midi": 59,
                    "name": "B3",
                    "ticks": 67072,
                    "time": 218.33298399999998,
                    "velocity": 0.5748031496062992,
                },
                {
                    "duration": 1.6992160312500175,
                    "durationTicks": 522,
                    "midi": 58,
                    "name": "A#3",
                    "ticks": 67584,
                    "time": 219.99964799999998,
                    "velocity": 0.5433070866141733,
                },
                {
                    "duration": 1.5820287187499957,
                    "durationTicks": 486,
                    "midi": 59,
                    "name": "B3",
                    "ticks": 68096,
                    "time": 221.66631199999998,
                    "velocity": 0.5984251968503937,
                },
                {
                    "duration": 0.8333320000000128,
                    "durationTicks": 256,
                    "midi": 58,
                    "name": "A#3",
                    "ticks": 68608,
                    "time": 223.33297599999997,
                    "velocity": 0.5748031496062992,
                },
                {
                    "duration": 0.849608015625023,
                    "durationTicks": 261,
                    "midi": 59,
                    "name": "B3",
                    "ticks": 68608,
                    "time": 223.33297599999997,
                    "velocity": 0.5433070866141733,
                },
                {
                    "duration": 0.8496080156249946,
                    "durationTicks": 261,
                    "midi": 58,
                    "name": "A#3",
                    "ticks": 68864,
                    "time": 224.166308,
                    "velocity": 0.6220472440944882,
                },
                {
                    "duration": 0.8496080156249946,
                    "durationTicks": 261,
                    "midi": 64,
                    "name": "E4",
                    "ticks": 68864,
                    "time": 224.166308,
                    "velocity": 0.6220472440944882,
                },
                {
                    "duration": 0.8333320000000128,
                    "durationTicks": 256,
                    "midi": 57,
                    "name": "A3",
                    "ticks": 69120,
                    "time": 224.99963999999997,
                    "velocity": 0.5275590551181102,
                },
                {
                    "duration": 0.849608015625023,
                    "durationTicks": 261,
                    "midi": 65,
                    "name": "F4",
                    "ticks": 69120,
                    "time": 224.99963999999997,
                    "velocity": 0.5275590551181102,
                },
                {
                    "duration": 0.8496080156249946,
                    "durationTicks": 261,
                    "midi": 53,
                    "name": "F3",
                    "ticks": 69376,
                    "time": 225.83297199999998,
                    "velocity": 0.3858267716535433,
                },
                {
                    "duration": 0.8496080156249946,
                    "durationTicks": 261,
                    "midi": 57,
                    "name": "A3",
                    "ticks": 69376,
                    "time": 225.83297199999998,
                    "velocity": 0.3858267716535433,
                },
                {
                    "duration": 0.8496080156249946,
                    "durationTicks": 261,
                    "midi": 52,
                    "name": "E3",
                    "ticks": 69632,
                    "time": 226.666304,
                    "velocity": 0.3937007874015748,
                },
                {
                    "duration": 0.8496080156249946,
                    "durationTicks": 261,
                    "midi": 55,
                    "name": "G3",
                    "ticks": 69632,
                    "time": 226.666304,
                    "velocity": 0.3937007874015748,
                },
                {
                    "duration": 0.8496080156249946,
                    "durationTicks": 261,
                    "midi": 53,
                    "name": "F3",
                    "ticks": 69888,
                    "time": 227.49963599999998,
                    "velocity": 0.5118110236220472,
                },
                {
                    "duration": 0.8496080156249946,
                    "durationTicks": 261,
                    "midi": 59,
                    "name": "B3",
                    "ticks": 69888,
                    "time": 227.49963599999998,
                    "velocity": 0.5118110236220472,
                },
                {
                    "duration": 0.7910143593749979,
                    "durationTicks": 243,
                    "midi": 52,
                    "name": "E3",
                    "ticks": 70144,
                    "time": 228.332968,
                    "velocity": 0.49606299212598426,
                },
                {
                    "duration": 0.7910143593749979,
                    "durationTicks": 243,
                    "midi": 60,
                    "name": "C4",
                    "ticks": 70144,
                    "time": 228.332968,
                    "velocity": 0.49606299212598426,
                },
                {
                    "duration": 1.249998000000005,
                    "durationTicks": 384,
                    "midi": 65,
                    "name": "F4",
                    "ticks": 71680,
                    "time": 233.33295999999999,
                    "velocity": 0.5826771653543307,
                },
                {
                    "duration": 0.4166659999999922,
                    "durationTicks": 128,
                    "midi": 65,
                    "name": "F4",
                    "ticks": 72064,
                    "time": 234.582958,
                    "velocity": 0.5984251968503937,
                },
                {
                    "duration": 0.2799474687500094,
                    "durationTicks": 86,
                    "midi": 65,
                    "name": "F4",
                    "ticks": 72192,
                    "time": 234.99962399999998,
                    "velocity": 0.6535433070866141,
                },
                {
                    "duration": 0.2604162499999916,
                    "durationTicks": 80,
                    "midi": 64,
                    "name": "E4",
                    "ticks": 72277,
                    "time": 235.27631626562498,
                    "velocity": 0.6377952755905512,
                },
                {
                    "duration": 0.16601535937499534,
                    "durationTicks": 51,
                    "midi": 62,
                    "name": "D4",
                    "ticks": 72362,
                    "time": 235.55300853125,
                    "velocity": 0.6062992125984252,
                },
                {
                    "duration": 0.16601535937499534,
                    "durationTicks": 51,
                    "midi": 60,
                    "name": "C4",
                    "ticks": 72448,
                    "time": 235.832956,
                    "velocity": 0.5748031496062992,
                },
                {
                    "duration": 0.16601535937499534,
                    "durationTicks": 51,
                    "midi": 59,
                    "name": "B3",
                    "ticks": 72533,
                    "time": 236.109648265625,
                    "velocity": 0.6062992125984252,
                },
                {
                    "duration": 0.16601535937502376,
                    "durationTicks": 51,
                    "midi": 57,
                    "name": "A3",
                    "ticks": 72618,
                    "time": 236.38634053124997,
                    "velocity": 0.6220472440944882,
                },
                {
                    "duration": 0.8496080156249946,
                    "durationTicks": 261,
                    "midi": 55,
                    "name": "G3",
                    "ticks": 72704,
                    "time": 236.66628799999998,
                    "velocity": 0.6929133858267716,
                },
                {
                    "duration": 0.3938795781249951,
                    "durationTicks": 121,
                    "midi": 59,
                    "name": "B3",
                    "ticks": 72960,
                    "time": 237.49962,
                    "velocity": 0.7086614173228346,
                },
                {
                    "duration": 0.4166659999999922,
                    "durationTicks": 128,
                    "midi": 62,
                    "name": "D4",
                    "ticks": 73088,
                    "time": 237.91628599999999,
                    "velocity": 0.7480314960629921,
                },
                {
                    "duration": 0.16601535937499534,
                    "durationTicks": 51,
                    "midi": 65,
                    "name": "F4",
                    "ticks": 73216,
                    "time": 238.33295199999998,
                    "velocity": 0.84251968503937,
                },
                {
                    "duration": 0.16601535937499534,
                    "durationTicks": 51,
                    "midi": 64,
                    "name": "E4",
                    "ticks": 73301,
                    "time": 238.60964426562498,
                    "velocity": 0.7322834645669292,
                },
                {
                    "duration": 0.16601535937499534,
                    "durationTicks": 51,
                    "midi": 62,
                    "name": "D4",
                    "ticks": 73386,
                    "time": 238.88633653124998,
                    "velocity": 0.7165354330708661,
                },
                {
                    "duration": 0.16601535937499534,
                    "durationTicks": 51,
                    "midi": 60,
                    "name": "C4",
                    "ticks": 73472,
                    "time": 239.166284,
                    "velocity": 0.7952755905511811,
                },
                {
                    "duration": 0.16601535937499534,
                    "durationTicks": 51,
                    "midi": 59,
                    "name": "B3",
                    "ticks": 73557,
                    "time": 239.442976265625,
                    "velocity": 0.7244094488188977,
                },
                {
                    "duration": 0.16601535937499534,
                    "durationTicks": 51,
                    "midi": 57,
                    "name": "A3",
                    "ticks": 73642,
                    "time": 239.71966853125,
                    "velocity": 0.7559055118110236,
                },
                {
                    "duration": 0.41666600000002063,
                    "durationTicks": 128,
                    "midi": 55,
                    "name": "G3",
                    "ticks": 73728,
                    "time": 239.99961599999997,
                    "velocity": 0.7244094488188977,
                },
                {
                    "duration": 0.24739543750001758,
                    "durationTicks": 76,
                    "midi": 64,
                    "name": "E4",
                    "ticks": 76032,
                    "time": 247.49960399999998,
                    "velocity": 0.7874015748031497,
                },
                {
                    "duration": 0.24739543749998916,
                    "durationTicks": 76,
                    "midi": 64,
                    "name": "E4",
                    "ticks": 76160,
                    "time": 247.91627,
                    "velocity": 0.889763779527559,
                },
                {
                    "duration": 1.699216031249989,
                    "durationTicks": 522,
                    "midi": 60,
                    "name": "C4",
                    "ticks": 76288,
                    "time": 248.332936,
                    "velocity": 0.33858267716535434,
                },
                {
                    "duration": 1.5527318906249832,
                    "durationTicks": 477,
                    "midi": 59,
                    "name": "B3",
                    "ticks": 76800,
                    "time": 249.9996,
                    "velocity": 0.30708661417322836,
                },
                {
                    "duration": 0.17903617187499776,
                    "durationTicks": 55,
                    "midi": 59,
                    "name": "B3",
                    "ticks": 77312,
                    "time": 251.66626399999998,
                    "velocity": 0.3779527559055118,
                },
                {
                    "duration": 0.17903617187499776,
                    "durationTicks": 55,
                    "midi": 60,
                    "name": "C4",
                    "ticks": 77367,
                    "time": 251.84530017187498,
                    "velocity": 0.3779527559055118,
                },
                {
                    "duration": 1.0514306093749894,
                    "durationTicks": 323,
                    "midi": 62,
                    "name": "D4",
                    "ticks": 77422,
                    "time": 252.02433634374998,
                    "velocity": 0.3779527559055118,
                },
                {
                    "duration": 0.2766922656250017,
                    "durationTicks": 85,
                    "midi": 60,
                    "name": "C4",
                    "ticks": 77653,
                    "time": 252.77628826562497,
                    "velocity": 0.36220472440944884,
                },
                {
                    "duration": 0.2799474687500094,
                    "durationTicks": 86,
                    "midi": 59,
                    "name": "B3",
                    "ticks": 77738,
                    "time": 253.05298053124997,
                    "velocity": 0.33858267716535434,
                },
                {
                    "duration": 0.42317640625000763,
                    "durationTicks": 130,
                    "midi": 59,
                    "name": "B3",
                    "ticks": 77824,
                    "time": 253.33292799999998,
                    "velocity": 0.3858267716535433,
                },
                {
                    "duration": 0.3938795781250235,
                    "durationTicks": 121,
                    "midi": 60,
                    "name": "C4",
                    "ticks": 77952,
                    "time": 253.74959399999997,
                    "velocity": 0.3937007874015748,
                },
                {
                    "duration": 0.8333319999999844,
                    "durationTicks": 256,
                    "midi": 60,
                    "name": "C4",
                    "ticks": 78080,
                    "time": 254.16626,
                    "velocity": 0.4015748031496063,
                },
                {
                    "duration": 1.2727844218750022,
                    "durationTicks": 391,
                    "midi": 60,
                    "name": "C4",
                    "ticks": 78336,
                    "time": 254.99959199999998,
                    "velocity": 0.36220472440944884,
                },
                {
                    "duration": 0.3938795781249951,
                    "durationTicks": 121,
                    "midi": 62,
                    "name": "D4",
                    "ticks": 78720,
                    "time": 256.24959,
                    "velocity": 0.33858267716535434,
                },
                {
                    "duration": 0.42317640625003605,
                    "durationTicks": 130,
                    "midi": 63,
                    "name": "D#4",
                    "ticks": 78848,
                    "time": 256.666256,
                    "velocity": 0.4015748031496063,
                },
                {
                    "duration": 0.3938795781249951,
                    "durationTicks": 121,
                    "midi": 64,
                    "name": "E4",
                    "ticks": 78976,
                    "time": 257.082922,
                    "velocity": 0.3937007874015748,
                },
                {
                    "duration": 0.24739543749996074,
                    "durationTicks": 76,
                    "midi": 64,
                    "name": "E4",
                    "ticks": 79104,
                    "time": 257.499588,
                    "velocity": 0.3700787401574803,
                },
                {
                    "duration": 0.24739543750001758,
                    "durationTicks": 76,
                    "midi": 64,
                    "name": "E4",
                    "ticks": 79232,
                    "time": 257.916254,
                    "velocity": 0.3858267716535433,
                },
                {
                    "duration": 0.17903617187499776,
                    "durationTicks": 55,
                    "midi": 62,
                    "name": "D4",
                    "ticks": 79360,
                    "time": 258.33292,
                    "velocity": 0.3937007874015748,
                },
                {
                    "duration": 0.17903617187499776,
                    "durationTicks": 55,
                    "midi": 64,
                    "name": "E4",
                    "ticks": 79415,
                    "time": 258.511956171875,
                    "velocity": 0.3937007874015748,
                },
                {
                    "duration": 1.051430609374961,
                    "durationTicks": 323,
                    "midi": 65,
                    "name": "F4",
                    "ticks": 79470,
                    "time": 258.69099234375,
                    "velocity": 0.3937007874015748,
                },
                {
                    "duration": 0.2766922656250017,
                    "durationTicks": 85,
                    "midi": 64,
                    "name": "E4",
                    "ticks": 79701,
                    "time": 259.442944265625,
                    "velocity": 0.3464566929133858,
                },
                {
                    "duration": 0.279947468749981,
                    "durationTicks": 86,
                    "midi": 62,
                    "name": "D4",
                    "ticks": 79786,
                    "time": 259.71963653125,
                    "velocity": 0.33858267716535434,
                },
                {
                    "duration": 0.42317640625003605,
                    "durationTicks": 130,
                    "midi": 62,
                    "name": "D4",
                    "ticks": 79872,
                    "time": 259.99958399999997,
                    "velocity": 0.3937007874015748,
                },
                {
                    "duration": 0.3938795781249951,
                    "durationTicks": 121,
                    "midi": 64,
                    "name": "E4",
                    "ticks": 80000,
                    "time": 260.41625,
                    "velocity": 0.4094488188976378,
                },
                {
                    "duration": 0.8333320000000413,
                    "durationTicks": 256,
                    "midi": 64,
                    "name": "E4",
                    "ticks": 80128,
                    "time": 260.83291599999995,
                    "velocity": 0.36220472440944884,
                },
                {
                    "duration": 1.2727844218749738,
                    "durationTicks": 391,
                    "midi": 64,
                    "name": "E4",
                    "ticks": 80384,
                    "time": 261.666248,
                    "velocity": 0.41732283464566927,
                },
                {
                    "duration": 0.4231764062499792,
                    "durationTicks": 130,
                    "midi": 66,
                    "name": "F#4",
                    "ticks": 80768,
                    "time": 262.916246,
                    "velocity": 0.44881889763779526,
                },
                {
                    "duration": 0.8496080156249946,
                    "durationTicks": 261,
                    "midi": 64,
                    "name": "E4",
                    "ticks": 80896,
                    "time": 263.33291199999996,
                    "velocity": 0.3464566929133858,
                },
                {
                    "duration": 0.3938795781249951,
                    "durationTicks": 121,
                    "midi": 63,
                    "name": "D#4",
                    "ticks": 81152,
                    "time": 264.166244,
                    "velocity": 0.3228346456692913,
                },
                {
                    "duration": 1.2727844218749738,
                    "durationTicks": 391,
                    "midi": 62,
                    "name": "D4",
                    "ticks": 81408,
                    "time": 264.999576,
                    "velocity": 0.3543307086614173,
                },
                {
                    "duration": 0.4231764062499792,
                    "durationTicks": 130,
                    "midi": 64,
                    "name": "E4",
                    "ticks": 81792,
                    "time": 266.249574,
                    "velocity": 0.3858267716535433,
                },
                {
                    "duration": 0.42317640625003605,
                    "durationTicks": 130,
                    "midi": 62,
                    "name": "D4",
                    "ticks": 81920,
                    "time": 266.66623999999996,
                    "velocity": 0.3464566929133858,
                },
                {
                    "duration": 0.4231764062499792,
                    "durationTicks": 130,
                    "midi": 61,
                    "name": "C#4",
                    "ticks": 82048,
                    "time": 267.082906,
                    "velocity": 0.3228346456692913,
                },
                {
                    "duration": 0.3938795781249951,
                    "durationTicks": 121,
                    "midi": 60,
                    "name": "C4",
                    "ticks": 82176,
                    "time": 267.499572,
                    "velocity": 0.33070866141732286,
                },
                {
                    "duration": 1.699216031249989,
                    "durationTicks": 522,
                    "midi": 60,
                    "name": "C4",
                    "ticks": 82432,
                    "time": 268.332904,
                    "velocity": 0.3543307086614173,
                },
                {
                    "duration": 0.8496080156249946,
                    "durationTicks": 261,
                    "midi": 59,
                    "name": "B3",
                    "ticks": 82944,
                    "time": 269.999568,
                    "velocity": 0.33858267716535434,
                },
                {
                    "duration": 0.7193998906249703,
                    "durationTicks": 221,
                    "midi": 60,
                    "name": "C4",
                    "ticks": 83200,
                    "time": 270.8329,
                    "velocity": 0.4251968503937008,
                },
                {
                    "duration": 0.17903617187499776,
                    "durationTicks": 55,
                    "midi": 59,
                    "name": "B3",
                    "ticks": 83456,
                    "time": 271.666232,
                    "velocity": 0.3858267716535433,
                },
                {
                    "duration": 0.17903617187499776,
                    "durationTicks": 55,
                    "midi": 60,
                    "name": "C4",
                    "ticks": 83511,
                    "time": 271.845268171875,
                    "velocity": 0.3858267716535433,
                },
                {
                    "duration": 1.0514306093750179,
                    "durationTicks": 323,
                    "midi": 62,
                    "name": "D4",
                    "ticks": 83566,
                    "time": 272.02430434375,
                    "velocity": 0.3858267716535433,
                },
                {
                    "duration": 0.2766922656250017,
                    "durationTicks": 85,
                    "midi": 60,
                    "name": "C4",
                    "ticks": 83797,
                    "time": 272.77625626562497,
                    "velocity": 0.33858267716535434,
                },
                {
                    "duration": 0.27994746875003784,
                    "durationTicks": 86,
                    "midi": 59,
                    "name": "B3",
                    "ticks": 83882,
                    "time": 273.05294853124997,
                    "velocity": 0.3779527559055118,
                },
                {
                    "duration": 0.16601535937496692,
                    "durationTicks": 51,
                    "midi": 57,
                    "name": "A3",
                    "ticks": 83968,
                    "time": 273.332896,
                    "velocity": 0.3543307086614173,
                },
                {
                    "duration": 0.279947468749981,
                    "durationTicks": 86,
                    "midi": 57,
                    "name": "A3",
                    "ticks": 84053,
                    "time": 273.609588265625,
                    "velocity": 0.3779527559055118,
                },
                {
                    "duration": 0.26367145312497087,
                    "durationTicks": 81,
                    "midi": 59,
                    "name": "B3",
                    "ticks": 84138,
                    "time": 273.88628053125,
                    "velocity": 0.4094488188976378,
                },
                {
                    "duration": 0.16601535937496692,
                    "durationTicks": 51,
                    "midi": 60,
                    "name": "C4",
                    "ticks": 84224,
                    "time": 274.166228,
                    "velocity": 0.3779527559055118,
                },
                {
                    "duration": 0.279947468749981,
                    "durationTicks": 86,
                    "midi": 60,
                    "name": "C4",
                    "ticks": 84309,
                    "time": 274.442920265625,
                    "velocity": 0.3700787401574803,
                },
                {
                    "duration": 0.28320267187501713,
                    "durationTicks": 87,
                    "midi": 62,
                    "name": "D4",
                    "ticks": 84394,
                    "time": 274.71961253125,
                    "velocity": 0.36220472440944884,
                },
                {
                    "duration": 1.20768035937499,
                    "durationTicks": 371,
                    "midi": 64,
                    "name": "E4",
                    "ticks": 84480,
                    "time": 274.99956,
                    "velocity": 0.4015748031496063,
                },
                {
                    "duration": 0.4231764062499792,
                    "durationTicks": 130,
                    "midi": 66,
                    "name": "F#4",
                    "ticks": 84864,
                    "time": 276.249558,
                    "velocity": 0.4094488188976378,
                },
                {
                    "duration": 0.8496080156249946,
                    "durationTicks": 261,
                    "midi": 64,
                    "name": "E4",
                    "ticks": 84992,
                    "time": 276.666224,
                    "velocity": 0.3700787401574803,
                },
                {
                    "duration": 0.3938795781249951,
                    "durationTicks": 121,
                    "midi": 63,
                    "name": "D#4",
                    "ticks": 85248,
                    "time": 277.499556,
                    "velocity": 0.3700787401574803,
                },
                {
                    "duration": 0.27994746875003784,
                    "durationTicks": 86,
                    "midi": 62,
                    "name": "D4",
                    "ticks": 85504,
                    "time": 278.33288799999997,
                    "velocity": 0.33070866141732286,
                },
                {
                    "duration": 0.27994746875003784,
                    "durationTicks": 86,
                    "midi": 59,
                    "name": "B3",
                    "ticks": 85589,
                    "time": 278.60958026562497,
                    "velocity": 0.3228346456692913,
                },
                {
                    "duration": 0.28320267187501713,
                    "durationTicks": 87,
                    "midi": 61,
                    "name": "C#4",
                    "ticks": 85674,
                    "time": 278.88627253125,
                    "velocity": 0.36220472440944884,
                },
                {
                    "duration": 0.279947468749981,
                    "durationTicks": 86,
                    "midi": 62,
                    "name": "D4",
                    "ticks": 85760,
                    "time": 279.16622,
                    "velocity": 0.3858267716535433,
                },
                {
                    "duration": 0.27994746875003784,
                    "durationTicks": 86,
                    "midi": 64,
                    "name": "E4",
                    "ticks": 85845,
                    "time": 279.44291226562495,
                    "velocity": 0.4094488188976378,
                },
                {
                    "duration": 0.2636714531250277,
                    "durationTicks": 81,
                    "midi": 62,
                    "name": "D4",
                    "ticks": 85930,
                    "time": 279.71960453124996,
                    "velocity": 0.3858267716535433,
                },
                {
                    "duration": 0.4231764062499792,
                    "durationTicks": 130,
                    "midi": 62,
                    "name": "D4",
                    "ticks": 86016,
                    "time": 279.999552,
                    "velocity": 0.3858267716535433,
                },
                {
                    "duration": 0.42317640625003605,
                    "durationTicks": 130,
                    "midi": 61,
                    "name": "C#4",
                    "ticks": 86144,
                    "time": 280.41621799999996,
                    "velocity": 0.3700787401574803,
                },
                {
                    "duration": 0.3938795781249951,
                    "durationTicks": 121,
                    "midi": 60,
                    "name": "C4",
                    "ticks": 86272,
                    "time": 280.832884,
                    "velocity": 0.3543307086614173,
                },
                {
                    "duration": 1.699216031250046,
                    "durationTicks": 522,
                    "midi": 60,
                    "name": "C4",
                    "ticks": 86528,
                    "time": 281.66621599999996,
                    "velocity": 0.3228346456692913,
                },
                {
                    "duration": 0.8496080156249946,
                    "durationTicks": 261,
                    "midi": 59,
                    "name": "B3",
                    "ticks": 87040,
                    "time": 283.33288,
                    "velocity": 0.29133858267716534,
                },
                {
                    "duration": 0.7193998906250272,
                    "durationTicks": 221,
                    "midi": 60,
                    "name": "C4",
                    "ticks": 87296,
                    "time": 284.166212,
                    "velocity": 0.3779527559055118,
                },
                {
                    "duration": 0.17903617187499776,
                    "durationTicks": 55,
                    "midi": 59,
                    "name": "B3",
                    "ticks": 87552,
                    "time": 284.99954399999996,
                    "velocity": 0.4251968503937008,
                },
                {
                    "duration": 0.1790361718750546,
                    "durationTicks": 55,
                    "midi": 60,
                    "name": "C4",
                    "ticks": 87607,
                    "time": 285.17858017187496,
                    "velocity": 0.4251968503937008,
                },
                {
                    "duration": 1.051430609374961,
                    "durationTicks": 323,
                    "midi": 62,
                    "name": "D4",
                    "ticks": 87662,
                    "time": 285.35761634375,
                    "velocity": 0.4251968503937008,
                },
                {
                    "duration": 0.2766922656250017,
                    "durationTicks": 85,
                    "midi": 60,
                    "name": "C4",
                    "ticks": 87893,
                    "time": 286.109568265625,
                    "velocity": 0.36220472440944884,
                },
                {
                    "duration": 0.279947468749981,
                    "durationTicks": 86,
                    "midi": 59,
                    "name": "B3",
                    "ticks": 87978,
                    "time": 286.38626053125,
                    "velocity": 0.3779527559055118,
                },
                {
                    "duration": 0.8333319999999844,
                    "durationTicks": 256,
                    "midi": 57,
                    "name": "A3",
                    "ticks": 88064,
                    "time": 286.666208,
                    "velocity": 0.41732283464566927,
                },
                {
                    "duration": 1.1100242656249861,
                    "durationTicks": 341,
                    "midi": 57,
                    "name": "A3",
                    "ticks": 88576,
                    "time": 288.332872,
                    "velocity": 0.33070866141732286,
                },
                {
                    "duration": 0.279947468749981,
                    "durationTicks": 86,
                    "midi": 59,
                    "name": "B3",
                    "ticks": 88917,
                    "time": 289.442896265625,
                    "velocity": 0.3858267716535433,
                },
                {
                    "duration": 0.26367145312497087,
                    "durationTicks": 81,
                    "midi": 61,
                    "name": "C#4",
                    "ticks": 89002,
                    "time": 289.71958853125,
                    "velocity": 0.4330708661417323,
                },
                {
                    "duration": 0.4231764062499792,
                    "durationTicks": 130,
                    "midi": 61,
                    "name": "C#4",
                    "ticks": 89088,
                    "time": 289.999536,
                    "velocity": 0.4094488188976378,
                },
                {
                    "duration": 0.3938795781249951,
                    "durationTicks": 121,
                    "midi": 62,
                    "name": "D4",
                    "ticks": 89216,
                    "time": 290.416202,
                    "velocity": 0.4409448818897638,
                },
                {
                    "duration": 0.8333320000000413,
                    "durationTicks": 256,
                    "midi": 62,
                    "name": "D4",
                    "ticks": 89344,
                    "time": 290.83286799999996,
                    "velocity": 0.36220472440944884,
                },
                {
                    "duration": 1.1100242656249861,
                    "durationTicks": 341,
                    "midi": 62,
                    "name": "D4",
                    "ticks": 89600,
                    "time": 291.6662,
                    "velocity": 0.4094488188976378,
                },
                {
                    "duration": 0.279947468749981,
                    "durationTicks": 86,
                    "midi": 64,
                    "name": "E4",
                    "ticks": 89941,
                    "time": 292.776224265625,
                    "velocity": 0.4015748031496063,
                },
                {
                    "duration": 0.26367145312497087,
                    "durationTicks": 81,
                    "midi": 65,
                    "name": "F4",
                    "ticks": 90026,
                    "time": 293.05291653125,
                    "velocity": 0.4015748031496063,
                },
                {
                    "duration": 0.42317640625003605,
                    "durationTicks": 130,
                    "midi": 65,
                    "name": "F4",
                    "ticks": 90112,
                    "time": 293.332864,
                    "velocity": 0.4015748031496063,
                },
                {
                    "duration": 0.3938795781249951,
                    "durationTicks": 121,
                    "midi": 64,
                    "name": "E4",
                    "ticks": 90240,
                    "time": 293.74953,
                    "velocity": 0.4015748031496063,
                },
                {
                    "duration": 0.8333320000000413,
                    "durationTicks": 256,
                    "midi": 64,
                    "name": "E4",
                    "ticks": 90368,
                    "time": 294.16619599999996,
                    "velocity": 0.3779527559055118,
                },
                {
                    "duration": 0.2766922656250017,
                    "durationTicks": 85,
                    "midi": 57,
                    "name": "A3",
                    "ticks": 90624,
                    "time": 294.999528,
                    "velocity": 0.41732283464566927,
                },
                {
                    "duration": 0.2766922656250017,
                    "durationTicks": 85,
                    "midi": 57,
                    "name": "A3",
                    "ticks": 90709,
                    "time": 295.276220265625,
                    "velocity": 0.3779527559055118,
                },
                {
                    "duration": 0.279947468749981,
                    "durationTicks": 86,
                    "midi": 57,
                    "name": "A3",
                    "ticks": 90794,
                    "time": 295.55291253125,
                    "velocity": 0.4409448818897638,
                },
                {
                    "duration": 0.279947468749981,
                    "durationTicks": 86,
                    "midi": 57,
                    "name": "A3",
                    "ticks": 90880,
                    "time": 295.83286,
                    "velocity": 0.44881889763779526,
                },
                {
                    "duration": 0.279947468749981,
                    "durationTicks": 86,
                    "midi": 59,
                    "name": "B3",
                    "ticks": 90965,
                    "time": 296.109552265625,
                    "velocity": 0.4645669291338583,
                },
                {
                    "duration": 0.26367145312497087,
                    "durationTicks": 81,
                    "midi": 61,
                    "name": "C#4",
                    "ticks": 91050,
                    "time": 296.38624453125,
                    "velocity": 0.5039370078740157,
                },
                {
                    "duration": 0.27994746875003784,
                    "durationTicks": 86,
                    "midi": 61,
                    "name": "C#4",
                    "ticks": 91136,
                    "time": 296.66619199999997,
                    "velocity": 0.49606299212598426,
                },
                {
                    "duration": 0.2604162499999916,
                    "durationTicks": 80,
                    "midi": 62,
                    "name": "D4",
                    "ticks": 91221,
                    "time": 296.94288426562497,
                    "velocity": 0.5118110236220472,
                },
                {
                    "duration": 0.16601535937502376,
                    "durationTicks": 51,
                    "midi": 62,
                    "name": "D4",
                    "ticks": 91306,
                    "time": 297.21957653124997,
                    "velocity": 0.4566929133858268,
                },
                {
                    "duration": 0.8333319999999844,
                    "durationTicks": 256,
                    "midi": 62,
                    "name": "D4",
                    "ticks": 91392,
                    "time": 297.499524,
                    "velocity": 0.5590551181102362,
                },
                {
                    "duration": 0.2766922656250017,
                    "durationTicks": 85,
                    "midi": 62,
                    "name": "D4",
                    "ticks": 91648,
                    "time": 298.332856,
                    "velocity": 0.5275590551181102,
                },
                {
                    "duration": 0.2766922656250017,
                    "durationTicks": 85,
                    "midi": 62,
                    "name": "D4",
                    "ticks": 91733,
                    "time": 298.609548265625,
                    "velocity": 0.5669291338582677,
                },
                {
                    "duration": 0.279947468749981,
                    "durationTicks": 86,
                    "midi": 62,
                    "name": "D4",
                    "ticks": 91818,
                    "time": 298.88624053125,
                    "velocity": 0.5748031496062992,
                },
                {
                    "duration": 0.279947468749981,
                    "durationTicks": 86,
                    "midi": 62,
                    "name": "D4",
                    "ticks": 91904,
                    "time": 299.166188,
                    "velocity": 0.6692913385826772,
                },
                {
                    "duration": 0.279947468749981,
                    "durationTicks": 86,
                    "midi": 64,
                    "name": "E4",
                    "ticks": 91989,
                    "time": 299.442880265625,
                    "velocity": 0.6377952755905512,
                },
                {
                    "duration": 0.2636714531250277,
                    "durationTicks": 81,
                    "midi": 65,
                    "name": "F4",
                    "ticks": 92074,
                    "time": 299.71957253125,
                    "velocity": 0.6771653543307087,
                },
                {
                    "duration": 0.27994746875003784,
                    "durationTicks": 86,
                    "midi": 65,
                    "name": "F4",
                    "ticks": 92160,
                    "time": 299.99951999999996,
                    "velocity": 0.5511811023622047,
                },
                {
                    "duration": 0.2604162499999916,
                    "durationTicks": 80,
                    "midi": 64,
                    "name": "E4",
                    "ticks": 92245,
                    "time": 300.27621226562496,
                    "velocity": 0.5196850393700787,
                },
                {
                    "duration": 0.16601535937502376,
                    "durationTicks": 51,
                    "midi": 64,
                    "name": "E4",
                    "ticks": 92330,
                    "time": 300.55290453124996,
                    "velocity": 0.5826771653543307,
                },
                {
                    "duration": 0.279947468749981,
                    "durationTicks": 86,
                    "midi": 64,
                    "name": "E4",
                    "ticks": 92672,
                    "time": 301.666184,
                    "velocity": 0.49606299212598426,
                },
                {
                    "duration": 0.2604162499999916,
                    "durationTicks": 80,
                    "midi": 65,
                    "name": "F4",
                    "ticks": 92757,
                    "time": 301.942876265625,
                    "velocity": 0.5354330708661418,
                },
                {
                    "duration": 0.16601535937496692,
                    "durationTicks": 51,
                    "midi": 65,
                    "name": "F4",
                    "ticks": 92842,
                    "time": 302.21956853125,
                    "velocity": 0.5118110236220472,
                },
                {
                    "duration": 0.27994746875003784,
                    "durationTicks": 86,
                    "midi": 65,
                    "name": "F4",
                    "ticks": 93184,
                    "time": 303.33284799999996,
                    "velocity": 0.3779527559055118,
                },
                {
                    "duration": 0.2604162500000484,
                    "durationTicks": 80,
                    "midi": 64,
                    "name": "E4",
                    "ticks": 93269,
                    "time": 303.60954026562496,
                    "velocity": 0.36220472440944884,
                },
                {
                    "duration": 0.27994746875003784,
                    "durationTicks": 86,
                    "midi": 64,
                    "name": "E4",
                    "ticks": 93354,
                    "time": 303.88623253124996,
                    "velocity": 0.3700787401574803,
                },
                {
                    "duration": 0.8333319999999844,
                    "durationTicks": 256,
                    "midi": 62,
                    "name": "D4",
                    "ticks": 106496,
                    "time": 346.666112,
                    "velocity": 0.2992125984251969,
                },
                {
                    "duration": 0.24739543750001758,
                    "durationTicks": 76,
                    "midi": 62,
                    "name": "D4",
                    "ticks": 106752,
                    "time": 347.499444,
                    "velocity": 0.2677165354330709,
                },
                {
                    "duration": 0.24739543749996074,
                    "durationTicks": 76,
                    "midi": 64,
                    "name": "E4",
                    "ticks": 106880,
                    "time": 347.91611,
                    "velocity": 0.30708661417322836,
                },
                {
                    "duration": 5.416657999999984,
                    "durationTicks": 1664,
                    "midi": 65,
                    "name": "F4",
                    "ticks": 107008,
                    "time": 348.33277599999997,
                    "velocity": 0.2992125984251969,
                },
                {
                    "duration": 0.21158820312501803,
                    "durationTicks": 65,
                    "midi": 64,
                    "name": "E4",
                    "ticks": 108672,
                    "time": 353.74943399999995,
                    "velocity": 0.7559055118110236,
                },
                {
                    "duration": 0.21158820312496118,
                    "durationTicks": 65,
                    "midi": 63,
                    "name": "D#4",
                    "ticks": 108736,
                    "time": 353.957767,
                    "velocity": 0.7637795275590551,
                },
                {
                    "duration": 0.1953121875000079,
                    "durationTicks": 60,
                    "midi": 64,
                    "name": "E4",
                    "ticks": 108800,
                    "time": 354.1661,
                    "velocity": 0.8740157480314961,
                },
                {
                    "duration": 0.12369771875000879,
                    "durationTicks": 38,
                    "midi": 52,
                    "name": "E3",
                    "ticks": 108864,
                    "time": 354.37443299999995,
                    "velocity": 0.7165354330708661,
                },
                {
                    "duration": 0.12369771875000879,
                    "durationTicks": 38,
                    "midi": 54,
                    "name": "F#3",
                    "ticks": 108928,
                    "time": 354.582766,
                    "velocity": 0.8661417322834646,
                },
                {
                    "duration": 0.12369771875000879,
                    "durationTicks": 38,
                    "midi": 56,
                    "name": "G#3",
                    "ticks": 108992,
                    "time": 354.791099,
                    "velocity": 0.905511811023622,
                },
                {
                    "duration": 0.12369771875000879,
                    "durationTicks": 38,
                    "midi": 57,
                    "name": "A3",
                    "ticks": 109056,
                    "time": 354.99943199999996,
                    "velocity": 0.8976377952755905,
                },
                {
                    "duration": 0.12369771875000879,
                    "durationTicks": 38,
                    "midi": 59,
                    "name": "B3",
                    "ticks": 109120,
                    "time": 355.207765,
                    "velocity": 0.7795275590551181,
                },
                {
                    "duration": 0.12369771875000879,
                    "durationTicks": 38,
                    "midi": 60,
                    "name": "C4",
                    "ticks": 109184,
                    "time": 355.416098,
                    "velocity": 0.8188976377952756,
                },
                {
                    "duration": 0.12369771875000879,
                    "durationTicks": 38,
                    "midi": 59,
                    "name": "B3",
                    "ticks": 109248,
                    "time": 355.62443099999996,
                    "velocity": 0.7165354330708661,
                },
                {
                    "duration": 0.12369771875000879,
                    "durationTicks": 38,
                    "midi": 57,
                    "name": "A3",
                    "ticks": 109312,
                    "time": 355.832764,
                    "velocity": 0.7401574803149606,
                },
                {
                    "duration": 0.12369771875000879,
                    "durationTicks": 38,
                    "midi": 60,
                    "name": "C4",
                    "ticks": 109376,
                    "time": 356.041097,
                    "velocity": 0.8503937007874016,
                },
                {
                    "duration": 0.12369771875000879,
                    "durationTicks": 38,
                    "midi": 59,
                    "name": "B3",
                    "ticks": 109440,
                    "time": 356.24942999999996,
                    "velocity": 0.7480314960629921,
                },
                {
                    "duration": 0.12369771874995195,
                    "durationTicks": 38,
                    "midi": 57,
                    "name": "A3",
                    "ticks": 109504,
                    "time": 356.457763,
                    "velocity": 0.7244094488188977,
                },
                {
                    "duration": 0.12369771875000879,
                    "durationTicks": 38,
                    "midi": 52,
                    "name": "E3",
                    "ticks": 109568,
                    "time": 356.666096,
                    "velocity": 0.7165354330708661,
                },
                {
                    "duration": 0.12369771875000879,
                    "durationTicks": 38,
                    "midi": 54,
                    "name": "F#3",
                    "ticks": 109632,
                    "time": 356.87442899999996,
                    "velocity": 0.7795275590551181,
                },
                {
                    "duration": 0.12369771874995195,
                    "durationTicks": 38,
                    "midi": 56,
                    "name": "G#3",
                    "ticks": 109696,
                    "time": 357.082762,
                    "velocity": 0.7716535433070866,
                },
                {
                    "duration": 0.12369771875000879,
                    "durationTicks": 38,
                    "midi": 57,
                    "name": "A3",
                    "ticks": 109760,
                    "time": 357.291095,
                    "velocity": 0.7637795275590551,
                },
                {
                    "duration": 0.12369771875000879,
                    "durationTicks": 38,
                    "midi": 59,
                    "name": "B3",
                    "ticks": 109824,
                    "time": 357.49942799999997,
                    "velocity": 0.7874015748031497,
                },
                {
                    "duration": 0.12369771874995195,
                    "durationTicks": 38,
                    "midi": 60,
                    "name": "C4",
                    "ticks": 109888,
                    "time": 357.707761,
                    "velocity": 0.7874015748031497,
                },
                {
                    "duration": 0.12369771875000879,
                    "durationTicks": 38,
                    "midi": 62,
                    "name": "D4",
                    "ticks": 109952,
                    "time": 357.916094,
                    "velocity": 0.84251968503937,
                },
                {
                    "duration": 0.12369771875000879,
                    "durationTicks": 38,
                    "midi": 64,
                    "name": "E4",
                    "ticks": 110016,
                    "time": 358.12442699999997,
                    "velocity": 0.7952755905511811,
                },
                {
                    "duration": 0.12369771875000879,
                    "durationTicks": 38,
                    "midi": 62,
                    "name": "D4",
                    "ticks": 110080,
                    "time": 358.33275999999995,
                    "velocity": 0.7165354330708661,
                },
                {
                    "duration": 0.12369771875000879,
                    "durationTicks": 38,
                    "midi": 59,
                    "name": "B3",
                    "ticks": 110144,
                    "time": 358.541093,
                    "velocity": 0.7165354330708661,
                },
                {
                    "duration": 0.12369771875000879,
                    "durationTicks": 38,
                    "midi": 60,
                    "name": "C4",
                    "ticks": 110208,
                    "time": 358.74942599999997,
                    "velocity": 0.8031496062992126,
                },
                {
                    "duration": 0.12369771875000879,
                    "durationTicks": 38,
                    "midi": 62,
                    "name": "D4",
                    "ticks": 110272,
                    "time": 358.95775899999995,
                    "velocity": 0.8346456692913385,
                },
                {
                    "duration": 0.12369771875000879,
                    "durationTicks": 38,
                    "midi": 64,
                    "name": "E4",
                    "ticks": 110336,
                    "time": 359.166092,
                    "velocity": 0.7795275590551181,
                },
                {
                    "duration": 0.12369771875000879,
                    "durationTicks": 38,
                    "midi": 62,
                    "name": "D4",
                    "ticks": 110400,
                    "time": 359.374425,
                    "velocity": 0.7086614173228346,
                },
                {
                    "duration": 0.12369771875000879,
                    "durationTicks": 38,
                    "midi": 60,
                    "name": "C4",
                    "ticks": 110464,
                    "time": 359.58275799999996,
                    "velocity": 0.7244094488188977,
                },
                {
                    "duration": 0.12369771875000879,
                    "durationTicks": 38,
                    "midi": 59,
                    "name": "B3",
                    "ticks": 110528,
                    "time": 359.791091,
                    "velocity": 0.7086614173228346,
                },
                {
                    "duration": 0.12369771875000879,
                    "durationTicks": 38,
                    "midi": 60,
                    "name": "C4",
                    "ticks": 110592,
                    "time": 359.999424,
                    "velocity": 0.8267716535433071,
                },
                {
                    "duration": 0.12369771875000879,
                    "durationTicks": 38,
                    "midi": 59,
                    "name": "B3",
                    "ticks": 110656,
                    "time": 360.20775699999996,
                    "velocity": 0.7559055118110236,
                },
                {
                    "duration": 0.12369771875000879,
                    "durationTicks": 38,
                    "midi": 60,
                    "name": "C4",
                    "ticks": 110720,
                    "time": 360.41609,
                    "velocity": 0.8110236220472441,
                },
                {
                    "duration": 0.12369771875000879,
                    "durationTicks": 38,
                    "midi": 62,
                    "name": "D4",
                    "ticks": 110784,
                    "time": 360.624423,
                    "velocity": 0.8031496062992126,
                },
                {
                    "duration": 0.12369771875000879,
                    "durationTicks": 38,
                    "midi": 64,
                    "name": "E4",
                    "ticks": 110848,
                    "time": 360.83275599999996,
                    "velocity": 0.8031496062992126,
                },
                {
                    "duration": 0.12369771874995195,
                    "durationTicks": 38,
                    "midi": 52,
                    "name": "E3",
                    "ticks": 110912,
                    "time": 361.041089,
                    "velocity": 0.6692913385826772,
                },
                {
                    "duration": 0.12369771875000879,
                    "durationTicks": 38,
                    "midi": 54,
                    "name": "F#3",
                    "ticks": 110976,
                    "time": 361.249422,
                    "velocity": 0.7795275590551181,
                },
                {
                    "duration": 0.12369771875000879,
                    "durationTicks": 38,
                    "midi": 56,
                    "name": "G#3",
                    "ticks": 111040,
                    "time": 361.45775499999996,
                    "velocity": 0.8110236220472441,
                },
                {
                    "duration": 0.12369771874995195,
                    "durationTicks": 38,
                    "midi": 57,
                    "name": "A3",
                    "ticks": 111104,
                    "time": 361.666088,
                    "velocity": 0.7637795275590551,
                },
                {
                    "duration": 0.12369771875000879,
                    "durationTicks": 38,
                    "midi": 59,
                    "name": "B3",
                    "ticks": 111168,
                    "time": 361.874421,
                    "velocity": 0.7795275590551181,
                },
                {
                    "duration": 0.12369771875000879,
                    "durationTicks": 38,
                    "midi": 60,
                    "name": "C4",
                    "ticks": 111232,
                    "time": 362.08275399999997,
                    "velocity": 0.8031496062992126,
                },
                {
                    "duration": 0.12369771874995195,
                    "durationTicks": 38,
                    "midi": 59,
                    "name": "B3",
                    "ticks": 111296,
                    "time": 362.291087,
                    "velocity": 0.7716535433070866,
                },
                {
                    "duration": 0.12369771875000879,
                    "durationTicks": 38,
                    "midi": 57,
                    "name": "A3",
                    "ticks": 111360,
                    "time": 362.49942,
                    "velocity": 0.7322834645669292,
                },
                {
                    "duration": 0.12369771875000879,
                    "durationTicks": 38,
                    "midi": 60,
                    "name": "C4",
                    "ticks": 111424,
                    "time": 362.70775299999997,
                    "velocity": 0.8188976377952756,
                },
                {
                    "duration": 0.12369771875000879,
                    "durationTicks": 38,
                    "midi": 59,
                    "name": "B3",
                    "ticks": 111488,
                    "time": 362.91608599999995,
                    "velocity": 0.7559055118110236,
                },
                {
                    "duration": 0.12369771875000879,
                    "durationTicks": 38,
                    "midi": 57,
                    "name": "A3",
                    "ticks": 111552,
                    "time": 363.124419,
                    "velocity": 0.7322834645669292,
                },
                {
                    "duration": 0.12369771875000879,
                    "durationTicks": 38,
                    "midi": 52,
                    "name": "E3",
                    "ticks": 111616,
                    "time": 363.33275199999997,
                    "velocity": 0.7244094488188977,
                },
                {
                    "duration": 0.12369771875000879,
                    "durationTicks": 38,
                    "midi": 54,
                    "name": "F#3",
                    "ticks": 111680,
                    "time": 363.54108499999995,
                    "velocity": 0.7559055118110236,
                },
                {
                    "duration": 0.12369771875000879,
                    "durationTicks": 38,
                    "midi": 56,
                    "name": "G#3",
                    "ticks": 111744,
                    "time": 363.749418,
                    "velocity": 0.8110236220472441,
                },
                {
                    "duration": 0.12369771875000879,
                    "durationTicks": 38,
                    "midi": 57,
                    "name": "A3",
                    "ticks": 111808,
                    "time": 363.957751,
                    "velocity": 0.7952755905511811,
                },
                {
                    "duration": 0.12369771875000879,
                    "durationTicks": 38,
                    "midi": 59,
                    "name": "B3",
                    "ticks": 111872,
                    "time": 364.16608399999996,
                    "velocity": 0.8031496062992126,
                },
                {
                    "duration": 0.12369771875000879,
                    "durationTicks": 38,
                    "midi": 60,
                    "name": "C4",
                    "ticks": 111936,
                    "time": 364.374417,
                    "velocity": 0.8031496062992126,
                },
                {
                    "duration": 0.12369771875000879,
                    "durationTicks": 38,
                    "midi": 62,
                    "name": "D4",
                    "ticks": 112000,
                    "time": 364.58275,
                    "velocity": 0.8188976377952756,
                },
                {
                    "duration": 0.12369771875000879,
                    "durationTicks": 38,
                    "midi": 64,
                    "name": "E4",
                    "ticks": 112064,
                    "time": 364.79108299999996,
                    "velocity": 0.8346456692913385,
                },
                {
                    "duration": 0.12369771875000879,
                    "durationTicks": 38,
                    "midi": 62,
                    "name": "D4",
                    "ticks": 112128,
                    "time": 364.999416,
                    "velocity": 0.7637795275590551,
                },
                {
                    "duration": 0.12369771875000879,
                    "durationTicks": 38,
                    "midi": 59,
                    "name": "B3",
                    "ticks": 112192,
                    "time": 365.207749,
                    "velocity": 0.7401574803149606,
                },
                {
                    "duration": 0.12369771875000879,
                    "durationTicks": 38,
                    "midi": 60,
                    "name": "C4",
                    "ticks": 112256,
                    "time": 365.41608199999996,
                    "velocity": 0.7952755905511811,
                },
                {
                    "duration": 0.12369771874995195,
                    "durationTicks": 38,
                    "midi": 62,
                    "name": "D4",
                    "ticks": 112320,
                    "time": 365.624415,
                    "velocity": 0.7952755905511811,
                },
                {
                    "duration": 0.12369771875000879,
                    "durationTicks": 38,
                    "midi": 64,
                    "name": "E4",
                    "ticks": 112384,
                    "time": 365.832748,
                    "velocity": 0.8188976377952756,
                },
                {
                    "duration": 0.12369771875000879,
                    "durationTicks": 38,
                    "midi": 62,
                    "name": "D4",
                    "ticks": 112448,
                    "time": 366.04108099999996,
                    "velocity": 0.7244094488188977,
                },
                {
                    "duration": 0.12369771874995195,
                    "durationTicks": 38,
                    "midi": 60,
                    "name": "C4",
                    "ticks": 112512,
                    "time": 366.249414,
                    "velocity": 0.6850393700787402,
                },
                {
                    "duration": 0.12369771875000879,
                    "durationTicks": 38,
                    "midi": 59,
                    "name": "B3",
                    "ticks": 112576,
                    "time": 366.457747,
                    "velocity": 0.7086614173228346,
                },
                {
                    "duration": 0.8333319999999844,
                    "durationTicks": 256,
                    "midi": 57,
                    "name": "A3",
                    "ticks": 112640,
                    "time": 366.66607999999997,
                    "velocity": 0.7401574803149606,
                },
                {
                    "duration": 0.8333319999999844,
                    "durationTicks": 256,
                    "midi": 59,
                    "name": "B3",
                    "ticks": 113152,
                    "time": 368.332744,
                    "velocity": 0.3228346456692913,
                },
                {
                    "duration": 0.8333319999999844,
                    "durationTicks": 256,
                    "midi": 62,
                    "name": "D4",
                    "ticks": 113152,
                    "time": 368.332744,
                    "velocity": 0.3228346456692913,
                },
                {
                    "duration": 0.24739543750001758,
                    "durationTicks": 76,
                    "midi": 59,
                    "name": "B3",
                    "ticks": 113408,
                    "time": 369.166076,
                    "velocity": 0.3858267716535433,
                },
                {
                    "duration": 0.24739543750001758,
                    "durationTicks": 76,
                    "midi": 62,
                    "name": "D4",
                    "ticks": 113408,
                    "time": 369.166076,
                    "velocity": 0.3858267716535433,
                },
                {
                    "duration": 0.24739543749996074,
                    "durationTicks": 76,
                    "midi": 59,
                    "name": "B3",
                    "ticks": 113536,
                    "time": 369.582742,
                    "velocity": 0.4015748031496063,
                },
                {
                    "duration": 0.24739543749996074,
                    "durationTicks": 76,
                    "midi": 62,
                    "name": "D4",
                    "ticks": 113536,
                    "time": 369.582742,
                    "velocity": 0.4015748031496063,
                },
                {
                    "duration": 0.41666600000002063,
                    "durationTicks": 128,
                    "midi": 57,
                    "name": "A3",
                    "ticks": 113664,
                    "time": 369.99940799999996,
                    "velocity": 0.3779527559055118,
                },
                {
                    "duration": 0.41666600000002063,
                    "durationTicks": 128,
                    "midi": 60,
                    "name": "C4",
                    "ticks": 113664,
                    "time": 369.99940799999996,
                    "velocity": 0.3779527559055118,
                },
                {
                    "duration": 1.6666640000000257,
                    "durationTicks": 512,
                    "midi": 64,
                    "name": "E4",
                    "ticks": 114432,
                    "time": 372.49940399999997,
                    "velocity": 0.33858267716535434,
                },
                {
                    "duration": 0.8496080156249946,
                    "durationTicks": 261,
                    "midi": 61,
                    "name": "C#4",
                    "ticks": 114944,
                    "time": 374.166068,
                    "velocity": 0.3858267716535433,
                },
                {
                    "duration": 0.8496080156249946,
                    "durationTicks": 261,
                    "midi": 57,
                    "name": "A3",
                    "ticks": 115200,
                    "time": 374.9994,
                    "velocity": 0.33858267716535434,
                },
                {
                    "duration": 0.7910143593750263,
                    "durationTicks": 243,
                    "midi": 61,
                    "name": "C#4",
                    "ticks": 115456,
                    "time": 375.83273199999996,
                    "velocity": 0.4645669291338583,
                },
                {
                    "duration": 0.8496080156250514,
                    "durationTicks": 261,
                    "midi": 61,
                    "name": "C#4",
                    "ticks": 115712,
                    "time": 376.66606399999995,
                    "velocity": 0.3858267716535433,
                },
                {
                    "duration": 1.699216031249989,
                    "durationTicks": 522,
                    "midi": 50,
                    "name": "D3",
                    "ticks": 115968,
                    "time": 377.499396,
                    "velocity": 0.4330708661417323,
                },
                {
                    "duration": 1.699216031249989,
                    "durationTicks": 522,
                    "midi": 59,
                    "name": "B3",
                    "ticks": 115968,
                    "time": 377.499396,
                    "velocity": 0.4330708661417323,
                },
                {
                    "duration": 0.8496080156249946,
                    "durationTicks": 261,
                    "midi": 49,
                    "name": "C#3",
                    "ticks": 116480,
                    "time": 379.16605999999996,
                    "velocity": 0.44881889763779526,
                },
                {
                    "duration": 0.8496080156249946,
                    "durationTicks": 261,
                    "midi": 57,
                    "name": "A3",
                    "ticks": 116480,
                    "time": 379.16605999999996,
                    "velocity": 0.44881889763779526,
                },
                {
                    "duration": 0.8496080156249946,
                    "durationTicks": 261,
                    "midi": 47,
                    "name": "B2",
                    "ticks": 116736,
                    "time": 379.999392,
                    "velocity": 0.49606299212598426,
                },
                {
                    "duration": 0.8496080156249946,
                    "durationTicks": 261,
                    "midi": 56,
                    "name": "G#3",
                    "ticks": 116736,
                    "time": 379.999392,
                    "velocity": 0.49606299212598426,
                },
                {
                    "duration": 0.8496080156249946,
                    "durationTicks": 261,
                    "midi": 49,
                    "name": "C#3",
                    "ticks": 116992,
                    "time": 380.832724,
                    "velocity": 0.5433070866141733,
                },
                {
                    "duration": 0.8496080156249946,
                    "durationTicks": 261,
                    "midi": 57,
                    "name": "A3",
                    "ticks": 116992,
                    "time": 380.832724,
                    "velocity": 0.5433070866141733,
                },
                {
                    "duration": 0.8496080156249946,
                    "durationTicks": 261,
                    "midi": 50,
                    "name": "D3",
                    "ticks": 117248,
                    "time": 381.66605599999997,
                    "velocity": 0.5590551181102362,
                },
                {
                    "duration": 0.8496080156249946,
                    "durationTicks": 261,
                    "midi": 59,
                    "name": "B3",
                    "ticks": 117248,
                    "time": 381.66605599999997,
                    "velocity": 0.5590551181102362,
                },
                {
                    "duration": 0.8496080156250514,
                    "durationTicks": 261,
                    "midi": 52,
                    "name": "E3",
                    "ticks": 117504,
                    "time": 382.49938799999995,
                    "velocity": 0.6456692913385826,
                },
                {
                    "duration": 0.8496080156250514,
                    "durationTicks": 261,
                    "midi": 61,
                    "name": "C#4",
                    "ticks": 117504,
                    "time": 382.49938799999995,
                    "velocity": 0.6456692913385826,
                },
                {
                    "duration": 0.8496080156249946,
                    "durationTicks": 261,
                    "midi": 54,
                    "name": "F#3",
                    "ticks": 117760,
                    "time": 383.33272,
                    "velocity": 0.5275590551181102,
                },
                {
                    "duration": 0.8496080156249946,
                    "durationTicks": 261,
                    "midi": 62,
                    "name": "D4",
                    "ticks": 117760,
                    "time": 383.33272,
                    "velocity": 0.5275590551181102,
                },
                {
                    "duration": 0.8496080156249946,
                    "durationTicks": 261,
                    "midi": 56,
                    "name": "G#3",
                    "ticks": 118016,
                    "time": 384.166052,
                    "velocity": 0.5590551181102362,
                },
                {
                    "duration": 0.8496080156249946,
                    "durationTicks": 261,
                    "midi": 64,
                    "name": "E4",
                    "ticks": 118016,
                    "time": 384.166052,
                    "velocity": 0.5590551181102362,
                },
                {
                    "duration": 0.8496080156249946,
                    "durationTicks": 261,
                    "midi": 59,
                    "name": "B3",
                    "ticks": 118272,
                    "time": 384.99938399999996,
                    "velocity": 0.48031496062992124,
                },
                {
                    "duration": 0.8496080156249946,
                    "durationTicks": 261,
                    "midi": 62,
                    "name": "D4",
                    "ticks": 118272,
                    "time": 384.99938399999996,
                    "velocity": 0.48031496062992124,
                },
                {
                    "duration": 0.4231764062499792,
                    "durationTicks": 130,
                    "midi": 57,
                    "name": "A3",
                    "ticks": 118528,
                    "time": 385.832716,
                    "velocity": 0.44881889763779526,
                },
                {
                    "duration": 0.4166659999999638,
                    "durationTicks": 128,
                    "midi": 61,
                    "name": "C#4",
                    "ticks": 118528,
                    "time": 385.832716,
                    "velocity": 0.44881889763779526,
                },
                {
                    "duration": 0.3938795781249951,
                    "durationTicks": 121,
                    "midi": 61,
                    "name": "C#4",
                    "ticks": 118656,
                    "time": 386.24938199999997,
                    "velocity": 0.5433070866141733,
                },
                {
                    "duration": 0.3938795781249951,
                    "durationTicks": 121,
                    "midi": 64,
                    "name": "E4",
                    "ticks": 118656,
                    "time": 386.24938199999997,
                    "velocity": 0.5433070866141733,
                },
                {
                    "duration": 1.6666639999999688,
                    "durationTicks": 512,
                    "midi": 61,
                    "name": "C#4",
                    "ticks": 118784,
                    "time": 386.666048,
                    "velocity": 0.36220472440944884,
                },
                {
                    "duration": 1.699216031249989,
                    "durationTicks": 522,
                    "midi": 64,
                    "name": "E4",
                    "ticks": 118784,
                    "time": 386.666048,
                    "velocity": 0.36220472440944884,
                },
                {
                    "duration": 0.8496080156249946,
                    "durationTicks": 261,
                    "midi": 57,
                    "name": "A3",
                    "ticks": 119296,
                    "time": 388.33271199999996,
                    "velocity": 0.47244094488188976,
                },
                {
                    "duration": 0.8333320000000413,
                    "durationTicks": 256,
                    "midi": 61,
                    "name": "C#4",
                    "ticks": 119296,
                    "time": 388.33271199999996,
                    "velocity": 0.47244094488188976,
                },
                {
                    "duration": 0.7910143593749694,
                    "durationTicks": 243,
                    "midi": 61,
                    "name": "C#4",
                    "ticks": 119552,
                    "time": 389.166044,
                    "velocity": 0.5748031496062992,
                },
                {
                    "duration": 0.7910143593749694,
                    "durationTicks": 243,
                    "midi": 64,
                    "name": "E4",
                    "ticks": 119552,
                    "time": 389.166044,
                    "velocity": 0.5748031496062992,
                },
                {
                    "duration": 0.8496080156249946,
                    "durationTicks": 261,
                    "midi": 61,
                    "name": "C#4",
                    "ticks": 119808,
                    "time": 389.999376,
                    "velocity": 0.6062992125984252,
                },
                {
                    "duration": 0.8496080156249946,
                    "durationTicks": 261,
                    "midi": 64,
                    "name": "E4",
                    "ticks": 119808,
                    "time": 389.999376,
                    "velocity": 0.6062992125984252,
                },
                {
                    "duration": 1.699216031249989,
                    "durationTicks": 522,
                    "midi": 62,
                    "name": "D4",
                    "ticks": 120064,
                    "time": 390.83270799999997,
                    "velocity": 0.6850393700787402,
                },
                {
                    "duration": 1.699216031249989,
                    "durationTicks": 522,
                    "midi": 66,
                    "name": "F#4",
                    "ticks": 120064,
                    "time": 390.83270799999997,
                    "velocity": 0.6850393700787402,
                },
                {
                    "duration": 0.8496080156249946,
                    "durationTicks": 261,
                    "midi": 61,
                    "name": "C#4",
                    "ticks": 120576,
                    "time": 392.499372,
                    "velocity": 0.7007874015748031,
                },
                {
                    "duration": 0.8496080156249946,
                    "durationTicks": 261,
                    "midi": 64,
                    "name": "E4",
                    "ticks": 120576,
                    "time": 392.499372,
                    "velocity": 0.7007874015748031,
                },
                {
                    "duration": 0.8496080156249946,
                    "durationTicks": 261,
                    "midi": 54,
                    "name": "F#3",
                    "ticks": 120832,
                    "time": 393.332704,
                    "velocity": 0.7952755905511811,
                },
                {
                    "duration": 0.8496080156249946,
                    "durationTicks": 261,
                    "midi": 62,
                    "name": "D4",
                    "ticks": 120832,
                    "time": 393.332704,
                    "velocity": 0.7952755905511811,
                },
                {
                    "duration": 0.8496080156249946,
                    "durationTicks": 261,
                    "midi": 52,
                    "name": "E3",
                    "ticks": 121088,
                    "time": 394.16603599999996,
                    "velocity": 0.7559055118110236,
                },
                {
                    "duration": 0.8496080156249946,
                    "durationTicks": 261,
                    "midi": 61,
                    "name": "C#4",
                    "ticks": 121088,
                    "time": 394.16603599999996,
                    "velocity": 0.7559055118110236,
                },
                {
                    "duration": 0.8496080156249946,
                    "durationTicks": 261,
                    "midi": 54,
                    "name": "F#3",
                    "ticks": 121344,
                    "time": 394.999368,
                    "velocity": 0.7244094488188977,
                },
                {
                    "duration": 0.8496080156249946,
                    "durationTicks": 261,
                    "midi": 62,
                    "name": "D4",
                    "ticks": 121344,
                    "time": 394.999368,
                    "velocity": 0.7244094488188977,
                },
                {
                    "duration": 0.8496080156249946,
                    "durationTicks": 261,
                    "midi": 56,
                    "name": "G#3",
                    "ticks": 121600,
                    "time": 395.8327,
                    "velocity": 0.6535433070866141,
                },
                {
                    "duration": 0.8496080156249946,
                    "durationTicks": 261,
                    "midi": 64,
                    "name": "E4",
                    "ticks": 121600,
                    "time": 395.8327,
                    "velocity": 0.6535433070866141,
                },
                {
                    "duration": 1.5820287187499957,
                    "durationTicks": 486,
                    "midi": 57,
                    "name": "A3",
                    "ticks": 121856,
                    "time": 396.666032,
                    "velocity": 0.5275590551181102,
                },
                {
                    "duration": 1.5820287187499957,
                    "durationTicks": 486,
                    "midi": 61,
                    "name": "C#4",
                    "ticks": 121856,
                    "time": 396.666032,
                    "velocity": 0.5275590551181102,
                },
                {
                    "duration": 0.8496080156249946,
                    "durationTicks": 261,
                    "midi": 54,
                    "name": "F#3",
                    "ticks": 122368,
                    "time": 398.332696,
                    "velocity": 0.4251968503937008,
                },
                {
                    "duration": 0.8496080156249946,
                    "durationTicks": 261,
                    "midi": 62,
                    "name": "D4",
                    "ticks": 122368,
                    "time": 398.332696,
                    "velocity": 0.4251968503937008,
                },
                {
                    "duration": 0.8496080156249946,
                    "durationTicks": 261,
                    "midi": 56,
                    "name": "G#3",
                    "ticks": 122624,
                    "time": 399.166028,
                    "velocity": 0.44881889763779526,
                },
                {
                    "duration": 0.8496080156249946,
                    "durationTicks": 261,
                    "midi": 64,
                    "name": "E4",
                    "ticks": 122624,
                    "time": 399.166028,
                    "velocity": 0.44881889763779526,
                },
                {
                    "duration": 1.5820287187499957,
                    "durationTicks": 486,
                    "midi": 57,
                    "name": "A3",
                    "ticks": 122880,
                    "time": 399.99935999999997,
                    "velocity": 0.41732283464566927,
                },
                {
                    "duration": 1.5820287187499957,
                    "durationTicks": 486,
                    "midi": 61,
                    "name": "C#4",
                    "ticks": 122880,
                    "time": 399.99935999999997,
                    "velocity": 0.41732283464566927,
                },
                {
                    "duration": 0.8496080156249946,
                    "durationTicks": 261,
                    "midi": 54,
                    "name": "F#3",
                    "ticks": 123392,
                    "time": 401.666024,
                    "velocity": 0.4251968503937008,
                },
                {
                    "duration": 0.8496080156249946,
                    "durationTicks": 261,
                    "midi": 62,
                    "name": "D4",
                    "ticks": 123392,
                    "time": 401.666024,
                    "velocity": 0.4251968503937008,
                },
                {
                    "duration": 0.7910143593750263,
                    "durationTicks": 243,
                    "midi": 56,
                    "name": "G#3",
                    "ticks": 123648,
                    "time": 402.499356,
                    "velocity": 0.4645669291338583,
                },
                {
                    "duration": 0.7910143593750263,
                    "durationTicks": 243,
                    "midi": 64,
                    "name": "E4",
                    "ticks": 123648,
                    "time": 402.499356,
                    "velocity": 0.4645669291338583,
                },
                {
                    "duration": 0.8333320000000413,
                    "durationTicks": 256,
                    "midi": 45,
                    "name": "A2",
                    "ticks": 123904,
                    "time": 403.33268799999996,
                    "velocity": 0.2677165354330709,
                },
                {
                    "duration": 0.8333320000000413,
                    "durationTicks": 256,
                    "midi": 57,
                    "name": "A3",
                    "ticks": 123904,
                    "time": 403.33268799999996,
                    "velocity": 0.2677165354330709,
                },
                {
                    "duration": 0.24739543749996074,
                    "durationTicks": 76,
                    "midi": 45,
                    "name": "A2",
                    "ticks": 124160,
                    "time": 404.16602,
                    "velocity": 0.2677165354330709,
                },
                {
                    "duration": 0.24739543749996074,
                    "durationTicks": 76,
                    "midi": 57,
                    "name": "A3",
                    "ticks": 124160,
                    "time": 404.16602,
                    "velocity": 0.2677165354330709,
                },
                {
                    "duration": 0.23437462499998674,
                    "durationTicks": 72,
                    "midi": 45,
                    "name": "A2",
                    "ticks": 124288,
                    "time": 404.58268599999997,
                    "velocity": 0.30708661417322836,
                },
                {
                    "duration": 0.23437462499998674,
                    "durationTicks": 72,
                    "midi": 57,
                    "name": "A3",
                    "ticks": 124288,
                    "time": 404.58268599999997,
                    "velocity": 0.30708661417322836,
                },
                {
                    "duration": 0.49804607812501445,
                    "durationTicks": 153,
                    "midi": 45,
                    "name": "A2",
                    "ticks": 124416,
                    "time": 404.999352,
                    "velocity": 0.2677165354330709,
                },
                {
                    "duration": 0.49804607812501445,
                    "durationTicks": 153,
                    "midi": 57,
                    "name": "A3",
                    "ticks": 124416,
                    "time": 404.999352,
                    "velocity": 0.2677165354330709,
                },
                {
                    "duration": 0.4720044531250096,
                    "durationTicks": 145,
                    "midi": 45,
                    "name": "A2",
                    "ticks": 124672,
                    "time": 405.832684,
                    "velocity": 0.2992125984251969,
                },
                {
                    "duration": 0.4720044531250096,
                    "durationTicks": 145,
                    "midi": 57,
                    "name": "A3",
                    "ticks": 124672,
                    "time": 405.832684,
                    "velocity": 0.2992125984251969,
                },
                {
                    "duration": 0.8333320000000413,
                    "durationTicks": 256,
                    "midi": 45,
                    "name": "A2",
                    "ticks": 124928,
                    "time": 406.66601599999996,
                    "velocity": 0.2755905511811024,
                },
                {
                    "duration": 0.8333320000000413,
                    "durationTicks": 256,
                    "midi": 57,
                    "name": "A3",
                    "ticks": 124928,
                    "time": 406.66601599999996,
                    "velocity": 0.2755905511811024,
                },
                {
                    "duration": 0.24739543749996074,
                    "durationTicks": 76,
                    "midi": 45,
                    "name": "A2",
                    "ticks": 125184,
                    "time": 407.499348,
                    "velocity": 0.28346456692913385,
                },
                {
                    "duration": 0.24739543749996074,
                    "durationTicks": 76,
                    "midi": 57,
                    "name": "A3",
                    "ticks": 125184,
                    "time": 407.499348,
                    "velocity": 0.28346456692913385,
                },
                {
                    "duration": 0.23437462499998674,
                    "durationTicks": 72,
                    "midi": 45,
                    "name": "A2",
                    "ticks": 125312,
                    "time": 407.91601399999996,
                    "velocity": 0.25984251968503935,
                },
                {
                    "duration": 0.23437462499998674,
                    "durationTicks": 72,
                    "midi": 57,
                    "name": "A3",
                    "ticks": 125312,
                    "time": 407.91601399999996,
                    "velocity": 0.25984251968503935,
                },
                {
                    "duration": 0.49804607812501445,
                    "durationTicks": 153,
                    "midi": 45,
                    "name": "A2",
                    "ticks": 125440,
                    "time": 408.33268,
                    "velocity": 0.2992125984251969,
                },
                {
                    "duration": 0.49804607812501445,
                    "durationTicks": 153,
                    "midi": 57,
                    "name": "A3",
                    "ticks": 125440,
                    "time": 408.33268,
                    "velocity": 0.2992125984251969,
                },
                {
                    "duration": 0.4720044531250096,
                    "durationTicks": 145,
                    "midi": 45,
                    "name": "A2",
                    "ticks": 125696,
                    "time": 409.16601199999997,
                    "velocity": 0.2677165354330709,
                },
                {
                    "duration": 0.4720044531250096,
                    "durationTicks": 145,
                    "midi": 57,
                    "name": "A3",
                    "ticks": 125696,
                    "time": 409.16601199999997,
                    "velocity": 0.2677165354330709,
                },
                {
                    "duration": 0.8333320000000413,
                    "durationTicks": 256,
                    "midi": 59,
                    "name": "B3",
                    "ticks": 125952,
                    "time": 409.99934399999995,
                    "velocity": 1,
                },
                {
                    "duration": 0.8333320000000413,
                    "durationTicks": 256,
                    "midi": 62,
                    "name": "D4",
                    "ticks": 125952,
                    "time": 409.99934399999995,
                    "velocity": 1,
                },
                {
                    "duration": 0.24739543749996074,
                    "durationTicks": 76,
                    "midi": 57,
                    "name": "A3",
                    "ticks": 126208,
                    "time": 410.832676,
                    "velocity": 0.84251968503937,
                },
                {
                    "duration": 0.24739543749996074,
                    "durationTicks": 76,
                    "midi": 60,
                    "name": "C4",
                    "ticks": 126208,
                    "time": 410.832676,
                    "velocity": 0.84251968503937,
                },
                {
                    "duration": 0.24739543750001758,
                    "durationTicks": 76,
                    "midi": 59,
                    "name": "B3",
                    "ticks": 126336,
                    "time": 411.24934199999996,
                    "velocity": 0.9606299212598425,
                },
                {
                    "duration": 0.24739543750001758,
                    "durationTicks": 76,
                    "midi": 62,
                    "name": "D4",
                    "ticks": 126336,
                    "time": 411.24934199999996,
                    "velocity": 0.9606299212598425,
                },
                {
                    "duration": 0.41666600000002063,
                    "durationTicks": 128,
                    "midi": 60,
                    "name": "C4",
                    "ticks": 126464,
                    "time": 411.666008,
                    "velocity": 0.952755905511811,
                },
                {
                    "duration": 0.41666600000002063,
                    "durationTicks": 128,
                    "midi": 64,
                    "name": "E4",
                    "ticks": 126464,
                    "time": 411.666008,
                    "velocity": 0.952755905511811,
                },
                {
                    "duration": 0.8333319999999844,
                    "durationTicks": 256,
                    "midi": 59,
                    "name": "B3",
                    "ticks": 128000,
                    "time": 416.666,
                    "velocity": 0.7637795275590551,
                },
                {
                    "duration": 0.8333319999999844,
                    "durationTicks": 256,
                    "midi": 62,
                    "name": "D4",
                    "ticks": 128000,
                    "time": 416.666,
                    "velocity": 0.7637795275590551,
                },
                {
                    "duration": 0.24739543750001758,
                    "durationTicks": 76,
                    "midi": 57,
                    "name": "A3",
                    "ticks": 128256,
                    "time": 417.499332,
                    "velocity": 0.8031496062992126,
                },
                {
                    "duration": 0.24739543750001758,
                    "durationTicks": 76,
                    "midi": 60,
                    "name": "C4",
                    "ticks": 128256,
                    "time": 417.499332,
                    "velocity": 0.8031496062992126,
                },
                {
                    "duration": 0.24739543749996074,
                    "durationTicks": 76,
                    "midi": 59,
                    "name": "B3",
                    "ticks": 128384,
                    "time": 417.915998,
                    "velocity": 0.9291338582677166,
                },
                {
                    "duration": 0.24739543749996074,
                    "durationTicks": 76,
                    "midi": 62,
                    "name": "D4",
                    "ticks": 128384,
                    "time": 417.915998,
                    "velocity": 0.9291338582677166,
                },
                {
                    "duration": 0.41666600000002063,
                    "durationTicks": 128,
                    "midi": 60,
                    "name": "C4",
                    "ticks": 128512,
                    "time": 418.33266399999997,
                    "velocity": 0.905511811023622,
                },
                {
                    "duration": 0.41666600000002063,
                    "durationTicks": 128,
                    "midi": 64,
                    "name": "E4",
                    "ticks": 128512,
                    "time": 418.33266399999997,
                    "velocity": 0.905511811023622,
                },
                {
                    "duration": 0.8333319999999844,
                    "durationTicks": 256,
                    "midi": 57,
                    "name": "A3",
                    "ticks": 132096,
                    "time": 429.999312,
                    "velocity": 0.2047244094488189,
                },
                {
                    "duration": 0.8333319999999844,
                    "durationTicks": 256,
                    "midi": 60,
                    "name": "C4",
                    "ticks": 132096,
                    "time": 429.999312,
                    "velocity": 0.2047244094488189,
                },
                {
                    "duration": 0.24739543750001758,
                    "durationTicks": 76,
                    "midi": 57,
                    "name": "A3",
                    "ticks": 132352,
                    "time": 430.83264399999996,
                    "velocity": 0.23622047244094488,
                },
                {
                    "duration": 0.24739543750001758,
                    "durationTicks": 76,
                    "midi": 60,
                    "name": "C4",
                    "ticks": 132352,
                    "time": 430.83264399999996,
                    "velocity": 0.23622047244094488,
                },
                {
                    "duration": 0.23437462499998674,
                    "durationTicks": 72,
                    "midi": 57,
                    "name": "A3",
                    "ticks": 132480,
                    "time": 431.24931,
                    "velocity": 0.25984251968503935,
                },
                {
                    "duration": 0.23437462499998674,
                    "durationTicks": 72,
                    "midi": 60,
                    "name": "C4",
                    "ticks": 132480,
                    "time": 431.24931,
                    "velocity": 0.25984251968503935,
                },
                {
                    "duration": 0.4980460781249576,
                    "durationTicks": 153,
                    "midi": 55,
                    "name": "G3",
                    "ticks": 132608,
                    "time": 431.665976,
                    "velocity": 0.2677165354330709,
                },
                {
                    "duration": 0.4980460781249576,
                    "durationTicks": 153,
                    "midi": 60,
                    "name": "C4",
                    "ticks": 132608,
                    "time": 431.665976,
                    "velocity": 0.2677165354330709,
                },
                {
                    "duration": 0.4720044531250096,
                    "durationTicks": 145,
                    "midi": 55,
                    "name": "G3",
                    "ticks": 132864,
                    "time": 432.499308,
                    "velocity": 0.28346456692913385,
                },
                {
                    "duration": 0.4720044531250096,
                    "durationTicks": 145,
                    "midi": 60,
                    "name": "C4",
                    "ticks": 132864,
                    "time": 432.499308,
                    "velocity": 0.28346456692913385,
                },
                {
                    "duration": 0.8333320000000413,
                    "durationTicks": 256,
                    "midi": 57,
                    "name": "A3",
                    "ticks": 136192,
                    "time": 443.33262399999995,
                    "velocity": 0.2755905511811024,
                },
                {
                    "duration": 0.8333320000000413,
                    "durationTicks": 256,
                    "midi": 60,
                    "name": "C4",
                    "ticks": 136192,
                    "time": 443.33262399999995,
                    "velocity": 0.2755905511811024,
                },
                {
                    "duration": 0.24739543749996074,
                    "durationTicks": 76,
                    "midi": 57,
                    "name": "A3",
                    "ticks": 136448,
                    "time": 444.165956,
                    "velocity": 0.2677165354330709,
                },
                {
                    "duration": 0.24739543749996074,
                    "durationTicks": 76,
                    "midi": 60,
                    "name": "C4",
                    "ticks": 136448,
                    "time": 444.165956,
                    "velocity": 0.2677165354330709,
                },
                {
                    "duration": 0.23437462500004358,
                    "durationTicks": 72,
                    "midi": 57,
                    "name": "A3",
                    "ticks": 136576,
                    "time": 444.58262199999996,
                    "velocity": 0.2677165354330709,
                },
                {
                    "duration": 0.23437462500004358,
                    "durationTicks": 72,
                    "midi": 60,
                    "name": "C4",
                    "ticks": 136576,
                    "time": 444.58262199999996,
                    "velocity": 0.2677165354330709,
                },
                {
                    "duration": 0.5078116875000092,
                    "durationTicks": 156,
                    "midi": 56,
                    "name": "G#3",
                    "ticks": 136704,
                    "time": 444.999288,
                    "velocity": 0.30708661417322836,
                },
                {
                    "duration": 0.5078116875000092,
                    "durationTicks": 156,
                    "midi": 62,
                    "name": "D4",
                    "ticks": 136704,
                    "time": 444.999288,
                    "velocity": 0.30708661417322836,
                },
                {
                    "duration": 0.4720044531250096,
                    "durationTicks": 145,
                    "midi": 57,
                    "name": "A3",
                    "ticks": 136960,
                    "time": 445.83261999999996,
                    "velocity": 0.23622047244094488,
                },
                {
                    "duration": 0.4720044531250096,
                    "durationTicks": 145,
                    "midi": 60,
                    "name": "C4",
                    "ticks": 136960,
                    "time": 445.83261999999996,
                    "velocity": 0.23622047244094488,
                },
                {
                    "duration": 0.8333319999999844,
                    "durationTicks": 256,
                    "midi": 59,
                    "name": "B3",
                    "ticks": 138240,
                    "time": 449.99928,
                    "velocity": 0.29133858267716534,
                },
                {
                    "duration": 0.8333319999999844,
                    "durationTicks": 256,
                    "midi": 62,
                    "name": "D4",
                    "ticks": 138240,
                    "time": 449.99928,
                    "velocity": 0.29133858267716534,
                },
                {
                    "duration": 0.24739543750001758,
                    "durationTicks": 76,
                    "midi": 59,
                    "name": "B3",
                    "ticks": 138496,
                    "time": 450.832612,
                    "velocity": 0.29133858267716534,
                },
                {
                    "duration": 0.24739543750001758,
                    "durationTicks": 76,
                    "midi": 62,
                    "name": "D4",
                    "ticks": 138496,
                    "time": 450.832612,
                    "velocity": 0.29133858267716534,
                },
                {
                    "duration": 0.24739543750001758,
                    "durationTicks": 76,
                    "midi": 59,
                    "name": "B3",
                    "ticks": 138624,
                    "time": 451.24927799999995,
                    "velocity": 0.30708661417322836,
                },
                {
                    "duration": 0.24739543750001758,
                    "durationTicks": 76,
                    "midi": 62,
                    "name": "D4",
                    "ticks": 138624,
                    "time": 451.24927799999995,
                    "velocity": 0.30708661417322836,
                },
                {
                    "duration": 0.8333319999999844,
                    "durationTicks": 256,
                    "midi": 57,
                    "name": "A3",
                    "ticks": 138752,
                    "time": 451.66594399999997,
                    "velocity": 0.2677165354330709,
                },
                {
                    "duration": 0.8333319999999844,
                    "durationTicks": 256,
                    "midi": 60,
                    "name": "C4",
                    "ticks": 138752,
                    "time": 451.66594399999997,
                    "velocity": 0.2677165354330709,
                },
                {
                    "duration": 4.713257499999997,
                    "durationTicks": 1152,
                    "midi": 57,
                    "name": "A3",
                    "ticks": 140800,
                    "time": 458.33259999999996,
                    "velocity": 0.7007874015748031,
                },
                {
                    "duration": 4.713257499999997,
                    "durationTicks": 1152,
                    "midi": 60,
                    "name": "C4",
                    "ticks": 140800,
                    "time": 458.33259999999996,
                    "velocity": 0.7007874015748031,
                },
            ],
            "endOfTrackTicks": 141953,
        },
        {
            "channel": 4,
            "controlChanges": {
                "7": [
                    {"number": 7, "ticks": 0, "time": 0, "value": 0.6377952755905512},
                    {"number": 7, "ticks": 0, "time": 0, "value": 0.7480314960629921},
                    {
                        "number": 7,
                        "ticks": 235,
                        "time": 0.764972734375,
                        "value": 0.6692913385826772,
                    },
                    {
                        "number": 7,
                        "ticks": 342,
                        "time": 1.11327946875,
                        "value": 0.5905511811023622,
                    },
                    {
                        "number": 7,
                        "ticks": 649,
                        "time": 2.112626828125,
                        "value": 0.5118110236220472,
                    },
                    {
                        "number": 7,
                        "ticks": 796,
                        "time": 2.5911416875,
                        "value": 0.4330708661417323,
                    },
                    {
                        "number": 7,
                        "ticks": 1023,
                        "time": 3.3300727968749997,
                        "value": 0.3543307086614173,
                    },
                    {
                        "number": 7,
                        "ticks": 1024,
                        "time": 3.333328,
                        "value": 0.2755905511811024,
                    },
                    {
                        "number": 7,
                        "ticks": 1536,
                        "time": 4.999992,
                        "value": 0.5118110236220472,
                    },
                    {
                        "number": 7,
                        "ticks": 140800,
                        "time": 458.33259999999996,
                        "value": 0.7480314960629921,
                    },
                    {
                        "number": 7,
                        "ticks": 140928,
                        "time": 458.81647,
                        "value": 0.6692913385826772,
                    },
                    {
                        "number": 7,
                        "ticks": 141056,
                        "time": 459.30033999999995,
                        "value": 0.5905511811023622,
                    },
                    {
                        "number": 7,
                        "ticks": 141311,
                        "time": 460.26429976562497,
                        "value": 0.5118110236220472,
                    },
                    {
                        "number": 7,
                        "ticks": 141477,
                        "time": 460.9842257617187,
                        "value": 0.3543307086614173,
                    },
                    {
                        "number": 7,
                        "ticks": 141823,
                        "time": 462.4859617226562,
                        "value": 0.1968503937007874,
                    },
                    {
                        "number": 7,
                        "ticks": 141952,
                        "time": 463.04585749999995,
                        "value": 0.5118110236220472,
                    },
                ],
                "10": [
                    {"number": 10, "ticks": 0, "time": 0, "value": 0.36220472440944884}
                ],
                "64": [{"number": 64, "ticks": 0, "time": 0, "value": 0}],
                "91": [
                    {"number": 91, "ticks": 0, "time": 0, "value": 0.4881889763779528}
                ],
                "121": [{"number": 121, "ticks": 0, "time": 0, "value": 0}],
            },
            "pitchBends": [],
            "instrument": {"family": "brass", "number": 60, "name": "french horn"},
            "name": "2 Horns in E",
            "notes": [
                {
                    "duration": 4.16666,
                    "durationTicks": 1280,
                    "midi": 52,
                    "name": "E3",
                    "ticks": 0,
                    "time": 0,
                    "velocity": 0.6692913385826772,
                },
                {
                    "duration": 4.16666,
                    "durationTicks": 1280,
                    "midi": 64,
                    "name": "E4",
                    "ticks": 0,
                    "time": 0,
                    "velocity": 0.6692913385826772,
                },
                {
                    "duration": 0.8333319999999986,
                    "durationTicks": 256,
                    "midi": 52,
                    "name": "E3",
                    "ticks": 37120,
                    "time": 120.83313999999999,
                    "velocity": 0.6220472440944882,
                },
                {
                    "duration": 0.8333319999999986,
                    "durationTicks": 256,
                    "midi": 64,
                    "name": "E4",
                    "ticks": 37120,
                    "time": 120.83313999999999,
                    "velocity": 0.6220472440944882,
                },
                {
                    "duration": 0.8333320000000128,
                    "durationTicks": 256,
                    "midi": 69,
                    "name": "A4",
                    "ticks": 37632,
                    "time": 122.49980399999998,
                    "velocity": 0.6456692913385826,
                },
                {
                    "duration": 0.8333319999999986,
                    "durationTicks": 256,
                    "midi": 52,
                    "name": "E3",
                    "ticks": 37888,
                    "time": 123.333136,
                    "velocity": 0.7322834645669292,
                },
                {
                    "duration": 0.8333319999999986,
                    "durationTicks": 256,
                    "midi": 64,
                    "name": "E4",
                    "ticks": 37888,
                    "time": 123.333136,
                    "velocity": 0.7322834645669292,
                },
                {
                    "duration": 0.24739543749998916,
                    "durationTicks": 76,
                    "midi": 52,
                    "name": "E3",
                    "ticks": 38144,
                    "time": 124.166468,
                    "velocity": 0.8582677165354331,
                },
                {
                    "duration": 0.24739543749998916,
                    "durationTicks": 76,
                    "midi": 64,
                    "name": "E4",
                    "ticks": 38144,
                    "time": 124.166468,
                    "velocity": 0.8582677165354331,
                },
                {
                    "duration": 0.24739543750000337,
                    "durationTicks": 76,
                    "midi": 52,
                    "name": "E3",
                    "ticks": 38272,
                    "time": 124.58313399999999,
                    "velocity": 0.905511811023622,
                },
                {
                    "duration": 0.24739543750000337,
                    "durationTicks": 76,
                    "midi": 64,
                    "name": "E4",
                    "ticks": 38272,
                    "time": 124.58313399999999,
                    "velocity": 0.905511811023622,
                },
                {
                    "duration": 0.49804607812500024,
                    "durationTicks": 153,
                    "midi": 52,
                    "name": "E3",
                    "ticks": 38400,
                    "time": 124.9998,
                    "velocity": 0.889763779527559,
                },
                {
                    "duration": 0.49804607812500024,
                    "durationTicks": 153,
                    "midi": 64,
                    "name": "E4",
                    "ticks": 38400,
                    "time": 124.9998,
                    "velocity": 0.889763779527559,
                },
                {
                    "duration": 0.4720044531249954,
                    "durationTicks": 145,
                    "midi": 52,
                    "name": "E3",
                    "ticks": 38656,
                    "time": 125.83313199999999,
                    "velocity": 0.8740157480314961,
                },
                {
                    "duration": 0.4720044531249954,
                    "durationTicks": 145,
                    "midi": 64,
                    "name": "E4",
                    "ticks": 38656,
                    "time": 125.83313199999999,
                    "velocity": 0.8740157480314961,
                },
                {
                    "duration": 0.8333319999999986,
                    "durationTicks": 256,
                    "midi": 52,
                    "name": "E3",
                    "ticks": 38912,
                    "time": 126.66646399999999,
                    "velocity": 0.8818897637795275,
                },
                {
                    "duration": 0.8333319999999986,
                    "durationTicks": 256,
                    "midi": 64,
                    "name": "E4",
                    "ticks": 38912,
                    "time": 126.66646399999999,
                    "velocity": 0.8818897637795275,
                },
                {
                    "duration": 0.24739543750000337,
                    "durationTicks": 76,
                    "midi": 52,
                    "name": "E3",
                    "ticks": 39168,
                    "time": 127.49979599999999,
                    "velocity": 0.8818897637795275,
                },
                {
                    "duration": 0.24739543750000337,
                    "durationTicks": 76,
                    "midi": 64,
                    "name": "E4",
                    "ticks": 39168,
                    "time": 127.49979599999999,
                    "velocity": 0.8818897637795275,
                },
                {
                    "duration": 0.24739543749998916,
                    "durationTicks": 76,
                    "midi": 52,
                    "name": "E3",
                    "ticks": 39296,
                    "time": 127.916462,
                    "velocity": 0.8582677165354331,
                },
                {
                    "duration": 0.24739543749998916,
                    "durationTicks": 76,
                    "midi": 64,
                    "name": "E4",
                    "ticks": 39296,
                    "time": 127.916462,
                    "velocity": 0.8582677165354331,
                },
                {
                    "duration": 0.49804607812501445,
                    "durationTicks": 153,
                    "midi": 52,
                    "name": "E3",
                    "ticks": 39424,
                    "time": 128.333128,
                    "velocity": 0.889763779527559,
                },
                {
                    "duration": 0.49804607812501445,
                    "durationTicks": 153,
                    "midi": 64,
                    "name": "E4",
                    "ticks": 39424,
                    "time": 128.333128,
                    "velocity": 0.889763779527559,
                },
                {
                    "duration": 0.4720044531249812,
                    "durationTicks": 145,
                    "midi": 52,
                    "name": "E3",
                    "ticks": 39680,
                    "time": 129.16646,
                    "velocity": 0.8818897637795275,
                },
                {
                    "duration": 0.4720044531249812,
                    "durationTicks": 145,
                    "midi": 64,
                    "name": "E4",
                    "ticks": 39680,
                    "time": 129.16646,
                    "velocity": 0.8818897637795275,
                },
                {
                    "duration": 0.8333320000000128,
                    "durationTicks": 256,
                    "midi": 52,
                    "name": "E3",
                    "ticks": 39936,
                    "time": 129.99979199999999,
                    "velocity": 0.8740157480314961,
                },
                {
                    "duration": 0.8333320000000128,
                    "durationTicks": 256,
                    "midi": 64,
                    "name": "E4",
                    "ticks": 39936,
                    "time": 129.99979199999999,
                    "velocity": 0.8740157480314961,
                },
                {
                    "duration": 0.24739543749998916,
                    "durationTicks": 76,
                    "midi": 64,
                    "name": "E4",
                    "ticks": 40192,
                    "time": 130.833124,
                    "velocity": 0.8976377952755905,
                },
                {
                    "duration": 0.24739543749998916,
                    "durationTicks": 76,
                    "midi": 66,
                    "name": "F#4",
                    "ticks": 40320,
                    "time": 131.24979,
                    "velocity": 0.937007874015748,
                },
                {
                    "duration": 0.49804607812501445,
                    "durationTicks": 153,
                    "midi": 67,
                    "name": "G4",
                    "ticks": 40448,
                    "time": 131.66645599999998,
                    "velocity": 0.9448818897637795,
                },
                {
                    "duration": 0.4720044531249812,
                    "durationTicks": 145,
                    "midi": 67,
                    "name": "G4",
                    "ticks": 40704,
                    "time": 132.499788,
                    "velocity": 0.905511811023622,
                },
                {
                    "duration": 0.8333320000000128,
                    "durationTicks": 256,
                    "midi": 67,
                    "name": "G4",
                    "ticks": 40960,
                    "time": 133.33311999999998,
                    "velocity": 0.889763779527559,
                },
                {
                    "duration": 0.24739543749998916,
                    "durationTicks": 76,
                    "midi": 67,
                    "name": "G4",
                    "ticks": 41216,
                    "time": 134.166452,
                    "velocity": 0.8503937007874016,
                },
                {
                    "duration": 0.24739543750001758,
                    "durationTicks": 76,
                    "midi": 67,
                    "name": "G4",
                    "ticks": 41344,
                    "time": 134.58311799999998,
                    "velocity": 0.8976377952755905,
                },
                {
                    "duration": 0.8333320000000128,
                    "durationTicks": 256,
                    "midi": 67,
                    "name": "G4",
                    "ticks": 41472,
                    "time": 134.99978399999998,
                    "velocity": 0.8740157480314961,
                },
                {
                    "duration": 0.8333319999999844,
                    "durationTicks": 256,
                    "midi": 67,
                    "name": "G4",
                    "ticks": 41984,
                    "time": 136.666448,
                    "velocity": 0.7874015748031497,
                },
                {
                    "duration": 0.24739543749998916,
                    "durationTicks": 76,
                    "midi": 67,
                    "name": "G4",
                    "ticks": 42240,
                    "time": 137.49978,
                    "velocity": 0.905511811023622,
                },
                {
                    "duration": 0.24739543750001758,
                    "durationTicks": 76,
                    "midi": 69,
                    "name": "A4",
                    "ticks": 42368,
                    "time": 137.91644599999998,
                    "velocity": 0.9448818897637795,
                },
                {
                    "duration": 0.498046078124986,
                    "durationTicks": 153,
                    "midi": 71,
                    "name": "B4",
                    "ticks": 42496,
                    "time": 138.333112,
                    "velocity": 0.9448818897637795,
                },
                {
                    "duration": 0.4720044531250096,
                    "durationTicks": 145,
                    "midi": 71,
                    "name": "B4",
                    "ticks": 42752,
                    "time": 139.16644399999998,
                    "velocity": 0.8740157480314961,
                },
                {
                    "duration": 0.8333319999999844,
                    "durationTicks": 256,
                    "midi": 66,
                    "name": "F#4",
                    "ticks": 43008,
                    "time": 139.999776,
                    "velocity": 0.7716535433070866,
                },
                {
                    "duration": 0.24739543750001758,
                    "durationTicks": 76,
                    "midi": 66,
                    "name": "F#4",
                    "ticks": 43264,
                    "time": 140.83310799999998,
                    "velocity": 0.84251968503937,
                },
                {
                    "duration": 0.24739543749998916,
                    "durationTicks": 76,
                    "midi": 68,
                    "name": "G#4",
                    "ticks": 43392,
                    "time": 141.249774,
                    "velocity": 0.952755905511811,
                },
                {
                    "duration": 0.498046078124986,
                    "durationTicks": 153,
                    "midi": 69,
                    "name": "A4",
                    "ticks": 43520,
                    "time": 141.66644,
                    "velocity": 0.952755905511811,
                },
                {
                    "duration": 0.4720044531250096,
                    "durationTicks": 145,
                    "midi": 69,
                    "name": "A4",
                    "ticks": 43776,
                    "time": 142.49977199999998,
                    "velocity": 0.9212598425196851,
                },
                {
                    "duration": 0.8333319999999844,
                    "durationTicks": 256,
                    "midi": 52,
                    "name": "E3",
                    "ticks": 44032,
                    "time": 143.333104,
                    "velocity": 0.7952755905511811,
                },
                {
                    "duration": 0.8333319999999844,
                    "durationTicks": 256,
                    "midi": 64,
                    "name": "E4",
                    "ticks": 44032,
                    "time": 143.333104,
                    "velocity": 0.7952755905511811,
                },
                {
                    "duration": 0.24739543750001758,
                    "durationTicks": 76,
                    "midi": 52,
                    "name": "E3",
                    "ticks": 44288,
                    "time": 144.16643599999998,
                    "velocity": 0.889763779527559,
                },
                {
                    "duration": 0.24739543750001758,
                    "durationTicks": 76,
                    "midi": 64,
                    "name": "E4",
                    "ticks": 44288,
                    "time": 144.16643599999998,
                    "velocity": 0.889763779527559,
                },
                {
                    "duration": 0.24739543749998916,
                    "durationTicks": 76,
                    "midi": 52,
                    "name": "E3",
                    "ticks": 44416,
                    "time": 144.583102,
                    "velocity": 0.9133858267716536,
                },
                {
                    "duration": 0.24739543749998916,
                    "durationTicks": 76,
                    "midi": 64,
                    "name": "E4",
                    "ticks": 44416,
                    "time": 144.583102,
                    "velocity": 0.9133858267716536,
                },
                {
                    "duration": 0.498046078124986,
                    "durationTicks": 153,
                    "midi": 52,
                    "name": "E3",
                    "ticks": 44544,
                    "time": 144.999768,
                    "velocity": 0.8740157480314961,
                },
                {
                    "duration": 0.498046078124986,
                    "durationTicks": 153,
                    "midi": 64,
                    "name": "E4",
                    "ticks": 44544,
                    "time": 144.999768,
                    "velocity": 0.8740157480314961,
                },
                {
                    "duration": 0.4720044531249812,
                    "durationTicks": 145,
                    "midi": 52,
                    "name": "E3",
                    "ticks": 44800,
                    "time": 145.8331,
                    "velocity": 0.889763779527559,
                },
                {
                    "duration": 0.4720044531249812,
                    "durationTicks": 145,
                    "midi": 64,
                    "name": "E4",
                    "ticks": 44800,
                    "time": 145.8331,
                    "velocity": 0.889763779527559,
                },
                {
                    "duration": 0.8333320000000128,
                    "durationTicks": 256,
                    "midi": 52,
                    "name": "E3",
                    "ticks": 45056,
                    "time": 146.666432,
                    "velocity": 0.8740157480314961,
                },
                {
                    "duration": 0.8333320000000128,
                    "durationTicks": 256,
                    "midi": 64,
                    "name": "E4",
                    "ticks": 45056,
                    "time": 146.666432,
                    "velocity": 0.8740157480314961,
                },
                {
                    "duration": 0.4166659999999922,
                    "durationTicks": 128,
                    "midi": 66,
                    "name": "F#4",
                    "ticks": 45312,
                    "time": 147.499764,
                    "velocity": 0.9133858267716536,
                },
                {
                    "duration": 0.4166659999999922,
                    "durationTicks": 128,
                    "midi": 68,
                    "name": "G#4",
                    "ticks": 45440,
                    "time": 147.91643,
                    "velocity": 0.937007874015748,
                },
                {
                    "duration": 0.8333320000000128,
                    "durationTicks": 256,
                    "midi": 69,
                    "name": "A4",
                    "ticks": 45568,
                    "time": 148.33309599999998,
                    "velocity": 0.9291338582677166,
                },
                {
                    "duration": 0.8333320000000128,
                    "durationTicks": 256,
                    "midi": 67,
                    "name": "G4",
                    "ticks": 46080,
                    "time": 149.99975999999998,
                    "velocity": 0.47244094488188976,
                },
                {
                    "duration": 0.24739543749998916,
                    "durationTicks": 76,
                    "midi": 67,
                    "name": "G4",
                    "ticks": 46336,
                    "time": 150.833092,
                    "velocity": 0.5826771653543307,
                },
                {
                    "duration": 0.24739543749998916,
                    "durationTicks": 76,
                    "midi": 69,
                    "name": "A4",
                    "ticks": 46464,
                    "time": 151.24975799999999,
                    "velocity": 0.6141732283464567,
                },
                {
                    "duration": 0.49804607812501445,
                    "durationTicks": 153,
                    "midi": 71,
                    "name": "B4",
                    "ticks": 46592,
                    "time": 151.66642399999998,
                    "velocity": 0.5984251968503937,
                },
                {
                    "duration": 0.4720044531250096,
                    "durationTicks": 145,
                    "midi": 71,
                    "name": "B4",
                    "ticks": 46848,
                    "time": 152.499756,
                    "velocity": 0.5984251968503937,
                },
                {
                    "duration": 0.8333320000000128,
                    "durationTicks": 256,
                    "midi": 66,
                    "name": "F#4",
                    "ticks": 47104,
                    "time": 153.33308799999998,
                    "velocity": 0.5118110236220472,
                },
                {
                    "duration": 0.24739543749998916,
                    "durationTicks": 76,
                    "midi": 66,
                    "name": "F#4",
                    "ticks": 47360,
                    "time": 154.16642,
                    "velocity": 0.5905511811023622,
                },
                {
                    "duration": 0.24739543750001758,
                    "durationTicks": 76,
                    "midi": 68,
                    "name": "G#4",
                    "ticks": 47488,
                    "time": 154.58308599999998,
                    "velocity": 0.6692913385826772,
                },
                {
                    "duration": 0.498046078124986,
                    "durationTicks": 153,
                    "midi": 69,
                    "name": "A4",
                    "ticks": 47616,
                    "time": 154.999752,
                    "velocity": 0.6692913385826772,
                },
                {
                    "duration": 0.4720044531250096,
                    "durationTicks": 145,
                    "midi": 69,
                    "name": "A4",
                    "ticks": 47872,
                    "time": 155.83308399999999,
                    "velocity": 0.6377952755905512,
                },
                {
                    "duration": 0.8333319999999844,
                    "durationTicks": 256,
                    "midi": 52,
                    "name": "E3",
                    "ticks": 48128,
                    "time": 156.666416,
                    "velocity": 0.49606299212598426,
                },
                {
                    "duration": 0.8333319999999844,
                    "durationTicks": 256,
                    "midi": 64,
                    "name": "E4",
                    "ticks": 48128,
                    "time": 156.666416,
                    "velocity": 0.49606299212598426,
                },
                {
                    "duration": 0.24739543750001758,
                    "durationTicks": 76,
                    "midi": 52,
                    "name": "E3",
                    "ticks": 48384,
                    "time": 157.49974799999998,
                    "velocity": 0.5590551181102362,
                },
                {
                    "duration": 0.24739543750001758,
                    "durationTicks": 76,
                    "midi": 64,
                    "name": "E4",
                    "ticks": 48384,
                    "time": 157.49974799999998,
                    "velocity": 0.5590551181102362,
                },
                {
                    "duration": 0.24739543750001758,
                    "durationTicks": 76,
                    "midi": 52,
                    "name": "E3",
                    "ticks": 48512,
                    "time": 157.91641399999997,
                    "velocity": 0.5511811023622047,
                },
                {
                    "duration": 0.24739543750001758,
                    "durationTicks": 76,
                    "midi": 64,
                    "name": "E4",
                    "ticks": 48512,
                    "time": 157.91641399999997,
                    "velocity": 0.5511811023622047,
                },
                {
                    "duration": 0.498046078124986,
                    "durationTicks": 153,
                    "midi": 52,
                    "name": "E3",
                    "ticks": 48640,
                    "time": 158.33308,
                    "velocity": 0.5905511811023622,
                },
                {
                    "duration": 0.498046078124986,
                    "durationTicks": 153,
                    "midi": 64,
                    "name": "E4",
                    "ticks": 48640,
                    "time": 158.33308,
                    "velocity": 0.5905511811023622,
                },
                {
                    "duration": 0.4720044531250096,
                    "durationTicks": 145,
                    "midi": 52,
                    "name": "E3",
                    "ticks": 48896,
                    "time": 159.16641199999998,
                    "velocity": 0.5669291338582677,
                },
                {
                    "duration": 0.4720044531250096,
                    "durationTicks": 145,
                    "midi": 64,
                    "name": "E4",
                    "ticks": 48896,
                    "time": 159.16641199999998,
                    "velocity": 0.5669291338582677,
                },
                {
                    "duration": 0.8333319999999844,
                    "durationTicks": 256,
                    "midi": 52,
                    "name": "E3",
                    "ticks": 49152,
                    "time": 159.999744,
                    "velocity": 0.5590551181102362,
                },
                {
                    "duration": 0.8333319999999844,
                    "durationTicks": 256,
                    "midi": 64,
                    "name": "E4",
                    "ticks": 49152,
                    "time": 159.999744,
                    "velocity": 0.5590551181102362,
                },
                {
                    "duration": 0.24739543750001758,
                    "durationTicks": 76,
                    "midi": 66,
                    "name": "F#4",
                    "ticks": 49408,
                    "time": 160.83307599999998,
                    "velocity": 0.5748031496062992,
                },
                {
                    "duration": 0.24739543749998916,
                    "durationTicks": 76,
                    "midi": 68,
                    "name": "G#4",
                    "ticks": 49536,
                    "time": 161.249742,
                    "velocity": 0.5905511811023622,
                },
                {
                    "duration": 0.8333319999999844,
                    "durationTicks": 256,
                    "midi": 69,
                    "name": "A4",
                    "ticks": 49664,
                    "time": 161.666408,
                    "velocity": 0.3937007874015748,
                },
                {
                    "duration": 0.8333320000000128,
                    "durationTicks": 256,
                    "midi": 52,
                    "name": "E3",
                    "ticks": 50176,
                    "time": 163.333072,
                    "velocity": 0.3464566929133858,
                },
                {
                    "duration": 0.8333320000000128,
                    "durationTicks": 256,
                    "midi": 64,
                    "name": "E4",
                    "ticks": 50176,
                    "time": 163.333072,
                    "velocity": 0.3464566929133858,
                },
                {
                    "duration": 0.24739543749998916,
                    "durationTicks": 76,
                    "midi": 52,
                    "name": "E3",
                    "ticks": 50432,
                    "time": 164.166404,
                    "velocity": 0.3779527559055118,
                },
                {
                    "duration": 0.24739543749998916,
                    "durationTicks": 76,
                    "midi": 64,
                    "name": "E4",
                    "ticks": 50432,
                    "time": 164.166404,
                    "velocity": 0.3779527559055118,
                },
                {
                    "duration": 0.24739543749998916,
                    "durationTicks": 76,
                    "midi": 52,
                    "name": "E3",
                    "ticks": 50560,
                    "time": 164.58307,
                    "velocity": 0.36220472440944884,
                },
                {
                    "duration": 0.24739543749998916,
                    "durationTicks": 76,
                    "midi": 64,
                    "name": "E4",
                    "ticks": 50560,
                    "time": 164.58307,
                    "velocity": 0.36220472440944884,
                },
                {
                    "duration": 0.8333320000000128,
                    "durationTicks": 256,
                    "midi": 64,
                    "name": "E4",
                    "ticks": 50688,
                    "time": 164.99973599999998,
                    "velocity": 0.3700787401574803,
                },
                {
                    "duration": 1.6666640000000257,
                    "durationTicks": 512,
                    "midi": 59,
                    "name": "B3",
                    "ticks": 58368,
                    "time": 189.99969599999997,
                    "velocity": 0.3464566929133858,
                },
                {
                    "duration": 1.6666640000000257,
                    "durationTicks": 512,
                    "midi": 71,
                    "name": "B4",
                    "ticks": 58368,
                    "time": 189.99969599999997,
                    "velocity": 0.3464566929133858,
                },
                {
                    "duration": 4.999991999999992,
                    "durationTicks": 1536,
                    "midi": 52,
                    "name": "E3",
                    "ticks": 58880,
                    "time": 191.66636,
                    "velocity": 0.30708661417322836,
                },
                {
                    "duration": 4.999991999999992,
                    "durationTicks": 1536,
                    "midi": 64,
                    "name": "E4",
                    "ticks": 58880,
                    "time": 191.66636,
                    "velocity": 0.30708661417322836,
                },
                {
                    "duration": 1.249998000000005,
                    "durationTicks": 384,
                    "midi": 69,
                    "name": "A4",
                    "ticks": 60416,
                    "time": 196.666352,
                    "velocity": 0.8740157480314961,
                },
                {
                    "duration": 0.4166659999999922,
                    "durationTicks": 128,
                    "midi": 69,
                    "name": "A4",
                    "ticks": 60800,
                    "time": 197.91635,
                    "velocity": 0.7480314960629921,
                },
                {
                    "duration": 0.2799474687500094,
                    "durationTicks": 86,
                    "midi": 69,
                    "name": "A4",
                    "ticks": 60928,
                    "time": 198.333016,
                    "velocity": 0.7559055118110236,
                },
                {
                    "duration": 0.2604162499999916,
                    "durationTicks": 80,
                    "midi": 68,
                    "name": "G#4",
                    "ticks": 61013,
                    "time": 198.609708265625,
                    "velocity": 0.7165354330708661,
                },
                {
                    "duration": 0.16601535937499534,
                    "durationTicks": 51,
                    "midi": 66,
                    "name": "F#4",
                    "ticks": 61098,
                    "time": 198.88640053125,
                    "velocity": 0.6692913385826772,
                },
                {
                    "duration": 0.16601535937499534,
                    "durationTicks": 51,
                    "midi": 64,
                    "name": "E4",
                    "ticks": 61184,
                    "time": 199.166348,
                    "velocity": 0.7244094488188977,
                },
                {
                    "duration": 0.16601535937502376,
                    "durationTicks": 51,
                    "midi": 63,
                    "name": "D#4",
                    "ticks": 61269,
                    "time": 199.44304026562497,
                    "velocity": 0.7244094488188977,
                },
                {
                    "duration": 0.16601535937502376,
                    "durationTicks": 51,
                    "midi": 61,
                    "name": "C#4",
                    "ticks": 61354,
                    "time": 199.71973253124997,
                    "velocity": 0.6850393700787402,
                },
                {
                    "duration": 0.8496080156249946,
                    "durationTicks": 261,
                    "midi": 59,
                    "name": "B3",
                    "ticks": 61440,
                    "time": 199.99967999999998,
                    "velocity": 0.7322834645669292,
                },
                {
                    "duration": 0.3938795781249951,
                    "durationTicks": 121,
                    "midi": 61,
                    "name": "C#4",
                    "ticks": 61696,
                    "time": 200.833012,
                    "velocity": 0.7559055118110236,
                },
                {
                    "duration": 0.24739543749998916,
                    "durationTicks": 76,
                    "midi": 63,
                    "name": "D#4",
                    "ticks": 61824,
                    "time": 201.249678,
                    "velocity": 0.84251968503937,
                },
                {
                    "duration": 0.8333320000000128,
                    "durationTicks": 256,
                    "midi": 64,
                    "name": "E4",
                    "ticks": 61952,
                    "time": 201.66634399999998,
                    "velocity": 0.7952755905511811,
                },
                {
                    "duration": 0.2604162499999916,
                    "durationTicks": 80,
                    "midi": 64,
                    "name": "E4",
                    "ticks": 62208,
                    "time": 202.499676,
                    "velocity": 0.7874015748031497,
                },
                {
                    "duration": 0.279947468749981,
                    "durationTicks": 86,
                    "midi": 63,
                    "name": "D#4",
                    "ticks": 62293,
                    "time": 202.776368265625,
                    "velocity": 0.7401574803149606,
                },
                {
                    "duration": 0.2636714531249993,
                    "durationTicks": 81,
                    "midi": 64,
                    "name": "E4",
                    "ticks": 62378,
                    "time": 203.05306053125,
                    "velocity": 0.7559055118110236,
                },
                {
                    "duration": 2.49999600000001,
                    "durationTicks": 768,
                    "midi": 64,
                    "name": "E4",
                    "ticks": 62464,
                    "time": 203.33300799999998,
                    "velocity": 0.84251968503937,
                },
                {
                    "duration": 0.42317640625000763,
                    "durationTicks": 130,
                    "midi": 66,
                    "name": "F#4",
                    "ticks": 63232,
                    "time": 205.833004,
                    "velocity": 0.8582677165354331,
                },
                {
                    "duration": 0.3938795781249951,
                    "durationTicks": 121,
                    "midi": 64,
                    "name": "E4",
                    "ticks": 63360,
                    "time": 206.24966999999998,
                    "velocity": 0.8110236220472441,
                },
                {
                    "duration": 2.49999600000001,
                    "durationTicks": 768,
                    "midi": 64,
                    "name": "E4",
                    "ticks": 63488,
                    "time": 206.66633599999997,
                    "velocity": 0.7795275590551181,
                },
                {
                    "duration": 0.2799474687500094,
                    "durationTicks": 86,
                    "midi": 68,
                    "name": "G#4",
                    "ticks": 64256,
                    "time": 209.16633199999998,
                    "velocity": 0.8661417322834646,
                },
                {
                    "duration": 0.2799474687500094,
                    "durationTicks": 86,
                    "midi": 66,
                    "name": "F#4",
                    "ticks": 64341,
                    "time": 209.44302426562498,
                    "velocity": 0.8031496062992126,
                },
                {
                    "duration": 0.2636714531249993,
                    "durationTicks": 81,
                    "midi": 64,
                    "name": "E4",
                    "ticks": 64426,
                    "time": 209.71971653125,
                    "velocity": 0.7007874015748031,
                },
                {
                    "duration": 1.6666639999999973,
                    "durationTicks": 512,
                    "midi": 64,
                    "name": "E4",
                    "ticks": 64512,
                    "time": 209.999664,
                    "velocity": 0.5354330708661418,
                },
                {
                    "duration": 1.6666639999999973,
                    "durationTicks": 512,
                    "midi": 66,
                    "name": "F#4",
                    "ticks": 65024,
                    "time": 211.666328,
                    "velocity": 0.6299212598425197,
                },
                {
                    "duration": 0.8333319999999844,
                    "durationTicks": 256,
                    "midi": 64,
                    "name": "E4",
                    "ticks": 65536,
                    "time": 213.332992,
                    "velocity": 0.4881889763779528,
                },
                {
                    "duration": 0.8333320000000128,
                    "durationTicks": 256,
                    "midi": 64,
                    "name": "E4",
                    "ticks": 65792,
                    "time": 214.16632399999997,
                    "velocity": 0.4015748031496063,
                },
                {
                    "duration": 0.8333320000000128,
                    "durationTicks": 256,
                    "midi": 52,
                    "name": "E3",
                    "ticks": 65792,
                    "time": 214.16632399999997,
                    "velocity": 0.33858267716535434,
                },
                {
                    "duration": 1.6666639999999973,
                    "durationTicks": 512,
                    "midi": 64,
                    "name": "E4",
                    "ticks": 66048,
                    "time": 214.999656,
                    "velocity": 0.4251968503937008,
                },
                {
                    "duration": 1.6666639999999973,
                    "durationTicks": 512,
                    "midi": 52,
                    "name": "E3",
                    "ticks": 66048,
                    "time": 214.999656,
                    "velocity": 0.5354330708661418,
                },
                {
                    "duration": 2.49999600000001,
                    "durationTicks": 768,
                    "midi": 64,
                    "name": "E4",
                    "ticks": 66560,
                    "time": 216.66631999999998,
                    "velocity": 0.41732283464566927,
                },
                {
                    "duration": 0.4231764062499792,
                    "durationTicks": 130,
                    "midi": 66,
                    "name": "F#4",
                    "ticks": 67328,
                    "time": 219.166316,
                    "velocity": 0.5748031496062992,
                },
                {
                    "duration": 0.3938795781249951,
                    "durationTicks": 121,
                    "midi": 64,
                    "name": "E4",
                    "ticks": 67456,
                    "time": 219.582982,
                    "velocity": 0.5039370078740157,
                },
                {
                    "duration": 2.49999600000001,
                    "durationTicks": 768,
                    "midi": 64,
                    "name": "E4",
                    "ticks": 67584,
                    "time": 219.99964799999998,
                    "velocity": 0.5275590551181102,
                },
                {
                    "duration": 0.8333320000000128,
                    "durationTicks": 256,
                    "midi": 64,
                    "name": "E4",
                    "ticks": 68096,
                    "time": 221.66631199999998,
                    "velocity": 0.8031496062992126,
                },
                {
                    "duration": 0.2766922656250017,
                    "durationTicks": 85,
                    "midi": 68,
                    "name": "G#4",
                    "ticks": 68352,
                    "time": 222.499644,
                    "velocity": 0.7165354330708661,
                },
                {
                    "duration": 0.2766922656250017,
                    "durationTicks": 85,
                    "midi": 66,
                    "name": "F#4",
                    "ticks": 68437,
                    "time": 222.776336265625,
                    "velocity": 0.6062992125984252,
                },
                {
                    "duration": 0.279947468749981,
                    "durationTicks": 86,
                    "midi": 64,
                    "name": "E4",
                    "ticks": 68522,
                    "time": 223.05302853125,
                    "velocity": 0.5984251968503937,
                },
                {
                    "duration": 1.6666639999999973,
                    "durationTicks": 512,
                    "midi": 64,
                    "name": "E4",
                    "ticks": 68608,
                    "time": 223.33297599999997,
                    "velocity": 0.5590551181102362,
                },
                {
                    "duration": 0.8333319999999844,
                    "durationTicks": 256,
                    "midi": 52,
                    "name": "E3",
                    "ticks": 68864,
                    "time": 224.166308,
                    "velocity": 0.49606299212598426,
                },
                {
                    "duration": 1.6666640000000257,
                    "durationTicks": 512,
                    "midi": 69,
                    "name": "A4",
                    "ticks": 69120,
                    "time": 224.99963999999997,
                    "velocity": 0.5826771653543307,
                },
                {
                    "duration": 0.8333319999999844,
                    "durationTicks": 256,
                    "midi": 67,
                    "name": "G4",
                    "ticks": 69632,
                    "time": 226.666304,
                    "velocity": 0.3464566929133858,
                },
                {
                    "duration": 0.8333320000000128,
                    "durationTicks": 256,
                    "midi": 67,
                    "name": "G4",
                    "ticks": 69888,
                    "time": 227.49963599999998,
                    "velocity": 0.3858267716535433,
                },
                {
                    "duration": 8.333319999999986,
                    "durationTicks": 2560,
                    "midi": 67,
                    "name": "G4",
                    "ticks": 70144,
                    "time": 228.332968,
                    "velocity": 0.3543307086614173,
                },
                {
                    "duration": 0.8333319999999844,
                    "durationTicks": 256,
                    "midi": 64,
                    "name": "E4",
                    "ticks": 71168,
                    "time": 231.666296,
                    "velocity": 0.44881889763779526,
                },
                {
                    "duration": 0.8333320000000128,
                    "durationTicks": 256,
                    "midi": 64,
                    "name": "E4",
                    "ticks": 72192,
                    "time": 234.99962399999998,
                    "velocity": 0.23622047244094488,
                },
                {
                    "duration": 1.249998000000005,
                    "durationTicks": 384,
                    "midi": 67,
                    "name": "G4",
                    "ticks": 72704,
                    "time": 236.66628799999998,
                    "velocity": 0.3228346456692913,
                },
                {
                    "duration": 0.4166659999999922,
                    "durationTicks": 128,
                    "midi": 67,
                    "name": "G4",
                    "ticks": 73088,
                    "time": 237.91628599999999,
                    "velocity": 0.31496062992125984,
                },
                {
                    "duration": 0.24739543749998916,
                    "durationTicks": 76,
                    "midi": 52,
                    "name": "E3",
                    "ticks": 75776,
                    "time": 246.666272,
                    "velocity": 0.8188976377952756,
                },
                {
                    "duration": 0.24739543749998916,
                    "durationTicks": 76,
                    "midi": 64,
                    "name": "E4",
                    "ticks": 75776,
                    "time": 246.666272,
                    "velocity": 0.8188976377952756,
                },
                {
                    "duration": 0.24739543749998916,
                    "durationTicks": 76,
                    "midi": 52,
                    "name": "E3",
                    "ticks": 75904,
                    "time": 247.08293799999998,
                    "velocity": 0.8740157480314961,
                },
                {
                    "duration": 0.24739543749998916,
                    "durationTicks": 76,
                    "midi": 64,
                    "name": "E4",
                    "ticks": 75904,
                    "time": 247.08293799999998,
                    "velocity": 0.8740157480314961,
                },
                {
                    "duration": 1.249998000000005,
                    "durationTicks": 384,
                    "midi": 52,
                    "name": "E3",
                    "ticks": 108672,
                    "time": 353.74943399999995,
                    "velocity": 0.84251968503937,
                },
                {
                    "duration": 1.249998000000005,
                    "durationTicks": 384,
                    "midi": 64,
                    "name": "E4",
                    "ticks": 108672,
                    "time": 353.74943399999995,
                    "velocity": 0.84251968503937,
                },
                {
                    "duration": 0.8333320000000413,
                    "durationTicks": 256,
                    "midi": 64,
                    "name": "E4",
                    "ticks": 109056,
                    "time": 354.99943199999996,
                    "velocity": 0.8976377952755905,
                },
                {
                    "duration": 0.24739543749996074,
                    "durationTicks": 76,
                    "midi": 64,
                    "name": "E4",
                    "ticks": 109312,
                    "time": 355.832764,
                    "velocity": 0.8818897637795275,
                },
                {
                    "duration": 0.24739543750001758,
                    "durationTicks": 76,
                    "midi": 64,
                    "name": "E4",
                    "ticks": 109440,
                    "time": 356.24942999999996,
                    "velocity": 0.8818897637795275,
                },
                {
                    "duration": 0.49804607812501445,
                    "durationTicks": 153,
                    "midi": 64,
                    "name": "E4",
                    "ticks": 109568,
                    "time": 356.666096,
                    "velocity": 0.8976377952755905,
                },
                {
                    "duration": 0.4720044531250096,
                    "durationTicks": 145,
                    "midi": 64,
                    "name": "E4",
                    "ticks": 109824,
                    "time": 357.49942799999997,
                    "velocity": 0.8818897637795275,
                },
                {
                    "duration": 0.8333320000000413,
                    "durationTicks": 256,
                    "midi": 64,
                    "name": "E4",
                    "ticks": 110080,
                    "time": 358.33275999999995,
                    "velocity": 0.889763779527559,
                },
                {
                    "duration": 0.24739543749996074,
                    "durationTicks": 76,
                    "midi": 64,
                    "name": "E4",
                    "ticks": 110336,
                    "time": 359.166092,
                    "velocity": 0.8740157480314961,
                },
                {
                    "duration": 0.24739543750001758,
                    "durationTicks": 76,
                    "midi": 64,
                    "name": "E4",
                    "ticks": 110464,
                    "time": 359.58275799999996,
                    "velocity": 0.8503937007874016,
                },
                {
                    "duration": 0.49804607812501445,
                    "durationTicks": 153,
                    "midi": 64,
                    "name": "E4",
                    "ticks": 110592,
                    "time": 359.999424,
                    "velocity": 0.8582677165354331,
                },
                {
                    "duration": 0.4720044531250096,
                    "durationTicks": 145,
                    "midi": 64,
                    "name": "E4",
                    "ticks": 110848,
                    "time": 360.83275599999996,
                    "velocity": 0.8740157480314961,
                },
                {
                    "duration": 0.8333319999999844,
                    "durationTicks": 256,
                    "midi": 64,
                    "name": "E4",
                    "ticks": 111104,
                    "time": 361.666088,
                    "velocity": 0.8818897637795275,
                },
                {
                    "duration": 0.24739543750001758,
                    "durationTicks": 76,
                    "midi": 64,
                    "name": "E4",
                    "ticks": 111360,
                    "time": 362.49942,
                    "velocity": 0.889763779527559,
                },
                {
                    "duration": 0.24739543750001758,
                    "durationTicks": 76,
                    "midi": 64,
                    "name": "E4",
                    "ticks": 111488,
                    "time": 362.91608599999995,
                    "velocity": 0.8661417322834646,
                },
                {
                    "duration": 0.49804607812501445,
                    "durationTicks": 153,
                    "midi": 64,
                    "name": "E4",
                    "ticks": 111616,
                    "time": 363.33275199999997,
                    "velocity": 0.8503937007874016,
                },
                {
                    "duration": 0.4720044531250096,
                    "durationTicks": 145,
                    "midi": 64,
                    "name": "E4",
                    "ticks": 111872,
                    "time": 364.16608399999996,
                    "velocity": 0.8818897637795275,
                },
                {
                    "duration": 0.8333319999999844,
                    "durationTicks": 256,
                    "midi": 64,
                    "name": "E4",
                    "ticks": 112128,
                    "time": 364.999416,
                    "velocity": 0.9133858267716536,
                },
                {
                    "duration": 0.24739543750001758,
                    "durationTicks": 76,
                    "midi": 66,
                    "name": "F#4",
                    "ticks": 112384,
                    "time": 365.832748,
                    "velocity": 0.937007874015748,
                },
                {
                    "duration": 0.24739543749996074,
                    "durationTicks": 76,
                    "midi": 68,
                    "name": "G#4",
                    "ticks": 112512,
                    "time": 366.249414,
                    "velocity": 0.9763779527559056,
                },
                {
                    "duration": 0.8333319999999844,
                    "durationTicks": 256,
                    "midi": 69,
                    "name": "A4",
                    "ticks": 112640,
                    "time": 366.66607999999997,
                    "velocity": 0.9291338582677166,
                },
                {
                    "duration": 0.8333319999999844,
                    "durationTicks": 256,
                    "midi": 52,
                    "name": "E3",
                    "ticks": 113152,
                    "time": 368.332744,
                    "velocity": 0.36220472440944884,
                },
                {
                    "duration": 0.8333319999999844,
                    "durationTicks": 256,
                    "midi": 64,
                    "name": "E4",
                    "ticks": 113152,
                    "time": 368.332744,
                    "velocity": 0.36220472440944884,
                },
                {
                    "duration": 0.24739543750001758,
                    "durationTicks": 76,
                    "midi": 52,
                    "name": "E3",
                    "ticks": 113408,
                    "time": 369.166076,
                    "velocity": 0.36220472440944884,
                },
                {
                    "duration": 0.24739543750001758,
                    "durationTicks": 76,
                    "midi": 64,
                    "name": "E4",
                    "ticks": 113408,
                    "time": 369.166076,
                    "velocity": 0.36220472440944884,
                },
                {
                    "duration": 0.24739543749996074,
                    "durationTicks": 76,
                    "midi": 52,
                    "name": "E3",
                    "ticks": 113536,
                    "time": 369.582742,
                    "velocity": 0.3779527559055118,
                },
                {
                    "duration": 0.24739543749996074,
                    "durationTicks": 76,
                    "midi": 64,
                    "name": "E4",
                    "ticks": 113536,
                    "time": 369.582742,
                    "velocity": 0.3779527559055118,
                },
                {
                    "duration": 0.41666600000002063,
                    "durationTicks": 128,
                    "midi": 64,
                    "name": "E4",
                    "ticks": 113664,
                    "time": 369.99940799999996,
                    "velocity": 0.3858267716535433,
                },
                {
                    "duration": 0.8333320000000413,
                    "durationTicks": 256,
                    "midi": 67,
                    "name": "G4",
                    "ticks": 125952,
                    "time": 409.99934399999995,
                    "velocity": 0.8188976377952756,
                },
                {
                    "duration": 0.24739543749996074,
                    "durationTicks": 76,
                    "midi": 67,
                    "name": "G4",
                    "ticks": 126208,
                    "time": 410.832676,
                    "velocity": 0.889763779527559,
                },
                {
                    "duration": 0.24739543750001758,
                    "durationTicks": 76,
                    "midi": 67,
                    "name": "G4",
                    "ticks": 126336,
                    "time": 411.24934199999996,
                    "velocity": 0.8346456692913385,
                },
                {
                    "duration": 0.41666600000002063,
                    "durationTicks": 128,
                    "midi": 67,
                    "name": "G4",
                    "ticks": 126464,
                    "time": 411.666008,
                    "velocity": 0.8582677165354331,
                },
                {
                    "duration": 0.8333319999999844,
                    "durationTicks": 256,
                    "midi": 67,
                    "name": "G4",
                    "ticks": 128000,
                    "time": 416.666,
                    "velocity": 0.7874015748031497,
                },
                {
                    "duration": 0.24739543750001758,
                    "durationTicks": 76,
                    "midi": 67,
                    "name": "G4",
                    "ticks": 128256,
                    "time": 417.499332,
                    "velocity": 0.889763779527559,
                },
                {
                    "duration": 0.24739543749996074,
                    "durationTicks": 76,
                    "midi": 67,
                    "name": "G4",
                    "ticks": 128384,
                    "time": 417.915998,
                    "velocity": 0.9212598425196851,
                },
                {
                    "duration": 0.41666600000002063,
                    "durationTicks": 128,
                    "midi": 67,
                    "name": "G4",
                    "ticks": 128512,
                    "time": 418.33266399999997,
                    "velocity": 0.889763779527559,
                },
                {
                    "duration": 0.8333319999999844,
                    "durationTicks": 256,
                    "midi": 64,
                    "name": "E4",
                    "ticks": 132096,
                    "time": 429.999312,
                    "velocity": 0.2755905511811024,
                },
                {
                    "duration": 0.25065064062499687,
                    "durationTicks": 77,
                    "midi": 64,
                    "name": "E4",
                    "ticks": 132352,
                    "time": 430.83264399999996,
                    "velocity": 0.2755905511811024,
                },
                {
                    "duration": 0.23437462499998674,
                    "durationTicks": 72,
                    "midi": 66,
                    "name": "F#4",
                    "ticks": 132480,
                    "time": 431.24931,
                    "velocity": 0.28346456692913385,
                },
                {
                    "duration": 0.4980460781249576,
                    "durationTicks": 153,
                    "midi": 64,
                    "name": "E4",
                    "ticks": 132608,
                    "time": 431.665976,
                    "velocity": 0.36220472440944884,
                },
                {
                    "duration": 0.4980460781249576,
                    "durationTicks": 153,
                    "midi": 67,
                    "name": "G4",
                    "ticks": 132608,
                    "time": 431.665976,
                    "velocity": 0.36220472440944884,
                },
                {
                    "duration": 0.4720044531250096,
                    "durationTicks": 145,
                    "midi": 64,
                    "name": "E4",
                    "ticks": 132864,
                    "time": 432.499308,
                    "velocity": 0.28346456692913385,
                },
                {
                    "duration": 0.4720044531250096,
                    "durationTicks": 145,
                    "midi": 67,
                    "name": "G4",
                    "ticks": 132864,
                    "time": 432.499308,
                    "velocity": 0.28346456692913385,
                },
                {
                    "duration": 0.8333320000000413,
                    "durationTicks": 256,
                    "midi": 64,
                    "name": "E4",
                    "ticks": 136192,
                    "time": 443.33262399999995,
                    "velocity": 0.23622047244094488,
                },
                {
                    "duration": 0.24739543749996074,
                    "durationTicks": 76,
                    "midi": 64,
                    "name": "E4",
                    "ticks": 136448,
                    "time": 444.165956,
                    "velocity": 0.2755905511811024,
                },
                {
                    "duration": 0.23437462500004358,
                    "durationTicks": 72,
                    "midi": 64,
                    "name": "E4",
                    "ticks": 136576,
                    "time": 444.58262199999996,
                    "velocity": 0.28346456692913385,
                },
                {
                    "duration": 0.49804607812501445,
                    "durationTicks": 153,
                    "midi": 64,
                    "name": "E4",
                    "ticks": 136704,
                    "time": 444.999288,
                    "velocity": 0.2755905511811024,
                },
                {
                    "duration": 0.5078116875000092,
                    "durationTicks": 156,
                    "midi": 59,
                    "name": "B3",
                    "ticks": 136704,
                    "time": 444.999288,
                    "velocity": 0.25984251968503935,
                },
                {
                    "duration": 0.4720044531250096,
                    "durationTicks": 145,
                    "midi": 64,
                    "name": "E4",
                    "ticks": 136960,
                    "time": 445.83261999999996,
                    "velocity": 0.2755905511811024,
                },
                {
                    "duration": 0.8333319999999844,
                    "durationTicks": 256,
                    "midi": 52,
                    "name": "E3",
                    "ticks": 138240,
                    "time": 449.99928,
                    "velocity": 0.29133858267716534,
                },
                {
                    "duration": 0.8333319999999844,
                    "durationTicks": 256,
                    "midi": 64,
                    "name": "E4",
                    "ticks": 138240,
                    "time": 449.99928,
                    "velocity": 0.29133858267716534,
                },
                {
                    "duration": 0.24739543750001758,
                    "durationTicks": 76,
                    "midi": 52,
                    "name": "E3",
                    "ticks": 138496,
                    "time": 450.832612,
                    "velocity": 0.2755905511811024,
                },
                {
                    "duration": 0.24739543750001758,
                    "durationTicks": 76,
                    "midi": 64,
                    "name": "E4",
                    "ticks": 138496,
                    "time": 450.832612,
                    "velocity": 0.2755905511811024,
                },
                {
                    "duration": 0.24739543750001758,
                    "durationTicks": 76,
                    "midi": 52,
                    "name": "E3",
                    "ticks": 138624,
                    "time": 451.24927799999995,
                    "velocity": 0.25196850393700787,
                },
                {
                    "duration": 0.24739543750001758,
                    "durationTicks": 76,
                    "midi": 64,
                    "name": "E4",
                    "ticks": 138624,
                    "time": 451.24927799999995,
                    "velocity": 0.25196850393700787,
                },
                {
                    "duration": 0.8333319999999844,
                    "durationTicks": 256,
                    "midi": 64,
                    "name": "E4",
                    "ticks": 138752,
                    "time": 451.66594399999997,
                    "velocity": 0.25984251968503935,
                },
                {
                    "duration": 4.713257499999997,
                    "durationTicks": 1152,
                    "midi": 52,
                    "name": "E3",
                    "ticks": 140800,
                    "time": 458.33259999999996,
                    "velocity": 0.6535433070866141,
                },
                {
                    "duration": 4.713257499999997,
                    "durationTicks": 1152,
                    "midi": 64,
                    "name": "E4",
                    "ticks": 140800,
                    "time": 458.33259999999996,
                    "velocity": 0.6535433070866141,
                },
            ],
            "endOfTrackTicks": 141953,
        },
        {
            "channel": 5,
            "controlChanges": {
                "7": [
                    {"number": 7, "ticks": 0, "time": 0, "value": 0.5275590551181102}
                ],
                "10": [
                    {"number": 10, "ticks": 0, "time": 0, "value": 0.6377952755905512}
                ],
                "64": [{"number": 64, "ticks": 0, "time": 0, "value": 0}],
                "91": [
                    {"number": 91, "ticks": 0, "time": 0, "value": 0.4881889763779528}
                ],
                "121": [{"number": 121, "ticks": 0, "time": 0, "value": 0}],
            },
            "pitchBends": [],
            "instrument": {"family": "brass", "number": 56, "name": "trumpet"},
            "name": "2 Trumpets in D",
            "notes": [
                {
                    "duration": 0.8333319999999986,
                    "durationTicks": 256,
                    "midi": 57,
                    "name": "A3",
                    "ticks": 37888,
                    "time": 123.333136,
                    "velocity": 0.7952755905511811,
                },
                {
                    "duration": 0.8333319999999986,
                    "durationTicks": 256,
                    "midi": 69,
                    "name": "A4",
                    "ticks": 37888,
                    "time": 123.333136,
                    "velocity": 0.7952755905511811,
                },
                {
                    "duration": 0.8333319999999986,
                    "durationTicks": 256,
                    "midi": 76,
                    "name": "E5",
                    "ticks": 38400,
                    "time": 124.9998,
                    "velocity": 0.7716535433070866,
                },
                {
                    "duration": 0.8333319999999986,
                    "durationTicks": 256,
                    "midi": 76,
                    "name": "E5",
                    "ticks": 38912,
                    "time": 126.66646399999999,
                    "velocity": 0.8031496062992126,
                },
                {
                    "duration": 0.8333320000000128,
                    "durationTicks": 256,
                    "midi": 57,
                    "name": "A3",
                    "ticks": 39424,
                    "time": 128.333128,
                    "velocity": 0.7637795275590551,
                },
                {
                    "duration": 0.8333320000000128,
                    "durationTicks": 256,
                    "midi": 69,
                    "name": "A4",
                    "ticks": 39424,
                    "time": 128.333128,
                    "velocity": 0.7637795275590551,
                },
                {
                    "duration": 0.8333320000000128,
                    "durationTicks": 256,
                    "midi": 57,
                    "name": "A3",
                    "ticks": 39936,
                    "time": 129.99979199999999,
                    "velocity": 0.7874015748031497,
                },
                {
                    "duration": 0.8333320000000128,
                    "durationTicks": 256,
                    "midi": 69,
                    "name": "A4",
                    "ticks": 39936,
                    "time": 129.99979199999999,
                    "velocity": 0.7874015748031497,
                },
                {
                    "duration": 0.8333319999999844,
                    "durationTicks": 256,
                    "midi": 76,
                    "name": "E5",
                    "ticks": 40704,
                    "time": 132.499788,
                    "velocity": 0.8110236220472441,
                },
                {
                    "duration": 0.8333320000000128,
                    "durationTicks": 256,
                    "midi": 76,
                    "name": "E5",
                    "ticks": 41472,
                    "time": 134.99978399999998,
                    "velocity": 0.8661417322834646,
                },
                {
                    "duration": 0.8333319999999844,
                    "durationTicks": 256,
                    "midi": 76,
                    "name": "E5",
                    "ticks": 41984,
                    "time": 136.666448,
                    "velocity": 0.7874015748031497,
                },
                {
                    "duration": 0.8333319999999844,
                    "durationTicks": 256,
                    "midi": 76,
                    "name": "E5",
                    "ticks": 43008,
                    "time": 139.999776,
                    "velocity": 0.7795275590551181,
                },
                {
                    "duration": 0.8333319999999844,
                    "durationTicks": 256,
                    "midi": 57,
                    "name": "A3",
                    "ticks": 43520,
                    "time": 141.66644,
                    "velocity": 0.7559055118110236,
                },
                {
                    "duration": 0.8333319999999844,
                    "durationTicks": 256,
                    "midi": 69,
                    "name": "A4",
                    "ticks": 43520,
                    "time": 141.66644,
                    "velocity": 0.7559055118110236,
                },
                {
                    "duration": 0.8333319999999844,
                    "durationTicks": 256,
                    "midi": 57,
                    "name": "A3",
                    "ticks": 44032,
                    "time": 143.333104,
                    "velocity": 0.7952755905511811,
                },
                {
                    "duration": 0.8333319999999844,
                    "durationTicks": 256,
                    "midi": 69,
                    "name": "A4",
                    "ticks": 44032,
                    "time": 143.333104,
                    "velocity": 0.7952755905511811,
                },
                {
                    "duration": 0.8333320000000128,
                    "durationTicks": 256,
                    "midi": 76,
                    "name": "E5",
                    "ticks": 44544,
                    "time": 144.999768,
                    "velocity": 0.7874015748031497,
                },
                {
                    "duration": 0.8333319999999844,
                    "durationTicks": 256,
                    "midi": 57,
                    "name": "A3",
                    "ticks": 44800,
                    "time": 145.8331,
                    "velocity": 0.7086614173228346,
                },
                {
                    "duration": 0.8333319999999844,
                    "durationTicks": 256,
                    "midi": 69,
                    "name": "A4",
                    "ticks": 44800,
                    "time": 145.8331,
                    "velocity": 0.7086614173228346,
                },
                {
                    "duration": 0.8333320000000128,
                    "durationTicks": 256,
                    "midi": 76,
                    "name": "E5",
                    "ticks": 45056,
                    "time": 146.666432,
                    "velocity": 1,
                },
                {
                    "duration": 0.4166659999999922,
                    "durationTicks": 128,
                    "midi": 76,
                    "name": "E5",
                    "ticks": 45312,
                    "time": 147.499764,
                    "velocity": 0.8661417322834646,
                },
                {
                    "duration": 0.4166659999999922,
                    "durationTicks": 128,
                    "midi": 76,
                    "name": "E5",
                    "ticks": 45440,
                    "time": 147.91643,
                    "velocity": 0.8976377952755905,
                },
                {
                    "duration": 0.8333320000000128,
                    "durationTicks": 256,
                    "midi": 57,
                    "name": "A3",
                    "ticks": 45568,
                    "time": 148.33309599999998,
                    "velocity": 0.7401574803149606,
                },
                {
                    "duration": 0.8333320000000128,
                    "durationTicks": 256,
                    "midi": 69,
                    "name": "A4",
                    "ticks": 45568,
                    "time": 148.33309599999998,
                    "velocity": 0.7401574803149606,
                },
                {
                    "duration": 0.8333320000000128,
                    "durationTicks": 256,
                    "midi": 76,
                    "name": "E5",
                    "ticks": 46080,
                    "time": 149.99975999999998,
                    "velocity": 0.7165354330708661,
                },
                {
                    "duration": 0.8333320000000128,
                    "durationTicks": 256,
                    "midi": 76,
                    "name": "E5",
                    "ticks": 47104,
                    "time": 153.33308799999998,
                    "velocity": 0.7244094488188977,
                },
                {
                    "duration": 0.8333319999999844,
                    "durationTicks": 256,
                    "midi": 57,
                    "name": "A3",
                    "ticks": 47616,
                    "time": 154.999752,
                    "velocity": 0.5669291338582677,
                },
                {
                    "duration": 0.8333319999999844,
                    "durationTicks": 256,
                    "midi": 69,
                    "name": "A4",
                    "ticks": 47616,
                    "time": 154.999752,
                    "velocity": 0.5669291338582677,
                },
                {
                    "duration": 0.8333319999999844,
                    "durationTicks": 256,
                    "midi": 57,
                    "name": "A3",
                    "ticks": 48128,
                    "time": 156.666416,
                    "velocity": 0.4330708661417323,
                },
                {
                    "duration": 0.8333319999999844,
                    "durationTicks": 256,
                    "midi": 69,
                    "name": "A4",
                    "ticks": 48128,
                    "time": 156.666416,
                    "velocity": 0.4330708661417323,
                },
                {
                    "duration": 0.8333319999999844,
                    "durationTicks": 256,
                    "midi": 76,
                    "name": "E5",
                    "ticks": 48640,
                    "time": 158.33308,
                    "velocity": 0.33070866141732286,
                },
                {
                    "duration": 0.8333320000000128,
                    "durationTicks": 256,
                    "midi": 57,
                    "name": "A3",
                    "ticks": 48896,
                    "time": 159.16641199999998,
                    "velocity": 0.29133858267716534,
                },
                {
                    "duration": 0.8333320000000128,
                    "durationTicks": 256,
                    "midi": 69,
                    "name": "A4",
                    "ticks": 48896,
                    "time": 159.16641199999998,
                    "velocity": 0.29133858267716534,
                },
                {
                    "duration": 0.8333319999999844,
                    "durationTicks": 256,
                    "midi": 76,
                    "name": "E5",
                    "ticks": 49152,
                    "time": 159.999744,
                    "velocity": 0.4251968503937008,
                },
                {
                    "duration": 0.41666600000002063,
                    "durationTicks": 128,
                    "midi": 76,
                    "name": "E5",
                    "ticks": 49408,
                    "time": 160.83307599999998,
                    "velocity": 0.36220472440944884,
                },
                {
                    "duration": 0.4166659999999922,
                    "durationTicks": 128,
                    "midi": 76,
                    "name": "E5",
                    "ticks": 49536,
                    "time": 161.249742,
                    "velocity": 0.36220472440944884,
                },
                {
                    "duration": 0.8333319999999844,
                    "durationTicks": 256,
                    "midi": 57,
                    "name": "A3",
                    "ticks": 49664,
                    "time": 161.666408,
                    "velocity": 0.33858267716535434,
                },
                {
                    "duration": 0.8333319999999844,
                    "durationTicks": 256,
                    "midi": 69,
                    "name": "A4",
                    "ticks": 49664,
                    "time": 161.666408,
                    "velocity": 0.33858267716535434,
                },
                {
                    "duration": 7.4999879999999735,
                    "durationTicks": 2304,
                    "midi": 57,
                    "name": "A3",
                    "ticks": 56064,
                    "time": 182.499708,
                    "velocity": 0.36220472440944884,
                },
                {
                    "duration": 7.4999879999999735,
                    "durationTicks": 2304,
                    "midi": 69,
                    "name": "A4",
                    "ticks": 56064,
                    "time": 182.499708,
                    "velocity": 0.36220472440944884,
                },
                {
                    "duration": 0.8333319999999844,
                    "durationTicks": 256,
                    "midi": 79,
                    "name": "G5",
                    "ticks": 71168,
                    "time": 231.666296,
                    "velocity": 0.33070866141732286,
                },
                {
                    "duration": 0.8333320000000128,
                    "durationTicks": 256,
                    "midi": 79,
                    "name": "G5",
                    "ticks": 72192,
                    "time": 234.99962399999998,
                    "velocity": 0.2440944881889764,
                },
                {
                    "duration": 0.24739543749998916,
                    "durationTicks": 76,
                    "midi": 76,
                    "name": "E5",
                    "ticks": 75776,
                    "time": 246.666272,
                    "velocity": 0.7480314960629921,
                },
                {
                    "duration": 0.24739543749998916,
                    "durationTicks": 76,
                    "midi": 76,
                    "name": "E5",
                    "ticks": 75904,
                    "time": 247.08293799999998,
                    "velocity": 0.8818897637795275,
                },
                {
                    "duration": 0.8333319999999844,
                    "durationTicks": 256,
                    "midi": 57,
                    "name": "A3",
                    "ticks": 88576,
                    "time": 288.332872,
                    "velocity": 0.31496062992125984,
                },
                {
                    "duration": 0.8333319999999844,
                    "durationTicks": 256,
                    "midi": 69,
                    "name": "A4",
                    "ticks": 88576,
                    "time": 288.332872,
                    "velocity": 0.31496062992125984,
                },
                {
                    "duration": 0.41666600000002063,
                    "durationTicks": 128,
                    "midi": 57,
                    "name": "A3",
                    "ticks": 89344,
                    "time": 290.83286799999996,
                    "velocity": 0.3228346456692913,
                },
                {
                    "duration": 0.41666600000002063,
                    "durationTicks": 128,
                    "midi": 69,
                    "name": "A4",
                    "ticks": 89344,
                    "time": 290.83286799999996,
                    "velocity": 0.3228346456692913,
                },
                {
                    "duration": 0.41666600000002063,
                    "durationTicks": 128,
                    "midi": 57,
                    "name": "A3",
                    "ticks": 89472,
                    "time": 291.249534,
                    "velocity": 0.3700787401574803,
                },
                {
                    "duration": 0.41666600000002063,
                    "durationTicks": 128,
                    "midi": 69,
                    "name": "A4",
                    "ticks": 89472,
                    "time": 291.249534,
                    "velocity": 0.3700787401574803,
                },
                {
                    "duration": 0.8333319999999844,
                    "durationTicks": 256,
                    "midi": 57,
                    "name": "A3",
                    "ticks": 89600,
                    "time": 291.6662,
                    "velocity": 0.3779527559055118,
                },
                {
                    "duration": 0.8333319999999844,
                    "durationTicks": 256,
                    "midi": 69,
                    "name": "A4",
                    "ticks": 89600,
                    "time": 291.6662,
                    "velocity": 0.3779527559055118,
                },
                {
                    "duration": 0.41666600000002063,
                    "durationTicks": 128,
                    "midi": 57,
                    "name": "A3",
                    "ticks": 90368,
                    "time": 294.16619599999996,
                    "velocity": 0.3228346456692913,
                },
                {
                    "duration": 0.41666600000002063,
                    "durationTicks": 128,
                    "midi": 69,
                    "name": "A4",
                    "ticks": 90368,
                    "time": 294.16619599999996,
                    "velocity": 0.3228346456692913,
                },
                {
                    "duration": 0.41666600000002063,
                    "durationTicks": 128,
                    "midi": 57,
                    "name": "A3",
                    "ticks": 90496,
                    "time": 294.582862,
                    "velocity": 0.3779527559055118,
                },
                {
                    "duration": 0.41666600000002063,
                    "durationTicks": 128,
                    "midi": 69,
                    "name": "A4",
                    "ticks": 90496,
                    "time": 294.582862,
                    "velocity": 0.3779527559055118,
                },
                {
                    "duration": 0.4166659999999638,
                    "durationTicks": 128,
                    "midi": 57,
                    "name": "A3",
                    "ticks": 90624,
                    "time": 294.999528,
                    "velocity": 0.4251968503937008,
                },
                {
                    "duration": 0.4166659999999638,
                    "durationTicks": 128,
                    "midi": 69,
                    "name": "A4",
                    "ticks": 90624,
                    "time": 294.999528,
                    "velocity": 0.4251968503937008,
                },
                {
                    "duration": 0.41666600000002063,
                    "durationTicks": 128,
                    "midi": 57,
                    "name": "A3",
                    "ticks": 90880,
                    "time": 295.83286,
                    "velocity": 0.3543307086614173,
                },
                {
                    "duration": 0.41666600000002063,
                    "durationTicks": 128,
                    "midi": 69,
                    "name": "A4",
                    "ticks": 90880,
                    "time": 295.83286,
                    "velocity": 0.3543307086614173,
                },
                {
                    "duration": 0.4166659999999638,
                    "durationTicks": 128,
                    "midi": 57,
                    "name": "A3",
                    "ticks": 91008,
                    "time": 296.249526,
                    "velocity": 0.44881889763779526,
                },
                {
                    "duration": 0.4166659999999638,
                    "durationTicks": 128,
                    "midi": 69,
                    "name": "A4",
                    "ticks": 91008,
                    "time": 296.249526,
                    "velocity": 0.44881889763779526,
                },
                {
                    "duration": 0.41666600000002063,
                    "durationTicks": 128,
                    "midi": 57,
                    "name": "A3",
                    "ticks": 91136,
                    "time": 296.66619199999997,
                    "velocity": 0.48031496062992124,
                },
                {
                    "duration": 0.41666600000002063,
                    "durationTicks": 128,
                    "midi": 69,
                    "name": "A4",
                    "ticks": 91136,
                    "time": 296.66619199999997,
                    "velocity": 0.48031496062992124,
                },
                {
                    "duration": 0.4166659999999638,
                    "durationTicks": 128,
                    "midi": 57,
                    "name": "A3",
                    "ticks": 91392,
                    "time": 297.499524,
                    "velocity": 0.4566929133858268,
                },
                {
                    "duration": 0.4166659999999638,
                    "durationTicks": 128,
                    "midi": 69,
                    "name": "A4",
                    "ticks": 91392,
                    "time": 297.499524,
                    "velocity": 0.4566929133858268,
                },
                {
                    "duration": 0.41666600000002063,
                    "durationTicks": 128,
                    "midi": 57,
                    "name": "A3",
                    "ticks": 91520,
                    "time": 297.91619,
                    "velocity": 0.5275590551181102,
                },
                {
                    "duration": 0.41666600000002063,
                    "durationTicks": 128,
                    "midi": 69,
                    "name": "A4",
                    "ticks": 91520,
                    "time": 297.91619,
                    "velocity": 0.5275590551181102,
                },
                {
                    "duration": 0.4166659999999638,
                    "durationTicks": 128,
                    "midi": 57,
                    "name": "A3",
                    "ticks": 91648,
                    "time": 298.332856,
                    "velocity": 0.5511811023622047,
                },
                {
                    "duration": 0.4166659999999638,
                    "durationTicks": 128,
                    "midi": 69,
                    "name": "A4",
                    "ticks": 91648,
                    "time": 298.332856,
                    "velocity": 0.5511811023622047,
                },
                {
                    "duration": 0.41666600000002063,
                    "durationTicks": 128,
                    "midi": 57,
                    "name": "A3",
                    "ticks": 91904,
                    "time": 299.166188,
                    "velocity": 0.5196850393700787,
                },
                {
                    "duration": 0.41666600000002063,
                    "durationTicks": 128,
                    "midi": 69,
                    "name": "A4",
                    "ticks": 91904,
                    "time": 299.166188,
                    "velocity": 0.5196850393700787,
                },
                {
                    "duration": 0.4166659999999638,
                    "durationTicks": 128,
                    "midi": 57,
                    "name": "A3",
                    "ticks": 92032,
                    "time": 299.582854,
                    "velocity": 0.6377952755905512,
                },
                {
                    "duration": 0.4166659999999638,
                    "durationTicks": 128,
                    "midi": 69,
                    "name": "A4",
                    "ticks": 92032,
                    "time": 299.582854,
                    "velocity": 0.6377952755905512,
                },
                {
                    "duration": 0.41666600000002063,
                    "durationTicks": 128,
                    "midi": 57,
                    "name": "A3",
                    "ticks": 92160,
                    "time": 299.99951999999996,
                    "velocity": 0.5826771653543307,
                },
                {
                    "duration": 0.41666600000002063,
                    "durationTicks": 128,
                    "midi": 69,
                    "name": "A4",
                    "ticks": 92160,
                    "time": 299.99951999999996,
                    "velocity": 0.5826771653543307,
                },
                {
                    "duration": 0.41666600000002063,
                    "durationTicks": 128,
                    "midi": 57,
                    "name": "A3",
                    "ticks": 92288,
                    "time": 300.416186,
                    "velocity": 0.5669291338582677,
                },
                {
                    "duration": 0.41666600000002063,
                    "durationTicks": 128,
                    "midi": 69,
                    "name": "A4",
                    "ticks": 92288,
                    "time": 300.416186,
                    "velocity": 0.5669291338582677,
                },
                {
                    "duration": 0.41666600000002063,
                    "durationTicks": 128,
                    "midi": 57,
                    "name": "A3",
                    "ticks": 92672,
                    "time": 301.666184,
                    "velocity": 0.41732283464566927,
                },
                {
                    "duration": 0.41666600000002063,
                    "durationTicks": 128,
                    "midi": 69,
                    "name": "A4",
                    "ticks": 92672,
                    "time": 301.666184,
                    "velocity": 0.41732283464566927,
                },
                {
                    "duration": 0.4166659999999638,
                    "durationTicks": 128,
                    "midi": 57,
                    "name": "A3",
                    "ticks": 92800,
                    "time": 302.08285,
                    "velocity": 0.3858267716535433,
                },
                {
                    "duration": 0.4166659999999638,
                    "durationTicks": 128,
                    "midi": 69,
                    "name": "A4",
                    "ticks": 92800,
                    "time": 302.08285,
                    "velocity": 0.3858267716535433,
                },
                {
                    "duration": 0.41666600000002063,
                    "durationTicks": 128,
                    "midi": 57,
                    "name": "A3",
                    "ticks": 93184,
                    "time": 303.33284799999996,
                    "velocity": 0.2125984251968504,
                },
                {
                    "duration": 0.41666600000002063,
                    "durationTicks": 128,
                    "midi": 69,
                    "name": "A4",
                    "ticks": 93184,
                    "time": 303.33284799999996,
                    "velocity": 0.2125984251968504,
                },
                {
                    "duration": 0.41666600000002063,
                    "durationTicks": 128,
                    "midi": 57,
                    "name": "A3",
                    "ticks": 93312,
                    "time": 303.749514,
                    "velocity": 0.25984251968503935,
                },
                {
                    "duration": 0.41666600000002063,
                    "durationTicks": 128,
                    "midi": 69,
                    "name": "A4",
                    "ticks": 93312,
                    "time": 303.749514,
                    "velocity": 0.25984251968503935,
                },
                {
                    "duration": 1.249998000000005,
                    "durationTicks": 384,
                    "midi": 76,
                    "name": "E5",
                    "ticks": 108672,
                    "time": 353.74943399999995,
                    "velocity": 0.2677165354330709,
                },
                {
                    "duration": 0.8333320000000413,
                    "durationTicks": 256,
                    "midi": 76,
                    "name": "E5",
                    "ticks": 109056,
                    "time": 354.99943199999996,
                    "velocity": 0.8346456692913385,
                },
                {
                    "duration": 0.24739543749996074,
                    "durationTicks": 76,
                    "midi": 76,
                    "name": "E5",
                    "ticks": 109312,
                    "time": 355.832764,
                    "velocity": 0.889763779527559,
                },
                {
                    "duration": 0.24739543750001758,
                    "durationTicks": 76,
                    "midi": 76,
                    "name": "E5",
                    "ticks": 109440,
                    "time": 356.24942999999996,
                    "velocity": 0.8976377952755905,
                },
                {
                    "duration": 0.49804607812501445,
                    "durationTicks": 153,
                    "midi": 76,
                    "name": "E5",
                    "ticks": 109568,
                    "time": 356.666096,
                    "velocity": 0.8818897637795275,
                },
                {
                    "duration": 0.4720044531250096,
                    "durationTicks": 145,
                    "midi": 76,
                    "name": "E5",
                    "ticks": 109824,
                    "time": 357.49942799999997,
                    "velocity": 0.8582677165354331,
                },
                {
                    "duration": 0.8333320000000413,
                    "durationTicks": 256,
                    "midi": 76,
                    "name": "E5",
                    "ticks": 110080,
                    "time": 358.33275999999995,
                    "velocity": 0.905511811023622,
                },
                {
                    "duration": 0.24739543749996074,
                    "durationTicks": 76,
                    "midi": 76,
                    "name": "E5",
                    "ticks": 110336,
                    "time": 359.166092,
                    "velocity": 0.8976377952755905,
                },
                {
                    "duration": 0.24739543750001758,
                    "durationTicks": 76,
                    "midi": 76,
                    "name": "E5",
                    "ticks": 110464,
                    "time": 359.58275799999996,
                    "velocity": 0.8503937007874016,
                },
                {
                    "duration": 0.49804607812501445,
                    "durationTicks": 153,
                    "midi": 76,
                    "name": "E5",
                    "ticks": 110592,
                    "time": 359.999424,
                    "velocity": 0.8976377952755905,
                },
                {
                    "duration": 0.4720044531250096,
                    "durationTicks": 145,
                    "midi": 76,
                    "name": "E5",
                    "ticks": 110848,
                    "time": 360.83275599999996,
                    "velocity": 0.905511811023622,
                },
                {
                    "duration": 0.8333319999999844,
                    "durationTicks": 256,
                    "midi": 76,
                    "name": "E5",
                    "ticks": 111104,
                    "time": 361.666088,
                    "velocity": 0.8976377952755905,
                },
                {
                    "duration": 0.24739543750001758,
                    "durationTicks": 76,
                    "midi": 76,
                    "name": "E5",
                    "ticks": 111360,
                    "time": 362.49942,
                    "velocity": 0.8661417322834646,
                },
                {
                    "duration": 0.24739543750001758,
                    "durationTicks": 76,
                    "midi": 76,
                    "name": "E5",
                    "ticks": 111488,
                    "time": 362.91608599999995,
                    "velocity": 0.8661417322834646,
                },
                {
                    "duration": 0.49804607812501445,
                    "durationTicks": 153,
                    "midi": 76,
                    "name": "E5",
                    "ticks": 111616,
                    "time": 363.33275199999997,
                    "velocity": 0.8976377952755905,
                },
                {
                    "duration": 0.4720044531250096,
                    "durationTicks": 145,
                    "midi": 76,
                    "name": "E5",
                    "ticks": 111872,
                    "time": 364.16608399999996,
                    "velocity": 0.8818897637795275,
                },
                {
                    "duration": 0.8333319999999844,
                    "durationTicks": 256,
                    "midi": 76,
                    "name": "E5",
                    "ticks": 112128,
                    "time": 364.999416,
                    "velocity": 0.905511811023622,
                },
                {
                    "duration": 0.24739543750001758,
                    "durationTicks": 76,
                    "midi": 76,
                    "name": "E5",
                    "ticks": 112384,
                    "time": 365.832748,
                    "velocity": 0.8267716535433071,
                },
                {
                    "duration": 0.24739543749996074,
                    "durationTicks": 76,
                    "midi": 76,
                    "name": "E5",
                    "ticks": 112512,
                    "time": 366.249414,
                    "velocity": 0.889763779527559,
                },
                {
                    "duration": 0.8333319999999844,
                    "durationTicks": 256,
                    "midi": 57,
                    "name": "A3",
                    "ticks": 112640,
                    "time": 366.66607999999997,
                    "velocity": 0.7165354330708661,
                },
                {
                    "duration": 0.8333319999999844,
                    "durationTicks": 256,
                    "midi": 69,
                    "name": "A4",
                    "ticks": 112640,
                    "time": 366.66607999999997,
                    "velocity": 0.7165354330708661,
                },
                {
                    "duration": 7.49998800000003,
                    "durationTicks": 2304,
                    "midi": 57,
                    "name": "A3",
                    "ticks": 119040,
                    "time": 387.49938,
                    "velocity": 0.36220472440944884,
                },
                {
                    "duration": 7.49998800000003,
                    "durationTicks": 2304,
                    "midi": 69,
                    "name": "A4",
                    "ticks": 119040,
                    "time": 387.49938,
                    "velocity": 0.36220472440944884,
                },
                {
                    "duration": 0.8333319999999844,
                    "durationTicks": 256,
                    "midi": 57,
                    "name": "A3",
                    "ticks": 124416,
                    "time": 404.999352,
                    "velocity": 0.28346456692913385,
                },
                {
                    "duration": 0.8333319999999844,
                    "durationTicks": 256,
                    "midi": 69,
                    "name": "A4",
                    "ticks": 124416,
                    "time": 404.999352,
                    "velocity": 0.28346456692913385,
                },
                {
                    "duration": 0.24739543750001758,
                    "durationTicks": 76,
                    "midi": 57,
                    "name": "A3",
                    "ticks": 124672,
                    "time": 405.832684,
                    "velocity": 0.2677165354330709,
                },
                {
                    "duration": 0.24739543750001758,
                    "durationTicks": 76,
                    "midi": 69,
                    "name": "A4",
                    "ticks": 124672,
                    "time": 405.832684,
                    "velocity": 0.2677165354330709,
                },
                {
                    "duration": 0.23437462499998674,
                    "durationTicks": 72,
                    "midi": 57,
                    "name": "A3",
                    "ticks": 124800,
                    "time": 406.24935,
                    "velocity": 0.29133858267716534,
                },
                {
                    "duration": 0.23437462499998674,
                    "durationTicks": 72,
                    "midi": 69,
                    "name": "A4",
                    "ticks": 124800,
                    "time": 406.24935,
                    "velocity": 0.29133858267716534,
                },
                {
                    "duration": 0.8333320000000413,
                    "durationTicks": 256,
                    "midi": 57,
                    "name": "A3",
                    "ticks": 124928,
                    "time": 406.66601599999996,
                    "velocity": 0.2677165354330709,
                },
                {
                    "duration": 0.8333320000000413,
                    "durationTicks": 256,
                    "midi": 69,
                    "name": "A4",
                    "ticks": 124928,
                    "time": 406.66601599999996,
                    "velocity": 0.2677165354330709,
                },
                {
                    "duration": 0.8333319999999844,
                    "durationTicks": 256,
                    "midi": 57,
                    "name": "A3",
                    "ticks": 125440,
                    "time": 408.33268,
                    "velocity": 0.25196850393700787,
                },
                {
                    "duration": 0.8333319999999844,
                    "durationTicks": 256,
                    "midi": 69,
                    "name": "A4",
                    "ticks": 125440,
                    "time": 408.33268,
                    "velocity": 0.25196850393700787,
                },
                {
                    "duration": 0.24739543750001758,
                    "durationTicks": 76,
                    "midi": 57,
                    "name": "A3",
                    "ticks": 125696,
                    "time": 409.16601199999997,
                    "velocity": 0.29133858267716534,
                },
                {
                    "duration": 0.24739543750001758,
                    "durationTicks": 76,
                    "midi": 69,
                    "name": "A4",
                    "ticks": 125696,
                    "time": 409.16601199999997,
                    "velocity": 0.29133858267716534,
                },
                {
                    "duration": 0.23437462499998674,
                    "durationTicks": 72,
                    "midi": 57,
                    "name": "A3",
                    "ticks": 125824,
                    "time": 409.582678,
                    "velocity": 0.28346456692913385,
                },
                {
                    "duration": 0.23437462499998674,
                    "durationTicks": 72,
                    "midi": 69,
                    "name": "A4",
                    "ticks": 125824,
                    "time": 409.582678,
                    "velocity": 0.28346456692913385,
                },
                {
                    "duration": 0.41666600000002063,
                    "durationTicks": 128,
                    "midi": 76,
                    "name": "E5",
                    "ticks": 126464,
                    "time": 411.666008,
                    "velocity": 0.9133858267716536,
                },
                {
                    "duration": 0.41666600000002063,
                    "durationTicks": 128,
                    "midi": 76,
                    "name": "E5",
                    "ticks": 128512,
                    "time": 418.33266399999997,
                    "velocity": 0.6850393700787402,
                },
            ],
            "endOfTrackTicks": 128641,
        },
        {
            "channel": 6,
            "controlChanges": {
                "7": [
                    {"number": 7, "ticks": 0, "time": 0, "value": 0.7874015748031497}
                ],
                "10": [
                    {"number": 10, "ticks": 0, "time": 0, "value": 0.31496062992125984}
                ],
                "64": [{"number": 64, "ticks": 0, "time": 0, "value": 0}],
                "91": [
                    {"number": 91, "ticks": 0, "time": 0, "value": 0.5669291338582677}
                ],
                "121": [{"number": 121, "ticks": 0, "time": 0, "value": 0}],
            },
            "pitchBends": [],
            "instrument": {"family": "strings", "number": 47, "name": "timpani"},
            "name": "Timpani in A-E",
            "notes": [
                {
                    "duration": 0.8333319999999986,
                    "durationTicks": 256,
                    "midi": 45,
                    "name": "A2",
                    "ticks": 37888,
                    "time": 123.333136,
                    "velocity": 0.7480314960629921,
                },
                {
                    "duration": 0.8333319999999986,
                    "durationTicks": 256,
                    "midi": 52,
                    "name": "E3",
                    "ticks": 38400,
                    "time": 124.9998,
                    "velocity": 0.7795275590551181,
                },
                {
                    "duration": 0.8333319999999986,
                    "durationTicks": 256,
                    "midi": 52,
                    "name": "E3",
                    "ticks": 38912,
                    "time": 126.66646399999999,
                    "velocity": 0.8031496062992126,
                },
                {
                    "duration": 0.8333320000000128,
                    "durationTicks": 256,
                    "midi": 45,
                    "name": "A2",
                    "ticks": 39424,
                    "time": 128.333128,
                    "velocity": 0.7795275590551181,
                },
                {
                    "duration": 0.8333320000000128,
                    "durationTicks": 256,
                    "midi": 45,
                    "name": "A2",
                    "ticks": 39936,
                    "time": 129.99979199999999,
                    "velocity": 0.8031496062992126,
                },
                {
                    "duration": 0.8333319999999844,
                    "durationTicks": 256,
                    "midi": 52,
                    "name": "E3",
                    "ticks": 40704,
                    "time": 132.499788,
                    "velocity": 0.8031496062992126,
                },
                {
                    "duration": 0.8333320000000128,
                    "durationTicks": 256,
                    "midi": 52,
                    "name": "E3",
                    "ticks": 41472,
                    "time": 134.99978399999998,
                    "velocity": 0.8661417322834646,
                },
                {
                    "duration": 0.8333319999999844,
                    "durationTicks": 256,
                    "midi": 52,
                    "name": "E3",
                    "ticks": 41984,
                    "time": 136.666448,
                    "velocity": 0.7874015748031497,
                },
                {
                    "duration": 0.8333319999999844,
                    "durationTicks": 256,
                    "midi": 52,
                    "name": "E3",
                    "ticks": 43008,
                    "time": 139.999776,
                    "velocity": 0.7716535433070866,
                },
                {
                    "duration": 0.8333319999999844,
                    "durationTicks": 256,
                    "midi": 45,
                    "name": "A2",
                    "ticks": 43520,
                    "time": 141.66644,
                    "velocity": 0.7795275590551181,
                },
                {
                    "duration": 0.8333319999999844,
                    "durationTicks": 256,
                    "midi": 45,
                    "name": "A2",
                    "ticks": 44032,
                    "time": 143.333104,
                    "velocity": 0.7637795275590551,
                },
                {
                    "duration": 0.8333320000000128,
                    "durationTicks": 256,
                    "midi": 52,
                    "name": "E3",
                    "ticks": 44544,
                    "time": 144.999768,
                    "velocity": 0.7716535433070866,
                },
                {
                    "duration": 0.8333319999999844,
                    "durationTicks": 256,
                    "midi": 45,
                    "name": "A2",
                    "ticks": 44800,
                    "time": 145.8331,
                    "velocity": 0.8110236220472441,
                },
                {
                    "duration": 0.8333320000000128,
                    "durationTicks": 256,
                    "midi": 52,
                    "name": "E3",
                    "ticks": 45056,
                    "time": 146.666432,
                    "velocity": 0.937007874015748,
                },
                {
                    "duration": 0.4166659999999922,
                    "durationTicks": 128,
                    "midi": 52,
                    "name": "E3",
                    "ticks": 45312,
                    "time": 147.499764,
                    "velocity": 0.905511811023622,
                },
                {
                    "duration": 0.4166659999999922,
                    "durationTicks": 128,
                    "midi": 52,
                    "name": "E3",
                    "ticks": 45440,
                    "time": 147.91643,
                    "velocity": 0.8582677165354331,
                },
                {
                    "duration": 0.8333320000000128,
                    "durationTicks": 256,
                    "midi": 45,
                    "name": "A2",
                    "ticks": 45568,
                    "time": 148.33309599999998,
                    "velocity": 0.8031496062992126,
                },
                {
                    "duration": 0.8333320000000128,
                    "durationTicks": 256,
                    "midi": 52,
                    "name": "E3",
                    "ticks": 46080,
                    "time": 149.99975999999998,
                    "velocity": 0.6771653543307087,
                },
                {
                    "duration": 0.8333320000000128,
                    "durationTicks": 256,
                    "midi": 52,
                    "name": "E3",
                    "ticks": 47104,
                    "time": 153.33308799999998,
                    "velocity": 0.6929133858267716,
                },
                {
                    "duration": 0.8333319999999844,
                    "durationTicks": 256,
                    "midi": 45,
                    "name": "A2",
                    "ticks": 47616,
                    "time": 154.999752,
                    "velocity": 0.5669291338582677,
                },
                {
                    "duration": 0.8333319999999844,
                    "durationTicks": 256,
                    "midi": 45,
                    "name": "A2",
                    "ticks": 48128,
                    "time": 156.666416,
                    "velocity": 0.4015748031496063,
                },
                {
                    "duration": 0.8333319999999844,
                    "durationTicks": 256,
                    "midi": 52,
                    "name": "E3",
                    "ticks": 48640,
                    "time": 158.33308,
                    "velocity": 0.30708661417322836,
                },
                {
                    "duration": 0.8333320000000128,
                    "durationTicks": 256,
                    "midi": 45,
                    "name": "A2",
                    "ticks": 48896,
                    "time": 159.16641199999998,
                    "velocity": 0.33070866141732286,
                },
                {
                    "duration": 0.8333319999999844,
                    "durationTicks": 256,
                    "midi": 52,
                    "name": "E3",
                    "ticks": 49152,
                    "time": 159.999744,
                    "velocity": 0.41732283464566927,
                },
                {
                    "duration": 0.41666600000002063,
                    "durationTicks": 128,
                    "midi": 52,
                    "name": "E3",
                    "ticks": 49408,
                    "time": 160.83307599999998,
                    "velocity": 0.4251968503937008,
                },
                {
                    "duration": 0.4166659999999922,
                    "durationTicks": 128,
                    "midi": 52,
                    "name": "E3",
                    "ticks": 49536,
                    "time": 161.249742,
                    "velocity": 0.3779527559055118,
                },
                {
                    "duration": 0.8333319999999844,
                    "durationTicks": 256,
                    "midi": 45,
                    "name": "A2",
                    "ticks": 49664,
                    "time": 161.666408,
                    "velocity": 0.33070866141732286,
                },
                {
                    "duration": 0.8333319999999844,
                    "durationTicks": 256,
                    "midi": 52,
                    "name": "E3",
                    "ticks": 71168,
                    "time": 231.666296,
                    "velocity": 0.2677165354330709,
                },
                {
                    "duration": 0.8333320000000128,
                    "durationTicks": 256,
                    "midi": 52,
                    "name": "E3",
                    "ticks": 72192,
                    "time": 234.99962399999998,
                    "velocity": 0.25196850393700787,
                },
                {
                    "duration": 0.24739543749998916,
                    "durationTicks": 76,
                    "midi": 52,
                    "name": "E3",
                    "ticks": 75776,
                    "time": 246.666272,
                    "velocity": 0.8031496062992126,
                },
                {
                    "duration": 0.24739543749998916,
                    "durationTicks": 76,
                    "midi": 52,
                    "name": "E3",
                    "ticks": 75904,
                    "time": 247.08293799999998,
                    "velocity": 0.8661417322834646,
                },
                {
                    "duration": 0.8333319999999844,
                    "durationTicks": 256,
                    "midi": 45,
                    "name": "A2",
                    "ticks": 88576,
                    "time": 288.332872,
                    "velocity": 0.30708661417322836,
                },
                {
                    "duration": 0.41666600000002063,
                    "durationTicks": 128,
                    "midi": 45,
                    "name": "A2",
                    "ticks": 89344,
                    "time": 290.83286799999996,
                    "velocity": 0.33858267716535434,
                },
                {
                    "duration": 0.41666600000002063,
                    "durationTicks": 128,
                    "midi": 45,
                    "name": "A2",
                    "ticks": 89472,
                    "time": 291.249534,
                    "velocity": 0.3543307086614173,
                },
                {
                    "duration": 0.8333319999999844,
                    "durationTicks": 256,
                    "midi": 45,
                    "name": "A2",
                    "ticks": 89600,
                    "time": 291.6662,
                    "velocity": 0.3543307086614173,
                },
                {
                    "duration": 0.41666600000002063,
                    "durationTicks": 128,
                    "midi": 45,
                    "name": "A2",
                    "ticks": 90368,
                    "time": 294.16619599999996,
                    "velocity": 0.3464566929133858,
                },
                {
                    "duration": 0.41666600000002063,
                    "durationTicks": 128,
                    "midi": 45,
                    "name": "A2",
                    "ticks": 90496,
                    "time": 294.582862,
                    "velocity": 0.3779527559055118,
                },
                {
                    "duration": 0.4166659999999638,
                    "durationTicks": 128,
                    "midi": 45,
                    "name": "A2",
                    "ticks": 90624,
                    "time": 294.999528,
                    "velocity": 0.41732283464566927,
                },
                {
                    "duration": 0.41666600000002063,
                    "durationTicks": 128,
                    "midi": 45,
                    "name": "A2",
                    "ticks": 90880,
                    "time": 295.83286,
                    "velocity": 0.3700787401574803,
                },
                {
                    "duration": 0.4166659999999638,
                    "durationTicks": 128,
                    "midi": 45,
                    "name": "A2",
                    "ticks": 91008,
                    "time": 296.249526,
                    "velocity": 0.47244094488188976,
                },
                {
                    "duration": 0.41666600000002063,
                    "durationTicks": 128,
                    "midi": 45,
                    "name": "A2",
                    "ticks": 91136,
                    "time": 296.66619199999997,
                    "velocity": 0.5039370078740157,
                },
                {
                    "duration": 0.4166659999999638,
                    "durationTicks": 128,
                    "midi": 45,
                    "name": "A2",
                    "ticks": 91392,
                    "time": 297.499524,
                    "velocity": 0.48031496062992124,
                },
                {
                    "duration": 0.41666600000002063,
                    "durationTicks": 128,
                    "midi": 45,
                    "name": "A2",
                    "ticks": 91520,
                    "time": 297.91619,
                    "velocity": 0.49606299212598426,
                },
                {
                    "duration": 0.4166659999999638,
                    "durationTicks": 128,
                    "midi": 45,
                    "name": "A2",
                    "ticks": 91648,
                    "time": 298.332856,
                    "velocity": 0.5511811023622047,
                },
                {
                    "duration": 0.41666600000002063,
                    "durationTicks": 128,
                    "midi": 45,
                    "name": "A2",
                    "ticks": 91904,
                    "time": 299.166188,
                    "velocity": 0.5275590551181102,
                },
                {
                    "duration": 0.4166659999999638,
                    "durationTicks": 128,
                    "midi": 45,
                    "name": "A2",
                    "ticks": 92032,
                    "time": 299.582854,
                    "velocity": 0.6141732283464567,
                },
                {
                    "duration": 0.41666600000002063,
                    "durationTicks": 128,
                    "midi": 45,
                    "name": "A2",
                    "ticks": 92160,
                    "time": 299.99951999999996,
                    "velocity": 0.5511811023622047,
                },
                {
                    "duration": 0.41666600000002063,
                    "durationTicks": 128,
                    "midi": 45,
                    "name": "A2",
                    "ticks": 92288,
                    "time": 300.416186,
                    "velocity": 0.5826771653543307,
                },
                {
                    "duration": 0.41666600000002063,
                    "durationTicks": 128,
                    "midi": 45,
                    "name": "A2",
                    "ticks": 92672,
                    "time": 301.666184,
                    "velocity": 0.4251968503937008,
                },
                {
                    "duration": 0.4166659999999638,
                    "durationTicks": 128,
                    "midi": 45,
                    "name": "A2",
                    "ticks": 92800,
                    "time": 302.08285,
                    "velocity": 0.48031496062992124,
                },
                {
                    "duration": 0.41666600000002063,
                    "durationTicks": 128,
                    "midi": 45,
                    "name": "A2",
                    "ticks": 93184,
                    "time": 303.33284799999996,
                    "velocity": 0.2283464566929134,
                },
                {
                    "duration": 0.41666600000002063,
                    "durationTicks": 128,
                    "midi": 45,
                    "name": "A2",
                    "ticks": 93312,
                    "time": 303.749514,
                    "velocity": 0.28346456692913385,
                },
                {
                    "duration": 0.20833300000003874,
                    "durationTicks": 64,
                    "midi": 52,
                    "name": "E3",
                    "ticks": 108672,
                    "time": 353.74943399999995,
                    "velocity": 0.2755905511811024,
                },
                {
                    "duration": 0.2083329999999819,
                    "durationTicks": 64,
                    "midi": 52,
                    "name": "E3",
                    "ticks": 108736,
                    "time": 353.957767,
                    "velocity": 0.30708661417322836,
                },
                {
                    "duration": 0.2083329999999819,
                    "durationTicks": 64,
                    "midi": 52,
                    "name": "E3",
                    "ticks": 108800,
                    "time": 354.1661,
                    "velocity": 0.28346456692913385,
                },
                {
                    "duration": 0.20833300000003874,
                    "durationTicks": 64,
                    "midi": 52,
                    "name": "E3",
                    "ticks": 108864,
                    "time": 354.37443299999995,
                    "velocity": 0.31496062992125984,
                },
                {
                    "duration": 0.2083329999999819,
                    "durationTicks": 64,
                    "midi": 52,
                    "name": "E3",
                    "ticks": 108928,
                    "time": 354.582766,
                    "velocity": 0.33070866141732286,
                },
                {
                    "duration": 0.2083329999999819,
                    "durationTicks": 64,
                    "midi": 52,
                    "name": "E3",
                    "ticks": 108992,
                    "time": 354.791099,
                    "velocity": 0.30708661417322836,
                },
                {
                    "duration": 0.8333320000000413,
                    "durationTicks": 256,
                    "midi": 52,
                    "name": "E3",
                    "ticks": 109056,
                    "time": 354.99943199999996,
                    "velocity": 0.8740157480314961,
                },
                {
                    "duration": 0.24739543749996074,
                    "durationTicks": 76,
                    "midi": 52,
                    "name": "E3",
                    "ticks": 109312,
                    "time": 355.832764,
                    "velocity": 0.8582677165354331,
                },
                {
                    "duration": 0.24739543750001758,
                    "durationTicks": 76,
                    "midi": 52,
                    "name": "E3",
                    "ticks": 109440,
                    "time": 356.24942999999996,
                    "velocity": 0.8661417322834646,
                },
                {
                    "duration": 0.8333319999999844,
                    "durationTicks": 256,
                    "midi": 52,
                    "name": "E3",
                    "ticks": 109568,
                    "time": 356.666096,
                    "velocity": 0.8661417322834646,
                },
                {
                    "duration": 0.8333319999999844,
                    "durationTicks": 256,
                    "midi": 52,
                    "name": "E3",
                    "ticks": 109824,
                    "time": 357.49942799999997,
                    "velocity": 0.889763779527559,
                },
                {
                    "duration": 0.8333320000000413,
                    "durationTicks": 256,
                    "midi": 52,
                    "name": "E3",
                    "ticks": 110080,
                    "time": 358.33275999999995,
                    "velocity": 0.9133858267716536,
                },
                {
                    "duration": 0.24739543749996074,
                    "durationTicks": 76,
                    "midi": 52,
                    "name": "E3",
                    "ticks": 110336,
                    "time": 359.166092,
                    "velocity": 0.8661417322834646,
                },
                {
                    "duration": 0.24739543750001758,
                    "durationTicks": 76,
                    "midi": 52,
                    "name": "E3",
                    "ticks": 110464,
                    "time": 359.58275799999996,
                    "velocity": 0.8582677165354331,
                },
                {
                    "duration": 0.49804607812501445,
                    "durationTicks": 153,
                    "midi": 52,
                    "name": "E3",
                    "ticks": 110592,
                    "time": 359.999424,
                    "velocity": 0.8503937007874016,
                },
                {
                    "duration": 0.49804607812501445,
                    "durationTicks": 153,
                    "midi": 52,
                    "name": "E3",
                    "ticks": 110848,
                    "time": 360.83275599999996,
                    "velocity": 0.889763779527559,
                },
                {
                    "duration": 0.8333319999999844,
                    "durationTicks": 256,
                    "midi": 52,
                    "name": "E3",
                    "ticks": 111104,
                    "time": 361.666088,
                    "velocity": 0.8661417322834646,
                },
                {
                    "duration": 0.24739543750001758,
                    "durationTicks": 76,
                    "midi": 52,
                    "name": "E3",
                    "ticks": 111360,
                    "time": 362.49942,
                    "velocity": 0.9133858267716536,
                },
                {
                    "duration": 0.24739543750001758,
                    "durationTicks": 76,
                    "midi": 52,
                    "name": "E3",
                    "ticks": 111488,
                    "time": 362.91608599999995,
                    "velocity": 0.905511811023622,
                },
                {
                    "duration": 0.49804607812501445,
                    "durationTicks": 153,
                    "midi": 52,
                    "name": "E3",
                    "ticks": 111616,
                    "time": 363.33275199999997,
                    "velocity": 0.8818897637795275,
                },
                {
                    "duration": 0.49804607812501445,
                    "durationTicks": 153,
                    "midi": 52,
                    "name": "E3",
                    "ticks": 111872,
                    "time": 364.16608399999996,
                    "velocity": 0.8976377952755905,
                },
                {
                    "duration": 0.8333319999999844,
                    "durationTicks": 256,
                    "midi": 52,
                    "name": "E3",
                    "ticks": 112128,
                    "time": 364.999416,
                    "velocity": 0.8503937007874016,
                },
                {
                    "duration": 0.24739543750001758,
                    "durationTicks": 76,
                    "midi": 52,
                    "name": "E3",
                    "ticks": 112384,
                    "time": 365.832748,
                    "velocity": 0.8740157480314961,
                },
                {
                    "duration": 0.24739543749996074,
                    "durationTicks": 76,
                    "midi": 52,
                    "name": "E3",
                    "ticks": 112512,
                    "time": 366.249414,
                    "velocity": 0.8976377952755905,
                },
                {
                    "duration": 0.8333319999999844,
                    "durationTicks": 256,
                    "midi": 45,
                    "name": "A2",
                    "ticks": 112640,
                    "time": 366.66607999999997,
                    "velocity": 0.8031496062992126,
                },
                {
                    "duration": 0.8333319999999844,
                    "durationTicks": 256,
                    "midi": 45,
                    "name": "A2",
                    "ticks": 124416,
                    "time": 404.999352,
                    "velocity": 0.2283464566929134,
                },
                {
                    "duration": 0.41666600000002063,
                    "durationTicks": 128,
                    "midi": 45,
                    "name": "A2",
                    "ticks": 124672,
                    "time": 405.832684,
                    "velocity": 0.2677165354330709,
                },
                {
                    "duration": 0.4166659999999638,
                    "durationTicks": 128,
                    "midi": 45,
                    "name": "A2",
                    "ticks": 124800,
                    "time": 406.24935,
                    "velocity": 0.2992125984251969,
                },
                {
                    "duration": 0.8333320000000413,
                    "durationTicks": 256,
                    "midi": 45,
                    "name": "A2",
                    "ticks": 124928,
                    "time": 406.66601599999996,
                    "velocity": 0.2992125984251969,
                },
                {
                    "duration": 0.8333319999999844,
                    "durationTicks": 256,
                    "midi": 45,
                    "name": "A2",
                    "ticks": 125440,
                    "time": 408.33268,
                    "velocity": 0.25984251968503935,
                },
                {
                    "duration": 0.41666600000002063,
                    "durationTicks": 128,
                    "midi": 45,
                    "name": "A2",
                    "ticks": 125696,
                    "time": 409.16601199999997,
                    "velocity": 0.29133858267716534,
                },
                {
                    "duration": 0.4166659999999638,
                    "durationTicks": 128,
                    "midi": 45,
                    "name": "A2",
                    "ticks": 125824,
                    "time": 409.582678,
                    "velocity": 0.2755905511811024,
                },
                {
                    "duration": 0.41666600000002063,
                    "durationTicks": 128,
                    "midi": 52,
                    "name": "E3",
                    "ticks": 126464,
                    "time": 411.666008,
                    "velocity": 0.8188976377952756,
                },
                {
                    "duration": 0.41666600000002063,
                    "durationTicks": 128,
                    "midi": 52,
                    "name": "E3",
                    "ticks": 128512,
                    "time": 418.33266399999997,
                    "velocity": 0.6299212598425197,
                },
            ],
            "endOfTrackTicks": 128641,
        },
        {
            "channel": 7,
            "controlChanges": {
                "7": [
                    {"number": 7, "ticks": 0, "time": 0, "value": 0.7637795275590551},
                    {
                        "number": 7,
                        "ticks": 140544,
                        "time": 457.499268,
                        "value": 0.7637795275590551,
                    },
                ],
                "10": [
                    {"number": 10, "ticks": 0, "time": 0, "value": 0.15748031496062992},
                    {
                        "number": 10,
                        "ticks": 140544,
                        "time": 457.499268,
                        "value": 0.15748031496062992,
                    },
                ],
                "64": [{"number": 64, "ticks": 0, "time": 0, "value": 0}],
                "91": [
                    {"number": 91, "ticks": 0, "time": 0, "value": 0.3779527559055118},
                    {
                        "number": 91,
                        "ticks": 140544,
                        "time": 457.499268,
                        "value": 0.4645669291338583,
                    },
                ],
                "121": [{"number": 121, "ticks": 0, "time": 0, "value": 0}],
            },
            "pitchBends": [],
            "instrument": {
                "family": "ensemble",
                "number": 48,
                "name": "string ensemble 1",
            },
            "name": "Violins 1",
            "notes": [
                {
                    "duration": 0.8333319999999986,
                    "durationTicks": 256,
                    "midi": 76,
                    "name": "E5",
                    "ticks": 25600,
                    "time": 83.33319999999999,
                    "velocity": 0.33858267716535434,
                },
                {
                    "duration": 0.24739543750000337,
                    "durationTicks": 76,
                    "midi": 76,
                    "name": "E5",
                    "ticks": 25856,
                    "time": 84.16653199999999,
                    "velocity": 0.4409448818897638,
                },
                {
                    "duration": 0.24739543749998916,
                    "durationTicks": 76,
                    "midi": 76,
                    "name": "E5",
                    "ticks": 25984,
                    "time": 84.583198,
                    "velocity": 0.4330708661417323,
                },
                {
                    "duration": 0.49804607812500024,
                    "durationTicks": 153,
                    "midi": 76,
                    "name": "E5",
                    "ticks": 26112,
                    "time": 84.99986399999999,
                    "velocity": 0.4094488188976378,
                },
                {
                    "duration": 0.4720044531250096,
                    "durationTicks": 145,
                    "midi": 76,
                    "name": "E5",
                    "ticks": 26368,
                    "time": 85.83319599999999,
                    "velocity": 0.3937007874015748,
                },
                {
                    "duration": 0.8333319999999986,
                    "durationTicks": 256,
                    "midi": 76,
                    "name": "E5",
                    "ticks": 26624,
                    "time": 86.66652799999999,
                    "velocity": 0.4251968503937008,
                },
                {
                    "duration": 0.24739543750000337,
                    "durationTicks": 76,
                    "midi": 76,
                    "name": "E5",
                    "ticks": 26880,
                    "time": 87.49985999999998,
                    "velocity": 0.4330708661417323,
                },
                {
                    "duration": 0.24739543750000337,
                    "durationTicks": 76,
                    "midi": 76,
                    "name": "E5",
                    "ticks": 27008,
                    "time": 87.91652599999999,
                    "velocity": 0.4251968503937008,
                },
                {
                    "duration": 0.49804607812500024,
                    "durationTicks": 153,
                    "midi": 76,
                    "name": "E5",
                    "ticks": 27136,
                    "time": 88.333192,
                    "velocity": 0.4094488188976378,
                },
                {
                    "duration": 0.4720044531249954,
                    "durationTicks": 145,
                    "midi": 76,
                    "name": "E5",
                    "ticks": 27392,
                    "time": 89.166524,
                    "velocity": 0.41732283464566927,
                },
                {
                    "duration": 0.8333319999999986,
                    "durationTicks": 256,
                    "midi": 76,
                    "name": "E5",
                    "ticks": 27648,
                    "time": 89.999856,
                    "velocity": 0.49606299212598426,
                },
                {
                    "duration": 0.24739543750000337,
                    "durationTicks": 76,
                    "midi": 76,
                    "name": "E5",
                    "ticks": 27904,
                    "time": 90.83318799999999,
                    "velocity": 0.4645669291338583,
                },
                {
                    "duration": 0.24739543750000337,
                    "durationTicks": 76,
                    "midi": 78,
                    "name": "F#5",
                    "ticks": 28032,
                    "time": 91.24985399999998,
                    "velocity": 0.49606299212598426,
                },
                {
                    "duration": 0.49804607812500024,
                    "durationTicks": 153,
                    "midi": 79,
                    "name": "G5",
                    "ticks": 28160,
                    "time": 91.66651999999999,
                    "velocity": 0.5511811023622047,
                },
                {
                    "duration": 0.4720044531249954,
                    "durationTicks": 145,
                    "midi": 79,
                    "name": "G5",
                    "ticks": 28416,
                    "time": 92.49985199999999,
                    "velocity": 0.5275590551181102,
                },
                {
                    "duration": 0.8333319999999986,
                    "durationTicks": 256,
                    "midi": 79,
                    "name": "G5",
                    "ticks": 28672,
                    "time": 93.33318399999999,
                    "velocity": 0.5196850393700787,
                },
                {
                    "duration": 0.24739543750000337,
                    "durationTicks": 76,
                    "midi": 79,
                    "name": "G5",
                    "ticks": 28928,
                    "time": 94.16651599999999,
                    "velocity": 0.48031496062992124,
                },
                {
                    "duration": 0.24739543750000337,
                    "durationTicks": 76,
                    "midi": 79,
                    "name": "G5",
                    "ticks": 29056,
                    "time": 94.583182,
                    "velocity": 0.5511811023622047,
                },
                {
                    "duration": 0.8333319999999986,
                    "durationTicks": 256,
                    "midi": 79,
                    "name": "G5",
                    "ticks": 29184,
                    "time": 94.99984799999999,
                    "velocity": 0.5354330708661418,
                },
                {
                    "duration": 0.8333320000000128,
                    "durationTicks": 256,
                    "midi": 79,
                    "name": "G5",
                    "ticks": 29696,
                    "time": 96.66651199999998,
                    "velocity": 0.5118110236220472,
                },
                {
                    "duration": 0.24739543749998916,
                    "durationTicks": 76,
                    "midi": 79,
                    "name": "G5",
                    "ticks": 29952,
                    "time": 97.499844,
                    "velocity": 0.5669291338582677,
                },
                {
                    "duration": 0.24739543750000337,
                    "durationTicks": 76,
                    "midi": 81,
                    "name": "A5",
                    "ticks": 30080,
                    "time": 97.91650999999999,
                    "velocity": 0.5984251968503937,
                },
                {
                    "duration": 0.49804607812500024,
                    "durationTicks": 153,
                    "midi": 83,
                    "name": "B5",
                    "ticks": 30208,
                    "time": 98.333176,
                    "velocity": 0.6377952755905512,
                },
                {
                    "duration": 0.4720044531249954,
                    "durationTicks": 145,
                    "midi": 83,
                    "name": "B5",
                    "ticks": 30464,
                    "time": 99.166508,
                    "velocity": 0.5905511811023622,
                },
                {
                    "duration": 0.8333319999999986,
                    "durationTicks": 256,
                    "midi": 78,
                    "name": "F#5",
                    "ticks": 30720,
                    "time": 99.99983999999999,
                    "velocity": 0.5433070866141733,
                },
                {
                    "duration": 0.24739543750000337,
                    "durationTicks": 76,
                    "midi": 78,
                    "name": "F#5",
                    "ticks": 30976,
                    "time": 100.83317199999999,
                    "velocity": 0.6299212598425197,
                },
                {
                    "duration": 0.24739543749998916,
                    "durationTicks": 76,
                    "midi": 80,
                    "name": "G#5",
                    "ticks": 31104,
                    "time": 101.249838,
                    "velocity": 0.6614173228346457,
                },
                {
                    "duration": 0.49804607812500024,
                    "durationTicks": 153,
                    "midi": 81,
                    "name": "A5",
                    "ticks": 31232,
                    "time": 101.66650399999999,
                    "velocity": 0.6614173228346457,
                },
                {
                    "duration": 0.4720044531249954,
                    "durationTicks": 145,
                    "midi": 81,
                    "name": "A5",
                    "ticks": 31488,
                    "time": 102.49983599999999,
                    "velocity": 0.6456692913385826,
                },
                {
                    "duration": 0.8333319999999986,
                    "durationTicks": 256,
                    "midi": 76,
                    "name": "E5",
                    "ticks": 31744,
                    "time": 103.33316799999999,
                    "velocity": 0.6062992125984252,
                },
                {
                    "duration": 0.24739543750000337,
                    "durationTicks": 76,
                    "midi": 76,
                    "name": "E5",
                    "ticks": 32000,
                    "time": 104.16649999999998,
                    "velocity": 0.6299212598425197,
                },
                {
                    "duration": 0.24739543750000337,
                    "durationTicks": 76,
                    "midi": 76,
                    "name": "E5",
                    "ticks": 32128,
                    "time": 104.58316599999999,
                    "velocity": 0.6929133858267716,
                },
                {
                    "duration": 0.49804607812500024,
                    "durationTicks": 153,
                    "midi": 76,
                    "name": "E5",
                    "ticks": 32256,
                    "time": 104.99983199999998,
                    "velocity": 0.6929133858267716,
                },
                {
                    "duration": 0.4720044531249954,
                    "durationTicks": 145,
                    "midi": 76,
                    "name": "E5",
                    "ticks": 32512,
                    "time": 105.833164,
                    "velocity": 0.6850393700787402,
                },
                {
                    "duration": 0.8333319999999986,
                    "durationTicks": 256,
                    "midi": 76,
                    "name": "E5",
                    "ticks": 32768,
                    "time": 106.666496,
                    "velocity": 0.6929133858267716,
                },
                {
                    "duration": 0.24739543749998916,
                    "durationTicks": 76,
                    "midi": 78,
                    "name": "F#5",
                    "ticks": 33024,
                    "time": 107.499828,
                    "velocity": 0.7480314960629921,
                },
                {
                    "duration": 0.24739543750000337,
                    "durationTicks": 76,
                    "midi": 80,
                    "name": "G#5",
                    "ticks": 33152,
                    "time": 107.91649399999999,
                    "velocity": 0.7795275590551181,
                },
                {
                    "duration": 0.8333319999999986,
                    "durationTicks": 256,
                    "midi": 81,
                    "name": "A5",
                    "ticks": 33280,
                    "time": 108.33315999999999,
                    "velocity": 0.7795275590551181,
                },
                {
                    "duration": 0.8333319999999986,
                    "durationTicks": 256,
                    "midi": 79,
                    "name": "G5",
                    "ticks": 33792,
                    "time": 109.99982399999999,
                    "velocity": 0.6771653543307087,
                },
                {
                    "duration": 0.24739543750000337,
                    "durationTicks": 76,
                    "midi": 79,
                    "name": "G5",
                    "ticks": 34048,
                    "time": 110.83315599999999,
                    "velocity": 0.7559055118110236,
                },
                {
                    "duration": 0.24739543749998916,
                    "durationTicks": 76,
                    "midi": 81,
                    "name": "A5",
                    "ticks": 34176,
                    "time": 111.249822,
                    "velocity": 0.7952755905511811,
                },
                {
                    "duration": 0.49804607812500024,
                    "durationTicks": 153,
                    "midi": 83,
                    "name": "B5",
                    "ticks": 34304,
                    "time": 111.66648799999999,
                    "velocity": 0.8346456692913385,
                },
                {
                    "duration": 0.4720044531250096,
                    "durationTicks": 145,
                    "midi": 83,
                    "name": "B5",
                    "ticks": 34560,
                    "time": 112.49981999999999,
                    "velocity": 0.7795275590551181,
                },
                {
                    "duration": 0.8333319999999986,
                    "durationTicks": 256,
                    "midi": 78,
                    "name": "F#5",
                    "ticks": 34816,
                    "time": 113.33315199999998,
                    "velocity": 0.7401574803149606,
                },
                {
                    "duration": 0.24739543750000337,
                    "durationTicks": 76,
                    "midi": 78,
                    "name": "F#5",
                    "ticks": 35072,
                    "time": 114.16648399999998,
                    "velocity": 0.8503937007874016,
                },
                {
                    "duration": 0.24739543750000337,
                    "durationTicks": 76,
                    "midi": 80,
                    "name": "G#5",
                    "ticks": 35200,
                    "time": 114.58314999999999,
                    "velocity": 0.889763779527559,
                },
                {
                    "duration": 0.49804607812500024,
                    "durationTicks": 153,
                    "midi": 81,
                    "name": "A5",
                    "ticks": 35328,
                    "time": 114.999816,
                    "velocity": 0.905511811023622,
                },
                {
                    "duration": 0.4720044531249954,
                    "durationTicks": 145,
                    "midi": 81,
                    "name": "A5",
                    "ticks": 35584,
                    "time": 115.833148,
                    "velocity": 0.84251968503937,
                },
                {
                    "duration": 0.8333319999999986,
                    "durationTicks": 256,
                    "midi": 76,
                    "name": "E5",
                    "ticks": 35840,
                    "time": 116.66647999999999,
                    "velocity": 0.7086614173228346,
                },
                {
                    "duration": 0.24739543750000337,
                    "durationTicks": 76,
                    "midi": 76,
                    "name": "E5",
                    "ticks": 36096,
                    "time": 117.49981199999999,
                    "velocity": 0.8110236220472441,
                },
                {
                    "duration": 0.24739543750000337,
                    "durationTicks": 76,
                    "midi": 76,
                    "name": "E5",
                    "ticks": 36224,
                    "time": 117.91647799999998,
                    "velocity": 0.8188976377952756,
                },
                {
                    "duration": 0.49804607812500024,
                    "durationTicks": 153,
                    "midi": 76,
                    "name": "E5",
                    "ticks": 36352,
                    "time": 118.33314399999999,
                    "velocity": 0.8188976377952756,
                },
                {
                    "duration": 0.4720044531249954,
                    "durationTicks": 145,
                    "midi": 76,
                    "name": "E5",
                    "ticks": 36608,
                    "time": 119.16647599999999,
                    "velocity": 0.8346456692913385,
                },
                {
                    "duration": 0.8333319999999986,
                    "durationTicks": 256,
                    "midi": 76,
                    "name": "E5",
                    "ticks": 36864,
                    "time": 119.99980799999999,
                    "velocity": 0.84251968503937,
                },
                {
                    "duration": 0.24739543750000337,
                    "durationTicks": 76,
                    "midi": 78,
                    "name": "F#5",
                    "ticks": 37120,
                    "time": 120.83313999999999,
                    "velocity": 0.8582677165354331,
                },
                {
                    "duration": 0.24739543750000337,
                    "durationTicks": 76,
                    "midi": 80,
                    "name": "G#5",
                    "ticks": 37248,
                    "time": 121.24980599999999,
                    "velocity": 0.8818897637795275,
                },
                {
                    "duration": 0.8333319999999986,
                    "durationTicks": 256,
                    "midi": 81,
                    "name": "A5",
                    "ticks": 37376,
                    "time": 121.66647199999998,
                    "velocity": 0.8818897637795275,
                },
                {
                    "duration": 1.699216031249989,
                    "durationTicks": 522,
                    "midi": 84,
                    "name": "C6",
                    "ticks": 37888,
                    "time": 123.333136,
                    "velocity": 0.7322834645669292,
                },
                {
                    "duration": 1.5592422968749986,
                    "durationTicks": 479,
                    "midi": 83,
                    "name": "B5",
                    "ticks": 38400,
                    "time": 124.9998,
                    "velocity": 0.8976377952755905,
                },
                {
                    "duration": 0.19531218749999368,
                    "durationTicks": 60,
                    "midi": 83,
                    "name": "B5",
                    "ticks": 38912,
                    "time": 126.66646399999999,
                    "velocity": 1,
                },
                {
                    "duration": 0.1953121875000079,
                    "durationTicks": 60,
                    "midi": 84,
                    "name": "C6",
                    "ticks": 38972,
                    "time": 126.86177618749998,
                    "velocity": 1,
                },
                {
                    "duration": 0.8593736250000035,
                    "durationTicks": 264,
                    "midi": 86,
                    "name": "D6",
                    "ticks": 39032,
                    "time": 127.05708837499999,
                    "velocity": 1,
                },
                {
                    "duration": 0.2115882031249896,
                    "durationTicks": 65,
                    "midi": 84,
                    "name": "C6",
                    "ticks": 39296,
                    "time": 127.916462,
                    "velocity": 0.9606299212598425,
                },
                {
                    "duration": 0.19531218749997947,
                    "durationTicks": 60,
                    "midi": 83,
                    "name": "B5",
                    "ticks": 39360,
                    "time": 128.124795,
                    "velocity": 0.9448818897637795,
                },
                {
                    "duration": 0.42317640625000763,
                    "durationTicks": 130,
                    "midi": 83,
                    "name": "B5",
                    "ticks": 39424,
                    "time": 128.333128,
                    "velocity": 0.968503937007874,
                },
                {
                    "duration": 0.3938795781249951,
                    "durationTicks": 121,
                    "midi": 84,
                    "name": "C6",
                    "ticks": 39552,
                    "time": 128.749794,
                    "velocity": 1,
                },
                {
                    "duration": 0.8333319999999844,
                    "durationTicks": 256,
                    "midi": 84,
                    "name": "C6",
                    "ticks": 39680,
                    "time": 129.16646,
                    "velocity": 1,
                },
                {
                    "duration": 1.249998000000005,
                    "durationTicks": 384,
                    "midi": 84,
                    "name": "C6",
                    "ticks": 39936,
                    "time": 129.99979199999999,
                    "velocity": 1,
                },
                {
                    "duration": 0.2115882031249896,
                    "durationTicks": 65,
                    "midi": 72,
                    "name": "C5",
                    "ticks": 40320,
                    "time": 131.24979,
                    "velocity": 0.7244094488188977,
                },
                {
                    "duration": 0.19531218749997947,
                    "durationTicks": 60,
                    "midi": 74,
                    "name": "D5",
                    "ticks": 40384,
                    "time": 131.458123,
                    "velocity": 0.7559055118110236,
                },
                {
                    "duration": 0.42317640625000763,
                    "durationTicks": 130,
                    "midi": 75,
                    "name": "D#5",
                    "ticks": 40448,
                    "time": 131.66645599999998,
                    "velocity": 1,
                },
                {
                    "duration": 0.3938795781250235,
                    "durationTicks": 121,
                    "midi": 76,
                    "name": "E5",
                    "ticks": 40576,
                    "time": 132.08312199999997,
                    "velocity": 1,
                },
                {
                    "duration": 0.24739543749998916,
                    "durationTicks": 76,
                    "midi": 76,
                    "name": "E5",
                    "ticks": 40704,
                    "time": 132.499788,
                    "velocity": 0.984251968503937,
                },
                {
                    "duration": 0.24739543749998916,
                    "durationTicks": 76,
                    "midi": 76,
                    "name": "E5",
                    "ticks": 40832,
                    "time": 132.916454,
                    "velocity": 1,
                },
                {
                    "duration": 0.1953121875000079,
                    "durationTicks": 60,
                    "midi": 74,
                    "name": "D5",
                    "ticks": 40960,
                    "time": 133.33311999999998,
                    "velocity": 1,
                },
                {
                    "duration": 0.1953121875000079,
                    "durationTicks": 60,
                    "midi": 76,
                    "name": "E5",
                    "ticks": 41020,
                    "time": 133.5284321875,
                    "velocity": 1,
                },
                {
                    "duration": 0.8593736249999893,
                    "durationTicks": 264,
                    "midi": 77,
                    "name": "F5",
                    "ticks": 41080,
                    "time": 133.723744375,
                    "velocity": 1,
                },
                {
                    "duration": 0.2115882031249896,
                    "durationTicks": 65,
                    "midi": 76,
                    "name": "E5",
                    "ticks": 41344,
                    "time": 134.58311799999998,
                    "velocity": 0.952755905511811,
                },
                {
                    "duration": 0.19531218749997947,
                    "durationTicks": 60,
                    "midi": 74,
                    "name": "D5",
                    "ticks": 41408,
                    "time": 134.791451,
                    "velocity": 0.9448818897637795,
                },
                {
                    "duration": 0.42317640625000763,
                    "durationTicks": 130,
                    "midi": 74,
                    "name": "D5",
                    "ticks": 41472,
                    "time": 134.99978399999998,
                    "velocity": 1,
                },
                {
                    "duration": 0.3938795781249951,
                    "durationTicks": 121,
                    "midi": 76,
                    "name": "E5",
                    "ticks": 41600,
                    "time": 135.41645,
                    "velocity": 1,
                },
                {
                    "duration": 0.8333320000000128,
                    "durationTicks": 256,
                    "midi": 76,
                    "name": "E5",
                    "ticks": 41728,
                    "time": 135.833116,
                    "velocity": 0.968503937007874,
                },
                {
                    "duration": 0.8496080156249946,
                    "durationTicks": 261,
                    "midi": 76,
                    "name": "E5",
                    "ticks": 41984,
                    "time": 136.666448,
                    "velocity": 1,
                },
                {
                    "duration": 0.8496080156249946,
                    "durationTicks": 261,
                    "midi": 88,
                    "name": "E6",
                    "ticks": 42240,
                    "time": 137.49978,
                    "velocity": 1,
                },
                {
                    "duration": 1.5820287187499957,
                    "durationTicks": 486,
                    "midi": 87,
                    "name": "D#6",
                    "ticks": 42496,
                    "time": 138.333112,
                    "velocity": 1,
                },
                {
                    "duration": 0.4231764062499792,
                    "durationTicks": 130,
                    "midi": 86,
                    "name": "D6",
                    "ticks": 43008,
                    "time": 139.999776,
                    "velocity": 0.9448818897637795,
                },
                {
                    "duration": 0.2115882031249896,
                    "durationTicks": 65,
                    "midi": 83,
                    "name": "B5",
                    "ticks": 43136,
                    "time": 140.416442,
                    "velocity": 0.8740157480314961,
                },
                {
                    "duration": 0.2115882031249896,
                    "durationTicks": 65,
                    "midi": 85,
                    "name": "C#6",
                    "ticks": 43200,
                    "time": 140.624775,
                    "velocity": 1,
                },
                {
                    "duration": 0.42317640625000763,
                    "durationTicks": 130,
                    "midi": 86,
                    "name": "D6",
                    "ticks": 43264,
                    "time": 140.83310799999998,
                    "velocity": 1,
                },
                {
                    "duration": 0.2115882031249896,
                    "durationTicks": 65,
                    "midi": 88,
                    "name": "E6",
                    "ticks": 43392,
                    "time": 141.249774,
                    "velocity": 1,
                },
                {
                    "duration": 0.1953121875000079,
                    "durationTicks": 60,
                    "midi": 86,
                    "name": "D6",
                    "ticks": 43456,
                    "time": 141.45810699999998,
                    "velocity": 0.952755905511811,
                },
                {
                    "duration": 0.42317640625000763,
                    "durationTicks": 130,
                    "midi": 86,
                    "name": "D6",
                    "ticks": 43520,
                    "time": 141.66644,
                    "velocity": 0.9606299212598425,
                },
                {
                    "duration": 0.3938795781249951,
                    "durationTicks": 121,
                    "midi": 85,
                    "name": "C#6",
                    "ticks": 43648,
                    "time": 142.083106,
                    "velocity": 0.937007874015748,
                },
                {
                    "duration": 0.8333320000000128,
                    "durationTicks": 256,
                    "midi": 84,
                    "name": "C6",
                    "ticks": 43776,
                    "time": 142.49977199999998,
                    "velocity": 0.9606299212598425,
                },
                {
                    "duration": 1.699216031249989,
                    "durationTicks": 522,
                    "midi": 84,
                    "name": "C6",
                    "ticks": 44032,
                    "time": 143.333104,
                    "velocity": 0.9763779527559056,
                },
                {
                    "duration": 0.8496080156249946,
                    "durationTicks": 261,
                    "midi": 83,
                    "name": "B5",
                    "ticks": 44544,
                    "time": 144.999768,
                    "velocity": 0.8976377952755905,
                },
                {
                    "duration": 0.7259102968749858,
                    "durationTicks": 223,
                    "midi": 84,
                    "name": "C6",
                    "ticks": 44800,
                    "time": 145.8331,
                    "velocity": 1,
                },
                {
                    "duration": 0.1953121875000079,
                    "durationTicks": 60,
                    "midi": 83,
                    "name": "B5",
                    "ticks": 45056,
                    "time": 146.666432,
                    "velocity": 1,
                },
                {
                    "duration": 0.1953121875000079,
                    "durationTicks": 60,
                    "midi": 84,
                    "name": "C6",
                    "ticks": 45116,
                    "time": 146.8617441875,
                    "velocity": 1,
                },
                {
                    "duration": 0.8593736249999893,
                    "durationTicks": 264,
                    "midi": 86,
                    "name": "D6",
                    "ticks": 45176,
                    "time": 147.057056375,
                    "velocity": 1,
                },
                {
                    "duration": 0.2115882031249896,
                    "durationTicks": 65,
                    "midi": 84,
                    "name": "C6",
                    "ticks": 45440,
                    "time": 147.91643,
                    "velocity": 0.952755905511811,
                },
                {
                    "duration": 0.19531218749997947,
                    "durationTicks": 60,
                    "midi": 83,
                    "name": "B5",
                    "ticks": 45504,
                    "time": 148.124763,
                    "velocity": 0.9291338582677166,
                },
                {
                    "duration": 0.24739543750001758,
                    "durationTicks": 76,
                    "midi": 81,
                    "name": "A5",
                    "ticks": 45568,
                    "time": 148.33309599999998,
                    "velocity": 0.9212598425196851,
                },
                {
                    "duration": 0.21158820312501803,
                    "durationTicks": 65,
                    "midi": 69,
                    "name": "A4",
                    "ticks": 45696,
                    "time": 148.74976199999998,
                    "velocity": 0.6771653543307087,
                },
                {
                    "duration": 0.1953121875000079,
                    "durationTicks": 60,
                    "midi": 71,
                    "name": "B4",
                    "ticks": 45760,
                    "time": 148.958095,
                    "velocity": 0.6614173228346457,
                },
                {
                    "duration": 0.24739543749998916,
                    "durationTicks": 76,
                    "midi": 72,
                    "name": "C5",
                    "ticks": 45824,
                    "time": 149.166428,
                    "velocity": 1,
                },
                {
                    "duration": 0.2115882031249896,
                    "durationTicks": 65,
                    "midi": 72,
                    "name": "C5",
                    "ticks": 45952,
                    "time": 149.583094,
                    "velocity": 1,
                },
                {
                    "duration": 0.19531218749997947,
                    "durationTicks": 60,
                    "midi": 74,
                    "name": "D5",
                    "ticks": 46016,
                    "time": 149.791427,
                    "velocity": 1,
                },
                {
                    "duration": 0.8496080156249946,
                    "durationTicks": 261,
                    "midi": 76,
                    "name": "E5",
                    "ticks": 46080,
                    "time": 149.99975999999998,
                    "velocity": 0.9606299212598425,
                },
                {
                    "duration": 0.8496080156249946,
                    "durationTicks": 261,
                    "midi": 88,
                    "name": "E6",
                    "ticks": 46336,
                    "time": 150.833092,
                    "velocity": 1,
                },
                {
                    "duration": 1.5820287187499957,
                    "durationTicks": 486,
                    "midi": 87,
                    "name": "D#6",
                    "ticks": 46592,
                    "time": 151.66642399999998,
                    "velocity": 0.8661417322834646,
                },
                {
                    "duration": 0.42317640625000763,
                    "durationTicks": 130,
                    "midi": 86,
                    "name": "D6",
                    "ticks": 47104,
                    "time": 153.33308799999998,
                    "velocity": 0.7480314960629921,
                },
                {
                    "duration": 0.2115882031249896,
                    "durationTicks": 65,
                    "midi": 83,
                    "name": "B5",
                    "ticks": 47232,
                    "time": 153.749754,
                    "velocity": 0.6771653543307087,
                },
                {
                    "duration": 0.21158820312501803,
                    "durationTicks": 65,
                    "midi": 85,
                    "name": "C#6",
                    "ticks": 47296,
                    "time": 153.95808699999998,
                    "velocity": 0.7795275590551181,
                },
                {
                    "duration": 0.42317640625000763,
                    "durationTicks": 130,
                    "midi": 86,
                    "name": "D6",
                    "ticks": 47360,
                    "time": 154.16642,
                    "velocity": 0.7637795275590551,
                },
                {
                    "duration": 0.21158820312501803,
                    "durationTicks": 65,
                    "midi": 88,
                    "name": "E6",
                    "ticks": 47488,
                    "time": 154.58308599999998,
                    "velocity": 0.7637795275590551,
                },
                {
                    "duration": 0.1953121875000079,
                    "durationTicks": 60,
                    "midi": 86,
                    "name": "D6",
                    "ticks": 47552,
                    "time": 154.791419,
                    "velocity": 0.6692913385826772,
                },
                {
                    "duration": 0.4231764062499792,
                    "durationTicks": 130,
                    "midi": 86,
                    "name": "D6",
                    "ticks": 47616,
                    "time": 154.999752,
                    "velocity": 0.6929133858267716,
                },
                {
                    "duration": 0.3938795781249951,
                    "durationTicks": 121,
                    "midi": 85,
                    "name": "C#6",
                    "ticks": 47744,
                    "time": 155.416418,
                    "velocity": 0.6141732283464567,
                },
                {
                    "duration": 0.8333320000000128,
                    "durationTicks": 256,
                    "midi": 84,
                    "name": "C6",
                    "ticks": 47872,
                    "time": 155.83308399999999,
                    "velocity": 0.5669291338582677,
                },
                {
                    "duration": 1.699216031249989,
                    "durationTicks": 522,
                    "midi": 84,
                    "name": "C6",
                    "ticks": 48128,
                    "time": 156.666416,
                    "velocity": 0.5984251968503937,
                },
                {
                    "duration": 0.8496080156249946,
                    "durationTicks": 261,
                    "midi": 83,
                    "name": "B5",
                    "ticks": 48640,
                    "time": 158.33308,
                    "velocity": 0.5511811023622047,
                },
                {
                    "duration": 0.7193998906249988,
                    "durationTicks": 221,
                    "midi": 84,
                    "name": "C6",
                    "ticks": 48896,
                    "time": 159.16641199999998,
                    "velocity": 0.5590551181102362,
                },
                {
                    "duration": 0.1953121875000079,
                    "durationTicks": 60,
                    "midi": 83,
                    "name": "B5",
                    "ticks": 49152,
                    "time": 159.999744,
                    "velocity": 0.47244094488188976,
                },
                {
                    "duration": 0.19531218749997947,
                    "durationTicks": 60,
                    "midi": 84,
                    "name": "C6",
                    "ticks": 49212,
                    "time": 160.1950561875,
                    "velocity": 0.47244094488188976,
                },
                {
                    "duration": 0.8593736250000177,
                    "durationTicks": 264,
                    "midi": 86,
                    "name": "D6",
                    "ticks": 49272,
                    "time": 160.39036837499998,
                    "velocity": 0.47244094488188976,
                },
                {
                    "duration": 0.2115882031249896,
                    "durationTicks": 65,
                    "midi": 84,
                    "name": "C6",
                    "ticks": 49536,
                    "time": 161.249742,
                    "velocity": 0.3937007874015748,
                },
                {
                    "duration": 0.1953121875000079,
                    "durationTicks": 60,
                    "midi": 83,
                    "name": "B5",
                    "ticks": 49600,
                    "time": 161.45807499999998,
                    "velocity": 0.36220472440944884,
                },
                {
                    "duration": 0.8333319999999844,
                    "durationTicks": 256,
                    "midi": 81,
                    "name": "A5",
                    "ticks": 49664,
                    "time": 161.666408,
                    "velocity": 0.3543307086614173,
                },
                {
                    "duration": 0.1953121875000079,
                    "durationTicks": 60,
                    "midi": 71,
                    "name": "B4",
                    "ticks": 50176,
                    "time": 163.333072,
                    "velocity": 0.3779527559055118,
                },
                {
                    "duration": 0.19531218749997947,
                    "durationTicks": 60,
                    "midi": 72,
                    "name": "C5",
                    "ticks": 50236,
                    "time": 163.5283841875,
                    "velocity": 0.3779527559055118,
                },
                {
                    "duration": 0.8593736250000177,
                    "durationTicks": 264,
                    "midi": 74,
                    "name": "D5",
                    "ticks": 50296,
                    "time": 163.72369637499997,
                    "velocity": 0.3779527559055118,
                },
                {
                    "duration": 0.2115882031249896,
                    "durationTicks": 65,
                    "midi": 72,
                    "name": "C5",
                    "ticks": 50560,
                    "time": 164.58307,
                    "velocity": 0.3464566929133858,
                },
                {
                    "duration": 0.1953121875000079,
                    "durationTicks": 60,
                    "midi": 71,
                    "name": "B4",
                    "ticks": 50624,
                    "time": 164.79140299999997,
                    "velocity": 0.3700787401574803,
                },
                {
                    "duration": 0.8333320000000128,
                    "durationTicks": 256,
                    "midi": 69,
                    "name": "A4",
                    "ticks": 50688,
                    "time": 164.99973599999998,
                    "velocity": 0.3779527559055118,
                },
                {
                    "duration": 0.279947468749981,
                    "durationTicks": 86,
                    "midi": 76,
                    "name": "E5",
                    "ticks": 51456,
                    "time": 167.499732,
                    "velocity": 0.3464566929133858,
                },
                {
                    "duration": 0.279947468749981,
                    "durationTicks": 86,
                    "midi": 74,
                    "name": "D5",
                    "ticks": 51541,
                    "time": 167.776424265625,
                    "velocity": 0.30708661417322836,
                },
                {
                    "duration": 0.2636714531249993,
                    "durationTicks": 81,
                    "midi": 71,
                    "name": "B4",
                    "ticks": 51626,
                    "time": 168.05311653125,
                    "velocity": 0.31496062992125984,
                },
                {
                    "duration": 0.2799474687500094,
                    "durationTicks": 86,
                    "midi": 76,
                    "name": "E5",
                    "ticks": 51712,
                    "time": 168.33306399999998,
                    "velocity": 0.4251968503937008,
                },
                {
                    "duration": 0.2799474687500094,
                    "durationTicks": 86,
                    "midi": 73,
                    "name": "C#5",
                    "ticks": 51797,
                    "time": 168.60975626562498,
                    "velocity": 0.41732283464566927,
                },
                {
                    "duration": 0.28320267187501713,
                    "durationTicks": 87,
                    "midi": 69,
                    "name": "A4",
                    "ticks": 51882,
                    "time": 168.88644853124998,
                    "velocity": 0.33858267716535434,
                },
                {
                    "duration": 0.279947468749981,
                    "durationTicks": 86,
                    "midi": 73,
                    "name": "C#5",
                    "ticks": 51968,
                    "time": 169.166396,
                    "velocity": 0.33858267716535434,
                },
                {
                    "duration": 0.279947468749981,
                    "durationTicks": 86,
                    "midi": 69,
                    "name": "A4",
                    "ticks": 52053,
                    "time": 169.443088265625,
                    "velocity": 0.3779527559055118,
                },
                {
                    "duration": 0.2636714531249993,
                    "durationTicks": 81,
                    "midi": 64,
                    "name": "E4",
                    "ticks": 52138,
                    "time": 169.71978053125,
                    "velocity": 0.36220472440944884,
                },
                {
                    "duration": 0.2799474687500094,
                    "durationTicks": 86,
                    "midi": 69,
                    "name": "A4",
                    "ticks": 52224,
                    "time": 169.99972799999998,
                    "velocity": 0.4015748031496063,
                },
                {
                    "duration": 0.2799474687500094,
                    "durationTicks": 86,
                    "midi": 64,
                    "name": "E4",
                    "ticks": 52309,
                    "time": 170.27642026562498,
                    "velocity": 0.3543307086614173,
                },
                {
                    "duration": 0.28320267187501713,
                    "durationTicks": 87,
                    "midi": 61,
                    "name": "C#4",
                    "ticks": 52394,
                    "time": 170.55311253124998,
                    "velocity": 0.36220472440944884,
                },
                {
                    "duration": 0.2799474687500094,
                    "durationTicks": 86,
                    "midi": 73,
                    "name": "C#5",
                    "ticks": 52480,
                    "time": 170.83306,
                    "velocity": 0.44881889763779526,
                },
                {
                    "duration": 0.2799474687500094,
                    "durationTicks": 86,
                    "midi": 69,
                    "name": "A4",
                    "ticks": 52565,
                    "time": 171.109752265625,
                    "velocity": 0.3543307086614173,
                },
                {
                    "duration": 0.2636714531249993,
                    "durationTicks": 81,
                    "midi": 64,
                    "name": "E4",
                    "ticks": 52650,
                    "time": 171.38644453125,
                    "velocity": 0.29133858267716534,
                },
                {
                    "duration": 0.2799474687500094,
                    "durationTicks": 86,
                    "midi": 73,
                    "name": "C#5",
                    "ticks": 52736,
                    "time": 171.66639199999997,
                    "velocity": 0.4645669291338583,
                },
                {
                    "duration": 0.2799474687500094,
                    "durationTicks": 86,
                    "midi": 66,
                    "name": "F#4",
                    "ticks": 52821,
                    "time": 171.94308426562498,
                    "velocity": 0.3858267716535433,
                },
                {
                    "duration": 0.28320267187501713,
                    "durationTicks": 87,
                    "midi": 62,
                    "name": "D4",
                    "ticks": 52906,
                    "time": 172.21977653124998,
                    "velocity": 0.3464566929133858,
                },
                {
                    "duration": 0.2799474687500094,
                    "durationTicks": 86,
                    "midi": 71,
                    "name": "B4",
                    "ticks": 52992,
                    "time": 172.499724,
                    "velocity": 0.47244094488188976,
                },
                {
                    "duration": 0.2799474687500094,
                    "durationTicks": 86,
                    "midi": 66,
                    "name": "F#4",
                    "ticks": 53077,
                    "time": 172.776416265625,
                    "velocity": 0.3858267716535433,
                },
                {
                    "duration": 0.2636714531249993,
                    "durationTicks": 81,
                    "midi": 62,
                    "name": "D4",
                    "ticks": 53162,
                    "time": 173.05310853125,
                    "velocity": 0.31496062992125984,
                },
                {
                    "duration": 0.279947468749981,
                    "durationTicks": 86,
                    "midi": 71,
                    "name": "B4",
                    "ticks": 53248,
                    "time": 173.333056,
                    "velocity": 0.48031496062992124,
                },
                {
                    "duration": 0.279947468749981,
                    "durationTicks": 86,
                    "midi": 66,
                    "name": "F#4",
                    "ticks": 53333,
                    "time": 173.609748265625,
                    "velocity": 0.3937007874015748,
                },
                {
                    "duration": 0.28320267187501713,
                    "durationTicks": 87,
                    "midi": 62,
                    "name": "D4",
                    "ticks": 53418,
                    "time": 173.88644053124997,
                    "velocity": 0.4094488188976378,
                },
                {
                    "duration": 0.2799474687500094,
                    "durationTicks": 86,
                    "midi": 69,
                    "name": "A4",
                    "ticks": 53504,
                    "time": 174.16638799999998,
                    "velocity": 0.49606299212598426,
                },
                {
                    "duration": 0.2799474687500094,
                    "durationTicks": 86,
                    "midi": 61,
                    "name": "C#4",
                    "ticks": 53589,
                    "time": 174.44308026562499,
                    "velocity": 0.36220472440944884,
                },
                {
                    "duration": 0.2636714531249993,
                    "durationTicks": 81,
                    "midi": 69,
                    "name": "A4",
                    "ticks": 53674,
                    "time": 174.71977253125,
                    "velocity": 0.5590551181102362,
                },
                {
                    "duration": 0.279947468749981,
                    "durationTicks": 86,
                    "midi": 59,
                    "name": "B3",
                    "ticks": 53760,
                    "time": 174.99972,
                    "velocity": 0.47244094488188976,
                },
                {
                    "duration": 0.279947468749981,
                    "durationTicks": 86,
                    "midi": 62,
                    "name": "D4",
                    "ticks": 53845,
                    "time": 175.276412265625,
                    "velocity": 0.5748031496062992,
                },
                {
                    "duration": 0.2832026718749887,
                    "durationTicks": 87,
                    "midi": 68,
                    "name": "G#4",
                    "ticks": 53930,
                    "time": 175.55310453125,
                    "velocity": 0.6220472440944882,
                },
                {
                    "duration": 0.2799474687500094,
                    "durationTicks": 86,
                    "midi": 69,
                    "name": "A4",
                    "ticks": 54016,
                    "time": 175.83305199999998,
                    "velocity": 0.5669291338582677,
                },
                {
                    "duration": 0.2799474687500094,
                    "durationTicks": 86,
                    "midi": 61,
                    "name": "C#4",
                    "ticks": 54101,
                    "time": 176.10974426562498,
                    "velocity": 0.4094488188976378,
                },
                {
                    "duration": 0.2832026718749887,
                    "durationTicks": 87,
                    "midi": 69,
                    "name": "A4",
                    "ticks": 54186,
                    "time": 176.38643653124998,
                    "velocity": 0.6456692913385826,
                },
                {
                    "duration": 0.279947468749981,
                    "durationTicks": 86,
                    "midi": 62,
                    "name": "D4",
                    "ticks": 54272,
                    "time": 176.666384,
                    "velocity": 0.4881889763779528,
                },
                {
                    "duration": 0.279947468749981,
                    "durationTicks": 86,
                    "midi": 66,
                    "name": "F#4",
                    "ticks": 54357,
                    "time": 176.943076265625,
                    "velocity": 0.6141732283464567,
                },
                {
                    "duration": 0.2832026718749887,
                    "durationTicks": 87,
                    "midi": 71,
                    "name": "B4",
                    "ticks": 54442,
                    "time": 177.21976853125,
                    "velocity": 0.6850393700787402,
                },
                {
                    "duration": 0.2799474687500094,
                    "durationTicks": 86,
                    "midi": 73,
                    "name": "C#5",
                    "ticks": 54528,
                    "time": 177.49971599999998,
                    "velocity": 0.6771653543307087,
                },
                {
                    "duration": 0.2799474687500094,
                    "durationTicks": 86,
                    "midi": 64,
                    "name": "E4",
                    "ticks": 54613,
                    "time": 177.77640826562498,
                    "velocity": 0.5196850393700787,
                },
                {
                    "duration": 0.28320267187501713,
                    "durationTicks": 87,
                    "midi": 73,
                    "name": "C#5",
                    "ticks": 54698,
                    "time": 178.05310053124998,
                    "velocity": 0.5669291338582677,
                },
                {
                    "duration": 0.2799474687500094,
                    "durationTicks": 86,
                    "midi": 66,
                    "name": "F#4",
                    "ticks": 54784,
                    "time": 178.333048,
                    "velocity": 0.5275590551181102,
                },
                {
                    "duration": 0.279947468749981,
                    "durationTicks": 86,
                    "midi": 69,
                    "name": "A4",
                    "ticks": 54869,
                    "time": 178.609740265625,
                    "velocity": 0.5196850393700787,
                },
                {
                    "duration": 0.2832026718749887,
                    "durationTicks": 87,
                    "midi": 74,
                    "name": "D5",
                    "ticks": 54954,
                    "time": 178.88643253125,
                    "velocity": 0.5748031496062992,
                },
                {
                    "duration": 0.2799474687500094,
                    "durationTicks": 86,
                    "midi": 76,
                    "name": "E5",
                    "ticks": 55040,
                    "time": 179.16637999999998,
                    "velocity": 0.5196850393700787,
                },
                {
                    "duration": 0.2799474687500094,
                    "durationTicks": 86,
                    "midi": 68,
                    "name": "G#4",
                    "ticks": 55125,
                    "time": 179.44307226562498,
                    "velocity": 0.4409448818897638,
                },
                {
                    "duration": 0.2636714531249993,
                    "durationTicks": 81,
                    "midi": 76,
                    "name": "E5",
                    "ticks": 55210,
                    "time": 179.71976453124998,
                    "velocity": 0.5748031496062992,
                },
                {
                    "duration": 0.2799474687500094,
                    "durationTicks": 86,
                    "midi": 74,
                    "name": "D5",
                    "ticks": 55296,
                    "time": 179.999712,
                    "velocity": 0.4881889763779528,
                },
                {
                    "duration": 0.2799474687500094,
                    "durationTicks": 86,
                    "midi": 68,
                    "name": "G#4",
                    "ticks": 55381,
                    "time": 180.276404265625,
                    "velocity": 0.4330708661417323,
                },
                {
                    "duration": 0.2832026718749887,
                    "durationTicks": 87,
                    "midi": 71,
                    "name": "B4",
                    "ticks": 55466,
                    "time": 180.55309653125,
                    "velocity": 0.5590551181102362,
                },
                {
                    "duration": 0.2799474687500094,
                    "durationTicks": 86,
                    "midi": 69,
                    "name": "A4",
                    "ticks": 55552,
                    "time": 180.83304399999997,
                    "velocity": 0.5433070866141733,
                },
                {
                    "duration": 0.2799474687500094,
                    "durationTicks": 86,
                    "midi": 73,
                    "name": "C#5",
                    "ticks": 55637,
                    "time": 181.10973626562497,
                    "velocity": 0.5354330708661418,
                },
                {
                    "duration": 0.2636714531249993,
                    "durationTicks": 81,
                    "midi": 81,
                    "name": "A5",
                    "ticks": 55722,
                    "time": 181.38642853124998,
                    "velocity": 0.6141732283464567,
                },
                {
                    "duration": 0.2799474687500094,
                    "durationTicks": 86,
                    "midi": 81,
                    "name": "A5",
                    "ticks": 55808,
                    "time": 181.66637599999999,
                    "velocity": 0.4094488188976378,
                },
                {
                    "duration": 0.2799474687500094,
                    "durationTicks": 86,
                    "midi": 73,
                    "name": "C#5",
                    "ticks": 55893,
                    "time": 181.943068265625,
                    "velocity": 0.29133858267716534,
                },
                {
                    "duration": 0.2832026718749887,
                    "durationTicks": 87,
                    "midi": 69,
                    "name": "A4",
                    "ticks": 55978,
                    "time": 182.21976053125,
                    "velocity": 0.30708661417322836,
                },
                {
                    "duration": 0.279947468749981,
                    "durationTicks": 86,
                    "midi": 76,
                    "name": "E5",
                    "ticks": 56064,
                    "time": 182.499708,
                    "velocity": 0.4881889763779528,
                },
                {
                    "duration": 0.279947468749981,
                    "durationTicks": 86,
                    "midi": 73,
                    "name": "C#5",
                    "ticks": 56149,
                    "time": 182.776400265625,
                    "velocity": 0.36220472440944884,
                },
                {
                    "duration": 0.2636714531249993,
                    "durationTicks": 81,
                    "midi": 67,
                    "name": "G4",
                    "ticks": 56234,
                    "time": 183.05309253124997,
                    "velocity": 0.33858267716535434,
                },
                {
                    "duration": 0.2799474687500094,
                    "durationTicks": 86,
                    "midi": 73,
                    "name": "C#5",
                    "ticks": 56320,
                    "time": 183.33303999999998,
                    "velocity": 0.47244094488188976,
                },
                {
                    "duration": 0.2799474687500094,
                    "durationTicks": 86,
                    "midi": 67,
                    "name": "G4",
                    "ticks": 56405,
                    "time": 183.60973226562498,
                    "velocity": 0.4015748031496063,
                },
                {
                    "duration": 0.2832026718749887,
                    "durationTicks": 87,
                    "midi": 64,
                    "name": "E4",
                    "ticks": 56490,
                    "time": 183.88642453125,
                    "velocity": 0.3937007874015748,
                },
                {
                    "duration": 0.279947468749981,
                    "durationTicks": 86,
                    "midi": 76,
                    "name": "E5",
                    "ticks": 56576,
                    "time": 184.166372,
                    "velocity": 0.6220472440944882,
                },
                {
                    "duration": 0.279947468749981,
                    "durationTicks": 86,
                    "midi": 73,
                    "name": "C#5",
                    "ticks": 56661,
                    "time": 184.443064265625,
                    "velocity": 0.4015748031496063,
                },
                {
                    "duration": 0.2636714531249993,
                    "durationTicks": 81,
                    "midi": 67,
                    "name": "G4",
                    "ticks": 56746,
                    "time": 184.71975653125,
                    "velocity": 0.41732283464566927,
                },
                {
                    "duration": 0.2799474687500094,
                    "durationTicks": 86,
                    "midi": 76,
                    "name": "E5",
                    "ticks": 56832,
                    "time": 184.99970399999998,
                    "velocity": 0.6141732283464567,
                },
                {
                    "duration": 0.2799474687500094,
                    "durationTicks": 86,
                    "midi": 73,
                    "name": "C#5",
                    "ticks": 56917,
                    "time": 185.27639626562498,
                    "velocity": 0.4566929133858268,
                },
                {
                    "duration": 0.2832026718749887,
                    "durationTicks": 87,
                    "midi": 67,
                    "name": "G4",
                    "ticks": 57002,
                    "time": 185.55308853124998,
                    "velocity": 0.4645669291338583,
                },
                {
                    "duration": 0.279947468749981,
                    "durationTicks": 86,
                    "midi": 66,
                    "name": "F#4",
                    "ticks": 57088,
                    "time": 185.833036,
                    "velocity": 0.48031496062992124,
                },
                {
                    "duration": 0.279947468749981,
                    "durationTicks": 86,
                    "midi": 74,
                    "name": "D5",
                    "ticks": 57173,
                    "time": 186.109728265625,
                    "velocity": 0.6850393700787402,
                },
                {
                    "duration": 0.2636714531249993,
                    "durationTicks": 81,
                    "midi": 76,
                    "name": "E5",
                    "ticks": 57258,
                    "time": 186.38642053125,
                    "velocity": 0.5748031496062992,
                },
                {
                    "duration": 0.2799474687500094,
                    "durationTicks": 86,
                    "midi": 78,
                    "name": "F#5",
                    "ticks": 57344,
                    "time": 186.66636799999998,
                    "velocity": 0.5905511811023622,
                },
                {
                    "duration": 0.2799474687500094,
                    "durationTicks": 86,
                    "midi": 74,
                    "name": "D5",
                    "ticks": 57429,
                    "time": 186.94306026562498,
                    "velocity": 0.5275590551181102,
                },
                {
                    "duration": 0.28320267187501713,
                    "durationTicks": 87,
                    "midi": 66,
                    "name": "F#4",
                    "ticks": 57514,
                    "time": 187.21975253124998,
                    "velocity": 0.44881889763779526,
                },
                {
                    "duration": 0.2799474687500094,
                    "durationTicks": 86,
                    "midi": 64,
                    "name": "E4",
                    "ticks": 57600,
                    "time": 187.4997,
                    "velocity": 0.5433070866141733,
                },
                {
                    "duration": 0.279947468749981,
                    "durationTicks": 86,
                    "midi": 73,
                    "name": "C#5",
                    "ticks": 57685,
                    "time": 187.776392265625,
                    "velocity": 0.7165354330708661,
                },
                {
                    "duration": 0.2636714531249993,
                    "durationTicks": 81,
                    "midi": 76,
                    "name": "E5",
                    "ticks": 57770,
                    "time": 188.05308453125,
                    "velocity": 0.6929133858267716,
                },
                {
                    "duration": 0.2799474687500094,
                    "durationTicks": 86,
                    "midi": 74,
                    "name": "D5",
                    "ticks": 57856,
                    "time": 188.33303199999997,
                    "velocity": 0.5118110236220472,
                },
                {
                    "duration": 0.2799474687500094,
                    "durationTicks": 86,
                    "midi": 71,
                    "name": "B4",
                    "ticks": 57941,
                    "time": 188.60972426562498,
                    "velocity": 0.4881889763779528,
                },
                {
                    "duration": 0.2636714531249993,
                    "durationTicks": 81,
                    "midi": 64,
                    "name": "E4",
                    "ticks": 58026,
                    "time": 188.88641653124998,
                    "velocity": 0.3937007874015748,
                },
                {
                    "duration": 0.2799474687500094,
                    "durationTicks": 86,
                    "midi": 64,
                    "name": "E4",
                    "ticks": 58112,
                    "time": 189.166364,
                    "velocity": 0.4645669291338583,
                },
                {
                    "duration": 0.2799474687500094,
                    "durationTicks": 86,
                    "midi": 69,
                    "name": "A4",
                    "ticks": 58197,
                    "time": 189.443056265625,
                    "velocity": 0.5590551181102362,
                },
                {
                    "duration": 0.2636714531249993,
                    "durationTicks": 81,
                    "midi": 73,
                    "name": "C#5",
                    "ticks": 58282,
                    "time": 189.71974853125,
                    "velocity": 0.5669291338582677,
                },
                {
                    "duration": 0.2799474687500094,
                    "durationTicks": 86,
                    "midi": 71,
                    "name": "B4",
                    "ticks": 58368,
                    "time": 189.99969599999997,
                    "velocity": 0.49606299212598426,
                },
                {
                    "duration": 0.2799474687500094,
                    "durationTicks": 86,
                    "midi": 68,
                    "name": "G#4",
                    "ticks": 58453,
                    "time": 190.27638826562497,
                    "velocity": 0.4330708661417323,
                },
                {
                    "duration": 0.28320267187501713,
                    "durationTicks": 87,
                    "midi": 64,
                    "name": "E4",
                    "ticks": 58538,
                    "time": 190.55308053124998,
                    "velocity": 0.4330708661417323,
                },
                {
                    "duration": 0.2799474687500094,
                    "durationTicks": 86,
                    "midi": 66,
                    "name": "F#4",
                    "ticks": 58624,
                    "time": 190.83302799999998,
                    "velocity": 0.4409448818897638,
                },
                {
                    "duration": 0.2799474687500094,
                    "durationTicks": 86,
                    "midi": 69,
                    "name": "A4",
                    "ticks": 58709,
                    "time": 191.109720265625,
                    "velocity": 0.5196850393700787,
                },
                {
                    "duration": 0.2636714531249993,
                    "durationTicks": 81,
                    "midi": 75,
                    "name": "D#5",
                    "ticks": 58794,
                    "time": 191.38641253125,
                    "velocity": 0.5669291338582677,
                },
                {
                    "duration": 0.279947468749981,
                    "durationTicks": 86,
                    "midi": 76,
                    "name": "E5",
                    "ticks": 58880,
                    "time": 191.66636,
                    "velocity": 0.5433070866141733,
                },
                {
                    "duration": 0.279947468749981,
                    "durationTicks": 86,
                    "midi": 71,
                    "name": "B4",
                    "ticks": 58965,
                    "time": 191.943052265625,
                    "velocity": 0.4881889763779528,
                },
                {
                    "duration": 0.28320267187501713,
                    "durationTicks": 87,
                    "midi": 68,
                    "name": "G#4",
                    "ticks": 59050,
                    "time": 192.21974453124997,
                    "velocity": 0.48031496062992124,
                },
                {
                    "duration": 0.2799474687500094,
                    "durationTicks": 86,
                    "midi": 76,
                    "name": "E5",
                    "ticks": 59136,
                    "time": 192.49969199999998,
                    "velocity": 0.5669291338582677,
                },
                {
                    "duration": 0.2799474687500094,
                    "durationTicks": 86,
                    "midi": 71,
                    "name": "B4",
                    "ticks": 59221,
                    "time": 192.77638426562498,
                    "velocity": 0.4094488188976378,
                },
                {
                    "duration": 0.2832026718749887,
                    "durationTicks": 87,
                    "midi": 68,
                    "name": "G#4",
                    "ticks": 59306,
                    "time": 193.05307653124999,
                    "velocity": 0.36220472440944884,
                },
                {
                    "duration": 0.279947468749981,
                    "durationTicks": 86,
                    "midi": 78,
                    "name": "F#5",
                    "ticks": 59392,
                    "time": 193.333024,
                    "velocity": 0.6299212598425197,
                },
                {
                    "duration": 0.279947468749981,
                    "durationTicks": 86,
                    "midi": 71,
                    "name": "B4",
                    "ticks": 59477,
                    "time": 193.609716265625,
                    "velocity": 0.49606299212598426,
                },
                {
                    "duration": 0.2832026718749887,
                    "durationTicks": 87,
                    "midi": 69,
                    "name": "A4",
                    "ticks": 59562,
                    "time": 193.88640853125,
                    "velocity": 0.4409448818897638,
                },
                {
                    "duration": 0.2799474687500094,
                    "durationTicks": 86,
                    "midi": 78,
                    "name": "F#5",
                    "ticks": 59648,
                    "time": 194.16635599999998,
                    "velocity": 0.5669291338582677,
                },
                {
                    "duration": 0.2799474687500094,
                    "durationTicks": 86,
                    "midi": 71,
                    "name": "B4",
                    "ticks": 59733,
                    "time": 194.44304826562498,
                    "velocity": 0.4015748031496063,
                },
                {
                    "duration": 0.2636714531249993,
                    "durationTicks": 81,
                    "midi": 69,
                    "name": "A4",
                    "ticks": 59818,
                    "time": 194.71974053124998,
                    "velocity": 0.3700787401574803,
                },
                {
                    "duration": 0.279947468749981,
                    "durationTicks": 86,
                    "midi": 76,
                    "name": "E5",
                    "ticks": 59904,
                    "time": 194.999688,
                    "velocity": 0.5511811023622047,
                },
                {
                    "duration": 0.279947468749981,
                    "durationTicks": 86,
                    "midi": 71,
                    "name": "B4",
                    "ticks": 59989,
                    "time": 195.276380265625,
                    "velocity": 0.48031496062992124,
                },
                {
                    "duration": 0.2832026718749887,
                    "durationTicks": 87,
                    "midi": 68,
                    "name": "G#4",
                    "ticks": 60074,
                    "time": 195.55307253125,
                    "velocity": 0.4409448818897638,
                },
                {
                    "duration": 0.2799474687500094,
                    "durationTicks": 86,
                    "midi": 76,
                    "name": "E5",
                    "ticks": 60160,
                    "time": 195.83301999999998,
                    "velocity": 0.5590551181102362,
                },
                {
                    "duration": 0.2799474687500094,
                    "durationTicks": 86,
                    "midi": 71,
                    "name": "B4",
                    "ticks": 60245,
                    "time": 196.10971226562498,
                    "velocity": 0.44881889763779526,
                },
                {
                    "duration": 0.28320267187501713,
                    "durationTicks": 87,
                    "midi": 68,
                    "name": "G#4",
                    "ticks": 60330,
                    "time": 196.38640453124998,
                    "velocity": 0.3858267716535433,
                },
                {
                    "duration": 0.2799474687500094,
                    "durationTicks": 86,
                    "midi": 75,
                    "name": "D#5",
                    "ticks": 60416,
                    "time": 196.666352,
                    "velocity": 0.5826771653543307,
                },
                {
                    "duration": 0.279947468749981,
                    "durationTicks": 86,
                    "midi": 69,
                    "name": "A4",
                    "ticks": 60501,
                    "time": 196.943044265625,
                    "velocity": 0.48031496062992124,
                },
                {
                    "duration": 0.2832026718749887,
                    "durationTicks": 87,
                    "midi": 66,
                    "name": "F#4",
                    "ticks": 60586,
                    "time": 197.21973653125,
                    "velocity": 0.4881889763779528,
                },
                {
                    "duration": 0.2799474687500094,
                    "durationTicks": 86,
                    "midi": 71,
                    "name": "B4",
                    "ticks": 60672,
                    "time": 197.49968399999997,
                    "velocity": 0.5039370078740157,
                },
                {
                    "duration": 0.2799474687500094,
                    "durationTicks": 86,
                    "midi": 69,
                    "name": "A4",
                    "ticks": 60757,
                    "time": 197.77637626562498,
                    "velocity": 0.4881889763779528,
                },
                {
                    "duration": 0.2636714531249993,
                    "durationTicks": 81,
                    "midi": 66,
                    "name": "F#4",
                    "ticks": 60842,
                    "time": 198.05306853124998,
                    "velocity": 0.41732283464566927,
                },
                {
                    "duration": 0.2799474687500094,
                    "durationTicks": 86,
                    "midi": 64,
                    "name": "E4",
                    "ticks": 60928,
                    "time": 198.333016,
                    "velocity": 0.47244094488188976,
                },
                {
                    "duration": 0.2799474687500094,
                    "durationTicks": 86,
                    "midi": 68,
                    "name": "G#4",
                    "ticks": 61013,
                    "time": 198.609708265625,
                    "velocity": 0.5275590551181102,
                },
                {
                    "duration": 0.2832026718749887,
                    "durationTicks": 87,
                    "midi": 71,
                    "name": "B4",
                    "ticks": 61098,
                    "time": 198.88640053125,
                    "velocity": 0.5354330708661418,
                },
                {
                    "duration": 0.279947468749981,
                    "durationTicks": 86,
                    "midi": 68,
                    "name": "G#4",
                    "ticks": 61184,
                    "time": 199.166348,
                    "velocity": 0.4881889763779528,
                },
                {
                    "duration": 0.2799474687500094,
                    "durationTicks": 86,
                    "midi": 71,
                    "name": "B4",
                    "ticks": 61269,
                    "time": 199.44304026562497,
                    "velocity": 0.5433070866141733,
                },
                {
                    "duration": 0.28320267187501713,
                    "durationTicks": 87,
                    "midi": 76,
                    "name": "E5",
                    "ticks": 61354,
                    "time": 199.71973253124997,
                    "velocity": 0.6062992125984252,
                },
                {
                    "duration": 0.2799474687500094,
                    "durationTicks": 86,
                    "midi": 78,
                    "name": "F#5",
                    "ticks": 61440,
                    "time": 199.99967999999998,
                    "velocity": 0.5275590551181102,
                },
                {
                    "duration": 0.2799474687500094,
                    "durationTicks": 86,
                    "midi": 71,
                    "name": "B4",
                    "ticks": 61525,
                    "time": 200.27637226562499,
                    "velocity": 0.4409448818897638,
                },
                {
                    "duration": 0.2832026718749887,
                    "durationTicks": 87,
                    "midi": 69,
                    "name": "A4",
                    "ticks": 61610,
                    "time": 200.55306453125,
                    "velocity": 0.4881889763779528,
                },
                {
                    "duration": 0.279947468749981,
                    "durationTicks": 86,
                    "midi": 78,
                    "name": "F#5",
                    "ticks": 61696,
                    "time": 200.833012,
                    "velocity": 0.5748031496062992,
                },
                {
                    "duration": 0.279947468749981,
                    "durationTicks": 86,
                    "midi": 71,
                    "name": "B4",
                    "ticks": 61781,
                    "time": 201.109704265625,
                    "velocity": 0.4094488188976378,
                },
                {
                    "duration": 0.28320267187501713,
                    "durationTicks": 87,
                    "midi": 69,
                    "name": "A4",
                    "ticks": 61866,
                    "time": 201.38639653124997,
                    "velocity": 0.3779527559055118,
                },
                {
                    "duration": 0.2799474687500094,
                    "durationTicks": 86,
                    "midi": 76,
                    "name": "E5",
                    "ticks": 61952,
                    "time": 201.66634399999998,
                    "velocity": 0.5748031496062992,
                },
                {
                    "duration": 0.2799474687500094,
                    "durationTicks": 86,
                    "midi": 71,
                    "name": "B4",
                    "ticks": 62037,
                    "time": 201.94303626562498,
                    "velocity": 0.5275590551181102,
                },
                {
                    "duration": 0.2832026718749887,
                    "durationTicks": 87,
                    "midi": 68,
                    "name": "G#4",
                    "ticks": 62122,
                    "time": 202.21972853124998,
                    "velocity": 0.4251968503937008,
                },
                {
                    "duration": 0.279947468749981,
                    "durationTicks": 86,
                    "midi": 76,
                    "name": "E5",
                    "ticks": 62208,
                    "time": 202.499676,
                    "velocity": 0.4881889763779528,
                },
                {
                    "duration": 0.279947468749981,
                    "durationTicks": 86,
                    "midi": 71,
                    "name": "B4",
                    "ticks": 62293,
                    "time": 202.776368265625,
                    "velocity": 0.47244094488188976,
                },
                {
                    "duration": 0.2636714531249993,
                    "durationTicks": 81,
                    "midi": 68,
                    "name": "G#4",
                    "ticks": 62378,
                    "time": 203.05306053125,
                    "velocity": 0.3700787401574803,
                },
                {
                    "duration": 0.2799474687500094,
                    "durationTicks": 86,
                    "midi": 76,
                    "name": "E5",
                    "ticks": 62464,
                    "time": 203.33300799999998,
                    "velocity": 0.6535433070866141,
                },
                {
                    "duration": 0.2799474687500094,
                    "durationTicks": 86,
                    "midi": 70,
                    "name": "A#4",
                    "ticks": 62549,
                    "time": 203.60970026562498,
                    "velocity": 0.5826771653543307,
                },
                {
                    "duration": 0.28320267187501713,
                    "durationTicks": 87,
                    "midi": 67,
                    "name": "G4",
                    "ticks": 62634,
                    "time": 203.88639253124998,
                    "velocity": 0.49606299212598426,
                },
                {
                    "duration": 0.279947468749981,
                    "durationTicks": 86,
                    "midi": 64,
                    "name": "E4",
                    "ticks": 62720,
                    "time": 204.16634,
                    "velocity": 0.4645669291338583,
                },
                {
                    "duration": 0.279947468749981,
                    "durationTicks": 86,
                    "midi": 67,
                    "name": "G4",
                    "ticks": 62805,
                    "time": 204.443032265625,
                    "velocity": 0.49606299212598426,
                },
                {
                    "duration": 0.2832026718749887,
                    "durationTicks": 87,
                    "midi": 70,
                    "name": "A#4",
                    "ticks": 62890,
                    "time": 204.71972453125,
                    "velocity": 0.5905511811023622,
                },
                {
                    "duration": 0.2799474687500094,
                    "durationTicks": 86,
                    "midi": 64,
                    "name": "E4",
                    "ticks": 62976,
                    "time": 204.99967199999998,
                    "velocity": 0.5039370078740157,
                },
                {
                    "duration": 0.2799474687500094,
                    "durationTicks": 86,
                    "midi": 68,
                    "name": "G#4",
                    "ticks": 63061,
                    "time": 205.27636426562498,
                    "velocity": 0.6220472440944882,
                },
                {
                    "duration": 0.28320267187501713,
                    "durationTicks": 87,
                    "midi": 71,
                    "name": "B4",
                    "ticks": 63146,
                    "time": 205.55305653124998,
                    "velocity": 0.7086614173228346,
                },
                {
                    "duration": 0.2799474687500094,
                    "durationTicks": 86,
                    "midi": 76,
                    "name": "E5",
                    "ticks": 63232,
                    "time": 205.833004,
                    "velocity": 0.7007874015748031,
                },
                {
                    "duration": 0.279947468749981,
                    "durationTicks": 86,
                    "midi": 71,
                    "name": "B4",
                    "ticks": 63317,
                    "time": 206.109696265625,
                    "velocity": 0.6062992125984252,
                },
                {
                    "duration": 0.2832026718749887,
                    "durationTicks": 87,
                    "midi": 68,
                    "name": "G#4",
                    "ticks": 63402,
                    "time": 206.38638853125,
                    "velocity": 0.5275590551181102,
                },
                {
                    "duration": 0.2799474687500094,
                    "durationTicks": 86,
                    "midi": 76,
                    "name": "E5",
                    "ticks": 63488,
                    "time": 206.66633599999997,
                    "velocity": 0.6377952755905512,
                },
                {
                    "duration": 0.2799474687500094,
                    "durationTicks": 86,
                    "midi": 70,
                    "name": "A#4",
                    "ticks": 63573,
                    "time": 206.94302826562497,
                    "velocity": 0.5590551181102362,
                },
                {
                    "duration": 0.28320267187501713,
                    "durationTicks": 87,
                    "midi": 67,
                    "name": "G4",
                    "ticks": 63658,
                    "time": 207.21972053124998,
                    "velocity": 0.47244094488188976,
                },
                {
                    "duration": 0.2799474687500094,
                    "durationTicks": 86,
                    "midi": 64,
                    "name": "E4",
                    "ticks": 63744,
                    "time": 207.49966799999999,
                    "velocity": 0.5196850393700787,
                },
                {
                    "duration": 0.2799474687500094,
                    "durationTicks": 86,
                    "midi": 67,
                    "name": "G4",
                    "ticks": 63829,
                    "time": 207.776360265625,
                    "velocity": 0.5433070866141733,
                },
                {
                    "duration": 0.2832026718749887,
                    "durationTicks": 87,
                    "midi": 70,
                    "name": "A#4",
                    "ticks": 63914,
                    "time": 208.05305253125,
                    "velocity": 0.6377952755905512,
                },
                {
                    "duration": 0.279947468749981,
                    "durationTicks": 86,
                    "midi": 64,
                    "name": "E4",
                    "ticks": 64000,
                    "time": 208.333,
                    "velocity": 0.5590551181102362,
                },
                {
                    "duration": 0.2799474687500094,
                    "durationTicks": 86,
                    "midi": 68,
                    "name": "G#4",
                    "ticks": 64085,
                    "time": 208.60969226562497,
                    "velocity": 0.6535433070866141,
                },
                {
                    "duration": 0.28320267187501713,
                    "durationTicks": 87,
                    "midi": 71,
                    "name": "B4",
                    "ticks": 64170,
                    "time": 208.88638453124997,
                    "velocity": 0.7244094488188977,
                },
                {
                    "duration": 0.2799474687500094,
                    "durationTicks": 86,
                    "midi": 76,
                    "name": "E5",
                    "ticks": 64256,
                    "time": 209.16633199999998,
                    "velocity": 0.7086614173228346,
                },
                {
                    "duration": 0.2799474687500094,
                    "durationTicks": 86,
                    "midi": 71,
                    "name": "B4",
                    "ticks": 64341,
                    "time": 209.44302426562498,
                    "velocity": 0.6377952755905512,
                },
                {
                    "duration": 0.2636714531249993,
                    "durationTicks": 81,
                    "midi": 68,
                    "name": "G#4",
                    "ticks": 64426,
                    "time": 209.71971653125,
                    "velocity": 0.5511811023622047,
                },
                {
                    "duration": 0.279947468749981,
                    "durationTicks": 86,
                    "midi": 76,
                    "name": "E5",
                    "ticks": 64512,
                    "time": 209.999664,
                    "velocity": 0.6692913385826772,
                },
                {
                    "duration": 0.279947468749981,
                    "durationTicks": 86,
                    "midi": 70,
                    "name": "A#4",
                    "ticks": 64597,
                    "time": 210.276356265625,
                    "velocity": 0.5905511811023622,
                },
                {
                    "duration": 0.2832026718749887,
                    "durationTicks": 87,
                    "midi": 67,
                    "name": "G4",
                    "ticks": 64682,
                    "time": 210.55304853125,
                    "velocity": 0.5039370078740157,
                },
                {
                    "duration": 0.2799474687500094,
                    "durationTicks": 86,
                    "midi": 64,
                    "name": "E4",
                    "ticks": 64768,
                    "time": 210.83299599999998,
                    "velocity": 0.5039370078740157,
                },
                {
                    "duration": 0.2799474687500094,
                    "durationTicks": 86,
                    "midi": 67,
                    "name": "G4",
                    "ticks": 64853,
                    "time": 211.10968826562498,
                    "velocity": 0.5905511811023622,
                },
                {
                    "duration": 0.2636714531249993,
                    "durationTicks": 81,
                    "midi": 69,
                    "name": "A4",
                    "ticks": 64938,
                    "time": 211.38638053124998,
                    "velocity": 0.5748031496062992,
                },
                {
                    "duration": 0.279947468749981,
                    "durationTicks": 86,
                    "midi": 66,
                    "name": "F#4",
                    "ticks": 65024,
                    "time": 211.666328,
                    "velocity": 0.5511811023622047,
                },
                {
                    "duration": 0.279947468749981,
                    "durationTicks": 86,
                    "midi": 71,
                    "name": "B4",
                    "ticks": 65109,
                    "time": 211.943020265625,
                    "velocity": 0.6141732283464567,
                },
                {
                    "duration": 0.2636714531249993,
                    "durationTicks": 81,
                    "midi": 66,
                    "name": "F#4",
                    "ticks": 65194,
                    "time": 212.21971253125,
                    "velocity": 0.4881889763779528,
                },
                {
                    "duration": 0.2799474687500094,
                    "durationTicks": 86,
                    "midi": 66,
                    "name": "F#4",
                    "ticks": 65280,
                    "time": 212.49965999999998,
                    "velocity": 0.5354330708661418,
                },
                {
                    "duration": 0.2799474687500094,
                    "durationTicks": 86,
                    "midi": 71,
                    "name": "B4",
                    "ticks": 65365,
                    "time": 212.77635226562498,
                    "velocity": 0.5984251968503937,
                },
                {
                    "duration": 0.28320267187501713,
                    "durationTicks": 87,
                    "midi": 74,
                    "name": "D5",
                    "ticks": 65450,
                    "time": 213.05304453124998,
                    "velocity": 0.6456692913385826,
                },
                {
                    "duration": 0.279947468749981,
                    "durationTicks": 86,
                    "midi": 73,
                    "name": "C#5",
                    "ticks": 65536,
                    "time": 213.332992,
                    "velocity": 0.3700787401574803,
                },
                {
                    "duration": 0.279947468749981,
                    "durationTicks": 86,
                    "midi": 69,
                    "name": "A4",
                    "ticks": 65621,
                    "time": 213.609684265625,
                    "velocity": 0.2992125984251969,
                },
                {
                    "duration": 0.2832026718749887,
                    "durationTicks": 87,
                    "midi": 64,
                    "name": "E4",
                    "ticks": 65706,
                    "time": 213.88637653125,
                    "velocity": 0.33858267716535434,
                },
                {
                    "duration": 0.2799474687500094,
                    "durationTicks": 86,
                    "midi": 62,
                    "name": "D4",
                    "ticks": 65792,
                    "time": 214.16632399999997,
                    "velocity": 0.31496062992125984,
                },
                {
                    "duration": 0.2799474687500094,
                    "durationTicks": 86,
                    "midi": 68,
                    "name": "G#4",
                    "ticks": 65877,
                    "time": 214.44301626562498,
                    "velocity": 0.3937007874015748,
                },
                {
                    "duration": 0.2636714531249993,
                    "durationTicks": 81,
                    "midi": 71,
                    "name": "B4",
                    "ticks": 65962,
                    "time": 214.71970853124998,
                    "velocity": 0.4251968503937008,
                },
                {
                    "duration": 0.2799474687500094,
                    "durationTicks": 86,
                    "midi": 64,
                    "name": "E4",
                    "ticks": 66048,
                    "time": 214.999656,
                    "velocity": 0.3543307086614173,
                },
                {
                    "duration": 0.2799474687500094,
                    "durationTicks": 86,
                    "midi": 69,
                    "name": "A4",
                    "ticks": 66133,
                    "time": 215.276348265625,
                    "velocity": 0.3700787401574803,
                },
                {
                    "duration": 0.2832026718749887,
                    "durationTicks": 87,
                    "midi": 73,
                    "name": "C#5",
                    "ticks": 66218,
                    "time": 215.55304053125,
                    "velocity": 0.4645669291338583,
                },
                {
                    "duration": 0.2799474687500094,
                    "durationTicks": 86,
                    "midi": 74,
                    "name": "D5",
                    "ticks": 66304,
                    "time": 215.83298799999997,
                    "velocity": 0.41732283464566927,
                },
                {
                    "duration": 0.2799474687500094,
                    "durationTicks": 86,
                    "midi": 75,
                    "name": "D#5",
                    "ticks": 66389,
                    "time": 216.10968026562497,
                    "velocity": 0.4566929133858268,
                },
                {
                    "duration": 0.2636714531249993,
                    "durationTicks": 81,
                    "midi": 76,
                    "name": "E5",
                    "ticks": 66474,
                    "time": 216.38637253124998,
                    "velocity": 0.4251968503937008,
                },
                {
                    "duration": 0.2799474687500094,
                    "durationTicks": 86,
                    "midi": 76,
                    "name": "E5",
                    "ticks": 66560,
                    "time": 216.66631999999998,
                    "velocity": 0.44881889763779526,
                },
                {
                    "duration": 0.2799474687500094,
                    "durationTicks": 86,
                    "midi": 70,
                    "name": "A#4",
                    "ticks": 66645,
                    "time": 216.943012265625,
                    "velocity": 0.3937007874015748,
                },
                {
                    "duration": 0.2832026718749887,
                    "durationTicks": 87,
                    "midi": 67,
                    "name": "G4",
                    "ticks": 66730,
                    "time": 217.21970453125,
                    "velocity": 0.41732283464566927,
                },
                {
                    "duration": 0.279947468749981,
                    "durationTicks": 86,
                    "midi": 64,
                    "name": "E4",
                    "ticks": 66816,
                    "time": 217.499652,
                    "velocity": 0.4330708661417323,
                },
                {
                    "duration": 0.2799474687500094,
                    "durationTicks": 86,
                    "midi": 67,
                    "name": "G4",
                    "ticks": 66901,
                    "time": 217.77634426562497,
                    "velocity": 0.5118110236220472,
                },
                {
                    "duration": 0.28320267187501713,
                    "durationTicks": 87,
                    "midi": 70,
                    "name": "A#4",
                    "ticks": 66986,
                    "time": 218.05303653124997,
                    "velocity": 0.5196850393700787,
                },
                {
                    "duration": 0.2799474687500094,
                    "durationTicks": 86,
                    "midi": 64,
                    "name": "E4",
                    "ticks": 67072,
                    "time": 218.33298399999998,
                    "velocity": 0.41732283464566927,
                },
                {
                    "duration": 0.2799474687500094,
                    "durationTicks": 86,
                    "midi": 68,
                    "name": "G#4",
                    "ticks": 67157,
                    "time": 218.60967626562498,
                    "velocity": 0.5748031496062992,
                },
                {
                    "duration": 0.2832026718749887,
                    "durationTicks": 87,
                    "midi": 71,
                    "name": "B4",
                    "ticks": 67242,
                    "time": 218.88636853124999,
                    "velocity": 0.5984251968503937,
                },
                {
                    "duration": 0.279947468749981,
                    "durationTicks": 86,
                    "midi": 76,
                    "name": "E5",
                    "ticks": 67328,
                    "time": 219.166316,
                    "velocity": 0.6220472440944882,
                },
                {
                    "duration": 0.279947468749981,
                    "durationTicks": 86,
                    "midi": 71,
                    "name": "B4",
                    "ticks": 67413,
                    "time": 219.443008265625,
                    "velocity": 0.48031496062992124,
                },
                {
                    "duration": 0.2636714531249993,
                    "durationTicks": 81,
                    "midi": 68,
                    "name": "G#4",
                    "ticks": 67498,
                    "time": 219.71970053125,
                    "velocity": 0.4645669291338583,
                },
                {
                    "duration": 0.2799474687500094,
                    "durationTicks": 86,
                    "midi": 76,
                    "name": "E5",
                    "ticks": 67584,
                    "time": 219.99964799999998,
                    "velocity": 0.6850393700787402,
                },
                {
                    "duration": 0.2799474687500094,
                    "durationTicks": 86,
                    "midi": 70,
                    "name": "A#4",
                    "ticks": 67669,
                    "time": 220.27634026562498,
                    "velocity": 0.4881889763779528,
                },
                {
                    "duration": 0.2832026718749887,
                    "durationTicks": 87,
                    "midi": 67,
                    "name": "G4",
                    "ticks": 67754,
                    "time": 220.55303253124998,
                    "velocity": 0.49606299212598426,
                },
                {
                    "duration": 0.279947468749981,
                    "durationTicks": 86,
                    "midi": 64,
                    "name": "E4",
                    "ticks": 67840,
                    "time": 220.83298,
                    "velocity": 0.5433070866141733,
                },
                {
                    "duration": 0.279947468749981,
                    "durationTicks": 86,
                    "midi": 67,
                    "name": "G4",
                    "ticks": 67925,
                    "time": 221.109672265625,
                    "velocity": 0.6141732283464567,
                },
                {
                    "duration": 0.2832026718749887,
                    "durationTicks": 87,
                    "midi": 70,
                    "name": "A#4",
                    "ticks": 68010,
                    "time": 221.38636453125,
                    "velocity": 0.6850393700787402,
                },
                {
                    "duration": 0.2799474687500094,
                    "durationTicks": 86,
                    "midi": 64,
                    "name": "E4",
                    "ticks": 68096,
                    "time": 221.66631199999998,
                    "velocity": 0.48031496062992124,
                },
                {
                    "duration": 0.2799474687500094,
                    "durationTicks": 86,
                    "midi": 68,
                    "name": "G#4",
                    "ticks": 68181,
                    "time": 221.94300426562498,
                    "velocity": 0.7007874015748031,
                },
                {
                    "duration": 0.28320267187501713,
                    "durationTicks": 87,
                    "midi": 71,
                    "name": "B4",
                    "ticks": 68266,
                    "time": 222.21969653124998,
                    "velocity": 0.6850393700787402,
                },
                {
                    "duration": 0.279947468749981,
                    "durationTicks": 86,
                    "midi": 76,
                    "name": "E5",
                    "ticks": 68352,
                    "time": 222.499644,
                    "velocity": 0.8110236220472441,
                },
                {
                    "duration": 0.279947468749981,
                    "durationTicks": 86,
                    "midi": 71,
                    "name": "B4",
                    "ticks": 68437,
                    "time": 222.776336265625,
                    "velocity": 0.5669291338582677,
                },
                {
                    "duration": 0.2636714531249993,
                    "durationTicks": 81,
                    "midi": 68,
                    "name": "G#4",
                    "ticks": 68522,
                    "time": 223.05302853125,
                    "velocity": 0.48031496062992124,
                },
                {
                    "duration": 0.2799474687500094,
                    "durationTicks": 86,
                    "midi": 76,
                    "name": "E5",
                    "ticks": 68608,
                    "time": 223.33297599999997,
                    "velocity": 0.6771653543307087,
                },
                {
                    "duration": 0.2799474687500094,
                    "durationTicks": 86,
                    "midi": 70,
                    "name": "A#4",
                    "ticks": 68693,
                    "time": 223.60966826562498,
                    "velocity": 0.5826771653543307,
                },
                {
                    "duration": 0.28320267187501713,
                    "durationTicks": 87,
                    "midi": 67,
                    "name": "G4",
                    "ticks": 68778,
                    "time": 223.88636053124998,
                    "velocity": 0.5196850393700787,
                },
                {
                    "duration": 0.2799474687500094,
                    "durationTicks": 86,
                    "midi": 64,
                    "name": "E4",
                    "ticks": 68864,
                    "time": 224.166308,
                    "velocity": 0.48031496062992124,
                },
                {
                    "duration": 0.2799474687500094,
                    "durationTicks": 86,
                    "midi": 67,
                    "name": "G4",
                    "ticks": 68949,
                    "time": 224.443000265625,
                    "velocity": 0.5748031496062992,
                },
                {
                    "duration": 0.279947468749981,
                    "durationTicks": 86,
                    "midi": 69,
                    "name": "A4",
                    "ticks": 69034,
                    "time": 224.71969253125,
                    "velocity": 0.5590551181102362,
                },
                {
                    "duration": 0.2799474687500094,
                    "durationTicks": 86,
                    "midi": 69,
                    "name": "A4",
                    "ticks": 69120,
                    "time": 224.99963999999997,
                    "velocity": 0.5590551181102362,
                },
                {
                    "duration": 0.2799474687500094,
                    "durationTicks": 86,
                    "midi": 77,
                    "name": "F5",
                    "ticks": 69205,
                    "time": 225.27633226562497,
                    "velocity": 0.6535433070866141,
                },
                {
                    "duration": 0.2636714531249993,
                    "durationTicks": 81,
                    "midi": 69,
                    "name": "A4",
                    "ticks": 69290,
                    "time": 225.55302453124997,
                    "velocity": 0.41732283464566927,
                },
                {
                    "duration": 0.2799474687500094,
                    "durationTicks": 86,
                    "midi": 69,
                    "name": "A4",
                    "ticks": 69376,
                    "time": 225.83297199999998,
                    "velocity": 0.48031496062992124,
                },
                {
                    "duration": 0.2799474687500094,
                    "durationTicks": 86,
                    "midi": 74,
                    "name": "D5",
                    "ticks": 69461,
                    "time": 226.10966426562499,
                    "velocity": 0.5669291338582677,
                },
                {
                    "duration": 0.2799474687500094,
                    "durationTicks": 86,
                    "midi": 76,
                    "name": "E5",
                    "ticks": 69546,
                    "time": 226.38635653125,
                    "velocity": 0.6141732283464567,
                },
                {
                    "duration": 0.279947468749981,
                    "durationTicks": 86,
                    "midi": 76,
                    "name": "E5",
                    "ticks": 69632,
                    "time": 226.666304,
                    "velocity": 0.3543307086614173,
                },
                {
                    "duration": 0.279947468749981,
                    "durationTicks": 86,
                    "midi": 72,
                    "name": "C5",
                    "ticks": 69717,
                    "time": 226.942996265625,
                    "velocity": 0.3228346456692913,
                },
                {
                    "duration": 0.28320267187501713,
                    "durationTicks": 87,
                    "midi": 67,
                    "name": "G4",
                    "ticks": 69802,
                    "time": 227.21968853124997,
                    "velocity": 0.3543307086614173,
                },
                {
                    "duration": 0.2799474687500094,
                    "durationTicks": 86,
                    "midi": 65,
                    "name": "F4",
                    "ticks": 69888,
                    "time": 227.49963599999998,
                    "velocity": 0.33858267716535434,
                },
                {
                    "duration": 0.2799474687500094,
                    "durationTicks": 86,
                    "midi": 71,
                    "name": "B4",
                    "ticks": 69973,
                    "time": 227.77632826562498,
                    "velocity": 0.44881889763779526,
                },
                {
                    "duration": 0.2636714531249993,
                    "durationTicks": 81,
                    "midi": 74,
                    "name": "D5",
                    "ticks": 70058,
                    "time": 228.05302053124998,
                    "velocity": 0.4645669291338583,
                },
                {
                    "duration": 0.279947468749981,
                    "durationTicks": 86,
                    "midi": 64,
                    "name": "E4",
                    "ticks": 70144,
                    "time": 228.332968,
                    "velocity": 0.31496062992125984,
                },
                {
                    "duration": 0.279947468749981,
                    "durationTicks": 86,
                    "midi": 72,
                    "name": "C5",
                    "ticks": 70229,
                    "time": 228.609660265625,
                    "velocity": 0.3779527559055118,
                },
                {
                    "duration": 0.2832026718749887,
                    "durationTicks": 87,
                    "midi": 76,
                    "name": "E5",
                    "ticks": 70314,
                    "time": 228.88635253125,
                    "velocity": 0.4409448818897638,
                },
                {
                    "duration": 0.2799474687500094,
                    "durationTicks": 86,
                    "midi": 72,
                    "name": "C5",
                    "ticks": 70400,
                    "time": 229.16629999999998,
                    "velocity": 0.36220472440944884,
                },
                {
                    "duration": 0.2799474687500094,
                    "durationTicks": 86,
                    "midi": 76,
                    "name": "E5",
                    "ticks": 70485,
                    "time": 229.44299226562498,
                    "velocity": 0.3858267716535433,
                },
                {
                    "duration": 0.2636714531249993,
                    "durationTicks": 81,
                    "midi": 79,
                    "name": "G5",
                    "ticks": 70570,
                    "time": 229.71968453124998,
                    "velocity": 0.4330708661417323,
                },
                {
                    "duration": 0.279947468749981,
                    "durationTicks": 86,
                    "midi": 71,
                    "name": "B4",
                    "ticks": 70656,
                    "time": 229.999632,
                    "velocity": 0.31496062992125984,
                },
                {
                    "duration": 0.279947468749981,
                    "durationTicks": 86,
                    "midi": 74,
                    "name": "D5",
                    "ticks": 70741,
                    "time": 230.276324265625,
                    "velocity": 0.33858267716535434,
                },
                {
                    "duration": 0.2832026718749887,
                    "durationTicks": 87,
                    "midi": 79,
                    "name": "G5",
                    "ticks": 70826,
                    "time": 230.55301653125,
                    "velocity": 0.4645669291338583,
                },
                {
                    "duration": 0.2799474687500094,
                    "durationTicks": 86,
                    "midi": 71,
                    "name": "B4",
                    "ticks": 70912,
                    "time": 230.83296399999998,
                    "velocity": 0.36220472440944884,
                },
                {
                    "duration": 0.2799474687500094,
                    "durationTicks": 86,
                    "midi": 74,
                    "name": "D5",
                    "ticks": 70997,
                    "time": 231.10965626562498,
                    "velocity": 0.41732283464566927,
                },
                {
                    "duration": 0.2636714531249993,
                    "durationTicks": 81,
                    "midi": 79,
                    "name": "G5",
                    "ticks": 71082,
                    "time": 231.38634853124998,
                    "velocity": 0.4881889763779528,
                },
                {
                    "duration": 0.2799474687500094,
                    "durationTicks": 86,
                    "midi": 72,
                    "name": "C5",
                    "ticks": 71168,
                    "time": 231.666296,
                    "velocity": 0.3543307086614173,
                },
                {
                    "duration": 0.279947468749981,
                    "durationTicks": 86,
                    "midi": 76,
                    "name": "E5",
                    "ticks": 71253,
                    "time": 231.942988265625,
                    "velocity": 0.3858267716535433,
                },
                {
                    "duration": 0.2832026718749887,
                    "durationTicks": 87,
                    "midi": 79,
                    "name": "G5",
                    "ticks": 71338,
                    "time": 232.21968053125,
                    "velocity": 0.4094488188976378,
                },
                {
                    "duration": 0.2799474687500094,
                    "durationTicks": 86,
                    "midi": 72,
                    "name": "C5",
                    "ticks": 71424,
                    "time": 232.49962799999997,
                    "velocity": 0.33070866141732286,
                },
                {
                    "duration": 0.2799474687500094,
                    "durationTicks": 86,
                    "midi": 76,
                    "name": "E5",
                    "ticks": 71509,
                    "time": 232.77632026562497,
                    "velocity": 0.3700787401574803,
                },
                {
                    "duration": 0.2636714531249993,
                    "durationTicks": 81,
                    "midi": 79,
                    "name": "G5",
                    "ticks": 71594,
                    "time": 233.05301253124998,
                    "velocity": 0.4251968503937008,
                },
                {
                    "duration": 0.2799474687500094,
                    "durationTicks": 86,
                    "midi": 71,
                    "name": "B4",
                    "ticks": 71680,
                    "time": 233.33295999999999,
                    "velocity": 0.3543307086614173,
                },
                {
                    "duration": 0.2799474687500094,
                    "durationTicks": 86,
                    "midi": 74,
                    "name": "D5",
                    "ticks": 71765,
                    "time": 233.609652265625,
                    "velocity": 0.4094488188976378,
                },
                {
                    "duration": 0.2832026718749887,
                    "durationTicks": 87,
                    "midi": 79,
                    "name": "G5",
                    "ticks": 71850,
                    "time": 233.88634453125,
                    "velocity": 0.4251968503937008,
                },
                {
                    "duration": 0.2799474687500094,
                    "durationTicks": 86,
                    "midi": 71,
                    "name": "B4",
                    "ticks": 71936,
                    "time": 234.16629199999997,
                    "velocity": 0.3700787401574803,
                },
                {
                    "duration": 0.2799474687500094,
                    "durationTicks": 86,
                    "midi": 74,
                    "name": "D5",
                    "ticks": 72021,
                    "time": 234.44298426562497,
                    "velocity": 0.4015748031496063,
                },
                {
                    "duration": 0.2636714531249993,
                    "durationTicks": 81,
                    "midi": 79,
                    "name": "G5",
                    "ticks": 72106,
                    "time": 234.71967653124997,
                    "velocity": 0.4566929133858268,
                },
                {
                    "duration": 0.2799474687500094,
                    "durationTicks": 86,
                    "midi": 72,
                    "name": "C5",
                    "ticks": 72192,
                    "time": 234.99962399999998,
                    "velocity": 0.33070866141732286,
                },
                {
                    "duration": 0.2799474687500094,
                    "durationTicks": 86,
                    "midi": 76,
                    "name": "E5",
                    "ticks": 72277,
                    "time": 235.27631626562498,
                    "velocity": 0.3543307086614173,
                },
                {
                    "duration": 0.2832026718749887,
                    "durationTicks": 87,
                    "midi": 79,
                    "name": "G5",
                    "ticks": 72362,
                    "time": 235.55300853125,
                    "velocity": 0.4409448818897638,
                },
                {
                    "duration": 0.279947468749981,
                    "durationTicks": 86,
                    "midi": 72,
                    "name": "C5",
                    "ticks": 72448,
                    "time": 235.832956,
                    "velocity": 0.36220472440944884,
                },
                {
                    "duration": 0.279947468749981,
                    "durationTicks": 86,
                    "midi": 76,
                    "name": "E5",
                    "ticks": 72533,
                    "time": 236.109648265625,
                    "velocity": 0.4094488188976378,
                },
                {
                    "duration": 0.2636714531249993,
                    "durationTicks": 81,
                    "midi": 79,
                    "name": "G5",
                    "ticks": 72618,
                    "time": 236.38634053124997,
                    "velocity": 0.4094488188976378,
                },
                {
                    "duration": 0.2799474687500094,
                    "durationTicks": 86,
                    "midi": 71,
                    "name": "B4",
                    "ticks": 72704,
                    "time": 236.66628799999998,
                    "velocity": 0.3464566929133858,
                },
                {
                    "duration": 0.2799474687500094,
                    "durationTicks": 86,
                    "midi": 74,
                    "name": "D5",
                    "ticks": 72789,
                    "time": 236.94298026562498,
                    "velocity": 0.3858267716535433,
                },
                {
                    "duration": 0.2832026718749887,
                    "durationTicks": 87,
                    "midi": 79,
                    "name": "G5",
                    "ticks": 72874,
                    "time": 237.21967253124998,
                    "velocity": 0.4645669291338583,
                },
                {
                    "duration": 0.279947468749981,
                    "durationTicks": 86,
                    "midi": 71,
                    "name": "B4",
                    "ticks": 72960,
                    "time": 237.49962,
                    "velocity": 0.3858267716535433,
                },
                {
                    "duration": 0.279947468749981,
                    "durationTicks": 86,
                    "midi": 74,
                    "name": "D5",
                    "ticks": 73045,
                    "time": 237.776312265625,
                    "velocity": 0.41732283464566927,
                },
                {
                    "duration": 0.2636714531249993,
                    "durationTicks": 81,
                    "midi": 79,
                    "name": "G5",
                    "ticks": 73130,
                    "time": 238.05300453125,
                    "velocity": 0.49606299212598426,
                },
                {
                    "duration": 0.279947468749981,
                    "durationTicks": 86,
                    "midi": 81,
                    "name": "A5",
                    "ticks": 73642,
                    "time": 239.71966853125,
                    "velocity": 0.7165354330708661,
                },
                {
                    "duration": 0.16601535937499534,
                    "durationTicks": 51,
                    "midi": 79,
                    "name": "G5",
                    "ticks": 73728,
                    "time": 239.99961599999997,
                    "velocity": 0.6771653543307087,
                },
                {
                    "duration": 0.16601535937499534,
                    "durationTicks": 51,
                    "midi": 77,
                    "name": "F5",
                    "ticks": 73813,
                    "time": 240.27630826562498,
                    "velocity": 0.6929133858267716,
                },
                {
                    "duration": 0.16601535937499534,
                    "durationTicks": 51,
                    "midi": 76,
                    "name": "E5",
                    "ticks": 73898,
                    "time": 240.55300053124998,
                    "velocity": 0.7322834645669292,
                },
                {
                    "duration": 0.16601535937499534,
                    "durationTicks": 51,
                    "midi": 74,
                    "name": "D5",
                    "ticks": 73984,
                    "time": 240.832948,
                    "velocity": 0.8188976377952756,
                },
                {
                    "duration": 0.16601535937499534,
                    "durationTicks": 51,
                    "midi": 72,
                    "name": "C5",
                    "ticks": 74069,
                    "time": 241.109640265625,
                    "velocity": 0.7559055118110236,
                },
                {
                    "duration": 0.16601535937499534,
                    "durationTicks": 51,
                    "midi": 71,
                    "name": "B4",
                    "ticks": 74154,
                    "time": 241.38633253125,
                    "velocity": 0.7244094488188977,
                },
                {
                    "duration": 0.16601535937502376,
                    "durationTicks": 51,
                    "midi": 69,
                    "name": "A4",
                    "ticks": 74240,
                    "time": 241.66627999999997,
                    "velocity": 0.7165354330708661,
                },
                {
                    "duration": 0.16601535937502376,
                    "durationTicks": 51,
                    "midi": 67,
                    "name": "G4",
                    "ticks": 74325,
                    "time": 241.94297226562497,
                    "velocity": 0.6929133858267716,
                },
                {
                    "duration": 0.16601535937499534,
                    "durationTicks": 51,
                    "midi": 65,
                    "name": "F4",
                    "ticks": 74410,
                    "time": 242.21966453124998,
                    "velocity": 0.7007874015748031,
                },
                {
                    "duration": 0.16601535937499534,
                    "durationTicks": 51,
                    "midi": 64,
                    "name": "E4",
                    "ticks": 74496,
                    "time": 242.49961199999998,
                    "velocity": 0.7244094488188977,
                },
                {
                    "duration": 0.16601535937499534,
                    "durationTicks": 51,
                    "midi": 62,
                    "name": "D4",
                    "ticks": 74581,
                    "time": 242.776304265625,
                    "velocity": 0.6850393700787402,
                },
                {
                    "duration": 0.16601535937499534,
                    "durationTicks": 51,
                    "midi": 60,
                    "name": "C4",
                    "ticks": 74666,
                    "time": 243.05299653125,
                    "velocity": 0.7401574803149606,
                },
                {
                    "duration": 0.2766922656249733,
                    "durationTicks": 85,
                    "midi": 59,
                    "name": "B3",
                    "ticks": 74752,
                    "time": 243.332944,
                    "velocity": 0.7952755905511811,
                },
                {
                    "duration": 0.24739543750001758,
                    "durationTicks": 76,
                    "midi": 64,
                    "name": "E4",
                    "ticks": 75520,
                    "time": 245.83293999999998,
                    "velocity": 0.7795275590551181,
                },
                {
                    "duration": 0.24739543750001758,
                    "durationTicks": 76,
                    "midi": 64,
                    "name": "E4",
                    "ticks": 75648,
                    "time": 246.24960599999997,
                    "velocity": 0.8346456692913385,
                },
                {
                    "duration": 0.12369771875000879,
                    "durationTicks": 38,
                    "midi": 72,
                    "name": "C5",
                    "ticks": 76352,
                    "time": 248.54126899999997,
                    "velocity": 0.33070866141732286,
                },
                {
                    "duration": 0.12369771875000879,
                    "durationTicks": 38,
                    "midi": 69,
                    "name": "A4",
                    "ticks": 76416,
                    "time": 248.74960199999998,
                    "velocity": 0.31496062992125984,
                },
                {
                    "duration": 0.12369771874998037,
                    "durationTicks": 38,
                    "midi": 72,
                    "name": "C5",
                    "ticks": 76480,
                    "time": 248.957935,
                    "velocity": 0.4094488188976378,
                },
                {
                    "duration": 0.12369771875000879,
                    "durationTicks": 38,
                    "midi": 76,
                    "name": "E5",
                    "ticks": 76544,
                    "time": 249.16626799999997,
                    "velocity": 0.4330708661417323,
                },
                {
                    "duration": 0.12369771875000879,
                    "durationTicks": 38,
                    "midi": 72,
                    "name": "C5",
                    "ticks": 76608,
                    "time": 249.37460099999998,
                    "velocity": 0.33858267716535434,
                },
                {
                    "duration": 0.12369771874998037,
                    "durationTicks": 38,
                    "midi": 69,
                    "name": "A4",
                    "ticks": 76672,
                    "time": 249.582934,
                    "velocity": 0.3700787401574803,
                },
                {
                    "duration": 0.12369771875000879,
                    "durationTicks": 38,
                    "midi": 72,
                    "name": "C5",
                    "ticks": 76736,
                    "time": 249.79126699999998,
                    "velocity": 0.3937007874015748,
                },
                {
                    "duration": 0.4166659999999922,
                    "durationTicks": 128,
                    "midi": 64,
                    "name": "E4",
                    "ticks": 76800,
                    "time": 249.9996,
                    "velocity": 0.28346456692913385,
                },
                {
                    "duration": 0.19856739062498718,
                    "durationTicks": 61,
                    "midi": 71,
                    "name": "B4",
                    "ticks": 77376,
                    "time": 251.874597,
                    "velocity": 0.33070866141732286,
                },
                {
                    "duration": 0.1985673906250156,
                    "durationTicks": 61,
                    "midi": 68,
                    "name": "G#4",
                    "ticks": 77440,
                    "time": 252.08292999999998,
                    "velocity": 0.33858267716535434,
                },
                {
                    "duration": 0.19856739062498718,
                    "durationTicks": 61,
                    "midi": 71,
                    "name": "B4",
                    "ticks": 77504,
                    "time": 252.291263,
                    "velocity": 0.4409448818897638,
                },
                {
                    "duration": 0.19856739062498718,
                    "durationTicks": 61,
                    "midi": 76,
                    "name": "E5",
                    "ticks": 77568,
                    "time": 252.499596,
                    "velocity": 0.3937007874015748,
                },
                {
                    "duration": 0.1985673906250156,
                    "durationTicks": 61,
                    "midi": 71,
                    "name": "B4",
                    "ticks": 77632,
                    "time": 252.70792899999998,
                    "velocity": 0.3464566929133858,
                },
                {
                    "duration": 0.19856739062498718,
                    "durationTicks": 61,
                    "midi": 68,
                    "name": "G#4",
                    "ticks": 77696,
                    "time": 252.916262,
                    "velocity": 0.3464566929133858,
                },
                {
                    "duration": 0.1985673906250156,
                    "durationTicks": 61,
                    "midi": 71,
                    "name": "B4",
                    "ticks": 77760,
                    "time": 253.12459499999997,
                    "velocity": 0.4251968503937008,
                },
                {
                    "duration": 0.3971347812500028,
                    "durationTicks": 122,
                    "midi": 64,
                    "name": "E4",
                    "ticks": 77824,
                    "time": 253.33292799999998,
                    "velocity": 0.30708661417322836,
                },
                {
                    "duration": 0.19856739062498718,
                    "durationTicks": 61,
                    "midi": 72,
                    "name": "C5",
                    "ticks": 78400,
                    "time": 255.207925,
                    "velocity": 0.33858267716535434,
                },
                {
                    "duration": 0.1985673906250156,
                    "durationTicks": 61,
                    "midi": 67,
                    "name": "G4",
                    "ticks": 78464,
                    "time": 255.41625799999997,
                    "velocity": 0.33858267716535434,
                },
                {
                    "duration": 0.1985673906250156,
                    "durationTicks": 61,
                    "midi": 72,
                    "name": "C5",
                    "ticks": 78528,
                    "time": 255.62459099999998,
                    "velocity": 0.3937007874015748,
                },
                {
                    "duration": 0.19856739062498718,
                    "durationTicks": 61,
                    "midi": 76,
                    "name": "E5",
                    "ticks": 78592,
                    "time": 255.832924,
                    "velocity": 0.4094488188976378,
                },
                {
                    "duration": 0.19856739062504403,
                    "durationTicks": 61,
                    "midi": 72,
                    "name": "C5",
                    "ticks": 78656,
                    "time": 256.041257,
                    "velocity": 0.33070866141732286,
                },
                {
                    "duration": 0.19856739062498718,
                    "durationTicks": 61,
                    "midi": 69,
                    "name": "A4",
                    "ticks": 78720,
                    "time": 256.24959,
                    "velocity": 0.3543307086614173,
                },
                {
                    "duration": 0.19856739062498718,
                    "durationTicks": 61,
                    "midi": 72,
                    "name": "C5",
                    "ticks": 78784,
                    "time": 256.457923,
                    "velocity": 0.4094488188976378,
                },
                {
                    "duration": 0.3971347812500312,
                    "durationTicks": 122,
                    "midi": 55,
                    "name": "G3",
                    "ticks": 78848,
                    "time": 256.666256,
                    "velocity": 0.30708661417322836,
                },
                {
                    "duration": 0.19856739062498718,
                    "durationTicks": 61,
                    "midi": 74,
                    "name": "D5",
                    "ticks": 79424,
                    "time": 258.541253,
                    "velocity": 0.33070866141732286,
                },
                {
                    "duration": 0.19856739062498718,
                    "durationTicks": 61,
                    "midi": 71,
                    "name": "B4",
                    "ticks": 79488,
                    "time": 258.749586,
                    "velocity": 0.3464566929133858,
                },
                {
                    "duration": 0.19856739062498718,
                    "durationTicks": 61,
                    "midi": 74,
                    "name": "D5",
                    "ticks": 79552,
                    "time": 258.957919,
                    "velocity": 0.4015748031496063,
                },
                {
                    "duration": 0.19856739062498718,
                    "durationTicks": 61,
                    "midi": 79,
                    "name": "G5",
                    "ticks": 79616,
                    "time": 259.166252,
                    "velocity": 0.44881889763779526,
                },
                {
                    "duration": 0.19856739062498718,
                    "durationTicks": 61,
                    "midi": 74,
                    "name": "D5",
                    "ticks": 79680,
                    "time": 259.37458499999997,
                    "velocity": 0.33858267716535434,
                },
                {
                    "duration": 0.19856739062498718,
                    "durationTicks": 61,
                    "midi": 71,
                    "name": "B4",
                    "ticks": 79744,
                    "time": 259.582918,
                    "velocity": 0.3700787401574803,
                },
                {
                    "duration": 0.19856739062498718,
                    "durationTicks": 61,
                    "midi": 74,
                    "name": "D5",
                    "ticks": 79808,
                    "time": 259.791251,
                    "velocity": 0.4015748031496063,
                },
                {
                    "duration": 0.3971347812500312,
                    "durationTicks": 122,
                    "midi": 67,
                    "name": "G4",
                    "ticks": 79872,
                    "time": 259.99958399999997,
                    "velocity": 0.33858267716535434,
                },
                {
                    "duration": 0.19856739062498718,
                    "durationTicks": 61,
                    "midi": 67,
                    "name": "G4",
                    "ticks": 80448,
                    "time": 261.874581,
                    "velocity": 0.3543307086614173,
                },
                {
                    "duration": 0.19856739062504403,
                    "durationTicks": 61,
                    "midi": 64,
                    "name": "E4",
                    "ticks": 80512,
                    "time": 262.08291399999996,
                    "velocity": 0.3543307086614173,
                },
                {
                    "duration": 0.19856739062498718,
                    "durationTicks": 61,
                    "midi": 67,
                    "name": "G4",
                    "ticks": 80576,
                    "time": 262.291247,
                    "velocity": 0.3858267716535433,
                },
                {
                    "duration": 0.19856739062498718,
                    "durationTicks": 61,
                    "midi": 72,
                    "name": "C5",
                    "ticks": 80640,
                    "time": 262.49958,
                    "velocity": 0.44881889763779526,
                },
                {
                    "duration": 0.19856739062504403,
                    "durationTicks": 61,
                    "midi": 64,
                    "name": "E4",
                    "ticks": 80704,
                    "time": 262.70791299999996,
                    "velocity": 0.30708661417322836,
                },
                {
                    "duration": 0.19856739062498718,
                    "durationTicks": 61,
                    "midi": 60,
                    "name": "C4",
                    "ticks": 80768,
                    "time": 262.916246,
                    "velocity": 0.33070866141732286,
                },
                {
                    "duration": 0.19856739062498718,
                    "durationTicks": 61,
                    "midi": 66,
                    "name": "F#4",
                    "ticks": 80832,
                    "time": 263.124579,
                    "velocity": 0.4094488188976378,
                },
                {
                    "duration": 0.3971347812500312,
                    "durationTicks": 122,
                    "midi": 66,
                    "name": "F#4",
                    "ticks": 80896,
                    "time": 263.33291199999996,
                    "velocity": 0.3779527559055118,
                },
                {
                    "duration": 0.19856739062498718,
                    "durationTicks": 61,
                    "midi": 69,
                    "name": "A4",
                    "ticks": 81472,
                    "time": 265.207909,
                    "velocity": 0.3543307086614173,
                },
                {
                    "duration": 0.19856739062504403,
                    "durationTicks": 61,
                    "midi": 66,
                    "name": "F#4",
                    "ticks": 81536,
                    "time": 265.41624199999995,
                    "velocity": 0.33858267716535434,
                },
                {
                    "duration": 0.19856739062498718,
                    "durationTicks": 61,
                    "midi": 69,
                    "name": "A4",
                    "ticks": 81600,
                    "time": 265.624575,
                    "velocity": 0.3700787401574803,
                },
                {
                    "duration": 0.19856739062498718,
                    "durationTicks": 61,
                    "midi": 74,
                    "name": "D5",
                    "ticks": 81664,
                    "time": 265.832908,
                    "velocity": 0.4330708661417323,
                },
                {
                    "duration": 0.19856739062504403,
                    "durationTicks": 61,
                    "midi": 69,
                    "name": "A4",
                    "ticks": 81728,
                    "time": 266.04124099999996,
                    "velocity": 0.3464566929133858,
                },
                {
                    "duration": 0.19856739062498718,
                    "durationTicks": 61,
                    "midi": 64,
                    "name": "E4",
                    "ticks": 81792,
                    "time": 266.249574,
                    "velocity": 0.33070866141732286,
                },
                {
                    "duration": 0.19856739062498718,
                    "durationTicks": 61,
                    "midi": 71,
                    "name": "B4",
                    "ticks": 81856,
                    "time": 266.457907,
                    "velocity": 0.4251968503937008,
                },
                {
                    "duration": 0.3971347812500312,
                    "durationTicks": 122,
                    "midi": 64,
                    "name": "E4",
                    "ticks": 81920,
                    "time": 266.66623999999996,
                    "velocity": 0.30708661417322836,
                },
                {
                    "duration": 0.19856739062498718,
                    "durationTicks": 61,
                    "midi": 72,
                    "name": "C5",
                    "ticks": 82496,
                    "time": 268.54123699999997,
                    "velocity": 0.36220472440944884,
                },
                {
                    "duration": 0.19856739062498718,
                    "durationTicks": 61,
                    "midi": 69,
                    "name": "A4",
                    "ticks": 82560,
                    "time": 268.74957,
                    "velocity": 0.3228346456692913,
                },
                {
                    "duration": 0.19856739062498718,
                    "durationTicks": 61,
                    "midi": 72,
                    "name": "C5",
                    "ticks": 82624,
                    "time": 268.957903,
                    "velocity": 0.4015748031496063,
                },
                {
                    "duration": 0.19856739062498718,
                    "durationTicks": 61,
                    "midi": 76,
                    "name": "E5",
                    "ticks": 82688,
                    "time": 269.16623599999997,
                    "velocity": 0.4251968503937008,
                },
                {
                    "duration": 0.19856739062498718,
                    "durationTicks": 61,
                    "midi": 72,
                    "name": "C5",
                    "ticks": 82752,
                    "time": 269.374569,
                    "velocity": 0.36220472440944884,
                },
                {
                    "duration": 0.19856739062498718,
                    "durationTicks": 61,
                    "midi": 69,
                    "name": "A4",
                    "ticks": 82816,
                    "time": 269.582902,
                    "velocity": 0.33858267716535434,
                },
                {
                    "duration": 0.19856739062498718,
                    "durationTicks": 61,
                    "midi": 72,
                    "name": "C5",
                    "ticks": 82880,
                    "time": 269.791235,
                    "velocity": 0.4330708661417323,
                },
                {
                    "duration": 0.7942695624999487,
                    "durationTicks": 244,
                    "midi": 64,
                    "name": "E4",
                    "ticks": 82944,
                    "time": 269.999568,
                    "velocity": 0.2992125984251969,
                },
                {
                    "duration": 0.19856739062504403,
                    "durationTicks": 61,
                    "midi": 71,
                    "name": "B4",
                    "ticks": 83520,
                    "time": 271.87456499999996,
                    "velocity": 0.31496062992125984,
                },
                {
                    "duration": 0.19856739062498718,
                    "durationTicks": 61,
                    "midi": 64,
                    "name": "E4",
                    "ticks": 83584,
                    "time": 272.082898,
                    "velocity": 0.30708661417322836,
                },
                {
                    "duration": 0.19856739062498718,
                    "durationTicks": 61,
                    "midi": 71,
                    "name": "B4",
                    "ticks": 83648,
                    "time": 272.291231,
                    "velocity": 0.4566929133858268,
                },
                {
                    "duration": 0.19856739062504403,
                    "durationTicks": 61,
                    "midi": 76,
                    "name": "E5",
                    "ticks": 83712,
                    "time": 272.49956399999996,
                    "velocity": 0.4330708661417323,
                },
                {
                    "duration": 0.19856739062498718,
                    "durationTicks": 61,
                    "midi": 71,
                    "name": "B4",
                    "ticks": 83776,
                    "time": 272.707897,
                    "velocity": 0.36220472440944884,
                },
                {
                    "duration": 0.19856739062498718,
                    "durationTicks": 61,
                    "midi": 64,
                    "name": "E4",
                    "ticks": 83840,
                    "time": 272.91623,
                    "velocity": 0.29133858267716534,
                },
                {
                    "duration": 0.19856739062504403,
                    "durationTicks": 61,
                    "midi": 74,
                    "name": "D5",
                    "ticks": 83904,
                    "time": 273.12456299999997,
                    "velocity": 0.48031496062992124,
                },
                {
                    "duration": 0.7942695624999487,
                    "durationTicks": 244,
                    "midi": 64,
                    "name": "E4",
                    "ticks": 83968,
                    "time": 273.332896,
                    "velocity": 0.3700787401574803,
                },
                {
                    "duration": 0.7942695624999487,
                    "durationTicks": 244,
                    "midi": 72,
                    "name": "C5",
                    "ticks": 83968,
                    "time": 273.332896,
                    "velocity": 0.3700787401574803,
                },
                {
                    "duration": 0.19856739062504403,
                    "durationTicks": 61,
                    "midi": 64,
                    "name": "E4",
                    "ticks": 84544,
                    "time": 275.20789299999996,
                    "velocity": 0.3700787401574803,
                },
                {
                    "duration": 0.19856739062498718,
                    "durationTicks": 61,
                    "midi": 59,
                    "name": "B3",
                    "ticks": 84608,
                    "time": 275.416226,
                    "velocity": 0.3464566929133858,
                },
                {
                    "duration": 0.19856739062498718,
                    "durationTicks": 61,
                    "midi": 64,
                    "name": "E4",
                    "ticks": 84672,
                    "time": 275.624559,
                    "velocity": 0.4645669291338583,
                },
                {
                    "duration": 0.19856739062504403,
                    "durationTicks": 61,
                    "midi": 71,
                    "name": "B4",
                    "ticks": 84736,
                    "time": 275.83289199999996,
                    "velocity": 0.4645669291338583,
                },
                {
                    "duration": 0.19856739062498718,
                    "durationTicks": 61,
                    "midi": 64,
                    "name": "E4",
                    "ticks": 84800,
                    "time": 276.041225,
                    "velocity": 0.30708661417322836,
                },
                {
                    "duration": 0.19856739062498718,
                    "durationTicks": 61,
                    "midi": 60,
                    "name": "C4",
                    "ticks": 84864,
                    "time": 276.249558,
                    "velocity": 0.31496062992125984,
                },
                {
                    "duration": 0.19856739062504403,
                    "durationTicks": 61,
                    "midi": 66,
                    "name": "F#4",
                    "ticks": 84928,
                    "time": 276.45789099999996,
                    "velocity": 0.44881889763779526,
                },
                {
                    "duration": 0.39713478124997437,
                    "durationTicks": 122,
                    "midi": 66,
                    "name": "F#4",
                    "ticks": 84992,
                    "time": 276.666224,
                    "velocity": 0.3464566929133858,
                },
                {
                    "duration": 0.19856739062498718,
                    "durationTicks": 61,
                    "midi": 66,
                    "name": "F#4",
                    "ticks": 85568,
                    "time": 278.541221,
                    "velocity": 0.33858267716535434,
                },
                {
                    "duration": 0.19856739062498718,
                    "durationTicks": 61,
                    "midi": 62,
                    "name": "D4",
                    "ticks": 85632,
                    "time": 278.749554,
                    "velocity": 0.33070866141732286,
                },
                {
                    "duration": 0.19856739062498718,
                    "durationTicks": 61,
                    "midi": 66,
                    "name": "F#4",
                    "ticks": 85696,
                    "time": 278.95788699999997,
                    "velocity": 0.4409448818897638,
                },
                {
                    "duration": 0.19856739062498718,
                    "durationTicks": 61,
                    "midi": 69,
                    "name": "A4",
                    "ticks": 85760,
                    "time": 279.16622,
                    "velocity": 0.3779527559055118,
                },
                {
                    "duration": 0.19856739062498718,
                    "durationTicks": 61,
                    "midi": 62,
                    "name": "D4",
                    "ticks": 85824,
                    "time": 279.374553,
                    "velocity": 0.33858267716535434,
                },
                {
                    "duration": 0.19856739062498718,
                    "durationTicks": 61,
                    "midi": 59,
                    "name": "B3",
                    "ticks": 85888,
                    "time": 279.582886,
                    "velocity": 0.3228346456692913,
                },
                {
                    "duration": 0.19856739062504403,
                    "durationTicks": 61,
                    "midi": 64,
                    "name": "E4",
                    "ticks": 85952,
                    "time": 279.79121899999996,
                    "velocity": 0.41732283464566927,
                },
                {
                    "duration": 0.39713478124997437,
                    "durationTicks": 122,
                    "midi": 64,
                    "name": "E4",
                    "ticks": 86016,
                    "time": 279.999552,
                    "velocity": 0.41732283464566927,
                },
                {
                    "duration": 0.19856739062498718,
                    "durationTicks": 61,
                    "midi": 72,
                    "name": "C5",
                    "ticks": 86592,
                    "time": 281.874549,
                    "velocity": 0.3464566929133858,
                },
                {
                    "duration": 0.19856739062498718,
                    "durationTicks": 61,
                    "midi": 69,
                    "name": "A4",
                    "ticks": 86656,
                    "time": 282.082882,
                    "velocity": 0.2992125984251969,
                },
                {
                    "duration": 0.19856739062504403,
                    "durationTicks": 61,
                    "midi": 72,
                    "name": "C5",
                    "ticks": 86720,
                    "time": 282.29121499999997,
                    "velocity": 0.4015748031496063,
                },
                {
                    "duration": 0.19856739062498718,
                    "durationTicks": 61,
                    "midi": 76,
                    "name": "E5",
                    "ticks": 86784,
                    "time": 282.499548,
                    "velocity": 0.4015748031496063,
                },
                {
                    "duration": 0.19856739062498718,
                    "durationTicks": 61,
                    "midi": 72,
                    "name": "C5",
                    "ticks": 86848,
                    "time": 282.707881,
                    "velocity": 0.3464566929133858,
                },
                {
                    "duration": 0.19856739062498718,
                    "durationTicks": 61,
                    "midi": 69,
                    "name": "A4",
                    "ticks": 86912,
                    "time": 282.91621399999997,
                    "velocity": 0.31496062992125984,
                },
                {
                    "duration": 0.19856739062498718,
                    "durationTicks": 61,
                    "midi": 72,
                    "name": "C5",
                    "ticks": 86976,
                    "time": 283.124547,
                    "velocity": 0.3937007874015748,
                },
                {
                    "duration": 0.39713478124997437,
                    "durationTicks": 122,
                    "midi": 64,
                    "name": "E4",
                    "ticks": 87040,
                    "time": 283.33288,
                    "velocity": 0.33858267716535434,
                },
                {
                    "duration": 0.19856739062498718,
                    "durationTicks": 61,
                    "midi": 71,
                    "name": "B4",
                    "ticks": 87616,
                    "time": 285.207877,
                    "velocity": 0.3779527559055118,
                },
                {
                    "duration": 0.19856739062498718,
                    "durationTicks": 61,
                    "midi": 64,
                    "name": "E4",
                    "ticks": 87680,
                    "time": 285.41621,
                    "velocity": 0.29133858267716534,
                },
                {
                    "duration": 0.19856739062504403,
                    "durationTicks": 61,
                    "midi": 71,
                    "name": "B4",
                    "ticks": 87744,
                    "time": 285.62454299999996,
                    "velocity": 0.4330708661417323,
                },
                {
                    "duration": 0.19856739062498718,
                    "durationTicks": 61,
                    "midi": 76,
                    "name": "E5",
                    "ticks": 87808,
                    "time": 285.832876,
                    "velocity": 0.4330708661417323,
                },
                {
                    "duration": 0.19856739062498718,
                    "durationTicks": 61,
                    "midi": 71,
                    "name": "B4",
                    "ticks": 87872,
                    "time": 286.041209,
                    "velocity": 0.36220472440944884,
                },
                {
                    "duration": 0.19856739062504403,
                    "durationTicks": 61,
                    "midi": 64,
                    "name": "E4",
                    "ticks": 87936,
                    "time": 286.24954199999996,
                    "velocity": 0.29133858267716534,
                },
                {
                    "duration": 0.19856739062498718,
                    "durationTicks": 61,
                    "midi": 74,
                    "name": "D5",
                    "ticks": 88000,
                    "time": 286.457875,
                    "velocity": 0.47244094488188976,
                },
                {
                    "duration": 0.39713478124997437,
                    "durationTicks": 122,
                    "midi": 64,
                    "name": "E4",
                    "ticks": 88064,
                    "time": 286.666208,
                    "velocity": 0.33858267716535434,
                },
                {
                    "duration": 0.39713478124997437,
                    "durationTicks": 122,
                    "midi": 73,
                    "name": "C#5",
                    "ticks": 88064,
                    "time": 286.666208,
                    "velocity": 0.33858267716535434,
                },
                {
                    "duration": 0.19856739062498718,
                    "durationTicks": 61,
                    "midi": 73,
                    "name": "C#5",
                    "ticks": 88640,
                    "time": 288.541205,
                    "velocity": 0.3858267716535433,
                },
                {
                    "duration": 0.19856739062498718,
                    "durationTicks": 61,
                    "midi": 67,
                    "name": "G4",
                    "ticks": 88704,
                    "time": 288.749538,
                    "velocity": 0.31496062992125984,
                },
                {
                    "duration": 0.19856739062504403,
                    "durationTicks": 61,
                    "midi": 73,
                    "name": "C#5",
                    "ticks": 88768,
                    "time": 288.95787099999995,
                    "velocity": 0.4094488188976378,
                },
                {
                    "duration": 0.19856739062498718,
                    "durationTicks": 61,
                    "midi": 76,
                    "name": "E5",
                    "ticks": 88832,
                    "time": 289.166204,
                    "velocity": 0.4094488188976378,
                },
                {
                    "duration": 0.19856739062498718,
                    "durationTicks": 61,
                    "midi": 73,
                    "name": "C#5",
                    "ticks": 88896,
                    "time": 289.374537,
                    "velocity": 0.3543307086614173,
                },
                {
                    "duration": 0.19856739062504403,
                    "durationTicks": 61,
                    "midi": 67,
                    "name": "G4",
                    "ticks": 88960,
                    "time": 289.58286999999996,
                    "velocity": 0.33858267716535434,
                },
                {
                    "duration": 0.19856739062498718,
                    "durationTicks": 61,
                    "midi": 76,
                    "name": "E5",
                    "ticks": 89024,
                    "time": 289.791203,
                    "velocity": 0.48031496062992124,
                },
                {
                    "duration": 0.3971347812500312,
                    "durationTicks": 122,
                    "midi": 77,
                    "name": "F5",
                    "ticks": 89088,
                    "time": 289.999536,
                    "velocity": 0.4330708661417323,
                },
                {
                    "duration": 0.19856739062498718,
                    "durationTicks": 61,
                    "midi": 65,
                    "name": "F4",
                    "ticks": 89664,
                    "time": 291.874533,
                    "velocity": 0.33858267716535434,
                },
                {
                    "duration": 0.19856739062498718,
                    "durationTicks": 61,
                    "midi": 62,
                    "name": "D4",
                    "ticks": 89728,
                    "time": 292.08286599999997,
                    "velocity": 0.33070866141732286,
                },
                {
                    "duration": 0.19856739062498718,
                    "durationTicks": 61,
                    "midi": 65,
                    "name": "F4",
                    "ticks": 89792,
                    "time": 292.291199,
                    "velocity": 0.3779527559055118,
                },
                {
                    "duration": 0.19856739062498718,
                    "durationTicks": 61,
                    "midi": 71,
                    "name": "B4",
                    "ticks": 89856,
                    "time": 292.499532,
                    "velocity": 0.44881889763779526,
                },
                {
                    "duration": 0.19856739062498718,
                    "durationTicks": 61,
                    "midi": 65,
                    "name": "F4",
                    "ticks": 89920,
                    "time": 292.70786499999997,
                    "velocity": 0.30708661417322836,
                },
                {
                    "duration": 0.19856739062498718,
                    "durationTicks": 61,
                    "midi": 62,
                    "name": "D4",
                    "ticks": 89984,
                    "time": 292.916198,
                    "velocity": 0.33070866141732286,
                },
                {
                    "duration": 0.19856739062498718,
                    "durationTicks": 61,
                    "midi": 74,
                    "name": "D5",
                    "ticks": 90048,
                    "time": 293.124531,
                    "velocity": 0.49606299212598426,
                },
                {
                    "duration": 0.3971347812500312,
                    "durationTicks": 122,
                    "midi": 64,
                    "name": "E4",
                    "ticks": 90112,
                    "time": 293.332864,
                    "velocity": 0.3700787401574803,
                },
                {
                    "duration": 0.3971347812500312,
                    "durationTicks": 122,
                    "midi": 73,
                    "name": "C#5",
                    "ticks": 90112,
                    "time": 293.332864,
                    "velocity": 0.3700787401574803,
                },
                {
                    "duration": 0.19856739062498718,
                    "durationTicks": 61,
                    "midi": 73,
                    "name": "C#5",
                    "ticks": 90688,
                    "time": 295.207861,
                    "velocity": 0.3858267716535433,
                },
                {
                    "duration": 0.19856739062504403,
                    "durationTicks": 61,
                    "midi": 67,
                    "name": "G4",
                    "ticks": 90752,
                    "time": 295.41619399999996,
                    "velocity": 0.33858267716535434,
                },
                {
                    "duration": 0.19856739062498718,
                    "durationTicks": 61,
                    "midi": 73,
                    "name": "C#5",
                    "ticks": 90816,
                    "time": 295.624527,
                    "velocity": 0.4566929133858268,
                },
                {
                    "duration": 0.19856739062498718,
                    "durationTicks": 61,
                    "midi": 76,
                    "name": "E5",
                    "ticks": 90880,
                    "time": 295.83286,
                    "velocity": 0.4881889763779528,
                },
                {
                    "duration": 0.19856739062504403,
                    "durationTicks": 61,
                    "midi": 73,
                    "name": "C#5",
                    "ticks": 90944,
                    "time": 296.04119299999996,
                    "velocity": 0.4409448818897638,
                },
                {
                    "duration": 0.19856739062498718,
                    "durationTicks": 61,
                    "midi": 67,
                    "name": "G4",
                    "ticks": 91008,
                    "time": 296.249526,
                    "velocity": 0.3779527559055118,
                },
                {
                    "duration": 0.19856739062498718,
                    "durationTicks": 61,
                    "midi": 76,
                    "name": "E5",
                    "ticks": 91072,
                    "time": 296.457859,
                    "velocity": 0.5905511811023622,
                },
                {
                    "duration": 0.3971347812500312,
                    "durationTicks": 122,
                    "midi": 77,
                    "name": "F5",
                    "ticks": 91136,
                    "time": 296.66619199999997,
                    "velocity": 0.4566929133858268,
                },
                {
                    "duration": 0.19856739062498718,
                    "durationTicks": 61,
                    "midi": 65,
                    "name": "F4",
                    "ticks": 91712,
                    "time": 298.541189,
                    "velocity": 0.5039370078740157,
                },
                {
                    "duration": 0.19856739062504403,
                    "durationTicks": 61,
                    "midi": 62,
                    "name": "D4",
                    "ticks": 91776,
                    "time": 298.74952199999996,
                    "velocity": 0.5039370078740157,
                },
                {
                    "duration": 0.19856739062498718,
                    "durationTicks": 61,
                    "midi": 65,
                    "name": "F4",
                    "ticks": 91840,
                    "time": 298.957855,
                    "velocity": 0.6062992125984252,
                },
                {
                    "duration": 0.19856739062498718,
                    "durationTicks": 61,
                    "midi": 71,
                    "name": "B4",
                    "ticks": 91904,
                    "time": 299.166188,
                    "velocity": 0.6692913385826772,
                },
                {
                    "duration": 0.19856739062504403,
                    "durationTicks": 61,
                    "midi": 65,
                    "name": "F4",
                    "ticks": 91968,
                    "time": 299.37452099999996,
                    "velocity": 0.5039370078740157,
                },
                {
                    "duration": 0.19856739062498718,
                    "durationTicks": 61,
                    "midi": 62,
                    "name": "D4",
                    "ticks": 92032,
                    "time": 299.582854,
                    "velocity": 0.5590551181102362,
                },
                {
                    "duration": 0.19856739062498718,
                    "durationTicks": 61,
                    "midi": 74,
                    "name": "D5",
                    "ticks": 92096,
                    "time": 299.791187,
                    "velocity": 0.7559055118110236,
                },
                {
                    "duration": 0.3971347812500312,
                    "durationTicks": 122,
                    "midi": 73,
                    "name": "C#5",
                    "ticks": 92160,
                    "time": 299.99951999999996,
                    "velocity": 0.5748031496062992,
                },
                {
                    "duration": 0.19856739062498718,
                    "durationTicks": 61,
                    "midi": 65,
                    "name": "F4",
                    "ticks": 92736,
                    "time": 301.87451699999997,
                    "velocity": 0.47244094488188976,
                },
                {
                    "duration": 0.19856739062498718,
                    "durationTicks": 61,
                    "midi": 62,
                    "name": "D4",
                    "ticks": 92800,
                    "time": 302.08285,
                    "velocity": 0.4566929133858268,
                },
                {
                    "duration": 0.19856739062498718,
                    "durationTicks": 61,
                    "midi": 65,
                    "name": "F4",
                    "ticks": 92864,
                    "time": 302.291183,
                    "velocity": 0.5196850393700787,
                },
                {
                    "duration": 0.19856739062498718,
                    "durationTicks": 61,
                    "midi": 71,
                    "name": "B4",
                    "ticks": 92928,
                    "time": 302.49951599999997,
                    "velocity": 0.4645669291338583,
                },
                {
                    "duration": 0.19856739062504403,
                    "durationTicks": 61,
                    "midi": 65,
                    "name": "F4",
                    "ticks": 92992,
                    "time": 302.70784899999995,
                    "velocity": 0.3937007874015748,
                },
                {
                    "duration": 0.19856739062498718,
                    "durationTicks": 61,
                    "midi": 62,
                    "name": "D4",
                    "ticks": 93056,
                    "time": 302.916182,
                    "velocity": 0.33858267716535434,
                },
                {
                    "duration": 0.19856739062498718,
                    "durationTicks": 61,
                    "midi": 68,
                    "name": "G#4",
                    "ticks": 93120,
                    "time": 303.124515,
                    "velocity": 0.4409448818897638,
                },
                {
                    "duration": 0.7942695625000056,
                    "durationTicks": 244,
                    "midi": 69,
                    "name": "A4",
                    "ticks": 93184,
                    "time": 303.33284799999996,
                    "velocity": 0.33070866141732286,
                },
                {
                    "duration": 0.23762982812496602,
                    "durationTicks": 73,
                    "midi": 69,
                    "name": "A4",
                    "ticks": 93440,
                    "time": 304.16618,
                    "velocity": 0.2677165354330709,
                },
                {
                    "duration": 0.23762982812502287,
                    "durationTicks": 73,
                    "midi": 71,
                    "name": "B4",
                    "ticks": 93568,
                    "time": 304.58284599999996,
                    "velocity": 0.3228346456692913,
                },
                {
                    "duration": 0.4752596562499889,
                    "durationTicks": 146,
                    "midi": 72,
                    "name": "C5",
                    "ticks": 93696,
                    "time": 304.999512,
                    "velocity": 0.31496062992125984,
                },
                {
                    "duration": 0.4492180312500409,
                    "durationTicks": 138,
                    "midi": 72,
                    "name": "C5",
                    "ticks": 93952,
                    "time": 305.83284399999997,
                    "velocity": 0.2755905511811024,
                },
                {
                    "duration": 0.7942695624999487,
                    "durationTicks": 244,
                    "midi": 71,
                    "name": "B4",
                    "ticks": 94208,
                    "time": 306.666176,
                    "velocity": 0.25984251968503935,
                },
                {
                    "duration": 0.23762982812496602,
                    "durationTicks": 73,
                    "midi": 71,
                    "name": "B4",
                    "ticks": 94464,
                    "time": 307.499508,
                    "velocity": 0.29133858267716534,
                },
                {
                    "duration": 0.23762982812502287,
                    "durationTicks": 73,
                    "midi": 73,
                    "name": "C#5",
                    "ticks": 94592,
                    "time": 307.91617399999996,
                    "velocity": 0.31496062992125984,
                },
                {
                    "duration": 0.23762982812502287,
                    "durationTicks": 73,
                    "midi": 74,
                    "name": "D5",
                    "ticks": 94720,
                    "time": 308.33284,
                    "velocity": 0.30708661417322836,
                },
                {
                    "duration": 0.23762982812496602,
                    "durationTicks": 73,
                    "midi": 72,
                    "name": "C5",
                    "ticks": 94848,
                    "time": 308.749506,
                    "velocity": 0.2204724409448819,
                },
                {
                    "duration": 0.23762982812502287,
                    "durationTicks": 73,
                    "midi": 71,
                    "name": "B4",
                    "ticks": 94976,
                    "time": 309.16617199999996,
                    "velocity": 0.25196850393700787,
                },
                {
                    "duration": 0.23762982812502287,
                    "durationTicks": 73,
                    "midi": 69,
                    "name": "A4",
                    "ticks": 95104,
                    "time": 309.582838,
                    "velocity": 0.28346456692913385,
                },
                {
                    "duration": 0.11718731249999337,
                    "durationTicks": 36,
                    "midi": 67,
                    "name": "G4",
                    "ticks": 95232,
                    "time": 309.999504,
                    "velocity": 0.25984251968503935,
                },
                {
                    "duration": 0.11718731249999337,
                    "durationTicks": 36,
                    "midi": 69,
                    "name": "A4",
                    "ticks": 95296,
                    "time": 310.207837,
                    "velocity": 0.44881889763779526,
                },
                {
                    "duration": 0.11718731249999337,
                    "durationTicks": 36,
                    "midi": 71,
                    "name": "B4",
                    "ticks": 95360,
                    "time": 310.41616999999997,
                    "velocity": 0.41732283464566927,
                },
                {
                    "duration": 0.11718731249999337,
                    "durationTicks": 36,
                    "midi": 69,
                    "name": "A4",
                    "ticks": 95424,
                    "time": 310.624503,
                    "velocity": 0.3543307086614173,
                },
                {
                    "duration": 0.11718731249999337,
                    "durationTicks": 36,
                    "midi": 67,
                    "name": "G4",
                    "ticks": 95488,
                    "time": 310.832836,
                    "velocity": 0.3543307086614173,
                },
                {
                    "duration": 0.11718731249999337,
                    "durationTicks": 36,
                    "midi": 69,
                    "name": "A4",
                    "ticks": 95552,
                    "time": 311.04116899999997,
                    "velocity": 0.4094488188976378,
                },
                {
                    "duration": 0.11718731249999337,
                    "durationTicks": 36,
                    "midi": 67,
                    "name": "G4",
                    "ticks": 95616,
                    "time": 311.249502,
                    "velocity": 0.3858267716535433,
                },
                {
                    "duration": 0.11718731249999337,
                    "durationTicks": 36,
                    "midi": 66,
                    "name": "F#4",
                    "ticks": 95680,
                    "time": 311.457835,
                    "velocity": 0.36220472440944884,
                },
                {
                    "duration": 0.11718731249999337,
                    "durationTicks": 36,
                    "midi": 64,
                    "name": "E4",
                    "ticks": 95744,
                    "time": 311.66616799999997,
                    "velocity": 0.3464566929133858,
                },
                {
                    "duration": 0.11718731250005021,
                    "durationTicks": 36,
                    "midi": 66,
                    "name": "F#4",
                    "ticks": 95808,
                    "time": 311.87450099999995,
                    "velocity": 0.4094488188976378,
                },
                {
                    "duration": 0.11718731249999337,
                    "durationTicks": 36,
                    "midi": 67,
                    "name": "G4",
                    "ticks": 95872,
                    "time": 312.082834,
                    "velocity": 0.41732283464566927,
                },
                {
                    "duration": 0.11718731249999337,
                    "durationTicks": 36,
                    "midi": 69,
                    "name": "A4",
                    "ticks": 95936,
                    "time": 312.291167,
                    "velocity": 0.3858267716535433,
                },
                {
                    "duration": 0.11718731250005021,
                    "durationTicks": 36,
                    "midi": 71,
                    "name": "B4",
                    "ticks": 96000,
                    "time": 312.49949999999995,
                    "velocity": 0.41732283464566927,
                },
                {
                    "duration": 0.11718731249999337,
                    "durationTicks": 36,
                    "midi": 73,
                    "name": "C#5",
                    "ticks": 96064,
                    "time": 312.707833,
                    "velocity": 0.4251968503937008,
                },
                {
                    "duration": 0.11718731249999337,
                    "durationTicks": 36,
                    "midi": 75,
                    "name": "D#5",
                    "ticks": 96128,
                    "time": 312.916166,
                    "velocity": 0.4094488188976378,
                },
                {
                    "duration": 0.11718731250005021,
                    "durationTicks": 36,
                    "midi": 76,
                    "name": "E5",
                    "ticks": 96192,
                    "time": 313.12449899999996,
                    "velocity": 0.4251968503937008,
                },
                {
                    "duration": 0.11718731249999337,
                    "durationTicks": 36,
                    "midi": 76,
                    "name": "E5",
                    "ticks": 96256,
                    "time": 313.332832,
                    "velocity": 0.41732283464566927,
                },
                {
                    "duration": 0.11718731249999337,
                    "durationTicks": 36,
                    "midi": 69,
                    "name": "A4",
                    "ticks": 96320,
                    "time": 313.541165,
                    "velocity": 0.2992125984251969,
                },
                {
                    "duration": 0.11718731249999337,
                    "durationTicks": 36,
                    "midi": 71,
                    "name": "B4",
                    "ticks": 96384,
                    "time": 313.74949799999996,
                    "velocity": 0.4251968503937008,
                },
                {
                    "duration": 0.11718731249999337,
                    "durationTicks": 36,
                    "midi": 73,
                    "name": "C#5",
                    "ticks": 96448,
                    "time": 313.957831,
                    "velocity": 0.41732283464566927,
                },
                {
                    "duration": 0.11718731249999337,
                    "durationTicks": 36,
                    "midi": 74,
                    "name": "D5",
                    "ticks": 96512,
                    "time": 314.166164,
                    "velocity": 0.41732283464566927,
                },
                {
                    "duration": 0.11718731249999337,
                    "durationTicks": 36,
                    "midi": 71,
                    "name": "B4",
                    "ticks": 96576,
                    "time": 314.37449699999996,
                    "velocity": 0.3464566929133858,
                },
                {
                    "duration": 0.11718731249999337,
                    "durationTicks": 36,
                    "midi": 76,
                    "name": "E5",
                    "ticks": 96640,
                    "time": 314.58283,
                    "velocity": 0.4094488188976378,
                },
                {
                    "duration": 0.11718731249999337,
                    "durationTicks": 36,
                    "midi": 74,
                    "name": "D5",
                    "ticks": 96704,
                    "time": 314.791163,
                    "velocity": 0.33858267716535434,
                },
                {
                    "duration": 0.11718731249999337,
                    "durationTicks": 36,
                    "midi": 72,
                    "name": "C5",
                    "ticks": 96768,
                    "time": 314.99949599999997,
                    "velocity": 0.4330708661417323,
                },
                {
                    "duration": 0.11718731249999337,
                    "durationTicks": 36,
                    "midi": 71,
                    "name": "B4",
                    "ticks": 96832,
                    "time": 315.207829,
                    "velocity": 0.3464566929133858,
                },
                {
                    "duration": 0.11718731249999337,
                    "durationTicks": 36,
                    "midi": 72,
                    "name": "C5",
                    "ticks": 96896,
                    "time": 315.416162,
                    "velocity": 0.4330708661417323,
                },
                {
                    "duration": 0.11718731249999337,
                    "durationTicks": 36,
                    "midi": 74,
                    "name": "D5",
                    "ticks": 96960,
                    "time": 315.62449499999997,
                    "velocity": 0.3937007874015748,
                },
                {
                    "duration": 0.11718731249999337,
                    "durationTicks": 36,
                    "midi": 76,
                    "name": "E5",
                    "ticks": 97024,
                    "time": 315.832828,
                    "velocity": 0.41732283464566927,
                },
                {
                    "duration": 0.11718731249999337,
                    "durationTicks": 36,
                    "midi": 64,
                    "name": "E4",
                    "ticks": 97088,
                    "time": 316.041161,
                    "velocity": 0.31496062992125984,
                },
                {
                    "duration": 0.11718731249999337,
                    "durationTicks": 36,
                    "midi": 66,
                    "name": "F#4",
                    "ticks": 97152,
                    "time": 316.24949399999997,
                    "velocity": 0.41732283464566927,
                },
                {
                    "duration": 0.11718731250005021,
                    "durationTicks": 36,
                    "midi": 68,
                    "name": "G#4",
                    "ticks": 97216,
                    "time": 316.45782699999995,
                    "velocity": 0.4015748031496063,
                },
                {
                    "duration": 0.7942695625000056,
                    "durationTicks": 244,
                    "midi": 69,
                    "name": "A4",
                    "ticks": 97280,
                    "time": 316.66616,
                    "velocity": 0.3937007874015748,
                },
                {
                    "duration": 0.813800781249995,
                    "durationTicks": 250,
                    "midi": 78,
                    "name": "F#5",
                    "ticks": 99200,
                    "time": 322.91614999999996,
                    "velocity": 0.3464566929133858,
                },
                {
                    "duration": 0.7942695625000056,
                    "durationTicks": 244,
                    "midi": 76,
                    "name": "E5",
                    "ticks": 99456,
                    "time": 323.749482,
                    "velocity": 0.28346456692913385,
                },
                {
                    "duration": 0.813800781249995,
                    "durationTicks": 250,
                    "midi": 83,
                    "name": "B5",
                    "ticks": 99712,
                    "time": 324.582814,
                    "velocity": 0.3464566929133858,
                },
                {
                    "duration": 0.7942695625000056,
                    "durationTicks": 244,
                    "midi": 76,
                    "name": "E5",
                    "ticks": 99968,
                    "time": 325.41614599999997,
                    "velocity": 0.2440944881889764,
                },
                {
                    "duration": 0.8138007812500518,
                    "durationTicks": 250,
                    "midi": 83,
                    "name": "B5",
                    "ticks": 100224,
                    "time": 326.24947799999995,
                    "velocity": 0.31496062992125984,
                },
                {
                    "duration": 0.7942695625000056,
                    "durationTicks": 244,
                    "midi": 81,
                    "name": "A5",
                    "ticks": 100480,
                    "time": 327.08281,
                    "velocity": 0.29133858267716534,
                },
                {
                    "duration": 0.39713478124997437,
                    "durationTicks": 122,
                    "midi": 83,
                    "name": "B5",
                    "ticks": 100736,
                    "time": 327.916142,
                    "velocity": 0.31496062992125984,
                },
                {
                    "duration": 0.23762982812496602,
                    "durationTicks": 73,
                    "midi": 84,
                    "name": "C6",
                    "ticks": 100864,
                    "time": 328.332808,
                    "velocity": 0.3228346456692913,
                },
                {
                    "duration": 0.23762982812502287,
                    "durationTicks": 73,
                    "midi": 81,
                    "name": "A5",
                    "ticks": 100992,
                    "time": 328.74947399999996,
                    "velocity": 0.25196850393700787,
                },
                {
                    "duration": 0.11718731249999337,
                    "durationTicks": 36,
                    "midi": 80,
                    "name": "G#5",
                    "ticks": 101120,
                    "time": 329.16614,
                    "velocity": 0.25196850393700787,
                },
                {
                    "duration": 0.11718731249999337,
                    "durationTicks": 36,
                    "midi": 80,
                    "name": "G#5",
                    "ticks": 101184,
                    "time": 329.37447299999997,
                    "velocity": 0.2677165354330709,
                },
                {
                    "duration": 0.11718731249999337,
                    "durationTicks": 36,
                    "midi": 81,
                    "name": "A5",
                    "ticks": 101248,
                    "time": 329.582806,
                    "velocity": 0.2677165354330709,
                },
                {
                    "duration": 0.11718731249999337,
                    "durationTicks": 36,
                    "midi": 83,
                    "name": "B5",
                    "ticks": 101312,
                    "time": 329.791139,
                    "velocity": 0.30708661417322836,
                },
                {
                    "duration": 0.7942695625000056,
                    "durationTicks": 244,
                    "midi": 81,
                    "name": "A5",
                    "ticks": 101376,
                    "time": 329.99947199999997,
                    "velocity": 0.2440944881889764,
                },
                {
                    "duration": 0.11718731249999337,
                    "durationTicks": 36,
                    "midi": 78,
                    "name": "F#5",
                    "ticks": 102208,
                    "time": 332.70780099999996,
                    "velocity": 0.3543307086614173,
                },
                {
                    "duration": 0.11718731249999337,
                    "durationTicks": 36,
                    "midi": 79,
                    "name": "G5",
                    "ticks": 102272,
                    "time": 332.916134,
                    "velocity": 0.4015748031496063,
                },
                {
                    "duration": 0.11718731249999337,
                    "durationTicks": 36,
                    "midi": 81,
                    "name": "A5",
                    "ticks": 102336,
                    "time": 333.124467,
                    "velocity": 0.3779527559055118,
                },
                {
                    "duration": 0.3971347812500312,
                    "durationTicks": 122,
                    "midi": 79,
                    "name": "G5",
                    "ticks": 102400,
                    "time": 333.33279999999996,
                    "velocity": 0.33858267716535434,
                },
                {
                    "duration": 0.39713478124997437,
                    "durationTicks": 122,
                    "midi": 67,
                    "name": "G4",
                    "ticks": 102528,
                    "time": 333.749466,
                    "velocity": 0.28346456692913385,
                },
                {
                    "duration": 1.62760156249999,
                    "durationTicks": 500,
                    "midi": 72,
                    "name": "C5",
                    "ticks": 102656,
                    "time": 334.166132,
                    "velocity": 0.3779527559055118,
                },
                {
                    "duration": 0.23762982812502287,
                    "durationTicks": 73,
                    "midi": 72,
                    "name": "C5",
                    "ticks": 103168,
                    "time": 335.832796,
                    "velocity": 0.4094488188976378,
                },
                {
                    "duration": 0.23762982812496602,
                    "durationTicks": 73,
                    "midi": 74,
                    "name": "D5",
                    "ticks": 103296,
                    "time": 336.249462,
                    "velocity": 0.3858267716535433,
                },
                {
                    "duration": 0.47525965625004574,
                    "durationTicks": 146,
                    "midi": 76,
                    "name": "E5",
                    "ticks": 103424,
                    "time": 336.66612799999996,
                    "velocity": 0.4330708661417323,
                },
                {
                    "duration": 0.44921803124998405,
                    "durationTicks": 138,
                    "midi": 76,
                    "name": "E5",
                    "ticks": 103680,
                    "time": 337.49946,
                    "velocity": 0.3779527559055118,
                },
                {
                    "duration": 0.11718731249999337,
                    "durationTicks": 36,
                    "midi": 71,
                    "name": "B4",
                    "ticks": 103936,
                    "time": 338.332792,
                    "velocity": 0.33070866141732286,
                },
                {
                    "duration": 0.11718731249999337,
                    "durationTicks": 36,
                    "midi": 72,
                    "name": "C5",
                    "ticks": 104000,
                    "time": 338.54112499999997,
                    "velocity": 0.3937007874015748,
                },
                {
                    "duration": 0.11718731249999337,
                    "durationTicks": 36,
                    "midi": 74,
                    "name": "D5",
                    "ticks": 104064,
                    "time": 338.749458,
                    "velocity": 0.4094488188976378,
                },
                {
                    "duration": 0.11718731249999337,
                    "durationTicks": 36,
                    "midi": 72,
                    "name": "C5",
                    "ticks": 104128,
                    "time": 338.957791,
                    "velocity": 0.3779527559055118,
                },
                {
                    "duration": 0.11718731249999337,
                    "durationTicks": 36,
                    "midi": 71,
                    "name": "B4",
                    "ticks": 104192,
                    "time": 339.16612399999997,
                    "velocity": 0.3543307086614173,
                },
                {
                    "duration": 0.11718731249999337,
                    "durationTicks": 36,
                    "midi": 74,
                    "name": "D5",
                    "ticks": 104256,
                    "time": 339.374457,
                    "velocity": 0.3937007874015748,
                },
                {
                    "duration": 0.11718731249999337,
                    "durationTicks": 36,
                    "midi": 72,
                    "name": "C5",
                    "ticks": 104320,
                    "time": 339.58279,
                    "velocity": 0.3543307086614173,
                },
                {
                    "duration": 0.11718731249999337,
                    "durationTicks": 36,
                    "midi": 71,
                    "name": "B4",
                    "ticks": 104384,
                    "time": 339.79112299999997,
                    "velocity": 0.3700787401574803,
                },
                {
                    "duration": 0.11718731250005021,
                    "durationTicks": 36,
                    "midi": 69,
                    "name": "A4",
                    "ticks": 104448,
                    "time": 339.99945599999995,
                    "velocity": 0.3700787401574803,
                },
                {
                    "duration": 0.11718731249999337,
                    "durationTicks": 36,
                    "midi": 71,
                    "name": "B4",
                    "ticks": 104512,
                    "time": 340.207789,
                    "velocity": 0.4094488188976378,
                },
                {
                    "duration": 0.11718731249999337,
                    "durationTicks": 36,
                    "midi": 72,
                    "name": "C5",
                    "ticks": 104576,
                    "time": 340.416122,
                    "velocity": 0.4251968503937008,
                },
                {
                    "duration": 0.11718731250005021,
                    "durationTicks": 36,
                    "midi": 74,
                    "name": "D5",
                    "ticks": 104640,
                    "time": 340.62445499999995,
                    "velocity": 0.4251968503937008,
                },
                {
                    "duration": 0.11718731249999337,
                    "durationTicks": 36,
                    "midi": 76,
                    "name": "E5",
                    "ticks": 104704,
                    "time": 340.832788,
                    "velocity": 0.3779527559055118,
                },
                {
                    "duration": 0.11718731249999337,
                    "durationTicks": 36,
                    "midi": 78,
                    "name": "F#5",
                    "ticks": 104768,
                    "time": 341.041121,
                    "velocity": 0.4094488188976378,
                },
                {
                    "duration": 0.11718731249999337,
                    "durationTicks": 36,
                    "midi": 80,
                    "name": "G#5",
                    "ticks": 104832,
                    "time": 341.24945399999996,
                    "velocity": 0.3779527559055118,
                },
                {
                    "duration": 0.11718731249999337,
                    "durationTicks": 36,
                    "midi": 81,
                    "name": "A5",
                    "ticks": 104896,
                    "time": 341.457787,
                    "velocity": 0.4094488188976378,
                },
                {
                    "duration": 0.11718731249999337,
                    "durationTicks": 36,
                    "midi": 67,
                    "name": "G4",
                    "ticks": 104960,
                    "time": 341.66612,
                    "velocity": 0.2755905511811024,
                },
                {
                    "duration": 0.11718731249999337,
                    "durationTicks": 36,
                    "midi": 69,
                    "name": "A4",
                    "ticks": 105024,
                    "time": 341.87445299999996,
                    "velocity": 0.3543307086614173,
                },
                {
                    "duration": 0.11718731249999337,
                    "durationTicks": 36,
                    "midi": 70,
                    "name": "A#4",
                    "ticks": 105088,
                    "time": 342.082786,
                    "velocity": 0.3858267716535433,
                },
                {
                    "duration": 0.11718731249999337,
                    "durationTicks": 36,
                    "midi": 69,
                    "name": "A4",
                    "ticks": 105152,
                    "time": 342.291119,
                    "velocity": 0.3700787401574803,
                },
                {
                    "duration": 0.11718731249999337,
                    "durationTicks": 36,
                    "midi": 67,
                    "name": "G4",
                    "ticks": 105216,
                    "time": 342.49945199999996,
                    "velocity": 0.33070866141732286,
                },
                {
                    "duration": 0.11718731249999337,
                    "durationTicks": 36,
                    "midi": 70,
                    "name": "A#4",
                    "ticks": 105280,
                    "time": 342.707785,
                    "velocity": 0.4251968503937008,
                },
                {
                    "duration": 0.11718731249999337,
                    "durationTicks": 36,
                    "midi": 69,
                    "name": "A4",
                    "ticks": 105344,
                    "time": 342.916118,
                    "velocity": 0.36220472440944884,
                },
                {
                    "duration": 0.11718731249999337,
                    "durationTicks": 36,
                    "midi": 67,
                    "name": "G4",
                    "ticks": 105408,
                    "time": 343.12445099999997,
                    "velocity": 0.3779527559055118,
                },
                {
                    "duration": 0.11718731249999337,
                    "durationTicks": 36,
                    "midi": 65,
                    "name": "F4",
                    "ticks": 105472,
                    "time": 343.332784,
                    "velocity": 0.36220472440944884,
                },
                {
                    "duration": 0.11718731249999337,
                    "durationTicks": 36,
                    "midi": 67,
                    "name": "G4",
                    "ticks": 105536,
                    "time": 343.541117,
                    "velocity": 0.41732283464566927,
                },
                {
                    "duration": 0.11718731249999337,
                    "durationTicks": 36,
                    "midi": 69,
                    "name": "A4",
                    "ticks": 105600,
                    "time": 343.74944999999997,
                    "velocity": 0.41732283464566927,
                },
                {
                    "duration": 0.11718731249999337,
                    "durationTicks": 36,
                    "midi": 70,
                    "name": "A#4",
                    "ticks": 105664,
                    "time": 343.957783,
                    "velocity": 0.3937007874015748,
                },
                {
                    "duration": 0.39713478124997437,
                    "durationTicks": 122,
                    "midi": 72,
                    "name": "C5",
                    "ticks": 105728,
                    "time": 344.166116,
                    "velocity": 0.4094488188976378,
                },
                {
                    "duration": 0.8138007812500518,
                    "durationTicks": 250,
                    "midi": 81,
                    "name": "A5",
                    "ticks": 105856,
                    "time": 344.58278199999995,
                    "velocity": 0.4566929133858268,
                },
                {
                    "duration": 0.7942695625000056,
                    "durationTicks": 244,
                    "midi": 79,
                    "name": "G5",
                    "ticks": 106112,
                    "time": 345.416114,
                    "velocity": 0.3779527559055118,
                },
                {
                    "duration": 0.813800781249995,
                    "durationTicks": 250,
                    "midi": 79,
                    "name": "G5",
                    "ticks": 106368,
                    "time": 346.249446,
                    "velocity": 0.3543307086614173,
                },
                {
                    "duration": 0.7942695625000056,
                    "durationTicks": 244,
                    "midi": 77,
                    "name": "F5",
                    "ticks": 106624,
                    "time": 347.08277799999996,
                    "velocity": 0.3937007874015748,
                },
                {
                    "duration": 0.39713478124997437,
                    "durationTicks": 122,
                    "midi": 77,
                    "name": "F5",
                    "ticks": 106880,
                    "time": 347.91611,
                    "velocity": 0.3464566929133858,
                },
                {
                    "duration": 0.11718731249999337,
                    "durationTicks": 36,
                    "midi": 77,
                    "name": "F5",
                    "ticks": 107008,
                    "time": 348.33277599999997,
                    "velocity": 0.41732283464566927,
                },
                {
                    "duration": 0.11718731249999337,
                    "durationTicks": 36,
                    "midi": 74,
                    "name": "D5",
                    "ticks": 107072,
                    "time": 348.541109,
                    "velocity": 0.3858267716535433,
                },
                {
                    "duration": 0.11718731249999337,
                    "durationTicks": 36,
                    "midi": 76,
                    "name": "E5",
                    "ticks": 107136,
                    "time": 348.749442,
                    "velocity": 0.4409448818897638,
                },
                {
                    "duration": 0.11718731249999337,
                    "durationTicks": 36,
                    "midi": 77,
                    "name": "F5",
                    "ticks": 107200,
                    "time": 348.95777499999997,
                    "velocity": 0.4645669291338583,
                },
                {
                    "duration": 0.11718731250005021,
                    "durationTicks": 36,
                    "midi": 74,
                    "name": "D5",
                    "ticks": 107264,
                    "time": 349.16610799999995,
                    "velocity": 0.41732283464566927,
                },
                {
                    "duration": 0.11718731249999337,
                    "durationTicks": 36,
                    "midi": 71,
                    "name": "B4",
                    "ticks": 107328,
                    "time": 349.374441,
                    "velocity": 0.4094488188976378,
                },
                {
                    "duration": 0.11718731249999337,
                    "durationTicks": 36,
                    "midi": 72,
                    "name": "C5",
                    "ticks": 107392,
                    "time": 349.582774,
                    "velocity": 0.4881889763779528,
                },
                {
                    "duration": 0.11718731250005021,
                    "durationTicks": 36,
                    "midi": 74,
                    "name": "D5",
                    "ticks": 107456,
                    "time": 349.79110699999995,
                    "velocity": 0.5039370078740157,
                },
                {
                    "duration": 0.11718731249999337,
                    "durationTicks": 36,
                    "midi": 71,
                    "name": "B4",
                    "ticks": 107520,
                    "time": 349.99944,
                    "velocity": 0.4409448818897638,
                },
                {
                    "duration": 0.11718731249999337,
                    "durationTicks": 36,
                    "midi": 68,
                    "name": "G#4",
                    "ticks": 107584,
                    "time": 350.207773,
                    "velocity": 0.4566929133858268,
                },
                {
                    "duration": 0.11718731250005021,
                    "durationTicks": 36,
                    "midi": 69,
                    "name": "A4",
                    "ticks": 107648,
                    "time": 350.41610599999996,
                    "velocity": 0.5590551181102362,
                },
                {
                    "duration": 0.11718731249999337,
                    "durationTicks": 36,
                    "midi": 71,
                    "name": "B4",
                    "ticks": 107712,
                    "time": 350.624439,
                    "velocity": 0.5669291338582677,
                },
                {
                    "duration": 0.11718731249999337,
                    "durationTicks": 36,
                    "midi": 68,
                    "name": "G#4",
                    "ticks": 107776,
                    "time": 350.832772,
                    "velocity": 0.5275590551181102,
                },
                {
                    "duration": 0.11718731249999337,
                    "durationTicks": 36,
                    "midi": 69,
                    "name": "A4",
                    "ticks": 107840,
                    "time": 351.04110499999996,
                    "velocity": 0.6377952755905512,
                },
                {
                    "duration": 0.11718731249999337,
                    "durationTicks": 36,
                    "midi": 71,
                    "name": "B4",
                    "ticks": 107904,
                    "time": 351.249438,
                    "velocity": 0.6535433070866141,
                },
                {
                    "duration": 0.11718731249999337,
                    "durationTicks": 36,
                    "midi": 72,
                    "name": "C5",
                    "ticks": 107968,
                    "time": 351.457771,
                    "velocity": 0.6299212598425197,
                },
                {
                    "duration": 0.11718731249999337,
                    "durationTicks": 36,
                    "midi": 74,
                    "name": "D5",
                    "ticks": 108032,
                    "time": 351.66610399999996,
                    "velocity": 0.6692913385826772,
                },
                {
                    "duration": 0.11718731249999337,
                    "durationTicks": 36,
                    "midi": 76,
                    "name": "E5",
                    "ticks": 108096,
                    "time": 351.874437,
                    "velocity": 0.6771653543307087,
                },
                {
                    "duration": 0.11718731249999337,
                    "durationTicks": 36,
                    "midi": 77,
                    "name": "F5",
                    "ticks": 108160,
                    "time": 352.08277,
                    "velocity": 0.7086614173228346,
                },
                {
                    "duration": 0.11718731249999337,
                    "durationTicks": 36,
                    "midi": 80,
                    "name": "G#5",
                    "ticks": 108224,
                    "time": 352.29110299999996,
                    "velocity": 0.7244094488188977,
                },
                {
                    "duration": 0.11718731249999337,
                    "durationTicks": 36,
                    "midi": 81,
                    "name": "A5",
                    "ticks": 108288,
                    "time": 352.499436,
                    "velocity": 0.7244094488188977,
                },
                {
                    "duration": 0.11718731249999337,
                    "durationTicks": 36,
                    "midi": 83,
                    "name": "B5",
                    "ticks": 108352,
                    "time": 352.707769,
                    "velocity": 0.7322834645669292,
                },
                {
                    "duration": 0.11718731249999337,
                    "durationTicks": 36,
                    "midi": 84,
                    "name": "C6",
                    "ticks": 108416,
                    "time": 352.91610199999997,
                    "velocity": 0.7716535433070866,
                },
                {
                    "duration": 0.11718731249999337,
                    "durationTicks": 36,
                    "midi": 85,
                    "name": "C#6",
                    "ticks": 108480,
                    "time": 353.124435,
                    "velocity": 0.8031496062992126,
                },
                {
                    "duration": 0.11718731249999337,
                    "durationTicks": 36,
                    "midi": 86,
                    "name": "D6",
                    "ticks": 108544,
                    "time": 353.332768,
                    "velocity": 0.7952755905511811,
                },
                {
                    "duration": 0.11718731249999337,
                    "durationTicks": 36,
                    "midi": 88,
                    "name": "E6",
                    "ticks": 108608,
                    "time": 353.54110099999997,
                    "velocity": 0.8188976377952756,
                },
                {
                    "duration": 0.11718731250005021,
                    "durationTicks": 36,
                    "midi": 88,
                    "name": "E6",
                    "ticks": 108672,
                    "time": 353.74943399999995,
                    "velocity": 0.7716535433070866,
                },
                {
                    "duration": 0.11718731249999337,
                    "durationTicks": 36,
                    "midi": 88,
                    "name": "E6",
                    "ticks": 108736,
                    "time": 353.957767,
                    "velocity": 0.7716535433070866,
                },
                {
                    "duration": 0.11718731249999337,
                    "durationTicks": 36,
                    "midi": 88,
                    "name": "E6",
                    "ticks": 108800,
                    "time": 354.1661,
                    "velocity": 0.8110236220472441,
                },
                {
                    "duration": 0.11718731250005021,
                    "durationTicks": 36,
                    "midi": 88,
                    "name": "E6",
                    "ticks": 108864,
                    "time": 354.37443299999995,
                    "velocity": 0.8267716535433071,
                },
                {
                    "duration": 0.11718731249999337,
                    "durationTicks": 36,
                    "midi": 88,
                    "name": "E6",
                    "ticks": 108928,
                    "time": 354.582766,
                    "velocity": 0.84251968503937,
                },
                {
                    "duration": 0.11718731249999337,
                    "durationTicks": 36,
                    "midi": 88,
                    "name": "E6",
                    "ticks": 108992,
                    "time": 354.791099,
                    "velocity": 0.8582677165354331,
                },
                {
                    "duration": 0.7942695625000056,
                    "durationTicks": 244,
                    "midi": 76,
                    "name": "E5",
                    "ticks": 109056,
                    "time": 354.99943199999996,
                    "velocity": 0.8818897637795275,
                },
                {
                    "duration": 0.7942695625000056,
                    "durationTicks": 244,
                    "midi": 88,
                    "name": "E6",
                    "ticks": 109056,
                    "time": 354.99943199999996,
                    "velocity": 0.8818897637795275,
                },
                {
                    "duration": 0.23762982812496602,
                    "durationTicks": 73,
                    "midi": 76,
                    "name": "E5",
                    "ticks": 109312,
                    "time": 355.832764,
                    "velocity": 0.8661417322834646,
                },
                {
                    "duration": 0.23762982812496602,
                    "durationTicks": 73,
                    "midi": 88,
                    "name": "E6",
                    "ticks": 109312,
                    "time": 355.832764,
                    "velocity": 0.8661417322834646,
                },
                {
                    "duration": 0.23762982812502287,
                    "durationTicks": 73,
                    "midi": 76,
                    "name": "E5",
                    "ticks": 109440,
                    "time": 356.24942999999996,
                    "velocity": 0.8740157480314961,
                },
                {
                    "duration": 0.23762982812502287,
                    "durationTicks": 73,
                    "midi": 88,
                    "name": "E6",
                    "ticks": 109440,
                    "time": 356.24942999999996,
                    "velocity": 0.8740157480314961,
                },
                {
                    "duration": 0.4752596562499889,
                    "durationTicks": 146,
                    "midi": 76,
                    "name": "E5",
                    "ticks": 109568,
                    "time": 356.666096,
                    "velocity": 0.8818897637795275,
                },
                {
                    "duration": 0.4752596562499889,
                    "durationTicks": 146,
                    "midi": 88,
                    "name": "E6",
                    "ticks": 109568,
                    "time": 356.666096,
                    "velocity": 0.8818897637795275,
                },
                {
                    "duration": 0.44921803124998405,
                    "durationTicks": 138,
                    "midi": 76,
                    "name": "E5",
                    "ticks": 109824,
                    "time": 357.49942799999997,
                    "velocity": 0.8582677165354331,
                },
                {
                    "duration": 0.44921803124998405,
                    "durationTicks": 138,
                    "midi": 88,
                    "name": "E6",
                    "ticks": 109824,
                    "time": 357.49942799999997,
                    "velocity": 0.8582677165354331,
                },
                {
                    "duration": 0.7942695625000056,
                    "durationTicks": 244,
                    "midi": 76,
                    "name": "E5",
                    "ticks": 110080,
                    "time": 358.33275999999995,
                    "velocity": 0.8818897637795275,
                },
                {
                    "duration": 0.7942695625000056,
                    "durationTicks": 244,
                    "midi": 88,
                    "name": "E6",
                    "ticks": 110080,
                    "time": 358.33275999999995,
                    "velocity": 0.8818897637795275,
                },
                {
                    "duration": 0.23762982812496602,
                    "durationTicks": 73,
                    "midi": 76,
                    "name": "E5",
                    "ticks": 110336,
                    "time": 359.166092,
                    "velocity": 0.8740157480314961,
                },
                {
                    "duration": 0.23762982812496602,
                    "durationTicks": 73,
                    "midi": 88,
                    "name": "E6",
                    "ticks": 110336,
                    "time": 359.166092,
                    "velocity": 0.8740157480314961,
                },
                {
                    "duration": 0.23762982812502287,
                    "durationTicks": 73,
                    "midi": 76,
                    "name": "E5",
                    "ticks": 110464,
                    "time": 359.58275799999996,
                    "velocity": 0.8582677165354331,
                },
                {
                    "duration": 0.23762982812502287,
                    "durationTicks": 73,
                    "midi": 88,
                    "name": "E6",
                    "ticks": 110464,
                    "time": 359.58275799999996,
                    "velocity": 0.8582677165354331,
                },
                {
                    "duration": 0.4752596562499889,
                    "durationTicks": 146,
                    "midi": 76,
                    "name": "E5",
                    "ticks": 110592,
                    "time": 359.999424,
                    "velocity": 0.8740157480314961,
                },
                {
                    "duration": 0.4752596562499889,
                    "durationTicks": 146,
                    "midi": 88,
                    "name": "E6",
                    "ticks": 110592,
                    "time": 359.999424,
                    "velocity": 0.8740157480314961,
                },
                {
                    "duration": 0.4492180312500409,
                    "durationTicks": 138,
                    "midi": 76,
                    "name": "E5",
                    "ticks": 110848,
                    "time": 360.83275599999996,
                    "velocity": 0.8582677165354331,
                },
                {
                    "duration": 0.4492180312500409,
                    "durationTicks": 138,
                    "midi": 88,
                    "name": "E6",
                    "ticks": 110848,
                    "time": 360.83275599999996,
                    "velocity": 0.8582677165354331,
                },
                {
                    "duration": 0.7942695624999487,
                    "durationTicks": 244,
                    "midi": 76,
                    "name": "E5",
                    "ticks": 111104,
                    "time": 361.666088,
                    "velocity": 0.905511811023622,
                },
                {
                    "duration": 0.7942695624999487,
                    "durationTicks": 244,
                    "midi": 88,
                    "name": "E6",
                    "ticks": 111104,
                    "time": 361.666088,
                    "velocity": 0.905511811023622,
                },
                {
                    "duration": 0.39713478124997437,
                    "durationTicks": 122,
                    "midi": 76,
                    "name": "E5",
                    "ticks": 111360,
                    "time": 362.49942,
                    "velocity": 0.8976377952755905,
                },
                {
                    "duration": 0.39713478124997437,
                    "durationTicks": 122,
                    "midi": 88,
                    "name": "E6",
                    "ticks": 111360,
                    "time": 362.49942,
                    "velocity": 0.8976377952755905,
                },
                {
                    "duration": 0.3971347812500312,
                    "durationTicks": 122,
                    "midi": 76,
                    "name": "E5",
                    "ticks": 111488,
                    "time": 362.91608599999995,
                    "velocity": 0.889763779527559,
                },
                {
                    "duration": 0.3971347812500312,
                    "durationTicks": 122,
                    "midi": 88,
                    "name": "E6",
                    "ticks": 111488,
                    "time": 362.91608599999995,
                    "velocity": 0.889763779527559,
                },
                {
                    "duration": 0.4752596562499889,
                    "durationTicks": 146,
                    "midi": 76,
                    "name": "E5",
                    "ticks": 111616,
                    "time": 363.33275199999997,
                    "velocity": 0.9133858267716536,
                },
                {
                    "duration": 0.4752596562499889,
                    "durationTicks": 146,
                    "midi": 88,
                    "name": "E6",
                    "ticks": 111616,
                    "time": 363.33275199999997,
                    "velocity": 0.9133858267716536,
                },
                {
                    "duration": 0.4492180312500409,
                    "durationTicks": 138,
                    "midi": 76,
                    "name": "E5",
                    "ticks": 111872,
                    "time": 364.16608399999996,
                    "velocity": 0.8582677165354331,
                },
                {
                    "duration": 0.4492180312500409,
                    "durationTicks": 138,
                    "midi": 88,
                    "name": "E6",
                    "ticks": 111872,
                    "time": 364.16608399999996,
                    "velocity": 0.8582677165354331,
                },
                {
                    "duration": 0.7942695625000056,
                    "durationTicks": 244,
                    "midi": 76,
                    "name": "E5",
                    "ticks": 112128,
                    "time": 364.999416,
                    "velocity": 0.889763779527559,
                },
                {
                    "duration": 0.7942695625000056,
                    "durationTicks": 244,
                    "midi": 88,
                    "name": "E6",
                    "ticks": 112128,
                    "time": 364.999416,
                    "velocity": 0.889763779527559,
                },
                {
                    "duration": 0.23762982812502287,
                    "durationTicks": 73,
                    "midi": 78,
                    "name": "F#5",
                    "ticks": 112384,
                    "time": 365.832748,
                    "velocity": 0.6456692913385826,
                },
                {
                    "duration": 0.23762982812496602,
                    "durationTicks": 73,
                    "midi": 80,
                    "name": "G#5",
                    "ticks": 112512,
                    "time": 366.249414,
                    "velocity": 0.9212598425196851,
                },
                {
                    "duration": 0.7942695625000056,
                    "durationTicks": 244,
                    "midi": 81,
                    "name": "A5",
                    "ticks": 112640,
                    "time": 366.66607999999997,
                    "velocity": 0.905511811023622,
                },
                {
                    "duration": 0.11718731249999337,
                    "durationTicks": 36,
                    "midi": 74,
                    "name": "D5",
                    "ticks": 113152,
                    "time": 368.332744,
                    "velocity": 0.3779527559055118,
                },
                {
                    "duration": 0.11718731249999337,
                    "durationTicks": 36,
                    "midi": 71,
                    "name": "B4",
                    "ticks": 113216,
                    "time": 368.541077,
                    "velocity": 0.30708661417322836,
                },
                {
                    "duration": 0.11718731250005021,
                    "durationTicks": 36,
                    "midi": 72,
                    "name": "C5",
                    "ticks": 113280,
                    "time": 368.74940999999995,
                    "velocity": 0.3937007874015748,
                },
                {
                    "duration": 0.11718731249999337,
                    "durationTicks": 36,
                    "midi": 74,
                    "name": "D5",
                    "ticks": 113344,
                    "time": 368.957743,
                    "velocity": 0.3937007874015748,
                },
                {
                    "duration": 0.11718731249999337,
                    "durationTicks": 36,
                    "midi": 76,
                    "name": "E5",
                    "ticks": 113408,
                    "time": 369.166076,
                    "velocity": 0.3779527559055118,
                },
                {
                    "duration": 0.11718731249999337,
                    "durationTicks": 36,
                    "midi": 74,
                    "name": "D5",
                    "ticks": 113472,
                    "time": 369.37440899999996,
                    "velocity": 0.3543307086614173,
                },
                {
                    "duration": 0.11718731249999337,
                    "durationTicks": 36,
                    "midi": 72,
                    "name": "C5",
                    "ticks": 113536,
                    "time": 369.582742,
                    "velocity": 0.3543307086614173,
                },
                {
                    "duration": 0.11718731249999337,
                    "durationTicks": 36,
                    "midi": 71,
                    "name": "B4",
                    "ticks": 113600,
                    "time": 369.791075,
                    "velocity": 0.3779527559055118,
                },
                {
                    "duration": 0.7942695625000056,
                    "durationTicks": 244,
                    "midi": 69,
                    "name": "A4",
                    "ticks": 113664,
                    "time": 369.99940799999996,
                    "velocity": 0.3700787401574803,
                },
                {
                    "duration": 0.266926656250007,
                    "durationTicks": 82,
                    "midi": 76,
                    "name": "E5",
                    "ticks": 114432,
                    "time": 372.49940399999997,
                    "velocity": 0.3464566929133858,
                },
                {
                    "duration": 0.266926656250007,
                    "durationTicks": 82,
                    "midi": 74,
                    "name": "D5",
                    "ticks": 114517,
                    "time": 372.776096265625,
                    "velocity": 0.3543307086614173,
                },
                {
                    "duration": 0.25065064062499687,
                    "durationTicks": 77,
                    "midi": 71,
                    "name": "B4",
                    "ticks": 114602,
                    "time": 373.05278853125,
                    "velocity": 0.36220472440944884,
                },
                {
                    "duration": 0.266926656250007,
                    "durationTicks": 82,
                    "midi": 76,
                    "name": "E5",
                    "ticks": 114688,
                    "time": 373.33273599999995,
                    "velocity": 0.4409448818897638,
                },
                {
                    "duration": 0.266926656250007,
                    "durationTicks": 82,
                    "midi": 73,
                    "name": "C#5",
                    "ticks": 114773,
                    "time": 373.60942826562496,
                    "velocity": 0.3700787401574803,
                },
                {
                    "duration": 0.27018185937504313,
                    "durationTicks": 83,
                    "midi": 69,
                    "name": "A4",
                    "ticks": 114858,
                    "time": 373.88612053124996,
                    "velocity": 0.33858267716535434,
                },
                {
                    "duration": 0.266926656250007,
                    "durationTicks": 82,
                    "midi": 73,
                    "name": "C#5",
                    "ticks": 114944,
                    "time": 374.166068,
                    "velocity": 0.4330708661417323,
                },
                {
                    "duration": 0.266926656250007,
                    "durationTicks": 82,
                    "midi": 69,
                    "name": "A4",
                    "ticks": 115029,
                    "time": 374.442760265625,
                    "velocity": 0.3700787401574803,
                },
                {
                    "duration": 0.2701818593749863,
                    "durationTicks": 83,
                    "midi": 64,
                    "name": "E4",
                    "ticks": 115114,
                    "time": 374.71945253125,
                    "velocity": 0.33070866141732286,
                },
                {
                    "duration": 0.266926656250007,
                    "durationTicks": 82,
                    "midi": 69,
                    "name": "A4",
                    "ticks": 115200,
                    "time": 374.9994,
                    "velocity": 0.41732283464566927,
                },
                {
                    "duration": 0.266926656250007,
                    "durationTicks": 82,
                    "midi": 64,
                    "name": "E4",
                    "ticks": 115285,
                    "time": 375.276092265625,
                    "velocity": 0.2992125984251969,
                },
                {
                    "duration": 0.2701818593749863,
                    "durationTicks": 83,
                    "midi": 61,
                    "name": "C#4",
                    "ticks": 115370,
                    "time": 375.55278453125,
                    "velocity": 0.3464566929133858,
                },
                {
                    "duration": 0.266926656250007,
                    "durationTicks": 82,
                    "midi": 73,
                    "name": "C#5",
                    "ticks": 115456,
                    "time": 375.83273199999996,
                    "velocity": 0.48031496062992124,
                },
                {
                    "duration": 0.266926656250007,
                    "durationTicks": 82,
                    "midi": 69,
                    "name": "A4",
                    "ticks": 115541,
                    "time": 376.10942426562497,
                    "velocity": 0.33858267716535434,
                },
                {
                    "duration": 0.25065064062499687,
                    "durationTicks": 77,
                    "midi": 64,
                    "name": "E4",
                    "ticks": 115626,
                    "time": 376.38611653124997,
                    "velocity": 0.3228346456692913,
                },
                {
                    "duration": 0.266926656250007,
                    "durationTicks": 82,
                    "midi": 73,
                    "name": "C#5",
                    "ticks": 115712,
                    "time": 376.66606399999995,
                    "velocity": 0.4645669291338583,
                },
                {
                    "duration": 0.266926656250007,
                    "durationTicks": 82,
                    "midi": 66,
                    "name": "F#4",
                    "ticks": 115797,
                    "time": 376.94275626562495,
                    "velocity": 0.33858267716535434,
                },
                {
                    "duration": 0.27018185937504313,
                    "durationTicks": 83,
                    "midi": 62,
                    "name": "D4",
                    "ticks": 115882,
                    "time": 377.21944853124995,
                    "velocity": 0.3464566929133858,
                },
                {
                    "duration": 0.266926656250007,
                    "durationTicks": 82,
                    "midi": 71,
                    "name": "B4",
                    "ticks": 115968,
                    "time": 377.499396,
                    "velocity": 0.41732283464566927,
                },
                {
                    "duration": 0.266926656250007,
                    "durationTicks": 82,
                    "midi": 66,
                    "name": "F#4",
                    "ticks": 116053,
                    "time": 377.776088265625,
                    "velocity": 0.3700787401574803,
                },
                {
                    "duration": 0.25065064062499687,
                    "durationTicks": 77,
                    "midi": 62,
                    "name": "D4",
                    "ticks": 116138,
                    "time": 378.05278053125,
                    "velocity": 0.3464566929133858,
                },
                {
                    "duration": 0.266926656250007,
                    "durationTicks": 82,
                    "midi": 71,
                    "name": "B4",
                    "ticks": 116224,
                    "time": 378.332728,
                    "velocity": 0.5039370078740157,
                },
                {
                    "duration": 0.266926656250007,
                    "durationTicks": 82,
                    "midi": 66,
                    "name": "F#4",
                    "ticks": 116309,
                    "time": 378.609420265625,
                    "velocity": 0.3779527559055118,
                },
                {
                    "duration": 0.2701818593749863,
                    "durationTicks": 83,
                    "midi": 62,
                    "name": "D4",
                    "ticks": 116394,
                    "time": 378.88611253125,
                    "velocity": 0.3779527559055118,
                },
                {
                    "duration": 0.266926656250007,
                    "durationTicks": 82,
                    "midi": 69,
                    "name": "A4",
                    "ticks": 116480,
                    "time": 379.16605999999996,
                    "velocity": 0.4881889763779528,
                },
                {
                    "duration": 0.266926656250007,
                    "durationTicks": 82,
                    "midi": 61,
                    "name": "C#4",
                    "ticks": 116565,
                    "time": 379.44275226562496,
                    "velocity": 0.3779527559055118,
                },
                {
                    "duration": 0.25065064062499687,
                    "durationTicks": 77,
                    "midi": 69,
                    "name": "A4",
                    "ticks": 116650,
                    "time": 379.71944453124996,
                    "velocity": 0.48031496062992124,
                },
                {
                    "duration": 0.26692665624995016,
                    "durationTicks": 82,
                    "midi": 59,
                    "name": "B3",
                    "ticks": 116736,
                    "time": 379.999392,
                    "velocity": 0.41732283464566927,
                },
                {
                    "duration": 0.26692665624995016,
                    "durationTicks": 82,
                    "midi": 62,
                    "name": "D4",
                    "ticks": 116821,
                    "time": 380.276084265625,
                    "velocity": 0.49606299212598426,
                },
                {
                    "duration": 0.2701818593749863,
                    "durationTicks": 83,
                    "midi": 68,
                    "name": "G#4",
                    "ticks": 116906,
                    "time": 380.55277653125,
                    "velocity": 0.5196850393700787,
                },
                {
                    "duration": 0.266926656250007,
                    "durationTicks": 82,
                    "midi": 69,
                    "name": "A4",
                    "ticks": 116992,
                    "time": 380.832724,
                    "velocity": 0.5196850393700787,
                },
                {
                    "duration": 0.266926656250007,
                    "durationTicks": 82,
                    "midi": 61,
                    "name": "C#4",
                    "ticks": 117077,
                    "time": 381.109416265625,
                    "velocity": 0.3858267716535433,
                },
                {
                    "duration": 0.25065064062499687,
                    "durationTicks": 77,
                    "midi": 69,
                    "name": "A4",
                    "ticks": 117162,
                    "time": 381.38610853125,
                    "velocity": 0.5196850393700787,
                },
                {
                    "duration": 0.266926656250007,
                    "durationTicks": 82,
                    "midi": 62,
                    "name": "D4",
                    "ticks": 117248,
                    "time": 381.66605599999997,
                    "velocity": 0.3779527559055118,
                },
                {
                    "duration": 0.266926656250007,
                    "durationTicks": 82,
                    "midi": 66,
                    "name": "F#4",
                    "ticks": 117333,
                    "time": 381.94274826562497,
                    "velocity": 0.5118110236220472,
                },
                {
                    "duration": 0.2701818593749863,
                    "durationTicks": 83,
                    "midi": 71,
                    "name": "B4",
                    "ticks": 117418,
                    "time": 382.21944053125,
                    "velocity": 0.5826771653543307,
                },
                {
                    "duration": 0.266926656250007,
                    "durationTicks": 82,
                    "midi": 73,
                    "name": "C#5",
                    "ticks": 117504,
                    "time": 382.49938799999995,
                    "velocity": 0.5196850393700787,
                },
                {
                    "duration": 0.266926656250007,
                    "durationTicks": 82,
                    "midi": 64,
                    "name": "E4",
                    "ticks": 117589,
                    "time": 382.77608026562496,
                    "velocity": 0.3937007874015748,
                },
                {
                    "duration": 0.27018185937504313,
                    "durationTicks": 83,
                    "midi": 73,
                    "name": "C#5",
                    "ticks": 117674,
                    "time": 383.05277253124996,
                    "velocity": 0.5590551181102362,
                },
                {
                    "duration": 0.266926656250007,
                    "durationTicks": 82,
                    "midi": 66,
                    "name": "F#4",
                    "ticks": 117760,
                    "time": 383.33272,
                    "velocity": 0.41732283464566927,
                },
                {
                    "duration": 0.266926656250007,
                    "durationTicks": 82,
                    "midi": 69,
                    "name": "A4",
                    "ticks": 117845,
                    "time": 383.609412265625,
                    "velocity": 0.5118110236220472,
                },
                {
                    "duration": 0.2701818593749863,
                    "durationTicks": 83,
                    "midi": 74,
                    "name": "D5",
                    "ticks": 117930,
                    "time": 383.88610453125,
                    "velocity": 0.5433070866141733,
                },
                {
                    "duration": 0.266926656250007,
                    "durationTicks": 82,
                    "midi": 76,
                    "name": "E5",
                    "ticks": 118016,
                    "time": 384.166052,
                    "velocity": 0.47244094488188976,
                },
                {
                    "duration": 0.266926656250007,
                    "durationTicks": 82,
                    "midi": 68,
                    "name": "G#4",
                    "ticks": 118101,
                    "time": 384.442744265625,
                    "velocity": 0.3700787401574803,
                },
                {
                    "duration": 0.25065064062499687,
                    "durationTicks": 77,
                    "midi": 76,
                    "name": "E5",
                    "ticks": 118186,
                    "time": 384.71943653125,
                    "velocity": 0.49606299212598426,
                },
                {
                    "duration": 0.266926656250007,
                    "durationTicks": 82,
                    "midi": 74,
                    "name": "D5",
                    "ticks": 118272,
                    "time": 384.99938399999996,
                    "velocity": 0.3937007874015748,
                },
                {
                    "duration": 0.266926656250007,
                    "durationTicks": 82,
                    "midi": 68,
                    "name": "G#4",
                    "ticks": 118357,
                    "time": 385.27607626562497,
                    "velocity": 0.36220472440944884,
                },
                {
                    "duration": 0.2701818593749863,
                    "durationTicks": 83,
                    "midi": 71,
                    "name": "B4",
                    "ticks": 118442,
                    "time": 385.55276853124997,
                    "velocity": 0.4330708661417323,
                },
                {
                    "duration": 0.26692665624995016,
                    "durationTicks": 82,
                    "midi": 69,
                    "name": "A4",
                    "ticks": 118528,
                    "time": 385.832716,
                    "velocity": 0.3937007874015748,
                },
                {
                    "duration": 0.266926656250007,
                    "durationTicks": 82,
                    "midi": 73,
                    "name": "C#5",
                    "ticks": 118613,
                    "time": 386.10940826562495,
                    "velocity": 0.4409448818897638,
                },
                {
                    "duration": 0.2506506406250537,
                    "durationTicks": 77,
                    "midi": 81,
                    "name": "A5",
                    "ticks": 118698,
                    "time": 386.38610053124995,
                    "velocity": 0.44881889763779526,
                },
                {
                    "duration": 0.266926656250007,
                    "durationTicks": 82,
                    "midi": 81,
                    "name": "A5",
                    "ticks": 118784,
                    "time": 386.666048,
                    "velocity": 0.3700787401574803,
                },
                {
                    "duration": 0.266926656250007,
                    "durationTicks": 82,
                    "midi": 73,
                    "name": "C#5",
                    "ticks": 118869,
                    "time": 386.942740265625,
                    "velocity": 0.3228346456692913,
                },
                {
                    "duration": 0.2701818593749863,
                    "durationTicks": 83,
                    "midi": 69,
                    "name": "A4",
                    "ticks": 118954,
                    "time": 387.21943253125,
                    "velocity": 0.36220472440944884,
                },
                {
                    "duration": 0.266926656250007,
                    "durationTicks": 82,
                    "midi": 76,
                    "name": "E5",
                    "ticks": 119040,
                    "time": 387.49938,
                    "velocity": 0.4566929133858268,
                },
                {
                    "duration": 0.266926656250007,
                    "durationTicks": 82,
                    "midi": 73,
                    "name": "C#5",
                    "ticks": 119125,
                    "time": 387.776072265625,
                    "velocity": 0.3779527559055118,
                },
                {
                    "duration": 0.2701818593749863,
                    "durationTicks": 83,
                    "midi": 67,
                    "name": "G4",
                    "ticks": 119210,
                    "time": 388.05276453125,
                    "velocity": 0.3700787401574803,
                },
                {
                    "duration": 0.266926656250007,
                    "durationTicks": 82,
                    "midi": 73,
                    "name": "C#5",
                    "ticks": 119296,
                    "time": 388.33271199999996,
                    "velocity": 0.47244094488188976,
                },
                {
                    "duration": 0.266926656250007,
                    "durationTicks": 82,
                    "midi": 67,
                    "name": "G4",
                    "ticks": 119381,
                    "time": 388.60940426562496,
                    "velocity": 0.3779527559055118,
                },
                {
                    "duration": 0.27018185937504313,
                    "durationTicks": 83,
                    "midi": 64,
                    "name": "E4",
                    "ticks": 119466,
                    "time": 388.88609653124996,
                    "velocity": 0.4094488188976378,
                },
                {
                    "duration": 0.26692665624995016,
                    "durationTicks": 82,
                    "midi": 76,
                    "name": "E5",
                    "ticks": 119552,
                    "time": 389.166044,
                    "velocity": 0.5669291338582677,
                },
                {
                    "duration": 0.26692665624995016,
                    "durationTicks": 82,
                    "midi": 73,
                    "name": "C#5",
                    "ticks": 119637,
                    "time": 389.442736265625,
                    "velocity": 0.48031496062992124,
                },
                {
                    "duration": 0.25065064062499687,
                    "durationTicks": 77,
                    "midi": 67,
                    "name": "G4",
                    "ticks": 119722,
                    "time": 389.71942853125,
                    "velocity": 0.4251968503937008,
                },
                {
                    "duration": 0.266926656250007,
                    "durationTicks": 82,
                    "midi": 76,
                    "name": "E5",
                    "ticks": 119808,
                    "time": 389.999376,
                    "velocity": 0.5826771653543307,
                },
                {
                    "duration": 0.266926656250007,
                    "durationTicks": 82,
                    "midi": 73,
                    "name": "C#5",
                    "ticks": 119893,
                    "time": 390.276068265625,
                    "velocity": 0.48031496062992124,
                },
                {
                    "duration": 0.2701818593749863,
                    "durationTicks": 83,
                    "midi": 67,
                    "name": "G4",
                    "ticks": 119978,
                    "time": 390.55276053125,
                    "velocity": 0.41732283464566927,
                },
                {
                    "duration": 0.266926656250007,
                    "durationTicks": 82,
                    "midi": 66,
                    "name": "F#4",
                    "ticks": 120064,
                    "time": 390.83270799999997,
                    "velocity": 0.49606299212598426,
                },
                {
                    "duration": 0.266926656250007,
                    "durationTicks": 82,
                    "midi": 74,
                    "name": "D5",
                    "ticks": 120149,
                    "time": 391.10940026562497,
                    "velocity": 0.6771653543307087,
                },
                {
                    "duration": 0.2701818593749863,
                    "durationTicks": 83,
                    "midi": 76,
                    "name": "E5",
                    "ticks": 120234,
                    "time": 391.38609253125,
                    "velocity": 0.6141732283464567,
                },
                {
                    "duration": 0.266926656250007,
                    "durationTicks": 82,
                    "midi": 78,
                    "name": "F#5",
                    "ticks": 120320,
                    "time": 391.66603999999995,
                    "velocity": 0.6299212598425197,
                },
                {
                    "duration": 0.266926656250007,
                    "durationTicks": 82,
                    "midi": 74,
                    "name": "D5",
                    "ticks": 120405,
                    "time": 391.94273226562495,
                    "velocity": 0.5118110236220472,
                },
                {
                    "duration": 0.27018185937504313,
                    "durationTicks": 83,
                    "midi": 66,
                    "name": "F#4",
                    "ticks": 120490,
                    "time": 392.21942453124996,
                    "velocity": 0.4409448818897638,
                },
                {
                    "duration": 0.266926656250007,
                    "durationTicks": 82,
                    "midi": 64,
                    "name": "E4",
                    "ticks": 120576,
                    "time": 392.499372,
                    "velocity": 0.5275590551181102,
                },
                {
                    "duration": 0.266926656250007,
                    "durationTicks": 82,
                    "midi": 73,
                    "name": "C#5",
                    "ticks": 120661,
                    "time": 392.776064265625,
                    "velocity": 0.7559055118110236,
                },
                {
                    "duration": 0.25065064062499687,
                    "durationTicks": 77,
                    "midi": 76,
                    "name": "E5",
                    "ticks": 120746,
                    "time": 393.05275653125,
                    "velocity": 0.7086614173228346,
                },
                {
                    "duration": 0.266926656250007,
                    "durationTicks": 82,
                    "midi": 74,
                    "name": "D5",
                    "ticks": 120832,
                    "time": 393.332704,
                    "velocity": 0.49606299212598426,
                },
                {
                    "duration": 0.266926656250007,
                    "durationTicks": 82,
                    "midi": 69,
                    "name": "A4",
                    "ticks": 120917,
                    "time": 393.609396265625,
                    "velocity": 0.41732283464566927,
                },
                {
                    "duration": 0.2701818593749863,
                    "durationTicks": 83,
                    "midi": 66,
                    "name": "F#4",
                    "ticks": 121002,
                    "time": 393.88608853125,
                    "velocity": 0.4645669291338583,
                },
                {
                    "duration": 0.266926656250007,
                    "durationTicks": 82,
                    "midi": 64,
                    "name": "E4",
                    "ticks": 121088,
                    "time": 394.16603599999996,
                    "velocity": 0.4645669291338583,
                },
                {
                    "duration": 0.266926656250007,
                    "durationTicks": 82,
                    "midi": 67,
                    "name": "G4",
                    "ticks": 121173,
                    "time": 394.44272826562496,
                    "velocity": 0.5039370078740157,
                },
                {
                    "duration": 0.2701818593749863,
                    "durationTicks": 83,
                    "midi": 73,
                    "name": "C#5",
                    "ticks": 121258,
                    "time": 394.71942053124997,
                    "velocity": 0.5826771653543307,
                },
                {
                    "duration": 0.26692665624995016,
                    "durationTicks": 82,
                    "midi": 74,
                    "name": "D5",
                    "ticks": 121344,
                    "time": 394.999368,
                    "velocity": 0.5118110236220472,
                },
                {
                    "duration": 0.266926656250007,
                    "durationTicks": 82,
                    "midi": 69,
                    "name": "A4",
                    "ticks": 121429,
                    "time": 395.27606026562495,
                    "velocity": 0.4566929133858268,
                },
                {
                    "duration": 0.27018185937504313,
                    "durationTicks": 83,
                    "midi": 66,
                    "name": "F#4",
                    "ticks": 121514,
                    "time": 395.55275253124995,
                    "velocity": 0.4409448818897638,
                },
                {
                    "duration": 0.266926656250007,
                    "durationTicks": 82,
                    "midi": 64,
                    "name": "E4",
                    "ticks": 121600,
                    "time": 395.8327,
                    "velocity": 0.44881889763779526,
                },
                {
                    "duration": 0.266926656250007,
                    "durationTicks": 82,
                    "midi": 71,
                    "name": "B4",
                    "ticks": 121685,
                    "time": 396.109392265625,
                    "velocity": 0.6062992125984252,
                },
                {
                    "duration": 0.2701818593749863,
                    "durationTicks": 83,
                    "midi": 76,
                    "name": "E5",
                    "ticks": 121770,
                    "time": 396.38608453125,
                    "velocity": 0.6062992125984252,
                },
                {
                    "duration": 0.266926656250007,
                    "durationTicks": 82,
                    "midi": 73,
                    "name": "C#5",
                    "ticks": 121856,
                    "time": 396.666032,
                    "velocity": 0.48031496062992124,
                },
                {
                    "duration": 0.266926656250007,
                    "durationTicks": 82,
                    "midi": 69,
                    "name": "A4",
                    "ticks": 121941,
                    "time": 396.942724265625,
                    "velocity": 0.4330708661417323,
                },
                {
                    "duration": 0.2701818593749863,
                    "durationTicks": 83,
                    "midi": 64,
                    "name": "E4",
                    "ticks": 122026,
                    "time": 397.21941653125,
                    "velocity": 0.44881889763779526,
                },
                {
                    "duration": 0.266926656250007,
                    "durationTicks": 82,
                    "midi": 73,
                    "name": "C#5",
                    "ticks": 122112,
                    "time": 397.49936399999996,
                    "velocity": 0.6141732283464567,
                },
                {
                    "duration": 0.266926656250007,
                    "durationTicks": 82,
                    "midi": 69,
                    "name": "A4",
                    "ticks": 122197,
                    "time": 397.77605626562496,
                    "velocity": 0.4409448818897638,
                },
                {
                    "duration": 0.27018185937504313,
                    "durationTicks": 83,
                    "midi": 64,
                    "name": "E4",
                    "ticks": 122282,
                    "time": 398.05274853124996,
                    "velocity": 0.4330708661417323,
                },
                {
                    "duration": 0.26692665624995016,
                    "durationTicks": 82,
                    "midi": 74,
                    "name": "D5",
                    "ticks": 122368,
                    "time": 398.332696,
                    "velocity": 0.5433070866141733,
                },
                {
                    "duration": 0.26692665624995016,
                    "durationTicks": 82,
                    "midi": 69,
                    "name": "A4",
                    "ticks": 122453,
                    "time": 398.609388265625,
                    "velocity": 0.3700787401574803,
                },
                {
                    "duration": 0.2701818593749863,
                    "durationTicks": 83,
                    "midi": 66,
                    "name": "F#4",
                    "ticks": 122538,
                    "time": 398.88608053125,
                    "velocity": 0.3937007874015748,
                },
                {
                    "duration": 0.266926656250007,
                    "durationTicks": 82,
                    "midi": 76,
                    "name": "E5",
                    "ticks": 122624,
                    "time": 399.166028,
                    "velocity": 0.5669291338582677,
                },
                {
                    "duration": 0.266926656250007,
                    "durationTicks": 82,
                    "midi": 71,
                    "name": "B4",
                    "ticks": 122709,
                    "time": 399.442720265625,
                    "velocity": 0.4330708661417323,
                },
                {
                    "duration": 0.2701818593749863,
                    "durationTicks": 83,
                    "midi": 64,
                    "name": "E4",
                    "ticks": 122794,
                    "time": 399.71941253125,
                    "velocity": 0.3779527559055118,
                },
                {
                    "duration": 0.266926656250007,
                    "durationTicks": 82,
                    "midi": 73,
                    "name": "C#5",
                    "ticks": 122880,
                    "time": 399.99935999999997,
                    "velocity": 0.5039370078740157,
                },
                {
                    "duration": 0.266926656250007,
                    "durationTicks": 82,
                    "midi": 69,
                    "name": "A4",
                    "ticks": 122965,
                    "time": 400.27605226562497,
                    "velocity": 0.4566929133858268,
                },
                {
                    "duration": 0.2701818593749863,
                    "durationTicks": 83,
                    "midi": 64,
                    "name": "E4",
                    "ticks": 123050,
                    "time": 400.55274453124997,
                    "velocity": 0.3937007874015748,
                },
                {
                    "duration": 0.266926656250007,
                    "durationTicks": 82,
                    "midi": 73,
                    "name": "C#5",
                    "ticks": 123136,
                    "time": 400.83269199999995,
                    "velocity": 0.5354330708661418,
                },
                {
                    "duration": 0.266926656250007,
                    "durationTicks": 82,
                    "midi": 69,
                    "name": "A4",
                    "ticks": 123221,
                    "time": 401.10938426562495,
                    "velocity": 0.4015748031496063,
                },
                {
                    "duration": 0.25065064062499687,
                    "durationTicks": 77,
                    "midi": 64,
                    "name": "E4",
                    "ticks": 123306,
                    "time": 401.38607653124996,
                    "velocity": 0.3779527559055118,
                },
                {
                    "duration": 0.266926656250007,
                    "durationTicks": 82,
                    "midi": 74,
                    "name": "D5",
                    "ticks": 123392,
                    "time": 401.666024,
                    "velocity": 0.5118110236220472,
                },
                {
                    "duration": 0.266926656250007,
                    "durationTicks": 82,
                    "midi": 69,
                    "name": "A4",
                    "ticks": 123477,
                    "time": 401.942716265625,
                    "velocity": 0.3858267716535433,
                },
                {
                    "duration": 0.2701818593749863,
                    "durationTicks": 83,
                    "midi": 66,
                    "name": "F#4",
                    "ticks": 123562,
                    "time": 402.21940853125,
                    "velocity": 0.4251968503937008,
                },
                {
                    "duration": 0.266926656250007,
                    "durationTicks": 82,
                    "midi": 76,
                    "name": "E5",
                    "ticks": 123648,
                    "time": 402.499356,
                    "velocity": 0.5433070866141733,
                },
                {
                    "duration": 0.266926656250007,
                    "durationTicks": 82,
                    "midi": 71,
                    "name": "B4",
                    "ticks": 123733,
                    "time": 402.776048265625,
                    "velocity": 0.4094488188976378,
                },
                {
                    "duration": 0.25065064062499687,
                    "durationTicks": 77,
                    "midi": 76,
                    "name": "E5",
                    "ticks": 123818,
                    "time": 403.05274053125,
                    "velocity": 0.48031496062992124,
                },
                {
                    "duration": 6.585275921874995,
                    "durationTicks": 2023,
                    "midi": 69,
                    "name": "A4",
                    "ticks": 123904,
                    "time": 403.33268799999996,
                    "velocity": 0.2283464566929134,
                },
                {
                    "duration": 0.3971347812500312,
                    "durationTicks": 122,
                    "midi": 62,
                    "name": "D4",
                    "ticks": 125952,
                    "time": 409.99934399999995,
                    "velocity": 0.9606299212598425,
                },
                {
                    "duration": 0.3971347812500312,
                    "durationTicks": 122,
                    "midi": 71,
                    "name": "B4",
                    "ticks": 125952,
                    "time": 409.99934399999995,
                    "velocity": 0.9606299212598425,
                },
                {
                    "duration": 0.39713478124997437,
                    "durationTicks": 122,
                    "midi": 74,
                    "name": "D5",
                    "ticks": 126208,
                    "time": 410.832676,
                    "velocity": 0.7874015748031497,
                },
                {
                    "duration": 0.39713478124997437,
                    "durationTicks": 122,
                    "midi": 83,
                    "name": "B5",
                    "ticks": 126208,
                    "time": 410.832676,
                    "velocity": 0.7874015748031497,
                },
                {
                    "duration": 0.7942695625000056,
                    "durationTicks": 244,
                    "midi": 76,
                    "name": "E5",
                    "ticks": 126464,
                    "time": 411.666008,
                    "velocity": 0.8031496062992126,
                },
                {
                    "duration": 0.7942695625000056,
                    "durationTicks": 244,
                    "midi": 84,
                    "name": "C6",
                    "ticks": 126464,
                    "time": 411.666008,
                    "velocity": 0.8031496062992126,
                },
                {
                    "duration": 0.7942695624999487,
                    "durationTicks": 244,
                    "midi": 68,
                    "name": "G#4",
                    "ticks": 126976,
                    "time": 413.332672,
                    "velocity": 0.36220472440944884,
                },
                {
                    "duration": 0.23762982812496602,
                    "durationTicks": 73,
                    "midi": 66,
                    "name": "F#4",
                    "ticks": 127232,
                    "time": 414.166004,
                    "velocity": 0.3779527559055118,
                },
                {
                    "duration": 0.23762982812502287,
                    "durationTicks": 73,
                    "midi": 68,
                    "name": "G#4",
                    "ticks": 127360,
                    "time": 414.58266999999995,
                    "velocity": 0.4251968503937008,
                },
                {
                    "duration": 0.3971347812500312,
                    "durationTicks": 122,
                    "midi": 69,
                    "name": "A4",
                    "ticks": 127488,
                    "time": 414.99933599999997,
                    "velocity": 0.41732283464566927,
                },
                {
                    "duration": 0.39713478124997437,
                    "durationTicks": 122,
                    "midi": 62,
                    "name": "D4",
                    "ticks": 128000,
                    "time": 416.666,
                    "velocity": 0.7952755905511811,
                },
                {
                    "duration": 0.39713478124997437,
                    "durationTicks": 122,
                    "midi": 71,
                    "name": "B4",
                    "ticks": 128000,
                    "time": 416.666,
                    "velocity": 0.7952755905511811,
                },
                {
                    "duration": 0.39713478124997437,
                    "durationTicks": 122,
                    "midi": 74,
                    "name": "D5",
                    "ticks": 128256,
                    "time": 417.499332,
                    "velocity": 0.8110236220472441,
                },
                {
                    "duration": 0.39713478124997437,
                    "durationTicks": 122,
                    "midi": 83,
                    "name": "B5",
                    "ticks": 128256,
                    "time": 417.499332,
                    "velocity": 0.8110236220472441,
                },
                {
                    "duration": 0.7942695625000056,
                    "durationTicks": 244,
                    "midi": 76,
                    "name": "E5",
                    "ticks": 128512,
                    "time": 418.33266399999997,
                    "velocity": 0.7795275590551181,
                },
                {
                    "duration": 0.7942695625000056,
                    "durationTicks": 244,
                    "midi": 84,
                    "name": "C6",
                    "ticks": 128512,
                    "time": 418.33266399999997,
                    "velocity": 0.7795275590551181,
                },
                {
                    "duration": 0.7942695625000056,
                    "durationTicks": 244,
                    "midi": 68,
                    "name": "G#4",
                    "ticks": 129024,
                    "time": 419.999328,
                    "velocity": 0.3464566929133858,
                },
                {
                    "duration": 0.23762982812502287,
                    "durationTicks": 73,
                    "midi": 66,
                    "name": "F#4",
                    "ticks": 129280,
                    "time": 420.83266,
                    "velocity": 0.2755905511811024,
                },
                {
                    "duration": 0.23762982812496602,
                    "durationTicks": 73,
                    "midi": 68,
                    "name": "G#4",
                    "ticks": 129408,
                    "time": 421.249326,
                    "velocity": 0.41732283464566927,
                },
                {
                    "duration": 0.7942695625000056,
                    "durationTicks": 244,
                    "midi": 76,
                    "name": "E5",
                    "ticks": 140544,
                    "time": 457.499268,
                    "velocity": 0.4409448818897638,
                },
                {
                    "duration": 0.2759571093749855,
                    "durationTicks": 73,
                    "midi": 78,
                    "name": "F#5",
                    "ticks": 140800,
                    "time": 458.33259999999996,
                    "velocity": 0.8267716535433071,
                },
                {
                    "duration": 0.2759571093749855,
                    "durationTicks": 73,
                    "midi": 80,
                    "name": "G#5",
                    "ticks": 140928,
                    "time": 458.81647,
                    "velocity": 0.6692913385826772,
                },
                {
                    "duration": 0.9223771874999898,
                    "durationTicks": 244,
                    "midi": 81,
                    "name": "A5",
                    "ticks": 141056,
                    "time": 459.30033999999995,
                    "velocity": 0.5669291338582677,
                },
            ],
            "endOfTrackTicks": 141301,
        },
        {
            "channel": 7,
            "controlChanges": {
                "7": [
                    {
                        "number": 7,
                        "ticks": 130304,
                        "time": 424.16598799999997,
                        "value": 0.7637795275590551,
                    }
                ],
                "10": [
                    {
                        "number": 10,
                        "ticks": 130304,
                        "time": 424.16598799999997,
                        "value": 0.15748031496062992,
                    }
                ],
                "91": [
                    {
                        "number": 91,
                        "ticks": 130304,
                        "time": 424.16598799999997,
                        "value": 0.4645669291338583,
                    }
                ],
            },
            "pitchBends": [],
            "instrument": {
                "family": "strings",
                "number": 45,
                "name": "pizzicato strings",
            },
            "name": "",
            "notes": [
                {
                    "duration": 0.7942695625000056,
                    "durationTicks": 244,
                    "midi": 69,
                    "name": "A4",
                    "ticks": 130304,
                    "time": 424.16598799999997,
                    "velocity": 0.33858267716535434,
                },
                {
                    "duration": 0.7942695625000056,
                    "durationTicks": 244,
                    "midi": 64,
                    "name": "E4",
                    "ticks": 130816,
                    "time": 425.832652,
                    "velocity": 0.33858267716535434,
                },
                {
                    "duration": 0.7942695625000056,
                    "durationTicks": 244,
                    "midi": 64,
                    "name": "E4",
                    "ticks": 131328,
                    "time": 427.49931599999996,
                    "velocity": 0.33858267716535434,
                },
                {
                    "duration": 0.7942695625000056,
                    "durationTicks": 244,
                    "midi": 69,
                    "name": "A4",
                    "ticks": 131840,
                    "time": 429.16598,
                    "velocity": 0.31496062992125984,
                },
                {
                    "duration": 0.7942695625000056,
                    "durationTicks": 244,
                    "midi": 64,
                    "name": "E4",
                    "ticks": 132352,
                    "time": 430.83264399999996,
                    "velocity": 0.33070866141732286,
                },
                {
                    "duration": 0.7942695625000056,
                    "durationTicks": 244,
                    "midi": 64,
                    "name": "E4",
                    "ticks": 132864,
                    "time": 432.499308,
                    "velocity": 0.33070866141732286,
                },
                {
                    "duration": 0.7942695625000056,
                    "durationTicks": 244,
                    "midi": 62,
                    "name": "D4",
                    "ticks": 133120,
                    "time": 433.33263999999997,
                    "velocity": 0.3543307086614173,
                },
                {
                    "duration": 0.3971347812500312,
                    "durationTicks": 122,
                    "midi": 60,
                    "name": "C4",
                    "ticks": 133376,
                    "time": 434.16597199999995,
                    "velocity": 0.36220472440944884,
                },
                {
                    "duration": 0.39713478124997437,
                    "durationTicks": 122,
                    "midi": 62,
                    "name": "D4",
                    "ticks": 133504,
                    "time": 434.582638,
                    "velocity": 0.4251968503937008,
                },
                {
                    "duration": 0.7942695625000056,
                    "durationTicks": 244,
                    "midi": 64,
                    "name": "E4",
                    "ticks": 133632,
                    "time": 434.999304,
                    "velocity": 0.3858267716535433,
                },
                {
                    "duration": 0.7942695625000056,
                    "durationTicks": 244,
                    "midi": 60,
                    "name": "C4",
                    "ticks": 134400,
                    "time": 437.49929999999995,
                    "velocity": 0.33070866141732286,
                },
                {
                    "duration": 0.7942695625000056,
                    "durationTicks": 244,
                    "midi": 71,
                    "name": "B4",
                    "ticks": 134912,
                    "time": 439.165964,
                    "velocity": 0.3464566929133858,
                },
                {
                    "duration": 0.7942695624999487,
                    "durationTicks": 244,
                    "midi": 64,
                    "name": "E4",
                    "ticks": 135424,
                    "time": 440.832628,
                    "velocity": 0.3543307086614173,
                },
                {
                    "duration": 0.7942695625000056,
                    "durationTicks": 244,
                    "midi": 69,
                    "name": "A4",
                    "ticks": 135936,
                    "time": 442.49929199999997,
                    "velocity": 0.3700787401574803,
                },
                {
                    "duration": 0.7942695625000056,
                    "durationTicks": 244,
                    "midi": 60,
                    "name": "C4",
                    "ticks": 136448,
                    "time": 444.165956,
                    "velocity": 0.2992125984251969,
                },
                {
                    "duration": 0.7942695625000056,
                    "durationTicks": 244,
                    "midi": 62,
                    "name": "D4",
                    "ticks": 136704,
                    "time": 444.999288,
                    "velocity": 0.36220472440944884,
                },
                {
                    "duration": 0.7942695625000056,
                    "durationTicks": 244,
                    "midi": 60,
                    "name": "C4",
                    "ticks": 136960,
                    "time": 445.83261999999996,
                    "velocity": 0.3937007874015748,
                },
                {
                    "duration": 0.7942695625000056,
                    "durationTicks": 244,
                    "midi": 62,
                    "name": "D4",
                    "ticks": 137216,
                    "time": 446.66595199999995,
                    "velocity": 0.4094488188976378,
                },
                {
                    "duration": 0.39713478124997437,
                    "durationTicks": 122,
                    "midi": 62,
                    "name": "D4",
                    "ticks": 137472,
                    "time": 447.499284,
                    "velocity": 0.3937007874015748,
                },
                {
                    "duration": 0.3971347812500312,
                    "durationTicks": 122,
                    "midi": 62,
                    "name": "D4",
                    "ticks": 137600,
                    "time": 447.91594999999995,
                    "velocity": 0.3543307086614173,
                },
                {
                    "duration": 0.7942695625000056,
                    "durationTicks": 244,
                    "midi": 60,
                    "name": "C4",
                    "ticks": 137728,
                    "time": 448.332616,
                    "velocity": 0.3464566929133858,
                },
                {
                    "duration": 0.7942695625000056,
                    "durationTicks": 244,
                    "midi": 62,
                    "name": "D4",
                    "ticks": 139264,
                    "time": 453.332608,
                    "velocity": 0.3228346456692913,
                },
                {
                    "duration": 0.39713478124997437,
                    "durationTicks": 122,
                    "midi": 62,
                    "name": "D4",
                    "ticks": 139520,
                    "time": 454.16594,
                    "velocity": 0.3543307086614173,
                },
                {
                    "duration": 0.39713478124997437,
                    "durationTicks": 122,
                    "midi": 62,
                    "name": "D4",
                    "ticks": 139648,
                    "time": 454.582606,
                    "velocity": 0.4015748031496063,
                },
                {
                    "duration": 0.7942695625000056,
                    "durationTicks": 244,
                    "midi": 60,
                    "name": "C4",
                    "ticks": 139776,
                    "time": 454.99927199999996,
                    "velocity": 0.36220472440944884,
                },
                {
                    "duration": 0.7942695625000056,
                    "durationTicks": 244,
                    "midi": 60,
                    "name": "C4",
                    "ticks": 140288,
                    "time": 456.665936,
                    "velocity": 0.3700787401574803,
                },
            ],
        },
        {
            "channel": 12,
            "controlChanges": {
                "7": [
                    {"number": 7, "ticks": 0, "time": 0, "value": 0.7165354330708661},
                    {
                        "number": 7,
                        "ticks": 92760,
                        "time": 301.952641875,
                        "value": 0.7165354330708661,
                    },
                    {
                        "number": 7,
                        "ticks": 140288,
                        "time": 456.665936,
                        "value": 0.7165354330708661,
                    },
                ],
                "10": [
                    {"number": 10, "ticks": 0, "time": 0, "value": 0.8740157480314961},
                    {
                        "number": 10,
                        "ticks": 92760,
                        "time": 301.952641875,
                        "value": 0.8740157480314961,
                    },
                    {
                        "number": 10,
                        "ticks": 140288,
                        "time": 456.665936,
                        "value": 0.8740157480314961,
                    },
                ],
                "64": [{"number": 64, "ticks": 0, "time": 0, "value": 0}],
                "91": [
                    {"number": 91, "ticks": 0, "time": 0, "value": 0.4330708661417323},
                    {
                        "number": 91,
                        "ticks": 92760,
                        "time": 301.952641875,
                        "value": 0.4645669291338583,
                    },
                    {
                        "number": 91,
                        "ticks": 140288,
                        "time": 456.665936,
                        "value": 0.4645669291338583,
                    },
                ],
                "121": [{"number": 121, "ticks": 0, "time": 0, "value": 0}],
            },
            "pitchBends": [],
            "instrument": {
                "family": "ensemble",
                "number": 48,
                "name": "string ensemble 1",
            },
            "name": "Violins 2",
            "notes": [
                {
                    "duration": 0.8333319999999986,
                    "durationTicks": 256,
                    "midi": 64,
                    "name": "E4",
                    "ticks": 13312,
                    "time": 43.333264,
                    "velocity": 0.3228346456692913,
                },
                {
                    "duration": 0.24739543750000337,
                    "durationTicks": 76,
                    "midi": 64,
                    "name": "E4",
                    "ticks": 13568,
                    "time": 44.166596,
                    "velocity": 0.2204724409448819,
                },
                {
                    "duration": 0.24739543750000337,
                    "durationTicks": 76,
                    "midi": 64,
                    "name": "E4",
                    "ticks": 13696,
                    "time": 44.583262,
                    "velocity": 0.29133858267716534,
                },
                {
                    "duration": 0.49804607812500024,
                    "durationTicks": 153,
                    "midi": 64,
                    "name": "E4",
                    "ticks": 13824,
                    "time": 44.999928,
                    "velocity": 0.2755905511811024,
                },
                {
                    "duration": 0.4720044531249954,
                    "durationTicks": 145,
                    "midi": 64,
                    "name": "E4",
                    "ticks": 14080,
                    "time": 45.83326,
                    "velocity": 0.2992125984251969,
                },
                {
                    "duration": 0.8333319999999986,
                    "durationTicks": 256,
                    "midi": 64,
                    "name": "E4",
                    "ticks": 14336,
                    "time": 46.666592,
                    "velocity": 0.29133858267716534,
                },
                {
                    "duration": 0.24739543749999626,
                    "durationTicks": 76,
                    "midi": 64,
                    "name": "E4",
                    "ticks": 14592,
                    "time": 47.499924,
                    "velocity": 0.28346456692913385,
                },
                {
                    "duration": 0.24739543750000337,
                    "durationTicks": 76,
                    "midi": 64,
                    "name": "E4",
                    "ticks": 14720,
                    "time": 47.91659,
                    "velocity": 0.29133858267716534,
                },
                {
                    "duration": 0.49804607812500024,
                    "durationTicks": 153,
                    "midi": 64,
                    "name": "E4",
                    "ticks": 14848,
                    "time": 48.333256,
                    "velocity": 0.2755905511811024,
                },
                {
                    "duration": 0.4720044531250025,
                    "durationTicks": 145,
                    "midi": 64,
                    "name": "E4",
                    "ticks": 15104,
                    "time": 49.166588,
                    "velocity": 0.28346456692913385,
                },
                {
                    "duration": 0.8333320000000057,
                    "durationTicks": 256,
                    "midi": 64,
                    "name": "E4",
                    "ticks": 15360,
                    "time": 49.999919999999996,
                    "velocity": 0.3228346456692913,
                },
                {
                    "duration": 0.24739543749999626,
                    "durationTicks": 76,
                    "midi": 64,
                    "name": "E4",
                    "ticks": 15616,
                    "time": 50.833252,
                    "velocity": 0.2755905511811024,
                },
                {
                    "duration": 0.24739543749999626,
                    "durationTicks": 76,
                    "midi": 66,
                    "name": "F#4",
                    "ticks": 15744,
                    "time": 51.249918,
                    "velocity": 0.31496062992125984,
                },
                {
                    "duration": 0.49804607812500024,
                    "durationTicks": 153,
                    "midi": 67,
                    "name": "G4",
                    "ticks": 15872,
                    "time": 51.666584,
                    "velocity": 0.2440944881889764,
                },
                {
                    "duration": 0.4720044531250025,
                    "durationTicks": 145,
                    "midi": 67,
                    "name": "G4",
                    "ticks": 16128,
                    "time": 52.499916,
                    "velocity": 0.2677165354330709,
                },
                {
                    "duration": 0.8333319999999986,
                    "durationTicks": 256,
                    "midi": 67,
                    "name": "G4",
                    "ticks": 16384,
                    "time": 53.333248,
                    "velocity": 0.25984251968503935,
                },
                {
                    "duration": 0.24739543750000337,
                    "durationTicks": 76,
                    "midi": 67,
                    "name": "G4",
                    "ticks": 16640,
                    "time": 54.166579999999996,
                    "velocity": 0.2440944881889764,
                },
                {
                    "duration": 0.24739543749999626,
                    "durationTicks": 76,
                    "midi": 67,
                    "name": "G4",
                    "ticks": 16768,
                    "time": 54.583246,
                    "velocity": 0.28346456692913385,
                },
                {
                    "duration": 0.8333319999999986,
                    "durationTicks": 256,
                    "midi": 67,
                    "name": "G4",
                    "ticks": 16896,
                    "time": 54.999912,
                    "velocity": 0.2992125984251969,
                },
                {
                    "duration": 0.8333319999999986,
                    "durationTicks": 256,
                    "midi": 67,
                    "name": "G4",
                    "ticks": 17408,
                    "time": 56.666576,
                    "velocity": 0.25196850393700787,
                },
                {
                    "duration": 0.24739543750000337,
                    "durationTicks": 76,
                    "midi": 67,
                    "name": "G4",
                    "ticks": 17664,
                    "time": 57.499908,
                    "velocity": 0.2992125984251969,
                },
                {
                    "duration": 0.24739543750000337,
                    "durationTicks": 76,
                    "midi": 69,
                    "name": "A4",
                    "ticks": 17792,
                    "time": 57.916574,
                    "velocity": 0.29133858267716534,
                },
                {
                    "duration": 0.49804607812500024,
                    "durationTicks": 153,
                    "midi": 71,
                    "name": "B4",
                    "ticks": 17920,
                    "time": 58.333239999999996,
                    "velocity": 0.30708661417322836,
                },
                {
                    "duration": 0.4720044531249954,
                    "durationTicks": 145,
                    "midi": 71,
                    "name": "B4",
                    "ticks": 18176,
                    "time": 59.166572,
                    "velocity": 0.29133858267716534,
                },
                {
                    "duration": 0.8333319999999986,
                    "durationTicks": 256,
                    "midi": 66,
                    "name": "F#4",
                    "ticks": 18432,
                    "time": 59.999904,
                    "velocity": 0.2283464566929134,
                },
                {
                    "duration": 0.24739543749999626,
                    "durationTicks": 76,
                    "midi": 66,
                    "name": "F#4",
                    "ticks": 18688,
                    "time": 60.833236,
                    "velocity": 0.28346456692913385,
                },
                {
                    "duration": 0.24739543750000337,
                    "durationTicks": 76,
                    "midi": 68,
                    "name": "G#4",
                    "ticks": 18816,
                    "time": 61.249902,
                    "velocity": 0.2992125984251969,
                },
                {
                    "duration": 0.49804607812500024,
                    "durationTicks": 153,
                    "midi": 69,
                    "name": "A4",
                    "ticks": 18944,
                    "time": 61.666568,
                    "velocity": 0.29133858267716534,
                },
                {
                    "duration": 0.4720044531250025,
                    "durationTicks": 145,
                    "midi": 69,
                    "name": "A4",
                    "ticks": 19200,
                    "time": 62.4999,
                    "velocity": 0.29133858267716534,
                },
                {
                    "duration": 0.8333319999999915,
                    "durationTicks": 256,
                    "midi": 64,
                    "name": "E4",
                    "ticks": 19456,
                    "time": 63.333232,
                    "velocity": 0.2204724409448819,
                },
                {
                    "duration": 0.24739543750000337,
                    "durationTicks": 76,
                    "midi": 64,
                    "name": "E4",
                    "ticks": 19712,
                    "time": 64.166564,
                    "velocity": 0.29133858267716534,
                },
                {
                    "duration": 0.24739543749998916,
                    "durationTicks": 76,
                    "midi": 64,
                    "name": "E4",
                    "ticks": 19840,
                    "time": 64.58323,
                    "velocity": 0.28346456692913385,
                },
                {
                    "duration": 0.49804607812500024,
                    "durationTicks": 153,
                    "midi": 64,
                    "name": "E4",
                    "ticks": 19968,
                    "time": 64.99989599999999,
                    "velocity": 0.28346456692913385,
                },
                {
                    "duration": 0.4720044531250096,
                    "durationTicks": 145,
                    "midi": 64,
                    "name": "E4",
                    "ticks": 20224,
                    "time": 65.83322799999999,
                    "velocity": 0.2755905511811024,
                },
                {
                    "duration": 0.8333319999999986,
                    "durationTicks": 256,
                    "midi": 64,
                    "name": "E4",
                    "ticks": 20480,
                    "time": 66.66655999999999,
                    "velocity": 0.28346456692913385,
                },
                {
                    "duration": 0.24739543750000337,
                    "durationTicks": 76,
                    "midi": 66,
                    "name": "F#4",
                    "ticks": 20736,
                    "time": 67.49989199999999,
                    "velocity": 0.2755905511811024,
                },
                {
                    "duration": 0.24739543750000337,
                    "durationTicks": 76,
                    "midi": 68,
                    "name": "G#4",
                    "ticks": 20864,
                    "time": 67.916558,
                    "velocity": 0.31496062992125984,
                },
                {
                    "duration": 0.8333319999999986,
                    "durationTicks": 256,
                    "midi": 69,
                    "name": "A4",
                    "ticks": 20992,
                    "time": 68.33322399999999,
                    "velocity": 0.31496062992125984,
                },
                {
                    "duration": 0.8333319999999986,
                    "durationTicks": 256,
                    "midi": 67,
                    "name": "G4",
                    "ticks": 21504,
                    "time": 69.999888,
                    "velocity": 0.25984251968503935,
                },
                {
                    "duration": 0.24739543749998916,
                    "durationTicks": 76,
                    "midi": 67,
                    "name": "G4",
                    "ticks": 21760,
                    "time": 70.83322,
                    "velocity": 0.2755905511811024,
                },
                {
                    "duration": 0.24739543750000337,
                    "durationTicks": 76,
                    "midi": 69,
                    "name": "A4",
                    "ticks": 21888,
                    "time": 71.24988599999999,
                    "velocity": 0.28346456692913385,
                },
                {
                    "duration": 0.49804607812500024,
                    "durationTicks": 153,
                    "midi": 71,
                    "name": "B4",
                    "ticks": 22016,
                    "time": 71.666552,
                    "velocity": 0.31496062992125984,
                },
                {
                    "duration": 0.4720044531249954,
                    "durationTicks": 145,
                    "midi": 71,
                    "name": "B4",
                    "ticks": 22272,
                    "time": 72.499884,
                    "velocity": 0.29133858267716534,
                },
                {
                    "duration": 0.8333319999999986,
                    "durationTicks": 256,
                    "midi": 66,
                    "name": "F#4",
                    "ticks": 22528,
                    "time": 73.333216,
                    "velocity": 0.23622047244094488,
                },
                {
                    "duration": 0.24739543750000337,
                    "durationTicks": 76,
                    "midi": 66,
                    "name": "F#4",
                    "ticks": 22784,
                    "time": 74.16654799999999,
                    "velocity": 0.23622047244094488,
                },
                {
                    "duration": 0.24739543749998916,
                    "durationTicks": 76,
                    "midi": 68,
                    "name": "G#4",
                    "ticks": 22912,
                    "time": 74.583214,
                    "velocity": 0.2992125984251969,
                },
                {
                    "duration": 0.49804607812500024,
                    "durationTicks": 153,
                    "midi": 69,
                    "name": "A4",
                    "ticks": 23040,
                    "time": 74.99987999999999,
                    "velocity": 0.29133858267716534,
                },
                {
                    "duration": 0.4720044531249954,
                    "durationTicks": 145,
                    "midi": 69,
                    "name": "A4",
                    "ticks": 23296,
                    "time": 75.83321199999999,
                    "velocity": 0.2283464566929134,
                },
                {
                    "duration": 0.8333319999999986,
                    "durationTicks": 256,
                    "midi": 64,
                    "name": "E4",
                    "ticks": 23552,
                    "time": 76.66654399999999,
                    "velocity": 0.2440944881889764,
                },
                {
                    "duration": 0.24739543750000337,
                    "durationTicks": 76,
                    "midi": 64,
                    "name": "E4",
                    "ticks": 23808,
                    "time": 77.49987599999999,
                    "velocity": 0.2755905511811024,
                },
                {
                    "duration": 0.24739543750000337,
                    "durationTicks": 76,
                    "midi": 64,
                    "name": "E4",
                    "ticks": 23936,
                    "time": 77.91654199999999,
                    "velocity": 0.28346456692913385,
                },
                {
                    "duration": 0.49804607812500024,
                    "durationTicks": 153,
                    "midi": 64,
                    "name": "E4",
                    "ticks": 24064,
                    "time": 78.33320799999998,
                    "velocity": 0.29133858267716534,
                },
                {
                    "duration": 0.4720044531249954,
                    "durationTicks": 145,
                    "midi": 64,
                    "name": "E4",
                    "ticks": 24320,
                    "time": 79.16654,
                    "velocity": 0.2755905511811024,
                },
                {
                    "duration": 0.8333319999999986,
                    "durationTicks": 256,
                    "midi": 64,
                    "name": "E4",
                    "ticks": 24576,
                    "time": 79.999872,
                    "velocity": 0.28346456692913385,
                },
                {
                    "duration": 0.24739543749998916,
                    "durationTicks": 76,
                    "midi": 66,
                    "name": "F#4",
                    "ticks": 24832,
                    "time": 80.833204,
                    "velocity": 0.2677165354330709,
                },
                {
                    "duration": 0.24739543750000337,
                    "durationTicks": 76,
                    "midi": 68,
                    "name": "G#4",
                    "ticks": 24960,
                    "time": 81.24986999999999,
                    "velocity": 0.28346456692913385,
                },
                {
                    "duration": 0.8333319999999986,
                    "durationTicks": 256,
                    "midi": 69,
                    "name": "A4",
                    "ticks": 25088,
                    "time": 81.666536,
                    "velocity": 0.29133858267716534,
                },
                {
                    "duration": 1.6992160312500033,
                    "durationTicks": 522,
                    "midi": 72,
                    "name": "C5",
                    "ticks": 25600,
                    "time": 83.33319999999999,
                    "velocity": 0.3858267716535433,
                },
                {
                    "duration": 1.5657527031249998,
                    "durationTicks": 481,
                    "midi": 71,
                    "name": "B4",
                    "ticks": 26112,
                    "time": 84.99986399999999,
                    "velocity": 0.3858267716535433,
                },
                {
                    "duration": 0.20833300000001032,
                    "durationTicks": 64,
                    "midi": 71,
                    "name": "B4",
                    "ticks": 26624,
                    "time": 86.66652799999999,
                    "velocity": 0.4645669291338583,
                },
                {
                    "duration": 0.2083329999999961,
                    "durationTicks": 64,
                    "midi": 72,
                    "name": "C5",
                    "ticks": 26688,
                    "time": 86.874861,
                    "velocity": 0.4645669291338583,
                },
                {
                    "duration": 0.8333319999999986,
                    "durationTicks": 256,
                    "midi": 74,
                    "name": "D5",
                    "ticks": 26752,
                    "time": 87.08319399999999,
                    "velocity": 0.4645669291338583,
                },
                {
                    "duration": 0.21158820312500382,
                    "durationTicks": 65,
                    "midi": 72,
                    "name": "C5",
                    "ticks": 27008,
                    "time": 87.91652599999999,
                    "velocity": 0.4409448818897638,
                },
                {
                    "duration": 0.1953121875000079,
                    "durationTicks": 60,
                    "midi": 71,
                    "name": "B4",
                    "ticks": 27072,
                    "time": 88.12485899999999,
                    "velocity": 0.3464566929133858,
                },
                {
                    "duration": 0.4231764062499934,
                    "durationTicks": 130,
                    "midi": 71,
                    "name": "B4",
                    "ticks": 27136,
                    "time": 88.333192,
                    "velocity": 0.3937007874015748,
                },
                {
                    "duration": 0.3938795781249951,
                    "durationTicks": 121,
                    "midi": 72,
                    "name": "C5",
                    "ticks": 27264,
                    "time": 88.74985799999999,
                    "velocity": 0.3779527559055118,
                },
                {
                    "duration": 0.8333319999999986,
                    "durationTicks": 256,
                    "midi": 72,
                    "name": "C5",
                    "ticks": 27392,
                    "time": 89.166524,
                    "velocity": 0.4409448818897638,
                },
                {
                    "duration": 1.2499979999999908,
                    "durationTicks": 384,
                    "midi": 72,
                    "name": "C5",
                    "ticks": 27648,
                    "time": 89.999856,
                    "velocity": 0.3858267716535433,
                },
                {
                    "duration": 0.21158820312500382,
                    "durationTicks": 65,
                    "midi": 72,
                    "name": "C5",
                    "ticks": 28032,
                    "time": 91.24985399999998,
                    "velocity": 0.4645669291338583,
                },
                {
                    "duration": 0.19531218749999368,
                    "durationTicks": 60,
                    "midi": 74,
                    "name": "D5",
                    "ticks": 28096,
                    "time": 91.458187,
                    "velocity": 0.49606299212598426,
                },
                {
                    "duration": 0.4231764062499934,
                    "durationTicks": 130,
                    "midi": 75,
                    "name": "D#5",
                    "ticks": 28160,
                    "time": 91.66651999999999,
                    "velocity": 0.47244094488188976,
                },
                {
                    "duration": 0.3938795781250093,
                    "durationTicks": 121,
                    "midi": 76,
                    "name": "E5",
                    "ticks": 28288,
                    "time": 92.08318599999998,
                    "velocity": 0.5196850393700787,
                },
                {
                    "duration": 0.24739543750000337,
                    "durationTicks": 76,
                    "midi": 76,
                    "name": "E5",
                    "ticks": 28416,
                    "time": 92.49985199999999,
                    "velocity": 0.41732283464566927,
                },
                {
                    "duration": 0.24739543749998916,
                    "durationTicks": 76,
                    "midi": 76,
                    "name": "E5",
                    "ticks": 28544,
                    "time": 92.916518,
                    "velocity": 0.4566929133858268,
                },
                {
                    "duration": 0.1953121875000079,
                    "durationTicks": 60,
                    "midi": 74,
                    "name": "D5",
                    "ticks": 28672,
                    "time": 93.33318399999999,
                    "velocity": 0.41732283464566927,
                },
                {
                    "duration": 0.19531218749999368,
                    "durationTicks": 60,
                    "midi": 76,
                    "name": "E5",
                    "ticks": 28732,
                    "time": 93.5284961875,
                    "velocity": 0.41732283464566927,
                },
                {
                    "duration": 0.8593736250000035,
                    "durationTicks": 264,
                    "midi": 77,
                    "name": "F5",
                    "ticks": 28792,
                    "time": 93.72380837499999,
                    "velocity": 0.41732283464566927,
                },
                {
                    "duration": 0.2115882031249896,
                    "durationTicks": 65,
                    "midi": 76,
                    "name": "E5",
                    "ticks": 29056,
                    "time": 94.583182,
                    "velocity": 0.3937007874015748,
                },
                {
                    "duration": 0.19531218749999368,
                    "durationTicks": 60,
                    "midi": 74,
                    "name": "D5",
                    "ticks": 29120,
                    "time": 94.79151499999999,
                    "velocity": 0.3858267716535433,
                },
                {
                    "duration": 0.42317640625000763,
                    "durationTicks": 130,
                    "midi": 74,
                    "name": "D5",
                    "ticks": 29184,
                    "time": 94.99984799999999,
                    "velocity": 0.4015748031496063,
                },
                {
                    "duration": 0.3938795781249951,
                    "durationTicks": 121,
                    "midi": 76,
                    "name": "E5",
                    "ticks": 29312,
                    "time": 95.41651399999999,
                    "velocity": 0.4015748031496063,
                },
                {
                    "duration": 0.8333319999999986,
                    "durationTicks": 256,
                    "midi": 76,
                    "name": "E5",
                    "ticks": 29440,
                    "time": 95.83317999999998,
                    "velocity": 0.4094488188976378,
                },
                {
                    "duration": 1.6992160312500033,
                    "durationTicks": 522,
                    "midi": 76,
                    "name": "E5",
                    "ticks": 29696,
                    "time": 96.66651199999998,
                    "velocity": 0.41732283464566927,
                },
                {
                    "duration": 1.5820287187499957,
                    "durationTicks": 486,
                    "midi": 75,
                    "name": "D#5",
                    "ticks": 30208,
                    "time": 98.333176,
                    "velocity": 0.41732283464566927,
                },
                {
                    "duration": 0.4231764062499934,
                    "durationTicks": 130,
                    "midi": 74,
                    "name": "D5",
                    "ticks": 30720,
                    "time": 99.99983999999999,
                    "velocity": 0.4015748031496063,
                },
                {
                    "duration": 0.21158820312500382,
                    "durationTicks": 65,
                    "midi": 71,
                    "name": "B4",
                    "ticks": 30848,
                    "time": 100.41650599999998,
                    "velocity": 0.3543307086614173,
                },
                {
                    "duration": 0.2115882031249896,
                    "durationTicks": 65,
                    "midi": 73,
                    "name": "C#5",
                    "ticks": 30912,
                    "time": 100.624839,
                    "velocity": 0.4251968503937008,
                },
                {
                    "duration": 0.4231764062499934,
                    "durationTicks": 130,
                    "midi": 74,
                    "name": "D5",
                    "ticks": 30976,
                    "time": 100.83317199999999,
                    "velocity": 0.41732283464566927,
                },
                {
                    "duration": 0.2115882031249896,
                    "durationTicks": 65,
                    "midi": 76,
                    "name": "E5",
                    "ticks": 31104,
                    "time": 101.249838,
                    "velocity": 0.4566929133858268,
                },
                {
                    "duration": 0.19531218749999368,
                    "durationTicks": 60,
                    "midi": 74,
                    "name": "D5",
                    "ticks": 31168,
                    "time": 101.458171,
                    "velocity": 0.4330708661417323,
                },
                {
                    "duration": 0.42317640625000763,
                    "durationTicks": 130,
                    "midi": 74,
                    "name": "D5",
                    "ticks": 31232,
                    "time": 101.66650399999999,
                    "velocity": 0.3858267716535433,
                },
                {
                    "duration": 0.3938795781249951,
                    "durationTicks": 121,
                    "midi": 73,
                    "name": "C#5",
                    "ticks": 31360,
                    "time": 102.08317,
                    "velocity": 0.36220472440944884,
                },
                {
                    "duration": 0.8333319999999986,
                    "durationTicks": 256,
                    "midi": 72,
                    "name": "C5",
                    "ticks": 31488,
                    "time": 102.49983599999999,
                    "velocity": 0.3858267716535433,
                },
                {
                    "duration": 1.6992160312500033,
                    "durationTicks": 522,
                    "midi": 72,
                    "name": "C5",
                    "ticks": 31744,
                    "time": 103.33316799999999,
                    "velocity": 0.3937007874015748,
                },
                {
                    "duration": 0.8496080156250088,
                    "durationTicks": 261,
                    "midi": 71,
                    "name": "B4",
                    "ticks": 32256,
                    "time": 104.99983199999998,
                    "velocity": 0.3858267716535433,
                },
                {
                    "duration": 0.7454415156249894,
                    "durationTicks": 229,
                    "midi": 72,
                    "name": "C5",
                    "ticks": 32512,
                    "time": 105.833164,
                    "velocity": 0.4094488188976378,
                },
                {
                    "duration": 0.19531218749999368,
                    "durationTicks": 60,
                    "midi": 71,
                    "name": "B4",
                    "ticks": 32768,
                    "time": 106.666496,
                    "velocity": 0.4330708661417323,
                },
                {
                    "duration": 0.1953121875000079,
                    "durationTicks": 60,
                    "midi": 72,
                    "name": "C5",
                    "ticks": 32828,
                    "time": 106.86180818749999,
                    "velocity": 0.4330708661417323,
                },
                {
                    "duration": 0.8593736249999893,
                    "durationTicks": 264,
                    "midi": 74,
                    "name": "D5",
                    "ticks": 32888,
                    "time": 107.057120375,
                    "velocity": 0.4330708661417323,
                },
                {
                    "duration": 0.21158820312500382,
                    "durationTicks": 65,
                    "midi": 72,
                    "name": "C5",
                    "ticks": 33152,
                    "time": 107.91649399999999,
                    "velocity": 0.41732283464566927,
                },
                {
                    "duration": 0.19531218749999368,
                    "durationTicks": 60,
                    "midi": 71,
                    "name": "B4",
                    "ticks": 33216,
                    "time": 108.124827,
                    "velocity": 0.4015748031496063,
                },
                {
                    "duration": 0.4166659999999922,
                    "durationTicks": 128,
                    "midi": 69,
                    "name": "A4",
                    "ticks": 33280,
                    "time": 108.33315999999999,
                    "velocity": 0.3779527559055118,
                },
                {
                    "duration": 0.21158820312500382,
                    "durationTicks": 65,
                    "midi": 69,
                    "name": "A4",
                    "ticks": 33408,
                    "time": 108.74982599999998,
                    "velocity": 0.41732283464566927,
                },
                {
                    "duration": 0.19531218749999368,
                    "durationTicks": 60,
                    "midi": 71,
                    "name": "B4",
                    "ticks": 33472,
                    "time": 108.958159,
                    "velocity": 0.4251968503937008,
                },
                {
                    "duration": 0.24739543750000337,
                    "durationTicks": 76,
                    "midi": 72,
                    "name": "C5",
                    "ticks": 33536,
                    "time": 109.16649199999999,
                    "velocity": 0.44881889763779526,
                },
                {
                    "duration": 0.21158820312500382,
                    "durationTicks": 65,
                    "midi": 72,
                    "name": "C5",
                    "ticks": 33664,
                    "time": 109.58315799999998,
                    "velocity": 0.47244094488188976,
                },
                {
                    "duration": 0.19531218749999368,
                    "durationTicks": 60,
                    "midi": 74,
                    "name": "D5",
                    "ticks": 33728,
                    "time": 109.791491,
                    "velocity": 0.4881889763779528,
                },
                {
                    "duration": 1.6992160312500033,
                    "durationTicks": 522,
                    "midi": 76,
                    "name": "E5",
                    "ticks": 33792,
                    "time": 109.99982399999999,
                    "velocity": 0.8188976377952756,
                },
                {
                    "duration": 1.5820287187499957,
                    "durationTicks": 486,
                    "midi": 75,
                    "name": "D#5",
                    "ticks": 34304,
                    "time": 111.66648799999999,
                    "velocity": 0.8031496062992126,
                },
                {
                    "duration": 0.42317640625000763,
                    "durationTicks": 130,
                    "midi": 74,
                    "name": "D5",
                    "ticks": 34816,
                    "time": 113.33315199999998,
                    "velocity": 0.7480314960629921,
                },
                {
                    "duration": 0.21158820312500382,
                    "durationTicks": 65,
                    "midi": 71,
                    "name": "B4",
                    "ticks": 34944,
                    "time": 113.74981799999999,
                    "velocity": 0.6929133858267716,
                },
                {
                    "duration": 0.21158820312500382,
                    "durationTicks": 65,
                    "midi": 73,
                    "name": "C#5",
                    "ticks": 35008,
                    "time": 113.95815099999999,
                    "velocity": 0.889763779527559,
                },
                {
                    "duration": 0.42317640625000763,
                    "durationTicks": 130,
                    "midi": 74,
                    "name": "D5",
                    "ticks": 35072,
                    "time": 114.16648399999998,
                    "velocity": 0.905511811023622,
                },
                {
                    "duration": 0.21158820312500382,
                    "durationTicks": 65,
                    "midi": 76,
                    "name": "E5",
                    "ticks": 35200,
                    "time": 114.58314999999999,
                    "velocity": 0.8976377952755905,
                },
                {
                    "duration": 0.1953121875000079,
                    "durationTicks": 60,
                    "midi": 74,
                    "name": "D5",
                    "ticks": 35264,
                    "time": 114.79148299999999,
                    "velocity": 0.8503937007874016,
                },
                {
                    "duration": 0.4231764062499934,
                    "durationTicks": 130,
                    "midi": 74,
                    "name": "D5",
                    "ticks": 35328,
                    "time": 114.999816,
                    "velocity": 0.8503937007874016,
                },
                {
                    "duration": 0.3938795781249951,
                    "durationTicks": 121,
                    "midi": 73,
                    "name": "C#5",
                    "ticks": 35456,
                    "time": 115.41648199999999,
                    "velocity": 0.8031496062992126,
                },
                {
                    "duration": 0.8333319999999986,
                    "durationTicks": 256,
                    "midi": 72,
                    "name": "C5",
                    "ticks": 35584,
                    "time": 115.833148,
                    "velocity": 0.7637795275590551,
                },
                {
                    "duration": 1.6992160312500033,
                    "durationTicks": 522,
                    "midi": 72,
                    "name": "C5",
                    "ticks": 35840,
                    "time": 116.66647999999999,
                    "velocity": 0.8346456692913385,
                },
                {
                    "duration": 0.8496080156249946,
                    "durationTicks": 261,
                    "midi": 71,
                    "name": "B4",
                    "ticks": 36352,
                    "time": 118.33314399999999,
                    "velocity": 0.8031496062992126,
                },
                {
                    "duration": 0.7454415156250036,
                    "durationTicks": 229,
                    "midi": 72,
                    "name": "C5",
                    "ticks": 36608,
                    "time": 119.16647599999999,
                    "velocity": 0.8582677165354331,
                },
                {
                    "duration": 0.1953121875000079,
                    "durationTicks": 60,
                    "midi": 71,
                    "name": "B4",
                    "ticks": 36864,
                    "time": 119.99980799999999,
                    "velocity": 0.84251968503937,
                },
                {
                    "duration": 0.19531218749999368,
                    "durationTicks": 60,
                    "midi": 72,
                    "name": "C5",
                    "ticks": 36924,
                    "time": 120.1951201875,
                    "velocity": 0.84251968503937,
                },
                {
                    "duration": 0.8593736250000035,
                    "durationTicks": 264,
                    "midi": 74,
                    "name": "D5",
                    "ticks": 36984,
                    "time": 120.39043237499999,
                    "velocity": 0.84251968503937,
                },
                {
                    "duration": 0.2115882031249896,
                    "durationTicks": 65,
                    "midi": 72,
                    "name": "C5",
                    "ticks": 37248,
                    "time": 121.24980599999999,
                    "velocity": 0.8346456692913385,
                },
                {
                    "duration": 0.19531218749999368,
                    "durationTicks": 60,
                    "midi": 71,
                    "name": "B4",
                    "ticks": 37312,
                    "time": 121.45813899999999,
                    "velocity": 0.7952755905511811,
                },
                {
                    "duration": 0.8333319999999986,
                    "durationTicks": 256,
                    "midi": 69,
                    "name": "A4",
                    "ticks": 37376,
                    "time": 121.66647199999998,
                    "velocity": 0.7874015748031497,
                },
                {
                    "duration": 0.42317640625000763,
                    "durationTicks": 130,
                    "midi": 69,
                    "name": "A4",
                    "ticks": 38016,
                    "time": 123.74980199999999,
                    "velocity": 0.8110236220472441,
                },
                {
                    "duration": 0.4231764062499934,
                    "durationTicks": 130,
                    "midi": 72,
                    "name": "C5",
                    "ticks": 38144,
                    "time": 124.166468,
                    "velocity": 0.8188976377952756,
                },
                {
                    "duration": 0.3938795781249951,
                    "durationTicks": 121,
                    "midi": 64,
                    "name": "E4",
                    "ticks": 38272,
                    "time": 124.58313399999999,
                    "velocity": 0.6535433070866141,
                },
                {
                    "duration": 0.42317640625000763,
                    "durationTicks": 130,
                    "midi": 71,
                    "name": "B4",
                    "ticks": 38528,
                    "time": 125.41646599999999,
                    "velocity": 0.6771653543307087,
                },
                {
                    "duration": 0.4231764062499934,
                    "durationTicks": 130,
                    "midi": 74,
                    "name": "D5",
                    "ticks": 38656,
                    "time": 125.83313199999999,
                    "velocity": 0.7637795275590551,
                },
                {
                    "duration": 0.3938795781250093,
                    "durationTicks": 121,
                    "midi": 64,
                    "name": "E4",
                    "ticks": 38784,
                    "time": 126.24979799999998,
                    "velocity": 0.5748031496062992,
                },
                {
                    "duration": 0.42317640625000763,
                    "durationTicks": 130,
                    "midi": 71,
                    "name": "B4",
                    "ticks": 39040,
                    "time": 127.08312999999998,
                    "velocity": 0.6771653543307087,
                },
                {
                    "duration": 0.4231764062499934,
                    "durationTicks": 130,
                    "midi": 74,
                    "name": "D5",
                    "ticks": 39168,
                    "time": 127.49979599999999,
                    "velocity": 0.7165354330708661,
                },
                {
                    "duration": 0.3938795781249951,
                    "durationTicks": 121,
                    "midi": 68,
                    "name": "G#4",
                    "ticks": 39296,
                    "time": 127.916462,
                    "velocity": 0.6220472440944882,
                },
                {
                    "duration": 0.4231764062499792,
                    "durationTicks": 130,
                    "midi": 72,
                    "name": "C5",
                    "ticks": 39552,
                    "time": 128.749794,
                    "velocity": 0.6692913385826772,
                },
                {
                    "duration": 0.42317640625000763,
                    "durationTicks": 130,
                    "midi": 76,
                    "name": "E5",
                    "ticks": 39680,
                    "time": 129.16646,
                    "velocity": 0.7007874015748031,
                },
                {
                    "duration": 0.3938795781249951,
                    "durationTicks": 121,
                    "midi": 69,
                    "name": "A4",
                    "ticks": 39808,
                    "time": 129.583126,
                    "velocity": 0.6062992125984252,
                },
                {
                    "duration": 0.4231764062499792,
                    "durationTicks": 130,
                    "midi": 69,
                    "name": "A4",
                    "ticks": 40064,
                    "time": 130.416458,
                    "velocity": 0.6929133858267716,
                },
                {
                    "duration": 0.42317640625000763,
                    "durationTicks": 130,
                    "midi": 72,
                    "name": "C5",
                    "ticks": 40192,
                    "time": 130.833124,
                    "velocity": 0.7322834645669292,
                },
                {
                    "duration": 0.3938795781249951,
                    "durationTicks": 121,
                    "midi": 60,
                    "name": "C4",
                    "ticks": 40320,
                    "time": 131.24979,
                    "velocity": 0.5433070866141733,
                },
                {
                    "duration": 0.42317640625000763,
                    "durationTicks": 130,
                    "midi": 72,
                    "name": "C5",
                    "ticks": 40576,
                    "time": 132.08312199999997,
                    "velocity": 0.6535433070866141,
                },
                {
                    "duration": 0.4231764062499792,
                    "durationTicks": 130,
                    "midi": 76,
                    "name": "E5",
                    "ticks": 40704,
                    "time": 132.499788,
                    "velocity": 0.7244094488188977,
                },
                {
                    "duration": 0.3938795781249951,
                    "durationTicks": 121,
                    "midi": 64,
                    "name": "E4",
                    "ticks": 40832,
                    "time": 132.916454,
                    "velocity": 0.5984251968503937,
                },
                {
                    "duration": 0.4231764062499792,
                    "durationTicks": 130,
                    "midi": 71,
                    "name": "B4",
                    "ticks": 41088,
                    "time": 133.749786,
                    "velocity": 0.7165354330708661,
                },
                {
                    "duration": 0.42317640625000763,
                    "durationTicks": 130,
                    "midi": 74,
                    "name": "D5",
                    "ticks": 41216,
                    "time": 134.166452,
                    "velocity": 0.7559055118110236,
                },
                {
                    "duration": 0.3938795781249951,
                    "durationTicks": 121,
                    "midi": 67,
                    "name": "G4",
                    "ticks": 41344,
                    "time": 134.58311799999998,
                    "velocity": 0.6062992125984252,
                },
                {
                    "duration": 0.4231764062499792,
                    "durationTicks": 130,
                    "midi": 72,
                    "name": "C5",
                    "ticks": 41600,
                    "time": 135.41645,
                    "velocity": 0.6614173228346457,
                },
                {
                    "duration": 0.42317640625000763,
                    "durationTicks": 130,
                    "midi": 76,
                    "name": "E5",
                    "ticks": 41728,
                    "time": 135.833116,
                    "velocity": 0.7322834645669292,
                },
                {
                    "duration": 0.3938795781249951,
                    "durationTicks": 121,
                    "midi": 67,
                    "name": "G4",
                    "ticks": 41856,
                    "time": 136.24978199999998,
                    "velocity": 0.6062992125984252,
                },
                {
                    "duration": 0.42317640625000763,
                    "durationTicks": 130,
                    "midi": 72,
                    "name": "C5",
                    "ticks": 42112,
                    "time": 137.083114,
                    "velocity": 0.6771653543307087,
                },
                {
                    "duration": 0.42317640625000763,
                    "durationTicks": 130,
                    "midi": 76,
                    "name": "E5",
                    "ticks": 42240,
                    "time": 137.49978,
                    "velocity": 0.7716535433070866,
                },
                {
                    "duration": 0.3938795781249951,
                    "durationTicks": 121,
                    "midi": 64,
                    "name": "E4",
                    "ticks": 42368,
                    "time": 137.91644599999998,
                    "velocity": 0.5511811023622047,
                },
                {
                    "duration": 0.42317640625000763,
                    "durationTicks": 130,
                    "midi": 75,
                    "name": "D#5",
                    "ticks": 42624,
                    "time": 138.749778,
                    "velocity": 0.6929133858267716,
                },
                {
                    "duration": 0.42317640625000763,
                    "durationTicks": 130,
                    "midi": 83,
                    "name": "B5",
                    "ticks": 42752,
                    "time": 139.16644399999998,
                    "velocity": 0.8188976377952756,
                },
                {
                    "duration": 0.3938795781250235,
                    "durationTicks": 121,
                    "midi": 71,
                    "name": "B4",
                    "ticks": 42880,
                    "time": 139.58310999999998,
                    "velocity": 0.5984251968503937,
                },
                {
                    "duration": 0.42317640625000763,
                    "durationTicks": 130,
                    "midi": 71,
                    "name": "B4",
                    "ticks": 43136,
                    "time": 140.416442,
                    "velocity": 0.6929133858267716,
                },
                {
                    "duration": 0.42317640625000763,
                    "durationTicks": 130,
                    "midi": 74,
                    "name": "D5",
                    "ticks": 43264,
                    "time": 140.83310799999998,
                    "velocity": 0.7559055118110236,
                },
                {
                    "duration": 0.3938795781249951,
                    "durationTicks": 121,
                    "midi": 62,
                    "name": "D4",
                    "ticks": 43392,
                    "time": 141.249774,
                    "velocity": 0.5511811023622047,
                },
                {
                    "duration": 0.42317640625000763,
                    "durationTicks": 130,
                    "midi": 73,
                    "name": "C#5",
                    "ticks": 43648,
                    "time": 142.083106,
                    "velocity": 0.7086614173228346,
                },
                {
                    "duration": 0.42317640625000763,
                    "durationTicks": 130,
                    "midi": 81,
                    "name": "A5",
                    "ticks": 43776,
                    "time": 142.49977199999998,
                    "velocity": 0.8110236220472441,
                },
                {
                    "duration": 0.3938795781249951,
                    "durationTicks": 121,
                    "midi": 69,
                    "name": "A4",
                    "ticks": 43904,
                    "time": 142.916438,
                    "velocity": 0.5826771653543307,
                },
                {
                    "duration": 0.42317640625000763,
                    "durationTicks": 130,
                    "midi": 72,
                    "name": "C5",
                    "ticks": 44160,
                    "time": 143.74976999999998,
                    "velocity": 0.6692913385826772,
                },
                {
                    "duration": 0.42317640625000763,
                    "durationTicks": 130,
                    "midi": 76,
                    "name": "E5",
                    "ticks": 44288,
                    "time": 144.16643599999998,
                    "velocity": 0.7716535433070866,
                },
                {
                    "duration": 0.3938795781249951,
                    "durationTicks": 121,
                    "midi": 64,
                    "name": "E4",
                    "ticks": 44416,
                    "time": 144.583102,
                    "velocity": 0.5590551181102362,
                },
                {
                    "duration": 0.42317640625000763,
                    "durationTicks": 130,
                    "midi": 71,
                    "name": "B4",
                    "ticks": 44672,
                    "time": 145.41643399999998,
                    "velocity": 0.6692913385826772,
                },
                {
                    "duration": 0.4231764062499792,
                    "durationTicks": 130,
                    "midi": 76,
                    "name": "E5",
                    "ticks": 44800,
                    "time": 145.8331,
                    "velocity": 0.7874015748031497,
                },
                {
                    "duration": 0.3938795781249951,
                    "durationTicks": 121,
                    "midi": 64,
                    "name": "E4",
                    "ticks": 44928,
                    "time": 146.249766,
                    "velocity": 0.5984251968503937,
                },
                {
                    "duration": 0.42317640625000763,
                    "durationTicks": 130,
                    "midi": 71,
                    "name": "B4",
                    "ticks": 45184,
                    "time": 147.08309799999998,
                    "velocity": 0.7007874015748031,
                },
                {
                    "duration": 0.4231764062499792,
                    "durationTicks": 130,
                    "midi": 76,
                    "name": "E5",
                    "ticks": 45312,
                    "time": 147.499764,
                    "velocity": 0.7795275590551181,
                },
                {
                    "duration": 0.3938795781249951,
                    "durationTicks": 121,
                    "midi": 64,
                    "name": "E4",
                    "ticks": 45440,
                    "time": 147.91643,
                    "velocity": 0.5354330708661418,
                },
                {
                    "duration": 0.42317640625000763,
                    "durationTicks": 130,
                    "midi": 72,
                    "name": "C5",
                    "ticks": 45696,
                    "time": 148.74976199999998,
                    "velocity": 0.6929133858267716,
                },
                {
                    "duration": 0.4231764062499792,
                    "durationTicks": 130,
                    "midi": 76,
                    "name": "E5",
                    "ticks": 45824,
                    "time": 149.166428,
                    "velocity": 0.7874015748031497,
                },
                {
                    "duration": 0.3938795781249951,
                    "durationTicks": 121,
                    "midi": 64,
                    "name": "E4",
                    "ticks": 45952,
                    "time": 149.583094,
                    "velocity": 0.5118110236220472,
                },
                {
                    "duration": 0.4231764062499792,
                    "durationTicks": 130,
                    "midi": 72,
                    "name": "C5",
                    "ticks": 46208,
                    "time": 150.416426,
                    "velocity": 0.6141732283464567,
                },
                {
                    "duration": 0.42317640625000763,
                    "durationTicks": 130,
                    "midi": 76,
                    "name": "E5",
                    "ticks": 46336,
                    "time": 150.833092,
                    "velocity": 0.7874015748031497,
                },
                {
                    "duration": 0.3938795781249951,
                    "durationTicks": 121,
                    "midi": 64,
                    "name": "E4",
                    "ticks": 46464,
                    "time": 151.24975799999999,
                    "velocity": 0.4566929133858268,
                },
                {
                    "duration": 0.4231764062499792,
                    "durationTicks": 130,
                    "midi": 75,
                    "name": "D#5",
                    "ticks": 46720,
                    "time": 152.08309,
                    "velocity": 0.5826771653543307,
                },
                {
                    "duration": 0.42317640625000763,
                    "durationTicks": 130,
                    "midi": 83,
                    "name": "B5",
                    "ticks": 46848,
                    "time": 152.499756,
                    "velocity": 0.7480314960629921,
                },
                {
                    "duration": 0.3938795781249951,
                    "durationTicks": 121,
                    "midi": 71,
                    "name": "B4",
                    "ticks": 46976,
                    "time": 152.91642199999998,
                    "velocity": 0.49606299212598426,
                },
                {
                    "duration": 0.4231764062499792,
                    "durationTicks": 130,
                    "midi": 71,
                    "name": "B4",
                    "ticks": 47232,
                    "time": 153.749754,
                    "velocity": 0.49606299212598426,
                },
                {
                    "duration": 0.42317640625000763,
                    "durationTicks": 130,
                    "midi": 74,
                    "name": "D5",
                    "ticks": 47360,
                    "time": 154.16642,
                    "velocity": 0.6220472440944882,
                },
                {
                    "duration": 0.3938795781249951,
                    "durationTicks": 121,
                    "midi": 62,
                    "name": "D4",
                    "ticks": 47488,
                    "time": 154.58308599999998,
                    "velocity": 0.4094488188976378,
                },
                {
                    "duration": 0.42317640625000763,
                    "durationTicks": 130,
                    "midi": 73,
                    "name": "C#5",
                    "ticks": 47744,
                    "time": 155.416418,
                    "velocity": 0.47244094488188976,
                },
                {
                    "duration": 0.42317640625000763,
                    "durationTicks": 130,
                    "midi": 81,
                    "name": "A5",
                    "ticks": 47872,
                    "time": 155.83308399999999,
                    "velocity": 0.6614173228346457,
                },
                {
                    "duration": 0.3938795781250235,
                    "durationTicks": 121,
                    "midi": 69,
                    "name": "A4",
                    "ticks": 48000,
                    "time": 156.24974999999998,
                    "velocity": 0.36220472440944884,
                },
                {
                    "duration": 0.42317640625000763,
                    "durationTicks": 130,
                    "midi": 72,
                    "name": "C5",
                    "ticks": 48256,
                    "time": 157.083082,
                    "velocity": 0.4015748031496063,
                },
                {
                    "duration": 0.42317640625000763,
                    "durationTicks": 130,
                    "midi": 76,
                    "name": "E5",
                    "ticks": 48384,
                    "time": 157.49974799999998,
                    "velocity": 0.4330708661417323,
                },
                {
                    "duration": 0.3938795781250235,
                    "durationTicks": 121,
                    "midi": 64,
                    "name": "E4",
                    "ticks": 48512,
                    "time": 157.91641399999997,
                    "velocity": 0.3228346456692913,
                },
                {
                    "duration": 0.42317640625000763,
                    "durationTicks": 130,
                    "midi": 71,
                    "name": "B4",
                    "ticks": 48768,
                    "time": 158.749746,
                    "velocity": 0.41732283464566927,
                },
                {
                    "duration": 0.42317640625000763,
                    "durationTicks": 130,
                    "midi": 76,
                    "name": "E5",
                    "ticks": 48896,
                    "time": 159.16641199999998,
                    "velocity": 0.4881889763779528,
                },
                {
                    "duration": 0.3938795781249951,
                    "durationTicks": 121,
                    "midi": 64,
                    "name": "E4",
                    "ticks": 49024,
                    "time": 159.583078,
                    "velocity": 0.3464566929133858,
                },
                {
                    "duration": 0.42317640625000763,
                    "durationTicks": 130,
                    "midi": 71,
                    "name": "B4",
                    "ticks": 49280,
                    "time": 160.41640999999998,
                    "velocity": 0.4015748031496063,
                },
                {
                    "duration": 0.42317640625000763,
                    "durationTicks": 130,
                    "midi": 76,
                    "name": "E5",
                    "ticks": 49408,
                    "time": 160.83307599999998,
                    "velocity": 0.4409448818897638,
                },
                {
                    "duration": 0.3938795781249951,
                    "durationTicks": 121,
                    "midi": 64,
                    "name": "E4",
                    "ticks": 49536,
                    "time": 161.249742,
                    "velocity": 0.3779527559055118,
                },
                {
                    "duration": 0.3938795781249951,
                    "durationTicks": 121,
                    "midi": 74,
                    "name": "D5",
                    "ticks": 49536,
                    "time": 161.249742,
                    "velocity": 0.3779527559055118,
                },
                {
                    "duration": 0.8333319999999844,
                    "durationTicks": 256,
                    "midi": 64,
                    "name": "E4",
                    "ticks": 49664,
                    "time": 161.666408,
                    "velocity": 0.3700787401574803,
                },
                {
                    "duration": 0.8333319999999844,
                    "durationTicks": 256,
                    "midi": 72,
                    "name": "C5",
                    "ticks": 49664,
                    "time": 161.666408,
                    "velocity": 0.3700787401574803,
                },
                {
                    "duration": 0.1953121875000079,
                    "durationTicks": 60,
                    "midi": 59,
                    "name": "B3",
                    "ticks": 51200,
                    "time": 166.66639999999998,
                    "velocity": 0.4251968503937008,
                },
                {
                    "duration": 0.1953121875000079,
                    "durationTicks": 60,
                    "midi": 60,
                    "name": "C4",
                    "ticks": 51260,
                    "time": 166.8617121875,
                    "velocity": 0.4251968503937008,
                },
                {
                    "duration": 0.8593736249999893,
                    "durationTicks": 264,
                    "midi": 62,
                    "name": "D4",
                    "ticks": 51320,
                    "time": 167.057024375,
                    "velocity": 0.4251968503937008,
                },
                {
                    "duration": 0.2115882031249896,
                    "durationTicks": 65,
                    "midi": 60,
                    "name": "C4",
                    "ticks": 51584,
                    "time": 167.916398,
                    "velocity": 0.41732283464566927,
                },
                {
                    "duration": 0.19531218749997947,
                    "durationTicks": 60,
                    "midi": 59,
                    "name": "B3",
                    "ticks": 51648,
                    "time": 168.124731,
                    "velocity": 0.3858267716535433,
                },
                {
                    "duration": 3.3333279999999945,
                    "durationTicks": 1024,
                    "midi": 57,
                    "name": "A3",
                    "ticks": 51712,
                    "time": 168.33306399999998,
                    "velocity": 0.3937007874015748,
                },
                {
                    "duration": 2.49999600000001,
                    "durationTicks": 768,
                    "midi": 59,
                    "name": "B3",
                    "ticks": 52736,
                    "time": 171.66639199999997,
                    "velocity": 0.3858267716535433,
                },
                {
                    "duration": 0.8496080156249946,
                    "durationTicks": 261,
                    "midi": 57,
                    "name": "A3",
                    "ticks": 53504,
                    "time": 174.16638799999998,
                    "velocity": 0.4409448818897638,
                },
                {
                    "duration": 0.8496080156249946,
                    "durationTicks": 261,
                    "midi": 56,
                    "name": "G#3",
                    "ticks": 53760,
                    "time": 174.99972,
                    "velocity": 0.4881889763779528,
                },
                {
                    "duration": 0.7910143593749979,
                    "durationTicks": 243,
                    "midi": 57,
                    "name": "A3",
                    "ticks": 54016,
                    "time": 175.83305199999998,
                    "velocity": 0.5354330708661418,
                },
                {
                    "duration": 0.8496080156249946,
                    "durationTicks": 261,
                    "midi": 57,
                    "name": "A3",
                    "ticks": 54272,
                    "time": 176.666384,
                    "velocity": 0.5433070866141733,
                },
                {
                    "duration": 0.8496080156249946,
                    "durationTicks": 261,
                    "midi": 55,
                    "name": "G3",
                    "ticks": 54528,
                    "time": 177.49971599999998,
                    "velocity": 0.5984251968503937,
                },
                {
                    "duration": 0.8496080156249946,
                    "durationTicks": 261,
                    "midi": 57,
                    "name": "A3",
                    "ticks": 54784,
                    "time": 178.333048,
                    "velocity": 0.6377952755905512,
                },
                {
                    "duration": 0.7910143593749979,
                    "durationTicks": 243,
                    "midi": 59,
                    "name": "B3",
                    "ticks": 55040,
                    "time": 179.16637999999998,
                    "velocity": 0.5669291338582677,
                },
                {
                    "duration": 0.8496080156249946,
                    "durationTicks": 261,
                    "midi": 59,
                    "name": "B3",
                    "ticks": 55296,
                    "time": 179.999712,
                    "velocity": 0.5039370078740157,
                },
                {
                    "duration": 0.42317640625000763,
                    "durationTicks": 130,
                    "midi": 57,
                    "name": "A3",
                    "ticks": 55552,
                    "time": 180.83304399999997,
                    "velocity": 0.4330708661417323,
                },
                {
                    "duration": 0.3938795781249951,
                    "durationTicks": 121,
                    "midi": 55,
                    "name": "G3",
                    "ticks": 55680,
                    "time": 181.24971,
                    "velocity": 0.49606299212598426,
                },
                {
                    "duration": 0.3938795781249951,
                    "durationTicks": 121,
                    "midi": 67,
                    "name": "G4",
                    "ticks": 55680,
                    "time": 181.24971,
                    "velocity": 0.49606299212598426,
                },
                {
                    "duration": 0.8333320000000128,
                    "durationTicks": 256,
                    "midi": 55,
                    "name": "G3",
                    "ticks": 55808,
                    "time": 181.66637599999999,
                    "velocity": 0.3779527559055118,
                },
                {
                    "duration": 0.8333320000000128,
                    "durationTicks": 256,
                    "midi": 67,
                    "name": "G4",
                    "ticks": 55808,
                    "time": 181.66637599999999,
                    "velocity": 0.3779527559055118,
                },
                {
                    "duration": 2.916661999999974,
                    "durationTicks": 896,
                    "midi": 55,
                    "name": "G3",
                    "ticks": 56064,
                    "time": 182.499708,
                    "velocity": 0.36220472440944884,
                },
                {
                    "duration": 2.916661999999974,
                    "durationTicks": 896,
                    "midi": 67,
                    "name": "G4",
                    "ticks": 56064,
                    "time": 182.499708,
                    "velocity": 0.36220472440944884,
                },
                {
                    "duration": 0.41666600000002063,
                    "durationTicks": 128,
                    "midi": 57,
                    "name": "A3",
                    "ticks": 56960,
                    "time": 185.41636999999997,
                    "velocity": 0.5196850393700787,
                },
                {
                    "duration": 0.41666600000002063,
                    "durationTicks": 128,
                    "midi": 67,
                    "name": "G4",
                    "ticks": 56960,
                    "time": 185.41636999999997,
                    "velocity": 0.5196850393700787,
                },
                {
                    "duration": 1.6666639999999973,
                    "durationTicks": 512,
                    "midi": 57,
                    "name": "A3",
                    "ticks": 57088,
                    "time": 185.833036,
                    "velocity": 0.5118110236220472,
                },
                {
                    "duration": 1.6666639999999973,
                    "durationTicks": 512,
                    "midi": 66,
                    "name": "F#4",
                    "ticks": 57088,
                    "time": 185.833036,
                    "velocity": 0.5118110236220472,
                },
                {
                    "duration": 0.8333319999999844,
                    "durationTicks": 256,
                    "midi": 57,
                    "name": "A3",
                    "ticks": 57600,
                    "time": 187.4997,
                    "velocity": 0.5590551181102362,
                },
                {
                    "duration": 0.42317640625000763,
                    "durationTicks": 130,
                    "midi": 57,
                    "name": "A3",
                    "ticks": 57856,
                    "time": 188.33303199999997,
                    "velocity": 0.5275590551181102,
                },
                {
                    "duration": 0.4231764062499792,
                    "durationTicks": 130,
                    "midi": 59,
                    "name": "B3",
                    "ticks": 57984,
                    "time": 188.749698,
                    "velocity": 0.5275590551181102,
                },
                {
                    "duration": 0.3938795781249951,
                    "durationTicks": 121,
                    "midi": 61,
                    "name": "C#4",
                    "ticks": 58112,
                    "time": 189.166364,
                    "velocity": 0.4409448818897638,
                },
                {
                    "duration": 0.42317640625000763,
                    "durationTicks": 130,
                    "midi": 61,
                    "name": "C#4",
                    "ticks": 58240,
                    "time": 189.58302999999998,
                    "velocity": 0.4645669291338583,
                },
                {
                    "duration": 0.42317640625000763,
                    "durationTicks": 130,
                    "midi": 56,
                    "name": "G#3",
                    "ticks": 58368,
                    "time": 189.99969599999997,
                    "velocity": 0.4409448818897638,
                },
                {
                    "duration": 0.3938795781249951,
                    "durationTicks": 121,
                    "midi": 59,
                    "name": "B3",
                    "ticks": 58496,
                    "time": 190.416362,
                    "velocity": 0.44881889763779526,
                },
                {
                    "duration": 0.42317640625000763,
                    "durationTicks": 130,
                    "midi": 59,
                    "name": "B3",
                    "ticks": 58624,
                    "time": 190.83302799999998,
                    "velocity": 0.3700787401574803,
                },
                {
                    "duration": 0.42317640625000763,
                    "durationTicks": 130,
                    "midi": 57,
                    "name": "A3",
                    "ticks": 58752,
                    "time": 191.24969399999998,
                    "velocity": 0.36220472440944884,
                },
                {
                    "duration": 0.7910143593749979,
                    "durationTicks": 243,
                    "midi": 56,
                    "name": "G#3",
                    "ticks": 58880,
                    "time": 191.66636,
                    "velocity": 0.3700787401574803,
                },
                {
                    "duration": 2.548824046875012,
                    "durationTicks": 783,
                    "midi": 59,
                    "name": "B3",
                    "ticks": 59136,
                    "time": 192.49969199999998,
                    "velocity": 0.3464566929133858,
                },
                {
                    "duration": 0.8496080156249946,
                    "durationTicks": 261,
                    "midi": 68,
                    "name": "G#4",
                    "ticks": 59136,
                    "time": 192.49969199999998,
                    "velocity": 0.3464566929133858,
                },
                {
                    "duration": 1.5820287187499957,
                    "durationTicks": 486,
                    "midi": 69,
                    "name": "A4",
                    "ticks": 59392,
                    "time": 193.333024,
                    "velocity": 0.3779527559055118,
                },
                {
                    "duration": 3.3984320625000066,
                    "durationTicks": 1044,
                    "midi": 59,
                    "name": "B3",
                    "ticks": 59904,
                    "time": 194.999688,
                    "velocity": 0.33858267716535434,
                },
                {
                    "duration": 1.699216031249989,
                    "durationTicks": 522,
                    "midi": 68,
                    "name": "G#4",
                    "ticks": 59904,
                    "time": 194.999688,
                    "velocity": 0.33858267716535434,
                },
                {
                    "duration": 1.5820287187499957,
                    "durationTicks": 486,
                    "midi": 69,
                    "name": "A4",
                    "ticks": 60416,
                    "time": 196.666352,
                    "velocity": 0.2992125984251969,
                },
                {
                    "duration": 3.3984320625000066,
                    "durationTicks": 1044,
                    "midi": 59,
                    "name": "B3",
                    "ticks": 60928,
                    "time": 198.333016,
                    "velocity": 0.2283464566929134,
                },
                {
                    "duration": 1.699216031249989,
                    "durationTicks": 522,
                    "midi": 68,
                    "name": "G#4",
                    "ticks": 60928,
                    "time": 198.333016,
                    "velocity": 0.2283464566929134,
                },
                {
                    "duration": 1.5820287187499957,
                    "durationTicks": 486,
                    "midi": 69,
                    "name": "A4",
                    "ticks": 61440,
                    "time": 199.99967999999998,
                    "velocity": 0.25196850393700787,
                },
                {
                    "duration": 0.8496080156249946,
                    "durationTicks": 261,
                    "midi": 59,
                    "name": "B3",
                    "ticks": 61952,
                    "time": 201.66634399999998,
                    "velocity": 0.2204724409448819,
                },
                {
                    "duration": 0.8496080156249946,
                    "durationTicks": 261,
                    "midi": 68,
                    "name": "G#4",
                    "ticks": 61952,
                    "time": 201.66634399999998,
                    "velocity": 0.2204724409448819,
                },
                {
                    "duration": 0.7910143593749979,
                    "durationTicks": 243,
                    "midi": 56,
                    "name": "G#3",
                    "ticks": 62208,
                    "time": 202.499676,
                    "velocity": 0.2204724409448819,
                },
                {
                    "duration": 1.6992160312500175,
                    "durationTicks": 522,
                    "midi": 55,
                    "name": "G3",
                    "ticks": 62464,
                    "time": 203.33300799999998,
                    "velocity": 0.2992125984251969,
                },
                {
                    "duration": 1.5820287187499957,
                    "durationTicks": 486,
                    "midi": 56,
                    "name": "G#3",
                    "ticks": 62976,
                    "time": 204.99967199999998,
                    "velocity": 0.3779527559055118,
                },
                {
                    "duration": 1.6992160312500175,
                    "durationTicks": 522,
                    "midi": 55,
                    "name": "G3",
                    "ticks": 63488,
                    "time": 206.66633599999997,
                    "velocity": 0.44881889763779526,
                },
                {
                    "duration": 1.5820287187499957,
                    "durationTicks": 486,
                    "midi": 56,
                    "name": "G#3",
                    "ticks": 64000,
                    "time": 208.333,
                    "velocity": 0.5826771653543307,
                },
                {
                    "duration": 0.8496080156249946,
                    "durationTicks": 261,
                    "midi": 55,
                    "name": "G3",
                    "ticks": 64512,
                    "time": 209.999664,
                    "velocity": 0.5748031496062992,
                },
                {
                    "duration": 0.8496080156249946,
                    "durationTicks": 261,
                    "midi": 67,
                    "name": "G4",
                    "ticks": 64768,
                    "time": 210.83299599999998,
                    "velocity": 0.7007874015748031,
                },
                {
                    "duration": 0.3938795781249951,
                    "durationTicks": 121,
                    "midi": 66,
                    "name": "F#4",
                    "ticks": 65024,
                    "time": 211.666328,
                    "velocity": 0.5905511811023622,
                },
                {
                    "duration": 0.42317640625000763,
                    "durationTicks": 130,
                    "midi": 66,
                    "name": "F#4",
                    "ticks": 65152,
                    "time": 212.08299399999999,
                    "velocity": 0.5275590551181102,
                },
                {
                    "duration": 0.42317640625000763,
                    "durationTicks": 130,
                    "midi": 62,
                    "name": "D4",
                    "ticks": 65280,
                    "time": 212.49965999999998,
                    "velocity": 0.4409448818897638,
                },
                {
                    "duration": 0.3938795781249951,
                    "durationTicks": 121,
                    "midi": 66,
                    "name": "F#4",
                    "ticks": 65408,
                    "time": 212.916326,
                    "velocity": 0.5590551181102362,
                },
                {
                    "duration": 0.42317640625000763,
                    "durationTicks": 130,
                    "midi": 61,
                    "name": "C#4",
                    "ticks": 65536,
                    "time": 213.332992,
                    "velocity": 0.3464566929133858,
                },
                {
                    "duration": 0.3938795781249951,
                    "durationTicks": 121,
                    "midi": 64,
                    "name": "E4",
                    "ticks": 65664,
                    "time": 213.74965799999998,
                    "velocity": 0.3779527559055118,
                },
                {
                    "duration": 0.42317640625000763,
                    "durationTicks": 130,
                    "midi": 64,
                    "name": "E4",
                    "ticks": 65792,
                    "time": 214.16632399999997,
                    "velocity": 0.4015748031496063,
                },
                {
                    "duration": 0.4231764062499792,
                    "durationTicks": 130,
                    "midi": 62,
                    "name": "D4",
                    "ticks": 65920,
                    "time": 214.58299,
                    "velocity": 0.3700787401574803,
                },
                {
                    "duration": 0.3938795781249951,
                    "durationTicks": 121,
                    "midi": 61,
                    "name": "C#4",
                    "ticks": 66048,
                    "time": 214.999656,
                    "velocity": 0.3779527559055118,
                },
                {
                    "duration": 0.42317640625000763,
                    "durationTicks": 130,
                    "midi": 61,
                    "name": "C#4",
                    "ticks": 66176,
                    "time": 215.41632199999998,
                    "velocity": 0.41732283464566927,
                },
                {
                    "duration": 0.2799474687500094,
                    "durationTicks": 86,
                    "midi": 62,
                    "name": "D4",
                    "ticks": 66304,
                    "time": 215.83298799999997,
                    "velocity": 0.4881889763779528,
                },
                {
                    "duration": 0.2799474687500094,
                    "durationTicks": 86,
                    "midi": 63,
                    "name": "D#4",
                    "ticks": 66389,
                    "time": 216.10968026562497,
                    "velocity": 0.48031496062992124,
                },
                {
                    "duration": 0.2636714531249993,
                    "durationTicks": 81,
                    "midi": 64,
                    "name": "E4",
                    "ticks": 66474,
                    "time": 216.38637253124998,
                    "velocity": 0.47244094488188976,
                },
                {
                    "duration": 1.699216031249989,
                    "durationTicks": 522,
                    "midi": 55,
                    "name": "G3",
                    "ticks": 66560,
                    "time": 216.66631999999998,
                    "velocity": 0.4094488188976378,
                },
                {
                    "duration": 1.5820287187499957,
                    "durationTicks": 486,
                    "midi": 56,
                    "name": "G#3",
                    "ticks": 67072,
                    "time": 218.33298399999998,
                    "velocity": 0.5118110236220472,
                },
                {
                    "duration": 1.6992160312500175,
                    "durationTicks": 522,
                    "midi": 55,
                    "name": "G3",
                    "ticks": 67584,
                    "time": 219.99964799999998,
                    "velocity": 0.5354330708661418,
                },
                {
                    "duration": 1.5820287187499957,
                    "durationTicks": 486,
                    "midi": 56,
                    "name": "G#3",
                    "ticks": 68096,
                    "time": 221.66631199999998,
                    "velocity": 0.6299212598425197,
                },
                {
                    "duration": 0.849608015625023,
                    "durationTicks": 261,
                    "midi": 55,
                    "name": "G3",
                    "ticks": 68608,
                    "time": 223.33297599999997,
                    "velocity": 0.3543307086614173,
                },
                {
                    "duration": 0.8496080156249946,
                    "durationTicks": 261,
                    "midi": 67,
                    "name": "G4",
                    "ticks": 68864,
                    "time": 224.166308,
                    "velocity": 0.4566929133858268,
                },
                {
                    "duration": 0.3938795781250235,
                    "durationTicks": 121,
                    "midi": 69,
                    "name": "A4",
                    "ticks": 69120,
                    "time": 224.99963999999997,
                    "velocity": 0.4409448818897638,
                },
                {
                    "duration": 0.4231764062499792,
                    "durationTicks": 130,
                    "midi": 57,
                    "name": "A3",
                    "ticks": 69248,
                    "time": 225.416306,
                    "velocity": 0.41732283464566927,
                },
                {
                    "duration": 0.42317640625000763,
                    "durationTicks": 130,
                    "midi": 65,
                    "name": "F4",
                    "ticks": 69376,
                    "time": 225.83297199999998,
                    "velocity": 0.5511811023622047,
                },
                {
                    "duration": 0.3938795781249951,
                    "durationTicks": 121,
                    "midi": 69,
                    "name": "A4",
                    "ticks": 69504,
                    "time": 226.24963799999998,
                    "velocity": 0.5748031496062992,
                },
                {
                    "duration": 0.4231764062499792,
                    "durationTicks": 130,
                    "midi": 64,
                    "name": "E4",
                    "ticks": 69632,
                    "time": 226.666304,
                    "velocity": 0.36220472440944884,
                },
                {
                    "duration": 0.3938795781249951,
                    "durationTicks": 121,
                    "midi": 67,
                    "name": "G4",
                    "ticks": 69760,
                    "time": 227.08297,
                    "velocity": 0.3543307086614173,
                },
                {
                    "duration": 0.42317640625000763,
                    "durationTicks": 130,
                    "midi": 67,
                    "name": "G4",
                    "ticks": 69888,
                    "time": 227.49963599999998,
                    "velocity": 0.3937007874015748,
                },
                {
                    "duration": 0.3938795781250235,
                    "durationTicks": 121,
                    "midi": 59,
                    "name": "B3",
                    "ticks": 70016,
                    "time": 227.91630199999997,
                    "velocity": 0.33070866141732286,
                },
                {
                    "duration": 0.8333319999999844,
                    "durationTicks": 256,
                    "midi": 60,
                    "name": "C4",
                    "ticks": 70144,
                    "time": 228.332968,
                    "velocity": 0.41732283464566927,
                },
                {
                    "duration": 4.248040078125001,
                    "durationTicks": 1305,
                    "midi": 55,
                    "name": "G3",
                    "ticks": 70400,
                    "time": 229.16629999999998,
                    "velocity": 0.4330708661417323,
                },
                {
                    "duration": 0.8496080156249946,
                    "durationTicks": 261,
                    "midi": 64,
                    "name": "E4",
                    "ticks": 70400,
                    "time": 229.16629999999998,
                    "velocity": 0.4330708661417323,
                },
                {
                    "duration": 1.5820287187499957,
                    "durationTicks": 486,
                    "midi": 65,
                    "name": "F4",
                    "ticks": 70656,
                    "time": 229.999632,
                    "velocity": 0.4645669291338583,
                },
                {
                    "duration": 1.5820287187499957,
                    "durationTicks": 486,
                    "midi": 64,
                    "name": "E4",
                    "ticks": 71168,
                    "time": 231.666296,
                    "velocity": 0.4330708661417323,
                },
                {
                    "duration": 5.097648093749996,
                    "durationTicks": 1566,
                    "midi": 55,
                    "name": "G3",
                    "ticks": 71680,
                    "time": 233.33295999999999,
                    "velocity": 0.48031496062992124,
                },
                {
                    "duration": 1.699216031249989,
                    "durationTicks": 522,
                    "midi": 65,
                    "name": "F4",
                    "ticks": 71680,
                    "time": 233.33295999999999,
                    "velocity": 0.48031496062992124,
                },
                {
                    "duration": 1.699216031249989,
                    "durationTicks": 522,
                    "midi": 64,
                    "name": "E4",
                    "ticks": 72192,
                    "time": 234.99962399999998,
                    "velocity": 0.3464566929133858,
                },
                {
                    "duration": 1.5820287187499957,
                    "durationTicks": 486,
                    "midi": 65,
                    "name": "F4",
                    "ticks": 72704,
                    "time": 236.66628799999998,
                    "velocity": 0.3543307086614173,
                },
                {
                    "duration": 0.279947468749981,
                    "durationTicks": 86,
                    "midi": 69,
                    "name": "A4",
                    "ticks": 73642,
                    "time": 239.71966853125,
                    "velocity": 0.6614173228346457,
                },
                {
                    "duration": 0.16601535937499534,
                    "durationTicks": 51,
                    "midi": 67,
                    "name": "G4",
                    "ticks": 73728,
                    "time": 239.99961599999997,
                    "velocity": 0.7244094488188977,
                },
                {
                    "duration": 0.16601535937499534,
                    "durationTicks": 51,
                    "midi": 65,
                    "name": "F4",
                    "ticks": 73813,
                    "time": 240.27630826562498,
                    "velocity": 0.6929133858267716,
                },
                {
                    "duration": 0.16601535937499534,
                    "durationTicks": 51,
                    "midi": 64,
                    "name": "E4",
                    "ticks": 73898,
                    "time": 240.55300053124998,
                    "velocity": 0.7559055118110236,
                },
                {
                    "duration": 0.16601535937499534,
                    "durationTicks": 51,
                    "midi": 62,
                    "name": "D4",
                    "ticks": 73984,
                    "time": 240.832948,
                    "velocity": 0.8188976377952756,
                },
                {
                    "duration": 0.16601535937499534,
                    "durationTicks": 51,
                    "midi": 60,
                    "name": "C4",
                    "ticks": 74069,
                    "time": 241.109640265625,
                    "velocity": 0.6929133858267716,
                },
                {
                    "duration": 0.16601535937499534,
                    "durationTicks": 51,
                    "midi": 59,
                    "name": "B3",
                    "ticks": 74154,
                    "time": 241.38633253125,
                    "velocity": 0.7322834645669292,
                },
                {
                    "duration": 0.16601535937502376,
                    "durationTicks": 51,
                    "midi": 57,
                    "name": "A3",
                    "ticks": 74240,
                    "time": 241.66627999999997,
                    "velocity": 0.7244094488188977,
                },
                {
                    "duration": 0.16601535937502376,
                    "durationTicks": 51,
                    "midi": 67,
                    "name": "G4",
                    "ticks": 74325,
                    "time": 241.94297226562497,
                    "velocity": 0.9448818897637795,
                },
                {
                    "duration": 0.16601535937499534,
                    "durationTicks": 51,
                    "midi": 65,
                    "name": "F4",
                    "ticks": 74410,
                    "time": 242.21966453124998,
                    "velocity": 0.7165354330708661,
                },
                {
                    "duration": 0.16601535937499534,
                    "durationTicks": 51,
                    "midi": 64,
                    "name": "E4",
                    "ticks": 74496,
                    "time": 242.49961199999998,
                    "velocity": 0.7322834645669292,
                },
                {
                    "duration": 0.16601535937499534,
                    "durationTicks": 51,
                    "midi": 62,
                    "name": "D4",
                    "ticks": 74581,
                    "time": 242.776304265625,
                    "velocity": 0.7007874015748031,
                },
                {
                    "duration": 0.16601535937499534,
                    "durationTicks": 51,
                    "midi": 60,
                    "name": "C4",
                    "ticks": 74666,
                    "time": 243.05299653125,
                    "velocity": 0.7007874015748031,
                },
                {
                    "duration": 0.2766922656249733,
                    "durationTicks": 85,
                    "midi": 59,
                    "name": "B3",
                    "ticks": 74752,
                    "time": 243.332944,
                    "velocity": 0.7244094488188977,
                },
                {
                    "duration": 0.24739543750001758,
                    "durationTicks": 76,
                    "midi": 59,
                    "name": "B3",
                    "ticks": 75520,
                    "time": 245.83293999999998,
                    "velocity": 0.8188976377952756,
                },
                {
                    "duration": 0.24739543750001758,
                    "durationTicks": 76,
                    "midi": 59,
                    "name": "B3",
                    "ticks": 75648,
                    "time": 246.24960599999997,
                    "velocity": 0.8661417322834646,
                },
                {
                    "duration": 0.24739543750001758,
                    "durationTicks": 76,
                    "midi": 62,
                    "name": "D4",
                    "ticks": 92928,
                    "time": 302.49951599999997,
                    "velocity": 0.5196850393700787,
                },
                {
                    "duration": 0.24739543750001758,
                    "durationTicks": 76,
                    "midi": 65,
                    "name": "F4",
                    "ticks": 92928,
                    "time": 302.49951599999997,
                    "velocity": 0.5196850393700787,
                },
                {
                    "duration": 0.24739543749996074,
                    "durationTicks": 76,
                    "midi": 74,
                    "name": "D5",
                    "ticks": 93056,
                    "time": 302.916182,
                    "velocity": 0.49606299212598426,
                },
                {
                    "duration": 0.12369771875000879,
                    "durationTicks": 38,
                    "midi": 72,
                    "name": "C5",
                    "ticks": 93184,
                    "time": 303.33284799999996,
                    "velocity": 0.2755905511811024,
                },
                {
                    "duration": 0.12369771875000879,
                    "durationTicks": 38,
                    "midi": 74,
                    "name": "D5",
                    "ticks": 93248,
                    "time": 303.541181,
                    "velocity": 0.30708661417322836,
                },
                {
                    "duration": 0.12369771875000879,
                    "durationTicks": 38,
                    "midi": 76,
                    "name": "E5",
                    "ticks": 93312,
                    "time": 303.749514,
                    "velocity": 0.31496062992125984,
                },
                {
                    "duration": 0.12369771875000879,
                    "durationTicks": 38,
                    "midi": 74,
                    "name": "D5",
                    "ticks": 93376,
                    "time": 303.95784699999996,
                    "velocity": 0.25984251968503935,
                },
                {
                    "duration": 0.12369771875000879,
                    "durationTicks": 38,
                    "midi": 72,
                    "name": "C5",
                    "ticks": 93440,
                    "time": 304.16618,
                    "velocity": 0.2677165354330709,
                },
                {
                    "duration": 0.12369771875000879,
                    "durationTicks": 38,
                    "midi": 74,
                    "name": "D5",
                    "ticks": 93504,
                    "time": 304.374513,
                    "velocity": 0.29133858267716534,
                },
                {
                    "duration": 0.12369771875000879,
                    "durationTicks": 38,
                    "midi": 72,
                    "name": "C5",
                    "ticks": 93568,
                    "time": 304.58284599999996,
                    "velocity": 0.2677165354330709,
                },
                {
                    "duration": 0.12369771875000879,
                    "durationTicks": 38,
                    "midi": 71,
                    "name": "B4",
                    "ticks": 93632,
                    "time": 304.791179,
                    "velocity": 0.2283464566929134,
                },
                {
                    "duration": 0.12369771875000879,
                    "durationTicks": 38,
                    "midi": 69,
                    "name": "A4",
                    "ticks": 93696,
                    "time": 304.999512,
                    "velocity": 0.28346456692913385,
                },
                {
                    "duration": 0.12369771875000879,
                    "durationTicks": 38,
                    "midi": 71,
                    "name": "B4",
                    "ticks": 93760,
                    "time": 305.20784499999996,
                    "velocity": 0.2992125984251969,
                },
                {
                    "duration": 0.12369771874995195,
                    "durationTicks": 38,
                    "midi": 72,
                    "name": "C5",
                    "ticks": 93824,
                    "time": 305.416178,
                    "velocity": 0.2992125984251969,
                },
                {
                    "duration": 0.12369771875000879,
                    "durationTicks": 38,
                    "midi": 74,
                    "name": "D5",
                    "ticks": 93888,
                    "time": 305.624511,
                    "velocity": 0.2755905511811024,
                },
                {
                    "duration": 0.12369771875000879,
                    "durationTicks": 38,
                    "midi": 76,
                    "name": "E5",
                    "ticks": 93952,
                    "time": 305.83284399999997,
                    "velocity": 0.31496062992125984,
                },
                {
                    "duration": 0.12369771874995195,
                    "durationTicks": 38,
                    "midi": 78,
                    "name": "F#5",
                    "ticks": 94016,
                    "time": 306.041177,
                    "velocity": 0.30708661417322836,
                },
                {
                    "duration": 0.12369771875000879,
                    "durationTicks": 38,
                    "midi": 80,
                    "name": "G#5",
                    "ticks": 94080,
                    "time": 306.24951,
                    "velocity": 0.3464566929133858,
                },
                {
                    "duration": 0.12369771875000879,
                    "durationTicks": 38,
                    "midi": 81,
                    "name": "A5",
                    "ticks": 94144,
                    "time": 306.45784299999997,
                    "velocity": 0.29133858267716534,
                },
                {
                    "duration": 0.12369771874995195,
                    "durationTicks": 38,
                    "midi": 80,
                    "name": "G#5",
                    "ticks": 94208,
                    "time": 306.666176,
                    "velocity": 0.2677165354330709,
                },
                {
                    "duration": 0.12369771875000879,
                    "durationTicks": 38,
                    "midi": 76,
                    "name": "E5",
                    "ticks": 94272,
                    "time": 306.874509,
                    "velocity": 0.25984251968503935,
                },
                {
                    "duration": 0.12369771875000879,
                    "durationTicks": 38,
                    "midi": 78,
                    "name": "F#5",
                    "ticks": 94336,
                    "time": 307.08284199999997,
                    "velocity": 0.30708661417322836,
                },
                {
                    "duration": 0.12369771875000879,
                    "durationTicks": 38,
                    "midi": 80,
                    "name": "G#5",
                    "ticks": 94400,
                    "time": 307.29117499999995,
                    "velocity": 0.29133858267716534,
                },
                {
                    "duration": 0.12369771875000879,
                    "durationTicks": 38,
                    "midi": 81,
                    "name": "A5",
                    "ticks": 94464,
                    "time": 307.499508,
                    "velocity": 0.28346456692913385,
                },
                {
                    "duration": 0.12369771875000879,
                    "durationTicks": 38,
                    "midi": 83,
                    "name": "B5",
                    "ticks": 94528,
                    "time": 307.707841,
                    "velocity": 0.33070866141732286,
                },
                {
                    "duration": 0.12369771875000879,
                    "durationTicks": 38,
                    "midi": 81,
                    "name": "A5",
                    "ticks": 94592,
                    "time": 307.91617399999996,
                    "velocity": 0.28346456692913385,
                },
                {
                    "duration": 0.12369771875000879,
                    "durationTicks": 38,
                    "midi": 79,
                    "name": "G5",
                    "ticks": 94656,
                    "time": 308.124507,
                    "velocity": 0.2677165354330709,
                },
                {
                    "duration": 0.12369771875000879,
                    "durationTicks": 38,
                    "midi": 78,
                    "name": "F#5",
                    "ticks": 94720,
                    "time": 308.33284,
                    "velocity": 0.29133858267716534,
                },
                {
                    "duration": 0.12369771875000879,
                    "durationTicks": 38,
                    "midi": 78,
                    "name": "F#5",
                    "ticks": 94784,
                    "time": 308.54117299999996,
                    "velocity": 0.2755905511811024,
                },
                {
                    "duration": 0.12369771875000879,
                    "durationTicks": 38,
                    "midi": 79,
                    "name": "G5",
                    "ticks": 94848,
                    "time": 308.749506,
                    "velocity": 0.2677165354330709,
                },
                {
                    "duration": 0.12369771875000879,
                    "durationTicks": 38,
                    "midi": 81,
                    "name": "A5",
                    "ticks": 94912,
                    "time": 308.957839,
                    "velocity": 0.2992125984251969,
                },
                {
                    "duration": 0.12369771875000879,
                    "durationTicks": 38,
                    "midi": 83,
                    "name": "B5",
                    "ticks": 94976,
                    "time": 309.16617199999996,
                    "velocity": 0.29133858267716534,
                },
                {
                    "duration": 0.12369771875000879,
                    "durationTicks": 38,
                    "midi": 71,
                    "name": "B4",
                    "ticks": 95040,
                    "time": 309.374505,
                    "velocity": 0.1889763779527559,
                },
                {
                    "duration": 0.12369771875000879,
                    "durationTicks": 38,
                    "midi": 73,
                    "name": "C#5",
                    "ticks": 95104,
                    "time": 309.582838,
                    "velocity": 0.2677165354330709,
                },
                {
                    "duration": 0.12369771875000879,
                    "durationTicks": 38,
                    "midi": 75,
                    "name": "D#5",
                    "ticks": 95168,
                    "time": 309.79117099999996,
                    "velocity": 0.31496062992125984,
                },
                {
                    "duration": 0.8333319999999844,
                    "durationTicks": 256,
                    "midi": 76,
                    "name": "E5",
                    "ticks": 95232,
                    "time": 309.999504,
                    "velocity": 0.29133858267716534,
                },
                {
                    "duration": 0.24739543750001758,
                    "durationTicks": 76,
                    "midi": 76,
                    "name": "E5",
                    "ticks": 95488,
                    "time": 310.832836,
                    "velocity": 0.2677165354330709,
                },
                {
                    "duration": 0.24739543749996074,
                    "durationTicks": 76,
                    "midi": 78,
                    "name": "F#5",
                    "ticks": 95616,
                    "time": 311.249502,
                    "velocity": 0.30708661417322836,
                },
                {
                    "duration": 0.49804607812501445,
                    "durationTicks": 153,
                    "midi": 79,
                    "name": "G5",
                    "ticks": 95744,
                    "time": 311.66616799999997,
                    "velocity": 0.25196850393700787,
                },
                {
                    "duration": 0.4720044531250096,
                    "durationTicks": 145,
                    "midi": 79,
                    "name": "G5",
                    "ticks": 96000,
                    "time": 312.49949999999995,
                    "velocity": 0.29133858267716534,
                },
                {
                    "duration": 0.8333319999999844,
                    "durationTicks": 256,
                    "midi": 78,
                    "name": "F#5",
                    "ticks": 96256,
                    "time": 313.332832,
                    "velocity": 0.25984251968503935,
                },
                {
                    "duration": 0.24739543750001758,
                    "durationTicks": 76,
                    "midi": 78,
                    "name": "F#5",
                    "ticks": 96512,
                    "time": 314.166164,
                    "velocity": 0.2992125984251969,
                },
                {
                    "duration": 0.24739543749996074,
                    "durationTicks": 76,
                    "midi": 80,
                    "name": "G#5",
                    "ticks": 96640,
                    "time": 314.58283,
                    "velocity": 0.3228346456692913,
                },
                {
                    "duration": 0.24739543750001758,
                    "durationTicks": 76,
                    "midi": 81,
                    "name": "A5",
                    "ticks": 96768,
                    "time": 314.99949599999997,
                    "velocity": 0.33858267716535434,
                },
                {
                    "duration": 0.24739543750001758,
                    "durationTicks": 76,
                    "midi": 77,
                    "name": "F5",
                    "ticks": 96896,
                    "time": 315.416162,
                    "velocity": 0.2440944881889764,
                },
                {
                    "duration": 0.24739543749996074,
                    "durationTicks": 76,
                    "midi": 76,
                    "name": "E5",
                    "ticks": 97024,
                    "time": 315.832828,
                    "velocity": 0.25196850393700787,
                },
                {
                    "duration": 0.8333319999999844,
                    "durationTicks": 256,
                    "midi": 74,
                    "name": "D5",
                    "ticks": 97152,
                    "time": 316.24949399999997,
                    "velocity": 0.2677165354330709,
                },
                {
                    "duration": 0.8333320000000413,
                    "durationTicks": 256,
                    "midi": 72,
                    "name": "C5",
                    "ticks": 97408,
                    "time": 317.08282599999995,
                    "velocity": 0.2283464566929134,
                },
                {
                    "duration": 0.8333319999999844,
                    "durationTicks": 256,
                    "midi": 76,
                    "name": "E5",
                    "ticks": 97664,
                    "time": 317.916158,
                    "velocity": 0.29133858267716534,
                },
                {
                    "duration": 0.8333319999999844,
                    "durationTicks": 256,
                    "midi": 69,
                    "name": "A4",
                    "ticks": 97920,
                    "time": 318.74949,
                    "velocity": 0.2204724409448819,
                },
                {
                    "duration": 0.8333320000000413,
                    "durationTicks": 256,
                    "midi": 76,
                    "name": "E5",
                    "ticks": 98176,
                    "time": 319.58282199999996,
                    "velocity": 0.33070866141732286,
                },
                {
                    "duration": 0.8333319999999844,
                    "durationTicks": 256,
                    "midi": 74,
                    "name": "D5",
                    "ticks": 98432,
                    "time": 320.416154,
                    "velocity": 0.2440944881889764,
                },
                {
                    "duration": 0.4166659999999638,
                    "durationTicks": 128,
                    "midi": 76,
                    "name": "E5",
                    "ticks": 98688,
                    "time": 321.249486,
                    "velocity": 0.36220472440944884,
                },
                {
                    "duration": 0.24739543750001758,
                    "durationTicks": 76,
                    "midi": 78,
                    "name": "F#5",
                    "ticks": 98816,
                    "time": 321.66615199999995,
                    "velocity": 0.2755905511811024,
                },
                {
                    "duration": 0.24739543750001758,
                    "durationTicks": 76,
                    "midi": 76,
                    "name": "E5",
                    "ticks": 98944,
                    "time": 322.082818,
                    "velocity": 0.29133858267716534,
                },
                {
                    "duration": 0.12369771875000879,
                    "durationTicks": 38,
                    "midi": 75,
                    "name": "D#5",
                    "ticks": 99072,
                    "time": 322.499484,
                    "velocity": 0.25984251968503935,
                },
                {
                    "duration": 0.12369771875000879,
                    "durationTicks": 38,
                    "midi": 75,
                    "name": "D#5",
                    "ticks": 99136,
                    "time": 322.707817,
                    "velocity": 0.2755905511811024,
                },
                {
                    "duration": 0.12369771875000879,
                    "durationTicks": 38,
                    "midi": 76,
                    "name": "E5",
                    "ticks": 99200,
                    "time": 322.91614999999996,
                    "velocity": 0.28346456692913385,
                },
                {
                    "duration": 0.12369771875000879,
                    "durationTicks": 38,
                    "midi": 78,
                    "name": "F#5",
                    "ticks": 99264,
                    "time": 323.124483,
                    "velocity": 0.29133858267716534,
                },
                {
                    "duration": 0.8333319999999844,
                    "durationTicks": 256,
                    "midi": 79,
                    "name": "G5",
                    "ticks": 99328,
                    "time": 323.332816,
                    "velocity": 0.2992125984251969,
                },
                {
                    "duration": 0.12369771875000879,
                    "durationTicks": 38,
                    "midi": 73,
                    "name": "C#5",
                    "ticks": 101696,
                    "time": 331.041137,
                    "velocity": 0.2677165354330709,
                },
                {
                    "duration": 0.12369771875000879,
                    "durationTicks": 38,
                    "midi": 74,
                    "name": "D5",
                    "ticks": 101760,
                    "time": 331.24947,
                    "velocity": 0.2440944881889764,
                },
                {
                    "duration": 0.12369771875000879,
                    "durationTicks": 38,
                    "midi": 76,
                    "name": "E5",
                    "ticks": 101824,
                    "time": 331.45780299999996,
                    "velocity": 0.3228346456692913,
                },
                {
                    "duration": 0.8333319999999844,
                    "durationTicks": 256,
                    "midi": 74,
                    "name": "D5",
                    "ticks": 101888,
                    "time": 331.666136,
                    "velocity": 0.25984251968503935,
                },
                {
                    "duration": 0.12369771875000879,
                    "durationTicks": 38,
                    "midi": 71,
                    "name": "B4",
                    "ticks": 102720,
                    "time": 334.374465,
                    "velocity": 0.29133858267716534,
                },
                {
                    "duration": 0.12369771875000879,
                    "durationTicks": 38,
                    "midi": 72,
                    "name": "C5",
                    "ticks": 102784,
                    "time": 334.58279799999997,
                    "velocity": 0.30708661417322836,
                },
                {
                    "duration": 0.12369771874995195,
                    "durationTicks": 38,
                    "midi": 74,
                    "name": "D5",
                    "ticks": 102848,
                    "time": 334.791131,
                    "velocity": 0.28346456692913385,
                },
                {
                    "duration": 0.12369771875000879,
                    "durationTicks": 38,
                    "midi": 76,
                    "name": "E5",
                    "ticks": 102912,
                    "time": 334.999464,
                    "velocity": 0.3228346456692913,
                },
                {
                    "duration": 0.12369771875000879,
                    "durationTicks": 38,
                    "midi": 77,
                    "name": "F5",
                    "ticks": 102976,
                    "time": 335.20779699999997,
                    "velocity": 0.2992125984251969,
                },
                {
                    "duration": 0.12369771875000879,
                    "durationTicks": 38,
                    "midi": 79,
                    "name": "G5",
                    "ticks": 103040,
                    "time": 335.41612999999995,
                    "velocity": 0.2992125984251969,
                },
                {
                    "duration": 0.12369771875000879,
                    "durationTicks": 38,
                    "midi": 77,
                    "name": "F5",
                    "ticks": 103104,
                    "time": 335.624463,
                    "velocity": 0.28346456692913385,
                },
                {
                    "duration": 0.12369771875000879,
                    "durationTicks": 38,
                    "midi": 76,
                    "name": "E5",
                    "ticks": 103168,
                    "time": 335.832796,
                    "velocity": 0.25984251968503935,
                },
                {
                    "duration": 0.12369771875000879,
                    "durationTicks": 38,
                    "midi": 77,
                    "name": "F5",
                    "ticks": 103232,
                    "time": 336.04112899999996,
                    "velocity": 0.29133858267716534,
                },
                {
                    "duration": 0.12369771875000879,
                    "durationTicks": 38,
                    "midi": 76,
                    "name": "E5",
                    "ticks": 103296,
                    "time": 336.249462,
                    "velocity": 0.2755905511811024,
                },
                {
                    "duration": 0.12369771875000879,
                    "durationTicks": 38,
                    "midi": 74,
                    "name": "D5",
                    "ticks": 103360,
                    "time": 336.457795,
                    "velocity": 0.25196850393700787,
                },
                {
                    "duration": 0.12369771875000879,
                    "durationTicks": 38,
                    "midi": 72,
                    "name": "C5",
                    "ticks": 103424,
                    "time": 336.66612799999996,
                    "velocity": 0.23622047244094488,
                },
                {
                    "duration": 0.12369771875000879,
                    "durationTicks": 38,
                    "midi": 74,
                    "name": "D5",
                    "ticks": 103488,
                    "time": 336.874461,
                    "velocity": 0.2755905511811024,
                },
                {
                    "duration": 0.12369771875000879,
                    "durationTicks": 38,
                    "midi": 76,
                    "name": "E5",
                    "ticks": 103552,
                    "time": 337.082794,
                    "velocity": 0.30708661417322836,
                },
                {
                    "duration": 0.12369771875000879,
                    "durationTicks": 38,
                    "midi": 77,
                    "name": "F5",
                    "ticks": 103616,
                    "time": 337.29112699999996,
                    "velocity": 0.2677165354330709,
                },
                {
                    "duration": 0.12369771874995195,
                    "durationTicks": 38,
                    "midi": 79,
                    "name": "G5",
                    "ticks": 103680,
                    "time": 337.49946,
                    "velocity": 0.30708661417322836,
                },
                {
                    "duration": 0.12369771875000879,
                    "durationTicks": 38,
                    "midi": 81,
                    "name": "A5",
                    "ticks": 103744,
                    "time": 337.707793,
                    "velocity": 0.30708661417322836,
                },
                {
                    "duration": 0.12369771875000879,
                    "durationTicks": 38,
                    "midi": 83,
                    "name": "B5",
                    "ticks": 103808,
                    "time": 337.91612599999996,
                    "velocity": 0.3228346456692913,
                },
                {
                    "duration": 0.12369771874995195,
                    "durationTicks": 38,
                    "midi": 84,
                    "name": "C6",
                    "ticks": 103872,
                    "time": 338.124459,
                    "velocity": 0.29133858267716534,
                },
                {
                    "duration": 0.8333319999999844,
                    "durationTicks": 256,
                    "midi": 78,
                    "name": "F#5",
                    "ticks": 103936,
                    "time": 338.332792,
                    "velocity": 0.2677165354330709,
                },
                {
                    "duration": 0.24739543750001758,
                    "durationTicks": 76,
                    "midi": 78,
                    "name": "F#5",
                    "ticks": 104192,
                    "time": 339.16612399999997,
                    "velocity": 0.2992125984251969,
                },
                {
                    "duration": 0.24739543750001758,
                    "durationTicks": 76,
                    "midi": 80,
                    "name": "G#5",
                    "ticks": 104320,
                    "time": 339.58279,
                    "velocity": 0.2755905511811024,
                },
                {
                    "duration": 0.8333320000000413,
                    "durationTicks": 256,
                    "midi": 81,
                    "name": "A5",
                    "ticks": 104448,
                    "time": 339.99945599999995,
                    "velocity": 0.33858267716535434,
                },
                {
                    "duration": 1.249998000000005,
                    "durationTicks": 384,
                    "midi": 81,
                    "name": "A5",
                    "ticks": 104704,
                    "time": 340.832788,
                    "velocity": 0.30708661417322836,
                },
                {
                    "duration": 0.8333319999999844,
                    "durationTicks": 256,
                    "midi": 79,
                    "name": "G5",
                    "ticks": 105088,
                    "time": 342.082786,
                    "velocity": 0.25196850393700787,
                },
                {
                    "duration": 0.8333319999999844,
                    "durationTicks": 256,
                    "midi": 79,
                    "name": "G5",
                    "ticks": 105344,
                    "time": 342.916118,
                    "velocity": 0.29133858267716534,
                },
                {
                    "duration": 0.8333319999999844,
                    "durationTicks": 256,
                    "midi": 77,
                    "name": "F5",
                    "ticks": 105600,
                    "time": 343.74944999999997,
                    "velocity": 0.28346456692913385,
                },
                {
                    "duration": 0.41666600000002063,
                    "durationTicks": 128,
                    "midi": 77,
                    "name": "F5",
                    "ticks": 105856,
                    "time": 344.58278199999995,
                    "velocity": 0.2992125984251969,
                },
                {
                    "duration": 0.12369771875000879,
                    "durationTicks": 38,
                    "midi": 79,
                    "name": "G5",
                    "ticks": 105984,
                    "time": 344.999448,
                    "velocity": 0.2992125984251969,
                },
                {
                    "duration": 0.12369771875000879,
                    "durationTicks": 38,
                    "midi": 67,
                    "name": "G4",
                    "ticks": 106048,
                    "time": 345.20778099999995,
                    "velocity": 0.1889763779527559,
                },
                {
                    "duration": 0.12369771875000879,
                    "durationTicks": 38,
                    "midi": 64,
                    "name": "E4",
                    "ticks": 106112,
                    "time": 345.416114,
                    "velocity": 0.2047244094488189,
                },
                {
                    "duration": 0.12369771875000879,
                    "durationTicks": 38,
                    "midi": 62,
                    "name": "D4",
                    "ticks": 106176,
                    "time": 345.624447,
                    "velocity": 0.25196850393700787,
                },
                {
                    "duration": 0.12369771875000879,
                    "durationTicks": 38,
                    "midi": 61,
                    "name": "C#4",
                    "ticks": 106240,
                    "time": 345.83277999999996,
                    "velocity": 0.25196850393700787,
                },
                {
                    "duration": 0.12369771875000879,
                    "durationTicks": 38,
                    "midi": 64,
                    "name": "E4",
                    "ticks": 106304,
                    "time": 346.041113,
                    "velocity": 0.3228346456692913,
                },
                {
                    "duration": 0.12369771875000879,
                    "durationTicks": 38,
                    "midi": 69,
                    "name": "A4",
                    "ticks": 106368,
                    "time": 346.249446,
                    "velocity": 0.28346456692913385,
                },
                {
                    "duration": 0.12369771875000879,
                    "durationTicks": 38,
                    "midi": 67,
                    "name": "G4",
                    "ticks": 106432,
                    "time": 346.45777899999996,
                    "velocity": 0.23622047244094488,
                },
                {
                    "duration": 0.12369771875000879,
                    "durationTicks": 38,
                    "midi": 65,
                    "name": "F4",
                    "ticks": 106496,
                    "time": 346.666112,
                    "velocity": 0.2677165354330709,
                },
                {
                    "duration": 0.12369771875000879,
                    "durationTicks": 38,
                    "midi": 67,
                    "name": "G4",
                    "ticks": 106560,
                    "time": 346.874445,
                    "velocity": 0.30708661417322836,
                },
                {
                    "duration": 0.12369771875000879,
                    "durationTicks": 38,
                    "midi": 69,
                    "name": "A4",
                    "ticks": 106624,
                    "time": 347.08277799999996,
                    "velocity": 0.30708661417322836,
                },
                {
                    "duration": 0.12369771874995195,
                    "durationTicks": 38,
                    "midi": 71,
                    "name": "B4",
                    "ticks": 106688,
                    "time": 347.291111,
                    "velocity": 0.29133858267716534,
                },
                {
                    "duration": 0.12369771875000879,
                    "durationTicks": 38,
                    "midi": 73,
                    "name": "C#5",
                    "ticks": 106752,
                    "time": 347.499444,
                    "velocity": 0.30708661417322836,
                },
                {
                    "duration": 0.12369771875000879,
                    "durationTicks": 38,
                    "midi": 74,
                    "name": "D5",
                    "ticks": 106816,
                    "time": 347.70777699999996,
                    "velocity": 0.33070866141732286,
                },
                {
                    "duration": 0.12369771874995195,
                    "durationTicks": 38,
                    "midi": 76,
                    "name": "E5",
                    "ticks": 106880,
                    "time": 347.91611,
                    "velocity": 0.31496062992125984,
                },
                {
                    "duration": 0.12369771875000879,
                    "durationTicks": 38,
                    "midi": 77,
                    "name": "F5",
                    "ticks": 106944,
                    "time": 348.124443,
                    "velocity": 0.31496062992125984,
                },
                {
                    "duration": 0.12369771875000879,
                    "durationTicks": 38,
                    "midi": 77,
                    "name": "F5",
                    "ticks": 107008,
                    "time": 348.33277599999997,
                    "velocity": 0.2992125984251969,
                },
                {
                    "duration": 0.12369771874995195,
                    "durationTicks": 38,
                    "midi": 56,
                    "name": "G#3",
                    "ticks": 107072,
                    "time": 348.541109,
                    "velocity": 0.23622047244094488,
                },
                {
                    "duration": 0.12369771874995195,
                    "durationTicks": 38,
                    "midi": 65,
                    "name": "F4",
                    "ticks": 107072,
                    "time": 348.541109,
                    "velocity": 0.23622047244094488,
                },
                {
                    "duration": 0.12369771875000879,
                    "durationTicks": 38,
                    "midi": 56,
                    "name": "G#3",
                    "ticks": 107136,
                    "time": 348.749442,
                    "velocity": 0.31496062992125984,
                },
                {
                    "duration": 0.12369771875000879,
                    "durationTicks": 38,
                    "midi": 65,
                    "name": "F4",
                    "ticks": 107136,
                    "time": 348.749442,
                    "velocity": 0.31496062992125984,
                },
                {
                    "duration": 0.12369771875000879,
                    "durationTicks": 38,
                    "midi": 56,
                    "name": "G#3",
                    "ticks": 107200,
                    "time": 348.95777499999997,
                    "velocity": 0.2992125984251969,
                },
                {
                    "duration": 0.12369771875000879,
                    "durationTicks": 38,
                    "midi": 65,
                    "name": "F4",
                    "ticks": 107200,
                    "time": 348.95777499999997,
                    "velocity": 0.2992125984251969,
                },
                {
                    "duration": 0.12369771875000879,
                    "durationTicks": 38,
                    "midi": 56,
                    "name": "G#3",
                    "ticks": 107264,
                    "time": 349.16610799999995,
                    "velocity": 0.31496062992125984,
                },
                {
                    "duration": 0.12369771875000879,
                    "durationTicks": 38,
                    "midi": 65,
                    "name": "F4",
                    "ticks": 107264,
                    "time": 349.16610799999995,
                    "velocity": 0.31496062992125984,
                },
                {
                    "duration": 0.12369771875000879,
                    "durationTicks": 38,
                    "midi": 56,
                    "name": "G#3",
                    "ticks": 107328,
                    "time": 349.374441,
                    "velocity": 0.3700787401574803,
                },
                {
                    "duration": 0.12369771875000879,
                    "durationTicks": 38,
                    "midi": 65,
                    "name": "F4",
                    "ticks": 107328,
                    "time": 349.374441,
                    "velocity": 0.3700787401574803,
                },
                {
                    "duration": 0.12369771875000879,
                    "durationTicks": 38,
                    "midi": 56,
                    "name": "G#3",
                    "ticks": 107392,
                    "time": 349.582774,
                    "velocity": 0.3700787401574803,
                },
                {
                    "duration": 0.12369771875000879,
                    "durationTicks": 38,
                    "midi": 65,
                    "name": "F4",
                    "ticks": 107392,
                    "time": 349.582774,
                    "velocity": 0.3700787401574803,
                },
                {
                    "duration": 0.12369771875000879,
                    "durationTicks": 38,
                    "midi": 56,
                    "name": "G#3",
                    "ticks": 107456,
                    "time": 349.79110699999995,
                    "velocity": 0.4015748031496063,
                },
                {
                    "duration": 0.12369771875000879,
                    "durationTicks": 38,
                    "midi": 65,
                    "name": "F4",
                    "ticks": 107456,
                    "time": 349.79110699999995,
                    "velocity": 0.4015748031496063,
                },
                {
                    "duration": 0.12369771875000879,
                    "durationTicks": 38,
                    "midi": 56,
                    "name": "G#3",
                    "ticks": 107520,
                    "time": 349.99944,
                    "velocity": 0.4015748031496063,
                },
                {
                    "duration": 0.12369771875000879,
                    "durationTicks": 38,
                    "midi": 65,
                    "name": "F4",
                    "ticks": 107520,
                    "time": 349.99944,
                    "velocity": 0.4015748031496063,
                },
                {
                    "duration": 0.12369771875000879,
                    "durationTicks": 38,
                    "midi": 56,
                    "name": "G#3",
                    "ticks": 107584,
                    "time": 350.207773,
                    "velocity": 0.41732283464566927,
                },
                {
                    "duration": 0.12369771875000879,
                    "durationTicks": 38,
                    "midi": 65,
                    "name": "F4",
                    "ticks": 107584,
                    "time": 350.207773,
                    "velocity": 0.41732283464566927,
                },
                {
                    "duration": 0.12369771875000879,
                    "durationTicks": 38,
                    "midi": 56,
                    "name": "G#3",
                    "ticks": 107648,
                    "time": 350.41610599999996,
                    "velocity": 0.4881889763779528,
                },
                {
                    "duration": 0.12369771875000879,
                    "durationTicks": 38,
                    "midi": 65,
                    "name": "F4",
                    "ticks": 107648,
                    "time": 350.41610599999996,
                    "velocity": 0.4881889763779528,
                },
                {
                    "duration": 0.12369771875000879,
                    "durationTicks": 38,
                    "midi": 56,
                    "name": "G#3",
                    "ticks": 107712,
                    "time": 350.624439,
                    "velocity": 0.4409448818897638,
                },
                {
                    "duration": 0.12369771875000879,
                    "durationTicks": 38,
                    "midi": 65,
                    "name": "F4",
                    "ticks": 107712,
                    "time": 350.624439,
                    "velocity": 0.4409448818897638,
                },
                {
                    "duration": 0.12369771875000879,
                    "durationTicks": 38,
                    "midi": 56,
                    "name": "G#3",
                    "ticks": 107776,
                    "time": 350.832772,
                    "velocity": 0.5118110236220472,
                },
                {
                    "duration": 0.12369771875000879,
                    "durationTicks": 38,
                    "midi": 65,
                    "name": "F4",
                    "ticks": 107776,
                    "time": 350.832772,
                    "velocity": 0.5118110236220472,
                },
                {
                    "duration": 0.12369771875000879,
                    "durationTicks": 38,
                    "midi": 56,
                    "name": "G#3",
                    "ticks": 107840,
                    "time": 351.04110499999996,
                    "velocity": 0.5590551181102362,
                },
                {
                    "duration": 0.12369771875000879,
                    "durationTicks": 38,
                    "midi": 65,
                    "name": "F4",
                    "ticks": 107840,
                    "time": 351.04110499999996,
                    "velocity": 0.5590551181102362,
                },
                {
                    "duration": 0.12369771875000879,
                    "durationTicks": 38,
                    "midi": 56,
                    "name": "G#3",
                    "ticks": 107904,
                    "time": 351.249438,
                    "velocity": 0.5511811023622047,
                },
                {
                    "duration": 0.12369771875000879,
                    "durationTicks": 38,
                    "midi": 65,
                    "name": "F4",
                    "ticks": 107904,
                    "time": 351.249438,
                    "velocity": 0.5511811023622047,
                },
                {
                    "duration": 0.12369771875000879,
                    "durationTicks": 38,
                    "midi": 56,
                    "name": "G#3",
                    "ticks": 107968,
                    "time": 351.457771,
                    "velocity": 0.5826771653543307,
                },
                {
                    "duration": 0.12369771875000879,
                    "durationTicks": 38,
                    "midi": 65,
                    "name": "F4",
                    "ticks": 107968,
                    "time": 351.457771,
                    "velocity": 0.5826771653543307,
                },
                {
                    "duration": 0.12369771875000879,
                    "durationTicks": 38,
                    "midi": 56,
                    "name": "G#3",
                    "ticks": 108032,
                    "time": 351.66610399999996,
                    "velocity": 0.5590551181102362,
                },
                {
                    "duration": 0.12369771875000879,
                    "durationTicks": 38,
                    "midi": 65,
                    "name": "F4",
                    "ticks": 108032,
                    "time": 351.66610399999996,
                    "velocity": 0.5590551181102362,
                },
                {
                    "duration": 0.12369771874995195,
                    "durationTicks": 38,
                    "midi": 56,
                    "name": "G#3",
                    "ticks": 108096,
                    "time": 351.874437,
                    "velocity": 0.5905511811023622,
                },
                {
                    "duration": 0.12369771874995195,
                    "durationTicks": 38,
                    "midi": 65,
                    "name": "F4",
                    "ticks": 108096,
                    "time": 351.874437,
                    "velocity": 0.5905511811023622,
                },
                {
                    "duration": 0.12369771875000879,
                    "durationTicks": 38,
                    "midi": 56,
                    "name": "G#3",
                    "ticks": 108160,
                    "time": 352.08277,
                    "velocity": 0.6299212598425197,
                },
                {
                    "duration": 0.12369771875000879,
                    "durationTicks": 38,
                    "midi": 65,
                    "name": "F4",
                    "ticks": 108160,
                    "time": 352.08277,
                    "velocity": 0.6299212598425197,
                },
                {
                    "duration": 0.12369771875000879,
                    "durationTicks": 38,
                    "midi": 56,
                    "name": "G#3",
                    "ticks": 108224,
                    "time": 352.29110299999996,
                    "velocity": 0.6456692913385826,
                },
                {
                    "duration": 0.12369771875000879,
                    "durationTicks": 38,
                    "midi": 65,
                    "name": "F4",
                    "ticks": 108224,
                    "time": 352.29110299999996,
                    "velocity": 0.6456692913385826,
                },
                {
                    "duration": 0.12369771874995195,
                    "durationTicks": 38,
                    "midi": 56,
                    "name": "G#3",
                    "ticks": 108288,
                    "time": 352.499436,
                    "velocity": 0.6692913385826772,
                },
                {
                    "duration": 0.12369771874995195,
                    "durationTicks": 38,
                    "midi": 65,
                    "name": "F4",
                    "ticks": 108288,
                    "time": 352.499436,
                    "velocity": 0.6692913385826772,
                },
                {
                    "duration": 0.12369771875000879,
                    "durationTicks": 38,
                    "midi": 56,
                    "name": "G#3",
                    "ticks": 108352,
                    "time": 352.707769,
                    "velocity": 0.7165354330708661,
                },
                {
                    "duration": 0.12369771875000879,
                    "durationTicks": 38,
                    "midi": 65,
                    "name": "F4",
                    "ticks": 108352,
                    "time": 352.707769,
                    "velocity": 0.7165354330708661,
                },
                {
                    "duration": 0.12369771875000879,
                    "durationTicks": 38,
                    "midi": 56,
                    "name": "G#3",
                    "ticks": 108416,
                    "time": 352.91610199999997,
                    "velocity": 0.7007874015748031,
                },
                {
                    "duration": 0.12369771875000879,
                    "durationTicks": 38,
                    "midi": 65,
                    "name": "F4",
                    "ticks": 108416,
                    "time": 352.91610199999997,
                    "velocity": 0.7007874015748031,
                },
                {
                    "duration": 0.12369771874995195,
                    "durationTicks": 38,
                    "midi": 56,
                    "name": "G#3",
                    "ticks": 108480,
                    "time": 353.124435,
                    "velocity": 0.7086614173228346,
                },
                {
                    "duration": 0.12369771874995195,
                    "durationTicks": 38,
                    "midi": 65,
                    "name": "F4",
                    "ticks": 108480,
                    "time": 353.124435,
                    "velocity": 0.7086614173228346,
                },
                {
                    "duration": 0.12369771875000879,
                    "durationTicks": 38,
                    "midi": 56,
                    "name": "G#3",
                    "ticks": 108544,
                    "time": 353.332768,
                    "velocity": 0.7952755905511811,
                },
                {
                    "duration": 0.12369771875000879,
                    "durationTicks": 38,
                    "midi": 65,
                    "name": "F4",
                    "ticks": 108544,
                    "time": 353.332768,
                    "velocity": 0.7952755905511811,
                },
                {
                    "duration": 0.12369771875000879,
                    "durationTicks": 38,
                    "midi": 71,
                    "name": "B4",
                    "ticks": 108608,
                    "time": 353.54110099999997,
                    "velocity": 0.8661417322834646,
                },
                {
                    "duration": 0.12369771875000879,
                    "durationTicks": 38,
                    "midi": 71,
                    "name": "B4",
                    "ticks": 108672,
                    "time": 353.74943399999995,
                    "velocity": 0.8031496062992126,
                },
                {
                    "duration": 0.12369771875000879,
                    "durationTicks": 38,
                    "midi": 71,
                    "name": "B4",
                    "ticks": 108736,
                    "time": 353.957767,
                    "velocity": 0.8031496062992126,
                },
                {
                    "duration": 0.12369771875000879,
                    "durationTicks": 38,
                    "midi": 71,
                    "name": "B4",
                    "ticks": 108800,
                    "time": 354.1661,
                    "velocity": 0.8188976377952756,
                },
                {
                    "duration": 0.12369771875000879,
                    "durationTicks": 38,
                    "midi": 71,
                    "name": "B4",
                    "ticks": 108864,
                    "time": 354.37443299999995,
                    "velocity": 0.84251968503937,
                },
                {
                    "duration": 0.12369771875000879,
                    "durationTicks": 38,
                    "midi": 76,
                    "name": "E5",
                    "ticks": 108928,
                    "time": 354.582766,
                    "velocity": 0.984251968503937,
                },
                {
                    "duration": 0.12369771875000879,
                    "durationTicks": 38,
                    "midi": 74,
                    "name": "D5",
                    "ticks": 108992,
                    "time": 354.791099,
                    "velocity": 0.8661417322834646,
                },
                {
                    "duration": 0.8333320000000413,
                    "durationTicks": 256,
                    "midi": 64,
                    "name": "E4",
                    "ticks": 109056,
                    "time": 354.99943199999996,
                    "velocity": 0.8503937007874016,
                },
                {
                    "duration": 0.8333320000000413,
                    "durationTicks": 256,
                    "midi": 72,
                    "name": "C5",
                    "ticks": 109056,
                    "time": 354.99943199999996,
                    "velocity": 0.8503937007874016,
                },
                {
                    "duration": 0.24739543749996074,
                    "durationTicks": 76,
                    "midi": 64,
                    "name": "E4",
                    "ticks": 109312,
                    "time": 355.832764,
                    "velocity": 0.8661417322834646,
                },
                {
                    "duration": 0.24739543749996074,
                    "durationTicks": 76,
                    "midi": 72,
                    "name": "C5",
                    "ticks": 109312,
                    "time": 355.832764,
                    "velocity": 0.8661417322834646,
                },
                {
                    "duration": 0.24739543750001758,
                    "durationTicks": 76,
                    "midi": 64,
                    "name": "E4",
                    "ticks": 109440,
                    "time": 356.24942999999996,
                    "velocity": 0.8818897637795275,
                },
                {
                    "duration": 0.24739543750001758,
                    "durationTicks": 76,
                    "midi": 72,
                    "name": "C5",
                    "ticks": 109440,
                    "time": 356.24942999999996,
                    "velocity": 0.8818897637795275,
                },
                {
                    "duration": 0.49804607812501445,
                    "durationTicks": 153,
                    "midi": 64,
                    "name": "E4",
                    "ticks": 109568,
                    "time": 356.666096,
                    "velocity": 0.8188976377952756,
                },
                {
                    "duration": 0.49804607812501445,
                    "durationTicks": 153,
                    "midi": 71,
                    "name": "B4",
                    "ticks": 109568,
                    "time": 356.666096,
                    "velocity": 0.8188976377952756,
                },
                {
                    "duration": 0.4720044531250096,
                    "durationTicks": 145,
                    "midi": 64,
                    "name": "E4",
                    "ticks": 109824,
                    "time": 357.49942799999997,
                    "velocity": 0.8582677165354331,
                },
                {
                    "duration": 0.4720044531250096,
                    "durationTicks": 145,
                    "midi": 71,
                    "name": "B4",
                    "ticks": 109824,
                    "time": 357.49942799999997,
                    "velocity": 0.8582677165354331,
                },
                {
                    "duration": 0.8333320000000413,
                    "durationTicks": 256,
                    "midi": 71,
                    "name": "B4",
                    "ticks": 110080,
                    "time": 358.33275999999995,
                    "velocity": 1,
                },
                {
                    "duration": 0.8333320000000413,
                    "durationTicks": 256,
                    "midi": 80,
                    "name": "G#5",
                    "ticks": 110080,
                    "time": 358.33275999999995,
                    "velocity": 1,
                },
                {
                    "duration": 0.24739543749996074,
                    "durationTicks": 76,
                    "midi": 71,
                    "name": "B4",
                    "ticks": 110336,
                    "time": 359.166092,
                    "velocity": 0.8976377952755905,
                },
                {
                    "duration": 0.24739543749996074,
                    "durationTicks": 76,
                    "midi": 80,
                    "name": "G#5",
                    "ticks": 110336,
                    "time": 359.166092,
                    "velocity": 0.8976377952755905,
                },
                {
                    "duration": 0.24739543750001758,
                    "durationTicks": 76,
                    "midi": 71,
                    "name": "B4",
                    "ticks": 110464,
                    "time": 359.58275799999996,
                    "velocity": 0.889763779527559,
                },
                {
                    "duration": 0.24739543750001758,
                    "durationTicks": 76,
                    "midi": 80,
                    "name": "G#5",
                    "ticks": 110464,
                    "time": 359.58275799999996,
                    "velocity": 0.889763779527559,
                },
                {
                    "duration": 0.49804607812501445,
                    "durationTicks": 153,
                    "midi": 72,
                    "name": "C5",
                    "ticks": 110592,
                    "time": 359.999424,
                    "velocity": 0.9606299212598425,
                },
                {
                    "duration": 0.49804607812501445,
                    "durationTicks": 153,
                    "midi": 81,
                    "name": "A5",
                    "ticks": 110592,
                    "time": 359.999424,
                    "velocity": 0.9606299212598425,
                },
                {
                    "duration": 0.4720044531250096,
                    "durationTicks": 145,
                    "midi": 72,
                    "name": "C5",
                    "ticks": 110848,
                    "time": 360.83275599999996,
                    "velocity": 0.9133858267716536,
                },
                {
                    "duration": 0.4720044531250096,
                    "durationTicks": 145,
                    "midi": 81,
                    "name": "A5",
                    "ticks": 110848,
                    "time": 360.83275599999996,
                    "velocity": 0.9133858267716536,
                },
                {
                    "duration": 0.8333319999999844,
                    "durationTicks": 256,
                    "midi": 72,
                    "name": "C5",
                    "ticks": 111104,
                    "time": 361.666088,
                    "velocity": 0.889763779527559,
                },
                {
                    "duration": 0.8333319999999844,
                    "durationTicks": 256,
                    "midi": 81,
                    "name": "A5",
                    "ticks": 111104,
                    "time": 361.666088,
                    "velocity": 0.889763779527559,
                },
                {
                    "duration": 0.24739543750001758,
                    "durationTicks": 76,
                    "midi": 72,
                    "name": "C5",
                    "ticks": 111360,
                    "time": 362.49942,
                    "velocity": 0.8661417322834646,
                },
                {
                    "duration": 0.24739543750001758,
                    "durationTicks": 76,
                    "midi": 81,
                    "name": "A5",
                    "ticks": 111360,
                    "time": 362.49942,
                    "velocity": 0.8661417322834646,
                },
                {
                    "duration": 0.24739543750001758,
                    "durationTicks": 76,
                    "midi": 72,
                    "name": "C5",
                    "ticks": 111488,
                    "time": 362.91608599999995,
                    "velocity": 0.8346456692913385,
                },
                {
                    "duration": 0.24739543750001758,
                    "durationTicks": 76,
                    "midi": 81,
                    "name": "A5",
                    "ticks": 111488,
                    "time": 362.91608599999995,
                    "velocity": 0.8346456692913385,
                },
                {
                    "duration": 0.5078116875000092,
                    "durationTicks": 156,
                    "midi": 74,
                    "name": "D5",
                    "ticks": 111616,
                    "time": 363.33275199999997,
                    "velocity": 0.9763779527559056,
                },
                {
                    "duration": 0.5078116875000092,
                    "durationTicks": 156,
                    "midi": 83,
                    "name": "B5",
                    "ticks": 111616,
                    "time": 363.33275199999997,
                    "velocity": 0.9763779527559056,
                },
                {
                    "duration": 0.4720044531250096,
                    "durationTicks": 145,
                    "midi": 72,
                    "name": "C5",
                    "ticks": 111872,
                    "time": 364.16608399999996,
                    "velocity": 0.7952755905511811,
                },
                {
                    "duration": 0.4720044531250096,
                    "durationTicks": 145,
                    "midi": 81,
                    "name": "A5",
                    "ticks": 111872,
                    "time": 364.16608399999996,
                    "velocity": 0.7952755905511811,
                },
                {
                    "duration": 0.8333319999999844,
                    "durationTicks": 256,
                    "midi": 71,
                    "name": "B4",
                    "ticks": 112128,
                    "time": 364.999416,
                    "velocity": 0.8267716535433071,
                },
                {
                    "duration": 0.8333319999999844,
                    "durationTicks": 256,
                    "midi": 80,
                    "name": "G#5",
                    "ticks": 112128,
                    "time": 364.999416,
                    "velocity": 0.8267716535433071,
                },
                {
                    "duration": 0.24739543750001758,
                    "durationTicks": 76,
                    "midi": 69,
                    "name": "A4",
                    "ticks": 112384,
                    "time": 365.832748,
                    "velocity": 0.8188976377952756,
                },
                {
                    "duration": 0.24739543750001758,
                    "durationTicks": 76,
                    "midi": 78,
                    "name": "F#5",
                    "ticks": 112384,
                    "time": 365.832748,
                    "velocity": 0.8188976377952756,
                },
                {
                    "duration": 0.24739543749996074,
                    "durationTicks": 76,
                    "midi": 71,
                    "name": "B4",
                    "ticks": 112512,
                    "time": 366.249414,
                    "velocity": 0.8976377952755905,
                },
                {
                    "duration": 0.24739543749996074,
                    "durationTicks": 76,
                    "midi": 80,
                    "name": "G#5",
                    "ticks": 112512,
                    "time": 366.249414,
                    "velocity": 0.8976377952755905,
                },
                {
                    "duration": 0.8333319999999844,
                    "durationTicks": 256,
                    "midi": 72,
                    "name": "C5",
                    "ticks": 112640,
                    "time": 366.66607999999997,
                    "velocity": 0.8976377952755905,
                },
                {
                    "duration": 0.8333319999999844,
                    "durationTicks": 256,
                    "midi": 81,
                    "name": "A5",
                    "ticks": 112640,
                    "time": 366.66607999999997,
                    "velocity": 0.8976377952755905,
                },
                {
                    "duration": 0.12369771875000879,
                    "durationTicks": 38,
                    "midi": 62,
                    "name": "D4",
                    "ticks": 114176,
                    "time": 371.666072,
                    "velocity": 0.30708661417322836,
                },
                {
                    "duration": 0.12369771875000879,
                    "durationTicks": 38,
                    "midi": 59,
                    "name": "B3",
                    "ticks": 114240,
                    "time": 371.87440499999997,
                    "velocity": 0.33858267716535434,
                },
                {
                    "duration": 0.12369771875000879,
                    "durationTicks": 38,
                    "midi": 61,
                    "name": "C#4",
                    "ticks": 114304,
                    "time": 372.08273799999995,
                    "velocity": 0.41732283464566927,
                },
                {
                    "duration": 0.12369771875000879,
                    "durationTicks": 38,
                    "midi": 62,
                    "name": "D4",
                    "ticks": 114368,
                    "time": 372.291071,
                    "velocity": 0.4015748031496063,
                },
                {
                    "duration": 0.12369771875000879,
                    "durationTicks": 38,
                    "midi": 64,
                    "name": "E4",
                    "ticks": 114432,
                    "time": 372.49940399999997,
                    "velocity": 0.3700787401574803,
                },
                {
                    "duration": 0.12369771875000879,
                    "durationTicks": 38,
                    "midi": 62,
                    "name": "D4",
                    "ticks": 114496,
                    "time": 372.70773699999995,
                    "velocity": 0.3700787401574803,
                },
                {
                    "duration": 0.12369771875000879,
                    "durationTicks": 38,
                    "midi": 61,
                    "name": "C#4",
                    "ticks": 114560,
                    "time": 372.91607,
                    "velocity": 0.30708661417322836,
                },
                {
                    "duration": 0.12369771875000879,
                    "durationTicks": 38,
                    "midi": 59,
                    "name": "B3",
                    "ticks": 114624,
                    "time": 373.124403,
                    "velocity": 0.3700787401574803,
                },
                {
                    "duration": 3.3333279999999945,
                    "durationTicks": 1024,
                    "midi": 57,
                    "name": "A3",
                    "ticks": 114688,
                    "time": 373.33273599999995,
                    "velocity": 0.3858267716535433,
                },
                {
                    "duration": 2.49999600000001,
                    "durationTicks": 768,
                    "midi": 59,
                    "name": "B3",
                    "ticks": 115712,
                    "time": 376.66606399999995,
                    "velocity": 0.4094488188976378,
                },
                {
                    "duration": 0.8496080156249946,
                    "durationTicks": 261,
                    "midi": 57,
                    "name": "A3",
                    "ticks": 116480,
                    "time": 379.16605999999996,
                    "velocity": 0.48031496062992124,
                },
                {
                    "duration": 0.8496080156249946,
                    "durationTicks": 261,
                    "midi": 56,
                    "name": "G#3",
                    "ticks": 116736,
                    "time": 379.999392,
                    "velocity": 0.48031496062992124,
                },
                {
                    "duration": 0.7910143593749694,
                    "durationTicks": 243,
                    "midi": 57,
                    "name": "A3",
                    "ticks": 116992,
                    "time": 380.832724,
                    "velocity": 0.5511811023622047,
                },
                {
                    "duration": 0.8496080156249946,
                    "durationTicks": 261,
                    "midi": 57,
                    "name": "A3",
                    "ticks": 117248,
                    "time": 381.66605599999997,
                    "velocity": 0.5748031496062992,
                },
                {
                    "duration": 0.8496080156250514,
                    "durationTicks": 261,
                    "midi": 55,
                    "name": "G3",
                    "ticks": 117504,
                    "time": 382.49938799999995,
                    "velocity": 0.48031496062992124,
                },
                {
                    "duration": 0.8496080156249946,
                    "durationTicks": 261,
                    "midi": 57,
                    "name": "A3",
                    "ticks": 117760,
                    "time": 383.33272,
                    "velocity": 0.5118110236220472,
                },
                {
                    "duration": 0.7910143593749694,
                    "durationTicks": 243,
                    "midi": 59,
                    "name": "B3",
                    "ticks": 118016,
                    "time": 384.166052,
                    "velocity": 0.5354330708661418,
                },
                {
                    "duration": 0.8496080156249946,
                    "durationTicks": 261,
                    "midi": 59,
                    "name": "B3",
                    "ticks": 118272,
                    "time": 384.99938399999996,
                    "velocity": 0.5118110236220472,
                },
                {
                    "duration": 0.4231764062499792,
                    "durationTicks": 130,
                    "midi": 57,
                    "name": "A3",
                    "ticks": 118528,
                    "time": 385.832716,
                    "velocity": 0.5118110236220472,
                },
                {
                    "duration": 0.3938795781249951,
                    "durationTicks": 121,
                    "midi": 55,
                    "name": "G3",
                    "ticks": 118656,
                    "time": 386.24938199999997,
                    "velocity": 0.6535433070866141,
                },
                {
                    "duration": 0.3938795781249951,
                    "durationTicks": 121,
                    "midi": 67,
                    "name": "G4",
                    "ticks": 118656,
                    "time": 386.24938199999997,
                    "velocity": 0.6535433070866141,
                },
                {
                    "duration": 0.8333319999999844,
                    "durationTicks": 256,
                    "midi": 55,
                    "name": "G3",
                    "ticks": 118784,
                    "time": 386.666048,
                    "velocity": 0.4251968503937008,
                },
                {
                    "duration": 0.8333319999999844,
                    "durationTicks": 256,
                    "midi": 67,
                    "name": "G4",
                    "ticks": 118784,
                    "time": 386.666048,
                    "velocity": 0.4251968503937008,
                },
                {
                    "duration": 2.9166620000000307,
                    "durationTicks": 896,
                    "midi": 55,
                    "name": "G3",
                    "ticks": 119040,
                    "time": 387.49938,
                    "velocity": 0.4566929133858268,
                },
                {
                    "duration": 2.9166620000000307,
                    "durationTicks": 896,
                    "midi": 67,
                    "name": "G4",
                    "ticks": 119040,
                    "time": 387.49938,
                    "velocity": 0.4566929133858268,
                },
                {
                    "duration": 0.4166659999999638,
                    "durationTicks": 128,
                    "midi": 57,
                    "name": "A3",
                    "ticks": 119936,
                    "time": 390.416042,
                    "velocity": 0.6062992125984252,
                },
                {
                    "duration": 0.4166659999999638,
                    "durationTicks": 128,
                    "midi": 67,
                    "name": "G4",
                    "ticks": 119936,
                    "time": 390.416042,
                    "velocity": 0.6062992125984252,
                },
                {
                    "duration": 1.6666640000000257,
                    "durationTicks": 512,
                    "midi": 57,
                    "name": "A3",
                    "ticks": 120064,
                    "time": 390.83270799999997,
                    "velocity": 0.5905511811023622,
                },
                {
                    "duration": 1.6666640000000257,
                    "durationTicks": 512,
                    "midi": 66,
                    "name": "F#4",
                    "ticks": 120064,
                    "time": 390.83270799999997,
                    "velocity": 0.5905511811023622,
                },
                {
                    "duration": 0.8333319999999844,
                    "durationTicks": 256,
                    "midi": 57,
                    "name": "A3",
                    "ticks": 120576,
                    "time": 392.499372,
                    "velocity": 0.6456692913385826,
                },
                {
                    "duration": 0.8496080156249946,
                    "durationTicks": 261,
                    "midi": 57,
                    "name": "A3",
                    "ticks": 120832,
                    "time": 393.332704,
                    "velocity": 0.4566929133858268,
                },
                {
                    "duration": 0.8496080156249946,
                    "durationTicks": 261,
                    "midi": 55,
                    "name": "G3",
                    "ticks": 121088,
                    "time": 394.16603599999996,
                    "velocity": 0.4645669291338583,
                },
                {
                    "duration": 0.8496080156249946,
                    "durationTicks": 261,
                    "midi": 57,
                    "name": "A3",
                    "ticks": 121344,
                    "time": 394.999368,
                    "velocity": 0.4881889763779528,
                },
                {
                    "duration": 0.7910143593749694,
                    "durationTicks": 243,
                    "midi": 59,
                    "name": "B3",
                    "ticks": 121600,
                    "time": 395.8327,
                    "velocity": 0.4881889763779528,
                },
                {
                    "duration": 1.2727844218750306,
                    "durationTicks": 391,
                    "midi": 57,
                    "name": "A3",
                    "ticks": 121856,
                    "time": 396.666032,
                    "velocity": 0.48031496062992124,
                },
                {
                    "duration": 0.4231764062499792,
                    "durationTicks": 130,
                    "midi": 55,
                    "name": "G3",
                    "ticks": 122240,
                    "time": 397.91603,
                    "velocity": 0.44881889763779526,
                },
                {
                    "duration": 0.8496080156249946,
                    "durationTicks": 261,
                    "midi": 57,
                    "name": "A3",
                    "ticks": 122368,
                    "time": 398.332696,
                    "velocity": 0.4566929133858268,
                },
                {
                    "duration": 0.7910143593749694,
                    "durationTicks": 243,
                    "midi": 59,
                    "name": "B3",
                    "ticks": 122624,
                    "time": 399.166028,
                    "velocity": 0.47244094488188976,
                },
                {
                    "duration": 1.2727844218750306,
                    "durationTicks": 391,
                    "midi": 57,
                    "name": "A3",
                    "ticks": 122880,
                    "time": 399.99935999999997,
                    "velocity": 0.4566929133858268,
                },
                {
                    "duration": 0.4231764062499792,
                    "durationTicks": 130,
                    "midi": 55,
                    "name": "G3",
                    "ticks": 123264,
                    "time": 401.249358,
                    "velocity": 0.41732283464566927,
                },
                {
                    "duration": 0.8496080156249946,
                    "durationTicks": 261,
                    "midi": 57,
                    "name": "A3",
                    "ticks": 123392,
                    "time": 401.666024,
                    "velocity": 0.4645669291338583,
                },
                {
                    "duration": 0.7910143593750263,
                    "durationTicks": 243,
                    "midi": 59,
                    "name": "B3",
                    "ticks": 123648,
                    "time": 402.499356,
                    "velocity": 0.4881889763779528,
                },
                {
                    "duration": 1.699216031249989,
                    "durationTicks": 522,
                    "midi": 61,
                    "name": "C#4",
                    "ticks": 123904,
                    "time": 403.33268799999996,
                    "velocity": 0.2755905511811024,
                },
                {
                    "duration": 1.699216031249989,
                    "durationTicks": 522,
                    "midi": 62,
                    "name": "D4",
                    "ticks": 124416,
                    "time": 404.999352,
                    "velocity": 0.28346456692913385,
                },
                {
                    "duration": 1.699216031250046,
                    "durationTicks": 522,
                    "midi": 61,
                    "name": "C#4",
                    "ticks": 124928,
                    "time": 406.66601599999996,
                    "velocity": 0.28346456692913385,
                },
                {
                    "duration": 1.5820287187499957,
                    "durationTicks": 486,
                    "midi": 62,
                    "name": "D4",
                    "ticks": 125440,
                    "time": 408.33268,
                    "velocity": 0.28346456692913385,
                },
                {
                    "duration": 0.41666600000002063,
                    "durationTicks": 128,
                    "midi": 62,
                    "name": "D4",
                    "ticks": 125952,
                    "time": 409.99934399999995,
                    "velocity": 0.905511811023622,
                },
                {
                    "duration": 0.4166659999999638,
                    "durationTicks": 128,
                    "midi": 62,
                    "name": "D4",
                    "ticks": 126208,
                    "time": 410.832676,
                    "velocity": 0.8188976377952756,
                },
                {
                    "duration": 0.3385411250000061,
                    "durationTicks": 104,
                    "midi": 71,
                    "name": "B4",
                    "ticks": 126232,
                    "time": 410.91080087499995,
                    "velocity": 0.8188976377952756,
                },
                {
                    "duration": 0.2604162499999916,
                    "durationTicks": 80,
                    "midi": 79,
                    "name": "G5",
                    "ticks": 126256,
                    "time": 410.98892574999996,
                    "velocity": 0.8188976377952756,
                },
                {
                    "duration": 0.8333319999999844,
                    "durationTicks": 256,
                    "midi": 64,
                    "name": "E4",
                    "ticks": 126464,
                    "time": 411.666008,
                    "velocity": 0.7952755905511811,
                },
                {
                    "duration": 0.8333319999999844,
                    "durationTicks": 256,
                    "midi": 72,
                    "name": "C5",
                    "ticks": 126464,
                    "time": 411.666008,
                    "velocity": 0.7952755905511811,
                },
                {
                    "duration": 0.8333319999999844,
                    "durationTicks": 256,
                    "midi": 76,
                    "name": "E5",
                    "ticks": 126464,
                    "time": 411.666008,
                    "velocity": 0.7952755905511811,
                },
                {
                    "duration": 0.8333319999999844,
                    "durationTicks": 256,
                    "midi": 62,
                    "name": "D4",
                    "ticks": 126976,
                    "time": 413.332672,
                    "velocity": 0.33858267716535434,
                },
                {
                    "duration": 0.24739543749996074,
                    "durationTicks": 76,
                    "midi": 62,
                    "name": "D4",
                    "ticks": 127232,
                    "time": 414.166004,
                    "velocity": 0.3700787401574803,
                },
                {
                    "duration": 0.24739543750001758,
                    "durationTicks": 76,
                    "midi": 62,
                    "name": "D4",
                    "ticks": 127360,
                    "time": 414.58266999999995,
                    "velocity": 0.3858267716535433,
                },
                {
                    "duration": 0.41666600000002063,
                    "durationTicks": 128,
                    "midi": 60,
                    "name": "C4",
                    "ticks": 127488,
                    "time": 414.99933599999997,
                    "velocity": 0.36220472440944884,
                },
                {
                    "duration": 0.4166659999999638,
                    "durationTicks": 128,
                    "midi": 62,
                    "name": "D4",
                    "ticks": 128000,
                    "time": 416.666,
                    "velocity": 0.7874015748031497,
                },
                {
                    "duration": 0.4166659999999638,
                    "durationTicks": 128,
                    "midi": 71,
                    "name": "B4",
                    "ticks": 128000,
                    "time": 416.666,
                    "velocity": 0.7874015748031497,
                },
                {
                    "duration": 0.41666600000002063,
                    "durationTicks": 128,
                    "midi": 62,
                    "name": "D4",
                    "ticks": 128256,
                    "time": 417.499332,
                    "velocity": 0.7874015748031497,
                },
                {
                    "duration": 0.3385411250000061,
                    "durationTicks": 104,
                    "midi": 71,
                    "name": "B4",
                    "ticks": 128280,
                    "time": 417.577456875,
                    "velocity": 0.7874015748031497,
                },
                {
                    "duration": 0.2604162500000484,
                    "durationTicks": 80,
                    "midi": 79,
                    "name": "G5",
                    "ticks": 128304,
                    "time": 417.65558174999995,
                    "velocity": 0.7874015748031497,
                },
                {
                    "duration": 0.8333319999999844,
                    "durationTicks": 256,
                    "midi": 64,
                    "name": "E4",
                    "ticks": 128512,
                    "time": 418.33266399999997,
                    "velocity": 0.8188976377952756,
                },
                {
                    "duration": 0.8333319999999844,
                    "durationTicks": 256,
                    "midi": 72,
                    "name": "C5",
                    "ticks": 128512,
                    "time": 418.33266399999997,
                    "velocity": 0.8188976377952756,
                },
                {
                    "duration": 0.8333319999999844,
                    "durationTicks": 256,
                    "midi": 76,
                    "name": "E5",
                    "ticks": 128512,
                    "time": 418.33266399999997,
                    "velocity": 0.8188976377952756,
                },
                {
                    "duration": 0.8333319999999844,
                    "durationTicks": 256,
                    "midi": 62,
                    "name": "D4",
                    "ticks": 129024,
                    "time": 419.999328,
                    "velocity": 0.36220472440944884,
                },
                {
                    "duration": 0.24739543750001758,
                    "durationTicks": 76,
                    "midi": 62,
                    "name": "D4",
                    "ticks": 129280,
                    "time": 420.83266,
                    "velocity": 0.41732283464566927,
                },
                {
                    "duration": 0.24739543749996074,
                    "durationTicks": 76,
                    "midi": 62,
                    "name": "D4",
                    "ticks": 129408,
                    "time": 421.249326,
                    "velocity": 0.3858267716535433,
                },
                {
                    "duration": 0.8333319999999844,
                    "durationTicks": 256,
                    "midi": 64,
                    "name": "E4",
                    "ticks": 140288,
                    "time": 456.665936,
                    "velocity": 0.4251968503937008,
                },
                {
                    "duration": 0.24739543750001758,
                    "durationTicks": 76,
                    "midi": 66,
                    "name": "F#4",
                    "ticks": 140544,
                    "time": 457.499268,
                    "velocity": 0.5275590551181102,
                },
                {
                    "duration": 0.24739543749996074,
                    "durationTicks": 76,
                    "midi": 68,
                    "name": "G#4",
                    "ticks": 140672,
                    "time": 457.915934,
                    "velocity": 0.5433070866141733,
                },
                {
                    "duration": 0.967739999999992,
                    "durationTicks": 256,
                    "midi": 57,
                    "name": "A3",
                    "ticks": 140800,
                    "time": 458.33259999999996,
                    "velocity": 0.8188976377952756,
                },
                {
                    "duration": 0.967739999999992,
                    "durationTicks": 256,
                    "midi": 69,
                    "name": "A4",
                    "ticks": 140800,
                    "time": 458.33259999999996,
                    "velocity": 0.8188976377952756,
                },
            ],
            "endOfTrackTicks": 141057,
        },
        {
            "channel": 12,
            "controlChanges": {
                "7": [
                    {
                        "number": 7,
                        "ticks": 76288,
                        "time": 248.332936,
                        "value": 0.7165354330708661,
                    },
                    {
                        "number": 7,
                        "ticks": 130304,
                        "time": 424.16598799999997,
                        "value": 0.7165354330708661,
                    },
                ],
                "10": [
                    {
                        "number": 10,
                        "ticks": 76288,
                        "time": 248.332936,
                        "value": 0.8740157480314961,
                    },
                    {
                        "number": 10,
                        "ticks": 130304,
                        "time": 424.16598799999997,
                        "value": 0.8740157480314961,
                    },
                ],
                "91": [
                    {
                        "number": 91,
                        "ticks": 76288,
                        "time": 248.332936,
                        "value": 0.4645669291338583,
                    },
                    {
                        "number": 91,
                        "ticks": 130304,
                        "time": 424.16598799999997,
                        "value": 0.4645669291338583,
                    },
                ],
            },
            "pitchBends": [],
            "instrument": {
                "family": "strings",
                "number": 45,
                "name": "pizzicato strings",
            },
            "name": "",
            "notes": [
                {
                    "duration": 0.8333319999999844,
                    "durationTicks": 256,
                    "midi": 57,
                    "name": "A3",
                    "ticks": 76288,
                    "time": 248.332936,
                    "velocity": 0.3700787401574803,
                },
                {
                    "duration": 0.41666600000002063,
                    "durationTicks": 128,
                    "midi": 57,
                    "name": "A3",
                    "ticks": 76544,
                    "time": 249.16626799999997,
                    "velocity": 0.25984251968503935,
                },
                {
                    "duration": 0.4166659999999922,
                    "durationTicks": 128,
                    "midi": 57,
                    "name": "A3",
                    "ticks": 76672,
                    "time": 249.582934,
                    "velocity": 0.23622047244094488,
                },
                {
                    "duration": 0.8333319999999844,
                    "durationTicks": 256,
                    "midi": 56,
                    "name": "G#3",
                    "ticks": 76800,
                    "time": 249.9996,
                    "velocity": 0.33070866141732286,
                },
                {
                    "duration": 0.8333320000000128,
                    "durationTicks": 256,
                    "midi": 56,
                    "name": "G#3",
                    "ticks": 77056,
                    "time": 250.83293199999997,
                    "velocity": 0.2992125984251969,
                },
                {
                    "duration": 0.8333320000000128,
                    "durationTicks": 256,
                    "midi": 59,
                    "name": "B3",
                    "ticks": 77312,
                    "time": 251.66626399999998,
                    "velocity": 0.23622047244094488,
                },
                {
                    "duration": 0.8333320000000128,
                    "durationTicks": 256,
                    "midi": 68,
                    "name": "G#4",
                    "ticks": 77312,
                    "time": 251.66626399999998,
                    "velocity": 0.23622047244094488,
                },
                {
                    "duration": 0.4166659999999922,
                    "durationTicks": 128,
                    "midi": 59,
                    "name": "B3",
                    "ticks": 77568,
                    "time": 252.499596,
                    "velocity": 0.18110236220472442,
                },
                {
                    "duration": 0.4166659999999922,
                    "durationTicks": 128,
                    "midi": 68,
                    "name": "G#4",
                    "ticks": 77568,
                    "time": 252.499596,
                    "velocity": 0.18110236220472442,
                },
                {
                    "duration": 0.4166659999999922,
                    "durationTicks": 128,
                    "midi": 59,
                    "name": "B3",
                    "ticks": 77696,
                    "time": 252.916262,
                    "velocity": 0.1889763779527559,
                },
                {
                    "duration": 0.4166659999999922,
                    "durationTicks": 128,
                    "midi": 68,
                    "name": "G#4",
                    "ticks": 77696,
                    "time": 252.916262,
                    "velocity": 0.1889763779527559,
                },
                {
                    "duration": 0.8333320000000128,
                    "durationTicks": 256,
                    "midi": 60,
                    "name": "C4",
                    "ticks": 77824,
                    "time": 253.33292799999998,
                    "velocity": 0.23622047244094488,
                },
                {
                    "duration": 0.8333320000000128,
                    "durationTicks": 256,
                    "midi": 69,
                    "name": "A4",
                    "ticks": 77824,
                    "time": 253.33292799999998,
                    "velocity": 0.23622047244094488,
                },
                {
                    "duration": 0.8333319999999844,
                    "durationTicks": 256,
                    "midi": 60,
                    "name": "C4",
                    "ticks": 78080,
                    "time": 254.16626,
                    "velocity": 0.15748031496062992,
                },
                {
                    "duration": 0.8333319999999844,
                    "durationTicks": 256,
                    "midi": 69,
                    "name": "A4",
                    "ticks": 78080,
                    "time": 254.16626,
                    "velocity": 0.15748031496062992,
                },
                {
                    "duration": 0.8333320000000128,
                    "durationTicks": 256,
                    "midi": 55,
                    "name": "G3",
                    "ticks": 78336,
                    "time": 254.99959199999998,
                    "velocity": 0.16535433070866143,
                },
                {
                    "duration": 0.41666600000002063,
                    "durationTicks": 128,
                    "midi": 55,
                    "name": "G3",
                    "ticks": 78592,
                    "time": 255.832924,
                    "velocity": 0.18110236220472442,
                },
                {
                    "duration": 0.4166659999999638,
                    "durationTicks": 128,
                    "midi": 57,
                    "name": "A3",
                    "ticks": 78720,
                    "time": 256.24959,
                    "velocity": 0.2677165354330709,
                },
                {
                    "duration": 0.4166659999999638,
                    "durationTicks": 128,
                    "midi": 69,
                    "name": "A4",
                    "ticks": 78720,
                    "time": 256.24959,
                    "velocity": 0.2677165354330709,
                },
                {
                    "duration": 0.8333320000000413,
                    "durationTicks": 256,
                    "midi": 60,
                    "name": "C4",
                    "ticks": 78848,
                    "time": 256.666256,
                    "velocity": 0.1968503937007874,
                },
                {
                    "duration": 0.8333320000000413,
                    "durationTicks": 256,
                    "midi": 64,
                    "name": "E4",
                    "ticks": 78848,
                    "time": 256.666256,
                    "velocity": 0.1968503937007874,
                },
                {
                    "duration": 0.8333319999999844,
                    "durationTicks": 256,
                    "midi": 60,
                    "name": "C4",
                    "ticks": 79104,
                    "time": 257.499588,
                    "velocity": 0.2047244094488189,
                },
                {
                    "duration": 0.8333319999999844,
                    "durationTicks": 256,
                    "midi": 64,
                    "name": "E4",
                    "ticks": 79104,
                    "time": 257.499588,
                    "velocity": 0.2047244094488189,
                },
                {
                    "duration": 0.8333319999999844,
                    "durationTicks": 256,
                    "midi": 59,
                    "name": "B3",
                    "ticks": 79360,
                    "time": 258.33292,
                    "velocity": 0.18110236220472442,
                },
                {
                    "duration": 0.8333319999999844,
                    "durationTicks": 256,
                    "midi": 62,
                    "name": "D4",
                    "ticks": 79360,
                    "time": 258.33292,
                    "velocity": 0.18110236220472442,
                },
                {
                    "duration": 0.41666600000002063,
                    "durationTicks": 128,
                    "midi": 59,
                    "name": "B3",
                    "ticks": 79616,
                    "time": 259.166252,
                    "velocity": 0.1732283464566929,
                },
                {
                    "duration": 0.41666600000002063,
                    "durationTicks": 128,
                    "midi": 62,
                    "name": "D4",
                    "ticks": 79616,
                    "time": 259.166252,
                    "velocity": 0.1732283464566929,
                },
                {
                    "duration": 0.4166659999999638,
                    "durationTicks": 128,
                    "midi": 59,
                    "name": "B3",
                    "ticks": 79744,
                    "time": 259.582918,
                    "velocity": 0.18110236220472442,
                },
                {
                    "duration": 0.4166659999999638,
                    "durationTicks": 128,
                    "midi": 62,
                    "name": "D4",
                    "ticks": 79744,
                    "time": 259.582918,
                    "velocity": 0.18110236220472442,
                },
                {
                    "duration": 0.8333319999999844,
                    "durationTicks": 256,
                    "midi": 60,
                    "name": "C4",
                    "ticks": 79872,
                    "time": 259.99958399999997,
                    "velocity": 0.2204724409448819,
                },
                {
                    "duration": 0.8333319999999844,
                    "durationTicks": 256,
                    "midi": 64,
                    "name": "E4",
                    "ticks": 79872,
                    "time": 259.99958399999997,
                    "velocity": 0.2204724409448819,
                },
                {
                    "duration": 0.8333319999999844,
                    "durationTicks": 256,
                    "midi": 60,
                    "name": "C4",
                    "ticks": 80384,
                    "time": 261.666248,
                    "velocity": 0.2047244094488189,
                },
                {
                    "duration": 0.8333319999999844,
                    "durationTicks": 256,
                    "midi": 64,
                    "name": "E4",
                    "ticks": 80384,
                    "time": 261.666248,
                    "velocity": 0.2047244094488189,
                },
                {
                    "duration": 0.41666600000002063,
                    "durationTicks": 128,
                    "midi": 60,
                    "name": "C4",
                    "ticks": 80640,
                    "time": 262.49958,
                    "velocity": 0.1732283464566929,
                },
                {
                    "duration": 0.41666600000002063,
                    "durationTicks": 128,
                    "midi": 64,
                    "name": "E4",
                    "ticks": 80640,
                    "time": 262.49958,
                    "velocity": 0.1732283464566929,
                },
                {
                    "duration": 0.4166659999999638,
                    "durationTicks": 128,
                    "midi": 60,
                    "name": "C4",
                    "ticks": 80768,
                    "time": 262.916246,
                    "velocity": 0.2204724409448819,
                },
                {
                    "duration": 0.4166659999999638,
                    "durationTicks": 128,
                    "midi": 66,
                    "name": "F#4",
                    "ticks": 80768,
                    "time": 262.916246,
                    "velocity": 0.2204724409448819,
                },
                {
                    "duration": 0.8333320000000413,
                    "durationTicks": 256,
                    "midi": 59,
                    "name": "B3",
                    "ticks": 80896,
                    "time": 263.33291199999996,
                    "velocity": 0.2125984251968504,
                },
                {
                    "duration": 0.8333320000000413,
                    "durationTicks": 256,
                    "midi": 66,
                    "name": "F#4",
                    "ticks": 80896,
                    "time": 263.33291199999996,
                    "velocity": 0.2125984251968504,
                },
                {
                    "duration": 0.8333319999999844,
                    "durationTicks": 256,
                    "midi": 59,
                    "name": "B3",
                    "ticks": 81152,
                    "time": 264.166244,
                    "velocity": 0.1889763779527559,
                },
                {
                    "duration": 0.8333319999999844,
                    "durationTicks": 256,
                    "midi": 66,
                    "name": "F#4",
                    "ticks": 81152,
                    "time": 264.166244,
                    "velocity": 0.1889763779527559,
                },
                {
                    "duration": 0.8333319999999844,
                    "durationTicks": 256,
                    "midi": 71,
                    "name": "B4",
                    "ticks": 81152,
                    "time": 264.166244,
                    "velocity": 0.1889763779527559,
                },
                {
                    "duration": 0.8333319999999844,
                    "durationTicks": 256,
                    "midi": 57,
                    "name": "A3",
                    "ticks": 81408,
                    "time": 264.999576,
                    "velocity": 0.15748031496062992,
                },
                {
                    "duration": 0.8333319999999844,
                    "durationTicks": 256,
                    "midi": 62,
                    "name": "D4",
                    "ticks": 81408,
                    "time": 264.999576,
                    "velocity": 0.15748031496062992,
                },
                {
                    "duration": 0.41666600000002063,
                    "durationTicks": 128,
                    "midi": 57,
                    "name": "A3",
                    "ticks": 81664,
                    "time": 265.832908,
                    "velocity": 0.1732283464566929,
                },
                {
                    "duration": 0.41666600000002063,
                    "durationTicks": 128,
                    "midi": 62,
                    "name": "D4",
                    "ticks": 81664,
                    "time": 265.832908,
                    "velocity": 0.1732283464566929,
                },
                {
                    "duration": 0.4166659999999638,
                    "durationTicks": 128,
                    "midi": 59,
                    "name": "B3",
                    "ticks": 81792,
                    "time": 266.249574,
                    "velocity": 0.16535433070866143,
                },
                {
                    "duration": 0.4166659999999638,
                    "durationTicks": 128,
                    "midi": 64,
                    "name": "E4",
                    "ticks": 81792,
                    "time": 266.249574,
                    "velocity": 0.16535433070866143,
                },
                {
                    "duration": 0.8333320000000413,
                    "durationTicks": 256,
                    "midi": 57,
                    "name": "A3",
                    "ticks": 81920,
                    "time": 266.66623999999996,
                    "velocity": 0.1968503937007874,
                },
                {
                    "duration": 0.8333320000000413,
                    "durationTicks": 256,
                    "midi": 64,
                    "name": "E4",
                    "ticks": 81920,
                    "time": 266.66623999999996,
                    "velocity": 0.1968503937007874,
                },
                {
                    "duration": 0.8333319999999844,
                    "durationTicks": 256,
                    "midi": 57,
                    "name": "A3",
                    "ticks": 82176,
                    "time": 267.499572,
                    "velocity": 0.2283464566929134,
                },
                {
                    "duration": 0.8333319999999844,
                    "durationTicks": 256,
                    "midi": 64,
                    "name": "E4",
                    "ticks": 82176,
                    "time": 267.499572,
                    "velocity": 0.2283464566929134,
                },
                {
                    "duration": 0.8333319999999844,
                    "durationTicks": 256,
                    "midi": 69,
                    "name": "A4",
                    "ticks": 82176,
                    "time": 267.499572,
                    "velocity": 0.2283464566929134,
                },
                {
                    "duration": 0.8333319999999844,
                    "durationTicks": 256,
                    "midi": 60,
                    "name": "C4",
                    "ticks": 82432,
                    "time": 268.332904,
                    "velocity": 0.1732283464566929,
                },
                {
                    "duration": 0.8333319999999844,
                    "durationTicks": 256,
                    "midi": 69,
                    "name": "A4",
                    "ticks": 82432,
                    "time": 268.332904,
                    "velocity": 0.1732283464566929,
                },
                {
                    "duration": 0.41666600000002063,
                    "durationTicks": 128,
                    "midi": 60,
                    "name": "C4",
                    "ticks": 82688,
                    "time": 269.16623599999997,
                    "velocity": 0.1968503937007874,
                },
                {
                    "duration": 0.41666600000002063,
                    "durationTicks": 128,
                    "midi": 69,
                    "name": "A4",
                    "ticks": 82688,
                    "time": 269.16623599999997,
                    "velocity": 0.1968503937007874,
                },
                {
                    "duration": 0.41666600000002063,
                    "durationTicks": 128,
                    "midi": 57,
                    "name": "A3",
                    "ticks": 82816,
                    "time": 269.582902,
                    "velocity": 0.14960629921259844,
                },
                {
                    "duration": 0.4166659999999638,
                    "durationTicks": 128,
                    "midi": 56,
                    "name": "G#3",
                    "ticks": 82944,
                    "time": 269.999568,
                    "velocity": 0.16535433070866143,
                },
                {
                    "duration": 0.4166659999999638,
                    "durationTicks": 128,
                    "midi": 60,
                    "name": "C4",
                    "ticks": 83200,
                    "time": 270.8329,
                    "velocity": 0.1732283464566929,
                },
                {
                    "duration": 0.4166659999999638,
                    "durationTicks": 128,
                    "midi": 69,
                    "name": "A4",
                    "ticks": 83200,
                    "time": 270.8329,
                    "velocity": 0.1732283464566929,
                },
                {
                    "duration": 0.41666600000002063,
                    "durationTicks": 128,
                    "midi": 57,
                    "name": "A3",
                    "ticks": 83328,
                    "time": 271.24956599999996,
                    "velocity": 0.16535433070866143,
                },
                {
                    "duration": 0.8333319999999844,
                    "durationTicks": 256,
                    "midi": 59,
                    "name": "B3",
                    "ticks": 83456,
                    "time": 271.666232,
                    "velocity": 0.2440944881889764,
                },
                {
                    "duration": 0.8333319999999844,
                    "durationTicks": 256,
                    "midi": 68,
                    "name": "G#4",
                    "ticks": 83456,
                    "time": 271.666232,
                    "velocity": 0.2440944881889764,
                },
                {
                    "duration": 0.41666600000002063,
                    "durationTicks": 128,
                    "midi": 69,
                    "name": "A4",
                    "ticks": 83712,
                    "time": 272.49956399999996,
                    "velocity": 0.1889763779527559,
                },
                {
                    "duration": 0.41666600000002063,
                    "durationTicks": 128,
                    "midi": 71,
                    "name": "B4",
                    "ticks": 83840,
                    "time": 272.91623,
                    "velocity": 0.1968503937007874,
                },
                {
                    "duration": 0.4166659999999638,
                    "durationTicks": 128,
                    "midi": 60,
                    "name": "C4",
                    "ticks": 83968,
                    "time": 273.332896,
                    "velocity": 0.12598425196850394,
                },
                {
                    "duration": 0.4166659999999638,
                    "durationTicks": 128,
                    "midi": 64,
                    "name": "E4",
                    "ticks": 83968,
                    "time": 273.332896,
                    "velocity": 0.12598425196850394,
                },
                {
                    "duration": 0.8333319999999844,
                    "durationTicks": 256,
                    "midi": 59,
                    "name": "B3",
                    "ticks": 84480,
                    "time": 274.99956,
                    "velocity": 0.1732283464566929,
                },
                {
                    "duration": 0.8333319999999844,
                    "durationTicks": 256,
                    "midi": 64,
                    "name": "E4",
                    "ticks": 84480,
                    "time": 274.99956,
                    "velocity": 0.1732283464566929,
                },
                {
                    "duration": 0.41666600000002063,
                    "durationTicks": 128,
                    "midi": 59,
                    "name": "B3",
                    "ticks": 84736,
                    "time": 275.83289199999996,
                    "velocity": 0.1968503937007874,
                },
                {
                    "duration": 0.41666600000002063,
                    "durationTicks": 128,
                    "midi": 64,
                    "name": "E4",
                    "ticks": 84736,
                    "time": 275.83289199999996,
                    "velocity": 0.1968503937007874,
                },
                {
                    "duration": 0.41666600000002063,
                    "durationTicks": 128,
                    "midi": 60,
                    "name": "C4",
                    "ticks": 84864,
                    "time": 276.249558,
                    "velocity": 0.2047244094488189,
                },
                {
                    "duration": 0.41666600000002063,
                    "durationTicks": 128,
                    "midi": 66,
                    "name": "F#4",
                    "ticks": 84864,
                    "time": 276.249558,
                    "velocity": 0.2047244094488189,
                },
                {
                    "duration": 0.8333319999999844,
                    "durationTicks": 256,
                    "midi": 59,
                    "name": "B3",
                    "ticks": 84992,
                    "time": 276.666224,
                    "velocity": 0.2204724409448819,
                },
                {
                    "duration": 0.8333319999999844,
                    "durationTicks": 256,
                    "midi": 66,
                    "name": "F#4",
                    "ticks": 84992,
                    "time": 276.666224,
                    "velocity": 0.2204724409448819,
                },
                {
                    "duration": 0.8333319999999844,
                    "durationTicks": 256,
                    "midi": 59,
                    "name": "B3",
                    "ticks": 85248,
                    "time": 277.499556,
                    "velocity": 0.2283464566929134,
                },
                {
                    "duration": 0.8333319999999844,
                    "durationTicks": 256,
                    "midi": 66,
                    "name": "F#4",
                    "ticks": 85248,
                    "time": 277.499556,
                    "velocity": 0.2283464566929134,
                },
                {
                    "duration": 0.8333319999999844,
                    "durationTicks": 256,
                    "midi": 71,
                    "name": "B4",
                    "ticks": 85248,
                    "time": 277.499556,
                    "velocity": 0.2283464566929134,
                },
                {
                    "duration": 0.8333320000000413,
                    "durationTicks": 256,
                    "midi": 57,
                    "name": "A3",
                    "ticks": 85504,
                    "time": 278.33288799999997,
                    "velocity": 0.14960629921259844,
                },
                {
                    "duration": 0.8333320000000413,
                    "durationTicks": 256,
                    "midi": 62,
                    "name": "D4",
                    "ticks": 85504,
                    "time": 278.33288799999997,
                    "velocity": 0.14960629921259844,
                },
                {
                    "duration": 0.4166659999999638,
                    "durationTicks": 128,
                    "midi": 57,
                    "name": "A3",
                    "ticks": 85760,
                    "time": 279.16622,
                    "velocity": 0.1889763779527559,
                },
                {
                    "duration": 0.4166659999999638,
                    "durationTicks": 128,
                    "midi": 62,
                    "name": "D4",
                    "ticks": 85760,
                    "time": 279.16622,
                    "velocity": 0.1889763779527559,
                },
                {
                    "duration": 0.41666600000002063,
                    "durationTicks": 128,
                    "midi": 59,
                    "name": "B3",
                    "ticks": 85888,
                    "time": 279.582886,
                    "velocity": 0.2125984251968504,
                },
                {
                    "duration": 0.41666600000002063,
                    "durationTicks": 128,
                    "midi": 64,
                    "name": "E4",
                    "ticks": 85888,
                    "time": 279.582886,
                    "velocity": 0.2125984251968504,
                },
                {
                    "duration": 0.8333319999999844,
                    "durationTicks": 256,
                    "midi": 57,
                    "name": "A3",
                    "ticks": 86016,
                    "time": 279.999552,
                    "velocity": 0.1889763779527559,
                },
                {
                    "duration": 0.8333319999999844,
                    "durationTicks": 256,
                    "midi": 64,
                    "name": "E4",
                    "ticks": 86016,
                    "time": 279.999552,
                    "velocity": 0.1889763779527559,
                },
                {
                    "duration": 0.8333319999999844,
                    "durationTicks": 256,
                    "midi": 57,
                    "name": "A3",
                    "ticks": 86272,
                    "time": 280.832884,
                    "velocity": 0.2125984251968504,
                },
                {
                    "duration": 0.8333319999999844,
                    "durationTicks": 256,
                    "midi": 64,
                    "name": "E4",
                    "ticks": 86272,
                    "time": 280.832884,
                    "velocity": 0.2125984251968504,
                },
                {
                    "duration": 0.8333319999999844,
                    "durationTicks": 256,
                    "midi": 69,
                    "name": "A4",
                    "ticks": 86272,
                    "time": 280.832884,
                    "velocity": 0.2125984251968504,
                },
                {
                    "duration": 0.8333320000000413,
                    "durationTicks": 256,
                    "midi": 60,
                    "name": "C4",
                    "ticks": 86528,
                    "time": 281.66621599999996,
                    "velocity": 0.14173228346456693,
                },
                {
                    "duration": 0.8333320000000413,
                    "durationTicks": 256,
                    "midi": 69,
                    "name": "A4",
                    "ticks": 86528,
                    "time": 281.66621599999996,
                    "velocity": 0.14173228346456693,
                },
                {
                    "duration": 0.4166659999999638,
                    "durationTicks": 128,
                    "midi": 60,
                    "name": "C4",
                    "ticks": 86784,
                    "time": 282.499548,
                    "velocity": 0.1968503937007874,
                },
                {
                    "duration": 0.4166659999999638,
                    "durationTicks": 128,
                    "midi": 69,
                    "name": "A4",
                    "ticks": 86784,
                    "time": 282.499548,
                    "velocity": 0.1968503937007874,
                },
                {
                    "duration": 0.41666600000002063,
                    "durationTicks": 128,
                    "midi": 57,
                    "name": "A3",
                    "ticks": 86912,
                    "time": 282.91621399999997,
                    "velocity": 0.15748031496062992,
                },
                {
                    "duration": 0.41666600000002063,
                    "durationTicks": 128,
                    "midi": 56,
                    "name": "G#3",
                    "ticks": 87040,
                    "time": 283.33288,
                    "velocity": 0.1968503937007874,
                },
                {
                    "duration": 0.41666600000002063,
                    "durationTicks": 128,
                    "midi": 60,
                    "name": "C4",
                    "ticks": 87296,
                    "time": 284.166212,
                    "velocity": 0.1732283464566929,
                },
                {
                    "duration": 0.41666600000002063,
                    "durationTicks": 128,
                    "midi": 69,
                    "name": "A4",
                    "ticks": 87296,
                    "time": 284.166212,
                    "velocity": 0.1732283464566929,
                },
                {
                    "duration": 0.4166659999999638,
                    "durationTicks": 128,
                    "midi": 57,
                    "name": "A3",
                    "ticks": 87424,
                    "time": 284.582878,
                    "velocity": 0.14960629921259844,
                },
                {
                    "duration": 0.8333320000000413,
                    "durationTicks": 256,
                    "midi": 59,
                    "name": "B3",
                    "ticks": 87552,
                    "time": 284.99954399999996,
                    "velocity": 0.2677165354330709,
                },
                {
                    "duration": 0.8333320000000413,
                    "durationTicks": 256,
                    "midi": 68,
                    "name": "G#4",
                    "ticks": 87552,
                    "time": 284.99954399999996,
                    "velocity": 0.2677165354330709,
                },
                {
                    "duration": 0.4166659999999638,
                    "durationTicks": 128,
                    "midi": 69,
                    "name": "A4",
                    "ticks": 87808,
                    "time": 285.832876,
                    "velocity": 0.2440944881889764,
                },
                {
                    "duration": 0.41666600000002063,
                    "durationTicks": 128,
                    "midi": 71,
                    "name": "B4",
                    "ticks": 87936,
                    "time": 286.24954199999996,
                    "velocity": 0.2125984251968504,
                },
                {
                    "duration": 0.8333319999999844,
                    "durationTicks": 256,
                    "midi": 61,
                    "name": "C#4",
                    "ticks": 88064,
                    "time": 286.666208,
                    "velocity": 0.14960629921259844,
                },
                {
                    "duration": 0.8333319999999844,
                    "durationTicks": 256,
                    "midi": 64,
                    "name": "E4",
                    "ticks": 88064,
                    "time": 286.666208,
                    "velocity": 0.14960629921259844,
                },
                {
                    "duration": 0.8333319999999844,
                    "durationTicks": 256,
                    "midi": 61,
                    "name": "C#4",
                    "ticks": 88576,
                    "time": 288.332872,
                    "velocity": 0.16535433070866143,
                },
                {
                    "duration": 0.8333319999999844,
                    "durationTicks": 256,
                    "midi": 64,
                    "name": "E4",
                    "ticks": 88576,
                    "time": 288.332872,
                    "velocity": 0.16535433070866143,
                },
                {
                    "duration": 0.4166659999999638,
                    "durationTicks": 128,
                    "midi": 61,
                    "name": "C#4",
                    "ticks": 88832,
                    "time": 289.166204,
                    "velocity": 0.18110236220472442,
                },
                {
                    "duration": 0.4166659999999638,
                    "durationTicks": 128,
                    "midi": 64,
                    "name": "E4",
                    "ticks": 88832,
                    "time": 289.166204,
                    "velocity": 0.18110236220472442,
                },
                {
                    "duration": 0.41666600000002063,
                    "durationTicks": 128,
                    "midi": 61,
                    "name": "C#4",
                    "ticks": 88960,
                    "time": 289.58286999999996,
                    "velocity": 0.1968503937007874,
                },
                {
                    "duration": 0.41666600000002063,
                    "durationTicks": 128,
                    "midi": 64,
                    "name": "E4",
                    "ticks": 88960,
                    "time": 289.58286999999996,
                    "velocity": 0.1968503937007874,
                },
                {
                    "duration": 0.8333319999999844,
                    "durationTicks": 256,
                    "midi": 62,
                    "name": "D4",
                    "ticks": 89088,
                    "time": 289.999536,
                    "velocity": 0.2047244094488189,
                },
                {
                    "duration": 0.8333319999999844,
                    "durationTicks": 256,
                    "midi": 65,
                    "name": "F4",
                    "ticks": 89088,
                    "time": 289.999536,
                    "velocity": 0.2047244094488189,
                },
                {
                    "duration": 0.8333319999999844,
                    "durationTicks": 256,
                    "midi": 62,
                    "name": "D4",
                    "ticks": 89600,
                    "time": 291.6662,
                    "velocity": 0.18110236220472442,
                },
                {
                    "duration": 0.8333319999999844,
                    "durationTicks": 256,
                    "midi": 65,
                    "name": "F4",
                    "ticks": 89600,
                    "time": 291.6662,
                    "velocity": 0.18110236220472442,
                },
                {
                    "duration": 0.41666600000002063,
                    "durationTicks": 128,
                    "midi": 62,
                    "name": "D4",
                    "ticks": 89856,
                    "time": 292.499532,
                    "velocity": 0.18110236220472442,
                },
                {
                    "duration": 0.41666600000002063,
                    "durationTicks": 128,
                    "midi": 65,
                    "name": "F4",
                    "ticks": 89856,
                    "time": 292.499532,
                    "velocity": 0.18110236220472442,
                },
                {
                    "duration": 0.4166659999999638,
                    "durationTicks": 128,
                    "midi": 62,
                    "name": "D4",
                    "ticks": 89984,
                    "time": 292.916198,
                    "velocity": 0.1889763779527559,
                },
                {
                    "duration": 0.4166659999999638,
                    "durationTicks": 128,
                    "midi": 65,
                    "name": "F4",
                    "ticks": 89984,
                    "time": 292.916198,
                    "velocity": 0.1889763779527559,
                },
                {
                    "duration": 0.8333319999999844,
                    "durationTicks": 256,
                    "midi": 61,
                    "name": "C#4",
                    "ticks": 90112,
                    "time": 293.332864,
                    "velocity": 0.1889763779527559,
                },
                {
                    "duration": 0.8333319999999844,
                    "durationTicks": 256,
                    "midi": 64,
                    "name": "E4",
                    "ticks": 90112,
                    "time": 293.332864,
                    "velocity": 0.1889763779527559,
                },
                {
                    "duration": 0.4166659999999638,
                    "durationTicks": 128,
                    "midi": 61,
                    "name": "C#4",
                    "ticks": 90624,
                    "time": 294.999528,
                    "velocity": 0.1968503937007874,
                },
                {
                    "duration": 0.4166659999999638,
                    "durationTicks": 128,
                    "midi": 64,
                    "name": "E4",
                    "ticks": 90624,
                    "time": 294.999528,
                    "velocity": 0.1968503937007874,
                },
                {
                    "duration": 0.41666600000002063,
                    "durationTicks": 128,
                    "midi": 61,
                    "name": "C#4",
                    "ticks": 90752,
                    "time": 295.41619399999996,
                    "velocity": 0.2283464566929134,
                },
                {
                    "duration": 0.41666600000002063,
                    "durationTicks": 128,
                    "midi": 64,
                    "name": "E4",
                    "ticks": 90752,
                    "time": 295.41619399999996,
                    "velocity": 0.2283464566929134,
                },
                {
                    "duration": 0.41666600000002063,
                    "durationTicks": 128,
                    "midi": 61,
                    "name": "C#4",
                    "ticks": 90880,
                    "time": 295.83286,
                    "velocity": 0.2125984251968504,
                },
                {
                    "duration": 0.41666600000002063,
                    "durationTicks": 128,
                    "midi": 64,
                    "name": "E4",
                    "ticks": 90880,
                    "time": 295.83286,
                    "velocity": 0.2125984251968504,
                },
                {
                    "duration": 0.41666600000002063,
                    "durationTicks": 128,
                    "midi": 62,
                    "name": "D4",
                    "ticks": 91136,
                    "time": 296.66619199999997,
                    "velocity": 0.2992125984251969,
                },
                {
                    "duration": 0.41666600000002063,
                    "durationTicks": 128,
                    "midi": 65,
                    "name": "F4",
                    "ticks": 91136,
                    "time": 296.66619199999997,
                    "velocity": 0.2992125984251969,
                },
                {
                    "duration": 0.41666600000002063,
                    "durationTicks": 128,
                    "midi": 62,
                    "name": "D4",
                    "ticks": 91264,
                    "time": 297.082858,
                    "velocity": 0.4015748031496063,
                },
                {
                    "duration": 0.41666600000002063,
                    "durationTicks": 128,
                    "midi": 65,
                    "name": "F4",
                    "ticks": 91264,
                    "time": 297.082858,
                    "velocity": 0.4015748031496063,
                },
                {
                    "duration": 0.4166659999999638,
                    "durationTicks": 128,
                    "midi": 62,
                    "name": "D4",
                    "ticks": 91392,
                    "time": 297.499524,
                    "velocity": 0.44881889763779526,
                },
                {
                    "duration": 0.4166659999999638,
                    "durationTicks": 128,
                    "midi": 65,
                    "name": "F4",
                    "ticks": 91392,
                    "time": 297.499524,
                    "velocity": 0.44881889763779526,
                },
                {
                    "duration": 0.4166659999999638,
                    "durationTicks": 128,
                    "midi": 62,
                    "name": "D4",
                    "ticks": 91648,
                    "time": 298.332856,
                    "velocity": 0.4251968503937008,
                },
                {
                    "duration": 0.4166659999999638,
                    "durationTicks": 128,
                    "midi": 65,
                    "name": "F4",
                    "ticks": 91648,
                    "time": 298.332856,
                    "velocity": 0.4251968503937008,
                },
                {
                    "duration": 0.41666600000002063,
                    "durationTicks": 128,
                    "midi": 62,
                    "name": "D4",
                    "ticks": 91776,
                    "time": 298.74952199999996,
                    "velocity": 0.5433070866141733,
                },
                {
                    "duration": 0.41666600000002063,
                    "durationTicks": 128,
                    "midi": 65,
                    "name": "F4",
                    "ticks": 91776,
                    "time": 298.74952199999996,
                    "velocity": 0.5433070866141733,
                },
                {
                    "duration": 0.41666600000002063,
                    "durationTicks": 128,
                    "midi": 62,
                    "name": "D4",
                    "ticks": 91904,
                    "time": 299.166188,
                    "velocity": 0.6220472440944882,
                },
                {
                    "duration": 0.41666600000002063,
                    "durationTicks": 128,
                    "midi": 65,
                    "name": "F4",
                    "ticks": 91904,
                    "time": 299.166188,
                    "velocity": 0.6220472440944882,
                },
                {
                    "duration": 0.4166659999999638,
                    "durationTicks": 128,
                    "midi": 61,
                    "name": "C#4",
                    "ticks": 92416,
                    "time": 300.832852,
                    "velocity": 0.5196850393700787,
                },
                {
                    "duration": 0.4166659999999638,
                    "durationTicks": 128,
                    "midi": 64,
                    "name": "E4",
                    "ticks": 92416,
                    "time": 300.832852,
                    "velocity": 0.5196850393700787,
                },
                {
                    "duration": 0.41666600000002063,
                    "durationTicks": 128,
                    "midi": 61,
                    "name": "C#4",
                    "ticks": 92544,
                    "time": 301.24951799999997,
                    "velocity": 0.5354330708661418,
                },
                {
                    "duration": 0.41666600000002063,
                    "durationTicks": 128,
                    "midi": 64,
                    "name": "E4",
                    "ticks": 92544,
                    "time": 301.24951799999997,
                    "velocity": 0.5354330708661418,
                },
                {
                    "duration": 0.8333319999999844,
                    "durationTicks": 256,
                    "midi": 57,
                    "name": "A3",
                    "ticks": 130304,
                    "time": 424.16598799999997,
                    "velocity": 0.3543307086614173,
                },
                {
                    "duration": 0.8333319999999844,
                    "durationTicks": 256,
                    "midi": 64,
                    "name": "E4",
                    "ticks": 130816,
                    "time": 425.832652,
                    "velocity": 0.36220472440944884,
                },
                {
                    "duration": 0.8333319999999844,
                    "durationTicks": 256,
                    "midi": 64,
                    "name": "E4",
                    "ticks": 131328,
                    "time": 427.49931599999996,
                    "velocity": 0.31496062992125984,
                },
                {
                    "duration": 0.8333319999999844,
                    "durationTicks": 256,
                    "midi": 57,
                    "name": "A3",
                    "ticks": 131840,
                    "time": 429.16598,
                    "velocity": 0.36220472440944884,
                },
                {
                    "duration": 0.8333320000000413,
                    "durationTicks": 256,
                    "midi": 60,
                    "name": "C4",
                    "ticks": 132352,
                    "time": 430.83264399999996,
                    "velocity": 0.3228346456692913,
                },
                {
                    "duration": 0.8333319999999844,
                    "durationTicks": 256,
                    "midi": 60,
                    "name": "C4",
                    "ticks": 132864,
                    "time": 432.499308,
                    "velocity": 0.36220472440944884,
                },
                {
                    "duration": 0.8333319999999844,
                    "durationTicks": 256,
                    "midi": 59,
                    "name": "B3",
                    "ticks": 133120,
                    "time": 433.33263999999997,
                    "velocity": 0.36220472440944884,
                },
                {
                    "duration": 0.41666600000002063,
                    "durationTicks": 128,
                    "midi": 57,
                    "name": "A3",
                    "ticks": 133376,
                    "time": 434.16597199999995,
                    "velocity": 0.3700787401574803,
                },
                {
                    "duration": 0.41666600000002063,
                    "durationTicks": 128,
                    "midi": 59,
                    "name": "B3",
                    "ticks": 133504,
                    "time": 434.582638,
                    "velocity": 0.3937007874015748,
                },
                {
                    "duration": 0.8333319999999844,
                    "durationTicks": 256,
                    "midi": 60,
                    "name": "C4",
                    "ticks": 133632,
                    "time": 434.999304,
                    "velocity": 0.36220472440944884,
                },
                {
                    "duration": 0.8333320000000413,
                    "durationTicks": 256,
                    "midi": 60,
                    "name": "C4",
                    "ticks": 134400,
                    "time": 437.49929999999995,
                    "velocity": 0.33858267716535434,
                },
                {
                    "duration": 0.8333319999999844,
                    "durationTicks": 256,
                    "midi": 59,
                    "name": "B3",
                    "ticks": 134912,
                    "time": 439.165964,
                    "velocity": 0.3700787401574803,
                },
                {
                    "duration": 0.8333319999999844,
                    "durationTicks": 256,
                    "midi": 64,
                    "name": "E4",
                    "ticks": 135424,
                    "time": 440.832628,
                    "velocity": 0.2992125984251969,
                },
                {
                    "duration": 0.8333319999999844,
                    "durationTicks": 256,
                    "midi": 57,
                    "name": "A3",
                    "ticks": 135936,
                    "time": 442.49929199999997,
                    "velocity": 0.3543307086614173,
                },
                {
                    "duration": 0.8333319999999844,
                    "durationTicks": 256,
                    "midi": 57,
                    "name": "A3",
                    "ticks": 136448,
                    "time": 444.165956,
                    "velocity": 0.3228346456692913,
                },
                {
                    "duration": 0.8333319999999844,
                    "durationTicks": 256,
                    "midi": 59,
                    "name": "B3",
                    "ticks": 136704,
                    "time": 444.999288,
                    "velocity": 0.3937007874015748,
                },
                {
                    "duration": 0.8333319999999844,
                    "durationTicks": 256,
                    "midi": 57,
                    "name": "A3",
                    "ticks": 136960,
                    "time": 445.83261999999996,
                    "velocity": 0.3543307086614173,
                },
                {
                    "duration": 0.8333320000000413,
                    "durationTicks": 256,
                    "midi": 59,
                    "name": "B3",
                    "ticks": 137216,
                    "time": 446.66595199999995,
                    "velocity": 0.3937007874015748,
                },
                {
                    "duration": 0.4166659999999638,
                    "durationTicks": 128,
                    "midi": 59,
                    "name": "B3",
                    "ticks": 137472,
                    "time": 447.499284,
                    "velocity": 0.4330708661417323,
                },
                {
                    "duration": 0.41666600000002063,
                    "durationTicks": 128,
                    "midi": 59,
                    "name": "B3",
                    "ticks": 137600,
                    "time": 447.91594999999995,
                    "velocity": 0.4094488188976378,
                },
                {
                    "duration": 0.8333319999999844,
                    "durationTicks": 256,
                    "midi": 57,
                    "name": "A3",
                    "ticks": 137728,
                    "time": 448.332616,
                    "velocity": 0.3543307086614173,
                },
                {
                    "duration": 0.8333319999999844,
                    "durationTicks": 256,
                    "midi": 59,
                    "name": "B3",
                    "ticks": 139264,
                    "time": 453.332608,
                    "velocity": 0.3464566929133858,
                },
                {
                    "duration": 0.41666600000002063,
                    "durationTicks": 128,
                    "midi": 59,
                    "name": "B3",
                    "ticks": 139520,
                    "time": 454.16594,
                    "velocity": 0.3937007874015748,
                },
                {
                    "duration": 0.4166659999999638,
                    "durationTicks": 128,
                    "midi": 59,
                    "name": "B3",
                    "ticks": 139648,
                    "time": 454.582606,
                    "velocity": 0.3779527559055118,
                },
                {
                    "duration": 0.8333319999999844,
                    "durationTicks": 256,
                    "midi": 57,
                    "name": "A3",
                    "ticks": 139776,
                    "time": 454.99927199999996,
                    "velocity": 0.36220472440944884,
                },
            ],
        },
        {
            "channel": 8,
            "controlChanges": {
                "7": [
                    {"number": 7, "ticks": 0, "time": 0, "value": 0.7480314960629921},
                    {
                        "number": 7,
                        "ticks": 140800,
                        "time": 458.33259999999996,
                        "value": 0.7480314960629921,
                    },
                ],
                "10": [
                    {"number": 10, "ticks": 0, "time": 0, "value": 0.5905511811023622},
                    {
                        "number": 10,
                        "ticks": 140800,
                        "time": 458.33259999999996,
                        "value": 0.5905511811023622,
                    },
                ],
                "64": [{"number": 64, "ticks": 0, "time": 0, "value": 0}],
                "91": [
                    {"number": 91, "ticks": 0, "time": 0, "value": 0.47244094488188976},
                    {
                        "number": 91,
                        "ticks": 140800,
                        "time": 458.33259999999996,
                        "value": 0.4645669291338583,
                    },
                ],
                "121": [{"number": 121, "ticks": 0, "time": 0, "value": 0}],
            },
            "pitchBends": [],
            "instrument": {
                "family": "ensemble",
                "number": 48,
                "name": "string ensemble 1",
            },
            "name": "Violas",
            "notes": [
                {
                    "duration": 0.8333320000000004,
                    "durationTicks": 256,
                    "midi": 52,
                    "name": "E3",
                    "ticks": 1024,
                    "time": 3.333328,
                    "velocity": 0.3464566929133858,
                },
                {
                    "duration": 0.24739543749999982,
                    "durationTicks": 76,
                    "midi": 52,
                    "name": "E3",
                    "ticks": 1280,
                    "time": 4.16666,
                    "velocity": 0.36220472440944884,
                },
                {
                    "duration": 0.24739543749999982,
                    "durationTicks": 76,
                    "midi": 52,
                    "name": "E3",
                    "ticks": 1408,
                    "time": 4.583326,
                    "velocity": 0.4015748031496063,
                },
                {
                    "duration": 0.49804607812499935,
                    "durationTicks": 153,
                    "midi": 52,
                    "name": "E3",
                    "ticks": 1536,
                    "time": 4.999992,
                    "velocity": 0.41732283464566927,
                },
                {
                    "duration": 0.4720044531250007,
                    "durationTicks": 145,
                    "midi": 52,
                    "name": "E3",
                    "ticks": 1792,
                    "time": 5.833323999999999,
                    "velocity": 0.3543307086614173,
                },
                {
                    "duration": 0.8333320000000004,
                    "durationTicks": 256,
                    "midi": 52,
                    "name": "E3",
                    "ticks": 2048,
                    "time": 6.666656,
                    "velocity": 0.36220472440944884,
                },
                {
                    "duration": 0.24739543749999982,
                    "durationTicks": 76,
                    "midi": 52,
                    "name": "E3",
                    "ticks": 2304,
                    "time": 7.499988,
                    "velocity": 0.3858267716535433,
                },
                {
                    "duration": 0.24739543749999982,
                    "durationTicks": 76,
                    "midi": 52,
                    "name": "E3",
                    "ticks": 2432,
                    "time": 7.916653999999999,
                    "velocity": 0.33858267716535434,
                },
                {
                    "duration": 0.49804607812500024,
                    "durationTicks": 153,
                    "midi": 52,
                    "name": "E3",
                    "ticks": 2560,
                    "time": 8.33332,
                    "velocity": 0.3700787401574803,
                },
                {
                    "duration": 0.4720044531250007,
                    "durationTicks": 145,
                    "midi": 52,
                    "name": "E3",
                    "ticks": 2816,
                    "time": 9.166652,
                    "velocity": 0.36220472440944884,
                },
                {
                    "duration": 0.8333320000000004,
                    "durationTicks": 256,
                    "midi": 52,
                    "name": "E3",
                    "ticks": 3072,
                    "time": 9.999984,
                    "velocity": 0.3858267716535433,
                },
                {
                    "duration": 0.24739543749999982,
                    "durationTicks": 76,
                    "midi": 52,
                    "name": "E3",
                    "ticks": 3328,
                    "time": 10.833316,
                    "velocity": 0.3700787401574803,
                },
                {
                    "duration": 0.24739543749999982,
                    "durationTicks": 76,
                    "midi": 50,
                    "name": "D3",
                    "ticks": 3456,
                    "time": 11.249982,
                    "velocity": 0.4094488188976378,
                },
                {
                    "duration": 0.24739543749999982,
                    "durationTicks": 76,
                    "midi": 54,
                    "name": "F#3",
                    "ticks": 3456,
                    "time": 11.249982,
                    "velocity": 0.4094488188976378,
                },
                {
                    "duration": 0.49804607812499846,
                    "durationTicks": 153,
                    "midi": 52,
                    "name": "E3",
                    "ticks": 3584,
                    "time": 11.666648,
                    "velocity": 0.3937007874015748,
                },
                {
                    "duration": 0.49804607812499846,
                    "durationTicks": 153,
                    "midi": 55,
                    "name": "G3",
                    "ticks": 3584,
                    "time": 11.666648,
                    "velocity": 0.3937007874015748,
                },
                {
                    "duration": 0.4720044531250007,
                    "durationTicks": 145,
                    "midi": 52,
                    "name": "E3",
                    "ticks": 3840,
                    "time": 12.499979999999999,
                    "velocity": 0.3858267716535433,
                },
                {
                    "duration": 0.4720044531250007,
                    "durationTicks": 145,
                    "midi": 55,
                    "name": "G3",
                    "ticks": 3840,
                    "time": 12.499979999999999,
                    "velocity": 0.3858267716535433,
                },
                {
                    "duration": 0.8333320000000004,
                    "durationTicks": 256,
                    "midi": 50,
                    "name": "D3",
                    "ticks": 4096,
                    "time": 13.333312,
                    "velocity": 0.33858267716535434,
                },
                {
                    "duration": 0.8333320000000004,
                    "durationTicks": 256,
                    "midi": 55,
                    "name": "G3",
                    "ticks": 4096,
                    "time": 13.333312,
                    "velocity": 0.33858267716535434,
                },
                {
                    "duration": 0.24739543749999982,
                    "durationTicks": 76,
                    "midi": 48,
                    "name": "C3",
                    "ticks": 4352,
                    "time": 14.166644,
                    "velocity": 0.3779527559055118,
                },
                {
                    "duration": 0.24739543749999982,
                    "durationTicks": 76,
                    "midi": 55,
                    "name": "G3",
                    "ticks": 4352,
                    "time": 14.166644,
                    "velocity": 0.3779527559055118,
                },
                {
                    "duration": 0.24739543749999982,
                    "durationTicks": 76,
                    "midi": 50,
                    "name": "D3",
                    "ticks": 4480,
                    "time": 14.583309999999999,
                    "velocity": 0.3858267716535433,
                },
                {
                    "duration": 0.24739543749999982,
                    "durationTicks": 76,
                    "midi": 55,
                    "name": "G3",
                    "ticks": 4480,
                    "time": 14.583309999999999,
                    "velocity": 0.3858267716535433,
                },
                {
                    "duration": 0.8333320000000004,
                    "durationTicks": 256,
                    "midi": 52,
                    "name": "E3",
                    "ticks": 4608,
                    "time": 14.999975999999998,
                    "velocity": 0.3937007874015748,
                },
                {
                    "duration": 0.8333320000000004,
                    "durationTicks": 256,
                    "midi": 55,
                    "name": "G3",
                    "ticks": 4608,
                    "time": 14.999975999999998,
                    "velocity": 0.3937007874015748,
                },
                {
                    "duration": 0.8333319999999986,
                    "durationTicks": 256,
                    "midi": 55,
                    "name": "G3",
                    "ticks": 5120,
                    "time": 16.66664,
                    "velocity": 0.3464566929133858,
                },
                {
                    "duration": 0.24739543749999982,
                    "durationTicks": 76,
                    "midi": 55,
                    "name": "G3",
                    "ticks": 5376,
                    "time": 17.499972,
                    "velocity": 0.3700787401574803,
                },
                {
                    "duration": 0.24739543749999982,
                    "durationTicks": 76,
                    "midi": 57,
                    "name": "A3",
                    "ticks": 5504,
                    "time": 17.916638,
                    "velocity": 0.4330708661417323,
                },
                {
                    "duration": 0.49804607812500024,
                    "durationTicks": 153,
                    "midi": 59,
                    "name": "B3",
                    "ticks": 5632,
                    "time": 18.333304,
                    "velocity": 0.3779527559055118,
                },
                {
                    "duration": 0.4720044531250025,
                    "durationTicks": 145,
                    "midi": 59,
                    "name": "B3",
                    "ticks": 5888,
                    "time": 19.166635999999997,
                    "velocity": 0.3858267716535433,
                },
                {
                    "duration": 0.8333319999999986,
                    "durationTicks": 256,
                    "midi": 54,
                    "name": "F#3",
                    "ticks": 6144,
                    "time": 19.999968000000003,
                    "velocity": 0.3464566929133858,
                },
                {
                    "duration": 0.24739543749999626,
                    "durationTicks": 76,
                    "midi": 54,
                    "name": "F#3",
                    "ticks": 6400,
                    "time": 20.8333,
                    "velocity": 0.3779527559055118,
                },
                {
                    "duration": 0.24739543749999626,
                    "durationTicks": 76,
                    "midi": 56,
                    "name": "G#3",
                    "ticks": 6528,
                    "time": 21.249966,
                    "velocity": 0.3700787401574803,
                },
                {
                    "duration": 0.49804607812500024,
                    "durationTicks": 153,
                    "midi": 57,
                    "name": "A3",
                    "ticks": 6656,
                    "time": 21.666632,
                    "velocity": 0.3779527559055118,
                },
                {
                    "duration": 0.4720044531250025,
                    "durationTicks": 145,
                    "midi": 57,
                    "name": "A3",
                    "ticks": 6912,
                    "time": 22.499964,
                    "velocity": 0.3779527559055118,
                },
                {
                    "duration": 0.8333319999999986,
                    "durationTicks": 256,
                    "midi": 52,
                    "name": "E3",
                    "ticks": 7168,
                    "time": 23.333295999999997,
                    "velocity": 0.3228346456692913,
                },
                {
                    "duration": 0.24739543750000337,
                    "durationTicks": 76,
                    "midi": 52,
                    "name": "E3",
                    "ticks": 7424,
                    "time": 24.166627999999996,
                    "velocity": 0.3543307086614173,
                },
                {
                    "duration": 0.24739543749999626,
                    "durationTicks": 76,
                    "midi": 52,
                    "name": "E3",
                    "ticks": 7552,
                    "time": 24.583294000000002,
                    "velocity": 0.3779527559055118,
                },
                {
                    "duration": 0.49804607812500024,
                    "durationTicks": 153,
                    "midi": 52,
                    "name": "E3",
                    "ticks": 7680,
                    "time": 24.99996,
                    "velocity": 0.3700787401574803,
                },
                {
                    "duration": 0.4720044531249954,
                    "durationTicks": 145,
                    "midi": 52,
                    "name": "E3",
                    "ticks": 7936,
                    "time": 25.833292,
                    "velocity": 0.36220472440944884,
                },
                {
                    "duration": 0.8333319999999986,
                    "durationTicks": 256,
                    "midi": 52,
                    "name": "E3",
                    "ticks": 8192,
                    "time": 26.666624,
                    "velocity": 0.3700787401574803,
                },
                {
                    "duration": 0.24739543750000337,
                    "durationTicks": 76,
                    "midi": 52,
                    "name": "E3",
                    "ticks": 8448,
                    "time": 27.499955999999997,
                    "velocity": 0.4015748031496063,
                },
                {
                    "duration": 0.24739543750000337,
                    "durationTicks": 76,
                    "midi": 54,
                    "name": "F#3",
                    "ticks": 8448,
                    "time": 27.499955999999997,
                    "velocity": 0.4015748031496063,
                },
                {
                    "duration": 0.24739543750000337,
                    "durationTicks": 76,
                    "midi": 52,
                    "name": "E3",
                    "ticks": 8576,
                    "time": 27.916621999999997,
                    "velocity": 0.3858267716535433,
                },
                {
                    "duration": 0.24739543750000337,
                    "durationTicks": 76,
                    "midi": 56,
                    "name": "G#3",
                    "ticks": 8576,
                    "time": 27.916621999999997,
                    "velocity": 0.3858267716535433,
                },
                {
                    "duration": 0.8333320000000057,
                    "durationTicks": 256,
                    "midi": 52,
                    "name": "E3",
                    "ticks": 8704,
                    "time": 28.333287999999996,
                    "velocity": 0.4015748031496063,
                },
                {
                    "duration": 0.8333320000000057,
                    "durationTicks": 256,
                    "midi": 57,
                    "name": "A3",
                    "ticks": 8704,
                    "time": 28.333287999999996,
                    "velocity": 0.4015748031496063,
                },
                {
                    "duration": 0.8333319999999986,
                    "durationTicks": 256,
                    "midi": 55,
                    "name": "G3",
                    "ticks": 9216,
                    "time": 29.999952,
                    "velocity": 0.3228346456692913,
                },
                {
                    "duration": 0.24739543749999626,
                    "durationTicks": 76,
                    "midi": 55,
                    "name": "G3",
                    "ticks": 9472,
                    "time": 30.833284,
                    "velocity": 0.3858267716535433,
                },
                {
                    "duration": 0.24739543750000337,
                    "durationTicks": 76,
                    "midi": 57,
                    "name": "A3",
                    "ticks": 9600,
                    "time": 31.24995,
                    "velocity": 0.3937007874015748,
                },
                {
                    "duration": 0.49804607812500024,
                    "durationTicks": 153,
                    "midi": 59,
                    "name": "B3",
                    "ticks": 9728,
                    "time": 31.666615999999998,
                    "velocity": 0.4251968503937008,
                },
                {
                    "duration": 0.4720044531250025,
                    "durationTicks": 145,
                    "midi": 59,
                    "name": "B3",
                    "ticks": 9984,
                    "time": 32.499947999999996,
                    "velocity": 0.3858267716535433,
                },
                {
                    "duration": 0.8333319999999986,
                    "durationTicks": 256,
                    "midi": 54,
                    "name": "F#3",
                    "ticks": 10240,
                    "time": 33.33328,
                    "velocity": 0.3858267716535433,
                },
                {
                    "duration": 0.24739543749999626,
                    "durationTicks": 76,
                    "midi": 54,
                    "name": "F#3",
                    "ticks": 10496,
                    "time": 34.166612,
                    "velocity": 0.4094488188976378,
                },
                {
                    "duration": 0.24739543749999626,
                    "durationTicks": 76,
                    "midi": 56,
                    "name": "G#3",
                    "ticks": 10624,
                    "time": 34.583278,
                    "velocity": 0.4015748031496063,
                },
                {
                    "duration": 0.49804607812500024,
                    "durationTicks": 153,
                    "midi": 57,
                    "name": "A3",
                    "ticks": 10752,
                    "time": 34.999944,
                    "velocity": 0.3700787401574803,
                },
                {
                    "duration": 0.4720044531250025,
                    "durationTicks": 145,
                    "midi": 57,
                    "name": "A3",
                    "ticks": 11008,
                    "time": 35.833276,
                    "velocity": 0.3464566929133858,
                },
                {
                    "duration": 0.8333319999999986,
                    "durationTicks": 256,
                    "midi": 52,
                    "name": "E3",
                    "ticks": 11264,
                    "time": 36.666608000000004,
                    "velocity": 0.3779527559055118,
                },
                {
                    "duration": 0.24739543749999626,
                    "durationTicks": 76,
                    "midi": 52,
                    "name": "E3",
                    "ticks": 11520,
                    "time": 37.49994,
                    "velocity": 0.3858267716535433,
                },
                {
                    "duration": 0.24739543749999626,
                    "durationTicks": 76,
                    "midi": 52,
                    "name": "E3",
                    "ticks": 11648,
                    "time": 37.916606,
                    "velocity": 0.3779527559055118,
                },
                {
                    "duration": 0.49804607812500024,
                    "durationTicks": 153,
                    "midi": 52,
                    "name": "E3",
                    "ticks": 11776,
                    "time": 38.333272,
                    "velocity": 0.3700787401574803,
                },
                {
                    "duration": 0.4720044531250025,
                    "durationTicks": 145,
                    "midi": 52,
                    "name": "E3",
                    "ticks": 12032,
                    "time": 39.166604,
                    "velocity": 0.3858267716535433,
                },
                {
                    "duration": 0.8333319999999986,
                    "durationTicks": 256,
                    "midi": 52,
                    "name": "E3",
                    "ticks": 12288,
                    "time": 39.999936,
                    "velocity": 0.4251968503937008,
                },
                {
                    "duration": 0.24739543750000337,
                    "durationTicks": 76,
                    "midi": 52,
                    "name": "E3",
                    "ticks": 12544,
                    "time": 40.833268,
                    "velocity": 0.3858267716535433,
                },
                {
                    "duration": 0.24739543750000337,
                    "durationTicks": 76,
                    "midi": 54,
                    "name": "F#3",
                    "ticks": 12544,
                    "time": 40.833268,
                    "velocity": 0.3858267716535433,
                },
                {
                    "duration": 0.24739543749999626,
                    "durationTicks": 76,
                    "midi": 52,
                    "name": "E3",
                    "ticks": 12672,
                    "time": 41.249934,
                    "velocity": 0.4094488188976378,
                },
                {
                    "duration": 0.24739543749999626,
                    "durationTicks": 76,
                    "midi": 56,
                    "name": "G#3",
                    "ticks": 12672,
                    "time": 41.249934,
                    "velocity": 0.4094488188976378,
                },
                {
                    "duration": 0.8333319999999986,
                    "durationTicks": 256,
                    "midi": 52,
                    "name": "E3",
                    "ticks": 12800,
                    "time": 41.6666,
                    "velocity": 0.36220472440944884,
                },
                {
                    "duration": 0.8333319999999986,
                    "durationTicks": 256,
                    "midi": 57,
                    "name": "A3",
                    "ticks": 12800,
                    "time": 41.6666,
                    "velocity": 0.36220472440944884,
                },
                {
                    "duration": 1.6666639999999973,
                    "durationTicks": 512,
                    "midi": 60,
                    "name": "C4",
                    "ticks": 13312,
                    "time": 43.333264,
                    "velocity": 0.3464566929133858,
                },
                {
                    "duration": 1.5787735156250022,
                    "durationTicks": 485,
                    "midi": 59,
                    "name": "B3",
                    "ticks": 13824,
                    "time": 44.999928,
                    "velocity": 0.3543307086614173,
                },
                {
                    "duration": 0.2083329999999961,
                    "durationTicks": 64,
                    "midi": 59,
                    "name": "B3",
                    "ticks": 14336,
                    "time": 46.666592,
                    "velocity": 0.3858267716535433,
                },
                {
                    "duration": 0.2083330000000032,
                    "durationTicks": 64,
                    "midi": 60,
                    "name": "C4",
                    "ticks": 14400,
                    "time": 46.874925,
                    "velocity": 0.3858267716535433,
                },
                {
                    "duration": 0.8333319999999986,
                    "durationTicks": 256,
                    "midi": 62,
                    "name": "D4",
                    "ticks": 14464,
                    "time": 47.083258,
                    "velocity": 0.3858267716535433,
                },
                {
                    "duration": 0.2115882031249967,
                    "durationTicks": 65,
                    "midi": 60,
                    "name": "C4",
                    "ticks": 14720,
                    "time": 47.91659,
                    "velocity": 0.36220472440944884,
                },
                {
                    "duration": 0.19531218749999368,
                    "durationTicks": 60,
                    "midi": 59,
                    "name": "B3",
                    "ticks": 14784,
                    "time": 48.124923,
                    "velocity": 0.3700787401574803,
                },
                {
                    "duration": 0.4231764062500005,
                    "durationTicks": 130,
                    "midi": 59,
                    "name": "B3",
                    "ticks": 14848,
                    "time": 48.333256,
                    "velocity": 0.3858267716535433,
                },
                {
                    "duration": 0.3938795781250022,
                    "durationTicks": 121,
                    "midi": 60,
                    "name": "C4",
                    "ticks": 14976,
                    "time": 48.749922,
                    "velocity": 0.41732283464566927,
                },
                {
                    "duration": 0.8333319999999986,
                    "durationTicks": 256,
                    "midi": 60,
                    "name": "C4",
                    "ticks": 15104,
                    "time": 49.166588,
                    "velocity": 0.3858267716535433,
                },
                {
                    "duration": 1.249998000000005,
                    "durationTicks": 384,
                    "midi": 60,
                    "name": "C4",
                    "ticks": 15360,
                    "time": 49.999919999999996,
                    "velocity": 0.3858267716535433,
                },
                {
                    "duration": 0.2115882031249967,
                    "durationTicks": 65,
                    "midi": 60,
                    "name": "C4",
                    "ticks": 15744,
                    "time": 51.249918,
                    "velocity": 0.36220472440944884,
                },
                {
                    "duration": 0.1953121875000008,
                    "durationTicks": 60,
                    "midi": 62,
                    "name": "D4",
                    "ticks": 15808,
                    "time": 51.458251,
                    "velocity": 0.4094488188976378,
                },
                {
                    "duration": 0.4231764062500005,
                    "durationTicks": 130,
                    "midi": 63,
                    "name": "D#4",
                    "ticks": 15872,
                    "time": 51.666584,
                    "velocity": 0.3937007874015748,
                },
                {
                    "duration": 0.3938795781250022,
                    "durationTicks": 121,
                    "midi": 64,
                    "name": "E4",
                    "ticks": 16000,
                    "time": 52.08325,
                    "velocity": 0.4330708661417323,
                },
                {
                    "duration": 0.24739543750000337,
                    "durationTicks": 76,
                    "midi": 64,
                    "name": "E4",
                    "ticks": 16128,
                    "time": 52.499916,
                    "velocity": 0.36220472440944884,
                },
                {
                    "duration": 0.24739543750000337,
                    "durationTicks": 76,
                    "midi": 64,
                    "name": "E4",
                    "ticks": 16256,
                    "time": 52.916582,
                    "velocity": 0.4015748031496063,
                },
                {
                    "duration": 0.21158820312500382,
                    "durationTicks": 65,
                    "midi": 62,
                    "name": "D4",
                    "ticks": 16384,
                    "time": 53.333248,
                    "velocity": 0.3543307086614173,
                },
                {
                    "duration": 0.2115882031249967,
                    "durationTicks": 65,
                    "midi": 64,
                    "name": "E4",
                    "ticks": 16448,
                    "time": 53.541581,
                    "velocity": 0.3937007874015748,
                },
                {
                    "duration": 0.8496080156250017,
                    "durationTicks": 261,
                    "midi": 65,
                    "name": "F4",
                    "ticks": 16512,
                    "time": 53.749914,
                    "velocity": 0.4094488188976378,
                },
                {
                    "duration": 0.2115882031249967,
                    "durationTicks": 65,
                    "midi": 64,
                    "name": "E4",
                    "ticks": 16768,
                    "time": 54.583246,
                    "velocity": 0.41732283464566927,
                },
                {
                    "duration": 0.1953121875000008,
                    "durationTicks": 60,
                    "midi": 62,
                    "name": "D4",
                    "ticks": 16832,
                    "time": 54.791579,
                    "velocity": 0.3464566929133858,
                },
                {
                    "duration": 0.4231764062500005,
                    "durationTicks": 130,
                    "midi": 62,
                    "name": "D4",
                    "ticks": 16896,
                    "time": 54.999912,
                    "velocity": 0.3937007874015748,
                },
                {
                    "duration": 0.3938795781249951,
                    "durationTicks": 121,
                    "midi": 64,
                    "name": "E4",
                    "ticks": 17024,
                    "time": 55.416578,
                    "velocity": 0.4566929133858268,
                },
                {
                    "duration": 0.8333319999999986,
                    "durationTicks": 256,
                    "midi": 64,
                    "name": "E4",
                    "ticks": 17152,
                    "time": 55.833244,
                    "velocity": 0.3779527559055118,
                },
                {
                    "duration": 1.6992160312500033,
                    "durationTicks": 522,
                    "midi": 64,
                    "name": "E4",
                    "ticks": 17408,
                    "time": 56.666576,
                    "velocity": 0.3779527559055118,
                },
                {
                    "duration": 1.5820287187500028,
                    "durationTicks": 486,
                    "midi": 63,
                    "name": "D#4",
                    "ticks": 17920,
                    "time": 58.333239999999996,
                    "velocity": 0.3543307086614173,
                },
                {
                    "duration": 0.4231764062500005,
                    "durationTicks": 130,
                    "midi": 62,
                    "name": "D4",
                    "ticks": 18432,
                    "time": 59.999904,
                    "velocity": 0.3228346456692913,
                },
                {
                    "duration": 0.2115882031249967,
                    "durationTicks": 65,
                    "midi": 59,
                    "name": "B3",
                    "ticks": 18560,
                    "time": 60.41657,
                    "velocity": 0.3228346456692913,
                },
                {
                    "duration": 0.21158820312500382,
                    "durationTicks": 65,
                    "midi": 61,
                    "name": "C#4",
                    "ticks": 18624,
                    "time": 60.624902999999996,
                    "velocity": 0.3858267716535433,
                },
                {
                    "duration": 0.4231764062500005,
                    "durationTicks": 130,
                    "midi": 62,
                    "name": "D4",
                    "ticks": 18688,
                    "time": 60.833236,
                    "velocity": 0.3858267716535433,
                },
                {
                    "duration": 0.2115882031249967,
                    "durationTicks": 65,
                    "midi": 64,
                    "name": "E4",
                    "ticks": 18816,
                    "time": 61.249902,
                    "velocity": 0.41732283464566927,
                },
                {
                    "duration": 0.19531218749999368,
                    "durationTicks": 60,
                    "midi": 62,
                    "name": "D4",
                    "ticks": 18880,
                    "time": 61.458235,
                    "velocity": 0.41732283464566927,
                },
                {
                    "duration": 0.4231764062500005,
                    "durationTicks": 130,
                    "midi": 62,
                    "name": "D4",
                    "ticks": 18944,
                    "time": 61.666568,
                    "velocity": 0.3543307086614173,
                },
                {
                    "duration": 0.3938795781250022,
                    "durationTicks": 121,
                    "midi": 61,
                    "name": "C#4",
                    "ticks": 19072,
                    "time": 62.083234,
                    "velocity": 0.3543307086614173,
                },
                {
                    "duration": 0.8333320000000057,
                    "durationTicks": 256,
                    "midi": 60,
                    "name": "C4",
                    "ticks": 19200,
                    "time": 62.4999,
                    "velocity": 0.3779527559055118,
                },
                {
                    "duration": 1.6992160312499962,
                    "durationTicks": 522,
                    "midi": 60,
                    "name": "C4",
                    "ticks": 19456,
                    "time": 63.333232,
                    "velocity": 0.3858267716535433,
                },
                {
                    "duration": 0.8496080156250088,
                    "durationTicks": 261,
                    "midi": 59,
                    "name": "B3",
                    "ticks": 19968,
                    "time": 64.99989599999999,
                    "velocity": 0.41732283464566927,
                },
                {
                    "duration": 0.7454415156250036,
                    "durationTicks": 229,
                    "midi": 60,
                    "name": "C4",
                    "ticks": 20224,
                    "time": 65.83322799999999,
                    "velocity": 0.4094488188976378,
                },
                {
                    "duration": 0.20833300000001032,
                    "durationTicks": 64,
                    "midi": 59,
                    "name": "B3",
                    "ticks": 20480,
                    "time": 66.66655999999999,
                    "velocity": 0.3779527559055118,
                },
                {
                    "duration": 0.2083329999999961,
                    "durationTicks": 64,
                    "midi": 60,
                    "name": "C4",
                    "ticks": 20544,
                    "time": 66.874893,
                    "velocity": 0.3779527559055118,
                },
                {
                    "duration": 0.8333319999999986,
                    "durationTicks": 256,
                    "midi": 62,
                    "name": "D4",
                    "ticks": 20608,
                    "time": 67.083226,
                    "velocity": 0.3779527559055118,
                },
                {
                    "duration": 0.2115882031249896,
                    "durationTicks": 65,
                    "midi": 60,
                    "name": "C4",
                    "ticks": 20864,
                    "time": 67.916558,
                    "velocity": 0.3779527559055118,
                },
                {
                    "duration": 0.19531218749999368,
                    "durationTicks": 60,
                    "midi": 59,
                    "name": "B3",
                    "ticks": 20928,
                    "time": 68.12489099999999,
                    "velocity": 0.3228346456692913,
                },
                {
                    "duration": 0.24739543750000337,
                    "durationTicks": 76,
                    "midi": 57,
                    "name": "A3",
                    "ticks": 20992,
                    "time": 68.33322399999999,
                    "velocity": 0.3700787401574803,
                },
                {
                    "duration": 0.21158820312500382,
                    "durationTicks": 65,
                    "midi": 57,
                    "name": "A3",
                    "ticks": 21120,
                    "time": 68.74989,
                    "velocity": 0.3700787401574803,
                },
                {
                    "duration": 0.1953121875000079,
                    "durationTicks": 60,
                    "midi": 59,
                    "name": "B3",
                    "ticks": 21184,
                    "time": 68.95822299999999,
                    "velocity": 0.3858267716535433,
                },
                {
                    "duration": 0.24739543750000337,
                    "durationTicks": 76,
                    "midi": 60,
                    "name": "C4",
                    "ticks": 21248,
                    "time": 69.16655599999999,
                    "velocity": 0.3779527559055118,
                },
                {
                    "duration": 0.21158820312500382,
                    "durationTicks": 65,
                    "midi": 60,
                    "name": "C4",
                    "ticks": 21376,
                    "time": 69.58322199999999,
                    "velocity": 0.3700787401574803,
                },
                {
                    "duration": 0.1953121875000079,
                    "durationTicks": 60,
                    "midi": 62,
                    "name": "D4",
                    "ticks": 21440,
                    "time": 69.79155499999999,
                    "velocity": 0.4094488188976378,
                },
                {
                    "duration": 1.699216031249989,
                    "durationTicks": 522,
                    "midi": 64,
                    "name": "E4",
                    "ticks": 21504,
                    "time": 69.999888,
                    "velocity": 0.3464566929133858,
                },
                {
                    "duration": 1.5820287187499957,
                    "durationTicks": 486,
                    "midi": 63,
                    "name": "D#4",
                    "ticks": 22016,
                    "time": 71.666552,
                    "velocity": 0.30708661417322836,
                },
                {
                    "duration": 0.4231764062499934,
                    "durationTicks": 130,
                    "midi": 62,
                    "name": "D4",
                    "ticks": 22528,
                    "time": 73.333216,
                    "velocity": 0.2677165354330709,
                },
                {
                    "duration": 0.21158820312500382,
                    "durationTicks": 65,
                    "midi": 59,
                    "name": "B3",
                    "ticks": 22656,
                    "time": 73.74988199999999,
                    "velocity": 0.23622047244094488,
                },
                {
                    "duration": 0.2115882031249896,
                    "durationTicks": 65,
                    "midi": 61,
                    "name": "C#4",
                    "ticks": 22720,
                    "time": 73.958215,
                    "velocity": 0.29133858267716534,
                },
                {
                    "duration": 0.4231764062499934,
                    "durationTicks": 130,
                    "midi": 62,
                    "name": "D4",
                    "ticks": 22784,
                    "time": 74.16654799999999,
                    "velocity": 0.33858267716535434,
                },
                {
                    "duration": 0.2115882031249896,
                    "durationTicks": 65,
                    "midi": 64,
                    "name": "E4",
                    "ticks": 22912,
                    "time": 74.583214,
                    "velocity": 0.2992125984251969,
                },
                {
                    "duration": 0.19531218749999368,
                    "durationTicks": 60,
                    "midi": 62,
                    "name": "D4",
                    "ticks": 22976,
                    "time": 74.791547,
                    "velocity": 0.2677165354330709,
                },
                {
                    "duration": 0.4166660000000064,
                    "durationTicks": 128,
                    "midi": 62,
                    "name": "D4",
                    "ticks": 23040,
                    "time": 74.99987999999999,
                    "velocity": 0.23622047244094488,
                },
                {
                    "duration": 0.4166659999999922,
                    "durationTicks": 128,
                    "midi": 61,
                    "name": "C#4",
                    "ticks": 23168,
                    "time": 75.416546,
                    "velocity": 0.2677165354330709,
                },
                {
                    "duration": 0.8333319999999986,
                    "durationTicks": 256,
                    "midi": 60,
                    "name": "C4",
                    "ticks": 23296,
                    "time": 75.83321199999999,
                    "velocity": 0.2677165354330709,
                },
                {
                    "duration": 1.6992160312500033,
                    "durationTicks": 522,
                    "midi": 60,
                    "name": "C4",
                    "ticks": 23552,
                    "time": 76.66654399999999,
                    "velocity": 0.3228346456692913,
                },
                {
                    "duration": 0.8496080156250088,
                    "durationTicks": 261,
                    "midi": 59,
                    "name": "B3",
                    "ticks": 24064,
                    "time": 78.33320799999998,
                    "velocity": 0.3228346456692913,
                },
                {
                    "duration": 0.7454415156249894,
                    "durationTicks": 229,
                    "midi": 60,
                    "name": "C4",
                    "ticks": 24320,
                    "time": 79.16654,
                    "velocity": 0.28346456692913385,
                },
                {
                    "duration": 0.2083329999999961,
                    "durationTicks": 64,
                    "midi": 59,
                    "name": "B3",
                    "ticks": 24576,
                    "time": 79.999872,
                    "velocity": 0.2992125984251969,
                },
                {
                    "duration": 0.2083329999999961,
                    "durationTicks": 64,
                    "midi": 60,
                    "name": "C4",
                    "ticks": 24640,
                    "time": 80.20820499999999,
                    "velocity": 0.2992125984251969,
                },
                {
                    "duration": 0.8333319999999986,
                    "durationTicks": 256,
                    "midi": 62,
                    "name": "D4",
                    "ticks": 24704,
                    "time": 80.41653799999999,
                    "velocity": 0.2992125984251969,
                },
                {
                    "duration": 0.21158820312500382,
                    "durationTicks": 65,
                    "midi": 60,
                    "name": "C4",
                    "ticks": 24960,
                    "time": 81.24986999999999,
                    "velocity": 0.2755905511811024,
                },
                {
                    "duration": 0.19531218749999368,
                    "durationTicks": 60,
                    "midi": 59,
                    "name": "B3",
                    "ticks": 25024,
                    "time": 81.458203,
                    "velocity": 0.2440944881889764,
                },
                {
                    "duration": 0.8333319999999986,
                    "durationTicks": 256,
                    "midi": 57,
                    "name": "A3",
                    "ticks": 25088,
                    "time": 81.666536,
                    "velocity": 0.25196850393700787,
                },
                {
                    "duration": 0.4231764062499934,
                    "durationTicks": 130,
                    "midi": 57,
                    "name": "A3",
                    "ticks": 25728,
                    "time": 83.749866,
                    "velocity": 0.33858267716535434,
                },
                {
                    "duration": 0.42317640625000763,
                    "durationTicks": 130,
                    "midi": 60,
                    "name": "C4",
                    "ticks": 25856,
                    "time": 84.16653199999999,
                    "velocity": 0.33070866141732286,
                },
                {
                    "duration": 0.3938795781249951,
                    "durationTicks": 121,
                    "midi": 52,
                    "name": "E3",
                    "ticks": 25984,
                    "time": 84.583198,
                    "velocity": 0.33858267716535434,
                },
                {
                    "duration": 0.4231764062499934,
                    "durationTicks": 130,
                    "midi": 56,
                    "name": "G#3",
                    "ticks": 26240,
                    "time": 85.41653,
                    "velocity": 0.3937007874015748,
                },
                {
                    "duration": 0.42317640625000763,
                    "durationTicks": 130,
                    "midi": 59,
                    "name": "B3",
                    "ticks": 26368,
                    "time": 85.83319599999999,
                    "velocity": 0.4094488188976378,
                },
                {
                    "duration": 0.3938795781249951,
                    "durationTicks": 121,
                    "midi": 52,
                    "name": "E3",
                    "ticks": 26496,
                    "time": 86.249862,
                    "velocity": 0.36220472440944884,
                },
                {
                    "duration": 0.4231764062499934,
                    "durationTicks": 130,
                    "midi": 56,
                    "name": "G#3",
                    "ticks": 26752,
                    "time": 87.08319399999999,
                    "velocity": 0.3700787401574803,
                },
                {
                    "duration": 0.42317640625000763,
                    "durationTicks": 130,
                    "midi": 59,
                    "name": "B3",
                    "ticks": 26880,
                    "time": 87.49985999999998,
                    "velocity": 0.4015748031496063,
                },
                {
                    "duration": 0.3938795781249951,
                    "durationTicks": 121,
                    "midi": 52,
                    "name": "E3",
                    "ticks": 27008,
                    "time": 87.91652599999999,
                    "velocity": 0.3464566929133858,
                },
                {
                    "duration": 0.42317640625000763,
                    "durationTicks": 130,
                    "midi": 57,
                    "name": "A3",
                    "ticks": 27264,
                    "time": 88.74985799999999,
                    "velocity": 0.3779527559055118,
                },
                {
                    "duration": 0.4231764062499934,
                    "durationTicks": 130,
                    "midi": 60,
                    "name": "C4",
                    "ticks": 27392,
                    "time": 89.166524,
                    "velocity": 0.4251968503937008,
                },
                {
                    "duration": 0.3938795781250093,
                    "durationTicks": 121,
                    "midi": 52,
                    "name": "E3",
                    "ticks": 27520,
                    "time": 89.58318999999999,
                    "velocity": 0.4015748031496063,
                },
                {
                    "duration": 0.42317640625000763,
                    "durationTicks": 130,
                    "midi": 57,
                    "name": "A3",
                    "ticks": 27776,
                    "time": 90.41652199999999,
                    "velocity": 0.4015748031496063,
                },
                {
                    "duration": 0.4231764062499934,
                    "durationTicks": 130,
                    "midi": 60,
                    "name": "C4",
                    "ticks": 27904,
                    "time": 90.83318799999999,
                    "velocity": 0.4566929133858268,
                },
                {
                    "duration": 0.3938795781250093,
                    "durationTicks": 121,
                    "midi": 48,
                    "name": "C3",
                    "ticks": 28032,
                    "time": 91.24985399999998,
                    "velocity": 0.3779527559055118,
                },
                {
                    "duration": 0.42317640625000763,
                    "durationTicks": 130,
                    "midi": 55,
                    "name": "G3",
                    "ticks": 28288,
                    "time": 92.08318599999998,
                    "velocity": 0.41732283464566927,
                },
                {
                    "duration": 0.4231764062499934,
                    "durationTicks": 130,
                    "midi": 60,
                    "name": "C4",
                    "ticks": 28416,
                    "time": 92.49985199999999,
                    "velocity": 0.4881889763779528,
                },
                {
                    "duration": 0.3938795781249951,
                    "durationTicks": 121,
                    "midi": 48,
                    "name": "C3",
                    "ticks": 28544,
                    "time": 92.916518,
                    "velocity": 0.4330708661417323,
                },
                {
                    "duration": 0.4231764062499934,
                    "durationTicks": 130,
                    "midi": 59,
                    "name": "B3",
                    "ticks": 28800,
                    "time": 93.74985,
                    "velocity": 0.41732283464566927,
                },
                {
                    "duration": 0.42317640625000763,
                    "durationTicks": 130,
                    "midi": 62,
                    "name": "D4",
                    "ticks": 28928,
                    "time": 94.16651599999999,
                    "velocity": 0.5433070866141733,
                },
                {
                    "duration": 0.3938795781249951,
                    "durationTicks": 121,
                    "midi": 55,
                    "name": "G3",
                    "ticks": 29056,
                    "time": 94.583182,
                    "velocity": 0.49606299212598426,
                },
                {
                    "duration": 0.4231764062499934,
                    "durationTicks": 130,
                    "midi": 55,
                    "name": "G3",
                    "ticks": 29312,
                    "time": 95.41651399999999,
                    "velocity": 0.48031496062992124,
                },
                {
                    "duration": 0.42317640625000763,
                    "durationTicks": 130,
                    "midi": 60,
                    "name": "C4",
                    "ticks": 29440,
                    "time": 95.83317999999998,
                    "velocity": 0.5748031496062992,
                },
                {
                    "duration": 0.3938795781249951,
                    "durationTicks": 121,
                    "midi": 48,
                    "name": "C3",
                    "ticks": 29568,
                    "time": 96.24984599999999,
                    "velocity": 0.4645669291338583,
                },
                {
                    "duration": 0.42317640625000763,
                    "durationTicks": 130,
                    "midi": 60,
                    "name": "C4",
                    "ticks": 29824,
                    "time": 97.08317799999999,
                    "velocity": 0.47244094488188976,
                },
                {
                    "duration": 0.4231764062499934,
                    "durationTicks": 130,
                    "midi": 64,
                    "name": "E4",
                    "ticks": 29952,
                    "time": 97.499844,
                    "velocity": 0.6062992125984252,
                },
                {
                    "duration": 0.3938795781249951,
                    "durationTicks": 121,
                    "midi": 52,
                    "name": "E3",
                    "ticks": 30080,
                    "time": 97.91650999999999,
                    "velocity": 0.5118110236220472,
                },
                {
                    "duration": 0.42317640625000763,
                    "durationTicks": 130,
                    "midi": 66,
                    "name": "F#4",
                    "ticks": 30336,
                    "time": 98.74984199999999,
                    "velocity": 0.5354330708661418,
                },
                {
                    "duration": 0.4231764062499934,
                    "durationTicks": 130,
                    "midi": 71,
                    "name": "B4",
                    "ticks": 30464,
                    "time": 99.166508,
                    "velocity": 0.6614173228346457,
                },
                {
                    "duration": 0.3938795781250093,
                    "durationTicks": 121,
                    "midi": 59,
                    "name": "B3",
                    "ticks": 30592,
                    "time": 99.58317399999999,
                    "velocity": 0.5196850393700787,
                },
                {
                    "duration": 0.42317640625000763,
                    "durationTicks": 130,
                    "midi": 59,
                    "name": "B3",
                    "ticks": 30848,
                    "time": 100.41650599999998,
                    "velocity": 0.5511811023622047,
                },
                {
                    "duration": 0.4231764062499934,
                    "durationTicks": 130,
                    "midi": 62,
                    "name": "D4",
                    "ticks": 30976,
                    "time": 100.83317199999999,
                    "velocity": 0.6377952755905512,
                },
                {
                    "duration": 0.3938795781249951,
                    "durationTicks": 121,
                    "midi": 50,
                    "name": "D3",
                    "ticks": 31104,
                    "time": 101.249838,
                    "velocity": 0.5590551181102362,
                },
                {
                    "duration": 0.4231764062499934,
                    "durationTicks": 130,
                    "midi": 64,
                    "name": "E4",
                    "ticks": 31360,
                    "time": 102.08317,
                    "velocity": 0.5669291338582677,
                },
                {
                    "duration": 0.42317640625000763,
                    "durationTicks": 130,
                    "midi": 69,
                    "name": "A4",
                    "ticks": 31488,
                    "time": 102.49983599999999,
                    "velocity": 0.6220472440944882,
                },
                {
                    "duration": 0.3938795781249951,
                    "durationTicks": 121,
                    "midi": 57,
                    "name": "A3",
                    "ticks": 31616,
                    "time": 102.916502,
                    "velocity": 0.5748031496062992,
                },
                {
                    "duration": 0.4231764062499934,
                    "durationTicks": 130,
                    "midi": 57,
                    "name": "A3",
                    "ticks": 31872,
                    "time": 103.74983399999999,
                    "velocity": 0.5905511811023622,
                },
                {
                    "duration": 0.42317640625000763,
                    "durationTicks": 130,
                    "midi": 64,
                    "name": "E4",
                    "ticks": 32000,
                    "time": 104.16649999999998,
                    "velocity": 0.7952755905511811,
                },
                {
                    "duration": 0.3938795781249951,
                    "durationTicks": 121,
                    "midi": 52,
                    "name": "E3",
                    "ticks": 32128,
                    "time": 104.58316599999999,
                    "velocity": 0.6299212598425197,
                },
                {
                    "duration": 0.4231764062499934,
                    "durationTicks": 130,
                    "midi": 59,
                    "name": "B3",
                    "ticks": 32384,
                    "time": 105.41649799999999,
                    "velocity": 0.5984251968503937,
                },
                {
                    "duration": 0.4231764062499934,
                    "durationTicks": 130,
                    "midi": 64,
                    "name": "E4",
                    "ticks": 32512,
                    "time": 105.833164,
                    "velocity": 0.6377952755905512,
                },
                {
                    "duration": 0.3938795781249951,
                    "durationTicks": 121,
                    "midi": 52,
                    "name": "E3",
                    "ticks": 32640,
                    "time": 106.24982999999999,
                    "velocity": 0.5984251968503937,
                },
                {
                    "duration": 0.42317640625000763,
                    "durationTicks": 130,
                    "midi": 59,
                    "name": "B3",
                    "ticks": 32896,
                    "time": 107.08316199999999,
                    "velocity": 0.6141732283464567,
                },
                {
                    "duration": 0.4231764062499934,
                    "durationTicks": 130,
                    "midi": 64,
                    "name": "E4",
                    "ticks": 33024,
                    "time": 107.499828,
                    "velocity": 0.8110236220472441,
                },
                {
                    "duration": 0.3938795781250093,
                    "durationTicks": 121,
                    "midi": 52,
                    "name": "E3",
                    "ticks": 33152,
                    "time": 107.91649399999999,
                    "velocity": 0.6850393700787402,
                },
                {
                    "duration": 0.42317640625000763,
                    "durationTicks": 130,
                    "midi": 60,
                    "name": "C4",
                    "ticks": 33408,
                    "time": 108.74982599999998,
                    "velocity": 0.6456692913385826,
                },
                {
                    "duration": 0.4231764062499934,
                    "durationTicks": 130,
                    "midi": 64,
                    "name": "E4",
                    "ticks": 33536,
                    "time": 109.16649199999999,
                    "velocity": 0.7244094488188977,
                },
                {
                    "duration": 0.3938795781250093,
                    "durationTicks": 121,
                    "midi": 57,
                    "name": "A3",
                    "ticks": 33664,
                    "time": 109.58315799999998,
                    "velocity": 0.7086614173228346,
                },
                {
                    "duration": 0.4231764062499934,
                    "durationTicks": 130,
                    "midi": 60,
                    "name": "C4",
                    "ticks": 33920,
                    "time": 110.41649,
                    "velocity": 0.6771653543307087,
                },
                {
                    "duration": 0.42317640625000763,
                    "durationTicks": 130,
                    "midi": 64,
                    "name": "E4",
                    "ticks": 34048,
                    "time": 110.83315599999999,
                    "velocity": 0.7244094488188977,
                },
                {
                    "duration": 0.3938795781249951,
                    "durationTicks": 121,
                    "midi": 52,
                    "name": "E3",
                    "ticks": 34176,
                    "time": 111.249822,
                    "velocity": 0.7007874015748031,
                },
                {
                    "duration": 0.4231764062499934,
                    "durationTicks": 130,
                    "midi": 66,
                    "name": "F#4",
                    "ticks": 34432,
                    "time": 112.083154,
                    "velocity": 0.7007874015748031,
                },
                {
                    "duration": 0.42317640625000763,
                    "durationTicks": 130,
                    "midi": 71,
                    "name": "B4",
                    "ticks": 34560,
                    "time": 112.49981999999999,
                    "velocity": 0.7716535433070866,
                },
                {
                    "duration": 0.3938795781249951,
                    "durationTicks": 121,
                    "midi": 59,
                    "name": "B3",
                    "ticks": 34688,
                    "time": 112.91648599999999,
                    "velocity": 0.6535433070866141,
                },
                {
                    "duration": 0.4231764062499934,
                    "durationTicks": 130,
                    "midi": 59,
                    "name": "B3",
                    "ticks": 34944,
                    "time": 113.74981799999999,
                    "velocity": 0.7322834645669292,
                },
                {
                    "duration": 0.42317640625000763,
                    "durationTicks": 130,
                    "midi": 62,
                    "name": "D4",
                    "ticks": 35072,
                    "time": 114.16648399999998,
                    "velocity": 0.8110236220472441,
                },
                {
                    "duration": 0.3938795781249951,
                    "durationTicks": 121,
                    "midi": 50,
                    "name": "D3",
                    "ticks": 35200,
                    "time": 114.58314999999999,
                    "velocity": 0.7086614173228346,
                },
                {
                    "duration": 0.42317640625000763,
                    "durationTicks": 130,
                    "midi": 64,
                    "name": "E4",
                    "ticks": 35456,
                    "time": 115.41648199999999,
                    "velocity": 0.7322834645669292,
                },
                {
                    "duration": 0.4231764062499934,
                    "durationTicks": 130,
                    "midi": 69,
                    "name": "A4",
                    "ticks": 35584,
                    "time": 115.833148,
                    "velocity": 0.8188976377952756,
                },
                {
                    "duration": 0.3938795781250093,
                    "durationTicks": 121,
                    "midi": 57,
                    "name": "A3",
                    "ticks": 35712,
                    "time": 116.24981399999999,
                    "velocity": 0.7637795275590551,
                },
                {
                    "duration": 0.42317640625000763,
                    "durationTicks": 130,
                    "midi": 57,
                    "name": "A3",
                    "ticks": 35968,
                    "time": 117.08314599999999,
                    "velocity": 0.7480314960629921,
                },
                {
                    "duration": 0.4231764062499934,
                    "durationTicks": 130,
                    "midi": 64,
                    "name": "E4",
                    "ticks": 36096,
                    "time": 117.49981199999999,
                    "velocity": 0.889763779527559,
                },
                {
                    "duration": 0.3938795781250093,
                    "durationTicks": 121,
                    "midi": 52,
                    "name": "E3",
                    "ticks": 36224,
                    "time": 117.91647799999998,
                    "velocity": 0.7401574803149606,
                },
                {
                    "duration": 0.42317640625000763,
                    "durationTicks": 130,
                    "midi": 59,
                    "name": "B3",
                    "ticks": 36480,
                    "time": 118.74980999999998,
                    "velocity": 0.7322834645669292,
                },
                {
                    "duration": 0.4231764062499934,
                    "durationTicks": 130,
                    "midi": 64,
                    "name": "E4",
                    "ticks": 36608,
                    "time": 119.16647599999999,
                    "velocity": 0.7952755905511811,
                },
                {
                    "duration": 0.3938795781249951,
                    "durationTicks": 121,
                    "midi": 52,
                    "name": "E3",
                    "ticks": 36736,
                    "time": 119.583142,
                    "velocity": 0.6929133858267716,
                },
                {
                    "duration": 0.4231764062499934,
                    "durationTicks": 130,
                    "midi": 59,
                    "name": "B3",
                    "ticks": 36992,
                    "time": 120.416474,
                    "velocity": 0.7716535433070866,
                },
                {
                    "duration": 0.42317640625000763,
                    "durationTicks": 130,
                    "midi": 64,
                    "name": "E4",
                    "ticks": 37120,
                    "time": 120.83313999999999,
                    "velocity": 0.8346456692913385,
                },
                {
                    "duration": 0.3938795781249951,
                    "durationTicks": 121,
                    "midi": 52,
                    "name": "E3",
                    "ticks": 37248,
                    "time": 121.24980599999999,
                    "velocity": 0.7559055118110236,
                },
                {
                    "duration": 0.4231764062499934,
                    "durationTicks": 130,
                    "midi": 60,
                    "name": "C4",
                    "ticks": 37504,
                    "time": 122.08313799999999,
                    "velocity": 0.7322834645669292,
                },
                {
                    "duration": 0.42317640625000763,
                    "durationTicks": 130,
                    "midi": 64,
                    "name": "E4",
                    "ticks": 37632,
                    "time": 122.49980399999998,
                    "velocity": 0.8031496062992126,
                },
                {
                    "duration": 0.3938795781249951,
                    "durationTicks": 121,
                    "midi": 57,
                    "name": "A3",
                    "ticks": 37760,
                    "time": 122.91646999999999,
                    "velocity": 0.7637795275590551,
                },
                {
                    "duration": 0.16601535937500955,
                    "durationTicks": 51,
                    "midi": 57,
                    "name": "A3",
                    "ticks": 37973,
                    "time": 123.60982826562498,
                    "velocity": 0.8031496062992126,
                },
                {
                    "duration": 0.16601535937500955,
                    "durationTicks": 51,
                    "midi": 60,
                    "name": "C4",
                    "ticks": 38058,
                    "time": 123.88652053124999,
                    "velocity": 0.952755905511811,
                },
                {
                    "duration": 0.8333319999999986,
                    "durationTicks": 256,
                    "midi": 52,
                    "name": "E3",
                    "ticks": 38144,
                    "time": 124.166468,
                    "velocity": 0.7952755905511811,
                },
                {
                    "duration": 0.16601535937499534,
                    "durationTicks": 51,
                    "midi": 56,
                    "name": "G#3",
                    "ticks": 38485,
                    "time": 125.276492265625,
                    "velocity": 0.8188976377952756,
                },
                {
                    "duration": 0.16601535937500955,
                    "durationTicks": 51,
                    "midi": 59,
                    "name": "B3",
                    "ticks": 38570,
                    "time": 125.55318453124998,
                    "velocity": 0.8818897637795275,
                },
                {
                    "duration": 0.8333319999999986,
                    "durationTicks": 256,
                    "midi": 52,
                    "name": "E3",
                    "ticks": 38656,
                    "time": 125.83313199999999,
                    "velocity": 0.8110236220472441,
                },
                {
                    "duration": 0.16601535937499534,
                    "durationTicks": 51,
                    "midi": 56,
                    "name": "G#3",
                    "ticks": 38997,
                    "time": 126.94315626562499,
                    "velocity": 0.7952755905511811,
                },
                {
                    "duration": 0.16601535937499534,
                    "durationTicks": 51,
                    "midi": 59,
                    "name": "B3",
                    "ticks": 39082,
                    "time": 127.21984853125,
                    "velocity": 0.9133858267716536,
                },
                {
                    "duration": 0.8333319999999986,
                    "durationTicks": 256,
                    "midi": 52,
                    "name": "E3",
                    "ticks": 39168,
                    "time": 127.49979599999999,
                    "velocity": 0.8110236220472441,
                },
                {
                    "duration": 0.16601535937499534,
                    "durationTicks": 51,
                    "midi": 57,
                    "name": "A3",
                    "ticks": 39509,
                    "time": 128.609820265625,
                    "velocity": 0.7874015748031497,
                },
                {
                    "duration": 0.16601535937499534,
                    "durationTicks": 51,
                    "midi": 60,
                    "name": "C4",
                    "ticks": 39594,
                    "time": 128.88651253125,
                    "velocity": 0.9291338582677166,
                },
                {
                    "duration": 0.8333319999999844,
                    "durationTicks": 256,
                    "midi": 52,
                    "name": "E3",
                    "ticks": 39680,
                    "time": 129.16646,
                    "velocity": 0.7952755905511811,
                },
                {
                    "duration": 0.16601535937499534,
                    "durationTicks": 51,
                    "midi": 57,
                    "name": "A3",
                    "ticks": 40021,
                    "time": 130.276484265625,
                    "velocity": 0.7874015748031497,
                },
                {
                    "duration": 0.16601535937499534,
                    "durationTicks": 51,
                    "midi": 60,
                    "name": "C4",
                    "ticks": 40106,
                    "time": 130.55317653125,
                    "velocity": 0.937007874015748,
                },
                {
                    "duration": 0.8333319999999844,
                    "durationTicks": 256,
                    "midi": 48,
                    "name": "C3",
                    "ticks": 40192,
                    "time": 130.833124,
                    "velocity": 0.7637795275590551,
                },
                {
                    "duration": 0.16601535937499534,
                    "durationTicks": 51,
                    "midi": 55,
                    "name": "G3",
                    "ticks": 40533,
                    "time": 131.94314826562498,
                    "velocity": 0.7952755905511811,
                },
                {
                    "duration": 0.16601535937499534,
                    "durationTicks": 51,
                    "midi": 60,
                    "name": "C4",
                    "ticks": 40618,
                    "time": 132.21984053125,
                    "velocity": 0.952755905511811,
                },
                {
                    "duration": 0.8333319999999844,
                    "durationTicks": 256,
                    "midi": 48,
                    "name": "C3",
                    "ticks": 40704,
                    "time": 132.499788,
                    "velocity": 0.8188976377952756,
                },
                {
                    "duration": 0.8333319999999844,
                    "durationTicks": 256,
                    "midi": 55,
                    "name": "G3",
                    "ticks": 40704,
                    "time": 132.499788,
                    "velocity": 0.8188976377952756,
                },
                {
                    "duration": 0.16601535937499534,
                    "durationTicks": 51,
                    "midi": 59,
                    "name": "B3",
                    "ticks": 41045,
                    "time": 133.60981226562498,
                    "velocity": 0.8110236220472441,
                },
                {
                    "duration": 0.16601535937499534,
                    "durationTicks": 51,
                    "midi": 62,
                    "name": "D4",
                    "ticks": 41130,
                    "time": 133.88650453124998,
                    "velocity": 0.9291338582677166,
                },
                {
                    "duration": 0.8333319999999844,
                    "durationTicks": 256,
                    "midi": 55,
                    "name": "G3",
                    "ticks": 41216,
                    "time": 134.166452,
                    "velocity": 0.8267716535433071,
                },
                {
                    "duration": 0.16601535937502376,
                    "durationTicks": 51,
                    "midi": 55,
                    "name": "G3",
                    "ticks": 41557,
                    "time": 135.27647626562498,
                    "velocity": 0.7795275590551181,
                },
                {
                    "duration": 0.16601535937499534,
                    "durationTicks": 51,
                    "midi": 60,
                    "name": "C4",
                    "ticks": 41642,
                    "time": 135.55316853124998,
                    "velocity": 0.9606299212598425,
                },
                {
                    "duration": 0.8333320000000128,
                    "durationTicks": 256,
                    "midi": 48,
                    "name": "C3",
                    "ticks": 41728,
                    "time": 135.833116,
                    "velocity": 0.7952755905511811,
                },
                {
                    "duration": 0.16601535937502376,
                    "durationTicks": 51,
                    "midi": 55,
                    "name": "G3",
                    "ticks": 42069,
                    "time": 136.94314026562498,
                    "velocity": 0.8031496062992126,
                },
                {
                    "duration": 0.16601535937502376,
                    "durationTicks": 51,
                    "midi": 60,
                    "name": "C4",
                    "ticks": 42154,
                    "time": 137.21983253124998,
                    "velocity": 0.9921259842519685,
                },
                {
                    "duration": 0.8333320000000128,
                    "durationTicks": 256,
                    "midi": 48,
                    "name": "C3",
                    "ticks": 42240,
                    "time": 137.49978,
                    "velocity": 0.7795275590551181,
                },
                {
                    "duration": 0.16601535937499534,
                    "durationTicks": 51,
                    "midi": 59,
                    "name": "B3",
                    "ticks": 42581,
                    "time": 138.609804265625,
                    "velocity": 0.7952755905511811,
                },
                {
                    "duration": 0.16601535937502376,
                    "durationTicks": 51,
                    "midi": 71,
                    "name": "B4",
                    "ticks": 42666,
                    "time": 138.88649653124997,
                    "velocity": 1,
                },
                {
                    "duration": 0.8333320000000128,
                    "durationTicks": 256,
                    "midi": 59,
                    "name": "B3",
                    "ticks": 42752,
                    "time": 139.16644399999998,
                    "velocity": 0.7559055118110236,
                },
                {
                    "duration": 0.16601535937499534,
                    "durationTicks": 51,
                    "midi": 59,
                    "name": "B3",
                    "ticks": 43093,
                    "time": 140.276468265625,
                    "velocity": 0.7716535433070866,
                },
                {
                    "duration": 0.16601535937499534,
                    "durationTicks": 51,
                    "midi": 62,
                    "name": "D4",
                    "ticks": 43178,
                    "time": 140.55316053125,
                    "velocity": 0.9291338582677166,
                },
                {
                    "duration": 0.8333320000000128,
                    "durationTicks": 256,
                    "midi": 50,
                    "name": "D3",
                    "ticks": 43264,
                    "time": 140.83310799999998,
                    "velocity": 0.7716535433070866,
                },
                {
                    "duration": 0.16601535937499534,
                    "durationTicks": 51,
                    "midi": 57,
                    "name": "A3",
                    "ticks": 43605,
                    "time": 141.943132265625,
                    "velocity": 0.8188976377952756,
                },
                {
                    "duration": 0.16601535937499534,
                    "durationTicks": 51,
                    "midi": 69,
                    "name": "A4",
                    "ticks": 43690,
                    "time": 142.21982453125,
                    "velocity": 1,
                },
                {
                    "duration": 0.8333320000000128,
                    "durationTicks": 256,
                    "midi": 57,
                    "name": "A3",
                    "ticks": 43776,
                    "time": 142.49977199999998,
                    "velocity": 0.7637795275590551,
                },
                {
                    "duration": 0.16601535937499534,
                    "durationTicks": 51,
                    "midi": 57,
                    "name": "A3",
                    "ticks": 44117,
                    "time": 143.609796265625,
                    "velocity": 0.8031496062992126,
                },
                {
                    "duration": 0.16601535937499534,
                    "durationTicks": 51,
                    "midi": 60,
                    "name": "C4",
                    "ticks": 44202,
                    "time": 143.88648853125,
                    "velocity": 0.9606299212598425,
                },
                {
                    "duration": 0.8333320000000128,
                    "durationTicks": 256,
                    "midi": 52,
                    "name": "E3",
                    "ticks": 44288,
                    "time": 144.16643599999998,
                    "velocity": 0.8031496062992126,
                },
                {
                    "duration": 0.16601535937499534,
                    "durationTicks": 51,
                    "midi": 56,
                    "name": "G#3",
                    "ticks": 44629,
                    "time": 145.276460265625,
                    "velocity": 0.8031496062992126,
                },
                {
                    "duration": 0.16601535937499534,
                    "durationTicks": 51,
                    "midi": 59,
                    "name": "B3",
                    "ticks": 44714,
                    "time": 145.55315253125,
                    "velocity": 0.8976377952755905,
                },
                {
                    "duration": 0.8333319999999844,
                    "durationTicks": 256,
                    "midi": 52,
                    "name": "E3",
                    "ticks": 44800,
                    "time": 145.8331,
                    "velocity": 0.8267716535433071,
                },
                {
                    "duration": 0.8333319999999844,
                    "durationTicks": 256,
                    "midi": 57,
                    "name": "A3",
                    "ticks": 44800,
                    "time": 145.8331,
                    "velocity": 0.8267716535433071,
                },
                {
                    "duration": 0.16601535937499534,
                    "durationTicks": 51,
                    "midi": 56,
                    "name": "G#3",
                    "ticks": 45141,
                    "time": 146.943124265625,
                    "velocity": 0.7559055118110236,
                },
                {
                    "duration": 0.16601535937499534,
                    "durationTicks": 51,
                    "midi": 59,
                    "name": "B3",
                    "ticks": 45226,
                    "time": 147.21981653125,
                    "velocity": 0.937007874015748,
                },
                {
                    "duration": 0.8333319999999844,
                    "durationTicks": 256,
                    "midi": 52,
                    "name": "E3",
                    "ticks": 45312,
                    "time": 147.499764,
                    "velocity": 0.7795275590551181,
                },
                {
                    "duration": 0.16601535937499534,
                    "durationTicks": 51,
                    "midi": 57,
                    "name": "A3",
                    "ticks": 45653,
                    "time": 148.60978826562499,
                    "velocity": 0.7716535433070866,
                },
                {
                    "duration": 0.16601535937499534,
                    "durationTicks": 51,
                    "midi": 69,
                    "name": "A4",
                    "ticks": 45738,
                    "time": 148.88648053125,
                    "velocity": 1,
                },
                {
                    "duration": 0.16601535937499534,
                    "durationTicks": 51,
                    "midi": 57,
                    "name": "A3",
                    "ticks": 45824,
                    "time": 149.166428,
                    "velocity": 0.7952755905511811,
                },
                {
                    "duration": 0.16601535937499534,
                    "durationTicks": 51,
                    "midi": 57,
                    "name": "A3",
                    "ticks": 45909,
                    "time": 149.443120265625,
                    "velocity": 0.8582677165354331,
                },
                {
                    "duration": 0.16601535937499534,
                    "durationTicks": 51,
                    "midi": 59,
                    "name": "B3",
                    "ticks": 45994,
                    "time": 149.71981253125,
                    "velocity": 0.9212598425196851,
                },
                {
                    "duration": 0.16601535937499534,
                    "durationTicks": 51,
                    "midi": 60,
                    "name": "C4",
                    "ticks": 46080,
                    "time": 149.99975999999998,
                    "velocity": 0.8267716535433071,
                },
                {
                    "duration": 0.16601535937499534,
                    "durationTicks": 51,
                    "midi": 55,
                    "name": "G3",
                    "ticks": 46165,
                    "time": 150.27645226562498,
                    "velocity": 0.7559055118110236,
                },
                {
                    "duration": 0.16601535937499534,
                    "durationTicks": 51,
                    "midi": 60,
                    "name": "C4",
                    "ticks": 46250,
                    "time": 150.55314453124998,
                    "velocity": 0.8661417322834646,
                },
                {
                    "duration": 0.8333319999999844,
                    "durationTicks": 256,
                    "midi": 48,
                    "name": "C3",
                    "ticks": 46336,
                    "time": 150.833092,
                    "velocity": 0.6692913385826772,
                },
                {
                    "duration": 0.16601535937499534,
                    "durationTicks": 51,
                    "midi": 59,
                    "name": "B3",
                    "ticks": 46677,
                    "time": 151.94311626562498,
                    "velocity": 0.6614173228346457,
                },
                {
                    "duration": 0.16601535937499534,
                    "durationTicks": 51,
                    "midi": 71,
                    "name": "B4",
                    "ticks": 46762,
                    "time": 152.21980853124998,
                    "velocity": 0.937007874015748,
                },
                {
                    "duration": 0.8333319999999844,
                    "durationTicks": 256,
                    "midi": 59,
                    "name": "B3",
                    "ticks": 46848,
                    "time": 152.499756,
                    "velocity": 0.6377952755905512,
                },
                {
                    "duration": 0.16601535937502376,
                    "durationTicks": 51,
                    "midi": 59,
                    "name": "B3",
                    "ticks": 47189,
                    "time": 153.60978026562498,
                    "velocity": 0.5669291338582677,
                },
                {
                    "duration": 0.16601535937499534,
                    "durationTicks": 51,
                    "midi": 62,
                    "name": "D4",
                    "ticks": 47274,
                    "time": 153.88647253124998,
                    "velocity": 0.6929133858267716,
                },
                {
                    "duration": 0.8333320000000128,
                    "durationTicks": 256,
                    "midi": 50,
                    "name": "D3",
                    "ticks": 47360,
                    "time": 154.16642,
                    "velocity": 0.5511811023622047,
                },
                {
                    "duration": 0.16601535937502376,
                    "durationTicks": 51,
                    "midi": 57,
                    "name": "A3",
                    "ticks": 47701,
                    "time": 155.27644426562497,
                    "velocity": 0.5118110236220472,
                },
                {
                    "duration": 0.16601535937502376,
                    "durationTicks": 51,
                    "midi": 69,
                    "name": "A4",
                    "ticks": 47786,
                    "time": 155.55313653124998,
                    "velocity": 0.6614173228346457,
                },
                {
                    "duration": 0.8333320000000128,
                    "durationTicks": 256,
                    "midi": 57,
                    "name": "A3",
                    "ticks": 47872,
                    "time": 155.83308399999999,
                    "velocity": 0.4881889763779528,
                },
                {
                    "duration": 0.16601535937499534,
                    "durationTicks": 51,
                    "midi": 57,
                    "name": "A3",
                    "ticks": 48213,
                    "time": 156.943108265625,
                    "velocity": 0.4330708661417323,
                },
                {
                    "duration": 0.16601535937499534,
                    "durationTicks": 51,
                    "midi": 60,
                    "name": "C4",
                    "ticks": 48298,
                    "time": 157.21980053125,
                    "velocity": 0.44881889763779526,
                },
                {
                    "duration": 0.8333320000000128,
                    "durationTicks": 256,
                    "midi": 52,
                    "name": "E3",
                    "ticks": 48384,
                    "time": 157.49974799999998,
                    "velocity": 0.41732283464566927,
                },
                {
                    "duration": 0.16601535937499534,
                    "durationTicks": 51,
                    "midi": 56,
                    "name": "G#3",
                    "ticks": 48725,
                    "time": 158.609772265625,
                    "velocity": 0.3937007874015748,
                },
                {
                    "duration": 0.16601535937499534,
                    "durationTicks": 51,
                    "midi": 59,
                    "name": "B3",
                    "ticks": 48810,
                    "time": 158.88646453125,
                    "velocity": 0.4409448818897638,
                },
                {
                    "duration": 0.8333320000000128,
                    "durationTicks": 256,
                    "midi": 52,
                    "name": "E3",
                    "ticks": 48896,
                    "time": 159.16641199999998,
                    "velocity": 0.4094488188976378,
                },
                {
                    "duration": 0.8333320000000128,
                    "durationTicks": 256,
                    "midi": 57,
                    "name": "A3",
                    "ticks": 48896,
                    "time": 159.16641199999998,
                    "velocity": 0.4094488188976378,
                },
                {
                    "duration": 0.16601535937499534,
                    "durationTicks": 51,
                    "midi": 56,
                    "name": "G#3",
                    "ticks": 49237,
                    "time": 160.276436265625,
                    "velocity": 0.3543307086614173,
                },
                {
                    "duration": 0.16601535937499534,
                    "durationTicks": 51,
                    "midi": 64,
                    "name": "E4",
                    "ticks": 49322,
                    "time": 160.55312853125,
                    "velocity": 0.5275590551181102,
                },
                {
                    "duration": 0.16601535937502376,
                    "durationTicks": 51,
                    "midi": 52,
                    "name": "E3",
                    "ticks": 49408,
                    "time": 160.83307599999998,
                    "velocity": 0.3779527559055118,
                },
                {
                    "duration": 0.16601535937499534,
                    "durationTicks": 51,
                    "midi": 52,
                    "name": "E3",
                    "ticks": 49493,
                    "time": 161.10976826562498,
                    "velocity": 0.3779527559055118,
                },
                {
                    "duration": 0.16601535937499534,
                    "durationTicks": 51,
                    "midi": 64,
                    "name": "E4",
                    "ticks": 49578,
                    "time": 161.38646053124998,
                    "velocity": 0.5196850393700787,
                },
                {
                    "duration": 0.8333319999999844,
                    "durationTicks": 256,
                    "midi": 57,
                    "name": "A3",
                    "ticks": 49664,
                    "time": 161.666408,
                    "velocity": 0.33070866141732286,
                },
                {
                    "duration": 3.3333279999999945,
                    "durationTicks": 1024,
                    "midi": 49,
                    "name": "C#3",
                    "ticks": 51712,
                    "time": 168.33306399999998,
                    "velocity": 0.33070866141732286,
                },
                {
                    "duration": 3.3333279999999945,
                    "durationTicks": 1024,
                    "midi": 52,
                    "name": "E3",
                    "ticks": 51712,
                    "time": 168.33306399999998,
                    "velocity": 0.33070866141732286,
                },
                {
                    "duration": 2.49999600000001,
                    "durationTicks": 768,
                    "midi": 50,
                    "name": "D3",
                    "ticks": 52736,
                    "time": 171.66639199999997,
                    "velocity": 0.3858267716535433,
                },
                {
                    "duration": 2.49999600000001,
                    "durationTicks": 768,
                    "midi": 54,
                    "name": "F#3",
                    "ticks": 52736,
                    "time": 171.66639199999997,
                    "velocity": 0.3858267716535433,
                },
                {
                    "duration": 0.42317640625000763,
                    "durationTicks": 130,
                    "midi": 49,
                    "name": "C#3",
                    "ticks": 53504,
                    "time": 174.16638799999998,
                    "velocity": 0.4409448818897638,
                },
                {
                    "duration": 0.42317640625000763,
                    "durationTicks": 130,
                    "midi": 52,
                    "name": "E3",
                    "ticks": 53504,
                    "time": 174.16638799999998,
                    "velocity": 0.4409448818897638,
                },
                {
                    "duration": 0.42317640625000763,
                    "durationTicks": 130,
                    "midi": 61,
                    "name": "C#4",
                    "ticks": 53632,
                    "time": 174.58305399999998,
                    "velocity": 0.5748031496062992,
                },
                {
                    "duration": 0.8496080156249946,
                    "durationTicks": 261,
                    "midi": 59,
                    "name": "B3",
                    "ticks": 53760,
                    "time": 174.99972,
                    "velocity": 0.5196850393700787,
                },
                {
                    "duration": 0.8496080156249946,
                    "durationTicks": 261,
                    "midi": 62,
                    "name": "D4",
                    "ticks": 53760,
                    "time": 174.99972,
                    "velocity": 0.5196850393700787,
                },
                {
                    "duration": 0.42317640625000763,
                    "durationTicks": 130,
                    "midi": 57,
                    "name": "A3",
                    "ticks": 54016,
                    "time": 175.83305199999998,
                    "velocity": 0.5039370078740157,
                },
                {
                    "duration": 0.42317640625000763,
                    "durationTicks": 130,
                    "midi": 61,
                    "name": "C#4",
                    "ticks": 54016,
                    "time": 175.83305199999998,
                    "velocity": 0.5039370078740157,
                },
                {
                    "duration": 0.42317640625000763,
                    "durationTicks": 130,
                    "midi": 49,
                    "name": "C#3",
                    "ticks": 54144,
                    "time": 176.24971799999997,
                    "velocity": 0.4645669291338583,
                },
                {
                    "duration": 0.42317640625000763,
                    "durationTicks": 130,
                    "midi": 52,
                    "name": "E3",
                    "ticks": 54144,
                    "time": 176.24971799999997,
                    "velocity": 0.4645669291338583,
                },
                {
                    "duration": 0.8496080156249946,
                    "durationTicks": 261,
                    "midi": 50,
                    "name": "D3",
                    "ticks": 54272,
                    "time": 176.666384,
                    "velocity": 0.5669291338582677,
                },
                {
                    "duration": 0.8496080156249946,
                    "durationTicks": 261,
                    "midi": 54,
                    "name": "F#3",
                    "ticks": 54272,
                    "time": 176.666384,
                    "velocity": 0.5669291338582677,
                },
                {
                    "duration": 0.8496080156249946,
                    "durationTicks": 261,
                    "midi": 52,
                    "name": "E3",
                    "ticks": 54528,
                    "time": 177.49971599999998,
                    "velocity": 0.5826771653543307,
                },
                {
                    "duration": 0.8496080156249946,
                    "durationTicks": 261,
                    "midi": 54,
                    "name": "F#3",
                    "ticks": 54784,
                    "time": 178.333048,
                    "velocity": 0.6771653543307087,
                },
                {
                    "duration": 0.7910143593749979,
                    "durationTicks": 243,
                    "midi": 56,
                    "name": "G#3",
                    "ticks": 55040,
                    "time": 179.16637999999998,
                    "velocity": 0.6299212598425197,
                },
                {
                    "duration": 0.8496080156249946,
                    "durationTicks": 261,
                    "midi": 56,
                    "name": "G#3",
                    "ticks": 55296,
                    "time": 179.999712,
                    "velocity": 0.5196850393700787,
                },
                {
                    "duration": 0.3938795781250235,
                    "durationTicks": 121,
                    "midi": 52,
                    "name": "E3",
                    "ticks": 55552,
                    "time": 180.83304399999997,
                    "velocity": 0.4330708661417323,
                },
                {
                    "duration": 0.4166659999999922,
                    "durationTicks": 128,
                    "midi": 52,
                    "name": "E3",
                    "ticks": 55680,
                    "time": 181.24971,
                    "velocity": 0.3858267716535433,
                },
                {
                    "duration": 0.8333320000000128,
                    "durationTicks": 256,
                    "midi": 52,
                    "name": "E3",
                    "ticks": 55808,
                    "time": 181.66637599999999,
                    "velocity": 0.3779527559055118,
                },
                {
                    "duration": 3.3333279999999945,
                    "durationTicks": 1024,
                    "midi": 49,
                    "name": "C#3",
                    "ticks": 56064,
                    "time": 182.499708,
                    "velocity": 0.3543307086614173,
                },
                {
                    "duration": 1.6666639999999973,
                    "durationTicks": 512,
                    "midi": 50,
                    "name": "D3",
                    "ticks": 57088,
                    "time": 185.833036,
                    "velocity": 0.44881889763779526,
                },
                {
                    "duration": 0.8333319999999844,
                    "durationTicks": 256,
                    "midi": 52,
                    "name": "E3",
                    "ticks": 57600,
                    "time": 187.4997,
                    "velocity": 0.47244094488188976,
                },
                {
                    "duration": 0.42317640625000763,
                    "durationTicks": 130,
                    "midi": 54,
                    "name": "F#3",
                    "ticks": 57856,
                    "time": 188.33303199999997,
                    "velocity": 0.5354330708661418,
                },
                {
                    "duration": 0.4231764062499792,
                    "durationTicks": 130,
                    "midi": 56,
                    "name": "G#3",
                    "ticks": 57984,
                    "time": 188.749698,
                    "velocity": 0.5669291338582677,
                },
                {
                    "duration": 0.42317640625000763,
                    "durationTicks": 130,
                    "midi": 57,
                    "name": "A3",
                    "ticks": 58112,
                    "time": 189.166364,
                    "velocity": 0.5196850393700787,
                },
                {
                    "duration": 0.3938795781249951,
                    "durationTicks": 121,
                    "midi": 52,
                    "name": "E3",
                    "ticks": 58240,
                    "time": 189.58302999999998,
                    "velocity": 0.4881889763779528,
                },
                {
                    "duration": 0.42317640625000763,
                    "durationTicks": 130,
                    "midi": 52,
                    "name": "E3",
                    "ticks": 58368,
                    "time": 189.99969599999997,
                    "velocity": 0.4645669291338583,
                },
                {
                    "duration": 0.42317640625000763,
                    "durationTicks": 130,
                    "midi": 56,
                    "name": "G#3",
                    "ticks": 58496,
                    "time": 190.416362,
                    "velocity": 0.49606299212598426,
                },
                {
                    "duration": 0.42317640625000763,
                    "durationTicks": 130,
                    "midi": 57,
                    "name": "A3",
                    "ticks": 58624,
                    "time": 190.83302799999998,
                    "velocity": 0.5275590551181102,
                },
                {
                    "duration": 0.42317640625000763,
                    "durationTicks": 130,
                    "midi": 54,
                    "name": "F#3",
                    "ticks": 58752,
                    "time": 191.24969399999998,
                    "velocity": 0.5118110236220472,
                },
                {
                    "duration": 0.7910143593749979,
                    "durationTicks": 243,
                    "midi": 52,
                    "name": "E3",
                    "ticks": 58880,
                    "time": 191.66636,
                    "velocity": 0.47244094488188976,
                },
                {
                    "duration": 0.8496080156249946,
                    "durationTicks": 261,
                    "midi": 64,
                    "name": "E4",
                    "ticks": 59136,
                    "time": 192.49969199999998,
                    "velocity": 0.3543307086614173,
                },
                {
                    "duration": 1.5820287187499957,
                    "durationTicks": 486,
                    "midi": 66,
                    "name": "F#4",
                    "ticks": 59392,
                    "time": 193.333024,
                    "velocity": 0.4330708661417323,
                },
                {
                    "duration": 1.699216031249989,
                    "durationTicks": 522,
                    "midi": 64,
                    "name": "E4",
                    "ticks": 59904,
                    "time": 194.999688,
                    "velocity": 0.2440944881889764,
                },
                {
                    "duration": 1.5820287187499957,
                    "durationTicks": 486,
                    "midi": 66,
                    "name": "F#4",
                    "ticks": 60416,
                    "time": 196.666352,
                    "velocity": 0.2677165354330709,
                },
                {
                    "duration": 1.699216031249989,
                    "durationTicks": 522,
                    "midi": 64,
                    "name": "E4",
                    "ticks": 60928,
                    "time": 198.333016,
                    "velocity": 0.2755905511811024,
                },
                {
                    "duration": 1.6113255468750083,
                    "durationTicks": 495,
                    "midi": 66,
                    "name": "F#4",
                    "ticks": 61440,
                    "time": 199.99967999999998,
                    "velocity": 0.3228346456692913,
                },
                {
                    "duration": 0.7910143593749979,
                    "durationTicks": 243,
                    "midi": 64,
                    "name": "E4",
                    "ticks": 61952,
                    "time": 201.66634399999998,
                    "velocity": 0.2677165354330709,
                },
                {
                    "duration": 7.499988000000002,
                    "durationTicks": 2304,
                    "midi": 52,
                    "name": "E3",
                    "ticks": 62208,
                    "time": 202.499676,
                    "velocity": 0.2440944881889764,
                },
                {
                    "duration": 0.8496080156249946,
                    "durationTicks": 261,
                    "midi": 52,
                    "name": "E3",
                    "ticks": 64512,
                    "time": 209.999664,
                    "velocity": 0.5669291338582677,
                },
                {
                    "duration": 0.8496080156249946,
                    "durationTicks": 261,
                    "midi": 55,
                    "name": "G3",
                    "ticks": 64768,
                    "time": 210.83299599999998,
                    "velocity": 0.6062992125984252,
                },
                {
                    "duration": 0.3938795781249951,
                    "durationTicks": 121,
                    "midi": 54,
                    "name": "F#3",
                    "ticks": 65024,
                    "time": 211.666328,
                    "velocity": 0.5196850393700787,
                },
                {
                    "duration": 0.42317640625000763,
                    "durationTicks": 130,
                    "midi": 54,
                    "name": "F#3",
                    "ticks": 65152,
                    "time": 212.08299399999999,
                    "velocity": 0.5354330708661418,
                },
                {
                    "duration": 0.42317640625000763,
                    "durationTicks": 130,
                    "midi": 50,
                    "name": "D3",
                    "ticks": 65280,
                    "time": 212.49965999999998,
                    "velocity": 0.49606299212598426,
                },
                {
                    "duration": 0.3938795781249951,
                    "durationTicks": 121,
                    "midi": 54,
                    "name": "F#3",
                    "ticks": 65408,
                    "time": 212.916326,
                    "velocity": 0.5118110236220472,
                },
                {
                    "duration": 0.42317640625000763,
                    "durationTicks": 130,
                    "midi": 49,
                    "name": "C#3",
                    "ticks": 65536,
                    "time": 213.332992,
                    "velocity": 0.31496062992125984,
                },
                {
                    "duration": 0.3938795781249951,
                    "durationTicks": 121,
                    "midi": 52,
                    "name": "E3",
                    "ticks": 65664,
                    "time": 213.74965799999998,
                    "velocity": 0.2992125984251969,
                },
                {
                    "duration": 0.42317640625000763,
                    "durationTicks": 130,
                    "midi": 52,
                    "name": "E3",
                    "ticks": 65792,
                    "time": 214.16632399999997,
                    "velocity": 0.4015748031496063,
                },
                {
                    "duration": 0.4231764062499792,
                    "durationTicks": 130,
                    "midi": 50,
                    "name": "D3",
                    "ticks": 65920,
                    "time": 214.58299,
                    "velocity": 0.3464566929133858,
                },
                {
                    "duration": 0.3938795781249951,
                    "durationTicks": 121,
                    "midi": 49,
                    "name": "C#3",
                    "ticks": 66048,
                    "time": 214.999656,
                    "velocity": 0.3937007874015748,
                },
                {
                    "duration": 0.42317640625000763,
                    "durationTicks": 130,
                    "midi": 57,
                    "name": "A3",
                    "ticks": 66176,
                    "time": 215.41632199999998,
                    "velocity": 0.4330708661417323,
                },
                {
                    "duration": 0.2799474687500094,
                    "durationTicks": 86,
                    "midi": 59,
                    "name": "B3",
                    "ticks": 66304,
                    "time": 215.83298799999997,
                    "velocity": 0.4330708661417323,
                },
                {
                    "duration": 0.2799474687500094,
                    "durationTicks": 86,
                    "midi": 60,
                    "name": "C4",
                    "ticks": 66389,
                    "time": 216.10968026562497,
                    "velocity": 0.4015748031496063,
                },
                {
                    "duration": 0.2636714531249993,
                    "durationTicks": 81,
                    "midi": 61,
                    "name": "C#4",
                    "ticks": 66474,
                    "time": 216.38637253124998,
                    "velocity": 0.4566929133858268,
                },
                {
                    "duration": 6.666655999999989,
                    "durationTicks": 2048,
                    "midi": 52,
                    "name": "E3",
                    "ticks": 66560,
                    "time": 216.66631999999998,
                    "velocity": 0.3779527559055118,
                },
                {
                    "duration": 0.849608015625023,
                    "durationTicks": 261,
                    "midi": 52,
                    "name": "E3",
                    "ticks": 68608,
                    "time": 223.33297599999997,
                    "velocity": 0.5511811023622047,
                },
                {
                    "duration": 0.8496080156249946,
                    "durationTicks": 261,
                    "midi": 55,
                    "name": "G3",
                    "ticks": 68864,
                    "time": 224.166308,
                    "velocity": 0.5984251968503937,
                },
                {
                    "duration": 0.3938795781250235,
                    "durationTicks": 121,
                    "midi": 57,
                    "name": "A3",
                    "ticks": 69120,
                    "time": 224.99963999999997,
                    "velocity": 0.5669291338582677,
                },
                {
                    "duration": 0.4231764062499792,
                    "durationTicks": 130,
                    "midi": 57,
                    "name": "A3",
                    "ticks": 69248,
                    "time": 225.416306,
                    "velocity": 0.5039370078740157,
                },
                {
                    "duration": 0.42317640625000763,
                    "durationTicks": 130,
                    "midi": 53,
                    "name": "F3",
                    "ticks": 69376,
                    "time": 225.83297199999998,
                    "velocity": 0.4566929133858268,
                },
                {
                    "duration": 0.3938795781249951,
                    "durationTicks": 121,
                    "midi": 57,
                    "name": "A3",
                    "ticks": 69504,
                    "time": 226.24963799999998,
                    "velocity": 0.47244094488188976,
                },
                {
                    "duration": 0.4231764062499792,
                    "durationTicks": 130,
                    "midi": 52,
                    "name": "E3",
                    "ticks": 69632,
                    "time": 226.666304,
                    "velocity": 0.3464566929133858,
                },
                {
                    "duration": 0.3938795781249951,
                    "durationTicks": 121,
                    "midi": 55,
                    "name": "G3",
                    "ticks": 69760,
                    "time": 227.08297,
                    "velocity": 0.33070866141732286,
                },
                {
                    "duration": 0.42317640625000763,
                    "durationTicks": 130,
                    "midi": 55,
                    "name": "G3",
                    "ticks": 69888,
                    "time": 227.49963599999998,
                    "velocity": 0.3700787401574803,
                },
                {
                    "duration": 0.3938795781250235,
                    "durationTicks": 121,
                    "midi": 53,
                    "name": "F3",
                    "ticks": 70016,
                    "time": 227.91630199999997,
                    "velocity": 0.3543307086614173,
                },
                {
                    "duration": 1.6666639999999973,
                    "durationTicks": 512,
                    "midi": 62,
                    "name": "D4",
                    "ticks": 70656,
                    "time": 229.999632,
                    "velocity": 0.44881889763779526,
                },
                {
                    "duration": 1.6666639999999973,
                    "durationTicks": 512,
                    "midi": 60,
                    "name": "C4",
                    "ticks": 71168,
                    "time": 231.666296,
                    "velocity": 0.3700787401574803,
                },
                {
                    "duration": 1.699216031249989,
                    "durationTicks": 522,
                    "midi": 62,
                    "name": "D4",
                    "ticks": 71680,
                    "time": 233.33295999999999,
                    "velocity": 0.4015748031496063,
                },
                {
                    "duration": 1.699216031249989,
                    "durationTicks": 522,
                    "midi": 60,
                    "name": "C4",
                    "ticks": 72192,
                    "time": 234.99962399999998,
                    "velocity": 0.4015748031496063,
                },
                {
                    "duration": 1.5820287187499957,
                    "durationTicks": 486,
                    "midi": 62,
                    "name": "D4",
                    "ticks": 72704,
                    "time": 236.66628799999998,
                    "velocity": 0.4330708661417323,
                },
                {
                    "duration": 0.279947468749981,
                    "durationTicks": 86,
                    "midi": 59,
                    "name": "B3",
                    "ticks": 74154,
                    "time": 241.38633253125,
                    "velocity": 0.6614173228346457,
                },
                {
                    "duration": 0.16601535937502376,
                    "durationTicks": 51,
                    "midi": 57,
                    "name": "A3",
                    "ticks": 74240,
                    "time": 241.66627999999997,
                    "velocity": 0.7007874015748031,
                },
                {
                    "duration": 0.16601535937502376,
                    "durationTicks": 51,
                    "midi": 55,
                    "name": "G3",
                    "ticks": 74325,
                    "time": 241.94297226562497,
                    "velocity": 0.7165354330708661,
                },
                {
                    "duration": 0.16601535937499534,
                    "durationTicks": 51,
                    "midi": 53,
                    "name": "F3",
                    "ticks": 74410,
                    "time": 242.21966453124998,
                    "velocity": 0.7559055118110236,
                },
                {
                    "duration": 0.16601535937499534,
                    "durationTicks": 51,
                    "midi": 52,
                    "name": "E3",
                    "ticks": 74496,
                    "time": 242.49961199999998,
                    "velocity": 0.7322834645669292,
                },
                {
                    "duration": 0.16601535937499534,
                    "durationTicks": 51,
                    "midi": 50,
                    "name": "D3",
                    "ticks": 74581,
                    "time": 242.776304265625,
                    "velocity": 0.6929133858267716,
                },
                {
                    "duration": 0.16601535937499534,
                    "durationTicks": 51,
                    "midi": 60,
                    "name": "C4",
                    "ticks": 74666,
                    "time": 243.05299653125,
                    "velocity": 0.937007874015748,
                },
                {
                    "duration": 0.16601535937499534,
                    "durationTicks": 51,
                    "midi": 59,
                    "name": "B3",
                    "ticks": 74752,
                    "time": 243.332944,
                    "velocity": 0.7795275590551181,
                },
                {
                    "duration": 0.16601535937502376,
                    "durationTicks": 51,
                    "midi": 57,
                    "name": "A3",
                    "ticks": 74837,
                    "time": 243.60963626562497,
                    "velocity": 0.7244094488188977,
                },
                {
                    "duration": 0.16601535937502376,
                    "durationTicks": 51,
                    "midi": 55,
                    "name": "G3",
                    "ticks": 74922,
                    "time": 243.88632853124997,
                    "velocity": 0.7795275590551181,
                },
                {
                    "duration": 0.16601535937499534,
                    "durationTicks": 51,
                    "midi": 53,
                    "name": "F3",
                    "ticks": 75008,
                    "time": 244.16627599999998,
                    "velocity": 0.7401574803149606,
                },
                {
                    "duration": 0.16601535937499534,
                    "durationTicks": 51,
                    "midi": 52,
                    "name": "E3",
                    "ticks": 75093,
                    "time": 244.44296826562498,
                    "velocity": 0.7480314960629921,
                },
                {
                    "duration": 0.16601535937499534,
                    "durationTicks": 51,
                    "midi": 50,
                    "name": "D3",
                    "ticks": 75178,
                    "time": 244.71966053124999,
                    "velocity": 0.7244094488188977,
                },
                {
                    "duration": 0.4166659999999922,
                    "durationTicks": 128,
                    "midi": 48,
                    "name": "C3",
                    "ticks": 75264,
                    "time": 244.999608,
                    "velocity": 0.7322834645669292,
                },
                {
                    "duration": 0.24739543750001758,
                    "durationTicks": 76,
                    "midi": 52,
                    "name": "E3",
                    "ticks": 75520,
                    "time": 245.83293999999998,
                    "velocity": 0.7795275590551181,
                },
                {
                    "duration": 0.24739543750001758,
                    "durationTicks": 76,
                    "midi": 52,
                    "name": "E3",
                    "ticks": 75648,
                    "time": 246.24960599999997,
                    "velocity": 0.8661417322834646,
                },
                {
                    "duration": 0.12369771874998037,
                    "durationTicks": 38,
                    "midi": 59,
                    "name": "B3",
                    "ticks": 76864,
                    "time": 250.207933,
                    "velocity": 0.31496062992125984,
                },
                {
                    "duration": 0.12369771875000879,
                    "durationTicks": 38,
                    "midi": 56,
                    "name": "G#3",
                    "ticks": 76928,
                    "time": 250.41626599999998,
                    "velocity": 0.3543307086614173,
                },
                {
                    "duration": 0.12369771874998037,
                    "durationTicks": 38,
                    "midi": 59,
                    "name": "B3",
                    "ticks": 76992,
                    "time": 250.624599,
                    "velocity": 0.4015748031496063,
                },
                {
                    "duration": 0.12369771875000879,
                    "durationTicks": 38,
                    "midi": 64,
                    "name": "E4",
                    "ticks": 77056,
                    "time": 250.83293199999997,
                    "velocity": 0.4094488188976378,
                },
                {
                    "duration": 0.12369771875000879,
                    "durationTicks": 38,
                    "midi": 59,
                    "name": "B3",
                    "ticks": 77120,
                    "time": 251.04126499999998,
                    "velocity": 0.3700787401574803,
                },
                {
                    "duration": 0.12369771874998037,
                    "durationTicks": 38,
                    "midi": 56,
                    "name": "G#3",
                    "ticks": 77184,
                    "time": 251.249598,
                    "velocity": 0.3464566929133858,
                },
                {
                    "duration": 0.12369771875000879,
                    "durationTicks": 38,
                    "midi": 59,
                    "name": "B3",
                    "ticks": 77248,
                    "time": 251.45793099999997,
                    "velocity": 0.3937007874015748,
                },
                {
                    "duration": 0.4166659999999922,
                    "durationTicks": 128,
                    "midi": 52,
                    "name": "E3",
                    "ticks": 77312,
                    "time": 251.66626399999998,
                    "velocity": 0.3464566929133858,
                },
                {
                    "duration": 0.19856739062498718,
                    "durationTicks": 61,
                    "midi": 60,
                    "name": "C4",
                    "ticks": 77888,
                    "time": 253.541261,
                    "velocity": 0.33858267716535434,
                },
                {
                    "duration": 0.1985673906250156,
                    "durationTicks": 61,
                    "midi": 57,
                    "name": "A3",
                    "ticks": 77952,
                    "time": 253.74959399999997,
                    "velocity": 0.3543307086614173,
                },
                {
                    "duration": 0.19856739062498718,
                    "durationTicks": 61,
                    "midi": 60,
                    "name": "C4",
                    "ticks": 78016,
                    "time": 253.95792699999998,
                    "velocity": 0.3779527559055118,
                },
                {
                    "duration": 0.19856739062498718,
                    "durationTicks": 61,
                    "midi": 64,
                    "name": "E4",
                    "ticks": 78080,
                    "time": 254.16626,
                    "velocity": 0.3937007874015748,
                },
                {
                    "duration": 0.1985673906250156,
                    "durationTicks": 61,
                    "midi": 60,
                    "name": "C4",
                    "ticks": 78144,
                    "time": 254.37459299999998,
                    "velocity": 0.3464566929133858,
                },
                {
                    "duration": 0.19856739062498718,
                    "durationTicks": 61,
                    "midi": 57,
                    "name": "A3",
                    "ticks": 78208,
                    "time": 254.582926,
                    "velocity": 0.3858267716535433,
                },
                {
                    "duration": 0.19856739062498718,
                    "durationTicks": 61,
                    "midi": 60,
                    "name": "C4",
                    "ticks": 78272,
                    "time": 254.791259,
                    "velocity": 0.4330708661417323,
                },
                {
                    "duration": 0.3971347812500028,
                    "durationTicks": 122,
                    "midi": 52,
                    "name": "E3",
                    "ticks": 78336,
                    "time": 254.99959199999998,
                    "velocity": 0.33070866141732286,
                },
                {
                    "duration": 0.19856739062498718,
                    "durationTicks": 61,
                    "midi": 64,
                    "name": "E4",
                    "ticks": 78912,
                    "time": 256.874589,
                    "velocity": 0.33858267716535434,
                },
                {
                    "duration": 0.19856739062498718,
                    "durationTicks": 61,
                    "midi": 60,
                    "name": "C4",
                    "ticks": 78976,
                    "time": 257.082922,
                    "velocity": 0.33070866141732286,
                },
                {
                    "duration": 0.19856739062504403,
                    "durationTicks": 61,
                    "midi": 64,
                    "name": "E4",
                    "ticks": 79040,
                    "time": 257.291255,
                    "velocity": 0.41732283464566927,
                },
                {
                    "duration": 0.19856739062498718,
                    "durationTicks": 61,
                    "midi": 67,
                    "name": "G4",
                    "ticks": 79104,
                    "time": 257.499588,
                    "velocity": 0.4015748031496063,
                },
                {
                    "duration": 0.19856739062498718,
                    "durationTicks": 61,
                    "midi": 64,
                    "name": "E4",
                    "ticks": 79168,
                    "time": 257.707921,
                    "velocity": 0.3700787401574803,
                },
                {
                    "duration": 0.19856739062504403,
                    "durationTicks": 61,
                    "midi": 60,
                    "name": "C4",
                    "ticks": 79232,
                    "time": 257.916254,
                    "velocity": 0.3543307086614173,
                },
                {
                    "duration": 0.19856739062498718,
                    "durationTicks": 61,
                    "midi": 64,
                    "name": "E4",
                    "ticks": 79296,
                    "time": 258.124587,
                    "velocity": 0.4094488188976378,
                },
                {
                    "duration": 0.39713478124997437,
                    "durationTicks": 122,
                    "midi": 55,
                    "name": "G3",
                    "ticks": 79360,
                    "time": 258.33292,
                    "velocity": 0.31496062992125984,
                },
                {
                    "duration": 0.19856739062498718,
                    "durationTicks": 61,
                    "midi": 64,
                    "name": "E4",
                    "ticks": 79936,
                    "time": 260.207917,
                    "velocity": 0.33858267716535434,
                },
                {
                    "duration": 0.19856739062498718,
                    "durationTicks": 61,
                    "midi": 60,
                    "name": "C4",
                    "ticks": 80000,
                    "time": 260.41625,
                    "velocity": 0.2992125984251969,
                },
                {
                    "duration": 0.19856739062498718,
                    "durationTicks": 61,
                    "midi": 64,
                    "name": "E4",
                    "ticks": 80064,
                    "time": 260.624583,
                    "velocity": 0.3858267716535433,
                },
                {
                    "duration": 0.19856739062504403,
                    "durationTicks": 61,
                    "midi": 67,
                    "name": "G4",
                    "ticks": 80128,
                    "time": 260.83291599999995,
                    "velocity": 0.4094488188976378,
                },
                {
                    "duration": 0.19856739062498718,
                    "durationTicks": 61,
                    "midi": 64,
                    "name": "E4",
                    "ticks": 80192,
                    "time": 261.041249,
                    "velocity": 0.36220472440944884,
                },
                {
                    "duration": 0.19856739062498718,
                    "durationTicks": 61,
                    "midi": 60,
                    "name": "C4",
                    "ticks": 80256,
                    "time": 261.249582,
                    "velocity": 0.33858267716535434,
                },
                {
                    "duration": 0.19856739062504403,
                    "durationTicks": 61,
                    "midi": 64,
                    "name": "E4",
                    "ticks": 80320,
                    "time": 261.45791499999996,
                    "velocity": 0.4094488188976378,
                },
                {
                    "duration": 0.39713478124997437,
                    "durationTicks": 122,
                    "midi": 55,
                    "name": "G3",
                    "ticks": 80384,
                    "time": 261.666248,
                    "velocity": 0.33858267716535434,
                },
                {
                    "duration": 0.19856739062498718,
                    "durationTicks": 61,
                    "midi": 66,
                    "name": "F#4",
                    "ticks": 80960,
                    "time": 263.541245,
                    "velocity": 0.3464566929133858,
                },
                {
                    "duration": 0.19856739062498718,
                    "durationTicks": 61,
                    "midi": 63,
                    "name": "D#4",
                    "ticks": 81024,
                    "time": 263.749578,
                    "velocity": 0.33070866141732286,
                },
                {
                    "duration": 0.19856739062498718,
                    "durationTicks": 61,
                    "midi": 66,
                    "name": "F#4",
                    "ticks": 81088,
                    "time": 263.95791099999997,
                    "velocity": 0.4094488188976378,
                },
                {
                    "duration": 0.19856739062498718,
                    "durationTicks": 61,
                    "midi": 71,
                    "name": "B4",
                    "ticks": 81152,
                    "time": 264.166244,
                    "velocity": 0.4251968503937008,
                },
                {
                    "duration": 0.19856739062498718,
                    "durationTicks": 61,
                    "midi": 66,
                    "name": "F#4",
                    "ticks": 81216,
                    "time": 264.374577,
                    "velocity": 0.3464566929133858,
                },
                {
                    "duration": 0.19856739062498718,
                    "durationTicks": 61,
                    "midi": 63,
                    "name": "D#4",
                    "ticks": 81280,
                    "time": 264.58290999999997,
                    "velocity": 0.3543307086614173,
                },
                {
                    "duration": 0.19856739062498718,
                    "durationTicks": 61,
                    "midi": 66,
                    "name": "F#4",
                    "ticks": 81344,
                    "time": 264.791243,
                    "velocity": 0.4251968503937008,
                },
                {
                    "duration": 0.39713478124997437,
                    "durationTicks": 122,
                    "midi": 57,
                    "name": "A3",
                    "ticks": 81408,
                    "time": 264.999576,
                    "velocity": 0.3228346456692913,
                },
                {
                    "duration": 0.19856739062498718,
                    "durationTicks": 61,
                    "midi": 61,
                    "name": "C#4",
                    "ticks": 81984,
                    "time": 266.874573,
                    "velocity": 0.3779527559055118,
                },
                {
                    "duration": 0.19856739062498718,
                    "durationTicks": 61,
                    "midi": 57,
                    "name": "A3",
                    "ticks": 82048,
                    "time": 267.082906,
                    "velocity": 0.33070866141732286,
                },
                {
                    "duration": 0.19856739062504403,
                    "durationTicks": 61,
                    "midi": 61,
                    "name": "C#4",
                    "ticks": 82112,
                    "time": 267.29123899999996,
                    "velocity": 0.4409448818897638,
                },
                {
                    "duration": 0.19856739062498718,
                    "durationTicks": 61,
                    "midi": 64,
                    "name": "E4",
                    "ticks": 82176,
                    "time": 267.499572,
                    "velocity": 0.41732283464566927,
                },
                {
                    "duration": 0.19856739062498718,
                    "durationTicks": 61,
                    "midi": 60,
                    "name": "C4",
                    "ticks": 82240,
                    "time": 267.707905,
                    "velocity": 0.33858267716535434,
                },
                {
                    "duration": 0.19856739062504403,
                    "durationTicks": 61,
                    "midi": 57,
                    "name": "A3",
                    "ticks": 82304,
                    "time": 267.91623799999996,
                    "velocity": 0.3858267716535433,
                },
                {
                    "duration": 0.19856739062498718,
                    "durationTicks": 61,
                    "midi": 60,
                    "name": "C4",
                    "ticks": 82368,
                    "time": 268.124571,
                    "velocity": 0.3937007874015748,
                },
                {
                    "duration": 0.39713478124997437,
                    "durationTicks": 122,
                    "midi": 52,
                    "name": "E3",
                    "ticks": 82432,
                    "time": 268.332904,
                    "velocity": 0.33858267716535434,
                },
                {
                    "duration": 0.19856739062498718,
                    "durationTicks": 61,
                    "midi": 59,
                    "name": "B3",
                    "ticks": 83008,
                    "time": 270.207901,
                    "velocity": 0.3228346456692913,
                },
                {
                    "duration": 0.19856739062498718,
                    "durationTicks": 61,
                    "midi": 56,
                    "name": "G#3",
                    "ticks": 83072,
                    "time": 270.416234,
                    "velocity": 0.33070866141732286,
                },
                {
                    "duration": 0.19856739062504403,
                    "durationTicks": 61,
                    "midi": 59,
                    "name": "B3",
                    "ticks": 83136,
                    "time": 270.62456699999996,
                    "velocity": 0.3700787401574803,
                },
                {
                    "duration": 0.19856739062498718,
                    "durationTicks": 61,
                    "midi": 64,
                    "name": "E4",
                    "ticks": 83200,
                    "time": 270.8329,
                    "velocity": 0.4409448818897638,
                },
                {
                    "duration": 0.19856739062498718,
                    "durationTicks": 61,
                    "midi": 60,
                    "name": "C4",
                    "ticks": 83264,
                    "time": 271.041233,
                    "velocity": 0.33858267716535434,
                },
                {
                    "duration": 0.19856739062504403,
                    "durationTicks": 61,
                    "midi": 57,
                    "name": "A3",
                    "ticks": 83328,
                    "time": 271.24956599999996,
                    "velocity": 0.36220472440944884,
                },
                {
                    "duration": 0.19856739062498718,
                    "durationTicks": 61,
                    "midi": 60,
                    "name": "C4",
                    "ticks": 83392,
                    "time": 271.457899,
                    "velocity": 0.3937007874015748,
                },
                {
                    "duration": 0.39713478124997437,
                    "durationTicks": 122,
                    "midi": 52,
                    "name": "E3",
                    "ticks": 83456,
                    "time": 271.666232,
                    "velocity": 0.3228346456692913,
                },
                {
                    "duration": 0.19856739062498718,
                    "durationTicks": 61,
                    "midi": 60,
                    "name": "C4",
                    "ticks": 84032,
                    "time": 273.541229,
                    "velocity": 0.3543307086614173,
                },
                {
                    "duration": 0.19856739062498718,
                    "durationTicks": 61,
                    "midi": 57,
                    "name": "A3",
                    "ticks": 84096,
                    "time": 273.74956199999997,
                    "velocity": 0.3700787401574803,
                },
                {
                    "duration": 0.19856739062498718,
                    "durationTicks": 61,
                    "midi": 60,
                    "name": "C4",
                    "ticks": 84160,
                    "time": 273.957895,
                    "velocity": 0.4409448818897638,
                },
                {
                    "duration": 0.19856739062498718,
                    "durationTicks": 61,
                    "midi": 64,
                    "name": "E4",
                    "ticks": 84224,
                    "time": 274.166228,
                    "velocity": 0.4330708661417323,
                },
                {
                    "duration": 0.19856739062498718,
                    "durationTicks": 61,
                    "midi": 60,
                    "name": "C4",
                    "ticks": 84288,
                    "time": 274.37456099999997,
                    "velocity": 0.31496062992125984,
                },
                {
                    "duration": 0.19856739062498718,
                    "durationTicks": 61,
                    "midi": 57,
                    "name": "A3",
                    "ticks": 84352,
                    "time": 274.582894,
                    "velocity": 0.33070866141732286,
                },
                {
                    "duration": 0.19856739062498718,
                    "durationTicks": 61,
                    "midi": 60,
                    "name": "C4",
                    "ticks": 84416,
                    "time": 274.791227,
                    "velocity": 0.3937007874015748,
                },
                {
                    "duration": 0.7942695625000056,
                    "durationTicks": 244,
                    "midi": 52,
                    "name": "E3",
                    "ticks": 84480,
                    "time": 274.99956,
                    "velocity": 0.36220472440944884,
                },
                {
                    "duration": 0.19856739062498718,
                    "durationTicks": 61,
                    "midi": 66,
                    "name": "F#4",
                    "ticks": 85056,
                    "time": 276.874557,
                    "velocity": 0.33858267716535434,
                },
                {
                    "duration": 0.19856739062504403,
                    "durationTicks": 61,
                    "midi": 63,
                    "name": "D#4",
                    "ticks": 85120,
                    "time": 277.08288999999996,
                    "velocity": 0.33858267716535434,
                },
                {
                    "duration": 0.19856739062498718,
                    "durationTicks": 61,
                    "midi": 66,
                    "name": "F#4",
                    "ticks": 85184,
                    "time": 277.291223,
                    "velocity": 0.4251968503937008,
                },
                {
                    "duration": 0.19856739062498718,
                    "durationTicks": 61,
                    "midi": 71,
                    "name": "B4",
                    "ticks": 85248,
                    "time": 277.499556,
                    "velocity": 0.44881889763779526,
                },
                {
                    "duration": 0.19856739062504403,
                    "durationTicks": 61,
                    "midi": 66,
                    "name": "F#4",
                    "ticks": 85312,
                    "time": 277.70788899999997,
                    "velocity": 0.3700787401574803,
                },
                {
                    "duration": 0.19856739062498718,
                    "durationTicks": 61,
                    "midi": 63,
                    "name": "D#4",
                    "ticks": 85376,
                    "time": 277.916222,
                    "velocity": 0.3464566929133858,
                },
                {
                    "duration": 0.19856739062498718,
                    "durationTicks": 61,
                    "midi": 66,
                    "name": "F#4",
                    "ticks": 85440,
                    "time": 278.124555,
                    "velocity": 0.44881889763779526,
                },
                {
                    "duration": 0.3971347812500312,
                    "durationTicks": 122,
                    "midi": 57,
                    "name": "A3",
                    "ticks": 85504,
                    "time": 278.33288799999997,
                    "velocity": 0.33858267716535434,
                },
                {
                    "duration": 0.19856739062498718,
                    "durationTicks": 61,
                    "midi": 61,
                    "name": "C#4",
                    "ticks": 86080,
                    "time": 280.207885,
                    "velocity": 0.3228346456692913,
                },
                {
                    "duration": 0.19856739062504403,
                    "durationTicks": 61,
                    "midi": 57,
                    "name": "A3",
                    "ticks": 86144,
                    "time": 280.41621799999996,
                    "velocity": 0.3464566929133858,
                },
                {
                    "duration": 0.19856739062498718,
                    "durationTicks": 61,
                    "midi": 61,
                    "name": "C#4",
                    "ticks": 86208,
                    "time": 280.624551,
                    "velocity": 0.4015748031496063,
                },
                {
                    "duration": 0.19856739062498718,
                    "durationTicks": 61,
                    "midi": 64,
                    "name": "E4",
                    "ticks": 86272,
                    "time": 280.832884,
                    "velocity": 0.3937007874015748,
                },
                {
                    "duration": 0.19856739062504403,
                    "durationTicks": 61,
                    "midi": 60,
                    "name": "C4",
                    "ticks": 86336,
                    "time": 281.04121699999996,
                    "velocity": 0.3228346456692913,
                },
                {
                    "duration": 0.19856739062498718,
                    "durationTicks": 61,
                    "midi": 57,
                    "name": "A3",
                    "ticks": 86400,
                    "time": 281.24955,
                    "velocity": 0.3464566929133858,
                },
                {
                    "duration": 0.19856739062498718,
                    "durationTicks": 61,
                    "midi": 60,
                    "name": "C4",
                    "ticks": 86464,
                    "time": 281.457883,
                    "velocity": 0.41732283464566927,
                },
                {
                    "duration": 0.3971347812500312,
                    "durationTicks": 122,
                    "midi": 52,
                    "name": "E3",
                    "ticks": 86528,
                    "time": 281.66621599999996,
                    "velocity": 0.3937007874015748,
                },
                {
                    "duration": 0.19856739062498718,
                    "durationTicks": 61,
                    "midi": 59,
                    "name": "B3",
                    "ticks": 87104,
                    "time": 283.54121299999997,
                    "velocity": 0.3543307086614173,
                },
                {
                    "duration": 0.19856739062498718,
                    "durationTicks": 61,
                    "midi": 56,
                    "name": "G#3",
                    "ticks": 87168,
                    "time": 283.749546,
                    "velocity": 0.36220472440944884,
                },
                {
                    "duration": 0.19856739062498718,
                    "durationTicks": 61,
                    "midi": 59,
                    "name": "B3",
                    "ticks": 87232,
                    "time": 283.957879,
                    "velocity": 0.4251968503937008,
                },
                {
                    "duration": 0.19856739062498718,
                    "durationTicks": 61,
                    "midi": 64,
                    "name": "E4",
                    "ticks": 87296,
                    "time": 284.166212,
                    "velocity": 0.4094488188976378,
                },
                {
                    "duration": 0.19856739062504403,
                    "durationTicks": 61,
                    "midi": 60,
                    "name": "C4",
                    "ticks": 87360,
                    "time": 284.37454499999996,
                    "velocity": 0.3228346456692913,
                },
                {
                    "duration": 0.19856739062498718,
                    "durationTicks": 61,
                    "midi": 57,
                    "name": "A3",
                    "ticks": 87424,
                    "time": 284.582878,
                    "velocity": 0.3779527559055118,
                },
                {
                    "duration": 0.19856739062498718,
                    "durationTicks": 61,
                    "midi": 60,
                    "name": "C4",
                    "ticks": 87488,
                    "time": 284.791211,
                    "velocity": 0.4015748031496063,
                },
                {
                    "duration": 0.3971347812500312,
                    "durationTicks": 122,
                    "midi": 52,
                    "name": "E3",
                    "ticks": 87552,
                    "time": 284.99954399999996,
                    "velocity": 0.3700787401574803,
                },
                {
                    "duration": 0.19856739062504403,
                    "durationTicks": 61,
                    "midi": 64,
                    "name": "E4",
                    "ticks": 88128,
                    "time": 286.87454099999997,
                    "velocity": 0.3464566929133858,
                },
                {
                    "duration": 0.19856739062498718,
                    "durationTicks": 61,
                    "midi": 61,
                    "name": "C#4",
                    "ticks": 88192,
                    "time": 287.082874,
                    "velocity": 0.33858267716535434,
                },
                {
                    "duration": 0.19856739062498718,
                    "durationTicks": 61,
                    "midi": 64,
                    "name": "E4",
                    "ticks": 88256,
                    "time": 287.291207,
                    "velocity": 0.4015748031496063,
                },
                {
                    "duration": 0.19856739062498718,
                    "durationTicks": 61,
                    "midi": 67,
                    "name": "G4",
                    "ticks": 88320,
                    "time": 287.49953999999997,
                    "velocity": 0.3937007874015748,
                },
                {
                    "duration": 0.19856739062498718,
                    "durationTicks": 61,
                    "midi": 64,
                    "name": "E4",
                    "ticks": 88384,
                    "time": 287.707873,
                    "velocity": 0.3464566929133858,
                },
                {
                    "duration": 0.19856739062498718,
                    "durationTicks": 61,
                    "midi": 61,
                    "name": "C#4",
                    "ticks": 88448,
                    "time": 287.916206,
                    "velocity": 0.3228346456692913,
                },
                {
                    "duration": 0.19856739062498718,
                    "durationTicks": 61,
                    "midi": 64,
                    "name": "E4",
                    "ticks": 88512,
                    "time": 288.12453899999997,
                    "velocity": 0.3937007874015748,
                },
                {
                    "duration": 0.39713478124997437,
                    "durationTicks": 122,
                    "midi": 55,
                    "name": "G3",
                    "ticks": 88576,
                    "time": 288.332872,
                    "velocity": 0.36220472440944884,
                },
                {
                    "duration": 0.19856739062504403,
                    "durationTicks": 61,
                    "midi": 53,
                    "name": "F3",
                    "ticks": 89152,
                    "time": 290.20786899999996,
                    "velocity": 0.3228346456692913,
                },
                {
                    "duration": 0.19856739062498718,
                    "durationTicks": 61,
                    "midi": 50,
                    "name": "D3",
                    "ticks": 89216,
                    "time": 290.416202,
                    "velocity": 0.3779527559055118,
                },
                {
                    "duration": 0.19856739062498718,
                    "durationTicks": 61,
                    "midi": 53,
                    "name": "F3",
                    "ticks": 89280,
                    "time": 290.624535,
                    "velocity": 0.4094488188976378,
                },
                {
                    "duration": 0.19856739062504403,
                    "durationTicks": 61,
                    "midi": 57,
                    "name": "A3",
                    "ticks": 89344,
                    "time": 290.83286799999996,
                    "velocity": 0.4015748031496063,
                },
                {
                    "duration": 0.19856739062498718,
                    "durationTicks": 61,
                    "midi": 53,
                    "name": "F3",
                    "ticks": 89408,
                    "time": 291.041201,
                    "velocity": 0.3464566929133858,
                },
                {
                    "duration": 0.19856739062498718,
                    "durationTicks": 61,
                    "midi": 50,
                    "name": "D3",
                    "ticks": 89472,
                    "time": 291.249534,
                    "velocity": 0.3543307086614173,
                },
                {
                    "duration": 0.19856739062504403,
                    "durationTicks": 61,
                    "midi": 62,
                    "name": "D4",
                    "ticks": 89536,
                    "time": 291.45786699999996,
                    "velocity": 0.4645669291338583,
                },
                {
                    "duration": 0.39713478124997437,
                    "durationTicks": 122,
                    "midi": 56,
                    "name": "G#3",
                    "ticks": 89600,
                    "time": 291.6662,
                    "velocity": 0.33858267716535434,
                },
                {
                    "duration": 0.19856739062504403,
                    "durationTicks": 61,
                    "midi": 64,
                    "name": "E4",
                    "ticks": 90176,
                    "time": 293.54119699999995,
                    "velocity": 0.31496062992125984,
                },
                {
                    "duration": 0.19856739062498718,
                    "durationTicks": 61,
                    "midi": 61,
                    "name": "C#4",
                    "ticks": 90240,
                    "time": 293.74953,
                    "velocity": 0.33070866141732286,
                },
                {
                    "duration": 0.19856739062498718,
                    "durationTicks": 61,
                    "midi": 64,
                    "name": "E4",
                    "ticks": 90304,
                    "time": 293.957863,
                    "velocity": 0.41732283464566927,
                },
                {
                    "duration": 0.19856739062504403,
                    "durationTicks": 61,
                    "midi": 67,
                    "name": "G4",
                    "ticks": 90368,
                    "time": 294.16619599999996,
                    "velocity": 0.4094488188976378,
                },
                {
                    "duration": 0.19856739062498718,
                    "durationTicks": 61,
                    "midi": 64,
                    "name": "E4",
                    "ticks": 90432,
                    "time": 294.374529,
                    "velocity": 0.3464566929133858,
                },
                {
                    "duration": 0.19856739062498718,
                    "durationTicks": 61,
                    "midi": 61,
                    "name": "C#4",
                    "ticks": 90496,
                    "time": 294.582862,
                    "velocity": 0.3543307086614173,
                },
                {
                    "duration": 0.19856739062504403,
                    "durationTicks": 61,
                    "midi": 64,
                    "name": "E4",
                    "ticks": 90560,
                    "time": 294.79119499999996,
                    "velocity": 0.3937007874015748,
                },
                {
                    "duration": 0.39713478124997437,
                    "durationTicks": 122,
                    "midi": 55,
                    "name": "G3",
                    "ticks": 90624,
                    "time": 294.999528,
                    "velocity": 0.3937007874015748,
                },
                {
                    "duration": 0.19856739062498718,
                    "durationTicks": 61,
                    "midi": 53,
                    "name": "F3",
                    "ticks": 91200,
                    "time": 296.874525,
                    "velocity": 0.4330708661417323,
                },
                {
                    "duration": 0.19856739062498718,
                    "durationTicks": 61,
                    "midi": 50,
                    "name": "D3",
                    "ticks": 91264,
                    "time": 297.082858,
                    "velocity": 0.4566929133858268,
                },
                {
                    "duration": 0.19856739062498718,
                    "durationTicks": 61,
                    "midi": 53,
                    "name": "F3",
                    "ticks": 91328,
                    "time": 297.29119099999997,
                    "velocity": 0.5039370078740157,
                },
                {
                    "duration": 0.19856739062498718,
                    "durationTicks": 61,
                    "midi": 57,
                    "name": "A3",
                    "ticks": 91392,
                    "time": 297.499524,
                    "velocity": 0.5196850393700787,
                },
                {
                    "duration": 0.19856739062498718,
                    "durationTicks": 61,
                    "midi": 53,
                    "name": "F3",
                    "ticks": 91456,
                    "time": 297.707857,
                    "velocity": 0.5039370078740157,
                },
                {
                    "duration": 0.19856739062498718,
                    "durationTicks": 61,
                    "midi": 50,
                    "name": "D3",
                    "ticks": 91520,
                    "time": 297.91619,
                    "velocity": 0.5275590551181102,
                },
                {
                    "duration": 0.19856739062504403,
                    "durationTicks": 61,
                    "midi": 62,
                    "name": "D4",
                    "ticks": 91584,
                    "time": 298.12452299999995,
                    "velocity": 0.7007874015748031,
                },
                {
                    "duration": 0.39713478124997437,
                    "durationTicks": 122,
                    "midi": 56,
                    "name": "G#3",
                    "ticks": 91648,
                    "time": 298.332856,
                    "velocity": 0.5275590551181102,
                },
                {
                    "duration": 0.19856739062498718,
                    "durationTicks": 61,
                    "midi": 64,
                    "name": "E4",
                    "ticks": 92224,
                    "time": 300.207853,
                    "velocity": 0.5118110236220472,
                },
                {
                    "duration": 0.19856739062498718,
                    "durationTicks": 61,
                    "midi": 61,
                    "name": "C#4",
                    "ticks": 92288,
                    "time": 300.416186,
                    "velocity": 0.48031496062992124,
                },
                {
                    "duration": 0.19856739062504403,
                    "durationTicks": 61,
                    "midi": 64,
                    "name": "E4",
                    "ticks": 92352,
                    "time": 300.62451899999996,
                    "velocity": 0.6062992125984252,
                },
                {
                    "duration": 0.19856739062498718,
                    "durationTicks": 61,
                    "midi": 67,
                    "name": "G4",
                    "ticks": 92416,
                    "time": 300.832852,
                    "velocity": 0.6141732283464567,
                },
                {
                    "duration": 0.19856739062498718,
                    "durationTicks": 61,
                    "midi": 64,
                    "name": "E4",
                    "ticks": 92480,
                    "time": 301.041185,
                    "velocity": 0.5039370078740157,
                },
                {
                    "duration": 0.19856739062498718,
                    "durationTicks": 61,
                    "midi": 61,
                    "name": "C#4",
                    "ticks": 92544,
                    "time": 301.24951799999997,
                    "velocity": 0.4881889763779528,
                },
                {
                    "duration": 0.19856739062498718,
                    "durationTicks": 61,
                    "midi": 55,
                    "name": "G3",
                    "ticks": 92608,
                    "time": 301.457851,
                    "velocity": 0.5118110236220472,
                },
                {
                    "duration": 0.39713478124997437,
                    "durationTicks": 122,
                    "midi": 56,
                    "name": "G#3",
                    "ticks": 92672,
                    "time": 301.666184,
                    "velocity": 0.5748031496062992,
                },
                {
                    "duration": 0.11718731249999337,
                    "durationTicks": 36,
                    "midi": 60,
                    "name": "C4",
                    "ticks": 97280,
                    "time": 316.66616,
                    "velocity": 0.25196850393700787,
                },
                {
                    "duration": 0.11718731249999337,
                    "durationTicks": 36,
                    "midi": 62,
                    "name": "D4",
                    "ticks": 97344,
                    "time": 316.874493,
                    "velocity": 0.28346456692913385,
                },
                {
                    "duration": 0.11718731250005021,
                    "durationTicks": 36,
                    "midi": 64,
                    "name": "E4",
                    "ticks": 97408,
                    "time": 317.08282599999995,
                    "velocity": 0.28346456692913385,
                },
                {
                    "duration": 0.11718731249999337,
                    "durationTicks": 36,
                    "midi": 62,
                    "name": "D4",
                    "ticks": 97472,
                    "time": 317.291159,
                    "velocity": 0.2992125984251969,
                },
                {
                    "duration": 0.11718731249999337,
                    "durationTicks": 36,
                    "midi": 60,
                    "name": "C4",
                    "ticks": 97536,
                    "time": 317.499492,
                    "velocity": 0.29133858267716534,
                },
                {
                    "duration": 0.11718731250005021,
                    "durationTicks": 36,
                    "midi": 62,
                    "name": "D4",
                    "ticks": 97600,
                    "time": 317.70782499999996,
                    "velocity": 0.2992125984251969,
                },
                {
                    "duration": 0.11718731249999337,
                    "durationTicks": 36,
                    "midi": 60,
                    "name": "C4",
                    "ticks": 97664,
                    "time": 317.916158,
                    "velocity": 0.2440944881889764,
                },
                {
                    "duration": 0.11718731249999337,
                    "durationTicks": 36,
                    "midi": 59,
                    "name": "B3",
                    "ticks": 97728,
                    "time": 318.124491,
                    "velocity": 0.23622047244094488,
                },
                {
                    "duration": 0.11718731249999337,
                    "durationTicks": 36,
                    "midi": 57,
                    "name": "A3",
                    "ticks": 97792,
                    "time": 318.33282399999996,
                    "velocity": 0.29133858267716534,
                },
                {
                    "duration": 0.11718731249999337,
                    "durationTicks": 36,
                    "midi": 59,
                    "name": "B3",
                    "ticks": 97856,
                    "time": 318.541157,
                    "velocity": 0.2992125984251969,
                },
                {
                    "duration": 0.11718731249999337,
                    "durationTicks": 36,
                    "midi": 60,
                    "name": "C4",
                    "ticks": 97920,
                    "time": 318.74949,
                    "velocity": 0.29133858267716534,
                },
                {
                    "duration": 0.11718731249999337,
                    "durationTicks": 36,
                    "midi": 62,
                    "name": "D4",
                    "ticks": 97984,
                    "time": 318.95782299999996,
                    "velocity": 0.3228346456692913,
                },
                {
                    "duration": 0.11718731249999337,
                    "durationTicks": 36,
                    "midi": 64,
                    "name": "E4",
                    "ticks": 98048,
                    "time": 319.166156,
                    "velocity": 0.28346456692913385,
                },
                {
                    "duration": 0.11718731249999337,
                    "durationTicks": 36,
                    "midi": 66,
                    "name": "F#4",
                    "ticks": 98112,
                    "time": 319.374489,
                    "velocity": 0.3228346456692913,
                },
                {
                    "duration": 0.11718731249999337,
                    "durationTicks": 36,
                    "midi": 68,
                    "name": "G#4",
                    "ticks": 98176,
                    "time": 319.58282199999996,
                    "velocity": 0.3228346456692913,
                },
                {
                    "duration": 0.11718731249999337,
                    "durationTicks": 36,
                    "midi": 69,
                    "name": "A4",
                    "ticks": 98240,
                    "time": 319.791155,
                    "velocity": 0.31496062992125984,
                },
                {
                    "duration": 0.11718731249999337,
                    "durationTicks": 36,
                    "midi": 68,
                    "name": "G#4",
                    "ticks": 98304,
                    "time": 319.999488,
                    "velocity": 0.28346456692913385,
                },
                {
                    "duration": 0.11718731249999337,
                    "durationTicks": 36,
                    "midi": 64,
                    "name": "E4",
                    "ticks": 98368,
                    "time": 320.20782099999997,
                    "velocity": 0.2755905511811024,
                },
                {
                    "duration": 0.11718731249999337,
                    "durationTicks": 36,
                    "midi": 66,
                    "name": "F#4",
                    "ticks": 98432,
                    "time": 320.416154,
                    "velocity": 0.29133858267716534,
                },
                {
                    "duration": 0.11718731249999337,
                    "durationTicks": 36,
                    "midi": 68,
                    "name": "G#4",
                    "ticks": 98496,
                    "time": 320.624487,
                    "velocity": 0.30708661417322836,
                },
                {
                    "duration": 0.11718731249999337,
                    "durationTicks": 36,
                    "midi": 69,
                    "name": "A4",
                    "ticks": 98560,
                    "time": 320.83281999999997,
                    "velocity": 0.2755905511811024,
                },
                {
                    "duration": 0.11718731250005021,
                    "durationTicks": 36,
                    "midi": 71,
                    "name": "B4",
                    "ticks": 98624,
                    "time": 321.04115299999995,
                    "velocity": 0.28346456692913385,
                },
                {
                    "duration": 0.11718731249999337,
                    "durationTicks": 36,
                    "midi": 69,
                    "name": "A4",
                    "ticks": 98688,
                    "time": 321.249486,
                    "velocity": 0.2440944881889764,
                },
                {
                    "duration": 0.11718731249999337,
                    "durationTicks": 36,
                    "midi": 67,
                    "name": "G4",
                    "ticks": 98752,
                    "time": 321.457819,
                    "velocity": 0.25984251968503935,
                },
                {
                    "duration": 0.11718731250005021,
                    "durationTicks": 36,
                    "midi": 66,
                    "name": "F#4",
                    "ticks": 98816,
                    "time": 321.66615199999995,
                    "velocity": 0.30708661417322836,
                },
                {
                    "duration": 0.11718731249999337,
                    "durationTicks": 36,
                    "midi": 66,
                    "name": "F#4",
                    "ticks": 98880,
                    "time": 321.874485,
                    "velocity": 0.25984251968503935,
                },
                {
                    "duration": 0.11718731249999337,
                    "durationTicks": 36,
                    "midi": 67,
                    "name": "G4",
                    "ticks": 98944,
                    "time": 322.082818,
                    "velocity": 0.30708661417322836,
                },
                {
                    "duration": 0.11718731250005021,
                    "durationTicks": 36,
                    "midi": 69,
                    "name": "A4",
                    "ticks": 99008,
                    "time": 322.29115099999996,
                    "velocity": 0.25196850393700787,
                },
                {
                    "duration": 0.11718731249999337,
                    "durationTicks": 36,
                    "midi": 71,
                    "name": "B4",
                    "ticks": 99072,
                    "time": 322.499484,
                    "velocity": 0.3228346456692913,
                },
                {
                    "duration": 0.11718731249999337,
                    "durationTicks": 36,
                    "midi": 59,
                    "name": "B3",
                    "ticks": 99136,
                    "time": 322.707817,
                    "velocity": 0.25196850393700787,
                },
                {
                    "duration": 0.11718731249999337,
                    "durationTicks": 36,
                    "midi": 61,
                    "name": "C#4",
                    "ticks": 99200,
                    "time": 322.91614999999996,
                    "velocity": 0.2677165354330709,
                },
                {
                    "duration": 0.11718731249999337,
                    "durationTicks": 36,
                    "midi": 63,
                    "name": "D#4",
                    "ticks": 99264,
                    "time": 323.124483,
                    "velocity": 0.28346456692913385,
                },
                {
                    "duration": 0.7942695625000056,
                    "durationTicks": 244,
                    "midi": 64,
                    "name": "E4",
                    "ticks": 99328,
                    "time": 323.332816,
                    "velocity": 0.28346456692913385,
                },
                {
                    "duration": 0.23762982812502287,
                    "durationTicks": 73,
                    "midi": 64,
                    "name": "E4",
                    "ticks": 99584,
                    "time": 324.16614799999996,
                    "velocity": 0.28346456692913385,
                },
                {
                    "duration": 0.23762982812502287,
                    "durationTicks": 73,
                    "midi": 66,
                    "name": "F#4",
                    "ticks": 99712,
                    "time": 324.582814,
                    "velocity": 0.33070866141732286,
                },
                {
                    "duration": 0.4752596562499889,
                    "durationTicks": 146,
                    "midi": 67,
                    "name": "G4",
                    "ticks": 99840,
                    "time": 324.99948,
                    "velocity": 0.3228346456692913,
                },
                {
                    "duration": 0.44921803124998405,
                    "durationTicks": 138,
                    "midi": 67,
                    "name": "G4",
                    "ticks": 100096,
                    "time": 325.832812,
                    "velocity": 0.30708661417322836,
                },
                {
                    "duration": 0.7942695625000056,
                    "durationTicks": 244,
                    "midi": 66,
                    "name": "F#4",
                    "ticks": 100352,
                    "time": 326.666144,
                    "velocity": 0.28346456692913385,
                },
                {
                    "duration": 0.23762982812502287,
                    "durationTicks": 73,
                    "midi": 66,
                    "name": "F#4",
                    "ticks": 100608,
                    "time": 327.49947599999996,
                    "velocity": 0.29133858267716534,
                },
                {
                    "duration": 0.23762982812502287,
                    "durationTicks": 73,
                    "midi": 68,
                    "name": "G#4",
                    "ticks": 100736,
                    "time": 327.916142,
                    "velocity": 0.30708661417322836,
                },
                {
                    "duration": 0.23762982812496602,
                    "durationTicks": 73,
                    "midi": 69,
                    "name": "A4",
                    "ticks": 100864,
                    "time": 328.332808,
                    "velocity": 0.28346456692913385,
                },
                {
                    "duration": 0.23762982812502287,
                    "durationTicks": 73,
                    "midi": 65,
                    "name": "F4",
                    "ticks": 100992,
                    "time": 328.74947399999996,
                    "velocity": 0.25984251968503935,
                },
                {
                    "duration": 0.23762982812502287,
                    "durationTicks": 73,
                    "midi": 64,
                    "name": "E4",
                    "ticks": 101120,
                    "time": 329.16614,
                    "velocity": 0.2440944881889764,
                },
                {
                    "duration": 0.23762982812496602,
                    "durationTicks": 73,
                    "midi": 62,
                    "name": "D4",
                    "ticks": 101248,
                    "time": 329.582806,
                    "velocity": 0.2677165354330709,
                },
                {
                    "duration": 0.11718731249999337,
                    "durationTicks": 36,
                    "midi": 61,
                    "name": "C#4",
                    "ticks": 101376,
                    "time": 329.99947199999997,
                    "velocity": 0.2440944881889764,
                },
                {
                    "duration": 0.11718731249999337,
                    "durationTicks": 36,
                    "midi": 61,
                    "name": "C#4",
                    "ticks": 101440,
                    "time": 330.207805,
                    "velocity": 0.29133858267716534,
                },
                {
                    "duration": 0.11718731249999337,
                    "durationTicks": 36,
                    "midi": 62,
                    "name": "D4",
                    "ticks": 101504,
                    "time": 330.416138,
                    "velocity": 0.33858267716535434,
                },
                {
                    "duration": 0.11718731249999337,
                    "durationTicks": 36,
                    "midi": 64,
                    "name": "E4",
                    "ticks": 101568,
                    "time": 330.62447099999997,
                    "velocity": 0.30708661417322836,
                },
                {
                    "duration": 0.11718731250005021,
                    "durationTicks": 36,
                    "midi": 57,
                    "name": "A3",
                    "ticks": 101632,
                    "time": 330.83280399999995,
                    "velocity": 0.2755905511811024,
                },
                {
                    "duration": 0.11718731249999337,
                    "durationTicks": 36,
                    "midi": 57,
                    "name": "A3",
                    "ticks": 101696,
                    "time": 331.041137,
                    "velocity": 0.25984251968503935,
                },
                {
                    "duration": 0.11718731249999337,
                    "durationTicks": 36,
                    "midi": 59,
                    "name": "B3",
                    "ticks": 101760,
                    "time": 331.24947,
                    "velocity": 0.2992125984251969,
                },
                {
                    "duration": 0.11718731250005021,
                    "durationTicks": 36,
                    "midi": 61,
                    "name": "C#4",
                    "ticks": 101824,
                    "time": 331.45780299999996,
                    "velocity": 0.29133858267716534,
                },
                {
                    "duration": 0.23762982812496602,
                    "durationTicks": 73,
                    "midi": 62,
                    "name": "D4",
                    "ticks": 101888,
                    "time": 331.666136,
                    "velocity": 0.2992125984251969,
                },
                {
                    "duration": 0.23762982812502287,
                    "durationTicks": 73,
                    "midi": 60,
                    "name": "C4",
                    "ticks": 102016,
                    "time": 332.08280199999996,
                    "velocity": 0.23622047244094488,
                },
                {
                    "duration": 0.23762982812502287,
                    "durationTicks": 73,
                    "midi": 58,
                    "name": "A#3",
                    "ticks": 102144,
                    "time": 332.499468,
                    "velocity": 0.25196850393700787,
                },
                {
                    "duration": 0.23762982812496602,
                    "durationTicks": 73,
                    "midi": 57,
                    "name": "A3",
                    "ticks": 102272,
                    "time": 332.916134,
                    "velocity": 0.29133858267716534,
                },
                {
                    "duration": 0.11718731249999337,
                    "durationTicks": 36,
                    "midi": 59,
                    "name": "B3",
                    "ticks": 102400,
                    "time": 333.33279999999996,
                    "velocity": 0.29133858267716534,
                },
                {
                    "duration": 0.11718731249999337,
                    "durationTicks": 36,
                    "midi": 59,
                    "name": "B3",
                    "ticks": 102464,
                    "time": 333.541133,
                    "velocity": 0.25196850393700787,
                },
                {
                    "duration": 0.11718731249999337,
                    "durationTicks": 36,
                    "midi": 60,
                    "name": "C4",
                    "ticks": 102528,
                    "time": 333.749466,
                    "velocity": 0.25984251968503935,
                },
                {
                    "duration": 0.11718731249999337,
                    "durationTicks": 36,
                    "midi": 62,
                    "name": "D4",
                    "ticks": 102592,
                    "time": 333.95779899999997,
                    "velocity": 0.31496062992125984,
                },
                {
                    "duration": 0.11718731249999337,
                    "durationTicks": 36,
                    "midi": 55,
                    "name": "G3",
                    "ticks": 102656,
                    "time": 334.166132,
                    "velocity": 0.28346456692913385,
                },
                {
                    "duration": 0.11718731249999337,
                    "durationTicks": 36,
                    "midi": 55,
                    "name": "G3",
                    "ticks": 102720,
                    "time": 334.374465,
                    "velocity": 0.28346456692913385,
                },
                {
                    "duration": 0.11718731249999337,
                    "durationTicks": 36,
                    "midi": 57,
                    "name": "A3",
                    "ticks": 102784,
                    "time": 334.58279799999997,
                    "velocity": 0.2755905511811024,
                },
                {
                    "duration": 0.11718731249999337,
                    "durationTicks": 36,
                    "midi": 59,
                    "name": "B3",
                    "ticks": 102848,
                    "time": 334.791131,
                    "velocity": 0.2755905511811024,
                },
                {
                    "duration": 0.7942695625000056,
                    "durationTicks": 244,
                    "midi": 60,
                    "name": "C4",
                    "ticks": 102912,
                    "time": 334.999464,
                    "velocity": 0.2677165354330709,
                },
                {
                    "duration": 0.813800781249995,
                    "durationTicks": 250,
                    "midi": 64,
                    "name": "E4",
                    "ticks": 103808,
                    "time": 337.91612599999996,
                    "velocity": 0.25196850393700787,
                },
                {
                    "duration": 0.7942695624999487,
                    "durationTicks": 244,
                    "midi": 62,
                    "name": "D4",
                    "ticks": 104064,
                    "time": 338.749458,
                    "velocity": 0.2755905511811024,
                },
                {
                    "duration": 0.813800781249995,
                    "durationTicks": 250,
                    "midi": 62,
                    "name": "D4",
                    "ticks": 104320,
                    "time": 339.58279,
                    "velocity": 0.2992125984251969,
                },
                {
                    "duration": 0.7942695625000056,
                    "durationTicks": 244,
                    "midi": 60,
                    "name": "C4",
                    "ticks": 104576,
                    "time": 340.416122,
                    "velocity": 0.2283464566929134,
                },
                {
                    "duration": 0.3971347812500312,
                    "durationTicks": 122,
                    "midi": 72,
                    "name": "C5",
                    "ticks": 104832,
                    "time": 341.24945399999996,
                    "velocity": 0.3464566929133858,
                },
                {
                    "duration": 0.11718731249999337,
                    "durationTicks": 36,
                    "midi": 58,
                    "name": "A#3",
                    "ticks": 104960,
                    "time": 341.66612,
                    "velocity": 0.2440944881889764,
                },
                {
                    "duration": 0.11718731249999337,
                    "durationTicks": 36,
                    "midi": 60,
                    "name": "C4",
                    "ticks": 105024,
                    "time": 341.87445299999996,
                    "velocity": 0.28346456692913385,
                },
                {
                    "duration": 0.11718731249999337,
                    "durationTicks": 36,
                    "midi": 62,
                    "name": "D4",
                    "ticks": 105088,
                    "time": 342.082786,
                    "velocity": 0.29133858267716534,
                },
                {
                    "duration": 0.11718731249999337,
                    "durationTicks": 36,
                    "midi": 60,
                    "name": "C4",
                    "ticks": 105152,
                    "time": 342.291119,
                    "velocity": 0.2440944881889764,
                },
                {
                    "duration": 0.11718731249999337,
                    "durationTicks": 36,
                    "midi": 58,
                    "name": "A#3",
                    "ticks": 105216,
                    "time": 342.49945199999996,
                    "velocity": 0.25196850393700787,
                },
                {
                    "duration": 0.11718731249999337,
                    "durationTicks": 36,
                    "midi": 62,
                    "name": "D4",
                    "ticks": 105280,
                    "time": 342.707785,
                    "velocity": 0.31496062992125984,
                },
                {
                    "duration": 0.11718731249999337,
                    "durationTicks": 36,
                    "midi": 60,
                    "name": "C4",
                    "ticks": 105344,
                    "time": 342.916118,
                    "velocity": 0.25984251968503935,
                },
                {
                    "duration": 0.11718731249999337,
                    "durationTicks": 36,
                    "midi": 58,
                    "name": "A#3",
                    "ticks": 105408,
                    "time": 343.12445099999997,
                    "velocity": 0.28346456692913385,
                },
                {
                    "duration": 0.11718731249999337,
                    "durationTicks": 36,
                    "midi": 57,
                    "name": "A3",
                    "ticks": 105472,
                    "time": 343.332784,
                    "velocity": 0.2677165354330709,
                },
                {
                    "duration": 0.11718731249999337,
                    "durationTicks": 36,
                    "midi": 58,
                    "name": "A#3",
                    "ticks": 105536,
                    "time": 343.541117,
                    "velocity": 0.2992125984251969,
                },
                {
                    "duration": 0.11718731249999337,
                    "durationTicks": 36,
                    "midi": 60,
                    "name": "C4",
                    "ticks": 105600,
                    "time": 343.74944999999997,
                    "velocity": 0.30708661417322836,
                },
                {
                    "duration": 0.11718731249999337,
                    "durationTicks": 36,
                    "midi": 62,
                    "name": "D4",
                    "ticks": 105664,
                    "time": 343.957783,
                    "velocity": 0.30708661417322836,
                },
                {
                    "duration": 0.11718731249999337,
                    "durationTicks": 36,
                    "midi": 64,
                    "name": "E4",
                    "ticks": 105728,
                    "time": 344.166116,
                    "velocity": 0.31496062992125984,
                },
                {
                    "duration": 0.11718731249999337,
                    "durationTicks": 36,
                    "midi": 65,
                    "name": "F4",
                    "ticks": 105792,
                    "time": 344.37444899999997,
                    "velocity": 0.2992125984251969,
                },
                {
                    "duration": 0.11718731250005021,
                    "durationTicks": 36,
                    "midi": 67,
                    "name": "G4",
                    "ticks": 105856,
                    "time": 344.58278199999995,
                    "velocity": 0.2992125984251969,
                },
                {
                    "duration": 0.11718731249999337,
                    "durationTicks": 36,
                    "midi": 69,
                    "name": "A4",
                    "ticks": 105920,
                    "time": 344.791115,
                    "velocity": 0.2992125984251969,
                },
                {
                    "duration": 0.7942695625000056,
                    "durationTicks": 244,
                    "midi": 59,
                    "name": "B3",
                    "ticks": 105984,
                    "time": 344.999448,
                    "velocity": 0.25984251968503935,
                },
                {
                    "duration": 0.23762982812502287,
                    "durationTicks": 73,
                    "midi": 59,
                    "name": "B3",
                    "ticks": 106240,
                    "time": 345.83277999999996,
                    "velocity": 0.28346456692913385,
                },
                {
                    "duration": 0.23762982812502287,
                    "durationTicks": 73,
                    "midi": 61,
                    "name": "C#4",
                    "ticks": 106368,
                    "time": 346.249446,
                    "velocity": 0.2755905511811024,
                },
                {
                    "duration": 0.4752596562499889,
                    "durationTicks": 146,
                    "midi": 62,
                    "name": "D4",
                    "ticks": 106496,
                    "time": 346.666112,
                    "velocity": 0.29133858267716534,
                },
                {
                    "duration": 0.44921803124998405,
                    "durationTicks": 138,
                    "midi": 62,
                    "name": "D4",
                    "ticks": 106752,
                    "time": 347.499444,
                    "velocity": 0.29133858267716534,
                },
                {
                    "duration": 0.11718731249999337,
                    "durationTicks": 36,
                    "midi": 59,
                    "name": "B3",
                    "ticks": 107008,
                    "time": 348.33277599999997,
                    "velocity": 0.30708661417322836,
                },
                {
                    "duration": 0.11718731249999337,
                    "durationTicks": 36,
                    "midi": 62,
                    "name": "D4",
                    "ticks": 107008,
                    "time": 348.33277599999997,
                    "velocity": 0.30708661417322836,
                },
                {
                    "duration": 0.11718731249999337,
                    "durationTicks": 36,
                    "midi": 59,
                    "name": "B3",
                    "ticks": 107072,
                    "time": 348.541109,
                    "velocity": 0.31496062992125984,
                },
                {
                    "duration": 0.11718731249999337,
                    "durationTicks": 36,
                    "midi": 62,
                    "name": "D4",
                    "ticks": 107072,
                    "time": 348.541109,
                    "velocity": 0.31496062992125984,
                },
                {
                    "duration": 0.11718731249999337,
                    "durationTicks": 36,
                    "midi": 59,
                    "name": "B3",
                    "ticks": 107136,
                    "time": 348.749442,
                    "velocity": 0.30708661417322836,
                },
                {
                    "duration": 0.11718731249999337,
                    "durationTicks": 36,
                    "midi": 62,
                    "name": "D4",
                    "ticks": 107136,
                    "time": 348.749442,
                    "velocity": 0.30708661417322836,
                },
                {
                    "duration": 0.11718731249999337,
                    "durationTicks": 36,
                    "midi": 59,
                    "name": "B3",
                    "ticks": 107200,
                    "time": 348.95777499999997,
                    "velocity": 0.3228346456692913,
                },
                {
                    "duration": 0.11718731249999337,
                    "durationTicks": 36,
                    "midi": 62,
                    "name": "D4",
                    "ticks": 107200,
                    "time": 348.95777499999997,
                    "velocity": 0.3228346456692913,
                },
                {
                    "duration": 0.11718731250005021,
                    "durationTicks": 36,
                    "midi": 59,
                    "name": "B3",
                    "ticks": 107264,
                    "time": 349.16610799999995,
                    "velocity": 0.31496062992125984,
                },
                {
                    "duration": 0.11718731250005021,
                    "durationTicks": 36,
                    "midi": 62,
                    "name": "D4",
                    "ticks": 107264,
                    "time": 349.16610799999995,
                    "velocity": 0.31496062992125984,
                },
                {
                    "duration": 0.11718731249999337,
                    "durationTicks": 36,
                    "midi": 59,
                    "name": "B3",
                    "ticks": 107328,
                    "time": 349.374441,
                    "velocity": 0.3779527559055118,
                },
                {
                    "duration": 0.11718731249999337,
                    "durationTicks": 36,
                    "midi": 62,
                    "name": "D4",
                    "ticks": 107328,
                    "time": 349.374441,
                    "velocity": 0.3779527559055118,
                },
                {
                    "duration": 0.11718731249999337,
                    "durationTicks": 36,
                    "midi": 59,
                    "name": "B3",
                    "ticks": 107392,
                    "time": 349.582774,
                    "velocity": 0.3937007874015748,
                },
                {
                    "duration": 0.11718731249999337,
                    "durationTicks": 36,
                    "midi": 62,
                    "name": "D4",
                    "ticks": 107392,
                    "time": 349.582774,
                    "velocity": 0.3937007874015748,
                },
                {
                    "duration": 0.11718731250005021,
                    "durationTicks": 36,
                    "midi": 59,
                    "name": "B3",
                    "ticks": 107456,
                    "time": 349.79110699999995,
                    "velocity": 0.4251968503937008,
                },
                {
                    "duration": 0.11718731250005021,
                    "durationTicks": 36,
                    "midi": 62,
                    "name": "D4",
                    "ticks": 107456,
                    "time": 349.79110699999995,
                    "velocity": 0.4251968503937008,
                },
                {
                    "duration": 0.11718731249999337,
                    "durationTicks": 36,
                    "midi": 59,
                    "name": "B3",
                    "ticks": 107520,
                    "time": 349.99944,
                    "velocity": 0.41732283464566927,
                },
                {
                    "duration": 0.11718731249999337,
                    "durationTicks": 36,
                    "midi": 62,
                    "name": "D4",
                    "ticks": 107520,
                    "time": 349.99944,
                    "velocity": 0.41732283464566927,
                },
                {
                    "duration": 0.11718731249999337,
                    "durationTicks": 36,
                    "midi": 59,
                    "name": "B3",
                    "ticks": 107584,
                    "time": 350.207773,
                    "velocity": 0.4566929133858268,
                },
                {
                    "duration": 0.11718731249999337,
                    "durationTicks": 36,
                    "midi": 62,
                    "name": "D4",
                    "ticks": 107584,
                    "time": 350.207773,
                    "velocity": 0.4566929133858268,
                },
                {
                    "duration": 0.11718731250005021,
                    "durationTicks": 36,
                    "midi": 59,
                    "name": "B3",
                    "ticks": 107648,
                    "time": 350.41610599999996,
                    "velocity": 0.4566929133858268,
                },
                {
                    "duration": 0.11718731250005021,
                    "durationTicks": 36,
                    "midi": 62,
                    "name": "D4",
                    "ticks": 107648,
                    "time": 350.41610599999996,
                    "velocity": 0.4566929133858268,
                },
                {
                    "duration": 0.11718731249999337,
                    "durationTicks": 36,
                    "midi": 59,
                    "name": "B3",
                    "ticks": 107712,
                    "time": 350.624439,
                    "velocity": 0.4566929133858268,
                },
                {
                    "duration": 0.11718731249999337,
                    "durationTicks": 36,
                    "midi": 62,
                    "name": "D4",
                    "ticks": 107712,
                    "time": 350.624439,
                    "velocity": 0.4566929133858268,
                },
                {
                    "duration": 0.11718731249999337,
                    "durationTicks": 36,
                    "midi": 59,
                    "name": "B3",
                    "ticks": 107776,
                    "time": 350.832772,
                    "velocity": 0.4566929133858268,
                },
                {
                    "duration": 0.11718731249999337,
                    "durationTicks": 36,
                    "midi": 62,
                    "name": "D4",
                    "ticks": 107776,
                    "time": 350.832772,
                    "velocity": 0.4566929133858268,
                },
                {
                    "duration": 0.11718731249999337,
                    "durationTicks": 36,
                    "midi": 59,
                    "name": "B3",
                    "ticks": 107840,
                    "time": 351.04110499999996,
                    "velocity": 0.5118110236220472,
                },
                {
                    "duration": 0.11718731249999337,
                    "durationTicks": 36,
                    "midi": 62,
                    "name": "D4",
                    "ticks": 107840,
                    "time": 351.04110499999996,
                    "velocity": 0.5118110236220472,
                },
                {
                    "duration": 0.11718731249999337,
                    "durationTicks": 36,
                    "midi": 59,
                    "name": "B3",
                    "ticks": 107904,
                    "time": 351.249438,
                    "velocity": 0.49606299212598426,
                },
                {
                    "duration": 0.11718731249999337,
                    "durationTicks": 36,
                    "midi": 62,
                    "name": "D4",
                    "ticks": 107904,
                    "time": 351.249438,
                    "velocity": 0.49606299212598426,
                },
                {
                    "duration": 0.11718731249999337,
                    "durationTicks": 36,
                    "midi": 59,
                    "name": "B3",
                    "ticks": 107968,
                    "time": 351.457771,
                    "velocity": 0.5275590551181102,
                },
                {
                    "duration": 0.11718731249999337,
                    "durationTicks": 36,
                    "midi": 62,
                    "name": "D4",
                    "ticks": 107968,
                    "time": 351.457771,
                    "velocity": 0.5275590551181102,
                },
                {
                    "duration": 0.11718731249999337,
                    "durationTicks": 36,
                    "midi": 59,
                    "name": "B3",
                    "ticks": 108032,
                    "time": 351.66610399999996,
                    "velocity": 0.5511811023622047,
                },
                {
                    "duration": 0.11718731249999337,
                    "durationTicks": 36,
                    "midi": 62,
                    "name": "D4",
                    "ticks": 108032,
                    "time": 351.66610399999996,
                    "velocity": 0.5511811023622047,
                },
                {
                    "duration": 0.11718731249999337,
                    "durationTicks": 36,
                    "midi": 59,
                    "name": "B3",
                    "ticks": 108096,
                    "time": 351.874437,
                    "velocity": 0.5984251968503937,
                },
                {
                    "duration": 0.11718731249999337,
                    "durationTicks": 36,
                    "midi": 62,
                    "name": "D4",
                    "ticks": 108096,
                    "time": 351.874437,
                    "velocity": 0.5984251968503937,
                },
                {
                    "duration": 0.11718731249999337,
                    "durationTicks": 36,
                    "midi": 59,
                    "name": "B3",
                    "ticks": 108160,
                    "time": 352.08277,
                    "velocity": 0.6062992125984252,
                },
                {
                    "duration": 0.11718731249999337,
                    "durationTicks": 36,
                    "midi": 62,
                    "name": "D4",
                    "ticks": 108160,
                    "time": 352.08277,
                    "velocity": 0.6062992125984252,
                },
                {
                    "duration": 0.11718731249999337,
                    "durationTicks": 36,
                    "midi": 59,
                    "name": "B3",
                    "ticks": 108224,
                    "time": 352.29110299999996,
                    "velocity": 0.6535433070866141,
                },
                {
                    "duration": 0.11718731249999337,
                    "durationTicks": 36,
                    "midi": 62,
                    "name": "D4",
                    "ticks": 108224,
                    "time": 352.29110299999996,
                    "velocity": 0.6535433070866141,
                },
                {
                    "duration": 0.11718731249999337,
                    "durationTicks": 36,
                    "midi": 59,
                    "name": "B3",
                    "ticks": 108288,
                    "time": 352.499436,
                    "velocity": 0.6771653543307087,
                },
                {
                    "duration": 0.11718731249999337,
                    "durationTicks": 36,
                    "midi": 62,
                    "name": "D4",
                    "ticks": 108288,
                    "time": 352.499436,
                    "velocity": 0.6771653543307087,
                },
                {
                    "duration": 0.11718731249999337,
                    "durationTicks": 36,
                    "midi": 59,
                    "name": "B3",
                    "ticks": 108352,
                    "time": 352.707769,
                    "velocity": 0.6535433070866141,
                },
                {
                    "duration": 0.11718731249999337,
                    "durationTicks": 36,
                    "midi": 62,
                    "name": "D4",
                    "ticks": 108352,
                    "time": 352.707769,
                    "velocity": 0.6535433070866141,
                },
                {
                    "duration": 0.11718731249999337,
                    "durationTicks": 36,
                    "midi": 59,
                    "name": "B3",
                    "ticks": 108416,
                    "time": 352.91610199999997,
                    "velocity": 0.6850393700787402,
                },
                {
                    "duration": 0.11718731249999337,
                    "durationTicks": 36,
                    "midi": 62,
                    "name": "D4",
                    "ticks": 108416,
                    "time": 352.91610199999997,
                    "velocity": 0.6850393700787402,
                },
                {
                    "duration": 0.11718731249999337,
                    "durationTicks": 36,
                    "midi": 59,
                    "name": "B3",
                    "ticks": 108480,
                    "time": 353.124435,
                    "velocity": 0.7086614173228346,
                },
                {
                    "duration": 0.11718731249999337,
                    "durationTicks": 36,
                    "midi": 62,
                    "name": "D4",
                    "ticks": 108480,
                    "time": 353.124435,
                    "velocity": 0.7086614173228346,
                },
                {
                    "duration": 0.11718731249999337,
                    "durationTicks": 36,
                    "midi": 59,
                    "name": "B3",
                    "ticks": 108544,
                    "time": 353.332768,
                    "velocity": 0.7244094488188977,
                },
                {
                    "duration": 0.11718731249999337,
                    "durationTicks": 36,
                    "midi": 62,
                    "name": "D4",
                    "ticks": 108544,
                    "time": 353.332768,
                    "velocity": 0.7244094488188977,
                },
                {
                    "duration": 0.11718731249999337,
                    "durationTicks": 36,
                    "midi": 59,
                    "name": "B3",
                    "ticks": 108608,
                    "time": 353.54110099999997,
                    "velocity": 0.7244094488188977,
                },
                {
                    "duration": 0.11718731250005021,
                    "durationTicks": 36,
                    "midi": 59,
                    "name": "B3",
                    "ticks": 108672,
                    "time": 353.74943399999995,
                    "velocity": 0.8031496062992126,
                },
                {
                    "duration": 0.11718731249999337,
                    "durationTicks": 36,
                    "midi": 59,
                    "name": "B3",
                    "ticks": 108736,
                    "time": 353.957767,
                    "velocity": 0.8031496062992126,
                },
                {
                    "duration": 0.11718731249999337,
                    "durationTicks": 36,
                    "midi": 59,
                    "name": "B3",
                    "ticks": 108800,
                    "time": 354.1661,
                    "velocity": 0.7952755905511811,
                },
                {
                    "duration": 0.11718731250005021,
                    "durationTicks": 36,
                    "midi": 59,
                    "name": "B3",
                    "ticks": 108864,
                    "time": 354.37443299999995,
                    "velocity": 0.8503937007874016,
                },
                {
                    "duration": 0.11718731249999337,
                    "durationTicks": 36,
                    "midi": 64,
                    "name": "E4",
                    "ticks": 108928,
                    "time": 354.582766,
                    "velocity": 1,
                },
                {
                    "duration": 0.11718731249999337,
                    "durationTicks": 36,
                    "midi": 62,
                    "name": "D4",
                    "ticks": 108992,
                    "time": 354.791099,
                    "velocity": 0.8346456692913385,
                },
                {
                    "duration": 0.7942695625000056,
                    "durationTicks": 244,
                    "midi": 52,
                    "name": "E3",
                    "ticks": 109056,
                    "time": 354.99943199999996,
                    "velocity": 0.7952755905511811,
                },
                {
                    "duration": 0.7942695625000056,
                    "durationTicks": 244,
                    "midi": 60,
                    "name": "C4",
                    "ticks": 109056,
                    "time": 354.99943199999996,
                    "velocity": 0.7952755905511811,
                },
                {
                    "duration": 0.23762982812496602,
                    "durationTicks": 73,
                    "midi": 52,
                    "name": "E3",
                    "ticks": 109312,
                    "time": 355.832764,
                    "velocity": 0.8818897637795275,
                },
                {
                    "duration": 0.23762982812496602,
                    "durationTicks": 73,
                    "midi": 60,
                    "name": "C4",
                    "ticks": 109312,
                    "time": 355.832764,
                    "velocity": 0.8818897637795275,
                },
                {
                    "duration": 0.23762982812502287,
                    "durationTicks": 73,
                    "midi": 52,
                    "name": "E3",
                    "ticks": 109440,
                    "time": 356.24942999999996,
                    "velocity": 0.889763779527559,
                },
                {
                    "duration": 0.23762982812502287,
                    "durationTicks": 73,
                    "midi": 60,
                    "name": "C4",
                    "ticks": 109440,
                    "time": 356.24942999999996,
                    "velocity": 0.889763779527559,
                },
                {
                    "duration": 0.4752596562499889,
                    "durationTicks": 146,
                    "midi": 52,
                    "name": "E3",
                    "ticks": 109568,
                    "time": 356.666096,
                    "velocity": 0.8346456692913385,
                },
                {
                    "duration": 0.4752596562499889,
                    "durationTicks": 146,
                    "midi": 59,
                    "name": "B3",
                    "ticks": 109568,
                    "time": 356.666096,
                    "velocity": 0.8346456692913385,
                },
                {
                    "duration": 0.44921803124998405,
                    "durationTicks": 138,
                    "midi": 52,
                    "name": "E3",
                    "ticks": 109824,
                    "time": 357.49942799999997,
                    "velocity": 0.8740157480314961,
                },
                {
                    "duration": 0.44921803124998405,
                    "durationTicks": 138,
                    "midi": 59,
                    "name": "B3",
                    "ticks": 109824,
                    "time": 357.49942799999997,
                    "velocity": 0.8740157480314961,
                },
                {
                    "duration": 0.7942695625000056,
                    "durationTicks": 244,
                    "midi": 52,
                    "name": "E3",
                    "ticks": 110080,
                    "time": 358.33275999999995,
                    "velocity": 0.8818897637795275,
                },
                {
                    "duration": 0.7942695625000056,
                    "durationTicks": 244,
                    "midi": 59,
                    "name": "B3",
                    "ticks": 110080,
                    "time": 358.33275999999995,
                    "velocity": 0.8818897637795275,
                },
                {
                    "duration": 0.23762982812496602,
                    "durationTicks": 73,
                    "midi": 52,
                    "name": "E3",
                    "ticks": 110336,
                    "time": 359.166092,
                    "velocity": 0.8346456692913385,
                },
                {
                    "duration": 0.23762982812496602,
                    "durationTicks": 73,
                    "midi": 59,
                    "name": "B3",
                    "ticks": 110336,
                    "time": 359.166092,
                    "velocity": 0.8346456692913385,
                },
                {
                    "duration": 0.23762982812502287,
                    "durationTicks": 73,
                    "midi": 52,
                    "name": "E3",
                    "ticks": 110464,
                    "time": 359.58275799999996,
                    "velocity": 0.8976377952755905,
                },
                {
                    "duration": 0.23762982812502287,
                    "durationTicks": 73,
                    "midi": 59,
                    "name": "B3",
                    "ticks": 110464,
                    "time": 359.58275799999996,
                    "velocity": 0.8976377952755905,
                },
                {
                    "duration": 0.4752596562499889,
                    "durationTicks": 146,
                    "midi": 52,
                    "name": "E3",
                    "ticks": 110592,
                    "time": 359.999424,
                    "velocity": 0.889763779527559,
                },
                {
                    "duration": 0.4752596562499889,
                    "durationTicks": 146,
                    "midi": 60,
                    "name": "C4",
                    "ticks": 110592,
                    "time": 359.999424,
                    "velocity": 0.889763779527559,
                },
                {
                    "duration": 0.4492180312500409,
                    "durationTicks": 138,
                    "midi": 52,
                    "name": "E3",
                    "ticks": 110848,
                    "time": 360.83275599999996,
                    "velocity": 0.889763779527559,
                },
                {
                    "duration": 0.4492180312500409,
                    "durationTicks": 138,
                    "midi": 60,
                    "name": "C4",
                    "ticks": 110848,
                    "time": 360.83275599999996,
                    "velocity": 0.889763779527559,
                },
                {
                    "duration": 0.7942695624999487,
                    "durationTicks": 244,
                    "midi": 52,
                    "name": "E3",
                    "ticks": 111104,
                    "time": 361.666088,
                    "velocity": 0.8818897637795275,
                },
                {
                    "duration": 0.7942695624999487,
                    "durationTicks": 244,
                    "midi": 60,
                    "name": "C4",
                    "ticks": 111104,
                    "time": 361.666088,
                    "velocity": 0.8818897637795275,
                },
                {
                    "duration": 0.23762982812496602,
                    "durationTicks": 73,
                    "midi": 52,
                    "name": "E3",
                    "ticks": 111360,
                    "time": 362.49942,
                    "velocity": 0.905511811023622,
                },
                {
                    "duration": 0.23762982812496602,
                    "durationTicks": 73,
                    "midi": 60,
                    "name": "C4",
                    "ticks": 111360,
                    "time": 362.49942,
                    "velocity": 0.905511811023622,
                },
                {
                    "duration": 0.23762982812502287,
                    "durationTicks": 73,
                    "midi": 52,
                    "name": "E3",
                    "ticks": 111488,
                    "time": 362.91608599999995,
                    "velocity": 0.889763779527559,
                },
                {
                    "duration": 0.23762982812502287,
                    "durationTicks": 73,
                    "midi": 60,
                    "name": "C4",
                    "ticks": 111488,
                    "time": 362.91608599999995,
                    "velocity": 0.889763779527559,
                },
                {
                    "duration": 0.4752596562499889,
                    "durationTicks": 146,
                    "midi": 52,
                    "name": "E3",
                    "ticks": 111616,
                    "time": 363.33275199999997,
                    "velocity": 0.952755905511811,
                },
                {
                    "duration": 0.4817700625000043,
                    "durationTicks": 148,
                    "midi": 62,
                    "name": "D4",
                    "ticks": 111616,
                    "time": 363.33275199999997,
                    "velocity": 0.952755905511811,
                },
                {
                    "duration": 0.4492180312500409,
                    "durationTicks": 138,
                    "midi": 52,
                    "name": "E3",
                    "ticks": 111872,
                    "time": 364.16608399999996,
                    "velocity": 0.8110236220472441,
                },
                {
                    "duration": 0.4492180312500409,
                    "durationTicks": 138,
                    "midi": 60,
                    "name": "C4",
                    "ticks": 111872,
                    "time": 364.16608399999996,
                    "velocity": 0.8110236220472441,
                },
                {
                    "duration": 0.7942695625000056,
                    "durationTicks": 244,
                    "midi": 52,
                    "name": "E3",
                    "ticks": 112128,
                    "time": 364.999416,
                    "velocity": 0.8661417322834646,
                },
                {
                    "duration": 0.7942695625000056,
                    "durationTicks": 244,
                    "midi": 59,
                    "name": "B3",
                    "ticks": 112128,
                    "time": 364.999416,
                    "velocity": 0.8661417322834646,
                },
                {
                    "duration": 0.23762982812502287,
                    "durationTicks": 73,
                    "midi": 52,
                    "name": "E3",
                    "ticks": 112384,
                    "time": 365.832748,
                    "velocity": 0.84251968503937,
                },
                {
                    "duration": 0.23762982812502287,
                    "durationTicks": 73,
                    "midi": 57,
                    "name": "A3",
                    "ticks": 112384,
                    "time": 365.832748,
                    "velocity": 0.84251968503937,
                },
                {
                    "duration": 0.23762982812496602,
                    "durationTicks": 73,
                    "midi": 52,
                    "name": "E3",
                    "ticks": 112512,
                    "time": 366.249414,
                    "velocity": 0.952755905511811,
                },
                {
                    "duration": 0.23762982812496602,
                    "durationTicks": 73,
                    "midi": 59,
                    "name": "B3",
                    "ticks": 112512,
                    "time": 366.249414,
                    "velocity": 0.952755905511811,
                },
                {
                    "duration": 0.7942695625000056,
                    "durationTicks": 244,
                    "midi": 52,
                    "name": "E3",
                    "ticks": 112640,
                    "time": 366.66607999999997,
                    "velocity": 0.9606299212598425,
                },
                {
                    "duration": 0.7942695625000056,
                    "durationTicks": 244,
                    "midi": 60,
                    "name": "C4",
                    "ticks": 112640,
                    "time": 366.66607999999997,
                    "velocity": 0.9606299212598425,
                },
                {
                    "duration": 3.2519479218750007,
                    "durationTicks": 999,
                    "midi": 49,
                    "name": "C#3",
                    "ticks": 114688,
                    "time": 373.33273599999995,
                    "velocity": 0.3464566929133858,
                },
                {
                    "duration": 3.2519479218750007,
                    "durationTicks": 999,
                    "midi": 52,
                    "name": "E3",
                    "ticks": 114688,
                    "time": 373.33273599999995,
                    "velocity": 0.3464566929133858,
                },
                {
                    "duration": 2.4609335625000313,
                    "durationTicks": 756,
                    "midi": 50,
                    "name": "D3",
                    "ticks": 115712,
                    "time": 376.66606399999995,
                    "velocity": 0.3937007874015748,
                },
                {
                    "duration": 2.4609335625000313,
                    "durationTicks": 756,
                    "midi": 54,
                    "name": "F#3",
                    "ticks": 115712,
                    "time": 376.66606399999995,
                    "velocity": 0.3937007874015748,
                },
                {
                    "duration": 0.4036451874999898,
                    "durationTicks": 124,
                    "midi": 49,
                    "name": "C#3",
                    "ticks": 116480,
                    "time": 379.16605999999996,
                    "velocity": 0.48031496062992124,
                },
                {
                    "duration": 0.4036451874999898,
                    "durationTicks": 124,
                    "midi": 52,
                    "name": "E3",
                    "ticks": 116480,
                    "time": 379.16605999999996,
                    "velocity": 0.48031496062992124,
                },
                {
                    "duration": 0.37434835937500566,
                    "durationTicks": 115,
                    "midi": 61,
                    "name": "C#4",
                    "ticks": 116608,
                    "time": 379.582726,
                    "velocity": 0.5433070866141733,
                },
                {
                    "duration": 0.8072903749999796,
                    "durationTicks": 248,
                    "midi": 59,
                    "name": "B3",
                    "ticks": 116736,
                    "time": 379.999392,
                    "velocity": 0.5669291338582677,
                },
                {
                    "duration": 0.8072903749999796,
                    "durationTicks": 248,
                    "midi": 62,
                    "name": "D4",
                    "ticks": 116736,
                    "time": 379.999392,
                    "velocity": 0.5669291338582677,
                },
                {
                    "duration": 0.4036451874999898,
                    "durationTicks": 124,
                    "midi": 57,
                    "name": "A3",
                    "ticks": 116992,
                    "time": 380.832724,
                    "velocity": 0.5275590551181102,
                },
                {
                    "duration": 0.4036451874999898,
                    "durationTicks": 124,
                    "midi": 61,
                    "name": "C#4",
                    "ticks": 116992,
                    "time": 380.832724,
                    "velocity": 0.5275590551181102,
                },
                {
                    "duration": 0.3743483593749488,
                    "durationTicks": 115,
                    "midi": 49,
                    "name": "C#3",
                    "ticks": 117120,
                    "time": 381.24939,
                    "velocity": 0.5196850393700787,
                },
                {
                    "duration": 0.3743483593749488,
                    "durationTicks": 115,
                    "midi": 52,
                    "name": "E3",
                    "ticks": 117120,
                    "time": 381.24939,
                    "velocity": 0.5196850393700787,
                },
                {
                    "duration": 0.8072903749999796,
                    "durationTicks": 248,
                    "midi": 50,
                    "name": "D3",
                    "ticks": 117248,
                    "time": 381.66605599999997,
                    "velocity": 0.5905511811023622,
                },
                {
                    "duration": 0.8072903749999796,
                    "durationTicks": 248,
                    "midi": 54,
                    "name": "F#3",
                    "ticks": 117248,
                    "time": 381.66605599999997,
                    "velocity": 0.5905511811023622,
                },
                {
                    "duration": 0.8072903750000364,
                    "durationTicks": 248,
                    "midi": 52,
                    "name": "E3",
                    "ticks": 117504,
                    "time": 382.49938799999995,
                    "velocity": 0.48031496062992124,
                },
                {
                    "duration": 0.8072903749999796,
                    "durationTicks": 248,
                    "midi": 54,
                    "name": "F#3",
                    "ticks": 117760,
                    "time": 383.33272,
                    "velocity": 0.49606299212598426,
                },
                {
                    "duration": 0.7519519218749906,
                    "durationTicks": 231,
                    "midi": 56,
                    "name": "G#3",
                    "ticks": 118016,
                    "time": 384.166052,
                    "velocity": 0.47244094488188976,
                },
                {
                    "duration": 0.8072903750000364,
                    "durationTicks": 248,
                    "midi": 56,
                    "name": "G#3",
                    "ticks": 118272,
                    "time": 384.99938399999996,
                    "velocity": 0.4251968503937008,
                },
                {
                    "duration": 0.3743483593749488,
                    "durationTicks": 115,
                    "midi": 52,
                    "name": "E3",
                    "ticks": 118528,
                    "time": 385.832716,
                    "velocity": 0.3858267716535433,
                },
                {
                    "duration": 0.3971347812500312,
                    "durationTicks": 122,
                    "midi": 52,
                    "name": "E3",
                    "ticks": 118656,
                    "time": 386.24938199999997,
                    "velocity": 0.3937007874015748,
                },
                {
                    "duration": 0.8072903749999796,
                    "durationTicks": 248,
                    "midi": 52,
                    "name": "E3",
                    "ticks": 118784,
                    "time": 386.666048,
                    "velocity": 0.3464566929133858,
                },
                {
                    "duration": 3.128250203124992,
                    "durationTicks": 961,
                    "midi": 49,
                    "name": "C#3",
                    "ticks": 119040,
                    "time": 387.49938,
                    "velocity": 0.3858267716535433,
                },
                {
                    "duration": 1.6601535937500103,
                    "durationTicks": 510,
                    "midi": 50,
                    "name": "D3",
                    "ticks": 120064,
                    "time": 390.83270799999997,
                    "velocity": 0.5748031496062992,
                },
                {
                    "duration": 0.7519519218749906,
                    "durationTicks": 231,
                    "midi": 52,
                    "name": "E3",
                    "ticks": 120576,
                    "time": 392.499372,
                    "velocity": 0.6141732283464567,
                },
                {
                    "duration": 0.8072903749999796,
                    "durationTicks": 248,
                    "midi": 54,
                    "name": "F#3",
                    "ticks": 120832,
                    "time": 393.332704,
                    "velocity": 0.5826771653543307,
                },
                {
                    "duration": 0.8072903750000364,
                    "durationTicks": 248,
                    "midi": 52,
                    "name": "E3",
                    "ticks": 121088,
                    "time": 394.16603599999996,
                    "velocity": 0.49606299212598426,
                },
                {
                    "duration": 0.8072903749999796,
                    "durationTicks": 248,
                    "midi": 54,
                    "name": "F#3",
                    "ticks": 121344,
                    "time": 394.999368,
                    "velocity": 0.5039370078740157,
                },
                {
                    "duration": 0.7519519218749906,
                    "durationTicks": 231,
                    "midi": 56,
                    "name": "G#3",
                    "ticks": 121600,
                    "time": 395.8327,
                    "velocity": 0.5354330708661418,
                },
                {
                    "duration": 1.5852839218750319,
                    "durationTicks": 487,
                    "midi": 52,
                    "name": "E3",
                    "ticks": 121856,
                    "time": 396.666032,
                    "velocity": 0.47244094488188976,
                },
                {
                    "duration": 0.7942695625000056,
                    "durationTicks": 244,
                    "midi": 54,
                    "name": "F#3",
                    "ticks": 122368,
                    "time": 398.332696,
                    "velocity": 0.4330708661417323,
                },
                {
                    "duration": 0.7942695625000056,
                    "durationTicks": 244,
                    "midi": 56,
                    "name": "G#3",
                    "ticks": 122624,
                    "time": 399.166028,
                    "velocity": 0.4566929133858268,
                },
                {
                    "duration": 1.614580750000016,
                    "durationTicks": 496,
                    "midi": 52,
                    "name": "E3",
                    "ticks": 122880,
                    "time": 399.99935999999997,
                    "velocity": 0.4094488188976378,
                },
                {
                    "duration": 0.8072903749999796,
                    "durationTicks": 248,
                    "midi": 54,
                    "name": "F#3",
                    "ticks": 123392,
                    "time": 401.666024,
                    "velocity": 0.5118110236220472,
                },
                {
                    "duration": 0.7519519218749906,
                    "durationTicks": 231,
                    "midi": 56,
                    "name": "G#3",
                    "ticks": 123648,
                    "time": 402.499356,
                    "velocity": 0.48031496062992124,
                },
                {
                    "duration": 1.614580750000016,
                    "durationTicks": 496,
                    "midi": 52,
                    "name": "E3",
                    "ticks": 123904,
                    "time": 403.33268799999996,
                    "velocity": 0.2677165354330709,
                },
                {
                    "duration": 1.614580750000016,
                    "durationTicks": 496,
                    "midi": 57,
                    "name": "A3",
                    "ticks": 124416,
                    "time": 404.999352,
                    "velocity": 0.29133858267716534,
                },
                {
                    "duration": 1.614580750000016,
                    "durationTicks": 496,
                    "midi": 55,
                    "name": "G3",
                    "ticks": 124928,
                    "time": 406.66601599999996,
                    "velocity": 0.2992125984251969,
                },
                {
                    "duration": 1.5039038437499812,
                    "durationTicks": 462,
                    "midi": 53,
                    "name": "F3",
                    "ticks": 125440,
                    "time": 408.33268,
                    "velocity": 0.2755905511811024,
                },
                {
                    "duration": 0.3971347812500312,
                    "durationTicks": 122,
                    "midi": 55,
                    "name": "G3",
                    "ticks": 125952,
                    "time": 409.99934399999995,
                    "velocity": 0.8976377952755905,
                },
                {
                    "duration": 0.39713478124997437,
                    "durationTicks": 122,
                    "midi": 55,
                    "name": "G3",
                    "ticks": 126208,
                    "time": 410.832676,
                    "velocity": 0.8110236220472441,
                },
                {
                    "duration": 0.39713478124997437,
                    "durationTicks": 122,
                    "midi": 67,
                    "name": "G4",
                    "ticks": 126208,
                    "time": 410.832676,
                    "velocity": 0.8110236220472441,
                },
                {
                    "duration": 0.7942695625000056,
                    "durationTicks": 244,
                    "midi": 48,
                    "name": "C3",
                    "ticks": 126464,
                    "time": 411.666008,
                    "velocity": 0.7952755905511811,
                },
                {
                    "duration": 0.7942695625000056,
                    "durationTicks": 244,
                    "midi": 60,
                    "name": "C4",
                    "ticks": 126464,
                    "time": 411.666008,
                    "velocity": 0.7952755905511811,
                },
                {
                    "duration": 0.7942695624999487,
                    "durationTicks": 244,
                    "midi": 59,
                    "name": "B3",
                    "ticks": 126976,
                    "time": 413.332672,
                    "velocity": 0.33070866141732286,
                },
                {
                    "duration": 0.23762982812496602,
                    "durationTicks": 73,
                    "midi": 59,
                    "name": "B3",
                    "ticks": 127232,
                    "time": 414.166004,
                    "velocity": 0.3779527559055118,
                },
                {
                    "duration": 0.23762982812502287,
                    "durationTicks": 73,
                    "midi": 59,
                    "name": "B3",
                    "ticks": 127360,
                    "time": 414.58266999999995,
                    "velocity": 0.36220472440944884,
                },
                {
                    "duration": 0.3971347812500312,
                    "durationTicks": 122,
                    "midi": 57,
                    "name": "A3",
                    "ticks": 127488,
                    "time": 414.99933599999997,
                    "velocity": 0.3700787401574803,
                },
                {
                    "duration": 0.39713478124997437,
                    "durationTicks": 122,
                    "midi": 55,
                    "name": "G3",
                    "ticks": 128000,
                    "time": 416.666,
                    "velocity": 0.7795275590551181,
                },
                {
                    "duration": 0.39713478124997437,
                    "durationTicks": 122,
                    "midi": 55,
                    "name": "G3",
                    "ticks": 128256,
                    "time": 417.499332,
                    "velocity": 0.7874015748031497,
                },
                {
                    "duration": 0.39713478124997437,
                    "durationTicks": 122,
                    "midi": 67,
                    "name": "G4",
                    "ticks": 128256,
                    "time": 417.499332,
                    "velocity": 0.7874015748031497,
                },
                {
                    "duration": 0.7942695625000056,
                    "durationTicks": 244,
                    "midi": 48,
                    "name": "C3",
                    "ticks": 128512,
                    "time": 418.33266399999997,
                    "velocity": 0.8188976377952756,
                },
                {
                    "duration": 0.7942695625000056,
                    "durationTicks": 244,
                    "midi": 60,
                    "name": "C4",
                    "ticks": 128512,
                    "time": 418.33266399999997,
                    "velocity": 0.8188976377952756,
                },
                {
                    "duration": 0.7942695625000056,
                    "durationTicks": 244,
                    "midi": 59,
                    "name": "B3",
                    "ticks": 129024,
                    "time": 419.999328,
                    "velocity": 0.29133858267716534,
                },
                {
                    "duration": 0.23762982812502287,
                    "durationTicks": 73,
                    "midi": 59,
                    "name": "B3",
                    "ticks": 129280,
                    "time": 420.83266,
                    "velocity": 0.3858267716535433,
                },
                {
                    "duration": 0.23762982812496602,
                    "durationTicks": 73,
                    "midi": 59,
                    "name": "B3",
                    "ticks": 129408,
                    "time": 421.249326,
                    "velocity": 0.4251968503937008,
                },
                {
                    "duration": 0.9223771874999898,
                    "durationTicks": 244,
                    "midi": 57,
                    "name": "A3",
                    "ticks": 140800,
                    "time": 458.33259999999996,
                    "velocity": 0.7165354330708661,
                },
            ],
            "endOfTrackTicks": 141045,
        },
        {
            "channel": 8,
            "controlChanges": {
                "7": [
                    {
                        "number": 7,
                        "ticks": 130048,
                        "time": 423.332656,
                        "value": 0.7480314960629921,
                    }
                ],
                "10": [
                    {
                        "number": 10,
                        "ticks": 130048,
                        "time": 423.332656,
                        "value": 0.5905511811023622,
                    }
                ],
                "91": [
                    {
                        "number": 91,
                        "ticks": 130048,
                        "time": 423.332656,
                        "value": 0.4645669291338583,
                    }
                ],
            },
            "pitchBends": [],
            "instrument": {
                "family": "strings",
                "number": 45,
                "name": "pizzicato strings",
            },
            "name": "",
            "notes": [
                {
                    "duration": 0.7942695625000056,
                    "durationTicks": 244,
                    "midi": 57,
                    "name": "A3",
                    "ticks": 130304,
                    "time": 424.16598799999997,
                    "velocity": 0.3464566929133858,
                },
                {
                    "duration": 0.7942695625000056,
                    "durationTicks": 244,
                    "midi": 52,
                    "name": "E3",
                    "ticks": 130816,
                    "time": 425.832652,
                    "velocity": 0.36220472440944884,
                },
                {
                    "duration": 0.7942695625000056,
                    "durationTicks": 244,
                    "midi": 52,
                    "name": "E3",
                    "ticks": 131328,
                    "time": 427.49931599999996,
                    "velocity": 0.33070866141732286,
                },
                {
                    "duration": 0.7942695625000056,
                    "durationTicks": 244,
                    "midi": 57,
                    "name": "A3",
                    "ticks": 131840,
                    "time": 429.16598,
                    "velocity": 0.3228346456692913,
                },
                {
                    "duration": 0.7942695625000056,
                    "durationTicks": 244,
                    "midi": 57,
                    "name": "A3",
                    "ticks": 132352,
                    "time": 430.83264399999996,
                    "velocity": 0.36220472440944884,
                },
                {
                    "duration": 0.7942695625000056,
                    "durationTicks": 244,
                    "midi": 55,
                    "name": "G3",
                    "ticks": 132864,
                    "time": 432.499308,
                    "velocity": 0.2440944881889764,
                },
                {
                    "duration": 0.7942695625000056,
                    "durationTicks": 244,
                    "midi": 55,
                    "name": "G3",
                    "ticks": 133120,
                    "time": 433.33263999999997,
                    "velocity": 0.29133858267716534,
                },
                {
                    "duration": 0.3971347812500312,
                    "durationTicks": 122,
                    "midi": 55,
                    "name": "G3",
                    "ticks": 133376,
                    "time": 434.16597199999995,
                    "velocity": 0.2755905511811024,
                },
                {
                    "duration": 0.39713478124997437,
                    "durationTicks": 122,
                    "midi": 55,
                    "name": "G3",
                    "ticks": 133504,
                    "time": 434.582638,
                    "velocity": 0.2440944881889764,
                },
                {
                    "duration": 0.7942695625000056,
                    "durationTicks": 244,
                    "midi": 55,
                    "name": "G3",
                    "ticks": 133632,
                    "time": 434.999304,
                    "velocity": 0.28346456692913385,
                },
                {
                    "duration": 0.7942695625000056,
                    "durationTicks": 244,
                    "midi": 60,
                    "name": "C4",
                    "ticks": 134400,
                    "time": 437.49929999999995,
                    "velocity": 0.25984251968503935,
                },
                {
                    "duration": 0.7942695625000056,
                    "durationTicks": 244,
                    "midi": 59,
                    "name": "B3",
                    "ticks": 134912,
                    "time": 439.165964,
                    "velocity": 0.29133858267716534,
                },
                {
                    "duration": 0.7942695624999487,
                    "durationTicks": 244,
                    "midi": 64,
                    "name": "E4",
                    "ticks": 135424,
                    "time": 440.832628,
                    "velocity": 0.2440944881889764,
                },
                {
                    "duration": 0.7942695625000056,
                    "durationTicks": 244,
                    "midi": 57,
                    "name": "A3",
                    "ticks": 135936,
                    "time": 442.49929199999997,
                    "velocity": 0.2440944881889764,
                },
                {
                    "duration": 0.7942695625000056,
                    "durationTicks": 244,
                    "midi": 52,
                    "name": "E3",
                    "ticks": 136448,
                    "time": 444.165956,
                    "velocity": 0.25196850393700787,
                },
                {
                    "duration": 0.7942695625000056,
                    "durationTicks": 244,
                    "midi": 52,
                    "name": "E3",
                    "ticks": 136704,
                    "time": 444.999288,
                    "velocity": 0.25196850393700787,
                },
                {
                    "duration": 0.7942695625000056,
                    "durationTicks": 244,
                    "midi": 52,
                    "name": "E3",
                    "ticks": 136960,
                    "time": 445.83261999999996,
                    "velocity": 0.2677165354330709,
                },
                {
                    "duration": 0.7942695625000056,
                    "durationTicks": 244,
                    "midi": 52,
                    "name": "E3",
                    "ticks": 137216,
                    "time": 446.66595199999995,
                    "velocity": 0.2677165354330709,
                },
                {
                    "duration": 0.39713478124997437,
                    "durationTicks": 122,
                    "midi": 52,
                    "name": "E3",
                    "ticks": 137472,
                    "time": 447.499284,
                    "velocity": 0.2440944881889764,
                },
                {
                    "duration": 0.3971347812500312,
                    "durationTicks": 122,
                    "midi": 52,
                    "name": "E3",
                    "ticks": 137600,
                    "time": 447.91594999999995,
                    "velocity": 0.25984251968503935,
                },
                {
                    "duration": 0.7942695625000056,
                    "durationTicks": 244,
                    "midi": 52,
                    "name": "E3",
                    "ticks": 137728,
                    "time": 448.332616,
                    "velocity": 0.28346456692913385,
                },
                {
                    "duration": 0.7942695625000056,
                    "durationTicks": 244,
                    "midi": 52,
                    "name": "E3",
                    "ticks": 139264,
                    "time": 453.332608,
                    "velocity": 0.33858267716535434,
                },
                {
                    "duration": 0.39713478124997437,
                    "durationTicks": 122,
                    "midi": 52,
                    "name": "E3",
                    "ticks": 139520,
                    "time": 454.16594,
                    "velocity": 0.4015748031496063,
                },
                {
                    "duration": 0.39713478124997437,
                    "durationTicks": 122,
                    "midi": 52,
                    "name": "E3",
                    "ticks": 139648,
                    "time": 454.582606,
                    "velocity": 0.3543307086614173,
                },
                {
                    "duration": 0.7942695625000056,
                    "durationTicks": 244,
                    "midi": 52,
                    "name": "E3",
                    "ticks": 139776,
                    "time": 454.99927199999996,
                    "velocity": 0.5039370078740157,
                },
                {
                    "duration": 0.3971347812500312,
                    "durationTicks": 122,
                    "midi": 54,
                    "name": "F#3",
                    "ticks": 140032,
                    "time": 455.83260399999995,
                    "velocity": 0.5118110236220472,
                },
                {
                    "duration": 0.3971347812500312,
                    "durationTicks": 122,
                    "midi": 56,
                    "name": "G#3",
                    "ticks": 140160,
                    "time": 456.24926999999997,
                    "velocity": 0.5039370078740157,
                },
                {
                    "duration": 0.7942695625000056,
                    "durationTicks": 244,
                    "midi": 57,
                    "name": "A3",
                    "ticks": 140288,
                    "time": 456.665936,
                    "velocity": 0.49606299212598426,
                },
            ],
        },
        {
            "channel": 10,
            "controlChanges": {
                "7": [
                    {"number": 7, "ticks": 0, "time": 0, "value": 0.6929133858267716},
                    {
                        "number": 7,
                        "ticks": 74408,
                        "time": 242.213154125,
                        "value": 0.6929133858267716,
                    },
                    {
                        "number": 7,
                        "ticks": 97280,
                        "time": 316.66616,
                        "value": 0.6929133858267716,
                    },
                    {
                        "number": 7,
                        "ticks": 123904,
                        "time": 403.33268799999996,
                        "value": 0.6929133858267716,
                    },
                    {
                        "number": 7,
                        "ticks": 140800,
                        "time": 458.33259999999996,
                        "value": 0.6929133858267716,
                    },
                ],
                "10": [
                    {"number": 10, "ticks": 0, "time": 0, "value": 0.7480314960629921},
                    {
                        "number": 10,
                        "ticks": 74408,
                        "time": 242.213154125,
                        "value": 0.7480314960629921,
                    },
                    {
                        "number": 10,
                        "ticks": 97280,
                        "time": 316.66616,
                        "value": 0.7480314960629921,
                    },
                    {
                        "number": 10,
                        "ticks": 123904,
                        "time": 403.33268799999996,
                        "value": 0.7480314960629921,
                    },
                    {
                        "number": 10,
                        "ticks": 140800,
                        "time": 458.33259999999996,
                        "value": 0.7480314960629921,
                    },
                ],
                "64": [{"number": 64, "ticks": 0, "time": 0, "value": 0}],
                "91": [
                    {"number": 91, "ticks": 0, "time": 0, "value": 0.44881889763779526},
                    {
                        "number": 91,
                        "ticks": 74408,
                        "time": 242.213154125,
                        "value": 0.4645669291338583,
                    },
                    {
                        "number": 91,
                        "ticks": 97280,
                        "time": 316.66616,
                        "value": 0.4645669291338583,
                    },
                    {
                        "number": 91,
                        "ticks": 123904,
                        "time": 403.33268799999996,
                        "value": 0.4645669291338583,
                    },
                    {
                        "number": 91,
                        "ticks": 140800,
                        "time": 458.33259999999996,
                        "value": 0.4645669291338583,
                    },
                ],
                "121": [{"number": 121, "ticks": 0, "time": 0, "value": 0}],
            },
            "pitchBends": [],
            "instrument": {
                "family": "ensemble",
                "number": 48,
                "name": "string ensemble 1",
            },
            "name": "Cellos",
            "notes": [
                {
                    "duration": 0.8333320000000004,
                    "durationTicks": 256,
                    "midi": 48,
                    "name": "C3",
                    "ticks": 1024,
                    "time": 3.333328,
                    "velocity": 0.3858267716535433,
                },
                {
                    "duration": 0.24739543749999982,
                    "durationTicks": 76,
                    "midi": 48,
                    "name": "C3",
                    "ticks": 1280,
                    "time": 4.16666,
                    "velocity": 0.3779527559055118,
                },
                {
                    "duration": 0.24739543749999982,
                    "durationTicks": 76,
                    "midi": 48,
                    "name": "C3",
                    "ticks": 1408,
                    "time": 4.583326,
                    "velocity": 0.36220472440944884,
                },
                {
                    "duration": 0.49804607812499935,
                    "durationTicks": 153,
                    "midi": 47,
                    "name": "B2",
                    "ticks": 1536,
                    "time": 4.999992,
                    "velocity": 0.3464566929133858,
                },
                {
                    "duration": 0.4720044531250007,
                    "durationTicks": 145,
                    "midi": 47,
                    "name": "B2",
                    "ticks": 1792,
                    "time": 5.833323999999999,
                    "velocity": 0.36220472440944884,
                },
                {
                    "duration": 0.8333320000000004,
                    "durationTicks": 256,
                    "midi": 47,
                    "name": "B2",
                    "ticks": 2048,
                    "time": 6.666656,
                    "velocity": 0.3779527559055118,
                },
                {
                    "duration": 0.24739543749999982,
                    "durationTicks": 76,
                    "midi": 47,
                    "name": "B2",
                    "ticks": 2304,
                    "time": 7.499988,
                    "velocity": 0.3779527559055118,
                },
                {
                    "duration": 0.24739543749999982,
                    "durationTicks": 76,
                    "midi": 47,
                    "name": "B2",
                    "ticks": 2432,
                    "time": 7.916653999999999,
                    "velocity": 0.3779527559055118,
                },
                {
                    "duration": 0.49804607812500024,
                    "durationTicks": 153,
                    "midi": 48,
                    "name": "C3",
                    "ticks": 2560,
                    "time": 8.33332,
                    "velocity": 0.3937007874015748,
                },
                {
                    "duration": 0.4720044531250007,
                    "durationTicks": 145,
                    "midi": 48,
                    "name": "C3",
                    "ticks": 2816,
                    "time": 9.166652,
                    "velocity": 0.36220472440944884,
                },
                {
                    "duration": 0.8333320000000004,
                    "durationTicks": 256,
                    "midi": 48,
                    "name": "C3",
                    "ticks": 3072,
                    "time": 9.999984,
                    "velocity": 0.36220472440944884,
                },
                {
                    "duration": 0.24739543749999982,
                    "durationTicks": 76,
                    "midi": 48,
                    "name": "C3",
                    "ticks": 3328,
                    "time": 10.833316,
                    "velocity": 0.4015748031496063,
                },
                {
                    "duration": 0.24739543749999982,
                    "durationTicks": 76,
                    "midi": 48,
                    "name": "C3",
                    "ticks": 3456,
                    "time": 11.249982,
                    "velocity": 0.3700787401574803,
                },
                {
                    "duration": 0.49804607812499846,
                    "durationTicks": 153,
                    "midi": 48,
                    "name": "C3",
                    "ticks": 3584,
                    "time": 11.666648,
                    "velocity": 0.3700787401574803,
                },
                {
                    "duration": 0.4720044531250007,
                    "durationTicks": 145,
                    "midi": 48,
                    "name": "C3",
                    "ticks": 3840,
                    "time": 12.499979999999999,
                    "velocity": 0.3464566929133858,
                },
                {
                    "duration": 0.8333320000000004,
                    "durationTicks": 256,
                    "midi": 47,
                    "name": "B2",
                    "ticks": 4096,
                    "time": 13.333312,
                    "velocity": 0.33858267716535434,
                },
                {
                    "duration": 0.24739543749999982,
                    "durationTicks": 76,
                    "midi": 45,
                    "name": "A2",
                    "ticks": 4352,
                    "time": 14.166644,
                    "velocity": 0.3700787401574803,
                },
                {
                    "duration": 0.24739543749999982,
                    "durationTicks": 76,
                    "midi": 47,
                    "name": "B2",
                    "ticks": 4480,
                    "time": 14.583309999999999,
                    "velocity": 0.36220472440944884,
                },
                {
                    "duration": 0.8333320000000004,
                    "durationTicks": 256,
                    "midi": 48,
                    "name": "C3",
                    "ticks": 4608,
                    "time": 14.999975999999998,
                    "velocity": 0.3779527559055118,
                },
                {
                    "duration": 0.8333319999999986,
                    "durationTicks": 256,
                    "midi": 52,
                    "name": "E3",
                    "ticks": 5120,
                    "time": 16.66664,
                    "velocity": 0.33858267716535434,
                },
                {
                    "duration": 0.24739543749999982,
                    "durationTicks": 76,
                    "midi": 52,
                    "name": "E3",
                    "ticks": 5376,
                    "time": 17.499972,
                    "velocity": 0.36220472440944884,
                },
                {
                    "duration": 0.24739543749999982,
                    "durationTicks": 76,
                    "midi": 52,
                    "name": "E3",
                    "ticks": 5504,
                    "time": 17.916638,
                    "velocity": 0.3700787401574803,
                },
                {
                    "duration": 0.49804607812500024,
                    "durationTicks": 153,
                    "midi": 51,
                    "name": "D#3",
                    "ticks": 5632,
                    "time": 18.333304,
                    "velocity": 0.3858267716535433,
                },
                {
                    "duration": 0.4720044531250025,
                    "durationTicks": 145,
                    "midi": 51,
                    "name": "D#3",
                    "ticks": 5888,
                    "time": 19.166635999999997,
                    "velocity": 0.36220472440944884,
                },
                {
                    "duration": 0.8333319999999986,
                    "durationTicks": 256,
                    "midi": 50,
                    "name": "D3",
                    "ticks": 6144,
                    "time": 19.999968000000003,
                    "velocity": 0.36220472440944884,
                },
                {
                    "duration": 0.24739543749999626,
                    "durationTicks": 76,
                    "midi": 50,
                    "name": "D3",
                    "ticks": 6400,
                    "time": 20.8333,
                    "velocity": 0.3779527559055118,
                },
                {
                    "duration": 0.24739543749999626,
                    "durationTicks": 76,
                    "midi": 50,
                    "name": "D3",
                    "ticks": 6528,
                    "time": 21.249966,
                    "velocity": 0.4094488188976378,
                },
                {
                    "duration": 0.507811687500002,
                    "durationTicks": 156,
                    "midi": 49,
                    "name": "C#3",
                    "ticks": 6656,
                    "time": 21.666632,
                    "velocity": 0.36220472440944884,
                },
                {
                    "duration": 0.4720044531250025,
                    "durationTicks": 145,
                    "midi": 48,
                    "name": "C3",
                    "ticks": 6912,
                    "time": 22.499964,
                    "velocity": 0.3779527559055118,
                },
                {
                    "duration": 0.8333319999999986,
                    "durationTicks": 256,
                    "midi": 48,
                    "name": "C3",
                    "ticks": 7168,
                    "time": 23.333295999999997,
                    "velocity": 0.36220472440944884,
                },
                {
                    "duration": 0.24739543750000337,
                    "durationTicks": 76,
                    "midi": 48,
                    "name": "C3",
                    "ticks": 7424,
                    "time": 24.166627999999996,
                    "velocity": 0.3700787401574803,
                },
                {
                    "duration": 0.24739543749999626,
                    "durationTicks": 76,
                    "midi": 48,
                    "name": "C3",
                    "ticks": 7552,
                    "time": 24.583294000000002,
                    "velocity": 0.3937007874015748,
                },
                {
                    "duration": 0.507811687499995,
                    "durationTicks": 156,
                    "midi": 47,
                    "name": "B2",
                    "ticks": 7680,
                    "time": 24.99996,
                    "velocity": 0.3543307086614173,
                },
                {
                    "duration": 0.4720044531249954,
                    "durationTicks": 145,
                    "midi": 48,
                    "name": "C3",
                    "ticks": 7936,
                    "time": 25.833292,
                    "velocity": 0.3937007874015748,
                },
                {
                    "duration": 0.8333319999999986,
                    "durationTicks": 256,
                    "midi": 47,
                    "name": "B2",
                    "ticks": 8192,
                    "time": 26.666624,
                    "velocity": 0.3543307086614173,
                },
                {
                    "duration": 0.24739543750000337,
                    "durationTicks": 76,
                    "midi": 47,
                    "name": "B2",
                    "ticks": 8448,
                    "time": 27.499955999999997,
                    "velocity": 0.3779527559055118,
                },
                {
                    "duration": 0.24739543750000337,
                    "durationTicks": 76,
                    "midi": 47,
                    "name": "B2",
                    "ticks": 8576,
                    "time": 27.916621999999997,
                    "velocity": 0.3779527559055118,
                },
                {
                    "duration": 0.8333320000000057,
                    "durationTicks": 256,
                    "midi": 48,
                    "name": "C3",
                    "ticks": 8704,
                    "time": 28.333287999999996,
                    "velocity": 0.3937007874015748,
                },
                {
                    "duration": 0.8333319999999986,
                    "durationTicks": 256,
                    "midi": 52,
                    "name": "E3",
                    "ticks": 9216,
                    "time": 29.999952,
                    "velocity": 0.23622047244094488,
                },
                {
                    "duration": 0.24739543749999626,
                    "durationTicks": 76,
                    "midi": 52,
                    "name": "E3",
                    "ticks": 9472,
                    "time": 30.833284,
                    "velocity": 0.2677165354330709,
                },
                {
                    "duration": 0.24739543750000337,
                    "durationTicks": 76,
                    "midi": 52,
                    "name": "E3",
                    "ticks": 9600,
                    "time": 31.24995,
                    "velocity": 0.3228346456692913,
                },
                {
                    "duration": 0.49804607812500024,
                    "durationTicks": 153,
                    "midi": 51,
                    "name": "D#3",
                    "ticks": 9728,
                    "time": 31.666615999999998,
                    "velocity": 0.30708661417322836,
                },
                {
                    "duration": 0.4720044531250025,
                    "durationTicks": 145,
                    "midi": 51,
                    "name": "D#3",
                    "ticks": 9984,
                    "time": 32.499947999999996,
                    "velocity": 0.23622047244094488,
                },
                {
                    "duration": 0.8333319999999986,
                    "durationTicks": 256,
                    "midi": 50,
                    "name": "D3",
                    "ticks": 10240,
                    "time": 33.33328,
                    "velocity": 0.2992125984251969,
                },
                {
                    "duration": 0.24739543749999626,
                    "durationTicks": 76,
                    "midi": 50,
                    "name": "D3",
                    "ticks": 10496,
                    "time": 34.166612,
                    "velocity": 0.28346456692913385,
                },
                {
                    "duration": 0.24739543749999626,
                    "durationTicks": 76,
                    "midi": 50,
                    "name": "D3",
                    "ticks": 10624,
                    "time": 34.583278,
                    "velocity": 0.2755905511811024,
                },
                {
                    "duration": 0.507811687500002,
                    "durationTicks": 156,
                    "midi": 49,
                    "name": "C#3",
                    "ticks": 10752,
                    "time": 34.999944,
                    "velocity": 0.29133858267716534,
                },
                {
                    "duration": 0.4720044531250025,
                    "durationTicks": 145,
                    "midi": 48,
                    "name": "C3",
                    "ticks": 11008,
                    "time": 35.833276,
                    "velocity": 0.25984251968503935,
                },
                {
                    "duration": 0.8333319999999986,
                    "durationTicks": 256,
                    "midi": 48,
                    "name": "C3",
                    "ticks": 11264,
                    "time": 36.666608000000004,
                    "velocity": 0.28346456692913385,
                },
                {
                    "duration": 0.24739543749999626,
                    "durationTicks": 76,
                    "midi": 48,
                    "name": "C3",
                    "ticks": 11520,
                    "time": 37.49994,
                    "velocity": 0.29133858267716534,
                },
                {
                    "duration": 0.24739543749999626,
                    "durationTicks": 76,
                    "midi": 48,
                    "name": "C3",
                    "ticks": 11648,
                    "time": 37.916606,
                    "velocity": 0.25984251968503935,
                },
                {
                    "duration": 0.507811687500002,
                    "durationTicks": 156,
                    "midi": 47,
                    "name": "B2",
                    "ticks": 11776,
                    "time": 38.333272,
                    "velocity": 0.28346456692913385,
                },
                {
                    "duration": 0.4720044531250025,
                    "durationTicks": 145,
                    "midi": 48,
                    "name": "C3",
                    "ticks": 12032,
                    "time": 39.166604,
                    "velocity": 0.30708661417322836,
                },
                {
                    "duration": 0.8333319999999986,
                    "durationTicks": 256,
                    "midi": 47,
                    "name": "B2",
                    "ticks": 12288,
                    "time": 39.999936,
                    "velocity": 0.28346456692913385,
                },
                {
                    "duration": 0.24739543750000337,
                    "durationTicks": 76,
                    "midi": 47,
                    "name": "B2",
                    "ticks": 12544,
                    "time": 40.833268,
                    "velocity": 0.2440944881889764,
                },
                {
                    "duration": 0.24739543749999626,
                    "durationTicks": 76,
                    "midi": 47,
                    "name": "B2",
                    "ticks": 12672,
                    "time": 41.249934,
                    "velocity": 0.2992125984251969,
                },
                {
                    "duration": 0.8333319999999986,
                    "durationTicks": 256,
                    "midi": 48,
                    "name": "C3",
                    "ticks": 12800,
                    "time": 41.6666,
                    "velocity": 0.2677165354330709,
                },
                {
                    "duration": 1.6992160312500033,
                    "durationTicks": 522,
                    "midi": 60,
                    "name": "C4",
                    "ticks": 13312,
                    "time": 43.333264,
                    "velocity": 0.3464566929133858,
                },
                {
                    "duration": 1.5527318906250045,
                    "durationTicks": 477,
                    "midi": 59,
                    "name": "B3",
                    "ticks": 13824,
                    "time": 44.999928,
                    "velocity": 0.3543307086614173,
                },
                {
                    "duration": 0.2083329999999961,
                    "durationTicks": 64,
                    "midi": 59,
                    "name": "B3",
                    "ticks": 14336,
                    "time": 46.666592,
                    "velocity": 0.36220472440944884,
                },
                {
                    "duration": 0.2083330000000032,
                    "durationTicks": 64,
                    "midi": 60,
                    "name": "C4",
                    "ticks": 14400,
                    "time": 46.874925,
                    "velocity": 0.36220472440944884,
                },
                {
                    "duration": 0.8333319999999986,
                    "durationTicks": 256,
                    "midi": 62,
                    "name": "D4",
                    "ticks": 14464,
                    "time": 47.083258,
                    "velocity": 0.36220472440944884,
                },
                {
                    "duration": 0.2115882031249967,
                    "durationTicks": 65,
                    "midi": 60,
                    "name": "C4",
                    "ticks": 14720,
                    "time": 47.91659,
                    "velocity": 0.36220472440944884,
                },
                {
                    "duration": 0.19531218749999368,
                    "durationTicks": 60,
                    "midi": 59,
                    "name": "B3",
                    "ticks": 14784,
                    "time": 48.124923,
                    "velocity": 0.3858267716535433,
                },
                {
                    "duration": 0.4231764062500005,
                    "durationTicks": 130,
                    "midi": 59,
                    "name": "B3",
                    "ticks": 14848,
                    "time": 48.333256,
                    "velocity": 0.36220472440944884,
                },
                {
                    "duration": 0.3938795781250022,
                    "durationTicks": 121,
                    "midi": 60,
                    "name": "C4",
                    "ticks": 14976,
                    "time": 48.749922,
                    "velocity": 0.3700787401574803,
                },
                {
                    "duration": 0.8333319999999986,
                    "durationTicks": 256,
                    "midi": 60,
                    "name": "C4",
                    "ticks": 15104,
                    "time": 49.166588,
                    "velocity": 0.3937007874015748,
                },
                {
                    "duration": 1.249998000000005,
                    "durationTicks": 384,
                    "midi": 60,
                    "name": "C4",
                    "ticks": 15360,
                    "time": 49.999919999999996,
                    "velocity": 0.36220472440944884,
                },
                {
                    "duration": 0.2115882031249967,
                    "durationTicks": 65,
                    "midi": 60,
                    "name": "C4",
                    "ticks": 15744,
                    "time": 51.249918,
                    "velocity": 0.3937007874015748,
                },
                {
                    "duration": 0.1953121875000008,
                    "durationTicks": 60,
                    "midi": 62,
                    "name": "D4",
                    "ticks": 15808,
                    "time": 51.458251,
                    "velocity": 0.3858267716535433,
                },
                {
                    "duration": 0.4231764062500005,
                    "durationTicks": 130,
                    "midi": 63,
                    "name": "D#4",
                    "ticks": 15872,
                    "time": 51.666584,
                    "velocity": 0.36220472440944884,
                },
                {
                    "duration": 0.3938795781250022,
                    "durationTicks": 121,
                    "midi": 64,
                    "name": "E4",
                    "ticks": 16000,
                    "time": 52.08325,
                    "velocity": 0.3858267716535433,
                },
                {
                    "duration": 0.24739543750000337,
                    "durationTicks": 76,
                    "midi": 64,
                    "name": "E4",
                    "ticks": 16128,
                    "time": 52.499916,
                    "velocity": 0.4015748031496063,
                },
                {
                    "duration": 0.24739543750000337,
                    "durationTicks": 76,
                    "midi": 64,
                    "name": "E4",
                    "ticks": 16256,
                    "time": 52.916582,
                    "velocity": 0.3779527559055118,
                },
                {
                    "duration": 0.21158820312500382,
                    "durationTicks": 65,
                    "midi": 62,
                    "name": "D4",
                    "ticks": 16384,
                    "time": 53.333248,
                    "velocity": 0.3543307086614173,
                },
                {
                    "duration": 0.2115882031249967,
                    "durationTicks": 65,
                    "midi": 64,
                    "name": "E4",
                    "ticks": 16448,
                    "time": 53.541581,
                    "velocity": 0.41732283464566927,
                },
                {
                    "duration": 0.8496080156250017,
                    "durationTicks": 261,
                    "midi": 65,
                    "name": "F4",
                    "ticks": 16512,
                    "time": 53.749914,
                    "velocity": 0.3937007874015748,
                },
                {
                    "duration": 0.2115882031249967,
                    "durationTicks": 65,
                    "midi": 64,
                    "name": "E4",
                    "ticks": 16768,
                    "time": 54.583246,
                    "velocity": 0.3700787401574803,
                },
                {
                    "duration": 0.1953121875000008,
                    "durationTicks": 60,
                    "midi": 62,
                    "name": "D4",
                    "ticks": 16832,
                    "time": 54.791579,
                    "velocity": 0.33070866141732286,
                },
                {
                    "duration": 0.4231764062500005,
                    "durationTicks": 130,
                    "midi": 62,
                    "name": "D4",
                    "ticks": 16896,
                    "time": 54.999912,
                    "velocity": 0.36220472440944884,
                },
                {
                    "duration": 0.3938795781249951,
                    "durationTicks": 121,
                    "midi": 64,
                    "name": "E4",
                    "ticks": 17024,
                    "time": 55.416578,
                    "velocity": 0.41732283464566927,
                },
                {
                    "duration": 0.8333319999999986,
                    "durationTicks": 256,
                    "midi": 64,
                    "name": "E4",
                    "ticks": 17152,
                    "time": 55.833244,
                    "velocity": 0.3700787401574803,
                },
                {
                    "duration": 1.6992160312500033,
                    "durationTicks": 522,
                    "midi": 64,
                    "name": "E4",
                    "ticks": 17408,
                    "time": 56.666576,
                    "velocity": 0.4015748031496063,
                },
                {
                    "duration": 1.5820287187500028,
                    "durationTicks": 486,
                    "midi": 63,
                    "name": "D#4",
                    "ticks": 17920,
                    "time": 58.333239999999996,
                    "velocity": 0.3779527559055118,
                },
                {
                    "duration": 0.4231764062500005,
                    "durationTicks": 130,
                    "midi": 62,
                    "name": "D4",
                    "ticks": 18432,
                    "time": 59.999904,
                    "velocity": 0.3779527559055118,
                },
                {
                    "duration": 0.2115882031249967,
                    "durationTicks": 65,
                    "midi": 59,
                    "name": "B3",
                    "ticks": 18560,
                    "time": 60.41657,
                    "velocity": 0.3543307086614173,
                },
                {
                    "duration": 0.21158820312500382,
                    "durationTicks": 65,
                    "midi": 61,
                    "name": "C#4",
                    "ticks": 18624,
                    "time": 60.624902999999996,
                    "velocity": 0.3700787401574803,
                },
                {
                    "duration": 0.4231764062500005,
                    "durationTicks": 130,
                    "midi": 62,
                    "name": "D4",
                    "ticks": 18688,
                    "time": 60.833236,
                    "velocity": 0.3937007874015748,
                },
                {
                    "duration": 0.2115882031249967,
                    "durationTicks": 65,
                    "midi": 64,
                    "name": "E4",
                    "ticks": 18816,
                    "time": 61.249902,
                    "velocity": 0.4094488188976378,
                },
                {
                    "duration": 0.19531218749999368,
                    "durationTicks": 60,
                    "midi": 62,
                    "name": "D4",
                    "ticks": 18880,
                    "time": 61.458235,
                    "velocity": 0.3543307086614173,
                },
                {
                    "duration": 0.4231764062500005,
                    "durationTicks": 130,
                    "midi": 62,
                    "name": "D4",
                    "ticks": 18944,
                    "time": 61.666568,
                    "velocity": 0.41732283464566927,
                },
                {
                    "duration": 0.3938795781250022,
                    "durationTicks": 121,
                    "midi": 61,
                    "name": "C#4",
                    "ticks": 19072,
                    "time": 62.083234,
                    "velocity": 0.4015748031496063,
                },
                {
                    "duration": 0.8333320000000057,
                    "durationTicks": 256,
                    "midi": 60,
                    "name": "C4",
                    "ticks": 19200,
                    "time": 62.4999,
                    "velocity": 0.3543307086614173,
                },
                {
                    "duration": 1.6992160312499962,
                    "durationTicks": 522,
                    "midi": 60,
                    "name": "C4",
                    "ticks": 19456,
                    "time": 63.333232,
                    "velocity": 0.3858267716535433,
                },
                {
                    "duration": 0.8496080156250088,
                    "durationTicks": 261,
                    "midi": 59,
                    "name": "B3",
                    "ticks": 19968,
                    "time": 64.99989599999999,
                    "velocity": 0.3464566929133858,
                },
                {
                    "duration": 0.7193998906249988,
                    "durationTicks": 221,
                    "midi": 60,
                    "name": "C4",
                    "ticks": 20224,
                    "time": 65.83322799999999,
                    "velocity": 0.3543307086614173,
                },
                {
                    "duration": 0.20833300000001032,
                    "durationTicks": 64,
                    "midi": 59,
                    "name": "B3",
                    "ticks": 20480,
                    "time": 66.66655999999999,
                    "velocity": 0.3937007874015748,
                },
                {
                    "duration": 0.2083329999999961,
                    "durationTicks": 64,
                    "midi": 60,
                    "name": "C4",
                    "ticks": 20544,
                    "time": 66.874893,
                    "velocity": 0.3937007874015748,
                },
                {
                    "duration": 0.8333319999999986,
                    "durationTicks": 256,
                    "midi": 62,
                    "name": "D4",
                    "ticks": 20608,
                    "time": 67.083226,
                    "velocity": 0.3937007874015748,
                },
                {
                    "duration": 0.2115882031249896,
                    "durationTicks": 65,
                    "midi": 60,
                    "name": "C4",
                    "ticks": 20864,
                    "time": 67.916558,
                    "velocity": 0.3937007874015748,
                },
                {
                    "duration": 0.19531218749999368,
                    "durationTicks": 60,
                    "midi": 59,
                    "name": "B3",
                    "ticks": 20928,
                    "time": 68.12489099999999,
                    "velocity": 0.3543307086614173,
                },
                {
                    "duration": 0.24739543750000337,
                    "durationTicks": 76,
                    "midi": 57,
                    "name": "A3",
                    "ticks": 20992,
                    "time": 68.33322399999999,
                    "velocity": 0.3543307086614173,
                },
                {
                    "duration": 0.21158820312500382,
                    "durationTicks": 65,
                    "midi": 57,
                    "name": "A3",
                    "ticks": 21120,
                    "time": 68.74989,
                    "velocity": 0.33858267716535434,
                },
                {
                    "duration": 0.1953121875000079,
                    "durationTicks": 60,
                    "midi": 59,
                    "name": "B3",
                    "ticks": 21184,
                    "time": 68.95822299999999,
                    "velocity": 0.33070866141732286,
                },
                {
                    "duration": 0.24739543750000337,
                    "durationTicks": 76,
                    "midi": 60,
                    "name": "C4",
                    "ticks": 21248,
                    "time": 69.16655599999999,
                    "velocity": 0.41732283464566927,
                },
                {
                    "duration": 0.21158820312500382,
                    "durationTicks": 65,
                    "midi": 60,
                    "name": "C4",
                    "ticks": 21376,
                    "time": 69.58322199999999,
                    "velocity": 0.3937007874015748,
                },
                {
                    "duration": 0.1953121875000079,
                    "durationTicks": 60,
                    "midi": 62,
                    "name": "D4",
                    "ticks": 21440,
                    "time": 69.79155499999999,
                    "velocity": 0.4330708661417323,
                },
                {
                    "duration": 1.699216031249989,
                    "durationTicks": 522,
                    "midi": 64,
                    "name": "E4",
                    "ticks": 21504,
                    "time": 69.999888,
                    "velocity": 0.29133858267716534,
                },
                {
                    "duration": 1.5820287187499957,
                    "durationTicks": 486,
                    "midi": 63,
                    "name": "D#4",
                    "ticks": 22016,
                    "time": 71.666552,
                    "velocity": 0.2440944881889764,
                },
                {
                    "duration": 0.4231764062499934,
                    "durationTicks": 130,
                    "midi": 62,
                    "name": "D4",
                    "ticks": 22528,
                    "time": 73.333216,
                    "velocity": 0.2677165354330709,
                },
                {
                    "duration": 0.21158820312500382,
                    "durationTicks": 65,
                    "midi": 59,
                    "name": "B3",
                    "ticks": 22656,
                    "time": 73.74988199999999,
                    "velocity": 0.2440944881889764,
                },
                {
                    "duration": 0.2115882031249896,
                    "durationTicks": 65,
                    "midi": 61,
                    "name": "C#4",
                    "ticks": 22720,
                    "time": 73.958215,
                    "velocity": 0.28346456692913385,
                },
                {
                    "duration": 0.4231764062499934,
                    "durationTicks": 130,
                    "midi": 62,
                    "name": "D4",
                    "ticks": 22784,
                    "time": 74.16654799999999,
                    "velocity": 0.29133858267716534,
                },
                {
                    "duration": 0.2115882031249896,
                    "durationTicks": 65,
                    "midi": 64,
                    "name": "E4",
                    "ticks": 22912,
                    "time": 74.583214,
                    "velocity": 0.30708661417322836,
                },
                {
                    "duration": 0.19531218749999368,
                    "durationTicks": 60,
                    "midi": 62,
                    "name": "D4",
                    "ticks": 22976,
                    "time": 74.791547,
                    "velocity": 0.25984251968503935,
                },
                {
                    "duration": 0.4166660000000064,
                    "durationTicks": 128,
                    "midi": 62,
                    "name": "D4",
                    "ticks": 23040,
                    "time": 74.99987999999999,
                    "velocity": 0.2677165354330709,
                },
                {
                    "duration": 0.4166659999999922,
                    "durationTicks": 128,
                    "midi": 61,
                    "name": "C#4",
                    "ticks": 23168,
                    "time": 75.416546,
                    "velocity": 0.25984251968503935,
                },
                {
                    "duration": 0.8333319999999986,
                    "durationTicks": 256,
                    "midi": 60,
                    "name": "C4",
                    "ticks": 23296,
                    "time": 75.83321199999999,
                    "velocity": 0.2992125984251969,
                },
                {
                    "duration": 1.6992160312500033,
                    "durationTicks": 522,
                    "midi": 60,
                    "name": "C4",
                    "ticks": 23552,
                    "time": 76.66654399999999,
                    "velocity": 0.2992125984251969,
                },
                {
                    "duration": 0.8496080156250088,
                    "durationTicks": 261,
                    "midi": 59,
                    "name": "B3",
                    "ticks": 24064,
                    "time": 78.33320799999998,
                    "velocity": 0.2992125984251969,
                },
                {
                    "duration": 0.7193998906249988,
                    "durationTicks": 221,
                    "midi": 60,
                    "name": "C4",
                    "ticks": 24320,
                    "time": 79.16654,
                    "velocity": 0.31496062992125984,
                },
                {
                    "duration": 0.2083329999999961,
                    "durationTicks": 64,
                    "midi": 59,
                    "name": "B3",
                    "ticks": 24576,
                    "time": 79.999872,
                    "velocity": 0.3464566929133858,
                },
                {
                    "duration": 0.2083329999999961,
                    "durationTicks": 64,
                    "midi": 60,
                    "name": "C4",
                    "ticks": 24640,
                    "time": 80.20820499999999,
                    "velocity": 0.3464566929133858,
                },
                {
                    "duration": 0.8333319999999986,
                    "durationTicks": 256,
                    "midi": 62,
                    "name": "D4",
                    "ticks": 24704,
                    "time": 80.41653799999999,
                    "velocity": 0.3464566929133858,
                },
                {
                    "duration": 0.21158820312500382,
                    "durationTicks": 65,
                    "midi": 60,
                    "name": "C4",
                    "ticks": 24960,
                    "time": 81.24986999999999,
                    "velocity": 0.33070866141732286,
                },
                {
                    "duration": 0.19531218749999368,
                    "durationTicks": 60,
                    "midi": 59,
                    "name": "B3",
                    "ticks": 25024,
                    "time": 81.458203,
                    "velocity": 0.25984251968503935,
                },
                {
                    "duration": 0.8333319999999986,
                    "durationTicks": 256,
                    "midi": 57,
                    "name": "A3",
                    "ticks": 25088,
                    "time": 81.666536,
                    "velocity": 0.2755905511811024,
                },
                {
                    "duration": 0.4231764062499934,
                    "durationTicks": 130,
                    "midi": 57,
                    "name": "A3",
                    "ticks": 25728,
                    "time": 83.749866,
                    "velocity": 0.33858267716535434,
                },
                {
                    "duration": 0.42317640625000763,
                    "durationTicks": 130,
                    "midi": 60,
                    "name": "C4",
                    "ticks": 25856,
                    "time": 84.16653199999999,
                    "velocity": 0.36220472440944884,
                },
                {
                    "duration": 0.3938795781249951,
                    "durationTicks": 121,
                    "midi": 52,
                    "name": "E3",
                    "ticks": 25984,
                    "time": 84.583198,
                    "velocity": 0.3937007874015748,
                },
                {
                    "duration": 0.4231764062499934,
                    "durationTicks": 130,
                    "midi": 56,
                    "name": "G#3",
                    "ticks": 26240,
                    "time": 85.41653,
                    "velocity": 0.3858267716535433,
                },
                {
                    "duration": 0.42317640625000763,
                    "durationTicks": 130,
                    "midi": 59,
                    "name": "B3",
                    "ticks": 26368,
                    "time": 85.83319599999999,
                    "velocity": 0.41732283464566927,
                },
                {
                    "duration": 0.3938795781249951,
                    "durationTicks": 121,
                    "midi": 52,
                    "name": "E3",
                    "ticks": 26496,
                    "time": 86.249862,
                    "velocity": 0.3937007874015748,
                },
                {
                    "duration": 0.4231764062499934,
                    "durationTicks": 130,
                    "midi": 56,
                    "name": "G#3",
                    "ticks": 26752,
                    "time": 87.08319399999999,
                    "velocity": 0.3700787401574803,
                },
                {
                    "duration": 0.42317640625000763,
                    "durationTicks": 130,
                    "midi": 59,
                    "name": "B3",
                    "ticks": 26880,
                    "time": 87.49985999999998,
                    "velocity": 0.3858267716535433,
                },
                {
                    "duration": 0.3938795781249951,
                    "durationTicks": 121,
                    "midi": 52,
                    "name": "E3",
                    "ticks": 27008,
                    "time": 87.91652599999999,
                    "velocity": 0.4094488188976378,
                },
                {
                    "duration": 0.42317640625000763,
                    "durationTicks": 130,
                    "midi": 57,
                    "name": "A3",
                    "ticks": 27264,
                    "time": 88.74985799999999,
                    "velocity": 0.4015748031496063,
                },
                {
                    "duration": 0.4231764062499934,
                    "durationTicks": 130,
                    "midi": 60,
                    "name": "C4",
                    "ticks": 27392,
                    "time": 89.166524,
                    "velocity": 0.44881889763779526,
                },
                {
                    "duration": 0.3938795781250093,
                    "durationTicks": 121,
                    "midi": 52,
                    "name": "E3",
                    "ticks": 27520,
                    "time": 89.58318999999999,
                    "velocity": 0.41732283464566927,
                },
                {
                    "duration": 0.42317640625000763,
                    "durationTicks": 130,
                    "midi": 57,
                    "name": "A3",
                    "ticks": 27776,
                    "time": 90.41652199999999,
                    "velocity": 0.4566929133858268,
                },
                {
                    "duration": 0.4231764062499934,
                    "durationTicks": 130,
                    "midi": 60,
                    "name": "C4",
                    "ticks": 27904,
                    "time": 90.83318799999999,
                    "velocity": 0.5275590551181102,
                },
                {
                    "duration": 0.3938795781250093,
                    "durationTicks": 121,
                    "midi": 48,
                    "name": "C3",
                    "ticks": 28032,
                    "time": 91.24985399999998,
                    "velocity": 0.4566929133858268,
                },
                {
                    "duration": 0.42317640625000763,
                    "durationTicks": 130,
                    "midi": 55,
                    "name": "G3",
                    "ticks": 28288,
                    "time": 92.08318599999998,
                    "velocity": 0.44881889763779526,
                },
                {
                    "duration": 0.4231764062499934,
                    "durationTicks": 130,
                    "midi": 60,
                    "name": "C4",
                    "ticks": 28416,
                    "time": 92.49985199999999,
                    "velocity": 0.5433070866141733,
                },
                {
                    "duration": 0.3938795781249951,
                    "durationTicks": 121,
                    "midi": 48,
                    "name": "C3",
                    "ticks": 28544,
                    "time": 92.916518,
                    "velocity": 0.44881889763779526,
                },
                {
                    "duration": 0.4231764062499934,
                    "durationTicks": 130,
                    "midi": 59,
                    "name": "B3",
                    "ticks": 28800,
                    "time": 93.74985,
                    "velocity": 0.4645669291338583,
                },
                {
                    "duration": 0.42317640625000763,
                    "durationTicks": 130,
                    "midi": 62,
                    "name": "D4",
                    "ticks": 28928,
                    "time": 94.16651599999999,
                    "velocity": 0.5826771653543307,
                },
                {
                    "duration": 0.3938795781249951,
                    "durationTicks": 121,
                    "midi": 55,
                    "name": "G3",
                    "ticks": 29056,
                    "time": 94.583182,
                    "velocity": 0.49606299212598426,
                },
                {
                    "duration": 0.4231764062499934,
                    "durationTicks": 130,
                    "midi": 55,
                    "name": "G3",
                    "ticks": 29312,
                    "time": 95.41651399999999,
                    "velocity": 0.49606299212598426,
                },
                {
                    "duration": 0.42317640625000763,
                    "durationTicks": 130,
                    "midi": 60,
                    "name": "C4",
                    "ticks": 29440,
                    "time": 95.83317999999998,
                    "velocity": 0.5905511811023622,
                },
                {
                    "duration": 0.3938795781249951,
                    "durationTicks": 121,
                    "midi": 48,
                    "name": "C3",
                    "ticks": 29568,
                    "time": 96.24984599999999,
                    "velocity": 0.5039370078740157,
                },
                {
                    "duration": 0.42317640625000763,
                    "durationTicks": 130,
                    "midi": 60,
                    "name": "C4",
                    "ticks": 29824,
                    "time": 97.08317799999999,
                    "velocity": 0.4881889763779528,
                },
                {
                    "duration": 0.4231764062499934,
                    "durationTicks": 130,
                    "midi": 64,
                    "name": "E4",
                    "ticks": 29952,
                    "time": 97.499844,
                    "velocity": 0.6220472440944882,
                },
                {
                    "duration": 0.3938795781249951,
                    "durationTicks": 121,
                    "midi": 52,
                    "name": "E3",
                    "ticks": 30080,
                    "time": 97.91650999999999,
                    "velocity": 0.4881889763779528,
                },
                {
                    "duration": 0.42317640625000763,
                    "durationTicks": 130,
                    "midi": 54,
                    "name": "F#3",
                    "ticks": 30336,
                    "time": 98.74984199999999,
                    "velocity": 0.5118110236220472,
                },
                {
                    "duration": 0.4231764062499934,
                    "durationTicks": 130,
                    "midi": 59,
                    "name": "B3",
                    "ticks": 30464,
                    "time": 99.166508,
                    "velocity": 0.5669291338582677,
                },
                {
                    "duration": 0.3938795781250093,
                    "durationTicks": 121,
                    "midi": 47,
                    "name": "B2",
                    "ticks": 30592,
                    "time": 99.58317399999999,
                    "velocity": 0.5354330708661418,
                },
                {
                    "duration": 0.42317640625000763,
                    "durationTicks": 130,
                    "midi": 59,
                    "name": "B3",
                    "ticks": 30848,
                    "time": 100.41650599999998,
                    "velocity": 0.5275590551181102,
                },
                {
                    "duration": 0.4231764062499934,
                    "durationTicks": 130,
                    "midi": 62,
                    "name": "D4",
                    "ticks": 30976,
                    "time": 100.83317199999999,
                    "velocity": 0.6535433070866141,
                },
                {
                    "duration": 0.3938795781249951,
                    "durationTicks": 121,
                    "midi": 50,
                    "name": "D3",
                    "ticks": 31104,
                    "time": 101.249838,
                    "velocity": 0.5590551181102362,
                },
                {
                    "duration": 0.4231764062499934,
                    "durationTicks": 130,
                    "midi": 52,
                    "name": "E3",
                    "ticks": 31360,
                    "time": 102.08317,
                    "velocity": 0.5590551181102362,
                },
                {
                    "duration": 0.42317640625000763,
                    "durationTicks": 130,
                    "midi": 57,
                    "name": "A3",
                    "ticks": 31488,
                    "time": 102.49983599999999,
                    "velocity": 0.6692913385826772,
                },
                {
                    "duration": 0.3938795781249951,
                    "durationTicks": 121,
                    "midi": 45,
                    "name": "A2",
                    "ticks": 31616,
                    "time": 102.916502,
                    "velocity": 0.5590551181102362,
                },
                {
                    "duration": 0.4231764062499934,
                    "durationTicks": 130,
                    "midi": 57,
                    "name": "A3",
                    "ticks": 31872,
                    "time": 103.74983399999999,
                    "velocity": 0.5669291338582677,
                },
                {
                    "duration": 0.42317640625000763,
                    "durationTicks": 130,
                    "midi": 64,
                    "name": "E4",
                    "ticks": 32000,
                    "time": 104.16649999999998,
                    "velocity": 0.7795275590551181,
                },
                {
                    "duration": 0.3938795781249951,
                    "durationTicks": 121,
                    "midi": 52,
                    "name": "E3",
                    "ticks": 32128,
                    "time": 104.58316599999999,
                    "velocity": 0.6062992125984252,
                },
                {
                    "duration": 0.4231764062499934,
                    "durationTicks": 130,
                    "midi": 59,
                    "name": "B3",
                    "ticks": 32384,
                    "time": 105.41649799999999,
                    "velocity": 0.6141732283464567,
                },
                {
                    "duration": 0.4231764062499934,
                    "durationTicks": 130,
                    "midi": 64,
                    "name": "E4",
                    "ticks": 32512,
                    "time": 105.833164,
                    "velocity": 0.7401574803149606,
                },
                {
                    "duration": 0.3938795781249951,
                    "durationTicks": 121,
                    "midi": 52,
                    "name": "E3",
                    "ticks": 32640,
                    "time": 106.24982999999999,
                    "velocity": 0.6377952755905512,
                },
                {
                    "duration": 0.42317640625000763,
                    "durationTicks": 130,
                    "midi": 59,
                    "name": "B3",
                    "ticks": 32896,
                    "time": 107.08316199999999,
                    "velocity": 0.6377952755905512,
                },
                {
                    "duration": 0.4231764062499934,
                    "durationTicks": 130,
                    "midi": 64,
                    "name": "E4",
                    "ticks": 33024,
                    "time": 107.499828,
                    "velocity": 0.7716535433070866,
                },
                {
                    "duration": 0.3938795781250093,
                    "durationTicks": 121,
                    "midi": 52,
                    "name": "E3",
                    "ticks": 33152,
                    "time": 107.91649399999999,
                    "velocity": 0.6299212598425197,
                },
                {
                    "duration": 0.42317640625000763,
                    "durationTicks": 130,
                    "midi": 60,
                    "name": "C4",
                    "ticks": 33408,
                    "time": 108.74982599999998,
                    "velocity": 0.6692913385826772,
                },
                {
                    "duration": 0.4231764062499934,
                    "durationTicks": 130,
                    "midi": 64,
                    "name": "E4",
                    "ticks": 33536,
                    "time": 109.16649199999999,
                    "velocity": 0.7086614173228346,
                },
                {
                    "duration": 0.3938795781250093,
                    "durationTicks": 121,
                    "midi": 57,
                    "name": "A3",
                    "ticks": 33664,
                    "time": 109.58315799999998,
                    "velocity": 0.6771653543307087,
                },
                {
                    "duration": 0.4231764062499934,
                    "durationTicks": 130,
                    "midi": 60,
                    "name": "C4",
                    "ticks": 33920,
                    "time": 110.41649,
                    "velocity": 0.6929133858267716,
                },
                {
                    "duration": 0.42317640625000763,
                    "durationTicks": 130,
                    "midi": 64,
                    "name": "E4",
                    "ticks": 34048,
                    "time": 110.83315599999999,
                    "velocity": 0.7716535433070866,
                },
                {
                    "duration": 0.3938795781249951,
                    "durationTicks": 121,
                    "midi": 52,
                    "name": "E3",
                    "ticks": 34176,
                    "time": 111.249822,
                    "velocity": 0.6614173228346457,
                },
                {
                    "duration": 0.4231764062499934,
                    "durationTicks": 130,
                    "midi": 54,
                    "name": "F#3",
                    "ticks": 34432,
                    "time": 112.083154,
                    "velocity": 0.6692913385826772,
                },
                {
                    "duration": 0.42317640625000763,
                    "durationTicks": 130,
                    "midi": 59,
                    "name": "B3",
                    "ticks": 34560,
                    "time": 112.49981999999999,
                    "velocity": 0.7086614173228346,
                },
                {
                    "duration": 0.3938795781249951,
                    "durationTicks": 121,
                    "midi": 47,
                    "name": "B2",
                    "ticks": 34688,
                    "time": 112.91648599999999,
                    "velocity": 0.6771653543307087,
                },
                {
                    "duration": 0.4231764062499934,
                    "durationTicks": 130,
                    "midi": 59,
                    "name": "B3",
                    "ticks": 34944,
                    "time": 113.74981799999999,
                    "velocity": 0.7401574803149606,
                },
                {
                    "duration": 0.42317640625000763,
                    "durationTicks": 130,
                    "midi": 62,
                    "name": "D4",
                    "ticks": 35072,
                    "time": 114.16648399999998,
                    "velocity": 0.7874015748031497,
                },
                {
                    "duration": 0.3938795781249951,
                    "durationTicks": 121,
                    "midi": 50,
                    "name": "D3",
                    "ticks": 35200,
                    "time": 114.58314999999999,
                    "velocity": 0.7086614173228346,
                },
                {
                    "duration": 0.42317640625000763,
                    "durationTicks": 130,
                    "midi": 52,
                    "name": "E3",
                    "ticks": 35456,
                    "time": 115.41648199999999,
                    "velocity": 0.7401574803149606,
                },
                {
                    "duration": 0.4231764062499934,
                    "durationTicks": 130,
                    "midi": 57,
                    "name": "A3",
                    "ticks": 35584,
                    "time": 115.833148,
                    "velocity": 0.7716535433070866,
                },
                {
                    "duration": 0.3938795781250093,
                    "durationTicks": 121,
                    "midi": 45,
                    "name": "A2",
                    "ticks": 35712,
                    "time": 116.24981399999999,
                    "velocity": 0.7401574803149606,
                },
                {
                    "duration": 0.42317640625000763,
                    "durationTicks": 130,
                    "midi": 57,
                    "name": "A3",
                    "ticks": 35968,
                    "time": 117.08314599999999,
                    "velocity": 0.7559055118110236,
                },
                {
                    "duration": 0.4231764062499934,
                    "durationTicks": 130,
                    "midi": 64,
                    "name": "E4",
                    "ticks": 36096,
                    "time": 117.49981199999999,
                    "velocity": 0.8818897637795275,
                },
                {
                    "duration": 0.3938795781250093,
                    "durationTicks": 121,
                    "midi": 52,
                    "name": "E3",
                    "ticks": 36224,
                    "time": 117.91647799999998,
                    "velocity": 0.7480314960629921,
                },
                {
                    "duration": 0.42317640625000763,
                    "durationTicks": 130,
                    "midi": 59,
                    "name": "B3",
                    "ticks": 36480,
                    "time": 118.74980999999998,
                    "velocity": 0.7165354330708661,
                },
                {
                    "duration": 0.4231764062499934,
                    "durationTicks": 130,
                    "midi": 64,
                    "name": "E4",
                    "ticks": 36608,
                    "time": 119.16647599999999,
                    "velocity": 0.7874015748031497,
                },
                {
                    "duration": 0.3938795781249951,
                    "durationTicks": 121,
                    "midi": 52,
                    "name": "E3",
                    "ticks": 36736,
                    "time": 119.583142,
                    "velocity": 0.7559055118110236,
                },
                {
                    "duration": 0.4231764062499934,
                    "durationTicks": 130,
                    "midi": 59,
                    "name": "B3",
                    "ticks": 36992,
                    "time": 120.416474,
                    "velocity": 0.7401574803149606,
                },
                {
                    "duration": 0.42317640625000763,
                    "durationTicks": 130,
                    "midi": 64,
                    "name": "E4",
                    "ticks": 37120,
                    "time": 120.83313999999999,
                    "velocity": 0.8188976377952756,
                },
                {
                    "duration": 0.3938795781249951,
                    "durationTicks": 121,
                    "midi": 52,
                    "name": "E3",
                    "ticks": 37248,
                    "time": 121.24980599999999,
                    "velocity": 0.7244094488188977,
                },
                {
                    "duration": 0.4231764062499934,
                    "durationTicks": 130,
                    "midi": 60,
                    "name": "C4",
                    "ticks": 37504,
                    "time": 122.08313799999999,
                    "velocity": 0.7322834645669292,
                },
                {
                    "duration": 0.42317640625000763,
                    "durationTicks": 130,
                    "midi": 64,
                    "name": "E4",
                    "ticks": 37632,
                    "time": 122.49980399999998,
                    "velocity": 0.8188976377952756,
                },
                {
                    "duration": 0.3938795781249951,
                    "durationTicks": 121,
                    "midi": 57,
                    "name": "A3",
                    "ticks": 37760,
                    "time": 122.91646999999999,
                    "velocity": 0.7401574803149606,
                },
                {
                    "duration": 0.16601535937499534,
                    "durationTicks": 51,
                    "midi": 45,
                    "name": "A2",
                    "ticks": 37888,
                    "time": 123.333136,
                    "velocity": 0.7795275590551181,
                },
                {
                    "duration": 0.16601535937500955,
                    "durationTicks": 51,
                    "midi": 57,
                    "name": "A3",
                    "ticks": 37973,
                    "time": 123.60982826562498,
                    "velocity": 0.9606299212598425,
                },
                {
                    "duration": 0.16601535937500955,
                    "durationTicks": 51,
                    "midi": 60,
                    "name": "C4",
                    "ticks": 38058,
                    "time": 123.88652053124999,
                    "velocity": 0.9606299212598425,
                },
                {
                    "duration": 0.8333319999999986,
                    "durationTicks": 256,
                    "midi": 45,
                    "name": "A2",
                    "ticks": 38144,
                    "time": 124.166468,
                    "velocity": 0.7874015748031497,
                },
                {
                    "duration": 0.16601535937499534,
                    "durationTicks": 51,
                    "midi": 44,
                    "name": "G#2",
                    "ticks": 38400,
                    "time": 124.9998,
                    "velocity": 0.84251968503937,
                },
                {
                    "duration": 0.16601535937499534,
                    "durationTicks": 51,
                    "midi": 56,
                    "name": "G#3",
                    "ticks": 38485,
                    "time": 125.276492265625,
                    "velocity": 0.9606299212598425,
                },
                {
                    "duration": 0.16601535937500955,
                    "durationTicks": 51,
                    "midi": 59,
                    "name": "B3",
                    "ticks": 38570,
                    "time": 125.55318453124998,
                    "velocity": 0.952755905511811,
                },
                {
                    "duration": 0.8333319999999986,
                    "durationTicks": 256,
                    "midi": 44,
                    "name": "G#2",
                    "ticks": 38656,
                    "time": 125.83313199999999,
                    "velocity": 0.7716535433070866,
                },
                {
                    "duration": 0.16601535937499534,
                    "durationTicks": 51,
                    "midi": 40,
                    "name": "E2",
                    "ticks": 38912,
                    "time": 126.66646399999999,
                    "velocity": 0.84251968503937,
                },
                {
                    "duration": 0.16601535937499534,
                    "durationTicks": 51,
                    "midi": 56,
                    "name": "G#3",
                    "ticks": 38997,
                    "time": 126.94315626562499,
                    "velocity": 0.984251968503937,
                },
                {
                    "duration": 0.16601535937499534,
                    "durationTicks": 51,
                    "midi": 59,
                    "name": "B3",
                    "ticks": 39082,
                    "time": 127.21984853125,
                    "velocity": 0.937007874015748,
                },
                {
                    "duration": 0.8333319999999986,
                    "durationTicks": 256,
                    "midi": 40,
                    "name": "E2",
                    "ticks": 39168,
                    "time": 127.49979599999999,
                    "velocity": 0.7874015748031497,
                },
                {
                    "duration": 0.16601535937499534,
                    "durationTicks": 51,
                    "midi": 45,
                    "name": "A2",
                    "ticks": 39424,
                    "time": 128.333128,
                    "velocity": 0.9212598425196851,
                },
                {
                    "duration": 0.16601535937499534,
                    "durationTicks": 51,
                    "midi": 57,
                    "name": "A3",
                    "ticks": 39509,
                    "time": 128.609820265625,
                    "velocity": 0.984251968503937,
                },
                {
                    "duration": 0.16601535937499534,
                    "durationTicks": 51,
                    "midi": 60,
                    "name": "C4",
                    "ticks": 39594,
                    "time": 128.88651253125,
                    "velocity": 0.9606299212598425,
                },
                {
                    "duration": 0.8333319999999844,
                    "durationTicks": 256,
                    "midi": 45,
                    "name": "A2",
                    "ticks": 39680,
                    "time": 129.16646,
                    "velocity": 0.7874015748031497,
                },
                {
                    "duration": 0.16601535937502376,
                    "durationTicks": 51,
                    "midi": 45,
                    "name": "A2",
                    "ticks": 39936,
                    "time": 129.99979199999999,
                    "velocity": 0.8267716535433071,
                },
                {
                    "duration": 0.16601535937499534,
                    "durationTicks": 51,
                    "midi": 57,
                    "name": "A3",
                    "ticks": 40021,
                    "time": 130.276484265625,
                    "velocity": 0.968503937007874,
                },
                {
                    "duration": 0.16601535937499534,
                    "durationTicks": 51,
                    "midi": 60,
                    "name": "C4",
                    "ticks": 40106,
                    "time": 130.55317653125,
                    "velocity": 0.9921259842519685,
                },
                {
                    "duration": 0.8333319999999844,
                    "durationTicks": 256,
                    "midi": 45,
                    "name": "A2",
                    "ticks": 40192,
                    "time": 130.833124,
                    "velocity": 0.7559055118110236,
                },
                {
                    "duration": 0.16601535937499534,
                    "durationTicks": 51,
                    "midi": 43,
                    "name": "G2",
                    "ticks": 40448,
                    "time": 131.66645599999998,
                    "velocity": 0.8346456692913385,
                },
                {
                    "duration": 0.16601535937499534,
                    "durationTicks": 51,
                    "midi": 57,
                    "name": "A3",
                    "ticks": 40533,
                    "time": 131.94314826562498,
                    "velocity": 0.9606299212598425,
                },
                {
                    "duration": 0.16601535937499534,
                    "durationTicks": 51,
                    "midi": 60,
                    "name": "C4",
                    "ticks": 40618,
                    "time": 132.21984053125,
                    "velocity": 1,
                },
                {
                    "duration": 0.8333319999999844,
                    "durationTicks": 256,
                    "midi": 43,
                    "name": "G2",
                    "ticks": 40704,
                    "time": 132.499788,
                    "velocity": 0.8188976377952756,
                },
                {
                    "duration": 0.16601535937499534,
                    "durationTicks": 51,
                    "midi": 43,
                    "name": "G2",
                    "ticks": 40960,
                    "time": 133.33311999999998,
                    "velocity": 0.8503937007874016,
                },
                {
                    "duration": 0.16601535937499534,
                    "durationTicks": 51,
                    "midi": 59,
                    "name": "B3",
                    "ticks": 41045,
                    "time": 133.60981226562498,
                    "velocity": 0.968503937007874,
                },
                {
                    "duration": 0.16601535937499534,
                    "durationTicks": 51,
                    "midi": 62,
                    "name": "D4",
                    "ticks": 41130,
                    "time": 133.88650453124998,
                    "velocity": 0.984251968503937,
                },
                {
                    "duration": 0.8333319999999844,
                    "durationTicks": 256,
                    "midi": 43,
                    "name": "G2",
                    "ticks": 41216,
                    "time": 134.166452,
                    "velocity": 0.7952755905511811,
                },
                {
                    "duration": 0.16601535937502376,
                    "durationTicks": 51,
                    "midi": 36,
                    "name": "C2",
                    "ticks": 41472,
                    "time": 134.99978399999998,
                    "velocity": 0.7637795275590551,
                },
                {
                    "duration": 0.16601535937502376,
                    "durationTicks": 51,
                    "midi": 55,
                    "name": "G3",
                    "ticks": 41557,
                    "time": 135.27647626562498,
                    "velocity": 1,
                },
                {
                    "duration": 0.16601535937499534,
                    "durationTicks": 51,
                    "midi": 60,
                    "name": "C4",
                    "ticks": 41642,
                    "time": 135.55316853124998,
                    "velocity": 1,
                },
                {
                    "duration": 0.8333320000000128,
                    "durationTicks": 256,
                    "midi": 36,
                    "name": "C2",
                    "ticks": 41728,
                    "time": 135.833116,
                    "velocity": 0.7716535433070866,
                },
                {
                    "duration": 0.16601535937499534,
                    "durationTicks": 51,
                    "midi": 36,
                    "name": "C2",
                    "ticks": 41984,
                    "time": 136.666448,
                    "velocity": 0.8346456692913385,
                },
                {
                    "duration": 0.16601535937502376,
                    "durationTicks": 51,
                    "midi": 55,
                    "name": "G3",
                    "ticks": 42069,
                    "time": 136.94314026562498,
                    "velocity": 1,
                },
                {
                    "duration": 0.16601535937502376,
                    "durationTicks": 51,
                    "midi": 60,
                    "name": "C4",
                    "ticks": 42154,
                    "time": 137.21983253124998,
                    "velocity": 0.984251968503937,
                },
                {
                    "duration": 0.8333320000000128,
                    "durationTicks": 256,
                    "midi": 36,
                    "name": "C2",
                    "ticks": 42240,
                    "time": 137.49978,
                    "velocity": 0.8267716535433071,
                },
                {
                    "duration": 0.16601535937499534,
                    "durationTicks": 51,
                    "midi": 47,
                    "name": "B2",
                    "ticks": 42496,
                    "time": 138.333112,
                    "velocity": 1,
                },
                {
                    "duration": 0.16601535937499534,
                    "durationTicks": 51,
                    "midi": 47,
                    "name": "B2",
                    "ticks": 42581,
                    "time": 138.609804265625,
                    "velocity": 0.937007874015748,
                },
                {
                    "duration": 0.16601535937502376,
                    "durationTicks": 51,
                    "midi": 59,
                    "name": "B3",
                    "ticks": 42666,
                    "time": 138.88649653124997,
                    "velocity": 0.968503937007874,
                },
                {
                    "duration": 0.8333320000000128,
                    "durationTicks": 256,
                    "midi": 47,
                    "name": "B2",
                    "ticks": 42752,
                    "time": 139.16644399999998,
                    "velocity": 0.7952755905511811,
                },
                {
                    "duration": 0.16601535937499534,
                    "durationTicks": 51,
                    "midi": 47,
                    "name": "B2",
                    "ticks": 43008,
                    "time": 139.999776,
                    "velocity": 0.8503937007874016,
                },
                {
                    "duration": 0.16601535937499534,
                    "durationTicks": 51,
                    "midi": 59,
                    "name": "B3",
                    "ticks": 43093,
                    "time": 140.276468265625,
                    "velocity": 0.9921259842519685,
                },
                {
                    "duration": 0.16601535937499534,
                    "durationTicks": 51,
                    "midi": 62,
                    "name": "D4",
                    "ticks": 43178,
                    "time": 140.55316053125,
                    "velocity": 0.952755905511811,
                },
                {
                    "duration": 0.8333320000000128,
                    "durationTicks": 256,
                    "midi": 47,
                    "name": "B2",
                    "ticks": 43264,
                    "time": 140.83310799999998,
                    "velocity": 0.7874015748031497,
                },
                {
                    "duration": 0.16601535937499534,
                    "durationTicks": 51,
                    "midi": 45,
                    "name": "A2",
                    "ticks": 43520,
                    "time": 141.66644,
                    "velocity": 0.84251968503937,
                },
                {
                    "duration": 0.16601535937499534,
                    "durationTicks": 51,
                    "midi": 45,
                    "name": "A2",
                    "ticks": 43605,
                    "time": 141.943132265625,
                    "velocity": 0.8661417322834646,
                },
                {
                    "duration": 0.16601535937499534,
                    "durationTicks": 51,
                    "midi": 57,
                    "name": "A3",
                    "ticks": 43690,
                    "time": 142.21982453125,
                    "velocity": 0.984251968503937,
                },
                {
                    "duration": 0.8333320000000128,
                    "durationTicks": 256,
                    "midi": 45,
                    "name": "A2",
                    "ticks": 43776,
                    "time": 142.49977199999998,
                    "velocity": 0.7716535433070866,
                },
                {
                    "duration": 0.16601535937499534,
                    "durationTicks": 51,
                    "midi": 45,
                    "name": "A2",
                    "ticks": 44032,
                    "time": 143.333104,
                    "velocity": 0.8582677165354331,
                },
                {
                    "duration": 0.16601535937499534,
                    "durationTicks": 51,
                    "midi": 57,
                    "name": "A3",
                    "ticks": 44117,
                    "time": 143.609796265625,
                    "velocity": 1,
                },
                {
                    "duration": 0.16601535937499534,
                    "durationTicks": 51,
                    "midi": 60,
                    "name": "C4",
                    "ticks": 44202,
                    "time": 143.88648853125,
                    "velocity": 0.968503937007874,
                },
                {
                    "duration": 0.8333320000000128,
                    "durationTicks": 256,
                    "midi": 45,
                    "name": "A2",
                    "ticks": 44288,
                    "time": 144.16643599999998,
                    "velocity": 0.7716535433070866,
                },
                {
                    "duration": 0.16601535937499534,
                    "durationTicks": 51,
                    "midi": 44,
                    "name": "G#2",
                    "ticks": 44544,
                    "time": 144.999768,
                    "velocity": 0.8346456692913385,
                },
                {
                    "duration": 0.16601535937499534,
                    "durationTicks": 51,
                    "midi": 56,
                    "name": "G#3",
                    "ticks": 44629,
                    "time": 145.276460265625,
                    "velocity": 1,
                },
                {
                    "duration": 0.16601535937499534,
                    "durationTicks": 51,
                    "midi": 59,
                    "name": "B3",
                    "ticks": 44714,
                    "time": 145.55315253125,
                    "velocity": 0.8976377952755905,
                },
                {
                    "duration": 0.8333319999999844,
                    "durationTicks": 256,
                    "midi": 45,
                    "name": "A2",
                    "ticks": 44800,
                    "time": 145.8331,
                    "velocity": 0.7716535433070866,
                },
                {
                    "duration": 0.16601535937499534,
                    "durationTicks": 51,
                    "midi": 40,
                    "name": "E2",
                    "ticks": 45056,
                    "time": 146.666432,
                    "velocity": 0.7952755905511811,
                },
                {
                    "duration": 0.16601535937499534,
                    "durationTicks": 51,
                    "midi": 56,
                    "name": "G#3",
                    "ticks": 45141,
                    "time": 146.943124265625,
                    "velocity": 0.9763779527559056,
                },
                {
                    "duration": 0.16601535937499534,
                    "durationTicks": 51,
                    "midi": 59,
                    "name": "B3",
                    "ticks": 45226,
                    "time": 147.21981653125,
                    "velocity": 0.8818897637795275,
                },
                {
                    "duration": 0.8333319999999844,
                    "durationTicks": 256,
                    "midi": 40,
                    "name": "E2",
                    "ticks": 45312,
                    "time": 147.499764,
                    "velocity": 0.7795275590551181,
                },
                {
                    "duration": 0.16601535937499534,
                    "durationTicks": 51,
                    "midi": 45,
                    "name": "A2",
                    "ticks": 45568,
                    "time": 148.33309599999998,
                    "velocity": 0.9133858267716536,
                },
                {
                    "duration": 0.16601535937499534,
                    "durationTicks": 51,
                    "midi": 45,
                    "name": "A2",
                    "ticks": 45653,
                    "time": 148.60978826562499,
                    "velocity": 0.8740157480314961,
                },
                {
                    "duration": 0.16601535937499534,
                    "durationTicks": 51,
                    "midi": 57,
                    "name": "A3",
                    "ticks": 45738,
                    "time": 148.88648053125,
                    "velocity": 1,
                },
                {
                    "duration": 0.16601535937499534,
                    "durationTicks": 51,
                    "midi": 45,
                    "name": "A2",
                    "ticks": 45824,
                    "time": 149.166428,
                    "velocity": 0.7637795275590551,
                },
                {
                    "duration": 0.16601535937499534,
                    "durationTicks": 51,
                    "midi": 45,
                    "name": "A2",
                    "ticks": 45909,
                    "time": 149.443120265625,
                    "velocity": 0.8661417322834646,
                },
                {
                    "duration": 0.16601535937499534,
                    "durationTicks": 51,
                    "midi": 47,
                    "name": "B2",
                    "ticks": 45994,
                    "time": 149.71981253125,
                    "velocity": 0.9212598425196851,
                },
                {
                    "duration": 0.16601535937499534,
                    "durationTicks": 51,
                    "midi": 48,
                    "name": "C3",
                    "ticks": 46080,
                    "time": 149.99975999999998,
                    "velocity": 0.7716535433070866,
                },
                {
                    "duration": 0.16601535937499534,
                    "durationTicks": 51,
                    "midi": 55,
                    "name": "G3",
                    "ticks": 46165,
                    "time": 150.27645226562498,
                    "velocity": 0.84251968503937,
                },
                {
                    "duration": 0.16601535937499534,
                    "durationTicks": 51,
                    "midi": 60,
                    "name": "C4",
                    "ticks": 46250,
                    "time": 150.55314453124998,
                    "velocity": 0.9212598425196851,
                },
                {
                    "duration": 0.8333319999999844,
                    "durationTicks": 256,
                    "midi": 36,
                    "name": "C2",
                    "ticks": 46336,
                    "time": 150.833092,
                    "velocity": 0.6614173228346457,
                },
                {
                    "duration": 0.16601535937502376,
                    "durationTicks": 51,
                    "midi": 47,
                    "name": "B2",
                    "ticks": 46592,
                    "time": 151.66642399999998,
                    "velocity": 0.84251968503937,
                },
                {
                    "duration": 0.16601535937499534,
                    "durationTicks": 51,
                    "midi": 47,
                    "name": "B2",
                    "ticks": 46677,
                    "time": 151.94311626562498,
                    "velocity": 0.7322834645669292,
                },
                {
                    "duration": 0.16601535937499534,
                    "durationTicks": 51,
                    "midi": 59,
                    "name": "B3",
                    "ticks": 46762,
                    "time": 152.21980853124998,
                    "velocity": 0.8346456692913385,
                },
                {
                    "duration": 0.8333319999999844,
                    "durationTicks": 256,
                    "midi": 47,
                    "name": "B2",
                    "ticks": 46848,
                    "time": 152.499756,
                    "velocity": 0.6141732283464567,
                },
                {
                    "duration": 0.16601535937502376,
                    "durationTicks": 51,
                    "midi": 47,
                    "name": "B2",
                    "ticks": 47104,
                    "time": 153.33308799999998,
                    "velocity": 0.6299212598425197,
                },
                {
                    "duration": 0.16601535937502376,
                    "durationTicks": 51,
                    "midi": 59,
                    "name": "B3",
                    "ticks": 47189,
                    "time": 153.60978026562498,
                    "velocity": 0.7165354330708661,
                },
                {
                    "duration": 0.16601535937499534,
                    "durationTicks": 51,
                    "midi": 62,
                    "name": "D4",
                    "ticks": 47274,
                    "time": 153.88647253124998,
                    "velocity": 0.7086614173228346,
                },
                {
                    "duration": 0.8333320000000128,
                    "durationTicks": 256,
                    "midi": 47,
                    "name": "B2",
                    "ticks": 47360,
                    "time": 154.16642,
                    "velocity": 0.5590551181102362,
                },
                {
                    "duration": 0.16601535937499534,
                    "durationTicks": 51,
                    "midi": 45,
                    "name": "A2",
                    "ticks": 47616,
                    "time": 154.999752,
                    "velocity": 0.5590551181102362,
                },
                {
                    "duration": 0.16601535937502376,
                    "durationTicks": 51,
                    "midi": 45,
                    "name": "A2",
                    "ticks": 47701,
                    "time": 155.27644426562497,
                    "velocity": 0.5433070866141733,
                },
                {
                    "duration": 0.16601535937502376,
                    "durationTicks": 51,
                    "midi": 57,
                    "name": "A3",
                    "ticks": 47786,
                    "time": 155.55313653124998,
                    "velocity": 0.6062992125984252,
                },
                {
                    "duration": 0.8333320000000128,
                    "durationTicks": 256,
                    "midi": 45,
                    "name": "A2",
                    "ticks": 47872,
                    "time": 155.83308399999999,
                    "velocity": 0.4645669291338583,
                },
                {
                    "duration": 0.16601535937499534,
                    "durationTicks": 51,
                    "midi": 45,
                    "name": "A2",
                    "ticks": 48128,
                    "time": 156.666416,
                    "velocity": 0.4094488188976378,
                },
                {
                    "duration": 0.16601535937499534,
                    "durationTicks": 51,
                    "midi": 57,
                    "name": "A3",
                    "ticks": 48213,
                    "time": 156.943108265625,
                    "velocity": 0.5433070866141733,
                },
                {
                    "duration": 0.16601535937499534,
                    "durationTicks": 51,
                    "midi": 60,
                    "name": "C4",
                    "ticks": 48298,
                    "time": 157.21980053125,
                    "velocity": 0.5433070866141733,
                },
                {
                    "duration": 0.8333320000000128,
                    "durationTicks": 256,
                    "midi": 45,
                    "name": "A2",
                    "ticks": 48384,
                    "time": 157.49974799999998,
                    "velocity": 0.4094488188976378,
                },
                {
                    "duration": 0.16601535937499534,
                    "durationTicks": 51,
                    "midi": 44,
                    "name": "G#2",
                    "ticks": 48640,
                    "time": 158.33308,
                    "velocity": 0.4566929133858268,
                },
                {
                    "duration": 0.16601535937499534,
                    "durationTicks": 51,
                    "midi": 56,
                    "name": "G#3",
                    "ticks": 48725,
                    "time": 158.609772265625,
                    "velocity": 0.5511811023622047,
                },
                {
                    "duration": 0.16601535937499534,
                    "durationTicks": 51,
                    "midi": 59,
                    "name": "B3",
                    "ticks": 48810,
                    "time": 158.88646453125,
                    "velocity": 0.5039370078740157,
                },
                {
                    "duration": 0.8333320000000128,
                    "durationTicks": 256,
                    "midi": 45,
                    "name": "A2",
                    "ticks": 48896,
                    "time": 159.16641199999998,
                    "velocity": 0.3700787401574803,
                },
                {
                    "duration": 0.16601535937499534,
                    "durationTicks": 51,
                    "midi": 40,
                    "name": "E2",
                    "ticks": 49152,
                    "time": 159.999744,
                    "velocity": 0.36220472440944884,
                },
                {
                    "duration": 0.16601535937499534,
                    "durationTicks": 51,
                    "midi": 56,
                    "name": "G#3",
                    "ticks": 49237,
                    "time": 160.276436265625,
                    "velocity": 0.4645669291338583,
                },
                {
                    "duration": 0.16601535937499534,
                    "durationTicks": 51,
                    "midi": 64,
                    "name": "E4",
                    "ticks": 49322,
                    "time": 160.55312853125,
                    "velocity": 0.5118110236220472,
                },
                {
                    "duration": 0.16601535937502376,
                    "durationTicks": 51,
                    "midi": 52,
                    "name": "E3",
                    "ticks": 49408,
                    "time": 160.83307599999998,
                    "velocity": 0.3937007874015748,
                },
                {
                    "duration": 0.16601535937499534,
                    "durationTicks": 51,
                    "midi": 52,
                    "name": "E3",
                    "ticks": 49493,
                    "time": 161.10976826562498,
                    "velocity": 0.3779527559055118,
                },
                {
                    "duration": 0.16601535937499534,
                    "durationTicks": 51,
                    "midi": 52,
                    "name": "E3",
                    "ticks": 49578,
                    "time": 161.38646053124998,
                    "velocity": 0.3779527559055118,
                },
                {
                    "duration": 0.8333319999999844,
                    "durationTicks": 256,
                    "midi": 45,
                    "name": "A2",
                    "ticks": 49664,
                    "time": 161.666408,
                    "velocity": 0.3543307086614173,
                },
                {
                    "duration": 192.499692,
                    "durationTicks": 59136,
                    "midi": 40,
                    "name": "E2",
                    "ticks": 51200,
                    "time": 166.66639999999998,
                    "velocity": 0.31496062992125984,
                },
                {
                    "duration": 0.16601535937499534,
                    "durationTicks": 51,
                    "midi": 60,
                    "name": "C4",
                    "ticks": 74666,
                    "time": 243.05299653125,
                    "velocity": 0.6929133858267716,
                },
                {
                    "duration": 0.16601535937499534,
                    "durationTicks": 51,
                    "midi": 59,
                    "name": "B3",
                    "ticks": 74752,
                    "time": 243.332944,
                    "velocity": 0.7480314960629921,
                },
                {
                    "duration": 0.16601535937502376,
                    "durationTicks": 51,
                    "midi": 57,
                    "name": "A3",
                    "ticks": 74837,
                    "time": 243.60963626562497,
                    "velocity": 0.7322834645669292,
                },
                {
                    "duration": 0.16601535937502376,
                    "durationTicks": 51,
                    "midi": 55,
                    "name": "G3",
                    "ticks": 74922,
                    "time": 243.88632853124997,
                    "velocity": 0.7637795275590551,
                },
                {
                    "duration": 0.16601535937499534,
                    "durationTicks": 51,
                    "midi": 53,
                    "name": "F3",
                    "ticks": 75008,
                    "time": 244.16627599999998,
                    "velocity": 0.7480314960629921,
                },
                {
                    "duration": 0.16601535937499534,
                    "durationTicks": 51,
                    "midi": 52,
                    "name": "E3",
                    "ticks": 75093,
                    "time": 244.44296826562498,
                    "velocity": 0.7401574803149606,
                },
                {
                    "duration": 0.16601535937499534,
                    "durationTicks": 51,
                    "midi": 50,
                    "name": "D3",
                    "ticks": 75178,
                    "time": 244.71966053124999,
                    "velocity": 0.7007874015748031,
                },
                {
                    "duration": 0.16601535937499534,
                    "durationTicks": 51,
                    "midi": 48,
                    "name": "C3",
                    "ticks": 75264,
                    "time": 244.999608,
                    "velocity": 0.7401574803149606,
                },
                {
                    "duration": 0.16601535937499534,
                    "durationTicks": 51,
                    "midi": 47,
                    "name": "B2",
                    "ticks": 75349,
                    "time": 245.276300265625,
                    "velocity": 0.7322834645669292,
                },
                {
                    "duration": 0.16601535937502376,
                    "durationTicks": 51,
                    "midi": 45,
                    "name": "A2",
                    "ticks": 75434,
                    "time": 245.55299253124997,
                    "velocity": 0.8582677165354331,
                },
                {
                    "duration": 0.24739543750001758,
                    "durationTicks": 76,
                    "midi": 44,
                    "name": "G#2",
                    "ticks": 75520,
                    "time": 245.83293999999998,
                    "velocity": 0.9212598425196851,
                },
                {
                    "duration": 0.24739543750001758,
                    "durationTicks": 76,
                    "midi": 44,
                    "name": "G#2",
                    "ticks": 75648,
                    "time": 246.24960599999997,
                    "velocity": 0.8740157480314961,
                },
                {
                    "duration": 0.8333319999999844,
                    "durationTicks": 256,
                    "midi": 57,
                    "name": "A3",
                    "ticks": 97280,
                    "time": 316.66616,
                    "velocity": 0.2992125984251969,
                },
                {
                    "duration": 0.24739543750001758,
                    "durationTicks": 76,
                    "midi": 57,
                    "name": "A3",
                    "ticks": 97536,
                    "time": 317.499492,
                    "velocity": 0.2677165354330709,
                },
                {
                    "duration": 0.24739543749996074,
                    "durationTicks": 76,
                    "midi": 59,
                    "name": "B3",
                    "ticks": 97664,
                    "time": 317.916158,
                    "velocity": 0.2283464566929134,
                },
                {
                    "duration": 0.49804607812501445,
                    "durationTicks": 153,
                    "midi": 60,
                    "name": "C4",
                    "ticks": 97792,
                    "time": 318.33282399999996,
                    "velocity": 0.3228346456692913,
                },
                {
                    "duration": 0.47200445312495276,
                    "durationTicks": 145,
                    "midi": 60,
                    "name": "C4",
                    "ticks": 98048,
                    "time": 319.166156,
                    "velocity": 0.30708661417322836,
                },
                {
                    "duration": 0.8333319999999844,
                    "durationTicks": 256,
                    "midi": 59,
                    "name": "B3",
                    "ticks": 98304,
                    "time": 319.999488,
                    "velocity": 0.25196850393700787,
                },
                {
                    "duration": 0.24739543750001758,
                    "durationTicks": 76,
                    "midi": 59,
                    "name": "B3",
                    "ticks": 98560,
                    "time": 320.83281999999997,
                    "velocity": 0.2755905511811024,
                },
                {
                    "duration": 0.24739543750001758,
                    "durationTicks": 76,
                    "midi": 61,
                    "name": "C#4",
                    "ticks": 98688,
                    "time": 321.249486,
                    "velocity": 0.2992125984251969,
                },
                {
                    "duration": 0.24739543750001758,
                    "durationTicks": 76,
                    "midi": 62,
                    "name": "D4",
                    "ticks": 98816,
                    "time": 321.66615199999995,
                    "velocity": 0.30708661417322836,
                },
                {
                    "duration": 0.24739543750001758,
                    "durationTicks": 76,
                    "midi": 60,
                    "name": "C4",
                    "ticks": 98944,
                    "time": 322.082818,
                    "velocity": 0.25984251968503935,
                },
                {
                    "duration": 0.24739543749996074,
                    "durationTicks": 76,
                    "midi": 59,
                    "name": "B3",
                    "ticks": 99072,
                    "time": 322.499484,
                    "velocity": 0.29133858267716534,
                },
                {
                    "duration": 0.24739543750001758,
                    "durationTicks": 76,
                    "midi": 57,
                    "name": "A3",
                    "ticks": 99200,
                    "time": 322.91614999999996,
                    "velocity": 0.23622047244094488,
                },
                {
                    "duration": 0.12369771875000879,
                    "durationTicks": 38,
                    "midi": 55,
                    "name": "G3",
                    "ticks": 99328,
                    "time": 323.332816,
                    "velocity": 0.28346456692913385,
                },
                {
                    "duration": 0.12369771875000879,
                    "durationTicks": 38,
                    "midi": 57,
                    "name": "A3",
                    "ticks": 99392,
                    "time": 323.54114899999996,
                    "velocity": 0.2992125984251969,
                },
                {
                    "duration": 0.12369771874995195,
                    "durationTicks": 38,
                    "midi": 59,
                    "name": "B3",
                    "ticks": 99456,
                    "time": 323.749482,
                    "velocity": 0.2755905511811024,
                },
                {
                    "duration": 0.12369771875000879,
                    "durationTicks": 38,
                    "midi": 57,
                    "name": "A3",
                    "ticks": 99520,
                    "time": 323.957815,
                    "velocity": 0.2677165354330709,
                },
                {
                    "duration": 0.12369771875000879,
                    "durationTicks": 38,
                    "midi": 55,
                    "name": "G3",
                    "ticks": 99584,
                    "time": 324.16614799999996,
                    "velocity": 0.30708661417322836,
                },
                {
                    "duration": 0.12369771874995195,
                    "durationTicks": 38,
                    "midi": 57,
                    "name": "A3",
                    "ticks": 99648,
                    "time": 324.374481,
                    "velocity": 0.28346456692913385,
                },
                {
                    "duration": 0.12369771875000879,
                    "durationTicks": 38,
                    "midi": 55,
                    "name": "G3",
                    "ticks": 99712,
                    "time": 324.582814,
                    "velocity": 0.28346456692913385,
                },
                {
                    "duration": 0.12369771875000879,
                    "durationTicks": 38,
                    "midi": 54,
                    "name": "F#3",
                    "ticks": 99776,
                    "time": 324.79114699999997,
                    "velocity": 0.29133858267716534,
                },
                {
                    "duration": 0.12369771874995195,
                    "durationTicks": 38,
                    "midi": 52,
                    "name": "E3",
                    "ticks": 99840,
                    "time": 324.99948,
                    "velocity": 0.25984251968503935,
                },
                {
                    "duration": 0.12369771875000879,
                    "durationTicks": 38,
                    "midi": 54,
                    "name": "F#3",
                    "ticks": 99904,
                    "time": 325.207813,
                    "velocity": 0.2992125984251969,
                },
                {
                    "duration": 0.12369771875000879,
                    "durationTicks": 38,
                    "midi": 55,
                    "name": "G3",
                    "ticks": 99968,
                    "time": 325.41614599999997,
                    "velocity": 0.29133858267716534,
                },
                {
                    "duration": 0.12369771874995195,
                    "durationTicks": 38,
                    "midi": 57,
                    "name": "A3",
                    "ticks": 100032,
                    "time": 325.624479,
                    "velocity": 0.28346456692913385,
                },
                {
                    "duration": 0.12369771875000879,
                    "durationTicks": 38,
                    "midi": 59,
                    "name": "B3",
                    "ticks": 100096,
                    "time": 325.832812,
                    "velocity": 0.36220472440944884,
                },
                {
                    "duration": 0.12369771875000879,
                    "durationTicks": 38,
                    "midi": 61,
                    "name": "C#4",
                    "ticks": 100160,
                    "time": 326.041145,
                    "velocity": 0.2992125984251969,
                },
                {
                    "duration": 0.12369771875000879,
                    "durationTicks": 38,
                    "midi": 63,
                    "name": "D#4",
                    "ticks": 100224,
                    "time": 326.24947799999995,
                    "velocity": 0.2755905511811024,
                },
                {
                    "duration": 0.12369771875000879,
                    "durationTicks": 38,
                    "midi": 64,
                    "name": "E4",
                    "ticks": 100288,
                    "time": 326.457811,
                    "velocity": 0.29133858267716534,
                },
                {
                    "duration": 0.12369771875000879,
                    "durationTicks": 38,
                    "midi": 64,
                    "name": "E4",
                    "ticks": 100352,
                    "time": 326.666144,
                    "velocity": 0.2677165354330709,
                },
                {
                    "duration": 0.12369771875000879,
                    "durationTicks": 38,
                    "midi": 57,
                    "name": "A3",
                    "ticks": 100416,
                    "time": 326.87447699999996,
                    "velocity": 0.2204724409448819,
                },
                {
                    "duration": 0.12369771875000879,
                    "durationTicks": 38,
                    "midi": 59,
                    "name": "B3",
                    "ticks": 100480,
                    "time": 327.08281,
                    "velocity": 0.29133858267716534,
                },
                {
                    "duration": 0.12369771875000879,
                    "durationTicks": 38,
                    "midi": 61,
                    "name": "C#4",
                    "ticks": 100544,
                    "time": 327.291143,
                    "velocity": 0.29133858267716534,
                },
                {
                    "duration": 0.12369771875000879,
                    "durationTicks": 38,
                    "midi": 62,
                    "name": "D4",
                    "ticks": 100608,
                    "time": 327.49947599999996,
                    "velocity": 0.29133858267716534,
                },
                {
                    "duration": 0.12369771875000879,
                    "durationTicks": 38,
                    "midi": 59,
                    "name": "B3",
                    "ticks": 100672,
                    "time": 327.707809,
                    "velocity": 0.2992125984251969,
                },
                {
                    "duration": 0.12369771875000879,
                    "durationTicks": 38,
                    "midi": 64,
                    "name": "E4",
                    "ticks": 100736,
                    "time": 327.916142,
                    "velocity": 0.33070866141732286,
                },
                {
                    "duration": 0.12369771875000879,
                    "durationTicks": 38,
                    "midi": 62,
                    "name": "D4",
                    "ticks": 100800,
                    "time": 328.12447499999996,
                    "velocity": 0.25984251968503935,
                },
                {
                    "duration": 0.12369771874995195,
                    "durationTicks": 38,
                    "midi": 60,
                    "name": "C4",
                    "ticks": 100864,
                    "time": 328.332808,
                    "velocity": 0.2440944881889764,
                },
                {
                    "duration": 0.12369771875000879,
                    "durationTicks": 38,
                    "midi": 59,
                    "name": "B3",
                    "ticks": 100928,
                    "time": 328.541141,
                    "velocity": 0.2755905511811024,
                },
                {
                    "duration": 0.12369771875000879,
                    "durationTicks": 38,
                    "midi": 60,
                    "name": "C4",
                    "ticks": 100992,
                    "time": 328.74947399999996,
                    "velocity": 0.2992125984251969,
                },
                {
                    "duration": 0.12369771874995195,
                    "durationTicks": 38,
                    "midi": 62,
                    "name": "D4",
                    "ticks": 101056,
                    "time": 328.957807,
                    "velocity": 0.25984251968503935,
                },
                {
                    "duration": 0.12369771875000879,
                    "durationTicks": 38,
                    "midi": 64,
                    "name": "E4",
                    "ticks": 101120,
                    "time": 329.16614,
                    "velocity": 0.2992125984251969,
                },
                {
                    "duration": 0.12369771875000879,
                    "durationTicks": 38,
                    "midi": 52,
                    "name": "E3",
                    "ticks": 101184,
                    "time": 329.37447299999997,
                    "velocity": 0.2677165354330709,
                },
                {
                    "duration": 0.12369771874995195,
                    "durationTicks": 38,
                    "midi": 54,
                    "name": "F#3",
                    "ticks": 101248,
                    "time": 329.582806,
                    "velocity": 0.25984251968503935,
                },
                {
                    "duration": 0.12369771875000879,
                    "durationTicks": 38,
                    "midi": 56,
                    "name": "G#3",
                    "ticks": 101312,
                    "time": 329.791139,
                    "velocity": 0.30708661417322836,
                },
                {
                    "duration": 0.24739543750001758,
                    "durationTicks": 76,
                    "midi": 57,
                    "name": "A3",
                    "ticks": 101376,
                    "time": 329.99947199999997,
                    "velocity": 0.28346456692913385,
                },
                {
                    "duration": 0.24739543750001758,
                    "durationTicks": 76,
                    "midi": 55,
                    "name": "G3",
                    "ticks": 101504,
                    "time": 330.416138,
                    "velocity": 0.28346456692913385,
                },
                {
                    "duration": 0.24739543750001758,
                    "durationTicks": 76,
                    "midi": 54,
                    "name": "F#3",
                    "ticks": 101632,
                    "time": 330.83280399999995,
                    "velocity": 0.25984251968503935,
                },
                {
                    "duration": 0.24739543750001758,
                    "durationTicks": 76,
                    "midi": 52,
                    "name": "E3",
                    "ticks": 101760,
                    "time": 331.24947,
                    "velocity": 0.2440944881889764,
                },
                {
                    "duration": 0.12369771875000879,
                    "durationTicks": 38,
                    "midi": 54,
                    "name": "F#3",
                    "ticks": 101888,
                    "time": 331.666136,
                    "velocity": 0.2992125984251969,
                },
                {
                    "duration": 0.12369771875000879,
                    "durationTicks": 38,
                    "midi": 54,
                    "name": "F#3",
                    "ticks": 101952,
                    "time": 331.874469,
                    "velocity": 0.25984251968503935,
                },
                {
                    "duration": 0.12369771875000879,
                    "durationTicks": 38,
                    "midi": 55,
                    "name": "G3",
                    "ticks": 102016,
                    "time": 332.08280199999996,
                    "velocity": 0.25984251968503935,
                },
                {
                    "duration": 0.12369771875000879,
                    "durationTicks": 38,
                    "midi": 57,
                    "name": "A3",
                    "ticks": 102080,
                    "time": 332.291135,
                    "velocity": 0.2755905511811024,
                },
                {
                    "duration": 0.12369771875000879,
                    "durationTicks": 38,
                    "midi": 50,
                    "name": "D3",
                    "ticks": 102144,
                    "time": 332.499468,
                    "velocity": 0.25984251968503935,
                },
                {
                    "duration": 0.12369771875000879,
                    "durationTicks": 38,
                    "midi": 50,
                    "name": "D3",
                    "ticks": 102208,
                    "time": 332.70780099999996,
                    "velocity": 0.2677165354330709,
                },
                {
                    "duration": 0.12369771874995195,
                    "durationTicks": 38,
                    "midi": 52,
                    "name": "E3",
                    "ticks": 102272,
                    "time": 332.916134,
                    "velocity": 0.25196850393700787,
                },
                {
                    "duration": 0.12369771875000879,
                    "durationTicks": 38,
                    "midi": 54,
                    "name": "F#3",
                    "ticks": 102336,
                    "time": 333.124467,
                    "velocity": 0.33070866141732286,
                },
                {
                    "duration": 0.24739543750001758,
                    "durationTicks": 76,
                    "midi": 55,
                    "name": "G3",
                    "ticks": 102400,
                    "time": 333.33279999999996,
                    "velocity": 0.28346456692913385,
                },
                {
                    "duration": 0.24739543750001758,
                    "durationTicks": 76,
                    "midi": 53,
                    "name": "F3",
                    "ticks": 102528,
                    "time": 333.749466,
                    "velocity": 0.29133858267716534,
                },
                {
                    "duration": 0.24739543749996074,
                    "durationTicks": 76,
                    "midi": 52,
                    "name": "E3",
                    "ticks": 102656,
                    "time": 334.166132,
                    "velocity": 0.2755905511811024,
                },
                {
                    "duration": 0.8333319999999844,
                    "durationTicks": 256,
                    "midi": 50,
                    "name": "D3",
                    "ticks": 102784,
                    "time": 334.58279799999997,
                    "velocity": 0.2125984251968504,
                },
                {
                    "duration": 0.8333320000000413,
                    "durationTicks": 256,
                    "midi": 48,
                    "name": "C3",
                    "ticks": 103040,
                    "time": 335.41612999999995,
                    "velocity": 0.28346456692913385,
                },
                {
                    "duration": 0.8333319999999844,
                    "durationTicks": 256,
                    "midi": 55,
                    "name": "G3",
                    "ticks": 103296,
                    "time": 336.249462,
                    "velocity": 0.28346456692913385,
                },
                {
                    "duration": 0.8333319999999844,
                    "durationTicks": 256,
                    "midi": 48,
                    "name": "C3",
                    "ticks": 103552,
                    "time": 337.082794,
                    "velocity": 0.2283464566929134,
                },
                {
                    "duration": 0.41666600000002063,
                    "durationTicks": 128,
                    "midi": 60,
                    "name": "C4",
                    "ticks": 103808,
                    "time": 337.91612599999996,
                    "velocity": 0.3543307086614173,
                },
                {
                    "duration": 0.8333319999999844,
                    "durationTicks": 256,
                    "midi": 62,
                    "name": "D4",
                    "ticks": 104960,
                    "time": 341.66612,
                    "velocity": 0.3228346456692913,
                },
                {
                    "duration": 0.24739543750001758,
                    "durationTicks": 76,
                    "midi": 62,
                    "name": "D4",
                    "ticks": 105216,
                    "time": 342.49945199999996,
                    "velocity": 0.2677165354330709,
                },
                {
                    "duration": 0.24739543750001758,
                    "durationTicks": 76,
                    "midi": 64,
                    "name": "E4",
                    "ticks": 105344,
                    "time": 342.916118,
                    "velocity": 0.28346456692913385,
                },
                {
                    "duration": 0.4980460781249576,
                    "durationTicks": 153,
                    "midi": 65,
                    "name": "F4",
                    "ticks": 105472,
                    "time": 343.332784,
                    "velocity": 0.2992125984251969,
                },
                {
                    "duration": 0.4720044531250096,
                    "durationTicks": 145,
                    "midi": 65,
                    "name": "F4",
                    "ticks": 105728,
                    "time": 344.166116,
                    "velocity": 0.30708661417322836,
                },
                {
                    "duration": 0.12369771875000879,
                    "durationTicks": 38,
                    "midi": 53,
                    "name": "F3",
                    "ticks": 105984,
                    "time": 344.999448,
                    "velocity": 0.2283464566929134,
                },
                {
                    "duration": 0.12369771875000879,
                    "durationTicks": 38,
                    "midi": 52,
                    "name": "E3",
                    "ticks": 106048,
                    "time": 345.20778099999995,
                    "velocity": 0.2677165354330709,
                },
                {
                    "duration": 0.12369771875000879,
                    "durationTicks": 38,
                    "midi": 55,
                    "name": "G3",
                    "ticks": 106112,
                    "time": 345.416114,
                    "velocity": 0.30708661417322836,
                },
                {
                    "duration": 0.12369771875000879,
                    "durationTicks": 38,
                    "midi": 53,
                    "name": "F3",
                    "ticks": 106176,
                    "time": 345.624447,
                    "velocity": 0.25196850393700787,
                },
                {
                    "duration": 0.12369771875000879,
                    "durationTicks": 38,
                    "midi": 52,
                    "name": "E3",
                    "ticks": 106240,
                    "time": 345.83277999999996,
                    "velocity": 0.2755905511811024,
                },
                {
                    "duration": 0.12369771875000879,
                    "durationTicks": 38,
                    "midi": 55,
                    "name": "G3",
                    "ticks": 106304,
                    "time": 346.041113,
                    "velocity": 0.31496062992125984,
                },
                {
                    "duration": 0.12369771875000879,
                    "durationTicks": 38,
                    "midi": 53,
                    "name": "F3",
                    "ticks": 106368,
                    "time": 346.249446,
                    "velocity": 0.29133858267716534,
                },
                {
                    "duration": 0.12369771875000879,
                    "durationTicks": 38,
                    "midi": 52,
                    "name": "E3",
                    "ticks": 106432,
                    "time": 346.45777899999996,
                    "velocity": 0.2677165354330709,
                },
                {
                    "duration": 0.12369771875000879,
                    "durationTicks": 38,
                    "midi": 50,
                    "name": "D3",
                    "ticks": 106496,
                    "time": 346.666112,
                    "velocity": 0.2992125984251969,
                },
                {
                    "duration": 0.12369771875000879,
                    "durationTicks": 38,
                    "midi": 52,
                    "name": "E3",
                    "ticks": 106560,
                    "time": 346.874445,
                    "velocity": 0.25984251968503935,
                },
                {
                    "duration": 0.12369771875000879,
                    "durationTicks": 38,
                    "midi": 53,
                    "name": "F3",
                    "ticks": 106624,
                    "time": 347.08277799999996,
                    "velocity": 0.31496062992125984,
                },
                {
                    "duration": 0.12369771874995195,
                    "durationTicks": 38,
                    "midi": 55,
                    "name": "G3",
                    "ticks": 106688,
                    "time": 347.291111,
                    "velocity": 0.2755905511811024,
                },
                {
                    "duration": 0.12369771875000879,
                    "durationTicks": 38,
                    "midi": 57,
                    "name": "A3",
                    "ticks": 106752,
                    "time": 347.499444,
                    "velocity": 0.30708661417322836,
                },
                {
                    "duration": 0.12369771875000879,
                    "durationTicks": 38,
                    "midi": 59,
                    "name": "B3",
                    "ticks": 106816,
                    "time": 347.70777699999996,
                    "velocity": 0.29133858267716534,
                },
                {
                    "duration": 0.12369771874995195,
                    "durationTicks": 38,
                    "midi": 61,
                    "name": "C#4",
                    "ticks": 106880,
                    "time": 347.91611,
                    "velocity": 0.28346456692913385,
                },
                {
                    "duration": 0.12369771875000879,
                    "durationTicks": 38,
                    "midi": 62,
                    "name": "D4",
                    "ticks": 106944,
                    "time": 348.124443,
                    "velocity": 0.2755905511811024,
                },
                {
                    "duration": 0.12369771875000879,
                    "durationTicks": 38,
                    "midi": 62,
                    "name": "D4",
                    "ticks": 107008,
                    "time": 348.33277599999997,
                    "velocity": 0.30708661417322836,
                },
                {
                    "duration": 0.12369771874995195,
                    "durationTicks": 38,
                    "midi": 50,
                    "name": "D3",
                    "ticks": 107072,
                    "time": 348.541109,
                    "velocity": 0.29133858267716534,
                },
                {
                    "duration": 0.12369771875000879,
                    "durationTicks": 38,
                    "midi": 50,
                    "name": "D3",
                    "ticks": 107136,
                    "time": 348.749442,
                    "velocity": 0.2992125984251969,
                },
                {
                    "duration": 0.12369771875000879,
                    "durationTicks": 38,
                    "midi": 50,
                    "name": "D3",
                    "ticks": 107200,
                    "time": 348.95777499999997,
                    "velocity": 0.3228346456692913,
                },
                {
                    "duration": 0.12369771875000879,
                    "durationTicks": 38,
                    "midi": 50,
                    "name": "D3",
                    "ticks": 107264,
                    "time": 349.16610799999995,
                    "velocity": 0.29133858267716534,
                },
                {
                    "duration": 0.12369771875000879,
                    "durationTicks": 38,
                    "midi": 50,
                    "name": "D3",
                    "ticks": 107328,
                    "time": 349.374441,
                    "velocity": 0.3858267716535433,
                },
                {
                    "duration": 0.12369771875000879,
                    "durationTicks": 38,
                    "midi": 50,
                    "name": "D3",
                    "ticks": 107392,
                    "time": 349.582774,
                    "velocity": 0.3700787401574803,
                },
                {
                    "duration": 0.12369771875000879,
                    "durationTicks": 38,
                    "midi": 50,
                    "name": "D3",
                    "ticks": 107456,
                    "time": 349.79110699999995,
                    "velocity": 0.36220472440944884,
                },
                {
                    "duration": 0.12369771875000879,
                    "durationTicks": 38,
                    "midi": 50,
                    "name": "D3",
                    "ticks": 107520,
                    "time": 349.99944,
                    "velocity": 0.36220472440944884,
                },
                {
                    "duration": 0.12369771875000879,
                    "durationTicks": 38,
                    "midi": 50,
                    "name": "D3",
                    "ticks": 107584,
                    "time": 350.207773,
                    "velocity": 0.44881889763779526,
                },
                {
                    "duration": 0.12369771875000879,
                    "durationTicks": 38,
                    "midi": 50,
                    "name": "D3",
                    "ticks": 107648,
                    "time": 350.41610599999996,
                    "velocity": 0.47244094488188976,
                },
                {
                    "duration": 0.12369771875000879,
                    "durationTicks": 38,
                    "midi": 50,
                    "name": "D3",
                    "ticks": 107712,
                    "time": 350.624439,
                    "velocity": 0.4566929133858268,
                },
                {
                    "duration": 0.12369771875000879,
                    "durationTicks": 38,
                    "midi": 50,
                    "name": "D3",
                    "ticks": 107776,
                    "time": 350.832772,
                    "velocity": 0.5196850393700787,
                },
                {
                    "duration": 0.12369771875000879,
                    "durationTicks": 38,
                    "midi": 50,
                    "name": "D3",
                    "ticks": 107840,
                    "time": 351.04110499999996,
                    "velocity": 0.5275590551181102,
                },
                {
                    "duration": 0.12369771875000879,
                    "durationTicks": 38,
                    "midi": 50,
                    "name": "D3",
                    "ticks": 107904,
                    "time": 351.249438,
                    "velocity": 0.5275590551181102,
                },
                {
                    "duration": 0.12369771875000879,
                    "durationTicks": 38,
                    "midi": 50,
                    "name": "D3",
                    "ticks": 107968,
                    "time": 351.457771,
                    "velocity": 0.5748031496062992,
                },
                {
                    "duration": 0.12369771875000879,
                    "durationTicks": 38,
                    "midi": 50,
                    "name": "D3",
                    "ticks": 108032,
                    "time": 351.66610399999996,
                    "velocity": 0.5984251968503937,
                },
                {
                    "duration": 0.12369771874995195,
                    "durationTicks": 38,
                    "midi": 50,
                    "name": "D3",
                    "ticks": 108096,
                    "time": 351.874437,
                    "velocity": 0.6141732283464567,
                },
                {
                    "duration": 0.12369771875000879,
                    "durationTicks": 38,
                    "midi": 50,
                    "name": "D3",
                    "ticks": 108160,
                    "time": 352.08277,
                    "velocity": 0.6299212598425197,
                },
                {
                    "duration": 0.12369771875000879,
                    "durationTicks": 38,
                    "midi": 50,
                    "name": "D3",
                    "ticks": 108224,
                    "time": 352.29110299999996,
                    "velocity": 0.6535433070866141,
                },
                {
                    "duration": 0.12369771874995195,
                    "durationTicks": 38,
                    "midi": 50,
                    "name": "D3",
                    "ticks": 108288,
                    "time": 352.499436,
                    "velocity": 0.6299212598425197,
                },
                {
                    "duration": 0.12369771875000879,
                    "durationTicks": 38,
                    "midi": 50,
                    "name": "D3",
                    "ticks": 108352,
                    "time": 352.707769,
                    "velocity": 0.6535433070866141,
                },
                {
                    "duration": 0.12369771875000879,
                    "durationTicks": 38,
                    "midi": 50,
                    "name": "D3",
                    "ticks": 108416,
                    "time": 352.91610199999997,
                    "velocity": 0.7007874015748031,
                },
                {
                    "duration": 0.12369771874995195,
                    "durationTicks": 38,
                    "midi": 50,
                    "name": "D3",
                    "ticks": 108480,
                    "time": 353.124435,
                    "velocity": 0.7244094488188977,
                },
                {
                    "duration": 0.12369771875000879,
                    "durationTicks": 38,
                    "midi": 50,
                    "name": "D3",
                    "ticks": 108544,
                    "time": 353.332768,
                    "velocity": 0.7322834645669292,
                },
                {
                    "duration": 0.12369771875000879,
                    "durationTicks": 38,
                    "midi": 50,
                    "name": "D3",
                    "ticks": 108608,
                    "time": 353.54110099999997,
                    "velocity": 0.7480314960629921,
                },
                {
                    "duration": 0.12369771875000879,
                    "durationTicks": 38,
                    "midi": 50,
                    "name": "D3",
                    "ticks": 108672,
                    "time": 353.74943399999995,
                    "velocity": 0.7559055118110236,
                },
                {
                    "duration": 0.12369771875000879,
                    "durationTicks": 38,
                    "midi": 50,
                    "name": "D3",
                    "ticks": 108736,
                    "time": 353.957767,
                    "velocity": 0.8031496062992126,
                },
                {
                    "duration": 0.12369771875000879,
                    "durationTicks": 38,
                    "midi": 50,
                    "name": "D3",
                    "ticks": 108800,
                    "time": 354.1661,
                    "velocity": 0.8031496062992126,
                },
                {
                    "duration": 0.12369771875000879,
                    "durationTicks": 38,
                    "midi": 50,
                    "name": "D3",
                    "ticks": 108864,
                    "time": 354.37443299999995,
                    "velocity": 0.84251968503937,
                },
                {
                    "duration": 0.12369771875000879,
                    "durationTicks": 38,
                    "midi": 48,
                    "name": "C3",
                    "ticks": 108928,
                    "time": 354.582766,
                    "velocity": 0.8031496062992126,
                },
                {
                    "duration": 0.12369771875000879,
                    "durationTicks": 38,
                    "midi": 47,
                    "name": "B2",
                    "ticks": 108992,
                    "time": 354.791099,
                    "velocity": 0.8188976377952756,
                },
                {
                    "duration": 0.8333320000000413,
                    "durationTicks": 256,
                    "midi": 45,
                    "name": "A2",
                    "ticks": 109056,
                    "time": 354.99943199999996,
                    "velocity": 0.8346456692913385,
                },
                {
                    "duration": 0.24739543749996074,
                    "durationTicks": 76,
                    "midi": 45,
                    "name": "A2",
                    "ticks": 109312,
                    "time": 355.832764,
                    "velocity": 0.8582677165354331,
                },
                {
                    "duration": 0.24739543750001758,
                    "durationTicks": 76,
                    "midi": 45,
                    "name": "A2",
                    "ticks": 109440,
                    "time": 356.24942999999996,
                    "velocity": 0.8976377952755905,
                },
                {
                    "duration": 0.49804607812501445,
                    "durationTicks": 153,
                    "midi": 44,
                    "name": "G#2",
                    "ticks": 109568,
                    "time": 356.666096,
                    "velocity": 0.84251968503937,
                },
                {
                    "duration": 0.4720044531250096,
                    "durationTicks": 145,
                    "midi": 44,
                    "name": "G#2",
                    "ticks": 109824,
                    "time": 357.49942799999997,
                    "velocity": 0.8818897637795275,
                },
                {
                    "duration": 1.080727437500002,
                    "durationTicks": 332,
                    "midi": 40,
                    "name": "E2",
                    "ticks": 110080,
                    "time": 358.33275999999995,
                    "velocity": 0.8503937007874016,
                },
                {
                    "duration": 0.6640614374999814,
                    "durationTicks": 204,
                    "midi": 40,
                    "name": "E2",
                    "ticks": 110336,
                    "time": 359.166092,
                    "velocity": 0.8740157480314961,
                },
                {
                    "duration": 6.249990000000025,
                    "durationTicks": 1920,
                    "midi": 40,
                    "name": "E2",
                    "ticks": 110464,
                    "time": 359.58275799999996,
                    "velocity": 0.8976377952755905,
                },
                {
                    "duration": 0.49804607812501445,
                    "durationTicks": 153,
                    "midi": 45,
                    "name": "A2",
                    "ticks": 110592,
                    "time": 359.999424,
                    "velocity": 0.968503937007874,
                },
                {
                    "duration": 0.4720044531250096,
                    "durationTicks": 145,
                    "midi": 45,
                    "name": "A2",
                    "ticks": 110848,
                    "time": 360.83275599999996,
                    "velocity": 0.9133858267716536,
                },
                {
                    "duration": 0.8333319999999844,
                    "durationTicks": 256,
                    "midi": 45,
                    "name": "A2",
                    "ticks": 111104,
                    "time": 361.666088,
                    "velocity": 0.889763779527559,
                },
                {
                    "duration": 0.24739543750001758,
                    "durationTicks": 76,
                    "midi": 45,
                    "name": "A2",
                    "ticks": 111360,
                    "time": 362.49942,
                    "velocity": 0.8503937007874016,
                },
                {
                    "duration": 0.24739543750001758,
                    "durationTicks": 76,
                    "midi": 45,
                    "name": "A2",
                    "ticks": 111488,
                    "time": 362.91608599999995,
                    "velocity": 0.8661417322834646,
                },
                {
                    "duration": 0.5078116875000092,
                    "durationTicks": 156,
                    "midi": 44,
                    "name": "G#2",
                    "ticks": 111616,
                    "time": 363.33275199999997,
                    "velocity": 0.8661417322834646,
                },
                {
                    "duration": 0.4720044531250096,
                    "durationTicks": 145,
                    "midi": 45,
                    "name": "A2",
                    "ticks": 111872,
                    "time": 364.16608399999996,
                    "velocity": 0.8818897637795275,
                },
                {
                    "duration": 0.24739543750001758,
                    "durationTicks": 76,
                    "midi": 52,
                    "name": "E3",
                    "ticks": 112384,
                    "time": 365.832748,
                    "velocity": 0.9921259842519685,
                },
                {
                    "duration": 0.24739543749996074,
                    "durationTicks": 76,
                    "midi": 52,
                    "name": "E3",
                    "ticks": 112512,
                    "time": 366.249414,
                    "velocity": 0.905511811023622,
                },
                {
                    "duration": 0.8333319999999844,
                    "durationTicks": 256,
                    "midi": 45,
                    "name": "A2",
                    "ticks": 112640,
                    "time": 366.66607999999997,
                    "velocity": 0.7952755905511811,
                },
                {
                    "duration": 1.699216031249989,
                    "durationTicks": 522,
                    "midi": 57,
                    "name": "A3",
                    "ticks": 123904,
                    "time": 403.33268799999996,
                    "velocity": 0.2755905511811024,
                },
                {
                    "duration": 1.699216031249989,
                    "durationTicks": 522,
                    "midi": 53,
                    "name": "F3",
                    "ticks": 124416,
                    "time": 404.999352,
                    "velocity": 0.2283464566929134,
                },
                {
                    "duration": 1.699216031250046,
                    "durationTicks": 522,
                    "midi": 52,
                    "name": "E3",
                    "ticks": 124928,
                    "time": 406.66601599999996,
                    "velocity": 0.25196850393700787,
                },
                {
                    "duration": 1.5820287187499957,
                    "durationTicks": 486,
                    "midi": 50,
                    "name": "D3",
                    "ticks": 125440,
                    "time": 408.33268,
                    "velocity": 0.2204724409448819,
                },
                {
                    "duration": 0.41666600000002063,
                    "durationTicks": 128,
                    "midi": 43,
                    "name": "G2",
                    "ticks": 125952,
                    "time": 409.99934399999995,
                    "velocity": 0.8110236220472441,
                },
                {
                    "duration": 0.4166659999999638,
                    "durationTicks": 128,
                    "midi": 55,
                    "name": "G3",
                    "ticks": 126208,
                    "time": 410.832676,
                    "velocity": 0.7637795275590551,
                },
                {
                    "duration": 0.8333319999999844,
                    "durationTicks": 256,
                    "midi": 48,
                    "name": "C3",
                    "ticks": 126464,
                    "time": 411.666008,
                    "velocity": 0.8031496062992126,
                },
                {
                    "duration": 0.8333319999999844,
                    "durationTicks": 256,
                    "midi": 52,
                    "name": "E3",
                    "ticks": 126976,
                    "time": 413.332672,
                    "velocity": 0.3543307086614173,
                },
                {
                    "duration": 0.24739543749996074,
                    "durationTicks": 76,
                    "midi": 52,
                    "name": "E3",
                    "ticks": 127232,
                    "time": 414.166004,
                    "velocity": 0.36220472440944884,
                },
                {
                    "duration": 0.24739543750001758,
                    "durationTicks": 76,
                    "midi": 52,
                    "name": "E3",
                    "ticks": 127360,
                    "time": 414.58266999999995,
                    "velocity": 0.3858267716535433,
                },
                {
                    "duration": 0.41666600000002063,
                    "durationTicks": 128,
                    "midi": 45,
                    "name": "A2",
                    "ticks": 127488,
                    "time": 414.99933599999997,
                    "velocity": 0.33858267716535434,
                },
                {
                    "duration": 0.4166659999999638,
                    "durationTicks": 128,
                    "midi": 43,
                    "name": "G2",
                    "ticks": 128000,
                    "time": 416.666,
                    "velocity": 0.7559055118110236,
                },
                {
                    "duration": 0.41666600000002063,
                    "durationTicks": 128,
                    "midi": 55,
                    "name": "G3",
                    "ticks": 128256,
                    "time": 417.499332,
                    "velocity": 0.7795275590551181,
                },
                {
                    "duration": 0.8333319999999844,
                    "durationTicks": 256,
                    "midi": 48,
                    "name": "C3",
                    "ticks": 128512,
                    "time": 418.33266399999997,
                    "velocity": 0.8267716535433071,
                },
                {
                    "duration": 0.8333319999999844,
                    "durationTicks": 256,
                    "midi": 52,
                    "name": "E3",
                    "ticks": 129024,
                    "time": 419.999328,
                    "velocity": 0.31496062992125984,
                },
                {
                    "duration": 0.24739543750001758,
                    "durationTicks": 76,
                    "midi": 52,
                    "name": "E3",
                    "ticks": 129280,
                    "time": 420.83266,
                    "velocity": 0.3543307086614173,
                },
                {
                    "duration": 0.24739543749996074,
                    "durationTicks": 76,
                    "midi": 52,
                    "name": "E3",
                    "ticks": 129408,
                    "time": 421.249326,
                    "velocity": 0.3779527559055118,
                },
                {
                    "duration": 0.967739999999992,
                    "durationTicks": 256,
                    "midi": 45,
                    "name": "A2",
                    "ticks": 140800,
                    "time": 458.33259999999996,
                    "velocity": 0.6692913385826772,
                },
            ],
            "endOfTrackTicks": 141057,
        },
        {
            "channel": 10,
            "controlChanges": {
                "7": [
                    {
                        "number": 7,
                        "ticks": 51293,
                        "time": 166.969133890625,
                        "value": 0.6929133858267716,
                    },
                    {
                        "number": 7,
                        "ticks": 76288,
                        "time": 248.332936,
                        "value": 0.6929133858267716,
                    },
                    {
                        "number": 7,
                        "ticks": 114176,
                        "time": 371.666072,
                        "value": 0.6929133858267716,
                    },
                    {
                        "number": 7,
                        "ticks": 130304,
                        "time": 424.16598799999997,
                        "value": 0.6929133858267716,
                    },
                ],
                "10": [
                    {
                        "number": 10,
                        "ticks": 51293,
                        "time": 166.969133890625,
                        "value": 0.7480314960629921,
                    },
                    {
                        "number": 10,
                        "ticks": 76288,
                        "time": 248.332936,
                        "value": 0.7480314960629921,
                    },
                    {
                        "number": 10,
                        "ticks": 114176,
                        "time": 371.666072,
                        "value": 0.7480314960629921,
                    },
                    {
                        "number": 10,
                        "ticks": 130304,
                        "time": 424.16598799999997,
                        "value": 0.7480314960629921,
                    },
                ],
                "91": [
                    {
                        "number": 91,
                        "ticks": 51293,
                        "time": 166.969133890625,
                        "value": 0.4645669291338583,
                    },
                    {
                        "number": 91,
                        "ticks": 76288,
                        "time": 248.332936,
                        "value": 0.4645669291338583,
                    },
                    {
                        "number": 91,
                        "ticks": 114176,
                        "time": 371.666072,
                        "value": 0.4645669291338583,
                    },
                    {
                        "number": 91,
                        "ticks": 130304,
                        "time": 424.16598799999997,
                        "value": 0.4645669291338583,
                    },
                ],
            },
            "pitchBends": [],
            "instrument": {
                "family": "strings",
                "number": 45,
                "name": "pizzicato strings",
            },
            "name": "",
            "notes": [
                {
                    "duration": 0.4166659999999922,
                    "durationTicks": 128,
                    "midi": 42,
                    "name": "F#2",
                    "ticks": 51456,
                    "time": 167.499732,
                    "velocity": 0.3779527559055118,
                },
                {
                    "duration": 0.4166659999999922,
                    "durationTicks": 128,
                    "midi": 44,
                    "name": "G#2",
                    "ticks": 51584,
                    "time": 167.916398,
                    "velocity": 0.4251968503937008,
                },
                {
                    "duration": 0.8333320000000128,
                    "durationTicks": 256,
                    "midi": 45,
                    "name": "A2",
                    "ticks": 51712,
                    "time": 168.33306399999998,
                    "velocity": 0.3937007874015748,
                },
                {
                    "duration": 0.4166659999999922,
                    "durationTicks": 128,
                    "midi": 57,
                    "name": "A3",
                    "ticks": 51968,
                    "time": 169.166396,
                    "velocity": 0.4330708661417323,
                },
                {
                    "duration": 0.4166659999999922,
                    "durationTicks": 128,
                    "midi": 57,
                    "name": "A3",
                    "ticks": 52096,
                    "time": 169.58306199999998,
                    "velocity": 0.4330708661417323,
                },
                {
                    "duration": 0.8333320000000128,
                    "durationTicks": 256,
                    "midi": 45,
                    "name": "A2",
                    "ticks": 52224,
                    "time": 169.99972799999998,
                    "velocity": 0.31496062992125984,
                },
                {
                    "duration": 0.4166659999999922,
                    "durationTicks": 128,
                    "midi": 57,
                    "name": "A3",
                    "ticks": 52480,
                    "time": 170.83306,
                    "velocity": 0.41732283464566927,
                },
                {
                    "duration": 0.4166659999999922,
                    "durationTicks": 128,
                    "midi": 57,
                    "name": "A3",
                    "ticks": 52608,
                    "time": 171.24972599999998,
                    "velocity": 0.3779527559055118,
                },
                {
                    "duration": 0.8333320000000128,
                    "durationTicks": 256,
                    "midi": 45,
                    "name": "A2",
                    "ticks": 52736,
                    "time": 171.66639199999997,
                    "velocity": 0.2992125984251969,
                },
                {
                    "duration": 0.4166659999999922,
                    "durationTicks": 128,
                    "midi": 57,
                    "name": "A3",
                    "ticks": 52992,
                    "time": 172.499724,
                    "velocity": 0.4409448818897638,
                },
                {
                    "duration": 0.41666600000002063,
                    "durationTicks": 128,
                    "midi": 57,
                    "name": "A3",
                    "ticks": 53120,
                    "time": 172.91638999999998,
                    "velocity": 0.4094488188976378,
                },
                {
                    "duration": 0.8333319999999844,
                    "durationTicks": 256,
                    "midi": 45,
                    "name": "A2",
                    "ticks": 53248,
                    "time": 173.333056,
                    "velocity": 0.4094488188976378,
                },
                {
                    "duration": 0.4166659999999922,
                    "durationTicks": 128,
                    "midi": 57,
                    "name": "A3",
                    "ticks": 53504,
                    "time": 174.16638799999998,
                    "velocity": 0.4645669291338583,
                },
                {
                    "duration": 0.41666600000002063,
                    "durationTicks": 128,
                    "midi": 57,
                    "name": "A3",
                    "ticks": 53632,
                    "time": 174.58305399999998,
                    "velocity": 0.5039370078740157,
                },
                {
                    "duration": 0.8333319999999844,
                    "durationTicks": 256,
                    "midi": 45,
                    "name": "A2",
                    "ticks": 53760,
                    "time": 174.99972,
                    "velocity": 0.4015748031496063,
                },
                {
                    "duration": 0.4166659999999922,
                    "durationTicks": 128,
                    "midi": 57,
                    "name": "A3",
                    "ticks": 54016,
                    "time": 175.83305199999998,
                    "velocity": 0.5905511811023622,
                },
                {
                    "duration": 0.41666600000002063,
                    "durationTicks": 128,
                    "midi": 57,
                    "name": "A3",
                    "ticks": 54144,
                    "time": 176.24971799999997,
                    "velocity": 0.5511811023622047,
                },
                {
                    "duration": 0.8333319999999844,
                    "durationTicks": 256,
                    "midi": 45,
                    "name": "A2",
                    "ticks": 54272,
                    "time": 176.666384,
                    "velocity": 0.48031496062992124,
                },
                {
                    "duration": 0.41666600000002063,
                    "durationTicks": 128,
                    "midi": 57,
                    "name": "A3",
                    "ticks": 54528,
                    "time": 177.49971599999998,
                    "velocity": 0.6535433070866141,
                },
                {
                    "duration": 0.4166659999999922,
                    "durationTicks": 128,
                    "midi": 57,
                    "name": "A3",
                    "ticks": 54656,
                    "time": 177.916382,
                    "velocity": 0.6692913385826772,
                },
                {
                    "duration": 0.8333319999999844,
                    "durationTicks": 256,
                    "midi": 45,
                    "name": "A2",
                    "ticks": 54784,
                    "time": 178.333048,
                    "velocity": 0.4251968503937008,
                },
                {
                    "duration": 0.41666600000002063,
                    "durationTicks": 128,
                    "midi": 57,
                    "name": "A3",
                    "ticks": 55040,
                    "time": 179.16637999999998,
                    "velocity": 0.5196850393700787,
                },
                {
                    "duration": 0.4166659999999922,
                    "durationTicks": 128,
                    "midi": 57,
                    "name": "A3",
                    "ticks": 55168,
                    "time": 179.583046,
                    "velocity": 0.4251968503937008,
                },
                {
                    "duration": 0.8333319999999844,
                    "durationTicks": 256,
                    "midi": 45,
                    "name": "A2",
                    "ticks": 55296,
                    "time": 179.999712,
                    "velocity": 0.36220472440944884,
                },
                {
                    "duration": 0.41666600000002063,
                    "durationTicks": 128,
                    "midi": 57,
                    "name": "A3",
                    "ticks": 55552,
                    "time": 180.83304399999997,
                    "velocity": 0.4881889763779528,
                },
                {
                    "duration": 0.4166659999999922,
                    "durationTicks": 128,
                    "midi": 57,
                    "name": "A3",
                    "ticks": 55680,
                    "time": 181.24971,
                    "velocity": 0.4015748031496063,
                },
                {
                    "duration": 0.8333320000000128,
                    "durationTicks": 256,
                    "midi": 45,
                    "name": "A2",
                    "ticks": 55808,
                    "time": 181.66637599999999,
                    "velocity": 0.30708661417322836,
                },
                {
                    "duration": 0.4166659999999922,
                    "durationTicks": 128,
                    "midi": 57,
                    "name": "A3",
                    "ticks": 56064,
                    "time": 182.499708,
                    "velocity": 0.4330708661417323,
                },
                {
                    "duration": 0.4166659999999922,
                    "durationTicks": 128,
                    "midi": 57,
                    "name": "A3",
                    "ticks": 56192,
                    "time": 182.916374,
                    "velocity": 0.3937007874015748,
                },
                {
                    "duration": 0.8333320000000128,
                    "durationTicks": 256,
                    "midi": 45,
                    "name": "A2",
                    "ticks": 56320,
                    "time": 183.33303999999998,
                    "velocity": 0.33070866141732286,
                },
                {
                    "duration": 0.4166659999999922,
                    "durationTicks": 128,
                    "midi": 57,
                    "name": "A3",
                    "ticks": 56576,
                    "time": 184.166372,
                    "velocity": 0.4645669291338583,
                },
                {
                    "duration": 0.4166659999999922,
                    "durationTicks": 128,
                    "midi": 57,
                    "name": "A3",
                    "ticks": 56704,
                    "time": 184.583038,
                    "velocity": 0.44881889763779526,
                },
                {
                    "duration": 0.8333320000000128,
                    "durationTicks": 256,
                    "midi": 45,
                    "name": "A2",
                    "ticks": 56832,
                    "time": 184.99970399999998,
                    "velocity": 0.36220472440944884,
                },
                {
                    "duration": 0.4166659999999922,
                    "durationTicks": 128,
                    "midi": 57,
                    "name": "A3",
                    "ticks": 57088,
                    "time": 185.833036,
                    "velocity": 0.48031496062992124,
                },
                {
                    "duration": 0.4166659999999922,
                    "durationTicks": 128,
                    "midi": 57,
                    "name": "A3",
                    "ticks": 57216,
                    "time": 186.24970199999998,
                    "velocity": 0.47244094488188976,
                },
                {
                    "duration": 0.8333320000000128,
                    "durationTicks": 256,
                    "midi": 45,
                    "name": "A2",
                    "ticks": 57344,
                    "time": 186.66636799999998,
                    "velocity": 0.4015748031496063,
                },
                {
                    "duration": 0.4166659999999922,
                    "durationTicks": 128,
                    "midi": 57,
                    "name": "A3",
                    "ticks": 57600,
                    "time": 187.4997,
                    "velocity": 0.5748031496062992,
                },
                {
                    "duration": 0.4166659999999922,
                    "durationTicks": 128,
                    "midi": 57,
                    "name": "A3",
                    "ticks": 57728,
                    "time": 187.91636599999998,
                    "velocity": 0.47244094488188976,
                },
                {
                    "duration": 0.41666600000002063,
                    "durationTicks": 128,
                    "midi": 42,
                    "name": "F#2",
                    "ticks": 57856,
                    "time": 188.33303199999997,
                    "velocity": 0.4409448818897638,
                },
                {
                    "duration": 0.4166659999999922,
                    "durationTicks": 128,
                    "midi": 44,
                    "name": "G#2",
                    "ticks": 57984,
                    "time": 188.749698,
                    "velocity": 0.4881889763779528,
                },
                {
                    "duration": 0.4166659999999922,
                    "durationTicks": 128,
                    "midi": 45,
                    "name": "A2",
                    "ticks": 58112,
                    "time": 189.166364,
                    "velocity": 0.5039370078740157,
                },
                {
                    "duration": 0.4166659999999922,
                    "durationTicks": 128,
                    "midi": 45,
                    "name": "A2",
                    "ticks": 58240,
                    "time": 189.58302999999998,
                    "velocity": 0.4645669291338583,
                },
                {
                    "duration": 0.8333320000000128,
                    "durationTicks": 256,
                    "midi": 47,
                    "name": "B2",
                    "ticks": 58368,
                    "time": 189.99969599999997,
                    "velocity": 0.47244094488188976,
                },
                {
                    "duration": 0.4166659999999922,
                    "durationTicks": 128,
                    "midi": 59,
                    "name": "B3",
                    "ticks": 58624,
                    "time": 190.83302799999998,
                    "velocity": 0.4409448818897638,
                },
                {
                    "duration": 0.41666600000002063,
                    "durationTicks": 128,
                    "midi": 59,
                    "name": "B3",
                    "ticks": 58752,
                    "time": 191.24969399999998,
                    "velocity": 0.3858267716535433,
                },
                {
                    "duration": 0.8333319999999844,
                    "durationTicks": 256,
                    "midi": 52,
                    "name": "E3",
                    "ticks": 58880,
                    "time": 191.66636,
                    "velocity": 0.36220472440944884,
                },
                {
                    "duration": 0.4166659999999922,
                    "durationTicks": 128,
                    "midi": 64,
                    "name": "E4",
                    "ticks": 59136,
                    "time": 192.49969199999998,
                    "velocity": 0.33070866141732286,
                },
                {
                    "duration": 0.41666600000002063,
                    "durationTicks": 128,
                    "midi": 64,
                    "name": "E4",
                    "ticks": 59264,
                    "time": 192.91635799999997,
                    "velocity": 0.28346456692913385,
                },
                {
                    "duration": 0.8333319999999844,
                    "durationTicks": 256,
                    "midi": 52,
                    "name": "E3",
                    "ticks": 59392,
                    "time": 193.333024,
                    "velocity": 0.2283464566929134,
                },
                {
                    "duration": 0.41666600000002063,
                    "durationTicks": 128,
                    "midi": 64,
                    "name": "E4",
                    "ticks": 59648,
                    "time": 194.16635599999998,
                    "velocity": 0.33858267716535434,
                },
                {
                    "duration": 0.4166659999999922,
                    "durationTicks": 128,
                    "midi": 64,
                    "name": "E4",
                    "ticks": 59776,
                    "time": 194.583022,
                    "velocity": 0.33070866141732286,
                },
                {
                    "duration": 0.8333319999999844,
                    "durationTicks": 256,
                    "midi": 52,
                    "name": "E3",
                    "ticks": 59904,
                    "time": 194.999688,
                    "velocity": 0.25984251968503935,
                },
                {
                    "duration": 0.41666600000002063,
                    "durationTicks": 128,
                    "midi": 64,
                    "name": "E4",
                    "ticks": 60160,
                    "time": 195.83301999999998,
                    "velocity": 0.36220472440944884,
                },
                {
                    "duration": 0.4166659999999922,
                    "durationTicks": 128,
                    "midi": 64,
                    "name": "E4",
                    "ticks": 60288,
                    "time": 196.249686,
                    "velocity": 0.2755905511811024,
                },
                {
                    "duration": 0.8333319999999844,
                    "durationTicks": 256,
                    "midi": 52,
                    "name": "E3",
                    "ticks": 60416,
                    "time": 196.666352,
                    "velocity": 0.2440944881889764,
                },
                {
                    "duration": 0.41666600000002063,
                    "durationTicks": 128,
                    "midi": 64,
                    "name": "E4",
                    "ticks": 60672,
                    "time": 197.49968399999997,
                    "velocity": 0.4015748031496063,
                },
                {
                    "duration": 0.4166659999999922,
                    "durationTicks": 128,
                    "midi": 64,
                    "name": "E4",
                    "ticks": 60800,
                    "time": 197.91635,
                    "velocity": 0.30708661417322836,
                },
                {
                    "duration": 0.8333320000000128,
                    "durationTicks": 256,
                    "midi": 52,
                    "name": "E3",
                    "ticks": 60928,
                    "time": 198.333016,
                    "velocity": 0.2440944881889764,
                },
                {
                    "duration": 0.4166659999999922,
                    "durationTicks": 128,
                    "midi": 64,
                    "name": "E4",
                    "ticks": 61184,
                    "time": 199.166348,
                    "velocity": 0.3700787401574803,
                },
                {
                    "duration": 0.4166659999999922,
                    "durationTicks": 128,
                    "midi": 64,
                    "name": "E4",
                    "ticks": 61312,
                    "time": 199.583014,
                    "velocity": 0.2992125984251969,
                },
                {
                    "duration": 0.8333320000000128,
                    "durationTicks": 256,
                    "midi": 52,
                    "name": "E3",
                    "ticks": 61440,
                    "time": 199.99967999999998,
                    "velocity": 0.25196850393700787,
                },
                {
                    "duration": 0.4166659999999922,
                    "durationTicks": 128,
                    "midi": 64,
                    "name": "E4",
                    "ticks": 61696,
                    "time": 200.833012,
                    "velocity": 0.3937007874015748,
                },
                {
                    "duration": 0.4166659999999922,
                    "durationTicks": 128,
                    "midi": 64,
                    "name": "E4",
                    "ticks": 61824,
                    "time": 201.249678,
                    "velocity": 0.2755905511811024,
                },
                {
                    "duration": 0.8333320000000128,
                    "durationTicks": 256,
                    "midi": 52,
                    "name": "E3",
                    "ticks": 61952,
                    "time": 201.66634399999998,
                    "velocity": 0.2755905511811024,
                },
                {
                    "duration": 0.4166659999999922,
                    "durationTicks": 128,
                    "midi": 64,
                    "name": "E4",
                    "ticks": 62208,
                    "time": 202.499676,
                    "velocity": 0.36220472440944884,
                },
                {
                    "duration": 0.4166659999999922,
                    "durationTicks": 128,
                    "midi": 64,
                    "name": "E4",
                    "ticks": 62336,
                    "time": 202.916342,
                    "velocity": 0.30708661417322836,
                },
                {
                    "duration": 0.8333320000000128,
                    "durationTicks": 256,
                    "midi": 49,
                    "name": "C#3",
                    "ticks": 62464,
                    "time": 203.33300799999998,
                    "velocity": 0.28346456692913385,
                },
                {
                    "duration": 0.4166659999999922,
                    "durationTicks": 128,
                    "midi": 61,
                    "name": "C#4",
                    "ticks": 62720,
                    "time": 204.16634,
                    "velocity": 0.3779527559055118,
                },
                {
                    "duration": 0.4166659999999922,
                    "durationTicks": 128,
                    "midi": 61,
                    "name": "C#4",
                    "ticks": 62848,
                    "time": 204.58300599999998,
                    "velocity": 0.33858267716535434,
                },
                {
                    "duration": 0.8333320000000128,
                    "durationTicks": 256,
                    "midi": 50,
                    "name": "D3",
                    "ticks": 62976,
                    "time": 204.99967199999998,
                    "velocity": 0.29133858267716534,
                },
                {
                    "duration": 0.4166659999999922,
                    "durationTicks": 128,
                    "midi": 62,
                    "name": "D4",
                    "ticks": 63232,
                    "time": 205.833004,
                    "velocity": 0.5433070866141733,
                },
                {
                    "duration": 0.4166659999999922,
                    "durationTicks": 128,
                    "midi": 62,
                    "name": "D4",
                    "ticks": 63360,
                    "time": 206.24966999999998,
                    "velocity": 0.44881889763779526,
                },
                {
                    "duration": 0.8333320000000128,
                    "durationTicks": 256,
                    "midi": 49,
                    "name": "C#3",
                    "ticks": 63488,
                    "time": 206.66633599999997,
                    "velocity": 0.41732283464566927,
                },
                {
                    "duration": 0.4166659999999922,
                    "durationTicks": 128,
                    "midi": 61,
                    "name": "C#4",
                    "ticks": 63744,
                    "time": 207.49966799999999,
                    "velocity": 0.6141732283464567,
                },
                {
                    "duration": 0.41666600000002063,
                    "durationTicks": 128,
                    "midi": 61,
                    "name": "C#4",
                    "ticks": 63872,
                    "time": 207.91633399999998,
                    "velocity": 0.5669291338582677,
                },
                {
                    "duration": 0.8333319999999844,
                    "durationTicks": 256,
                    "midi": 50,
                    "name": "D3",
                    "ticks": 64000,
                    "time": 208.333,
                    "velocity": 0.4881889763779528,
                },
                {
                    "duration": 0.4166659999999922,
                    "durationTicks": 128,
                    "midi": 62,
                    "name": "D4",
                    "ticks": 64256,
                    "time": 209.16633199999998,
                    "velocity": 0.7401574803149606,
                },
                {
                    "duration": 0.41666600000002063,
                    "durationTicks": 128,
                    "midi": 62,
                    "name": "D4",
                    "ticks": 64384,
                    "time": 209.58299799999998,
                    "velocity": 0.6535433070866141,
                },
                {
                    "duration": 0.8333319999999844,
                    "durationTicks": 256,
                    "midi": 49,
                    "name": "C#3",
                    "ticks": 64512,
                    "time": 209.999664,
                    "velocity": 0.5039370078740157,
                },
                {
                    "duration": 0.4166659999999922,
                    "durationTicks": 128,
                    "midi": 61,
                    "name": "C#4",
                    "ticks": 64768,
                    "time": 210.83299599999998,
                    "velocity": 0.7322834645669292,
                },
                {
                    "duration": 0.41666600000002063,
                    "durationTicks": 128,
                    "midi": 61,
                    "name": "C#4",
                    "ticks": 64896,
                    "time": 211.24966199999997,
                    "velocity": 0.6141732283464567,
                },
                {
                    "duration": 0.8333319999999844,
                    "durationTicks": 256,
                    "midi": 50,
                    "name": "D3",
                    "ticks": 65024,
                    "time": 211.666328,
                    "velocity": 0.49606299212598426,
                },
                {
                    "duration": 0.41666600000002063,
                    "durationTicks": 128,
                    "midi": 62,
                    "name": "D4",
                    "ticks": 65280,
                    "time": 212.49965999999998,
                    "velocity": 0.6299212598425197,
                },
                {
                    "duration": 0.4166659999999922,
                    "durationTicks": 128,
                    "midi": 62,
                    "name": "D4",
                    "ticks": 65408,
                    "time": 212.916326,
                    "velocity": 0.5590551181102362,
                },
                {
                    "duration": 0.8333319999999844,
                    "durationTicks": 256,
                    "midi": 52,
                    "name": "E3",
                    "ticks": 65536,
                    "time": 213.332992,
                    "velocity": 0.3464566929133858,
                },
                {
                    "duration": 0.41666600000002063,
                    "durationTicks": 128,
                    "midi": 64,
                    "name": "E4",
                    "ticks": 65792,
                    "time": 214.16632399999997,
                    "velocity": 0.5196850393700787,
                },
                {
                    "duration": 0.4166659999999922,
                    "durationTicks": 128,
                    "midi": 64,
                    "name": "E4",
                    "ticks": 65920,
                    "time": 214.58299,
                    "velocity": 0.4251968503937008,
                },
                {
                    "duration": 0.8333319999999844,
                    "durationTicks": 256,
                    "midi": 45,
                    "name": "A2",
                    "ticks": 66048,
                    "time": 214.999656,
                    "velocity": 0.4015748031496063,
                },
                {
                    "duration": 0.41666600000002063,
                    "durationTicks": 128,
                    "midi": 57,
                    "name": "A3",
                    "ticks": 66304,
                    "time": 215.83298799999997,
                    "velocity": 0.49606299212598426,
                },
                {
                    "duration": 0.4166659999999922,
                    "durationTicks": 128,
                    "midi": 57,
                    "name": "A3",
                    "ticks": 66432,
                    "time": 216.249654,
                    "velocity": 0.44881889763779526,
                },
                {
                    "duration": 0.8333320000000128,
                    "durationTicks": 256,
                    "midi": 49,
                    "name": "C#3",
                    "ticks": 66560,
                    "time": 216.66631999999998,
                    "velocity": 0.3858267716535433,
                },
                {
                    "duration": 0.4166659999999922,
                    "durationTicks": 128,
                    "midi": 61,
                    "name": "C#4",
                    "ticks": 66816,
                    "time": 217.499652,
                    "velocity": 0.6141732283464567,
                },
                {
                    "duration": 0.4166659999999922,
                    "durationTicks": 128,
                    "midi": 61,
                    "name": "C#4",
                    "ticks": 66944,
                    "time": 217.916318,
                    "velocity": 0.5275590551181102,
                },
                {
                    "duration": 0.8333320000000128,
                    "durationTicks": 256,
                    "midi": 50,
                    "name": "D3",
                    "ticks": 67072,
                    "time": 218.33298399999998,
                    "velocity": 0.4409448818897638,
                },
                {
                    "duration": 0.4166659999999922,
                    "durationTicks": 128,
                    "midi": 62,
                    "name": "D4",
                    "ticks": 67328,
                    "time": 219.166316,
                    "velocity": 0.6614173228346457,
                },
                {
                    "duration": 0.4166659999999922,
                    "durationTicks": 128,
                    "midi": 62,
                    "name": "D4",
                    "ticks": 67456,
                    "time": 219.582982,
                    "velocity": 0.5511811023622047,
                },
                {
                    "duration": 0.8333320000000128,
                    "durationTicks": 256,
                    "midi": 49,
                    "name": "C#3",
                    "ticks": 67584,
                    "time": 219.99964799999998,
                    "velocity": 0.49606299212598426,
                },
                {
                    "duration": 0.4166659999999922,
                    "durationTicks": 128,
                    "midi": 61,
                    "name": "C#4",
                    "ticks": 67840,
                    "time": 220.83298,
                    "velocity": 0.7874015748031497,
                },
                {
                    "duration": 0.4166659999999922,
                    "durationTicks": 128,
                    "midi": 61,
                    "name": "C#4",
                    "ticks": 67968,
                    "time": 221.24964599999998,
                    "velocity": 0.6299212598425197,
                },
                {
                    "duration": 0.8333320000000128,
                    "durationTicks": 256,
                    "midi": 50,
                    "name": "D3",
                    "ticks": 68096,
                    "time": 221.66631199999998,
                    "velocity": 0.5275590551181102,
                },
                {
                    "duration": 0.4166659999999922,
                    "durationTicks": 128,
                    "midi": 62,
                    "name": "D4",
                    "ticks": 68352,
                    "time": 222.499644,
                    "velocity": 0.7874015748031497,
                },
                {
                    "duration": 0.4166659999999922,
                    "durationTicks": 128,
                    "midi": 62,
                    "name": "D4",
                    "ticks": 68480,
                    "time": 222.91630999999998,
                    "velocity": 0.6377952755905512,
                },
                {
                    "duration": 0.8333320000000128,
                    "durationTicks": 256,
                    "midi": 49,
                    "name": "C#3",
                    "ticks": 68608,
                    "time": 223.33297599999997,
                    "velocity": 0.4645669291338583,
                },
                {
                    "duration": 0.4166659999999922,
                    "durationTicks": 128,
                    "midi": 48,
                    "name": "C3",
                    "ticks": 68864,
                    "time": 224.166308,
                    "velocity": 0.5275590551181102,
                },
                {
                    "duration": 0.4166659999999922,
                    "durationTicks": 128,
                    "midi": 48,
                    "name": "C3",
                    "ticks": 68992,
                    "time": 224.58297399999998,
                    "velocity": 0.5433070866141733,
                },
                {
                    "duration": 0.8333320000000128,
                    "durationTicks": 256,
                    "midi": 41,
                    "name": "F2",
                    "ticks": 69120,
                    "time": 224.99963999999997,
                    "velocity": 0.4881889763779528,
                },
                {
                    "duration": 0.4166659999999922,
                    "durationTicks": 128,
                    "midi": 53,
                    "name": "F3",
                    "ticks": 69376,
                    "time": 225.83297199999998,
                    "velocity": 0.5511811023622047,
                },
                {
                    "duration": 0.41666600000002063,
                    "durationTicks": 128,
                    "midi": 53,
                    "name": "F3",
                    "ticks": 69504,
                    "time": 226.24963799999998,
                    "velocity": 0.5196850393700787,
                },
                {
                    "duration": 0.8333319999999844,
                    "durationTicks": 256,
                    "midi": 43,
                    "name": "G2",
                    "ticks": 69632,
                    "time": 226.666304,
                    "velocity": 0.3464566929133858,
                },
                {
                    "duration": 0.4166659999999922,
                    "durationTicks": 128,
                    "midi": 55,
                    "name": "G3",
                    "ticks": 69888,
                    "time": 227.49963599999998,
                    "velocity": 0.4566929133858268,
                },
                {
                    "duration": 0.41666600000002063,
                    "durationTicks": 128,
                    "midi": 55,
                    "name": "G3",
                    "ticks": 70016,
                    "time": 227.91630199999997,
                    "velocity": 0.3937007874015748,
                },
                {
                    "duration": 0.8333319999999844,
                    "durationTicks": 256,
                    "midi": 48,
                    "name": "C3",
                    "ticks": 70144,
                    "time": 228.332968,
                    "velocity": 0.3464566929133858,
                },
                {
                    "duration": 0.4166659999999922,
                    "durationTicks": 128,
                    "midi": 60,
                    "name": "C4",
                    "ticks": 70400,
                    "time": 229.16629999999998,
                    "velocity": 0.4645669291338583,
                },
                {
                    "duration": 0.41666600000002063,
                    "durationTicks": 128,
                    "midi": 60,
                    "name": "C4",
                    "ticks": 70528,
                    "time": 229.58296599999997,
                    "velocity": 0.3779527559055118,
                },
                {
                    "duration": 0.8333319999999844,
                    "durationTicks": 256,
                    "midi": 48,
                    "name": "C3",
                    "ticks": 70656,
                    "time": 229.999632,
                    "velocity": 0.3858267716535433,
                },
                {
                    "duration": 0.41666600000002063,
                    "durationTicks": 128,
                    "midi": 60,
                    "name": "C4",
                    "ticks": 70912,
                    "time": 230.83296399999998,
                    "velocity": 0.47244094488188976,
                },
                {
                    "duration": 0.4166659999999922,
                    "durationTicks": 128,
                    "midi": 60,
                    "name": "C4",
                    "ticks": 71040,
                    "time": 231.24963,
                    "velocity": 0.3543307086614173,
                },
                {
                    "duration": 0.8333319999999844,
                    "durationTicks": 256,
                    "midi": 48,
                    "name": "C3",
                    "ticks": 71168,
                    "time": 231.666296,
                    "velocity": 0.33070866141732286,
                },
                {
                    "duration": 0.41666600000002063,
                    "durationTicks": 128,
                    "midi": 60,
                    "name": "C4",
                    "ticks": 71424,
                    "time": 232.49962799999997,
                    "velocity": 0.48031496062992124,
                },
                {
                    "duration": 0.4166659999999922,
                    "durationTicks": 128,
                    "midi": 60,
                    "name": "C4",
                    "ticks": 71552,
                    "time": 232.916294,
                    "velocity": 0.4251968503937008,
                },
                {
                    "duration": 0.8333319999999844,
                    "durationTicks": 256,
                    "midi": 48,
                    "name": "C3",
                    "ticks": 71680,
                    "time": 233.33295999999999,
                    "velocity": 0.3700787401574803,
                },
                {
                    "duration": 0.41666600000002063,
                    "durationTicks": 128,
                    "midi": 60,
                    "name": "C4",
                    "ticks": 71936,
                    "time": 234.16629199999997,
                    "velocity": 0.4566929133858268,
                },
                {
                    "duration": 0.4166659999999922,
                    "durationTicks": 128,
                    "midi": 60,
                    "name": "C4",
                    "ticks": 72064,
                    "time": 234.582958,
                    "velocity": 0.3858267716535433,
                },
                {
                    "duration": 0.8333320000000128,
                    "durationTicks": 256,
                    "midi": 48,
                    "name": "C3",
                    "ticks": 72192,
                    "time": 234.99962399999998,
                    "velocity": 0.3228346456692913,
                },
                {
                    "duration": 0.4166659999999922,
                    "durationTicks": 128,
                    "midi": 60,
                    "name": "C4",
                    "ticks": 72448,
                    "time": 235.832956,
                    "velocity": 0.44881889763779526,
                },
                {
                    "duration": 0.4166659999999922,
                    "durationTicks": 128,
                    "midi": 60,
                    "name": "C4",
                    "ticks": 72576,
                    "time": 236.249622,
                    "velocity": 0.4251968503937008,
                },
                {
                    "duration": 0.8333320000000128,
                    "durationTicks": 256,
                    "midi": 48,
                    "name": "C3",
                    "ticks": 72704,
                    "time": 236.66628799999998,
                    "velocity": 0.3543307086614173,
                },
                {
                    "duration": 0.4166659999999922,
                    "durationTicks": 128,
                    "midi": 60,
                    "name": "C4",
                    "ticks": 72960,
                    "time": 237.49962,
                    "velocity": 0.5275590551181102,
                },
                {
                    "duration": 0.4166659999999922,
                    "durationTicks": 128,
                    "midi": 60,
                    "name": "C4",
                    "ticks": 73088,
                    "time": 237.91628599999999,
                    "velocity": 0.4251968503937008,
                },
                {
                    "duration": 0.8333319999999844,
                    "durationTicks": 256,
                    "midi": 40,
                    "name": "E2",
                    "ticks": 76288,
                    "time": 248.332936,
                    "velocity": 0.3543307086614173,
                },
                {
                    "duration": 0.41666600000002063,
                    "durationTicks": 128,
                    "midi": 40,
                    "name": "E2",
                    "ticks": 76544,
                    "time": 249.16626799999997,
                    "velocity": 0.31496062992125984,
                },
                {
                    "duration": 0.4166659999999922,
                    "durationTicks": 128,
                    "midi": 40,
                    "name": "E2",
                    "ticks": 76672,
                    "time": 249.582934,
                    "velocity": 0.2755905511811024,
                },
                {
                    "duration": 0.8333319999999844,
                    "durationTicks": 256,
                    "midi": 40,
                    "name": "E2",
                    "ticks": 76800,
                    "time": 249.9996,
                    "velocity": 0.29133858267716534,
                },
                {
                    "duration": 0.8333320000000128,
                    "durationTicks": 256,
                    "midi": 40,
                    "name": "E2",
                    "ticks": 77056,
                    "time": 250.83293199999997,
                    "velocity": 0.25984251968503935,
                },
                {
                    "duration": 0.8333320000000128,
                    "durationTicks": 256,
                    "midi": 40,
                    "name": "E2",
                    "ticks": 77312,
                    "time": 251.66626399999998,
                    "velocity": 0.2677165354330709,
                },
                {
                    "duration": 0.4166659999999922,
                    "durationTicks": 128,
                    "midi": 40,
                    "name": "E2",
                    "ticks": 77568,
                    "time": 252.499596,
                    "velocity": 0.28346456692913385,
                },
                {
                    "duration": 0.4166659999999922,
                    "durationTicks": 128,
                    "midi": 40,
                    "name": "E2",
                    "ticks": 77696,
                    "time": 252.916262,
                    "velocity": 0.2677165354330709,
                },
                {
                    "duration": 0.8333320000000128,
                    "durationTicks": 256,
                    "midi": 40,
                    "name": "E2",
                    "ticks": 77824,
                    "time": 253.33292799999998,
                    "velocity": 0.2283464566929134,
                },
                {
                    "duration": 0.8333319999999844,
                    "durationTicks": 256,
                    "midi": 40,
                    "name": "E2",
                    "ticks": 78080,
                    "time": 254.16626,
                    "velocity": 0.28346456692913385,
                },
                {
                    "duration": 0.8333320000000128,
                    "durationTicks": 256,
                    "midi": 40,
                    "name": "E2",
                    "ticks": 78336,
                    "time": 254.99959199999998,
                    "velocity": 0.2992125984251969,
                },
                {
                    "duration": 0.41666600000002063,
                    "durationTicks": 128,
                    "midi": 40,
                    "name": "E2",
                    "ticks": 78592,
                    "time": 255.832924,
                    "velocity": 0.29133858267716534,
                },
                {
                    "duration": 0.4166659999999638,
                    "durationTicks": 128,
                    "midi": 42,
                    "name": "F#2",
                    "ticks": 78720,
                    "time": 256.24959,
                    "velocity": 0.2677165354330709,
                },
                {
                    "duration": 0.8333320000000413,
                    "durationTicks": 256,
                    "midi": 43,
                    "name": "G2",
                    "ticks": 78848,
                    "time": 256.666256,
                    "velocity": 0.29133858267716534,
                },
                {
                    "duration": 0.8333319999999844,
                    "durationTicks": 256,
                    "midi": 43,
                    "name": "G2",
                    "ticks": 79104,
                    "time": 257.499588,
                    "velocity": 0.2677165354330709,
                },
                {
                    "duration": 0.8333319999999844,
                    "durationTicks": 256,
                    "midi": 43,
                    "name": "G2",
                    "ticks": 79360,
                    "time": 258.33292,
                    "velocity": 0.30708661417322836,
                },
                {
                    "duration": 0.41666600000002063,
                    "durationTicks": 128,
                    "midi": 43,
                    "name": "G2",
                    "ticks": 79616,
                    "time": 259.166252,
                    "velocity": 0.2677165354330709,
                },
                {
                    "duration": 0.4166659999999638,
                    "durationTicks": 128,
                    "midi": 43,
                    "name": "G2",
                    "ticks": 79744,
                    "time": 259.582918,
                    "velocity": 0.25984251968503935,
                },
                {
                    "duration": 0.8333319999999844,
                    "durationTicks": 256,
                    "midi": 43,
                    "name": "G2",
                    "ticks": 79872,
                    "time": 259.99958399999997,
                    "velocity": 0.25984251968503935,
                },
                {
                    "duration": 0.8333319999999844,
                    "durationTicks": 256,
                    "midi": 43,
                    "name": "G2",
                    "ticks": 80384,
                    "time": 261.666248,
                    "velocity": 0.28346456692913385,
                },
                {
                    "duration": 0.41666600000002063,
                    "durationTicks": 128,
                    "midi": 43,
                    "name": "G2",
                    "ticks": 80640,
                    "time": 262.49958,
                    "velocity": 0.28346456692913385,
                },
                {
                    "duration": 0.4166659999999638,
                    "durationTicks": 128,
                    "midi": 45,
                    "name": "A2",
                    "ticks": 80768,
                    "time": 262.916246,
                    "velocity": 0.31496062992125984,
                },
                {
                    "duration": 0.8333320000000413,
                    "durationTicks": 256,
                    "midi": 47,
                    "name": "B2",
                    "ticks": 80896,
                    "time": 263.33291199999996,
                    "velocity": 0.30708661417322836,
                },
                {
                    "duration": 0.8333319999999844,
                    "durationTicks": 256,
                    "midi": 47,
                    "name": "B2",
                    "ticks": 81152,
                    "time": 264.166244,
                    "velocity": 0.30708661417322836,
                },
                {
                    "duration": 0.8333319999999844,
                    "durationTicks": 256,
                    "midi": 42,
                    "name": "F#2",
                    "ticks": 81408,
                    "time": 264.999576,
                    "velocity": 0.29133858267716534,
                },
                {
                    "duration": 0.41666600000002063,
                    "durationTicks": 128,
                    "midi": 42,
                    "name": "F#2",
                    "ticks": 81664,
                    "time": 265.832908,
                    "velocity": 0.31496062992125984,
                },
                {
                    "duration": 0.4166659999999638,
                    "durationTicks": 128,
                    "midi": 44,
                    "name": "G#2",
                    "ticks": 81792,
                    "time": 266.249574,
                    "velocity": 0.31496062992125984,
                },
                {
                    "duration": 0.8333320000000413,
                    "durationTicks": 256,
                    "midi": 45,
                    "name": "A2",
                    "ticks": 81920,
                    "time": 266.66623999999996,
                    "velocity": 0.2755905511811024,
                },
                {
                    "duration": 0.8333319999999844,
                    "durationTicks": 256,
                    "midi": 45,
                    "name": "A2",
                    "ticks": 82176,
                    "time": 267.499572,
                    "velocity": 0.3228346456692913,
                },
                {
                    "duration": 0.8333319999999844,
                    "durationTicks": 256,
                    "midi": 40,
                    "name": "E2",
                    "ticks": 82432,
                    "time": 268.332904,
                    "velocity": 0.2283464566929134,
                },
                {
                    "duration": 0.41666600000002063,
                    "durationTicks": 128,
                    "midi": 40,
                    "name": "E2",
                    "ticks": 82688,
                    "time": 269.16623599999997,
                    "velocity": 0.29133858267716534,
                },
                {
                    "duration": 0.41666600000002063,
                    "durationTicks": 128,
                    "midi": 40,
                    "name": "E2",
                    "ticks": 82816,
                    "time": 269.582902,
                    "velocity": 0.2440944881889764,
                },
                {
                    "duration": 0.8333319999999844,
                    "durationTicks": 256,
                    "midi": 40,
                    "name": "E2",
                    "ticks": 82944,
                    "time": 269.999568,
                    "velocity": 0.2755905511811024,
                },
                {
                    "duration": 0.8333319999999844,
                    "durationTicks": 256,
                    "midi": 40,
                    "name": "E2",
                    "ticks": 83200,
                    "time": 270.8329,
                    "velocity": 0.29133858267716534,
                },
                {
                    "duration": 0.8333319999999844,
                    "durationTicks": 256,
                    "midi": 40,
                    "name": "E2",
                    "ticks": 83456,
                    "time": 271.666232,
                    "velocity": 0.2755905511811024,
                },
                {
                    "duration": 0.41666600000002063,
                    "durationTicks": 128,
                    "midi": 42,
                    "name": "F#2",
                    "ticks": 83712,
                    "time": 272.49956399999996,
                    "velocity": 0.2677165354330709,
                },
                {
                    "duration": 0.41666600000002063,
                    "durationTicks": 128,
                    "midi": 44,
                    "name": "G#2",
                    "ticks": 83840,
                    "time": 272.91623,
                    "velocity": 0.2755905511811024,
                },
                {
                    "duration": 0.8333319999999844,
                    "durationTicks": 256,
                    "midi": 45,
                    "name": "A2",
                    "ticks": 83968,
                    "time": 273.332896,
                    "velocity": 0.25196850393700787,
                },
                {
                    "duration": 0.8333319999999844,
                    "durationTicks": 256,
                    "midi": 43,
                    "name": "G2",
                    "ticks": 84480,
                    "time": 274.99956,
                    "velocity": 0.2677165354330709,
                },
                {
                    "duration": 0.41666600000002063,
                    "durationTicks": 128,
                    "midi": 43,
                    "name": "G2",
                    "ticks": 84736,
                    "time": 275.83289199999996,
                    "velocity": 0.2992125984251969,
                },
                {
                    "duration": 0.41666600000002063,
                    "durationTicks": 128,
                    "midi": 45,
                    "name": "A2",
                    "ticks": 84864,
                    "time": 276.249558,
                    "velocity": 0.28346456692913385,
                },
                {
                    "duration": 0.8333319999999844,
                    "durationTicks": 256,
                    "midi": 47,
                    "name": "B2",
                    "ticks": 84992,
                    "time": 276.666224,
                    "velocity": 0.2992125984251969,
                },
                {
                    "duration": 0.8333319999999844,
                    "durationTicks": 256,
                    "midi": 47,
                    "name": "B2",
                    "ticks": 85248,
                    "time": 277.499556,
                    "velocity": 0.30708661417322836,
                },
                {
                    "duration": 0.8333320000000413,
                    "durationTicks": 256,
                    "midi": 42,
                    "name": "F#2",
                    "ticks": 85504,
                    "time": 278.33288799999997,
                    "velocity": 0.25984251968503935,
                },
                {
                    "duration": 0.4166659999999638,
                    "durationTicks": 128,
                    "midi": 42,
                    "name": "F#2",
                    "ticks": 85760,
                    "time": 279.16622,
                    "velocity": 0.28346456692913385,
                },
                {
                    "duration": 0.41666600000002063,
                    "durationTicks": 128,
                    "midi": 44,
                    "name": "G#2",
                    "ticks": 85888,
                    "time": 279.582886,
                    "velocity": 0.2677165354330709,
                },
                {
                    "duration": 0.8333319999999844,
                    "durationTicks": 256,
                    "midi": 45,
                    "name": "A2",
                    "ticks": 86016,
                    "time": 279.999552,
                    "velocity": 0.25984251968503935,
                },
                {
                    "duration": 0.8333319999999844,
                    "durationTicks": 256,
                    "midi": 45,
                    "name": "A2",
                    "ticks": 86272,
                    "time": 280.832884,
                    "velocity": 0.25196850393700787,
                },
                {
                    "duration": 0.8333320000000413,
                    "durationTicks": 256,
                    "midi": 40,
                    "name": "E2",
                    "ticks": 86528,
                    "time": 281.66621599999996,
                    "velocity": 0.1968503937007874,
                },
                {
                    "duration": 0.4166659999999638,
                    "durationTicks": 128,
                    "midi": 40,
                    "name": "E2",
                    "ticks": 86784,
                    "time": 282.499548,
                    "velocity": 0.29133858267716534,
                },
                {
                    "duration": 0.41666600000002063,
                    "durationTicks": 128,
                    "midi": 40,
                    "name": "E2",
                    "ticks": 86912,
                    "time": 282.91621399999997,
                    "velocity": 0.2755905511811024,
                },
                {
                    "duration": 0.8333319999999844,
                    "durationTicks": 256,
                    "midi": 40,
                    "name": "E2",
                    "ticks": 87040,
                    "time": 283.33288,
                    "velocity": 0.2755905511811024,
                },
                {
                    "duration": 0.8333319999999844,
                    "durationTicks": 256,
                    "midi": 40,
                    "name": "E2",
                    "ticks": 87296,
                    "time": 284.166212,
                    "velocity": 0.2755905511811024,
                },
                {
                    "duration": 0.8333320000000413,
                    "durationTicks": 256,
                    "midi": 40,
                    "name": "E2",
                    "ticks": 87552,
                    "time": 284.99954399999996,
                    "velocity": 0.29133858267716534,
                },
                {
                    "duration": 0.4166659999999638,
                    "durationTicks": 128,
                    "midi": 42,
                    "name": "F#2",
                    "ticks": 87808,
                    "time": 285.832876,
                    "velocity": 0.3228346456692913,
                },
                {
                    "duration": 0.41666600000002063,
                    "durationTicks": 128,
                    "midi": 44,
                    "name": "G#2",
                    "ticks": 87936,
                    "time": 286.24954199999996,
                    "velocity": 0.29133858267716534,
                },
                {
                    "duration": 0.8333319999999844,
                    "durationTicks": 256,
                    "midi": 45,
                    "name": "A2",
                    "ticks": 88064,
                    "time": 286.666208,
                    "velocity": 0.28346456692913385,
                },
                {
                    "duration": 0.8333319999999844,
                    "durationTicks": 256,
                    "midi": 45,
                    "name": "A2",
                    "ticks": 88576,
                    "time": 288.332872,
                    "velocity": 0.2125984251968504,
                },
                {
                    "duration": 0.4166659999999638,
                    "durationTicks": 128,
                    "midi": 45,
                    "name": "A2",
                    "ticks": 88832,
                    "time": 289.166204,
                    "velocity": 0.31496062992125984,
                },
                {
                    "duration": 0.41666600000002063,
                    "durationTicks": 128,
                    "midi": 45,
                    "name": "A2",
                    "ticks": 88960,
                    "time": 289.58286999999996,
                    "velocity": 0.2755905511811024,
                },
                {
                    "duration": 0.8333319999999844,
                    "durationTicks": 256,
                    "midi": 45,
                    "name": "A2",
                    "ticks": 89088,
                    "time": 289.999536,
                    "velocity": 0.25984251968503935,
                },
                {
                    "duration": 0.8333319999999844,
                    "durationTicks": 256,
                    "midi": 45,
                    "name": "A2",
                    "ticks": 89600,
                    "time": 291.6662,
                    "velocity": 0.25196850393700787,
                },
                {
                    "duration": 0.41666600000002063,
                    "durationTicks": 128,
                    "midi": 45,
                    "name": "A2",
                    "ticks": 89856,
                    "time": 292.499532,
                    "velocity": 0.3228346456692913,
                },
                {
                    "duration": 0.4166659999999638,
                    "durationTicks": 128,
                    "midi": 45,
                    "name": "A2",
                    "ticks": 89984,
                    "time": 292.916198,
                    "velocity": 0.2755905511811024,
                },
                {
                    "duration": 0.8333319999999844,
                    "durationTicks": 256,
                    "midi": 45,
                    "name": "A2",
                    "ticks": 90112,
                    "time": 293.332864,
                    "velocity": 0.2755905511811024,
                },
                {
                    "duration": 0.4166659999999638,
                    "durationTicks": 128,
                    "midi": 45,
                    "name": "A2",
                    "ticks": 90624,
                    "time": 294.999528,
                    "velocity": 0.2755905511811024,
                },
                {
                    "duration": 0.41666600000002063,
                    "durationTicks": 128,
                    "midi": 45,
                    "name": "A2",
                    "ticks": 90752,
                    "time": 295.41619399999996,
                    "velocity": 0.33070866141732286,
                },
                {
                    "duration": 0.41666600000002063,
                    "durationTicks": 128,
                    "midi": 45,
                    "name": "A2",
                    "ticks": 90880,
                    "time": 295.83286,
                    "velocity": 0.3543307086614173,
                },
                {
                    "duration": 0.41666600000002063,
                    "durationTicks": 128,
                    "midi": 45,
                    "name": "A2",
                    "ticks": 91136,
                    "time": 296.66619199999997,
                    "velocity": 0.3700787401574803,
                },
                {
                    "duration": 0.41666600000002063,
                    "durationTicks": 128,
                    "midi": 45,
                    "name": "A2",
                    "ticks": 91264,
                    "time": 297.082858,
                    "velocity": 0.4566929133858268,
                },
                {
                    "duration": 0.4166659999999638,
                    "durationTicks": 128,
                    "midi": 45,
                    "name": "A2",
                    "ticks": 91392,
                    "time": 297.499524,
                    "velocity": 0.4566929133858268,
                },
                {
                    "duration": 0.4166659999999638,
                    "durationTicks": 128,
                    "midi": 45,
                    "name": "A2",
                    "ticks": 91648,
                    "time": 298.332856,
                    "velocity": 0.48031496062992124,
                },
                {
                    "duration": 0.41666600000002063,
                    "durationTicks": 128,
                    "midi": 45,
                    "name": "A2",
                    "ticks": 91776,
                    "time": 298.74952199999996,
                    "velocity": 0.5590551181102362,
                },
                {
                    "duration": 0.41666600000002063,
                    "durationTicks": 128,
                    "midi": 45,
                    "name": "A2",
                    "ticks": 91904,
                    "time": 299.166188,
                    "velocity": 0.5826771653543307,
                },
                {
                    "duration": 0.4166659999999638,
                    "durationTicks": 128,
                    "midi": 45,
                    "name": "A2",
                    "ticks": 92416,
                    "time": 300.832852,
                    "velocity": 0.5118110236220472,
                },
                {
                    "duration": 0.41666600000002063,
                    "durationTicks": 128,
                    "midi": 45,
                    "name": "A2",
                    "ticks": 92544,
                    "time": 301.24951799999997,
                    "velocity": 0.5511811023622047,
                },
                {
                    "duration": 0.41666600000002063,
                    "durationTicks": 128,
                    "midi": 45,
                    "name": "A2",
                    "ticks": 92928,
                    "time": 302.49951599999997,
                    "velocity": 0.3543307086614173,
                },
                {
                    "duration": 0.4166659999999638,
                    "durationTicks": 128,
                    "midi": 45,
                    "name": "A2",
                    "ticks": 93056,
                    "time": 302.916182,
                    "velocity": 0.3779527559055118,
                },
                {
                    "duration": 0.4166659999999638,
                    "durationTicks": 128,
                    "midi": 45,
                    "name": "A2",
                    "ticks": 93440,
                    "time": 304.16618,
                    "velocity": 0.23622047244094488,
                },
                {
                    "duration": 0.41666600000002063,
                    "durationTicks": 128,
                    "midi": 45,
                    "name": "A2",
                    "ticks": 93568,
                    "time": 304.58284599999996,
                    "velocity": 0.25984251968503935,
                },
                {
                    "duration": 0.8333319999999844,
                    "durationTicks": 256,
                    "midi": 40,
                    "name": "E2",
                    "ticks": 114176,
                    "time": 371.666072,
                    "velocity": 0.3543307086614173,
                },
                {
                    "duration": 0.41666600000002063,
                    "durationTicks": 128,
                    "midi": 42,
                    "name": "F#2",
                    "ticks": 114432,
                    "time": 372.49940399999997,
                    "velocity": 0.3543307086614173,
                },
                {
                    "duration": 0.4166659999999638,
                    "durationTicks": 128,
                    "midi": 44,
                    "name": "G#2",
                    "ticks": 114560,
                    "time": 372.91607,
                    "velocity": 0.3858267716535433,
                },
                {
                    "duration": 0.8333320000000413,
                    "durationTicks": 256,
                    "midi": 45,
                    "name": "A2",
                    "ticks": 114688,
                    "time": 373.33273599999995,
                    "velocity": 0.3858267716535433,
                },
                {
                    "duration": 0.4166659999999638,
                    "durationTicks": 128,
                    "midi": 57,
                    "name": "A3",
                    "ticks": 114944,
                    "time": 374.166068,
                    "velocity": 0.4330708661417323,
                },
                {
                    "duration": 0.41666600000002063,
                    "durationTicks": 128,
                    "midi": 57,
                    "name": "A3",
                    "ticks": 115072,
                    "time": 374.58273399999996,
                    "velocity": 0.36220472440944884,
                },
                {
                    "duration": 0.8333319999999844,
                    "durationTicks": 256,
                    "midi": 45,
                    "name": "A2",
                    "ticks": 115200,
                    "time": 374.9994,
                    "velocity": 0.3464566929133858,
                },
                {
                    "duration": 0.41666600000002063,
                    "durationTicks": 128,
                    "midi": 57,
                    "name": "A3",
                    "ticks": 115456,
                    "time": 375.83273199999996,
                    "velocity": 0.4094488188976378,
                },
                {
                    "duration": 0.4166659999999638,
                    "durationTicks": 128,
                    "midi": 57,
                    "name": "A3",
                    "ticks": 115584,
                    "time": 376.249398,
                    "velocity": 0.4015748031496063,
                },
                {
                    "duration": 0.8333320000000413,
                    "durationTicks": 256,
                    "midi": 45,
                    "name": "A2",
                    "ticks": 115712,
                    "time": 376.66606399999995,
                    "velocity": 0.30708661417322836,
                },
                {
                    "duration": 0.4166659999999638,
                    "durationTicks": 128,
                    "midi": 57,
                    "name": "A3",
                    "ticks": 115968,
                    "time": 377.499396,
                    "velocity": 0.4251968503937008,
                },
                {
                    "duration": 0.41666600000002063,
                    "durationTicks": 128,
                    "midi": 57,
                    "name": "A3",
                    "ticks": 116096,
                    "time": 377.91606199999995,
                    "velocity": 0.4409448818897638,
                },
                {
                    "duration": 0.8333319999999844,
                    "durationTicks": 256,
                    "midi": 45,
                    "name": "A2",
                    "ticks": 116224,
                    "time": 378.332728,
                    "velocity": 0.3543307086614173,
                },
                {
                    "duration": 0.41666600000002063,
                    "durationTicks": 128,
                    "midi": 57,
                    "name": "A3",
                    "ticks": 116480,
                    "time": 379.16605999999996,
                    "velocity": 0.48031496062992124,
                },
                {
                    "duration": 0.41666600000002063,
                    "durationTicks": 128,
                    "midi": 57,
                    "name": "A3",
                    "ticks": 116608,
                    "time": 379.582726,
                    "velocity": 0.47244094488188976,
                },
                {
                    "duration": 0.8333319999999844,
                    "durationTicks": 256,
                    "midi": 45,
                    "name": "A2",
                    "ticks": 116736,
                    "time": 379.999392,
                    "velocity": 0.4094488188976378,
                },
                {
                    "duration": 0.41666600000002063,
                    "durationTicks": 128,
                    "midi": 57,
                    "name": "A3",
                    "ticks": 116992,
                    "time": 380.832724,
                    "velocity": 0.5275590551181102,
                },
                {
                    "duration": 0.4166659999999638,
                    "durationTicks": 128,
                    "midi": 57,
                    "name": "A3",
                    "ticks": 117120,
                    "time": 381.24939,
                    "velocity": 0.44881889763779526,
                },
                {
                    "duration": 0.8333319999999844,
                    "durationTicks": 256,
                    "midi": 45,
                    "name": "A2",
                    "ticks": 117248,
                    "time": 381.66605599999997,
                    "velocity": 0.3937007874015748,
                },
                {
                    "duration": 0.41666600000002063,
                    "durationTicks": 128,
                    "midi": 57,
                    "name": "A3",
                    "ticks": 117504,
                    "time": 382.49938799999995,
                    "velocity": 0.5511811023622047,
                },
                {
                    "duration": 0.41666600000002063,
                    "durationTicks": 128,
                    "midi": 57,
                    "name": "A3",
                    "ticks": 117632,
                    "time": 382.916054,
                    "velocity": 0.5196850393700787,
                },
                {
                    "duration": 0.8333319999999844,
                    "durationTicks": 256,
                    "midi": 45,
                    "name": "A2",
                    "ticks": 117760,
                    "time": 383.33272,
                    "velocity": 0.4094488188976378,
                },
                {
                    "duration": 0.41666600000002063,
                    "durationTicks": 128,
                    "midi": 57,
                    "name": "A3",
                    "ticks": 118016,
                    "time": 384.166052,
                    "velocity": 0.5354330708661418,
                },
                {
                    "duration": 0.4166659999999638,
                    "durationTicks": 128,
                    "midi": 57,
                    "name": "A3",
                    "ticks": 118144,
                    "time": 384.582718,
                    "velocity": 0.4566929133858268,
                },
                {
                    "duration": 0.8333320000000413,
                    "durationTicks": 256,
                    "midi": 45,
                    "name": "A2",
                    "ticks": 118272,
                    "time": 384.99938399999996,
                    "velocity": 0.4094488188976378,
                },
                {
                    "duration": 0.4166659999999638,
                    "durationTicks": 128,
                    "midi": 57,
                    "name": "A3",
                    "ticks": 118528,
                    "time": 385.832716,
                    "velocity": 0.4566929133858268,
                },
                {
                    "duration": 0.41666600000002063,
                    "durationTicks": 128,
                    "midi": 57,
                    "name": "A3",
                    "ticks": 118656,
                    "time": 386.24938199999997,
                    "velocity": 0.3858267716535433,
                },
                {
                    "duration": 0.8333319999999844,
                    "durationTicks": 256,
                    "midi": 45,
                    "name": "A2",
                    "ticks": 118784,
                    "time": 386.666048,
                    "velocity": 0.3228346456692913,
                },
                {
                    "duration": 0.41666600000002063,
                    "durationTicks": 128,
                    "midi": 57,
                    "name": "A3",
                    "ticks": 119040,
                    "time": 387.49938,
                    "velocity": 0.44881889763779526,
                },
                {
                    "duration": 0.4166659999999638,
                    "durationTicks": 128,
                    "midi": 57,
                    "name": "A3",
                    "ticks": 119168,
                    "time": 387.916046,
                    "velocity": 0.4409448818897638,
                },
                {
                    "duration": 0.8333320000000413,
                    "durationTicks": 256,
                    "midi": 45,
                    "name": "A2",
                    "ticks": 119296,
                    "time": 388.33271199999996,
                    "velocity": 0.36220472440944884,
                },
                {
                    "duration": 0.4166659999999638,
                    "durationTicks": 128,
                    "midi": 57,
                    "name": "A3",
                    "ticks": 119552,
                    "time": 389.166044,
                    "velocity": 0.5118110236220472,
                },
                {
                    "duration": 0.41666600000002063,
                    "durationTicks": 128,
                    "midi": 57,
                    "name": "A3",
                    "ticks": 119680,
                    "time": 389.58270999999996,
                    "velocity": 0.5354330708661418,
                },
                {
                    "duration": 0.8333319999999844,
                    "durationTicks": 256,
                    "midi": 45,
                    "name": "A2",
                    "ticks": 119808,
                    "time": 389.999376,
                    "velocity": 0.4566929133858268,
                },
                {
                    "duration": 0.41666600000002063,
                    "durationTicks": 128,
                    "midi": 57,
                    "name": "A3",
                    "ticks": 120064,
                    "time": 390.83270799999997,
                    "velocity": 0.5669291338582677,
                },
                {
                    "duration": 0.4166659999999638,
                    "durationTicks": 128,
                    "midi": 57,
                    "name": "A3",
                    "ticks": 120192,
                    "time": 391.249374,
                    "velocity": 0.5669291338582677,
                },
                {
                    "duration": 0.8333320000000413,
                    "durationTicks": 256,
                    "midi": 45,
                    "name": "A2",
                    "ticks": 120320,
                    "time": 391.66603999999995,
                    "velocity": 0.49606299212598426,
                },
                {
                    "duration": 0.4166659999999638,
                    "durationTicks": 128,
                    "midi": 57,
                    "name": "A3",
                    "ticks": 120576,
                    "time": 392.499372,
                    "velocity": 0.6929133858267716,
                },
                {
                    "duration": 0.41666600000002063,
                    "durationTicks": 128,
                    "midi": 57,
                    "name": "A3",
                    "ticks": 120704,
                    "time": 392.91603799999996,
                    "velocity": 0.6377952755905512,
                },
                {
                    "duration": 0.8333319999999844,
                    "durationTicks": 256,
                    "midi": 45,
                    "name": "A2",
                    "ticks": 120832,
                    "time": 393.332704,
                    "velocity": 0.41732283464566927,
                },
                {
                    "duration": 0.41666600000002063,
                    "durationTicks": 128,
                    "midi": 57,
                    "name": "A3",
                    "ticks": 121088,
                    "time": 394.16603599999996,
                    "velocity": 0.5511811023622047,
                },
                {
                    "duration": 0.41666600000002063,
                    "durationTicks": 128,
                    "midi": 57,
                    "name": "A3",
                    "ticks": 121216,
                    "time": 394.582702,
                    "velocity": 0.49606299212598426,
                },
                {
                    "duration": 0.8333319999999844,
                    "durationTicks": 256,
                    "midi": 45,
                    "name": "A2",
                    "ticks": 121344,
                    "time": 394.999368,
                    "velocity": 0.4645669291338583,
                },
                {
                    "duration": 0.4166659999999638,
                    "durationTicks": 128,
                    "midi": 57,
                    "name": "A3",
                    "ticks": 121600,
                    "time": 395.8327,
                    "velocity": 0.5354330708661418,
                },
                {
                    "duration": 0.41666600000002063,
                    "durationTicks": 128,
                    "midi": 57,
                    "name": "A3",
                    "ticks": 121728,
                    "time": 396.24936599999995,
                    "velocity": 0.5275590551181102,
                },
                {
                    "duration": 0.8333319999999844,
                    "durationTicks": 256,
                    "midi": 45,
                    "name": "A2",
                    "ticks": 121856,
                    "time": 396.666032,
                    "velocity": 0.4409448818897638,
                },
                {
                    "duration": 0.41666600000002063,
                    "durationTicks": 128,
                    "midi": 57,
                    "name": "A3",
                    "ticks": 122112,
                    "time": 397.49936399999996,
                    "velocity": 0.5354330708661418,
                },
                {
                    "duration": 0.41666600000002063,
                    "durationTicks": 128,
                    "midi": 57,
                    "name": "A3",
                    "ticks": 122240,
                    "time": 397.91603,
                    "velocity": 0.5039370078740157,
                },
                {
                    "duration": 0.8333319999999844,
                    "durationTicks": 256,
                    "midi": 45,
                    "name": "A2",
                    "ticks": 122368,
                    "time": 398.332696,
                    "velocity": 0.3543307086614173,
                },
                {
                    "duration": 0.41666600000002063,
                    "durationTicks": 128,
                    "midi": 57,
                    "name": "A3",
                    "ticks": 122624,
                    "time": 399.166028,
                    "velocity": 0.49606299212598426,
                },
                {
                    "duration": 0.4166659999999638,
                    "durationTicks": 128,
                    "midi": 57,
                    "name": "A3",
                    "ticks": 122752,
                    "time": 399.582694,
                    "velocity": 0.4645669291338583,
                },
                {
                    "duration": 0.8333319999999844,
                    "durationTicks": 256,
                    "midi": 45,
                    "name": "A2",
                    "ticks": 122880,
                    "time": 399.99935999999997,
                    "velocity": 0.3543307086614173,
                },
                {
                    "duration": 0.41666600000002063,
                    "durationTicks": 128,
                    "midi": 57,
                    "name": "A3",
                    "ticks": 123136,
                    "time": 400.83269199999995,
                    "velocity": 0.4645669291338583,
                },
                {
                    "duration": 0.41666600000002063,
                    "durationTicks": 128,
                    "midi": 57,
                    "name": "A3",
                    "ticks": 123264,
                    "time": 401.249358,
                    "velocity": 0.47244094488188976,
                },
                {
                    "duration": 0.8333319999999844,
                    "durationTicks": 256,
                    "midi": 45,
                    "name": "A2",
                    "ticks": 123392,
                    "time": 401.666024,
                    "velocity": 0.3779527559055118,
                },
                {
                    "duration": 0.41666600000002063,
                    "durationTicks": 128,
                    "midi": 57,
                    "name": "A3",
                    "ticks": 123648,
                    "time": 402.499356,
                    "velocity": 0.5118110236220472,
                },
                {
                    "duration": 0.4166659999999638,
                    "durationTicks": 128,
                    "midi": 57,
                    "name": "A3",
                    "ticks": 123776,
                    "time": 402.916022,
                    "velocity": 0.4645669291338583,
                },
                {
                    "duration": 0.8333319999999844,
                    "durationTicks": 256,
                    "midi": 45,
                    "name": "A2",
                    "ticks": 130304,
                    "time": 424.16598799999997,
                    "velocity": 0.3700787401574803,
                },
                {
                    "duration": 0.8333319999999844,
                    "durationTicks": 256,
                    "midi": 52,
                    "name": "E3",
                    "ticks": 130816,
                    "time": 425.832652,
                    "velocity": 0.3543307086614173,
                },
                {
                    "duration": 0.8333319999999844,
                    "durationTicks": 256,
                    "midi": 52,
                    "name": "E3",
                    "ticks": 131328,
                    "time": 427.49931599999996,
                    "velocity": 0.3543307086614173,
                },
                {
                    "duration": 0.8333319999999844,
                    "durationTicks": 256,
                    "midi": 57,
                    "name": "A3",
                    "ticks": 131840,
                    "time": 429.16598,
                    "velocity": 0.3543307086614173,
                },
                {
                    "duration": 0.8333320000000413,
                    "durationTicks": 256,
                    "midi": 57,
                    "name": "A3",
                    "ticks": 132352,
                    "time": 430.83264399999996,
                    "velocity": 0.33858267716535434,
                },
                {
                    "duration": 0.8333319999999844,
                    "durationTicks": 256,
                    "midi": 55,
                    "name": "G3",
                    "ticks": 132864,
                    "time": 432.499308,
                    "velocity": 0.3228346456692913,
                },
                {
                    "duration": 0.8333319999999844,
                    "durationTicks": 256,
                    "midi": 43,
                    "name": "G2",
                    "ticks": 133120,
                    "time": 433.33263999999997,
                    "velocity": 0.33070866141732286,
                },
                {
                    "duration": 0.41666600000002063,
                    "durationTicks": 128,
                    "midi": 43,
                    "name": "G2",
                    "ticks": 133376,
                    "time": 434.16597199999995,
                    "velocity": 0.4015748031496063,
                },
                {
                    "duration": 0.41666600000002063,
                    "durationTicks": 128,
                    "midi": 43,
                    "name": "G2",
                    "ticks": 133504,
                    "time": 434.582638,
                    "velocity": 0.3700787401574803,
                },
                {
                    "duration": 0.8333319999999844,
                    "durationTicks": 256,
                    "midi": 48,
                    "name": "C3",
                    "ticks": 133632,
                    "time": 434.999304,
                    "velocity": 0.4094488188976378,
                },
                {
                    "duration": 0.8333320000000413,
                    "durationTicks": 256,
                    "midi": 60,
                    "name": "C4",
                    "ticks": 134400,
                    "time": 437.49929999999995,
                    "velocity": 0.33858267716535434,
                },
                {
                    "duration": 0.8333319999999844,
                    "durationTicks": 256,
                    "midi": 59,
                    "name": "B3",
                    "ticks": 134912,
                    "time": 439.165964,
                    "velocity": 0.31496062992125984,
                },
                {
                    "duration": 0.8333319999999844,
                    "durationTicks": 256,
                    "midi": 64,
                    "name": "E4",
                    "ticks": 135424,
                    "time": 440.832628,
                    "velocity": 0.3464566929133858,
                },
                {
                    "duration": 0.8333319999999844,
                    "durationTicks": 256,
                    "midi": 57,
                    "name": "A3",
                    "ticks": 135936,
                    "time": 442.49929199999997,
                    "velocity": 0.33070866141732286,
                },
                {
                    "duration": 0.8333319999999844,
                    "durationTicks": 256,
                    "midi": 57,
                    "name": "A3",
                    "ticks": 136448,
                    "time": 444.165956,
                    "velocity": 0.33070866141732286,
                },
                {
                    "duration": 0.8333319999999844,
                    "durationTicks": 256,
                    "midi": 56,
                    "name": "G#3",
                    "ticks": 136704,
                    "time": 444.999288,
                    "velocity": 0.3543307086614173,
                },
                {
                    "duration": 0.8333319999999844,
                    "durationTicks": 256,
                    "midi": 57,
                    "name": "A3",
                    "ticks": 136960,
                    "time": 445.83261999999996,
                    "velocity": 0.3858267716535433,
                },
                {
                    "duration": 0.8333320000000413,
                    "durationTicks": 256,
                    "midi": 40,
                    "name": "E2",
                    "ticks": 137216,
                    "time": 446.66595199999995,
                    "velocity": 0.3464566929133858,
                },
                {
                    "duration": 0.4166659999999638,
                    "durationTicks": 128,
                    "midi": 42,
                    "name": "F#2",
                    "ticks": 137472,
                    "time": 447.499284,
                    "velocity": 0.3700787401574803,
                },
                {
                    "duration": 0.41666600000002063,
                    "durationTicks": 128,
                    "midi": 44,
                    "name": "G#2",
                    "ticks": 137600,
                    "time": 447.91594999999995,
                    "velocity": 0.3858267716535433,
                },
                {
                    "duration": 0.8333319999999844,
                    "durationTicks": 256,
                    "midi": 45,
                    "name": "A2",
                    "ticks": 137728,
                    "time": 448.332616,
                    "velocity": 0.36220472440944884,
                },
                {
                    "duration": 0.8333319999999844,
                    "durationTicks": 256,
                    "midi": 40,
                    "name": "E2",
                    "ticks": 139264,
                    "time": 453.332608,
                    "velocity": 0.3700787401574803,
                },
                {
                    "duration": 0.41666600000002063,
                    "durationTicks": 128,
                    "midi": 42,
                    "name": "F#2",
                    "ticks": 139520,
                    "time": 454.16594,
                    "velocity": 0.3858267716535433,
                },
                {
                    "duration": 0.4166659999999638,
                    "durationTicks": 128,
                    "midi": 44,
                    "name": "G#2",
                    "ticks": 139648,
                    "time": 454.582606,
                    "velocity": 0.4251968503937008,
                },
                {
                    "duration": 0.8333319999999844,
                    "durationTicks": 256,
                    "midi": 45,
                    "name": "A2",
                    "ticks": 139776,
                    "time": 454.99927199999996,
                    "velocity": 0.4015748031496063,
                },
                {
                    "duration": 0.8333319999999844,
                    "durationTicks": 256,
                    "midi": 45,
                    "name": "A2",
                    "ticks": 140288,
                    "time": 456.665936,
                    "velocity": 0.33858267716535434,
                },
            ],
        },
        {
            "channel": 11,
            "controlChanges": {
                "7": [
                    {"number": 7, "ticks": 0, "time": 0, "value": 0.6614173228346457},
                    {
                        "number": 7,
                        "ticks": 74325,
                        "time": 241.94297226562497,
                        "value": 0.6614173228346457,
                    },
                    {
                        "number": 7,
                        "ticks": 97280,
                        "time": 316.66616,
                        "value": 0.6614173228346457,
                    },
                    {
                        "number": 7,
                        "ticks": 123904,
                        "time": 403.33268799999996,
                        "value": 0.6614173228346457,
                    },
                    {
                        "number": 7,
                        "ticks": 140800,
                        "time": 458.33259999999996,
                        "value": 0.6614173228346457,
                    },
                ],
                "10": [
                    {"number": 10, "ticks": 0, "time": 0, "value": 0.8267716535433071},
                    {
                        "number": 10,
                        "ticks": 74325,
                        "time": 241.94297226562497,
                        "value": 0.8267716535433071,
                    },
                    {
                        "number": 10,
                        "ticks": 97280,
                        "time": 316.66616,
                        "value": 0.8267716535433071,
                    },
                    {
                        "number": 10,
                        "ticks": 123904,
                        "time": 403.33268799999996,
                        "value": 0.8267716535433071,
                    },
                    {
                        "number": 10,
                        "ticks": 140800,
                        "time": 458.33259999999996,
                        "value": 0.8267716535433071,
                    },
                ],
                "64": [{"number": 64, "ticks": 0, "time": 0, "value": 0}],
                "91": [
                    {"number": 91, "ticks": 0, "time": 0, "value": 0.5669291338582677},
                    {
                        "number": 91,
                        "ticks": 74325,
                        "time": 241.94297226562497,
                        "value": 0.4645669291338583,
                    },
                    {
                        "number": 91,
                        "ticks": 97280,
                        "time": 316.66616,
                        "value": 0.4645669291338583,
                    },
                    {
                        "number": 91,
                        "ticks": 123904,
                        "time": 403.33268799999996,
                        "value": 0.4645669291338583,
                    },
                    {
                        "number": 91,
                        "ticks": 140800,
                        "time": 458.33259999999996,
                        "value": 0.4645669291338583,
                    },
                ],
                "121": [{"number": 121, "ticks": 0, "time": 0, "value": 0}],
            },
            "pitchBends": [],
            "instrument": {
                "family": "ensemble",
                "number": 48,
                "name": "string ensemble 1",
            },
            "name": "Basses",
            "notes": [
                {
                    "duration": 0.8333320000000004,
                    "durationTicks": 256,
                    "midi": 33,
                    "name": "A1",
                    "ticks": 1024,
                    "time": 3.333328,
                    "velocity": 0.31496062992125984,
                },
                {
                    "duration": 0.24739543749999982,
                    "durationTicks": 76,
                    "midi": 33,
                    "name": "A1",
                    "ticks": 1280,
                    "time": 4.16666,
                    "velocity": 0.3779527559055118,
                },
                {
                    "duration": 0.24739543749999982,
                    "durationTicks": 76,
                    "midi": 33,
                    "name": "A1",
                    "ticks": 1408,
                    "time": 4.583326,
                    "velocity": 0.3779527559055118,
                },
                {
                    "duration": 0.49804607812499935,
                    "durationTicks": 153,
                    "midi": 32,
                    "name": "G#1",
                    "ticks": 1536,
                    "time": 4.999992,
                    "velocity": 0.3700787401574803,
                },
                {
                    "duration": 0.4720044531250007,
                    "durationTicks": 145,
                    "midi": 32,
                    "name": "G#1",
                    "ticks": 1792,
                    "time": 5.833323999999999,
                    "velocity": 0.3779527559055118,
                },
                {
                    "duration": 0.8333320000000004,
                    "durationTicks": 256,
                    "midi": 28,
                    "name": "E1",
                    "ticks": 2048,
                    "time": 6.666656,
                    "velocity": 0.36220472440944884,
                },
                {
                    "duration": 0.24739543749999982,
                    "durationTicks": 76,
                    "midi": 28,
                    "name": "E1",
                    "ticks": 2304,
                    "time": 7.499988,
                    "velocity": 0.3858267716535433,
                },
                {
                    "duration": 0.24739543749999982,
                    "durationTicks": 76,
                    "midi": 28,
                    "name": "E1",
                    "ticks": 2432,
                    "time": 7.916653999999999,
                    "velocity": 0.3858267716535433,
                },
                {
                    "duration": 0.49804607812500024,
                    "durationTicks": 153,
                    "midi": 33,
                    "name": "A1",
                    "ticks": 2560,
                    "time": 8.33332,
                    "velocity": 0.3937007874015748,
                },
                {
                    "duration": 0.4720044531250007,
                    "durationTicks": 145,
                    "midi": 33,
                    "name": "A1",
                    "ticks": 2816,
                    "time": 9.166652,
                    "velocity": 0.4015748031496063,
                },
                {
                    "duration": 0.8333320000000004,
                    "durationTicks": 256,
                    "midi": 33,
                    "name": "A1",
                    "ticks": 3072,
                    "time": 9.999984,
                    "velocity": 0.36220472440944884,
                },
                {
                    "duration": 0.24739543749999982,
                    "durationTicks": 76,
                    "midi": 33,
                    "name": "A1",
                    "ticks": 3328,
                    "time": 10.833316,
                    "velocity": 0.36220472440944884,
                },
                {
                    "duration": 0.24739543749999982,
                    "durationTicks": 76,
                    "midi": 33,
                    "name": "A1",
                    "ticks": 3456,
                    "time": 11.249982,
                    "velocity": 0.3858267716535433,
                },
                {
                    "duration": 0.49804607812499846,
                    "durationTicks": 153,
                    "midi": 31,
                    "name": "G1",
                    "ticks": 3584,
                    "time": 11.666648,
                    "velocity": 0.3858267716535433,
                },
                {
                    "duration": 0.4720044531250007,
                    "durationTicks": 145,
                    "midi": 31,
                    "name": "G1",
                    "ticks": 3840,
                    "time": 12.499979999999999,
                    "velocity": 0.3700787401574803,
                },
                {
                    "duration": 0.8333320000000004,
                    "durationTicks": 256,
                    "midi": 31,
                    "name": "G1",
                    "ticks": 4096,
                    "time": 13.333312,
                    "velocity": 0.3700787401574803,
                },
                {
                    "duration": 0.24739543749999982,
                    "durationTicks": 76,
                    "midi": 31,
                    "name": "G1",
                    "ticks": 4352,
                    "time": 14.166644,
                    "velocity": 0.4251968503937008,
                },
                {
                    "duration": 0.24739543749999982,
                    "durationTicks": 76,
                    "midi": 31,
                    "name": "G1",
                    "ticks": 4480,
                    "time": 14.583309999999999,
                    "velocity": 0.3464566929133858,
                },
                {
                    "duration": 0.8333320000000004,
                    "durationTicks": 256,
                    "midi": 36,
                    "name": "C2",
                    "ticks": 4608,
                    "time": 14.999975999999998,
                    "velocity": 0.4015748031496063,
                },
                {
                    "duration": 0.8333319999999986,
                    "durationTicks": 256,
                    "midi": 36,
                    "name": "C2",
                    "ticks": 5120,
                    "time": 16.66664,
                    "velocity": 0.36220472440944884,
                },
                {
                    "duration": 0.24739543749999982,
                    "durationTicks": 76,
                    "midi": 36,
                    "name": "C2",
                    "ticks": 5376,
                    "time": 17.499972,
                    "velocity": 0.3543307086614173,
                },
                {
                    "duration": 0.24739543749999982,
                    "durationTicks": 76,
                    "midi": 36,
                    "name": "C2",
                    "ticks": 5504,
                    "time": 17.916638,
                    "velocity": 0.4015748031496063,
                },
                {
                    "duration": 0.49804607812500024,
                    "durationTicks": 153,
                    "midi": 35,
                    "name": "B1",
                    "ticks": 5632,
                    "time": 18.333304,
                    "velocity": 0.3858267716535433,
                },
                {
                    "duration": 0.4720044531250025,
                    "durationTicks": 145,
                    "midi": 35,
                    "name": "B1",
                    "ticks": 5888,
                    "time": 19.166635999999997,
                    "velocity": 0.3858267716535433,
                },
                {
                    "duration": 0.8333319999999986,
                    "durationTicks": 256,
                    "midi": 35,
                    "name": "B1",
                    "ticks": 6144,
                    "time": 19.999968000000003,
                    "velocity": 0.3858267716535433,
                },
                {
                    "duration": 0.24739543749999626,
                    "durationTicks": 76,
                    "midi": 35,
                    "name": "B1",
                    "ticks": 6400,
                    "time": 20.8333,
                    "velocity": 0.3937007874015748,
                },
                {
                    "duration": 0.24739543749999626,
                    "durationTicks": 76,
                    "midi": 35,
                    "name": "B1",
                    "ticks": 6528,
                    "time": 21.249966,
                    "velocity": 0.3937007874015748,
                },
                {
                    "duration": 0.49804607812500024,
                    "durationTicks": 153,
                    "midi": 33,
                    "name": "A1",
                    "ticks": 6656,
                    "time": 21.666632,
                    "velocity": 0.36220472440944884,
                },
                {
                    "duration": 0.4720044531250025,
                    "durationTicks": 145,
                    "midi": 33,
                    "name": "A1",
                    "ticks": 6912,
                    "time": 22.499964,
                    "velocity": 0.3937007874015748,
                },
                {
                    "duration": 0.8333319999999986,
                    "durationTicks": 256,
                    "midi": 33,
                    "name": "A1",
                    "ticks": 7168,
                    "time": 23.333295999999997,
                    "velocity": 0.36220472440944884,
                },
                {
                    "duration": 0.24739543750000337,
                    "durationTicks": 76,
                    "midi": 33,
                    "name": "A1",
                    "ticks": 7424,
                    "time": 24.166627999999996,
                    "velocity": 0.3543307086614173,
                },
                {
                    "duration": 0.24739543749999626,
                    "durationTicks": 76,
                    "midi": 33,
                    "name": "A1",
                    "ticks": 7552,
                    "time": 24.583294000000002,
                    "velocity": 0.3937007874015748,
                },
                {
                    "duration": 0.507811687499995,
                    "durationTicks": 156,
                    "midi": 32,
                    "name": "G#1",
                    "ticks": 7680,
                    "time": 24.99996,
                    "velocity": 0.3543307086614173,
                },
                {
                    "duration": 0.4720044531249954,
                    "durationTicks": 145,
                    "midi": 33,
                    "name": "A1",
                    "ticks": 7936,
                    "time": 25.833292,
                    "velocity": 0.3858267716535433,
                },
                {
                    "duration": 0.8333319999999986,
                    "durationTicks": 256,
                    "midi": 28,
                    "name": "E1",
                    "ticks": 8192,
                    "time": 26.666624,
                    "velocity": 0.3228346456692913,
                },
                {
                    "duration": 0.24739543750000337,
                    "durationTicks": 76,
                    "midi": 28,
                    "name": "E1",
                    "ticks": 8448,
                    "time": 27.499955999999997,
                    "velocity": 0.3700787401574803,
                },
                {
                    "duration": 0.24739543750000337,
                    "durationTicks": 76,
                    "midi": 28,
                    "name": "E1",
                    "ticks": 8576,
                    "time": 27.916621999999997,
                    "velocity": 0.3858267716535433,
                },
                {
                    "duration": 0.8333320000000057,
                    "durationTicks": 256,
                    "midi": 33,
                    "name": "A1",
                    "ticks": 8704,
                    "time": 28.333287999999996,
                    "velocity": 0.3858267716535433,
                },
                {
                    "duration": 0.8333319999999986,
                    "durationTicks": 256,
                    "midi": 36,
                    "name": "C2",
                    "ticks": 9216,
                    "time": 29.999952,
                    "velocity": 0.29133858267716534,
                },
                {
                    "duration": 0.24739543749999626,
                    "durationTicks": 76,
                    "midi": 36,
                    "name": "C2",
                    "ticks": 9472,
                    "time": 30.833284,
                    "velocity": 0.29133858267716534,
                },
                {
                    "duration": 0.24739543750000337,
                    "durationTicks": 76,
                    "midi": 36,
                    "name": "C2",
                    "ticks": 9600,
                    "time": 31.24995,
                    "velocity": 0.2677165354330709,
                },
                {
                    "duration": 0.49804607812500024,
                    "durationTicks": 153,
                    "midi": 35,
                    "name": "B1",
                    "ticks": 9728,
                    "time": 31.666615999999998,
                    "velocity": 0.28346456692913385,
                },
                {
                    "duration": 0.4720044531250025,
                    "durationTicks": 145,
                    "midi": 35,
                    "name": "B1",
                    "ticks": 9984,
                    "time": 32.499947999999996,
                    "velocity": 0.25984251968503935,
                },
                {
                    "duration": 0.8333319999999986,
                    "durationTicks": 256,
                    "midi": 35,
                    "name": "B1",
                    "ticks": 10240,
                    "time": 33.33328,
                    "velocity": 0.25984251968503935,
                },
                {
                    "duration": 0.24739543749999626,
                    "durationTicks": 76,
                    "midi": 35,
                    "name": "B1",
                    "ticks": 10496,
                    "time": 34.166612,
                    "velocity": 0.2755905511811024,
                },
                {
                    "duration": 0.24739543749999626,
                    "durationTicks": 76,
                    "midi": 35,
                    "name": "B1",
                    "ticks": 10624,
                    "time": 34.583278,
                    "velocity": 0.29133858267716534,
                },
                {
                    "duration": 0.49804607812500024,
                    "durationTicks": 153,
                    "midi": 33,
                    "name": "A1",
                    "ticks": 10752,
                    "time": 34.999944,
                    "velocity": 0.2677165354330709,
                },
                {
                    "duration": 0.4720044531250025,
                    "durationTicks": 145,
                    "midi": 33,
                    "name": "A1",
                    "ticks": 11008,
                    "time": 35.833276,
                    "velocity": 0.28346456692913385,
                },
                {
                    "duration": 0.8333319999999986,
                    "durationTicks": 256,
                    "midi": 33,
                    "name": "A1",
                    "ticks": 11264,
                    "time": 36.666608000000004,
                    "velocity": 0.2677165354330709,
                },
                {
                    "duration": 0.24739543749999626,
                    "durationTicks": 76,
                    "midi": 33,
                    "name": "A1",
                    "ticks": 11520,
                    "time": 37.49994,
                    "velocity": 0.28346456692913385,
                },
                {
                    "duration": 0.24739543749999626,
                    "durationTicks": 76,
                    "midi": 33,
                    "name": "A1",
                    "ticks": 11648,
                    "time": 37.916606,
                    "velocity": 0.2992125984251969,
                },
                {
                    "duration": 0.507811687500002,
                    "durationTicks": 156,
                    "midi": 32,
                    "name": "G#1",
                    "ticks": 11776,
                    "time": 38.333272,
                    "velocity": 0.2677165354330709,
                },
                {
                    "duration": 0.4720044531250025,
                    "durationTicks": 145,
                    "midi": 33,
                    "name": "A1",
                    "ticks": 12032,
                    "time": 39.166604,
                    "velocity": 0.2992125984251969,
                },
                {
                    "duration": 0.8333319999999986,
                    "durationTicks": 256,
                    "midi": 28,
                    "name": "E1",
                    "ticks": 12288,
                    "time": 39.999936,
                    "velocity": 0.25984251968503935,
                },
                {
                    "duration": 0.24739543750000337,
                    "durationTicks": 76,
                    "midi": 28,
                    "name": "E1",
                    "ticks": 12544,
                    "time": 40.833268,
                    "velocity": 0.29133858267716534,
                },
                {
                    "duration": 0.24739543749999626,
                    "durationTicks": 76,
                    "midi": 28,
                    "name": "E1",
                    "ticks": 12672,
                    "time": 41.249934,
                    "velocity": 0.2677165354330709,
                },
                {
                    "duration": 0.8333319999999986,
                    "durationTicks": 256,
                    "midi": 33,
                    "name": "A1",
                    "ticks": 12800,
                    "time": 41.6666,
                    "velocity": 0.30708661417322836,
                },
                {
                    "duration": 0.24739543750000337,
                    "durationTicks": 76,
                    "midi": 33,
                    "name": "A1",
                    "ticks": 13568,
                    "time": 44.166596,
                    "velocity": 0.2440944881889764,
                },
                {
                    "duration": 0.24739543750000337,
                    "durationTicks": 76,
                    "midi": 33,
                    "name": "A1",
                    "ticks": 13696,
                    "time": 44.583262,
                    "velocity": 0.2755905511811024,
                },
                {
                    "duration": 0.24739543750000337,
                    "durationTicks": 76,
                    "midi": 32,
                    "name": "G#1",
                    "ticks": 13824,
                    "time": 44.999928,
                    "velocity": 0.2755905511811024,
                },
                {
                    "duration": 0.24739543749999626,
                    "durationTicks": 76,
                    "midi": 44,
                    "name": "G#2",
                    "ticks": 14080,
                    "time": 45.83326,
                    "velocity": 0.2283464566929134,
                },
                {
                    "duration": 0.24739543749999626,
                    "durationTicks": 76,
                    "midi": 28,
                    "name": "E1",
                    "ticks": 14592,
                    "time": 47.499924,
                    "velocity": 0.23622047244094488,
                },
                {
                    "duration": 0.24739543750000337,
                    "durationTicks": 76,
                    "midi": 28,
                    "name": "E1",
                    "ticks": 14720,
                    "time": 47.91659,
                    "velocity": 0.29133858267716534,
                },
                {
                    "duration": 0.24739543750000337,
                    "durationTicks": 76,
                    "midi": 33,
                    "name": "A1",
                    "ticks": 14848,
                    "time": 48.333256,
                    "velocity": 0.2755905511811024,
                },
                {
                    "duration": 0.24739543750000337,
                    "durationTicks": 76,
                    "midi": 45,
                    "name": "A2",
                    "ticks": 15104,
                    "time": 49.166588,
                    "velocity": 0.2283464566929134,
                },
                {
                    "duration": 0.24739543749999626,
                    "durationTicks": 76,
                    "midi": 33,
                    "name": "A1",
                    "ticks": 15616,
                    "time": 50.833252,
                    "velocity": 0.25196850393700787,
                },
                {
                    "duration": 0.24739543749999626,
                    "durationTicks": 76,
                    "midi": 33,
                    "name": "A1",
                    "ticks": 15744,
                    "time": 51.249918,
                    "velocity": 0.25984251968503935,
                },
                {
                    "duration": 0.24739543749999626,
                    "durationTicks": 76,
                    "midi": 31,
                    "name": "G1",
                    "ticks": 15872,
                    "time": 51.666584,
                    "velocity": 0.25196850393700787,
                },
                {
                    "duration": 0.24739543750000337,
                    "durationTicks": 76,
                    "midi": 43,
                    "name": "G2",
                    "ticks": 16128,
                    "time": 52.499916,
                    "velocity": 0.28346456692913385,
                },
                {
                    "duration": 0.24739543750000337,
                    "durationTicks": 76,
                    "midi": 43,
                    "name": "G2",
                    "ticks": 16640,
                    "time": 54.166579999999996,
                    "velocity": 0.2755905511811024,
                },
                {
                    "duration": 0.24739543749999626,
                    "durationTicks": 76,
                    "midi": 43,
                    "name": "G2",
                    "ticks": 16768,
                    "time": 54.583246,
                    "velocity": 0.28346456692913385,
                },
                {
                    "duration": 0.24739543749999626,
                    "durationTicks": 76,
                    "midi": 36,
                    "name": "C2",
                    "ticks": 16896,
                    "time": 54.999912,
                    "velocity": 0.28346456692913385,
                },
                {
                    "duration": 0.24739543749999626,
                    "durationTicks": 76,
                    "midi": 48,
                    "name": "C3",
                    "ticks": 17152,
                    "time": 55.833244,
                    "velocity": 0.25196850393700787,
                },
                {
                    "duration": 0.24739543750000337,
                    "durationTicks": 76,
                    "midi": 36,
                    "name": "C2",
                    "ticks": 17664,
                    "time": 57.499908,
                    "velocity": 0.25984251968503935,
                },
                {
                    "duration": 0.24739543750000337,
                    "durationTicks": 76,
                    "midi": 36,
                    "name": "C2",
                    "ticks": 17792,
                    "time": 57.916574,
                    "velocity": 0.28346456692913385,
                },
                {
                    "duration": 0.24739543750000337,
                    "durationTicks": 76,
                    "midi": 35,
                    "name": "B1",
                    "ticks": 17920,
                    "time": 58.333239999999996,
                    "velocity": 0.2755905511811024,
                },
                {
                    "duration": 0.24739543749999626,
                    "durationTicks": 76,
                    "midi": 47,
                    "name": "B2",
                    "ticks": 18176,
                    "time": 59.166572,
                    "velocity": 0.2440944881889764,
                },
                {
                    "duration": 0.24739543749999626,
                    "durationTicks": 76,
                    "midi": 40,
                    "name": "E2",
                    "ticks": 18688,
                    "time": 60.833236,
                    "velocity": 0.2204724409448819,
                },
                {
                    "duration": 0.24739543750000337,
                    "durationTicks": 76,
                    "midi": 40,
                    "name": "E2",
                    "ticks": 18816,
                    "time": 61.249902,
                    "velocity": 0.29133858267716534,
                },
                {
                    "duration": 0.24739543750000337,
                    "durationTicks": 76,
                    "midi": 33,
                    "name": "A1",
                    "ticks": 18944,
                    "time": 61.666568,
                    "velocity": 0.25984251968503935,
                },
                {
                    "duration": 0.24739543750000337,
                    "durationTicks": 76,
                    "midi": 45,
                    "name": "A2",
                    "ticks": 19200,
                    "time": 62.4999,
                    "velocity": 0.28346456692913385,
                },
                {
                    "duration": 0.24739543750000337,
                    "durationTicks": 76,
                    "midi": 33,
                    "name": "A1",
                    "ticks": 19712,
                    "time": 64.166564,
                    "velocity": 0.2125984251968504,
                },
                {
                    "duration": 0.24739543749998916,
                    "durationTicks": 76,
                    "midi": 33,
                    "name": "A1",
                    "ticks": 19840,
                    "time": 64.58323,
                    "velocity": 0.2440944881889764,
                },
                {
                    "duration": 0.24739543750000337,
                    "durationTicks": 76,
                    "midi": 32,
                    "name": "G#1",
                    "ticks": 19968,
                    "time": 64.99989599999999,
                    "velocity": 0.2755905511811024,
                },
                {
                    "duration": 0.24739543750000337,
                    "durationTicks": 76,
                    "midi": 33,
                    "name": "A1",
                    "ticks": 20224,
                    "time": 65.83322799999999,
                    "velocity": 0.25984251968503935,
                },
                {
                    "duration": 0.24739543750000337,
                    "durationTicks": 76,
                    "midi": 28,
                    "name": "E1",
                    "ticks": 20736,
                    "time": 67.49989199999999,
                    "velocity": 0.25984251968503935,
                },
                {
                    "duration": 0.24739543750000337,
                    "durationTicks": 76,
                    "midi": 28,
                    "name": "E1",
                    "ticks": 20864,
                    "time": 67.916558,
                    "velocity": 0.2677165354330709,
                },
                {
                    "duration": 0.24739543750000337,
                    "durationTicks": 76,
                    "midi": 33,
                    "name": "A1",
                    "ticks": 20992,
                    "time": 68.33322399999999,
                    "velocity": 0.30708661417322836,
                },
                {
                    "duration": 0.24739543750000337,
                    "durationTicks": 76,
                    "midi": 45,
                    "name": "A2",
                    "ticks": 21248,
                    "time": 69.16655599999999,
                    "velocity": 0.25984251968503935,
                },
                {
                    "duration": 0.24739543749998916,
                    "durationTicks": 76,
                    "midi": 36,
                    "name": "C2",
                    "ticks": 21760,
                    "time": 70.83322,
                    "velocity": 0.2677165354330709,
                },
                {
                    "duration": 0.24739543750000337,
                    "durationTicks": 76,
                    "midi": 36,
                    "name": "C2",
                    "ticks": 21888,
                    "time": 71.24988599999999,
                    "velocity": 0.2755905511811024,
                },
                {
                    "duration": 0.24739543749998916,
                    "durationTicks": 76,
                    "midi": 35,
                    "name": "B1",
                    "ticks": 22016,
                    "time": 71.666552,
                    "velocity": 0.25984251968503935,
                },
                {
                    "duration": 0.24739543750000337,
                    "durationTicks": 76,
                    "midi": 47,
                    "name": "B2",
                    "ticks": 22272,
                    "time": 72.499884,
                    "velocity": 0.2204724409448819,
                },
                {
                    "duration": 0.24739543750000337,
                    "durationTicks": 76,
                    "midi": 40,
                    "name": "E2",
                    "ticks": 22784,
                    "time": 74.16654799999999,
                    "velocity": 0.2204724409448819,
                },
                {
                    "duration": 0.24739543749998916,
                    "durationTicks": 76,
                    "midi": 40,
                    "name": "E2",
                    "ticks": 22912,
                    "time": 74.583214,
                    "velocity": 0.25984251968503935,
                },
                {
                    "duration": 0.24739543750000337,
                    "durationTicks": 76,
                    "midi": 33,
                    "name": "A1",
                    "ticks": 23040,
                    "time": 74.99987999999999,
                    "velocity": 0.25984251968503935,
                },
                {
                    "duration": 0.24739543750000337,
                    "durationTicks": 76,
                    "midi": 45,
                    "name": "A2",
                    "ticks": 23296,
                    "time": 75.83321199999999,
                    "velocity": 0.25984251968503935,
                },
                {
                    "duration": 0.24739543750000337,
                    "durationTicks": 76,
                    "midi": 33,
                    "name": "A1",
                    "ticks": 23808,
                    "time": 77.49987599999999,
                    "velocity": 0.23622047244094488,
                },
                {
                    "duration": 0.24739543750000337,
                    "durationTicks": 76,
                    "midi": 33,
                    "name": "A1",
                    "ticks": 23936,
                    "time": 77.91654199999999,
                    "velocity": 0.31496062992125984,
                },
                {
                    "duration": 0.24739543750000337,
                    "durationTicks": 76,
                    "midi": 32,
                    "name": "G#1",
                    "ticks": 24064,
                    "time": 78.33320799999998,
                    "velocity": 0.2677165354330709,
                },
                {
                    "duration": 0.24739543749998916,
                    "durationTicks": 76,
                    "midi": 33,
                    "name": "A1",
                    "ticks": 24320,
                    "time": 79.16654,
                    "velocity": 0.2283464566929134,
                },
                {
                    "duration": 0.24739543749998916,
                    "durationTicks": 76,
                    "midi": 28,
                    "name": "E1",
                    "ticks": 24832,
                    "time": 80.833204,
                    "velocity": 0.2440944881889764,
                },
                {
                    "duration": 0.24739543750000337,
                    "durationTicks": 76,
                    "midi": 28,
                    "name": "E1",
                    "ticks": 24960,
                    "time": 81.24986999999999,
                    "velocity": 0.28346456692913385,
                },
                {
                    "duration": 0.24739543750000337,
                    "durationTicks": 76,
                    "midi": 33,
                    "name": "A1",
                    "ticks": 25088,
                    "time": 81.666536,
                    "velocity": 0.29133858267716534,
                },
                {
                    "duration": 0.24739543750000337,
                    "durationTicks": 76,
                    "midi": 45,
                    "name": "A2",
                    "ticks": 25344,
                    "time": 82.49986799999999,
                    "velocity": 0.2125984251968504,
                },
                {
                    "duration": 0.8333319999999986,
                    "durationTicks": 256,
                    "midi": 33,
                    "name": "A1",
                    "ticks": 25600,
                    "time": 83.33319999999999,
                    "velocity": 0.36220472440944884,
                },
                {
                    "duration": 0.4166659999999922,
                    "durationTicks": 128,
                    "midi": 45,
                    "name": "A2",
                    "ticks": 25984,
                    "time": 84.583198,
                    "velocity": 0.3700787401574803,
                },
                {
                    "duration": 0.8333319999999986,
                    "durationTicks": 256,
                    "midi": 32,
                    "name": "G#1",
                    "ticks": 26112,
                    "time": 84.99986399999999,
                    "velocity": 0.30708661417322836,
                },
                {
                    "duration": 0.4166659999999922,
                    "durationTicks": 128,
                    "midi": 44,
                    "name": "G#2",
                    "ticks": 26496,
                    "time": 86.249862,
                    "velocity": 0.36220472440944884,
                },
                {
                    "duration": 0.8333319999999986,
                    "durationTicks": 256,
                    "midi": 28,
                    "name": "E1",
                    "ticks": 26624,
                    "time": 86.66652799999999,
                    "velocity": 0.3543307086614173,
                },
                {
                    "duration": 0.4166660000000064,
                    "durationTicks": 128,
                    "midi": 40,
                    "name": "E2",
                    "ticks": 27008,
                    "time": 87.91652599999999,
                    "velocity": 0.3543307086614173,
                },
                {
                    "duration": 0.8333319999999986,
                    "durationTicks": 256,
                    "midi": 33,
                    "name": "A1",
                    "ticks": 27136,
                    "time": 88.333192,
                    "velocity": 0.4251968503937008,
                },
                {
                    "duration": 0.4166660000000064,
                    "durationTicks": 128,
                    "midi": 45,
                    "name": "A2",
                    "ticks": 27520,
                    "time": 89.58318999999999,
                    "velocity": 0.41732283464566927,
                },
                {
                    "duration": 0.8333319999999986,
                    "durationTicks": 256,
                    "midi": 33,
                    "name": "A1",
                    "ticks": 27648,
                    "time": 89.999856,
                    "velocity": 0.4015748031496063,
                },
                {
                    "duration": 0.4166660000000064,
                    "durationTicks": 128,
                    "midi": 45,
                    "name": "A2",
                    "ticks": 28032,
                    "time": 91.24985399999998,
                    "velocity": 0.4409448818897638,
                },
                {
                    "duration": 0.8333319999999986,
                    "durationTicks": 256,
                    "midi": 31,
                    "name": "G1",
                    "ticks": 28160,
                    "time": 91.66651999999999,
                    "velocity": 0.4015748031496063,
                },
                {
                    "duration": 0.4166659999999922,
                    "durationTicks": 128,
                    "midi": 43,
                    "name": "G2",
                    "ticks": 28544,
                    "time": 92.916518,
                    "velocity": 0.4645669291338583,
                },
                {
                    "duration": 0.8333319999999986,
                    "durationTicks": 256,
                    "midi": 31,
                    "name": "G1",
                    "ticks": 28672,
                    "time": 93.33318399999999,
                    "velocity": 0.4330708661417323,
                },
                {
                    "duration": 0.4166659999999922,
                    "durationTicks": 128,
                    "midi": 43,
                    "name": "G2",
                    "ticks": 29056,
                    "time": 94.583182,
                    "velocity": 0.47244094488188976,
                },
                {
                    "duration": 0.8333319999999986,
                    "durationTicks": 256,
                    "midi": 36,
                    "name": "C2",
                    "ticks": 29184,
                    "time": 94.99984799999999,
                    "velocity": 0.4881889763779528,
                },
                {
                    "duration": 0.4166659999999922,
                    "durationTicks": 128,
                    "midi": 48,
                    "name": "C3",
                    "ticks": 29568,
                    "time": 96.24984599999999,
                    "velocity": 0.49606299212598426,
                },
                {
                    "duration": 0.8333320000000128,
                    "durationTicks": 256,
                    "midi": 36,
                    "name": "C2",
                    "ticks": 29696,
                    "time": 96.66651199999998,
                    "velocity": 0.48031496062992124,
                },
                {
                    "duration": 0.4166660000000064,
                    "durationTicks": 128,
                    "midi": 48,
                    "name": "C3",
                    "ticks": 30080,
                    "time": 97.91650999999999,
                    "velocity": 0.5433070866141733,
                },
                {
                    "duration": 0.8333319999999986,
                    "durationTicks": 256,
                    "midi": 35,
                    "name": "B1",
                    "ticks": 30208,
                    "time": 98.333176,
                    "velocity": 0.48031496062992124,
                },
                {
                    "duration": 0.4166660000000064,
                    "durationTicks": 128,
                    "midi": 47,
                    "name": "B2",
                    "ticks": 30592,
                    "time": 99.58317399999999,
                    "velocity": 0.5275590551181102,
                },
                {
                    "duration": 0.8333319999999986,
                    "durationTicks": 256,
                    "midi": 35,
                    "name": "B1",
                    "ticks": 30720,
                    "time": 99.99983999999999,
                    "velocity": 0.5118110236220472,
                },
                {
                    "duration": 0.4166659999999922,
                    "durationTicks": 128,
                    "midi": 47,
                    "name": "B2",
                    "ticks": 31104,
                    "time": 101.249838,
                    "velocity": 0.5669291338582677,
                },
                {
                    "duration": 0.8333319999999986,
                    "durationTicks": 256,
                    "midi": 33,
                    "name": "A1",
                    "ticks": 31232,
                    "time": 101.66650399999999,
                    "velocity": 0.5748031496062992,
                },
                {
                    "duration": 0.4166659999999922,
                    "durationTicks": 128,
                    "midi": 45,
                    "name": "A2",
                    "ticks": 31616,
                    "time": 102.916502,
                    "velocity": 0.5748031496062992,
                },
                {
                    "duration": 0.8333319999999986,
                    "durationTicks": 256,
                    "midi": 33,
                    "name": "A1",
                    "ticks": 31744,
                    "time": 103.33316799999999,
                    "velocity": 0.5354330708661418,
                },
                {
                    "duration": 0.4166659999999922,
                    "durationTicks": 128,
                    "midi": 45,
                    "name": "A2",
                    "ticks": 32128,
                    "time": 104.58316599999999,
                    "velocity": 0.5669291338582677,
                },
                {
                    "duration": 0.8333320000000128,
                    "durationTicks": 256,
                    "midi": 32,
                    "name": "G#1",
                    "ticks": 32256,
                    "time": 104.99983199999998,
                    "velocity": 0.5590551181102362,
                },
                {
                    "duration": 0.4166660000000064,
                    "durationTicks": 128,
                    "midi": 33,
                    "name": "A1",
                    "ticks": 32640,
                    "time": 106.24982999999999,
                    "velocity": 0.6220472440944882,
                },
                {
                    "duration": 0.8333319999999986,
                    "durationTicks": 256,
                    "midi": 28,
                    "name": "E1",
                    "ticks": 32768,
                    "time": 106.666496,
                    "velocity": 0.6771653543307087,
                },
                {
                    "duration": 0.4166660000000064,
                    "durationTicks": 128,
                    "midi": 40,
                    "name": "E2",
                    "ticks": 33152,
                    "time": 107.91649399999999,
                    "velocity": 0.6456692913385826,
                },
                {
                    "duration": 0.8333319999999986,
                    "durationTicks": 256,
                    "midi": 33,
                    "name": "A1",
                    "ticks": 33280,
                    "time": 108.33315999999999,
                    "velocity": 0.6535433070866141,
                },
                {
                    "duration": 0.4166660000000064,
                    "durationTicks": 128,
                    "midi": 45,
                    "name": "A2",
                    "ticks": 33664,
                    "time": 109.58315799999998,
                    "velocity": 0.6614173228346457,
                },
                {
                    "duration": 0.8333319999999986,
                    "durationTicks": 256,
                    "midi": 36,
                    "name": "C2",
                    "ticks": 33792,
                    "time": 109.99982399999999,
                    "velocity": 0.6377952755905512,
                },
                {
                    "duration": 0.4166659999999922,
                    "durationTicks": 128,
                    "midi": 48,
                    "name": "C3",
                    "ticks": 34176,
                    "time": 111.249822,
                    "velocity": 0.6850393700787402,
                },
                {
                    "duration": 0.8333319999999986,
                    "durationTicks": 256,
                    "midi": 35,
                    "name": "B1",
                    "ticks": 34304,
                    "time": 111.66648799999999,
                    "velocity": 0.6692913385826772,
                },
                {
                    "duration": 0.4166659999999922,
                    "durationTicks": 128,
                    "midi": 47,
                    "name": "B2",
                    "ticks": 34688,
                    "time": 112.91648599999999,
                    "velocity": 0.6929133858267716,
                },
                {
                    "duration": 0.8333319999999986,
                    "durationTicks": 256,
                    "midi": 35,
                    "name": "B1",
                    "ticks": 34816,
                    "time": 113.33315199999998,
                    "velocity": 0.7165354330708661,
                },
                {
                    "duration": 0.4166660000000064,
                    "durationTicks": 128,
                    "midi": 47,
                    "name": "B2",
                    "ticks": 35200,
                    "time": 114.58314999999999,
                    "velocity": 0.7559055118110236,
                },
                {
                    "duration": 0.8333319999999986,
                    "durationTicks": 256,
                    "midi": 33,
                    "name": "A1",
                    "ticks": 35328,
                    "time": 114.999816,
                    "velocity": 0.7007874015748031,
                },
                {
                    "duration": 0.4166660000000064,
                    "durationTicks": 128,
                    "midi": 45,
                    "name": "A2",
                    "ticks": 35712,
                    "time": 116.24981399999999,
                    "velocity": 0.7165354330708661,
                },
                {
                    "duration": 0.8333319999999986,
                    "durationTicks": 256,
                    "midi": 33,
                    "name": "A1",
                    "ticks": 35840,
                    "time": 116.66647999999999,
                    "velocity": 0.7401574803149606,
                },
                {
                    "duration": 0.4166660000000064,
                    "durationTicks": 128,
                    "midi": 45,
                    "name": "A2",
                    "ticks": 36224,
                    "time": 117.91647799999998,
                    "velocity": 0.7637795275590551,
                },
                {
                    "duration": 0.8333319999999986,
                    "durationTicks": 256,
                    "midi": 32,
                    "name": "G#1",
                    "ticks": 36352,
                    "time": 118.33314399999999,
                    "velocity": 0.7244094488188977,
                },
                {
                    "duration": 0.4166659999999922,
                    "durationTicks": 128,
                    "midi": 33,
                    "name": "A1",
                    "ticks": 36736,
                    "time": 119.583142,
                    "velocity": 0.7086614173228346,
                },
                {
                    "duration": 0.8333319999999986,
                    "durationTicks": 256,
                    "midi": 28,
                    "name": "E1",
                    "ticks": 36864,
                    "time": 119.99980799999999,
                    "velocity": 0.7322834645669292,
                },
                {
                    "duration": 0.4166659999999922,
                    "durationTicks": 128,
                    "midi": 40,
                    "name": "E2",
                    "ticks": 37248,
                    "time": 121.24980599999999,
                    "velocity": 0.7637795275590551,
                },
                {
                    "duration": 0.8333319999999986,
                    "durationTicks": 256,
                    "midi": 33,
                    "name": "A1",
                    "ticks": 37376,
                    "time": 121.66647199999998,
                    "velocity": 0.7559055118110236,
                },
                {
                    "duration": 0.4166660000000064,
                    "durationTicks": 128,
                    "midi": 45,
                    "name": "A2",
                    "ticks": 37760,
                    "time": 122.91646999999999,
                    "velocity": 0.7795275590551181,
                },
                {
                    "duration": 0.8333319999999986,
                    "durationTicks": 256,
                    "midi": 33,
                    "name": "A1",
                    "ticks": 37888,
                    "time": 123.333136,
                    "velocity": 0.7244094488188977,
                },
                {
                    "duration": 0.16601535937500955,
                    "durationTicks": 51,
                    "midi": 33,
                    "name": "A1",
                    "ticks": 38229,
                    "time": 124.44316026562498,
                    "velocity": 0.8188976377952756,
                },
                {
                    "duration": 0.16601535937500955,
                    "durationTicks": 51,
                    "midi": 45,
                    "name": "A2",
                    "ticks": 38314,
                    "time": 124.71985253124998,
                    "velocity": 1,
                },
                {
                    "duration": 0.8333319999999986,
                    "durationTicks": 256,
                    "midi": 32,
                    "name": "G#1",
                    "ticks": 38400,
                    "time": 124.9998,
                    "velocity": 0.7322834645669292,
                },
                {
                    "duration": 0.16601535937499534,
                    "durationTicks": 51,
                    "midi": 32,
                    "name": "G#1",
                    "ticks": 38741,
                    "time": 126.109824265625,
                    "velocity": 0.7874015748031497,
                },
                {
                    "duration": 0.16601535937499534,
                    "durationTicks": 51,
                    "midi": 44,
                    "name": "G#2",
                    "ticks": 38826,
                    "time": 126.38651653125,
                    "velocity": 0.9763779527559056,
                },
                {
                    "duration": 0.8333319999999986,
                    "durationTicks": 256,
                    "midi": 28,
                    "name": "E1",
                    "ticks": 38912,
                    "time": 126.66646399999999,
                    "velocity": 0.7795275590551181,
                },
                {
                    "duration": 0.16601535937499534,
                    "durationTicks": 51,
                    "midi": 28,
                    "name": "E1",
                    "ticks": 39253,
                    "time": 127.77648826562499,
                    "velocity": 0.8031496062992126,
                },
                {
                    "duration": 0.16601535937499534,
                    "durationTicks": 51,
                    "midi": 40,
                    "name": "E2",
                    "ticks": 39338,
                    "time": 128.05318053125,
                    "velocity": 0.9921259842519685,
                },
                {
                    "duration": 0.8333320000000128,
                    "durationTicks": 256,
                    "midi": 33,
                    "name": "A1",
                    "ticks": 39424,
                    "time": 128.333128,
                    "velocity": 0.8267716535433071,
                },
                {
                    "duration": 0.16601535937499534,
                    "durationTicks": 51,
                    "midi": 33,
                    "name": "A1",
                    "ticks": 39765,
                    "time": 129.443152265625,
                    "velocity": 0.7795275590551181,
                },
                {
                    "duration": 0.16601535937499534,
                    "durationTicks": 51,
                    "midi": 45,
                    "name": "A2",
                    "ticks": 39850,
                    "time": 129.71984453125,
                    "velocity": 0.968503937007874,
                },
                {
                    "duration": 0.8333320000000128,
                    "durationTicks": 256,
                    "midi": 33,
                    "name": "A1",
                    "ticks": 39936,
                    "time": 129.99979199999999,
                    "velocity": 0.7401574803149606,
                },
                {
                    "duration": 0.16601535937499534,
                    "durationTicks": 51,
                    "midi": 33,
                    "name": "A1",
                    "ticks": 40277,
                    "time": 131.109816265625,
                    "velocity": 0.7952755905511811,
                },
                {
                    "duration": 0.16601535937499534,
                    "durationTicks": 51,
                    "midi": 45,
                    "name": "A2",
                    "ticks": 40362,
                    "time": 131.38650853125,
                    "velocity": 0.9921259842519685,
                },
                {
                    "duration": 0.8333320000000128,
                    "durationTicks": 256,
                    "midi": 31,
                    "name": "G1",
                    "ticks": 40448,
                    "time": 131.66645599999998,
                    "velocity": 0.7795275590551181,
                },
                {
                    "duration": 0.16601535937499534,
                    "durationTicks": 51,
                    "midi": 31,
                    "name": "G1",
                    "ticks": 40789,
                    "time": 132.776480265625,
                    "velocity": 0.7716535433070866,
                },
                {
                    "duration": 0.16601535937499534,
                    "durationTicks": 51,
                    "midi": 43,
                    "name": "G2",
                    "ticks": 40874,
                    "time": 133.05317253125,
                    "velocity": 0.9763779527559056,
                },
                {
                    "duration": 0.8333320000000128,
                    "durationTicks": 256,
                    "midi": 31,
                    "name": "G1",
                    "ticks": 40960,
                    "time": 133.33311999999998,
                    "velocity": 0.7716535433070866,
                },
                {
                    "duration": 0.16601535937499534,
                    "durationTicks": 51,
                    "midi": 31,
                    "name": "G1",
                    "ticks": 41301,
                    "time": 134.443144265625,
                    "velocity": 0.7952755905511811,
                },
                {
                    "duration": 0.16601535937499534,
                    "durationTicks": 51,
                    "midi": 43,
                    "name": "G2",
                    "ticks": 41386,
                    "time": 134.71983653125,
                    "velocity": 1,
                },
                {
                    "duration": 0.8333320000000128,
                    "durationTicks": 256,
                    "midi": 36,
                    "name": "C2",
                    "ticks": 41472,
                    "time": 134.99978399999998,
                    "velocity": 0.8110236220472441,
                },
                {
                    "duration": 0.16601535937499534,
                    "durationTicks": 51,
                    "midi": 36,
                    "name": "C2",
                    "ticks": 41813,
                    "time": 136.109808265625,
                    "velocity": 0.7952755905511811,
                },
                {
                    "duration": 0.16601535937499534,
                    "durationTicks": 51,
                    "midi": 48,
                    "name": "C3",
                    "ticks": 41898,
                    "time": 136.38650053125,
                    "velocity": 0.9921259842519685,
                },
                {
                    "duration": 0.8333319999999844,
                    "durationTicks": 256,
                    "midi": 36,
                    "name": "C2",
                    "ticks": 41984,
                    "time": 136.666448,
                    "velocity": 0.7795275590551181,
                },
                {
                    "duration": 0.16601535937499534,
                    "durationTicks": 51,
                    "midi": 36,
                    "name": "C2",
                    "ticks": 42325,
                    "time": 137.776472265625,
                    "velocity": 0.7795275590551181,
                },
                {
                    "duration": 0.16601535937499534,
                    "durationTicks": 51,
                    "midi": 48,
                    "name": "C3",
                    "ticks": 42410,
                    "time": 138.05316453125,
                    "velocity": 0.968503937007874,
                },
                {
                    "duration": 0.8333319999999844,
                    "durationTicks": 256,
                    "midi": 35,
                    "name": "B1",
                    "ticks": 42496,
                    "time": 138.333112,
                    "velocity": 0.7716535433070866,
                },
                {
                    "duration": 0.16601535937499534,
                    "durationTicks": 51,
                    "midi": 35,
                    "name": "B1",
                    "ticks": 42837,
                    "time": 139.443136265625,
                    "velocity": 0.8110236220472441,
                },
                {
                    "duration": 0.16601535937499534,
                    "durationTicks": 51,
                    "midi": 47,
                    "name": "B2",
                    "ticks": 42922,
                    "time": 139.71982853125,
                    "velocity": 0.9921259842519685,
                },
                {
                    "duration": 0.8333319999999844,
                    "durationTicks": 256,
                    "midi": 35,
                    "name": "B1",
                    "ticks": 43008,
                    "time": 139.999776,
                    "velocity": 0.7637795275590551,
                },
                {
                    "duration": 0.16601535937499534,
                    "durationTicks": 51,
                    "midi": 35,
                    "name": "B1",
                    "ticks": 43349,
                    "time": 141.10980026562498,
                    "velocity": 0.8031496062992126,
                },
                {
                    "duration": 0.16601535937499534,
                    "durationTicks": 51,
                    "midi": 47,
                    "name": "B2",
                    "ticks": 43434,
                    "time": 141.38649253124998,
                    "velocity": 0.984251968503937,
                },
                {
                    "duration": 0.8333319999999844,
                    "durationTicks": 256,
                    "midi": 33,
                    "name": "A1",
                    "ticks": 43520,
                    "time": 141.66644,
                    "velocity": 0.7637795275590551,
                },
                {
                    "duration": 0.16601535937499534,
                    "durationTicks": 51,
                    "midi": 33,
                    "name": "A1",
                    "ticks": 43861,
                    "time": 142.77646426562498,
                    "velocity": 0.7480314960629921,
                },
                {
                    "duration": 0.16601535937499534,
                    "durationTicks": 51,
                    "midi": 45,
                    "name": "A2",
                    "ticks": 43946,
                    "time": 143.05315653124998,
                    "velocity": 0.984251968503937,
                },
                {
                    "duration": 0.8333319999999844,
                    "durationTicks": 256,
                    "midi": 33,
                    "name": "A1",
                    "ticks": 44032,
                    "time": 143.333104,
                    "velocity": 0.7401574803149606,
                },
                {
                    "duration": 0.16601535937502376,
                    "durationTicks": 51,
                    "midi": 33,
                    "name": "A1",
                    "ticks": 44373,
                    "time": 144.44312826562498,
                    "velocity": 0.7559055118110236,
                },
                {
                    "duration": 0.16601535937499534,
                    "durationTicks": 51,
                    "midi": 45,
                    "name": "A2",
                    "ticks": 44458,
                    "time": 144.71982053124998,
                    "velocity": 1,
                },
                {
                    "duration": 0.8333320000000128,
                    "durationTicks": 256,
                    "midi": 32,
                    "name": "G#1",
                    "ticks": 44544,
                    "time": 144.999768,
                    "velocity": 0.7637795275590551,
                },
                {
                    "duration": 0.16601535937502376,
                    "durationTicks": 51,
                    "midi": 33,
                    "name": "A1",
                    "ticks": 44885,
                    "time": 146.10979226562498,
                    "velocity": 0.8031496062992126,
                },
                {
                    "duration": 0.16601535937502376,
                    "durationTicks": 51,
                    "midi": 45,
                    "name": "A2",
                    "ticks": 44970,
                    "time": 146.38648453124998,
                    "velocity": 0.968503937007874,
                },
                {
                    "duration": 0.8333320000000128,
                    "durationTicks": 256,
                    "midi": 28,
                    "name": "E1",
                    "ticks": 45056,
                    "time": 146.666432,
                    "velocity": 0.7559055118110236,
                },
                {
                    "duration": 0.16601535937499534,
                    "durationTicks": 51,
                    "midi": 28,
                    "name": "E1",
                    "ticks": 45397,
                    "time": 147.776456265625,
                    "velocity": 0.7952755905511811,
                },
                {
                    "duration": 0.16601535937502376,
                    "durationTicks": 51,
                    "midi": 40,
                    "name": "E2",
                    "ticks": 45482,
                    "time": 148.05314853124997,
                    "velocity": 0.9606299212598425,
                },
                {
                    "duration": 0.8333320000000128,
                    "durationTicks": 256,
                    "midi": 33,
                    "name": "A1",
                    "ticks": 45568,
                    "time": 148.33309599999998,
                    "velocity": 0.8031496062992126,
                },
                {
                    "duration": 0.16601535937499534,
                    "durationTicks": 51,
                    "midi": 33,
                    "name": "A1",
                    "ticks": 45909,
                    "time": 149.443120265625,
                    "velocity": 0.7637795275590551,
                },
                {
                    "duration": 0.16601535937499534,
                    "durationTicks": 51,
                    "midi": 35,
                    "name": "B1",
                    "ticks": 45994,
                    "time": 149.71981253125,
                    "velocity": 0.8818897637795275,
                },
                {
                    "duration": 0.8333320000000128,
                    "durationTicks": 256,
                    "midi": 36,
                    "name": "C2",
                    "ticks": 46080,
                    "time": 149.99975999999998,
                    "velocity": 0.8346456692913385,
                },
                {
                    "duration": 0.16601535937499534,
                    "durationTicks": 51,
                    "midi": 36,
                    "name": "C2",
                    "ticks": 46421,
                    "time": 151.109784265625,
                    "velocity": 0.7401574803149606,
                },
                {
                    "duration": 0.16601535937499534,
                    "durationTicks": 51,
                    "midi": 48,
                    "name": "C3",
                    "ticks": 46506,
                    "time": 151.38647653125,
                    "velocity": 0.8110236220472441,
                },
                {
                    "duration": 0.8333320000000128,
                    "durationTicks": 256,
                    "midi": 35,
                    "name": "B1",
                    "ticks": 46592,
                    "time": 151.66642399999998,
                    "velocity": 0.6456692913385826,
                },
                {
                    "duration": 0.16601535937499534,
                    "durationTicks": 51,
                    "midi": 35,
                    "name": "B1",
                    "ticks": 46933,
                    "time": 152.776448265625,
                    "velocity": 0.6377952755905512,
                },
                {
                    "duration": 0.16601535937499534,
                    "durationTicks": 51,
                    "midi": 47,
                    "name": "B2",
                    "ticks": 47018,
                    "time": 153.05314053125,
                    "velocity": 0.7401574803149606,
                },
                {
                    "duration": 0.8333320000000128,
                    "durationTicks": 256,
                    "midi": 35,
                    "name": "B1",
                    "ticks": 47104,
                    "time": 153.33308799999998,
                    "velocity": 0.5511811023622047,
                },
                {
                    "duration": 0.16601535937499534,
                    "durationTicks": 51,
                    "midi": 35,
                    "name": "B1",
                    "ticks": 47445,
                    "time": 154.443112265625,
                    "velocity": 0.5433070866141733,
                },
                {
                    "duration": 0.16601535937499534,
                    "durationTicks": 51,
                    "midi": 47,
                    "name": "B2",
                    "ticks": 47530,
                    "time": 154.71980453125,
                    "velocity": 0.6299212598425197,
                },
                {
                    "duration": 0.8333319999999844,
                    "durationTicks": 256,
                    "midi": 33,
                    "name": "A1",
                    "ticks": 47616,
                    "time": 154.999752,
                    "velocity": 0.48031496062992124,
                },
                {
                    "duration": 0.16601535937499534,
                    "durationTicks": 51,
                    "midi": 33,
                    "name": "A1",
                    "ticks": 47957,
                    "time": 156.109776265625,
                    "velocity": 0.47244094488188976,
                },
                {
                    "duration": 0.16601535937499534,
                    "durationTicks": 51,
                    "midi": 45,
                    "name": "A2",
                    "ticks": 48042,
                    "time": 156.38646853125,
                    "velocity": 0.5669291338582677,
                },
                {
                    "duration": 0.8333319999999844,
                    "durationTicks": 256,
                    "midi": 33,
                    "name": "A1",
                    "ticks": 48128,
                    "time": 156.666416,
                    "velocity": 0.41732283464566927,
                },
                {
                    "duration": 0.16601535937499534,
                    "durationTicks": 51,
                    "midi": 33,
                    "name": "A1",
                    "ticks": 48469,
                    "time": 157.77644026562498,
                    "velocity": 0.4094488188976378,
                },
                {
                    "duration": 0.16601535937499534,
                    "durationTicks": 51,
                    "midi": 45,
                    "name": "A2",
                    "ticks": 48554,
                    "time": 158.05313253125,
                    "velocity": 0.5196850393700787,
                },
                {
                    "duration": 0.8333319999999844,
                    "durationTicks": 256,
                    "midi": 32,
                    "name": "G#1",
                    "ticks": 48640,
                    "time": 158.33308,
                    "velocity": 0.3858267716535433,
                },
                {
                    "duration": 0.16601535937499534,
                    "durationTicks": 51,
                    "midi": 33,
                    "name": "A1",
                    "ticks": 48981,
                    "time": 159.44310426562498,
                    "velocity": 0.3858267716535433,
                },
                {
                    "duration": 0.16601535937499534,
                    "durationTicks": 51,
                    "midi": 45,
                    "name": "A2",
                    "ticks": 49066,
                    "time": 159.71979653124998,
                    "velocity": 0.4566929133858268,
                },
                {
                    "duration": 0.8333319999999844,
                    "durationTicks": 256,
                    "midi": 28,
                    "name": "E1",
                    "ticks": 49152,
                    "time": 159.999744,
                    "velocity": 0.3464566929133858,
                },
                {
                    "duration": 0.16601535937499534,
                    "durationTicks": 51,
                    "midi": 28,
                    "name": "E1",
                    "ticks": 49493,
                    "time": 161.10976826562498,
                    "velocity": 0.3464566929133858,
                },
                {
                    "duration": 0.16601535937499534,
                    "durationTicks": 51,
                    "midi": 40,
                    "name": "E2",
                    "ticks": 49578,
                    "time": 161.38646053124998,
                    "velocity": 0.4251968503937008,
                },
                {
                    "duration": 0.8333319999999844,
                    "durationTicks": 256,
                    "midi": 33,
                    "name": "A1",
                    "ticks": 49664,
                    "time": 161.666408,
                    "velocity": 0.3464566929133858,
                },
                {
                    "duration": 192.499692,
                    "durationTicks": 59136,
                    "midi": 28,
                    "name": "E1",
                    "ticks": 51200,
                    "time": 166.66639999999998,
                    "velocity": 0.3543307086614173,
                },
                {
                    "duration": 0.16601535937499534,
                    "durationTicks": 51,
                    "midi": 48,
                    "name": "C3",
                    "ticks": 74666,
                    "time": 243.05299653125,
                    "velocity": 0.7007874015748031,
                },
                {
                    "duration": 0.16601535937499534,
                    "durationTicks": 51,
                    "midi": 47,
                    "name": "B2",
                    "ticks": 74752,
                    "time": 243.332944,
                    "velocity": 0.7322834645669292,
                },
                {
                    "duration": 0.16601535937502376,
                    "durationTicks": 51,
                    "midi": 45,
                    "name": "A2",
                    "ticks": 74837,
                    "time": 243.60963626562497,
                    "velocity": 0.7165354330708661,
                },
                {
                    "duration": 0.16601535937502376,
                    "durationTicks": 51,
                    "midi": 43,
                    "name": "G2",
                    "ticks": 74922,
                    "time": 243.88632853124997,
                    "velocity": 0.6929133858267716,
                },
                {
                    "duration": 0.16601535937499534,
                    "durationTicks": 51,
                    "midi": 41,
                    "name": "F2",
                    "ticks": 75008,
                    "time": 244.16627599999998,
                    "velocity": 0.7480314960629921,
                },
                {
                    "duration": 0.16601535937499534,
                    "durationTicks": 51,
                    "midi": 40,
                    "name": "E2",
                    "ticks": 75093,
                    "time": 244.44296826562498,
                    "velocity": 0.7559055118110236,
                },
                {
                    "duration": 0.16601535937499534,
                    "durationTicks": 51,
                    "midi": 38,
                    "name": "D2",
                    "ticks": 75178,
                    "time": 244.71966053124999,
                    "velocity": 0.7559055118110236,
                },
                {
                    "duration": 0.16601535937499534,
                    "durationTicks": 51,
                    "midi": 36,
                    "name": "C2",
                    "ticks": 75264,
                    "time": 244.999608,
                    "velocity": 0.7716535433070866,
                },
                {
                    "duration": 0.16601535937499534,
                    "durationTicks": 51,
                    "midi": 35,
                    "name": "B1",
                    "ticks": 75349,
                    "time": 245.276300265625,
                    "velocity": 0.7559055118110236,
                },
                {
                    "duration": 0.16601535937502376,
                    "durationTicks": 51,
                    "midi": 33,
                    "name": "A1",
                    "ticks": 75434,
                    "time": 245.55299253124997,
                    "velocity": 0.84251968503937,
                },
                {
                    "duration": 0.24739543750001758,
                    "durationTicks": 76,
                    "midi": 32,
                    "name": "G#1",
                    "ticks": 75520,
                    "time": 245.83293999999998,
                    "velocity": 0.8582677165354331,
                },
                {
                    "duration": 0.24739543750001758,
                    "durationTicks": 76,
                    "midi": 32,
                    "name": "G#1",
                    "ticks": 75648,
                    "time": 246.24960599999997,
                    "velocity": 0.8740157480314961,
                },
                {
                    "duration": 0.8333319999999844,
                    "durationTicks": 256,
                    "midi": 45,
                    "name": "A2",
                    "ticks": 97280,
                    "time": 316.66616,
                    "velocity": 0.2992125984251969,
                },
                {
                    "duration": 0.24739543750001758,
                    "durationTicks": 76,
                    "midi": 45,
                    "name": "A2",
                    "ticks": 97536,
                    "time": 317.499492,
                    "velocity": 0.25196850393700787,
                },
                {
                    "duration": 0.24739543749996074,
                    "durationTicks": 76,
                    "midi": 47,
                    "name": "B2",
                    "ticks": 97664,
                    "time": 317.916158,
                    "velocity": 0.2755905511811024,
                },
                {
                    "duration": 0.49804607812501445,
                    "durationTicks": 153,
                    "midi": 48,
                    "name": "C3",
                    "ticks": 97792,
                    "time": 318.33282399999996,
                    "velocity": 0.25196850393700787,
                },
                {
                    "duration": 0.47200445312495276,
                    "durationTicks": 145,
                    "midi": 48,
                    "name": "C3",
                    "ticks": 98048,
                    "time": 319.166156,
                    "velocity": 0.28346456692913385,
                },
                {
                    "duration": 0.8333319999999844,
                    "durationTicks": 256,
                    "midi": 47,
                    "name": "B2",
                    "ticks": 98304,
                    "time": 319.999488,
                    "velocity": 0.2755905511811024,
                },
                {
                    "duration": 0.24739543750001758,
                    "durationTicks": 76,
                    "midi": 47,
                    "name": "B2",
                    "ticks": 98560,
                    "time": 320.83281999999997,
                    "velocity": 0.2677165354330709,
                },
                {
                    "duration": 0.24739543750001758,
                    "durationTicks": 76,
                    "midi": 49,
                    "name": "C#3",
                    "ticks": 98688,
                    "time": 321.249486,
                    "velocity": 0.29133858267716534,
                },
                {
                    "duration": 0.24739543750001758,
                    "durationTicks": 76,
                    "midi": 50,
                    "name": "D3",
                    "ticks": 98816,
                    "time": 321.66615199999995,
                    "velocity": 0.2992125984251969,
                },
                {
                    "duration": 0.24739543750001758,
                    "durationTicks": 76,
                    "midi": 48,
                    "name": "C3",
                    "ticks": 98944,
                    "time": 322.082818,
                    "velocity": 0.25196850393700787,
                },
                {
                    "duration": 0.24739543749996074,
                    "durationTicks": 76,
                    "midi": 47,
                    "name": "B2",
                    "ticks": 99072,
                    "time": 322.499484,
                    "velocity": 0.25984251968503935,
                },
                {
                    "duration": 0.24739543750001758,
                    "durationTicks": 76,
                    "midi": 45,
                    "name": "A2",
                    "ticks": 99200,
                    "time": 322.91614999999996,
                    "velocity": 0.2440944881889764,
                },
                {
                    "duration": 0.12369771875000879,
                    "durationTicks": 38,
                    "midi": 43,
                    "name": "G2",
                    "ticks": 99328,
                    "time": 323.332816,
                    "velocity": 0.28346456692913385,
                },
                {
                    "duration": 0.12369771875000879,
                    "durationTicks": 38,
                    "midi": 45,
                    "name": "A2",
                    "ticks": 99392,
                    "time": 323.54114899999996,
                    "velocity": 0.29133858267716534,
                },
                {
                    "duration": 0.12369771874995195,
                    "durationTicks": 38,
                    "midi": 47,
                    "name": "B2",
                    "ticks": 99456,
                    "time": 323.749482,
                    "velocity": 0.2992125984251969,
                },
                {
                    "duration": 0.12369771875000879,
                    "durationTicks": 38,
                    "midi": 45,
                    "name": "A2",
                    "ticks": 99520,
                    "time": 323.957815,
                    "velocity": 0.23622047244094488,
                },
                {
                    "duration": 0.12369771875000879,
                    "durationTicks": 38,
                    "midi": 43,
                    "name": "G2",
                    "ticks": 99584,
                    "time": 324.16614799999996,
                    "velocity": 0.2755905511811024,
                },
                {
                    "duration": 0.12369771874995195,
                    "durationTicks": 38,
                    "midi": 45,
                    "name": "A2",
                    "ticks": 99648,
                    "time": 324.374481,
                    "velocity": 0.31496062992125984,
                },
                {
                    "duration": 0.12369771875000879,
                    "durationTicks": 38,
                    "midi": 43,
                    "name": "G2",
                    "ticks": 99712,
                    "time": 324.582814,
                    "velocity": 0.2992125984251969,
                },
                {
                    "duration": 0.12369771875000879,
                    "durationTicks": 38,
                    "midi": 42,
                    "name": "F#2",
                    "ticks": 99776,
                    "time": 324.79114699999997,
                    "velocity": 0.25196850393700787,
                },
                {
                    "duration": 0.12369771874995195,
                    "durationTicks": 38,
                    "midi": 40,
                    "name": "E2",
                    "ticks": 99840,
                    "time": 324.99948,
                    "velocity": 0.28346456692913385,
                },
                {
                    "duration": 0.12369771875000879,
                    "durationTicks": 38,
                    "midi": 42,
                    "name": "F#2",
                    "ticks": 99904,
                    "time": 325.207813,
                    "velocity": 0.25196850393700787,
                },
                {
                    "duration": 0.12369771875000879,
                    "durationTicks": 38,
                    "midi": 43,
                    "name": "G2",
                    "ticks": 99968,
                    "time": 325.41614599999997,
                    "velocity": 0.2992125984251969,
                },
                {
                    "duration": 0.12369771874995195,
                    "durationTicks": 38,
                    "midi": 45,
                    "name": "A2",
                    "ticks": 100032,
                    "time": 325.624479,
                    "velocity": 0.29133858267716534,
                },
                {
                    "duration": 0.12369771875000879,
                    "durationTicks": 38,
                    "midi": 47,
                    "name": "B2",
                    "ticks": 100096,
                    "time": 325.832812,
                    "velocity": 0.2992125984251969,
                },
                {
                    "duration": 0.12369771875000879,
                    "durationTicks": 38,
                    "midi": 49,
                    "name": "C#3",
                    "ticks": 100160,
                    "time": 326.041145,
                    "velocity": 0.28346456692913385,
                },
                {
                    "duration": 0.12369771875000879,
                    "durationTicks": 38,
                    "midi": 51,
                    "name": "D#3",
                    "ticks": 100224,
                    "time": 326.24947799999995,
                    "velocity": 0.28346456692913385,
                },
                {
                    "duration": 0.12369771875000879,
                    "durationTicks": 38,
                    "midi": 52,
                    "name": "E3",
                    "ticks": 100288,
                    "time": 326.457811,
                    "velocity": 0.3228346456692913,
                },
                {
                    "duration": 0.12369771875000879,
                    "durationTicks": 38,
                    "midi": 52,
                    "name": "E3",
                    "ticks": 100352,
                    "time": 326.666144,
                    "velocity": 0.29133858267716534,
                },
                {
                    "duration": 0.12369771875000879,
                    "durationTicks": 38,
                    "midi": 45,
                    "name": "A2",
                    "ticks": 100416,
                    "time": 326.87447699999996,
                    "velocity": 0.2440944881889764,
                },
                {
                    "duration": 0.12369771875000879,
                    "durationTicks": 38,
                    "midi": 47,
                    "name": "B2",
                    "ticks": 100480,
                    "time": 327.08281,
                    "velocity": 0.2755905511811024,
                },
                {
                    "duration": 0.12369771875000879,
                    "durationTicks": 38,
                    "midi": 49,
                    "name": "C#3",
                    "ticks": 100544,
                    "time": 327.291143,
                    "velocity": 0.28346456692913385,
                },
                {
                    "duration": 0.12369771875000879,
                    "durationTicks": 38,
                    "midi": 50,
                    "name": "D3",
                    "ticks": 100608,
                    "time": 327.49947599999996,
                    "velocity": 0.3228346456692913,
                },
                {
                    "duration": 0.12369771875000879,
                    "durationTicks": 38,
                    "midi": 47,
                    "name": "B2",
                    "ticks": 100672,
                    "time": 327.707809,
                    "velocity": 0.25196850393700787,
                },
                {
                    "duration": 0.12369771875000879,
                    "durationTicks": 38,
                    "midi": 52,
                    "name": "E3",
                    "ticks": 100736,
                    "time": 327.916142,
                    "velocity": 0.28346456692913385,
                },
                {
                    "duration": 0.12369771875000879,
                    "durationTicks": 38,
                    "midi": 50,
                    "name": "D3",
                    "ticks": 100800,
                    "time": 328.12447499999996,
                    "velocity": 0.28346456692913385,
                },
                {
                    "duration": 0.12369771874995195,
                    "durationTicks": 38,
                    "midi": 48,
                    "name": "C3",
                    "ticks": 100864,
                    "time": 328.332808,
                    "velocity": 0.28346456692913385,
                },
                {
                    "duration": 0.12369771875000879,
                    "durationTicks": 38,
                    "midi": 47,
                    "name": "B2",
                    "ticks": 100928,
                    "time": 328.541141,
                    "velocity": 0.23622047244094488,
                },
                {
                    "duration": 0.12369771875000879,
                    "durationTicks": 38,
                    "midi": 48,
                    "name": "C3",
                    "ticks": 100992,
                    "time": 328.74947399999996,
                    "velocity": 0.28346456692913385,
                },
                {
                    "duration": 0.12369771874995195,
                    "durationTicks": 38,
                    "midi": 50,
                    "name": "D3",
                    "ticks": 101056,
                    "time": 328.957807,
                    "velocity": 0.29133858267716534,
                },
                {
                    "duration": 0.12369771875000879,
                    "durationTicks": 38,
                    "midi": 52,
                    "name": "E3",
                    "ticks": 101120,
                    "time": 329.16614,
                    "velocity": 0.2992125984251969,
                },
                {
                    "duration": 0.12369771875000879,
                    "durationTicks": 38,
                    "midi": 40,
                    "name": "E2",
                    "ticks": 101184,
                    "time": 329.37447299999997,
                    "velocity": 0.2283464566929134,
                },
                {
                    "duration": 0.12369771874995195,
                    "durationTicks": 38,
                    "midi": 42,
                    "name": "F#2",
                    "ticks": 101248,
                    "time": 329.582806,
                    "velocity": 0.28346456692913385,
                },
                {
                    "duration": 0.12369771875000879,
                    "durationTicks": 38,
                    "midi": 44,
                    "name": "G#2",
                    "ticks": 101312,
                    "time": 329.791139,
                    "velocity": 0.30708661417322836,
                },
                {
                    "duration": 0.24739543750001758,
                    "durationTicks": 76,
                    "midi": 45,
                    "name": "A2",
                    "ticks": 101376,
                    "time": 329.99947199999997,
                    "velocity": 0.25984251968503935,
                },
                {
                    "duration": 0.24739543750001758,
                    "durationTicks": 76,
                    "midi": 43,
                    "name": "G2",
                    "ticks": 101504,
                    "time": 330.416138,
                    "velocity": 0.25984251968503935,
                },
                {
                    "duration": 0.24739543750001758,
                    "durationTicks": 76,
                    "midi": 42,
                    "name": "F#2",
                    "ticks": 101632,
                    "time": 330.83280399999995,
                    "velocity": 0.29133858267716534,
                },
                {
                    "duration": 0.24739543750001758,
                    "durationTicks": 76,
                    "midi": 40,
                    "name": "E2",
                    "ticks": 101760,
                    "time": 331.24947,
                    "velocity": 0.2204724409448819,
                },
                {
                    "duration": 0.12369771875000879,
                    "durationTicks": 38,
                    "midi": 42,
                    "name": "F#2",
                    "ticks": 101888,
                    "time": 331.666136,
                    "velocity": 0.3464566929133858,
                },
                {
                    "duration": 0.12369771875000879,
                    "durationTicks": 38,
                    "midi": 42,
                    "name": "F#2",
                    "ticks": 101952,
                    "time": 331.874469,
                    "velocity": 0.29133858267716534,
                },
                {
                    "duration": 0.12369771875000879,
                    "durationTicks": 38,
                    "midi": 43,
                    "name": "G2",
                    "ticks": 102016,
                    "time": 332.08280199999996,
                    "velocity": 0.28346456692913385,
                },
                {
                    "duration": 0.12369771875000879,
                    "durationTicks": 38,
                    "midi": 45,
                    "name": "A2",
                    "ticks": 102080,
                    "time": 332.291135,
                    "velocity": 0.31496062992125984,
                },
                {
                    "duration": 0.12369771875000879,
                    "durationTicks": 38,
                    "midi": 38,
                    "name": "D2",
                    "ticks": 102144,
                    "time": 332.499468,
                    "velocity": 0.2204724409448819,
                },
                {
                    "duration": 0.12369771875000879,
                    "durationTicks": 38,
                    "midi": 38,
                    "name": "D2",
                    "ticks": 102208,
                    "time": 332.70780099999996,
                    "velocity": 0.2992125984251969,
                },
                {
                    "duration": 0.12369771874995195,
                    "durationTicks": 38,
                    "midi": 40,
                    "name": "E2",
                    "ticks": 102272,
                    "time": 332.916134,
                    "velocity": 0.30708661417322836,
                },
                {
                    "duration": 0.12369771875000879,
                    "durationTicks": 38,
                    "midi": 42,
                    "name": "F#2",
                    "ticks": 102336,
                    "time": 333.124467,
                    "velocity": 0.2755905511811024,
                },
                {
                    "duration": 0.24739543750001758,
                    "durationTicks": 76,
                    "midi": 43,
                    "name": "G2",
                    "ticks": 102400,
                    "time": 333.33279999999996,
                    "velocity": 0.2677165354330709,
                },
                {
                    "duration": 0.24739543750001758,
                    "durationTicks": 76,
                    "midi": 41,
                    "name": "F2",
                    "ticks": 102528,
                    "time": 333.749466,
                    "velocity": 0.25196850393700787,
                },
                {
                    "duration": 0.24739543749996074,
                    "durationTicks": 76,
                    "midi": 40,
                    "name": "E2",
                    "ticks": 102656,
                    "time": 334.166132,
                    "velocity": 0.2677165354330709,
                },
                {
                    "duration": 0.8333319999999844,
                    "durationTicks": 256,
                    "midi": 38,
                    "name": "D2",
                    "ticks": 102784,
                    "time": 334.58279799999997,
                    "velocity": 0.2677165354330709,
                },
                {
                    "duration": 0.8333320000000413,
                    "durationTicks": 256,
                    "midi": 36,
                    "name": "C2",
                    "ticks": 103040,
                    "time": 335.41612999999995,
                    "velocity": 0.2440944881889764,
                },
                {
                    "duration": 0.8333319999999844,
                    "durationTicks": 256,
                    "midi": 43,
                    "name": "G2",
                    "ticks": 103296,
                    "time": 336.249462,
                    "velocity": 0.31496062992125984,
                },
                {
                    "duration": 0.8333319999999844,
                    "durationTicks": 256,
                    "midi": 36,
                    "name": "C2",
                    "ticks": 103552,
                    "time": 337.082794,
                    "velocity": 0.25196850393700787,
                },
                {
                    "duration": 0.41666600000002063,
                    "durationTicks": 128,
                    "midi": 48,
                    "name": "C3",
                    "ticks": 103808,
                    "time": 337.91612599999996,
                    "velocity": 0.2992125984251969,
                },
                {
                    "duration": 0.8333319999999844,
                    "durationTicks": 256,
                    "midi": 50,
                    "name": "D3",
                    "ticks": 104960,
                    "time": 341.66612,
                    "velocity": 0.29133858267716534,
                },
                {
                    "duration": 0.24739543750001758,
                    "durationTicks": 76,
                    "midi": 50,
                    "name": "D3",
                    "ticks": 105216,
                    "time": 342.49945199999996,
                    "velocity": 0.25984251968503935,
                },
                {
                    "duration": 0.24739543750001758,
                    "durationTicks": 76,
                    "midi": 52,
                    "name": "E3",
                    "ticks": 105344,
                    "time": 342.916118,
                    "velocity": 0.30708661417322836,
                },
                {
                    "duration": 0.4980460781249576,
                    "durationTicks": 153,
                    "midi": 53,
                    "name": "F3",
                    "ticks": 105472,
                    "time": 343.332784,
                    "velocity": 0.2755905511811024,
                },
                {
                    "duration": 0.4720044531250096,
                    "durationTicks": 145,
                    "midi": 53,
                    "name": "F3",
                    "ticks": 105728,
                    "time": 344.166116,
                    "velocity": 0.33070866141732286,
                },
                {
                    "duration": 0.12369771875000879,
                    "durationTicks": 38,
                    "midi": 41,
                    "name": "F2",
                    "ticks": 105984,
                    "time": 344.999448,
                    "velocity": 0.2677165354330709,
                },
                {
                    "duration": 0.12369771875000879,
                    "durationTicks": 38,
                    "midi": 40,
                    "name": "E2",
                    "ticks": 106048,
                    "time": 345.20778099999995,
                    "velocity": 0.25196850393700787,
                },
                {
                    "duration": 0.12369771875000879,
                    "durationTicks": 38,
                    "midi": 43,
                    "name": "G2",
                    "ticks": 106112,
                    "time": 345.416114,
                    "velocity": 0.28346456692913385,
                },
                {
                    "duration": 0.12369771875000879,
                    "durationTicks": 38,
                    "midi": 41,
                    "name": "F2",
                    "ticks": 106176,
                    "time": 345.624447,
                    "velocity": 0.2992125984251969,
                },
                {
                    "duration": 0.12369771875000879,
                    "durationTicks": 38,
                    "midi": 40,
                    "name": "E2",
                    "ticks": 106240,
                    "time": 345.83277999999996,
                    "velocity": 0.28346456692913385,
                },
                {
                    "duration": 0.12369771875000879,
                    "durationTicks": 38,
                    "midi": 43,
                    "name": "G2",
                    "ticks": 106304,
                    "time": 346.041113,
                    "velocity": 0.2755905511811024,
                },
                {
                    "duration": 0.12369771875000879,
                    "durationTicks": 38,
                    "midi": 41,
                    "name": "F2",
                    "ticks": 106368,
                    "time": 346.249446,
                    "velocity": 0.25196850393700787,
                },
                {
                    "duration": 0.12369771875000879,
                    "durationTicks": 38,
                    "midi": 40,
                    "name": "E2",
                    "ticks": 106432,
                    "time": 346.45777899999996,
                    "velocity": 0.28346456692913385,
                },
                {
                    "duration": 0.12369771875000879,
                    "durationTicks": 38,
                    "midi": 38,
                    "name": "D2",
                    "ticks": 106496,
                    "time": 346.666112,
                    "velocity": 0.2440944881889764,
                },
                {
                    "duration": 0.12369771875000879,
                    "durationTicks": 38,
                    "midi": 40,
                    "name": "E2",
                    "ticks": 106560,
                    "time": 346.874445,
                    "velocity": 0.3228346456692913,
                },
                {
                    "duration": 0.12369771875000879,
                    "durationTicks": 38,
                    "midi": 41,
                    "name": "F2",
                    "ticks": 106624,
                    "time": 347.08277799999996,
                    "velocity": 0.31496062992125984,
                },
                {
                    "duration": 0.12369771874995195,
                    "durationTicks": 38,
                    "midi": 43,
                    "name": "G2",
                    "ticks": 106688,
                    "time": 347.291111,
                    "velocity": 0.30708661417322836,
                },
                {
                    "duration": 0.12369771875000879,
                    "durationTicks": 38,
                    "midi": 45,
                    "name": "A2",
                    "ticks": 106752,
                    "time": 347.499444,
                    "velocity": 0.28346456692913385,
                },
                {
                    "duration": 0.12369771875000879,
                    "durationTicks": 38,
                    "midi": 47,
                    "name": "B2",
                    "ticks": 106816,
                    "time": 347.70777699999996,
                    "velocity": 0.2755905511811024,
                },
                {
                    "duration": 0.12369771874995195,
                    "durationTicks": 38,
                    "midi": 49,
                    "name": "C#3",
                    "ticks": 106880,
                    "time": 347.91611,
                    "velocity": 0.2677165354330709,
                },
                {
                    "duration": 0.12369771875000879,
                    "durationTicks": 38,
                    "midi": 50,
                    "name": "D3",
                    "ticks": 106944,
                    "time": 348.124443,
                    "velocity": 0.29133858267716534,
                },
                {
                    "duration": 0.12369771875000879,
                    "durationTicks": 38,
                    "midi": 50,
                    "name": "D3",
                    "ticks": 107008,
                    "time": 348.33277599999997,
                    "velocity": 0.31496062992125984,
                },
                {
                    "duration": 0.12369771874995195,
                    "durationTicks": 38,
                    "midi": 38,
                    "name": "D2",
                    "ticks": 107072,
                    "time": 348.541109,
                    "velocity": 0.25196850393700787,
                },
                {
                    "duration": 0.12369771875000879,
                    "durationTicks": 38,
                    "midi": 38,
                    "name": "D2",
                    "ticks": 107136,
                    "time": 348.749442,
                    "velocity": 0.30708661417322836,
                },
                {
                    "duration": 0.12369771875000879,
                    "durationTicks": 38,
                    "midi": 38,
                    "name": "D2",
                    "ticks": 107200,
                    "time": 348.95777499999997,
                    "velocity": 0.29133858267716534,
                },
                {
                    "duration": 0.12369771875000879,
                    "durationTicks": 38,
                    "midi": 38,
                    "name": "D2",
                    "ticks": 107264,
                    "time": 349.16610799999995,
                    "velocity": 0.3543307086614173,
                },
                {
                    "duration": 0.12369771875000879,
                    "durationTicks": 38,
                    "midi": 38,
                    "name": "D2",
                    "ticks": 107328,
                    "time": 349.374441,
                    "velocity": 0.3543307086614173,
                },
                {
                    "duration": 0.12369771875000879,
                    "durationTicks": 38,
                    "midi": 38,
                    "name": "D2",
                    "ticks": 107392,
                    "time": 349.582774,
                    "velocity": 0.4251968503937008,
                },
                {
                    "duration": 0.12369771875000879,
                    "durationTicks": 38,
                    "midi": 38,
                    "name": "D2",
                    "ticks": 107456,
                    "time": 349.79110699999995,
                    "velocity": 0.41732283464566927,
                },
                {
                    "duration": 0.12369771875000879,
                    "durationTicks": 38,
                    "midi": 38,
                    "name": "D2",
                    "ticks": 107520,
                    "time": 349.99944,
                    "velocity": 0.3937007874015748,
                },
                {
                    "duration": 0.12369771875000879,
                    "durationTicks": 38,
                    "midi": 38,
                    "name": "D2",
                    "ticks": 107584,
                    "time": 350.207773,
                    "velocity": 0.4251968503937008,
                },
                {
                    "duration": 0.12369771875000879,
                    "durationTicks": 38,
                    "midi": 38,
                    "name": "D2",
                    "ticks": 107648,
                    "time": 350.41610599999996,
                    "velocity": 0.4645669291338583,
                },
                {
                    "duration": 0.12369771875000879,
                    "durationTicks": 38,
                    "midi": 38,
                    "name": "D2",
                    "ticks": 107712,
                    "time": 350.624439,
                    "velocity": 0.4881889763779528,
                },
                {
                    "duration": 0.12369771875000879,
                    "durationTicks": 38,
                    "midi": 38,
                    "name": "D2",
                    "ticks": 107776,
                    "time": 350.832772,
                    "velocity": 0.4645669291338583,
                },
                {
                    "duration": 0.12369771875000879,
                    "durationTicks": 38,
                    "midi": 38,
                    "name": "D2",
                    "ticks": 107840,
                    "time": 351.04110499999996,
                    "velocity": 0.5275590551181102,
                },
                {
                    "duration": 0.12369771875000879,
                    "durationTicks": 38,
                    "midi": 38,
                    "name": "D2",
                    "ticks": 107904,
                    "time": 351.249438,
                    "velocity": 0.5118110236220472,
                },
                {
                    "duration": 0.12369771875000879,
                    "durationTicks": 38,
                    "midi": 38,
                    "name": "D2",
                    "ticks": 107968,
                    "time": 351.457771,
                    "velocity": 0.5669291338582677,
                },
                {
                    "duration": 0.12369771875000879,
                    "durationTicks": 38,
                    "midi": 38,
                    "name": "D2",
                    "ticks": 108032,
                    "time": 351.66610399999996,
                    "velocity": 0.5905511811023622,
                },
                {
                    "duration": 0.12369771874995195,
                    "durationTicks": 38,
                    "midi": 38,
                    "name": "D2",
                    "ticks": 108096,
                    "time": 351.874437,
                    "velocity": 0.6062992125984252,
                },
                {
                    "duration": 0.12369771875000879,
                    "durationTicks": 38,
                    "midi": 38,
                    "name": "D2",
                    "ticks": 108160,
                    "time": 352.08277,
                    "velocity": 0.6062992125984252,
                },
                {
                    "duration": 0.12369771875000879,
                    "durationTicks": 38,
                    "midi": 38,
                    "name": "D2",
                    "ticks": 108224,
                    "time": 352.29110299999996,
                    "velocity": 0.6220472440944882,
                },
                {
                    "duration": 0.12369771874995195,
                    "durationTicks": 38,
                    "midi": 38,
                    "name": "D2",
                    "ticks": 108288,
                    "time": 352.499436,
                    "velocity": 0.6771653543307087,
                },
                {
                    "duration": 0.12369771875000879,
                    "durationTicks": 38,
                    "midi": 38,
                    "name": "D2",
                    "ticks": 108352,
                    "time": 352.707769,
                    "velocity": 0.6929133858267716,
                },
                {
                    "duration": 0.12369771875000879,
                    "durationTicks": 38,
                    "midi": 38,
                    "name": "D2",
                    "ticks": 108416,
                    "time": 352.91610199999997,
                    "velocity": 0.7244094488188977,
                },
                {
                    "duration": 0.12369771874995195,
                    "durationTicks": 38,
                    "midi": 38,
                    "name": "D2",
                    "ticks": 108480,
                    "time": 353.124435,
                    "velocity": 0.7165354330708661,
                },
                {
                    "duration": 0.12369771875000879,
                    "durationTicks": 38,
                    "midi": 38,
                    "name": "D2",
                    "ticks": 108544,
                    "time": 353.332768,
                    "velocity": 0.7559055118110236,
                },
                {
                    "duration": 0.12369771875000879,
                    "durationTicks": 38,
                    "midi": 38,
                    "name": "D2",
                    "ticks": 108608,
                    "time": 353.54110099999997,
                    "velocity": 0.7559055118110236,
                },
                {
                    "duration": 0.12369771875000879,
                    "durationTicks": 38,
                    "midi": 38,
                    "name": "D2",
                    "ticks": 108672,
                    "time": 353.74943399999995,
                    "velocity": 0.7795275590551181,
                },
                {
                    "duration": 0.12369771875000879,
                    "durationTicks": 38,
                    "midi": 38,
                    "name": "D2",
                    "ticks": 108736,
                    "time": 353.957767,
                    "velocity": 0.8031496062992126,
                },
                {
                    "duration": 0.12369771875000879,
                    "durationTicks": 38,
                    "midi": 38,
                    "name": "D2",
                    "ticks": 108800,
                    "time": 354.1661,
                    "velocity": 0.8188976377952756,
                },
                {
                    "duration": 0.12369771875000879,
                    "durationTicks": 38,
                    "midi": 38,
                    "name": "D2",
                    "ticks": 108864,
                    "time": 354.37443299999995,
                    "velocity": 0.8503937007874016,
                },
                {
                    "duration": 0.12369771875000879,
                    "durationTicks": 38,
                    "midi": 36,
                    "name": "C2",
                    "ticks": 108928,
                    "time": 354.582766,
                    "velocity": 0.8267716535433071,
                },
                {
                    "duration": 0.12369771875000879,
                    "durationTicks": 38,
                    "midi": 35,
                    "name": "B1",
                    "ticks": 108992,
                    "time": 354.791099,
                    "velocity": 0.8582677165354331,
                },
                {
                    "duration": 0.8333320000000413,
                    "durationTicks": 256,
                    "midi": 33,
                    "name": "A1",
                    "ticks": 109056,
                    "time": 354.99943199999996,
                    "velocity": 0.8661417322834646,
                },
                {
                    "duration": 0.24739543749996074,
                    "durationTicks": 76,
                    "midi": 33,
                    "name": "A1",
                    "ticks": 109312,
                    "time": 355.832764,
                    "velocity": 0.889763779527559,
                },
                {
                    "duration": 0.24739543750001758,
                    "durationTicks": 76,
                    "midi": 33,
                    "name": "A1",
                    "ticks": 109440,
                    "time": 356.24942999999996,
                    "velocity": 0.8818897637795275,
                },
                {
                    "duration": 0.49804607812501445,
                    "durationTicks": 153,
                    "midi": 32,
                    "name": "G#1",
                    "ticks": 109568,
                    "time": 356.666096,
                    "velocity": 0.8503937007874016,
                },
                {
                    "duration": 0.4720044531250096,
                    "durationTicks": 145,
                    "midi": 32,
                    "name": "G#1",
                    "ticks": 109824,
                    "time": 357.49942799999997,
                    "velocity": 0.8740157480314961,
                },
                {
                    "duration": 1.080727437500002,
                    "durationTicks": 332,
                    "midi": 28,
                    "name": "E1",
                    "ticks": 110080,
                    "time": 358.33275999999995,
                    "velocity": 0.8503937007874016,
                },
                {
                    "duration": 0.6640614374999814,
                    "durationTicks": 204,
                    "midi": 28,
                    "name": "E1",
                    "ticks": 110336,
                    "time": 359.166092,
                    "velocity": 0.8661417322834646,
                },
                {
                    "duration": 6.249990000000025,
                    "durationTicks": 1920,
                    "midi": 28,
                    "name": "E1",
                    "ticks": 110464,
                    "time": 359.58275799999996,
                    "velocity": 0.905511811023622,
                },
                {
                    "duration": 0.49804607812501445,
                    "durationTicks": 153,
                    "midi": 33,
                    "name": "A1",
                    "ticks": 110592,
                    "time": 359.999424,
                    "velocity": 0.9291338582677166,
                },
                {
                    "duration": 0.4720044531250096,
                    "durationTicks": 145,
                    "midi": 33,
                    "name": "A1",
                    "ticks": 110848,
                    "time": 360.83275599999996,
                    "velocity": 0.889763779527559,
                },
                {
                    "duration": 0.8333319999999844,
                    "durationTicks": 256,
                    "midi": 33,
                    "name": "A1",
                    "ticks": 111104,
                    "time": 361.666088,
                    "velocity": 0.889763779527559,
                },
                {
                    "duration": 0.24739543750001758,
                    "durationTicks": 76,
                    "midi": 33,
                    "name": "A1",
                    "ticks": 111360,
                    "time": 362.49942,
                    "velocity": 0.8661417322834646,
                },
                {
                    "duration": 0.24739543750001758,
                    "durationTicks": 76,
                    "midi": 33,
                    "name": "A1",
                    "ticks": 111488,
                    "time": 362.91608599999995,
                    "velocity": 0.8976377952755905,
                },
                {
                    "duration": 0.5078116875000092,
                    "durationTicks": 156,
                    "midi": 32,
                    "name": "G#1",
                    "ticks": 111616,
                    "time": 363.33275199999997,
                    "velocity": 0.8582677165354331,
                },
                {
                    "duration": 0.4720044531250096,
                    "durationTicks": 145,
                    "midi": 33,
                    "name": "A1",
                    "ticks": 111872,
                    "time": 364.16608399999996,
                    "velocity": 0.937007874015748,
                },
                {
                    "duration": 0.24739543750001758,
                    "durationTicks": 76,
                    "midi": 40,
                    "name": "E2",
                    "ticks": 112384,
                    "time": 365.832748,
                    "velocity": 1,
                },
                {
                    "duration": 0.24739543749996074,
                    "durationTicks": 76,
                    "midi": 40,
                    "name": "E2",
                    "ticks": 112512,
                    "time": 366.249414,
                    "velocity": 0.8976377952755905,
                },
                {
                    "duration": 0.8333319999999844,
                    "durationTicks": 256,
                    "midi": 33,
                    "name": "A1",
                    "ticks": 112640,
                    "time": 366.66607999999997,
                    "velocity": 0.8031496062992126,
                },
                {
                    "duration": 1.699216031249989,
                    "durationTicks": 522,
                    "midi": 45,
                    "name": "A2",
                    "ticks": 123904,
                    "time": 403.33268799999996,
                    "velocity": 0.2440944881889764,
                },
                {
                    "duration": 1.699216031249989,
                    "durationTicks": 522,
                    "midi": 41,
                    "name": "F2",
                    "ticks": 124416,
                    "time": 404.999352,
                    "velocity": 0.1968503937007874,
                },
                {
                    "duration": 1.699216031250046,
                    "durationTicks": 522,
                    "midi": 40,
                    "name": "E2",
                    "ticks": 124928,
                    "time": 406.66601599999996,
                    "velocity": 0.2677165354330709,
                },
                {
                    "duration": 1.5820287187499957,
                    "durationTicks": 486,
                    "midi": 38,
                    "name": "D2",
                    "ticks": 125440,
                    "time": 408.33268,
                    "velocity": 0.2755905511811024,
                },
                {
                    "duration": 0.41666600000002063,
                    "durationTicks": 128,
                    "midi": 31,
                    "name": "G1",
                    "ticks": 125952,
                    "time": 409.99934399999995,
                    "velocity": 0.7952755905511811,
                },
                {
                    "duration": 0.4166659999999638,
                    "durationTicks": 128,
                    "midi": 43,
                    "name": "G2",
                    "ticks": 126208,
                    "time": 410.832676,
                    "velocity": 0.7795275590551181,
                },
                {
                    "duration": 0.8333319999999844,
                    "durationTicks": 256,
                    "midi": 36,
                    "name": "C2",
                    "ticks": 126464,
                    "time": 411.666008,
                    "velocity": 0.7874015748031497,
                },
                {
                    "duration": 0.8333319999999844,
                    "durationTicks": 256,
                    "midi": 40,
                    "name": "E2",
                    "ticks": 126976,
                    "time": 413.332672,
                    "velocity": 0.31496062992125984,
                },
                {
                    "duration": 0.24739543749996074,
                    "durationTicks": 76,
                    "midi": 40,
                    "name": "E2",
                    "ticks": 127232,
                    "time": 414.166004,
                    "velocity": 0.4094488188976378,
                },
                {
                    "duration": 0.24739543750001758,
                    "durationTicks": 76,
                    "midi": 40,
                    "name": "E2",
                    "ticks": 127360,
                    "time": 414.58266999999995,
                    "velocity": 0.3543307086614173,
                },
                {
                    "duration": 0.41666600000002063,
                    "durationTicks": 128,
                    "midi": 33,
                    "name": "A1",
                    "ticks": 127488,
                    "time": 414.99933599999997,
                    "velocity": 0.33858267716535434,
                },
                {
                    "duration": 0.4166659999999638,
                    "durationTicks": 128,
                    "midi": 31,
                    "name": "G1",
                    "ticks": 128000,
                    "time": 416.666,
                    "velocity": 0.7952755905511811,
                },
                {
                    "duration": 0.41666600000002063,
                    "durationTicks": 128,
                    "midi": 43,
                    "name": "G2",
                    "ticks": 128256,
                    "time": 417.499332,
                    "velocity": 0.8031496062992126,
                },
                {
                    "duration": 0.8333319999999844,
                    "durationTicks": 256,
                    "midi": 36,
                    "name": "C2",
                    "ticks": 128512,
                    "time": 418.33266399999997,
                    "velocity": 0.7637795275590551,
                },
                {
                    "duration": 0.8333319999999844,
                    "durationTicks": 256,
                    "midi": 40,
                    "name": "E2",
                    "ticks": 129024,
                    "time": 419.999328,
                    "velocity": 0.3464566929133858,
                },
                {
                    "duration": 0.24739543750001758,
                    "durationTicks": 76,
                    "midi": 40,
                    "name": "E2",
                    "ticks": 129280,
                    "time": 420.83266,
                    "velocity": 0.36220472440944884,
                },
                {
                    "duration": 0.24739543749996074,
                    "durationTicks": 76,
                    "midi": 40,
                    "name": "E2",
                    "ticks": 129408,
                    "time": 421.249326,
                    "velocity": 0.3779527559055118,
                },
                {
                    "duration": 0.967739999999992,
                    "durationTicks": 256,
                    "midi": 33,
                    "name": "A1",
                    "ticks": 140800,
                    "time": 458.33259999999996,
                    "velocity": 0.6614173228346457,
                },
            ],
            "endOfTrackTicks": 141057,
        },
        {
            "channel": 11,
            "controlChanges": {
                "7": [
                    {
                        "number": 7,
                        "ticks": 51293,
                        "time": 166.969133890625,
                        "value": 0.6614173228346457,
                    },
                    {
                        "number": 7,
                        "ticks": 76288,
                        "time": 248.332936,
                        "value": 0.6614173228346457,
                    },
                    {
                        "number": 7,
                        "ticks": 114176,
                        "time": 371.666072,
                        "value": 0.6614173228346457,
                    },
                    {
                        "number": 7,
                        "ticks": 130304,
                        "time": 424.16598799999997,
                        "value": 0.6614173228346457,
                    },
                ],
                "10": [
                    {
                        "number": 10,
                        "ticks": 51293,
                        "time": 166.969133890625,
                        "value": 0.8267716535433071,
                    },
                    {
                        "number": 10,
                        "ticks": 76288,
                        "time": 248.332936,
                        "value": 0.8267716535433071,
                    },
                    {
                        "number": 10,
                        "ticks": 114176,
                        "time": 371.666072,
                        "value": 0.8267716535433071,
                    },
                    {
                        "number": 10,
                        "ticks": 130304,
                        "time": 424.16598799999997,
                        "value": 0.8267716535433071,
                    },
                ],
                "91": [
                    {
                        "number": 91,
                        "ticks": 51293,
                        "time": 166.969133890625,
                        "value": 0.4645669291338583,
                    },
                    {
                        "number": 91,
                        "ticks": 76288,
                        "time": 248.332936,
                        "value": 0.4645669291338583,
                    },
                    {
                        "number": 91,
                        "ticks": 114176,
                        "time": 371.666072,
                        "value": 0.4645669291338583,
                    },
                    {
                        "number": 91,
                        "ticks": 130304,
                        "time": 424.16598799999997,
                        "value": 0.4645669291338583,
                    },
                ],
            },
            "pitchBends": [],
            "instrument": {
                "family": "strings",
                "number": 45,
                "name": "pizzicato strings",
            },
            "name": "",
            "notes": [
                {
                    "duration": 0.4166659999999922,
                    "durationTicks": 128,
                    "midi": 30,
                    "name": "F#1",
                    "ticks": 51456,
                    "time": 167.499732,
                    "velocity": 0.3858267716535433,
                },
                {
                    "duration": 0.4166659999999922,
                    "durationTicks": 128,
                    "midi": 32,
                    "name": "G#1",
                    "ticks": 51584,
                    "time": 167.916398,
                    "velocity": 0.3779527559055118,
                },
                {
                    "duration": 0.8333320000000128,
                    "durationTicks": 256,
                    "midi": 33,
                    "name": "A1",
                    "ticks": 51712,
                    "time": 168.33306399999998,
                    "velocity": 0.3858267716535433,
                },
                {
                    "duration": 0.4166659999999922,
                    "durationTicks": 128,
                    "midi": 45,
                    "name": "A2",
                    "ticks": 51968,
                    "time": 169.166396,
                    "velocity": 0.3937007874015748,
                },
                {
                    "duration": 0.4166659999999922,
                    "durationTicks": 128,
                    "midi": 45,
                    "name": "A2",
                    "ticks": 52096,
                    "time": 169.58306199999998,
                    "velocity": 0.4015748031496063,
                },
                {
                    "duration": 0.8333320000000128,
                    "durationTicks": 256,
                    "midi": 33,
                    "name": "A1",
                    "ticks": 52224,
                    "time": 169.99972799999998,
                    "velocity": 0.30708661417322836,
                },
                {
                    "duration": 0.4166659999999922,
                    "durationTicks": 128,
                    "midi": 45,
                    "name": "A2",
                    "ticks": 52480,
                    "time": 170.83306,
                    "velocity": 0.4566929133858268,
                },
                {
                    "duration": 0.4166659999999922,
                    "durationTicks": 128,
                    "midi": 45,
                    "name": "A2",
                    "ticks": 52608,
                    "time": 171.24972599999998,
                    "velocity": 0.3700787401574803,
                },
                {
                    "duration": 0.8333320000000128,
                    "durationTicks": 256,
                    "midi": 33,
                    "name": "A1",
                    "ticks": 52736,
                    "time": 171.66639199999997,
                    "velocity": 0.3464566929133858,
                },
                {
                    "duration": 0.4166659999999922,
                    "durationTicks": 128,
                    "midi": 45,
                    "name": "A2",
                    "ticks": 52992,
                    "time": 172.499724,
                    "velocity": 0.4015748031496063,
                },
                {
                    "duration": 0.41666600000002063,
                    "durationTicks": 128,
                    "midi": 45,
                    "name": "A2",
                    "ticks": 53120,
                    "time": 172.91638999999998,
                    "velocity": 0.3858267716535433,
                },
                {
                    "duration": 0.8333319999999844,
                    "durationTicks": 256,
                    "midi": 33,
                    "name": "A1",
                    "ticks": 53248,
                    "time": 173.333056,
                    "velocity": 0.36220472440944884,
                },
                {
                    "duration": 0.4166659999999922,
                    "durationTicks": 128,
                    "midi": 45,
                    "name": "A2",
                    "ticks": 53504,
                    "time": 174.16638799999998,
                    "velocity": 0.5118110236220472,
                },
                {
                    "duration": 0.41666600000002063,
                    "durationTicks": 128,
                    "midi": 45,
                    "name": "A2",
                    "ticks": 53632,
                    "time": 174.58305399999998,
                    "velocity": 0.49606299212598426,
                },
                {
                    "duration": 0.8333319999999844,
                    "durationTicks": 256,
                    "midi": 33,
                    "name": "A1",
                    "ticks": 53760,
                    "time": 174.99972,
                    "velocity": 0.4330708661417323,
                },
                {
                    "duration": 0.4166659999999922,
                    "durationTicks": 128,
                    "midi": 45,
                    "name": "A2",
                    "ticks": 54016,
                    "time": 175.83305199999998,
                    "velocity": 0.6062992125984252,
                },
                {
                    "duration": 0.41666600000002063,
                    "durationTicks": 128,
                    "midi": 45,
                    "name": "A2",
                    "ticks": 54144,
                    "time": 176.24971799999997,
                    "velocity": 0.5590551181102362,
                },
                {
                    "duration": 0.8333319999999844,
                    "durationTicks": 256,
                    "midi": 33,
                    "name": "A1",
                    "ticks": 54272,
                    "time": 176.666384,
                    "velocity": 0.4566929133858268,
                },
                {
                    "duration": 0.41666600000002063,
                    "durationTicks": 128,
                    "midi": 45,
                    "name": "A2",
                    "ticks": 54528,
                    "time": 177.49971599999998,
                    "velocity": 0.6850393700787402,
                },
                {
                    "duration": 0.4166659999999922,
                    "durationTicks": 128,
                    "midi": 45,
                    "name": "A2",
                    "ticks": 54656,
                    "time": 177.916382,
                    "velocity": 0.6299212598425197,
                },
                {
                    "duration": 0.8333319999999844,
                    "durationTicks": 256,
                    "midi": 33,
                    "name": "A1",
                    "ticks": 54784,
                    "time": 178.333048,
                    "velocity": 0.5354330708661418,
                },
                {
                    "duration": 0.41666600000002063,
                    "durationTicks": 128,
                    "midi": 45,
                    "name": "A2",
                    "ticks": 55040,
                    "time": 179.16637999999998,
                    "velocity": 0.6062992125984252,
                },
                {
                    "duration": 0.4166659999999922,
                    "durationTicks": 128,
                    "midi": 45,
                    "name": "A2",
                    "ticks": 55168,
                    "time": 179.583046,
                    "velocity": 0.5039370078740157,
                },
                {
                    "duration": 0.8333319999999844,
                    "durationTicks": 256,
                    "midi": 33,
                    "name": "A1",
                    "ticks": 55296,
                    "time": 179.999712,
                    "velocity": 0.44881889763779526,
                },
                {
                    "duration": 0.41666600000002063,
                    "durationTicks": 128,
                    "midi": 45,
                    "name": "A2",
                    "ticks": 55552,
                    "time": 180.83304399999997,
                    "velocity": 0.49606299212598426,
                },
                {
                    "duration": 0.4166659999999922,
                    "durationTicks": 128,
                    "midi": 45,
                    "name": "A2",
                    "ticks": 55680,
                    "time": 181.24971,
                    "velocity": 0.4015748031496063,
                },
                {
                    "duration": 0.8333320000000128,
                    "durationTicks": 256,
                    "midi": 33,
                    "name": "A1",
                    "ticks": 55808,
                    "time": 181.66637599999999,
                    "velocity": 0.33070866141732286,
                },
                {
                    "duration": 0.4166659999999922,
                    "durationTicks": 128,
                    "midi": 45,
                    "name": "A2",
                    "ticks": 56064,
                    "time": 182.499708,
                    "velocity": 0.47244094488188976,
                },
                {
                    "duration": 0.4166659999999922,
                    "durationTicks": 128,
                    "midi": 45,
                    "name": "A2",
                    "ticks": 56192,
                    "time": 182.916374,
                    "velocity": 0.3700787401574803,
                },
                {
                    "duration": 0.8333320000000128,
                    "durationTicks": 256,
                    "midi": 33,
                    "name": "A1",
                    "ticks": 56320,
                    "time": 183.33303999999998,
                    "velocity": 0.3779527559055118,
                },
                {
                    "duration": 0.4166659999999922,
                    "durationTicks": 128,
                    "midi": 45,
                    "name": "A2",
                    "ticks": 56576,
                    "time": 184.166372,
                    "velocity": 0.5275590551181102,
                },
                {
                    "duration": 0.4166659999999922,
                    "durationTicks": 128,
                    "midi": 45,
                    "name": "A2",
                    "ticks": 56704,
                    "time": 184.583038,
                    "velocity": 0.4645669291338583,
                },
                {
                    "duration": 0.8333320000000128,
                    "durationTicks": 256,
                    "midi": 33,
                    "name": "A1",
                    "ticks": 56832,
                    "time": 184.99970399999998,
                    "velocity": 0.4330708661417323,
                },
                {
                    "duration": 0.4166659999999922,
                    "durationTicks": 128,
                    "midi": 45,
                    "name": "A2",
                    "ticks": 57088,
                    "time": 185.833036,
                    "velocity": 0.5748031496062992,
                },
                {
                    "duration": 0.4166659999999922,
                    "durationTicks": 128,
                    "midi": 45,
                    "name": "A2",
                    "ticks": 57216,
                    "time": 186.24970199999998,
                    "velocity": 0.5511811023622047,
                },
                {
                    "duration": 0.8333320000000128,
                    "durationTicks": 256,
                    "midi": 33,
                    "name": "A1",
                    "ticks": 57344,
                    "time": 186.66636799999998,
                    "velocity": 0.5433070866141733,
                },
                {
                    "duration": 0.4166659999999922,
                    "durationTicks": 128,
                    "midi": 45,
                    "name": "A2",
                    "ticks": 57600,
                    "time": 187.4997,
                    "velocity": 0.6771653543307087,
                },
                {
                    "duration": 0.4166659999999922,
                    "durationTicks": 128,
                    "midi": 45,
                    "name": "A2",
                    "ticks": 57728,
                    "time": 187.91636599999998,
                    "velocity": 0.6141732283464567,
                },
                {
                    "duration": 0.41666600000002063,
                    "durationTicks": 128,
                    "midi": 30,
                    "name": "F#1",
                    "ticks": 57856,
                    "time": 188.33303199999997,
                    "velocity": 0.4094488188976378,
                },
                {
                    "duration": 0.4166659999999922,
                    "durationTicks": 128,
                    "midi": 32,
                    "name": "G#1",
                    "ticks": 57984,
                    "time": 188.749698,
                    "velocity": 0.4881889763779528,
                },
                {
                    "duration": 0.4166659999999922,
                    "durationTicks": 128,
                    "midi": 33,
                    "name": "A1",
                    "ticks": 58112,
                    "time": 189.166364,
                    "velocity": 0.49606299212598426,
                },
                {
                    "duration": 0.4166659999999922,
                    "durationTicks": 128,
                    "midi": 33,
                    "name": "A1",
                    "ticks": 58240,
                    "time": 189.58302999999998,
                    "velocity": 0.4409448818897638,
                },
                {
                    "duration": 0.8333320000000128,
                    "durationTicks": 256,
                    "midi": 35,
                    "name": "B1",
                    "ticks": 58368,
                    "time": 189.99969599999997,
                    "velocity": 0.4566929133858268,
                },
                {
                    "duration": 0.4166659999999922,
                    "durationTicks": 128,
                    "midi": 47,
                    "name": "B2",
                    "ticks": 58624,
                    "time": 190.83302799999998,
                    "velocity": 0.44881889763779526,
                },
                {
                    "duration": 0.41666600000002063,
                    "durationTicks": 128,
                    "midi": 47,
                    "name": "B2",
                    "ticks": 58752,
                    "time": 191.24969399999998,
                    "velocity": 0.4330708661417323,
                },
                {
                    "duration": 0.8333319999999844,
                    "durationTicks": 256,
                    "midi": 40,
                    "name": "E2",
                    "ticks": 58880,
                    "time": 191.66636,
                    "velocity": 0.3779527559055118,
                },
                {
                    "duration": 0.4166659999999922,
                    "durationTicks": 128,
                    "midi": 52,
                    "name": "E3",
                    "ticks": 59136,
                    "time": 192.49969199999998,
                    "velocity": 0.2992125984251969,
                },
                {
                    "duration": 0.41666600000002063,
                    "durationTicks": 128,
                    "midi": 52,
                    "name": "E3",
                    "ticks": 59264,
                    "time": 192.91635799999997,
                    "velocity": 0.30708661417322836,
                },
                {
                    "duration": 0.8333319999999844,
                    "durationTicks": 256,
                    "midi": 40,
                    "name": "E2",
                    "ticks": 59392,
                    "time": 193.333024,
                    "velocity": 0.1889763779527559,
                },
                {
                    "duration": 0.41666600000002063,
                    "durationTicks": 128,
                    "midi": 52,
                    "name": "E3",
                    "ticks": 59648,
                    "time": 194.16635599999998,
                    "velocity": 0.29133858267716534,
                },
                {
                    "duration": 0.4166659999999922,
                    "durationTicks": 128,
                    "midi": 52,
                    "name": "E3",
                    "ticks": 59776,
                    "time": 194.583022,
                    "velocity": 0.2677165354330709,
                },
                {
                    "duration": 0.8333319999999844,
                    "durationTicks": 256,
                    "midi": 40,
                    "name": "E2",
                    "ticks": 59904,
                    "time": 194.999688,
                    "velocity": 0.23622047244094488,
                },
                {
                    "duration": 0.41666600000002063,
                    "durationTicks": 128,
                    "midi": 52,
                    "name": "E3",
                    "ticks": 60160,
                    "time": 195.83301999999998,
                    "velocity": 0.31496062992125984,
                },
                {
                    "duration": 0.4166659999999922,
                    "durationTicks": 128,
                    "midi": 52,
                    "name": "E3",
                    "ticks": 60288,
                    "time": 196.249686,
                    "velocity": 0.2677165354330709,
                },
                {
                    "duration": 0.8333319999999844,
                    "durationTicks": 256,
                    "midi": 40,
                    "name": "E2",
                    "ticks": 60416,
                    "time": 196.666352,
                    "velocity": 0.2283464566929134,
                },
                {
                    "duration": 0.41666600000002063,
                    "durationTicks": 128,
                    "midi": 52,
                    "name": "E3",
                    "ticks": 60672,
                    "time": 197.49968399999997,
                    "velocity": 0.33858267716535434,
                },
                {
                    "duration": 0.4166659999999922,
                    "durationTicks": 128,
                    "midi": 52,
                    "name": "E3",
                    "ticks": 60800,
                    "time": 197.91635,
                    "velocity": 0.2755905511811024,
                },
                {
                    "duration": 0.8333320000000128,
                    "durationTicks": 256,
                    "midi": 40,
                    "name": "E2",
                    "ticks": 60928,
                    "time": 198.333016,
                    "velocity": 0.25196850393700787,
                },
                {
                    "duration": 0.4166659999999922,
                    "durationTicks": 128,
                    "midi": 52,
                    "name": "E3",
                    "ticks": 61184,
                    "time": 199.166348,
                    "velocity": 0.2992125984251969,
                },
                {
                    "duration": 0.4166659999999922,
                    "durationTicks": 128,
                    "midi": 52,
                    "name": "E3",
                    "ticks": 61312,
                    "time": 199.583014,
                    "velocity": 0.2677165354330709,
                },
                {
                    "duration": 0.8333320000000128,
                    "durationTicks": 256,
                    "midi": 40,
                    "name": "E2",
                    "ticks": 61440,
                    "time": 199.99967999999998,
                    "velocity": 0.28346456692913385,
                },
                {
                    "duration": 0.4166659999999922,
                    "durationTicks": 128,
                    "midi": 52,
                    "name": "E3",
                    "ticks": 61696,
                    "time": 200.833012,
                    "velocity": 0.3228346456692913,
                },
                {
                    "duration": 0.4166659999999922,
                    "durationTicks": 128,
                    "midi": 52,
                    "name": "E3",
                    "ticks": 61824,
                    "time": 201.249678,
                    "velocity": 0.2755905511811024,
                },
                {
                    "duration": 0.8333320000000128,
                    "durationTicks": 256,
                    "midi": 40,
                    "name": "E2",
                    "ticks": 61952,
                    "time": 201.66634399999998,
                    "velocity": 0.25984251968503935,
                },
                {
                    "duration": 0.4166659999999922,
                    "durationTicks": 128,
                    "midi": 52,
                    "name": "E3",
                    "ticks": 62208,
                    "time": 202.499676,
                    "velocity": 0.29133858267716534,
                },
                {
                    "duration": 0.4166659999999922,
                    "durationTicks": 128,
                    "midi": 52,
                    "name": "E3",
                    "ticks": 62336,
                    "time": 202.916342,
                    "velocity": 0.2992125984251969,
                },
                {
                    "duration": 0.8333320000000128,
                    "durationTicks": 256,
                    "midi": 37,
                    "name": "C#2",
                    "ticks": 62464,
                    "time": 203.33300799999998,
                    "velocity": 0.2440944881889764,
                },
                {
                    "duration": 0.4166659999999922,
                    "durationTicks": 128,
                    "midi": 49,
                    "name": "C#3",
                    "ticks": 62720,
                    "time": 204.16634,
                    "velocity": 0.33070866141732286,
                },
                {
                    "duration": 0.4166659999999922,
                    "durationTicks": 128,
                    "midi": 49,
                    "name": "C#3",
                    "ticks": 62848,
                    "time": 204.58300599999998,
                    "velocity": 0.3464566929133858,
                },
                {
                    "duration": 0.8333320000000128,
                    "durationTicks": 256,
                    "midi": 38,
                    "name": "D2",
                    "ticks": 62976,
                    "time": 204.99967199999998,
                    "velocity": 0.29133858267716534,
                },
                {
                    "duration": 0.4166659999999922,
                    "durationTicks": 128,
                    "midi": 50,
                    "name": "D3",
                    "ticks": 63232,
                    "time": 205.833004,
                    "velocity": 0.4566929133858268,
                },
                {
                    "duration": 0.4166659999999922,
                    "durationTicks": 128,
                    "midi": 50,
                    "name": "D3",
                    "ticks": 63360,
                    "time": 206.24966999999998,
                    "velocity": 0.4566929133858268,
                },
                {
                    "duration": 0.8333320000000128,
                    "durationTicks": 256,
                    "midi": 37,
                    "name": "C#2",
                    "ticks": 63488,
                    "time": 206.66633599999997,
                    "velocity": 0.4015748031496063,
                },
                {
                    "duration": 0.4166659999999922,
                    "durationTicks": 128,
                    "midi": 49,
                    "name": "C#3",
                    "ticks": 63744,
                    "time": 207.49966799999999,
                    "velocity": 0.5433070866141733,
                },
                {
                    "duration": 0.41666600000002063,
                    "durationTicks": 128,
                    "midi": 49,
                    "name": "C#3",
                    "ticks": 63872,
                    "time": 207.91633399999998,
                    "velocity": 0.5433070866141733,
                },
                {
                    "duration": 0.8333319999999844,
                    "durationTicks": 256,
                    "midi": 38,
                    "name": "D2",
                    "ticks": 64000,
                    "time": 208.333,
                    "velocity": 0.4881889763779528,
                },
                {
                    "duration": 0.4166659999999922,
                    "durationTicks": 128,
                    "midi": 50,
                    "name": "D3",
                    "ticks": 64256,
                    "time": 209.16633199999998,
                    "velocity": 0.6535433070866141,
                },
                {
                    "duration": 0.41666600000002063,
                    "durationTicks": 128,
                    "midi": 50,
                    "name": "D3",
                    "ticks": 64384,
                    "time": 209.58299799999998,
                    "velocity": 0.6456692913385826,
                },
                {
                    "duration": 0.8333319999999844,
                    "durationTicks": 256,
                    "midi": 37,
                    "name": "C#2",
                    "ticks": 64512,
                    "time": 209.999664,
                    "velocity": 0.49606299212598426,
                },
                {
                    "duration": 0.4166659999999922,
                    "durationTicks": 128,
                    "midi": 49,
                    "name": "C#3",
                    "ticks": 64768,
                    "time": 210.83299599999998,
                    "velocity": 0.5590551181102362,
                },
                {
                    "duration": 0.41666600000002063,
                    "durationTicks": 128,
                    "midi": 49,
                    "name": "C#3",
                    "ticks": 64896,
                    "time": 211.24966199999997,
                    "velocity": 0.6062992125984252,
                },
                {
                    "duration": 0.8333319999999844,
                    "durationTicks": 256,
                    "midi": 38,
                    "name": "D2",
                    "ticks": 65024,
                    "time": 211.666328,
                    "velocity": 0.47244094488188976,
                },
                {
                    "duration": 0.41666600000002063,
                    "durationTicks": 128,
                    "midi": 50,
                    "name": "D3",
                    "ticks": 65280,
                    "time": 212.49965999999998,
                    "velocity": 0.5039370078740157,
                },
                {
                    "duration": 0.4166659999999922,
                    "durationTicks": 128,
                    "midi": 50,
                    "name": "D3",
                    "ticks": 65408,
                    "time": 212.916326,
                    "velocity": 0.5196850393700787,
                },
                {
                    "duration": 0.8333319999999844,
                    "durationTicks": 256,
                    "midi": 40,
                    "name": "E2",
                    "ticks": 65536,
                    "time": 213.332992,
                    "velocity": 0.3464566929133858,
                },
                {
                    "duration": 0.41666600000002063,
                    "durationTicks": 128,
                    "midi": 52,
                    "name": "E3",
                    "ticks": 65792,
                    "time": 214.16632399999997,
                    "velocity": 0.41732283464566927,
                },
                {
                    "duration": 0.4166659999999922,
                    "durationTicks": 128,
                    "midi": 52,
                    "name": "E3",
                    "ticks": 65920,
                    "time": 214.58299,
                    "velocity": 0.3700787401574803,
                },
                {
                    "duration": 0.8333319999999844,
                    "durationTicks": 256,
                    "midi": 33,
                    "name": "A1",
                    "ticks": 66048,
                    "time": 214.999656,
                    "velocity": 0.3464566929133858,
                },
                {
                    "duration": 0.41666600000002063,
                    "durationTicks": 128,
                    "midi": 45,
                    "name": "A2",
                    "ticks": 66304,
                    "time": 215.83298799999997,
                    "velocity": 0.48031496062992124,
                },
                {
                    "duration": 0.4166659999999922,
                    "durationTicks": 128,
                    "midi": 45,
                    "name": "A2",
                    "ticks": 66432,
                    "time": 216.249654,
                    "velocity": 0.4330708661417323,
                },
                {
                    "duration": 0.8333320000000128,
                    "durationTicks": 256,
                    "midi": 37,
                    "name": "C#2",
                    "ticks": 66560,
                    "time": 216.66631999999998,
                    "velocity": 0.3858267716535433,
                },
                {
                    "duration": 0.4166659999999922,
                    "durationTicks": 128,
                    "midi": 49,
                    "name": "C#3",
                    "ticks": 66816,
                    "time": 217.499652,
                    "velocity": 0.5433070866141733,
                },
                {
                    "duration": 0.4166659999999922,
                    "durationTicks": 128,
                    "midi": 49,
                    "name": "C#3",
                    "ticks": 66944,
                    "time": 217.916318,
                    "velocity": 0.48031496062992124,
                },
                {
                    "duration": 0.8333320000000128,
                    "durationTicks": 256,
                    "midi": 38,
                    "name": "D2",
                    "ticks": 67072,
                    "time": 218.33298399999998,
                    "velocity": 0.4251968503937008,
                },
                {
                    "duration": 0.4166659999999922,
                    "durationTicks": 128,
                    "midi": 50,
                    "name": "D3",
                    "ticks": 67328,
                    "time": 219.166316,
                    "velocity": 0.5433070866141733,
                },
                {
                    "duration": 0.4166659999999922,
                    "durationTicks": 128,
                    "midi": 50,
                    "name": "D3",
                    "ticks": 67456,
                    "time": 219.582982,
                    "velocity": 0.5826771653543307,
                },
                {
                    "duration": 0.8333320000000128,
                    "durationTicks": 256,
                    "midi": 37,
                    "name": "C#2",
                    "ticks": 67584,
                    "time": 219.99964799999998,
                    "velocity": 0.4881889763779528,
                },
                {
                    "duration": 0.4166659999999922,
                    "durationTicks": 128,
                    "midi": 49,
                    "name": "C#3",
                    "ticks": 67840,
                    "time": 220.83298,
                    "velocity": 0.6692913385826772,
                },
                {
                    "duration": 0.4166659999999922,
                    "durationTicks": 128,
                    "midi": 49,
                    "name": "C#3",
                    "ticks": 67968,
                    "time": 221.24964599999998,
                    "velocity": 0.6377952755905512,
                },
                {
                    "duration": 0.8333320000000128,
                    "durationTicks": 256,
                    "midi": 38,
                    "name": "D2",
                    "ticks": 68096,
                    "time": 221.66631199999998,
                    "velocity": 0.5748031496062992,
                },
                {
                    "duration": 0.4166659999999922,
                    "durationTicks": 128,
                    "midi": 50,
                    "name": "D3",
                    "ticks": 68352,
                    "time": 222.499644,
                    "velocity": 0.7401574803149606,
                },
                {
                    "duration": 0.4166659999999922,
                    "durationTicks": 128,
                    "midi": 50,
                    "name": "D3",
                    "ticks": 68480,
                    "time": 222.91630999999998,
                    "velocity": 0.6535433070866141,
                },
                {
                    "duration": 0.8333320000000128,
                    "durationTicks": 256,
                    "midi": 37,
                    "name": "C#2",
                    "ticks": 68608,
                    "time": 223.33297599999997,
                    "velocity": 0.4881889763779528,
                },
                {
                    "duration": 0.4166659999999922,
                    "durationTicks": 128,
                    "midi": 36,
                    "name": "C2",
                    "ticks": 68864,
                    "time": 224.166308,
                    "velocity": 0.5511811023622047,
                },
                {
                    "duration": 0.4166659999999922,
                    "durationTicks": 128,
                    "midi": 36,
                    "name": "C2",
                    "ticks": 68992,
                    "time": 224.58297399999998,
                    "velocity": 0.5669291338582677,
                },
                {
                    "duration": 0.8333320000000128,
                    "durationTicks": 256,
                    "midi": 29,
                    "name": "F1",
                    "ticks": 69120,
                    "time": 224.99963999999997,
                    "velocity": 0.48031496062992124,
                },
                {
                    "duration": 0.4166659999999922,
                    "durationTicks": 128,
                    "midi": 41,
                    "name": "F2",
                    "ticks": 69376,
                    "time": 225.83297199999998,
                    "velocity": 0.5590551181102362,
                },
                {
                    "duration": 0.41666600000002063,
                    "durationTicks": 128,
                    "midi": 41,
                    "name": "F2",
                    "ticks": 69504,
                    "time": 226.24963799999998,
                    "velocity": 0.5039370078740157,
                },
                {
                    "duration": 0.8333319999999844,
                    "durationTicks": 256,
                    "midi": 31,
                    "name": "G1",
                    "ticks": 69632,
                    "time": 226.666304,
                    "velocity": 0.3228346456692913,
                },
                {
                    "duration": 0.4166659999999922,
                    "durationTicks": 128,
                    "midi": 43,
                    "name": "G2",
                    "ticks": 69888,
                    "time": 227.49963599999998,
                    "velocity": 0.4330708661417323,
                },
                {
                    "duration": 0.41666600000002063,
                    "durationTicks": 128,
                    "midi": 43,
                    "name": "G2",
                    "ticks": 70016,
                    "time": 227.91630199999997,
                    "velocity": 0.3700787401574803,
                },
                {
                    "duration": 0.8333319999999844,
                    "durationTicks": 256,
                    "midi": 36,
                    "name": "C2",
                    "ticks": 70144,
                    "time": 228.332968,
                    "velocity": 0.31496062992125984,
                },
                {
                    "duration": 0.4166659999999922,
                    "durationTicks": 128,
                    "midi": 48,
                    "name": "C3",
                    "ticks": 70400,
                    "time": 229.16629999999998,
                    "velocity": 0.41732283464566927,
                },
                {
                    "duration": 0.41666600000002063,
                    "durationTicks": 128,
                    "midi": 48,
                    "name": "C3",
                    "ticks": 70528,
                    "time": 229.58296599999997,
                    "velocity": 0.3543307086614173,
                },
                {
                    "duration": 0.8333319999999844,
                    "durationTicks": 256,
                    "midi": 36,
                    "name": "C2",
                    "ticks": 70656,
                    "time": 229.999632,
                    "velocity": 0.3464566929133858,
                },
                {
                    "duration": 0.41666600000002063,
                    "durationTicks": 128,
                    "midi": 48,
                    "name": "C3",
                    "ticks": 70912,
                    "time": 230.83296399999998,
                    "velocity": 0.4330708661417323,
                },
                {
                    "duration": 0.4166659999999922,
                    "durationTicks": 128,
                    "midi": 48,
                    "name": "C3",
                    "ticks": 71040,
                    "time": 231.24963,
                    "velocity": 0.3858267716535433,
                },
                {
                    "duration": 0.8333319999999844,
                    "durationTicks": 256,
                    "midi": 36,
                    "name": "C2",
                    "ticks": 71168,
                    "time": 231.666296,
                    "velocity": 0.31496062992125984,
                },
                {
                    "duration": 0.41666600000002063,
                    "durationTicks": 128,
                    "midi": 48,
                    "name": "C3",
                    "ticks": 71424,
                    "time": 232.49962799999997,
                    "velocity": 0.4330708661417323,
                },
                {
                    "duration": 0.4166659999999922,
                    "durationTicks": 128,
                    "midi": 48,
                    "name": "C3",
                    "ticks": 71552,
                    "time": 232.916294,
                    "velocity": 0.3779527559055118,
                },
                {
                    "duration": 0.8333319999999844,
                    "durationTicks": 256,
                    "midi": 36,
                    "name": "C2",
                    "ticks": 71680,
                    "time": 233.33295999999999,
                    "velocity": 0.3543307086614173,
                },
                {
                    "duration": 0.41666600000002063,
                    "durationTicks": 128,
                    "midi": 48,
                    "name": "C3",
                    "ticks": 71936,
                    "time": 234.16629199999997,
                    "velocity": 0.4409448818897638,
                },
                {
                    "duration": 0.4166659999999922,
                    "durationTicks": 128,
                    "midi": 48,
                    "name": "C3",
                    "ticks": 72064,
                    "time": 234.582958,
                    "velocity": 0.3543307086614173,
                },
                {
                    "duration": 0.8333320000000128,
                    "durationTicks": 256,
                    "midi": 36,
                    "name": "C2",
                    "ticks": 72192,
                    "time": 234.99962399999998,
                    "velocity": 0.3543307086614173,
                },
                {
                    "duration": 0.4166659999999922,
                    "durationTicks": 128,
                    "midi": 48,
                    "name": "C3",
                    "ticks": 72448,
                    "time": 235.832956,
                    "velocity": 0.41732283464566927,
                },
                {
                    "duration": 0.4166659999999922,
                    "durationTicks": 128,
                    "midi": 48,
                    "name": "C3",
                    "ticks": 72576,
                    "time": 236.249622,
                    "velocity": 0.3937007874015748,
                },
                {
                    "duration": 0.8333320000000128,
                    "durationTicks": 256,
                    "midi": 36,
                    "name": "C2",
                    "ticks": 72704,
                    "time": 236.66628799999998,
                    "velocity": 0.3779527559055118,
                },
                {
                    "duration": 0.4166659999999922,
                    "durationTicks": 128,
                    "midi": 48,
                    "name": "C3",
                    "ticks": 72960,
                    "time": 237.49962,
                    "velocity": 0.47244094488188976,
                },
                {
                    "duration": 0.4166659999999922,
                    "durationTicks": 128,
                    "midi": 48,
                    "name": "C3",
                    "ticks": 73088,
                    "time": 237.91628599999999,
                    "velocity": 0.44881889763779526,
                },
                {
                    "duration": 0.8333319999999844,
                    "durationTicks": 256,
                    "midi": 28,
                    "name": "E1",
                    "ticks": 76288,
                    "time": 248.332936,
                    "velocity": 0.33070866141732286,
                },
                {
                    "duration": 0.41666600000002063,
                    "durationTicks": 128,
                    "midi": 28,
                    "name": "E1",
                    "ticks": 76544,
                    "time": 249.16626799999997,
                    "velocity": 0.28346456692913385,
                },
                {
                    "duration": 0.4166659999999922,
                    "durationTicks": 128,
                    "midi": 28,
                    "name": "E1",
                    "ticks": 76672,
                    "time": 249.582934,
                    "velocity": 0.2992125984251969,
                },
                {
                    "duration": 0.8333319999999844,
                    "durationTicks": 256,
                    "midi": 28,
                    "name": "E1",
                    "ticks": 76800,
                    "time": 249.9996,
                    "velocity": 0.30708661417322836,
                },
                {
                    "duration": 0.8333320000000128,
                    "durationTicks": 256,
                    "midi": 28,
                    "name": "E1",
                    "ticks": 77056,
                    "time": 250.83293199999997,
                    "velocity": 0.29133858267716534,
                },
                {
                    "duration": 0.8333320000000128,
                    "durationTicks": 256,
                    "midi": 28,
                    "name": "E1",
                    "ticks": 77312,
                    "time": 251.66626399999998,
                    "velocity": 0.2677165354330709,
                },
                {
                    "duration": 0.4166659999999922,
                    "durationTicks": 128,
                    "midi": 28,
                    "name": "E1",
                    "ticks": 77568,
                    "time": 252.499596,
                    "velocity": 0.30708661417322836,
                },
                {
                    "duration": 0.4166659999999922,
                    "durationTicks": 128,
                    "midi": 28,
                    "name": "E1",
                    "ticks": 77696,
                    "time": 252.916262,
                    "velocity": 0.28346456692913385,
                },
                {
                    "duration": 0.8333320000000128,
                    "durationTicks": 256,
                    "midi": 28,
                    "name": "E1",
                    "ticks": 77824,
                    "time": 253.33292799999998,
                    "velocity": 0.28346456692913385,
                },
                {
                    "duration": 0.8333319999999844,
                    "durationTicks": 256,
                    "midi": 28,
                    "name": "E1",
                    "ticks": 78080,
                    "time": 254.16626,
                    "velocity": 0.2992125984251969,
                },
                {
                    "duration": 0.8333320000000128,
                    "durationTicks": 256,
                    "midi": 28,
                    "name": "E1",
                    "ticks": 78336,
                    "time": 254.99959199999998,
                    "velocity": 0.25984251968503935,
                },
                {
                    "duration": 0.41666600000002063,
                    "durationTicks": 128,
                    "midi": 28,
                    "name": "E1",
                    "ticks": 78592,
                    "time": 255.832924,
                    "velocity": 0.33858267716535434,
                },
                {
                    "duration": 0.4166659999999638,
                    "durationTicks": 128,
                    "midi": 30,
                    "name": "F#1",
                    "ticks": 78720,
                    "time": 256.24959,
                    "velocity": 0.2755905511811024,
                },
                {
                    "duration": 0.8333320000000413,
                    "durationTicks": 256,
                    "midi": 31,
                    "name": "G1",
                    "ticks": 78848,
                    "time": 256.666256,
                    "velocity": 0.3543307086614173,
                },
                {
                    "duration": 0.8333319999999844,
                    "durationTicks": 256,
                    "midi": 31,
                    "name": "G1",
                    "ticks": 79104,
                    "time": 257.499588,
                    "velocity": 0.2677165354330709,
                },
                {
                    "duration": 0.8333319999999844,
                    "durationTicks": 256,
                    "midi": 31,
                    "name": "G1",
                    "ticks": 79360,
                    "time": 258.33292,
                    "velocity": 0.2992125984251969,
                },
                {
                    "duration": 0.41666600000002063,
                    "durationTicks": 128,
                    "midi": 31,
                    "name": "G1",
                    "ticks": 79616,
                    "time": 259.166252,
                    "velocity": 0.25984251968503935,
                },
                {
                    "duration": 0.4166659999999638,
                    "durationTicks": 128,
                    "midi": 31,
                    "name": "G1",
                    "ticks": 79744,
                    "time": 259.582918,
                    "velocity": 0.2677165354330709,
                },
                {
                    "duration": 0.8333319999999844,
                    "durationTicks": 256,
                    "midi": 31,
                    "name": "G1",
                    "ticks": 79872,
                    "time": 259.99958399999997,
                    "velocity": 0.2755905511811024,
                },
                {
                    "duration": 0.8333319999999844,
                    "durationTicks": 256,
                    "midi": 31,
                    "name": "G1",
                    "ticks": 80384,
                    "time": 261.666248,
                    "velocity": 0.25984251968503935,
                },
                {
                    "duration": 0.41666600000002063,
                    "durationTicks": 128,
                    "midi": 31,
                    "name": "G1",
                    "ticks": 80640,
                    "time": 262.49958,
                    "velocity": 0.2440944881889764,
                },
                {
                    "duration": 0.4166659999999638,
                    "durationTicks": 128,
                    "midi": 33,
                    "name": "A1",
                    "ticks": 80768,
                    "time": 262.916246,
                    "velocity": 0.28346456692913385,
                },
                {
                    "duration": 0.8333320000000413,
                    "durationTicks": 256,
                    "midi": 35,
                    "name": "B1",
                    "ticks": 80896,
                    "time": 263.33291199999996,
                    "velocity": 0.23622047244094488,
                },
                {
                    "duration": 0.8333319999999844,
                    "durationTicks": 256,
                    "midi": 35,
                    "name": "B1",
                    "ticks": 81152,
                    "time": 264.166244,
                    "velocity": 0.28346456692913385,
                },
                {
                    "duration": 0.8333319999999844,
                    "durationTicks": 256,
                    "midi": 30,
                    "name": "F#1",
                    "ticks": 81408,
                    "time": 264.999576,
                    "velocity": 0.2755905511811024,
                },
                {
                    "duration": 0.41666600000002063,
                    "durationTicks": 128,
                    "midi": 30,
                    "name": "F#1",
                    "ticks": 81664,
                    "time": 265.832908,
                    "velocity": 0.2755905511811024,
                },
                {
                    "duration": 0.4166659999999638,
                    "durationTicks": 128,
                    "midi": 32,
                    "name": "G#1",
                    "ticks": 81792,
                    "time": 266.249574,
                    "velocity": 0.29133858267716534,
                },
                {
                    "duration": 0.8333320000000413,
                    "durationTicks": 256,
                    "midi": 33,
                    "name": "A1",
                    "ticks": 81920,
                    "time": 266.66623999999996,
                    "velocity": 0.25984251968503935,
                },
                {
                    "duration": 0.8333319999999844,
                    "durationTicks": 256,
                    "midi": 33,
                    "name": "A1",
                    "ticks": 82176,
                    "time": 267.499572,
                    "velocity": 0.29133858267716534,
                },
                {
                    "duration": 0.8333319999999844,
                    "durationTicks": 256,
                    "midi": 28,
                    "name": "E1",
                    "ticks": 82432,
                    "time": 268.332904,
                    "velocity": 0.25984251968503935,
                },
                {
                    "duration": 0.41666600000002063,
                    "durationTicks": 128,
                    "midi": 28,
                    "name": "E1",
                    "ticks": 82688,
                    "time": 269.16623599999997,
                    "velocity": 0.2677165354330709,
                },
                {
                    "duration": 0.41666600000002063,
                    "durationTicks": 128,
                    "midi": 28,
                    "name": "E1",
                    "ticks": 82816,
                    "time": 269.582902,
                    "velocity": 0.2440944881889764,
                },
                {
                    "duration": 0.8333319999999844,
                    "durationTicks": 256,
                    "midi": 28,
                    "name": "E1",
                    "ticks": 82944,
                    "time": 269.999568,
                    "velocity": 0.2677165354330709,
                },
                {
                    "duration": 0.8333319999999844,
                    "durationTicks": 256,
                    "midi": 28,
                    "name": "E1",
                    "ticks": 83200,
                    "time": 270.8329,
                    "velocity": 0.2755905511811024,
                },
                {
                    "duration": 0.8333319999999844,
                    "durationTicks": 256,
                    "midi": 28,
                    "name": "E1",
                    "ticks": 83456,
                    "time": 271.666232,
                    "velocity": 0.2992125984251969,
                },
                {
                    "duration": 0.41666600000002063,
                    "durationTicks": 128,
                    "midi": 30,
                    "name": "F#1",
                    "ticks": 83712,
                    "time": 272.49956399999996,
                    "velocity": 0.30708661417322836,
                },
                {
                    "duration": 0.41666600000002063,
                    "durationTicks": 128,
                    "midi": 32,
                    "name": "G#1",
                    "ticks": 83840,
                    "time": 272.91623,
                    "velocity": 0.29133858267716534,
                },
                {
                    "duration": 0.8333319999999844,
                    "durationTicks": 256,
                    "midi": 33,
                    "name": "A1",
                    "ticks": 83968,
                    "time": 273.332896,
                    "velocity": 0.3228346456692913,
                },
                {
                    "duration": 0.8333319999999844,
                    "durationTicks": 256,
                    "midi": 31,
                    "name": "G1",
                    "ticks": 84480,
                    "time": 274.99956,
                    "velocity": 0.2755905511811024,
                },
                {
                    "duration": 0.41666600000002063,
                    "durationTicks": 128,
                    "midi": 31,
                    "name": "G1",
                    "ticks": 84736,
                    "time": 275.83289199999996,
                    "velocity": 0.2755905511811024,
                },
                {
                    "duration": 0.41666600000002063,
                    "durationTicks": 128,
                    "midi": 33,
                    "name": "A1",
                    "ticks": 84864,
                    "time": 276.249558,
                    "velocity": 0.2755905511811024,
                },
                {
                    "duration": 0.8333319999999844,
                    "durationTicks": 256,
                    "midi": 35,
                    "name": "B1",
                    "ticks": 84992,
                    "time": 276.666224,
                    "velocity": 0.28346456692913385,
                },
                {
                    "duration": 0.8333319999999844,
                    "durationTicks": 256,
                    "midi": 35,
                    "name": "B1",
                    "ticks": 85248,
                    "time": 277.499556,
                    "velocity": 0.2755905511811024,
                },
                {
                    "duration": 0.8333320000000413,
                    "durationTicks": 256,
                    "midi": 30,
                    "name": "F#1",
                    "ticks": 85504,
                    "time": 278.33288799999997,
                    "velocity": 0.25984251968503935,
                },
                {
                    "duration": 0.4166659999999638,
                    "durationTicks": 128,
                    "midi": 30,
                    "name": "F#1",
                    "ticks": 85760,
                    "time": 279.16622,
                    "velocity": 0.2992125984251969,
                },
                {
                    "duration": 0.41666600000002063,
                    "durationTicks": 128,
                    "midi": 32,
                    "name": "G#1",
                    "ticks": 85888,
                    "time": 279.582886,
                    "velocity": 0.28346456692913385,
                },
                {
                    "duration": 0.8333319999999844,
                    "durationTicks": 256,
                    "midi": 33,
                    "name": "A1",
                    "ticks": 86016,
                    "time": 279.999552,
                    "velocity": 0.29133858267716534,
                },
                {
                    "duration": 0.8333319999999844,
                    "durationTicks": 256,
                    "midi": 33,
                    "name": "A1",
                    "ticks": 86272,
                    "time": 280.832884,
                    "velocity": 0.28346456692913385,
                },
                {
                    "duration": 0.8333320000000413,
                    "durationTicks": 256,
                    "midi": 28,
                    "name": "E1",
                    "ticks": 86528,
                    "time": 281.66621599999996,
                    "velocity": 0.28346456692913385,
                },
                {
                    "duration": 0.4166659999999638,
                    "durationTicks": 128,
                    "midi": 28,
                    "name": "E1",
                    "ticks": 86784,
                    "time": 282.499548,
                    "velocity": 0.2677165354330709,
                },
                {
                    "duration": 0.41666600000002063,
                    "durationTicks": 128,
                    "midi": 28,
                    "name": "E1",
                    "ticks": 86912,
                    "time": 282.91621399999997,
                    "velocity": 0.25196850393700787,
                },
                {
                    "duration": 0.8333319999999844,
                    "durationTicks": 256,
                    "midi": 28,
                    "name": "E1",
                    "ticks": 87040,
                    "time": 283.33288,
                    "velocity": 0.28346456692913385,
                },
                {
                    "duration": 0.8333319999999844,
                    "durationTicks": 256,
                    "midi": 28,
                    "name": "E1",
                    "ticks": 87296,
                    "time": 284.166212,
                    "velocity": 0.25196850393700787,
                },
                {
                    "duration": 0.8333320000000413,
                    "durationTicks": 256,
                    "midi": 28,
                    "name": "E1",
                    "ticks": 87552,
                    "time": 284.99954399999996,
                    "velocity": 0.25196850393700787,
                },
                {
                    "duration": 0.4166659999999638,
                    "durationTicks": 128,
                    "midi": 30,
                    "name": "F#1",
                    "ticks": 87808,
                    "time": 285.832876,
                    "velocity": 0.2755905511811024,
                },
                {
                    "duration": 0.41666600000002063,
                    "durationTicks": 128,
                    "midi": 32,
                    "name": "G#1",
                    "ticks": 87936,
                    "time": 286.24954199999996,
                    "velocity": 0.31496062992125984,
                },
                {
                    "duration": 0.8333319999999844,
                    "durationTicks": 256,
                    "midi": 33,
                    "name": "A1",
                    "ticks": 88064,
                    "time": 286.666208,
                    "velocity": 0.2755905511811024,
                },
                {
                    "duration": 0.8333319999999844,
                    "durationTicks": 256,
                    "midi": 33,
                    "name": "A1",
                    "ticks": 88576,
                    "time": 288.332872,
                    "velocity": 0.2204724409448819,
                },
                {
                    "duration": 0.4166659999999638,
                    "durationTicks": 128,
                    "midi": 33,
                    "name": "A1",
                    "ticks": 88832,
                    "time": 289.166204,
                    "velocity": 0.2992125984251969,
                },
                {
                    "duration": 0.41666600000002063,
                    "durationTicks": 128,
                    "midi": 33,
                    "name": "A1",
                    "ticks": 88960,
                    "time": 289.58286999999996,
                    "velocity": 0.2755905511811024,
                },
                {
                    "duration": 0.8333319999999844,
                    "durationTicks": 256,
                    "midi": 33,
                    "name": "A1",
                    "ticks": 89088,
                    "time": 289.999536,
                    "velocity": 0.25196850393700787,
                },
                {
                    "duration": 0.8333319999999844,
                    "durationTicks": 256,
                    "midi": 33,
                    "name": "A1",
                    "ticks": 89600,
                    "time": 291.6662,
                    "velocity": 0.2755905511811024,
                },
                {
                    "duration": 0.41666600000002063,
                    "durationTicks": 128,
                    "midi": 33,
                    "name": "A1",
                    "ticks": 89856,
                    "time": 292.499532,
                    "velocity": 0.28346456692913385,
                },
                {
                    "duration": 0.4166659999999638,
                    "durationTicks": 128,
                    "midi": 33,
                    "name": "A1",
                    "ticks": 89984,
                    "time": 292.916198,
                    "velocity": 0.29133858267716534,
                },
                {
                    "duration": 0.8333319999999844,
                    "durationTicks": 256,
                    "midi": 33,
                    "name": "A1",
                    "ticks": 90112,
                    "time": 293.332864,
                    "velocity": 0.2677165354330709,
                },
                {
                    "duration": 0.4166659999999638,
                    "durationTicks": 128,
                    "midi": 33,
                    "name": "A1",
                    "ticks": 90624,
                    "time": 294.999528,
                    "velocity": 0.30708661417322836,
                },
                {
                    "duration": 0.41666600000002063,
                    "durationTicks": 128,
                    "midi": 33,
                    "name": "A1",
                    "ticks": 90752,
                    "time": 295.41619399999996,
                    "velocity": 0.31496062992125984,
                },
                {
                    "duration": 0.41666600000002063,
                    "durationTicks": 128,
                    "midi": 33,
                    "name": "A1",
                    "ticks": 90880,
                    "time": 295.83286,
                    "velocity": 0.3543307086614173,
                },
                {
                    "duration": 0.41666600000002063,
                    "durationTicks": 128,
                    "midi": 33,
                    "name": "A1",
                    "ticks": 91136,
                    "time": 296.66619199999997,
                    "velocity": 0.3543307086614173,
                },
                {
                    "duration": 0.41666600000002063,
                    "durationTicks": 128,
                    "midi": 33,
                    "name": "A1",
                    "ticks": 91264,
                    "time": 297.082858,
                    "velocity": 0.4330708661417323,
                },
                {
                    "duration": 0.4166659999999638,
                    "durationTicks": 128,
                    "midi": 33,
                    "name": "A1",
                    "ticks": 91392,
                    "time": 297.499524,
                    "velocity": 0.49606299212598426,
                },
                {
                    "duration": 0.4166659999999638,
                    "durationTicks": 128,
                    "midi": 33,
                    "name": "A1",
                    "ticks": 91648,
                    "time": 298.332856,
                    "velocity": 0.4881889763779528,
                },
                {
                    "duration": 0.41666600000002063,
                    "durationTicks": 128,
                    "midi": 33,
                    "name": "A1",
                    "ticks": 91776,
                    "time": 298.74952199999996,
                    "velocity": 0.5590551181102362,
                },
                {
                    "duration": 0.41666600000002063,
                    "durationTicks": 128,
                    "midi": 33,
                    "name": "A1",
                    "ticks": 91904,
                    "time": 299.166188,
                    "velocity": 0.6062992125984252,
                },
                {
                    "duration": 0.4166659999999638,
                    "durationTicks": 128,
                    "midi": 33,
                    "name": "A1",
                    "ticks": 92416,
                    "time": 300.832852,
                    "velocity": 0.5039370078740157,
                },
                {
                    "duration": 0.41666600000002063,
                    "durationTicks": 128,
                    "midi": 33,
                    "name": "A1",
                    "ticks": 92544,
                    "time": 301.24951799999997,
                    "velocity": 0.5511811023622047,
                },
                {
                    "duration": 0.41666600000002063,
                    "durationTicks": 128,
                    "midi": 33,
                    "name": "A1",
                    "ticks": 92928,
                    "time": 302.49951599999997,
                    "velocity": 0.4015748031496063,
                },
                {
                    "duration": 0.4166659999999638,
                    "durationTicks": 128,
                    "midi": 33,
                    "name": "A1",
                    "ticks": 93056,
                    "time": 302.916182,
                    "velocity": 0.36220472440944884,
                },
                {
                    "duration": 0.4166659999999638,
                    "durationTicks": 128,
                    "midi": 33,
                    "name": "A1",
                    "ticks": 93440,
                    "time": 304.16618,
                    "velocity": 0.2440944881889764,
                },
                {
                    "duration": 0.41666600000002063,
                    "durationTicks": 128,
                    "midi": 33,
                    "name": "A1",
                    "ticks": 93568,
                    "time": 304.58284599999996,
                    "velocity": 0.2755905511811024,
                },
                {
                    "duration": 0.8333319999999844,
                    "durationTicks": 256,
                    "midi": 28,
                    "name": "E1",
                    "ticks": 114176,
                    "time": 371.666072,
                    "velocity": 0.3543307086614173,
                },
                {
                    "duration": 0.41666600000002063,
                    "durationTicks": 128,
                    "midi": 30,
                    "name": "F#1",
                    "ticks": 114432,
                    "time": 372.49940399999997,
                    "velocity": 0.4251968503937008,
                },
                {
                    "duration": 0.4166659999999638,
                    "durationTicks": 128,
                    "midi": 32,
                    "name": "G#1",
                    "ticks": 114560,
                    "time": 372.91607,
                    "velocity": 0.4015748031496063,
                },
                {
                    "duration": 0.8333320000000413,
                    "durationTicks": 256,
                    "midi": 33,
                    "name": "A1",
                    "ticks": 114688,
                    "time": 373.33273599999995,
                    "velocity": 0.3858267716535433,
                },
                {
                    "duration": 0.4166659999999638,
                    "durationTicks": 128,
                    "midi": 45,
                    "name": "A2",
                    "ticks": 114944,
                    "time": 374.166068,
                    "velocity": 0.41732283464566927,
                },
                {
                    "duration": 0.41666600000002063,
                    "durationTicks": 128,
                    "midi": 45,
                    "name": "A2",
                    "ticks": 115072,
                    "time": 374.58273399999996,
                    "velocity": 0.3937007874015748,
                },
                {
                    "duration": 0.8333319999999844,
                    "durationTicks": 256,
                    "midi": 33,
                    "name": "A1",
                    "ticks": 115200,
                    "time": 374.9994,
                    "velocity": 0.3228346456692913,
                },
                {
                    "duration": 0.41666600000002063,
                    "durationTicks": 128,
                    "midi": 45,
                    "name": "A2",
                    "ticks": 115456,
                    "time": 375.83273199999996,
                    "velocity": 0.3858267716535433,
                },
                {
                    "duration": 0.4166659999999638,
                    "durationTicks": 128,
                    "midi": 45,
                    "name": "A2",
                    "ticks": 115584,
                    "time": 376.249398,
                    "velocity": 0.4015748031496063,
                },
                {
                    "duration": 0.8333320000000413,
                    "durationTicks": 256,
                    "midi": 33,
                    "name": "A1",
                    "ticks": 115712,
                    "time": 376.66606399999995,
                    "velocity": 0.33070866141732286,
                },
                {
                    "duration": 0.4166659999999638,
                    "durationTicks": 128,
                    "midi": 45,
                    "name": "A2",
                    "ticks": 115968,
                    "time": 377.499396,
                    "velocity": 0.4015748031496063,
                },
                {
                    "duration": 0.41666600000002063,
                    "durationTicks": 128,
                    "midi": 45,
                    "name": "A2",
                    "ticks": 116096,
                    "time": 377.91606199999995,
                    "velocity": 0.41732283464566927,
                },
                {
                    "duration": 0.8333319999999844,
                    "durationTicks": 256,
                    "midi": 33,
                    "name": "A1",
                    "ticks": 116224,
                    "time": 378.332728,
                    "velocity": 0.3779527559055118,
                },
                {
                    "duration": 0.41666600000002063,
                    "durationTicks": 128,
                    "midi": 45,
                    "name": "A2",
                    "ticks": 116480,
                    "time": 379.16605999999996,
                    "velocity": 0.4881889763779528,
                },
                {
                    "duration": 0.41666600000002063,
                    "durationTicks": 128,
                    "midi": 45,
                    "name": "A2",
                    "ticks": 116608,
                    "time": 379.582726,
                    "velocity": 0.4330708661417323,
                },
                {
                    "duration": 0.8333319999999844,
                    "durationTicks": 256,
                    "midi": 33,
                    "name": "A1",
                    "ticks": 116736,
                    "time": 379.999392,
                    "velocity": 0.3858267716535433,
                },
                {
                    "duration": 0.41666600000002063,
                    "durationTicks": 128,
                    "midi": 45,
                    "name": "A2",
                    "ticks": 116992,
                    "time": 380.832724,
                    "velocity": 0.5039370078740157,
                },
                {
                    "duration": 0.4166659999999638,
                    "durationTicks": 128,
                    "midi": 45,
                    "name": "A2",
                    "ticks": 117120,
                    "time": 381.24939,
                    "velocity": 0.47244094488188976,
                },
                {
                    "duration": 0.8333319999999844,
                    "durationTicks": 256,
                    "midi": 33,
                    "name": "A1",
                    "ticks": 117248,
                    "time": 381.66605599999997,
                    "velocity": 0.4251968503937008,
                },
                {
                    "duration": 0.41666600000002063,
                    "durationTicks": 128,
                    "midi": 45,
                    "name": "A2",
                    "ticks": 117504,
                    "time": 382.49938799999995,
                    "velocity": 0.5669291338582677,
                },
                {
                    "duration": 0.41666600000002063,
                    "durationTicks": 128,
                    "midi": 45,
                    "name": "A2",
                    "ticks": 117632,
                    "time": 382.916054,
                    "velocity": 0.5196850393700787,
                },
                {
                    "duration": 0.8333319999999844,
                    "durationTicks": 256,
                    "midi": 33,
                    "name": "A1",
                    "ticks": 117760,
                    "time": 383.33272,
                    "velocity": 0.4094488188976378,
                },
                {
                    "duration": 0.41666600000002063,
                    "durationTicks": 128,
                    "midi": 45,
                    "name": "A2",
                    "ticks": 118016,
                    "time": 384.166052,
                    "velocity": 0.5275590551181102,
                },
                {
                    "duration": 0.4166659999999638,
                    "durationTicks": 128,
                    "midi": 45,
                    "name": "A2",
                    "ticks": 118144,
                    "time": 384.582718,
                    "velocity": 0.4645669291338583,
                },
                {
                    "duration": 0.8333320000000413,
                    "durationTicks": 256,
                    "midi": 33,
                    "name": "A1",
                    "ticks": 118272,
                    "time": 384.99938399999996,
                    "velocity": 0.3700787401574803,
                },
                {
                    "duration": 0.4166659999999638,
                    "durationTicks": 128,
                    "midi": 45,
                    "name": "A2",
                    "ticks": 118528,
                    "time": 385.832716,
                    "velocity": 0.4409448818897638,
                },
                {
                    "duration": 0.41666600000002063,
                    "durationTicks": 128,
                    "midi": 45,
                    "name": "A2",
                    "ticks": 118656,
                    "time": 386.24938199999997,
                    "velocity": 0.4015748031496063,
                },
                {
                    "duration": 0.8333319999999844,
                    "durationTicks": 256,
                    "midi": 33,
                    "name": "A1",
                    "ticks": 118784,
                    "time": 386.666048,
                    "velocity": 0.31496062992125984,
                },
                {
                    "duration": 0.41666600000002063,
                    "durationTicks": 128,
                    "midi": 45,
                    "name": "A2",
                    "ticks": 119040,
                    "time": 387.49938,
                    "velocity": 0.47244094488188976,
                },
                {
                    "duration": 0.4166659999999638,
                    "durationTicks": 128,
                    "midi": 45,
                    "name": "A2",
                    "ticks": 119168,
                    "time": 387.916046,
                    "velocity": 0.4330708661417323,
                },
                {
                    "duration": 0.8333320000000413,
                    "durationTicks": 256,
                    "midi": 33,
                    "name": "A1",
                    "ticks": 119296,
                    "time": 388.33271199999996,
                    "velocity": 0.3543307086614173,
                },
                {
                    "duration": 0.4166659999999638,
                    "durationTicks": 128,
                    "midi": 45,
                    "name": "A2",
                    "ticks": 119552,
                    "time": 389.166044,
                    "velocity": 0.5669291338582677,
                },
                {
                    "duration": 0.41666600000002063,
                    "durationTicks": 128,
                    "midi": 45,
                    "name": "A2",
                    "ticks": 119680,
                    "time": 389.58270999999996,
                    "velocity": 0.49606299212598426,
                },
                {
                    "duration": 0.8333319999999844,
                    "durationTicks": 256,
                    "midi": 33,
                    "name": "A1",
                    "ticks": 119808,
                    "time": 389.999376,
                    "velocity": 0.41732283464566927,
                },
                {
                    "duration": 0.41666600000002063,
                    "durationTicks": 128,
                    "midi": 45,
                    "name": "A2",
                    "ticks": 120064,
                    "time": 390.83270799999997,
                    "velocity": 0.5905511811023622,
                },
                {
                    "duration": 0.4166659999999638,
                    "durationTicks": 128,
                    "midi": 45,
                    "name": "A2",
                    "ticks": 120192,
                    "time": 391.249374,
                    "velocity": 0.5984251968503937,
                },
                {
                    "duration": 0.8333320000000413,
                    "durationTicks": 256,
                    "midi": 33,
                    "name": "A1",
                    "ticks": 120320,
                    "time": 391.66603999999995,
                    "velocity": 0.47244094488188976,
                },
                {
                    "duration": 0.4166659999999638,
                    "durationTicks": 128,
                    "midi": 45,
                    "name": "A2",
                    "ticks": 120576,
                    "time": 392.499372,
                    "velocity": 0.6692913385826772,
                },
                {
                    "duration": 0.41666600000002063,
                    "durationTicks": 128,
                    "midi": 45,
                    "name": "A2",
                    "ticks": 120704,
                    "time": 392.91603799999996,
                    "velocity": 0.5984251968503937,
                },
                {
                    "duration": 0.8333319999999844,
                    "durationTicks": 256,
                    "midi": 33,
                    "name": "A1",
                    "ticks": 120832,
                    "time": 393.332704,
                    "velocity": 0.4645669291338583,
                },
                {
                    "duration": 0.41666600000002063,
                    "durationTicks": 128,
                    "midi": 45,
                    "name": "A2",
                    "ticks": 121088,
                    "time": 394.16603599999996,
                    "velocity": 0.5511811023622047,
                },
                {
                    "duration": 0.41666600000002063,
                    "durationTicks": 128,
                    "midi": 45,
                    "name": "A2",
                    "ticks": 121216,
                    "time": 394.582702,
                    "velocity": 0.5039370078740157,
                },
                {
                    "duration": 0.8333319999999844,
                    "durationTicks": 256,
                    "midi": 33,
                    "name": "A1",
                    "ticks": 121344,
                    "time": 394.999368,
                    "velocity": 0.4409448818897638,
                },
                {
                    "duration": 0.4166659999999638,
                    "durationTicks": 128,
                    "midi": 45,
                    "name": "A2",
                    "ticks": 121600,
                    "time": 395.8327,
                    "velocity": 0.5748031496062992,
                },
                {
                    "duration": 0.41666600000002063,
                    "durationTicks": 128,
                    "midi": 45,
                    "name": "A2",
                    "ticks": 121728,
                    "time": 396.24936599999995,
                    "velocity": 0.49606299212598426,
                },
                {
                    "duration": 0.8333319999999844,
                    "durationTicks": 256,
                    "midi": 33,
                    "name": "A1",
                    "ticks": 121856,
                    "time": 396.666032,
                    "velocity": 0.41732283464566927,
                },
                {
                    "duration": 0.41666600000002063,
                    "durationTicks": 128,
                    "midi": 45,
                    "name": "A2",
                    "ticks": 122112,
                    "time": 397.49936399999996,
                    "velocity": 0.5905511811023622,
                },
                {
                    "duration": 0.41666600000002063,
                    "durationTicks": 128,
                    "midi": 45,
                    "name": "A2",
                    "ticks": 122240,
                    "time": 397.91603,
                    "velocity": 0.49606299212598426,
                },
                {
                    "duration": 0.8333319999999844,
                    "durationTicks": 256,
                    "midi": 33,
                    "name": "A1",
                    "ticks": 122368,
                    "time": 398.332696,
                    "velocity": 0.4094488188976378,
                },
                {
                    "duration": 0.41666600000002063,
                    "durationTicks": 128,
                    "midi": 45,
                    "name": "A2",
                    "ticks": 122624,
                    "time": 399.166028,
                    "velocity": 0.47244094488188976,
                },
                {
                    "duration": 0.4166659999999638,
                    "durationTicks": 128,
                    "midi": 45,
                    "name": "A2",
                    "ticks": 122752,
                    "time": 399.582694,
                    "velocity": 0.4566929133858268,
                },
                {
                    "duration": 0.8333319999999844,
                    "durationTicks": 256,
                    "midi": 33,
                    "name": "A1",
                    "ticks": 122880,
                    "time": 399.99935999999997,
                    "velocity": 0.4094488188976378,
                },
                {
                    "duration": 0.41666600000002063,
                    "durationTicks": 128,
                    "midi": 45,
                    "name": "A2",
                    "ticks": 123136,
                    "time": 400.83269199999995,
                    "velocity": 0.48031496062992124,
                },
                {
                    "duration": 0.41666600000002063,
                    "durationTicks": 128,
                    "midi": 45,
                    "name": "A2",
                    "ticks": 123264,
                    "time": 401.249358,
                    "velocity": 0.4094488188976378,
                },
                {
                    "duration": 0.8333319999999844,
                    "durationTicks": 256,
                    "midi": 33,
                    "name": "A1",
                    "ticks": 123392,
                    "time": 401.666024,
                    "velocity": 0.4015748031496063,
                },
                {
                    "duration": 0.41666600000002063,
                    "durationTicks": 128,
                    "midi": 45,
                    "name": "A2",
                    "ticks": 123648,
                    "time": 402.499356,
                    "velocity": 0.5118110236220472,
                },
                {
                    "duration": 0.4166659999999638,
                    "durationTicks": 128,
                    "midi": 45,
                    "name": "A2",
                    "ticks": 123776,
                    "time": 402.916022,
                    "velocity": 0.41732283464566927,
                },
                {
                    "duration": 0.8333319999999844,
                    "durationTicks": 256,
                    "midi": 33,
                    "name": "A1",
                    "ticks": 130304,
                    "time": 424.16598799999997,
                    "velocity": 0.3464566929133858,
                },
                {
                    "duration": 0.8333319999999844,
                    "durationTicks": 256,
                    "midi": 40,
                    "name": "E2",
                    "ticks": 130816,
                    "time": 425.832652,
                    "velocity": 0.36220472440944884,
                },
                {
                    "duration": 0.8333319999999844,
                    "durationTicks": 256,
                    "midi": 40,
                    "name": "E2",
                    "ticks": 131328,
                    "time": 427.49931599999996,
                    "velocity": 0.33858267716535434,
                },
                {
                    "duration": 0.8333319999999844,
                    "durationTicks": 256,
                    "midi": 45,
                    "name": "A2",
                    "ticks": 131840,
                    "time": 429.16598,
                    "velocity": 0.31496062992125984,
                },
                {
                    "duration": 0.8333320000000413,
                    "durationTicks": 256,
                    "midi": 45,
                    "name": "A2",
                    "ticks": 132352,
                    "time": 430.83264399999996,
                    "velocity": 0.3464566929133858,
                },
                {
                    "duration": 0.8333319999999844,
                    "durationTicks": 256,
                    "midi": 43,
                    "name": "G2",
                    "ticks": 132864,
                    "time": 432.499308,
                    "velocity": 0.25984251968503935,
                },
                {
                    "duration": 0.8333319999999844,
                    "durationTicks": 256,
                    "midi": 31,
                    "name": "G1",
                    "ticks": 133120,
                    "time": 433.33263999999997,
                    "velocity": 0.2283464566929134,
                },
                {
                    "duration": 0.41666600000002063,
                    "durationTicks": 128,
                    "midi": 31,
                    "name": "G1",
                    "ticks": 133376,
                    "time": 434.16597199999995,
                    "velocity": 0.2755905511811024,
                },
                {
                    "duration": 0.41666600000002063,
                    "durationTicks": 128,
                    "midi": 31,
                    "name": "G1",
                    "ticks": 133504,
                    "time": 434.582638,
                    "velocity": 0.25196850393700787,
                },
                {
                    "duration": 0.8333319999999844,
                    "durationTicks": 256,
                    "midi": 36,
                    "name": "C2",
                    "ticks": 133632,
                    "time": 434.999304,
                    "velocity": 0.33070866141732286,
                },
                {
                    "duration": 0.8333320000000413,
                    "durationTicks": 256,
                    "midi": 48,
                    "name": "C3",
                    "ticks": 134400,
                    "time": 437.49929999999995,
                    "velocity": 0.25984251968503935,
                },
                {
                    "duration": 0.8333319999999844,
                    "durationTicks": 256,
                    "midi": 47,
                    "name": "B2",
                    "ticks": 134912,
                    "time": 439.165964,
                    "velocity": 0.2440944881889764,
                },
                {
                    "duration": 0.8333319999999844,
                    "durationTicks": 256,
                    "midi": 52,
                    "name": "E3",
                    "ticks": 135424,
                    "time": 440.832628,
                    "velocity": 0.2440944881889764,
                },
                {
                    "duration": 0.8333319999999844,
                    "durationTicks": 256,
                    "midi": 45,
                    "name": "A2",
                    "ticks": 135936,
                    "time": 442.49929199999997,
                    "velocity": 0.2283464566929134,
                },
                {
                    "duration": 0.8333319999999844,
                    "durationTicks": 256,
                    "midi": 45,
                    "name": "A2",
                    "ticks": 136448,
                    "time": 444.165956,
                    "velocity": 0.2677165354330709,
                },
                {
                    "duration": 0.8333319999999844,
                    "durationTicks": 256,
                    "midi": 44,
                    "name": "G#2",
                    "ticks": 136704,
                    "time": 444.999288,
                    "velocity": 0.28346456692913385,
                },
                {
                    "duration": 0.8333319999999844,
                    "durationTicks": 256,
                    "midi": 45,
                    "name": "A2",
                    "ticks": 136960,
                    "time": 445.83261999999996,
                    "velocity": 0.29133858267716534,
                },
                {
                    "duration": 0.8333320000000413,
                    "durationTicks": 256,
                    "midi": 28,
                    "name": "E1",
                    "ticks": 137216,
                    "time": 446.66595199999995,
                    "velocity": 0.3228346456692913,
                },
                {
                    "duration": 0.4166659999999638,
                    "durationTicks": 128,
                    "midi": 30,
                    "name": "F#1",
                    "ticks": 137472,
                    "time": 447.499284,
                    "velocity": 0.41732283464566927,
                },
                {
                    "duration": 0.41666600000002063,
                    "durationTicks": 128,
                    "midi": 32,
                    "name": "G#1",
                    "ticks": 137600,
                    "time": 447.91594999999995,
                    "velocity": 0.4015748031496063,
                },
                {
                    "duration": 0.8333319999999844,
                    "durationTicks": 256,
                    "midi": 33,
                    "name": "A1",
                    "ticks": 137728,
                    "time": 448.332616,
                    "velocity": 0.3937007874015748,
                },
                {
                    "duration": 0.8333319999999844,
                    "durationTicks": 256,
                    "midi": 28,
                    "name": "E1",
                    "ticks": 139264,
                    "time": 453.332608,
                    "velocity": 0.4645669291338583,
                },
                {
                    "duration": 0.41666600000002063,
                    "durationTicks": 128,
                    "midi": 30,
                    "name": "F#1",
                    "ticks": 139520,
                    "time": 454.16594,
                    "velocity": 0.49606299212598426,
                },
                {
                    "duration": 0.4166659999999638,
                    "durationTicks": 128,
                    "midi": 32,
                    "name": "G#1",
                    "ticks": 139648,
                    "time": 454.582606,
                    "velocity": 0.5275590551181102,
                },
                {
                    "duration": 0.8333319999999844,
                    "durationTicks": 256,
                    "midi": 33,
                    "name": "A1",
                    "ticks": 139776,
                    "time": 454.99927199999996,
                    "velocity": 0.4645669291338583,
                },
                {
                    "duration": 0.8333319999999844,
                    "durationTicks": 256,
                    "midi": 33,
                    "name": "A1",
                    "ticks": 140288,
                    "time": 456.665936,
                    "velocity": 0.4330708661417323,
                },
            ],
        },
    ],
}
